# Grid Center: 2611800, 1263200
# Global Anchor: 7.64977475454284, 47.53283995868075, 0.0

g building_ID_7DC7F5D2-7365-488A-B852-E8DCE9B514CC
v -3993.7094 -1343.4840 333.4485
v -3991.7688 -1339.2795 334.5616
v -3993.7727 -1340.6248 333.4211
f 1 2 3
v -3993.7727 -1340.6248 333.4211
v -3991.7688 -1339.2795 334.5616
v -3993.7802 -1339.3238 333.4214
f 4 5 6
v -3993.6103 -1347.9063 333.4907
v -3991.7239 -1347.8975 334.5598
v -3993.7094 -1343.4840 333.4485
f 7 8 9
v -3991.7688 -1339.2795 334.5616
v -3993.7094 -1343.4840 333.4485
v -3991.7239 -1347.8975 334.5598
f 10 11 12
v -3990.6894 -1339.2552 334.0673
v -3991.7688 -1339.2795 334.5616
v -3991.7239 -1347.8975 334.5598
f 13 14 15
v -3989.3947 -1342.4876 333.4814
v -3990.6894 -1339.2552 334.0673
v -3991.7239 -1347.8975 334.5598
f 16 17 18
v -3991.7239 -1347.8975 334.5598
v -3989.2752 -1347.8839 333.4384
v -3989.3368 -1345.1128 333.4609
f 19 20 21
v -3990.6894 -1339.2552 334.0673
v -3989.3947 -1342.4876 333.4814
v -3989.4660 -1339.2425 333.5071
f 22 23 24
v -3991.7239 -1347.8975 334.5598
v -3989.3368 -1345.1128 333.4609
v -3989.3947 -1342.4876 333.4814
f 25 26 27
v -3993.6094 -1347.9060 331.9068
v -3993.6103 -1347.9063 333.4907
v -3993.7094 -1343.4840 333.4485
f 28 29 30
v -3993.7094 -1343.4840 333.4485
v -3993.6065 -1347.9051 327.1570
v -3993.6074 -1347.9054 328.7409
f 31 32 33
v -3993.6065 -1347.9051 327.1570
v -3993.7094 -1343.4840 333.4485
v -3993.6627 -1345.4019 327.1575
f 34 35 36
v -3993.6627 -1345.4019 327.1575
v -3993.7094 -1343.4840 333.4485
v -3993.7234 -1342.6718 327.1580
f 37 38 39
v -3993.7234 -1342.6718 327.1580
v -3993.7094 -1343.4840 333.4485
v -3993.7727 -1340.6248 333.4211
f 40 41 42
v -3993.7727 -1340.6248 333.4211
v -3993.7688 -1340.6237 327.1584
v -3993.7234 -1342.6718 327.1580
f 43 44 45
v -3993.7802 -1339.3238 333.4214
v -3993.7764 -1339.3227 327.1587
v -3993.7727 -1340.6248 333.4211
f 46 47 48
v -3993.7727 -1340.6248 333.4211
v -3993.7764 -1339.3227 327.1587
v -3993.7688 -1340.6237 327.1584
f 49 50 51
v -3989.3561 -1344.0635 327.1604
v -3989.4154 -1341.4018 329.5239
v -3989.3368 -1345.1128 333.4609
f 52 53 54
v -3989.4154 -1341.4018 329.5239
v -3989.3561 -1344.0635 327.1604
v -3989.4621 -1339.2412 327.1614
f 55 56 57
v -3989.3561 -1344.0635 327.1604
v -3989.3368 -1345.1128 333.4609
v -3989.2752 -1347.8839 333.4384
f 58 59 60
v -3989.2733 -1347.8833 330.2655
v -3989.2714 -1347.8827 327.1597
v -3989.3561 -1344.0635 327.1604
f 61 62 63
v -3990.6852 -1339.2540 327.1606
v -3990.6894 -1339.2552 334.0673
v -3989.4621 -1339.2412 327.1614
f 64 65 66
v -3989.4660 -1339.2425 333.5071
v -3989.4621 -1339.2412 327.1614
v -3990.6894 -1339.2552 334.0673
f 67 68 69
v -3991.7643 -1339.2780 327.1599
v -3993.7688 -1340.6237 327.1584
v -3993.7764 -1339.3227 327.1587
f 70 71 72
v -3993.7688 -1340.6237 327.1584
v -3991.7643 -1339.2780 327.1599
v -3993.7234 -1342.6718 327.1580
f 73 74 75
v -3993.7234 -1342.6718 327.1580
v -3989.3561 -1344.0635 327.1604
v -3993.6627 -1345.4019 327.1575
f 76 77 78
v -3993.6065 -1347.9051 327.1570
v -3993.6627 -1345.4019 327.1575
v -3991.7194 -1347.8961 327.1581
f 79 80 81
v -3991.7643 -1339.2780 327.1599
v -3989.3561 -1344.0635 327.1604
v -3993.7234 -1342.6718 327.1580
f 82 83 84
v -3990.6852 -1339.2540 327.1606
v -3989.4621 -1339.2412 327.1614
v -3989.3561 -1344.0635 327.1604
f 85 86 87
v -3989.3561 -1344.0635 327.1604
v -3991.7194 -1347.8961 327.1581
v -3993.6627 -1345.4019 327.1575
f 88 89 90
v -3989.2714 -1347.8827 327.1597
v -3991.7194 -1347.8961 327.1581
v -3989.3561 -1344.0635 327.1604
f 91 92 93
v -3989.3561 -1344.0635 327.1604
v -3991.7643 -1339.2780 327.1599
v -3990.6852 -1339.2540 327.1606
f 94 95 96
v -3993.6074 -1347.9054 328.7409
v -3989.2733 -1347.8833 330.2655
v -3989.2752 -1347.8839 333.4384
f 97 98 99
v -3989.2714 -1347.8827 327.1597
v -3989.2733 -1347.8833 330.2655
v -3991.7194 -1347.8961 327.1581
f 100 101 102
v -3993.6094 -1347.9060 331.9068
v -3989.2752 -1347.8839 333.4384
v -3991.7239 -1347.8975 334.5598
f 103 104 105
v -3993.6094 -1347.9060 331.9068
v -3993.6074 -1347.9054 328.7409
v -3989.2752 -1347.8839 333.4384
f 106 107 108
v -3993.6065 -1347.9051 327.1570
v -3991.7194 -1347.8961 327.1581
v -3993.6074 -1347.9054 328.7409
f 109 110 111
v -3993.6074 -1347.9054 328.7409
v -3991.7194 -1347.8961 327.1581
v -3989.2733 -1347.8833 330.2655
f 112 113 114
v -3993.6103 -1347.9063 333.4907
v -3993.6094 -1347.9060 331.9068
v -3991.7239 -1347.8975 334.5598
f 115 116 117
v -3990.6852 -1339.2540 327.1606
v -3991.7643 -1339.2780 327.1599
v -3993.7802 -1339.3238 333.4214
f 118 119 120
v -3993.7764 -1339.3227 327.1587
v -3993.7802 -1339.3238 333.4214
v -3991.7643 -1339.2780 327.1599
f 121 122 123
v -3990.6894 -1339.2552 334.0673
v -3993.7802 -1339.3238 333.4214
v -3991.7688 -1339.2795 334.5616
f 124 125 126
v -3990.6852 -1339.2540 327.1606
v -3993.7802 -1339.3238 333.4214
v -3990.6894 -1339.2552 334.0673
f 127 128 129
v -3993.7094 -1343.4840 333.4485
v -3993.6074 -1347.9054 328.7409
v -3993.6094 -1347.9060 331.9068
f 130 131 132
v -3989.4154 -1341.4018 329.5239
v -3989.3947 -1342.4876 333.4814
v -3989.3368 -1345.1128 333.4609
f 133 134 135
v -3989.4621 -1339.2412 327.1614
v -3989.4660 -1339.2425 333.5071
v -3989.3947 -1342.4876 333.4814
f 136 137 138
v -3989.4621 -1339.2412 327.1614
v -3989.3947 -1342.4876 333.4814
v -3989.4154 -1341.4018 329.5239
f 139 140 141
v -3989.3561 -1344.0635 327.1604
v -3989.2752 -1347.8839 333.4384
v -3989.2733 -1347.8833 330.2655
f 142 143 144
