# Grid Center: 2611400, 1263400
# Global Anchor: 7.64977475454284, 47.53283995868075, 0.0

g building_ID_10FD8FD8-3F8A-455F-A627-E72E61543ED4
v -4581.1110 -1137.0423 364.4881
v -4581.3111 -1135.1977 364.4883
v -4583.3607 -1135.4432 364.4868
f 1 2 3
v -4579.0279 -1137.0169 364.4896
v -4578.8113 -1136.7935 364.4898
v -4579.0514 -1136.8198 364.4896
f 4 5 6
v -4581.1110 -1137.0423 364.4881
v -4583.3607 -1135.4432 364.4868
v -4582.1502 -1145.6735 364.4857
f 7 8 9
v -4580.9809 -1137.0286 364.4882
v -4581.1110 -1137.0423 364.4881
v -4580.9556 -1137.2486 364.4882
f 10 11 12
v -4582.1502 -1145.6735 364.4857
v -4580.9556 -1137.2486 364.4882
v -4581.1110 -1137.0423 364.4881
f 13 14 15
v -4577.9078 -1145.1729 364.4889
v -4579.0279 -1137.0169 364.4896
v -4580.9556 -1137.2486 364.4882
f 16 17 18
v -4582.1502 -1145.6735 364.4857
v -4577.9078 -1145.1729 364.4889
v -4580.9556 -1137.2486 364.4882
f 19 20 21
v -4578.8113 -1136.7935 364.4898
v -4579.0279 -1137.0169 364.4896
v -4577.9078 -1145.1729 364.4889
f 22 23 24
v -4583.3550 -1135.4420 356.3861
v -4583.3607 -1135.4432 364.4868
v -4581.3111 -1135.1977 364.4883
f 25 26 27
v -4582.1445 -1145.6723 356.3851
v -4582.1502 -1145.6735 364.4857
v -4583.3607 -1135.4432 364.4868
f 28 29 30
v -4577.9022 -1145.1717 356.3883
v -4577.9078 -1145.1729 364.4889
v -4582.1502 -1145.6735 364.4857
f 31 32 33
v -4578.8104 -1136.7932 363.1268
v -4578.8113 -1136.7935 364.4898
v -4578.6933 -1137.8806 363.1267
f 34 35 36
v -4577.9078 -1145.1729 364.4889
v -4578.6933 -1137.8806 363.1267
v -4578.8113 -1136.7935 364.4898
f 37 38 39
v -4578.6887 -1137.8796 356.6500
v -4578.8056 -1136.7922 356.3891
v -4578.8058 -1136.7923 356.6501
f 40 41 42
v -4578.6920 -1137.8803 361.2468
v -4578.6933 -1137.8806 363.1267
v -4578.1583 -1142.8307 361.2463
f 43 44 45
v -4577.9078 -1145.1729 364.4889
v -4578.1583 -1142.8307 361.2463
v -4578.6933 -1137.8806 363.1267
f 46 47 48
v -4577.9022 -1145.1717 356.3883
v -4578.1583 -1142.8307 361.2463
v -4577.9078 -1145.1729 364.4889
f 49 50 51
v -4577.9022 -1145.1717 356.3883
v -4578.6887 -1137.8796 356.6500
v -4578.1553 -1142.8301 357.0875
f 52 53 54
v -4578.6891 -1137.8796 357.0880
v -4578.1553 -1142.8301 357.0875
v -4578.6887 -1137.8796 356.6500
f 55 56 57
v -4578.1583 -1142.8307 361.2463
v -4577.9022 -1145.1717 356.3883
v -4578.1553 -1142.8301 357.0875
f 58 59 60
v -4578.8056 -1136.7922 356.3891
v -4578.6887 -1137.8796 356.6500
v -4577.9022 -1145.1717 356.3883
f 61 62 63
v -4579.0457 -1136.8186 356.3889
v -4579.0459 -1136.8186 356.6499
v -4578.8058 -1136.7923 356.6501
f 64 65 66
v -4581.1053 -1137.0410 356.3874
v -4581.1055 -1137.0411 356.6484
v -4580.9754 -1137.0274 356.6485
f 67 68 69
v -4581.3053 -1135.1965 356.3876
v -4581.3111 -1135.1977 364.4883
v -4581.1628 -1136.5539 363.1252
f 70 71 72
v -4581.1110 -1137.0423 364.4881
v -4581.1628 -1136.5539 363.1252
v -4581.3111 -1135.1977 364.4883
f 73 74 75
v -4581.1053 -1137.0410 356.3874
v -4581.3053 -1135.1965 356.3876
v -4581.1582 -1136.5529 356.6485
f 76 77 78
v -4581.1628 -1136.5539 363.1252
v -4581.1582 -1136.5529 356.6485
v -4581.3053 -1135.1965 356.3876
f 79 80 81
v -4581.1628 -1136.5539 363.1252
v -4581.1110 -1137.0423 364.4881
v -4581.1101 -1137.0420 363.1251
f 82 83 84
v -4581.1582 -1136.5529 356.6485
v -4581.1055 -1137.0411 356.6484
v -4581.1053 -1137.0410 356.3874
f 85 86 87
v -4577.9022 -1145.1717 356.3883
v -4582.1445 -1145.6723 356.3851
v -4580.9499 -1137.2474 356.3875
f 88 89 90
v -4581.1053 -1137.0410 356.3874
v -4580.9499 -1137.2474 356.3875
v -4582.1445 -1145.6723 356.3851
f 91 92 93
v -4578.8056 -1136.7922 356.3891
v -4577.9022 -1145.1717 356.3883
v -4579.0222 -1137.0157 356.3889
f 94 95 96
v -4580.9499 -1137.2474 356.3875
v -4579.0222 -1137.0157 356.3889
v -4577.9022 -1145.1717 356.3883
f 97 98 99
v -4579.0222 -1137.0157 356.3889
v -4579.0457 -1136.8186 356.3889
v -4578.8056 -1136.7922 356.3891
f 100 101 102
v -4581.3053 -1135.1965 356.3876
v -4581.1053 -1137.0410 356.3874
v -4583.3550 -1135.4420 356.3861
f 103 104 105
v -4582.1445 -1145.6723 356.3851
v -4583.3550 -1135.4420 356.3861
v -4581.1053 -1137.0410 356.3874
f 106 107 108
v -4580.9499 -1137.2474 356.3875
v -4581.1053 -1137.0410 356.3874
v -4580.9753 -1137.0274 356.3875
f 109 110 111
v -4579.0733 -1136.5825 356.6500
v -4579.0778 -1136.5835 363.1267
v -4572.0926 -1135.7683 363.1318
f 112 113 114
v -4579.0733 -1136.5825 356.6500
v -4572.0926 -1135.7683 363.1318
v -4572.0880 -1135.7673 356.6551
f 115 116 117
v -4569.5177 -1135.2972 356.6570
v -4569.5179 -1135.2972 356.8870
v -4569.3491 -1136.8727 356.8869
f 118 119 120
v -4572.1105 -1135.5772 356.6551
v -4572.1107 -1135.5773 356.8851
v -4569.5179 -1135.2972 356.8870
f 121 122 123
v -4579.0504 -1136.8196 363.1266
v -4579.0514 -1136.8198 364.4896
v -4578.8113 -1136.7935 364.4898
f 124 125 126
v -4580.9499 -1137.2474 356.3875
v -4580.9556 -1137.2486 364.4882
v -4579.0222 -1137.0157 356.3889
f 127 128 129
v -4581.1101 -1137.0420 363.1251
v -4581.1110 -1137.0423 364.4881
v -4580.9800 -1137.0285 363.1252
f 130 131 132
v -4581.0377 -1136.5403 363.1253
v -4581.1628 -1136.5539 363.1252
v -4581.1101 -1137.0420 363.1251
f 133 134 135
v -4581.1101 -1137.0420 363.1251
v -4580.9800 -1137.0285 363.1252
v -4581.0377 -1136.5403 363.1253
f 136 137 138
v -4578.8104 -1136.7932 363.1268
v -4579.0778 -1136.5835 363.1267
v -4579.0504 -1136.8196 363.1266
f 139 140 141
v -4572.0926 -1135.7683 363.1318
v -4579.0778 -1136.5835 363.1267
v -4578.8104 -1136.7932 363.1268
f 142 143 144
v -4578.8104 -1136.7932 363.1268
v -4571.9293 -1137.1507 363.1317
v -4572.0926 -1135.7683 363.1318
f 145 146 147
v -4578.6933 -1137.8806 363.1267
v -4571.9293 -1137.1507 363.1317
v -4578.8104 -1136.7932 363.1268
f 148 149 150
v -4581.1582 -1136.5529 356.6485
v -4581.1628 -1136.5539 363.1252
v -4581.0377 -1136.5403 363.1253
f 151 152 153
v -4571.9280 -1137.1505 361.2518
v -4571.9293 -1137.1507 363.1317
v -4578.6933 -1137.8806 363.1267
f 154 155 156
v -4569.5177 -1135.2972 356.6570
v -4569.3490 -1136.8727 356.6569
v -4572.0880 -1135.7673 356.6551
f 157 158 159
v -4578.6887 -1137.8796 356.6500
v -4572.0880 -1135.7673 356.6551
v -4569.3490 -1136.8727 356.6569
f 160 161 162
v -4572.0880 -1135.7673 356.6551
v -4572.1105 -1135.5772 356.6551
v -4569.5177 -1135.2972 356.6570
f 163 164 165
v -4572.0880 -1135.7673 356.6551
v -4578.8058 -1136.7923 356.6501
v -4579.0733 -1136.5825 356.6500
f 166 167 168
v -4579.0459 -1136.8186 356.6499
v -4579.0733 -1136.5825 356.6500
v -4578.8058 -1136.7923 356.6501
f 169 170 171
v -4572.0880 -1135.7673 356.6551
v -4578.6887 -1137.8796 356.6500
v -4578.8058 -1136.7923 356.6501
f 172 173 174
v -4581.1055 -1137.0411 356.6484
v -4581.0331 -1136.5393 356.6486
v -4580.9754 -1137.0274 356.6485
f 175 176 177
v -4581.0331 -1136.5393 356.6486
v -4581.1055 -1137.0411 356.6484
v -4581.1582 -1136.5529 356.6485
f 178 179 180
v -4564.4725 -1133.1944 367.1926
v -4572.2910 -1134.1254 367.1869
v -4572.1170 -1135.5869 367.1867
f 181 182 183
v -4572.1170 -1135.5869 367.1867
v -4558.0133 -1139.4648 367.1961
v -4564.4725 -1133.1944 367.1926
f 184 185 186
v -4558.0133 -1139.4648 367.1961
v -4558.7568 -1132.5778 367.1968
v -4564.4725 -1133.1944 367.1926
f 187 188 189
v -4571.4863 -1140.9186 367.1861
v -4558.0133 -1139.4648 367.1961
v -4572.1170 -1135.5869 367.1867
f 190 191 192
v -4572.2838 -1134.1238 356.8853
v -4572.2910 -1134.1254 367.1869
v -4564.4725 -1133.1944 367.1926
f 193 194 195
v -4562.4254 -1139.9404 356.8913
v -4558.0061 -1139.4632 356.8945
v -4562.4309 -1139.9416 364.7220
f 196 197 198
v -4558.0133 -1139.4648 367.1961
v -4562.4309 -1139.9416 364.7220
v -4558.0061 -1139.4632 356.8945
f 199 200 201
v -4571.4845 -1140.9182 364.7153
v -4562.4309 -1139.9416 364.7220
v -4571.4863 -1140.9186 367.1861
f 202 203 204
v -4558.0133 -1139.4648 367.1961
v -4571.4863 -1140.9186 367.1861
v -4562.4309 -1139.9416 364.7220
f 205 206 207
v -4558.7496 -1132.5762 356.8952
v -4558.7568 -1132.5778 367.1968
v -4558.0133 -1139.4648 367.1961
f 208 209 210
v -4564.4652 -1133.1928 356.8910
v -4564.4725 -1133.1944 367.1926
v -4558.7568 -1132.5778 367.1968
f 211 212 213
v -4562.3990 -1140.1875 356.8562
v -4562.4046 -1140.1886 364.7219
v -4562.4315 -1140.1915 364.7219
f 214 215 216
v -4571.3118 -1142.3294 356.8495
v -4571.3174 -1142.3307 364.7151
v -4571.4794 -1142.3503 364.7150
f 217 218 219
v -4571.0733 -1144.3641 356.8493
v -4571.0788 -1144.3653 364.7149
v -4571.3174 -1142.3307 364.7151
f 220 221 222
v -4562.0604 -1143.2983 356.8559
v -4562.0659 -1143.2995 364.7216
v -4571.0788 -1144.3653 364.7149
f 223 224 225
v -4562.4260 -1140.1903 356.8562
v -4562.4315 -1140.1915 364.7219
v -4562.0659 -1143.2995 364.7216
f 226 227 228
v -4571.4738 -1142.3490 356.8494
v -4571.9002 -1138.3938 356.8498
v -4571.3118 -1142.3294 356.8495
f 229 230 231
v -4562.4260 -1140.1903 356.8562
v -4571.3118 -1142.3294 356.8495
v -4571.9002 -1138.3938 356.8498
f 232 233 234
v -4571.0733 -1144.3641 356.8493
v -4571.3118 -1142.3294 356.8495
v -4562.0604 -1143.2983 356.8559
f 235 236 237
v -4562.4260 -1140.1903 356.8562
v -4562.7005 -1137.4005 356.8565
v -4562.3990 -1140.1875 356.8562
f 238 239 240
v -4571.3118 -1142.3294 356.8495
v -4562.4260 -1140.1903 356.8562
v -4562.0604 -1143.2983 356.8559
f 241 242 243
v -4571.9002 -1138.3938 356.8498
v -4562.7005 -1137.4005 356.8565
v -4562.4260 -1140.1903 356.8562
f 244 245 246
v -4571.4845 -1140.9182 364.7153
v -4571.4794 -1142.3503 364.7150
v -4571.3174 -1142.3307 364.7151
f 247 248 249
v -4571.7847 -1138.3824 364.7156
v -4571.9057 -1138.3951 364.7155
v -4571.4845 -1140.9182 364.7153
f 250 251 252
v -4571.4794 -1142.3503 364.7150
v -4571.4845 -1140.9182 364.7153
v -4571.9057 -1138.3951 364.7155
f 253 254 255
v -4562.4315 -1140.1915 364.7219
v -4571.4845 -1140.9182 364.7153
v -4571.3174 -1142.3307 364.7151
f 256 257 258
v -4571.3174 -1142.3307 364.7151
v -4562.0659 -1143.2995 364.7216
v -4562.4315 -1140.1915 364.7219
f 259 260 261
v -4562.4309 -1139.9416 364.7220
v -4562.4315 -1140.1915 364.7219
v -4562.4046 -1140.1886 364.7219
f 262 263 264
v -4562.4315 -1140.1915 364.7219
v -4562.4309 -1139.9416 364.7220
v -4571.4845 -1140.9182 364.7153
f 265 266 267
v -4562.0659 -1143.2995 364.7216
v -4571.3174 -1142.3307 364.7151
v -4571.0788 -1144.3653 364.7149
f 268 269 270
v -4562.4254 -1139.9404 356.8913
v -4562.7005 -1137.4005 356.8565
v -4562.7006 -1137.4005 356.8915
f 271 272 273
v -4562.3990 -1140.1875 356.8562
v -4562.4254 -1139.9404 356.8913
v -4562.4046 -1140.1886 364.7219
f 274 275 276
v -4562.4309 -1139.9416 364.7220
v -4562.4046 -1140.1886 364.7219
v -4562.4254 -1139.9404 356.8913
f 277 278 279
v -4562.7005 -1137.4005 356.8565
v -4562.4254 -1139.9404 356.8913
v -4562.3990 -1140.1875 356.8562
f 280 281 282
v -4571.9033 -1138.3945 361.2516
v -4571.9057 -1138.3951 364.7155
v -4571.7847 -1138.3824 364.7156
f 283 284 285
v -4571.9002 -1138.3938 356.8498
v -4571.9004 -1138.3939 357.0928
v -4571.7793 -1138.3812 356.8849
f 286 287 288
v -4562.7005 -1137.4005 356.8565
v -4571.7793 -1138.3812 356.8849
v -4562.7006 -1137.4005 356.8915
f 289 290 291
v -4571.9002 -1138.3938 356.8498
v -4571.7793 -1138.3812 356.8849
v -4562.7005 -1137.4005 356.8565
f 292 293 294
v -4571.4738 -1142.3490 356.8494
v -4571.4794 -1142.3503 364.7150
v -4571.5023 -1142.1136 361.2512
f 295 296 297
v -4571.9057 -1138.3951 364.7155
v -4571.5023 -1142.1136 361.2512
v -4571.4794 -1142.3503 364.7150
f 298 299 300
v -4571.9002 -1138.3938 356.8498
v -4571.4738 -1142.3490 356.8494
v -4571.4994 -1142.1129 357.0924
f 301 302 303
v -4571.5023 -1142.1136 361.2512
v -4571.4994 -1142.1129 357.0924
v -4571.4738 -1142.3490 356.8494
f 304 305 306
v -4571.5023 -1142.1136 361.2512
v -4571.9057 -1138.3951 364.7155
v -4571.9033 -1138.3945 361.2516
f 307 308 309
v -4571.9249 -1137.1498 356.8850
v -4569.3490 -1136.8727 356.6569
v -4569.3491 -1136.8727 356.8869
f 310 311 312
v -4578.6887 -1137.8796 356.6500
v -4571.9249 -1137.1498 356.8850
v -4578.6891 -1137.8796 357.0880
f 313 314 315
v -4571.9251 -1137.1499 357.0930
v -4578.6891 -1137.8796 357.0880
v -4571.9249 -1137.1498 356.8850
f 316 317 318
v -4569.3490 -1136.8727 356.6569
v -4571.9249 -1137.1498 356.8850
v -4578.6887 -1137.8796 356.6500
f 319 320 321
v -4571.7793 -1138.3812 356.8849
v -4571.7794 -1138.3812 357.0929
v -4571.9251 -1137.1499 357.0930
f 322 323 324
v -4562.7006 -1137.4005 356.8915
v -4558.0061 -1139.4632 356.8945
v -4562.4254 -1139.9404 356.8913
f 325 326 327
v -4569.5179 -1135.2972 356.8870
v -4564.4652 -1133.1928 356.8910
v -4558.7496 -1132.5762 356.8952
f 328 329 330
v -4558.0061 -1139.4632 356.8945
v -4562.7006 -1137.4005 356.8915
v -4558.7496 -1132.5762 356.8952
f 331 332 333
v -4558.7496 -1132.5762 356.8952
v -4562.7006 -1137.4005 356.8915
v -4569.5179 -1135.2972 356.8870
f 334 335 336
v -4571.9249 -1137.1498 356.8850
v -4569.3491 -1136.8727 356.8869
v -4571.7793 -1138.3812 356.8849
f 337 338 339
v -4562.7006 -1137.4005 356.8915
v -4571.7793 -1138.3812 356.8849
v -4569.3491 -1136.8727 356.8869
f 340 341 342
v -4572.2838 -1134.1238 356.8853
v -4569.5179 -1135.2972 356.8870
v -4572.1107 -1135.5773 356.8851
f 343 344 345
v -4564.4652 -1133.1928 356.8910
v -4569.5179 -1135.2972 356.8870
v -4572.2838 -1134.1238 356.8853
f 346 347 348
v -4562.7006 -1137.4005 356.8915
v -4569.3491 -1136.8727 356.8869
v -4569.5179 -1135.2972 356.8870
f 349 350 351
v -4571.4994 -1142.1129 357.0924
v -4571.5023 -1142.1136 361.2512
v -4578.1583 -1142.8307 361.2463
f 352 353 354
v -4571.9033 -1138.3945 361.2516
v -4571.7823 -1138.3819 361.2517
v -4571.9280 -1137.1505 361.2518
f 355 356 357
v -4578.6920 -1137.8803 361.2468
v -4571.9033 -1138.3945 361.2516
v -4571.9280 -1137.1505 361.2518
f 358 359 360
v -4571.5023 -1142.1136 361.2512
v -4571.9033 -1138.3945 361.2516
v -4578.1583 -1142.8307 361.2463
f 361 362 363
v -4578.6920 -1137.8803 361.2468
v -4578.1583 -1142.8307 361.2463
v -4571.9033 -1138.3945 361.2516
f 364 365 366
v -4571.4994 -1142.1129 357.0924
v -4578.1553 -1142.8301 357.0875
v -4571.9004 -1138.3939 357.0928
f 367 368 369
v -4578.6891 -1137.8796 357.0880
v -4571.9004 -1138.3939 357.0928
v -4578.1553 -1142.8301 357.0875
f 370 371 372
v -4571.7794 -1138.3812 357.0929
v -4571.9004 -1138.3939 357.0928
v -4571.9251 -1137.1499 357.0930
f 373 374 375
v -4578.6891 -1137.8796 357.0880
v -4571.9251 -1137.1499 357.0930
v -4571.9004 -1138.3939 357.0928
f 376 377 378
v -4579.0222 -1137.0157 356.3889
v -4579.0459 -1136.8186 356.6499
v -4579.0457 -1136.8186 356.3889
f 379 380 381
v -4579.0504 -1136.8196 363.1266
v -4579.0222 -1137.0157 356.3889
v -4579.0279 -1137.0169 364.4896
f 382 383 384
v -4579.0279 -1137.0169 364.4896
v -4579.0514 -1136.8198 364.4896
v -4579.0504 -1136.8196 363.1266
f 385 386 387
v -4579.0459 -1136.8186 356.6499
v -4579.0504 -1136.8196 363.1266
v -4579.0733 -1136.5825 356.6500
f 388 389 390
v -4579.0778 -1136.5835 363.1267
v -4579.0733 -1136.5825 356.6500
v -4579.0504 -1136.8196 363.1266
f 391 392 393
v -4579.0222 -1137.0157 356.3889
v -4579.0504 -1136.8196 363.1266
v -4579.0459 -1136.8186 356.6499
f 394 395 396
v -4580.9800 -1137.0285 363.1252
v -4580.9754 -1137.0274 356.6485
v -4581.0377 -1136.5403 363.1253
f 397 398 399
v -4581.0377 -1136.5403 363.1253
v -4580.9754 -1137.0274 356.6485
v -4581.0331 -1136.5393 356.6486
f 400 401 402
v -4580.9499 -1137.2474 356.3875
v -4580.9753 -1137.0274 356.3875
v -4580.9754 -1137.0274 356.6485
f 403 404 405
v -4580.9809 -1137.0286 364.4882
v -4580.9556 -1137.2486 364.4882
v -4580.9800 -1137.0285 363.1252
f 406 407 408
v -4580.9800 -1137.0285 363.1252
v -4580.9556 -1137.2486 364.4882
v -4580.9499 -1137.2474 356.3875
f 409 410 411
v -4580.9800 -1137.0285 363.1252
v -4580.9499 -1137.2474 356.3875
v -4580.9754 -1137.0274 356.6485
f 412 413 414
v -4571.4845 -1140.9182 364.7153
v -4571.4863 -1140.9186 367.1861
v -4571.7847 -1138.3824 364.7156
f 415 416 417
v -4572.1170 -1135.5869 367.1867
v -4571.7847 -1138.3824 364.7156
v -4571.4863 -1140.9186 367.1861
f 418 419 420
v -4571.9280 -1137.1505 361.2518
v -4571.7823 -1138.3819 361.2517
v -4571.9293 -1137.1507 363.1317
f 421 422 423
v -4571.7847 -1138.3824 364.7156
v -4571.9293 -1137.1507 363.1317
v -4571.7823 -1138.3819 361.2517
f 424 425 426
v -4571.9293 -1137.1507 363.1317
v -4571.7847 -1138.3824 364.7156
v -4572.1170 -1135.5869 367.1867
f 427 428 429
v -4572.0926 -1135.7683 363.1318
v -4572.1170 -1135.5869 367.1867
v -4572.2910 -1134.1254 367.1869
f 430 431 432
v -4572.2838 -1134.1238 356.8853
v -4572.0926 -1135.7683 363.1318
v -4572.2910 -1134.1254 367.1869
f 433 434 435
v -4572.0880 -1135.7673 356.6551
v -4572.0926 -1135.7683 363.1318
v -4572.1107 -1135.5773 356.8851
f 436 437 438
v -4572.2838 -1134.1238 356.8853
v -4572.1107 -1135.5773 356.8851
v -4572.0926 -1135.7683 363.1318
f 439 440 441
v -4572.1170 -1135.5869 367.1867
v -4572.0926 -1135.7683 363.1318
v -4571.9293 -1137.1507 363.1317
f 442 443 444
v -4583.3550 -1135.4420 356.3861
v -4581.3111 -1135.1977 364.4883
v -4581.3053 -1135.1965 356.3876
f 445 446 447
v -4582.1445 -1145.6723 356.3851
v -4583.3607 -1135.4432 364.4868
v -4583.3550 -1135.4420 356.3861
f 448 449 450
v -4577.9022 -1145.1717 356.3883
v -4582.1502 -1145.6735 364.4857
v -4582.1445 -1145.6723 356.3851
f 451 452 453
v -4579.0457 -1136.8186 356.3889
v -4578.8058 -1136.7923 356.6501
v -4578.8056 -1136.7922 356.3891
f 454 455 456
v -4581.1053 -1137.0410 356.3874
v -4580.9754 -1137.0274 356.6485
v -4580.9753 -1137.0274 356.3875
f 457 458 459
v -4569.5177 -1135.2972 356.6570
v -4569.3491 -1136.8727 356.8869
v -4569.3490 -1136.8727 356.6569
f 460 461 462
v -4572.1105 -1135.5772 356.6551
v -4569.5179 -1135.2972 356.8870
v -4569.5177 -1135.2972 356.6570
f 463 464 465
v -4579.0504 -1136.8196 363.1266
v -4578.8113 -1136.7935 364.4898
v -4578.8104 -1136.7932 363.1268
f 466 467 468
v -4580.9556 -1137.2486 364.4882
v -4579.0279 -1137.0169 364.4896
v -4579.0222 -1137.0157 356.3889
f 469 470 471
v -4581.1110 -1137.0423 364.4881
v -4580.9809 -1137.0286 364.4882
v -4580.9800 -1137.0285 363.1252
f 472 473 474
v -4581.1582 -1136.5529 356.6485
v -4581.0377 -1136.5403 363.1253
v -4581.0331 -1136.5393 356.6486
f 475 476 477
v -4571.9280 -1137.1505 361.2518
v -4578.6933 -1137.8806 363.1267
v -4578.6920 -1137.8803 361.2468
f 478 479 480
v -4572.2838 -1134.1238 356.8853
v -4564.4725 -1133.1944 367.1926
v -4564.4652 -1133.1928 356.8910
f 481 482 483
v -4558.7496 -1132.5762 356.8952
v -4558.0133 -1139.4648 367.1961
v -4558.0061 -1139.4632 356.8945
f 484 485 486
v -4564.4652 -1133.1928 356.8910
v -4558.7568 -1132.5778 367.1968
v -4558.7496 -1132.5762 356.8952
f 487 488 489
v -4562.3990 -1140.1875 356.8562
v -4562.4315 -1140.1915 364.7219
v -4562.4260 -1140.1903 356.8562
f 490 491 492
v -4571.3118 -1142.3294 356.8495
v -4571.4794 -1142.3503 364.7150
v -4571.4738 -1142.3490 356.8494
f 493 494 495
v -4571.0733 -1144.3641 356.8493
v -4571.3174 -1142.3307 364.7151
v -4571.3118 -1142.3294 356.8495
f 496 497 498
v -4562.0604 -1143.2983 356.8559
v -4571.0788 -1144.3653 364.7149
v -4571.0733 -1144.3641 356.8493
f 499 500 501
v -4562.4260 -1140.1903 356.8562
v -4562.0659 -1143.2995 364.7216
v -4562.0604 -1143.2983 356.8559
f 502 503 504
v -4571.9033 -1138.3945 361.2516
v -4571.7847 -1138.3824 364.7156
v -4571.7823 -1138.3819 361.2517
f 505 506 507
v -4571.9004 -1138.3939 357.0928
v -4571.7794 -1138.3812 357.0929
v -4571.7793 -1138.3812 356.8849
f 508 509 510
v -4571.9002 -1138.3938 356.8498
v -4571.4994 -1142.1129 357.0924
v -4571.9004 -1138.3939 357.0928
f 511 512 513
v -4571.7793 -1138.3812 356.8849
v -4571.9251 -1137.1499 357.0930
v -4571.9249 -1137.1498 356.8850
f 514 515 516
v -4571.4994 -1142.1129 357.0924
v -4578.1583 -1142.8307 361.2463
v -4578.1553 -1142.8301 357.0875
f 517 518 519
v -4572.0880 -1135.7673 356.6551
v -4572.1107 -1135.5773 356.8851
v -4572.1105 -1135.5772 356.6551
f 520 521 522

g building_ID_F9F098A4-A353-47B0-A788-33DBB5485436
v -4577.7167 -1123.3173 363.9150
v -4570.8103 -1125.2787 363.0196
v -4571.3260 -1121.0855 364.3880
f 523 524 525
v -4577.7167 -1123.3173 363.9150
v -4577.3745 -1126.0891 363.0107
v -4570.8103 -1125.2787 363.0196
f 526 527 528
v -4577.8942 -1121.8838 364.3831
v -4577.7167 -1123.3173 363.9150
v -4571.3260 -1121.0855 364.3880
f 529 530 531
v -4577.3725 -1126.0886 360.1629
v -4570.8063 -1125.2779 357.3249
v -4570.8103 -1125.2787 363.0196
f 532 533 534
v -4577.3725 -1126.0886 360.1629
v -4570.8103 -1125.2787 363.0196
v -4577.3745 -1126.0891 363.0107
f 535 536 537
v -4577.3705 -1126.0882 357.3200
v -4570.8063 -1125.2779 357.3249
v -4577.3725 -1126.0886 360.1629
f 538 539 540
v -4569.0350 -1116.9726 357.3276
v -4569.0390 -1116.9735 363.0834
v -4569.0019 -1117.2786 363.1894
f 541 542 543
v -4569.0350 -1116.9726 357.3276
v -4569.0019 -1117.2786 363.1894
v -4568.9978 -1117.2777 357.3276
f 544 545 546
v -4568.9978 -1117.2777 357.3276
v -4569.6390 -1117.3549 357.3271
v -4569.6762 -1117.0519 357.3271
f 547 548 549
v -4569.0350 -1116.9726 357.3276
v -4568.9978 -1117.2777 357.3276
v -4569.6762 -1117.0519 357.3271
f 550 551 552
v -4577.7615 -1122.9120 356.6743
v -4577.7627 -1122.9123 358.3712
v -4583.4488 -1123.6147 363.0138
f 553 554 555
v -4583.4471 -1123.6143 360.4819
v -4577.7615 -1122.9120 356.6743
v -4583.4488 -1123.6147 363.0138
f 556 557 558
v -4583.4444 -1123.6137 356.6701
v -4577.7615 -1122.9120 356.6743
v -4583.4471 -1123.6143 360.4819
f 559 560 561
v -4584.0365 -1118.8251 356.6705
v -4576.3319 -1117.8738 356.6762
v -4583.7360 -1121.2540 356.6703
f 562 563 564
v -4577.7615 -1122.9120 356.6743
v -4583.4444 -1123.6137 356.6701
v -4583.7360 -1121.2540 356.6703
f 565 566 567
v -4577.7615 -1122.9120 356.6743
v -4583.7360 -1121.2540 356.6703
v -4576.0345 -1120.3197 356.6760
f 568 569 570
v -4575.6902 -1123.1586 356.6758
v -4577.7615 -1122.9120 356.6743
v -4576.0345 -1120.3197 356.6760
f 571 572 573
v -4577.7008 -1123.4022 356.6743
v -4577.7615 -1122.9120 356.6743
v -4575.6902 -1123.1586 356.6758
f 574 575 576
v -4576.3319 -1117.8738 356.6762
v -4576.0345 -1120.3197 356.6760
v -4583.7360 -1121.2540 356.6703
f 577 578 579
v -4577.8935 -1121.8837 363.4191
v -4578.0563 -1120.5634 363.9262
v -4578.6345 -1120.6337 363.9258
f 580 581 582
v -4577.8935 -1121.8837 363.4191
v -4583.4488 -1123.6147 363.0138
v -4577.7660 -1122.9130 363.0230
f 583 584 585
v -4583.7412 -1121.2551 363.9220
v -4577.8935 -1121.8837 363.4191
v -4578.6345 -1120.6337 363.9258
f 586 587 588
v -4583.7412 -1121.2551 363.9220
v -4583.4488 -1123.6147 363.0138
v -4577.8935 -1121.8837 363.4191
f 589 590 591
v -4575.6902 -1123.1586 356.6758
v -4575.6906 -1123.1587 357.3218
v -4577.7008 -1123.4022 356.6743
f 592 593 594
v -4569.6439 -1117.3560 364.1898
v -4571.7896 -1117.3132 364.0743
v -4568.8559 -1117.7351 364.3683
f 595 596 597
v -4569.6439 -1117.3560 364.1898
v -4568.8559 -1117.7351 364.3683
v -4568.9136 -1117.2679 364.1904
f 598 599 600
v -4568.8559 -1117.7351 364.3683
v -4571.7896 -1117.3132 364.0743
v -4571.0114 -1123.6617 366.4886
f 601 602 603
v -4569.6439 -1117.3560 364.1898
v -4569.6810 -1117.0528 364.0748
v -4571.7896 -1117.3132 364.0743
f 604 605 606
v -4563.4452 -1117.0667 364.3683
v -4568.8559 -1117.7351 364.3683
v -4562.7556 -1122.6599 366.4947
f 607 608 609
v -4568.8559 -1117.7351 364.3683
v -4571.0114 -1123.6617 366.4886
v -4562.7556 -1122.6599 366.4947
f 610 611 612
v -4570.7270 -1125.9733 365.6384
v -4562.7556 -1122.6599 366.4947
v -4571.0114 -1123.6617 366.4886
f 613 614 615
v -4570.7270 -1125.9733 365.6384
v -4570.6220 -1126.8196 365.3264
v -4562.7556 -1122.6599 366.4947
f 616 617 618
v -4562.7556 -1122.6599 366.4947
v -4570.6220 -1126.8196 365.3264
v -4562.3673 -1125.8008 365.3385
f 619 620 621
v -4568.8559 -1117.7351 364.3683
v -4563.4439 -1117.0663 362.5674
v -4568.8509 -1117.7341 357.1666
f 622 623 624
v -4563.4452 -1117.0667 364.3683
v -4563.4439 -1117.0663 362.5674
v -4568.8559 -1117.7351 364.3683
f 625 626 627
v -4568.8509 -1117.7341 357.1666
v -4563.4439 -1117.0663 362.5674
v -4563.4427 -1117.0661 360.7675
f 628 629 630
v -4568.8509 -1117.7341 357.1666
v -4563.4427 -1117.0661 360.7675
v -4563.4401 -1117.0656 357.1706
f 631 632 633
v -4568.8509 -1117.7341 357.1666
v -4568.9087 -1117.2668 357.1667
v -4568.9136 -1117.2679 364.1904
f 634 635 636
v -4568.9136 -1117.2679 364.1904
v -4568.8559 -1117.7351 364.3683
v -4568.8509 -1117.7341 357.1666
f 637 638 639
v -4562.3659 -1125.8004 363.2965
v -4562.3673 -1125.8008 365.3385
v -4570.6220 -1126.8196 365.3264
f 640 641 642
v -4562.3616 -1125.7995 357.1698
v -4570.6220 -1126.8196 365.3264
v -4570.6164 -1126.8183 357.1638
f 643 644 645
v -4570.6164 -1126.8183 357.1638
v -4562.7491 -1122.6584 357.1701
v -4562.3616 -1125.7995 357.1698
f 646 647 648
v -4571.0049 -1123.6602 357.1640
v -4568.8509 -1117.7341 357.1666
v -4562.7491 -1122.6584 357.1701
f 649 650 651
v -4571.0049 -1123.6602 357.1640
v -4562.7491 -1122.6584 357.1701
v -4570.6164 -1126.8183 357.1638
f 652 653 654
v -4568.8509 -1117.7341 357.1666
v -4563.4401 -1117.0656 357.1706
v -4562.7491 -1122.6584 357.1701
f 655 656 657
v -4568.9087 -1117.2668 357.1667
v -4568.8509 -1117.7341 357.1666
v -4569.6389 -1117.3549 357.1661
f 658 659 660
v -4568.8509 -1117.7341 357.1666
v -4571.0049 -1123.6602 357.1640
v -4571.7848 -1117.3122 357.1646
f 661 662 663
v -4571.7848 -1117.3122 357.1646
v -4569.6389 -1117.3549 357.1661
v -4568.8509 -1117.7341 357.1666
f 664 665 666
v -4569.6389 -1117.3549 357.1661
v -4571.7848 -1117.3122 357.1646
v -4569.6761 -1117.0519 357.1661
f 667 668 669
v -4569.0390 -1116.9735 363.0834
v -4569.6431 -1117.3558 363.1889
v -4569.0019 -1117.2786 363.1894
f 670 671 672
v -4569.6803 -1117.0527 363.0839
v -4569.6431 -1117.3558 363.1889
v -4569.0390 -1116.9735 363.0834
f 673 674 675
v -4571.7849 -1117.3122 357.3256
v -4576.0350 -1120.3197 357.3220
v -4576.3324 -1117.8739 357.3222
f 676 677 678
v -4570.8063 -1125.2779 357.3249
v -4577.3705 -1126.0882 357.3200
v -4575.6906 -1123.1587 357.3218
f 679 680 681
v -4577.3705 -1126.0882 357.3200
v -4577.7013 -1123.4033 357.3203
v -4575.6906 -1123.1587 357.3218
f 682 683 684
v -4575.6906 -1123.1587 357.3218
v -4576.0350 -1120.3197 357.3220
v -4571.7849 -1117.3122 357.3256
f 685 686 687
v -4571.7849 -1117.3122 357.3256
v -4570.8063 -1125.2779 357.3249
v -4575.6906 -1123.1587 357.3218
f 688 689 690
v -4569.6390 -1117.3549 357.3271
v -4568.9978 -1117.2777 357.3276
v -4569.6389 -1117.3549 357.1661
f 691 692 693
v -4569.6389 -1117.3549 357.1661
v -4568.9978 -1117.2777 357.3276
v -4568.9087 -1117.2668 357.1667
f 694 695 696
v -4569.0019 -1117.2786 363.1894
v -4569.6431 -1117.3558 363.1889
v -4569.6439 -1117.3560 364.1898
f 697 698 699
v -4569.0019 -1117.2786 363.1894
v -4569.6439 -1117.3560 364.1898
v -4568.9136 -1117.2679 364.1904
f 700 701 702
v -4568.9087 -1117.2668 357.1667
v -4568.9978 -1117.2777 357.3276
v -4569.0019 -1117.2786 363.1894
f 703 704 705
v -4569.0019 -1117.2786 363.1894
v -4568.9136 -1117.2679 364.1904
v -4568.9087 -1117.2668 357.1667
f 706 707 708
v -4569.6431 -1117.3558 363.1889
v -4569.6803 -1117.0527 363.0839
v -4569.6810 -1117.0528 364.0748
f 709 710 711
v -4569.6810 -1117.0528 364.0748
v -4569.6439 -1117.3560 364.1898
v -4569.6431 -1117.3558 363.1889
f 712 713 714
v -4569.6390 -1117.3549 357.3271
v -4569.6761 -1117.0519 357.1661
v -4569.6762 -1117.0519 357.3271
f 715 716 717
v -4569.6389 -1117.3549 357.1661
v -4569.6761 -1117.0519 357.1661
v -4569.6390 -1117.3549 357.3271
f 718 719 720
v -4578.0563 -1120.5634 363.9262
v -4571.3260 -1121.0855 364.3880
v -4571.7889 -1117.3131 363.0834
f 721 722 723
v -4571.3260 -1121.0855 364.3880
v -4578.0563 -1120.5634 363.9262
v -4577.8942 -1121.8838 364.3831
f 724 725 726
v -4578.8423 -1118.1841 363.0831
v -4578.0563 -1120.5634 363.9262
v -4571.7889 -1117.3131 363.0834
f 727 728 729
v -4578.6345 -1120.6337 363.9258
v -4578.8423 -1118.1841 363.0831
v -4584.0410 -1118.8261 363.0832
f 730 731 732
v -4578.8423 -1118.1841 363.0831
v -4578.6345 -1120.6337 363.9258
v -4578.0563 -1120.5634 363.9262
f 733 734 735
v -4584.0410 -1118.8261 363.0832
v -4583.7412 -1121.2551 363.9220
v -4578.6345 -1120.6337 363.9258
f 736 737 738
v -4577.3745 -1126.0891 363.0107
v -4577.7627 -1122.9123 358.3712
v -4577.3725 -1126.0886 360.1629
f 739 740 741
v -4577.3725 -1126.0886 360.1629
v -4577.7627 -1122.9123 358.3712
v -4577.7013 -1123.4033 357.3203
f 742 743 744
v -4577.3705 -1126.0882 357.3200
v -4577.3725 -1126.0886 360.1629
v -4577.7013 -1123.4033 357.3203
f 745 746 747
v -4577.7008 -1123.4022 356.6743
v -4577.7013 -1123.4033 357.3203
v -4577.7615 -1122.9120 356.6743
f 748 749 750
v -4577.7013 -1123.4033 357.3203
v -4577.7627 -1122.9123 358.3712
v -4577.7615 -1122.9120 356.6743
f 751 752 753
v -4577.8935 -1121.8837 363.4191
v -4577.7660 -1122.9130 363.0230
v -4577.7167 -1123.3173 363.9150
f 754 755 756
v -4577.8942 -1121.8838 364.3831
v -4577.8935 -1121.8837 363.4191
v -4577.7167 -1123.3173 363.9150
f 757 758 759
v -4577.8942 -1121.8838 364.3831
v -4578.0563 -1120.5634 363.9262
v -4577.8935 -1121.8837 363.4191
f 760 761 762
v -4577.3745 -1126.0891 363.0107
v -4577.7660 -1122.9130 363.0230
v -4577.7627 -1122.9123 358.3712
f 763 764 765
v -4577.7660 -1122.9130 363.0230
v -4577.3745 -1126.0891 363.0107
v -4577.7167 -1123.3173 363.9150
f 766 767 768
v -4583.4471 -1123.6143 360.4819
v -4583.7360 -1121.2540 356.6703
v -4583.4444 -1123.6137 356.6701
f 769 770 771
v -4583.4471 -1123.6143 360.4819
v -4583.7412 -1121.2551 363.9220
v -4584.0410 -1118.8261 363.0832
f 772 773 774
v -4584.0365 -1118.8251 356.6705
v -4583.7360 -1121.2540 356.6703
v -4584.0410 -1118.8261 363.0832
f 775 776 777
v -4584.0410 -1118.8261 363.0832
v -4583.7360 -1121.2540 356.6703
v -4583.4471 -1123.6143 360.4819
f 778 779 780
v -4583.7412 -1121.2551 363.9220
v -4583.4471 -1123.6143 360.4819
v -4583.4488 -1123.6147 363.0138
f 781 782 783
v -4576.0345 -1120.3197 356.6760
v -4576.3319 -1117.8738 356.6762
v -4576.3324 -1117.8739 357.3222
f 784 785 786
v -4576.0350 -1120.3197 357.3220
v -4576.0345 -1120.3197 356.6760
v -4576.3324 -1117.8739 357.3222
f 787 788 789
v -4576.0345 -1120.3197 356.6760
v -4576.0350 -1120.3197 357.3220
v -4575.6902 -1123.1586 356.6758
f 790 791 792
v -4575.6906 -1123.1587 357.3218
v -4575.6902 -1123.1586 356.6758
v -4576.0350 -1120.3197 357.3220
f 793 794 795
v -4563.4439 -1117.0663 362.5674
v -4562.3659 -1125.8004 363.2965
v -4563.4427 -1117.0661 360.7675
f 796 797 798
v -4562.3644 -1125.8002 361.2536
v -4562.7491 -1122.6584 357.1701
v -4563.4427 -1117.0661 360.7675
f 799 800 801
v -4562.7491 -1122.6584 357.1701
v -4563.4401 -1117.0656 357.1706
v -4563.4427 -1117.0661 360.7675
f 802 803 804
v -4562.7556 -1122.6599 366.4947
v -4563.4439 -1117.0663 362.5674
v -4563.4452 -1117.0667 364.3683
f 805 806 807
v -4562.3659 -1125.8004 363.2965
v -4562.7556 -1122.6599 366.4947
v -4562.3673 -1125.8008 365.3385
f 808 809 810
v -4563.4427 -1117.0661 360.7675
v -4562.3659 -1125.8004 363.2965
v -4562.3644 -1125.8002 361.2536
f 811 812 813
v -4562.3644 -1125.8002 361.2536
v -4562.3616 -1125.7995 357.1698
v -4562.7491 -1122.6584 357.1701
f 814 815 816
v -4563.4439 -1117.0663 362.5674
v -4562.7556 -1122.6599 366.4947
v -4562.3659 -1125.8004 363.2965
f 817 818 819
v -4569.6762 -1117.0519 357.3271
v -4571.7849 -1117.3122 357.3256
v -4571.7889 -1117.3131 363.0834
f 820 821 822
v -4571.7889 -1117.3131 363.0834
v -4571.7849 -1117.3122 357.3256
v -4578.8423 -1118.1841 363.0831
f 823 824 825
v -4576.3324 -1117.8739 357.3222
v -4584.0365 -1118.8251 356.6705
v -4584.0410 -1118.8261 363.0832
f 826 827 828
v -4578.8423 -1118.1841 363.0831
v -4576.3324 -1117.8739 357.3222
v -4584.0410 -1118.8261 363.0832
f 829 830 831
v -4584.0365 -1118.8251 356.6705
v -4576.3324 -1117.8739 357.3222
v -4576.3319 -1117.8738 356.6762
f 832 833 834
v -4576.3324 -1117.8739 357.3222
v -4578.8423 -1118.1841 363.0831
v -4571.7849 -1117.3122 357.3256
f 835 836 837
v -4569.6803 -1117.0527 363.0839
v -4571.7889 -1117.3131 363.0834
v -4571.7896 -1117.3132 364.0743
f 838 839 840
v -4569.0350 -1116.9726 357.3276
v -4569.6803 -1117.0527 363.0839
v -4569.0390 -1116.9735 363.0834
f 841 842 843
v -4569.6762 -1117.0519 357.3271
v -4571.7889 -1117.3131 363.0834
v -4569.6803 -1117.0527 363.0839
f 844 845 846
v -4571.7848 -1117.3122 357.1646
v -4571.7849 -1117.3122 357.3256
v -4569.6762 -1117.0519 357.3271
f 847 848 849
v -4571.7848 -1117.3122 357.1646
v -4569.6762 -1117.0519 357.3271
v -4569.6761 -1117.0519 357.1661
f 850 851 852
v -4569.0350 -1116.9726 357.3276
v -4569.6762 -1117.0519 357.3271
v -4569.6803 -1117.0527 363.0839
f 853 854 855
v -4569.6810 -1117.0528 364.0748
v -4569.6803 -1117.0527 363.0839
v -4571.7896 -1117.3132 364.0743
f 856 857 858
v -4570.8103 -1125.2787 363.0196
v -4570.6220 -1126.8196 365.3264
v -4570.7270 -1125.9733 365.6384
f 859 860 861
v -4570.8103 -1125.2787 363.0196
v -4570.7270 -1125.9733 365.6384
v -4571.3260 -1121.0855 364.3880
f 862 863 864
v -4570.6164 -1126.8183 357.1638
v -4570.6220 -1126.8196 365.3264
v -4570.8063 -1125.2779 357.3249
f 865 866 867
v -4570.8063 -1125.2779 357.3249
v -4570.6220 -1126.8196 365.3264
v -4570.8103 -1125.2787 363.0196
f 868 869 870
v -4570.7270 -1125.9733 365.6384
v -4571.0114 -1123.6617 366.4886
v -4571.3260 -1121.0855 364.3880
f 871 872 873
v -4571.0114 -1123.6617 366.4886
v -4571.7896 -1117.3132 364.0743
v -4571.3260 -1121.0855 364.3880
f 874 875 876
v -4571.7896 -1117.3132 364.0743
v -4571.7889 -1117.3131 363.0834
v -4571.3260 -1121.0855 364.3880
f 877 878 879
v -4570.6164 -1126.8183 357.1638
v -4570.8063 -1125.2779 357.3249
v -4571.0049 -1123.6602 357.1640
f 880 881 882
v -4571.7849 -1117.3122 357.3256
v -4571.0049 -1123.6602 357.1640
v -4570.8063 -1125.2779 357.3249
f 883 884 885
v -4571.7848 -1117.3122 357.1646
v -4571.0049 -1123.6602 357.1640
v -4571.7849 -1117.3122 357.3256
f 886 887 888
v -4577.7660 -1122.9130 363.0230
v -4583.4488 -1123.6147 363.0138
v -4577.7627 -1122.9123 358.3712
f 889 890 891
v -4575.6906 -1123.1587 357.3218
v -4577.7013 -1123.4033 357.3203
v -4577.7008 -1123.4022 356.6743
f 892 893 894
v -4570.6220 -1126.8196 365.3264
v -4562.3616 -1125.7995 357.1698
v -4562.3644 -1125.8002 361.2536
f 895 896 897
v -4562.3659 -1125.8004 363.2965
v -4570.6220 -1126.8196 365.3264
v -4562.3644 -1125.8002 361.2536
f 898 899 900

g building_ID_764BA11B-08DF-47EF-A5BF-30E0BBF70550
v -4578.7366 -1101.5358 366.0820
v -4583.0647 -1102.0629 364.1679
v -4578.3164 -1105.5439 366.0816
f 901 902 903
v -4578.7366 -1101.5358 366.0820
v -4578.3164 -1105.5439 366.0816
v -4574.2768 -1100.9935 364.1034
f 904 905 906
v -4583.2407 -1106.9803 356.6812
v -4583.2424 -1106.9806 359.1411
v -4583.3904 -1105.7539 356.6813
f 907 908 909
v -4570.0749 -1105.6001 366.5295
v -4570.3312 -1103.0899 356.6911
v -4570.3373 -1103.0912 365.3118
f 910 911 912
v -4570.0749 -1105.6001 366.5295
v -4570.0679 -1105.5986 356.6909
v -4570.3312 -1103.0899 356.6911
f 913 914 915
v -4570.3312 -1103.0899 356.6911
v -4571.1805 -1103.1937 356.6905
v -4571.1866 -1103.1949 365.3182
f 916 917 918
v -4571.4887 -1100.6538 356.6908
v -4571.4939 -1100.6550 364.0834
v -4571.1866 -1103.1949 365.3182
f 919 920 921
v -4571.4887 -1100.6538 356.6908
v -4571.1866 -1103.1949 365.3182
v -4571.1805 -1103.1937 356.6905
f 922 923 924
v -4571.1866 -1103.1949 365.3182
v -4570.0749 -1105.6001 366.5295
v -4570.3373 -1103.0912 365.3118
f 925 926 927
v -4578.3164 -1105.5439 366.0816
v -4570.0749 -1105.6001 366.5295
v -4571.1866 -1103.1949 365.3182
f 928 929 930
v -4571.4939 -1100.6550 364.0834
v -4574.2768 -1100.9935 364.1034
v -4571.1866 -1103.1949 365.3182
f 931 932 933
v -4578.3164 -1105.5439 366.0816
v -4571.1866 -1103.1949 365.3182
v -4574.2768 -1100.9935 364.1034
f 934 935 936
v -4578.3164 -1105.5439 366.0816
v -4583.0647 -1102.0629 364.1679
v -4583.8360 -1102.1568 364.1733
f 937 938 939
v -4570.0749 -1105.6001 366.5295
v -4578.3164 -1105.5439 366.0816
v -4583.2476 -1106.9818 366.5198
f 940 941 942
v -4583.8360 -1102.1568 364.1733
v -4583.2476 -1106.9818 366.5198
v -4578.3164 -1105.5439 366.0816
f 943 944 945
v -4573.4749 -1105.9555 356.6884
v -4570.0679 -1105.5986 356.6909
v -4570.0749 -1105.6001 366.5295
f 946 947 948
v -4570.0749 -1105.6001 366.5295
v -4578.2142 -1106.4527 356.6849
v -4573.4749 -1105.9555 356.6884
f 949 950 951
v -4578.2142 -1106.4527 356.6849
v -4583.2424 -1106.9806 359.1411
v -4582.9866 -1106.9539 356.6814
f 952 953 954
v -4583.2476 -1106.9818 366.5198
v -4578.2142 -1106.4527 356.6849
v -4570.0749 -1105.6001 366.5295
f 955 956 957
v -4578.2142 -1106.4527 356.6849
v -4583.2476 -1106.9818 366.5198
v -4583.2424 -1106.9806 359.1411
f 958 959 960
v -4582.9866 -1106.9539 356.6814
v -4583.2424 -1106.9806 359.1411
v -4583.2407 -1106.9803 356.6812
f 961 962 963
v -4571.1805 -1103.1937 356.6905
v -4570.3312 -1103.0899 356.6911
v -4570.0679 -1105.5986 356.6909
f 964 965 966
v -4573.9994 -1100.9590 356.6889
v -4571.1805 -1103.1937 356.6905
v -4573.4749 -1105.9555 356.6884
f 967 968 969
v -4570.0679 -1105.5986 356.6909
v -4573.4749 -1105.9555 356.6884
v -4571.1805 -1103.1937 356.6905
f 970 971 972
v -4573.9994 -1100.9590 356.6889
v -4571.4887 -1100.6538 356.6908
v -4571.1805 -1103.1937 356.6905
f 973 974 975
v -4573.9994 -1100.9590 356.6889
v -4573.4749 -1105.9555 356.6884
v -4578.7301 -1101.5344 356.6854
f 976 977 978
v -4578.7301 -1101.5344 356.6854
v -4573.4749 -1105.9555 356.6884
v -4578.2142 -1106.4527 356.6849
f 979 980 981
v -4583.3904 -1105.7539 356.6813
v -4578.2142 -1106.4527 356.6849
v -4582.9866 -1106.9539 356.6814
f 982 983 984
v -4582.9866 -1106.9539 356.6814
v -4583.2407 -1106.9803 356.6812
v -4583.3904 -1105.7539 356.6813
f 985 986 987
v -4583.8307 -1102.1556 356.6816
v -4578.7301 -1101.5344 356.6854
v -4583.3904 -1105.7539 356.6813
f 988 989 990
v -4583.3904 -1105.7539 356.6813
v -4578.7301 -1101.5344 356.6854
v -4578.2142 -1106.4527 356.6849
f 991 992 993
v -4578.7301 -1101.5344 356.6854
v -4583.8317 -1102.1558 358.0246
v -4583.8360 -1102.1568 364.1733
f 994 995 996
v -4578.7301 -1101.5344 356.6854
v -4583.8307 -1102.1556 356.6816
v -4583.8317 -1102.1558 358.0246
f 997 998 999
v -4583.0647 -1102.0629 364.1679
v -4578.7301 -1101.5344 356.6854
v -4583.8360 -1102.1568 364.1733
f 1000 1001 1002
v -4574.2768 -1100.9935 364.1034
v -4578.7301 -1101.5344 356.6854
v -4578.7366 -1101.5358 366.0820
f 1003 1004 1005
v -4571.4939 -1100.6550 364.0834
v -4571.4887 -1100.6538 356.6908
v -4574.2768 -1100.9935 364.1034
f 1006 1007 1008
v -4573.9994 -1100.9590 356.6889
v -4578.7301 -1101.5344 356.6854
v -4574.2768 -1100.9935 364.1034
f 1009 1010 1011
v -4573.9994 -1100.9590 356.6889
v -4574.2768 -1100.9935 364.1034
v -4571.4887 -1100.6538 356.6908
f 1012 1013 1014
v -4583.0647 -1102.0629 364.1679
v -4578.7366 -1101.5358 366.0820
v -4578.7301 -1101.5344 356.6854
f 1015 1016 1017
v -4583.3904 -1105.7539 356.6813
v -4583.2424 -1106.9806 359.1411
v -4583.2476 -1106.9818 366.5198
f 1018 1019 1020
v -4583.8360 -1102.1568 364.1733
v -4583.3904 -1105.7539 356.6813
v -4583.2476 -1106.9818 366.5198
f 1021 1022 1023
v -4583.3904 -1105.7539 356.6813
v -4583.8360 -1102.1568 364.1733
v -4583.8317 -1102.1558 358.0246
f 1024 1025 1026
v -4583.8317 -1102.1558 358.0246
v -4583.8307 -1102.1556 356.6816
v -4583.3904 -1105.7539 356.6813
f 1027 1028 1029
v -4570.3373 -1103.0912 365.3118
v -4570.3312 -1103.0899 356.6911
v -4571.1866 -1103.1949 365.3182
f 1030 1031 1032

g building_ID_63BA5688-95C2-46C7-A540-45D271606852
v -4572.9263 -1111.2401 363.9815
v -4578.1244 -1107.3724 366.0814
v -4577.6661 -1111.7376 366.0810
f 1033 1034 1035
v -4570.3783 -1109.8038 356.6899
v -4570.4628 -1109.1373 361.4028
v -4570.2420 -1110.9579 361.8556
f 1036 1037 1038
v -4570.4628 -1109.1373 361.4028
v -4570.5465 -1108.4244 356.6900
v -4570.5525 -1108.4257 365.2067
f 1039 1040 1041
v -4570.5465 -1108.4244 356.6900
v -4570.4628 -1109.1373 361.4028
v -4570.3783 -1109.8038 356.6899
f 1042 1043 1044
v -4570.4628 -1109.1373 361.4028
v -4570.5525 -1108.4257 365.2067
v -4570.3514 -1110.0730 364.4106
f 1045 1046 1047
v -4570.2420 -1110.9579 361.8556
v -4570.2398 -1110.9575 358.6608
v -4570.3783 -1109.8038 356.6899
f 1048 1049 1050
v -4570.3783 -1109.8038 356.6899
v -4570.2398 -1110.9575 358.6608
v -4570.2383 -1110.9573 356.6898
f 1051 1052 1053
v -4570.5465 -1108.4244 356.6900
v -4569.7873 -1108.3318 365.2133
v -4570.5525 -1108.4257 365.2067
f 1054 1055 1056
v -4570.0679 -1105.5986 356.6909
v -4570.0749 -1105.6001 366.5295
v -4569.7873 -1108.3318 365.2133
f 1057 1058 1059
v -4570.0679 -1105.5986 356.6909
v -4569.7873 -1108.3318 365.2133
v -4569.7813 -1108.3304 356.6906
f 1060 1061 1062
v -4569.7873 -1108.3318 365.2133
v -4570.0749 -1105.6001 366.5295
v -4570.5525 -1108.4257 365.2067
f 1063 1064 1065
v -4572.9263 -1111.2401 363.9815
v -4570.2435 -1110.9583 363.9835
v -4570.3514 -1110.0730 364.4106
f 1066 1067 1068
v -4570.0749 -1105.6001 366.5295
v -4578.1244 -1107.3724 366.0814
v -4570.5525 -1108.4257 365.2067
f 1069 1070 1071
v -4578.1244 -1107.3724 366.0814
v -4583.2476 -1106.9818 366.5198
v -4583.1996 -1107.3768 366.3288
f 1072 1073 1074
v -4583.2476 -1106.9818 366.5198
v -4578.1244 -1107.3724 366.0814
v -4570.0749 -1105.6001 366.5295
f 1075 1076 1077
v -4583.1996 -1107.3768 366.3288
v -4582.6010 -1112.2551 363.9744
v -4578.1244 -1107.3724 366.0814
f 1078 1079 1080
v -4572.9263 -1111.2401 363.9815
v -4570.5525 -1108.4257 365.2067
v -4578.1244 -1107.3724 366.0814
f 1081 1082 1083
v -4570.5525 -1108.4257 365.2067
v -4572.9263 -1111.2401 363.9815
v -4570.3514 -1110.0730 364.4106
f 1084 1085 1086
v -4582.4379 -1112.2376 363.9746
v -4578.1244 -1107.3724 366.0814
v -4582.6010 -1112.2551 363.9744
f 1087 1088 1089
v -4583.1928 -1107.3754 356.6812
v -4583.2407 -1106.9803 356.6812
v -4578.2142 -1106.4527 356.6849
f 1090 1091 1092
v -4582.4328 -1112.2364 356.6809
v -4582.5959 -1112.2541 356.6807
v -4583.1928 -1107.3754 356.6812
f 1093 1094 1095
v -4583.1928 -1107.3754 356.6812
v -4577.6595 -1111.7362 356.6844
v -4582.4328 -1112.2364 356.6809
f 1096 1097 1098
v -4577.6595 -1111.7362 356.6844
v -4583.1928 -1107.3754 356.6812
v -4578.2142 -1106.4527 356.6849
f 1099 1100 1101
v -4577.6595 -1111.7362 356.6844
v -4578.2142 -1106.4527 356.6849
v -4570.5465 -1108.4244 356.6900
f 1102 1103 1104
v -4570.0679 -1105.5986 356.6909
v -4570.5465 -1108.4244 356.6900
v -4573.4749 -1105.9555 356.6884
f 1105 1106 1107
v -4569.7813 -1108.3304 356.6906
v -4570.5465 -1108.4244 356.6900
v -4570.0679 -1105.5986 356.6909
f 1108 1109 1110
v -4572.9211 -1111.2390 356.6878
v -4577.6595 -1111.7362 356.6844
v -4570.3783 -1109.8038 356.6899
f 1111 1112 1113
v -4570.3783 -1109.8038 356.6899
v -4577.6595 -1111.7362 356.6844
v -4570.5465 -1108.4244 356.6900
f 1114 1115 1116
v -4572.9211 -1111.2390 356.6878
v -4570.3783 -1109.8038 356.6899
v -4570.2383 -1110.9573 356.6898
f 1117 1118 1119
v -4573.4749 -1105.9555 356.6884
v -4570.5465 -1108.4244 356.6900
v -4578.2142 -1106.4527 356.6849
f 1120 1121 1122
v -4578.2142 -1106.4527 356.6849
v -4583.2407 -1106.9803 356.6812
v -4583.2476 -1106.9818 366.5198
f 1123 1124 1125
v -4573.4749 -1105.9555 356.6884
v -4578.2142 -1106.4527 356.6849
v -4570.0749 -1105.6001 366.5295
f 1126 1127 1128
v -4583.2476 -1106.9818 366.5198
v -4570.0749 -1105.6001 366.5295
v -4578.2142 -1106.4527 356.6849
f 1129 1130 1131
v -4570.0749 -1105.6001 366.5295
v -4570.0679 -1105.5986 356.6909
v -4573.4749 -1105.9555 356.6884
f 1132 1133 1134
v -4582.4379 -1112.2376 363.9746
v -4577.6661 -1111.7376 366.0810
v -4578.1244 -1107.3724 366.0814
f 1135 1136 1137
v -4583.1928 -1107.3754 356.6812
v -4582.5959 -1112.2541 356.6807
v -4582.6010 -1112.2551 363.9744
f 1138 1139 1140
v -4583.1996 -1107.3768 366.3288
v -4583.1928 -1107.3754 356.6812
v -4582.6010 -1112.2551 363.9744
f 1141 1142 1143
v -4583.2476 -1106.9818 366.5198
v -4583.2407 -1106.9803 356.6812
v -4583.1996 -1107.3768 366.3288
f 1144 1145 1146
v -4583.1928 -1107.3754 356.6812
v -4583.1996 -1107.3768 366.3288
v -4583.2407 -1106.9803 356.6812
f 1147 1148 1149
v -4570.2420 -1110.9579 361.8556
v -4570.2435 -1110.9583 363.9835
v -4572.9263 -1111.2401 363.9815
f 1150 1151 1152
v -4577.6595 -1111.7362 356.6844
v -4570.2398 -1110.9575 358.6608
v -4570.2420 -1110.9579 361.8556
f 1153 1154 1155
v -4572.9211 -1111.2390 356.6878
v -4570.2383 -1110.9573 356.6898
v -4570.2398 -1110.9575 358.6608
f 1156 1157 1158
v -4570.2420 -1110.9579 361.8556
v -4572.9263 -1111.2401 363.9815
v -4582.4328 -1112.2364 356.6809
f 1159 1160 1161
v -4582.5959 -1112.2541 356.6807
v -4582.4379 -1112.2376 363.9746
v -4582.6010 -1112.2551 363.9744
f 1162 1163 1164
v -4572.9263 -1111.2401 363.9815
v -4582.4379 -1112.2376 363.9746
v -4582.5959 -1112.2541 356.6807
f 1165 1166 1167
v -4572.9211 -1111.2390 356.6878
v -4570.2398 -1110.9575 358.6608
v -4577.6595 -1111.7362 356.6844
f 1168 1169 1170
v -4582.5959 -1112.2541 356.6807
v -4582.4328 -1112.2364 356.6809
v -4572.9263 -1111.2401 363.9815
f 1171 1172 1173
v -4570.2420 -1110.9579 361.8556
v -4582.4328 -1112.2364 356.6809
v -4577.6595 -1111.7362 356.6844
f 1174 1175 1176
v -4577.6661 -1111.7376 366.0810
v -4582.4379 -1112.2376 363.9746
v -4572.9263 -1111.2401 363.9815
f 1177 1178 1179
v -4570.4628 -1109.1373 361.4028
v -4570.3514 -1110.0730 364.4106
v -4570.2420 -1110.9579 361.8556
f 1180 1181 1182
v -4570.2435 -1110.9583 363.9835
v -4570.2420 -1110.9579 361.8556
v -4570.3514 -1110.0730 364.4106
f 1183 1184 1185
v -4569.7873 -1108.3318 365.2133
v -4570.5465 -1108.4244 356.6900
v -4569.7813 -1108.3304 356.6906
f 1186 1187 1188
