# Grid Center: 2611400, 1266200
# Global Anchor: 7.64977475454284, 47.53283995868075, 0.0

g building_ID_B3B7C4E7-1F43-4E99-8CBB-19CECFFA44D5
v -4621.0914 1309.7004 295.2675
v -4633.7387 1299.5632 298.4122
v -4628.5845 1296.6036 295.2647
f 1 2 3
v -4633.7387 1299.5632 298.4122
v -4621.0914 1309.7004 295.2675
v -4626.2466 1312.6589 298.4150
f 4 5 6
v -4621.0899 1309.6999 293.2756
v -4621.0914 1309.7004 295.2675
v -4628.5845 1296.6036 295.2647
f 7 8 9
v -4638.8625 1302.5052 295.2561
v -4626.2466 1312.6589 298.4150
v -4631.3704 1315.6009 295.2588
f 10 11 12
v -4626.2466 1312.6589 298.4150
v -4638.8625 1302.5052 295.2561
v -4633.7387 1299.5632 298.4122
f 13 14 15
v -4638.8611 1302.5048 293.2641
v -4638.8625 1302.5052 295.2561
v -4631.3704 1315.6009 295.2588
f 16 17 18
v -4648.6459 1308.1279 275.1605
v -4648.1636 1307.8495 275.1609
v -4648.7805 1307.8933 275.1604
f 19 20 21
v -4648.1636 1307.8495 275.1609
v -4648.6459 1308.1279 275.1605
v -4645.5825 1313.4815 275.1616
f 22 23 24
v -4638.0664 1302.0515 275.1694
v -4648.1636 1307.8495 275.1609
v -4634.9770 1307.4141 275.1706
f 25 26 27
v -4645.5825 1313.4815 275.1616
v -4634.9770 1307.4141 275.1706
v -4648.1636 1307.8495 275.1609
f 28 29 30
v -4648.7805 1307.8933 275.1604
v -4648.1636 1307.8495 275.1609
v -4648.2963 1307.6159 275.1609
f 31 32 33
v -4639.6645 1302.9682 281.5619
v -4636.5921 1308.3369 281.5630
v -4648.1682 1307.8511 281.5547
f 34 35 36
v -4648.3009 1307.6175 281.5547
v -4648.1682 1307.8511 281.5547
v -4648.7851 1307.8947 281.5542
f 37 38 39
v -4648.6505 1308.1293 281.5543
v -4636.5921 1308.3369 281.5630
v -4645.5871 1313.4831 281.5554
f 40 41 42
v -4648.6505 1308.1293 281.5543
v -4648.7851 1307.8947 281.5542
v -4648.1682 1307.8511 281.5547
f 43 44 45
v -4636.5921 1308.3369 281.5630
v -4648.6505 1308.1293 281.5543
v -4648.1682 1307.8511 281.5547
f 46 47 48
v -4648.2963 1307.6159 275.1609
v -4648.3009 1307.6175 281.5547
v -4648.7851 1307.8947 281.5542
f 49 50 51
v -4648.1636 1307.8495 275.1609
v -4648.1682 1307.8511 281.5547
v -4648.3009 1307.6175 281.5547
f 52 53 54
v -4634.9770 1307.4141 275.1706
v -4634.9771 1307.4141 275.3036
v -4638.0665 1302.0515 275.3024
f 55 56 57
v -4636.3224 1308.4168 275.3024
v -4636.3352 1308.4209 293.2648
v -4632.0020 1315.9642 293.2664
f 58 59 60
v -4636.4871 1308.5122 275.3022
v -4636.5000 1308.5163 293.2646
v -4636.3352 1308.4209 293.2648
f 61 62 63
v -4620.2645 1309.2296 275.3140
v -4620.2772 1309.2338 293.2762
v -4627.7704 1296.1360 293.2734
f 64 65 66
v -4634.9771 1307.4141 275.3036
v -4636.3224 1308.4168 275.3024
v -4631.9892 1315.9600 275.3041
f 67 68 69
v -4636.5876 1308.3355 275.3022
v -4636.4871 1308.5122 275.3022
v -4636.3224 1308.4168 275.3024
f 70 71 72
v -4634.9771 1307.4141 275.3036
v -4631.9892 1315.9600 275.3041
v -4620.2645 1309.2296 275.3140
f 73 74 75
v -4638.0665 1302.0515 275.3024
v -4634.9771 1307.4141 275.3036
v -4627.7575 1296.1319 275.3111
f 76 77 78
v -4620.2645 1309.2296 275.3140
v -4627.7575 1296.1319 275.3111
v -4634.9771 1307.4141 275.3036
f 79 80 81
v -4636.3224 1308.4168 275.3024
v -4634.9771 1307.4141 275.3036
v -4636.5876 1308.3355 275.3022
f 82 83 84
v -4639.6645 1302.9682 281.5619
v -4639.6728 1302.9710 293.2634
v -4636.5921 1308.3369 281.5630
f 85 86 87
v -4636.5000 1308.5163 293.2646
v -4636.5921 1308.3369 281.5630
v -4639.6728 1302.9710 293.2634
f 88 89 90
v -4636.5876 1308.3355 275.3022
v -4636.5921 1308.3369 281.5630
v -4636.4871 1308.5122 275.3022
f 91 92 93
v -4636.5000 1308.5163 293.2646
v -4636.4871 1308.5122 275.3022
v -4636.5921 1308.3369 281.5630
f 94 95 96
v -4620.2772 1309.2338 293.2762
v -4628.5831 1296.6032 293.2727
v -4627.7704 1296.1360 293.2734
f 97 98 99
v -4628.5831 1296.6032 293.2727
v -4620.2772 1309.2338 293.2762
v -4621.0899 1309.6999 293.2756
f 100 101 102
v -4639.6728 1302.9710 293.2634
v -4638.8611 1302.5048 293.2641
v -4636.3352 1308.4209 293.2648
f 103 104 105
v -4631.3690 1315.6005 293.2669
v -4636.3352 1308.4209 293.2648
v -4638.8611 1302.5048 293.2641
f 106 107 108
v -4636.5000 1308.5163 293.2646
v -4639.6728 1302.9710 293.2634
v -4636.3352 1308.4209 293.2648
f 109 110 111
v -4631.3690 1315.6005 293.2669
v -4632.0020 1315.9642 293.2664
v -4636.3352 1308.4209 293.2648
f 112 113 114
v -4620.2645 1309.2296 275.3140
v -4631.9892 1315.9600 275.3041
v -4631.3690 1315.6005 293.2669
f 115 116 117
v -4632.0020 1315.9642 293.2664
v -4631.3690 1315.6005 293.2669
v -4631.9892 1315.9600 275.3041
f 118 119 120
v -4631.3690 1315.6005 293.2669
v -4631.3704 1315.6009 295.2588
v -4626.2466 1312.6589 298.4150
f 121 122 123
v -4621.0899 1309.6999 293.2756
v -4626.2466 1312.6589 298.4150
v -4621.0914 1309.7004 295.2675
f 124 125 126
v -4620.2772 1309.2338 293.2762
v -4620.2645 1309.2296 275.3140
v -4621.0899 1309.6999 293.2756
f 127 128 129
v -4621.0899 1309.6999 293.2756
v -4620.2645 1309.2296 275.3140
v -4631.3690 1315.6005 293.2669
f 130 131 132
v -4626.2466 1312.6589 298.4150
v -4621.0899 1309.6999 293.2756
v -4631.3690 1315.6005 293.2669
f 133 134 135
v -4648.7805 1307.8933 275.1604
v -4648.7851 1307.8947 281.5542
v -4648.6505 1308.1293 281.5543
f 136 137 138
v -4645.5871 1313.4831 281.5554
v -4645.5825 1313.4815 275.1616
v -4648.6459 1308.1279 275.1605
f 139 140 141
v -4645.5871 1313.4831 281.5554
v -4636.5921 1308.3369 281.5630
v -4645.5825 1313.4815 275.1616
f 142 143 144
v -4645.5825 1313.4815 275.1616
v -4636.5921 1308.3369 281.5630
v -4636.5876 1308.3355 275.3022
f 145 146 147
v -4636.5876 1308.3355 275.3022
v -4634.9771 1307.4141 275.3036
v -4634.9770 1307.4141 275.1706
f 148 149 150
v -4645.5825 1313.4815 275.1616
v -4636.5876 1308.3355 275.3022
v -4634.9770 1307.4141 275.1706
f 151 152 153
v -4633.7387 1299.5632 298.4122
v -4628.5831 1296.6032 293.2727
v -4628.5845 1296.6036 295.2647
f 154 155 156
v -4639.6645 1302.9682 281.5619
v -4638.0665 1302.0515 275.3024
v -4627.7575 1296.1319 275.3111
f 157 158 159
v -4627.7704 1296.1360 293.2734
v -4628.5831 1296.6032 293.2727
v -4627.7575 1296.1319 275.3111
f 160 161 162
v -4627.7575 1296.1319 275.3111
v -4628.5831 1296.6032 293.2727
v -4639.6645 1302.9682 281.5619
f 163 164 165
v -4638.8611 1302.5048 293.2641
v -4628.5831 1296.6032 293.2727
v -4633.7387 1299.5632 298.4122
f 166 167 168
v -4639.6645 1302.9682 281.5619
v -4638.8611 1302.5048 293.2641
v -4639.6728 1302.9710 293.2634
f 169 170 171
v -4638.8611 1302.5048 293.2641
v -4639.6645 1302.9682 281.5619
v -4628.5831 1296.6032 293.2727
f 172 173 174
v -4638.0664 1302.0515 275.1694
v -4638.0665 1302.0515 275.3024
v -4648.1636 1307.8495 275.1609
f 175 176 177
v -4648.1636 1307.8495 275.1609
v -4638.0665 1302.0515 275.3024
v -4639.6645 1302.9682 281.5619
f 178 179 180
v -4639.6645 1302.9682 281.5619
v -4648.1682 1307.8511 281.5547
v -4648.1636 1307.8495 275.1609
f 181 182 183
v -4638.8625 1302.5052 295.2561
v -4638.8611 1302.5048 293.2641
v -4633.7387 1299.5632 298.4122
f 184 185 186
v -4621.0899 1309.6999 293.2756
v -4628.5845 1296.6036 295.2647
v -4628.5831 1296.6032 293.2727
f 187 188 189
v -4638.8611 1302.5048 293.2641
v -4631.3704 1315.6009 295.2588
v -4631.3690 1315.6005 293.2669
f 190 191 192
v -4648.2963 1307.6159 275.1609
v -4648.7851 1307.8947 281.5542
v -4648.7805 1307.8933 275.1604
f 193 194 195
v -4648.1636 1307.8495 275.1609
v -4648.3009 1307.6175 281.5547
v -4648.2963 1307.6159 275.1609
f 196 197 198
v -4634.9770 1307.4141 275.1706
v -4638.0665 1302.0515 275.3024
v -4638.0664 1302.0515 275.1694
f 199 200 201
v -4636.3224 1308.4168 275.3024
v -4632.0020 1315.9642 293.2664
v -4631.9892 1315.9600 275.3041
f 202 203 204
v -4636.4871 1308.5122 275.3022
v -4636.3352 1308.4209 293.2648
v -4636.3224 1308.4168 275.3024
f 205 206 207
v -4620.2645 1309.2296 275.3140
v -4627.7704 1296.1360 293.2734
v -4627.7575 1296.1319 275.3111
f 208 209 210
v -4648.7805 1307.8933 275.1604
v -4648.6505 1308.1293 281.5543
v -4648.6459 1308.1279 275.1605
f 211 212 213
v -4645.5871 1313.4831 281.5554
v -4648.6459 1308.1279 275.1605
v -4648.6505 1308.1293 281.5543
f 214 215 216

g building_ID_5884D35F-35FF-4B0B-95C9-782459238A91
v -4581.2812 1306.6703 281.4582
v -4586.1460 1298.1814 281.4575
v -4572.4617 1312.9135 281.6963
f 217 218 219
v -4576.4064 1315.1790 281.4591
v -4581.2812 1306.6703 281.4582
v -4572.4617 1312.9135 281.6963
f 220 221 222
v -4572.4617 1312.9135 281.6963
v -4586.1460 1298.1814 281.4575
v -4582.2153 1295.9249 281.6938
f 223 224 225
v -4581.8819 1305.6169 277.1002
v -4576.4020 1315.1776 275.2633
v -4586.1416 1298.1800 275.2598
f 226 227 228
v -4586.1460 1298.1814 281.4575
v -4581.8819 1305.6169 277.1002
v -4586.1416 1298.1800 275.2598
f 229 230 231
v -4581.8819 1305.6169 277.1002
v -4576.4064 1315.1790 281.4591
v -4576.4020 1315.1776 275.2633
f 232 233 234
v -4582.2107 1295.9235 275.2631
v -4586.1460 1298.1814 281.4575
v -4586.1416 1298.1800 275.2598
f 235 236 237
v -4572.4571 1312.9120 275.2666
v -4572.4617 1312.9135 281.6963
v -4582.2153 1295.9249 281.6938
f 238 239 240
v -4572.4571 1312.9120 275.2666
v -4582.2153 1295.9249 281.6938
v -4582.2107 1295.9235 275.2631
f 241 242 243
v -4572.4617 1312.9135 281.6963
v -4572.4571 1312.9120 275.2666
v -4576.4064 1315.1790 281.4591
f 244 245 246
v -4576.4064 1315.1790 281.4591
v -4572.4571 1312.9120 275.2666
v -4576.4020 1315.1776 275.2633
f 247 248 249
v -4576.4020 1315.1776 275.2633
v -4582.2107 1295.9235 275.2631
v -4586.1416 1298.1800 275.2598
f 250 251 252
v -4582.2107 1295.9235 275.2631
v -4576.4020 1315.1776 275.2633
v -4572.4571 1312.9120 275.2666
f 253 254 255
v -4586.1460 1298.1814 281.4575
v -4581.2812 1306.6703 281.4582
v -4581.8819 1305.6169 277.1002
f 256 257 258
v -4581.2812 1306.6703 281.4582
v -4576.4064 1315.1790 281.4591
v -4581.8819 1305.6169 277.1002
f 259 260 261
v -4582.2153 1295.9249 281.6938
v -4586.1460 1298.1814 281.4575
v -4582.2107 1295.9235 275.2631
f 262 263 264

g building_ID_67FC402D-FA6D-4BA9-8F6E-B181ABDF3D3B
v -4568.7045 1311.1671 284.6602
v -4572.4638 1312.9142 284.6712
v -4580.4766 1298.9590 285.2863
f 265 266 267
v -4572.5749 1314.0074 284.6369
v -4573.0200 1313.2337 284.6707
v -4572.4638 1312.9142 284.6712
f 268 269 270
v -4568.7045 1311.1671 284.6602
v -4580.4766 1298.9590 285.2863
v -4569.8981 1292.8677 285.2951
f 271 272 273
v -4569.8981 1292.8677 285.2951
v -4561.7146 1307.1014 284.6681
v -4568.7045 1311.1671 284.6602
f 274 275 276
v -4568.4403 1311.6274 284.6403
v -4572.5749 1314.0074 284.6369
v -4572.4638 1312.9142 284.6712
f 277 278 279
v -4568.7045 1311.1671 284.6602
v -4568.4403 1311.6274 284.6403
v -4572.4638 1312.9142 284.6712
f 280 281 282
v -4572.5724 1314.0067 281.2551
v -4572.5749 1314.0074 284.6369
v -4568.4403 1311.6274 284.6403
f 283 284 285
v -4573.0200 1313.2337 284.6707
v -4572.8319 1313.5565 281.6629
v -4573.0178 1313.2330 281.6628
f 286 287 288
v -4572.5724 1314.0067 281.2551
v -4572.8319 1313.5565 281.6629
v -4572.5749 1314.0074 284.6369
f 289 290 291
v -4573.0200 1313.2337 284.6707
v -4572.5749 1314.0074 284.6369
v -4572.8319 1313.5565 281.6629
f 292 293 294
v -4572.8317 1313.5564 281.2550
v -4572.8319 1313.5565 281.6629
v -4572.5724 1314.0067 281.2551
f 295 296 297
v -4570.6527 1291.5415 275.2952
v -4570.6529 1291.5415 275.6131
v -4578.7093 1296.1821 275.6065
f 298 299 300
v -4578.7091 1296.1820 275.2885
v -4569.2654 1309.8704 275.2925
v -4570.6527 1291.5415 275.2952
f 301 302 303
v -4570.5964 1310.6300 275.2914
v -4569.2654 1309.8704 275.2925
v -4578.7091 1296.1820 275.2885
f 304 305 306
v -4561.7080 1307.0992 275.2985
v -4569.2654 1309.8704 275.2925
v -4568.5641 1311.0876 275.2927
f 307 308 309
v -4570.6527 1291.5415 275.2952
v -4569.2654 1309.8704 275.2925
v -4561.7080 1307.0992 275.2985
f 310 311 312
v -4582.2184 1295.9273 287.5556
v -4571.6449 1289.8329 287.5674
v -4569.8984 1292.8678 285.7091
f 313 314 315
v -4569.8984 1292.8678 285.7091
v -4580.4769 1298.9592 285.7003
v -4582.2184 1295.9273 287.5556
f 316 317 318
v -4580.4766 1298.9590 285.2863
v -4580.4769 1298.9592 285.7003
v -4569.8984 1292.8678 285.7091
f 319 320 321
v -4570.6529 1291.5415 275.6131
v -4579.6749 1294.4628 275.6061
v -4578.7093 1296.1821 275.6065
f 322 323 324
v -4579.6749 1294.4628 275.6061
v -4570.6529 1291.5415 275.6131
v -4571.6365 1289.8303 275.6128
f 325 326 327
v -4579.6747 1294.4627 275.2652
v -4572.9846 1311.9935 275.2664
v -4570.5963 1310.6300 275.2684
f 328 329 330
v -4572.9846 1311.9935 275.2664
v -4579.6747 1294.4627 275.2652
v -4582.2107 1295.9235 275.2631
f 331 332 333
v -4572.0551 1320.9326 274.5152
v -4572.0598 1320.9342 281.2540
v -4565.3244 1317.0331 281.2596
f 334 335 336
v -4575.6217 1314.7293 274.5139
v -4572.0551 1320.9326 274.5152
v -4572.4567 1312.9118 274.5166
f 337 338 339
v -4565.3196 1317.0316 274.5208
v -4572.4567 1312.9118 274.5166
v -4572.0551 1320.9326 274.5152
f 340 341 342
v -4572.9841 1311.9933 274.5164
v -4572.4567 1312.9118 274.5166
v -4568.6974 1311.1647 274.5196
f 343 344 345
v -4572.9841 1311.9933 274.5164
v -4568.6974 1311.1647 274.5196
v -4569.2649 1309.8703 274.5195
f 346 347 348
v -4568.5636 1311.0873 274.5197
v -4569.2649 1309.8703 274.5195
v -4568.6974 1311.1647 274.5196
f 349 350 351
v -4572.4567 1312.9118 274.5166
v -4565.3196 1317.0316 274.5208
v -4568.6974 1311.1647 274.5196
f 352 353 354
v -4572.8319 1313.5565 281.6629
v -4575.6267 1314.7310 281.5057
v -4573.0178 1313.2330 281.6628
f 355 356 357
v -4575.6267 1314.7310 281.5057
v -4572.8319 1313.5565 281.6629
v -4575.4388 1315.0574 281.5058
f 358 359 360
v -4578.7091 1296.1820 275.2885
v -4570.5963 1310.6300 275.2684
v -4570.5964 1310.6300 275.2914
f 361 362 363
v -4579.6749 1294.4628 275.6061
v -4579.6747 1294.4627 275.2652
v -4578.7091 1296.1820 275.2885
f 364 365 366
v -4570.5963 1310.6300 275.2684
v -4578.7091 1296.1820 275.2885
v -4579.6747 1294.4627 275.2652
f 367 368 369
v -4572.8319 1313.5565 281.6629
v -4575.4386 1315.0573 281.2528
v -4575.4388 1315.0574 281.5058
f 370 371 372
v -4575.4386 1315.0573 281.2528
v -4572.8319 1313.5565 281.6629
v -4572.8317 1313.5564 281.2550
f 373 374 375
v -4568.5636 1311.0873 274.5197
v -4568.5641 1311.0876 275.2927
v -4569.2649 1309.8703 274.5195
f 376 377 378
v -4568.4379 1311.6265 281.2585
v -4565.3244 1317.0331 281.2596
v -4572.5724 1314.0067 281.2551
f 379 380 381
v -4572.0598 1320.9342 281.2540
v -4572.5724 1314.0067 281.2551
v -4565.3244 1317.0331 281.2596
f 382 383 384
v -4572.8317 1313.5564 281.2550
v -4572.5724 1314.0067 281.2551
v -4575.4386 1315.0573 281.2528
f 385 386 387
v -4572.0598 1320.9342 281.2540
v -4575.4386 1315.0573 281.2528
v -4572.5724 1314.0067 281.2551
f 388 389 390
v -4570.5963 1310.6300 275.2684
v -4569.2649 1309.8703 274.5195
v -4569.2654 1309.8704 275.2925
f 391 392 393
v -4570.5964 1310.6300 275.2914
v -4570.5963 1310.6300 275.2684
v -4569.2654 1309.8704 275.2925
f 394 395 396
v -4572.9841 1311.9933 274.5164
v -4570.5963 1310.6300 275.2684
v -4572.9846 1311.9935 275.2664
f 397 398 399
v -4569.2649 1309.8703 274.5195
v -4570.5963 1310.6300 275.2684
v -4572.9841 1311.9933 274.5164
f 400 401 402
v -4568.5641 1311.0876 275.2927
v -4568.5636 1311.0873 274.5197
v -4568.6974 1311.1647 274.5196
f 403 404 405
v -4568.7045 1311.1671 284.6602
v -4568.5641 1311.0876 275.2927
v -4568.6974 1311.1647 274.5196
f 406 407 408
v -4561.7080 1307.0992 275.2985
v -4568.5641 1311.0876 275.2927
v -4561.7146 1307.1014 284.6681
f 409 410 411
v -4568.7045 1311.1671 284.6602
v -4561.7146 1307.1014 284.6681
v -4568.5641 1311.0876 275.2927
f 412 413 414
v -4568.4379 1311.6265 281.2585
v -4565.3196 1317.0316 274.5208
v -4565.3244 1317.0331 281.2596
f 415 416 417
v -4568.6974 1311.1647 274.5196
v -4565.3196 1317.0316 274.5208
v -4568.4379 1311.6265 281.2585
f 418 419 420
v -4568.4379 1311.6265 281.2585
v -4568.7045 1311.1671 284.6602
v -4568.6974 1311.1647 274.5196
f 421 422 423
v -4568.4403 1311.6274 284.6403
v -4568.7045 1311.1671 284.6602
v -4568.4379 1311.6265 281.2585
f 424 425 426
v -4570.6527 1291.5415 275.2952
v -4561.7080 1307.0992 275.2985
v -4561.7146 1307.1014 284.6681
f 427 428 429
v -4561.7146 1307.1014 284.6681
v -4570.6529 1291.5415 275.6131
v -4570.6527 1291.5415 275.2952
f 430 431 432
v -4570.6529 1291.5415 275.6131
v -4561.7146 1307.1014 284.6681
v -4569.8981 1292.8677 285.2951
f 433 434 435
v -4569.8981 1292.8677 285.2951
v -4569.8984 1292.8678 285.7091
v -4571.6449 1289.8329 287.5674
f 436 437 438
v -4571.6449 1289.8329 287.5674
v -4571.6365 1289.8303 275.6128
v -4569.8981 1292.8677 285.2951
f 439 440 441
v -4570.6529 1291.5415 275.6131
v -4569.8981 1292.8677 285.2951
v -4571.6365 1289.8303 275.6128
f 442 443 444
v -4575.4386 1315.0573 281.2528
v -4575.6217 1314.7293 274.5139
v -4575.6267 1314.7310 281.5057
f 445 446 447
v -4575.4388 1315.0574 281.5058
v -4575.4386 1315.0573 281.2528
v -4575.6267 1314.7310 281.5057
f 448 449 450
v -4572.0551 1320.9326 274.5152
v -4575.4386 1315.0573 281.2528
v -4572.0598 1320.9342 281.2540
f 451 452 453
v -4575.6217 1314.7293 274.5139
v -4575.4386 1315.0573 281.2528
v -4572.0551 1320.9326 274.5152
f 454 455 456
v -4571.6365 1289.8303 275.6128
v -4571.6449 1289.8329 287.5674
v -4579.6749 1294.4628 275.6061
f 457 458 459
v -4582.2184 1295.9273 287.5556
v -4579.6749 1294.4628 275.6061
v -4571.6449 1289.8329 287.5674
f 460 461 462
v -4579.6747 1294.4627 275.2652
v -4579.6749 1294.4628 275.6061
v -4582.2100 1295.9245 275.6040
f 463 464 465
v -4579.6749 1294.4628 275.6061
v -4582.2143 1295.9259 281.6938
v -4582.2100 1295.9245 275.6040
f 466 467 468
v -4579.6747 1294.4627 275.2652
v -4582.2100 1295.9245 275.6040
v -4582.2107 1295.9235 275.2631
f 469 470 471
v -4582.2184 1295.9273 287.5556
v -4582.2143 1295.9259 281.6938
v -4579.6749 1294.4628 275.6061
f 472 473 474
v -4573.0178 1313.2330 281.6628
v -4572.4567 1312.9118 274.5166
v -4572.4638 1312.9142 284.6712
f 475 476 477
v -4573.0200 1313.2337 284.6707
v -4573.0178 1313.2330 281.6628
v -4572.4638 1312.9142 284.6712
f 478 479 480
v -4575.6217 1314.7293 274.5139
v -4572.4567 1312.9118 274.5166
v -4573.0178 1313.2330 281.6628
f 481 482 483
v -4573.0178 1313.2330 281.6628
v -4575.6267 1314.7310 281.5057
v -4575.6217 1314.7293 274.5139
f 484 485 486
v -4580.4766 1298.9590 285.2863
v -4582.2143 1295.9259 281.6938
v -4582.2184 1295.9273 287.5556
f 487 488 489
v -4582.2143 1295.9259 281.6938
v -4572.9846 1311.9935 275.2664
v -4582.2100 1295.9245 275.6040
f 490 491 492
v -4582.2100 1295.9245 275.6040
v -4572.9846 1311.9935 275.2664
v -4582.2107 1295.9235 275.2631
f 493 494 495
v -4582.2184 1295.9273 287.5556
v -4580.4769 1298.9592 285.7003
v -4580.4766 1298.9590 285.2863
f 496 497 498
v -4572.9846 1311.9935 275.2664
v -4580.4766 1298.9590 285.2863
v -4572.4638 1312.9142 284.6712
f 499 500 501
v -4572.4567 1312.9118 274.5166
v -4572.9841 1311.9933 274.5164
v -4572.9846 1311.9935 275.2664
f 502 503 504
v -4572.4638 1312.9142 284.6712
v -4572.4567 1312.9118 274.5166
v -4572.9846 1311.9935 275.2664
f 505 506 507
v -4580.4766 1298.9590 285.2863
v -4572.9846 1311.9935 275.2664
v -4582.2143 1295.9259 281.6938
f 508 509 510
v -4572.5724 1314.0067 281.2551
v -4568.4403 1311.6274 284.6403
v -4568.4379 1311.6265 281.2585
f 511 512 513
v -4570.6527 1291.5415 275.2952
v -4578.7093 1296.1821 275.6065
v -4578.7091 1296.1820 275.2885
f 514 515 516
v -4580.4766 1298.9590 285.2863
v -4569.8984 1292.8678 285.7091
v -4569.8981 1292.8677 285.2951
f 517 518 519
v -4572.0551 1320.9326 274.5152
v -4565.3244 1317.0331 281.2596
v -4565.3196 1317.0316 274.5208
f 520 521 522
v -4579.6749 1294.4628 275.6061
v -4578.7091 1296.1820 275.2885
v -4578.7093 1296.1821 275.6065
f 523 524 525
v -4568.5641 1311.0876 275.2927
v -4569.2654 1309.8704 275.2925
v -4569.2649 1309.8703 274.5195
f 526 527 528

g building_ID_6B0AEE9E-BAFC-4B82-B0FC-F54B21BE32F0
v -4470.8587 1296.1247 291.3493
v -4475.8665 1304.8518 294.5519
v -4478.4071 1300.4280 291.3432
f 529 530 531
v -4475.8665 1304.8518 294.5519
v -4470.8587 1296.1247 291.3493
v -4468.3191 1300.5476 294.5581
f 532 533 534
v -4470.0782 1307.9126 291.4635
v -4472.9094 1309.9911 291.2350
v -4475.8665 1304.8518 294.5519
f 535 536 537
v -4469.8741 1308.2599 291.2375
v -4472.9094 1309.9911 291.2350
v -4470.0782 1307.9126 291.4635
f 538 539 540
v -4467.4912 1306.4256 291.4706
v -4468.3191 1300.5476 294.5581
v -4465.5722 1305.3225 291.4761
f 541 542 543
v -4468.3191 1300.5476 294.5581
v -4467.4912 1306.4256 291.4706
v -4470.0782 1307.9126 291.4635
f 544 545 546
v -4468.3191 1300.5476 294.5581
v -4470.0782 1307.9126 291.4635
v -4475.8665 1304.8518 294.5519
f 547 548 549
v -4465.5610 1305.3187 275.1857
v -4468.6655 1307.1012 284.3399
v -4467.4912 1306.4256 291.4706
f 550 551 552
v -4468.6655 1307.1012 284.3399
v -4470.0782 1307.9126 291.4635
v -4467.4912 1306.4256 291.4706
f 553 554 555
v -4468.6655 1307.1012 284.3399
v -4470.0670 1307.9088 275.1821
v -4470.0782 1307.9126 291.4635
f 556 557 558
v -4467.4912 1306.4256 291.4706
v -4465.5722 1305.3225 291.4761
v -4465.5694 1305.3215 287.4033
f 559 560 561
v -4467.8145 1306.6138 275.1839
v -4468.6655 1307.1012 284.3399
v -4465.5610 1305.3187 275.1857
f 562 563 564
v -4470.0670 1307.9088 275.1821
v -4468.6655 1307.1012 284.3399
v -4467.8145 1306.6138 275.1839
f 565 566 567
v -4465.5666 1305.3206 283.3304
v -4465.5610 1305.3187 275.1857
v -4467.4912 1306.4256 291.4706
f 568 569 570
v -4470.0670 1307.9088 275.1821
v -4469.8630 1308.2562 275.1821
v -4469.8741 1308.2599 291.2375
f 571 572 573
v -4469.8741 1308.2599 291.2375
v -4470.0782 1307.9126 291.4635
v -4470.0670 1307.9088 275.1821
f 574 575 576
v -4472.9075 1309.9904 288.4591
v -4472.9094 1309.9911 291.2350
v -4469.8862 1308.2673 288.4616
f 577 578 579
v -4469.8741 1308.2599 291.2375
v -4469.8862 1308.2673 288.4616
v -4472.9094 1309.9911 291.2350
f 580 581 582
v -4472.8984 1309.9874 275.2586
v -4469.8771 1308.2643 275.2611
v -4472.8984 1309.9874 275.1797
f 583 584 585
v -4469.8771 1308.2643 275.2611
v -4469.8862 1308.2673 288.4616
v -4469.8741 1308.2599 291.2375
f 586 587 588
v -4469.8630 1308.2562 275.1821
v -4469.8771 1308.2643 275.2611
v -4469.8741 1308.2599 291.2375
f 589 590 591
v -4472.8984 1309.9874 275.1797
v -4469.8771 1308.2643 275.2611
v -4469.8630 1308.2562 275.1821
f 592 593 594
v -4471.2527 1295.4385 290.0083
v -4476.2875 1298.3817 275.1797
v -4471.2501 1295.4376 286.2764
f 595 596 597
v -4471.2527 1295.4385 290.0083
v -4476.2978 1298.3850 290.1081
v -4476.2875 1298.3817 275.1797
f 598 599 600
v -4478.8069 1299.7094 275.1776
v -4476.3378 1298.2948 275.1796
v -4476.3479 1298.2982 289.9371
f 601 602 603
v -4476.3479 1298.2982 289.9371
v -4478.8107 1299.7107 280.7154
v -4478.8069 1299.7094 275.1776
f 604 605 606
v -4478.8069 1299.7094 275.1776
v -4476.2875 1298.3817 275.1797
v -4476.3378 1298.2948 275.1796
f 607 608 609
v -4476.2875 1298.3817 275.1797
v -4470.8477 1296.1211 275.1839
v -4471.2425 1295.4351 275.1838
f 610 611 612
v -4476.2875 1298.3817 275.1797
v -4475.8531 1304.8474 275.1786
v -4468.3058 1300.5431 275.1848
f 613 614 615
v -4469.8630 1308.2562 275.1821
v -4470.0670 1307.9088 275.1821
v -4472.8984 1309.9874 275.1797
f 616 617 618
v -4475.8531 1304.8474 275.1786
v -4472.8984 1309.9874 275.1797
v -4470.0670 1307.9088 275.1821
f 619 620 621
v -4470.0670 1307.9088 275.1821
v -4468.3058 1300.5431 275.1848
v -4475.8531 1304.8474 275.1786
f 622 623 624
v -4470.8477 1296.1211 275.1839
v -4476.2875 1298.3817 275.1797
v -4468.3058 1300.5431 275.1848
f 625 626 627
v -4470.0670 1307.9088 275.1821
v -4467.8145 1306.6138 275.1839
v -4468.3058 1300.5431 275.1848
f 628 629 630
v -4468.3058 1300.5431 275.1848
v -4467.8145 1306.6138 275.1839
v -4465.5610 1305.3187 275.1857
f 631 632 633
v -4478.8069 1299.7094 275.1776
v -4475.8531 1304.8474 275.1786
v -4476.2875 1298.3817 275.1797
f 634 635 636
v -4469.9607 1315.0985 275.2598
v -4469.9698 1315.1014 288.4602
v -4466.9664 1313.3884 288.4626
f 637 638 639
v -4472.9075 1309.9904 288.4591
v -4466.9664 1313.3884 288.4626
v -4469.9698 1315.1014 288.4602
f 640 641 642
v -4466.9664 1313.3884 288.4626
v -4472.9075 1309.9904 288.4591
v -4469.8862 1308.2673 288.4616
f 643 644 645
v -4466.9574 1313.3854 275.2622
v -4466.9664 1313.3884 288.4626
v -4469.8862 1308.2673 288.4616
f 646 647 648
v -4466.9574 1313.3854 275.2622
v -4469.8771 1308.2643 275.2611
v -4472.8984 1309.9874 275.2586
f 649 650 651
v -4472.8984 1309.9874 275.2586
v -4469.9607 1315.0985 275.2598
v -4466.9574 1313.3854 275.2622
f 652 653 654
v -4476.2978 1298.3850 290.1081
v -4478.4071 1300.4280 291.3432
v -4476.3479 1298.2982 289.9371
f 655 656 657
v -4478.8171 1299.7128 289.9441
v -4476.3479 1298.2982 289.9371
v -4478.4071 1300.4280 291.3432
f 658 659 660
v -4478.4071 1300.4280 291.3432
v -4476.2978 1298.3850 290.1081
v -4470.8587 1296.1247 291.3493
f 661 662 663
v -4470.8587 1296.1247 291.3493
v -4476.2978 1298.3850 290.1081
v -4471.2527 1295.4385 290.0083
f 664 665 666
v -4468.3191 1300.5476 294.5581
v -4471.2501 1295.4376 286.2764
v -4465.5694 1305.3215 287.4033
f 667 668 669
v -4468.3191 1300.5476 294.5581
v -4470.8587 1296.1247 291.3493
v -4471.2501 1295.4376 286.2764
f 670 671 672
v -4465.5722 1305.3225 291.4761
v -4468.3191 1300.5476 294.5581
v -4465.5694 1305.3215 287.4033
f 673 674 675
v -4471.2476 1295.4369 282.5445
v -4465.5666 1305.3206 283.3304
v -4465.5694 1305.3215 287.4033
f 676 677 678
v -4471.2527 1295.4385 290.0083
v -4471.2501 1295.4376 286.2764
v -4470.8587 1296.1247 291.3493
f 679 680 681
v -4470.8477 1296.1211 275.1839
v -4471.2476 1295.4369 282.5445
v -4471.2425 1295.4351 275.1838
f 682 683 684
v -4471.2476 1295.4369 282.5445
v -4468.3058 1300.5431 275.1848
v -4465.5666 1305.3206 283.3304
f 685 686 687
v -4468.3058 1300.5431 275.1848
v -4465.5610 1305.3187 275.1857
v -4465.5666 1305.3206 283.3304
f 688 689 690
v -4468.3058 1300.5431 275.1848
v -4471.2476 1295.4369 282.5445
v -4470.8477 1296.1211 275.1839
f 691 692 693
v -4471.2501 1295.4376 286.2764
v -4471.2476 1295.4369 282.5445
v -4465.5694 1305.3215 287.4033
f 694 695 696
v -4476.2978 1298.3850 290.1081
v -4476.3479 1298.2982 289.9371
v -4476.2875 1298.3817 275.1797
f 697 698 699
v -4476.3479 1298.2982 289.9371
v -4476.3378 1298.2948 275.1796
v -4476.2875 1298.3817 275.1797
f 700 701 702
v -4478.8107 1299.7107 280.7154
v -4472.9075 1309.9904 288.4591
v -4475.8531 1304.8474 275.1786
f 703 704 705
v -4478.8107 1299.7107 280.7154
v -4478.8171 1299.7128 289.9441
v -4472.9075 1309.9904 288.4591
f 706 707 708
v -4478.8069 1299.7094 275.1776
v -4478.8107 1299.7107 280.7154
v -4475.8531 1304.8474 275.1786
f 709 710 711
v -4472.9075 1309.9904 288.4591
v -4478.4071 1300.4280 291.3432
v -4475.8665 1304.8518 294.5519
f 712 713 714
v -4475.8665 1304.8518 294.5519
v -4472.9094 1309.9911 291.2350
v -4472.9075 1309.9904 288.4591
f 715 716 717
v -4475.8531 1304.8474 275.1786
v -4472.9075 1309.9904 288.4591
v -4472.8984 1309.9874 275.2586
f 718 719 720
v -4472.8984 1309.9874 275.2586
v -4472.8984 1309.9874 275.1797
v -4475.8531 1304.8474 275.1786
f 721 722 723
v -4472.9075 1309.9904 288.4591
v -4469.9607 1315.0985 275.2598
v -4472.8984 1309.9874 275.2586
f 724 725 726
v -4469.9607 1315.0985 275.2598
v -4472.9075 1309.9904 288.4591
v -4469.9698 1315.1014 288.4602
f 727 728 729
v -4472.9075 1309.9904 288.4591
v -4478.8171 1299.7128 289.9441
v -4478.4071 1300.4280 291.3432
f 730 731 732
v -4467.4912 1306.4256 291.4706
v -4465.5694 1305.3215 287.4033
v -4465.5666 1305.3206 283.3304
f 733 734 735
v -4476.2875 1298.3817 275.1797
v -4471.2476 1295.4369 282.5445
v -4471.2501 1295.4376 286.2764
f 736 737 738
v -4471.2476 1295.4369 282.5445
v -4476.2875 1298.3817 275.1797
v -4471.2425 1295.4351 275.1838
f 739 740 741
v -4476.3479 1298.2982 289.9371
v -4478.8171 1299.7128 289.9441
v -4478.8107 1299.7107 280.7154
f 742 743 744
v -4469.9607 1315.0985 275.2598
v -4466.9664 1313.3884 288.4626
v -4466.9574 1313.3854 275.2622
f 745 746 747
v -4466.9574 1313.3854 275.2622
v -4469.8862 1308.2673 288.4616
v -4469.8771 1308.2643 275.2611
f 748 749 750

g building_ID_92FB2A40-328F-417E-9388-D6890614F052
v -4458.8908 1317.7597 288.4984
v -4459.0978 1317.3973 288.5084
v -4457.9583 1317.2192 288.4992
f 751 752 753
v -4459.9598 1315.1836 288.5662
v -4460.2833 1314.6195 288.5811
v -4459.6822 1315.0239 288.5665
f 754 755 756
v -4458.4508 1317.0255 288.5099
v -4457.9583 1317.2192 288.4992
v -4459.0978 1317.3973 288.5084
f 757 758 759
v -4458.1632 1316.8597 288.5091
v -4457.9583 1317.2192 288.4992
v -4458.4508 1317.0255 288.5099
f 760 761 762
v -4457.9542 1312.4142 288.6011
v -4458.1632 1316.8597 288.5091
v -4458.4508 1317.0255 288.5099
f 763 764 765
v -4457.9542 1312.4142 288.6011
v -4454.4400 1314.7198 288.5132
v -4458.1632 1316.8597 288.5091
f 766 767 768
v -4459.6822 1315.0239 288.5665
v -4457.9542 1312.4142 288.6011
v -4458.4508 1317.0255 288.5099
f 769 770 771
v -4461.3838 1312.9454 288.6296
v -4460.2833 1314.6195 288.5811
v -4460.3881 1314.6797 288.5810
f 772 773 774
v -4460.2833 1314.6195 288.5811
v -4461.3838 1312.9454 288.6296
v -4461.2370 1312.8601 288.6297
f 775 776 777
v -4459.6822 1315.0239 288.5665
v -4460.2833 1314.6195 288.5811
v -4461.2370 1312.8601 288.6297
f 778 779 780
v -4454.4400 1314.7198 288.5132
v -4457.9542 1312.4142 288.6011
v -4456.2938 1311.4688 288.6024
f 781 782 783
v -4459.6822 1315.0239 288.5665
v -4461.2370 1312.8601 288.6297
v -4457.9542 1312.4142 288.6011
f 784 785 786
v -4464.3125 1307.5095 288.7787
v -4461.6216 1305.9833 288.7809
v -4462.7753 1310.1842 288.7042
f 787 788 789
v -4461.2370 1312.8601 288.6297
v -4462.7753 1310.1842 288.7042
v -4457.9542 1312.4142 288.6011
f 790 791 792
v -4461.6216 1305.9833 288.7809
v -4457.9542 1312.4142 288.6011
v -4462.7753 1310.1842 288.7042
f 793 794 795
v -4458.1541 1316.8566 275.1516
v -4457.9491 1317.2161 275.1517
v -4457.9583 1317.2192 288.4992
f 796 797 798
v -4458.8817 1317.7566 275.1509
v -4458.8908 1317.7597 288.4984
v -4457.9491 1317.2161 275.1517
f 799 800 801
v -4459.0886 1317.3942 275.1509
v -4459.0978 1317.3973 288.5084
v -4458.8908 1317.7597 288.4984
f 802 803 804
v -4458.8817 1317.7566 275.1509
v -4459.0886 1317.3942 275.1509
v -4458.8908 1317.7597 288.4984
f 805 806 807
v -4459.0886 1317.3942 275.1509
v -4458.4416 1317.0224 275.1514
v -4459.0978 1317.3973 288.5084
f 808 809 810
v -4459.6730 1315.0208 275.1510
v -4459.6822 1315.0239 288.5665
v -4458.4508 1317.0255 288.5099
f 811 812 813
v -4459.6822 1315.0239 288.5665
v -4459.9505 1315.1805 275.1507
v -4459.9598 1315.1836 288.5662
f 814 815 816
v -4459.9505 1315.1805 275.1507
v -4459.6822 1315.0239 288.5665
v -4459.6730 1315.0208 275.1510
f 817 818 819
v -4459.9505 1315.1805 275.1507
v -4460.2833 1314.6195 288.5811
v -4459.9598 1315.1836 288.5662
f 820 821 822
v -4460.3789 1314.6766 275.1505
v -4460.2833 1314.6195 288.5811
v -4460.2741 1314.6164 275.1506
f 823 824 825
v -4461.3746 1312.9423 275.1502
v -4461.2278 1312.8569 275.1503
v -4461.2370 1312.8601 288.6297
f 826 827 828
v -4464.3055 1307.5070 278.5571
v -4464.3125 1307.5095 288.7787
v -4462.7753 1310.1842 288.7042
f 829 830 831
v -4464.3031 1307.5063 275.1493
v -4464.3055 1307.5070 278.5571
v -4462.7753 1310.1842 288.7042
f 832 833 834
v -4462.7753 1310.1842 288.7042
v -4461.2278 1312.8569 275.1503
v -4464.3031 1307.5063 275.1493
f 835 836 837
v -4461.2278 1312.8569 275.1503
v -4462.7753 1310.1842 288.7042
v -4461.2370 1312.8601 288.6297
f 838 839 840
v -4457.9494 1312.4126 281.5004
v -4457.9542 1312.4142 288.6011
v -4461.6166 1305.9816 281.4992
f 841 842 843
v -4456.2890 1311.4672 281.5018
v -4456.2938 1311.4688 288.6024
v -4457.9542 1312.4142 288.6011
f 844 845 846
v -4454.4352 1314.7181 281.5024
v -4454.4400 1314.7198 288.5132
v -4456.2890 1311.4672 281.5018
f 847 848 849
v -4449.8101 1312.0603 275.1584
v -4449.8145 1312.0618 281.5061
v -4455.3643 1302.3958 281.5043
f 850 851 852
v -4455.3600 1302.3943 275.1566
v -4455.3643 1302.3958 281.5043
v -4455.9653 1302.7764 281.5038
f 853 854 855
v -4449.8145 1312.0618 281.5061
v -4454.4352 1314.7181 281.5024
v -4456.2890 1311.4672 281.5018
f 856 857 858
v -4455.9653 1302.7764 281.5038
v -4449.8145 1312.0618 281.5061
v -4456.2890 1311.4672 281.5018
f 859 860 861
v -4456.2890 1311.4672 281.5018
v -4461.6166 1305.9816 281.4992
v -4455.9653 1302.7764 281.5038
f 862 863 864
v -4455.9653 1302.7764 281.5038
v -4455.3643 1302.3958 281.5043
v -4449.8145 1312.0618 281.5061
f 865 866 867
v -4461.6166 1305.9816 281.4992
v -4456.2890 1311.4672 281.5018
v -4457.9494 1312.4126 281.5004
f 868 869 870
v -4454.4352 1314.7181 281.5024
v -4458.1541 1316.8566 275.1516
v -4458.1632 1316.8597 288.5091
f 871 872 873
v -4458.1632 1316.8597 288.5091
v -4454.4400 1314.7198 288.5132
v -4454.4352 1314.7181 281.5024
f 874 875 876
v -4449.8101 1312.0603 275.1584
v -4454.4308 1314.7167 275.1547
v -4449.8145 1312.0618 281.5061
f 877 878 879
v -4454.4352 1314.7181 281.5024
v -4449.8145 1312.0618 281.5061
v -4454.4308 1314.7167 275.1547
f 880 881 882
v -4458.1541 1316.8566 275.1516
v -4454.4352 1314.7181 281.5024
v -4454.4308 1314.7167 275.1547
f 883 884 885
v -4455.9610 1302.7750 275.1561
v -4455.9653 1302.7764 281.5038
v -4461.6123 1305.9801 275.1515
f 886 887 888
v -4461.6166 1305.9816 281.4992
v -4461.6123 1305.9801 275.1515
v -4455.9653 1302.7764 281.5038
f 889 890 891
v -4461.6166 1305.9816 281.4992
v -4464.3055 1307.5070 278.5571
v -4461.6123 1305.9801 275.1515
f 892 893 894
v -4464.3125 1307.5095 288.7787
v -4461.6166 1305.9816 281.4992
v -4461.6216 1305.9833 288.7809
f 895 896 897
v -4464.3125 1307.5095 288.7787
v -4464.3055 1307.5070 278.5571
v -4461.6166 1305.9816 281.4992
f 898 899 900
v -4464.3031 1307.5063 275.1493
v -4463.6871 1307.1566 275.1498
v -4464.3055 1307.5070 278.5571
f 901 902 903
v -4464.3055 1307.5070 278.5571
v -4463.6871 1307.1566 275.1498
v -4461.6123 1305.9801 275.1515
f 904 905 906
v -4458.8817 1317.7566 275.1509
v -4457.9491 1317.2161 275.1517
v -4458.4416 1317.0224 275.1514
f 907 908 909
v -4458.1541 1316.8566 275.1516
v -4458.4416 1317.0224 275.1514
v -4457.9491 1317.2161 275.1517
f 910 911 912
v -4454.4308 1314.7167 275.1547
v -4459.6730 1315.0208 275.1510
v -4458.1541 1316.8566 275.1516
f 913 914 915
v -4459.6730 1315.0208 275.1510
v -4454.4308 1314.7167 275.1547
v -4461.6123 1305.9801 275.1515
f 916 917 918
v -4459.6730 1315.0208 275.1510
v -4458.4416 1317.0224 275.1514
v -4458.1541 1316.8566 275.1516
f 919 920 921
v -4459.0886 1317.3942 275.1509
v -4458.8817 1317.7566 275.1509
v -4458.4416 1317.0224 275.1514
f 922 923 924
v -4459.9505 1315.1805 275.1507
v -4459.6730 1315.0208 275.1510
v -4460.2741 1314.6164 275.1506
f 925 926 927
v -4455.9610 1302.7750 275.1561
v -4454.4308 1314.7167 275.1547
v -4449.8101 1312.0603 275.1584
f 928 929 930
v -4461.2278 1312.8569 275.1503
v -4459.6730 1315.0208 275.1510
v -4461.6123 1305.9801 275.1515
f 931 932 933
v -4455.9610 1302.7750 275.1561
v -4461.6123 1305.9801 275.1515
v -4454.4308 1314.7167 275.1547
f 934 935 936
v -4460.2741 1314.6164 275.1506
v -4459.6730 1315.0208 275.1510
v -4461.2278 1312.8569 275.1503
f 937 938 939
v -4463.6871 1307.1566 275.1498
v -4461.2278 1312.8569 275.1503
v -4461.6123 1305.9801 275.1515
f 940 941 942
v -4460.2741 1314.6164 275.1506
v -4461.2278 1312.8569 275.1503
v -4461.3746 1312.9423 275.1502
f 943 944 945
v -4460.3789 1314.6766 275.1505
v -4460.2741 1314.6164 275.1506
v -4461.3746 1312.9423 275.1502
f 946 947 948
v -4461.2278 1312.8569 275.1503
v -4463.6871 1307.1566 275.1498
v -4464.3031 1307.5063 275.1493
f 949 950 951
v -4455.3600 1302.3943 275.1566
v -4455.9610 1302.7750 275.1561
v -4449.8101 1312.0603 275.1584
f 952 953 954
v -4457.9583 1317.2192 288.4992
v -4458.1632 1316.8597 288.5091
v -4458.1541 1316.8566 275.1516
f 955 956 957
v -4457.9491 1317.2161 275.1517
v -4458.8908 1317.7597 288.4984
v -4457.9583 1317.2192 288.4992
f 958 959 960
v -4459.0978 1317.3973 288.5084
v -4458.4416 1317.0224 275.1514
v -4458.4508 1317.0255 288.5099
f 961 962 963
v -4459.6730 1315.0208 275.1510
v -4458.4508 1317.0255 288.5099
v -4458.4416 1317.0224 275.1514
f 964 965 966
v -4460.2741 1314.6164 275.1506
v -4460.2833 1314.6195 288.5811
v -4459.9505 1315.1805 275.1507
f 967 968 969
v -4460.3789 1314.6766 275.1505
v -4460.3881 1314.6797 288.5810
v -4460.2833 1314.6195 288.5811
f 970 971 972
v -4461.3746 1312.9423 275.1502
v -4461.3838 1312.9454 288.6296
v -4460.3881 1314.6797 288.5810
f 973 974 975
v -4461.3746 1312.9423 275.1502
v -4460.3881 1314.6797 288.5810
v -4460.3789 1314.6766 275.1505
f 976 977 978
v -4461.2370 1312.8601 288.6297
v -4461.3838 1312.9454 288.6296
v -4461.3746 1312.9423 275.1502
f 979 980 981
v -4457.9542 1312.4142 288.6011
v -4461.6216 1305.9833 288.7809
v -4461.6166 1305.9816 281.4992
f 982 983 984
v -4456.2890 1311.4672 281.5018
v -4457.9542 1312.4142 288.6011
v -4457.9494 1312.4126 281.5004
f 985 986 987
v -4454.4400 1314.7198 288.5132
v -4456.2938 1311.4688 288.6024
v -4456.2890 1311.4672 281.5018
f 988 989 990
v -4449.8101 1312.0603 275.1584
v -4455.3643 1302.3958 281.5043
v -4455.3600 1302.3943 275.1566
f 991 992 993
v -4455.3600 1302.3943 275.1566
v -4455.9653 1302.7764 281.5038
v -4455.9610 1302.7750 275.1561
f 994 995 996

g building_ID_D8EE8776-D7B6-4F4E-8DD8-228A0F3F9005
v -4530.4674 1293.3500 286.8230
v -4537.7584 1280.6887 286.8204
v -4525.8669 1273.8429 286.8302
f 997 998 999
v -4525.8669 1273.8429 286.8302
v -4518.5769 1286.5031 286.8328
v -4530.4674 1293.3500 286.8230
f 1000 1001 1002
v -4529.4675 1295.0696 274.9719
v -4529.4676 1295.0697 275.0899
v -4517.5601 1288.2527 275.0997
f 1003 1004 1005
v -4538.4636 1279.4471 275.1556
v -4539.2312 1278.1141 275.2523
v -4538.4636 1279.4471 275.2526
f 1006 1007 1008
v -4530.4592 1293.3474 275.0895
v -4539.2310 1278.1141 274.9683
v -4538.4636 1279.4471 275.1556
f 1009 1010 1011
v -4539.2312 1278.1141 275.2523
v -4538.4636 1279.4471 275.1556
v -4539.2310 1278.1141 274.9683
f 1012 1013 1014
v -4538.4636 1279.4471 275.1556
v -4530.4593 1293.3474 275.1585
v -4530.4592 1293.3474 275.0895
f 1015 1016 1017
v -4530.4592 1293.3474 275.0895
v -4529.4676 1295.0697 275.0899
v -4529.4675 1295.0696 274.9719
f 1018 1019 1020
v -4539.2310 1278.1141 274.9683
v -4530.4592 1293.3474 275.0895
v -4529.4675 1295.0696 274.9719
f 1021 1022 1023
v -4527.3405 1271.2672 274.9782
v -4527.3407 1271.2673 275.2622
v -4539.2312 1278.1141 275.2523
f 1024 1025 1026
v -4527.3405 1271.2672 274.9782
v -4529.4675 1295.0696 274.9719
v -4517.5601 1288.2527 274.9817
f 1027 1028 1029
v -4529.4675 1295.0696 274.9719
v -4527.3405 1271.2672 274.9782
v -4539.2310 1278.1141 274.9683
f 1030 1031 1032
v -4531.8233 1292.9650 275.1576
v -4531.8290 1292.9669 283.4453
v -4538.7663 1296.9435 283.4396
f 1033 1034 1035
v -4538.0645 1282.0690 275.1554
v -4538.0703 1282.0708 283.4431
v -4531.8290 1292.9669 283.4453
f 1036 1037 1038
v -4544.9927 1286.0515 275.1497
v -4544.9985 1286.0534 283.4374
v -4538.0703 1282.0708 283.4431
f 1039 1040 1041
v -4544.9073 1286.2013 275.1497
v -4544.9130 1286.2032 283.4374
v -4544.9985 1286.0534 283.4374
f 1042 1043 1044
v -4545.1888 1286.3631 275.1495
v -4545.1946 1286.3649 283.4372
v -4544.9130 1286.2032 283.4374
f 1045 1046 1047
v -4538.8315 1296.9358 275.1518
v -4538.8373 1296.9377 283.4395
v -4545.1946 1286.3649 283.4372
f 1048 1049 1050
v -4538.7806 1296.9067 275.1519
v -4538.7864 1296.9086 283.4396
v -4538.8373 1296.9377 283.4395
f 1051 1052 1053
v -4538.7605 1296.9416 275.1519
v -4538.7663 1296.9435 283.4396
v -4538.7864 1296.9086 283.4396
f 1054 1055 1056
v -4538.7663 1296.9435 283.4396
v -4539.7635 1298.7031 283.4385
v -4538.8373 1296.9377 283.4395
f 1057 1058 1059
v -4545.1946 1286.3649 283.4372
v -4538.8373 1296.9377 283.4395
v -4539.7635 1298.7031 283.4385
f 1060 1061 1062
v -4538.7864 1296.9086 283.4396
v -4538.7663 1296.9435 283.4396
v -4538.8373 1296.9377 283.4395
f 1063 1064 1065
v -4530.4651 1293.3492 283.4462
v -4539.7635 1298.7031 283.4385
v -4538.7663 1296.9435 283.4396
f 1066 1067 1068
v -4530.4651 1293.3492 283.4462
v -4538.7663 1296.9435 283.4396
v -4531.8290 1292.9669 283.4453
f 1069 1070 1071
v -4538.0703 1282.0708 283.4431
v -4530.4651 1293.3492 283.4462
v -4531.8290 1292.9669 283.4453
f 1072 1073 1074
v -4545.1946 1286.3649 283.4372
v -4544.9985 1286.0534 283.4374
v -4544.9130 1286.2032 283.4374
f 1075 1076 1077
v -4539.7635 1298.7031 283.4385
v -4547.0535 1286.0419 283.4359
v -4545.1946 1286.3649 283.4372
f 1078 1079 1080
v -4547.0535 1286.0419 283.4359
v -4544.9985 1286.0534 283.4374
v -4545.1946 1286.3649 283.4372
f 1081 1082 1083
v -4537.7560 1280.6880 283.4436
v -4538.0703 1282.0708 283.4431
v -4544.9985 1286.0534 283.4374
f 1084 1085 1086
v -4547.0535 1286.0419 283.4359
v -4537.7560 1280.6880 283.4436
v -4544.9985 1286.0534 283.4374
f 1087 1088 1089
v -4530.4651 1293.3492 283.4462
v -4538.0703 1282.0708 283.4431
v -4537.7560 1280.6880 283.4436
f 1090 1091 1092
v -4538.4636 1279.4471 275.1556
v -4538.4636 1279.4471 275.2526
v -4547.7972 1284.7382 275.2449
f 1093 1094 1095
v -4545.1888 1286.3631 275.1495
v -4544.9927 1286.0515 275.1497
v -4547.7971 1284.7380 275.1479
f 1096 1097 1098
v -4539.7578 1298.7012 275.1508
v -4545.1888 1286.3631 275.1495
v -4547.7971 1284.7380 275.1479
f 1099 1100 1101
v -4544.9073 1286.2013 275.1497
v -4544.9927 1286.0515 275.1497
v -4545.1888 1286.3631 275.1495
f 1102 1103 1104
v -4538.0645 1282.0690 275.1554
v -4538.4636 1279.4471 275.1556
v -4544.9927 1286.0515 275.1497
f 1105 1106 1107
v -4547.7971 1284.7380 275.1479
v -4544.9927 1286.0515 275.1497
v -4538.4636 1279.4471 275.1556
f 1108 1109 1110
v -4530.4593 1293.3474 275.1585
v -4538.4636 1279.4471 275.1556
v -4538.0645 1282.0690 275.1554
f 1111 1112 1113
v -4538.7605 1296.9416 275.1519
v -4538.8315 1296.9358 275.1518
v -4539.7578 1298.7012 275.1508
f 1114 1115 1116
v -4545.1888 1286.3631 275.1495
v -4539.7578 1298.7012 275.1508
v -4538.8315 1296.9358 275.1518
f 1117 1118 1119
v -4530.4593 1293.3474 275.1585
v -4538.7605 1296.9416 275.1519
v -4539.7578 1298.7012 275.1508
f 1120 1121 1122
v -4538.7806 1296.9067 275.1519
v -4538.8315 1296.9358 275.1518
v -4538.7605 1296.9416 275.1519
f 1123 1124 1125
v -4530.4593 1293.3474 275.1585
v -4531.8233 1292.9650 275.1576
v -4538.7605 1296.9416 275.1519
f 1126 1127 1128
v -4538.0645 1282.0690 275.1554
v -4531.8233 1292.9650 275.1576
v -4530.4593 1293.3474 275.1585
f 1129 1130 1131
v -4558.9632 1286.8559 292.0948
v -4561.2027 1288.1448 292.0930
v -4563.0675 1284.9009 292.0923
f 1132 1133 1134
v -4549.9922 1281.6898 292.1023
v -4558.9632 1286.8559 292.0948
v -4551.8539 1278.4539 292.1016
f 1135 1136 1137
v -4563.0675 1284.9009 292.0923
v -4551.8539 1278.4539 292.1016
v -4558.9632 1286.8559 292.0948
f 1138 1139 1140
v -4529.1102 1267.6678 273.5976
v -4529.1174 1267.6701 283.9252
v -4530.1061 1265.9528 283.9249
f 1141 1142 1143
v -4537.9286 1270.4514 273.5908
v -4529.1102 1267.6678 273.5976
v -4530.0988 1265.9504 273.5973
f 1144 1145 1146
v -4529.1102 1267.6678 273.5976
v -4537.9286 1270.4514 273.5908
v -4536.9370 1272.1737 273.5912
f 1147 1148 1149
v -4530.1061 1265.9528 283.9249
v -4529.3431 1267.7997 283.9250
v -4530.3317 1266.0824 283.9247
f 1150 1151 1152
v -4529.3431 1267.7997 283.9250
v -4530.1061 1265.9528 283.9249
v -4529.1174 1267.6701 283.9252
f 1153 1154 1155
v -4537.9286 1270.4514 273.5908
v -4537.9298 1270.4517 275.2548
v -4536.9370 1272.1737 273.5912
f 1156 1157 1158
v -4536.9382 1272.1741 275.2552
v -4529.3370 1267.7977 275.2614
v -4536.9370 1272.1737 273.5912
f 1159 1160 1161
v -4529.1102 1267.6678 273.5976
v -4529.3370 1267.7977 275.2614
v -4529.1174 1267.6701 283.9252
f 1162 1163 1164
v -4529.3431 1267.7997 283.9250
v -4529.1174 1267.6701 283.9252
v -4529.3370 1267.7977 275.2614
f 1165 1166 1167
v -4537.7560 1280.6880 283.4436
v -4537.7584 1280.6887 286.8204
v -4530.4674 1293.3500 286.8230
f 1168 1169 1170
v -4548.7446 1283.0927 275.2446
v -4547.7972 1284.7382 275.2449
v -4539.2312 1278.1141 275.2523
f 1171 1172 1173
v -4538.4636 1279.4471 275.2526
v -4539.2312 1278.1141 275.2523
v -4547.7972 1284.7382 275.2449
f 1174 1175 1176
v -4563.0556 1284.8971 275.2340
v -4560.2757 1289.7326 275.2350
v -4548.7446 1283.0927 275.2446
f 1177 1178 1179
v -4548.7446 1283.0927 275.2446
v -4536.9382 1272.1741 275.2552
v -4563.0556 1284.8971 275.2340
f 1180 1181 1182
v -4536.9382 1272.1741 275.2552
v -4548.7446 1283.0927 275.2446
v -4539.2312 1278.1141 275.2523
f 1183 1184 1185
v -4539.2312 1278.1141 275.2523
v -4527.3407 1271.2673 275.2622
v -4536.9382 1272.1741 275.2552
f 1186 1187 1188
v -4527.3407 1271.2673 275.2622
v -4529.3370 1267.7977 275.2614
v -4536.9382 1272.1741 275.2552
f 1189 1190 1191
v -4536.9382 1272.1741 275.2552
v -4537.9298 1270.4517 275.2548
v -4563.0556 1284.8971 275.2340
f 1192 1193 1194
v -4517.0575 1288.7348 294.7591
v -4517.7829 1287.4758 294.7589
v -4517.6351 1287.3904 294.7590
f 1195 1196 1197
v -4517.6351 1287.3904 294.7590
v -4516.9107 1288.6494 294.7592
v -4517.0575 1288.7348 294.7591
f 1198 1199 1200
v -4549.9720 1307.6857 297.4288
v -4517.0594 1288.7354 297.4560
v -4514.2632 1293.5977 301.4869
f 1201 1202 1203
v -4514.2632 1293.5977 301.4869
v -4547.1789 1312.5501 301.4597
v -4549.9720 1307.6857 297.4288
f 1204 1205 1206
v -4547.1789 1312.5501 301.4597
v -4514.2632 1293.5977 301.4869
v -4511.5285 1298.3404 297.3391
f 1207 1208 1209
v -4511.5285 1298.3404 297.3391
v -4544.4472 1317.2947 297.3119
v -4547.1789 1312.5501 301.4597
f 1210 1211 1212
v -4510.9806 1298.9708 297.0133
v -4511.1184 1299.0499 295.5012
v -4511.1194 1299.0502 297.0132
f 1213 1214 1215
v -4511.1042 1299.0452 275.1080
v -4511.1184 1299.0499 295.5012
v -4510.9654 1298.9659 275.1081
f 1216 1217 1218
v -4544.4459 1317.2943 295.4739
v -4544.4472 1317.2947 297.3119
v -4511.5283 1298.3404 297.0131
f 1219 1220 1221
v -4544.4472 1317.2947 297.3119
v -4511.5285 1298.3404 297.3391
v -4511.5283 1298.3404 297.0131
f 1222 1223 1224
v -4517.0590 1288.7343 297.0111
v -4516.9123 1288.6499 297.0112
v -4514.2600 1293.5967 297.0121
f 1225 1226 1227
v -4510.9806 1298.9708 297.0133
v -4514.2600 1293.5967 297.0121
v -4516.9123 1288.6499 297.0112
f 1228 1229 1230
v -4511.1194 1299.0502 297.0132
v -4511.5283 1298.3404 297.0131
v -4510.9806 1298.9708 297.0133
f 1231 1232 1233
v -4514.2600 1293.5967 297.0121
v -4510.9806 1298.9708 297.0133
v -4511.5283 1298.3404 297.0131
f 1234 1235 1236
v -4516.8971 1288.6450 275.1931
v -4517.0439 1288.7303 275.1929
v -4517.0439 1288.7303 275.1059
f 1237 1238 1239
v -4516.8970 1288.6449 275.1061
v -4511.1042 1299.0452 275.1080
v -4510.9654 1298.9659 275.1081
f 1240 1241 1242
v -4511.1042 1299.0452 275.1080
v -4516.8970 1288.6449 275.1061
v -4517.0439 1288.7303 275.1059
f 1243 1244 1245
v -4517.6215 1287.3859 275.1928
v -4517.6351 1287.3904 294.7590
v -4517.7829 1287.4758 294.7589
f 1246 1247 1248
v -4517.0439 1288.7303 275.1929
v -4517.6215 1287.3859 275.1928
v -4517.7693 1287.4713 275.1927
f 1249 1250 1251
v -4516.8971 1288.6450 275.1931
v -4517.6215 1287.3859 275.1928
v -4517.0439 1288.7303 275.1929
f 1252 1253 1254
v -4528.4828 1269.3061 292.1200
v -4525.8706 1273.8440 292.1210
v -4531.0190 1270.7643 293.7779
f 1255 1256 1257
v -4531.0190 1270.7643 293.7779
v -4525.8706 1273.8440 292.1210
v -4547.0949 1280.0215 293.7647
f 1258 1259 1260
v -4558.8941 1292.1597 292.2858
v -4547.0949 1280.0215 293.7647
v -4525.8706 1273.8440 292.1210
f 1261 1262 1263
v -4547.0949 1280.0215 293.7647
v -4558.8941 1292.1597 292.2858
v -4549.9933 1281.6902 293.7623
f 1264 1265 1266
v -4558.8941 1292.1597 292.2858
v -4558.9644 1286.8562 293.7548
v -4549.9933 1281.6902 293.7623
f 1267 1268 1269
v -4558.5926 1292.6838 292.0939
v -4558.8941 1292.1597 292.2858
v -4525.8706 1273.8440 292.1210
f 1270 1271 1272
v -4561.2029 1288.1449 292.2860
v -4558.9644 1286.8562 293.7548
v -4558.8941 1292.1597 292.2858
f 1273 1274 1275
v -4560.2756 1289.7326 275.1280
v -4551.2987 1305.3462 275.1312
v -4539.7578 1298.7012 275.1408
f 1276 1277 1278
v -4539.7578 1298.7012 275.1408
v -4548.7446 1283.0926 275.1376
v -4560.2756 1289.7326 275.1280
f 1279 1280 1281
v -4539.7659 1298.7039 286.8153
v -4558.5889 1292.6826 286.8031
v -4547.0559 1286.0427 286.8127
f 1282 1283 1284
v -4558.5889 1292.6826 286.8031
v -4539.7659 1298.7039 286.8153
v -4551.3069 1305.3489 286.8058
f 1285 1286 1287
v -4548.9574 1276.7887 294.8309
v -4547.0956 1280.0217 294.8316
v -4549.9941 1281.6904 294.8292
f 1288 1289 1290
v -4549.9941 1281.6904 294.8292
v -4551.8558 1278.4554 294.8285
v -4548.9574 1276.7887 294.8309
f 1291 1292 1293
v -4549.9933 1281.6902 293.7623
v -4549.9941 1281.6904 294.8292
v -4547.0949 1280.0215 293.7647
f 1294 1295 1296
v -4543.1688 1319.4871 275.0751
v -4543.1830 1319.4918 295.4743
v -4510.2563 1300.5476 295.5015
f 1297 1298 1299
v -4531.0178 1270.7639 292.1180
v -4547.0938 1280.0210 292.1047
v -4548.9554 1276.7880 292.1040
f 1300 1301 1302
v -4528.4828 1269.3061 292.1200
v -4531.0178 1270.7639 292.1180
v -4530.3374 1266.0841 292.1194
f 1303 1304 1305
v -4548.9554 1276.7880 292.1040
v -4530.3374 1266.0841 292.1194
v -4531.0178 1270.7639 292.1180
f 1306 1307 1308
v -4511.5272 1298.3399 295.5011
v -4511.5283 1298.3404 297.0131
v -4511.1194 1299.0502 297.0132
f 1309 1310 1311
v -4547.0559 1286.0427 286.8127
v -4558.5889 1292.6826 286.8031
v -4558.5926 1292.6838 292.0939
f 1312 1313 1314
v -4537.7560 1280.6880 283.4436
v -4547.0535 1286.0419 283.4359
v -4547.0559 1286.0427 286.8127
f 1315 1316 1317
v -4547.0559 1286.0427 286.8127
v -4558.5926 1292.6838 292.0939
v -4537.7584 1280.6887 286.8204
f 1318 1319 1320
v -4537.7584 1280.6887 286.8204
v -4525.8706 1273.8440 292.1210
v -4525.8669 1273.8429 286.8302
f 1321 1322 1323
v -4547.0559 1286.0427 286.8127
v -4537.7584 1280.6887 286.8204
v -4537.7560 1280.6880 283.4436
f 1324 1325 1326
v -4558.5926 1292.6838 292.0939
v -4525.8706 1273.8440 292.1210
v -4537.7584 1280.6887 286.8204
f 1327 1328 1329
v -4548.7446 1283.0926 275.1376
v -4548.7446 1283.0927 275.2446
v -4560.2756 1289.7326 275.1280
f 1330 1331 1332
v -4547.7971 1284.7380 275.1479
v -4539.7578 1298.7012 275.1408
v -4539.7578 1298.7012 275.1508
f 1333 1334 1335
v -4548.7446 1283.0927 275.2446
v -4548.7446 1283.0926 275.1376
v -4547.7971 1284.7380 275.1479
f 1336 1337 1338
v -4539.7578 1298.7012 275.1408
v -4547.7971 1284.7380 275.1479
v -4548.7446 1283.0926 275.1376
f 1339 1340 1341
v -4539.7635 1298.7031 283.4385
v -4539.7659 1298.7039 286.8153
v -4547.0559 1286.0427 286.8127
f 1342 1343 1344
v -4548.9574 1276.7887 294.8309
v -4547.0949 1280.0215 293.7647
v -4547.0956 1280.0217 294.8316
f 1345 1346 1347
v -4547.0938 1280.0210 292.1047
v -4547.0949 1280.0215 293.7647
v -4548.9554 1276.7880 292.1040
f 1348 1349 1350
v -4548.9574 1276.7887 294.8309
v -4548.9554 1276.7880 292.1040
v -4547.0949 1280.0215 293.7647
f 1351 1352 1353
v -4551.8539 1278.4539 292.1016
v -4551.8558 1278.4554 294.8285
v -4549.9933 1281.6902 293.7623
f 1354 1355 1356
v -4551.8558 1278.4554 294.8285
v -4549.9941 1281.6904 294.8292
v -4549.9933 1281.6902 293.7623
f 1357 1358 1359
v -4544.4459 1317.2943 295.4739
v -4511.5272 1298.3399 295.5011
v -4511.1184 1299.0499 295.5012
f 1360 1361 1362
v -4511.1184 1299.0499 295.5012
v -4543.1830 1319.4918 295.4743
v -4544.4459 1317.2943 295.4739
f 1363 1364 1365
v -4510.2563 1300.5476 295.5015
v -4543.1830 1319.4918 295.4743
v -4511.1184 1299.0499 295.5012
f 1366 1367 1368
v -4549.9707 1307.6853 295.4719
v -4518.4023 1286.4006 295.4986
v -4517.0580 1288.7350 295.4991
f 1369 1370 1371
v -4518.4023 1286.4006 295.4986
v -4549.9707 1307.6853 295.4719
v -4551.3130 1305.3508 295.4714
f 1372 1373 1374
v -4511.1184 1299.0499 295.5012
v -4511.1042 1299.0452 275.1080
v -4510.2563 1300.5476 295.5015
f 1375 1376 1377
v -4510.2563 1300.5476 295.5015
v -4511.1042 1299.0452 275.1080
v -4510.2422 1300.5429 275.1023
f 1378 1379 1380
v -4511.1042 1299.0452 275.1080
v -4517.0439 1288.7303 275.1059
v -4510.2422 1300.5429 275.1023
f 1381 1382 1383
v -4517.7829 1287.4758 294.7589
v -4517.0580 1288.7350 295.4991
v -4518.4023 1286.4006 295.4986
f 1384 1385 1386
v -4518.4023 1286.4006 295.4986
v -4518.3881 1286.3960 275.0995
v -4517.7829 1287.4758 294.7589
f 1387 1388 1389
v -4517.7693 1287.4713 275.1927
v -4517.0439 1288.7303 275.1059
v -4517.0439 1288.7303 275.1929
f 1390 1391 1392
v -4517.0439 1288.7303 275.1059
v -4517.7693 1287.4713 275.1927
v -4518.3881 1286.3960 275.0995
f 1393 1394 1395
v -4517.0580 1288.7350 295.4991
v -4517.7829 1287.4758 294.7589
v -4517.0575 1288.7348 294.7591
f 1396 1397 1398
v -4551.2987 1305.3462 275.0722
v -4543.1688 1319.4871 275.0751
v -4529.4676 1295.0697 275.0899
f 1399 1400 1401
v -4510.2422 1300.5429 275.1023
v -4529.4676 1295.0697 275.0899
v -4543.1688 1319.4871 275.0751
f 1402 1403 1404
v -4529.4676 1295.0697 275.0899
v -4530.4592 1293.3474 275.0895
v -4551.2987 1305.3462 275.0722
f 1405 1406 1407
v -4518.3881 1286.3960 275.0995
v -4517.5601 1288.2527 275.0997
v -4510.2422 1300.5429 275.1023
f 1408 1409 1410
v -4529.4676 1295.0697 275.0899
v -4510.2422 1300.5429 275.1023
v -4517.5601 1288.2527 275.0997
f 1411 1412 1413
v -4517.5601 1288.2527 275.0997
v -4518.3881 1286.3960 275.0995
v -4518.5688 1286.5004 275.0993
f 1414 1415 1416
v -4539.7578 1298.7012 275.1408
v -4530.4592 1293.3474 275.0895
v -4530.4593 1293.3474 275.1585
f 1417 1418 1419
v -4539.7578 1298.7012 275.1508
v -4539.7578 1298.7012 275.1408
v -4530.4593 1293.3474 275.1585
f 1420 1421 1422
v -4551.2987 1305.3462 275.0722
v -4539.7578 1298.7012 275.1408
v -4551.2987 1305.3462 275.1312
f 1423 1424 1425
v -4530.4592 1293.3474 275.0895
v -4539.7578 1298.7012 275.1408
v -4551.2987 1305.3462 275.0722
f 1426 1427 1428
v -4518.3881 1286.3960 275.0995
v -4518.4023 1286.4006 295.4986
v -4518.5769 1286.5031 286.8328
f 1429 1430 1431
v -4530.4674 1293.3500 286.8230
v -4518.5769 1286.5031 286.8328
v -4518.4023 1286.4006 295.4986
f 1432 1433 1434
v -4518.3881 1286.3960 275.0995
v -4518.5769 1286.5031 286.8328
v -4518.5688 1286.5004 275.0993
f 1435 1436 1437
v -4518.4023 1286.4006 295.4986
v -4551.3130 1305.3508 295.4714
v -4530.4674 1293.3500 286.8230
f 1438 1439 1440
v -4551.3069 1305.3489 286.8058
v -4539.7659 1298.7039 286.8153
v -4551.3130 1305.3508 295.4714
f 1441 1442 1443
v -4530.4674 1293.3500 286.8230
v -4539.7659 1298.7039 286.8153
v -4530.4651 1293.3492 283.4462
f 1444 1445 1446
v -4530.4651 1293.3492 283.4462
v -4539.7659 1298.7039 286.8153
v -4539.7635 1298.7031 283.4385
f 1447 1448 1449
v -4528.4828 1269.3061 292.1200
v -4525.8669 1273.8429 286.8302
v -4525.8706 1273.8440 292.1210
f 1450 1451 1452
v -4518.5688 1286.5004 275.0993
v -4518.5769 1286.5031 286.8328
v -4525.8669 1273.8429 286.8302
f 1453 1454 1455
v -4517.5601 1288.2527 274.9817
v -4517.5601 1288.2527 275.0997
v -4518.5688 1286.5004 275.0993
f 1456 1457 1458
v -4527.3405 1271.2672 274.9782
v -4517.5601 1288.2527 274.9817
v -4518.5688 1286.5004 275.0993
f 1459 1460 1461
v -4518.5688 1286.5004 275.0993
v -4525.8669 1273.8429 286.8302
v -4527.3407 1271.2673 275.2622
f 1462 1463 1464
v -4528.4828 1269.3061 292.1200
v -4530.3374 1266.0841 292.1194
v -4529.3431 1267.7997 283.9250
f 1465 1466 1467
v -4525.8669 1273.8429 286.8302
v -4529.3431 1267.7997 283.9250
v -4527.3407 1271.2673 275.2622
f 1468 1469 1470
v -4518.5688 1286.5004 275.0993
v -4527.3407 1271.2673 275.2622
v -4527.3405 1271.2672 274.9782
f 1471 1472 1473
v -4529.3431 1267.7997 283.9250
v -4529.3370 1267.7977 275.2614
v -4527.3407 1271.2673 275.2622
f 1474 1475 1476
v -4528.4828 1269.3061 292.1200
v -4529.3431 1267.7997 283.9250
v -4525.8669 1273.8429 286.8302
f 1477 1478 1479
v -4530.3374 1266.0841 292.1194
v -4548.9554 1276.7880 292.1040
v -4530.3317 1266.0824 283.9247
f 1480 1481 1482
v -4537.9298 1270.4517 275.2548
v -4530.0988 1265.9504 273.5973
v -4530.3317 1266.0824 283.9247
f 1483 1484 1485
v -4530.1061 1265.9528 283.9249
v -4530.3317 1266.0824 283.9247
v -4530.0988 1265.9504 273.5973
f 1486 1487 1488
v -4530.0988 1265.9504 273.5973
v -4537.9298 1270.4517 275.2548
v -4537.9286 1270.4514 273.5908
f 1489 1490 1491
v -4548.9554 1276.7880 292.1040
v -4537.9298 1270.4517 275.2548
v -4530.3317 1266.0824 283.9247
f 1492 1493 1494
v -4551.8539 1278.4539 292.1016
v -4548.9554 1276.7880 292.1040
v -4551.8558 1278.4554 294.8285
f 1495 1496 1497
v -4563.0556 1284.8971 275.2340
v -4548.9554 1276.7880 292.1040
v -4551.8539 1278.4539 292.1016
f 1498 1499 1500
v -4551.8539 1278.4539 292.1016
v -4563.0675 1284.9009 292.0923
v -4563.0647 1284.9001 288.1725
f 1501 1502 1503
v -4551.8539 1278.4539 292.1016
v -4563.0647 1284.9001 288.1725
v -4563.0556 1284.8971 275.2340
f 1504 1505 1506
v -4548.9554 1276.7880 292.1040
v -4563.0556 1284.8971 275.2340
v -4537.9298 1270.4517 275.2548
f 1507 1508 1509
v -4514.2600 1293.5967 297.0121
v -4511.5283 1298.3404 297.0131
v -4511.5285 1298.3404 297.3391
f 1510 1511 1512
v -4514.2632 1293.5977 301.4869
v -4514.2600 1293.5967 297.0121
v -4511.5285 1298.3404 297.3391
f 1513 1514 1515
v -4514.2600 1293.5967 297.0121
v -4517.0594 1288.7354 297.4560
v -4517.0590 1288.7343 297.0111
f 1516 1517 1518
v -4514.2632 1293.5977 301.4869
v -4517.0594 1288.7354 297.4560
v -4514.2600 1293.5967 297.0121
f 1519 1520 1521
v -4516.9123 1288.6499 297.0112
v -4517.0580 1288.7350 295.4991
v -4516.9107 1288.6494 294.7592
f 1522 1523 1524
v -4516.9107 1288.6494 294.7592
v -4517.0580 1288.7350 295.4991
v -4517.0575 1288.7348 294.7591
f 1525 1526 1527
v -4549.9707 1307.6853 295.4719
v -4517.0590 1288.7343 297.0111
v -4549.9720 1307.6857 297.4288
f 1528 1529 1530
v -4517.0594 1288.7354 297.4560
v -4549.9720 1307.6857 297.4288
v -4517.0590 1288.7343 297.0111
f 1531 1532 1533
v -4517.0590 1288.7343 297.0111
v -4549.9707 1307.6853 295.4719
v -4517.0580 1288.7350 295.4991
f 1534 1535 1536
v -4516.9123 1288.6499 297.0112
v -4517.0590 1288.7343 297.0111
v -4517.0580 1288.7350 295.4991
f 1537 1538 1539
v -4510.9654 1298.9659 275.1081
v -4510.9806 1298.9708 297.0133
v -4516.9107 1288.6494 294.7592
f 1540 1541 1542
v -4516.9123 1288.6499 297.0112
v -4516.9107 1288.6494 294.7592
v -4510.9806 1298.9708 297.0133
f 1543 1544 1545
v -4516.8970 1288.6449 275.1061
v -4510.9654 1298.9659 275.1081
v -4516.8971 1288.6450 275.1931
f 1546 1547 1548
v -4516.9107 1288.6494 294.7592
v -4516.8971 1288.6450 275.1931
v -4510.9654 1298.9659 275.1081
f 1549 1550 1551
v -4517.6215 1287.3859 275.1928
v -4516.8971 1288.6450 275.1931
v -4516.9107 1288.6494 294.7592
f 1552 1553 1554
v -4531.0190 1270.7643 293.7779
v -4531.0178 1270.7639 292.1180
v -4528.4828 1269.3061 292.1200
f 1555 1556 1557
v -4531.0178 1270.7639 292.1180
v -4547.0949 1280.0215 293.7647
v -4547.0938 1280.0210 292.1047
f 1558 1559 1560
v -4531.0190 1270.7643 293.7779
v -4547.0949 1280.0215 293.7647
v -4531.0178 1270.7639 292.1180
f 1561 1562 1563
v -4558.9632 1286.8559 292.0948
v -4549.9922 1281.6898 292.1023
v -4549.9933 1281.6902 293.7623
f 1564 1565 1566
v -4558.9644 1286.8562 293.7548
v -4558.9632 1286.8559 292.0948
v -4549.9933 1281.6902 293.7623
f 1567 1568 1569
v -4558.9632 1286.8559 292.0948
v -4558.9644 1286.8562 293.7548
v -4561.2027 1288.1448 292.0930
f 1570 1571 1572
v -4561.2029 1288.1449 292.2860
v -4561.2027 1288.1448 292.0930
v -4558.9644 1286.8562 293.7548
f 1573 1574 1575
v -4558.5926 1292.6838 292.0939
v -4561.2027 1288.1448 292.0930
v -4558.8941 1292.1597 292.2858
f 1576 1577 1578
v -4561.2029 1288.1449 292.2860
v -4558.8941 1292.1597 292.2858
v -4561.2027 1288.1448 292.0930
f 1579 1580 1581
v -4563.0647 1284.9001 288.1725
v -4563.0675 1284.9009 292.0923
v -4561.2027 1288.1448 292.0930
f 1582 1583 1584
v -4558.5926 1292.6838 292.0939
v -4563.0647 1284.9001 288.1725
v -4561.2027 1288.1448 292.0930
f 1585 1586 1587
v -4563.0647 1284.9001 288.1725
v -4558.5889 1292.6826 286.8031
v -4563.0556 1284.8971 275.2340
f 1588 1589 1590
v -4551.2987 1305.3462 275.1312
v -4560.2756 1289.7326 275.1280
v -4560.2757 1289.7326 275.2350
f 1591 1592 1593
v -4563.0556 1284.8971 275.2340
v -4558.5889 1292.6826 286.8031
v -4560.2757 1289.7326 275.2350
f 1594 1595 1596
v -4558.5889 1292.6826 286.8031
v -4551.2987 1305.3462 275.1312
v -4560.2757 1289.7326 275.2350
f 1597 1598 1599
v -4558.5889 1292.6826 286.8031
v -4563.0647 1284.9001 288.1725
v -4558.5926 1292.6838 292.0939
f 1600 1601 1602
v -4544.4472 1317.2947 297.3119
v -4549.9720 1307.6857 297.4288
v -4547.1789 1312.5501 301.4597
f 1603 1604 1605
v -4551.3069 1305.3489 286.8058
v -4544.4459 1317.2943 295.4739
v -4543.1830 1319.4918 295.4743
f 1606 1607 1608
v -4549.9707 1307.6853 295.4719
v -4549.9720 1307.6857 297.4288
v -4544.4472 1317.2947 297.3119
f 1609 1610 1611
v -4544.4459 1317.2943 295.4739
v -4549.9707 1307.6853 295.4719
v -4544.4472 1317.2947 297.3119
f 1612 1613 1614
v -4551.2987 1305.3462 275.1312
v -4551.3069 1305.3489 286.8058
v -4543.1688 1319.4871 275.0751
f 1615 1616 1617
v -4551.3130 1305.3508 295.4714
v -4549.9707 1307.6853 295.4719
v -4551.3069 1305.3489 286.8058
f 1618 1619 1620
v -4558.5889 1292.6826 286.8031
v -4551.3069 1305.3489 286.8058
v -4551.2987 1305.3462 275.1312
f 1621 1622 1623
v -4551.2987 1305.3462 275.0722
v -4551.2987 1305.3462 275.1312
v -4543.1688 1319.4871 275.0751
f 1624 1625 1626
v -4544.4459 1317.2943 295.4739
v -4551.3069 1305.3489 286.8058
v -4549.9707 1307.6853 295.4719
f 1627 1628 1629
v -4543.1688 1319.4871 275.0751
v -4551.3069 1305.3489 286.8058
v -4543.1830 1319.4918 295.4743
f 1630 1631 1632
v -4529.4675 1295.0696 274.9719
v -4517.5601 1288.2527 275.0997
v -4517.5601 1288.2527 274.9817
f 1633 1634 1635
v -4527.3405 1271.2672 274.9782
v -4539.2312 1278.1141 275.2523
v -4539.2310 1278.1141 274.9683
f 1636 1637 1638
v -4531.8233 1292.9650 275.1576
v -4538.7663 1296.9435 283.4396
v -4538.7605 1296.9416 275.1519
f 1639 1640 1641
v -4538.0645 1282.0690 275.1554
v -4531.8290 1292.9669 283.4453
v -4531.8233 1292.9650 275.1576
f 1642 1643 1644
v -4544.9927 1286.0515 275.1497
v -4538.0703 1282.0708 283.4431
v -4538.0645 1282.0690 275.1554
f 1645 1646 1647
v -4544.9073 1286.2013 275.1497
v -4544.9985 1286.0534 283.4374
v -4544.9927 1286.0515 275.1497
f 1648 1649 1650
v -4545.1888 1286.3631 275.1495
v -4544.9130 1286.2032 283.4374
v -4544.9073 1286.2013 275.1497
f 1651 1652 1653
v -4538.8315 1296.9358 275.1518
v -4545.1946 1286.3649 283.4372
v -4545.1888 1286.3631 275.1495
f 1654 1655 1656
v -4538.7806 1296.9067 275.1519
v -4538.8373 1296.9377 283.4395
v -4538.8315 1296.9358 275.1518
f 1657 1658 1659
v -4538.7605 1296.9416 275.1519
v -4538.7864 1296.9086 283.4396
v -4538.7806 1296.9067 275.1519
f 1660 1661 1662
v -4538.4636 1279.4471 275.1556
v -4547.7972 1284.7382 275.2449
v -4547.7971 1284.7380 275.1479
f 1663 1664 1665
v -4529.1102 1267.6678 273.5976
v -4530.1061 1265.9528 283.9249
v -4530.0988 1265.9504 273.5973
f 1666 1667 1668
v -4537.9298 1270.4517 275.2548
v -4536.9382 1272.1741 275.2552
v -4536.9370 1272.1737 273.5912
f 1669 1670 1671
v -4529.3370 1267.7977 275.2614
v -4529.1102 1267.6678 273.5976
v -4536.9370 1272.1737 273.5912
f 1672 1673 1674
v -4537.7560 1280.6880 283.4436
v -4530.4674 1293.3500 286.8230
v -4530.4651 1293.3492 283.4462
f 1675 1676 1677
v -4511.1184 1299.0499 295.5012
v -4510.9806 1298.9708 297.0133
v -4510.9654 1298.9659 275.1081
f 1678 1679 1680
v -4544.4459 1317.2943 295.4739
v -4511.5283 1298.3404 297.0131
v -4511.5272 1298.3399 295.5011
f 1681 1682 1683
v -4516.8971 1288.6450 275.1931
v -4517.0439 1288.7303 275.1059
v -4516.8970 1288.6449 275.1061
f 1684 1685 1686
v -4517.6215 1287.3859 275.1928
v -4517.7829 1287.4758 294.7589
v -4517.7693 1287.4713 275.1927
f 1687 1688 1689
v -4549.9941 1281.6904 294.8292
v -4547.0956 1280.0217 294.8316
v -4547.0949 1280.0215 293.7647
f 1690 1691 1692
v -4543.1688 1319.4871 275.0751
v -4510.2563 1300.5476 295.5015
v -4510.2422 1300.5429 275.1023
f 1693 1694 1695
v -4511.5272 1298.3399 295.5011
v -4511.1194 1299.0502 297.0132
v -4511.1184 1299.0499 295.5012
f 1696 1697 1698
v -4548.7446 1283.0927 275.2446
v -4560.2757 1289.7326 275.2350
v -4560.2756 1289.7326 275.1280
f 1699 1700 1701
v -4548.7446 1283.0927 275.2446
v -4547.7971 1284.7380 275.1479
v -4547.7972 1284.7382 275.2449
f 1702 1703 1704
v -4539.7635 1298.7031 283.4385
v -4547.0559 1286.0427 286.8127
v -4547.0535 1286.0419 283.4359
f 1705 1706 1707
v -4551.8539 1278.4539 292.1016
v -4549.9933 1281.6902 293.7623
v -4549.9922 1281.6898 292.1023
f 1708 1709 1710
v -4517.0439 1288.7303 275.1059
v -4518.3881 1286.3960 275.0995
v -4510.2422 1300.5429 275.1023
f 1711 1712 1713
v -4518.3881 1286.3960 275.0995
v -4517.7693 1287.4713 275.1927
v -4517.7829 1287.4758 294.7589
f 1714 1715 1716
v -4551.3130 1305.3508 295.4714
v -4539.7659 1298.7039 286.8153
v -4530.4674 1293.3500 286.8230
f 1717 1718 1719
v -4530.3374 1266.0841 292.1194
v -4530.3317 1266.0824 283.9247
v -4529.3431 1267.7997 283.9250
f 1720 1721 1722
v -4548.9554 1276.7880 292.1040
v -4548.9574 1276.7887 294.8309
v -4551.8558 1278.4554 294.8285
f 1723 1724 1725
v -4517.6215 1287.3859 275.1928
v -4516.9107 1288.6494 294.7592
v -4517.6351 1287.3904 294.7590
f 1726 1727 1728

g building_ID_97ACAC2F-D0EF-4053-A411-B48176EE647A
v -4334.5838 1304.8816 274.8942
v -4343.2373 1289.7871 274.8913
v -4350.3003 1293.8439 274.8857
f 1729 1730 1731
v -4350.3003 1293.8439 274.8857
v -4341.6508 1308.9335 274.8886
v -4334.5838 1304.8816 274.8942
f 1732 1733 1734
v -4332.7737 1308.0649 293.5330
v -4348.5494 1292.8345 297.8393
v -4343.2497 1289.7913 293.5296
f 1735 1736 1737
v -4348.5494 1292.8345 297.8393
v -4332.7737 1308.0649 293.5330
v -4338.0734 1311.1081 297.8427
f 1738 1739 1740
v -4354.4453 1296.2213 293.5207
v -4338.0734 1311.1081 297.8427
v -4343.9693 1314.4959 293.5242
f 1741 1742 1743
v -4338.0734 1311.1081 297.8427
v -4354.4453 1296.2213 293.5207
v -4348.5494 1292.8345 297.8393
f 1744 1745 1746
v -4332.7734 1308.0648 293.1171
v -4332.7737 1308.0649 293.5330
v -4334.5959 1304.8858 293.1165
f 1747 1748 1749
v -4343.2497 1289.7913 293.5296
v -4334.5959 1304.8858 293.1165
v -4332.7737 1308.0649 293.5330
f 1750 1751 1752
v -4334.5952 1304.8854 291.8725
v -4334.5959 1304.8858 293.1165
v -4343.2486 1289.7909 291.8697
f 1753 1754 1755
v -4343.2497 1289.7913 293.5296
v -4343.2486 1289.7909 291.8697
v -4334.5959 1304.8858 293.1165
f 1756 1757 1758
v -4354.4440 1296.2209 291.6578
v -4354.4453 1296.2213 293.5207
v -4345.7963 1311.3077 292.7276
f 1759 1760 1761
v -4343.9693 1314.4959 293.5242
v -4345.7963 1311.3077 292.7276
v -4354.4453 1296.2213 293.5207
f 1762 1763 1764
v -4345.7956 1311.3075 291.6606
v -4354.4440 1296.2209 291.6578
v -4345.7963 1311.3077 292.7276
f 1765 1766 1767
v -4343.9693 1314.4959 293.5242
v -4343.9687 1314.4968 292.7282
v -4345.7963 1311.3077 292.7276
f 1768 1769 1770
v -4351.3842 1302.7688 274.7691
v -4348.0638 1308.5067 274.7703
v -4341.6508 1308.9335 274.7746
f 1771 1772 1773
v -4341.6508 1308.9335 274.7746
v -4350.3002 1293.8439 274.7717
v -4351.3842 1302.7688 274.7691
f 1774 1775 1776
v -4346.3005 1311.5989 274.7709
v -4341.6508 1308.9335 274.7746
v -4348.0638 1308.5067 274.7703
f 1777 1778 1779
v -4351.3842 1302.7688 274.7691
v -4348.3963 1308.6967 274.7700
v -4348.0638 1308.5067 274.7703
f 1780 1781 1782
v -4351.6937 1302.9425 274.7690
v -4348.3963 1308.6967 274.7700
v -4351.3842 1302.7688 274.7691
f 1783 1784 1785
v -4354.9749 1296.5285 274.7680
v -4351.3842 1302.7688 274.7691
v -4350.3002 1293.8439 274.7717
f 1786 1787 1788
v -4348.4076 1308.7005 291.6853
v -4348.0751 1308.5106 291.6756
v -4348.3963 1308.6967 274.7700
f 1789 1790 1791
v -4351.6937 1302.9425 274.7690
v -4351.7051 1302.9464 291.6843
v -4348.4076 1308.7005 291.6853
f 1792 1793 1794
v -4351.6937 1302.9425 274.7690
v -4351.3842 1302.7688 274.7691
v -4351.3955 1302.7727 291.6745
f 1795 1796 1797
v -4354.9749 1296.5285 274.7680
v -4351.3955 1302.7727 291.6745
v -4351.3842 1302.7688 274.7691
f 1798 1799 1800
v -4354.9798 1296.5302 282.1648
v -4351.3955 1302.7727 291.6745
v -4354.9749 1296.5285 274.7680
f 1801 1802 1803
v -4351.3955 1302.7727 291.6745
v -4354.9862 1296.5323 291.6744
v -4354.4440 1296.2209 291.6578
f 1804 1805 1806
v -4351.3955 1302.7727 291.6745
v -4348.4076 1308.7005 291.6853
v -4351.7051 1302.9464 291.6843
f 1807 1808 1809
v -4348.0751 1308.5106 291.6756
v -4348.4076 1308.7005 291.6853
v -4351.3955 1302.7727 291.6745
f 1810 1811 1812
v -4345.7956 1311.3075 291.6606
v -4348.0751 1308.5106 291.6756
v -4351.3955 1302.7727 291.6745
f 1813 1814 1815
v -4348.0751 1308.5106 291.6756
v -4345.7956 1311.3075 291.6606
v -4346.3118 1311.6029 291.6762
f 1816 1817 1818
v -4345.7956 1311.3075 291.6606
v -4351.3955 1302.7727 291.6745
v -4354.4440 1296.2209 291.6578
f 1819 1820 1821
v -4341.6508 1308.9335 274.7746
v -4341.6508 1308.9335 274.8886
v -4350.3002 1293.8439 274.7717
f 1822 1823 1824
v -4344.5006 1314.3896 272.6336
v -4333.3818 1308.4178 272.6424
v -4335.2044 1305.2378 272.6417
f 1825 1826 1827
v -4333.2764 1304.1326 272.6433
v -4335.2044 1305.2378 272.6417
v -4331.4548 1307.3106 272.6438
f 1828 1829 1830
v -4333.3818 1308.4178 272.6424
v -4331.4548 1307.3106 272.6438
v -4335.2044 1305.2378 272.6417
f 1831 1832 1833
v -4344.5006 1314.3896 272.6336
v -4335.2044 1305.2378 272.6417
v -4344.8304 1310.7565 272.6341
f 1834 1835 1836
v -4346.2749 1311.6404 272.6329
v -4346.1072 1311.5450 272.6330
v -4346.2991 1311.5985 272.6329
f 1837 1838 1839
v -4344.8304 1310.7565 272.6341
v -4346.2991 1311.5985 272.6329
v -4346.1072 1311.5450 272.6330
f 1840 1841 1842
v -4344.3118 1314.6971 272.6337
v -4343.0028 1313.9445 272.6347
v -4344.5006 1314.3896 272.6336
f 1843 1844 1845
v -4344.5006 1314.3896 272.6336
v -4343.0028 1313.9445 272.6347
v -4333.3818 1308.4178 272.6424
f 1846 1847 1848
v -4346.1072 1311.5450 272.6330
v -4344.5006 1314.3896 272.6336
v -4344.8304 1310.7565 272.6341
f 1849 1850 1851
v -4346.1072 1311.5450 272.6330
v -4346.1204 1311.5495 292.3713
v -4344.5006 1314.3896 272.6336
f 1852 1853 1854
v -4346.1204 1311.5495 292.3713
v -4344.5138 1314.3941 292.3528
v -4344.5006 1314.3896 272.6336
f 1855 1856 1857
v -4346.2831 1311.6432 284.7985
v -4346.2880 1311.6449 292.2002
v -4346.1072 1311.5450 272.6330
f 1858 1859 1860
v -4346.2749 1311.6404 272.6329
v -4346.2831 1311.6432 284.7985
v -4346.1072 1311.5450 272.6330
f 1861 1862 1863
v -4346.1072 1311.5450 272.6330
v -4346.2880 1311.6449 292.2002
v -4346.1204 1311.5495 292.3713
f 1864 1865 1866
v -4334.5838 1304.8816 274.8942
v -4334.5842 1304.8817 275.4721
v -4343.2377 1289.7872 275.4693
f 1867 1868 1869
v -4333.2782 1304.1333 275.4732
v -4341.9327 1289.0377 275.4704
v -4343.2377 1289.7872 275.4693
f 1870 1871 1872
v -4343.2377 1289.7872 275.4693
v -4334.5842 1304.8817 275.4721
v -4333.2782 1304.1333 275.4732
f 1873 1874 1875
v -4343.2486 1289.7909 291.8697
v -4333.2892 1304.1370 291.8736
v -4334.5952 1304.8854 291.8725
f 1876 1877 1878
v -4333.2892 1304.1370 291.8736
v -4343.2486 1289.7909 291.8697
v -4341.9437 1289.0415 291.8707
f 1879 1880 1881
v -4343.9687 1314.4968 292.7282
v -4344.3250 1314.7016 292.3629
v -4344.5138 1314.3941 292.3528
f 1882 1883 1884
v -4344.5138 1314.3941 292.3528
v -4346.1204 1311.5495 292.3713
v -4343.9687 1314.4968 292.7282
f 1885 1886 1887
v -4345.7963 1311.3077 292.7276
v -4343.9687 1314.4968 292.7282
v -4346.1204 1311.5495 292.3713
f 1888 1889 1890
v -4346.2880 1311.6449 292.2002
v -4346.3121 1311.6030 292.2002
v -4346.1204 1311.5495 292.3713
f 1891 1892 1893
v -4345.7963 1311.3077 292.7276
v -4346.1204 1311.5495 292.3713
v -4346.3121 1311.6030 292.2002
f 1894 1895 1896
v -4333.2892 1304.1370 291.8736
v -4331.4676 1307.3150 291.8741
v -4332.7734 1308.0648 293.1171
f 1897 1898 1899
v -4332.7734 1308.0648 293.1171
v -4334.5959 1304.8858 293.1165
v -4333.2892 1304.1370 291.8736
f 1900 1901 1902
v -4344.3217 1314.7005 287.4301
v -4344.3151 1314.6983 277.5665
v -4344.5138 1314.3941 292.3528
f 1903 1904 1905
v -4344.5006 1314.3896 272.6336
v -4344.5138 1314.3941 292.3528
v -4344.3118 1314.6971 272.6337
f 1906 1907 1908
v -4346.3118 1311.6029 291.6762
v -4345.7956 1311.3075 291.6606
v -4345.7963 1311.3077 292.7276
f 1909 1910 1911
v -4345.7963 1311.3077 292.7276
v -4346.3121 1311.6030 292.2002
v -4346.3118 1311.6029 291.6762
f 1912 1913 1914
v -4334.5952 1304.8854 291.8725
v -4333.2892 1304.1370 291.8736
v -4334.5959 1304.8858 293.1165
f 1915 1916 1917
v -4331.4676 1307.3150 291.8741
v -4333.2892 1304.1370 291.8736
v -4333.2782 1304.1333 275.4732
f 1918 1919 1920
v -4333.2764 1304.1326 272.6433
v -4331.4548 1307.3106 272.6438
v -4331.4567 1307.3113 275.4737
f 1921 1922 1923
v -4341.9327 1289.0377 275.4704
v -4333.2782 1304.1333 275.4732
v -4333.2892 1304.1370 291.8736
f 1924 1925 1926
v -4343.9687 1314.4968 292.7282
v -4343.9693 1314.4959 293.5242
v -4338.0734 1311.1081 297.8427
f 1927 1928 1929
v -4332.7734 1308.0648 293.1171
v -4344.3217 1314.7005 287.4301
v -4343.9687 1314.4968 292.7282
f 1930 1931 1932
v -4343.9687 1314.4968 292.7282
v -4344.3217 1314.7005 287.4301
v -4344.3250 1314.7016 292.3629
f 1933 1934 1935
v -4344.3217 1314.7005 287.4301
v -4331.4676 1307.3150 291.8741
v -4344.3151 1314.6983 277.5665
f 1936 1937 1938
v -4343.9687 1314.4968 292.7282
v -4338.0734 1311.1081 297.8427
v -4332.7734 1308.0648 293.1171
f 1939 1940 1941
v -4344.3217 1314.7005 287.4301
v -4332.7734 1308.0648 293.1171
v -4331.4676 1307.3150 291.8741
f 1942 1943 1944
v -4331.4676 1307.3150 291.8741
v -4331.4567 1307.3113 275.4737
v -4344.3151 1314.6983 277.5665
f 1945 1946 1947
v -4331.4567 1307.3113 275.4737
v -4333.3818 1308.4178 272.6424
v -4344.3151 1314.6983 277.5665
f 1948 1949 1950
v -4343.0028 1313.9445 272.6347
v -4344.3118 1314.6971 272.6337
v -4344.3151 1314.6983 277.5665
f 1951 1952 1953
v -4331.4567 1307.3113 275.4737
v -4331.4548 1307.3106 272.6438
v -4333.3818 1308.4178 272.6424
f 1954 1955 1956
v -4343.0028 1313.9445 272.6347
v -4344.3151 1314.6983 277.5665
v -4333.3818 1308.4178 272.6424
f 1957 1958 1959
v -4332.7737 1308.0649 293.5330
v -4332.7734 1308.0648 293.1171
v -4338.0734 1311.1081 297.8427
f 1960 1961 1962
v -4346.3118 1311.6029 291.6762
v -4348.0638 1308.5067 274.7703
v -4348.0751 1308.5106 291.6756
f 1963 1964 1965
v -4346.2880 1311.6449 292.2002
v -4346.3118 1311.6029 291.6762
v -4346.3121 1311.6030 292.2002
f 1966 1967 1968
v -4346.2831 1311.6432 284.7985
v -4348.0638 1308.5067 274.7703
v -4346.3118 1311.6029 291.6762
f 1969 1970 1971
v -4346.2831 1311.6432 284.7985
v -4346.3118 1311.6029 291.6762
v -4346.2880 1311.6449 292.2002
f 1972 1973 1974
v -4346.2991 1311.5985 272.6329
v -4346.3005 1311.5989 274.7709
v -4346.2749 1311.6404 272.6329
f 1975 1976 1977
v -4346.2831 1311.6432 284.7985
v -4346.2749 1311.6404 272.6329
v -4346.3005 1311.5989 274.7709
f 1978 1979 1980
v -4346.2831 1311.6432 284.7985
v -4346.3005 1311.5989 274.7709
v -4348.0638 1308.5067 274.7703
f 1981 1982 1983
v -4334.5838 1304.8816 274.8942
v -4333.2782 1304.1333 275.4732
v -4334.5842 1304.8817 275.4721
f 1984 1985 1986
v -4333.2764 1304.1326 272.6433
v -4333.2782 1304.1333 275.4732
v -4334.5838 1304.8816 274.8942
f 1987 1988 1989
v -4333.2764 1304.1326 272.6433
v -4334.5838 1304.8816 274.8942
v -4335.2044 1305.2378 272.6417
f 1990 1991 1992
v -4341.6508 1308.9335 274.7746
v -4335.2044 1305.2378 272.6417
v -4334.5838 1304.8816 274.8942
f 1993 1994 1995
v -4334.5838 1304.8816 274.8942
v -4341.6508 1308.9335 274.8886
v -4341.6508 1308.9335 274.7746
f 1996 1997 1998
v -4346.2991 1311.5985 272.6329
v -4344.8304 1310.7565 272.6341
v -4346.3005 1311.5989 274.7709
f 1999 2000 2001
v -4341.6508 1308.9335 274.7746
v -4346.3005 1311.5989 274.7709
v -4344.8304 1310.7565 272.6341
f 2002 2003 2004
v -4335.2044 1305.2378 272.6417
v -4341.6508 1308.9335 274.7746
v -4344.8304 1310.7565 272.6341
f 2005 2006 2007
v -4341.9327 1289.0377 275.4704
v -4341.9437 1289.0415 291.8707
v -4343.2486 1289.7909 291.8697
f 2008 2009 2010
v -4354.4453 1296.2213 293.5207
v -4343.2486 1289.7909 291.8697
v -4343.2497 1289.7913 293.5296
f 2011 2012 2013
v -4343.2486 1289.7909 291.8697
v -4354.9798 1296.5302 282.1648
v -4343.2377 1289.7872 275.4693
f 2014 2015 2016
v -4343.2373 1289.7871 274.8913
v -4343.2377 1289.7872 275.4693
v -4350.3003 1293.8439 274.8857
f 2017 2018 2019
v -4343.2377 1289.7872 275.4693
v -4354.9798 1296.5302 282.1648
v -4350.3003 1293.8439 274.8857
f 2020 2021 2022
v -4343.2377 1289.7872 275.4693
v -4341.9327 1289.0377 275.4704
v -4343.2486 1289.7909 291.8697
f 2023 2024 2025
v -4348.5494 1292.8345 297.8393
v -4354.4453 1296.2213 293.5207
v -4343.2497 1289.7913 293.5296
f 2026 2027 2028
v -4354.4440 1296.2209 291.6578
v -4354.9798 1296.5302 282.1648
v -4343.2486 1289.7909 291.8697
f 2029 2030 2031
v -4354.4440 1296.2209 291.6578
v -4354.9862 1296.5323 291.6744
v -4354.9798 1296.5302 282.1648
f 2032 2033 2034
v -4354.9749 1296.5285 274.7680
v -4350.3002 1293.8439 274.7717
v -4350.3003 1293.8439 274.8857
f 2035 2036 2037
v -4350.3003 1293.8439 274.8857
v -4354.9798 1296.5302 282.1648
v -4354.9749 1296.5285 274.7680
f 2038 2039 2040
v -4354.4453 1296.2213 293.5207
v -4354.4440 1296.2209 291.6578
v -4343.2486 1289.7909 291.8697
f 2041 2042 2043
v -4348.0638 1308.5067 274.7703
v -4348.3963 1308.6967 274.7700
v -4348.0751 1308.5106 291.6756
f 2044 2045 2046
v -4351.6937 1302.9425 274.7690
v -4348.4076 1308.7005 291.6853
v -4348.3963 1308.6967 274.7700
f 2047 2048 2049
v -4351.3955 1302.7727 291.6745
v -4351.7051 1302.9464 291.6843
v -4351.6937 1302.9425 274.7690
f 2050 2051 2052
v -4354.9798 1296.5302 282.1648
v -4354.9862 1296.5323 291.6744
v -4351.3955 1302.7727 291.6745
f 2053 2054 2055
v -4341.6508 1308.9335 274.8886
v -4350.3003 1293.8439 274.8857
v -4350.3002 1293.8439 274.7717
f 2056 2057 2058
v -4334.5838 1304.8816 274.8942
v -4343.2377 1289.7872 275.4693
v -4343.2373 1289.7871 274.8913
f 2059 2060 2061
v -4344.3118 1314.6971 272.6337
v -4344.5138 1314.3941 292.3528
v -4344.3151 1314.6983 277.5665
f 2062 2063 2064
v -4344.3217 1314.7005 287.4301
v -4344.5138 1314.3941 292.3528
v -4344.3250 1314.7016 292.3629
f 2065 2066 2067
v -4331.4676 1307.3150 291.8741
v -4333.2782 1304.1333 275.4732
v -4331.4567 1307.3113 275.4737
f 2068 2069 2070
v -4333.2764 1304.1326 272.6433
v -4331.4567 1307.3113 275.4737
v -4333.2782 1304.1333 275.4732
f 2071 2072 2073
v -4341.9327 1289.0377 275.4704
v -4333.2892 1304.1370 291.8736
v -4341.9437 1289.0415 291.8707
f 2074 2075 2076

g building_ID_B8DD1D5D-F364-4F17-AF87-742D49B6739F
v -4378.5447 1308.3084 290.7668
v -4379.0308 1308.5695 290.4775
v -4379.1011 1308.4477 290.4764
f 2077 2078 2079
v -4378.5447 1308.3084 290.7668
v -4379.1011 1308.4477 290.4764
v -4376.6992 1307.2746 291.8783
f 2080 2081 2082
v -4374.0101 1305.5218 293.5604
v -4376.6992 1307.2746 291.8783
v -4379.1011 1308.4477 290.4764
f 2083 2084 2085
v -4373.9046 1305.7095 293.5605
v -4376.6992 1307.2746 291.8783
v -4374.0101 1305.5218 293.5604
f 2086 2087 2088
v -4377.1138 1310.8635 290.7673
v -4378.5447 1308.3084 290.7668
v -4376.6992 1307.2746 291.8783
f 2089 2090 2091
v -4377.1138 1310.8635 290.7673
v -4376.6992 1307.2746 291.8783
v -4375.2714 1309.8337 291.8758
f 2092 2093 2094
v -4374.0101 1305.5218 293.5604
v -4368.6733 1302.4557 290.5318
v -4368.5337 1302.6994 290.5308
f 2095 2096 2097
v -4368.5337 1302.6994 290.5308
v -4373.9046 1305.7095 293.5605
v -4374.0101 1305.5218 293.5604
f 2098 2099 2100
v -4379.0206 1308.5661 275.3711
v -4379.0955 1308.4458 282.1518
v -4379.1011 1308.4477 290.4764
f 2101 2102 2103
v -4379.0206 1308.5661 275.3711
v -4379.1011 1308.4477 290.4764
v -4379.0308 1308.5695 290.4775
f 2104 2105 2106
v -4379.0909 1308.4443 275.3710
v -4379.0955 1308.4458 282.1518
v -4379.0206 1308.5661 275.3711
f 2107 2108 2109
v -4378.5447 1308.3084 290.7668
v -4379.0206 1308.5661 275.3711
v -4379.0308 1308.5695 290.4775
f 2110 2111 2112
v -4378.5447 1308.3084 290.7668
v -4378.5343 1308.3048 275.3715
v -4379.0206 1308.5661 275.3711
f 2113 2114 2115
v -4377.1055 1310.8569 275.3719
v -4377.1034 1310.8599 275.3719
v -4376.6841 1310.6257 275.3722
f 2116 2117 2118
v -4376.6891 1310.6178 275.3722
v -4377.1055 1310.8569 275.3719
v -4376.6841 1310.6257 275.3722
f 2119 2120 2121
v -4368.5338 1302.6995 290.7048
v -4364.7009 1309.3861 290.6551
v -4369.5648 1312.1799 294.4471
f 2122 2123 2124
v -4369.5648 1312.1799 294.4471
v -4373.3600 1305.4043 294.4459
v -4368.5338 1302.6995 290.7048
f 2125 2126 2127
v -4369.5519 1312.1755 275.2208
v -4364.6905 1309.3826 275.2247
v -4374.2606 1314.8792 275.2170
f 2128 2129 2130
v -4376.6890 1310.6178 275.2162
v -4374.2606 1314.8792 275.2170
v -4364.6905 1309.3826 275.2247
f 2131 2132 2133
v -4376.6890 1310.6178 275.2162
v -4368.5234 1302.6959 275.2235
v -4373.3471 1305.3999 275.2196
f 2134 2135 2136
v -4368.5234 1302.6959 275.2235
v -4376.6890 1310.6178 275.2162
v -4364.6905 1309.3826 275.2247
f 2137 2138 2139
v -4373.3471 1305.3999 275.2196
v -4378.5342 1308.3047 275.2155
v -4376.6890 1310.6178 275.2162
f 2140 2141 2142
v -4376.6890 1310.6178 275.2162
v -4378.5342 1308.3047 275.2155
v -4377.1054 1310.8568 275.2159
f 2143 2144 2145
v -4378.5343 1308.3048 275.3715
v -4379.0909 1308.4443 275.3710
v -4379.0206 1308.5661 275.3711
f 2146 2147 2148
v -4373.3472 1305.3999 275.3756
v -4379.0909 1308.4443 275.3710
v -4378.5343 1308.3048 275.3715
f 2149 2150 2151
v -4373.9979 1305.5176 275.3751
v -4373.3472 1305.3999 275.3756
v -4368.5235 1302.6959 275.3795
f 2152 2153 2154
v -4368.5235 1302.6959 275.3795
v -4368.6632 1302.4523 275.3794
v -4373.9979 1305.5176 275.3751
f 2155 2156 2157
v -4379.0909 1308.4443 275.3710
v -4373.3472 1305.3999 275.3756
v -4373.9979 1305.5176 275.3751
f 2158 2159 2160
v -4375.2714 1309.8337 291.8758
v -4376.6992 1307.2746 291.8783
v -4373.3600 1305.4043 294.4459
f 2161 2162 2163
v -4375.2714 1309.8337 291.8758
v -4373.3600 1305.4043 294.4459
v -4369.5648 1312.1799 294.4471
f 2164 2165 2166
v -4374.8568 1313.8544 290.8012
v -4369.5648 1312.1799 294.4471
v -4374.2711 1314.8828 290.8074
f 2167 2168 2169
v -4374.8568 1313.8544 290.8012
v -4376.6945 1310.6293 290.7816
v -4375.2714 1309.8337 291.8758
f 2170 2171 2172
v -4369.5648 1312.1799 294.4471
v -4374.8568 1313.8544 290.8012
v -4375.2714 1309.8337 291.8758
f 2173 2174 2175
v -4376.6841 1310.6257 275.3722
v -4376.6890 1310.6178 275.2162
v -4376.6891 1310.6178 275.3722
f 2176 2177 2178
v -4375.9181 1311.9780 280.8123
v -4376.6841 1310.6257 275.3722
v -4376.6945 1310.6293 290.7816
f 2179 2180 2181
v -4376.6890 1310.6178 275.2162
v -4376.6841 1310.6257 275.3722
v -4374.2606 1314.8792 275.2170
f 2182 2183 2184
v -4375.9181 1311.9780 280.8123
v -4374.2606 1314.8792 275.2170
v -4376.6841 1310.6257 275.3722
f 2185 2186 2187
v -4375.9181 1311.9780 280.8123
v -4376.6945 1310.6293 290.7816
v -4374.8568 1313.8544 290.8012
f 2188 2189 2190
v -4374.2711 1314.8828 290.8074
v -4374.2684 1314.8818 286.9096
v -4374.8568 1313.8544 290.8012
f 2191 2192 2193
v -4374.2684 1314.8818 286.9096
v -4374.2658 1314.8809 283.0007
v -4374.8568 1313.8544 290.8012
f 2194 2195 2196
v -4376.6891 1310.6178 275.3722
v -4377.1054 1310.8568 275.2159
v -4377.1055 1310.8569 275.3719
f 2197 2198 2199
v -4377.1054 1310.8568 275.2159
v -4376.6891 1310.6178 275.3722
v -4376.6890 1310.6178 275.2162
f 2200 2201 2202
v -4379.1011 1308.4477 290.4764
v -4368.6733 1302.4557 290.5318
v -4374.0101 1305.5218 293.5604
f 2203 2204 2205
v -4368.6733 1302.4557 290.5318
v -4373.9979 1305.5176 275.3751
v -4368.6632 1302.4523 275.3794
f 2206 2207 2208
v -4368.6733 1302.4557 290.5318
v -4379.0955 1308.4458 282.1518
v -4373.9979 1305.5176 275.3751
f 2209 2210 2211
v -4379.0955 1308.4458 282.1518
v -4379.0909 1308.4443 275.3710
v -4373.9979 1305.5176 275.3751
f 2212 2213 2214
v -4379.1011 1308.4477 290.4764
v -4379.0955 1308.4458 282.1518
v -4368.6733 1302.4557 290.5318
f 2215 2216 2217
v -4376.6841 1310.6257 275.3722
v -4377.1034 1310.8599 275.3719
v -4376.6945 1310.6293 290.7816
f 2218 2219 2220
v -4377.1138 1310.8635 290.7673
v -4376.6945 1310.6293 290.7816
v -4377.1034 1310.8599 275.3719
f 2221 2222 2223
v -4376.6945 1310.6293 290.7816
v -4377.1138 1310.8635 290.7673
v -4375.2714 1309.8337 291.8758
f 2224 2225 2226
v -4378.5342 1308.3047 275.2155
v -4378.5343 1308.3048 275.3715
v -4377.1055 1310.8569 275.3719
f 2227 2228 2229
v -4378.5343 1308.3048 275.3715
v -4378.5447 1308.3084 290.7668
v -4377.1055 1310.8569 275.3719
f 2230 2231 2232
v -4377.1034 1310.8599 275.3719
v -4377.1055 1310.8569 275.3719
v -4377.1138 1310.8635 290.7673
f 2233 2234 2235
v -4378.5447 1308.3084 290.7668
v -4377.1138 1310.8635 290.7673
v -4377.1055 1310.8569 275.3719
f 2236 2237 2238
v -4374.2684 1314.8818 286.9096
v -4374.2711 1314.8828 290.8074
v -4369.5648 1312.1799 294.4471
f 2239 2240 2241
v -4374.2684 1314.8818 286.9096
v -4364.7009 1309.3861 290.6551
v -4374.2658 1314.8809 283.0007
f 2242 2243 2244
v -4364.7009 1309.3861 290.6551
v -4374.2684 1314.8818 286.9096
v -4369.5648 1312.1799 294.4471
f 2245 2246 2247
v -4369.5519 1312.1755 275.2208
v -4364.7009 1309.3861 290.6551
v -4364.6905 1309.3826 275.2247
f 2248 2249 2250
v -4374.2606 1314.8792 275.2170
v -4374.2658 1314.8809 283.0007
v -4369.5519 1312.1755 275.2208
f 2251 2252 2253
v -4364.7009 1309.3861 290.6551
v -4369.5519 1312.1755 275.2208
v -4374.2658 1314.8809 283.0007
f 2254 2255 2256
v -4364.6905 1309.3826 275.2247
v -4364.7009 1309.3861 290.6551
v -4368.5235 1302.6959 275.3795
f 2257 2258 2259
v -4368.5337 1302.6994 290.5308
v -4368.5235 1302.6959 275.3795
v -4364.7009 1309.3861 290.6551
f 2260 2261 2262
v -4368.5235 1302.6959 275.3795
v -4368.5234 1302.6959 275.2235
v -4364.6905 1309.3826 275.2247
f 2263 2264 2265
v -4364.7009 1309.3861 290.6551
v -4368.5338 1302.6995 290.7048
v -4368.5337 1302.6994 290.5308
f 2266 2267 2268
v -4368.5337 1302.6994 290.5308
v -4368.6733 1302.4557 290.5318
v -4368.6632 1302.4523 275.3794
f 2269 2270 2271
v -4368.5235 1302.6959 275.3795
v -4368.5337 1302.6994 290.5308
v -4368.6632 1302.4523 275.3794
f 2272 2273 2274
v -4373.3471 1305.3999 275.2196
v -4368.5234 1302.6959 275.2235
v -4368.5235 1302.6959 275.3795
f 2275 2276 2277
v -4373.3472 1305.3999 275.3756
v -4373.3471 1305.3999 275.2196
v -4368.5235 1302.6959 275.3795
f 2278 2279 2280
v -4378.5342 1308.3047 275.2155
v -4373.3472 1305.3999 275.3756
v -4378.5343 1308.3048 275.3715
f 2281 2282 2283
v -4373.3471 1305.3999 275.2196
v -4373.3472 1305.3999 275.3756
v -4378.5342 1308.3047 275.2155
f 2284 2285 2286
v -4373.9046 1305.7095 293.5605
v -4368.5337 1302.6994 290.5308
v -4368.5338 1302.6995 290.7048
f 2287 2288 2289
v -4373.3600 1305.4043 294.4459
v -4373.9046 1305.7095 293.5605
v -4368.5338 1302.6995 290.7048
f 2290 2291 2292
v -4373.9046 1305.7095 293.5605
v -4373.3600 1305.4043 294.4459
v -4376.6992 1307.2746 291.8783
f 2293 2294 2295
v -4374.2606 1314.8792 275.2170
v -4375.9181 1311.9780 280.8123
v -4374.8568 1313.8544 290.8012
f 2296 2297 2298
v -4374.2658 1314.8809 283.0007
v -4374.2606 1314.8792 275.2170
v -4374.8568 1313.8544 290.8012
f 2299 2300 2301
v -4378.5342 1308.3047 275.2155
v -4377.1055 1310.8569 275.3719
v -4377.1054 1310.8568 275.2159
f 2302 2303 2304

g building_ID_7D66CCE0-30C3-4D3D-9947-5CD3B0B7E603
v -4379.1007 1308.4476 289.7955
v -4376.9839 1307.2319 289.7972
v -4376.6988 1310.6211 289.7967
f 2305 2306 2307
v -4373.9464 1312.6527 289.7982
v -4376.6988 1310.6211 289.7967
v -4376.9839 1307.2319 289.7972
f 2308 2309 2310
v -4377.5665 1311.1195 289.7960
v -4379.1007 1308.4476 289.7955
v -4376.6988 1310.6211 289.7967
f 2311 2312 2313
v -4373.9464 1312.6527 289.7982
v -4375.1555 1313.3299 289.7972
v -4376.6988 1310.6211 289.7967
f 2314 2315 2316
v -4376.6890 1310.6178 275.1402
v -4376.6988 1310.6211 289.7967
v -4375.1555 1313.3299 289.7972
f 2317 2318 2319
v -4377.5566 1311.1161 275.1395
v -4377.5665 1311.1195 289.7960
v -4376.6988 1310.6211 289.7967
f 2320 2321 2322
v -4379.0908 1308.4442 275.1390
v -4379.1007 1308.4476 289.7955
v -4377.5665 1311.1195 289.7960
f 2323 2324 2325
v -4376.9740 1307.2286 275.1407
v -4376.9839 1307.2319 289.7972
v -4379.1007 1308.4476 289.7955
f 2326 2327 2328
v -4373.9365 1312.6493 275.1417
v -4373.9464 1312.6527 289.7982
v -4376.9839 1307.2319 289.7972
f 2329 2330 2331
v -4375.1457 1313.3266 275.1407
v -4375.1555 1313.3299 289.7972
v -4373.9464 1312.6527 289.7982
f 2332 2333 2334
v -4373.9365 1312.6493 275.1417
v -4376.6890 1310.6178 275.1402
v -4375.1457 1313.3266 275.1407
f 2335 2336 2337
v -4379.0908 1308.4442 275.1390
v -4376.6890 1310.6178 275.1402
v -4376.9740 1307.2286 275.1407
f 2338 2339 2340
v -4373.9365 1312.6493 275.1417
v -4376.9740 1307.2286 275.1407
v -4376.6890 1310.6178 275.1402
f 2341 2342 2343
v -4377.5566 1311.1161 275.1395
v -4376.6890 1310.6178 275.1402
v -4379.0908 1308.4442 275.1390
f 2344 2345 2346
v -4376.6890 1310.6178 275.1402
v -4375.1555 1313.3299 289.7972
v -4375.1457 1313.3266 275.1407
f 2347 2348 2349
v -4377.5566 1311.1161 275.1395
v -4376.6988 1310.6211 289.7967
v -4376.6890 1310.6178 275.1402
f 2350 2351 2352
v -4379.0908 1308.4442 275.1390
v -4377.5665 1311.1195 289.7960
v -4377.5566 1311.1161 275.1395
f 2353 2354 2355
v -4376.9740 1307.2286 275.1407
v -4379.1007 1308.4476 289.7955
v -4379.0908 1308.4442 275.1390
f 2356 2357 2358
v -4373.9365 1312.6493 275.1417
v -4376.9839 1307.2319 289.7972
v -4376.9740 1307.2286 275.1407
f 2359 2360 2361
v -4375.1457 1313.3266 275.1407
v -4373.9464 1312.6527 289.7982
v -4373.9365 1312.6493 275.1417
f 2362 2363 2364

g building_ID_88CF7313-8039-4974-8A6A-33B03E8BC443
v -4419.7888 1304.2398 293.2112
v -4427.5585 1297.5357 297.2340
v -4426.0374 1296.6621 295.0963
f 2365 2366 2367
v -4426.0374 1296.6621 295.0963
v -4427.7865 1297.1473 297.2329
v -4426.2745 1296.2588 295.0962
f 2368 2369 2370
v -4419.7910 1315.1952 299.9786
v -4429.5103 1298.6565 299.9753
v -4427.5585 1297.5357 297.2340
f 2371 2372 2373
v -4427.7865 1297.1473 297.2329
v -4426.0374 1296.6621 295.0963
v -4427.5585 1297.5357 297.2340
f 2374 2375 2376
v -4424.6192 1295.8478 293.1036
v -4424.5258 1295.9866 293.0916
v -4426.0374 1296.6621 295.0963
f 2377 2378 2379
v -4426.0374 1296.6621 295.0963
v -4424.5258 1295.9866 293.0916
v -4419.7888 1304.2398 293.2112
f 2380 2381 2382
v -4427.5585 1297.5357 297.2340
v -4419.7888 1304.2398 293.2112
v -4419.7910 1315.1952 299.9786
f 2383 2384 2385
v -4419.7910 1315.1952 299.9786
v -4419.7888 1304.2398 293.2112
v -4415.0598 1312.4791 293.3318
f 2386 2387 2388
v -4432.2632 1312.6323 293.3028
v -4437.6172 1303.3138 293.3750
v -4429.5103 1298.6565 299.9753
f 2389 2390 2391
v -4432.2632 1312.6323 293.3028
v -4429.5103 1298.6565 299.9753
v -4419.7910 1315.1952 299.9786
f 2392 2393 2394
v -4432.4059 1312.7146 293.1867
v -4432.2632 1312.6323 293.3028
v -4432.5454 1313.2009 292.9275
f 2395 2396 2397
v -4430.1734 1316.2696 293.2745
v -4432.5454 1313.2009 292.9275
v -4432.2632 1312.6323 293.3028
f 2398 2399 2400
v -4419.7910 1315.1952 299.9786
v -4428.0605 1319.9468 293.2462
v -4430.1734 1316.2696 293.2745
f 2401 2402 2403
v -4430.7532 1316.2501 292.9281
v -4432.5454 1313.2009 292.9275
v -4430.1734 1316.2696 293.2745
f 2404 2405 2406
v -4430.7532 1316.2501 292.9281
v -4430.1734 1316.2696 293.2745
v -4430.3221 1316.3560 293.1534
f 2407 2408 2409
v -4419.7910 1315.1952 299.9786
v -4430.1734 1316.2696 293.2745
v -4432.2632 1312.6323 293.3028
f 2410 2411 2412
v -4427.7865 1297.1473 297.2329
v -4427.5433 1297.5306 274.8889
v -4427.7713 1297.1422 274.8888
f 2413 2414 2415
v -4427.5585 1297.5357 297.2340
v -4427.5471 1297.5318 280.4747
v -4427.7865 1297.1473 297.2329
f 2416 2417 2418
v -4426.2607 1296.2541 274.8900
v -4426.2745 1296.2588 295.0962
v -4427.7713 1297.1422 274.8888
f 2419 2420 2421
v -4426.0374 1296.6621 295.0963
v -4426.2607 1296.2541 274.8900
v -4426.0237 1296.6575 274.8901
f 2422 2423 2424
v -4424.6192 1295.8478 293.1036
v -4426.0374 1296.6621 295.0963
v -4426.0237 1296.6575 274.8901
f 2425 2426 2427
v -4424.5135 1295.9825 274.8913
v -4424.6192 1295.8478 293.1036
v -4424.6068 1295.8437 274.8913
f 2428 2429 2430
v -4424.5258 1295.9866 293.0916
v -4415.0472 1312.4748 274.8945
v -4419.7888 1304.2398 293.2112
f 2431 2432 2433
v -4415.0535 1312.4769 284.1131
v -4415.0598 1312.4791 293.3318
v -4419.7888 1304.2398 293.2112
f 2434 2435 2436
v -4424.5135 1295.9825 274.8913
v -4415.0472 1312.4748 274.8945
v -4424.5258 1295.9866 293.0916
f 2437 2438 2439
v -4432.5330 1313.1968 274.8822
v -4432.3934 1312.7104 274.8824
v -4432.5454 1313.2009 292.9275
f 2440 2441 2442
v -4437.6077 1303.3106 279.5045
v -4437.6172 1303.3138 293.3750
v -4432.2632 1312.6323 293.3028
f 2443 2444 2445
v -4437.6077 1303.3106 279.5045
v -4432.2506 1312.6280 274.8825
v -4437.6046 1303.3096 274.8807
f 2446 2447 2448
v -4430.1609 1316.2654 274.8832
v -4430.1734 1316.2696 293.2745
v -4428.0605 1319.9468 293.2462
f 2449 2450 2451
v -4428.0543 1319.9447 284.0506
v -4428.0480 1319.9426 274.8839
v -4430.1609 1316.2654 274.8832
f 2452 2453 2454
v -4430.1734 1316.2696 293.2745
v -4430.3097 1316.3518 274.8831
v -4430.3221 1316.3560 293.1534
f 2455 2456 2457
v -4430.1609 1316.2654 274.8832
v -4430.3097 1316.3518 274.8831
v -4430.1734 1316.2696 293.2745
f 2458 2459 2460
v -4430.3097 1316.3518 274.8831
v -4430.7409 1316.2459 274.8828
v -4430.7532 1316.2501 292.9281
f 2461 2462 2463
v -4432.5330 1313.1968 274.8822
v -4432.5454 1313.2009 292.9275
v -4430.7409 1316.2459 274.8828
f 2464 2465 2466
v -4419.7739 1315.1894 274.8906
v -4430.1609 1316.2654 274.8832
v -4428.0480 1319.9426 274.8839
f 2467 2468 2469
v -4419.7739 1315.1894 274.8906
v -4415.0472 1312.4748 274.8945
v -4424.5135 1295.9825 274.8913
f 2470 2471 2472
v -4424.5135 1295.9825 274.8913
v -4432.2506 1312.6280 274.8825
v -4419.7739 1315.1894 274.8906
f 2473 2474 2475
v -4430.7409 1316.2459 274.8828
v -4430.3097 1316.3518 274.8831
v -4430.1609 1316.2654 274.8832
f 2476 2477 2478
v -4432.5330 1313.1968 274.8822
v -4432.2506 1312.6280 274.8825
v -4432.3934 1312.7104 274.8824
f 2479 2480 2481
v -4432.5330 1313.1968 274.8822
v -4430.7409 1316.2459 274.8828
v -4430.1609 1316.2654 274.8832
f 2482 2483 2484
v -4432.2506 1312.6280 274.8825
v -4432.5330 1313.1968 274.8822
v -4430.1609 1316.2654 274.8832
f 2485 2486 2487
v -4430.1609 1316.2654 274.8832
v -4419.7739 1315.1894 274.8906
v -4432.2506 1312.6280 274.8825
f 2488 2489 2490
v -4424.5135 1295.9825 274.8913
v -4424.6068 1295.8437 274.8913
v -4426.0237 1296.6575 274.8901
f 2491 2492 2493
v -4427.5433 1297.5306 274.8889
v -4426.0237 1296.6575 274.8901
v -4426.2607 1296.2541 274.8900
f 2494 2495 2496
v -4426.0237 1296.6575 274.8901
v -4427.5433 1297.5306 274.8889
v -4424.5135 1295.9825 274.8913
f 2497 2498 2499
v -4432.2506 1312.6280 274.8825
v -4429.4932 1298.6508 274.8873
v -4437.6046 1303.3096 274.8807
f 2500 2501 2502
v -4426.2607 1296.2541 274.8900
v -4427.7713 1297.1422 274.8888
v -4427.5433 1297.5306 274.8889
f 2503 2504 2505
v -4429.4932 1298.6508 274.8873
v -4432.2506 1312.6280 274.8825
v -4424.5135 1295.9825 274.8913
f 2506 2507 2508
v -4429.4932 1298.6508 274.8873
v -4424.5135 1295.9825 274.8913
v -4427.5433 1297.5306 274.8889
f 2509 2510 2511
v -4437.6172 1303.3138 293.3750
v -4437.6077 1303.3106 279.5045
v -4427.5471 1297.5318 280.4747
f 2512 2513 2514
v -4429.4932 1298.6508 274.8873
v -4427.5433 1297.5306 274.8889
v -4427.5471 1297.5318 280.4747
f 2515 2516 2517
v -4437.6046 1303.3096 274.8807
v -4429.4932 1298.6508 274.8873
v -4437.6077 1303.3106 279.5045
f 2518 2519 2520
v -4427.5471 1297.5318 280.4747
v -4437.6077 1303.3106 279.5045
v -4429.4932 1298.6508 274.8873
f 2521 2522 2523
v -4437.6172 1303.3138 293.3750
v -4427.5471 1297.5318 280.4747
v -4427.5585 1297.5357 297.2340
f 2524 2525 2526
v -4429.5103 1298.6565 299.9753
v -4437.6172 1303.3138 293.3750
v -4427.5585 1297.5357 297.2340
f 2527 2528 2529
v -4415.0598 1312.4791 293.3318
v -4428.0605 1319.9468 293.2462
v -4419.7910 1315.1952 299.9786
f 2530 2531 2532
v -4428.0543 1319.9447 284.0506
v -4428.0605 1319.9468 293.2462
v -4415.0535 1312.4769 284.1131
f 2533 2534 2535
v -4419.7739 1315.1894 274.8906
v -4428.0480 1319.9426 274.8839
v -4428.0543 1319.9447 284.0506
f 2536 2537 2538
v -4428.0543 1319.9447 284.0506
v -4415.0535 1312.4769 284.1131
v -4419.7739 1315.1894 274.8906
f 2539 2540 2541
v -4415.0472 1312.4748 274.8945
v -4419.7739 1315.1894 274.8906
v -4415.0535 1312.4769 284.1131
f 2542 2543 2544
v -4415.0598 1312.4791 293.3318
v -4415.0535 1312.4769 284.1131
v -4428.0605 1319.9468 293.2462
f 2545 2546 2547
v -4427.5471 1297.5318 280.4747
v -4427.5433 1297.5306 274.8889
v -4427.7865 1297.1473 297.2329
f 2548 2549 2550
v -4426.2745 1296.2588 295.0962
v -4427.7865 1297.1473 297.2329
v -4427.7713 1297.1422 274.8888
f 2551 2552 2553
v -4426.2607 1296.2541 274.8900
v -4426.0374 1296.6621 295.0963
v -4426.2745 1296.2588 295.0962
f 2554 2555 2556
v -4426.0237 1296.6575 274.8901
v -4424.6068 1295.8437 274.8913
v -4424.6192 1295.8478 293.1036
f 2557 2558 2559
v -4424.6192 1295.8478 293.1036
v -4424.5135 1295.9825 274.8913
v -4424.5258 1295.9866 293.0916
f 2560 2561 2562
v -4419.7888 1304.2398 293.2112
v -4415.0472 1312.4748 274.8945
v -4415.0535 1312.4769 284.1131
f 2563 2564 2565
v -4432.5454 1313.2009 292.9275
v -4432.3934 1312.7104 274.8824
v -4432.4059 1312.7146 293.1867
f 2566 2567 2568
v -4432.4059 1312.7146 293.1867
v -4432.2506 1312.6280 274.8825
v -4432.2632 1312.6323 293.3028
f 2569 2570 2571
v -4432.2506 1312.6280 274.8825
v -4432.4059 1312.7146 293.1867
v -4432.3934 1312.7104 274.8824
f 2572 2573 2574
v -4437.6077 1303.3106 279.5045
v -4432.2632 1312.6323 293.3028
v -4432.2506 1312.6280 274.8825
f 2575 2576 2577
v -4428.0543 1319.9447 284.0506
v -4430.1609 1316.2654 274.8832
v -4428.0605 1319.9468 293.2462
f 2578 2579 2580
v -4430.7532 1316.2501 292.9281
v -4430.3221 1316.3560 293.1534
v -4430.3097 1316.3518 274.8831
f 2581 2582 2583
v -4432.5454 1313.2009 292.9275
v -4430.7532 1316.2501 292.9281
v -4430.7409 1316.2459 274.8828
f 2584 2585 2586
