# Grid Center: 2611600, 1263400
# Global Anchor: 7.64977475454284, 47.53283995868075, 0.0

g building_ID_4B95D2B5-66E8-4D42-B1E9-7780251A7B8C
v -4105.1985 -1112.2621 323.1492
v -4097.4892 -1098.0208 323.1566
v -4097.7739 -1112.4259 323.1539
f 1 2 3
v -4105.1985 -1112.2621 323.1492
v -4105.0718 -1097.8814 323.1517
v -4101.4670 -1097.9471 323.1540
f 4 5 6
v -4101.4670 -1097.9471 323.1540
v -4097.4892 -1098.0208 323.1566
v -4105.1985 -1112.2621 323.1492
f 7 8 9
v -4097.6354 -1105.2243 329.2929
v -4101.4717 -1097.9482 330.6477
v -4101.5964 -1112.3428 330.6452
f 10 11 12
v -4097.6354 -1105.2243 329.2929
v -4097.4931 -1098.0217 329.2674
v -4101.4717 -1097.9482 330.6477
f 13 14 15
v -4097.7778 -1112.4269 329.3196
v -4097.6354 -1105.2243 329.2929
v -4101.5964 -1112.3428 330.6452
f 16 17 18
v -4101.5964 -1112.3428 330.6452
v -4101.4717 -1097.9482 330.6477
v -4105.2023 -1112.2629 329.2878
f 19 20 21
v -4105.2023 -1112.2629 329.2878
v -4101.4717 -1097.9482 330.6477
v -4105.0756 -1097.8823 329.2904
f 22 23 24
v -4097.4892 -1098.0208 323.1566
v -4097.4931 -1098.0217 329.2674
v -4097.6354 -1105.2243 329.2929
f 25 26 27
v -4097.7778 -1112.4269 329.3196
v -4097.7739 -1112.4259 323.1539
v -4097.6354 -1105.2243 329.2929
f 28 29 30
v -4097.7739 -1112.4259 323.1539
v -4097.4892 -1098.0208 323.1566
v -4097.6354 -1105.2243 329.2929
f 31 32 33
v -4105.2023 -1112.2629 329.2878
v -4105.1997 -1112.2603 325.0231
v -4105.1985 -1112.2621 323.1492
f 34 35 36
v -4105.1997 -1112.2603 325.0231
v -4105.2023 -1112.2629 329.2878
v -4105.2020 -1112.2608 328.7178
f 37 38 39
v -4105.2023 -1112.2629 329.2878
v -4105.0912 -1099.6792 328.7202
v -4105.2020 -1112.2608 328.7178
f 40 41 42
v -4105.1985 -1112.2621 323.1492
v -4105.1997 -1112.2603 325.0231
v -4105.1985 -1112.2601 323.1592
f 43 44 45
v -4105.0912 -1099.6792 328.7202
v -4105.2023 -1112.2629 329.2878
v -4105.0756 -1097.8823 329.2904
f 46 47 48
v -4105.0753 -1097.8822 328.7205
v -4105.0912 -1099.6792 328.7202
v -4105.0756 -1097.8823 329.2904
f 49 50 51
v -4105.1985 -1112.2621 323.1492
v -4105.1985 -1112.2601 323.1592
v -4105.0718 -1097.8814 323.1517
f 52 53 54
v -4105.0718 -1097.8814 323.1517
v -4105.1985 -1112.2601 323.1592
v -4105.0877 -1099.6784 323.1614
f 55 56 57
v -4105.0718 -1097.8814 323.1617
v -4105.0718 -1097.8814 323.1517
v -4105.0877 -1099.6784 323.1614
f 58 59 60
v -4111.1675 -1097.7900 323.1578
v -4111.1676 -1097.7900 323.2468
v -4109.6366 -1097.8031 323.2478
f 61 62 63
v -4108.9586 -1097.8089 323.1592
v -4111.1675 -1097.7900 323.1578
v -4109.6366 -1097.8031 323.2478
f 64 65 66
v -4109.6366 -1097.8031 323.2478
v -4108.9621 -1097.8098 328.7180
v -4108.9586 -1097.8089 323.1592
f 67 68 69
v -4109.6401 -1097.8010 328.7176
v -4108.9621 -1097.8098 328.7180
v -4109.6366 -1097.8031 323.2478
f 70 71 72
v -4111.2921 -1112.1276 323.1553
v -4111.2921 -1112.1276 323.2443
v -4111.1675 -1097.7900 323.1578
f 73 74 75
v -4108.9586 -1097.8089 323.1592
v -4111.2921 -1112.1276 323.1553
v -4111.1675 -1097.7900 323.1578
f 76 77 78
v -4108.9586 -1097.8089 323.1592
v -4105.1985 -1112.2601 323.1592
v -4111.2921 -1112.1276 323.1553
f 79 80 81
v -4108.9586 -1097.8089 323.1592
v -4105.0877 -1099.6784 323.1614
v -4105.1985 -1112.2601 323.1592
f 82 83 84
v -4108.9586 -1097.8089 323.1592
v -4105.0718 -1097.8814 323.1617
v -4105.0877 -1099.6784 323.1614
f 85 86 87
v -4109.7657 -1112.1615 328.7149
v -4108.9621 -1097.8098 328.7180
v -4109.6559 -1099.5959 328.7173
f 88 89 90
v -4109.6401 -1097.8010 328.7176
v -4109.6559 -1099.5959 328.7173
v -4108.9621 -1097.8098 328.7180
f 91 92 93
v -4105.2020 -1112.2608 328.7178
v -4105.0912 -1099.6792 328.7202
v -4109.7657 -1112.1615 328.7149
f 94 95 96
v -4105.0912 -1099.6792 328.7202
v -4108.9621 -1097.8098 328.7180
v -4109.7657 -1112.1615 328.7149
f 97 98 99
v -4108.9621 -1097.8098 328.7180
v -4105.0912 -1099.6792 328.7202
v -4105.0753 -1097.8822 328.7205
f 100 101 102
v -4109.7027 -1104.9749 329.2762
v -4113.3951 -1097.7282 330.6401
v -4113.5196 -1112.0797 330.6375
f 103 104 105
v -4109.7027 -1104.9749 329.2762
v -4109.6404 -1097.7971 329.2775
v -4113.3951 -1097.7282 330.6401
f 106 107 108
v -4109.7660 -1112.1616 329.2749
v -4109.7027 -1104.9749 329.2762
v -4113.5196 -1112.0797 330.6375
f 109 110 111
v -4113.5196 -1112.0797 330.6375
v -4113.3951 -1097.7282 330.6401
v -4117.1256 -1111.9999 329.2582
f 112 113 114
v -4117.1256 -1111.9999 329.2582
v -4113.3951 -1097.7282 330.6401
v -4116.8401 -1097.6647 329.3229
f 115 116 117
v -4116.8382 -1097.6643 326.2831
v -4117.1256 -1111.9999 329.2582
v -4116.8391 -1097.6644 327.8030
f 118 119 120
v -4116.8382 -1097.6643 326.2831
v -4116.8363 -1097.6638 323.2432
v -4117.1256 -1111.9999 329.2582
f 121 122 123
v -4117.1218 -1111.9990 323.2405
v -4117.1243 -1111.9995 327.1833
v -4116.8363 -1097.6638 323.2432
f 124 125 126
v -4113.3905 -1097.7270 323.2454
v -4117.1218 -1111.9990 323.2405
v -4116.8363 -1097.6638 323.2432
f 127 128 129
v -4109.6366 -1097.8031 323.2478
v -4111.1676 -1097.7900 323.2468
v -4113.3905 -1097.7270 323.2454
f 130 131 132
v -4111.1676 -1097.7900 323.2468
v -4111.2921 -1112.1276 323.2443
v -4113.3905 -1097.7270 323.2454
f 133 134 135
v -4117.1218 -1111.9990 323.2405
v -4113.3905 -1097.7270 323.2454
v -4113.5150 -1112.0787 323.2428
f 136 137 138
v -4113.3905 -1097.7270 323.2454
v -4111.2921 -1112.1276 323.2443
v -4113.5150 -1112.0787 323.2428
f 139 140 141
v -4109.7027 -1104.9749 329.2762
v -4109.6559 -1099.5959 328.7173
v -4109.6404 -1097.7971 329.2775
f 142 143 144
v -4109.7027 -1104.9749 329.2762
v -4109.7657 -1112.1615 328.7149
v -4109.6559 -1099.5959 328.7173
f 145 146 147
v -4109.7657 -1112.1615 328.7149
v -4109.7027 -1104.9749 329.2762
v -4109.7660 -1112.1616 329.2749
f 148 149 150
v -4109.6404 -1097.7971 329.2775
v -4109.6401 -1097.8010 328.7176
v -4109.6400 -1097.7970 328.7176
f 151 152 153
v -4109.6404 -1097.7971 329.2775
v -4109.6559 -1099.5959 328.7173
v -4109.6401 -1097.8010 328.7176
f 154 155 156
v -4105.1985 -1112.2621 323.1492
v -4101.5964 -1112.3428 330.6452
v -4105.2023 -1112.2629 329.2878
f 157 158 159
v -4101.5964 -1112.3428 330.6452
v -4105.1985 -1112.2621 323.1492
v -4097.7739 -1112.4259 323.1539
f 160 161 162
v -4097.7778 -1112.4269 329.3196
v -4101.5964 -1112.3428 330.6452
v -4097.7739 -1112.4259 323.1539
f 163 164 165
v -4101.4717 -1097.9482 330.6477
v -4105.0753 -1097.8822 328.7205
v -4105.0756 -1097.8823 329.2904
f 166 167 168
v -4108.9621 -1097.8098 328.7180
v -4105.0753 -1097.8822 328.7205
v -4105.0718 -1097.8814 323.1617
f 169 170 171
v -4105.0718 -1097.8814 323.1617
v -4101.4670 -1097.9471 323.1540
v -4105.0718 -1097.8814 323.1517
f 172 173 174
v -4101.4670 -1097.9471 323.1540
v -4105.0718 -1097.8814 323.1617
v -4105.0753 -1097.8822 328.7205
f 175 176 177
v -4097.4892 -1098.0208 323.1566
v -4101.4670 -1097.9471 323.1540
v -4097.4931 -1098.0217 329.2674
f 178 179 180
v -4101.4717 -1097.9482 330.6477
v -4097.4931 -1098.0217 329.2674
v -4101.4670 -1097.9471 323.1540
f 181 182 183
v -4105.0753 -1097.8822 328.7205
v -4101.4717 -1097.9482 330.6477
v -4101.4670 -1097.9471 323.1540
f 184 185 186
v -4109.6400 -1097.7970 328.7176
v -4116.8391 -1097.6644 327.8030
v -4116.8401 -1097.6647 329.3229
f 187 188 189
v -4109.6366 -1097.8031 323.2478
v -4116.8382 -1097.6643 326.2831
v -4116.8391 -1097.6644 327.8030
f 190 191 192
v -4116.8382 -1097.6643 326.2831
v -4113.3905 -1097.7270 323.2454
v -4116.8363 -1097.6638 323.2432
f 193 194 195
v -4109.6400 -1097.7970 328.7176
v -4116.8401 -1097.6647 329.3229
v -4113.3951 -1097.7282 330.6401
f 196 197 198
v -4116.8391 -1097.6644 327.8030
v -4109.6400 -1097.7970 328.7176
v -4109.6366 -1097.8031 323.2478
f 199 200 201
v -4109.6400 -1097.7970 328.7176
v -4113.3951 -1097.7282 330.6401
v -4109.6404 -1097.7971 329.2775
f 202 203 204
v -4116.8382 -1097.6643 326.2831
v -4109.6366 -1097.8031 323.2478
v -4113.3905 -1097.7270 323.2454
f 205 206 207
v -4113.5196 -1112.0797 330.6375
v -4109.7657 -1112.1615 328.7149
v -4109.7660 -1112.1616 329.2749
f 208 209 210
v -4109.7657 -1112.1615 328.7149
v -4105.1997 -1112.2603 325.0231
v -4105.2020 -1112.2608 328.7178
f 211 212 213
v -4105.1985 -1112.2601 323.1592
v -4105.1997 -1112.2603 325.0231
v -4111.2921 -1112.1276 323.1553
f 214 215 216
v -4117.1243 -1111.9995 327.1833
v -4113.5196 -1112.0797 330.6375
v -4117.1256 -1111.9999 329.2582
f 217 218 219
v -4109.7657 -1112.1615 328.7149
v -4113.5196 -1112.0797 330.6375
v -4117.1243 -1111.9995 327.1833
f 220 221 222
v -4105.1997 -1112.2603 325.0231
v -4111.2921 -1112.1276 323.2443
v -4111.2921 -1112.1276 323.1553
f 223 224 225
v -4113.5150 -1112.0787 323.2428
v -4111.2921 -1112.1276 323.2443
v -4109.7657 -1112.1615 328.7149
f 226 227 228
v -4117.1243 -1111.9995 327.1833
v -4113.5150 -1112.0787 323.2428
v -4109.7657 -1112.1615 328.7149
f 229 230 231
v -4113.5150 -1112.0787 323.2428
v -4117.1243 -1111.9995 327.1833
v -4117.1218 -1111.9990 323.2405
f 232 233 234
v -4109.7657 -1112.1615 328.7149
v -4111.2921 -1112.1276 323.2443
v -4105.1997 -1112.2603 325.0231
f 235 236 237
v -4111.2921 -1112.1276 323.2443
v -4111.1676 -1097.7900 323.2468
v -4111.1675 -1097.7900 323.1578
f 238 239 240
v -4117.1256 -1111.9999 329.2582
v -4116.8401 -1097.6647 329.3229
v -4116.8391 -1097.6644 327.8030
f 241 242 243
v -4116.8363 -1097.6638 323.2432
v -4117.1243 -1111.9995 327.1833
v -4117.1256 -1111.9999 329.2582
f 244 245 246
v -4108.9621 -1097.8098 328.7180
v -4105.0718 -1097.8814 323.1617
v -4108.9586 -1097.8089 323.1592
f 247 248 249
v -4109.6401 -1097.8010 328.7176
v -4109.6366 -1097.8031 323.2478
v -4109.6400 -1097.7970 328.7176
f 250 251 252
