# Grid Center: 2612600, 1266200
# Global Anchor: 7.64977475454284, 47.53283995868075, 0.0

g building_ID_E93528CD-3CF8-4760-B455-0570A1D9152A
v -3138.0028 1312.2401 283.1566
v -3139.6024 1306.0750 285.4819
v -3134.1027 1309.2997 283.1591
f 1 2 3
v -3137.9986 1312.2381 274.3909
v -3138.0028 1312.2401 283.1566
v -3134.1027 1309.2997 283.1591
f 4 5 6
v -3145.4459 1308.4617 285.4776
v -3146.1828 1316.6580 283.1516
v -3153.4757 1306.9917 283.1500
f 7 8 9
v -3153.4733 1306.9906 278.3392
v -3153.4757 1306.9917 283.1500
v -3153.0438 1307.5595 278.3393
f 10 11 12
v -3146.1828 1316.6580 283.1516
v -3153.0438 1307.5595 278.3393
v -3153.4757 1306.9917 283.1500
f 13 14 15
v -3153.0420 1307.5585 274.3844
v -3153.0438 1307.5595 278.3393
v -3146.1786 1316.6560 274.3859
f 16 17 18
v -3146.1828 1316.6580 283.1516
v -3146.1786 1316.6560 274.3859
v -3153.0438 1307.5595 278.3393
f 19 20 21
v -3139.6024 1306.0750 285.4819
v -3139.7705 1307.7332 284.4005
v -3140.5739 1304.7877 285.4807
f 22 23 24
v -3145.4459 1308.4617 285.4776
v -3153.4757 1306.9917 283.1500
v -3150.4987 1304.7467 283.1519
f 25 26 27
v -3150.4987 1304.7467 283.1519
v -3142.9690 1306.5941 285.4792
v -3145.4459 1308.4617 285.4776
f 28 29 30
v -3135.9643 1301.3103 285.4837
v -3135.1700 1293.1848 283.1618
v -3127.8791 1302.8531 283.1634
f 31 32 33
v -3134.7363 1293.7526 274.3962
v -3127.8750 1302.8511 274.3977
v -3134.7382 1293.7535 278.3511
f 34 35 36
v -3127.8791 1302.8531 283.1634
v -3134.7382 1293.7535 278.3511
v -3127.8750 1302.8511 274.3977
f 37 38 39
v -3135.1677 1293.1837 278.3510
v -3134.7382 1293.7535 278.3511
v -3135.1700 1293.1848 283.1618
f 40 41 42
v -3127.8791 1302.8531 283.1634
v -3135.1700 1293.1848 283.1618
v -3134.7382 1293.7535 278.3511
f 43 44 45
v -3133.7821 1307.3048 283.1596
v -3134.1027 1309.2997 283.1591
v -3139.6024 1306.0750 285.4819
f 46 47 48
v -3134.0986 1309.2977 274.3934
v -3134.1027 1309.2997 283.1591
v -3133.7779 1307.3028 274.3939
f 49 50 51
v -3127.8750 1302.8511 274.3977
v -3130.9496 1305.1703 274.3958
v -3127.8791 1302.8531 283.1634
f 52 53 54
v -3137.8109 1306.4540 284.3407
v -3133.7821 1307.3048 283.1596
v -3139.6024 1306.0750 285.4819
f 55 56 57
v -3146.8287 1301.4755 285.4783
v -3142.3498 1302.7697 286.4753
v -3142.9690 1306.5941 285.4792
f 58 59 60
v -3142.3498 1302.7697 286.4753
v -3146.8287 1301.4755 285.4783
v -3142.9830 1301.9303 286.4751
f 61 62 63
v -3132.8440 1292.3254 278.3524
v -3133.7735 1291.0901 274.3972
v -3132.8421 1292.3245 274.3975
f 64 65 66
v -3137.1771 1286.5721 269.2867
v -3133.7735 1291.0901 274.3972
v -3137.1814 1286.5742 278.3513
f 67 68 69
v -3132.8440 1292.3254 278.3524
v -3137.1814 1286.5742 278.3513
v -3133.7735 1291.0901 274.3972
f 70 71 72
v -3133.7710 1291.0889 269.2874
v -3133.7735 1291.0901 274.3972
v -3137.1771 1286.5721 269.2867
f 73 74 75
v -3142.3498 1302.7697 286.4753
v -3138.5420 1303.2542 285.4820
v -3140.5739 1304.7877 285.4807
f 76 77 78
v -3140.5739 1304.7877 285.4807
v -3142.9690 1306.5941 285.4792
v -3142.3498 1302.7697 286.4753
f 79 80 81
v -3135.1677 1293.1837 278.3510
v -3135.1700 1293.1848 283.1618
v -3138.2457 1295.5050 283.1599
f 82 83 84
v -3150.4964 1304.7456 278.3411
v -3150.4987 1304.7467 283.1519
v -3153.4757 1306.9917 283.1500
f 85 86 87
v -3138.2457 1295.5050 283.1599
v -3135.9643 1301.3103 285.4837
v -3138.5420 1303.2542 285.4820
f 88 89 90
v -3135.9643 1301.3103 285.4837
v -3138.2457 1295.5050 283.1599
v -3135.1700 1293.1848 283.1618
f 91 92 93
v -3138.7399 1294.8372 269.2842
v -3133.7710 1291.0889 269.2874
v -3137.1771 1286.5721 269.2867
f 94 95 96
v -3137.1771 1286.5721 269.2867
v -3142.1289 1290.3443 269.2835
v -3138.7399 1294.8372 269.2842
f 97 98 99
v -3154.5538 1308.6985 278.3383
v -3158.8438 1303.0741 278.3374
v -3153.4733 1306.9906 278.3392
f 100 101 102
v -3154.3431 1299.6460 278.3403
v -3153.4733 1306.9906 278.3392
v -3158.8438 1303.0741 278.3374
f 103 104 105
v -3153.0438 1307.5595 278.3393
v -3154.5538 1308.6985 278.3383
v -3153.4733 1306.9906 278.3392
f 106 107 108
v -3154.3431 1299.6460 278.3403
v -3150.4964 1304.7456 278.3411
v -3153.4733 1306.9906 278.3392
f 109 110 111
v -3154.5518 1308.6976 274.3834
v -3154.5538 1308.6985 278.3383
v -3153.0438 1307.5595 278.3393
f 112 113 114
v -3134.7363 1293.7526 274.3962
v -3134.7382 1293.7535 278.3511
v -3132.8440 1292.3254 278.3524
f 115 116 117
v -3139.6024 1306.0750 285.4819
v -3140.5739 1304.7877 285.4807
v -3137.8109 1306.4540 284.3407
f 118 119 120
v -3138.7398 1294.8372 269.0802
v -3154.3376 1299.6449 269.0716
v -3150.9937 1304.0789 269.0723
f 121 122 123
v -3138.7398 1294.8372 269.0802
v -3142.1268 1290.3473 269.0795
v -3154.3376 1299.6449 269.0716
f 124 125 126
v -3142.4017 1298.1356 285.4812
v -3146.8287 1301.4755 285.4783
v -3154.2716 1299.5919 283.1951
f 127 128 129
v -3154.2716 1299.5919 283.1951
v -3142.1624 1290.3725 283.1770
v -3142.4017 1298.1356 285.4812
f 130 131 132
v -3137.6459 1313.0288 268.9021
v -3132.1213 1309.1771 268.9056
v -3130.5390 1295.1221 268.9092
f 133 134 135
v -3130.5390 1295.1221 268.9092
v -3132.1213 1309.1771 268.9056
v -3124.3561 1303.3203 268.9106
f 136 137 138
v -3136.4616 1314.5987 268.9023
v -3131.0876 1310.5453 268.9058
v -3132.1213 1309.1771 268.9056
f 139 140 141
v -3154.5060 1308.7522 268.8946
v -3130.5390 1295.1221 268.9092
v -3133.6880 1291.0265 268.9085
f 142 143 144
v -3130.5390 1295.1221 268.9092
v -3154.5060 1308.7522 268.8946
v -3137.6459 1313.0288 268.9021
f 145 146 147
v -3132.1213 1309.1771 268.9056
v -3137.6459 1313.0288 268.9021
v -3136.4616 1314.5987 268.9023
f 148 149 150
v -3154.5060 1308.7522 268.8946
v -3146.0859 1319.6624 268.8965
v -3137.6459 1313.0288 268.9021
f 151 152 153
v -3155.4865 1307.4679 268.8944
v -3154.5060 1308.7522 268.8946
v -3133.6880 1291.0265 268.9085
f 154 155 156
v -3130.5390 1295.1221 268.9092
v -3130.5416 1295.1233 274.3980
v -3133.6906 1291.0279 274.3973
f 157 158 159
v -3124.3561 1303.3203 268.9106
v -3124.3587 1303.3216 274.3994
v -3130.5416 1295.1233 274.3980
f 160 161 162
v -3132.1213 1309.1771 268.9056
v -3132.1239 1309.1784 274.3944
v -3124.3587 1303.3216 274.3994
f 163 164 165
v -3131.0876 1310.5453 268.9058
v -3131.0903 1310.5466 274.3946
v -3132.1239 1309.1784 274.3944
f 166 167 168
v -3136.4616 1314.5987 268.9023
v -3136.4643 1314.6000 274.3911
v -3131.0903 1310.5466 274.3946
f 169 170 171
v -3137.6459 1313.0288 268.9021
v -3137.6485 1313.0302 274.3909
v -3136.4643 1314.6000 274.3911
f 172 173 174
v -3146.0859 1319.6624 268.8965
v -3146.0885 1319.6638 274.3853
v -3137.6485 1313.0302 274.3909
f 175 176 177
v -3140.2190 1312.1591 283.1555
v -3139.6024 1306.0750 285.4819
v -3138.0028 1312.2401 283.1566
f 178 179 180
v -3140.2147 1312.1571 274.3898
v -3140.2190 1312.1591 283.1555
v -3137.9986 1312.2381 274.3909
f 181 182 183
v -3142.9830 1301.9303 286.4751
v -3146.8287 1301.4755 285.4783
v -3142.4017 1298.1356 285.4812
f 184 185 186
v -3142.3498 1302.7697 286.4753
v -3142.9830 1301.9303 286.4751
v -3142.4017 1298.1356 285.4812
f 187 188 189
v -3142.4017 1298.1356 285.4812
v -3138.5420 1303.2542 285.4820
v -3142.3498 1302.7697 286.4753
f 190 191 192
v -3142.9690 1306.5941 285.4792
v -3140.5739 1304.7877 285.4807
v -3139.7705 1307.7332 284.4005
f 193 194 195
v -3145.4459 1308.4617 285.4776
v -3142.9690 1306.5941 285.4792
v -3139.7705 1307.7332 284.4005
f 196 197 198
v -3139.7705 1307.7332 284.4005
v -3143.2078 1314.4140 283.1535
v -3145.4459 1308.4617 285.4776
f 199 200 201
v -3143.2078 1314.4140 283.1535
v -3146.1828 1316.6580 283.1516
v -3145.4459 1308.4617 285.4776
f 202 203 204
v -3140.2190 1312.1591 283.1555
v -3143.2078 1314.4140 283.1535
v -3139.7705 1307.7332 284.4005
f 205 206 207
v -3146.1786 1316.6560 274.3859
v -3146.1828 1316.6580 283.1516
v -3143.2037 1314.4120 274.3878
f 208 209 210
v -3140.2190 1312.1591 283.1555
v -3140.2147 1312.1571 274.3898
v -3143.2078 1314.4140 283.1535
f 211 212 213
v -3155.4866 1307.4680 269.2734
v -3158.8394 1303.0720 269.2727
v -3158.8438 1303.0741 278.3374
f 214 215 216
v -3155.4866 1307.4680 269.2734
v -3154.5538 1308.6985 278.3383
v -3154.5518 1308.6976 274.3834
f 217 218 219
v -3155.4866 1307.4680 269.2734
v -3154.5518 1308.6976 274.3834
v -3154.5494 1308.6964 269.2736
f 220 221 222
v -3155.4866 1307.4680 269.2734
v -3150.9938 1304.0789 269.2763
v -3154.3387 1299.6440 269.2756
f 223 224 225
v -3154.3387 1299.6440 269.2756
v -3158.8394 1303.0720 269.2727
v -3155.4866 1307.4680 269.2734
f 226 227 228
v -3142.1332 1290.3464 278.3481
v -3135.1677 1293.1837 278.3510
v -3138.2434 1295.5039 278.3491
f 229 230 231
v -3132.8440 1292.3254 278.3524
v -3135.1677 1293.1837 278.3510
v -3137.1814 1286.5742 278.3513
f 232 233 234
v -3142.1332 1290.3464 278.3481
v -3137.1814 1286.5742 278.3513
v -3135.1677 1293.1837 278.3510
f 235 236 237
v -3134.7382 1293.7535 278.3511
v -3135.1677 1293.1837 278.3510
v -3132.8440 1292.3254 278.3524
f 238 239 240
v -3138.2457 1295.5050 283.1599
v -3142.1624 1290.3725 283.1770
v -3142.1335 1290.3505 283.1590
f 241 242 243
v -3138.5420 1303.2542 285.4820
v -3142.4017 1298.1356 285.4812
v -3138.2457 1295.5050 283.1599
f 244 245 246
v -3142.1624 1290.3725 283.1770
v -3138.2457 1295.5050 283.1599
v -3142.4017 1298.1356 285.4812
f 247 248 249
v -3146.8287 1301.4755 285.4783
v -3142.9690 1306.5941 285.4792
v -3150.4987 1304.7467 283.1519
f 250 251 252
v -3146.8287 1301.4755 285.4783
v -3150.4987 1304.7467 283.1519
v -3154.2716 1299.5919 283.1951
f 253 254 255
v -3154.3444 1299.6481 283.1511
v -3154.2716 1299.5919 283.1951
v -3150.4987 1304.7467 283.1519
f 256 257 258
v -3138.7398 1294.8372 269.0802
v -3138.7399 1294.8372 269.2842
v -3142.1268 1290.3473 269.0795
f 259 260 261
v -3138.2434 1295.5039 278.3491
v -3138.2457 1295.5050 283.1599
v -3142.1335 1290.3505 283.1590
f 262 263 264
v -3154.3431 1299.6460 278.3403
v -3154.3444 1299.6481 283.1511
v -3150.4964 1304.7456 278.3411
f 265 266 267
v -3154.3376 1299.6449 269.0716
v -3154.3387 1299.6440 269.2756
v -3150.9938 1304.0789 269.2763
f 268 269 270
v -3146.0885 1319.6638 274.3853
v -3146.1786 1316.6560 274.3859
v -3143.2037 1314.4120 274.3878
f 271 272 273
v -3154.5518 1308.6976 274.3834
v -3153.0420 1307.5585 274.3844
v -3146.1786 1316.6560 274.3859
f 274 275 276
v -3146.0885 1319.6638 274.3853
v -3154.5518 1308.6976 274.3834
v -3146.1786 1316.6560 274.3859
f 277 278 279
v -3146.0885 1319.6638 274.3853
v -3143.2037 1314.4120 274.3878
v -3137.6485 1313.0302 274.3909
f 280 281 282
v -3137.6485 1313.0302 274.3909
v -3143.2037 1314.4120 274.3878
v -3140.2147 1312.1571 274.3898
f 283 284 285
v -3137.9986 1312.2381 274.3909
v -3137.6485 1313.0302 274.3909
v -3140.2147 1312.1571 274.3898
f 286 287 288
v -3136.4643 1314.6000 274.3911
v -3137.6485 1313.0302 274.3909
v -3134.0986 1309.2977 274.3934
f 289 290 291
v -3137.9986 1312.2381 274.3909
v -3134.0986 1309.2977 274.3934
v -3137.6485 1313.0302 274.3909
f 292 293 294
v -3131.0903 1310.5466 274.3946
v -3136.4643 1314.6000 274.3911
v -3134.0986 1309.2977 274.3934
f 295 296 297
v -3130.5416 1295.1233 274.3980
v -3134.7363 1293.7526 274.3962
v -3132.8421 1292.3245 274.3975
f 298 299 300
v -3132.8421 1292.3245 274.3975
v -3133.6906 1291.0279 274.3973
v -3130.5416 1295.1233 274.3980
f 301 302 303
v -3133.7735 1291.0901 274.3972
v -3133.6906 1291.0279 274.3973
v -3132.8421 1292.3245 274.3975
f 304 305 306
v -3134.7363 1293.7526 274.3962
v -3130.5416 1295.1233 274.3980
v -3127.8750 1302.8511 274.3977
f 307 308 309
v -3134.0986 1309.2977 274.3934
v -3132.1239 1309.1784 274.3944
v -3131.0903 1310.5466 274.3946
f 310 311 312
v -3130.9496 1305.1703 274.3958
v -3132.1239 1309.1784 274.3944
v -3133.7779 1307.3028 274.3939
f 313 314 315
v -3124.3587 1303.3216 274.3994
v -3132.1239 1309.1784 274.3944
v -3130.9496 1305.1703 274.3958
f 316 317 318
v -3133.7779 1307.3028 274.3939
v -3132.1239 1309.1784 274.3944
v -3134.0986 1309.2977 274.3934
f 319 320 321
v -3124.3587 1303.3216 274.3994
v -3130.9496 1305.1703 274.3958
v -3127.8750 1302.8511 274.3977
f 322 323 324
v -3130.5416 1295.1233 274.3980
v -3124.3587 1303.3216 274.3994
v -3127.8750 1302.8511 274.3977
f 325 326 327
v -3133.7710 1291.0889 269.2874
v -3133.6906 1291.0279 274.3973
v -3133.7735 1291.0901 274.3972
f 328 329 330
v -3133.7710 1291.0889 269.2874
v -3138.7398 1294.8372 269.0802
v -3133.6880 1291.0265 268.9085
f 331 332 333
v -3133.6906 1291.0279 274.3973
v -3133.7710 1291.0889 269.2874
v -3133.6880 1291.0265 268.9085
f 334 335 336
v -3138.7399 1294.8372 269.2842
v -3138.7398 1294.8372 269.0802
v -3133.7710 1291.0889 269.2874
f 337 338 339
v -3150.9937 1304.0789 269.0723
v -3150.9938 1304.0789 269.2763
v -3155.4866 1307.4680 269.2734
f 340 341 342
v -3155.4865 1307.4679 268.8944
v -3138.7398 1294.8372 269.0802
v -3150.9937 1304.0789 269.0723
f 343 344 345
v -3155.4866 1307.4680 269.2734
v -3155.4865 1307.4679 268.8944
v -3150.9937 1304.0789 269.0723
f 346 347 348
v -3133.6880 1291.0265 268.9085
v -3138.7398 1294.8372 269.0802
v -3155.4865 1307.4679 268.8944
f 349 350 351
v -3139.7705 1307.7332 284.4005
v -3139.6024 1306.0750 285.4819
v -3140.2190 1312.1591 283.1555
f 352 353 354
v -3135.9643 1301.3103 285.4837
v -3127.8791 1302.8531 283.1634
v -3133.7821 1307.3048 283.1596
f 355 356 357
v -3135.9643 1301.3103 285.4837
v -3137.8109 1306.4540 284.3407
v -3138.5420 1303.2542 285.4820
f 358 359 360
v -3137.8109 1306.4540 284.3407
v -3140.5739 1304.7877 285.4807
v -3138.5420 1303.2542 285.4820
f 361 362 363
v -3133.7821 1307.3048 283.1596
v -3137.8109 1306.4540 284.3407
v -3135.9643 1301.3103 285.4837
f 364 365 366
v -3154.5060 1308.7522 268.8946
v -3155.4865 1307.4679 268.8944
v -3154.5494 1308.6964 269.2736
f 367 368 369
v -3146.0885 1319.6638 274.3853
v -3146.0859 1319.6624 268.8965
v -3154.5494 1308.6964 269.2736
f 370 371 372
v -3146.0859 1319.6624 268.8965
v -3154.5060 1308.7522 268.8946
v -3154.5494 1308.6964 269.2736
f 373 374 375
v -3154.5518 1308.6976 274.3834
v -3146.0885 1319.6638 274.3853
v -3154.5494 1308.6964 269.2736
f 376 377 378
v -3142.1335 1290.3505 283.1590
v -3142.1624 1290.3725 283.1770
v -3142.1332 1290.3464 278.3481
f 379 380 381
v -3142.1332 1290.3464 278.3481
v -3154.3376 1299.6449 269.0716
v -3142.1289 1290.3443 269.2835
f 382 383 384
v -3142.1289 1290.3443 269.2835
v -3137.1814 1286.5742 278.3513
v -3142.1332 1290.3464 278.3481
f 385 386 387
v -3137.1814 1286.5742 278.3513
v -3142.1289 1290.3443 269.2835
v -3137.1771 1286.5721 269.2867
f 388 389 390
v -3154.3376 1299.6449 269.0716
v -3142.1268 1290.3473 269.0795
v -3142.1289 1290.3443 269.2835
f 391 392 393
v -3154.3431 1299.6460 278.3403
v -3142.1332 1290.3464 278.3481
v -3142.1624 1290.3725 283.1770
f 394 395 396
v -3154.3431 1299.6460 278.3403
v -3154.2716 1299.5919 283.1951
v -3154.3444 1299.6481 283.1511
f 397 398 399
v -3158.8394 1303.0720 269.2727
v -3154.3431 1299.6460 278.3403
v -3158.8438 1303.0741 278.3374
f 400 401 402
v -3154.3431 1299.6460 278.3403
v -3154.3387 1299.6440 269.2756
v -3142.1332 1290.3464 278.3481
f 403 404 405
v -3154.3387 1299.6440 269.2756
v -3154.3376 1299.6449 269.0716
v -3142.1332 1290.3464 278.3481
f 406 407 408
v -3158.8394 1303.0720 269.2727
v -3154.3387 1299.6440 269.2756
v -3154.3431 1299.6460 278.3403
f 409 410 411
v -3154.2716 1299.5919 283.1951
v -3154.3431 1299.6460 278.3403
v -3142.1624 1290.3725 283.1770
f 412 413 414
v -3137.9986 1312.2381 274.3909
v -3134.1027 1309.2997 283.1591
v -3134.0986 1309.2977 274.3934
f 415 416 417
v -3134.1027 1309.2997 283.1591
v -3133.7821 1307.3048 283.1596
v -3133.7779 1307.3028 274.3939
f 418 419 420
v -3133.7821 1307.3048 283.1596
v -3130.9496 1305.1703 274.3958
v -3133.7779 1307.3028 274.3939
f 421 422 423
v -3130.9496 1305.1703 274.3958
v -3133.7821 1307.3048 283.1596
v -3127.8791 1302.8531 283.1634
f 424 425 426
v -3135.1677 1293.1837 278.3510
v -3138.2457 1295.5050 283.1599
v -3138.2434 1295.5039 278.3491
f 427 428 429
v -3150.4964 1304.7456 278.3411
v -3153.4757 1306.9917 283.1500
v -3153.4733 1306.9906 278.3392
f 430 431 432
v -3154.5518 1308.6976 274.3834
v -3153.0438 1307.5595 278.3393
v -3153.0420 1307.5585 274.3844
f 433 434 435
v -3134.7363 1293.7526 274.3962
v -3132.8440 1292.3254 278.3524
v -3132.8421 1292.3245 274.3975
f 436 437 438
v -3130.5390 1295.1221 268.9092
v -3133.6906 1291.0279 274.3973
v -3133.6880 1291.0265 268.9085
f 439 440 441
v -3124.3561 1303.3203 268.9106
v -3130.5416 1295.1233 274.3980
v -3130.5390 1295.1221 268.9092
f 442 443 444
v -3132.1213 1309.1771 268.9056
v -3124.3587 1303.3216 274.3994
v -3124.3561 1303.3203 268.9106
f 445 446 447
v -3131.0876 1310.5453 268.9058
v -3132.1239 1309.1784 274.3944
v -3132.1213 1309.1771 268.9056
f 448 449 450
v -3136.4616 1314.5987 268.9023
v -3131.0903 1310.5466 274.3946
v -3131.0876 1310.5453 268.9058
f 451 452 453
v -3137.6459 1313.0288 268.9021
v -3136.4643 1314.6000 274.3911
v -3136.4616 1314.5987 268.9023
f 454 455 456
v -3146.0859 1319.6624 268.8965
v -3137.6485 1313.0302 274.3909
v -3137.6459 1313.0288 268.9021
f 457 458 459
v -3140.2190 1312.1591 283.1555
v -3138.0028 1312.2401 283.1566
v -3137.9986 1312.2381 274.3909
f 460 461 462
v -3146.1828 1316.6580 283.1516
v -3143.2078 1314.4140 283.1535
v -3143.2037 1314.4120 274.3878
f 463 464 465
v -3140.2147 1312.1571 274.3898
v -3143.2037 1314.4120 274.3878
v -3143.2078 1314.4140 283.1535
f 466 467 468
v -3155.4866 1307.4680 269.2734
v -3158.8438 1303.0741 278.3374
v -3154.5538 1308.6985 278.3383
f 469 470 471
v -3138.7399 1294.8372 269.2842
v -3142.1289 1290.3443 269.2835
v -3142.1268 1290.3473 269.0795
f 472 473 474
v -3138.2434 1295.5039 278.3491
v -3142.1335 1290.3505 283.1590
v -3142.1332 1290.3464 278.3481
f 475 476 477
v -3154.3444 1299.6481 283.1511
v -3150.4987 1304.7467 283.1519
v -3150.4964 1304.7456 278.3411
f 478 479 480
v -3154.3376 1299.6449 269.0716
v -3150.9938 1304.0789 269.2763
v -3150.9937 1304.0789 269.0723
f 481 482 483
v -3155.4865 1307.4679 268.8944
v -3155.4866 1307.4680 269.2734
v -3154.5494 1308.6964 269.2736
f 484 485 486
