# Grid Center: 2612800, 1266200
# Global Anchor: 7.64977475454284, 47.53283995868075, 0.0

g building_ID_A3CE6CC4-7913-4331-999A-0E77AA3616BA
v -2923.9732 1325.4032 292.1931
v -2924.9378 1321.4338 292.1935
v -2922.0287 1323.4636 290.4255
f 1 2 3
v -2921.3211 1324.7576 290.1376
v -2923.9732 1325.4032 292.1931
v -2922.0287 1323.4636 290.4255
f 4 5 6
v -2921.6578 1323.3735 290.1377
v -2921.3211 1324.7576 290.1376
v -2922.0287 1323.4636 290.4255
f 7 8 9
v -2926.9454 1324.6577 290.4230
v -2923.9732 1325.4032 292.1931
v -2927.1142 1326.1671 290.0837
f 10 11 12
v -2926.9454 1324.6577 290.4230
v -2927.1142 1326.1671 290.0837
v -2927.4509 1324.7810 290.0838
f 13 14 15
v -2923.9732 1325.4032 292.1931
v -2926.9454 1324.6577 290.4230
v -2924.9378 1321.4338 292.1935
f 16 17 18
v -2921.3199 1324.7569 287.3387
v -2921.3211 1324.7576 290.1376
v -2921.6578 1323.3735 290.1377
f 19 20 21
v -2921.3199 1324.7569 287.3387
v -2921.6578 1323.3735 290.1377
v -2921.6569 1323.3731 288.1357
f 22 23 24
v -2927.4500 1324.7806 288.1328
v -2927.4509 1324.7810 290.0838
v -2927.1142 1326.1671 290.0837
f 25 26 27
v -2927.1130 1326.1665 287.3348
v -2927.4500 1324.7806 288.1328
v -2927.1142 1326.1671 290.0837
f 28 29 30
v -2932.4206 1327.9708 270.6485
v -2914.9842 1323.7270 270.6574
v -2921.0500 1298.8158 270.6598
f 31 32 33
v -2923.5896 1285.9388 270.6612
v -2921.0500 1298.8158 270.6598
v -2920.4774 1298.6752 270.6600
f 34 35 36
v -2921.0500 1298.8158 270.6598
v -2938.4690 1303.2195 270.6509
v -2932.4206 1327.9708 270.6485
f 37 38 39
v -2921.0500 1298.8158 270.6598
v -2923.5896 1285.9388 270.6612
v -2924.1722 1286.0813 270.6609
f 40 41 42
v -2921.0500 1298.8158 270.6598
v -2924.1722 1286.0813 270.6609
v -2940.6360 1270.0617 270.6565
f 43 44 45
v -2940.6360 1270.0617 270.6565
v -2938.4690 1303.2195 270.6509
v -2921.0500 1298.8158 270.6598
f 46 47 48
v -2942.9821 1290.5097 270.6514
v -2939.8100 1303.5670 270.6502
v -2938.4690 1303.2195 270.6509
f 49 50 51
v -2938.4690 1303.2195 270.6509
v -2941.6399 1290.2002 270.6521
v -2942.9821 1290.5097 270.6514
f 52 53 54
v -2940.6360 1270.0617 270.6565
v -2941.6399 1290.2002 270.6521
v -2938.4690 1303.2195 270.6509
f 55 56 57
v -2934.7039 1268.6209 270.6595
v -2926.6991 1275.6902 270.6617
v -2930.2361 1261.1439 270.6630
f 58 59 60
v -2924.1722 1286.0813 270.6609
v -2934.7039 1268.6209 270.6595
v -2940.6360 1270.0617 270.6565
f 61 62 63
v -2936.0458 1263.0905 270.6600
v -2934.7039 1268.6209 270.6595
v -2930.2361 1261.1439 270.6630
f 64 65 66
v -2941.9747 1264.5515 270.6570
v -2936.0458 1263.0905 270.6600
v -2947.7063 1265.4488 270.6541
f 67 68 69
v -2947.7063 1265.4488 270.6541
v -2936.0458 1263.0905 270.6600
v -2930.2361 1261.1439 270.6630
f 70 71 72
v -2947.7063 1265.4488 270.6541
v -2940.6360 1270.0617 270.6565
v -2941.9747 1264.5515 270.6570
f 73 74 75
v -2940.6360 1270.0617 270.6565
v -2947.7063 1265.4488 270.6541
v -2941.6399 1290.2002 270.6521
f 76 77 78
v -2934.7039 1268.6209 270.6595
v -2924.1722 1286.0813 270.6609
v -2926.6991 1275.6902 270.6617
f 79 80 81
v -2947.6782 1265.5974 287.0295
v -2947.7136 1265.4524 286.9455
v -2943.3465 1264.3767 286.9398
f 82 83 84
v -2945.2216 1267.1800 288.2153
v -2947.6782 1265.5974 287.0295
v -2945.2266 1267.1600 288.2033
f 85 86 87
v -2947.6782 1265.5974 287.0295
v -2941.9822 1264.5552 287.2173
v -2945.2266 1267.1600 288.2033
f 88 89 90
v -2941.9822 1264.5552 287.2173
v -2947.6782 1265.5974 287.0295
v -2943.3465 1264.3767 286.9398
f 91 92 93
v -2941.9822 1264.5552 287.2173
v -2937.1347 1262.8461 286.9309
v -2939.1811 1263.8646 287.2138
f 94 95 96
v -2937.1347 1262.8461 286.9309
v -2941.9822 1264.5552 287.2173
v -2943.3465 1264.3767 286.9398
f 97 98 99
v -2941.5660 1266.2712 288.2052
v -2945.2266 1267.1600 288.2033
v -2941.9822 1264.5552 287.2173
f 100 101 102
v -2937.1347 1262.8461 286.9309
v -2936.0532 1263.0942 287.2094
v -2939.1811 1263.8646 287.2138
f 103 104 105
v -2936.0532 1263.0942 287.2094
v -2937.1347 1262.8461 286.9309
v -2930.2434 1261.1476 286.9224
f 106 107 108
v -2936.0532 1263.0942 287.2094
v -2930.2434 1261.1476 286.9224
v -2935.6329 1264.8303 288.2092
f 109 110 111
v -2930.2434 1261.1476 286.9224
v -2932.1313 1263.9799 288.2110
v -2935.6329 1264.8303 288.2092
f 112 113 114
v -2930.2434 1261.1476 286.9224
v -2932.0536 1264.2987 288.3940
v -2932.1313 1263.9799 288.2110
f 115 116 117
v -2932.0536 1264.2987 288.3940
v -2930.2434 1261.1476 286.9224
v -2928.7559 1267.2625 286.9219
f 118 119 120
v -2926.6891 1275.7658 286.9201
v -2932.0536 1264.2987 288.3940
v -2928.7559 1267.2625 286.9219
f 121 122 123
v -2932.0536 1264.2987 288.3940
v -2926.6891 1275.7658 286.9201
v -2924.1794 1286.0850 286.9182
f 124 125 126
v -2924.1794 1286.0850 286.9182
v -2915.2784 1323.8006 287.0637
v -2932.0536 1264.2987 288.3940
f 127 128 129
v -2920.4845 1298.6789 286.5534
v -2924.1794 1286.0850 286.9182
v -2923.5967 1285.9423 286.5656
f 130 131 132
v -2920.4845 1298.6789 286.5534
v -2921.0573 1298.8194 286.9002
v -2924.1794 1286.0850 286.9182
f 133 134 135
v -2915.2784 1323.8006 287.0637
v -2918.0287 1322.0284 288.3897
v -2932.0536 1264.2987 288.3940
f 136 137 138
v -2914.9914 1323.7308 286.8898
v -2915.2784 1323.8006 287.0637
v -2921.0573 1298.8194 286.9002
f 139 140 141
v -2921.0573 1298.8194 286.9002
v -2915.2784 1323.8006 287.0637
v -2924.1794 1286.0850 286.9182
f 142 143 144
v -2941.2401 1290.6418 287.2295
v -2947.6782 1265.5974 287.0295
v -2945.2216 1267.1800 288.2153
f 145 146 147
v -2941.6472 1290.2039 287.0574
v -2947.6782 1265.5974 287.0295
v -2941.2401 1290.6418 287.2295
f 148 149 150
v -2939.6177 1290.2477 288.2133
v -2941.2401 1290.6418 287.2295
v -2945.2216 1267.1800 288.2153
f 151 152 153
v -2942.8626 1291.0359 286.2457
v -2941.6472 1290.2039 287.0574
v -2941.2401 1290.6418 287.2295
f 154 155 156
v -2942.9890 1290.5133 286.2458
v -2941.6472 1290.2039 287.0574
v -2942.8626 1291.0359 286.2457
f 157 158 159
v -2930.2361 1261.1439 270.6630
v -2930.2434 1261.1476 286.9224
v -2937.1347 1262.8461 286.9309
f 160 161 162
v -2947.7063 1265.4488 270.6541
v -2930.2361 1261.1439 270.6630
v -2937.1347 1262.8461 286.9309
f 163 164 165
v -2947.7136 1265.4524 286.9455
v -2947.7118 1265.4516 282.8727
v -2943.3465 1264.3767 286.9398
f 166 167 168
v -2947.7118 1265.4516 282.8727
v -2947.7099 1265.4507 278.7998
v -2937.1347 1262.8461 286.9309
f 169 170 171
v -2937.1347 1262.8461 286.9309
v -2947.7081 1265.4497 274.7270
v -2947.7063 1265.4488 270.6541
f 172 173 174
v -2947.7099 1265.4507 278.7998
v -2947.7081 1265.4497 274.7270
v -2937.1347 1262.8461 286.9309
f 175 176 177
v -2921.0500 1298.8158 270.6598
v -2920.4845 1298.6789 286.5534
v -2920.4774 1298.6752 270.6600
f 178 179 180
v -2914.9887 1323.7295 280.8000
v -2914.9914 1323.7308 286.8898
v -2921.0573 1298.8194 286.9002
f 181 182 183
v -2914.9842 1323.7270 270.6574
v -2914.9887 1323.7295 280.8000
v -2921.0573 1298.8194 286.9002
f 184 185 186
v -2914.9842 1323.7270 270.6574
v -2921.0573 1298.8194 286.9002
v -2921.0500 1298.8158 270.6598
f 187 188 189
v -2928.1544 1269.7174 275.7431
v -2926.6991 1275.6902 270.6617
v -2926.6891 1275.7658 286.9201
f 190 191 192
v -2926.6891 1275.7658 286.9201
v -2926.6991 1275.6902 270.6617
v -2924.1722 1286.0813 270.6609
f 193 194 195
v -2930.2361 1261.1439 270.6630
v -2928.1544 1269.7174 275.7431
v -2928.7559 1267.2625 286.9219
f 196 197 198
v -2928.1544 1269.7174 275.7431
v -2930.2361 1261.1439 270.6630
v -2926.6991 1275.6902 270.6617
f 199 200 201
v -2924.1722 1286.0813 270.6609
v -2923.5967 1285.9423 286.5656
v -2924.1794 1286.0850 286.9182
f 202 203 204
v -2923.5896 1285.9388 270.6612
v -2923.5967 1285.9423 286.5656
v -2924.1722 1286.0813 270.6609
f 205 206 207
v -2923.5967 1285.9423 286.5656
v -2920.4774 1298.6752 270.6600
v -2920.4845 1298.6789 286.5534
f 208 209 210
v -2920.4774 1298.6752 270.6600
v -2923.5967 1285.9423 286.5656
v -2923.5896 1285.9388 270.6612
f 211 212 213
v -2938.4763 1303.2232 287.0613
v -2938.4690 1303.2195 270.6509
v -2939.8170 1303.5706 286.2446
f 214 215 216
v -2939.8100 1303.5670 270.6502
v -2939.8170 1303.5706 286.2446
v -2938.4690 1303.2195 270.6509
f 217 218 219
v -2942.8626 1291.0359 286.2457
v -2942.9821 1290.5097 270.6514
v -2942.9890 1290.5133 286.2458
f 220 221 222
v -2939.8170 1303.5706 286.2446
v -2939.8100 1303.5670 270.6502
v -2939.9272 1303.1179 286.2446
f 223 224 225
v -2939.8100 1303.5670 270.6502
v -2939.9207 1303.1146 271.7381
v -2939.9272 1303.1179 286.2446
f 226 227 228
v -2942.8561 1291.0327 271.7392
v -2939.9207 1303.1146 271.7381
v -2939.8100 1303.5670 270.6502
f 229 230 231
v -2942.9821 1290.5097 270.6514
v -2942.8561 1291.0327 271.7392
v -2939.8100 1303.5670 270.6502
f 232 233 234
v -2941.6417 1290.2011 274.7539
v -2941.6472 1290.2039 287.0574
v -2942.9821 1290.5097 270.6514
f 235 236 237
v -2941.6399 1290.2002 270.6521
v -2941.6417 1290.2011 274.7539
v -2942.9821 1290.5097 270.6514
f 238 239 240
v -2921.3199 1324.7569 287.3387
v -2917.9223 1322.4660 288.1376
v -2915.2784 1323.8006 287.0637
f 241 242 243
v -2918.0287 1322.0284 288.3897
v -2915.2784 1323.8006 287.0637
v -2917.9223 1322.4660 288.1376
f 244 245 246
v -2921.3199 1324.7569 287.3387
v -2915.2784 1323.8006 287.0637
v -2932.4279 1327.9747 287.0499
f 247 248 249
v -2921.3199 1324.7569 287.3387
v -2921.6569 1323.3731 288.1357
v -2917.9223 1322.4660 288.1376
f 250 251 252
v -2921.3199 1324.7569 287.3387
v -2932.4401 1327.9247 287.0789
v -2927.1130 1326.1665 287.3348
f 253 254 255
v -2927.1130 1326.1665 287.3348
v -2932.4401 1327.9247 287.0789
v -2927.4500 1324.7806 288.1328
f 256 257 258
v -2932.4401 1327.9247 287.0789
v -2931.0187 1325.6472 288.1310
v -2927.4500 1324.7806 288.1328
f 259 260 261
v -2932.4279 1327.9747 287.0499
v -2932.4401 1327.9247 287.0789
v -2921.3199 1324.7569 287.3387
f 262 263 264
v -2931.0521 1325.5092 288.2100
v -2931.0187 1325.6472 288.1310
v -2932.4401 1327.9247 287.0789
f 265 266 267
v -2942.5124 1295.1353 292.4198
v -2942.1426 1295.0503 292.4230
v -2942.3466 1295.8569 292.8087
f 268 269 270
v -2943.0573 1291.0834 290.2834
v -2939.6186 1290.2481 290.2852
v -2939.5459 1290.5490 290.4482
f 271 272 273
v -2942.1426 1295.0503 292.4230
v -2933.8339 1295.1774 293.5217
v -2941.9758 1295.7710 292.8109
f 274 275 276
v -2942.3466 1295.8569 292.8087
v -2942.1426 1295.0503 292.4230
v -2941.9758 1295.7710 292.8109
f 277 278 279
v -2939.5459 1290.5490 290.4482
v -2942.1426 1295.0503 292.4230
v -2943.0573 1291.0834 290.2834
f 280 281 282
v -2939.5459 1290.5490 290.4482
v -2933.8339 1295.1774 293.5217
v -2942.1426 1295.0503 292.4230
f 283 284 285
v -2941.6737 1297.0814 293.5178
v -2941.9758 1295.7710 292.8109
v -2933.8339 1295.1774 293.5217
f 286 287 288
v -2940.2598 1303.1987 290.2733
v -2936.7621 1302.0064 290.4471
v -2936.6842 1302.3301 290.2751
f 289 290 291
v -2940.2598 1303.1987 290.2733
v -2941.1977 1299.1427 292.4246
v -2936.7621 1302.0064 290.4471
f 292 293 294
v -2933.8339 1295.1774 293.5217
v -2936.7621 1302.0064 290.4471
v -2941.6737 1297.0814 293.5178
f 295 296 297
v -2941.6737 1297.0814 293.5178
v -2936.7621 1302.0064 290.4471
v -2941.3637 1298.4213 292.8066
f 298 299 300
v -2941.1977 1299.1427 292.4246
v -2941.3637 1298.4213 292.8066
v -2936.7621 1302.0064 290.4471
f 301 302 303
v -2941.3637 1298.4213 292.8066
v -2941.5674 1299.2278 292.4264
v -2941.7345 1298.5073 292.8084
f 304 305 306
v -2941.5674 1299.2278 292.4264
v -2941.3637 1298.4213 292.8066
v -2941.1977 1299.1427 292.4246
f 307 308 309
v -2942.1426 1295.0503 292.4230
v -2943.0490 1291.0791 271.7391
v -2943.0573 1291.0834 290.2834
f 310 311 312
v -2943.0490 1291.0791 271.7391
v -2942.1426 1295.0503 292.4230
v -2942.1333 1295.0457 271.7388
f 313 314 315
v -2941.9758 1295.7710 292.8109
v -2942.3372 1295.8522 271.7385
v -2942.3466 1295.8569 292.8087
f 316 317 318
v -2942.3372 1295.8522 271.7385
v -2941.9758 1295.7710 292.8109
v -2941.9664 1295.7662 271.7387
f 319 320 321
v -2942.3466 1295.8569 292.8087
v -2942.5031 1295.1307 271.7386
v -2942.5124 1295.1353 292.4198
f 322 323 324
v -2942.3466 1295.8569 292.8087
v -2942.3372 1295.8522 271.7385
v -2942.5031 1295.1307 271.7386
f 325 326 327
v -2942.5124 1295.1353 292.4198
v -2942.1333 1295.0457 271.7388
v -2942.1426 1295.0503 292.4230
f 328 329 330
v -2942.1333 1295.0457 271.7388
v -2942.5124 1295.1353 292.4198
v -2942.5031 1295.1307 271.7386
f 331 332 333
v -2941.5581 1299.2231 271.7382
v -2941.1977 1299.1427 292.4246
v -2941.1884 1299.1381 271.7384
f 334 335 336
v -2941.5674 1299.2278 292.4264
v -2941.7251 1298.5025 271.7382
v -2941.7345 1298.5073 292.8084
f 337 338 339
v -2941.5674 1299.2278 292.4264
v -2941.5581 1299.2231 271.7382
v -2941.7251 1298.5025 271.7382
f 340 341 342
v -2941.3637 1298.4213 292.8066
v -2941.7345 1298.5073 292.8084
v -2941.7251 1298.5025 271.7382
f 343 344 345
v -2941.3543 1298.4166 271.7384
v -2941.3637 1298.4213 292.8066
v -2941.7251 1298.5025 271.7382
f 346 347 348
v -2932.4401 1327.9247 287.0789
v -2938.4763 1303.2232 287.0613
v -2938.3048 1302.7238 287.2284
f 349 350 351
v -2938.3048 1302.7238 287.2284
v -2938.4763 1303.2232 287.0613
v -2939.9272 1303.1179 286.2446
f 352 353 354
v -2939.9272 1303.1179 286.2446
v -2938.4763 1303.2232 287.0613
v -2939.8170 1303.5706 286.2446
f 355 356 357
v -2931.0521 1325.5092 288.2100
v -2938.3048 1302.7238 287.2284
v -2936.6833 1302.3297 288.2122
f 358 359 360
v -2931.0521 1325.5092 288.2100
v -2932.4401 1327.9247 287.0789
v -2938.3048 1302.7238 287.2284
f 361 362 363
v -2941.1884 1299.1381 271.7384
v -2939.9207 1303.1146 271.7381
v -2941.3543 1298.4166 271.7384
f 364 365 366
v -2941.7251 1298.5025 271.7382
v -2941.1884 1299.1381 271.7384
v -2941.3543 1298.4166 271.7384
f 367 368 369
v -2939.9207 1303.1146 271.7381
v -2941.1884 1299.1381 271.7384
v -2940.2515 1303.1945 271.7380
f 370 371 372
v -2941.5581 1299.2231 271.7382
v -2941.1884 1299.1381 271.7384
v -2941.7251 1298.5025 271.7382
f 373 374 375
v -2942.8561 1291.0327 271.7392
v -2943.0490 1291.0791 271.7391
v -2942.1333 1295.0457 271.7388
f 376 377 378
v -2942.8561 1291.0327 271.7392
v -2942.1333 1295.0457 271.7388
v -2941.9664 1295.7662 271.7387
f 379 380 381
v -2942.3372 1295.8522 271.7385
v -2941.9664 1295.7662 271.7387
v -2942.5031 1295.1307 271.7386
f 382 383 384
v -2941.9664 1295.7662 271.7387
v -2941.3543 1298.4166 271.7384
v -2939.9207 1303.1146 271.7381
f 385 386 387
v -2942.5031 1295.1307 271.7386
v -2941.9664 1295.7662 271.7387
v -2942.1333 1295.0457 271.7388
f 388 389 390
v -2942.8561 1291.0327 271.7392
v -2941.9664 1295.7662 271.7387
v -2939.9207 1303.1146 271.7381
f 391 392 393
v -2941.2401 1290.6418 287.2295
v -2939.6186 1290.2481 290.2852
v -2943.0573 1291.0834 290.2834
f 394 395 396
v -2939.6186 1290.2481 290.2852
v -2941.2401 1290.6418 287.2295
v -2939.6177 1290.2477 288.2133
f 397 398 399
v -2942.8626 1291.0359 286.2457
v -2941.2401 1290.6418 287.2295
v -2943.0573 1291.0834 290.2834
f 400 401 402
v -2943.0573 1291.0834 290.2834
v -2943.0490 1291.0791 271.7391
v -2942.8561 1291.0327 271.7392
f 403 404 405
v -2943.0573 1291.0834 290.2834
v -2942.8561 1291.0327 271.7392
v -2942.8626 1291.0359 286.2457
f 406 407 408
v -2939.9272 1303.1179 286.2446
v -2940.2515 1303.1945 271.7380
v -2940.2598 1303.1987 290.2733
f 409 410 411
v -2936.6833 1302.3297 288.2122
v -2940.2598 1303.1987 290.2733
v -2936.6842 1302.3301 290.2751
f 412 413 414
v -2940.2598 1303.1987 290.2733
v -2936.6833 1302.3297 288.2122
v -2938.3048 1302.7238 287.2284
f 415 416 417
v -2940.2515 1303.1945 271.7380
v -2939.9272 1303.1179 286.2446
v -2939.9207 1303.1146 271.7381
f 418 419 420
v -2940.2598 1303.1987 290.2733
v -2938.3048 1302.7238 287.2284
v -2939.9272 1303.1179 286.2446
f 421 422 423
v -2926.0349 1317.0814 295.1798
v -2936.8685 1272.4850 295.1838
v -2932.1152 1264.0493 290.4809
f 424 425 426
v -2932.1152 1264.0493 290.4809
v -2917.9396 1322.3986 290.4746
v -2926.0349 1317.0814 295.1798
f 427 428 429
v -2945.2195 1267.1945 290.4502
v -2945.2276 1267.1606 290.4262
v -2938.0782 1268.4168 292.3642
f 430 431 432
v -2938.0782 1268.4168 292.3642
v -2945.2276 1267.1606 290.4262
v -2941.2113 1266.1848 290.4283
f 433 434 435
v -2936.8685 1272.4850 295.1838
v -2945.2195 1267.1945 290.4502
v -2938.0782 1268.4168 292.3642
f 436 437 438
v -2936.8275 1266.2462 291.1583
v -2936.0727 1264.9370 290.4309
v -2932.1323 1263.9804 290.4339
f 439 440 441
v -2936.8685 1272.4850 295.1838
v -2938.0782 1268.4168 292.3642
v -2932.1152 1264.0493 290.4809
f 442 443 444
v -2936.8275 1266.2462 291.1583
v -2932.1152 1264.0493 290.4809
v -2938.0782 1268.4168 292.3642
f 445 446 447
v -2932.1323 1263.9804 290.4339
v -2932.1152 1264.0493 290.4809
v -2936.8275 1266.2462 291.1583
f 448 449 450
v -2941.9747 1264.5514 270.5400
v -2940.6359 1270.0617 270.5395
v -2936.0457 1263.0905 270.5430
f 451 452 453
v -2936.0457 1263.0905 270.5430
v -2940.6359 1270.0617 270.5395
v -2934.7039 1268.6209 270.5425
f 454 455 456
v -2941.2113 1266.1848 290.4283
v -2941.5669 1266.2716 290.1471
v -2941.9835 1264.5558 290.1472
f 457 458 459
v -2941.2113 1266.1848 290.4283
v -2939.1834 1263.8658 292.3646
v -2938.0782 1268.4168 292.3642
f 460 461 462
v -2941.9835 1264.5558 290.1472
v -2939.1834 1263.8658 292.3646
v -2941.2113 1266.1848 290.4283
f 463 464 465
v -2933.8339 1295.1774 293.5217
v -2926.0349 1317.0814 295.1798
v -2931.0278 1325.6128 290.4450
f 466 467 468
v -2933.8339 1295.1774 293.5217
v -2939.5459 1290.5490 290.4482
v -2945.2195 1267.1945 290.4502
f 469 470 471
v -2936.8685 1272.4850 295.1838
v -2933.8339 1295.1774 293.5217
v -2945.2195 1267.1945 290.4502
f 472 473 474
v -2926.0349 1317.0814 295.1798
v -2933.8339 1295.1774 293.5217
v -2936.8685 1272.4850 295.1838
f 475 476 477
v -2931.0278 1325.6128 290.4450
v -2936.7621 1302.0064 290.4471
v -2933.8339 1295.1774 293.5217
f 478 479 480
v -2924.9378 1321.4338 292.1935
v -2918.9497 1322.7163 290.4271
v -2922.0287 1323.4636 290.4255
f 481 482 483
v -2917.9396 1322.3986 290.4746
v -2917.9234 1322.4665 290.4276
v -2918.9497 1322.7163 290.4271
f 484 485 486
v -2917.9396 1322.3986 290.4746
v -2924.9378 1321.4338 292.1935
v -2926.0349 1317.0814 295.1798
f 487 488 489
v -2931.0278 1325.6128 290.4450
v -2926.0349 1317.0814 295.1798
v -2924.9378 1321.4338 292.1935
f 490 491 492
v -2917.9396 1322.3986 290.4746
v -2918.9497 1322.7163 290.4271
v -2924.9378 1321.4338 292.1935
f 493 494 495
v -2924.9378 1321.4338 292.1935
v -2926.9454 1324.6577 290.4230
v -2930.0014 1325.4000 290.4215
f 496 497 498
v -2931.0278 1325.6128 290.4450
v -2924.9378 1321.4338 292.1935
v -2930.0014 1325.4000 290.4215
f 499 500 501
v -2931.0197 1325.6477 290.4210
v -2931.0278 1325.6128 290.4450
v -2930.0014 1325.4000 290.4215
f 502 503 504
v -2945.2276 1267.1606 290.4262
v -2941.5660 1266.2712 288.2052
v -2941.5669 1266.2716 290.1471
f 505 506 507
v -2941.5669 1266.2716 290.1471
v -2941.2113 1266.1848 290.4283
v -2945.2276 1267.1606 290.4262
f 508 509 510
v -2945.2271 1267.1603 289.3152
v -2945.2266 1267.1600 288.2033
v -2941.5660 1266.2712 288.2052
f 511 512 513
v -2931.0521 1325.5092 288.2100
v -2936.6833 1302.3297 288.2122
v -2936.6842 1302.3301 290.2751
f 514 515 516
v -2936.6842 1302.3301 290.2751
v -2936.7621 1302.0064 290.4471
v -2931.0278 1325.6128 290.4450
f 517 518 519
v -2936.6842 1302.3301 290.2751
v -2931.0278 1325.6128 290.4450
v -2931.0521 1325.5092 288.2100
f 520 521 522
v -2931.0521 1325.5092 288.2100
v -2931.0197 1325.6477 290.4210
v -2931.0187 1325.6472 288.1310
f 523 524 525
v -2917.9223 1322.4660 288.1376
v -2921.6569 1323.3731 288.1357
v -2921.6578 1323.3735 290.1377
f 526 527 528
v -2921.6578 1323.3735 290.1377
v -2918.9497 1322.7163 290.4271
v -2917.9234 1322.4665 290.4276
f 529 530 531
v -2917.9234 1322.4665 290.4276
v -2917.9223 1322.4660 288.1376
v -2921.6578 1323.3735 290.1377
f 532 533 534
v -2930.0014 1325.4000 290.4215
v -2931.0187 1325.6472 288.1310
v -2931.0197 1325.6477 290.4210
f 535 536 537
v -2927.4509 1324.7810 290.0838
v -2927.4500 1324.7806 288.1328
v -2931.0187 1325.6472 288.1310
f 538 539 540
v -2930.0014 1325.4000 290.4215
v -2927.4509 1324.7810 290.0838
v -2931.0187 1325.6472 288.1310
f 541 542 543
v -2932.1313 1263.9799 288.2110
v -2932.1323 1263.9804 290.4339
v -2935.6338 1264.8308 290.1151
f 544 545 546
v -2935.6329 1264.8303 288.2092
v -2932.1313 1263.9799 288.2110
v -2935.6338 1264.8308 290.1151
f 547 548 549
v -2935.6329 1264.8303 288.2092
v -2935.6338 1264.8308 290.1151
v -2936.0545 1263.0949 290.1153
f 550 551 552
v -2941.9747 1264.5514 270.5400
v -2941.9747 1264.5515 270.6570
v -2940.6360 1270.0617 270.6565
f 553 554 555
v -2941.9822 1264.5552 287.2173
v -2941.9835 1264.5558 290.1472
v -2941.5660 1266.2712 288.2052
f 556 557 558
v -2927.1142 1326.1671 290.0837
v -2921.3199 1324.7569 287.3387
v -2927.1130 1326.1665 287.3348
f 559 560 561
v -2921.3211 1324.7576 290.1376
v -2927.1142 1326.1671 290.0837
v -2923.9732 1325.4032 292.1931
f 562 563 564
v -2927.1142 1326.1671 290.0837
v -2921.3211 1324.7576 290.1376
v -2921.3199 1324.7569 287.3387
f 565 566 567
v -2947.7081 1265.4497 274.7270
v -2947.7099 1265.4507 278.7998
v -2941.6472 1290.2039 287.0574
f 568 569 570
v -2947.7099 1265.4507 278.7998
v -2947.7118 1265.4516 282.8727
v -2941.6472 1290.2039 287.0574
f 571 572 573
v -2947.7081 1265.4497 274.7270
v -2941.6417 1290.2011 274.7539
v -2947.7063 1265.4488 270.6541
f 574 575 576
v -2947.6782 1265.5974 287.0295
v -2947.7118 1265.4516 282.8727
v -2947.7136 1265.4524 286.9455
f 577 578 579
v -2947.7063 1265.4488 270.6541
v -2941.6417 1290.2011 274.7539
v -2941.6399 1290.2002 270.6521
f 580 581 582
v -2941.6417 1290.2011 274.7539
v -2947.7081 1265.4497 274.7270
v -2941.6472 1290.2039 287.0574
f 583 584 585
v -2947.6782 1265.5974 287.0295
v -2941.6472 1290.2039 287.0574
v -2947.7118 1265.4516 282.8727
f 586 587 588
v -2914.9887 1323.7295 280.8000
v -2932.4206 1327.9708 270.6485
v -2915.2784 1323.8006 287.0637
f 589 590 591
v -2915.2784 1323.8006 287.0637
v -2932.4206 1327.9708 270.6485
v -2932.4279 1327.9747 287.0499
f 592 593 594
v -2914.9887 1323.7295 280.8000
v -2915.2784 1323.8006 287.0637
v -2914.9914 1323.7308 286.8898
f 595 596 597
v -2932.4206 1327.9708 270.6485
v -2914.9887 1323.7295 280.8000
v -2914.9842 1323.7270 270.6574
f 598 599 600
v -2932.4206 1327.9708 270.6485
v -2938.4690 1303.2195 270.6509
v -2938.4763 1303.2232 287.0613
f 601 602 603
v -2932.4206 1327.9708 270.6485
v -2932.4401 1327.9247 287.0789
v -2932.4279 1327.9747 287.0499
f 604 605 606
v -2932.4401 1327.9247 287.0789
v -2932.4206 1327.9708 270.6485
v -2938.4763 1303.2232 287.0613
f 607 608 609
v -2941.6737 1297.0814 293.5178
v -2941.3637 1298.4213 292.8066
v -2941.9758 1295.7710 292.8109
f 610 611 612
v -2941.3637 1298.4213 292.8066
v -2941.3543 1298.4166 271.7384
v -2941.9664 1295.7662 271.7387
f 613 614 615
v -2941.9758 1295.7710 292.8109
v -2941.3637 1298.4213 292.8066
v -2941.9664 1295.7662 271.7387
f 616 617 618
v -2939.1834 1263.8658 292.3646
v -2936.0545 1263.0949 290.1153
v -2936.8275 1266.2462 291.1583
f 619 620 621
v -2939.1834 1263.8658 292.3646
v -2936.8275 1266.2462 291.1583
v -2938.0782 1268.4168 292.3642
f 622 623 624
v -2936.0545 1263.0949 290.1153
v -2936.0727 1264.9370 290.4309
v -2936.8275 1266.2462 291.1583
f 625 626 627
v -2936.0545 1263.0949 290.1153
v -2935.6338 1264.8308 290.1151
v -2936.0727 1264.9370 290.4309
f 628 629 630
v -2936.0458 1263.0905 270.6600
v -2936.0457 1263.0905 270.5430
v -2934.7039 1268.6209 270.5425
f 631 632 633
v -2934.7039 1268.6209 270.6595
v -2936.0458 1263.0905 270.6600
v -2934.7039 1268.6209 270.5425
f 634 635 636
v -2940.6359 1270.0617 270.5395
v -2934.7039 1268.6209 270.6595
v -2934.7039 1268.6209 270.5425
f 637 638 639
v -2934.7039 1268.6209 270.6595
v -2940.6359 1270.0617 270.5395
v -2940.6360 1270.0617 270.6565
f 640 641 642
v -2945.2271 1267.1603 289.3152
v -2945.2216 1267.1800 288.2153
v -2945.2266 1267.1600 288.2033
f 643 644 645
v -2945.2216 1267.1800 288.2153
v -2945.2271 1267.1603 289.3152
v -2939.6177 1290.2477 288.2133
f 646 647 648
v -2945.2271 1267.1603 289.3152
v -2945.2195 1267.1945 290.4502
v -2939.6177 1290.2477 288.2133
f 649 650 651
v -2945.2195 1267.1945 290.4502
v -2939.6186 1290.2481 290.2852
v -2939.6177 1290.2477 288.2133
f 652 653 654
v -2945.2195 1267.1945 290.4502
v -2939.5459 1290.5490 290.4482
v -2939.6186 1290.2481 290.2852
f 655 656 657
v -2945.2276 1267.1606 290.4262
v -2945.2195 1267.1945 290.4502
v -2945.2271 1267.1603 289.3152
f 658 659 660
v -2917.9234 1322.4665 290.4276
v -2918.0287 1322.0284 288.3897
v -2917.9223 1322.4660 288.1376
f 661 662 663
v -2917.9396 1322.3986 290.4746
v -2918.0287 1322.0284 288.3897
v -2917.9234 1322.4665 290.4276
f 664 665 666
v -2932.0536 1264.2987 288.3940
v -2932.1152 1264.0493 290.4809
v -2932.1323 1263.9804 290.4339
f 667 668 669
v -2932.0536 1264.2987 288.3940
v -2918.0287 1322.0284 288.3897
v -2917.9396 1322.3986 290.4746
f 670 671 672
v -2932.0536 1264.2987 288.3940
v -2932.1323 1263.9804 290.4339
v -2932.1313 1263.9799 288.2110
f 673 674 675
v -2932.1152 1264.0493 290.4809
v -2932.0536 1264.2987 288.3940
v -2917.9396 1322.3986 290.4746
f 676 677 678
v -2936.0545 1263.0949 290.1153
v -2939.1834 1263.8658 292.3646
v -2936.0532 1263.0942 287.2094
f 679 680 681
v -2941.9835 1264.5558 290.1472
v -2939.1811 1263.8646 287.2138
v -2936.0532 1263.0942 287.2094
f 682 683 684
v -2939.1811 1263.8646 287.2138
v -2941.9835 1264.5558 290.1472
v -2941.9822 1264.5552 287.2173
f 685 686 687
v -2939.1834 1263.8658 292.3646
v -2941.9835 1264.5558 290.1472
v -2936.0532 1263.0942 287.2094
f 688 689 690
v -2941.9747 1264.5515 270.6570
v -2936.0457 1263.0905 270.5430
v -2936.0458 1263.0905 270.6600
f 691 692 693
v -2941.9747 1264.5514 270.5400
v -2936.0457 1263.0905 270.5430
v -2941.9747 1264.5515 270.6570
f 694 695 696
v -2947.7118 1265.4516 282.8727
v -2937.1347 1262.8461 286.9309
v -2943.3465 1264.3767 286.9398
f 697 698 699
v -2921.0573 1298.8194 286.9002
v -2920.4845 1298.6789 286.5534
v -2921.0500 1298.8158 270.6598
f 700 701 702
v -2928.1544 1269.7174 275.7431
v -2926.6891 1275.7658 286.9201
v -2928.7559 1267.2625 286.9219
f 703 704 705
v -2926.6891 1275.7658 286.9201
v -2924.1722 1286.0813 270.6609
v -2924.1794 1286.0850 286.9182
f 706 707 708
v -2928.7559 1267.2625 286.9219
v -2930.2434 1261.1476 286.9224
v -2930.2361 1261.1439 270.6630
f 709 710 711
v -2942.9821 1290.5097 270.6514
v -2942.8626 1291.0359 286.2457
v -2942.8561 1291.0327 271.7392
f 712 713 714
v -2942.9890 1290.5133 286.2458
v -2942.9821 1290.5097 270.6514
v -2941.6472 1290.2039 287.0574
f 715 716 717
v -2940.2515 1303.1945 271.7380
v -2941.1884 1299.1381 271.7384
v -2941.1977 1299.1427 292.4246
f 718 719 720
v -2941.1977 1299.1427 292.4246
v -2940.2598 1303.1987 290.2733
v -2940.2515 1303.1945 271.7380
f 721 722 723
v -2941.1977 1299.1427 292.4246
v -2941.5581 1299.2231 271.7382
v -2941.5674 1299.2278 292.4264
f 724 725 726
v -2941.5660 1266.2712 288.2052
v -2945.2276 1267.1606 290.4262
v -2945.2271 1267.1603 289.3152
f 727 728 729
v -2931.0521 1325.5092 288.2100
v -2931.0278 1325.6128 290.4450
v -2931.0197 1325.6477 290.4210
f 730 731 732
v -2922.0287 1323.4636 290.4255
v -2918.9497 1322.7163 290.4271
v -2921.6578 1323.3735 290.1377
f 733 734 735
v -2930.0014 1325.4000 290.4215
v -2926.9454 1324.6577 290.4230
v -2927.4509 1324.7810 290.0838
f 736 737 738
v -2936.0727 1264.9370 290.4309
v -2935.6338 1264.8308 290.1151
v -2932.1323 1263.9804 290.4339
f 739 740 741
v -2936.0532 1263.0942 287.2094
v -2935.6329 1264.8303 288.2092
v -2936.0545 1263.0949 290.1153
f 742 743 744
v -2941.9747 1264.5514 270.5400
v -2940.6360 1270.0617 270.6565
v -2940.6359 1270.0617 270.5395
f 745 746 747
v -2941.9835 1264.5558 290.1472
v -2941.5669 1266.2716 290.1471
v -2941.5660 1266.2712 288.2052
f 748 749 750

g building_ID_9E3C3E8A-E8AC-418D-AB83-DF30AA96C98F
v -2971.7812 1307.7537 270.3475
v -2965.5683 1306.2321 270.3507
v -2969.5997 1289.6922 270.3521
f 751 752 753
v -2978.4476 1305.3407 270.3449
v -2971.7812 1307.7537 270.3475
v -2969.5997 1289.6922 270.3521
f 754 755 756
v -2978.4476 1305.3407 270.3449
v -2979.2900 1305.5470 270.3445
v -2978.3617 1309.3664 270.3441
f 757 758 759
v -2978.4476 1305.3407 270.3449
v -2978.3617 1309.3664 270.3441
v -2971.7812 1307.7537 270.3475
f 760 761 762
v -2969.9125 1289.7680 270.3520
v -2981.3797 1293.3448 270.3459
v -2969.5997 1289.6922 270.3521
f 763 764 765
v -2969.9125 1289.7680 270.3520
v -2981.5587 1292.6113 270.3460
v -2981.3797 1293.3448 270.3459
f 766 767 768
v -2980.3474 1297.5699 270.3455
v -2978.4476 1305.3407 270.3449
v -2969.5997 1289.6922 270.3521
f 769 770 771
v -2982.2071 1293.5470 270.3455
v -2981.1798 1297.7732 270.3451
v -2980.3474 1297.5699 270.3455
f 772 773 774
v -2980.3474 1297.5699 270.3455
v -2981.3797 1293.3448 270.3459
v -2982.2071 1293.5470 270.3455
f 775 776 777
v -2969.5997 1289.6922 270.3521
v -2981.3797 1293.3448 270.3459
v -2980.3474 1297.5699 270.3455
f 778 779 780
v -2974.5813 1296.2746 288.7499
v -2981.5321 1292.6065 284.5155
v -2969.9189 1289.7713 284.5125
f 781 782 783
v -2981.5651 1292.6145 284.4905
v -2981.5321 1292.6065 284.5155
v -2981.3862 1293.3480 284.4914
f 784 785 786
v -2974.5813 1296.2746 288.7499
v -2980.3538 1297.5732 284.4940
v -2981.3862 1293.3480 284.4914
f 787 788 789
v -2981.5321 1292.6065 284.5155
v -2974.5813 1296.2746 288.7499
v -2981.3862 1293.3480 284.4914
f 790 791 792
v -2981.3862 1293.3480 284.4914
v -2980.3538 1297.5732 284.4940
v -2982.2133 1293.5501 283.8790
f 793 794 795
v -2978.4539 1305.3440 284.5013
v -2980.3538 1297.5732 284.4940
v -2974.5813 1296.2746 288.7499
f 796 797 798
v -2974.5813 1296.2746 288.7499
v -2971.7895 1307.7580 288.7488
v -2978.4539 1305.3440 284.5013
f 799 800 801
v -2978.3679 1309.3695 283.8776
v -2978.4539 1305.3440 284.5013
v -2971.7895 1307.7580 288.7488
f 802 803 804
v -2982.2133 1293.5501 283.8790
v -2980.3538 1297.5732 284.4940
v -2981.1860 1297.7762 283.8786
f 805 806 807
v -2978.4539 1305.3440 284.5013
v -2978.3679 1309.3695 283.8776
v -2979.2961 1305.5501 283.8779
f 808 809 810
v -2969.9189 1289.7713 284.5125
v -2969.6060 1289.6954 284.2876
v -2968.2672 1295.1896 284.2851
f 811 812 813
v -2968.2672 1295.1896 284.2851
v -2974.5813 1296.2746 288.7499
v -2969.9189 1289.7713 284.5125
f 814 815 816
v -2971.7895 1307.7580 288.7488
v -2966.5857 1302.0861 284.2815
v -2965.5746 1306.2353 284.2791
f 817 818 819
v -2968.2672 1295.1896 284.2851
v -2966.5857 1302.0861 284.2815
v -2974.5813 1296.2746 288.7499
f 820 821 822
v -2971.7895 1307.7580 288.7488
v -2974.5813 1296.2746 288.7499
v -2966.5857 1302.0861 284.2815
f 823 824 825
v -2981.1798 1297.7732 270.3451
v -2980.3538 1297.5732 284.4940
v -2980.3474 1297.5699 270.3455
f 826 827 828
v -2982.2071 1293.5470 270.3455
v -2982.2133 1293.5501 283.8790
v -2981.1860 1297.7762 283.8786
f 829 830 831
v -2982.2071 1293.5470 270.3455
v -2981.3862 1293.3480 284.4914
v -2982.2133 1293.5501 283.8790
f 832 833 834
v -2981.5587 1292.6113 270.3460
v -2981.5635 1292.6136 280.9026
v -2981.3797 1293.3448 270.3459
f 835 836 837
v -2981.5635 1292.6136 280.9026
v -2981.3862 1293.3480 284.4914
v -2981.3797 1293.3448 270.3459
f 838 839 840
v -2978.3679 1309.3695 283.8776
v -2979.2900 1305.5470 270.3445
v -2979.2961 1305.5501 283.8779
f 841 842 843
v -2978.3679 1309.3695 283.8776
v -2978.3617 1309.3664 270.3441
v -2979.2900 1305.5470 270.3445
f 844 845 846
v -2979.2900 1305.5470 270.3445
v -2978.4476 1305.3407 270.3449
v -2979.2961 1305.5501 283.8779
f 847 848 849
v -2978.4539 1305.3440 284.5013
v -2978.4476 1305.3407 270.3449
v -2980.3538 1297.5732 284.4940
f 850 851 852
v -2978.4476 1305.3407 270.3449
v -2980.3474 1297.5699 270.3455
v -2980.3538 1297.5732 284.4940
f 853 854 855
v -2969.5997 1289.6922 270.3521
v -2966.5857 1302.0861 284.2815
v -2968.2672 1295.1896 284.2851
f 856 857 858
v -2965.5683 1306.2321 270.3507
v -2965.5715 1306.2338 277.3114
v -2966.5857 1302.0861 284.2815
f 859 860 861
v -2965.5683 1306.2321 270.3507
v -2966.5857 1302.0861 284.2815
v -2969.5997 1289.6922 270.3521
f 862 863 864
v -2969.6045 1289.6946 280.8038
v -2969.6060 1289.6954 284.2876
v -2969.9189 1289.7713 284.5125
f 865 866 867
v -2969.6013 1289.6930 273.8360
v -2969.6045 1289.6946 280.8038
v -2981.5635 1292.6136 280.9026
f 868 869 870
v -2969.9125 1289.7680 270.3520
v -2969.5997 1289.6922 270.3521
v -2969.6013 1289.6930 273.8360
f 871 872 873
v -2969.6045 1289.6946 280.8038
v -2969.9189 1289.7713 284.5125
v -2981.5635 1292.6136 280.9026
f 874 875 876
v -2981.5635 1292.6136 280.9026
v -2981.5321 1292.6065 284.5155
v -2981.5651 1292.6145 284.4905
f 877 878 879
v -2969.9125 1289.7680 270.3520
v -2969.6013 1289.6930 273.8360
v -2981.5587 1292.6113 270.3460
f 880 881 882
v -2981.5587 1292.6113 270.3460
v -2969.6013 1289.6930 273.8360
v -2981.5635 1292.6136 280.9026
f 883 884 885
v -2981.5321 1292.6065 284.5155
v -2981.5635 1292.6136 280.9026
v -2969.9189 1289.7713 284.5125
f 886 887 888
v -2971.7812 1307.7537 270.3475
v -2978.3617 1309.3664 270.3441
v -2978.3679 1309.3695 283.8776
f 889 890 891
v -2978.3679 1309.3695 283.8776
v -2965.5683 1306.2321 270.3507
v -2971.7812 1307.7537 270.3475
f 892 893 894
v -2965.5683 1306.2321 270.3507
v -2978.3679 1309.3695 283.8776
v -2965.5715 1306.2338 277.3114
f 895 896 897
v -2971.7895 1307.7580 288.7488
v -2965.5746 1306.2353 284.2791
v -2965.5715 1306.2338 277.3114
f 898 899 900
v -2978.3679 1309.3695 283.8776
v -2971.7895 1307.7580 288.7488
v -2965.5715 1306.2338 277.3114
f 901 902 903
v -2981.1860 1297.7762 283.8786
v -2980.3538 1297.5732 284.4940
v -2981.1798 1297.7732 270.3451
f 904 905 906
v -2982.2071 1293.5470 270.3455
v -2981.1860 1297.7762 283.8786
v -2981.1798 1297.7732 270.3451
f 907 908 909
v -2981.3797 1293.3448 270.3459
v -2981.3862 1293.3480 284.4914
v -2982.2071 1293.5470 270.3455
f 910 911 912
v -2981.5651 1292.6145 284.4905
v -2981.3862 1293.3480 284.4914
v -2981.5635 1292.6136 280.9026
f 913 914 915
v -2978.4476 1305.3407 270.3449
v -2978.4539 1305.3440 284.5013
v -2979.2961 1305.5501 283.8779
f 916 917 918
v -2969.6013 1289.6930 273.8360
v -2968.2672 1295.1896 284.2851
v -2969.6045 1289.6946 280.8038
f 919 920 921
v -2969.5997 1289.6922 270.3521
v -2968.2672 1295.1896 284.2851
v -2969.6013 1289.6930 273.8360
f 922 923 924
v -2966.5857 1302.0861 284.2815
v -2965.5715 1306.2338 277.3114
v -2965.5746 1306.2353 284.2791
f 925 926 927
v -2968.2672 1295.1896 284.2851
v -2969.6060 1289.6954 284.2876
v -2969.6045 1289.6946 280.8038
f 928 929 930

g building_ID_E93528CD-3CF8-4760-B455-0570A1D9152A
v -3138.0028 1312.2401 283.1566
v -3139.6024 1306.0750 285.4819
v -3134.1027 1309.2997 283.1591
f 931 932 933
v -3137.9986 1312.2381 274.3909
v -3138.0028 1312.2401 283.1566
v -3134.1027 1309.2997 283.1591
f 934 935 936
v -3145.4459 1308.4617 285.4776
v -3146.1828 1316.6580 283.1516
v -3153.4757 1306.9917 283.1500
f 937 938 939
v -3153.4733 1306.9906 278.3392
v -3153.4757 1306.9917 283.1500
v -3153.0438 1307.5595 278.3393
f 940 941 942
v -3146.1828 1316.6580 283.1516
v -3153.0438 1307.5595 278.3393
v -3153.4757 1306.9917 283.1500
f 943 944 945
v -3153.0420 1307.5585 274.3844
v -3153.0438 1307.5595 278.3393
v -3146.1786 1316.6560 274.3859
f 946 947 948
v -3146.1828 1316.6580 283.1516
v -3146.1786 1316.6560 274.3859
v -3153.0438 1307.5595 278.3393
f 949 950 951
v -3139.6024 1306.0750 285.4819
v -3139.7705 1307.7332 284.4005
v -3140.5739 1304.7877 285.4807
f 952 953 954
v -3145.4459 1308.4617 285.4776
v -3153.4757 1306.9917 283.1500
v -3150.4987 1304.7467 283.1519
f 955 956 957
v -3150.4987 1304.7467 283.1519
v -3142.9690 1306.5941 285.4792
v -3145.4459 1308.4617 285.4776
f 958 959 960
v -3135.9643 1301.3103 285.4837
v -3135.1700 1293.1848 283.1618
v -3127.8791 1302.8531 283.1634
f 961 962 963
v -3134.7363 1293.7526 274.3962
v -3127.8750 1302.8511 274.3977
v -3134.7382 1293.7535 278.3511
f 964 965 966
v -3127.8791 1302.8531 283.1634
v -3134.7382 1293.7535 278.3511
v -3127.8750 1302.8511 274.3977
f 967 968 969
v -3135.1677 1293.1837 278.3510
v -3134.7382 1293.7535 278.3511
v -3135.1700 1293.1848 283.1618
f 970 971 972
v -3127.8791 1302.8531 283.1634
v -3135.1700 1293.1848 283.1618
v -3134.7382 1293.7535 278.3511
f 973 974 975
v -3133.7821 1307.3048 283.1596
v -3134.1027 1309.2997 283.1591
v -3139.6024 1306.0750 285.4819
f 976 977 978
v -3134.0986 1309.2977 274.3934
v -3134.1027 1309.2997 283.1591
v -3133.7779 1307.3028 274.3939
f 979 980 981
v -3127.8750 1302.8511 274.3977
v -3130.9496 1305.1703 274.3958
v -3127.8791 1302.8531 283.1634
f 982 983 984
v -3137.8109 1306.4540 284.3407
v -3133.7821 1307.3048 283.1596
v -3139.6024 1306.0750 285.4819
f 985 986 987
v -3146.8287 1301.4755 285.4783
v -3142.3498 1302.7697 286.4753
v -3142.9690 1306.5941 285.4792
f 988 989 990
v -3142.3498 1302.7697 286.4753
v -3146.8287 1301.4755 285.4783
v -3142.9830 1301.9303 286.4751
f 991 992 993
v -3132.8440 1292.3254 278.3524
v -3133.7735 1291.0901 274.3972
v -3132.8421 1292.3245 274.3975
f 994 995 996
v -3137.1771 1286.5721 269.2867
v -3133.7735 1291.0901 274.3972
v -3137.1814 1286.5742 278.3513
f 997 998 999
v -3132.8440 1292.3254 278.3524
v -3137.1814 1286.5742 278.3513
v -3133.7735 1291.0901 274.3972
f 1000 1001 1002
v -3133.7710 1291.0889 269.2874
v -3133.7735 1291.0901 274.3972
v -3137.1771 1286.5721 269.2867
f 1003 1004 1005
v -3142.3498 1302.7697 286.4753
v -3138.5420 1303.2542 285.4820
v -3140.5739 1304.7877 285.4807
f 1006 1007 1008
v -3140.5739 1304.7877 285.4807
v -3142.9690 1306.5941 285.4792
v -3142.3498 1302.7697 286.4753
f 1009 1010 1011
v -3135.1677 1293.1837 278.3510
v -3135.1700 1293.1848 283.1618
v -3138.2457 1295.5050 283.1599
f 1012 1013 1014
v -3150.4964 1304.7456 278.3411
v -3150.4987 1304.7467 283.1519
v -3153.4757 1306.9917 283.1500
f 1015 1016 1017
v -3138.2457 1295.5050 283.1599
v -3135.9643 1301.3103 285.4837
v -3138.5420 1303.2542 285.4820
f 1018 1019 1020
v -3135.9643 1301.3103 285.4837
v -3138.2457 1295.5050 283.1599
v -3135.1700 1293.1848 283.1618
f 1021 1022 1023
v -3138.7399 1294.8372 269.2842
v -3133.7710 1291.0889 269.2874
v -3137.1771 1286.5721 269.2867
f 1024 1025 1026
v -3137.1771 1286.5721 269.2867
v -3142.1289 1290.3443 269.2835
v -3138.7399 1294.8372 269.2842
f 1027 1028 1029
v -3154.5538 1308.6985 278.3383
v -3158.8438 1303.0741 278.3374
v -3153.4733 1306.9906 278.3392
f 1030 1031 1032
v -3154.3431 1299.6460 278.3403
v -3153.4733 1306.9906 278.3392
v -3158.8438 1303.0741 278.3374
f 1033 1034 1035
v -3153.0438 1307.5595 278.3393
v -3154.5538 1308.6985 278.3383
v -3153.4733 1306.9906 278.3392
f 1036 1037 1038
v -3154.3431 1299.6460 278.3403
v -3150.4964 1304.7456 278.3411
v -3153.4733 1306.9906 278.3392
f 1039 1040 1041
v -3154.5518 1308.6976 274.3834
v -3154.5538 1308.6985 278.3383
v -3153.0438 1307.5595 278.3393
f 1042 1043 1044
v -3134.7363 1293.7526 274.3962
v -3134.7382 1293.7535 278.3511
v -3132.8440 1292.3254 278.3524
f 1045 1046 1047
v -3139.6024 1306.0750 285.4819
v -3140.5739 1304.7877 285.4807
v -3137.8109 1306.4540 284.3407
f 1048 1049 1050
v -3138.7398 1294.8372 269.0802
v -3154.3376 1299.6449 269.0716
v -3150.9937 1304.0789 269.0723
f 1051 1052 1053
v -3138.7398 1294.8372 269.0802
v -3142.1268 1290.3473 269.0795
v -3154.3376 1299.6449 269.0716
f 1054 1055 1056
v -3142.4017 1298.1356 285.4812
v -3146.8287 1301.4755 285.4783
v -3154.2716 1299.5919 283.1951
f 1057 1058 1059
v -3154.2716 1299.5919 283.1951
v -3142.1624 1290.3725 283.1770
v -3142.4017 1298.1356 285.4812
f 1060 1061 1062
v -3137.6459 1313.0288 268.9021
v -3132.1213 1309.1771 268.9056
v -3130.5390 1295.1221 268.9092
f 1063 1064 1065
v -3130.5390 1295.1221 268.9092
v -3132.1213 1309.1771 268.9056
v -3124.3561 1303.3203 268.9106
f 1066 1067 1068
v -3136.4616 1314.5987 268.9023
v -3131.0876 1310.5453 268.9058
v -3132.1213 1309.1771 268.9056
f 1069 1070 1071
v -3154.5060 1308.7522 268.8946
v -3130.5390 1295.1221 268.9092
v -3133.6880 1291.0265 268.9085
f 1072 1073 1074
v -3130.5390 1295.1221 268.9092
v -3154.5060 1308.7522 268.8946
v -3137.6459 1313.0288 268.9021
f 1075 1076 1077
v -3132.1213 1309.1771 268.9056
v -3137.6459 1313.0288 268.9021
v -3136.4616 1314.5987 268.9023
f 1078 1079 1080
v -3154.5060 1308.7522 268.8946
v -3146.0859 1319.6624 268.8965
v -3137.6459 1313.0288 268.9021
f 1081 1082 1083
v -3155.4865 1307.4679 268.8944
v -3154.5060 1308.7522 268.8946
v -3133.6880 1291.0265 268.9085
f 1084 1085 1086
v -3130.5390 1295.1221 268.9092
v -3130.5416 1295.1233 274.3980
v -3133.6906 1291.0279 274.3973
f 1087 1088 1089
v -3124.3561 1303.3203 268.9106
v -3124.3587 1303.3216 274.3994
v -3130.5416 1295.1233 274.3980
f 1090 1091 1092
v -3132.1213 1309.1771 268.9056
v -3132.1239 1309.1784 274.3944
v -3124.3587 1303.3216 274.3994
f 1093 1094 1095
v -3131.0876 1310.5453 268.9058
v -3131.0903 1310.5466 274.3946
v -3132.1239 1309.1784 274.3944
f 1096 1097 1098
v -3136.4616 1314.5987 268.9023
v -3136.4643 1314.6000 274.3911
v -3131.0903 1310.5466 274.3946
f 1099 1100 1101
v -3137.6459 1313.0288 268.9021
v -3137.6485 1313.0302 274.3909
v -3136.4643 1314.6000 274.3911
f 1102 1103 1104
v -3146.0859 1319.6624 268.8965
v -3146.0885 1319.6638 274.3853
v -3137.6485 1313.0302 274.3909
f 1105 1106 1107
v -3140.2190 1312.1591 283.1555
v -3139.6024 1306.0750 285.4819
v -3138.0028 1312.2401 283.1566
f 1108 1109 1110
v -3140.2147 1312.1571 274.3898
v -3140.2190 1312.1591 283.1555
v -3137.9986 1312.2381 274.3909
f 1111 1112 1113
v -3142.9830 1301.9303 286.4751
v -3146.8287 1301.4755 285.4783
v -3142.4017 1298.1356 285.4812
f 1114 1115 1116
v -3142.3498 1302.7697 286.4753
v -3142.9830 1301.9303 286.4751
v -3142.4017 1298.1356 285.4812
f 1117 1118 1119
v -3142.4017 1298.1356 285.4812
v -3138.5420 1303.2542 285.4820
v -3142.3498 1302.7697 286.4753
f 1120 1121 1122
v -3142.9690 1306.5941 285.4792
v -3140.5739 1304.7877 285.4807
v -3139.7705 1307.7332 284.4005
f 1123 1124 1125
v -3145.4459 1308.4617 285.4776
v -3142.9690 1306.5941 285.4792
v -3139.7705 1307.7332 284.4005
f 1126 1127 1128
v -3139.7705 1307.7332 284.4005
v -3143.2078 1314.4140 283.1535
v -3145.4459 1308.4617 285.4776
f 1129 1130 1131
v -3143.2078 1314.4140 283.1535
v -3146.1828 1316.6580 283.1516
v -3145.4459 1308.4617 285.4776
f 1132 1133 1134
v -3140.2190 1312.1591 283.1555
v -3143.2078 1314.4140 283.1535
v -3139.7705 1307.7332 284.4005
f 1135 1136 1137
v -3146.1786 1316.6560 274.3859
v -3146.1828 1316.6580 283.1516
v -3143.2037 1314.4120 274.3878
f 1138 1139 1140
v -3140.2190 1312.1591 283.1555
v -3140.2147 1312.1571 274.3898
v -3143.2078 1314.4140 283.1535
f 1141 1142 1143
v -3155.4866 1307.4680 269.2734
v -3158.8394 1303.0720 269.2727
v -3158.8438 1303.0741 278.3374
f 1144 1145 1146
v -3155.4866 1307.4680 269.2734
v -3154.5538 1308.6985 278.3383
v -3154.5518 1308.6976 274.3834
f 1147 1148 1149
v -3155.4866 1307.4680 269.2734
v -3154.5518 1308.6976 274.3834
v -3154.5494 1308.6964 269.2736
f 1150 1151 1152
v -3155.4866 1307.4680 269.2734
v -3150.9938 1304.0789 269.2763
v -3154.3387 1299.6440 269.2756
f 1153 1154 1155
v -3154.3387 1299.6440 269.2756
v -3158.8394 1303.0720 269.2727
v -3155.4866 1307.4680 269.2734
f 1156 1157 1158
v -3142.1332 1290.3464 278.3481
v -3135.1677 1293.1837 278.3510
v -3138.2434 1295.5039 278.3491
f 1159 1160 1161
v -3132.8440 1292.3254 278.3524
v -3135.1677 1293.1837 278.3510
v -3137.1814 1286.5742 278.3513
f 1162 1163 1164
v -3142.1332 1290.3464 278.3481
v -3137.1814 1286.5742 278.3513
v -3135.1677 1293.1837 278.3510
f 1165 1166 1167
v -3134.7382 1293.7535 278.3511
v -3135.1677 1293.1837 278.3510
v -3132.8440 1292.3254 278.3524
f 1168 1169 1170
v -3138.2457 1295.5050 283.1599
v -3142.1624 1290.3725 283.1770
v -3142.1335 1290.3505 283.1590
f 1171 1172 1173
v -3138.5420 1303.2542 285.4820
v -3142.4017 1298.1356 285.4812
v -3138.2457 1295.5050 283.1599
f 1174 1175 1176
v -3142.1624 1290.3725 283.1770
v -3138.2457 1295.5050 283.1599
v -3142.4017 1298.1356 285.4812
f 1177 1178 1179
v -3146.8287 1301.4755 285.4783
v -3142.9690 1306.5941 285.4792
v -3150.4987 1304.7467 283.1519
f 1180 1181 1182
v -3146.8287 1301.4755 285.4783
v -3150.4987 1304.7467 283.1519
v -3154.2716 1299.5919 283.1951
f 1183 1184 1185
v -3154.3444 1299.6481 283.1511
v -3154.2716 1299.5919 283.1951
v -3150.4987 1304.7467 283.1519
f 1186 1187 1188
v -3138.7398 1294.8372 269.0802
v -3138.7399 1294.8372 269.2842
v -3142.1268 1290.3473 269.0795
f 1189 1190 1191
v -3138.2434 1295.5039 278.3491
v -3138.2457 1295.5050 283.1599
v -3142.1335 1290.3505 283.1590
f 1192 1193 1194
v -3154.3431 1299.6460 278.3403
v -3154.3444 1299.6481 283.1511
v -3150.4964 1304.7456 278.3411
f 1195 1196 1197
v -3154.3376 1299.6449 269.0716
v -3154.3387 1299.6440 269.2756
v -3150.9938 1304.0789 269.2763
f 1198 1199 1200
v -3146.0885 1319.6638 274.3853
v -3146.1786 1316.6560 274.3859
v -3143.2037 1314.4120 274.3878
f 1201 1202 1203
v -3154.5518 1308.6976 274.3834
v -3153.0420 1307.5585 274.3844
v -3146.1786 1316.6560 274.3859
f 1204 1205 1206
v -3146.0885 1319.6638 274.3853
v -3154.5518 1308.6976 274.3834
v -3146.1786 1316.6560 274.3859
f 1207 1208 1209
v -3146.0885 1319.6638 274.3853
v -3143.2037 1314.4120 274.3878
v -3137.6485 1313.0302 274.3909
f 1210 1211 1212
v -3137.6485 1313.0302 274.3909
v -3143.2037 1314.4120 274.3878
v -3140.2147 1312.1571 274.3898
f 1213 1214 1215
v -3137.9986 1312.2381 274.3909
v -3137.6485 1313.0302 274.3909
v -3140.2147 1312.1571 274.3898
f 1216 1217 1218
v -3136.4643 1314.6000 274.3911
v -3137.6485 1313.0302 274.3909
v -3134.0986 1309.2977 274.3934
f 1219 1220 1221
v -3137.9986 1312.2381 274.3909
v -3134.0986 1309.2977 274.3934
v -3137.6485 1313.0302 274.3909
f 1222 1223 1224
v -3131.0903 1310.5466 274.3946
v -3136.4643 1314.6000 274.3911
v -3134.0986 1309.2977 274.3934
f 1225 1226 1227
v -3130.5416 1295.1233 274.3980
v -3134.7363 1293.7526 274.3962
v -3132.8421 1292.3245 274.3975
f 1228 1229 1230
v -3132.8421 1292.3245 274.3975
v -3133.6906 1291.0279 274.3973
v -3130.5416 1295.1233 274.3980
f 1231 1232 1233
v -3133.7735 1291.0901 274.3972
v -3133.6906 1291.0279 274.3973
v -3132.8421 1292.3245 274.3975
f 1234 1235 1236
v -3134.7363 1293.7526 274.3962
v -3130.5416 1295.1233 274.3980
v -3127.8750 1302.8511 274.3977
f 1237 1238 1239
v -3134.0986 1309.2977 274.3934
v -3132.1239 1309.1784 274.3944
v -3131.0903 1310.5466 274.3946
f 1240 1241 1242
v -3130.9496 1305.1703 274.3958
v -3132.1239 1309.1784 274.3944
v -3133.7779 1307.3028 274.3939
f 1243 1244 1245
v -3124.3587 1303.3216 274.3994
v -3132.1239 1309.1784 274.3944
v -3130.9496 1305.1703 274.3958
f 1246 1247 1248
v -3133.7779 1307.3028 274.3939
v -3132.1239 1309.1784 274.3944
v -3134.0986 1309.2977 274.3934
f 1249 1250 1251
v -3124.3587 1303.3216 274.3994
v -3130.9496 1305.1703 274.3958
v -3127.8750 1302.8511 274.3977
f 1252 1253 1254
v -3130.5416 1295.1233 274.3980
v -3124.3587 1303.3216 274.3994
v -3127.8750 1302.8511 274.3977
f 1255 1256 1257
v -3133.7710 1291.0889 269.2874
v -3133.6906 1291.0279 274.3973
v -3133.7735 1291.0901 274.3972
f 1258 1259 1260
v -3133.7710 1291.0889 269.2874
v -3138.7398 1294.8372 269.0802
v -3133.6880 1291.0265 268.9085
f 1261 1262 1263
v -3133.6906 1291.0279 274.3973
v -3133.7710 1291.0889 269.2874
v -3133.6880 1291.0265 268.9085
f 1264 1265 1266
v -3138.7399 1294.8372 269.2842
v -3138.7398 1294.8372 269.0802
v -3133.7710 1291.0889 269.2874
f 1267 1268 1269
v -3150.9937 1304.0789 269.0723
v -3150.9938 1304.0789 269.2763
v -3155.4866 1307.4680 269.2734
f 1270 1271 1272
v -3155.4865 1307.4679 268.8944
v -3138.7398 1294.8372 269.0802
v -3150.9937 1304.0789 269.0723
f 1273 1274 1275
v -3155.4866 1307.4680 269.2734
v -3155.4865 1307.4679 268.8944
v -3150.9937 1304.0789 269.0723
f 1276 1277 1278
v -3133.6880 1291.0265 268.9085
v -3138.7398 1294.8372 269.0802
v -3155.4865 1307.4679 268.8944
f 1279 1280 1281
v -3139.7705 1307.7332 284.4005
v -3139.6024 1306.0750 285.4819
v -3140.2190 1312.1591 283.1555
f 1282 1283 1284
v -3135.9643 1301.3103 285.4837
v -3127.8791 1302.8531 283.1634
v -3133.7821 1307.3048 283.1596
f 1285 1286 1287
v -3135.9643 1301.3103 285.4837
v -3137.8109 1306.4540 284.3407
v -3138.5420 1303.2542 285.4820
f 1288 1289 1290
v -3137.8109 1306.4540 284.3407
v -3140.5739 1304.7877 285.4807
v -3138.5420 1303.2542 285.4820
f 1291 1292 1293
v -3133.7821 1307.3048 283.1596
v -3137.8109 1306.4540 284.3407
v -3135.9643 1301.3103 285.4837
f 1294 1295 1296
v -3154.5060 1308.7522 268.8946
v -3155.4865 1307.4679 268.8944
v -3154.5494 1308.6964 269.2736
f 1297 1298 1299
v -3146.0885 1319.6638 274.3853
v -3146.0859 1319.6624 268.8965
v -3154.5494 1308.6964 269.2736
f 1300 1301 1302
v -3146.0859 1319.6624 268.8965
v -3154.5060 1308.7522 268.8946
v -3154.5494 1308.6964 269.2736
f 1303 1304 1305
v -3154.5518 1308.6976 274.3834
v -3146.0885 1319.6638 274.3853
v -3154.5494 1308.6964 269.2736
f 1306 1307 1308
v -3142.1335 1290.3505 283.1590
v -3142.1624 1290.3725 283.1770
v -3142.1332 1290.3464 278.3481
f 1309 1310 1311
v -3142.1332 1290.3464 278.3481
v -3154.3376 1299.6449 269.0716
v -3142.1289 1290.3443 269.2835
f 1312 1313 1314
v -3142.1289 1290.3443 269.2835
v -3137.1814 1286.5742 278.3513
v -3142.1332 1290.3464 278.3481
f 1315 1316 1317
v -3137.1814 1286.5742 278.3513
v -3142.1289 1290.3443 269.2835
v -3137.1771 1286.5721 269.2867
f 1318 1319 1320
v -3154.3376 1299.6449 269.0716
v -3142.1268 1290.3473 269.0795
v -3142.1289 1290.3443 269.2835
f 1321 1322 1323
v -3154.3431 1299.6460 278.3403
v -3142.1332 1290.3464 278.3481
v -3142.1624 1290.3725 283.1770
f 1324 1325 1326
v -3154.3431 1299.6460 278.3403
v -3154.2716 1299.5919 283.1951
v -3154.3444 1299.6481 283.1511
f 1327 1328 1329
v -3158.8394 1303.0720 269.2727
v -3154.3431 1299.6460 278.3403
v -3158.8438 1303.0741 278.3374
f 1330 1331 1332
v -3154.3431 1299.6460 278.3403
v -3154.3387 1299.6440 269.2756
v -3142.1332 1290.3464 278.3481
f 1333 1334 1335
v -3154.3387 1299.6440 269.2756
v -3154.3376 1299.6449 269.0716
v -3142.1332 1290.3464 278.3481
f 1336 1337 1338
v -3158.8394 1303.0720 269.2727
v -3154.3387 1299.6440 269.2756
v -3154.3431 1299.6460 278.3403
f 1339 1340 1341
v -3154.2716 1299.5919 283.1951
v -3154.3431 1299.6460 278.3403
v -3142.1624 1290.3725 283.1770
f 1342 1343 1344
v -3137.9986 1312.2381 274.3909
v -3134.1027 1309.2997 283.1591
v -3134.0986 1309.2977 274.3934
f 1345 1346 1347
v -3134.1027 1309.2997 283.1591
v -3133.7821 1307.3048 283.1596
v -3133.7779 1307.3028 274.3939
f 1348 1349 1350
v -3133.7821 1307.3048 283.1596
v -3130.9496 1305.1703 274.3958
v -3133.7779 1307.3028 274.3939
f 1351 1352 1353
v -3130.9496 1305.1703 274.3958
v -3133.7821 1307.3048 283.1596
v -3127.8791 1302.8531 283.1634
f 1354 1355 1356
v -3135.1677 1293.1837 278.3510
v -3138.2457 1295.5050 283.1599
v -3138.2434 1295.5039 278.3491
f 1357 1358 1359
v -3150.4964 1304.7456 278.3411
v -3153.4757 1306.9917 283.1500
v -3153.4733 1306.9906 278.3392
f 1360 1361 1362
v -3154.5518 1308.6976 274.3834
v -3153.0438 1307.5595 278.3393
v -3153.0420 1307.5585 274.3844
f 1363 1364 1365
v -3134.7363 1293.7526 274.3962
v -3132.8440 1292.3254 278.3524
v -3132.8421 1292.3245 274.3975
f 1366 1367 1368
v -3130.5390 1295.1221 268.9092
v -3133.6906 1291.0279 274.3973
v -3133.6880 1291.0265 268.9085
f 1369 1370 1371
v -3124.3561 1303.3203 268.9106
v -3130.5416 1295.1233 274.3980
v -3130.5390 1295.1221 268.9092
f 1372 1373 1374
v -3132.1213 1309.1771 268.9056
v -3124.3587 1303.3216 274.3994
v -3124.3561 1303.3203 268.9106
f 1375 1376 1377
v -3131.0876 1310.5453 268.9058
v -3132.1239 1309.1784 274.3944
v -3132.1213 1309.1771 268.9056
f 1378 1379 1380
v -3136.4616 1314.5987 268.9023
v -3131.0903 1310.5466 274.3946
v -3131.0876 1310.5453 268.9058
f 1381 1382 1383
v -3137.6459 1313.0288 268.9021
v -3136.4643 1314.6000 274.3911
v -3136.4616 1314.5987 268.9023
f 1384 1385 1386
v -3146.0859 1319.6624 268.8965
v -3137.6485 1313.0302 274.3909
v -3137.6459 1313.0288 268.9021
f 1387 1388 1389
v -3140.2190 1312.1591 283.1555
v -3138.0028 1312.2401 283.1566
v -3137.9986 1312.2381 274.3909
f 1390 1391 1392
v -3146.1828 1316.6580 283.1516
v -3143.2078 1314.4140 283.1535
v -3143.2037 1314.4120 274.3878
f 1393 1394 1395
v -3140.2147 1312.1571 274.3898
v -3143.2037 1314.4120 274.3878
v -3143.2078 1314.4140 283.1535
f 1396 1397 1398
v -3155.4866 1307.4680 269.2734
v -3158.8438 1303.0741 278.3374
v -3154.5538 1308.6985 278.3383
f 1399 1400 1401
v -3138.7399 1294.8372 269.2842
v -3142.1289 1290.3443 269.2835
v -3142.1268 1290.3473 269.0795
f 1402 1403 1404
v -3138.2434 1295.5039 278.3491
v -3142.1335 1290.3505 283.1590
v -3142.1332 1290.3464 278.3481
f 1405 1406 1407
v -3154.3444 1299.6481 283.1511
v -3150.4987 1304.7467 283.1519
v -3150.4964 1304.7456 278.3411
f 1408 1409 1410
v -3154.3376 1299.6449 269.0716
v -3150.9938 1304.0789 269.2763
v -3150.9937 1304.0789 269.0723
f 1411 1412 1413
v -3155.4865 1307.4679 268.8944
v -3155.4866 1307.4680 269.2734
v -3154.5494 1308.6964 269.2736
f 1414 1415 1416

g building_ID_0EABBE73-5A40-4A6B-9F4A-1B7D3012F2FD
v -3107.9618 1272.0580 270.0039
v -3070.1279 1309.8568 270.0145
v -3054.7066 1294.4216 270.0251
f 1417 1418 1419
v -3054.7066 1294.4216 270.0251
v -3092.5405 1256.6218 270.0144
v -3107.9618 1272.0580 270.0039
f 1420 1421 1422
v -3054.7245 1294.4304 308.3937
v -3107.9801 1272.0665 308.3724
v -3092.5586 1256.6303 308.3829
f 1423 1424 1425
v -3107.9801 1272.0665 308.3724
v -3054.7245 1294.4304 308.3937
v -3070.1459 1309.8657 308.3831
f 1426 1427 1428
v -3092.5405 1256.6218 270.0144
v -3092.5586 1256.6303 308.3829
v -3107.9801 1272.0665 308.3724
f 1429 1430 1431
v -3054.7066 1294.4216 270.0251
v -3054.7245 1294.4304 308.3937
v -3092.5586 1256.6303 308.3829
f 1432 1433 1434
v -3070.1279 1309.8568 270.0145
v -3070.1459 1309.8657 308.3831
v -3054.7245 1294.4304 308.3937
f 1435 1436 1437
v -3107.9618 1272.0580 270.0039
v -3107.9801 1272.0665 308.3724
v -3070.1459 1309.8657 308.3831
f 1438 1439 1440
v -3092.5405 1256.6218 270.0144
v -3107.9801 1272.0665 308.3724
v -3107.9618 1272.0580 270.0039
f 1441 1442 1443
v -3054.7066 1294.4216 270.0251
v -3092.5586 1256.6303 308.3829
v -3092.5405 1256.6218 270.0144
f 1444 1445 1446
v -3070.1279 1309.8568 270.0145
v -3054.7245 1294.4304 308.3937
v -3054.7066 1294.4216 270.0251
f 1447 1448 1449
v -3107.9618 1272.0580 270.0039
v -3070.1459 1309.8657 308.3831
v -3070.1279 1309.8568 270.0145
f 1450 1451 1452
