# Grid Center: 2612400, 1266000
# Global Anchor: 7.64977475454284, 47.53283995868075, 0.0

g building_ID_A4D9DB18-C0E0-437D-8A61-541C090A5E29
v -3370.8096 1205.6055 272.0863
v -3396.2045 1211.8146 272.0716
v -3394.9940 1216.8543 272.0713
f 1 2 3
v -3394.9940 1216.8543 272.0713
v -3353.9270 1206.9952 272.0949
v -3370.8096 1205.6055 272.0863
f 4 5 6
v -3371.6049 1202.4737 272.0864
v -3370.8096 1205.6055 272.0863
v -3355.9173 1198.7076 272.0954
f 7 8 9
v -3353.9270 1206.9952 272.0949
v -3355.9173 1198.7076 272.0954
v -3370.8096 1205.6055 272.0863
f 10 11 12
v -3352.4168 1197.8686 288.0198
v -3351.4328 1201.9689 288.1055
v -3370.8178 1205.6089 288.0747
f 13 14 15
v -3371.4141 1203.2605 288.0248
v -3352.4168 1197.8686 288.0198
v -3370.8178 1205.6089 288.0747
f 16 17 18
v -3371.6131 1202.4771 288.0088
v -3352.4168 1197.8686 288.0198
v -3371.4141 1203.2605 288.0248
f 19 20 21
v -3400.8817 1212.9596 288.0593
v -3392.7731 1210.9769 288.0630
v -3400.6815 1213.7930 288.0763
f 22 23 24
v -3400.6815 1213.7930 288.0763
v -3392.7731 1210.9769 288.0630
v -3370.8178 1205.6089 288.0747
f 25 26 27
v -3351.4328 1201.9689 288.1055
v -3400.6815 1213.7930 288.0763
v -3370.8178 1205.6089 288.0747
f 28 29 30
v -3370.8096 1205.6055 272.0863
v -3371.3119 1203.6500 282.0380
v -3370.8178 1205.6089 288.0747
f 31 32 33
v -3370.8096 1205.6055 272.0863
v -3371.3929 1203.3190 276.3462
v -3371.3119 1203.6500 282.0380
f 34 35 36
v -3371.4141 1203.2605 288.0248
v -3371.6124 1202.4768 286.5118
v -3371.6131 1202.4771 288.0088
f 37 38 39
v -3371.6124 1202.4768 286.5118
v -3371.4141 1203.2605 288.0248
v -3371.3119 1203.6500 282.0380
f 40 41 42
v -3371.6050 1202.4737 272.1354
v -3371.6124 1202.4768 286.5118
v -3371.3929 1203.3190 276.3462
f 43 44 45
v -3371.3929 1203.3190 276.3462
v -3371.6049 1202.4737 272.0864
v -3371.6050 1202.4737 272.1354
f 46 47 48
v -3371.3929 1203.3190 276.3462
v -3371.6124 1202.4768 286.5118
v -3371.3119 1203.6500 282.0380
f 49 50 51
v -3371.3929 1203.3190 276.3462
v -3370.8096 1205.6055 272.0863
v -3371.6049 1202.4737 272.0864
f 52 53 54
v -3352.4160 1197.8682 286.5228
v -3352.4168 1197.8686 288.0198
v -3371.6124 1202.4768 286.5118
f 55 56 57
v -3352.4160 1197.8682 286.5228
v -3351.4328 1201.9689 288.1055
v -3352.4168 1197.8686 288.0198
f 58 59 60
v -3394.9940 1216.8543 272.0713
v -3394.9940 1216.8543 272.1203
v -3353.9270 1206.9952 272.1439
f 61 62 63
v -3400.8815 1212.9595 287.7553
v -3400.8817 1212.9596 288.0593
v -3400.6815 1213.7930 288.0763
f 64 65 66
v -3336.7896 1218.0440 272.0777
v -3353.3324 1209.4705 272.0707
v -3350.4714 1221.3926 272.0699
f 67 68 69
v -3336.7896 1218.0440 272.0777
v -3268.3836 1201.3034 272.1163
v -3353.3324 1209.4705 272.0707
f 70 71 72
v -3342.0743 1193.9295 272.0795
v -3353.3324 1209.4705 272.0707
v -3273.7902 1177.2093 272.1180
f 73 74 75
v -3342.0743 1193.9295 272.0795
v -3356.2318 1197.3955 272.0715
v -3353.3324 1209.4705 272.0707
f 76 77 78
v -3273.7902 1177.2093 272.1180
v -3353.3324 1209.4705 272.0707
v -3268.3836 1201.3034 272.1163
f 79 80 81
v -3268.3836 1201.3034 272.1163
v -3268.3603 1201.4003 272.1163
v -3266.9463 1201.0565 272.1171
f 82 83 84
v -3267.6296 1200.9294 272.1167
v -3266.9463 1201.0565 272.1171
v -3267.0070 1200.7797 272.1171
f 85 86 87
v -3268.3836 1201.3034 272.1163
v -3269.9475 1191.2698 272.1174
v -3273.7902 1177.2093 272.1180
f 88 89 90
v -3267.6296 1200.9294 272.1167
v -3269.9475 1191.2698 272.1174
v -3268.3836 1201.3034 272.1163
f 91 92 93
v -3268.3836 1201.3034 272.1163
v -3266.9463 1201.0565 272.1171
v -3267.6296 1200.9294 272.1167
f 94 95 96
v -3272.3382 1181.3153 272.1180
v -3273.7902 1177.2093 272.1180
v -3269.9475 1191.2698 272.1174
f 97 98 99
v -3273.8034 1177.1543 272.1180
v -3273.7902 1177.2093 272.1180
v -3273.3627 1177.0491 272.1183
f 100 101 102
v -3273.3445 1177.1241 272.1183
v -3273.3627 1177.0491 272.1183
v -3273.7902 1177.2093 272.1180
f 103 104 105
v -3273.7902 1177.2093 272.1180
v -3272.3382 1181.3153 272.1180
v -3273.3445 1177.1241 272.1183
f 106 107 108
v -3344.6763 1209.7279 284.7257
v -3348.3476 1208.9870 285.3719
v -3344.9344 1208.6547 285.1798
f 109 110 111
v -3309.3814 1211.3373 280.7150
v -3345.6500 1220.2126 280.6274
v -3344.6763 1209.7279 284.7257
f 112 113 114
v -3348.3476 1208.9870 285.3719
v -3344.6763 1209.7279 284.7257
v -3345.6500 1220.2126 280.6274
f 115 116 117
v -3336.9774 1207.8793 284.7301
v -3309.3814 1211.3373 280.7150
v -3344.6763 1209.7279 284.7257
f 118 119 120
v -3336.9774 1207.8793 284.7301
v -3266.9506 1201.0584 280.7748
v -3268.3879 1201.3052 280.8130
f 121 122 123
v -3268.3647 1201.4022 280.7720
v -3268.3879 1201.3052 280.8130
v -3266.9506 1201.0584 280.7748
f 124 125 126
v -3336.9774 1207.8793 284.7301
v -3268.3879 1201.3052 280.8130
v -3309.3814 1211.3373 280.7150
f 127 128 129
v -3348.5095 1208.3104 285.6570
v -3345.2067 1207.5206 285.6588
v -3344.9344 1208.6547 285.1798
f 130 131 132
v -3344.9344 1208.6547 285.1798
v -3348.3476 1208.9870 285.3719
v -3348.5095 1208.3104 285.6570
f 133 134 135
v -3350.4714 1221.3926 272.0699
v -3353.3324 1209.4705 272.0707
v -3353.9270 1206.9952 272.1439
f 136 137 138
v -3353.9270 1206.9952 272.1439
v -3350.4715 1221.3916 272.1429
v -3350.4714 1221.3926 272.0699
f 139 140 141
v -3266.9506 1201.0584 280.7748
v -3268.3603 1201.4003 272.1163
v -3268.3647 1201.4022 280.7720
f 142 143 144
v -3266.9506 1201.0584 280.7748
v -3266.9463 1201.0565 272.1171
v -3268.3603 1201.4003 272.1163
f 145 146 147
v -3268.3647 1201.4022 280.7720
v -3268.3603 1201.4003 272.1163
v -3268.3879 1201.3052 280.8130
f 148 149 150
v -3268.3836 1201.3034 272.1163
v -3268.3879 1201.3052 280.8130
v -3268.3603 1201.4003 272.1163
f 151 152 153
v -3269.5361 1189.3543 284.9404
v -3269.3470 1190.2139 285.3394
v -3269.5365 1189.3546 285.7014
f 154 155 156
v -3273.7945 1177.2110 280.7437
v -3330.3279 1191.0536 275.2941
v -3273.7902 1177.2093 272.1180
f 157 158 159
v -3351.4105 1196.2163 280.8398
v -3332.3222 1191.5417 278.6248
v -3273.7945 1177.2110 280.7437
f 160 161 162
v -3351.8318 1196.3189 277.9428
v -3330.3279 1191.0536 275.2941
v -3332.3222 1191.5417 278.6248
f 163 164 165
v -3351.8318 1196.3189 277.9428
v -3351.8303 1196.3183 275.0449
v -3330.3279 1191.0536 275.2941
f 166 167 168
v -3351.4105 1196.2163 280.8398
v -3351.8318 1196.3189 277.9428
v -3332.3222 1191.5417 278.6248
f 169 170 171
v -3273.7902 1177.2093 272.1180
v -3330.3279 1191.0536 275.2941
v -3342.0743 1193.9295 272.0795
f 172 173 174
v -3342.0743 1193.9295 272.0795
v -3330.3279 1191.0536 275.2941
v -3351.8303 1196.3183 275.0449
f 175 176 177
v -3352.2545 1196.4218 272.1557
v -3356.2318 1197.3955 272.0715
v -3342.0743 1193.9295 272.0795
f 178 179 180
v -3342.0743 1193.9295 272.0795
v -3351.8303 1196.3183 275.0449
v -3352.2545 1196.4218 272.1557
f 181 182 183
v -3273.8034 1177.1543 272.1180
v -3273.8077 1177.1561 280.7217
v -3273.7902 1177.2093 272.1180
f 184 185 186
v -3273.8077 1177.1561 280.7217
v -3273.7945 1177.2110 280.7437
v -3273.7902 1177.2093 272.1180
f 187 188 189
v -3273.3627 1177.0491 272.1183
v -3273.3670 1177.0509 280.7220
v -3273.8077 1177.1561 280.7217
f 190 191 192
v -3273.3627 1177.0491 272.1183
v -3273.8077 1177.1561 280.7217
v -3273.8034 1177.1543 272.1180
f 193 194 195
v -3271.9718 1179.5464 281.7891
v -3269.5361 1189.3543 284.9404
v -3269.5365 1189.3546 285.7014
f 196 197 198
v -3269.5361 1189.3543 284.9404
v -3271.9718 1179.5464 281.7891
v -3271.5772 1181.1332 281.0971
f 199 200 201
v -3356.2318 1197.3965 272.1445
v -3356.2318 1197.3955 272.0715
v -3352.2545 1196.4218 272.1557
f 202 203 204
v -3275.5411 1188.1585 284.7056
v -3272.7243 1179.7275 281.7877
v -3271.9718 1179.5464 281.7891
f 205 206 207
v -3273.7945 1177.2110 280.7437
v -3273.3488 1177.1248 280.7520
v -3272.7243 1179.7275 281.7877
f 208 209 210
v -3269.5365 1189.3546 285.7014
v -3275.5411 1188.1585 284.7056
v -3271.9718 1179.5464 281.7891
f 211 212 213
v -3273.3488 1177.1248 280.7520
v -3273.8077 1177.1561 280.7217
v -3273.3670 1177.0509 280.7220
f 214 215 216
v -3273.3488 1177.1248 280.7520
v -3273.7945 1177.2110 280.7437
v -3273.8077 1177.1561 280.7217
f 217 218 219
v -3345.8049 1205.0270 284.6660
v -3345.2067 1207.5206 285.6588
v -3348.5095 1208.3104 285.6570
f 220 221 222
v -3272.7243 1179.7275 281.7877
v -3275.5411 1188.1585 284.7056
v -3273.7945 1177.2110 280.7437
f 223 224 225
v -3273.7945 1177.2110 280.7437
v -3345.8049 1205.0270 284.6660
v -3351.4105 1196.2163 280.8398
f 226 227 228
v -3348.5095 1208.3104 285.6570
v -3351.4105 1196.2163 280.8398
v -3345.8049 1205.0270 284.6660
f 229 230 231
v -3275.5411 1188.1585 284.7056
v -3345.8049 1205.0270 284.6660
v -3273.7945 1177.2110 280.7437
f 232 233 234
v -3269.5365 1189.3546 285.7014
v -3274.9429 1190.6520 285.6984
v -3275.5411 1188.1585 284.7056
f 235 236 237
v -3356.2318 1197.3965 272.1445
v -3355.9173 1198.7076 272.1444
v -3356.2318 1197.3955 272.0715
f 238 239 240
v -3355.9173 1198.7076 272.0954
v -3356.2318 1197.3955 272.0715
v -3355.9173 1198.7076 272.1444
f 241 242 243
v -3353.3324 1209.4705 272.0707
v -3353.9270 1206.9952 272.0949
v -3353.9270 1206.9952 272.1439
f 244 245 246
v -3353.9270 1206.9952 272.0949
v -3353.3324 1209.4705 272.0707
v -3356.2318 1197.3955 272.0715
f 247 248 249
v -3355.9173 1198.7076 272.0954
v -3353.9270 1206.9952 272.0949
v -3356.2318 1197.3955 272.0715
f 250 251 252
v -3274.4135 1192.8598 286.8593
v -3344.6774 1209.7284 286.8196
v -3345.2957 1207.1543 287.4838
f 253 254 255
v -3345.2957 1207.1543 287.4838
v -3275.0318 1190.2856 287.5233
v -3274.4135 1192.8598 286.8593
f 256 257 258
v -3345.2957 1207.1543 287.4838
v -3275.5422 1188.1589 286.8595
v -3275.0318 1190.2856 287.5233
f 259 260 261
v -3275.5422 1188.1589 286.8595
v -3345.2957 1207.1543 287.4838
v -3345.8060 1205.0274 286.8199
f 262 263 264
v -3267.6406 1197.9345 282.0899
v -3266.9506 1201.0584 280.7748
v -3268.3162 1198.0934 282.0905
f 265 266 267
v -3336.9774 1207.8793 284.7301
v -3268.3162 1198.0934 282.0905
v -3266.9506 1201.0584 280.7748
f 268 269 270
v -3274.9429 1190.6520 285.6984
v -3269.5365 1189.3546 285.7014
v -3269.3470 1190.2139 285.3394
f 271 272 273
v -3274.4125 1192.8594 284.7653
v -3270.1615 1190.4091 285.3389
v -3268.3162 1198.0934 282.0905
f 274 275 276
v -3268.3162 1198.0934 282.0905
v -3336.9774 1207.8793 284.7301
v -3274.4125 1192.8594 284.7653
f 277 278 279
v -3274.4125 1192.8594 284.7653
v -3274.9429 1190.6520 285.6984
v -3270.1615 1190.4091 285.3389
f 280 281 282
v -3269.3470 1190.2139 285.3394
v -3270.1615 1190.4091 285.3389
v -3274.9429 1190.6520 285.6984
f 283 284 285
v -3274.9429 1190.6520 285.6984
v -3274.4125 1192.8594 284.7653
v -3274.4135 1192.8598 286.8593
f 286 287 288
v -3274.4135 1192.8598 286.8593
v -3275.0318 1190.2856 287.5233
v -3274.9429 1190.6520 285.6984
f 289 290 291
v -3336.9774 1207.8793 284.7301
v -3344.6763 1209.7279 284.7257
v -3344.6774 1209.7284 286.8196
f 292 293 294
v -3274.4125 1192.8594 284.7653
v -3336.9774 1207.8793 284.7301
v -3274.4135 1192.8598 286.8593
f 295 296 297
v -3344.6774 1209.7284 286.8196
v -3274.4135 1192.8598 286.8593
v -3336.9774 1207.8793 284.7301
f 298 299 300
v -3344.9344 1208.6547 285.1798
v -3345.2067 1207.5206 285.6588
v -3345.2957 1207.1543 287.4838
f 301 302 303
v -3344.6763 1209.7279 284.7257
v -3344.9344 1208.6547 285.1798
v -3344.6774 1209.7284 286.8196
f 304 305 306
v -3345.2957 1207.1543 287.4838
v -3344.6774 1209.7284 286.8196
v -3344.9344 1208.6547 285.1798
f 307 308 309
v -3345.8049 1205.0270 284.6660
v -3345.8060 1205.0274 286.8199
v -3345.2067 1207.5206 285.6588
f 310 311 312
v -3275.5411 1188.1585 284.7056
v -3275.5422 1188.1589 286.8595
v -3345.8049 1205.0270 284.6660
f 313 314 315
v -3274.9429 1190.6520 285.6984
v -3275.0318 1190.2856 287.5233
v -3275.5422 1188.1589 286.8595
f 316 317 318
v -3172.6089 1165.2007 272.0563
v -3074.5506 1141.6606 272.1085
v -3124.3113 1140.7383 272.0845
f 319 320 321
v -3172.6089 1165.2007 272.0563
v -3148.6390 1146.6846 272.0715
v -3174.4080 1157.7106 272.0567
f 322 323 324
v -3172.6089 1165.2007 272.0563
v -3171.9960 1167.7540 272.0561
v -3074.5506 1141.6606 272.1085
f 325 326 327
v -3175.5953 1152.7668 272.0570
v -3174.4080 1157.7106 272.0567
v -3175.3451 1153.2122 272.0571
f 328 329 330
v -3175.3451 1153.2122 272.0571
v -3175.4593 1152.7345 272.0571
v -3175.5953 1152.7668 272.0570
f 331 332 333
v -3174.4080 1157.7106 272.0567
v -3148.6390 1146.6846 272.0715
v -3175.3451 1153.2122 272.0571
f 334 335 336
v -3124.3113 1140.7383 272.0845
v -3074.5506 1141.6606 272.1085
v -3105.3810 1136.1105 272.0946
f 337 338 339
v -3124.3113 1140.7383 272.0845
v -3148.6390 1146.6846 272.0715
v -3172.6089 1165.2007 272.0563
f 340 341 342
v -3085.2035 1156.5170 272.1007
v -3171.9960 1167.7540 272.0561
v -3169.8177 1176.8310 272.0556
f 343 344 345
v -3074.5506 1141.6606 272.1085
v -3085.2035 1156.5170 272.1007
v -3083.5746 1156.1186 272.1016
f 346 347 348
v -3080.3158 1155.3209 272.1033
v -3074.5506 1141.6606 272.1085
v -3081.9447 1155.7193 272.1025
f 349 350 351
v -3081.9447 1155.7193 272.1025
v -3074.5506 1141.6606 272.1085
v -3083.5746 1156.1186 272.1016
f 352 353 354
v -3076.2635 1154.3290 272.1054
v -3074.5506 1141.6606 272.1085
v -3078.6869 1154.9226 272.1042
f 355 356 357
v -3072.1693 1153.3271 272.1076
v -3072.1551 1153.3840 272.1076
v -3071.7593 1153.2889 272.1078
f 358 359 360
v -3080.3158 1155.3209 272.1033
v -3078.6869 1154.9226 272.1042
v -3074.5506 1141.6606 272.1085
f 361 362 363
v -3074.5506 1141.6606 272.1085
v -3089.7136 1132.2814 272.1029
v -3105.3810 1136.1105 272.0946
f 364 365 366
v -3072.1693 1153.3271 272.1076
v -3074.5506 1141.6606 272.1085
v -3076.2635 1154.3290 272.1054
f 367 368 369
v -3074.5506 1141.6606 272.1085
v -3072.1693 1153.3271 272.1076
v -3071.7593 1153.2889 272.1078
f 370 371 372
v -3077.5359 1129.2248 272.1093
v -3077.9834 1129.4140 272.1091
v -3074.5506 1141.6606 272.1085
f 373 374 375
v -3074.5506 1141.6606 272.1085
v -3077.9834 1129.4140 272.1091
v -3089.7136 1132.2814 272.1029
f 376 377 378
v -3078.0066 1129.3300 272.1091
v -3077.9834 1129.4140 272.1091
v -3077.5359 1129.2248 272.1093
f 379 380 381
v -3085.2035 1156.5170 272.1007
v -3074.5506 1141.6606 272.1085
v -3171.9960 1167.7540 272.0561
f 382 383 384
v -3175.5995 1152.7686 280.8807
v -3175.3494 1153.2140 281.0598
v -3174.8700 1155.8099 282.0165
f 385 386 387
v -3074.5569 1141.6633 285.5770
v -3174.8700 1155.8099 282.0165
v -3171.8328 1152.3546 281.0557
f 388 389 390
v -3172.6154 1165.2035 285.5248
v -3174.8700 1155.8099 282.0165
v -3074.5569 1141.6633 285.5770
f 391 392 393
v -3171.8328 1152.3546 281.0557
v -3174.8700 1155.8099 282.0165
v -3175.3494 1153.2140 281.0598
f 394 395 396
v -3172.0021 1167.7566 284.4687
v -3072.1754 1151.5750 281.4745
v -3085.2076 1156.5188 280.7574
f 397 398 399
v -3172.3644 1166.2486 285.0917
v -3074.1783 1143.2372 284.9259
v -3172.0021 1167.7566 284.4687
f 400 401 402
v -3172.6154 1165.2035 285.5248
v -3074.3615 1142.4777 285.2400
v -3172.3644 1166.2486 285.0917
f 403 404 405
v -3072.1754 1151.5750 281.4745
v -3072.1733 1153.3289 280.7883
v -3075.4392 1154.1276 280.7806
f 406 407 408
v -3085.2076 1156.5188 280.7574
v -3169.8219 1176.8327 280.7122
v -3172.0021 1167.7566 284.4687
f 409 410 411
v -3085.2076 1156.5188 280.7574
v -3072.1754 1151.5750 281.4745
v -3081.9487 1155.7211 280.7651
f 412 413 414
v -3078.6890 1154.9233 280.7729
v -3081.9487 1155.7211 280.7651
v -3072.1754 1151.5750 281.4745
f 415 416 417
v -3075.4392 1154.1276 280.7806
v -3078.6890 1154.9233 280.7729
v -3072.1754 1151.5750 281.4745
f 418 419 420
v -3172.0021 1167.7566 284.4687
v -3074.1783 1143.2372 284.9259
v -3072.1754 1151.5750 281.4745
f 421 422 423
v -3074.3615 1142.4777 285.2400
v -3074.1783 1143.2372 284.9259
v -3172.3644 1166.2486 285.0917
f 424 425 426
v -3072.1754 1151.5750 281.4745
v -3071.7634 1153.2907 280.7645
v -3072.1733 1153.3289 280.7883
f 427 428 429
v -3072.1733 1153.3289 280.7883
v -3071.7634 1153.2907 280.7645
v -3072.1592 1153.3858 280.7643
f 430 431 432
v -3074.5569 1141.6633 285.5770
v -3074.3615 1142.4777 285.2400
v -3172.6154 1165.2035 285.5248
f 433 434 435
v -3175.4636 1152.7363 280.8808
v -3175.3494 1153.2140 281.0598
v -3175.5995 1152.7686 280.8807
f 436 437 438
v -3077.9876 1129.4158 280.9647
v -3074.5569 1141.6633 285.5770
v -3101.4479 1135.1507 280.9873
f 439 440 441
v -3125.1310 1140.9392 281.0107
v -3101.4479 1135.1507 280.9873
v -3074.5569 1141.6633 285.5770
f 442 443 444
v -3074.5569 1141.6633 285.5770
v -3148.3885 1146.6237 281.0333
v -3125.1310 1140.9392 281.0107
f 445 446 447
v -3074.5569 1141.6633 285.5770
v -3171.8328 1152.3546 281.0557
v -3148.3885 1146.6237 281.0333
f 448 449 450
v -3077.5401 1129.2266 280.9329
v -3074.5569 1141.6633 285.5770
v -3077.9876 1129.4158 280.9647
f 451 452 453
v -3077.9876 1129.4158 280.9647
v -3078.0108 1129.3318 280.9327
v -3077.5401 1129.2266 280.9329
f 454 455 456
v -3175.3494 1153.2140 281.0598
v -3175.3451 1153.2122 272.0571
v -3171.8328 1152.3546 281.0557
f 457 458 459
v -3072.1733 1153.3289 280.7883
v -3072.1592 1153.3858 280.7643
v -3072.1551 1153.3840 272.1076
f 460 461 462
v -3072.1693 1153.3271 272.1076
v -3072.1733 1153.3289 280.7883
v -3072.1551 1153.3840 272.1076
f 463 464 465
v -3078.6859 1154.9220 274.2621
v -3081.9457 1155.7197 274.2544
v -3081.9487 1155.7211 280.7651
f 466 467 468
v -3075.4392 1154.1276 280.7806
v -3078.6859 1154.9220 274.2621
v -3078.6890 1154.9233 280.7729
f 469 470 471
v -3081.9457 1155.7197 274.2544
v -3083.5746 1156.1186 272.1016
v -3085.2035 1156.5170 272.1007
f 472 473 474
v -3081.9457 1155.7197 274.2544
v -3081.9447 1155.7193 272.1025
v -3083.5746 1156.1186 272.1016
f 475 476 477
v -3085.2035 1156.5170 272.1007
v -3085.2076 1156.5188 280.7574
v -3081.9457 1155.7197 274.2544
f 478 479 480
v -3081.9457 1155.7197 274.2544
v -3078.6859 1154.9220 274.2621
v -3080.3158 1155.3209 272.1033
f 481 482 483
v -3080.3158 1155.3209 272.1033
v -3078.6859 1154.9220 274.2621
v -3078.6869 1154.9226 272.1042
f 484 485 486
v -3081.9447 1155.7193 272.1025
v -3081.9457 1155.7197 274.2544
v -3080.3158 1155.3209 272.1033
f 487 488 489
v -3075.4392 1154.1276 280.7806
v -3072.1733 1153.3289 280.7883
v -3072.1693 1153.3271 272.1076
f 490 491 492
v -3076.2635 1154.3290 272.1054
v -3078.6859 1154.9220 274.2621
v -3075.4281 1154.1243 274.2698
f 493 494 495
v -3076.2635 1154.3290 272.1054
v -3075.4281 1154.1243 274.2698
v -3072.1693 1153.3271 272.1076
f 496 497 498
v -3078.6869 1154.9226 272.1042
v -3078.6859 1154.9220 274.2621
v -3076.2635 1154.3290 272.1054
f 499 500 501
v -3075.4281 1154.1243 274.2698
v -3075.4392 1154.1276 280.7806
v -3072.1693 1153.3271 272.1076
f 502 503 504
v -3169.8177 1176.8310 272.0556
v -3169.8219 1176.8327 280.7122
v -3085.2076 1156.5188 280.7574
f 505 506 507
v -3169.8177 1176.8310 272.0556
v -3085.2076 1156.5188 280.7574
v -3085.2035 1156.5170 272.1007
f 508 509 510
v -3072.1592 1153.3858 280.7643
v -3071.7594 1153.2890 272.1358
v -3072.1551 1153.3840 272.1076
f 511 512 513
v -3071.7594 1153.2890 272.1358
v -3071.7593 1153.2889 272.1078
v -3072.1551 1153.3840 272.1076
f 514 515 516
v -3071.7634 1153.2907 280.7645
v -3071.7594 1153.2890 272.1358
v -3072.1592 1153.3858 280.7643
f 517 518 519
v -3175.5995 1152.7686 280.8807
v -3175.5953 1152.7668 272.0570
v -3175.4636 1152.7363 280.8808
f 520 521 522
v -3175.4636 1152.7363 280.8808
v -3175.5953 1152.7668 272.0570
v -3175.4593 1152.7345 272.0571
f 523 524 525
v -3125.1310 1140.9392 281.0107
v -3101.4457 1135.1494 274.2396
v -3101.4479 1135.1507 280.9873
f 526 527 528
v -3148.6390 1146.6846 272.0715
v -3124.3113 1140.7383 272.0845
v -3125.1310 1140.9392 281.0107
f 529 530 531
v -3077.9834 1129.4140 272.1091
v -3077.9876 1129.4158 280.9647
v -3101.4479 1135.1507 280.9873
f 532 533 534
v -3105.3810 1136.1105 272.0946
v -3089.7136 1132.2814 272.1029
v -3101.4457 1135.1494 274.2396
f 535 536 537
v -3077.9834 1129.4140 272.1091
v -3101.4457 1135.1494 274.2396
v -3089.7136 1132.2814 272.1029
f 538 539 540
v -3101.4457 1135.1494 274.2396
v -3124.3113 1140.7383 272.0845
v -3105.3810 1136.1105 272.0946
f 541 542 543
v -3148.6390 1146.6846 272.0715
v -3148.3885 1146.6237 281.0333
v -3171.8328 1152.3546 281.0557
f 544 545 546
v -3148.6390 1146.6846 272.0715
v -3171.8328 1152.3546 281.0557
v -3175.3451 1153.2122 272.0571
f 547 548 549
v -3078.0066 1129.3300 272.1091
v -3078.0108 1129.3318 280.9327
v -3077.9834 1129.4140 272.1091
f 550 551 552
v -3077.9876 1129.4158 280.9647
v -3077.9834 1129.4140 272.1091
v -3078.0108 1129.3318 280.9327
f 553 554 555
v -3077.5359 1129.2248 272.1093
v -3077.5401 1129.2266 280.9329
v -3078.0108 1129.3318 280.9327
f 556 557 558
v -3176.5089 1148.9862 281.3170
v -3175.4003 1153.6056 282.9756
v -3205.3889 1155.9197 281.3013
f 559 560 561
v -3205.3889 1155.9197 281.3013
v -3273.3508 1177.1214 282.9219
v -3274.3937 1172.7769 281.3611
f 562 563 564
v -3274.3937 1172.7769 281.3611
v -3274.4594 1172.5030 281.2631
v -3205.3889 1155.9197 281.3013
f 565 566 567
v -3175.4003 1153.6056 282.9756
v -3273.3508 1177.1214 282.9219
v -3205.3889 1155.9197 281.3013
f 568 569 570
v -3274.4520 1172.4999 266.3747
v -3274.4594 1172.5030 281.2631
v -3274.3863 1172.7737 266.4727
f 571 572 573
v -3205.3816 1155.9167 266.4128
v -3205.3889 1155.9197 281.3013
v -3274.4594 1172.5030 281.2631
f 574 575 576
v -3176.5016 1148.9832 266.4285
v -3176.5089 1148.9862 281.3170
v -3205.3889 1155.9197 281.3013
f 577 578 579
v -3175.5995 1152.7686 280.8807
v -3174.8700 1155.8099 282.0165
v -3175.4003 1153.6056 282.9756
f 580 581 582
v -3175.5953 1152.7668 272.0570
v -3175.3931 1153.6024 268.0872
v -3174.4080 1157.7106 272.0567
f 583 584 585
v -3175.5953 1152.7668 272.0570
v -3175.5995 1152.7686 280.8807
v -3176.5089 1148.9862 281.3170
f 586 587 588
v -3175.4003 1153.6056 282.9756
v -3176.5089 1148.9862 281.3170
v -3175.5995 1152.7686 280.8807
f 589 590 591
v -3175.3931 1153.6024 268.0872
v -3175.5953 1152.7668 272.0570
v -3176.5016 1148.9832 266.4285
f 592 593 594
v -3176.5016 1148.9832 266.4285
v -3205.3816 1155.9167 266.4128
v -3175.3931 1153.6024 268.0872
f 595 596 597
v -3205.3816 1155.9167 266.4128
v -3274.3863 1172.7737 266.4727
v -3273.3434 1177.1183 268.0335
f 598 599 600
v -3274.3863 1172.7737 266.4727
v -3205.3816 1155.9167 266.4128
v -3274.4520 1172.4999 266.3747
f 601 602 603
v -3175.3931 1153.6024 268.0872
v -3205.3816 1155.9167 266.4128
v -3273.3434 1177.1183 268.0335
f 604 605 606
v -3273.3434 1177.1183 268.0335
v -3174.3849 1157.7984 266.2620
v -3175.3931 1153.6024 268.0872
f 607 608 609
v -3174.3849 1157.7984 266.2620
v -3273.3434 1177.1183 268.0335
v -3272.3353 1181.3141 266.2082
f 610 611 612
v -3174.3849 1157.7984 266.2620
v -3272.3353 1181.3141 266.2082
v -3269.9469 1191.2694 270.8535
f 613 614 615
v -3269.9469 1191.2694 270.8535
v -3171.9965 1167.7538 270.9072
v -3174.3849 1157.7984 266.2620
f 616 617 618
v -3170.0857 1177.2895 280.7380
v -3170.0542 1177.3833 265.7976
v -3170.0784 1177.2863 265.8496
f 619 620 621
v -3170.0857 1177.2895 280.7380
v -3170.0614 1177.3865 280.6860
v -3170.0542 1177.3833 265.7976
f 622 623 624
v -3222.7151 1190.1465 265.7079
v -3222.7223 1190.1498 280.5963
v -3203.3371 1185.4116 265.7605
f 625 626 627
v -3170.0784 1177.2863 265.8496
v -3201.2788 1184.9102 280.6540
v -3170.0857 1177.2895 280.7380
f 628 629 630
v -3169.7062 1177.2982 269.5207
v -3170.0614 1177.3865 280.6860
v -3169.7116 1177.3004 280.6872
f 631 632 633
v -3170.0784 1177.2863 265.8496
v -3171.9965 1167.7538 270.9072
v -3203.3371 1185.4116 265.7605
f 634 635 636
v -3169.7044 1177.2974 265.7988
v -3170.0784 1177.2863 265.8496
v -3170.0542 1177.3833 265.7976
f 637 638 639
v -3171.9965 1167.7538 270.9072
v -3269.9469 1191.2694 270.8535
v -3222.7151 1190.1465 265.7079
f 640 641 642
v -3222.7151 1190.1465 265.7079
v -3269.9469 1191.2694 270.8535
v -3267.6264 1200.9280 265.6830
f 643 644 645
v -3171.9965 1167.7538 270.9072
v -3222.7151 1190.1465 265.7079
v -3203.3371 1185.4116 265.7605
f 646 647 648
v -3169.7044 1177.2974 265.7988
v -3171.9965 1167.7538 270.9072
v -3170.0784 1177.2863 265.8496
f 649 650 651
v -3172.6154 1165.2035 285.5248
v -3174.3922 1157.8014 281.1504
v -3174.8700 1155.8099 282.0165
f 652 653 654
v -3174.3922 1157.8014 281.1504
v -3172.6154 1165.2035 285.5248
v -3172.6159 1165.2032 284.6039
f 655 656 657
v -3172.6159 1165.2032 284.6039
v -3172.6154 1165.2035 285.5248
v -3172.3644 1166.2486 285.0917
f 658 659 660
v -3174.3849 1157.7984 266.2620
v -3174.4080 1157.7106 272.0567
v -3175.3931 1153.6024 268.0872
f 661 662 663
v -3172.6089 1165.2007 272.0563
v -3171.9965 1167.7538 270.9072
v -3171.9960 1167.7540 272.0561
f 664 665 666
v -3174.3849 1157.7984 266.2620
v -3172.6089 1165.2007 272.0563
v -3174.4080 1157.7106 272.0567
f 667 668 669
v -3171.9965 1167.7538 270.9072
v -3172.6089 1165.2007 272.0563
v -3174.3849 1157.7984 266.2620
f 670 671 672
v -3172.0021 1167.7566 284.4687
v -3172.0037 1167.7568 285.7956
v -3172.3644 1166.2486 285.0917
f 673 674 675
v -3169.8177 1176.8310 272.0556
v -3169.7062 1177.2982 269.5207
v -3169.7116 1177.3004 280.6872
f 676 677 678
v -3171.9960 1167.7540 272.0561
v -3169.7044 1177.2974 265.7988
v -3169.7062 1177.2982 269.5207
f 679 680 681
v -3172.0021 1167.7566 284.4687
v -3169.8219 1176.8327 280.7122
v -3172.0037 1167.7568 285.7956
f 682 683 684
v -3169.7116 1177.3004 280.6872
v -3172.0037 1167.7568 285.7956
v -3169.8219 1176.8327 280.7122
f 685 686 687
v -3169.8219 1176.8327 280.7122
v -3169.8177 1176.8310 272.0556
v -3169.7116 1177.3004 280.6872
f 688 689 690
v -3169.7044 1177.2974 265.7988
v -3171.9960 1167.7540 272.0561
v -3171.9965 1167.7538 270.9072
f 691 692 693
v -3169.8177 1176.8310 272.0556
v -3171.9960 1167.7540 272.0561
v -3169.7062 1177.2982 269.5207
f 694 695 696
v -2994.7168 1113.6846 272.1794
v -2992.3403 1123.5891 272.1788
v -2994.3407 1115.2506 272.1793
f 697 698 699
v -2992.3403 1123.5891 272.1788
v -2994.7168 1113.6846 272.1794
v -3021.8577 1120.3214 272.1655
f 700 701 702
v -3028.9372 1142.7771 272.1581
v -3035.4285 1123.6407 272.1585
v -3074.3311 1142.5770 272.1365
f 703 704 705
v -3028.9372 1142.7771 272.1581
v -2992.3403 1123.5891 272.1788
v -3035.4285 1123.6407 272.1585
f 706 707 708
v -3035.4285 1123.6407 272.1585
v -2992.3403 1123.5891 272.1788
v -3021.8577 1120.3214 272.1655
f 709 710 711
v -3074.3311 1142.5770 272.1365
v -3035.4285 1123.6407 272.1585
v -3076.1402 1133.5960 272.1372
f 712 713 714
v -2999.7438 1135.6538 272.1732
v -2990.3379 1131.9256 272.1782
v -3009.4752 1138.0288 272.1682
f 715 716 717
v -3009.4752 1138.0288 272.1682
v -2990.3379 1131.9256 272.1782
v -2992.3403 1123.5891 272.1788
f 718 719 720
v -2990.3379 1131.9256 272.1782
v -2999.7438 1135.6538 272.1732
v -2990.0133 1133.2797 272.1782
f 721 722 723
v -3028.9372 1142.7771 272.1581
v -3019.2057 1140.4030 272.1632
v -2992.3403 1123.5891 272.1788
f 724 725 726
v -3019.2057 1140.4030 272.1632
v -3009.4752 1138.0288 272.1682
v -2992.3403 1123.5891 272.1788
f 727 728 729
v -3038.6677 1145.1522 272.1531
v -3028.9372 1142.7771 272.1581
v -3074.3311 1142.5770 272.1365
f 730 731 732
v -3071.3728 1153.1319 272.1360
v -3038.6677 1145.1522 272.1531
v -3074.3311 1142.5770 272.1365
f 733 734 735
v -3076.1402 1133.5960 272.1372
v -3076.2605 1133.1023 272.1373
v -3076.5863 1133.1802 272.1371
f 736 737 738
v -3074.3311 1142.5770 272.1365
v -3076.1402 1133.5960 272.1372
v -3076.5863 1133.1802 272.1371
f 739 740 741
v -3071.3728 1153.1319 272.1360
v -3074.3311 1142.5770 272.1365
v -3071.7594 1153.2890 272.1358
f 742 743 744
v -3071.7594 1153.2890 272.1358
v -3071.3576 1153.1929 272.1360
v -3071.3728 1153.1319 272.1360
f 745 746 747
v -3074.3615 1142.4777 285.2400
v -2992.3464 1123.5918 285.5643
v -3074.1796 1143.2373 285.5219
f 748 749 750
v -3074.5576 1141.6632 284.9370
v -2992.3464 1123.5918 285.5643
v -3074.3615 1142.4777 285.2400
f 751 752 753
v -3074.5576 1141.6632 284.9370
v -2994.3453 1115.2526 282.4669
v -2992.3464 1123.5918 285.5643
f 754 755 756
v -3076.1795 1134.8981 282.4246
v -2994.3453 1115.2526 282.4669
v -3074.5576 1141.6632 284.9370
f 757 758 759
v -3072.1758 1151.5752 282.4235
v -2992.3464 1123.5918 285.5643
v -2990.3426 1131.9276 282.4658
f 760 761 762
v -2992.3464 1123.5918 285.5643
v -3072.1758 1151.5752 282.4235
v -3074.1796 1143.2373 285.5219
f 763 764 765
v -3035.4697 1123.6507 281.0990
v -2994.3453 1115.2526 282.4669
v -3076.1795 1134.8981 282.4246
f 766 767 768
v -3076.1445 1133.5978 281.2438
v -3035.4697 1123.6507 281.0990
v -3076.1795 1134.8981 282.4246
f 769 770 771
v -3035.4697 1123.6507 281.0990
v -2994.7209 1113.6864 280.9541
v -2994.3453 1115.2526 282.4669
f 772 773 774
v -3076.1795 1134.8981 282.4246
v -3076.5904 1133.1820 280.7657
v -3076.1445 1133.5978 281.2438
f 775 776 777
v -3076.5904 1133.1820 280.7657
v -3076.2646 1133.1041 280.7659
v -3076.1445 1133.5978 281.2438
f 778 779 780
v -3029.0433 1142.8042 280.9978
v -3048.4073 1147.5291 280.9177
v -2990.3426 1131.9276 282.4658
f 781 782 783
v -3071.3769 1153.1337 280.8237
v -2990.3426 1131.9276 282.4658
v -3048.4073 1147.5291 280.9177
f 784 785 786
v -2990.0174 1133.2815 281.1579
v -3009.6133 1138.0631 281.0768
v -2990.3426 1131.9276 282.4658
f 787 788 789
v -3029.0433 1142.8042 280.9978
v -2990.3426 1131.9276 282.4658
v -3009.6133 1138.0631 281.0768
f 790 791 792
v -3072.1758 1151.5752 282.4235
v -3071.3769 1153.1337 280.8237
v -3071.3617 1153.1947 280.7647
f 793 794 795
v -3072.1758 1151.5752 282.4235
v -2990.3426 1131.9276 282.4658
v -3071.3769 1153.1337 280.8237
f 796 797 798
v -3071.7634 1153.2907 280.7645
v -3072.1758 1151.5752 282.4235
v -3071.3617 1153.1947 280.7647
f 799 800 801
v -2992.3403 1123.5891 272.1788
v -2992.3464 1123.5918 285.5643
v -2994.3453 1115.2526 282.4669
f 802 803 804
v -2990.3379 1131.9256 272.1782
v -2990.3426 1131.9276 282.4658
v -2992.3403 1123.5891 272.1788
f 805 806 807
v -3076.1402 1133.5960 272.1372
v -3076.1445 1133.5978 281.2438
v -3076.2646 1133.1041 280.7659
f 808 809 810
v -3076.1402 1133.5960 272.1372
v -3076.2646 1133.1041 280.7659
v -3076.2605 1133.1023 272.1373
f 811 812 813
v -3035.4697 1123.6507 281.0990
v -3076.1402 1133.5960 272.1372
v -2994.7209 1113.6864 280.9541
f 814 815 816
v -3021.8577 1120.3214 272.1655
v -2994.7209 1113.6864 280.9541
v -3035.4285 1123.6407 272.1585
f 817 818 819
v -2994.7168 1113.6846 272.1794
v -2994.7209 1113.6864 280.9541
v -3021.8577 1120.3214 272.1655
f 820 821 822
v -3035.4697 1123.6507 281.0990
v -3076.1445 1133.5978 281.2438
v -3076.1402 1133.5960 272.1372
f 823 824 825
v -3035.4285 1123.6407 272.1585
v -2994.7209 1113.6864 280.9541
v -3076.1402 1133.5960 272.1372
f 826 827 828
v -2994.3407 1115.2506 272.1793
v -2994.3453 1115.2526 282.4669
v -2994.7209 1113.6864 280.9541
f 829 830 831
v -3076.5904 1133.1820 280.7657
v -3076.5863 1133.1802 272.1371
v -3076.2646 1133.1041 280.7659
f 832 833 834
v -3076.2646 1133.1041 280.7659
v -3076.5863 1133.1802 272.1371
v -3076.2605 1133.1023 272.1373
f 835 836 837
v -3029.0401 1142.8028 274.2630
v -3048.4041 1147.5278 274.1829
v -3048.4073 1147.5291 280.9177
f 838 839 840
v -3048.4073 1147.5291 280.9177
v -3048.4041 1147.5278 274.1829
v -3071.3769 1153.1337 280.8237
f 841 842 843
v -3029.0401 1142.8028 274.2630
v -3038.6677 1145.1522 272.1531
v -3048.4041 1147.5278 274.1829
f 844 845 846
v -3048.4041 1147.5278 274.1829
v -3038.6677 1145.1522 272.1531
v -3071.3728 1153.1319 272.1360
f 847 848 849
v -3009.6133 1138.0631 281.0768
v -3009.6102 1138.0616 274.3420
v -3029.0433 1142.8042 280.9978
f 850 851 852
v -3009.6102 1138.0616 274.3420
v -3009.6133 1138.0631 281.0768
v -2990.0174 1133.2815 281.1579
f 853 854 855
v -2990.0174 1133.2815 281.1579
v -2990.0143 1133.2802 274.4231
v -3009.6102 1138.0616 274.3420
f 856 857 858
v -3019.2057 1140.4030 272.1632
v -3029.0401 1142.8028 274.2630
v -3009.6102 1138.0616 274.3420
f 859 860 861
v -3029.0401 1142.8028 274.2630
v -3019.2057 1140.4030 272.1632
v -3028.9372 1142.7771 272.1581
f 862 863 864
v -3019.2057 1140.4030 272.1632
v -3009.6102 1138.0616 274.3420
v -3009.4752 1138.0288 272.1682
f 865 866 867
v -3038.6677 1145.1522 272.1531
v -3029.0401 1142.8028 274.2630
v -3028.9372 1142.7771 272.1581
f 868 869 870
v -3009.4752 1138.0288 272.1682
v -3009.6102 1138.0616 274.3420
v -2999.7438 1135.6538 272.1732
f 871 872 873
v -2990.0143 1133.2802 274.4231
v -2999.7438 1135.6538 272.1732
v -3009.6102 1138.0616 274.3420
f 874 875 876
v -2990.0143 1133.2802 274.4231
v -2990.0133 1133.2797 272.1782
v -2999.7438 1135.6538 272.1732
f 877 878 879
v -2990.0143 1133.2802 274.4231
v -2990.0174 1133.2815 281.1579
v -2990.3379 1131.9256 272.1782
f 880 881 882
v -2990.3426 1131.9276 282.4658
v -2990.3379 1131.9256 272.1782
v -2990.0174 1133.2815 281.1579
f 883 884 885
v -2990.0143 1133.2802 274.4231
v -2990.3379 1131.9256 272.1782
v -2990.0133 1133.2797 272.1782
f 886 887 888
v -3048.4041 1147.5278 274.1829
v -3071.3728 1153.1319 272.1360
v -3071.3769 1153.1337 280.8237
f 889 890 891
v -3071.3576 1153.1929 272.1360
v -3071.3617 1153.1947 280.7647
v -3071.3769 1153.1337 280.8237
f 892 893 894
v -3071.3728 1153.1319 272.1360
v -3071.3576 1153.1929 272.1360
v -3071.3769 1153.1337 280.8237
f 895 896 897
v -3071.7594 1153.2890 272.1358
v -3071.7634 1153.2907 280.7645
v -3071.3576 1153.1929 272.1360
f 898 899 900
v -3071.3617 1153.1947 280.7647
v -3071.3576 1153.1929 272.1360
v -3071.7634 1153.2907 280.7645
f 901 902 903
v -3074.5576 1141.6632 284.9370
v -3074.3615 1142.4777 285.2400
v -3074.5569 1141.6633 285.5770
f 904 905 906
v -3074.5506 1141.6606 272.1085
v -3071.7593 1153.2889 272.1078
v -3071.7594 1153.2890 272.1358
f 907 908 909
v -3071.7594 1153.2890 272.1358
v -3074.3311 1142.5770 272.1365
v -3074.5506 1141.6606 272.1085
f 910 911 912
v -3077.5359 1129.2248 272.1093
v -3074.5506 1141.6606 272.1085
v -3074.3311 1142.5770 272.1365
f 913 914 915
v -3076.1795 1134.8981 282.4246
v -3074.5576 1141.6632 284.9370
v -3074.5569 1141.6633 285.5770
f 916 917 918
v -3076.5904 1133.1820 280.7657
v -3076.1795 1134.8981 282.4246
v -3077.5401 1129.2266 280.9329
f 919 920 921
v -3074.5569 1141.6633 285.5770
v -3077.5401 1129.2266 280.9329
v -3076.1795 1134.8981 282.4246
f 922 923 924
v -3076.5863 1133.1802 272.1371
v -3076.5904 1133.1820 280.7657
v -3077.5359 1129.2248 272.1093
f 925 926 927
v -3074.3311 1142.5770 272.1365
v -3076.5863 1133.1802 272.1371
v -3077.5359 1129.2248 272.1093
f 928 929 930
v -3074.1783 1143.2372 284.9259
v -3074.3615 1142.4777 285.2400
v -3074.1796 1143.2373 285.5219
f 931 932 933
v -3072.1758 1151.5752 282.4235
v -3074.1783 1143.2372 284.9259
v -3074.1796 1143.2373 285.5219
f 934 935 936
v -3074.1783 1143.2372 284.9259
v -3072.1758 1151.5752 282.4235
v -3072.1754 1151.5750 281.4745
f 937 938 939
v -3071.7634 1153.2907 280.7645
v -3072.1754 1151.5750 281.4745
v -3072.1758 1151.5752 282.4235
f 940 941 942
v -3267.0112 1200.7815 280.5718
v -3266.9463 1201.0565 272.1171
v -3266.9506 1201.0584 280.7748
f 943 944 945
v -3266.9463 1201.0565 272.1171
v -3267.0112 1200.7815 280.5718
v -3267.0070 1200.7797 272.1171
f 946 947 948
v -3266.9506 1201.0584 280.7748
v -3267.6406 1197.9345 282.0899
v -3267.0112 1200.7815 280.5718
f 949 950 951
v -3273.3670 1177.0509 280.7220
v -3273.3627 1177.0491 272.1183
v -3274.3937 1172.7769 281.3611
f 952 953 954
v -3273.3508 1177.1214 282.9219
v -3273.3670 1177.0509 280.7220
v -3274.3937 1172.7769 281.3611
f 955 956 957
v -3273.3627 1177.0491 272.1183
v -3273.3434 1177.1183 268.0335
v -3274.3863 1172.7737 266.4727
f 958 959 960
v -3273.3445 1177.1241 272.1183
v -3273.3434 1177.1183 268.0335
v -3273.3627 1177.0491 272.1183
f 961 962 963
v -3273.3670 1177.0509 280.7220
v -3273.3508 1177.1214 282.9219
v -3273.3488 1177.1248 280.7520
f 964 965 966
v -3174.8700 1155.8099 282.0165
v -3273.3508 1177.1214 282.9219
v -3175.4003 1153.6056 282.9756
f 967 968 969
v -3174.3922 1157.8014 281.1504
v -3271.9718 1179.5464 281.7891
v -3174.8700 1155.8099 282.0165
f 970 971 972
v -3174.8700 1155.8099 282.0165
v -3271.9718 1179.5464 281.7891
v -3273.3508 1177.1214 282.9219
f 973 974 975
v -3272.7243 1179.7275 281.7877
v -3273.3508 1177.1214 282.9219
v -3271.9718 1179.5464 281.7891
f 976 977 978
v -3174.3922 1157.8014 281.1504
v -3271.5772 1181.1332 281.0971
v -3271.9718 1179.5464 281.7891
f 979 980 981
v -3273.3434 1177.1183 268.0335
v -3273.3445 1177.1241 272.1183
v -3272.3382 1181.3153 272.1180
f 982 983 984
v -3273.3488 1177.1248 280.7520
v -3273.3508 1177.1214 282.9219
v -3272.7243 1179.7275 281.7877
f 985 986 987
v -3172.0037 1167.7568 285.7956
v -3269.9543 1191.2727 285.7419
v -3269.3470 1190.2139 285.3394
f 988 989 990
v -3270.1615 1190.4091 285.3389
v -3269.3470 1190.2139 285.3394
v -3269.9543 1191.2727 285.7419
f 991 992 993
v -3271.5772 1181.1332 281.0971
v -3172.6159 1165.2032 284.6039
v -3269.5361 1189.3543 284.9404
f 994 995 996
v -3269.3470 1190.2139 285.3394
v -3172.3644 1166.2486 285.0917
v -3172.0037 1167.7568 285.7956
f 997 998 999
v -3172.6159 1165.2032 284.6039
v -3172.3644 1166.2486 285.0917
v -3269.5361 1189.3543 284.9404
f 1000 1001 1002
v -3269.5361 1189.3543 284.9404
v -3172.3644 1166.2486 285.0917
v -3269.3470 1190.2139 285.3394
f 1003 1004 1005
v -3174.3922 1157.8014 281.1504
v -3172.6159 1165.2032 284.6039
v -3271.5772 1181.1332 281.0971
f 1006 1007 1008
v -3269.9475 1191.2698 272.1174
v -3272.3353 1181.3141 266.2082
v -3272.3382 1181.3153 272.1180
f 1009 1010 1011
v -3272.3353 1181.3141 266.2082
v -3269.9475 1191.2698 272.1174
v -3269.9469 1191.2694 270.8535
f 1012 1013 1014
v -3267.6406 1197.9345 282.0899
v -3268.3162 1198.0934 282.0905
v -3269.9543 1191.2727 285.7419
f 1015 1016 1017
v -3267.6406 1197.9345 282.0899
v -3172.0037 1167.7568 285.7956
v -3170.0857 1177.2895 280.7380
f 1018 1019 1020
v -3172.0037 1167.7568 285.7956
v -3267.6406 1197.9345 282.0899
v -3269.9543 1191.2727 285.7419
f 1021 1022 1023
v -3170.0857 1177.2895 280.7380
v -3201.2788 1184.9102 280.6540
v -3267.6406 1197.9345 282.0899
f 1024 1025 1026
v -3222.7223 1190.1498 280.5963
v -3267.0112 1200.7815 280.5718
v -3267.6406 1197.9345 282.0899
f 1027 1028 1029
v -3201.2788 1184.9102 280.6540
v -3222.7223 1190.1498 280.5963
v -3267.6406 1197.9345 282.0899
f 1030 1031 1032
v -3170.0614 1177.3865 280.6860
v -3170.0857 1177.2895 280.7380
v -3169.7116 1177.3004 280.6872
f 1033 1034 1035
v -3169.7116 1177.3004 280.6872
v -3170.0857 1177.2895 280.7380
v -3172.0037 1167.7568 285.7956
f 1036 1037 1038
v -3222.7223 1190.1498 280.5963
v -3267.6264 1200.9280 265.6830
v -3267.0070 1200.7797 272.1171
f 1039 1040 1041
v -3267.6296 1200.9294 272.1167
v -3267.0070 1200.7797 272.1171
v -3267.6264 1200.9280 265.6830
f 1042 1043 1044
v -3267.0070 1200.7797 272.1171
v -3267.0112 1200.7815 280.5718
v -3222.7223 1190.1498 280.5963
f 1045 1046 1047
v -3267.6264 1200.9280 265.6830
v -3222.7223 1190.1498 280.5963
v -3222.7151 1190.1465 265.7079
f 1048 1049 1050
v -3267.6264 1200.9280 265.6830
v -3269.9469 1191.2694 270.8535
v -3269.9475 1191.2698 272.1174
f 1051 1052 1053
v -3269.9475 1191.2698 272.1174
v -3267.6296 1200.9294 272.1167
v -3267.6264 1200.9280 265.6830
f 1054 1055 1056
v -3270.1615 1190.4091 285.3389
v -3269.9543 1191.2727 285.7419
v -3268.3162 1198.0934 282.0905
f 1057 1058 1059
v -3365.1355 1225.0850 286.1060
v -3365.9319 1225.2801 286.1036
v -3365.1598 1224.9880 286.1420
f 1060 1061 1062
v -3345.6529 1220.2137 286.1862
v -3352.5009 1215.7476 288.3614
v -3348.5131 1208.3085 290.6748
f 1063 1064 1065
v -3350.5296 1221.4078 286.1754
v -3351.3127 1220.6920 286.4971
v -3345.6529 1220.2137 286.1862
f 1066 1067 1068
v -3345.6529 1220.2137 286.1862
v -3351.3127 1220.6920 286.4971
v -3352.5009 1215.7476 288.3614
f 1069 1070 1071
v -3351.3127 1220.6920 286.4971
v -3365.1598 1224.9880 286.1420
v -3365.9563 1225.1822 286.1406
f 1072 1073 1074
v -3350.5296 1221.4078 286.1754
v -3365.1598 1224.9880 286.1420
v -3351.3127 1220.6920 286.4971
f 1075 1076 1077
v -3400.3840 1220.7607 290.6450
v -3348.5131 1208.3085 290.6748
v -3352.5009 1215.7476 288.3614
f 1078 1079 1080
v -3396.4240 1231.5220 286.4712
v -3389.5924 1230.9576 286.0910
v -3397.4711 1232.8827 286.0744
f 1081 1082 1083
v -3389.5924 1230.9576 286.0910
v -3396.4240 1231.5220 286.4712
v -3365.9563 1225.1822 286.1406
f 1084 1085 1086
v -3397.6123 1226.5767 288.3355
v -3400.3840 1220.7607 290.6450
v -3352.5009 1215.7476 288.3614
f 1087 1088 1089
v -3397.4711 1232.8827 286.0744
v -3397.6123 1226.5767 288.3355
v -3396.4240 1231.5220 286.4712
f 1090 1091 1092
v -3397.6123 1226.5767 288.3355
v -3397.4711 1232.8827 286.0744
v -3400.3840 1220.7607 290.6450
f 1093 1094 1095
v -3351.3127 1220.6920 286.4971
v -3365.9563 1225.1822 286.1406
v -3396.4240 1231.5220 286.4712
f 1096 1097 1098
v -3365.9319 1225.2801 286.1036
v -3365.9563 1225.1822 286.1406
v -3365.1598 1224.9880 286.1420
f 1099 1100 1101
v -3365.9319 1225.2801 286.1036
v -3365.1283 1225.0820 272.1345
v -3365.9248 1225.2771 272.1341
f 1102 1103 1104
v -3365.1283 1225.0820 272.1345
v -3365.9319 1225.2801 286.1036
v -3365.1355 1225.0850 286.1060
f 1105 1106 1107
v -3365.9319 1225.2801 286.1036
v -3365.9490 1225.1792 272.1341
v -3365.9563 1225.1822 286.1406
f 1108 1109 1110
v -3365.9319 1225.2801 286.1036
v -3365.9248 1225.2771 272.1341
v -3365.9490 1225.1792 272.1341
f 1111 1112 1113
v -3389.5924 1230.9576 286.0910
v -3397.4711 1232.8827 286.0474
v -3397.4711 1232.8827 286.0744
f 1114 1115 1116
v -3365.9563 1225.1822 286.1406
v -3390.5516 1231.1911 276.1017
v -3389.5924 1230.9576 286.0910
f 1117 1118 1119
v -3390.5516 1231.1911 276.1017
v -3365.9563 1225.1822 286.1406
v -3365.9490 1225.1792 272.1341
f 1120 1121 1122
v -3395.1485 1232.3135 272.1443
v -3390.5516 1231.1911 276.1017
v -3391.4979 1231.4217 272.1194
f 1123 1124 1125
v -3390.5516 1231.1911 276.1017
v -3377.2934 1227.9516 272.1276
v -3391.4979 1231.4217 272.1194
f 1126 1127 1128
v -3377.2934 1227.9516 272.1276
v -3390.5516 1231.1911 276.1017
v -3365.9490 1225.1792 272.1341
f 1129 1130 1131
v -3390.5516 1231.1911 276.1017
v -3395.1485 1232.3135 272.1443
v -3397.4711 1232.8827 286.0474
f 1132 1133 1134
v -3399.8201 1223.1069 289.4840
v -3400.3830 1220.7602 288.6231
v -3400.3840 1220.7607 290.6450
f 1135 1136 1137
v -3397.4711 1232.8827 286.0474
v -3399.8201 1223.1069 289.4840
v -3397.4711 1232.8827 286.0744
f 1138 1139 1140
v -3400.3840 1220.7607 290.6450
v -3397.4711 1232.8827 286.0744
v -3399.8201 1223.1069 289.4840
f 1141 1142 1143
v -3365.1283 1225.0820 272.1345
v -3365.1355 1225.0850 286.1060
v -3365.1526 1224.9850 272.1345
f 1144 1145 1146
v -3365.1598 1224.9880 286.1420
v -3365.1526 1224.9850 272.1345
v -3365.1355 1225.0850 286.1060
f 1147 1148 1149
v -3371.9415 1201.1466 272.1355
v -3371.1660 1200.9496 272.1359
v -3371.1732 1200.9525 285.9943
f 1150 1151 1152
v -3371.1660 1200.9496 272.1359
v -3371.1418 1201.0465 272.1359
v -3371.1490 1201.0495 286.0313
f 1153 1154 1155
v -3371.1490 1201.0495 286.0313
v -3371.1732 1200.9525 285.9943
v -3371.1660 1200.9496 272.1359
f 1156 1157 1158
v -3356.3451 1197.4249 282.5410
v -3351.4105 1196.2163 280.8398
v -3351.4132 1196.2175 286.0086
f 1159 1160 1161
v -3351.8318 1196.3189 277.9428
v -3351.4105 1196.2163 280.8398
v -3356.1904 1197.3864 277.1203
f 1162 1163 1164
v -3356.3451 1197.4249 282.5410
v -3356.1904 1197.3864 277.1203
v -3351.4105 1196.2163 280.8398
f 1165 1166 1167
v -3351.8303 1196.3183 275.0449
v -3351.8318 1196.3189 277.9428
v -3356.1904 1197.3864 277.1203
f 1168 1169 1170
v -3352.2545 1196.4218 272.1557
v -3351.8303 1196.3183 275.0449
v -3356.1904 1197.3864 277.1203
f 1171 1172 1173
v -3359.7606 1198.2609 286.0189
v -3356.3451 1197.4249 282.5410
v -3351.4132 1196.2175 286.0086
f 1174 1175 1176
v -3356.2318 1197.3965 272.1445
v -3352.2545 1196.4218 272.1557
v -3356.1904 1197.3864 277.1203
f 1177 1178 1179
v -3356.1904 1197.3864 277.1203
v -3359.7606 1198.2609 286.0189
v -3371.1490 1201.0495 286.0313
f 1180 1181 1182
v -3356.2318 1197.3965 272.1445
v -3356.1904 1197.3864 277.1203
v -3371.1418 1201.0465 272.1359
f 1183 1184 1185
v -3371.1490 1201.0495 286.0313
v -3371.1418 1201.0465 272.1359
v -3356.1904 1197.3864 277.1203
f 1186 1187 1188
v -3402.1787 1213.2766 285.8757
v -3402.1797 1213.2770 287.7566
v -3400.3830 1220.7602 288.6231
f 1189 1190 1191
v -3396.4249 1231.5224 288.1632
v -3352.5009 1215.7476 288.3614
v -3351.3135 1220.6923 288.1890
f 1192 1193 1194
v -3352.5009 1215.7476 288.3614
v -3396.4249 1231.5224 288.1632
v -3397.6123 1226.5767 288.3355
f 1195 1196 1197
v -3351.3127 1220.6920 286.4971
v -3351.3135 1220.6923 288.1890
v -3352.5009 1215.7476 288.3614
f 1198 1199 1200
v -3396.4240 1231.5220 286.4712
v -3396.4249 1231.5224 288.1632
v -3351.3127 1220.6920 286.4971
f 1201 1202 1203
v -3396.4240 1231.5220 286.4712
v -3397.6123 1226.5767 288.3355
v -3396.4249 1231.5224 288.1632
f 1204 1205 1206
v -3393.8380 1221.6691 272.0180
v -3396.2044 1211.8146 272.0186
v -3401.5099 1213.1119 272.0156
f 1207 1208 1209
v -3463.0888 1248.9157 271.9757
v -3393.8380 1221.6691 272.0180
v -3467.8743 1229.3389 271.9768
f 1210 1211 1212
v -3401.5099 1213.1119 272.0156
v -3467.8743 1229.3389 271.9768
v -3393.8380 1221.6691 272.0180
f 1213 1214 1215
v -3463.0888 1248.9157 271.9757
v -3467.8743 1229.3389 271.9768
v -3466.8439 1239.1950 271.9754
f 1216 1217 1218
v -3391.4978 1231.4217 272.0174
v -3393.8380 1221.6691 272.0180
v -3400.9685 1233.7361 272.0120
f 1219 1220 1221
v -3400.9685 1233.7361 272.0120
v -3393.8380 1221.6691 272.0180
v -3463.0888 1248.9157 271.9757
f 1222 1223 1224
v -3468.6930 1229.4481 271.9763
v -3467.8743 1229.3389 271.9768
v -3467.8996 1229.2420 271.9768
f 1225 1226 1227
v -3469.3378 1228.8019 271.9761
v -3468.6930 1229.4481 271.9763
v -3468.8891 1228.6936 271.9764
f 1228 1229 1230
v -3466.8439 1239.1950 271.9754
v -3468.6930 1229.4481 271.9763
v -3469.3378 1228.8019 271.9761
f 1231 1232 1233
v -3466.8439 1239.1950 271.9754
v -3467.8743 1229.3389 271.9768
v -3468.6930 1229.4481 271.9763
f 1234 1235 1236
v -3463.0656 1249.0127 271.9757
v -3463.0888 1248.9157 271.9757
v -3464.4046 1249.3533 271.9749
f 1237 1238 1239
v -3466.8439 1239.1950 271.9754
v -3464.4046 1249.3533 271.9749
v -3463.0888 1248.9157 271.9757
f 1240 1241 1242
v -3466.8439 1239.1950 272.0714
v -3469.3378 1228.8019 271.9761
v -3469.3378 1228.8019 272.0721
f 1243 1244 1245
v -3469.3378 1228.8019 271.9761
v -3466.8439 1239.1950 272.0714
v -3466.8439 1239.1950 271.9754
f 1246 1247 1248
v -3468.8891 1228.6936 271.9764
v -3468.8963 1228.6966 285.6299
v -3469.3428 1228.8039 281.5618
f 1249 1250 1251
v -3469.3428 1228.8039 281.5618
v -3469.3378 1228.8019 272.0721
v -3468.8891 1228.6936 271.9764
f 1252 1253 1254
v -3469.3378 1228.8019 271.9761
v -3468.8891 1228.6936 271.9764
v -3469.3378 1228.8019 272.0721
f 1255 1256 1257
v -3466.8168 1239.3311 281.8271
v -3466.8531 1239.1988 289.4448
v -3464.4097 1249.3554 281.5745
f 1258 1259 1260
v -3464.4120 1249.3563 285.8743
v -3464.4097 1249.3554 281.5745
v -3466.8531 1239.1988 289.4448
f 1261 1262 1263
v -3482.0952 1253.1649 281.4301
v -3480.2509 1242.2552 282.0812
v -3478.6728 1252.9187 281.4270
f 1264 1265 1266
v -3480.2509 1242.2552 282.0812
v -3482.0952 1253.1649 281.4301
v -3492.9164 1243.4652 282.0741
f 1267 1268 1269
v -3495.8254 1254.1497 281.5674
v -3492.9164 1243.4652 282.0741
v -3482.0952 1253.1649 281.4301
f 1270 1271 1272
v -3492.9164 1243.4652 282.0741
v -3495.8254 1254.1497 281.5674
v -3500.3860 1253.1891 281.6781
f 1273 1274 1275
v -3500.2985 1254.4708 281.6119
v -3500.3860 1253.1891 281.6781
v -3495.8254 1254.1497 281.5674
f 1276 1277 1278
v -3492.9164 1243.4652 282.0741
v -3510.3353 1251.1838 281.7900
v -3512.3819 1251.3374 281.7889
f 1279 1280 1281
v -3533.2250 1246.4294 282.0513
v -3492.9164 1243.4652 282.0741
v -3512.3819 1251.3374 281.7889
f 1282 1283 1284
v -3512.3819 1251.3374 281.7889
v -3513.8606 1251.4483 281.7881
v -3533.2250 1246.4294 282.0513
f 1285 1286 1287
v -3500.3860 1253.1891 281.6781
v -3500.5776 1250.3516 281.8006
v -3492.9164 1243.4652 282.0741
f 1288 1289 1290
v -3492.9164 1243.4652 282.0741
v -3500.5776 1250.3516 281.8006
v -3510.3353 1251.1838 281.7900
f 1291 1292 1293
v -3478.6728 1252.9187 281.4270
v -3480.2509 1242.2552 282.0812
v -3464.5616 1249.3948 281.5774
f 1294 1295 1296
v -3478.6728 1252.9187 281.4270
v -3464.5616 1249.3948 281.5774
v -3478.3049 1252.8926 281.4272
f 1297 1298 1299
v -3487.4486 1232.9025 281.7011
v -3482.3361 1231.6648 281.6732
v -3487.3668 1233.9803 281.7600
f 1300 1301 1302
v -3475.9043 1230.1065 281.6150
v -3480.2509 1242.2552 282.0812
v -3482.3361 1231.6648 281.6732
f 1303 1304 1305
v -3475.9043 1230.1065 281.6150
v -3469.4795 1228.5513 281.5568
v -3480.2509 1242.2552 282.0812
f 1306 1307 1308
v -3487.2953 1234.9251 281.7968
v -3482.3361 1231.6648 281.6732
v -3487.2403 1235.6469 281.8247
f 1309 1310 1311
v -3487.3668 1233.9803 281.7600
v -3482.3361 1231.6648 281.6732
v -3487.2953 1234.9251 281.7968
f 1312 1313 1314
v -3480.2509 1242.2552 282.0812
v -3487.2403 1235.6469 281.8247
v -3482.3361 1231.6648 281.6732
f 1315 1316 1317
v -3546.6181 1245.1344 281.9201
v -3533.2250 1246.4294 282.0513
v -3553.6686 1245.6964 281.9141
f 1318 1319 1320
v -3571.0887 1249.6591 282.0296
v -3553.6686 1245.6964 281.9141
v -3533.2250 1246.4294 282.0513
f 1321 1322 1323
v -3553.6686 1245.6964 281.9141
v -3571.0887 1249.6591 282.0296
v -3563.8942 1246.5108 281.9052
f 1324 1325 1326
v -3571.0887 1249.6591 282.0296
v -3574.3029 1247.3397 281.8962
v -3563.8942 1246.5108 281.9052
f 1327 1328 1329
v -3544.2977 1244.9502 281.9244
v -3533.2250 1246.4294 282.0513
v -3546.6181 1245.1344 281.9201
f 1330 1331 1332
v -3533.2250 1246.4294 282.0513
v -3544.2977 1244.9502 281.9244
v -3512.6991 1240.4643 281.9057
f 1333 1334 1335
v -3510.1617 1240.2726 281.9112
v -3533.2250 1246.4294 282.0513
v -3512.6991 1240.4643 281.9057
f 1336 1337 1338
v -3544.4623 1242.8366 281.8317
v -3512.6991 1240.4643 281.9057
v -3544.2977 1244.9502 281.9244
f 1339 1340 1341
v -3570.6703 1255.7168 281.6816
v -3576.4361 1256.1493 281.6813
v -3571.0887 1249.6591 282.0296
f 1342 1343 1344
v -3570.6703 1255.7168 281.6816
v -3571.0887 1249.6591 282.0296
v -3564.9475 1255.2865 281.6809
f 1345 1346 1347
v -3561.1234 1254.9992 281.6812
v -3571.0887 1249.6591 282.0296
v -3533.2250 1246.4294 282.0513
f 1348 1349 1350
v -3561.1234 1254.9992 281.6812
v -3564.9475 1255.2865 281.6809
v -3571.0887 1249.6591 282.0296
f 1351 1352 1353
v -3533.2250 1246.4294 282.0513
v -3513.8606 1251.4483 281.7881
v -3527.2566 1252.4543 281.7575
f 1354 1355 1356
v -3533.2250 1246.4294 282.0513
v -3546.9764 1253.9362 281.7133
v -3561.1234 1254.9992 281.6812
f 1357 1358 1359
v -3533.2250 1246.4294 282.0513
v -3527.2566 1252.4543 281.7575
v -3546.9764 1253.9362 281.7133
f 1360 1361 1362
v -3576.4361 1256.1493 281.6813
v -3579.6034 1256.3878 281.6865
v -3579.7835 1254.1243 281.8198
f 1363 1364 1365
v -3571.0887 1249.6591 282.0296
v -3579.7835 1254.1243 281.8198
v -3580.0599 1250.6562 282.0244
f 1366 1367 1368
v -3576.4361 1256.1493 281.6813
v -3579.7835 1254.1243 281.8198
v -3571.0887 1249.6591 282.0296
f 1369 1370 1371
v -3580.0599 1250.6562 282.0244
v -3580.2865 1247.8168 281.8828
v -3577.3002 1247.5788 281.8895
f 1372 1373 1374
v -3571.0887 1249.6591 282.0296
v -3577.3002 1247.5788 281.8895
v -3574.3029 1247.3397 281.8962
f 1375 1376 1377
v -3580.0599 1250.6562 282.0244
v -3577.3002 1247.5788 281.8895
v -3571.0887 1249.6591 282.0296
f 1378 1379 1380
v -3480.2509 1242.2552 282.0812
v -3487.0217 1238.5243 281.9253
v -3487.2403 1235.6469 281.8247
f 1381 1382 1383
v -3480.2509 1242.2552 282.0812
v -3492.9164 1243.4652 282.0741
v -3487.0217 1238.5243 281.9253
f 1384 1385 1386
v -3487.0217 1238.5243 281.9253
v -3492.9164 1243.4652 282.0741
v -3490.4400 1238.7825 281.9214
f 1387 1388 1389
v -3498.6122 1239.4005 281.9168
v -3490.4400 1238.7825 281.9214
v -3492.9164 1243.4652 282.0741
f 1390 1391 1392
v -3492.9164 1243.4652 282.0741
v -3510.1617 1240.2726 281.9112
v -3498.6122 1239.4005 281.9168
f 1393 1394 1395
v -3510.1617 1240.2726 281.9112
v -3492.9164 1243.4652 282.0741
v -3533.2250 1246.4294 282.0513
f 1396 1397 1398
v -3478.6728 1252.9187 281.4270
v -3482.0182 1253.1575 272.0605
v -3482.0952 1253.1649 281.4301
f 1399 1400 1401
v -3500.2934 1254.4687 272.0502
v -3500.2985 1254.4708 281.6119
v -3495.8254 1254.1497 281.5674
f 1402 1403 1404
v -3482.0182 1253.1575 272.0605
v -3500.2934 1254.4687 272.0502
v -3482.0952 1253.1649 281.4301
f 1405 1406 1407
v -3500.3860 1253.1891 281.6781
v -3500.2985 1254.4708 281.6119
v -3500.2934 1254.4687 272.0502
f 1408 1409 1410
v -3510.3353 1251.1838 281.7900
v -3513.8283 1251.4441 272.0434
v -3512.3819 1251.3374 281.7889
f 1411 1412 1413
v -3513.8283 1251.4441 272.0434
v -3510.3353 1251.1838 281.7900
v -3510.3301 1251.1817 272.0453
f 1414 1415 1416
v -3500.5725 1250.3495 272.0509
v -3500.5776 1250.3516 281.8006
v -3500.3860 1253.1891 281.6781
f 1417 1418 1419
v -3500.3860 1253.1891 281.6781
v -3500.3861 1253.1089 272.0504
v -3500.5725 1250.3495 272.0509
f 1420 1421 1422
v -3500.5776 1250.3516 281.8006
v -3500.5725 1250.3495 272.0509
v -3510.3353 1251.1838 281.7900
f 1423 1424 1425
v -3510.3353 1251.1838 281.7900
v -3500.5725 1250.3495 272.0509
v -3510.3301 1251.1817 272.0453
f 1426 1427 1428
v -3464.4046 1249.3533 272.0709
v -3478.2999 1252.8906 272.0626
v -3464.5616 1249.3948 281.5774
f 1429 1430 1431
v -3478.2999 1252.8906 272.0626
v -3482.0182 1253.1575 272.0605
v -3478.6728 1252.9187 281.4270
f 1432 1433 1434
v -3478.2999 1252.8906 272.0626
v -3478.6728 1252.9187 281.4270
v -3478.3049 1252.8926 281.4272
f 1435 1436 1437
v -3469.3378 1228.8019 272.0721
v -3469.3428 1228.8039 281.5618
v -3469.4086 1228.5341 281.5548
f 1438 1439 1440
v -3487.4435 1232.9004 272.0614
v -3487.4486 1232.9025 281.7011
v -3487.3274 1234.4312 272.0612
f 1441 1442 1443
v -3482.3361 1231.6648 281.6732
v -3487.4435 1232.9004 272.0614
v -3481.5304 1231.4686 272.0649
f 1444 1445 1446
v -3487.4435 1232.9004 272.0614
v -3482.3361 1231.6648 281.6732
v -3487.4486 1232.9025 281.7011
f 1447 1448 1449
v -3475.9043 1230.1065 281.6150
v -3469.4086 1228.5341 281.5548
v -3469.4795 1228.5513 281.5568
f 1450 1451 1452
v -3475.8832 1230.1014 272.0683
v -3469.4035 1228.5321 272.0721
v -3469.4086 1228.5341 281.5548
f 1453 1454 1455
v -3469.4086 1228.5341 281.5548
v -3482.3361 1231.6648 281.6732
v -3481.5304 1231.4686 272.0649
f 1456 1457 1458
v -3475.8832 1230.1014 272.0683
v -3469.4086 1228.5341 281.5548
v -3481.5304 1231.4686 272.0649
f 1459 1460 1461
v -3562.6315 1246.4088 274.6352
v -3546.9257 1245.1571 272.0263
v -3563.8942 1246.5108 281.9052
f 1462 1463 1464
v -3546.9257 1245.1571 272.0263
v -3553.6686 1245.6964 281.9141
v -3563.8942 1246.5108 281.9052
f 1465 1466 1467
v -3562.6315 1246.4088 274.6352
v -3563.8942 1246.5108 281.9052
v -3574.3029 1247.3397 281.8962
f 1468 1469 1470
v -3562.6315 1246.4088 274.6352
v -3574.2274 1247.3324 272.0107
v -3546.9257 1245.1571 272.0263
f 1471 1472 1473
v -3574.3029 1247.3397 281.8962
v -3574.2274 1247.3324 272.0107
v -3562.6315 1246.4088 274.6352
f 1474 1475 1476
v -3544.4570 1242.8345 272.0281
v -3544.2977 1244.9502 281.9244
v -3544.2923 1244.9480 272.0278
f 1477 1478 1479
v -3510.1617 1240.2726 281.9112
v -3512.6991 1240.4643 281.9057
v -3512.6918 1240.4622 272.0461
f 1480 1481 1482
v -3544.4570 1242.8345 272.0281
v -3512.6918 1240.4622 272.0461
v -3544.4623 1242.8366 281.8317
f 1483 1484 1485
v -3512.6918 1240.4622 272.0461
v -3510.0374 1240.2610 272.0476
v -3510.1617 1240.2726 281.9112
f 1486 1487 1488
v -3544.2923 1244.9480 272.0278
v -3544.2977 1244.9502 281.9244
v -3546.9257 1245.1571 272.0263
f 1489 1490 1491
v -3570.6703 1255.7168 281.6816
v -3575.4400 1256.0735 272.0083
v -3576.4361 1256.1493 281.6813
f 1492 1493 1494
v -3575.4400 1256.0735 272.0083
v -3579.5981 1256.3857 272.0059
v -3576.4361 1256.1493 281.6813
f 1495 1496 1497
v -3513.8283 1251.4441 272.0434
v -3527.2566 1252.4543 281.7575
v -3513.8606 1251.4483 281.7881
f 1498 1499 1500
v -3576.4361 1256.1493 281.6813
v -3579.5981 1256.3857 272.0059
v -3579.6034 1256.3878 281.6865
f 1501 1502 1503
v -3579.5981 1256.3857 272.0059
v -3580.0472 1250.7409 272.0068
v -3579.7835 1254.1243 281.8198
f 1504 1505 1506
v -3577.3002 1247.5788 281.8895
v -3574.2274 1247.3324 272.0107
v -3574.3029 1247.3397 281.8962
f 1507 1508 1509
v -3574.2274 1247.3324 272.0107
v -3577.3002 1247.5788 281.8895
v -3580.2811 1247.8147 272.0072
f 1510 1511 1512
v -3577.3002 1247.5788 281.8895
v -3580.2865 1247.8168 281.8828
v -3580.2811 1247.8147 272.0072
f 1513 1514 1515
v -3580.2865 1247.8168 281.8828
v -3580.0472 1250.7409 272.0068
v -3580.2811 1247.8147 272.0072
f 1516 1517 1518
v -3487.0164 1238.5222 272.0606
v -3487.0217 1238.5243 281.9253
v -3490.6037 1238.7938 272.0586
f 1519 1520 1521
v -3487.0217 1238.5243 281.9253
v -3490.4400 1238.7825 281.9214
v -3490.6037 1238.7938 272.0586
f 1522 1523 1524
v -3498.6122 1239.4005 281.9168
v -3490.6037 1238.7938 272.0586
v -3490.4400 1238.7825 281.9214
f 1525 1526 1527
v -3490.6037 1238.7938 272.0586
v -3498.6122 1239.4005 281.9168
v -3510.0374 1240.2610 272.0476
f 1528 1529 1530
v -3510.0374 1240.2610 272.0476
v -3498.6122 1239.4005 281.9168
v -3510.1617 1240.2726 281.9112
f 1531 1532 1533
v -3468.7005 1229.4512 285.9078
v -3468.8963 1228.6966 285.6299
v -3468.8891 1228.6936 271.9764
f 1534 1535 1536
v -3468.6930 1229.4481 271.9763
v -3468.7005 1229.4512 285.9078
v -3468.8891 1228.6936 271.9764
f 1537 1538 1539
v -3467.9070 1229.2450 285.9033
v -3468.6930 1229.4481 271.9763
v -3467.8996 1229.2420 271.9768
f 1540 1541 1542
v -3467.8817 1229.3419 285.9393
v -3467.8996 1229.2420 271.9768
v -3467.8743 1229.3389 271.9768
f 1543 1544 1545
v -3467.8743 1229.3389 271.9768
v -3401.5099 1213.1119 272.0156
v -3433.0271 1220.8194 285.9057
f 1546 1547 1548
v -3396.2045 1211.8146 272.0716
v -3401.5099 1213.1119 272.0156
v -3396.2044 1211.8146 272.0186
f 1549 1550 1551
v -3433.0271 1220.8194 285.9057
v -3467.8817 1229.3419 285.9393
v -3467.8743 1229.3389 271.9768
f 1552 1553 1554
v -3466.8531 1239.1988 289.4448
v -3469.3428 1228.8039 281.5618
v -3469.3450 1228.8048 285.6296
f 1555 1556 1557
v -3469.3428 1228.8039 281.5618
v -3466.8531 1239.1988 289.4448
v -3466.8168 1239.3311 281.8271
f 1558 1559 1560
v -3463.0656 1249.0127 271.9757
v -3463.0729 1249.0157 285.8811
v -3463.0888 1248.9157 271.9757
f 1561 1562 1563
v -3463.0729 1249.0157 285.8811
v -3464.0627 1249.2671 275.5349
v -3464.0723 1249.2697 282.4027
f 1564 1565 1566
v -3464.4097 1249.3554 281.5745
v -3464.4120 1249.3563 285.8743
v -3464.0723 1249.2697 282.4027
f 1567 1568 1569
v -3464.0723 1249.2697 282.4027
v -3464.4157 1249.3570 279.7786
v -3464.4097 1249.3554 281.5745
f 1570 1571 1572
v -3464.0627 1249.2671 275.5349
v -3464.4157 1249.3570 279.7786
v -3464.0723 1249.2697 282.4027
f 1573 1574 1575
v -3464.0627 1249.2671 275.5349
v -3464.4046 1249.3533 271.9749
v -3464.4046 1249.3533 272.0709
f 1576 1577 1578
v -3464.0627 1249.2671 275.5349
v -3463.0729 1249.0157 285.8811
v -3463.0656 1249.0127 271.9757
f 1579 1580 1581
v -3464.4046 1249.3533 271.9749
v -3464.0627 1249.2671 275.5349
v -3463.0656 1249.0127 271.9757
f 1582 1583 1584
v -3464.4046 1249.3533 271.9749
v -3466.8439 1239.1950 271.9754
v -3466.8439 1239.1950 272.0714
f 1585 1586 1587
v -3466.8439 1239.1950 272.0714
v -3464.4046 1249.3533 272.0709
v -3464.4046 1249.3533 271.9749
f 1588 1589 1590
v -3397.4711 1232.8827 286.0474
v -3408.6291 1235.6087 281.1291
v -3428.8831 1240.5580 285.9841
f 1591 1592 1593
v -3397.4711 1232.8827 286.0474
v -3395.1485 1232.3135 272.1443
v -3408.6291 1235.6087 281.1291
f 1594 1595 1596
v -3395.1485 1232.3135 272.1443
v -3409.3977 1235.7955 275.4919
v -3408.6291 1235.6087 281.1291
f 1597 1598 1599
v -3463.0888 1248.9157 271.9757
v -3463.0962 1248.9188 285.9151
v -3400.9685 1233.7361 272.0120
f 1600 1601 1602
v -3409.3977 1235.7955 275.4919
v -3400.9685 1233.7361 272.0120
v -3463.0962 1248.9188 285.9151
f 1603 1604 1605
v -3400.9685 1233.7361 272.0120
v -3409.3977 1235.7955 275.4919
v -3395.1485 1232.3135 272.1443
f 1606 1607 1608
v -3400.9685 1233.7361 272.0120
v -3395.1485 1232.3135 272.1443
v -3391.4978 1231.4217 272.0174
f 1609 1610 1611
v -3391.4979 1231.4217 272.1194
v -3391.4978 1231.4217 272.0174
v -3395.1485 1232.3135 272.1443
f 1612 1613 1614
v -3580.0472 1250.7409 272.0068
v -3579.5981 1256.3857 272.0059
v -3575.4400 1256.0735 272.0083
f 1615 1616 1617
v -3510.3301 1251.1817 272.0453
v -3512.6918 1240.4622 272.0461
v -3513.8283 1251.4441 272.0434
f 1618 1619 1620
v -3513.8283 1251.4441 272.0434
v -3544.2923 1244.9480 272.0278
v -3575.4400 1256.0735 272.0083
f 1621 1622 1623
v -3575.4400 1256.0735 272.0083
v -3546.9257 1245.1571 272.0263
v -3580.0472 1250.7409 272.0068
f 1624 1625 1626
v -3574.2274 1247.3324 272.0107
v -3580.2811 1247.8147 272.0072
v -3580.0472 1250.7409 272.0068
f 1627 1628 1629
v -3574.2274 1247.3324 272.0107
v -3580.0472 1250.7409 272.0068
v -3546.9257 1245.1571 272.0263
f 1630 1631 1632
v -3510.0374 1240.2610 272.0476
v -3512.6918 1240.4622 272.0461
v -3510.3301 1251.1817 272.0453
f 1633 1634 1635
v -3512.6918 1240.4622 272.0461
v -3544.4570 1242.8345 272.0281
v -3544.2923 1244.9480 272.0278
f 1636 1637 1638
v -3512.6918 1240.4622 272.0461
v -3544.2923 1244.9480 272.0278
v -3513.8283 1251.4441 272.0434
f 1639 1640 1641
v -3546.9257 1245.1571 272.0263
v -3575.4400 1256.0735 272.0083
v -3544.2923 1244.9480 272.0278
f 1642 1643 1644
v -3500.5725 1250.3495 272.0509
v -3510.0374 1240.2610 272.0476
v -3510.3301 1251.1817 272.0453
f 1645 1646 1647
v -3500.3861 1253.1089 272.0504
v -3500.2934 1254.4687 272.0502
v -3482.0182 1253.1575 272.0605
f 1648 1649 1650
v -3500.3861 1253.1089 272.0504
v -3482.0182 1253.1575 272.0605
v -3464.4046 1249.3533 272.0709
f 1651 1652 1653
v -3482.0182 1253.1575 272.0605
v -3478.2999 1252.8906 272.0626
v -3464.4046 1249.3533 272.0709
f 1654 1655 1656
v -3464.4046 1249.3533 272.0709
v -3500.5725 1250.3495 272.0509
v -3500.3861 1253.1089 272.0504
f 1657 1658 1659
v -3500.5725 1250.3495 272.0509
v -3490.6037 1238.7938 272.0586
v -3510.0374 1240.2610 272.0476
f 1660 1661 1662
v -3487.3274 1234.4312 272.0612
v -3487.0164 1238.5222 272.0606
v -3466.8439 1239.1950 272.0714
f 1663 1664 1665
v -3487.0164 1238.5222 272.0606
v -3490.6037 1238.7938 272.0586
v -3466.8439 1239.1950 272.0714
f 1666 1667 1668
v -3466.8439 1239.1950 272.0714
v -3490.6037 1238.7938 272.0586
v -3500.5725 1250.3495 272.0509
f 1669 1670 1671
v -3487.4435 1232.9004 272.0614
v -3487.3274 1234.4312 272.0612
v -3481.5304 1231.4686 272.0649
f 1672 1673 1674
v -3487.3274 1234.4312 272.0612
v -3475.8832 1230.1014 272.0683
v -3481.5304 1231.4686 272.0649
f 1675 1676 1677
v -3466.8439 1239.1950 272.0714
v -3475.8832 1230.1014 272.0683
v -3487.3274 1234.4312 272.0612
f 1678 1679 1680
v -3469.3378 1228.8019 272.0721
v -3469.4035 1228.5321 272.0721
v -3475.8832 1230.1014 272.0683
f 1681 1682 1683
v -3475.8832 1230.1014 272.0683
v -3466.8439 1239.1950 272.0714
v -3469.3378 1228.8019 272.0721
f 1684 1685 1686
v -3466.8439 1239.1950 272.0714
v -3500.5725 1250.3495 272.0509
v -3464.4046 1249.3533 272.0709
f 1687 1688 1689
v -3464.5616 1249.3948 281.5774
v -3480.2509 1242.2552 282.0812
v -3464.4097 1249.3554 281.5745
f 1690 1691 1692
v -3466.8168 1239.3311 281.8271
v -3464.4097 1249.3554 281.5745
v -3480.2509 1242.2552 282.0812
f 1693 1694 1695
v -3466.8168 1239.3311 281.8271
v -3480.2509 1242.2552 282.0812
v -3469.3428 1228.8039 281.5618
f 1696 1697 1698
v -3469.4795 1228.5513 281.5568
v -3469.3428 1228.8039 281.5618
v -3480.2509 1242.2552 282.0812
f 1699 1700 1701
v -3469.3428 1228.8039 281.5618
v -3469.4795 1228.5513 281.5568
v -3469.4086 1228.5341 281.5548
f 1702 1703 1704
v -3464.4157 1249.3570 279.7786
v -3464.5616 1249.3948 281.5774
v -3464.4097 1249.3554 281.5745
f 1705 1706 1707
v -3433.0271 1220.8194 285.9057
v -3400.3830 1220.7602 288.6231
v -3466.8531 1239.1988 289.4448
f 1708 1709 1710
v -3466.8531 1239.1988 289.4448
v -3467.8817 1229.3419 285.9393
v -3433.0271 1220.8194 285.9057
f 1711 1712 1713
v -3399.8201 1223.1069 289.4840
v -3466.8531 1239.1988 289.4448
v -3400.3830 1220.7602 288.6231
f 1714 1715 1716
v -3433.0271 1220.8194 285.9057
v -3402.1787 1213.2766 285.8757
v -3400.3830 1220.7602 288.6231
f 1717 1718 1719
v -3467.9070 1229.2450 285.9033
v -3467.8817 1229.3419 285.9393
v -3468.7005 1229.4512 285.9078
f 1720 1721 1722
v -3469.3450 1228.8048 285.6296
v -3468.7005 1229.4512 285.9078
v -3466.8531 1239.1988 289.4448
f 1723 1724 1725
v -3466.8531 1239.1988 289.4448
v -3468.7005 1229.4512 285.9078
v -3467.8817 1229.3419 285.9393
f 1726 1727 1728
v -3468.8963 1228.6966 285.6299
v -3468.7005 1229.4512 285.9078
v -3469.3450 1228.8048 285.6296
f 1729 1730 1731
v -3464.4120 1249.3563 285.8743
v -3463.0962 1248.9188 285.9151
v -3463.0729 1249.0157 285.8811
f 1732 1733 1734
v -3466.8531 1239.1988 289.4448
v -3463.0962 1248.9188 285.9151
v -3464.4120 1249.3563 285.8743
f 1735 1736 1737
v -3399.8201 1223.1069 289.4840
v -3397.4711 1232.8827 286.0474
v -3428.8831 1240.5580 285.9841
f 1738 1739 1740
v -3428.8831 1240.5580 285.9841
v -3463.0962 1248.9188 285.9151
v -3466.8531 1239.1988 289.4448
f 1741 1742 1743
v -3428.8831 1240.5580 285.9841
v -3466.8531 1239.1988 289.4448
v -3399.8201 1223.1069 289.4840
f 1744 1745 1746
v -3393.8381 1221.6691 272.1200
v -3391.4978 1231.4217 272.0174
v -3391.4979 1231.4217 272.1194
f 1747 1748 1749
v -3391.4978 1231.4217 272.0174
v -3393.8381 1221.6691 272.1200
v -3393.8380 1221.6691 272.0180
f 1750 1751 1752
v -3400.8094 1212.9410 272.1170
v -3370.8096 1205.6055 272.0863
v -3370.8178 1205.6089 288.0747
f 1753 1754 1755
v -3392.7731 1210.9769 288.0630
v -3400.8817 1212.9596 288.0593
v -3400.8815 1212.9595 287.7553
f 1756 1757 1758
v -3401.5099 1213.1119 272.0156
v -3396.2045 1211.8146 272.0716
v -3400.8094 1212.9410 272.1170
f 1759 1760 1761
v -3355.9173 1198.7076 272.0954
v -3355.9173 1198.7076 272.1444
v -3371.6050 1202.4737 272.1354
f 1762 1763 1764
v -3329.9515 1216.3709 278.4904
v -3329.9503 1216.3710 274.1425
v -3329.9513 1216.3715 276.3164
f 1765 1766 1767
v -3350.4743 1221.3939 277.7917
v -3350.4758 1221.3944 280.6156
v -3345.6500 1220.2126 280.6274
f 1768 1769 1770
v -3345.6500 1220.2126 280.6274
v -3309.3814 1211.3373 280.7150
v -3329.9515 1216.3709 278.4904
f 1771 1772 1773
v -3329.9515 1216.3709 278.4904
v -3329.9513 1216.3715 276.3164
v -3350.4743 1221.3939 277.7917
f 1774 1775 1776
v -3345.6500 1220.2126 280.6274
v -3329.9515 1216.3709 278.4904
v -3350.4743 1221.3939 277.7917
f 1777 1778 1779
v -3350.4729 1221.3923 274.9668
v -3350.4743 1221.3939 277.7917
v -3329.9513 1216.3715 276.3164
f 1780 1781 1782
v -3329.9503 1216.3710 274.1425
v -3350.4715 1221.3916 272.1429
v -3350.4729 1221.3923 274.9668
f 1783 1784 1785
v -3336.7896 1218.0440 272.0777
v -3350.4714 1221.3926 272.0699
v -3350.4715 1221.3916 272.1429
f 1786 1787 1788
v -3268.3836 1201.3034 272.1163
v -3336.7896 1218.0440 272.0777
v -3329.9503 1216.3710 274.1425
f 1789 1790 1791
v -3350.4715 1221.3916 272.1429
v -3329.9503 1216.3710 274.1425
v -3336.7896 1218.0440 272.0777
f 1792 1793 1794
v -3329.9503 1216.3710 274.1425
v -3329.9515 1216.3709 278.4904
v -3268.3836 1201.3034 272.1163
f 1795 1796 1797
v -3329.9503 1216.3710 274.1425
v -3350.4729 1221.3923 274.9668
v -3329.9513 1216.3715 276.3164
f 1798 1799 1800
v -3268.3836 1201.3034 272.1163
v -3329.9515 1216.3709 278.4904
v -3268.3879 1201.3052 280.8130
f 1801 1802 1803
v -3329.9515 1216.3709 278.4904
v -3309.3814 1211.3373 280.7150
v -3268.3879 1201.3052 280.8130
f 1804 1805 1806
v -3393.8381 1221.6691 272.1200
v -3391.4979 1231.4217 272.1194
v -3377.2934 1227.9516 272.1276
f 1807 1808 1809
v -3365.1283 1225.0820 272.1345
v -3365.1526 1224.9850 272.1345
v -3365.9248 1225.2771 272.1341
f 1810 1811 1812
v -3365.1526 1224.9850 272.1345
v -3365.9490 1225.1792 272.1341
v -3365.9248 1225.2771 272.1341
f 1813 1814 1815
v -3377.2934 1227.9516 272.1276
v -3394.9940 1216.8543 272.1203
v -3393.8381 1221.6691 272.1200
f 1816 1817 1818
v -3394.9940 1216.8543 272.1203
v -3377.2934 1227.9516 272.1276
v -3365.9490 1225.1792 272.1341
f 1819 1820 1821
v -3353.9270 1206.9952 272.1439
v -3394.9940 1216.8543 272.1203
v -3365.9490 1225.1792 272.1341
f 1822 1823 1824
v -3353.9270 1206.9952 272.1439
v -3365.9490 1225.1792 272.1341
v -3365.1526 1224.9850 272.1345
f 1825 1826 1827
v -3353.9270 1206.9952 272.1439
v -3354.1419 1222.2905 272.1408
v -3350.4715 1221.3916 272.1429
f 1828 1829 1830
v -3353.9270 1206.9952 272.1439
v -3365.1526 1224.9850 272.1345
v -3354.1419 1222.2905 272.1408
f 1831 1832 1833
v -3371.9415 1201.1466 272.1355
v -3371.6050 1202.4737 272.1354
v -3371.1418 1201.0465 272.1359
f 1834 1835 1836
v -3371.9415 1201.1466 272.1355
v -3371.1418 1201.0465 272.1359
v -3371.1660 1200.9496 272.1359
f 1837 1838 1839
v -3355.9173 1198.7076 272.1444
v -3371.1418 1201.0465 272.1359
v -3371.6050 1202.4737 272.1354
f 1840 1841 1842
v -3356.2318 1197.3965 272.1445
v -3371.1418 1201.0465 272.1359
v -3355.9173 1198.7076 272.1444
f 1843 1844 1845
v -3371.9487 1201.1495 285.9979
v -3371.1732 1200.9525 285.9943
v -3371.6124 1202.4768 286.5118
f 1846 1847 1848
v -3400.6815 1213.7930 288.0763
v -3400.3840 1220.7607 290.6450
v -3402.1797 1213.2770 287.7566
f 1849 1850 1851
v -3400.8815 1212.9595 287.7553
v -3400.6815 1213.7930 288.0763
v -3402.1797 1213.2770 287.7566
f 1852 1853 1854
v -3400.6815 1213.7930 288.0763
v -3351.4328 1201.9689 288.1055
v -3400.3840 1220.7607 290.6450
f 1855 1856 1857
v -3371.6124 1202.4768 286.5118
v -3371.1732 1200.9525 285.9943
v -3371.1490 1201.0495 286.0313
f 1858 1859 1860
v -3352.4160 1197.8682 286.5228
v -3359.7606 1198.2609 286.0189
v -3351.4132 1196.2175 286.0086
f 1861 1862 1863
v -3351.4328 1201.9689 288.1055
v -3348.5131 1208.3085 290.6748
v -3400.3840 1220.7607 290.6450
f 1864 1865 1866
v -3351.4132 1196.2175 286.0086
v -3351.4328 1201.9689 288.1055
v -3352.4160 1197.8682 286.5228
f 1867 1868 1869
v -3351.4328 1201.9689 288.1055
v -3351.4132 1196.2175 286.0086
v -3348.5131 1208.3085 290.6748
f 1870 1871 1872
v -3371.6124 1202.4768 286.5118
v -3359.7606 1198.2609 286.0189
v -3352.4160 1197.8682 286.5228
f 1873 1874 1875
v -3371.6124 1202.4768 286.5118
v -3371.1490 1201.0495 286.0313
v -3359.7606 1198.2609 286.0189
f 1876 1877 1878
v -3348.5131 1208.3085 290.6748
v -3345.6511 1220.2129 282.6783
v -3345.6529 1220.2137 286.1862
f 1879 1880 1881
v -3348.3476 1208.9870 285.3719
v -3345.6500 1220.2126 280.6274
v -3345.6511 1220.2129 282.6783
f 1882 1883 1884
v -3348.5095 1208.3104 285.6570
v -3348.3476 1208.9870 285.3719
v -3348.5131 1208.3085 290.6748
f 1885 1886 1887
v -3345.6511 1220.2129 282.6783
v -3348.5131 1208.3085 290.6748
v -3348.3476 1208.9870 285.3719
f 1888 1889 1890
v -3355.4047 1222.5994 279.1478
v -3355.4149 1222.6017 275.6410
v -3365.1598 1224.9880 286.1420
f 1891 1892 1893
v -3365.1526 1224.9850 272.1345
v -3365.1598 1224.9880 286.1420
v -3355.4149 1222.6017 275.6410
f 1894 1895 1896
v -3355.4045 1222.6001 282.6557
v -3365.1598 1224.9880 286.1420
v -3350.5296 1221.4078 286.1754
f 1897 1898 1899
v -3355.4047 1222.5994 279.1478
v -3355.4045 1222.6001 282.6557
v -3350.4758 1221.3944 280.6156
f 1900 1901 1902
v -3350.5296 1221.4078 286.1754
v -3350.4758 1221.3944 280.6156
v -3355.4045 1222.6001 282.6557
f 1903 1904 1905
v -3350.4758 1221.3944 280.6156
v -3350.5296 1221.4078 286.1754
v -3345.6511 1220.2129 282.6783
f 1906 1907 1908
v -3350.4758 1221.3944 280.6156
v -3345.6511 1220.2129 282.6783
v -3345.6500 1220.2126 280.6274
f 1909 1910 1911
v -3345.6529 1220.2137 286.1862
v -3345.6511 1220.2129 282.6783
v -3350.5296 1221.4078 286.1754
f 1912 1913 1914
v -3355.4149 1222.6017 275.6410
v -3350.4729 1221.3923 274.9668
v -3354.1419 1222.2905 272.1408
f 1915 1916 1917
v -3354.1419 1222.2905 272.1408
v -3350.4729 1221.3923 274.9668
v -3350.4715 1221.3916 272.1429
f 1918 1919 1920
v -3355.4149 1222.6017 275.6410
v -3355.4047 1222.5994 279.1478
v -3350.5242 1221.4055 275.6508
f 1921 1922 1923
v -3365.1526 1224.9850 272.1345
v -3355.4149 1222.6017 275.6410
v -3354.1419 1222.2905 272.1408
f 1924 1925 1926
v -3350.4743 1221.3939 277.7917
v -3350.5260 1221.4063 279.1586
v -3350.4758 1221.3944 280.6156
f 1927 1928 1929
v -3350.5242 1221.4055 275.6508
v -3350.4729 1221.3923 274.9668
v -3355.4149 1222.6017 275.6410
f 1930 1931 1932
v -3350.4743 1221.3939 277.7917
v -3350.4729 1221.3923 274.9668
v -3350.5242 1221.4055 275.6508
f 1933 1934 1935
v -3350.5242 1221.4055 275.6508
v -3350.5260 1221.4063 279.1586
v -3350.4743 1221.3939 277.7917
f 1936 1937 1938
v -3350.5260 1221.4063 279.1586
v -3355.4047 1222.5994 279.1478
v -3350.4758 1221.3944 280.6156
f 1939 1940 1941
v -3348.5095 1208.3104 285.6570
v -3348.5131 1208.3085 290.6748
v -3351.4132 1196.2175 286.0086
f 1942 1943 1944
v -3400.8815 1212.9595 287.7553
v -3400.8094 1212.9410 272.1170
v -3392.7731 1210.9769 288.0630
f 1945 1946 1947
v -3400.8815 1212.9595 287.7553
v -3401.5099 1213.1119 272.0156
v -3400.8094 1212.9410 272.1170
f 1948 1949 1950
v -3400.8815 1212.9595 287.7553
v -3402.1797 1213.2770 287.7566
v -3402.1787 1213.2766 285.8757
f 1951 1952 1953
v -3371.9487 1201.1495 285.9979
v -3371.6124 1202.4768 286.5118
v -3371.9415 1201.1466 272.1355
f 1954 1955 1956
v -3371.9415 1201.1466 272.1355
v -3371.6124 1202.4768 286.5118
v -3371.6050 1202.4737 272.1354
f 1957 1958 1959
v -3394.9940 1216.8543 272.0713
v -3393.8380 1221.6691 272.0180
v -3393.8381 1221.6691 272.1200
f 1960 1961 1962
v -3394.9940 1216.8543 272.1203
v -3394.9940 1216.8543 272.0713
v -3393.8381 1221.6691 272.1200
f 1963 1964 1965
v -3396.2044 1211.8146 272.0186
v -3394.9940 1216.8543 272.0713
v -3396.2045 1211.8146 272.0716
f 1966 1967 1968
v -3393.8380 1221.6691 272.0180
v -3394.9940 1216.8543 272.0713
v -3396.2044 1211.8146 272.0186
f 1969 1970 1971
v -3370.8178 1205.6089 288.0747
v -3371.3119 1203.6500 282.0380
v -3371.4141 1203.2605 288.0248
f 1972 1973 1974
v -3352.4168 1197.8686 288.0198
v -3371.6131 1202.4771 288.0088
v -3371.6124 1202.4768 286.5118
f 1975 1976 1977
v -3394.9940 1216.8543 272.0713
v -3353.9270 1206.9952 272.1439
v -3353.9270 1206.9952 272.0949
f 1978 1979 1980
v -3330.3279 1191.0536 275.2941
v -3273.7945 1177.2110 280.7437
v -3332.3222 1191.5417 278.6248
f 1981 1982 1983
v -3345.8060 1205.0274 286.8199
v -3345.2957 1207.1543 287.4838
v -3345.2067 1207.5206 285.6588
f 1984 1985 1986
v -3275.5422 1188.1589 286.8595
v -3345.8060 1205.0274 286.8199
v -3345.8049 1205.0270 284.6660
f 1987 1988 1989
v -3274.9429 1190.6520 285.6984
v -3275.5422 1188.1589 286.8595
v -3275.5411 1188.1585 284.7056
f 1990 1991 1992
v -3078.6859 1154.9220 274.2621
v -3081.9487 1155.7211 280.7651
v -3078.6890 1154.9233 280.7729
f 1993 1994 1995
v -3075.4281 1154.1243 274.2698
v -3078.6859 1154.9220 274.2621
v -3075.4392 1154.1276 280.7806
f 1996 1997 1998
v -3085.2076 1156.5188 280.7574
v -3081.9487 1155.7211 280.7651
v -3081.9457 1155.7197 274.2544
f 1999 2000 2001
v -3175.3451 1153.2122 272.0571
v -3175.3494 1153.2140 281.0598
v -3175.4593 1152.7345 272.0571
f 2002 2003 2004
v -3175.4636 1152.7363 280.8808
v -3175.4593 1152.7345 272.0571
v -3175.3494 1153.2140 281.0598
f 2005 2006 2007
v -3124.3113 1140.7383 272.0845
v -3101.4457 1135.1494 274.2396
v -3125.1310 1140.9392 281.0107
f 2008 2009 2010
v -3148.6390 1146.6846 272.0715
v -3125.1310 1140.9392 281.0107
v -3148.3885 1146.6237 281.0333
f 2011 2012 2013
v -3077.9834 1129.4140 272.1091
v -3101.4479 1135.1507 280.9873
v -3101.4457 1135.1494 274.2396
f 2014 2015 2016
v -3077.5359 1129.2248 272.1093
v -3078.0108 1129.3318 280.9327
v -3078.0066 1129.3300 272.1091
f 2017 2018 2019
v -3274.4594 1172.5030 281.2631
v -3274.3937 1172.7769 281.3611
v -3274.3863 1172.7737 266.4727
f 2020 2021 2022
v -3205.3816 1155.9167 266.4128
v -3274.4594 1172.5030 281.2631
v -3274.4520 1172.4999 266.3747
f 2023 2024 2025
v -3176.5016 1148.9832 266.4285
v -3205.3889 1155.9197 281.3013
v -3205.3816 1155.9167 266.4128
f 2026 2027 2028
v -3175.5953 1152.7668 272.0570
v -3176.5089 1148.9862 281.3170
v -3176.5016 1148.9832 266.4285
f 2029 2030 2031
v -3170.0784 1177.2863 265.8496
v -3222.7223 1190.1498 280.5963
v -3201.2788 1184.9102 280.6540
f 2032 2033 2034
v -3170.0784 1177.2863 265.8496
v -3203.3371 1185.4116 265.7605
v -3222.7223 1190.1498 280.5963
f 2035 2036 2037
v -3169.7044 1177.2974 265.7988
v -3170.0614 1177.3865 280.6860
v -3169.7062 1177.2982 269.5207
f 2038 2039 2040
v -3170.0542 1177.3833 265.7976
v -3170.0614 1177.3865 280.6860
v -3169.7044 1177.2974 265.7988
f 2041 2042 2043
v -2992.3403 1123.5891 272.1788
v -2994.3453 1115.2526 282.4669
v -2994.3407 1115.2506 272.1793
f 2044 2045 2046
v -2990.3426 1131.9276 282.4658
v -2992.3464 1123.5918 285.5643
v -2992.3403 1123.5891 272.1788
f 2047 2048 2049
v -2994.3407 1115.2506 272.1793
v -2994.7209 1113.6864 280.9541
v -2994.7168 1113.6846 272.1794
f 2050 2051 2052
v -3048.4073 1147.5291 280.9177
v -3029.0433 1142.8042 280.9978
v -3029.0401 1142.8028 274.2630
f 2053 2054 2055
v -3009.6102 1138.0616 274.3420
v -3029.0401 1142.8028 274.2630
v -3029.0433 1142.8042 280.9978
f 2056 2057 2058
v -3076.5904 1133.1820 280.7657
v -3077.5401 1129.2266 280.9329
v -3077.5359 1129.2248 272.1093
f 2059 2060 2061
v -3273.3627 1177.0491 272.1183
v -3274.3863 1172.7737 266.4727
v -3274.3937 1172.7769 281.3611
f 2062 2063 2064
v -3273.3434 1177.1183 268.0335
v -3272.3382 1181.3153 272.1180
v -3272.3353 1181.3141 266.2082
f 2065 2066 2067
v -3397.4711 1232.8827 286.0474
v -3389.5924 1230.9576 286.0910
v -3390.5516 1231.1911 276.1017
f 2068 2069 2070
v -3371.1732 1200.9525 285.9943
v -3371.9487 1201.1495 285.9979
v -3371.9415 1201.1466 272.1355
f 2071 2072 2073
v -3356.1904 1197.3864 277.1203
v -3356.3451 1197.4249 282.5410
v -3359.7606 1198.2609 286.0189
f 2074 2075 2076
v -3402.1797 1213.2770 287.7566
v -3400.3840 1220.7607 290.6450
v -3400.3830 1220.7602 288.6231
f 2077 2078 2079
v -3396.4249 1231.5224 288.1632
v -3351.3135 1220.6923 288.1890
v -3351.3127 1220.6920 286.4971
f 2080 2081 2082
v -3468.8963 1228.6966 285.6299
v -3469.3450 1228.8048 285.6296
v -3469.3428 1228.8039 281.5618
f 2083 2084 2085
v -3500.2934 1254.4687 272.0502
v -3495.8254 1254.1497 281.5674
v -3482.0952 1253.1649 281.4301
f 2086 2087 2088
v -3500.3861 1253.1089 272.0504
v -3500.3860 1253.1891 281.6781
v -3500.2934 1254.4687 272.0502
f 2089 2090 2091
v -3513.8606 1251.4483 281.7881
v -3512.3819 1251.3374 281.7889
v -3513.8283 1251.4441 272.0434
f 2092 2093 2094
v -3478.3049 1252.8926 281.4272
v -3464.5616 1249.3948 281.5774
v -3478.2999 1252.8906 272.0626
f 2095 2096 2097
v -3469.3378 1228.8019 272.0721
v -3469.4086 1228.5341 281.5548
v -3469.4035 1228.5321 272.0721
f 2098 2099 2100
v -3487.3668 1233.9803 281.7600
v -3487.3274 1234.4312 272.0612
v -3487.4486 1232.9025 281.7011
f 2101 2102 2103
v -3487.3668 1233.9803 281.7600
v -3487.2953 1234.9251 281.7968
v -3487.3274 1234.4312 272.0612
f 2104 2105 2106
v -3487.2953 1234.9251 281.7968
v -3487.2403 1235.6469 281.8247
v -3487.3274 1234.4312 272.0612
f 2107 2108 2109
v -3475.9043 1230.1065 281.6150
v -3482.3361 1231.6648 281.6732
v -3469.4086 1228.5341 281.5548
f 2110 2111 2112
v -3546.6181 1245.1344 281.9201
v -3553.6686 1245.6964 281.9141
v -3546.9257 1245.1571 272.0263
f 2113 2114 2115
v -3544.4570 1242.8345 272.0281
v -3544.4623 1242.8366 281.8317
v -3544.2977 1244.9502 281.9244
f 2116 2117 2118
v -3512.6991 1240.4643 281.9057
v -3544.4623 1242.8366 281.8317
v -3512.6918 1240.4622 272.0461
f 2119 2120 2121
v -3544.2977 1244.9502 281.9244
v -3546.6181 1245.1344 281.9201
v -3546.9257 1245.1571 272.0263
f 2122 2123 2124
v -3575.4400 1256.0735 272.0083
v -3570.6703 1255.7168 281.6816
v -3564.9475 1255.2865 281.6809
f 2125 2126 2127
v -3561.1234 1254.9992 281.6812
v -3575.4400 1256.0735 272.0083
v -3564.9475 1255.2865 281.6809
f 2128 2129 2130
v -3513.8283 1251.4441 272.0434
v -3561.1234 1254.9992 281.6812
v -3546.9764 1253.9362 281.7133
f 2131 2132 2133
v -3513.8283 1251.4441 272.0434
v -3546.9764 1253.9362 281.7133
v -3527.2566 1252.4543 281.7575
f 2134 2135 2136
v -3513.8283 1251.4441 272.0434
v -3575.4400 1256.0735 272.0083
v -3561.1234 1254.9992 281.6812
f 2137 2138 2139
v -3579.7835 1254.1243 281.8198
v -3580.0472 1250.7409 272.0068
v -3580.0599 1250.6562 282.0244
f 2140 2141 2142
v -3579.7835 1254.1243 281.8198
v -3579.6034 1256.3878 281.6865
v -3579.5981 1256.3857 272.0059
f 2143 2144 2145
v -3580.2865 1247.8168 281.8828
v -3580.0599 1250.6562 282.0244
v -3580.0472 1250.7409 272.0068
f 2146 2147 2148
v -3487.0164 1238.5222 272.0606
v -3487.2403 1235.6469 281.8247
v -3487.0217 1238.5243 281.9253
f 2149 2150 2151
v -3487.3274 1234.4312 272.0612
v -3487.2403 1235.6469 281.8247
v -3487.0164 1238.5222 272.0606
f 2152 2153 2154
v -3467.9070 1229.2450 285.9033
v -3468.7005 1229.4512 285.9078
v -3468.6930 1229.4481 271.9763
f 2155 2156 2157
v -3467.8817 1229.3419 285.9393
v -3467.9070 1229.2450 285.9033
v -3467.8996 1229.2420 271.9768
f 2158 2159 2160
v -3402.1787 1213.2766 285.8757
v -3433.0271 1220.8194 285.9057
v -3401.5099 1213.1119 272.0156
f 2161 2162 2163
v -3463.0729 1249.0157 285.8811
v -3463.0962 1248.9188 285.9151
v -3463.0888 1248.9157 271.9757
f 2164 2165 2166
v -3464.4120 1249.3563 285.8743
v -3463.0729 1249.0157 285.8811
v -3464.0723 1249.2697 282.4027
f 2167 2168 2169
v -3409.3977 1235.7955 275.4919
v -3463.0962 1248.9188 285.9151
v -3408.6291 1235.6087 281.1291
f 2170 2171 2172
v -3408.6291 1235.6087 281.1291
v -3463.0962 1248.9188 285.9151
v -3428.8831 1240.5580 285.9841
f 2173 2174 2175
v -3464.4046 1249.3533 272.0709
v -3464.5616 1249.3948 281.5774
v -3464.4157 1249.3570 279.7786
f 2176 2177 2178
v -3464.4046 1249.3533 272.0709
v -3464.4157 1249.3570 279.7786
v -3464.0627 1249.2671 275.5349
f 2179 2180 2181
v -3400.8094 1212.9410 272.1170
v -3370.8178 1205.6089 288.0747
v -3392.7731 1210.9769 288.0630
f 2182 2183 2184
v -3396.2045 1211.8146 272.0716
v -3370.8096 1205.6055 272.0863
v -3400.8094 1212.9410 272.1170
f 2185 2186 2187
v -3355.9173 1198.7076 272.0954
v -3371.6050 1202.4737 272.1354
v -3371.6049 1202.4737 272.0864
f 2188 2189 2190
v -3355.4047 1222.5994 279.1478
v -3365.1598 1224.9880 286.1420
v -3355.4045 1222.6001 282.6557
f 2191 2192 2193
v -3355.4047 1222.5994 279.1478
v -3350.5260 1221.4063 279.1586
v -3350.5242 1221.4055 275.6508
f 2194 2195 2196
v -3348.5095 1208.3104 285.6570
v -3351.4132 1196.2175 286.0086
v -3351.4105 1196.2163 280.8398
f 2197 2198 2199
v -3401.5099 1213.1119 272.0156
v -3400.8815 1212.9595 287.7553
v -3402.1787 1213.2766 285.8757
f 2200 2201 2202

g building_ID_58496CE8-CB96-4144-9761-6872C360AF23
v -3618.5220 1258.4363 272.0976
v -3618.8328 1253.6871 272.0983
v -3634.0485 1254.8480 272.0895
f 2203 2204 2205
v -3633.8808 1257.3335 272.0891
v -3618.5220 1258.4363 272.0976
v -3634.0485 1254.8480 272.0895
f 2206 2207 2208
v -3633.8808 1257.3335 272.0891
v -3633.7288 1259.5771 272.0887
v -3618.5220 1258.4363 272.0976
f 2209 2210 2211
v -3618.5258 1258.4377 278.8213
v -3633.7325 1259.5786 278.8214
v -3633.8852 1257.3353 279.9428
f 2212 2213 2214
v -3618.6744 1256.1764 279.9516
v -3618.5258 1258.4377 278.8213
v -3633.8852 1257.3353 279.9428
f 2215 2216 2217
v -3618.8365 1253.6887 278.7290
v -3633.8852 1257.3353 279.9428
v -3634.0522 1254.8494 278.7212
f 2218 2219 2220
v -3633.8852 1257.3353 279.9428
v -3618.8365 1253.6887 278.7290
v -3618.6744 1256.1764 279.9516
f 2221 2222 2223
v -3633.7311 1259.5781 276.2965
v -3633.7325 1259.5786 278.8214
v -3618.5258 1258.4377 278.8213
f 2224 2225 2226
v -3633.7288 1259.5771 272.0887
v -3618.5258 1258.4377 278.8213
v -3618.5220 1258.4363 272.0976
f 2227 2228 2229
v -3618.8365 1253.6887 278.7290
v -3634.0485 1254.8480 272.0895
v -3618.8328 1253.6871 272.0983
f 2230 2231 2232
v -3618.8365 1253.6887 278.7290
v -3634.0522 1254.8494 278.7212
v -3634.0508 1254.8490 276.2343
f 2233 2234 2235
v -3634.0508 1254.8490 276.2343
v -3634.0485 1254.8480 272.0895
v -3618.8365 1253.6887 278.7290
f 2236 2237 2238
v -3634.0508 1254.8490 276.2343
v -3634.0522 1254.8494 278.7212
v -3633.8852 1257.3353 279.9428
f 2239 2240 2241
v -3634.0508 1254.8490 276.2343
v -3633.7325 1259.5786 278.8214
v -3634.0485 1254.8480 272.0895
f 2242 2243 2244
v -3633.8852 1257.3353 279.9428
v -3633.7325 1259.5786 278.8214
v -3634.0508 1254.8490 276.2343
f 2245 2246 2247
v -3633.8808 1257.3335 272.0891
v -3634.0485 1254.8480 272.0895
v -3633.7311 1259.5781 276.2965
f 2248 2249 2250
v -3633.7311 1259.5781 276.2965
v -3633.7288 1259.5771 272.0887
v -3633.8808 1257.3335 272.0891
f 2251 2252 2253
v -3633.7325 1259.5786 278.8214
v -3633.7311 1259.5781 276.2965
v -3634.0485 1254.8480 272.0895
f 2254 2255 2256
v -3618.8365 1253.6887 278.7290
v -3618.5220 1258.4363 272.0976
v -3618.5258 1258.4377 278.8213
f 2257 2258 2259
v -3618.8365 1253.6887 278.7290
v -3618.5258 1258.4377 278.8213
v -3618.6744 1256.1764 279.9516
f 2260 2261 2262
v -3618.5220 1258.4363 272.0976
v -3618.8365 1253.6887 278.7290
v -3618.8328 1253.6871 272.0983
f 2263 2264 2265
v -3618.5258 1258.4377 278.8213
v -3633.7288 1259.5771 272.0887
v -3633.7311 1259.5781 276.2965
f 2266 2267 2268

g building_ID_39327300-E72E-433F-B6D3-068FA4678F42
v -3688.8348 1138.7894 279.6404
v -3672.0708 1124.3266 279.6526
v -3669.1247 1127.7406 279.6537
f 2269 2270 2271
v -3698.7036 1147.3378 279.6331
v -3688.8348 1138.7894 279.6404
v -3695.7676 1150.7299 279.6342
f 2272 2273 2274
v -3669.1247 1127.7406 279.6537
v -3695.7676 1150.7299 279.6342
v -3688.8348 1138.7894 279.6404
f 2275 2276 2277
v -3688.8309 1138.7880 272.8167
v -3688.8348 1138.7894 279.6404
v -3698.7036 1147.3378 279.6331
f 2278 2279 2280
v -3672.0670 1124.3252 272.8289
v -3672.0708 1124.3266 279.6526
v -3688.8348 1138.7894 279.6404
f 2281 2282 2283
v -3669.1209 1127.7392 272.8300
v -3669.1247 1127.7406 279.6537
v -3672.0708 1124.3266 279.6526
f 2284 2285 2286
v -3695.7638 1150.7285 272.8105
v -3695.7676 1150.7299 279.6342
v -3695.5055 1150.5039 278.3235
f 2287 2288 2289
v -3692.2640 1147.7072 278.3259
v -3695.5055 1150.5039 278.3235
v -3695.7676 1150.7299 279.6342
f 2290 2291 2292
v -3669.1209 1127.7392 272.8300
v -3692.2640 1147.7072 278.3259
v -3669.1247 1127.7406 279.6537
f 2293 2294 2295
v -3695.7676 1150.7299 279.6342
v -3669.1247 1127.7406 279.6537
v -3692.2640 1147.7072 278.3259
f 2296 2297 2298
v -3692.2640 1147.7072 278.3259
v -3669.1209 1127.7392 272.8300
v -3692.2609 1147.7061 272.8131
f 2299 2300 2301
v -3698.6998 1147.3364 272.8094
v -3698.7036 1147.3378 279.6331
v -3695.7676 1150.7299 279.6342
f 2302 2303 2304
v -3693.0548 1148.4732 272.8125
v -3693.0580 1148.4743 278.3253
v -3692.2239 1147.7531 278.3259
f 2305 2306 2307
v -3692.4018 1149.2254 272.8127
v -3692.4049 1149.2266 278.3255
v -3693.0580 1148.4743 278.3253
f 2308 2309 2310
v -3694.8072 1151.3079 272.8110
v -3694.8103 1151.3090 278.3238
v -3692.4049 1149.2266 278.3255
f 2311 2312 2313
v -3692.4049 1149.2266 278.3255
v -3694.8103 1151.3090 278.3238
v -3695.5055 1150.5039 278.3235
f 2314 2315 2316
v -3693.0580 1148.4743 278.3253
v -3692.2640 1147.7072 278.3259
v -3692.2239 1147.7531 278.3259
f 2317 2318 2319
v -3695.5055 1150.5039 278.3235
v -3693.0580 1148.4743 278.3253
v -3692.4049 1149.2266 278.3255
f 2320 2321 2322
v -3695.5055 1150.5039 278.3235
v -3692.2640 1147.7072 278.3259
v -3693.0580 1148.4743 278.3253
f 2323 2324 2325
v -3692.2208 1147.7520 272.8131
v -3692.2239 1147.7531 278.3259
v -3692.2640 1147.7072 278.3259
f 2326 2327 2328
v -3692.4018 1149.2254 272.8127
v -3693.0548 1148.4732 272.8125
v -3695.5024 1150.5028 272.8107
f 2329 2330 2331
v -3694.8072 1151.3079 272.8110
v -3692.4018 1149.2254 272.8127
v -3695.5024 1150.5028 272.8107
f 2332 2333 2334
v -3695.5024 1150.5028 272.8107
v -3698.6998 1147.3364 272.8094
v -3695.7638 1150.7285 272.8105
f 2335 2336 2337
v -3695.5024 1150.5028 272.8107
v -3692.2609 1147.7061 272.8131
v -3698.6998 1147.3364 272.8094
f 2338 2339 2340
v -3692.2609 1147.7061 272.8131
v -3695.5024 1150.5028 272.8107
v -3693.0548 1148.4732 272.8125
f 2341 2342 2343
v -3693.0548 1148.4732 272.8125
v -3692.2208 1147.7520 272.8131
v -3692.2609 1147.7061 272.8131
f 2344 2345 2346
v -3692.2609 1147.7061 272.8131
v -3669.1209 1127.7392 272.8300
v -3688.8309 1138.7880 272.8167
f 2347 2348 2349
v -3672.0670 1124.3252 272.8289
v -3688.8309 1138.7880 272.8167
v -3669.1209 1127.7392 272.8300
f 2350 2351 2352
v -3698.6998 1147.3364 272.8094
v -3692.2609 1147.7061 272.8131
v -3688.8309 1138.7880 272.8167
f 2353 2354 2355
v -3694.8103 1151.3090 278.3238
v -3694.8072 1151.3079 272.8110
v -3695.5024 1150.5028 272.8107
f 2356 2357 2358
v -3688.8309 1138.7880 272.8167
v -3698.7036 1147.3378 279.6331
v -3698.6998 1147.3364 272.8094
f 2359 2360 2361
v -3672.0670 1124.3252 272.8289
v -3688.8348 1138.7894 279.6404
v -3688.8309 1138.7880 272.8167
f 2362 2363 2364
v -3669.1209 1127.7392 272.8300
v -3672.0708 1124.3266 279.6526
v -3672.0670 1124.3252 272.8289
f 2365 2366 2367
v -3695.7638 1150.7285 272.8105
v -3695.5055 1150.5039 278.3235
v -3695.5024 1150.5028 272.8107
f 2368 2369 2370
v -3698.6998 1147.3364 272.8094
v -3695.7676 1150.7299 279.6342
v -3695.7638 1150.7285 272.8105
f 2371 2372 2373
v -3693.0548 1148.4732 272.8125
v -3692.2239 1147.7531 278.3259
v -3692.2208 1147.7520 272.8131
f 2374 2375 2376
v -3692.4018 1149.2254 272.8127
v -3693.0580 1148.4743 278.3253
v -3693.0548 1148.4732 272.8125
f 2377 2378 2379
v -3694.8072 1151.3079 272.8110
v -3692.4049 1149.2266 278.3255
v -3692.4018 1149.2254 272.8127
f 2380 2381 2382
v -3692.2208 1147.7520 272.8131
v -3692.2640 1147.7072 278.3259
v -3692.2609 1147.7061 272.8131
f 2383 2384 2385
v -3694.8103 1151.3090 278.3238
v -3695.5024 1150.5028 272.8107
v -3695.5055 1150.5039 278.3235
f 2386 2387 2388
