# Grid Center: 2612200, 1263400
# Global Anchor: 7.64977475454284, 47.53283995868075, 0.0

g building_ID_BCAD5021-EC3C-4886-90EE-C66EB97770E0
v -3503.6408 -1374.7315 296.3013
v -3510.9472 -1373.7889 296.3434
v -3510.9522 -1373.8209 296.2974
f 1 2 3
v -3503.6408 -1374.7315 296.3013
v -3506.8227 -1371.2718 300.5352
v -3510.9472 -1373.7889 296.3434
f 4 5 6
v -3502.6637 -1366.8842 296.3035
v -3506.8227 -1371.2718 300.5352
v -3503.6408 -1374.7315 296.3013
f 7 8 9
v -3506.5703 -1369.2435 300.5357
v -3506.8227 -1371.2718 300.5352
v -3502.9148 -1366.8485 296.6024
f 10 11 12
v -3502.6637 -1366.8842 296.3035
v -3502.9148 -1366.8485 296.6024
v -3506.8227 -1371.2718 300.5352
f 13 14 15
v -3503.6408 -1374.7315 296.3013
v -3510.9522 -1373.8209 296.2974
v -3510.9676 -1373.9328 296.2314
f 16 17 18
v -3503.4773 -1374.9789 296.1703
v -3503.6408 -1374.7315 296.3013
v -3510.9676 -1373.9328 296.2314
f 19 20 21
v -3503.4773 -1374.9789 296.1703
v -3503.4273 -1374.9861 296.1353
v -3503.1459 -1372.9737 296.1149
f 22 23 24
v -3503.4773 -1374.9789 296.1703
v -3502.6637 -1366.8842 296.3035
v -3503.6408 -1374.7315 296.3013
f 25 26 27
v -3502.6637 -1366.8842 296.3035
v -3503.4773 -1374.9789 296.1703
v -3503.1459 -1372.9737 296.1149
f 28 29 30
v -3503.1459 -1372.9737 296.1149
v -3502.3017 -1366.9361 296.0538
v -3502.6637 -1366.8842 296.3035
f 31 32 33
v -3506.5703 -1369.2435 300.5357
v -3510.5557 -1370.9869 296.3913
v -3506.8227 -1371.2718 300.5352
f 34 35 36
v -3510.9472 -1373.7889 296.3434
v -3506.8227 -1371.2718 300.5352
v -3510.5557 -1370.9869 296.3913
f 37 38 39
v -3510.2498 -1368.7989 296.4289
v -3510.5557 -1370.9869 296.3913
v -3506.5703 -1369.2435 300.5357
f 40 41 42
v -3510.2498 -1368.7989 296.4289
v -3510.3657 -1368.7825 296.2988
v -3510.6386 -1370.9747 296.2982
f 43 44 45
v -3506.5703 -1369.2435 300.5357
v -3509.8441 -1365.8999 296.4788
v -3510.2498 -1368.7989 296.4289
f 46 47 48
v -3510.5557 -1370.9869 296.3913
v -3510.2498 -1368.7989 296.4289
v -3510.6386 -1370.9747 296.2982
f 49 50 51
v -3511.2801 -1370.8830 295.8550
v -3510.3657 -1368.7825 296.2988
v -3511.0072 -1368.6937 295.8556
f 52 53 54
v -3510.3657 -1368.7825 296.2988
v -3511.2801 -1370.8830 295.8550
v -3510.6386 -1370.9747 296.2982
f 55 56 57
v -3509.8389 -1365.8629 296.4268
v -3506.5703 -1369.2435 300.5357
v -3502.9148 -1366.8485 296.6024
f 58 59 60
v -3506.5703 -1369.2435 300.5357
v -3509.8389 -1365.8629 296.4268
v -3509.8441 -1365.8999 296.4788
f 61 62 63
v -3510.9472 -1373.7889 296.3434
v -3510.9429 -1373.7980 286.5248
v -3510.9470 -1373.8190 286.5248
f 64 65 66
v -3510.9655 -1373.9321 292.5666
v -3510.9676 -1373.9328 296.2314
v -3510.9522 -1373.8209 296.2974
f 67 68 69
v -3510.9522 -1373.8209 296.2974
v -3510.9623 -1373.9310 286.5248
v -3510.9655 -1373.9321 292.5666
f 70 71 72
v -3502.3004 -1366.9356 293.6529
v -3503.4222 -1374.9842 286.5287
v -3502.2991 -1366.9351 291.2510
f 73 74 75
v -3502.2966 -1366.9342 286.5312
v -3502.2991 -1366.9351 291.2510
v -3503.4222 -1374.9842 286.5287
f 76 77 78
v -3503.4222 -1374.9842 286.5287
v -3502.3004 -1366.9356 293.6529
v -3503.1459 -1372.9737 296.1149
f 79 80 81
v -3503.1459 -1372.9737 296.1149
v -3503.4241 -1374.9849 290.1316
v -3503.4222 -1374.9842 286.5287
f 82 83 84
v -3510.5504 -1370.9851 286.5257
v -3510.9429 -1373.7980 286.5248
v -3510.9472 -1373.7889 296.3434
f 85 86 87
v -3510.5557 -1370.9869 296.3913
v -3510.5527 -1370.9859 290.8416
v -3510.9472 -1373.7889 296.3434
f 88 89 90
v -3510.9472 -1373.7889 296.3434
v -3510.5527 -1370.9859 290.8416
v -3510.5504 -1370.9851 286.5257
f 91 92 93
v -3511.2751 -1370.8812 286.5253
v -3511.2801 -1370.8830 295.8550
v -3511.0072 -1368.6937 295.8556
f 94 95 96
v -3510.2445 -1368.7969 286.5263
v -3502.6355 -1366.8853 286.5310
v -3502.2966 -1366.9342 286.5312
f 97 98 99
v -3503.4222 -1374.9842 286.5287
v -3510.2445 -1368.7969 286.5263
v -3502.2966 -1366.9342 286.5312
f 100 101 102
v -3510.5504 -1370.9851 286.5257
v -3510.3604 -1368.7806 286.5262
v -3510.2445 -1368.7969 286.5263
f 103 104 105
v -3511.2751 -1370.8812 286.5253
v -3511.0022 -1368.6919 286.5259
v -3510.3604 -1368.7806 286.5262
f 106 107 108
v -3510.2445 -1368.7969 286.5263
v -3509.8336 -1365.8610 286.5272
v -3502.6355 -1366.8853 286.5310
f 109 110 111
v -3503.4222 -1374.9842 286.5287
v -3510.5504 -1370.9851 286.5257
v -3510.2445 -1368.7969 286.5263
f 112 113 114
v -3510.9623 -1373.9310 286.5248
v -3510.9429 -1373.7980 286.5248
v -3503.4222 -1374.9842 286.5287
f 115 116 117
v -3503.4222 -1374.9842 286.5287
v -3510.9429 -1373.7980 286.5248
v -3510.5504 -1370.9851 286.5257
f 118 119 120
v -3510.5504 -1370.9851 286.5257
v -3511.2751 -1370.8812 286.5253
v -3510.3604 -1368.7806 286.5262
f 121 122 123
v -3510.9623 -1373.9310 286.5248
v -3510.9470 -1373.8190 286.5248
v -3510.9429 -1373.7980 286.5248
f 124 125 126
v -3503.4241 -1374.9849 290.1316
v -3510.9623 -1373.9310 286.5248
v -3503.4222 -1374.9842 286.5287
f 127 128 129
v -3510.9655 -1373.9321 292.5666
v -3503.4241 -1374.9849 290.1316
v -3503.4261 -1374.9855 293.7334
f 130 131 132
v -3503.4261 -1374.9855 293.7334
v -3503.4773 -1374.9789 296.1703
v -3510.9655 -1373.9321 292.5666
f 133 134 135
v -3510.9676 -1373.9328 296.2314
v -3510.9655 -1373.9321 292.5666
v -3503.4773 -1374.9789 296.1703
f 136 137 138
v -3503.4241 -1374.9849 290.1316
v -3510.9655 -1373.9321 292.5666
v -3510.9623 -1373.9310 286.5248
f 139 140 141
v -3503.4773 -1374.9789 296.1703
v -3503.4261 -1374.9855 293.7334
v -3503.4273 -1374.9861 296.1353
f 142 143 144
v -3502.3004 -1366.9356 293.6529
v -3509.8389 -1365.8629 296.4268
v -3502.9148 -1366.8485 296.6024
f 145 146 147
v -3509.8336 -1365.8610 286.5272
v -3509.8389 -1365.8629 296.4268
v -3502.2991 -1366.9351 291.2510
f 148 149 150
v -3502.3004 -1366.9356 293.6529
v -3502.9148 -1366.8485 296.6024
v -3502.6637 -1366.8842 296.3035
f 151 152 153
v -3502.3017 -1366.9361 296.0538
v -3502.3004 -1366.9356 293.6529
v -3502.6637 -1366.8842 296.3035
f 154 155 156
v -3509.8336 -1365.8610 286.5272
v -3502.2991 -1366.9351 291.2510
v -3502.6355 -1366.8853 286.5310
f 157 158 159
v -3502.2966 -1366.9342 286.5312
v -3502.6355 -1366.8853 286.5310
v -3502.2991 -1366.9351 291.2510
f 160 161 162
v -3502.3004 -1366.9356 293.6529
v -3502.2991 -1366.9351 291.2510
v -3509.8389 -1365.8629 296.4268
f 163 164 165
v -3509.8336 -1365.8610 286.5272
v -3510.2445 -1368.7969 286.5263
v -3510.2498 -1368.7989 296.4289
f 166 167 168
v -3509.8389 -1365.8629 296.4268
v -3509.8336 -1365.8610 286.5272
v -3510.2498 -1368.7989 296.4289
f 169 170 171
v -3509.8441 -1365.8999 296.4788
v -3509.8389 -1365.8629 296.4268
v -3510.2498 -1368.7989 296.4289
f 172 173 174
v -3510.2445 -1368.7969 286.5263
v -3510.3604 -1368.7806 286.5262
v -3511.0072 -1368.6937 295.8556
f 175 176 177
v -3511.0022 -1368.6919 286.5259
v -3511.0072 -1368.6937 295.8556
v -3510.3604 -1368.7806 286.5262
f 178 179 180
v -3510.2445 -1368.7969 286.5263
v -3510.3657 -1368.7825 296.2988
v -3510.2498 -1368.7989 296.4289
f 181 182 183
v -3510.2445 -1368.7969 286.5263
v -3511.0072 -1368.6937 295.8556
v -3510.3657 -1368.7825 296.2988
f 184 185 186
v -3510.5527 -1370.9859 290.8416
v -3510.6386 -1370.9747 296.2982
v -3511.2801 -1370.8830 295.8550
f 187 188 189
v -3510.6386 -1370.9747 296.2982
v -3510.5527 -1370.9859 290.8416
v -3510.5557 -1370.9869 296.3913
f 190 191 192
v -3510.5527 -1370.9859 290.8416
v -3511.2751 -1370.8812 286.5253
v -3510.5504 -1370.9851 286.5257
f 193 194 195
v -3511.2751 -1370.8812 286.5253
v -3510.5527 -1370.9859 290.8416
v -3511.2801 -1370.8830 295.8550
f 196 197 198
v -3510.9472 -1373.7889 296.3434
v -3510.9470 -1373.8190 286.5248
v -3510.9522 -1373.8209 296.2974
f 199 200 201
v -3510.9470 -1373.8190 286.5248
v -3510.9623 -1373.9310 286.5248
v -3510.9522 -1373.8209 296.2974
f 202 203 204
v -3503.1459 -1372.9737 296.1149
v -3502.3004 -1366.9356 293.6529
v -3502.3017 -1366.9361 296.0538
f 205 206 207
v -3503.1459 -1372.9737 296.1149
v -3503.4273 -1374.9861 296.1353
v -3503.4261 -1374.9855 293.7334
f 208 209 210
v -3503.1459 -1372.9737 296.1149
v -3503.4261 -1374.9855 293.7334
v -3503.4241 -1374.9849 290.1316
f 211 212 213
v -3511.2751 -1370.8812 286.5253
v -3511.0072 -1368.6937 295.8556
v -3511.0022 -1368.6919 286.5259
f 214 215 216

g building_ID_F73EE59A-3B99-4F58-8BD4-84CD6B303F77
v -3513.3210 -1386.1254 295.8355
v -3512.4303 -1383.9018 296.2154
v -3512.9938 -1383.8202 295.8582
f 217 218 219
v -3512.4303 -1383.9018 296.2154
v -3511.5155 -1381.3074 296.5805
v -3511.9919 -1380.7990 296.2434
f 220 221 222
v -3512.4303 -1383.9018 296.2154
v -3512.4718 -1388.8478 296.5783
v -3511.5155 -1381.3074 296.5805
f 223 224 225
v -3512.7554 -1386.2019 296.1938
v -3512.4303 -1383.9018 296.2154
v -3513.3210 -1386.1254 295.8355
f 226 227 228
v -3513.1567 -1389.2808 296.1869
v -3512.7554 -1386.2019 296.1938
v -3513.1897 -1389.2758 296.1649
f 229 230 231
v -3512.4718 -1388.8478 296.5783
v -3512.7554 -1386.2019 296.1938
v -3513.1567 -1389.2808 296.1869
f 232 233 234
v -3512.4303 -1383.9018 296.2154
v -3512.7554 -1386.2019 296.1938
v -3512.4718 -1388.8478 296.5783
f 235 236 237
v -3505.9750 -1389.6732 296.5817
v -3512.4718 -1388.8478 296.5783
v -3513.1567 -1389.2808 296.1869
f 238 239 240
v -3513.1567 -1389.2808 296.1869
v -3505.2878 -1390.4029 296.0980
v -3505.9750 -1389.6732 296.5817
f 241 242 243
v -3508.7664 -1386.4674 300.2468
v -3512.4718 -1388.8478 296.5783
v -3505.9750 -1389.6732 296.5817
f 244 245 246
v -3512.4718 -1388.8478 296.5783
v -3508.5222 -1384.5391 300.2474
v -3511.5155 -1381.3074 296.5805
f 247 248 249
v -3508.5222 -1384.5391 300.2474
v -3512.4718 -1388.8478 296.5783
v -3508.7664 -1386.4674 300.2468
f 250 251 252
v -3505.0178 -1382.1318 296.5839
v -3508.7664 -1386.4674 300.2468
v -3505.9750 -1389.6732 296.5817
f 253 254 255
v -3508.7664 -1386.4674 300.2468
v -3505.0178 -1382.1318 296.5839
v -3508.5222 -1384.5391 300.2474
f 256 257 258
v -3505.2878 -1390.4029 296.0980
v -3505.1397 -1390.4243 296.0040
v -3504.8309 -1388.2341 295.9857
f 259 260 261
v -3504.8309 -1388.2341 295.9857
v -3505.9750 -1389.6732 296.5817
v -3505.2878 -1390.4029 296.0980
f 262 263 264
v -3504.5248 -1381.8201 296.3022
v -3504.8309 -1388.2341 295.9857
v -3503.9378 -1381.9036 295.9315
f 265 266 267
v -3505.9750 -1389.6732 296.5817
v -3504.5248 -1381.8201 296.3022
v -3505.0178 -1382.1318 296.5839
f 268 269 270
v -3504.8309 -1388.2341 295.9857
v -3504.5248 -1381.8201 296.3022
v -3505.9750 -1389.6732 296.5817
f 271 272 273
v -3511.5155 -1381.3074 296.5805
v -3505.0178 -1382.1318 296.5839
v -3504.5248 -1381.8201 296.3022
f 274 275 276
v -3511.5155 -1381.3074 296.5805
v -3504.5248 -1381.8201 296.3022
v -3511.9919 -1380.7990 296.2434
f 277 278 279
v -3511.9869 -1380.7611 296.2144
v -3511.9919 -1380.7990 296.2434
v -3504.5248 -1381.8201 296.3022
f 280 281 282
v -3508.5222 -1384.5391 300.2474
v -3505.0178 -1382.1318 296.5839
v -3511.5155 -1381.3074 296.5805
f 283 284 285
v -3512.7554 -1386.2019 296.1938
v -3513.1843 -1389.2738 286.2393
v -3513.1897 -1389.2758 296.1649
f 286 287 288
v -3512.7554 -1386.2019 296.1938
v -3512.7501 -1386.2000 286.2402
v -3513.1843 -1389.2738 286.2393
f 289 290 291
v -3513.1843 -1389.2738 286.2393
v -3513.1557 -1389.2794 288.7252
v -3513.1897 -1389.2758 296.1649
f 292 293 294
v -3512.4303 -1383.9018 296.2154
v -3512.4249 -1383.8999 286.2408
v -3512.9938 -1383.8202 295.8582
f 295 296 297
v -3512.4249 -1383.8999 286.2408
v -3512.9887 -1383.8184 286.2406
v -3512.9938 -1383.8202 295.8582
f 298 299 300
v -3512.9887 -1383.8184 286.2406
v -3513.3159 -1386.1235 286.2399
v -3513.3210 -1386.1254 295.8355
f 301 302 303
v -3513.3210 -1386.1254 295.8355
v -3512.9938 -1383.8202 295.8582
v -3512.9887 -1383.8184 286.2406
f 304 305 306
v -3513.3159 -1386.1235 286.2399
v -3512.7501 -1386.2000 286.2402
v -3512.7554 -1386.2019 296.1938
f 307 308 309
v -3513.3159 -1386.1235 286.2399
v -3512.7554 -1386.2019 296.1938
v -3513.3210 -1386.1254 295.8355
f 310 311 312
v -3503.9365 -1381.9031 293.4916
v -3503.9378 -1381.9036 295.9315
v -3504.8309 -1388.2341 295.9857
f 313 314 315
v -3504.8309 -1388.2341 295.9857
v -3505.1345 -1390.4224 286.2434
v -3503.9326 -1381.9017 286.2459
f 316 317 318
v -3504.8309 -1388.2341 295.9857
v -3505.1358 -1390.4229 288.6833
v -3505.1345 -1390.4224 286.2434
f 319 320 321
v -3512.4249 -1383.8999 286.2408
v -3504.5194 -1381.8181 286.2456
v -3503.9326 -1381.9017 286.2459
f 322 323 324
v -3505.1345 -1390.4224 286.2434
v -3512.4249 -1383.8999 286.2408
v -3503.9326 -1381.9017 286.2459
f 325 326 327
v -3512.4249 -1383.8999 286.2408
v -3512.7501 -1386.2000 286.2402
v -3512.9887 -1383.8184 286.2406
f 328 329 330
v -3512.4249 -1383.8999 286.2408
v -3511.9815 -1380.7591 286.2418
v -3504.5194 -1381.8181 286.2456
f 331 332 333
v -3512.7501 -1386.2000 286.2402
v -3513.3159 -1386.1235 286.2399
v -3512.9887 -1383.8184 286.2406
f 334 335 336
v -3512.7501 -1386.2000 286.2402
v -3505.1345 -1390.4224 286.2434
v -3513.1843 -1389.2738 286.2393
f 337 338 339
v -3505.1345 -1390.4224 286.2434
v -3512.7501 -1386.2000 286.2402
v -3512.4249 -1383.8999 286.2408
f 340 341 342
v -3512.4249 -1383.8999 286.2408
v -3511.9919 -1380.7990 296.2434
v -3511.9815 -1380.7591 286.2418
f 343 344 345
v -3511.9919 -1380.7990 296.2434
v -3511.9869 -1380.7611 296.2144
v -3511.9815 -1380.7591 286.2418
f 346 347 348
v -3512.4303 -1383.9018 296.2154
v -3511.9919 -1380.7990 296.2434
v -3512.4249 -1383.8999 286.2408
f 349 350 351
v -3505.1358 -1390.4229 288.6833
v -3505.1385 -1390.4238 293.5641
v -3513.1557 -1389.2794 288.7252
f 352 353 354
v -3505.1358 -1390.4229 288.6833
v -3513.1557 -1389.2794 288.7252
v -3505.1345 -1390.4224 286.2434
f 355 356 357
v -3505.2878 -1390.4029 296.0980
v -3505.1385 -1390.4238 293.5641
v -3505.1397 -1390.4243 296.0040
f 358 359 360
v -3513.1554 -1389.2803 293.7000
v -3505.2878 -1390.4029 296.0980
v -3513.1567 -1389.2808 296.1869
f 361 362 363
v -3505.1385 -1390.4238 293.5641
v -3513.1554 -1389.2803 293.7000
v -3513.1557 -1389.2794 288.7252
f 364 365 366
v -3505.1345 -1390.4224 286.2434
v -3513.1557 -1389.2794 288.7252
v -3513.1843 -1389.2738 286.2393
f 367 368 369
v -3505.1385 -1390.4238 293.5641
v -3505.2878 -1390.4029 296.0980
v -3513.1554 -1389.2803 293.7000
f 370 371 372
v -3504.5248 -1381.8201 296.3022
v -3503.9365 -1381.9031 293.4916
v -3511.9869 -1380.7611 296.2144
f 373 374 375
v -3511.9869 -1380.7611 296.2144
v -3503.9352 -1381.9027 291.0507
v -3511.9815 -1380.7591 286.2418
f 376 377 378
v -3503.9365 -1381.9031 293.4916
v -3504.5248 -1381.8201 296.3022
v -3503.9378 -1381.9036 295.9315
f 379 380 381
v -3511.9815 -1380.7591 286.2418
v -3503.9352 -1381.9027 291.0507
v -3504.5194 -1381.8181 286.2456
f 382 383 384
v -3503.9352 -1381.9027 291.0507
v -3503.9326 -1381.9017 286.2459
v -3504.5194 -1381.8181 286.2456
f 385 386 387
v -3503.9365 -1381.9031 293.4916
v -3503.9352 -1381.9027 291.0507
v -3511.9869 -1380.7611 296.2144
f 388 389 390
v -3513.1554 -1389.2803 293.7000
v -3513.1567 -1389.2808 296.1869
v -3513.1897 -1389.2758 296.1649
f 391 392 393
v -3513.1897 -1389.2758 296.1649
v -3513.1557 -1389.2794 288.7252
v -3513.1554 -1389.2803 293.7000
f 394 395 396
v -3504.8309 -1388.2341 295.9857
v -3503.9352 -1381.9027 291.0507
v -3503.9365 -1381.9031 293.4916
f 397 398 399
v -3503.9352 -1381.9027 291.0507
v -3504.8309 -1388.2341 295.9857
v -3503.9326 -1381.9017 286.2459
f 400 401 402
v -3504.8309 -1388.2341 295.9857
v -3505.1397 -1390.4243 296.0040
v -3505.1385 -1390.4238 293.5641
f 403 404 405
v -3505.1358 -1390.4229 288.6833
v -3504.8309 -1388.2341 295.9857
v -3505.1385 -1390.4238 293.5641
f 406 407 408

g building_ID_D075D45E-A1F4-4C11-BEDF-B756528A2708
v -3507.9283 -1340.6126 298.5232
v -3508.0533 -1340.2912 298.2482
v -3508.1289 -1340.9020 298.2430
f 409 410 411
v -3501.2422 -1344.8960 295.3970
v -3508.1289 -1340.9020 298.2430
v -3508.5138 -1344.0484 295.3932
f 412 413 414
v -3500.8136 -1341.4417 298.5269
v -3507.9283 -1340.6126 298.5232
v -3501.2422 -1344.8960 295.3970
f 415 416 417
v -3508.1289 -1340.9020 298.2430
v -3501.2422 -1344.8960 295.3970
v -3507.9283 -1340.6126 298.5232
f 418 419 420
v -3501.2373 -1344.8943 286.3774
v -3501.2422 -1344.8960 295.3970
v -3508.5138 -1344.0484 295.3932
f 421 422 423
v -3507.6594 -1337.1371 286.3756
v -3507.6643 -1337.1388 295.3952
v -3500.3826 -1337.9873 295.3990
f 424 425 426
v -3500.8071 -1341.4395 286.3784
v -3508.0468 -1340.2890 286.3747
v -3507.6594 -1337.1371 286.3756
f 427 428 429
v -3508.1225 -1340.8998 286.3745
v -3501.2373 -1344.8943 286.3774
v -3508.5090 -1344.0467 286.3736
f 430 431 432
v -3500.8071 -1341.4395 286.3784
v -3508.1225 -1340.8998 286.3745
v -3508.0468 -1340.2890 286.3747
f 433 434 435
v -3507.6594 -1337.1371 286.3756
v -3500.3777 -1337.9856 286.3794
v -3500.8071 -1341.4395 286.3784
f 436 437 438
v -3500.8071 -1341.4395 286.3784
v -3501.2373 -1344.8943 286.3774
v -3508.1225 -1340.8998 286.3745
f 439 440 441
v -3501.2422 -1344.8960 295.3970
v -3500.3826 -1337.9873 295.3990
v -3500.8136 -1341.4417 298.5269
f 442 443 444
v -3500.8071 -1341.4395 286.3784
v -3500.3826 -1337.9873 295.3990
v -3501.2422 -1344.8960 295.3970
f 445 446 447
v -3500.3777 -1337.9856 286.3794
v -3500.3826 -1337.9873 295.3990
v -3500.8071 -1341.4395 286.3784
f 448 449 450
v -3501.2373 -1344.8943 286.3774
v -3500.8071 -1341.4395 286.3784
v -3501.2422 -1344.8960 295.3970
f 451 452 453
v -3508.0101 -1339.9452 297.9353
v -3507.9283 -1340.6126 298.5232
v -3500.8136 -1341.4417 298.5269
f 454 455 456
v -3500.3826 -1337.9873 295.3990
v -3508.0101 -1339.9452 297.9353
v -3500.8136 -1341.4417 298.5269
f 457 458 459
v -3507.9283 -1340.6126 298.5232
v -3508.0101 -1339.9452 297.9353
v -3508.0533 -1340.2912 298.2482
f 460 461 462
v -3507.6643 -1337.1388 295.3952
v -3508.0101 -1339.9452 297.9353
v -3500.3826 -1337.9873 295.3990
f 463 464 465
v -3508.1289 -1340.9020 298.2430
v -3508.0533 -1340.2912 298.2482
v -3508.0101 -1339.9452 297.9353
f 466 467 468
v -3508.5138 -1344.0484 295.3932
v -3508.1289 -1340.9020 298.2430
v -3508.0101 -1339.9452 297.9353
f 469 470 471
v -3508.5138 -1344.0484 295.3932
v -3508.0101 -1339.9452 297.9353
v -3507.6643 -1337.1388 295.3952
f 472 473 474
v -3508.0468 -1340.2890 286.3747
v -3507.6643 -1337.1388 295.3952
v -3507.6594 -1337.1371 286.3756
f 475 476 477
v -3508.5138 -1344.0484 295.3932
v -3508.1225 -1340.8998 286.3745
v -3508.5090 -1344.0467 286.3736
f 478 479 480
v -3508.1225 -1340.8998 286.3745
v -3508.5138 -1344.0484 295.3932
v -3508.0468 -1340.2890 286.3747
f 481 482 483
v -3508.0468 -1340.2890 286.3747
v -3508.5138 -1344.0484 295.3932
v -3507.6643 -1337.1388 295.3952
f 484 485 486
v -3501.2373 -1344.8943 286.3774
v -3508.5138 -1344.0484 295.3932
v -3508.5090 -1344.0467 286.3736
f 487 488 489
v -3507.6594 -1337.1371 286.3756
v -3500.3826 -1337.9873 295.3990
v -3500.3777 -1337.9856 286.3794
f 490 491 492

g building_ID_7910B259-3231-4959-8A74-579CEDF77FF9
v -3523.5430 -1456.3020 298.5450
v -3522.6323 -1456.4164 298.5385
v -3523.4021 -1456.3173 298.5451
f 493 494 495
v -3518.4215 -1456.8507 298.5477
v -3517.4065 -1450.5780 296.3738
v -3520.4889 -1456.6292 298.5466
f 496 497 498
v -3518.6323 -1457.1088 296.8416
v -3518.6331 -1457.1091 298.4275
v -3520.3856 -1456.9234 298.4256
f 499 500 501
v -3518.6333 -1457.1228 296.8426
v -3518.7347 -1458.1232 285.3158
v -3518.7416 -1458.1258 297.9862
f 502 503 504
v -3518.6323 -1457.1088 296.8416
v -3518.6333 -1457.1228 296.8426
v -3518.6331 -1457.1091 298.4275
f 505 506 507
v -3518.7416 -1458.1258 297.9862
v -3518.6331 -1457.1091 298.4275
v -3518.6333 -1457.1228 296.8426
f 508 509 510
v -3518.6261 -1457.1065 285.3161
v -3518.6276 -1457.1206 286.3470
v -3518.6266 -1457.1067 286.3470
f 511 512 513
v -3518.7347 -1458.1232 285.3158
v -3518.6276 -1457.1206 286.3470
v -3518.6261 -1457.1065 285.3161
f 514 515 516
v -3518.7347 -1458.1232 285.3158
v -3518.6333 -1457.1228 296.8426
v -3518.6276 -1457.1206 286.3470
f 517 518 519
v -3518.6297 -1458.1391 297.9863
v -3518.7347 -1458.1232 285.3158
v -3518.6271 -1458.1381 293.2345
f 520 521 522
v -3518.6245 -1458.1371 288.4837
v -3518.6271 -1458.1381 293.2345
v -3518.7347 -1458.1232 285.3158
f 523 524 525
v -3518.6228 -1458.1365 285.3159
v -3518.6245 -1458.1371 288.4837
v -3518.7347 -1458.1232 285.3158
f 526 527 528
v -3523.4219 -1448.5286 285.3154
v -3523.4225 -1448.5288 286.3463
v -3517.2243 -1449.1914 286.3496
f 529 530 531
v -3524.2446 -1456.2104 285.3132
v -3524.2517 -1456.2131 298.5406
v -3524.2441 -1456.2046 286.3441
f 532 533 534
v -3523.4219 -1448.5286 285.3154
v -3524.2441 -1456.2046 286.3441
v -3523.4225 -1448.5288 286.3463
f 535 536 537
v -3524.2446 -1456.2104 285.3132
v -3524.2441 -1456.2046 286.3441
v -3523.4219 -1448.5286 285.3154
f 538 539 540
v -3518.4143 -1456.8480 285.3163
v -3518.6261 -1457.1065 285.3161
v -3522.3829 -1456.7084 285.3141
f 541 542 543
v -3518.6261 -1457.1065 285.3161
v -3518.6228 -1458.1365 285.3159
v -3518.7347 -1458.1232 285.3158
f 544 545 546
v -3518.4143 -1456.8480 285.3163
v -3518.6228 -1458.1365 285.3159
v -3518.6261 -1457.1065 285.3161
f 547 548 549
v -3517.3578 -1450.3119 285.3184
v -3522.3829 -1456.7084 285.3141
v -3522.6251 -1456.4137 285.3141
f 550 551 552
v -3523.4219 -1448.5286 285.3154
v -3523.5358 -1456.2993 285.3136
v -3524.2446 -1456.2104 285.3132
f 553 554 555
v -3522.6251 -1456.4137 285.3141
v -3523.4219 -1448.5286 285.3154
v -3517.3578 -1450.3119 285.3184
f 556 557 558
v -3522.3829 -1456.7084 285.3141
v -3517.3578 -1450.3119 285.3184
v -3518.4143 -1456.8480 285.3163
f 559 560 561
v -3517.2238 -1449.1913 285.3187
v -3517.3578 -1450.3119 285.3184
v -3523.4219 -1448.5286 285.3154
f 562 563 564
v -3523.4219 -1448.5286 285.3154
v -3522.6251 -1456.4137 285.3141
v -3523.5358 -1456.2993 285.3136
f 565 566 567
v -3523.3564 -1445.1816 299.0596
v -3524.1362 -1456.2226 299.4167
v -3521.8044 -1447.1161 300.6349
f 568 569 570
v -3526.1283 -1450.4038 297.0780
v -3523.3564 -1445.1816 299.0596
v -3525.4477 -1444.9306 297.1636
f 571 572 573
v -3521.8044 -1447.1161 300.6349
v -3524.1362 -1456.2226 299.4167
v -3522.6507 -1455.0178 300.6327
f 574 575 576
v -3526.8090 -1455.8768 296.9914
v -3524.1362 -1456.2226 299.4167
v -3526.1283 -1450.4038 297.0780
f 577 578 579
v -3526.1283 -1450.4038 297.0780
v -3524.1362 -1456.2226 299.4167
v -3523.3564 -1445.1816 299.0596
f 580 581 582
v -3522.6327 -1456.4166 299.3875
v -3522.3824 -1456.7212 299.1395
v -3521.1768 -1456.8495 299.1402
f 583 584 585
v -3524.1362 -1456.2226 299.4167
v -3522.6327 -1456.4166 299.3875
v -3522.6507 -1455.0178 300.6327
f 586 587 588
v -3521.1768 -1456.8495 299.1402
v -3522.6507 -1455.0178 300.6327
v -3522.6327 -1456.4166 299.3875
f 589 590 591
v -3521.8044 -1447.1161 300.6349
v -3519.9255 -1445.5938 299.1024
v -3523.3564 -1445.1816 299.0596
f 592 593 594
v -3526.8032 -1455.8747 286.3428
v -3526.8090 -1455.8768 296.9914
v -3525.4418 -1444.9284 286.3460
f 595 596 597
v -3526.1283 -1450.4038 297.0780
v -3525.4477 -1444.9306 297.1636
v -3525.4462 -1444.9301 294.4597
f 598 599 600
v -3525.4447 -1444.9295 291.7548
v -3525.4433 -1444.9290 289.0509
v -3526.1283 -1450.4038 297.0780
f 601 602 603
v -3525.4433 -1444.9290 289.0509
v -3525.4418 -1444.9284 286.3460
v -3526.8090 -1455.8768 296.9914
f 604 605 606
v -3518.6297 -1458.1391 297.9863
v -3518.4215 -1456.8507 298.5477
v -3518.6331 -1457.1091 298.4275
f 607 608 609
v -3520.3856 -1456.9234 298.4256
v -3518.6331 -1457.1091 298.4275
v -3520.4889 -1456.6292 298.5466
f 610 611 612
v -3518.4215 -1456.8507 298.5477
v -3520.4889 -1456.6292 298.5466
v -3518.6331 -1457.1091 298.4275
f 613 614 615
v -3518.6297 -1458.1391 297.9863
v -3518.6331 -1457.1091 298.4275
v -3518.7416 -1458.1258 297.9862
f 616 617 618
v -3524.2507 -1456.2071 298.5376
v -3523.5430 -1456.3020 298.5450
v -3523.4021 -1456.3173 298.5451
f 619 620 621
v -3524.2517 -1456.2131 298.5406
v -3523.5430 -1456.3020 298.5450
v -3524.2507 -1456.2071 298.5376
f 622 623 624
v -3518.6261 -1457.1065 285.3161
v -3518.6266 -1457.1067 286.3470
v -3522.3835 -1456.7086 286.3450
f 625 626 627
v -3520.3856 -1456.9234 298.4256
v -3518.6333 -1457.1228 296.8426
v -3518.6323 -1457.1088 296.8416
f 628 629 630
v -3520.4889 -1456.6292 298.5466
v -3521.1768 -1456.8495 299.1402
v -3520.3856 -1456.9234 298.4256
f 631 632 633
v -3518.6333 -1457.1228 296.8426
v -3520.3856 -1456.9234 298.4256
v -3521.1768 -1456.8495 299.1402
f 634 635 636
v -3519.9255 -1445.5938 299.1024
v -3521.1768 -1456.8495 299.1402
v -3520.4889 -1456.6292 298.5466
f 637 638 639
v -3517.3637 -1450.3142 296.3609
v -3519.9255 -1445.5938 299.1024
v -3517.4065 -1450.5780 296.3738
f 640 641 642
v -3516.8420 -1445.9625 296.3121
v -3519.9255 -1445.5938 299.1024
v -3517.3637 -1450.3142 296.3609
f 643 644 645
v -3522.6507 -1455.0178 300.6327
v -3521.1768 -1456.8495 299.1402
v -3521.8044 -1447.1161 300.6349
f 646 647 648
v -3521.8044 -1447.1161 300.6349
v -3521.1768 -1456.8495 299.1402
v -3519.9255 -1445.5938 299.1024
f 649 650 651
v -3519.9255 -1445.5938 299.1024
v -3520.4889 -1456.6292 298.5466
v -3517.4065 -1450.5780 296.3738
f 652 653 654
v -3521.1699 -1456.8468 286.3457
v -3522.3755 -1456.7186 286.3450
v -3522.3835 -1456.7086 286.3450
f 655 656 657
v -3518.6276 -1457.1206 286.3470
v -3521.1699 -1456.8468 286.3457
v -3518.6266 -1457.1067 286.3470
f 658 659 660
v -3522.3835 -1456.7086 286.3450
v -3518.6266 -1457.1067 286.3470
v -3521.1699 -1456.8468 286.3457
f 661 662 663
v -3524.2441 -1456.2046 286.3441
v -3525.4418 -1444.9284 286.3460
v -3523.4225 -1448.5288 286.3463
f 664 665 666
v -3525.4418 -1444.9284 286.3460
v -3524.2441 -1456.2046 286.3441
v -3526.8032 -1455.8747 286.3428
f 667 668 669
v -3523.4225 -1448.5288 286.3463
v -3525.4418 -1444.9284 286.3460
v -3523.3495 -1445.1791 286.3471
f 670 671 672
v -3519.9186 -1445.5913 286.3489
v -3517.2243 -1449.1914 286.3496
v -3523.4225 -1448.5288 286.3463
f 673 674 675
v -3517.2243 -1449.1914 286.3496
v -3519.9186 -1445.5913 286.3489
v -3516.8367 -1445.9606 286.3505
f 676 677 678
v -3519.9186 -1445.5913 286.3489
v -3523.4225 -1448.5288 286.3463
v -3523.3495 -1445.1791 286.3471
f 679 680 681
v -3522.3824 -1456.7212 299.1395
v -3522.3835 -1456.7086 286.3450
v -3522.3755 -1456.7186 286.3450
f 682 683 684
v -3522.6251 -1456.4137 285.3141
v -3522.3829 -1456.7084 285.3141
v -3522.3835 -1456.7086 286.3450
f 685 686 687
v -3522.6323 -1456.4164 298.5385
v -3522.3824 -1456.7212 299.1395
v -3522.6327 -1456.4166 299.3875
f 688 689 690
v -3522.6323 -1456.4164 298.5385
v -3522.6251 -1456.4137 285.3141
v -3522.3835 -1456.7086 286.3450
f 691 692 693
v -3522.3824 -1456.7212 299.1395
v -3522.6323 -1456.4164 298.5385
v -3522.3835 -1456.7086 286.3450
f 694 695 696
v -3523.5358 -1456.2993 285.3136
v -3522.6251 -1456.4137 285.3141
v -3522.6323 -1456.4164 298.5385
f 697 698 699
v -3523.5430 -1456.3020 298.5450
v -3523.5358 -1456.2993 285.3136
v -3522.6323 -1456.4164 298.5385
f 700 701 702
v -3524.2446 -1456.2104 285.3132
v -3523.5430 -1456.3020 298.5450
v -3524.2517 -1456.2131 298.5406
f 703 704 705
v -3523.5358 -1456.2993 285.3136
v -3523.5430 -1456.3020 298.5450
v -3524.2446 -1456.2104 285.3132
f 706 707 708
v -3516.8420 -1445.9625 296.3121
v -3517.2243 -1449.1914 286.3496
v -3516.8367 -1445.9606 286.3505
f 709 710 711
v -3517.3578 -1450.3119 285.3184
v -3517.2238 -1449.1913 285.3187
v -3517.2243 -1449.1914 286.3496
f 712 713 714
v -3517.2243 -1449.1914 286.3496
v -3517.3637 -1450.3142 296.3609
v -3517.3578 -1450.3119 285.3184
f 715 716 717
v -3516.8420 -1445.9625 296.3121
v -3517.3637 -1450.3142 296.3609
v -3517.2243 -1449.1914 286.3496
f 718 719 720
v -3518.6276 -1457.1206 286.3470
v -3518.6333 -1457.1228 296.8426
v -3521.1699 -1456.8468 286.3457
f 721 722 723
v -3521.1768 -1456.8495 299.1402
v -3521.1699 -1456.8468 286.3457
v -3518.6333 -1457.1228 296.8426
f 724 725 726
v -3521.1768 -1456.8495 299.1402
v -3522.3824 -1456.7212 299.1395
v -3522.3755 -1456.7186 286.3450
f 727 728 729
v -3525.4462 -1444.9301 294.4597
v -3523.3564 -1445.1816 299.0596
v -3519.9255 -1445.5938 299.1024
f 730 731 732
v -3525.4477 -1444.9306 297.1636
v -3523.3564 -1445.1816 299.0596
v -3525.4462 -1444.9301 294.4597
f 733 734 735
v -3516.8420 -1445.9625 296.3121
v -3525.4447 -1444.9295 291.7548
v -3525.4462 -1444.9301 294.4597
f 736 737 738
v -3516.8420 -1445.9625 296.3121
v -3525.4462 -1444.9301 294.4597
v -3519.9255 -1445.5938 299.1024
f 739 740 741
v -3519.9186 -1445.5913 286.3489
v -3516.8420 -1445.9625 296.3121
v -3516.8367 -1445.9606 286.3505
f 742 743 744
v -3525.4447 -1444.9295 291.7548
v -3519.9186 -1445.5913 286.3489
v -3525.4433 -1444.9290 289.0509
f 745 746 747
v -3525.4418 -1444.9284 286.3460
v -3525.4433 -1444.9290 289.0509
v -3523.3495 -1445.1791 286.3471
f 748 749 750
v -3519.9186 -1445.5913 286.3489
v -3523.3495 -1445.1791 286.3471
v -3525.4433 -1444.9290 289.0509
f 751 752 753
v -3516.8420 -1445.9625 296.3121
v -3519.9186 -1445.5913 286.3489
v -3525.4447 -1444.9295 291.7548
f 754 755 756
v -3523.4021 -1456.3173 298.5451
v -3524.1362 -1456.2226 299.4167
v -3524.2507 -1456.2071 298.5376
f 757 758 759
v -3522.6323 -1456.4164 298.5385
v -3522.6327 -1456.4166 299.3875
v -3523.4021 -1456.3173 298.5451
f 760 761 762
v -3524.1362 -1456.2226 299.4167
v -3523.4021 -1456.3173 298.5451
v -3522.6327 -1456.4166 299.3875
f 763 764 765
v -3524.1362 -1456.2226 299.4167
v -3526.8090 -1455.8768 296.9914
v -3524.2507 -1456.2071 298.5376
f 766 767 768
v -3526.8090 -1455.8768 296.9914
v -3526.8032 -1455.8747 286.3428
v -3524.2441 -1456.2046 286.3441
f 769 770 771
v -3526.8090 -1455.8768 296.9914
v -3524.2441 -1456.2046 286.3441
v -3524.2507 -1456.2071 298.5376
f 772 773 774
v -3518.6245 -1458.1371 288.4837
v -3518.4143 -1456.8480 285.3163
v -3517.3578 -1450.3119 285.3184
f 775 776 777
v -3517.3637 -1450.3142 296.3609
v -3517.4065 -1450.5780 296.3738
v -3517.3578 -1450.3119 285.3184
f 778 779 780
v -3517.3578 -1450.3119 285.3184
v -3517.4065 -1450.5780 296.3738
v -3518.6271 -1458.1381 293.2345
f 781 782 783
v -3518.6271 -1458.1381 293.2345
v -3517.4065 -1450.5780 296.3738
v -3518.4215 -1456.8507 298.5477
f 784 785 786
v -3518.6228 -1458.1365 285.3159
v -3518.4143 -1456.8480 285.3163
v -3518.6245 -1458.1371 288.4837
f 787 788 789
v -3518.6245 -1458.1371 288.4837
v -3517.3578 -1450.3119 285.3184
v -3518.6271 -1458.1381 293.2345
f 790 791 792
v -3518.6297 -1458.1391 297.9863
v -3518.6271 -1458.1381 293.2345
v -3518.4215 -1456.8507 298.5477
f 793 794 795
v -3518.7347 -1458.1232 285.3158
v -3518.6297 -1458.1391 297.9863
v -3518.7416 -1458.1258 297.9862
f 796 797 798
v -3523.4219 -1448.5286 285.3154
v -3517.2243 -1449.1914 286.3496
v -3517.2238 -1449.1913 285.3187
f 799 800 801
v -3524.2517 -1456.2131 298.5406
v -3524.2507 -1456.2071 298.5376
v -3524.2441 -1456.2046 286.3441
f 802 803 804
v -3525.4433 -1444.9290 289.0509
v -3526.8090 -1455.8768 296.9914
v -3526.1283 -1450.4038 297.0780
f 805 806 807
v -3526.1283 -1450.4038 297.0780
v -3525.4462 -1444.9301 294.4597
v -3525.4447 -1444.9295 291.7548
f 808 809 810
v -3518.6261 -1457.1065 285.3161
v -3522.3835 -1456.7086 286.3450
v -3522.3829 -1456.7084 285.3141
f 811 812 813
v -3521.1768 -1456.8495 299.1402
v -3522.3755 -1456.7186 286.3450
v -3521.1699 -1456.8468 286.3457
f 814 815 816

g building_ID_6437C1E1-07DC-46D1-AB29-A16CCA27014C
v -3508.2345 -1457.9411 298.5530
v -3518.6297 -1458.1391 297.9863
v -3518.7666 -1459.3356 297.4669
f 817 818 819
v -3518.7666 -1459.3356 297.4669
v -3519.0936 -1462.1795 296.2322
v -3513.1795 -1462.8993 296.1983
f 820 821 822
v -3508.2345 -1457.9411 298.5530
v -3513.1795 -1462.8993 296.1983
v -3508.8209 -1463.4290 296.1736
f 823 824 825
v -3513.1795 -1462.8993 296.1983
v -3508.2345 -1457.9411 298.5530
v -3518.7666 -1459.3356 297.4669
f 826 827 828
v -3518.4215 -1456.8507 298.5477
v -3518.6297 -1458.1391 297.9863
v -3508.2345 -1457.9411 298.5530
f 829 830 831
v -3517.3637 -1450.3142 296.2819
v -3518.4215 -1456.8507 298.5477
v -3511.6236 -1451.0025 296.3099
f 832 833 834
v -3508.2345 -1457.9411 298.5530
v -3507.5440 -1451.4925 296.3300
v -3511.6236 -1451.0025 296.3099
f 835 836 837
v -3518.4215 -1456.8507 298.5477
v -3508.2345 -1457.9411 298.5530
v -3511.6236 -1451.0025 296.3099
f 838 839 840
v -3518.8133 -1459.7909 285.3154
v -3519.0876 -1462.1772 285.3146
v -3519.0936 -1462.1795 296.2322
f 841 842 843
v -3518.6297 -1458.1391 297.9863
v -3518.6279 -1458.1383 294.8185
v -3518.7666 -1459.3356 297.4669
f 844 845 846
v -3518.6279 -1458.1383 294.8185
v -3518.6254 -1458.1375 290.0677
v -3518.7666 -1459.3356 297.4669
f 847 848 849
v -3518.8133 -1459.7909 285.3154
v -3518.7666 -1459.3356 297.4669
v -3518.6254 -1458.1375 290.0677
f 850 851 852
v -3518.8133 -1459.7909 285.3154
v -3518.6254 -1458.1375 290.0677
v -3518.6228 -1458.1365 285.3159
f 853 854 855
v -3508.8209 -1463.4290 296.1736
v -3513.1795 -1462.8993 296.1983
v -3508.8194 -1463.4284 293.4437
f 856 857 858
v -3508.8151 -1463.4267 285.3201
v -3508.8180 -1463.4279 290.7148
v -3513.1795 -1462.8993 296.1983
f 859 860 861
v -3519.0936 -1462.1795 296.2322
v -3519.0876 -1462.1772 285.3146
v -3513.1795 -1462.8993 296.1983
f 862 863 864
v -3508.8151 -1463.4267 285.3201
v -3513.1795 -1462.8993 296.1983
v -3515.6638 -1462.5934 285.3164
f 865 866 867
v -3519.0876 -1462.1772 285.3146
v -3515.6638 -1462.5934 285.3164
v -3513.1795 -1462.8993 296.1983
f 868 869 870
v -3512.1447 -1450.9391 291.1488
v -3512.1565 -1450.9359 285.3211
v -3517.3637 -1450.3142 296.2819
f 871 872 873
v -3517.3578 -1450.3119 285.3184
v -3517.3615 -1450.3133 292.1541
v -3512.1565 -1450.9359 285.3211
f 874 875 876
v -3511.6236 -1451.0025 296.3099
v -3507.5440 -1451.4925 296.3300
v -3507.5425 -1451.4920 293.5781
f 877 878 879
v -3507.5410 -1451.4914 290.8262
v -3507.5380 -1451.4902 285.3235
v -3511.6236 -1451.0025 296.3099
f 880 881 882
v -3507.5380 -1451.4902 285.3235
v -3512.1565 -1450.9359 285.3211
v -3512.1447 -1450.9391 291.1488
f 883 884 885
v -3518.4143 -1456.8480 285.3163
v -3512.1565 -1450.9359 285.3211
v -3508.2274 -1457.9384 285.3216
f 886 887 888
v -3507.5380 -1451.4902 285.3235
v -3508.2274 -1457.9384 285.3216
v -3512.1565 -1450.9359 285.3211
f 889 890 891
v -3518.4143 -1456.8480 285.3163
v -3508.2274 -1457.9384 285.3216
v -3508.8151 -1463.4267 285.3201
f 892 893 894
v -3518.8133 -1459.7909 285.3154
v -3515.6638 -1462.5934 285.3164
v -3519.0876 -1462.1772 285.3146
f 895 896 897
v -3515.6638 -1462.5934 285.3164
v -3518.8133 -1459.7909 285.3154
v -3518.6228 -1458.1365 285.3159
f 898 899 900
v -3518.4143 -1456.8480 285.3163
v -3515.6638 -1462.5934 285.3164
v -3518.6228 -1458.1365 285.3159
f 901 902 903
v -3518.4143 -1456.8480 285.3163
v -3517.3578 -1450.3119 285.3184
v -3512.1565 -1450.9359 285.3211
f 904 905 906
v -3515.6638 -1462.5934 285.3164
v -3518.4143 -1456.8480 285.3163
v -3508.8151 -1463.4267 285.3201
f 907 908 909
v -3508.2345 -1457.9411 298.5530
v -3507.5425 -1451.4920 293.5781
v -3507.5440 -1451.4925 296.3300
f 910 911 912
v -3507.5380 -1451.4902 285.3235
v -3507.5410 -1451.4914 290.8262
v -3508.2274 -1457.9384 285.3216
f 913 914 915
v -3508.8180 -1463.4279 290.7148
v -3507.5410 -1451.4914 290.8262
v -3507.5425 -1451.4920 293.5781
f 916 917 918
v -3508.8194 -1463.4284 293.4437
v -3508.2345 -1457.9411 298.5530
v -3508.8209 -1463.4290 296.1736
f 919 920 921
v -3507.5425 -1451.4920 293.5781
v -3508.8194 -1463.4284 293.4437
v -3508.8180 -1463.4279 290.7148
f 922 923 924
v -3508.8151 -1463.4267 285.3201
v -3508.2274 -1457.9384 285.3216
v -3508.8180 -1463.4279 290.7148
f 925 926 927
v -3508.8180 -1463.4279 290.7148
v -3508.2274 -1457.9384 285.3216
v -3507.5410 -1451.4914 290.8262
f 928 929 930
v -3508.8194 -1463.4284 293.4437
v -3507.5425 -1451.4920 293.5781
v -3508.2345 -1457.9411 298.5530
f 931 932 933
v -3518.4143 -1456.8480 285.3163
v -3518.6228 -1458.1365 285.3159
v -3518.6254 -1458.1375 290.0677
f 934 935 936
v -3518.6254 -1458.1375 290.0677
v -3517.3615 -1450.3133 292.1541
v -3518.4143 -1456.8480 285.3163
f 937 938 939
v -3517.3637 -1450.3142 296.2819
v -3518.6254 -1458.1375 290.0677
v -3518.6279 -1458.1383 294.8185
f 940 941 942
v -3518.6279 -1458.1383 294.8185
v -3518.4215 -1456.8507 298.5477
v -3517.3637 -1450.3142 296.2819
f 943 944 945
v -3518.6254 -1458.1375 290.0677
v -3517.3637 -1450.3142 296.2819
v -3517.3615 -1450.3133 292.1541
f 946 947 948
v -3518.4143 -1456.8480 285.3163
v -3517.3615 -1450.3133 292.1541
v -3517.3578 -1450.3119 285.3184
f 949 950 951
v -3518.6297 -1458.1391 297.9863
v -3518.4215 -1456.8507 298.5477
v -3518.6279 -1458.1383 294.8185
f 952 953 954
v -3519.0936 -1462.1795 296.2322
v -3518.7666 -1459.3356 297.4669
v -3518.8133 -1459.7909 285.3154
f 955 956 957
v -3513.1795 -1462.8993 296.1983
v -3508.8180 -1463.4279 290.7148
v -3508.8194 -1463.4284 293.4437
f 958 959 960
v -3512.1447 -1450.9391 291.1488
v -3517.3637 -1450.3142 296.2819
v -3511.6236 -1451.0025 296.3099
f 961 962 963
v -3517.3615 -1450.3133 292.1541
v -3517.3637 -1450.3142 296.2819
v -3512.1565 -1450.9359 285.3211
f 964 965 966
v -3511.6236 -1451.0025 296.3099
v -3507.5425 -1451.4920 293.5781
v -3507.5410 -1451.4914 290.8262
f 967 968 969
v -3507.5380 -1451.4902 285.3235
v -3512.1447 -1450.9391 291.1488
v -3511.6236 -1451.0025 296.3099
f 970 971 972

g building_ID_D61EAFE4-7D77-436E-B473-8707A21B08ED
v -3507.0072 -1399.3554 296.7990
v -3511.3794 -1403.4455 301.0785
v -3508.1030 -1407.1324 296.7187
f 973 974 975
v -3511.1452 -1401.8771 301.0790
v -3511.3794 -1403.4455 301.0785
v -3507.0072 -1399.3554 296.7990
f 976 977 978
v -3506.9402 -1399.3655 296.7211
v -3507.0072 -1399.3554 296.7990
v -3508.1030 -1407.1324 296.7187
f 979 980 981
v -3511.3794 -1403.4455 301.0785
v -3511.1452 -1401.8771 301.0790
v -3514.1303 -1398.3073 296.8204
f 982 983 984
v -3514.1303 -1398.3073 296.8204
v -3515.3150 -1406.0060 296.7780
v -3511.3794 -1403.4455 301.0785
f 985 986 987
v -3514.1303 -1398.3073 296.8204
v -3511.1452 -1401.8771 301.0790
v -3507.0072 -1399.3554 296.7990
f 988 989 990
v -3507.0072 -1399.3554 296.7990
v -3514.1222 -1398.2573 296.7504
v -3514.1303 -1398.3073 296.8204
f 991 992 993
v -3507.5351 -1407.9628 296.4279
v -3507.4111 -1407.9821 296.3739
v -3506.4330 -1401.6168 296.3649
f 994 995 996
v -3507.5351 -1407.9628 296.4279
v -3506.9402 -1399.3655 296.7211
v -3508.1030 -1407.1324 296.7187
f 997 998 999
v -3506.9402 -1399.3655 296.7211
v -3506.4330 -1401.6168 296.3649
v -3506.1063 -1399.4947 296.3625
f 1000 1001 1002
v -3506.9402 -1399.3655 296.7211
v -3507.5351 -1407.9628 296.4279
v -3506.4330 -1401.6168 296.3649
f 1003 1004 1005
v -3508.1030 -1407.1324 296.7187
v -3515.3220 -1406.0520 296.7150
v -3515.4287 -1406.7466 296.4368
f 1006 1007 1008
v -3515.4287 -1406.7466 296.4368
v -3507.5351 -1407.9628 296.4279
v -3508.1030 -1407.1324 296.7187
f 1009 1010 1011
v -3508.1030 -1407.1324 296.7187
v -3515.3150 -1406.0060 296.7780
v -3515.3220 -1406.0520 296.7150
f 1012 1013 1014
v -3515.3150 -1406.0060 296.7780
v -3508.1030 -1407.1324 296.7187
v -3511.3794 -1403.4455 301.0785
f 1015 1016 1017
v -3506.1050 -1399.4943 293.8366
v -3506.1063 -1399.4947 296.3625
v -3506.4330 -1401.6168 296.3649
f 1018 1019 1020
v -3506.1009 -1399.4927 286.2729
v -3506.1036 -1399.4937 291.3107
v -3506.4330 -1401.6168 296.3649
f 1021 1022 1023
v -3507.4084 -1407.9812 291.3221
v -3507.4070 -1407.9807 288.7962
v -3506.4330 -1401.6168 296.3649
f 1024 1025 1026
v -3507.4057 -1407.9802 286.2703
v -3506.1009 -1399.4927 286.2729
v -3507.4070 -1407.9807 288.7962
f 1027 1028 1029
v -3506.4330 -1401.6168 296.3649
v -3507.4070 -1407.9807 288.7962
v -3506.1009 -1399.4927 286.2729
f 1030 1031 1032
v -3514.1165 -1398.2552 286.2688
v -3506.9026 -1399.3686 286.2725
v -3514.1246 -1398.3052 286.2688
f 1033 1034 1035
v -3514.1246 -1398.3052 286.2688
v -3506.9026 -1399.3686 286.2725
v -3515.4233 -1406.7447 286.2662
f 1036 1037 1038
v -3507.4057 -1407.9802 286.2703
v -3515.4233 -1406.7447 286.2662
v -3506.1009 -1399.4927 286.2729
f 1039 1040 1041
v -3506.9026 -1399.3686 286.2725
v -3506.1009 -1399.4927 286.2729
v -3515.4233 -1406.7447 286.2662
f 1042 1043 1044
v -3515.4233 -1406.7447 286.2662
v -3507.4057 -1407.9802 286.2703
v -3507.4070 -1407.9807 288.7962
f 1045 1046 1047
v -3515.4233 -1406.7447 286.2662
v -3507.4070 -1407.9807 288.7962
v -3507.4084 -1407.9812 291.3221
f 1048 1049 1050
v -3507.4097 -1407.9817 293.8480
v -3507.4111 -1407.9821 296.3739
v -3507.5351 -1407.9628 296.4279
f 1051 1052 1053
v -3507.4097 -1407.9817 293.8480
v -3507.5351 -1407.9628 296.4279
v -3515.4233 -1406.7447 286.2662
f 1054 1055 1056
v -3515.4287 -1406.7466 296.4368
v -3515.4233 -1406.7447 286.2662
v -3507.5351 -1407.9628 296.4279
f 1057 1058 1059
v -3507.4084 -1407.9812 291.3221
v -3507.4097 -1407.9817 293.8480
v -3515.4233 -1406.7447 286.2662
f 1060 1061 1062
v -3514.1165 -1398.2552 286.2688
v -3507.0072 -1399.3554 296.7990
v -3506.9402 -1399.3655 296.7211
f 1063 1064 1065
v -3514.1222 -1398.2573 296.7504
v -3507.0072 -1399.3554 296.7990
v -3514.1165 -1398.2552 286.2688
f 1066 1067 1068
v -3506.9402 -1399.3655 296.7211
v -3506.1050 -1399.4943 293.8366
v -3514.1165 -1398.2552 286.2688
f 1069 1070 1071
v -3506.1063 -1399.4947 296.3625
v -3506.1050 -1399.4943 293.8366
v -3506.9402 -1399.3655 296.7211
f 1072 1073 1074
v -3514.1165 -1398.2552 286.2688
v -3506.1036 -1399.4937 291.3107
v -3506.9026 -1399.3686 286.2725
f 1075 1076 1077
v -3506.1009 -1399.4927 286.2729
v -3506.9026 -1399.3686 286.2725
v -3506.1036 -1399.4937 291.3107
f 1078 1079 1080
v -3506.1050 -1399.4943 293.8366
v -3506.1036 -1399.4937 291.3107
v -3514.1165 -1398.2552 286.2688
f 1081 1082 1083
v -3515.4233 -1406.7447 286.2662
v -3515.4287 -1406.7466 296.4368
v -3515.3220 -1406.0520 296.7150
f 1084 1085 1086
v -3515.4233 -1406.7447 286.2662
v -3515.3220 -1406.0520 296.7150
v -3514.1246 -1398.3052 286.2688
f 1087 1088 1089
v -3514.1222 -1398.2573 296.7504
v -3515.3150 -1406.0060 296.7780
v -3514.1303 -1398.3073 296.8204
f 1090 1091 1092
v -3514.1165 -1398.2552 286.2688
v -3514.1246 -1398.3052 286.2688
v -3514.1222 -1398.2573 296.7504
f 1093 1094 1095
v -3514.1222 -1398.2573 296.7504
v -3514.1246 -1398.3052 286.2688
v -3515.3220 -1406.0520 296.7150
f 1096 1097 1098
v -3515.3150 -1406.0060 296.7780
v -3514.1222 -1398.2573 296.7504
v -3515.3220 -1406.0520 296.7150
f 1099 1100 1101
v -3506.1036 -1399.4937 291.3107
v -3506.1050 -1399.4943 293.8366
v -3506.4330 -1401.6168 296.3649
f 1102 1103 1104
v -3506.4330 -1401.6168 296.3649
v -3507.4111 -1407.9821 296.3739
v -3507.4097 -1407.9817 293.8480
f 1105 1106 1107
v -3506.4330 -1401.6168 296.3649
v -3507.4097 -1407.9817 293.8480
v -3507.4084 -1407.9812 291.3221
f 1108 1109 1110

g building_ID_D01DE08B-005A-475B-9E82-CDA9E2C714D5
v -3517.9208 -1425.2799 296.8832
v -3517.0021 -1417.2255 296.8485
v -3517.0671 -1417.2152 296.8025
f 1111 1112 1113
v -3516.9593 -1417.2956 296.8855
v -3517.0021 -1417.2255 296.8485
v -3517.9208 -1425.2799 296.8832
f 1114 1115 1116
v -3518.3969 -1425.7506 296.5868
v -3517.9208 -1425.2799 296.8832
v -3517.0671 -1417.2152 296.8025
f 1117 1118 1119
v -3516.9593 -1417.2956 296.8855
v -3515.1639 -1417.5124 296.8865
v -3517.0021 -1417.2255 296.8485
f 1120 1121 1122
v -3513.7314 -1420.9390 301.1524
v -3515.1639 -1417.5124 296.8865
v -3516.9593 -1417.2956 296.8855
f 1123 1124 1125
v -3515.1639 -1417.5124 296.8865
v -3513.7314 -1420.9390 301.1524
v -3509.8043 -1418.3479 297.1372
f 1126 1127 1128
v -3509.8043 -1418.3479 297.1372
v -3513.9206 -1422.5085 301.1519
v -3510.5222 -1426.1698 296.8871
f 1129 1130 1131
v -3513.7314 -1420.9390 301.1524
v -3513.9206 -1422.5085 301.1519
v -3509.8043 -1418.3479 297.1372
f 1132 1133 1134
v -3509.5853 -1418.3814 296.8893
v -3509.8043 -1418.3479 297.1372
v -3510.5222 -1426.1698 296.8871
f 1135 1136 1137
v -3513.9206 -1422.5085 301.1519
v -3513.7314 -1420.9390 301.1524
v -3516.9593 -1417.2956 296.8855
f 1138 1139 1140
v -3516.9593 -1417.2956 296.8855
v -3517.9208 -1425.2799 296.8832
v -3513.9206 -1422.5085 301.1519
f 1141 1142 1143
v -3515.8881 -1426.2123 296.4981
v -3510.5222 -1426.1698 296.8871
v -3517.9208 -1425.2799 296.8832
f 1144 1145 1146
v -3518.4080 -1425.8205 296.5458
v -3515.8881 -1426.2123 296.4981
v -3518.3969 -1425.7506 296.5868
f 1147 1148 1149
v -3517.9208 -1425.2799 296.8832
v -3518.3969 -1425.7506 296.5868
v -3515.8881 -1426.2123 296.4981
f 1150 1151 1152
v -3515.8881 -1426.2123 296.4981
v -3510.3354 -1427.0762 296.3920
v -3510.3151 -1426.9473 296.4650
f 1153 1154 1155
v -3510.5222 -1426.1698 296.8871
v -3515.8881 -1426.2123 296.4981
v -3510.3151 -1426.9473 296.4650
f 1156 1157 1158
v -3510.5222 -1426.1698 296.8871
v -3510.3151 -1426.9473 296.4650
v -3510.0142 -1426.9941 296.4592
f 1159 1160 1161
v -3508.9943 -1418.4738 296.4657
v -3509.5853 -1418.3814 296.8893
v -3509.6079 -1422.4002 296.5634
f 1162 1163 1164
v -3510.5222 -1426.1698 296.8871
v -3509.6079 -1422.4002 296.5634
v -3509.5853 -1418.3814 296.8893
f 1165 1166 1167
v -3509.2679 -1422.4531 296.3197
v -3509.6079 -1422.4002 296.5634
v -3510.0142 -1426.9941 296.4592
f 1168 1169 1170
v -3510.5222 -1426.1698 296.8871
v -3510.0142 -1426.9941 296.4592
v -3509.6079 -1422.4002 296.5634
f 1171 1172 1173
v -3509.2679 -1422.4531 296.3197
v -3510.0142 -1426.9941 296.4592
v -3509.8182 -1427.0245 296.3184
f 1174 1175 1176
v -3513.9206 -1422.5085 301.1519
v -3517.9208 -1425.2799 296.8832
v -3510.5222 -1426.1698 296.8871
f 1177 1178 1179
v -3515.8881 -1426.2123 296.4981
v -3510.3300 -1427.0742 286.2655
v -3510.3354 -1427.0762 296.3920
f 1180 1181 1182
v -3510.3300 -1427.0742 286.2655
v -3515.8881 -1426.2123 296.4981
v -3518.4067 -1425.8200 293.9749
f 1183 1184 1185
v -3518.4067 -1425.8200 293.9749
v -3518.4039 -1425.8190 288.8322
v -3510.3300 -1427.0742 286.2655
f 1186 1187 1188
v -3510.3096 -1426.9453 286.2655
v -3510.3354 -1427.0762 296.3920
v -3510.3300 -1427.0742 286.2655
f 1189 1190 1191
v -3509.2625 -1422.4511 286.2671
v -3509.2679 -1422.4531 296.3197
v -3509.8128 -1427.0226 286.2658
f 1192 1193 1194
v -3509.8182 -1427.0245 296.3184
v -3509.8128 -1427.0226 286.2658
v -3509.2679 -1422.4531 296.3197
f 1195 1196 1197
v -3509.6024 -1422.3982 286.2669
v -3509.6079 -1422.4002 296.5634
v -3509.2679 -1422.4531 296.3197
f 1198 1199 1200
v -3508.9943 -1418.4738 296.4657
v -3509.6024 -1422.3982 286.2669
v -3508.9929 -1418.4734 293.8918
f 1201 1202 1203
v -3508.9943 -1418.4738 296.4657
v -3509.6079 -1422.4002 296.5634
v -3509.6024 -1422.3982 286.2669
f 1204 1205 1206
v -3510.3096 -1426.9453 286.2655
v -3518.4025 -1425.8185 286.2613
v -3509.6024 -1422.3982 286.2669
f 1207 1208 1209
v -3518.4025 -1425.8185 286.2613
v -3510.3096 -1426.9453 286.2655
v -3510.3300 -1427.0742 286.2655
f 1210 1211 1212
v -3515.1582 -1417.5103 286.2650
v -3509.6024 -1422.3982 286.2669
v -3518.4025 -1425.8185 286.2613
f 1213 1214 1215
v -3515.1582 -1417.5103 286.2650
v -3509.7985 -1418.3457 286.2677
v -3509.6024 -1422.3982 286.2669
f 1216 1217 1218
v -3518.4025 -1425.8185 286.2613
v -3517.0614 -1417.2132 286.2640
v -3515.1582 -1417.5103 286.2650
f 1219 1220 1221
v -3510.3096 -1426.9453 286.2655
v -3509.6024 -1422.3982 286.2669
v -3509.2625 -1422.4511 286.2671
f 1222 1223 1224
v -3509.5796 -1418.3793 286.2678
v -3509.6024 -1422.3982 286.2669
v -3509.7985 -1418.3457 286.2677
f 1225 1226 1227
v -3510.3096 -1426.9453 286.2655
v -3509.2625 -1422.4511 286.2671
v -3509.8128 -1427.0226 286.2658
f 1228 1229 1230
v -3508.9888 -1418.4719 286.2681
v -3509.6024 -1422.3982 286.2669
v -3509.5796 -1418.3793 286.2678
f 1231 1232 1233
v -3517.0614 -1417.2132 286.2640
v -3518.4025 -1425.8185 286.2613
v -3518.4039 -1425.8190 288.8322
f 1234 1235 1236
v -3517.0614 -1417.2132 286.2640
v -3518.4039 -1425.8190 288.8322
v -3518.4067 -1425.8200 293.9749
f 1237 1238 1239
v -3518.4067 -1425.8200 293.9749
v -3518.3969 -1425.7506 296.5868
v -3517.0671 -1417.2152 296.8025
f 1240 1241 1242
v -3518.4067 -1425.8200 293.9749
v -3518.4080 -1425.8205 296.5458
v -3518.3969 -1425.7506 296.5868
f 1243 1244 1245
v -3518.4067 -1425.8200 293.9749
v -3517.0671 -1417.2152 296.8025
v -3517.0614 -1417.2132 286.2640
f 1246 1247 1248
v -3509.8182 -1427.0245 296.3184
v -3510.3096 -1426.9453 286.2655
v -3509.8128 -1427.0226 286.2658
f 1249 1250 1251
v -3510.3096 -1426.9453 286.2655
v -3509.8182 -1427.0245 296.3184
v -3510.0142 -1426.9941 296.4592
f 1252 1253 1254
v -3510.0142 -1426.9941 296.4592
v -3510.3151 -1426.9473 296.4650
v -3510.3096 -1426.9453 286.2655
f 1255 1256 1257
v -3509.8043 -1418.3479 297.1372
v -3517.0614 -1417.2132 286.2640
v -3515.1639 -1417.5124 296.8865
f 1258 1259 1260
v -3509.5853 -1418.3814 296.8893
v -3517.0614 -1417.2132 286.2640
v -3509.8043 -1418.3479 297.1372
f 1261 1262 1263
v -3517.0671 -1417.2152 296.8025
v -3517.0021 -1417.2255 296.8485
v -3515.1639 -1417.5124 296.8865
f 1264 1265 1266
v -3517.0614 -1417.2132 286.2640
v -3517.0671 -1417.2152 296.8025
v -3515.1639 -1417.5124 296.8865
f 1267 1268 1269
v -3517.0614 -1417.2132 286.2640
v -3509.5853 -1418.3814 296.8893
v -3515.1582 -1417.5103 286.2650
f 1270 1271 1272
v -3515.1582 -1417.5103 286.2650
v -3509.5853 -1418.3814 296.8893
v -3508.9929 -1418.4734 293.8918
f 1273 1274 1275
v -3508.9916 -1418.4728 291.3169
v -3515.1582 -1417.5103 286.2650
v -3508.9929 -1418.4734 293.8918
f 1276 1277 1278
v -3508.9916 -1418.4728 291.3169
v -3509.7985 -1418.3457 286.2677
v -3515.1582 -1417.5103 286.2650
f 1279 1280 1281
v -3508.9916 -1418.4728 291.3169
v -3509.5796 -1418.3793 286.2678
v -3509.7985 -1418.3457 286.2677
f 1282 1283 1284
v -3509.5796 -1418.3793 286.2678
v -3508.9916 -1418.4728 291.3169
v -3508.9888 -1418.4719 286.2681
f 1285 1286 1287
v -3508.9943 -1418.4738 296.4657
v -3508.9929 -1418.4734 293.8918
v -3509.5853 -1418.3814 296.8893
f 1288 1289 1290
v -3515.8881 -1426.2123 296.4981
v -3518.4080 -1425.8205 296.5458
v -3518.4067 -1425.8200 293.9749
f 1291 1292 1293
v -3518.4039 -1425.8190 288.8322
v -3518.4025 -1425.8185 286.2613
v -3510.3300 -1427.0742 286.2655
f 1294 1295 1296
v -3510.3151 -1426.9473 296.4650
v -3510.3354 -1427.0762 296.3920
v -3510.3096 -1426.9453 286.2655
f 1297 1298 1299
v -3509.6024 -1422.3982 286.2669
v -3509.2679 -1422.4531 296.3197
v -3509.2625 -1422.4511 286.2671
f 1300 1301 1302
v -3509.6024 -1422.3982 286.2669
v -3508.9916 -1418.4728 291.3169
v -3508.9929 -1418.4734 293.8918
f 1303 1304 1305
v -3508.9916 -1418.4728 291.3169
v -3509.6024 -1422.3982 286.2669
v -3508.9888 -1418.4719 286.2681
f 1306 1307 1308

g building_ID_7C23FA4F-F1CB-4E45-994B-8658F6820F9F
v -3513.8920 -1498.0421 296.3146
v -3520.0230 -1507.0903 299.5340
v -3515.2389 -1507.6835 296.4086
f 1309 1310 1311
v -3517.6189 -1487.7089 299.5399
v -3513.8920 -1498.0421 296.3146
v -3512.5450 -1488.3969 296.2197
f 1312 1313 1314
v -3520.0230 -1507.0903 299.5340
v -3513.8920 -1498.0421 296.3146
v -3517.6189 -1487.7089 299.5399
f 1315 1316 1317
v -3524.5058 -1506.2536 296.1188
v -3524.5446 -1506.5284 296.1148
v -3520.0230 -1507.0903 299.5340
f 1318 1319 1320
v -3524.5058 -1506.2536 296.1188
v -3520.0230 -1507.0903 299.5340
v -3521.8895 -1487.4557 296.3367
f 1321 1322 1323
v -3522.6259 -1487.3517 295.7774
v -3524.9635 -1506.1893 295.7716
v -3524.8336 -1506.2076 295.8707
f 1324 1325 1326
v -3522.2282 -1487.4078 296.0796
v -3524.8336 -1506.2076 295.8707
v -3524.5058 -1506.2536 296.1188
f 1327 1328 1329
v -3521.8366 -1487.1349 296.3458
v -3521.8895 -1487.4557 296.3367
v -3517.6189 -1487.7089 299.5399
f 1330 1331 1332
v -3522.6259 -1487.3517 295.7774
v -3524.8336 -1506.2076 295.8707
v -3522.2282 -1487.4078 296.0796
f 1333 1334 1335
v -3521.8895 -1487.4557 296.3367
v -3522.2282 -1487.4078 296.0796
v -3524.5058 -1506.2536 296.1188
f 1336 1337 1338
v -3520.0230 -1507.0903 299.5340
v -3517.6189 -1487.7089 299.5399
v -3521.8895 -1487.4557 296.3367
f 1339 1340 1341
v -3512.5450 -1488.3969 296.2197
v -3513.8920 -1498.0421 296.3146
v -3512.5428 -1488.3960 292.2008
f 1342 1343 1344
v -3512.5395 -1488.3947 285.9271
v -3512.5428 -1488.3960 292.2008
v -3513.8920 -1498.0421 296.3146
f 1345 1346 1347
v -3513.8920 -1498.0421 296.3146
v -3515.2389 -1507.6835 296.4086
v -3515.2375 -1507.6829 293.7867
f 1348 1349 1350
v -3515.2361 -1507.6824 291.1648
v -3515.2332 -1507.6813 285.9211
v -3513.8920 -1498.0421 296.3146
f 1351 1352 1353
v -3512.5395 -1488.3947 285.9271
v -3513.8920 -1498.0421 296.3146
v -3515.2332 -1507.6813 285.9211
f 1354 1355 1356
v -3524.9582 -1506.1872 285.9161
v -3524.5004 -1506.2514 285.9163
v -3524.8336 -1506.2076 295.8707
f 1357 1358 1359
v -3524.5004 -1506.2514 285.9163
v -3524.5058 -1506.2536 296.1188
v -3524.8336 -1506.2076 295.8707
f 1360 1361 1362
v -3524.9635 -1506.1893 295.7716
v -3524.9582 -1506.1872 285.9161
v -3524.8336 -1506.2076 295.8707
f 1363 1364 1365
v -3524.5432 -1506.5279 293.5639
v -3524.5446 -1506.5284 296.1148
v -3524.5058 -1506.2536 296.1188
f 1366 1367 1368
v -3524.5391 -1506.5263 285.9163
v -3524.5418 -1506.5273 291.0140
v -3524.5058 -1506.2536 296.1188
f 1369 1370 1371
v -3524.5391 -1506.5263 285.9163
v -3524.5058 -1506.2536 296.1188
v -3524.5004 -1506.2514 285.9163
f 1372 1373 1374
v -3521.8895 -1487.4557 296.3367
v -3521.8345 -1487.1341 292.3510
v -3521.8839 -1487.4535 285.9222
f 1375 1376 1377
v -3521.8345 -1487.1341 292.3510
v -3521.8311 -1487.1327 285.9223
v -3521.8839 -1487.4535 285.9222
f 1378 1379 1380
v -3521.8366 -1487.1349 296.3458
v -3521.8345 -1487.1341 292.3510
v -3521.8895 -1487.4557 296.3367
f 1381 1382 1383
v -3521.8839 -1487.4535 285.9222
v -3522.6206 -1487.3496 285.9218
v -3522.2282 -1487.4078 296.0796
f 1384 1385 1386
v -3522.6206 -1487.3496 285.9218
v -3522.6259 -1487.3517 295.7774
v -3522.2282 -1487.4078 296.0796
f 1387 1388 1389
v -3524.9582 -1506.1872 285.9161
v -3524.9635 -1506.1893 295.7716
v -3522.6206 -1487.3496 285.9218
f 1390 1391 1392
v -3521.8839 -1487.4535 285.9222
v -3521.8311 -1487.1327 285.9223
v -3517.6116 -1487.7061 285.9245
f 1393 1394 1395
v -3521.8839 -1487.4535 285.9222
v -3524.9582 -1506.1872 285.9161
v -3522.6206 -1487.3496 285.9218
f 1396 1397 1398
v -3524.5004 -1506.2514 285.9163
v -3521.8839 -1487.4535 285.9222
v -3517.6116 -1487.7061 285.9245
f 1399 1400 1401
v -3520.0157 -1507.0874 285.9186
v -3512.5395 -1488.3947 285.9271
v -3515.2332 -1507.6813 285.9211
f 1402 1403 1404
v -3524.5004 -1506.2514 285.9163
v -3524.9582 -1506.1872 285.9161
v -3521.8839 -1487.4535 285.9222
f 1405 1406 1407
v -3524.5004 -1506.2514 285.9163
v -3520.0157 -1507.0874 285.9186
v -3524.5391 -1506.5263 285.9163
f 1408 1409 1410
v -3524.5004 -1506.2514 285.9163
v -3517.6116 -1487.7061 285.9245
v -3520.0157 -1507.0874 285.9186
f 1411 1412 1413
v -3520.0157 -1507.0874 285.9186
v -3517.6116 -1487.7061 285.9245
v -3512.5395 -1488.3947 285.9271
f 1414 1415 1416
v -3521.8345 -1487.1341 292.3510
v -3521.8366 -1487.1349 296.3458
v -3517.6189 -1487.7089 299.5399
f 1417 1418 1419
v -3517.6116 -1487.7061 285.9245
v -3521.8311 -1487.1327 285.9223
v -3521.8345 -1487.1341 292.3510
f 1420 1421 1422
v -3517.6189 -1487.7089 299.5399
v -3512.5428 -1488.3960 292.2008
v -3521.8345 -1487.1341 292.3510
f 1423 1424 1425
v -3521.8345 -1487.1341 292.3510
v -3512.5428 -1488.3960 292.2008
v -3517.6116 -1487.7061 285.9245
f 1426 1427 1428
v -3512.5395 -1488.3947 285.9271
v -3517.6116 -1487.7061 285.9245
v -3512.5428 -1488.3960 292.2008
f 1429 1430 1431
v -3512.5450 -1488.3969 296.2197
v -3512.5428 -1488.3960 292.2008
v -3517.6189 -1487.7089 299.5399
f 1432 1433 1434
v -3524.5418 -1506.5273 291.0140
v -3520.0157 -1507.0874 285.9186
v -3515.2361 -1507.6824 291.1648
f 1435 1436 1437
v -3515.2361 -1507.6824 291.1648
v -3520.0157 -1507.0874 285.9186
v -3515.2332 -1507.6813 285.9211
f 1438 1439 1440
v -3524.5432 -1506.5279 293.5639
v -3515.2361 -1507.6824 291.1648
v -3515.2375 -1507.6829 293.7867
f 1441 1442 1443
v -3524.5432 -1506.5279 293.5639
v -3515.2375 -1507.6829 293.7867
v -3520.0230 -1507.0903 299.5340
f 1444 1445 1446
v -3524.5446 -1506.5284 296.1148
v -3524.5432 -1506.5279 293.5639
v -3520.0230 -1507.0903 299.5340
f 1447 1448 1449
v -3520.0157 -1507.0874 285.9186
v -3524.5418 -1506.5273 291.0140
v -3524.5391 -1506.5263 285.9163
f 1450 1451 1452
v -3524.5418 -1506.5273 291.0140
v -3515.2361 -1507.6824 291.1648
v -3524.5432 -1506.5279 293.5639
f 1453 1454 1455
v -3515.2375 -1507.6829 293.7867
v -3515.2389 -1507.6835 296.4086
v -3520.0230 -1507.0903 299.5340
f 1456 1457 1458
v -3513.8920 -1498.0421 296.3146
v -3515.2375 -1507.6829 293.7867
v -3515.2361 -1507.6824 291.1648
f 1459 1460 1461
v -3524.5058 -1506.2536 296.1188
v -3524.5418 -1506.5273 291.0140
v -3524.5432 -1506.5279 293.5639
f 1462 1463 1464
v -3522.2282 -1487.4078 296.0796
v -3521.8895 -1487.4557 296.3367
v -3521.8839 -1487.4535 285.9222
f 1465 1466 1467
v -3524.9635 -1506.1893 295.7716
v -3522.6259 -1487.3517 295.7774
v -3522.6206 -1487.3496 285.9218
f 1468 1469 1470

g building_ID_43825B27-F47F-43A0-A512-469F5A26BEFE
v -3588.4148 -1464.3918 299.4209
v -3588.2608 -1457.5068 296.7367
v -3590.5024 -1463.2746 296.8371
f 1471 1472 1473
v -3590.5024 -1463.2746 296.8371
v -3590.6041 -1463.5334 296.8400
v -3588.4148 -1464.3918 299.4209
f 1474 1475 1476
v -3590.5024 -1463.2746 296.8371
v -3588.2608 -1457.5068 296.7367
v -3591.4188 -1462.9160 295.7578
f 1477 1478 1479
v -3586.8022 -1463.8765 300.8469
v -3584.8977 -1456.8134 299.8706
v -3588.4148 -1464.3918 299.4209
f 1480 1481 1482
v -3584.8977 -1456.8134 299.8706
v -3587.5831 -1455.7616 296.7055
v -3588.2608 -1457.5068 296.7367
f 1483 1484 1485
v -3588.4148 -1464.3918 299.4209
v -3584.8977 -1456.8134 299.8706
v -3588.2608 -1457.5068 296.7367
f 1486 1487 1488
v -3584.8977 -1456.8134 299.8706
v -3586.8022 -1463.8765 300.8469
v -3584.3500 -1457.8391 300.8497
f 1489 1490 1491
v -3591.4188 -1462.9160 295.7578
v -3588.2608 -1457.5068 296.7367
v -3589.0884 -1457.1823 295.7604
f 1492 1493 1494
v -3584.3500 -1457.8391 300.8497
v -3583.2065 -1457.4750 299.8404
v -3584.8977 -1456.8134 299.8706
f 1495 1496 1497
v -3593.2670 -1462.1917 294.2369
v -3589.0884 -1457.1823 295.7604
v -3591.0255 -1456.4238 294.1665
f 1498 1499 1500
v -3589.0884 -1457.1823 295.7604
v -3593.2670 -1462.1917 294.2369
v -3591.4188 -1462.9160 295.7578
f 1501 1502 1503
v -3583.8473 -1466.1766 296.8992
v -3581.0396 -1460.8510 296.2490
v -3584.2022 -1466.4766 297.1359
f 1504 1505 1506
v -3584.2022 -1466.4766 297.1359
v -3581.0396 -1460.8510 296.2490
v -3585.7495 -1465.8489 298.9651
f 1507 1508 1509
v -3583.8473 -1466.1766 296.8992
v -3583.2105 -1466.4251 296.1505
v -3581.0396 -1460.8510 296.2490
f 1510 1511 1512
v -3583.2065 -1457.4750 299.8404
v -3585.7495 -1465.8489 298.9651
v -3581.0396 -1460.8510 296.2490
f 1513 1514 1515
v -3586.8022 -1463.8765 300.8469
v -3585.7495 -1465.8489 298.9651
v -3583.2065 -1457.4750 299.8404
f 1516 1517 1518
v -3584.3500 -1457.8391 300.8497
v -3586.8022 -1463.8765 300.8469
v -3583.2065 -1457.4750 299.8404
f 1519 1520 1521
v -3583.2065 -1457.4750 299.8404
v -3581.0396 -1460.8510 296.2490
v -3580.1848 -1458.6553 296.2870
f 1522 1523 1524
v -3586.7484 -1465.4432 298.9646
v -3585.7495 -1465.8489 298.9651
v -3586.8075 -1465.0201 299.4507
f 1525 1526 1527
v -3588.4148 -1464.3918 299.4209
v -3586.8075 -1465.0201 299.4507
v -3586.8022 -1463.8765 300.8469
f 1528 1529 1530
v -3586.8022 -1463.8765 300.8469
v -3586.8075 -1465.0201 299.4507
v -3585.7495 -1465.8489 298.9651
f 1531 1532 1533
v -3588.2590 -1457.5060 293.3709
v -3588.2608 -1457.5068 296.7367
v -3587.5831 -1455.7616 296.7055
f 1534 1535 1536
v -3588.2559 -1457.5049 287.7621
v -3588.2590 -1457.5060 293.3709
v -3587.5831 -1455.7616 296.7055
f 1537 1538 1539
v -3590.5990 -1463.5316 287.7594
v -3590.6041 -1463.5334 296.8400
v -3590.5024 -1463.2746 296.8371
f 1540 1541 1542
v -3590.5990 -1463.5316 287.7594
v -3590.4986 -1463.2733 290.0264
v -3590.4973 -1463.2728 287.7595
f 1543 1544 1545
v -3593.2648 -1462.1909 290.1881
v -3593.2670 -1462.1917 294.2369
v -3591.0255 -1456.4238 294.1665
f 1546 1547 1548
v -3593.2634 -1462.1904 287.7582
v -3593.2648 -1462.1909 290.1881
v -3591.0220 -1456.4225 287.7608
f 1549 1550 1551
v -3591.0255 -1456.4238 294.1665
v -3591.0220 -1456.4225 287.7608
v -3593.2648 -1462.1909 290.1881
f 1552 1553 1554
v -3583.8422 -1466.1747 287.7626
v -3584.2022 -1466.4766 297.1359
v -3584.1970 -1466.4747 287.7623
f 1555 1556 1557
v -3583.8422 -1466.1747 287.7626
v -3583.2059 -1466.4234 287.7629
v -3583.2105 -1466.4251 296.1505
f 1558 1559 1560
v -3583.8473 -1466.1766 296.8992
v -3583.8422 -1466.1747 287.7626
v -3583.2105 -1466.4251 296.1505
f 1561 1562 1563
v -3580.1821 -1458.6544 291.4942
v -3580.1848 -1458.6553 296.2870
v -3581.0396 -1460.8510 296.2490
f 1564 1565 1566
v -3581.0396 -1460.8510 296.2490
v -3580.1801 -1458.6535 287.7664
v -3580.1821 -1458.6544 291.4942
f 1567 1568 1569
v -3581.0396 -1460.8510 296.2490
v -3583.2059 -1466.4234 287.7629
v -3580.1801 -1458.6535 287.7664
f 1570 1571 1572
v -3583.2105 -1466.4251 296.1505
v -3583.2059 -1466.4234 287.7629
v -3581.0396 -1460.8510 296.2490
f 1573 1574 1575
v -3586.7484 -1465.4432 298.9646
v -3586.8075 -1465.0201 299.4507
v -3586.8027 -1465.0183 290.6811
f 1576 1577 1578
v -3586.7422 -1465.4409 287.7611
v -3586.8027 -1465.0183 290.6811
v -3586.8011 -1465.0178 287.7612
f 1579 1580 1581
v -3584.0449 -1457.1412 287.7645
v -3580.1801 -1458.6535 287.7664
v -3588.2559 -1457.5049 287.7621
f 1582 1583 1584
v -3590.4973 -1463.2728 287.7595
v -3591.0220 -1456.4225 287.7608
v -3588.2559 -1457.5049 287.7621
f 1585 1586 1587
v -3584.0449 -1457.1412 287.7645
v -3588.2559 -1457.5049 287.7621
v -3587.5782 -1455.7597 287.7629
f 1588 1589 1590
v -3586.8011 -1465.0178 287.7612
v -3588.2559 -1457.5049 287.7621
v -3580.1801 -1458.6535 287.7664
f 1591 1592 1593
v -3583.8422 -1466.1747 287.7626
v -3584.1970 -1466.4747 287.7623
v -3580.1801 -1458.6535 287.7664
f 1594 1595 1596
v -3586.8011 -1465.0178 287.7612
v -3580.1801 -1458.6535 287.7664
v -3584.1970 -1466.4747 287.7623
f 1597 1598 1599
v -3583.8422 -1466.1747 287.7626
v -3580.1801 -1458.6535 287.7664
v -3583.2059 -1466.4234 287.7629
f 1600 1601 1602
v -3588.2559 -1457.5049 287.7621
v -3586.8011 -1465.0178 287.7612
v -3588.4084 -1464.3895 287.7604
f 1603 1604 1605
v -3584.1970 -1466.4747 287.7623
v -3586.7422 -1465.4409 287.7611
v -3586.8011 -1465.0178 287.7612
f 1606 1607 1608
v -3591.4144 -1462.9144 287.7591
v -3593.2634 -1462.1904 287.7582
v -3591.0220 -1456.4225 287.7608
f 1609 1610 1611
v -3590.5990 -1463.5316 287.7594
v -3590.4973 -1463.2728 287.7595
v -3588.4084 -1464.3895 287.7604
f 1612 1613 1614
v -3591.0220 -1456.4225 287.7608
v -3590.4973 -1463.2728 287.7595
v -3591.4144 -1462.9144 287.7591
f 1615 1616 1617
v -3588.2559 -1457.5049 287.7621
v -3588.4084 -1464.3895 287.7604
v -3590.4973 -1463.2728 287.7595
f 1618 1619 1620
v -3588.2590 -1457.5060 293.3709
v -3589.0884 -1457.1823 295.7604
v -3588.2608 -1457.5068 296.7367
f 1621 1622 1623
v -3588.2590 -1457.5060 293.3709
v -3591.0255 -1456.4238 294.1665
v -3589.0884 -1457.1823 295.7604
f 1624 1625 1626
v -3588.2590 -1457.5060 293.3709
v -3588.2559 -1457.5049 287.7621
v -3591.0220 -1456.4225 287.7608
f 1627 1628 1629
v -3588.2590 -1457.5060 293.3709
v -3591.0220 -1456.4225 287.7608
v -3591.0255 -1456.4238 294.1665
f 1630 1631 1632
v -3590.5011 -1463.2742 294.5672
v -3591.4188 -1462.9160 295.7578
v -3593.2670 -1462.1917 294.2369
f 1633 1634 1635
v -3590.5011 -1463.2742 294.5672
v -3590.5024 -1463.2746 296.8371
v -3591.4188 -1462.9160 295.7578
f 1636 1637 1638
v -3590.5011 -1463.2742 294.5672
v -3593.2648 -1462.1909 290.1881
v -3590.4986 -1463.2733 290.0264
f 1639 1640 1641
v -3591.4144 -1462.9144 287.7591
v -3590.4986 -1463.2733 290.0264
v -3593.2648 -1462.1909 290.1881
f 1642 1643 1644
v -3590.4986 -1463.2733 290.0264
v -3591.4144 -1462.9144 287.7591
v -3590.4973 -1463.2728 287.7595
f 1645 1646 1647
v -3593.2634 -1462.1904 287.7582
v -3591.4144 -1462.9144 287.7591
v -3593.2648 -1462.1909 290.1881
f 1648 1649 1650
v -3593.2670 -1462.1917 294.2369
v -3593.2648 -1462.1909 290.1881
v -3590.5011 -1463.2742 294.5672
f 1651 1652 1653
v -3590.6041 -1463.5334 296.8400
v -3586.8075 -1465.0201 299.4507
v -3588.4148 -1464.3918 299.4209
f 1654 1655 1656
v -3586.8075 -1465.0201 299.4507
v -3590.5990 -1463.5316 287.7594
v -3586.8027 -1465.0183 290.6811
f 1657 1658 1659
v -3586.8011 -1465.0178 287.7612
v -3586.8027 -1465.0183 290.6811
v -3588.4084 -1464.3895 287.7604
f 1660 1661 1662
v -3590.5990 -1463.5316 287.7594
v -3588.4084 -1464.3895 287.7604
v -3586.8027 -1465.0183 290.6811
f 1663 1664 1665
v -3590.6041 -1463.5334 296.8400
v -3590.5990 -1463.5316 287.7594
v -3586.8075 -1465.0201 299.4507
f 1666 1667 1668
v -3583.2065 -1457.4750 299.8404
v -3587.5831 -1455.7616 296.7055
v -3584.8977 -1456.8134 299.8706
f 1669 1670 1671
v -3580.1848 -1458.6553 296.2870
v -3587.5831 -1455.7616 296.7055
v -3583.2065 -1457.4750 299.8404
f 1672 1673 1674
v -3587.5831 -1455.7616 296.7055
v -3580.1848 -1458.6553 296.2870
v -3587.5782 -1455.7597 287.7629
f 1675 1676 1677
v -3587.5782 -1455.7597 287.7629
v -3580.1848 -1458.6553 296.2870
v -3580.1821 -1458.6544 291.4942
f 1678 1679 1680
v -3584.0449 -1457.1412 287.7645
v -3580.1821 -1458.6544 291.4942
v -3580.1801 -1458.6535 287.7664
f 1681 1682 1683
v -3580.1821 -1458.6544 291.4942
v -3584.0449 -1457.1412 287.7645
v -3587.5782 -1455.7597 287.7629
f 1684 1685 1686
v -3584.1970 -1466.4747 287.7623
v -3584.2022 -1466.4766 297.1359
v -3586.7422 -1465.4409 287.7611
f 1687 1688 1689
v -3586.7484 -1465.4432 298.9646
v -3584.2022 -1466.4766 297.1359
v -3585.7495 -1465.8489 298.9651
f 1690 1691 1692
v -3584.2022 -1466.4766 297.1359
v -3586.7484 -1465.4432 298.9646
v -3586.7422 -1465.4409 287.7611
f 1693 1694 1695
v -3587.5831 -1455.7616 296.7055
v -3587.5782 -1455.7597 287.7629
v -3588.2559 -1457.5049 287.7621
f 1696 1697 1698
v -3590.5990 -1463.5316 287.7594
v -3590.5024 -1463.2746 296.8371
v -3590.5011 -1463.2742 294.5672
f 1699 1700 1701
v -3590.5990 -1463.5316 287.7594
v -3590.5011 -1463.2742 294.5672
v -3590.4986 -1463.2733 290.0264
f 1702 1703 1704
v -3583.8473 -1466.1766 296.8992
v -3584.2022 -1466.4766 297.1359
v -3583.8422 -1466.1747 287.7626
f 1705 1706 1707
v -3586.8027 -1465.0183 290.6811
v -3586.7422 -1465.4409 287.7611
v -3586.7484 -1465.4432 298.9646
f 1708 1709 1710

g building_ID_93E4BE45-9E60-4C9F-A9C8-1032911892D3
v -3618.7440 -1462.0681 293.2196
v -3613.8959 -1467.6160 293.2210
v -3612.6135 -1464.5075 293.2225
f 1711 1712 1713
v -3613.8959 -1467.6160 293.2210
v -3618.7440 -1462.0681 293.2196
v -3620.0234 -1465.2056 293.2181
f 1714 1715 1716
v -3618.7409 -1462.0669 287.7679
v -3618.7440 -1462.0681 293.2196
v -3612.6135 -1464.5075 293.2225
f 1717 1718 1719
v -3620.0204 -1465.2045 287.7664
v -3620.0234 -1465.2056 293.2181
v -3618.7440 -1462.0681 293.2196
f 1720 1721 1722
v -3613.8929 -1467.6150 287.7693
v -3613.8959 -1467.6160 293.2210
v -3620.0234 -1465.2056 293.2181
f 1723 1724 1725
v -3612.6105 -1464.5065 287.7708
v -3612.6135 -1464.5075 293.2225
v -3613.8959 -1467.6160 293.2210
f 1726 1727 1728
v -3613.8929 -1467.6150 287.7693
v -3620.0204 -1465.2045 287.7664
v -3618.7409 -1462.0669 287.7679
f 1729 1730 1731
v -3618.7409 -1462.0669 287.7679
v -3612.6105 -1464.5065 287.7708
v -3613.8929 -1467.6150 287.7693
f 1732 1733 1734
v -3618.7409 -1462.0669 287.7679
v -3612.6135 -1464.5075 293.2225
v -3612.6105 -1464.5065 287.7708
f 1735 1736 1737
v -3620.0204 -1465.2045 287.7664
v -3618.7440 -1462.0681 293.2196
v -3618.7409 -1462.0669 287.7679
f 1738 1739 1740
v -3613.8929 -1467.6150 287.7693
v -3620.0234 -1465.2056 293.2181
v -3620.0204 -1465.2045 287.7664
f 1741 1742 1743
v -3612.6105 -1464.5065 287.7708
v -3613.8959 -1467.6160 293.2210
v -3613.8929 -1467.6150 287.7693
f 1744 1745 1746

g building_ID_2CB3F7E9-DA5E-4B46-96F8-B733F47F468C
v -3615.1127 -1470.5338 293.2197
v -3620.0234 -1465.2056 293.2181
v -3621.2252 -1468.0924 293.2168
f 1747 1748 1749
v -3620.0234 -1465.2056 293.2181
v -3615.1127 -1470.5338 293.2197
v -3613.8989 -1467.6150 293.2210
f 1750 1751 1752
v -3621.2221 -1468.0912 287.7651
v -3621.2252 -1468.0924 293.2168
v -3620.0234 -1465.2056 293.2181
f 1753 1754 1755
v -3615.1097 -1470.5326 287.7680
v -3615.1127 -1470.5338 293.2197
v -3621.2252 -1468.0924 293.2168
f 1756 1757 1758
v -3613.8959 -1467.6140 287.7693
v -3613.8989 -1467.6150 293.2210
v -3615.1127 -1470.5338 293.2197
f 1759 1760 1761
v -3620.0204 -1465.2045 287.7664
v -3620.0234 -1465.2056 293.2181
v -3613.8989 -1467.6150 293.2210
f 1762 1763 1764
v -3620.0204 -1465.2045 287.7664
v -3613.8959 -1467.6140 287.7693
v -3615.1097 -1470.5326 287.7680
f 1765 1766 1767
v -3615.1097 -1470.5326 287.7680
v -3621.2221 -1468.0912 287.7651
v -3620.0204 -1465.2045 287.7664
f 1768 1769 1770
v -3621.2221 -1468.0912 287.7651
v -3620.0234 -1465.2056 293.2181
v -3620.0204 -1465.2045 287.7664
f 1771 1772 1773
v -3615.1097 -1470.5326 287.7680
v -3621.2252 -1468.0924 293.2168
v -3621.2221 -1468.0912 287.7651
f 1774 1775 1776
v -3613.8959 -1467.6140 287.7693
v -3615.1127 -1470.5338 293.2197
v -3615.1097 -1470.5326 287.7680
f 1777 1778 1779
v -3620.0204 -1465.2045 287.7664
v -3613.8989 -1467.6150 293.2210
v -3613.8959 -1467.6140 287.7693
f 1780 1781 1782

g building_ID_A5B5CFE3-97CB-4DA0-A0D3-32D75D439BEF
v -3616.3215 -1473.4396 293.2183
v -3615.1127 -1470.5338 293.2197
v -3618.1645 -1472.6716 293.2174
f 1783 1784 1785
v -3621.2252 -1468.0924 293.2168
v -3618.1645 -1472.6716 293.2174
v -3615.1127 -1470.5338 293.2197
f 1786 1787 1788
v -3618.1956 -1472.7455 293.2174
v -3618.1645 -1472.6716 293.2174
v -3622.4410 -1471.0420 293.2154
f 1789 1790 1791
v -3621.2252 -1468.0924 293.2168
v -3622.4410 -1471.0420 293.2154
v -3618.1645 -1472.6716 293.2174
f 1792 1793 1794
v -3622.4380 -1471.0410 287.7636
v -3622.4410 -1471.0420 293.2154
v -3621.2252 -1468.0924 293.2168
f 1795 1796 1797
v -3618.1926 -1472.7443 287.7656
v -3618.1956 -1472.7455 293.2174
v -3622.4410 -1471.0420 293.2154
f 1798 1799 1800
v -3618.1614 -1472.6704 287.7657
v -3618.1645 -1472.6716 293.2174
v -3618.1956 -1472.7455 293.2174
f 1801 1802 1803
v -3616.3185 -1473.4384 287.7665
v -3616.3215 -1473.4396 293.2183
v -3618.1645 -1472.6716 293.2174
f 1804 1805 1806
v -3615.1097 -1470.5326 287.7680
v -3615.1127 -1470.5338 293.2197
v -3616.3215 -1473.4396 293.2183
f 1807 1808 1809
v -3621.2221 -1468.0912 287.7651
v -3621.2252 -1468.0924 293.2168
v -3615.1127 -1470.5338 293.2197
f 1810 1811 1812
v -3618.1614 -1472.6704 287.7657
v -3618.1926 -1472.7443 287.7656
v -3622.4380 -1471.0410 287.7636
f 1813 1814 1815
v -3621.2221 -1468.0912 287.7651
v -3618.1614 -1472.6704 287.7657
v -3622.4380 -1471.0410 287.7636
f 1816 1817 1818
v -3616.3185 -1473.4384 287.7665
v -3618.1614 -1472.6704 287.7657
v -3615.1097 -1470.5326 287.7680
f 1819 1820 1821
v -3621.2221 -1468.0912 287.7651
v -3615.1097 -1470.5326 287.7680
v -3618.1614 -1472.6704 287.7657
f 1822 1823 1824
v -3622.4380 -1471.0410 287.7636
v -3621.2252 -1468.0924 293.2168
v -3621.2221 -1468.0912 287.7651
f 1825 1826 1827
v -3618.1926 -1472.7443 287.7656
v -3622.4410 -1471.0420 293.2154
v -3622.4380 -1471.0410 287.7636
f 1828 1829 1830
v -3618.1614 -1472.6704 287.7657
v -3618.1956 -1472.7455 293.2174
v -3618.1926 -1472.7443 287.7656
f 1831 1832 1833
v -3616.3185 -1473.4384 287.7665
v -3618.1645 -1472.6716 293.2174
v -3618.1614 -1472.6704 287.7657
f 1834 1835 1836
v -3615.1097 -1470.5326 287.7680
v -3616.3215 -1473.4396 293.2183
v -3616.3185 -1473.4384 287.7665
f 1837 1838 1839
v -3621.2221 -1468.0912 287.7651
v -3615.1127 -1470.5338 293.2197
v -3615.1097 -1470.5326 287.7680
f 1840 1841 1842

g building_ID_A112229C-1CC8-4B07-8990-ED33C312B192
v -3624.2800 -1470.3032 293.2145
v -3619.4185 -1475.6872 293.2160
v -3618.1956 -1472.7455 293.2174
f 1843 1844 1845
v -3619.4185 -1475.6872 293.2160
v -3624.2800 -1470.3032 293.2145
v -3625.4699 -1473.2519 293.2132
f 1846 1847 1848
v -3625.4669 -1473.2508 287.7614
v -3625.4699 -1473.2519 293.2132
v -3624.2800 -1470.3032 293.2145
f 1849 1850 1851
v -3619.4155 -1475.6860 287.7642
v -3619.4185 -1475.6872 293.2160
v -3625.4699 -1473.2519 293.2132
f 1852 1853 1854
v -3618.1926 -1472.7443 287.7656
v -3618.1956 -1472.7455 293.2174
v -3619.4185 -1475.6872 293.2160
f 1855 1856 1857
v -3624.2770 -1470.3020 287.7627
v -3624.2800 -1470.3032 293.2145
v -3618.1956 -1472.7455 293.2174
f 1858 1859 1860
v -3619.4155 -1475.6860 287.7642
v -3625.4669 -1473.2508 287.7614
v -3624.2770 -1470.3020 287.7627
f 1861 1862 1863
v -3624.2770 -1470.3020 287.7627
v -3618.1926 -1472.7443 287.7656
v -3619.4155 -1475.6860 287.7642
f 1864 1865 1866
v -3625.4669 -1473.2508 287.7614
v -3624.2800 -1470.3032 293.2145
v -3624.2770 -1470.3020 287.7627
f 1867 1868 1869
v -3619.4155 -1475.6860 287.7642
v -3625.4699 -1473.2519 293.2132
v -3625.4669 -1473.2508 287.7614
f 1870 1871 1872
v -3618.1926 -1472.7443 287.7656
v -3619.4185 -1475.6872 293.2160
v -3619.4155 -1475.6860 287.7642
f 1873 1874 1875
v -3624.2770 -1470.3020 287.7627
v -3618.1956 -1472.7455 293.2174
v -3618.1926 -1472.7443 287.7656
f 1876 1877 1878

g building_ID_4476524E-5FA0-4341-A9D6-0DB68A4F7ABE
v -3635.0015 -1486.5062 293.2047
v -3636.2234 -1489.4429 293.2033
v -3633.3234 -1487.2048 293.2055
f 1879 1880 1881
v -3630.1360 -1491.8782 293.2062
v -3633.3234 -1487.2048 293.2055
v -3636.2234 -1489.4429 293.2033
f 1882 1883 1884
v -3633.3053 -1487.1607 293.2055
v -3633.3234 -1487.2048 293.2055
v -3628.9824 -1489.0404 293.2075
f 1885 1886 1887
v -3633.3053 -1487.1607 293.2055
v -3628.9824 -1489.0404 293.2075
v -3628.8720 -1488.9217 293.2076
f 1888 1889 1890
v -3628.9304 -1489.0615 293.2075
v -3628.8720 -1488.9217 293.2076
v -3628.9824 -1489.0404 293.2075
f 1891 1892 1893
v -3633.3234 -1487.2048 293.2055
v -3630.1360 -1491.8782 293.2062
v -3628.9824 -1489.0404 293.2075
f 1894 1895 1896
v -3628.9793 -1489.0392 287.7557
v -3628.9824 -1489.0404 293.2075
v -3630.1360 -1491.8782 293.2062
f 1897 1898 1899
v -3628.9274 -1489.0604 287.7557
v -3628.9304 -1489.0615 293.2075
v -3628.9793 -1489.0392 287.7557
f 1900 1901 1902
v -3628.8690 -1488.9205 287.7558
v -3628.8720 -1488.9217 293.2076
v -3628.9304 -1489.0615 293.2075
f 1903 1904 1905
v -3633.3023 -1487.1597 287.7537
v -3633.3053 -1487.1607 293.2055
v -3628.8720 -1488.9217 293.2076
f 1906 1907 1908
v -3633.3204 -1487.2036 287.7537
v -3633.3234 -1487.2048 293.2055
v -3633.3053 -1487.1607 293.2055
f 1909 1910 1911
v -3634.9985 -1486.5051 287.7529
v -3635.0015 -1486.5062 293.2047
v -3633.3234 -1487.2048 293.2055
f 1912 1913 1914
v -3636.2203 -1489.4418 287.7515
v -3636.2234 -1489.4429 293.2033
v -3635.0015 -1486.5062 293.2047
f 1915 1916 1917
v -3630.1330 -1491.8772 287.7544
v -3630.1360 -1491.8782 293.2062
v -3636.2234 -1489.4429 293.2033
f 1918 1919 1920
v -3633.3023 -1487.1597 287.7537
v -3628.8690 -1488.9205 287.7558
v -3628.9793 -1489.0392 287.7557
f 1921 1922 1923
v -3628.9274 -1489.0604 287.7557
v -3628.9793 -1489.0392 287.7557
v -3628.8690 -1488.9205 287.7558
f 1924 1925 1926
v -3628.9793 -1489.0392 287.7557
v -3630.1330 -1491.8772 287.7544
v -3633.3204 -1487.2036 287.7537
f 1927 1928 1929
v -3634.9985 -1486.5051 287.7529
v -3633.3204 -1487.2036 287.7537
v -3636.2203 -1489.4418 287.7515
f 1930 1931 1932
v -3630.1330 -1491.8772 287.7544
v -3636.2203 -1489.4418 287.7515
v -3633.3204 -1487.2036 287.7537
f 1933 1934 1935
v -3628.9793 -1489.0392 287.7557
v -3633.3204 -1487.2036 287.7537
v -3633.3023 -1487.1597 287.7537
f 1936 1937 1938
v -3628.9793 -1489.0392 287.7557
v -3630.1360 -1491.8782 293.2062
v -3630.1330 -1491.8772 287.7544
f 1939 1940 1941
v -3628.9304 -1489.0615 293.2075
v -3628.9824 -1489.0404 293.2075
v -3628.9793 -1489.0392 287.7557
f 1942 1943 1944
v -3628.8690 -1488.9205 287.7558
v -3628.9304 -1489.0615 293.2075
v -3628.9274 -1489.0604 287.7557
f 1945 1946 1947
v -3633.3023 -1487.1597 287.7537
v -3628.8720 -1488.9217 293.2076
v -3628.8690 -1488.9205 287.7558
f 1948 1949 1950
v -3633.3204 -1487.2036 287.7537
v -3633.3053 -1487.1607 293.2055
v -3633.3023 -1487.1597 287.7537
f 1951 1952 1953
v -3634.9985 -1486.5051 287.7529
v -3633.3234 -1487.2048 293.2055
v -3633.3204 -1487.2036 287.7537
f 1954 1955 1956
v -3636.2203 -1489.4418 287.7515
v -3635.0015 -1486.5062 293.2047
v -3634.9985 -1486.5051 287.7529
f 1957 1958 1959
v -3630.1330 -1491.8772 287.7544
v -3636.2234 -1489.4429 293.2033
v -3636.2203 -1489.4418 287.7515
f 1960 1961 1962

g building_ID_30F603A9-9EFD-4550-99D5-AAEDB8DC2409
v -3627.9736 -1479.0862 293.2104
v -3629.6577 -1478.3846 293.2096
v -3630.8437 -1481.3515 293.2082
f 1963 1964 1965
v -3623.6332 -1480.7958 293.2125
v -3627.9736 -1479.0862 293.2104
v -3624.8591 -1483.7435 293.2111
f 1966 1967 1968
v -3630.8437 -1481.3515 293.2082
v -3624.8591 -1483.7435 293.2111
v -3627.9736 -1479.0862 293.2104
f 1969 1970 1971
v -3630.8406 -1481.3503 287.7564
v -3630.8437 -1481.3515 293.2082
v -3629.6547 -1478.3835 287.7578
f 1972 1973 1974
v -3624.8561 -1483.7424 287.7593
v -3624.8591 -1483.7435 293.2111
v -3630.8406 -1481.3503 287.7564
f 1975 1976 1977
v -3623.6302 -1480.7947 287.7607
v -3623.6332 -1480.7958 293.2125
v -3624.8591 -1483.7435 293.2111
f 1978 1979 1980
v -3627.9706 -1479.0850 287.7586
v -3627.9736 -1479.0862 293.2104
v -3623.6302 -1480.7947 287.7607
f 1981 1982 1983
v -3629.6547 -1478.3835 287.7578
v -3629.6577 -1478.3846 293.2096
v -3627.9706 -1479.0850 287.7586
f 1984 1985 1986
v -3627.9706 -1479.0850 287.7586
v -3623.6302 -1480.7947 287.7607
v -3624.8561 -1483.7424 287.7593
f 1987 1988 1989
v -3629.6547 -1478.3835 287.7578
v -3627.9706 -1479.0850 287.7586
v -3630.8406 -1481.3503 287.7564
f 1990 1991 1992
v -3624.8561 -1483.7424 287.7593
v -3630.8406 -1481.3503 287.7564
v -3627.9706 -1479.0850 287.7586
f 1993 1994 1995
v -3630.8437 -1481.3515 293.2082
v -3629.6577 -1478.3846 293.2096
v -3629.6547 -1478.3835 287.7578
f 1996 1997 1998
v -3624.8591 -1483.7435 293.2111
v -3630.8437 -1481.3515 293.2082
v -3630.8406 -1481.3503 287.7564
f 1999 2000 2001
v -3623.6302 -1480.7947 287.7607
v -3624.8591 -1483.7435 293.2111
v -3624.8561 -1483.7424 287.7593
f 2002 2003 2004
v -3627.9736 -1479.0862 293.2104
v -3623.6332 -1480.7958 293.2125
v -3623.6302 -1480.7947 287.7607
f 2005 2006 2007
v -3629.6577 -1478.3846 293.2096
v -3627.9736 -1479.0862 293.2104
v -3627.9706 -1479.0850 287.7586
f 2008 2009 2010

g building_ID_98DD5244-9FE5-45BC-A192-FA080C004373
v -3621.8140 -1481.4497 293.2133
v -3620.6173 -1478.5709 293.2147
v -3623.5970 -1480.7080 293.2125
f 2011 2012 2013
v -3626.6268 -1476.1788 293.2118
v -3623.5970 -1480.7080 293.2125
v -3620.6173 -1478.5709 293.2147
f 2014 2015 2016
v -3623.6332 -1480.7958 293.2125
v -3623.5970 -1480.7080 293.2125
v -3627.8047 -1479.1246 293.2105
f 2017 2018 2019
v -3626.6268 -1476.1788 293.2118
v -3627.8047 -1479.1246 293.2105
v -3623.5970 -1480.7080 293.2125
f 2020 2021 2022
v -3627.8017 -1479.1235 287.7587
v -3627.8047 -1479.1246 293.2105
v -3626.6237 -1476.1777 287.7600
f 2023 2024 2025
v -3623.6302 -1480.7947 287.7607
v -3623.6332 -1480.7958 293.2125
v -3627.8017 -1479.1235 287.7587
f 2026 2027 2028
v -3623.5940 -1480.7068 287.7607
v -3623.5970 -1480.7080 293.2125
v -3623.6332 -1480.7958 293.2125
f 2029 2030 2031
v -3621.8110 -1481.4485 287.7615
v -3621.8140 -1481.4497 293.2133
v -3623.5970 -1480.7080 293.2125
f 2032 2033 2034
v -3620.6142 -1478.5698 287.7629
v -3620.6173 -1478.5709 293.2147
v -3621.8140 -1481.4497 293.2133
f 2035 2036 2037
v -3626.6237 -1476.1777 287.7600
v -3626.6268 -1476.1788 293.2118
v -3620.6173 -1478.5709 293.2147
f 2038 2039 2040
v -3623.5940 -1480.7068 287.7607
v -3623.6302 -1480.7947 287.7607
v -3627.8017 -1479.1235 287.7587
f 2041 2042 2043
v -3626.6237 -1476.1777 287.7600
v -3623.5940 -1480.7068 287.7607
v -3627.8017 -1479.1235 287.7587
f 2044 2045 2046
v -3621.8110 -1481.4485 287.7615
v -3623.5940 -1480.7068 287.7607
v -3620.6142 -1478.5698 287.7629
f 2047 2048 2049
v -3626.6237 -1476.1777 287.7600
v -3620.6142 -1478.5698 287.7629
v -3623.5940 -1480.7068 287.7607
f 2050 2051 2052
v -3627.8047 -1479.1246 293.2105
v -3626.6268 -1476.1788 293.2118
v -3626.6237 -1476.1777 287.7600
f 2053 2054 2055
v -3623.6332 -1480.7958 293.2125
v -3627.8047 -1479.1246 293.2105
v -3627.8017 -1479.1235 287.7587
f 2056 2057 2058
v -3623.5940 -1480.7068 287.7607
v -3623.6332 -1480.7958 293.2125
v -3623.6302 -1480.7947 287.7607
f 2059 2060 2061
v -3621.8110 -1481.4485 287.7615
v -3623.5970 -1480.7080 293.2125
v -3623.5940 -1480.7068 287.7607
f 2062 2063 2064
v -3620.6142 -1478.5698 287.7629
v -3621.8140 -1481.4497 293.2133
v -3621.8110 -1481.4485 287.7615
f 2065 2066 2067
v -3626.6237 -1476.1777 287.7600
v -3620.6173 -1478.5709 293.2147
v -3620.6142 -1478.5698 287.7629
f 2068 2069 2070

g building_ID_A1C1AF58-6190-4279-B6AD-9BFD680B3006
v -3625.4699 -1473.2519 293.2132
v -3620.6173 -1478.5709 293.2147
v -3619.4185 -1475.6872 293.2160
f 2071 2072 2073
v -3620.6173 -1478.5709 293.2147
v -3625.4699 -1473.2519 293.2132
v -3626.6268 -1476.1788 293.2118
f 2074 2075 2076
v -3626.6237 -1476.1777 287.7600
v -3626.6268 -1476.1788 293.2118
v -3625.4699 -1473.2519 293.2132
f 2077 2078 2079
v -3620.6142 -1478.5698 287.7629
v -3620.6173 -1478.5709 293.2147
v -3626.6268 -1476.1788 293.2118
f 2080 2081 2082
v -3619.4155 -1475.6860 287.7642
v -3619.4185 -1475.6872 293.2160
v -3620.6173 -1478.5709 293.2147
f 2083 2084 2085
v -3625.4669 -1473.2508 287.7614
v -3625.4699 -1473.2519 293.2132
v -3619.4185 -1475.6872 293.2160
f 2086 2087 2088
v -3620.6142 -1478.5698 287.7629
v -3626.6237 -1476.1777 287.7600
v -3625.4669 -1473.2508 287.7614
f 2089 2090 2091
v -3625.4669 -1473.2508 287.7614
v -3619.4155 -1475.6860 287.7642
v -3620.6142 -1478.5698 287.7629
f 2092 2093 2094
v -3626.6237 -1476.1777 287.7600
v -3625.4699 -1473.2519 293.2132
v -3625.4669 -1473.2508 287.7614
f 2095 2096 2097
v -3620.6142 -1478.5698 287.7629
v -3626.6268 -1476.1788 293.2118
v -3626.6237 -1476.1777 287.7600
f 2098 2099 2100
v -3619.4155 -1475.6860 287.7642
v -3620.6173 -1478.5709 293.2147
v -3620.6142 -1478.5698 287.7629
f 2101 2102 2103
v -3625.4669 -1473.2508 287.7614
v -3619.4185 -1475.6872 293.2160
v -3619.4155 -1475.6860 287.7642
f 2104 2105 2106

g building_ID_11A6289D-1D70-4E5F-94BA-525504B62E89
v -3630.8437 -1481.3515 293.2082
v -3626.0488 -1486.6013 293.2097
v -3624.8591 -1483.7435 293.2111
f 2107 2108 2109
v -3626.0488 -1486.6013 293.2097
v -3630.8437 -1481.3515 293.2082
v -3632.0044 -1484.2344 293.2069
f 2110 2111 2112
v -3632.0014 -1484.2332 287.7551
v -3632.0044 -1484.2344 293.2069
v -3630.8437 -1481.3515 293.2082
f 2113 2114 2115
v -3626.0458 -1486.6001 287.7579
v -3626.0488 -1486.6013 293.2097
v -3632.0044 -1484.2344 293.2069
f 2116 2117 2118
v -3624.8561 -1483.7424 287.7593
v -3624.8591 -1483.7435 293.2111
v -3626.0488 -1486.6013 293.2097
f 2119 2120 2121
v -3630.8406 -1481.3503 287.7564
v -3630.8437 -1481.3515 293.2082
v -3624.8591 -1483.7435 293.2111
f 2122 2123 2124
v -3626.0458 -1486.6001 287.7579
v -3632.0014 -1484.2332 287.7551
v -3630.8406 -1481.3503 287.7564
f 2125 2126 2127
v -3630.8406 -1481.3503 287.7564
v -3624.8561 -1483.7424 287.7593
v -3626.0458 -1486.6001 287.7579
f 2128 2129 2130
v -3632.0014 -1484.2332 287.7551
v -3630.8437 -1481.3515 293.2082
v -3630.8406 -1481.3503 287.7564
f 2131 2132 2133
v -3626.0458 -1486.6001 287.7579
v -3632.0044 -1484.2344 293.2069
v -3632.0014 -1484.2332 287.7551
f 2134 2135 2136
v -3624.8561 -1483.7424 287.7593
v -3626.0488 -1486.6013 293.2097
v -3626.0458 -1486.6001 287.7579
f 2137 2138 2139
v -3630.8406 -1481.3503 287.7564
v -3624.8591 -1483.7435 293.2111
v -3624.8561 -1483.7424 287.7593
f 2140 2141 2142

g building_ID_B836A373-B65D-463E-9FDE-F70D2653D57E
v -3628.8630 -1488.9007 293.2076
v -3627.2778 -1489.5580 293.2084
v -3626.0488 -1486.6023 293.2097
f 2143 2144 2145
v -3633.1944 -1487.2041 293.2055
v -3628.8630 -1488.9007 293.2076
v -3632.0044 -1484.2344 293.2069
f 2146 2147 2148
v -3626.0488 -1486.6023 293.2097
v -3632.0044 -1484.2344 293.2069
v -3628.8630 -1488.9007 293.2076
f 2149 2150 2151
v -3633.1913 -1487.2029 287.7537
v -3633.1944 -1487.2041 293.2055
v -3632.0044 -1484.2344 293.2069
f 2152 2153 2154
v -3628.8600 -1488.8996 287.7558
v -3628.8630 -1488.9007 293.2076
v -3633.1944 -1487.2041 293.2055
f 2155 2156 2157
v -3627.2747 -1489.5568 287.7566
v -3627.2778 -1489.5580 293.2084
v -3628.8630 -1488.9007 293.2076
f 2158 2159 2160
v -3626.0458 -1486.6011 287.7579
v -3626.0488 -1486.6023 293.2097
v -3627.2778 -1489.5580 293.2084
f 2161 2162 2163
v -3632.0014 -1484.2332 287.7551
v -3632.0044 -1484.2344 293.2069
v -3626.0488 -1486.6023 293.2097
f 2164 2165 2166
v -3628.8600 -1488.8996 287.7558
v -3633.1913 -1487.2029 287.7537
v -3632.0014 -1484.2332 287.7551
f 2167 2168 2169
v -3627.2747 -1489.5568 287.7566
v -3628.8600 -1488.8996 287.7558
v -3626.0458 -1486.6011 287.7579
f 2170 2171 2172
v -3632.0014 -1484.2332 287.7551
v -3626.0458 -1486.6011 287.7579
v -3628.8600 -1488.8996 287.7558
f 2173 2174 2175
v -3633.1913 -1487.2029 287.7537
v -3632.0044 -1484.2344 293.2069
v -3632.0014 -1484.2332 287.7551
f 2176 2177 2178
v -3628.8600 -1488.8996 287.7558
v -3633.1944 -1487.2041 293.2055
v -3633.1913 -1487.2029 287.7537
f 2179 2180 2181
v -3627.2747 -1489.5568 287.7566
v -3628.8630 -1488.9007 293.2076
v -3628.8600 -1488.8996 287.7558
f 2182 2183 2184
v -3626.0458 -1486.6011 287.7579
v -3627.2778 -1489.5580 293.2084
v -3627.2747 -1489.5568 287.7566
f 2185 2186 2187
v -3632.0014 -1484.2332 287.7551
v -3626.0488 -1486.6023 293.2097
v -3626.0458 -1486.6011 287.7579
f 2188 2189 2190

g building_ID_CC976EEF-26D5-4CDE-BBC5-2BB5A93734BE
v -3631.4064 -1495.0248 293.2047
v -3636.2234 -1489.4429 293.2033
v -3637.5197 -1492.5634 293.2018
f 2191 2192 2193
v -3636.2234 -1489.4429 293.2033
v -3631.4064 -1495.0248 293.2047
v -3630.1360 -1491.8782 293.2062
f 2194 2195 2196
v -3631.4034 -1495.0237 287.7529
v -3631.4064 -1495.0248 293.2047
v -3637.5197 -1492.5634 293.2018
f 2197 2198 2199
v -3630.1330 -1491.8772 287.7544
v -3630.1360 -1491.8782 293.2062
v -3631.4064 -1495.0248 293.2047
f 2200 2201 2202
v -3636.2203 -1489.4418 287.7515
v -3636.2234 -1489.4429 293.2033
v -3630.1360 -1491.8782 293.2062
f 2203 2204 2205
v -3637.5167 -1492.5623 287.7500
v -3637.5197 -1492.5634 293.2018
v -3636.2234 -1489.4429 293.2033
f 2206 2207 2208
v -3636.2203 -1489.4418 287.7515
v -3630.1330 -1491.8772 287.7544
v -3631.4034 -1495.0237 287.7529
f 2209 2210 2211
v -3631.4034 -1495.0237 287.7529
v -3637.5167 -1492.5623 287.7500
v -3636.2203 -1489.4418 287.7515
f 2212 2213 2214
v -3631.4034 -1495.0237 287.7529
v -3637.5197 -1492.5634 293.2018
v -3637.5167 -1492.5623 287.7500
f 2215 2216 2217
v -3630.1330 -1491.8772 287.7544
v -3631.4064 -1495.0248 293.2047
v -3631.4034 -1495.0237 287.7529
f 2218 2219 2220
v -3636.2203 -1489.4418 287.7515
v -3630.1360 -1491.8782 293.2062
v -3630.1330 -1491.8772 287.7544
f 2221 2222 2223
v -3637.5167 -1492.5623 287.7500
v -3636.2234 -1489.4429 293.2033
v -3636.2203 -1489.4418 287.7515
f 2224 2225 2226

g building_ID_00B0FCE4-7185-475B-AD81-35BBD7D22D64
v -3735.0674 -1359.9069 317.2524
v -3743.4413 -1369.5316 318.9563
v -3739.9723 -1371.0376 317.3251
f 2227 2228 2229
v -3743.4413 -1369.5316 318.9563
v -3735.0674 -1359.9069 317.2524
v -3738.6921 -1358.3104 318.9615
f 2230 2231 2232
v -3743.4413 -1369.5316 318.9563
v -3741.6348 -1357.0132 317.5951
v -3746.5548 -1368.1790 317.5139
f 2233 2234 2235
v -3738.6921 -1358.3104 318.9615
v -3741.6348 -1357.0132 317.5951
v -3743.4413 -1369.5316 318.9563
f 2236 2237 2238
v -3735.0674 -1359.9069 317.2524
v -3739.9723 -1371.0376 317.3251
v -3739.9711 -1371.0373 315.1312
f 2239 2240 2241
v -3739.9711 -1371.0373 315.1312
v -3739.9690 -1371.0365 311.4763
v -3735.0674 -1359.9069 317.2524
f 2242 2243 2244
v -3739.9690 -1371.0365 311.4763
v -3735.0641 -1359.9057 311.4816
v -3735.0674 -1359.9069 317.2524
f 2245 2246 2247
v -3746.5534 -1368.1786 315.2200
v -3746.5548 -1368.1790 317.5139
v -3741.6348 -1357.0132 317.5951
f 2248 2249 2250
v -3746.5513 -1368.1779 311.4731
v -3741.6348 -1357.0132 317.5951
v -3741.6313 -1357.0121 311.4783
f 2251 2252 2253
v -3735.0641 -1359.9057 311.4816
v -3739.9690 -1371.0365 311.4763
v -3743.4370 -1369.5303 311.4746
f 2254 2255 2256
v -3735.0641 -1359.9057 311.4816
v -3743.4370 -1369.5303 311.4746
v -3746.5513 -1368.1779 311.4731
f 2257 2258 2259
v -3746.5513 -1368.1779 311.4731
v -3741.6313 -1357.0121 311.4783
v -3738.6878 -1358.3090 311.4798
f 2260 2261 2262
v -3746.5513 -1368.1779 311.4731
v -3738.6878 -1358.3090 311.4798
v -3735.0641 -1359.9057 311.4816
f 2263 2264 2265
v -3738.6921 -1358.3104 318.9615
v -3741.6313 -1357.0121 311.4783
v -3741.6348 -1357.0132 317.5951
f 2266 2267 2268
v -3741.6313 -1357.0121 311.4783
v -3738.6921 -1358.3104 318.9615
v -3738.6878 -1358.3090 311.4798
f 2269 2270 2271
v -3735.0641 -1359.9057 311.4816
v -3738.6878 -1358.3090 311.4798
v -3735.0674 -1359.9069 317.2524
f 2272 2273 2274
v -3735.0674 -1359.9069 317.2524
v -3738.6878 -1358.3090 311.4798
v -3738.6921 -1358.3104 318.9615
f 2275 2276 2277
v -3739.9690 -1371.0365 311.4763
v -3739.9711 -1371.0373 315.1312
v -3746.5534 -1368.1786 315.2200
f 2278 2279 2280
v -3739.9723 -1371.0376 317.3251
v -3743.4413 -1369.5316 318.9563
v -3739.9711 -1371.0373 315.1312
f 2281 2282 2283
v -3739.9711 -1371.0373 315.1312
v -3746.5548 -1368.1790 317.5139
v -3746.5534 -1368.1786 315.2200
f 2284 2285 2286
v -3746.5513 -1368.1779 311.4731
v -3743.4370 -1369.5303 311.4746
v -3746.5534 -1368.1786 315.2200
f 2287 2288 2289
v -3746.5534 -1368.1786 315.2200
v -3743.4370 -1369.5303 311.4746
v -3739.9690 -1371.0365 311.4763
f 2290 2291 2292
v -3746.5548 -1368.1790 317.5139
v -3739.9711 -1371.0373 315.1312
v -3743.4413 -1369.5316 318.9563
f 2293 2294 2295
v -3746.5534 -1368.1786 315.2200
v -3741.6348 -1357.0132 317.5951
v -3746.5513 -1368.1779 311.4731
f 2296 2297 2298

g building_ID_248711FC-A17B-4122-9807-364C761E18D8
v -3767.0694 -1186.6264 311.5247
v -3763.9238 -1186.3570 311.7585
v -3762.1644 -1180.9498 311.9267
f 2299 2300 2301
v -3763.9238 -1186.3570 311.7585
v -3761.7404 -1186.1579 311.9208
v -3762.1644 -1180.9498 311.9267
f 2302 2303 2304
v -3768.1045 -1175.4968 311.5262
v -3762.1644 -1180.9498 311.9267
v -3762.6494 -1174.9845 311.9325
f 2305 2306 2307
v -3768.1045 -1175.4968 311.5262
v -3767.0694 -1186.6264 311.5247
v -3762.1644 -1180.9498 311.9267
f 2308 2309 2310
v -3762.6459 -1174.9836 305.9807
v -3762.1644 -1180.9498 311.9267
v -3761.7370 -1186.1570 305.9791
f 2311 2312 2313
v -3761.7370 -1186.1570 305.9791
v -3762.1644 -1180.9498 311.9267
v -3761.7404 -1186.1579 311.9208
f 2314 2315 2316
v -3768.1013 -1175.4959 305.9774
v -3768.1045 -1175.4968 311.5262
v -3762.6494 -1174.9845 311.9325
f 2317 2318 2319
v -3768.1013 -1175.4959 305.9774
v -3762.6494 -1174.9845 311.9325
v -3762.6459 -1174.9836 305.9807
f 2320 2321 2322
v -3768.1045 -1175.4968 311.5262
v -3768.1013 -1175.4959 305.9774
v -3767.0694 -1186.6264 311.5247
f 2323 2324 2325
v -3767.0694 -1186.6264 311.5247
v -3768.1013 -1175.4959 305.9774
v -3767.0662 -1186.6256 305.9759
f 2326 2327 2328
v -3767.0662 -1186.6256 305.9759
v -3763.9238 -1186.3570 311.7585
v -3767.0694 -1186.6264 311.5247
f 2329 2330 2331
v -3767.0662 -1186.6256 305.9759
v -3763.9205 -1186.3560 305.9778
v -3763.9238 -1186.3570 311.7585
f 2332 2333 2334
v -3761.7370 -1186.1570 305.9791
v -3761.7404 -1186.1579 311.9208
v -3763.9238 -1186.3570 311.7585
f 2335 2336 2337
v -3762.6459 -1174.9836 305.9807
v -3761.7370 -1186.1570 305.9791
v -3763.9205 -1186.3560 305.9778
f 2338 2339 2340
v -3767.0662 -1186.6256 305.9759
v -3768.1013 -1175.4959 305.9774
v -3762.6459 -1174.9836 305.9807
f 2341 2342 2343
v -3762.6459 -1174.9836 305.9807
v -3763.9205 -1186.3560 305.9778
v -3767.0662 -1186.6256 305.9759
f 2344 2345 2346
v -3762.6459 -1174.9836 305.9807
v -3762.6494 -1174.9845 311.9325
v -3762.1644 -1180.9498 311.9267
f 2347 2348 2349
v -3761.7370 -1186.1570 305.9791
v -3763.9238 -1186.3570 311.7585
v -3763.9205 -1186.3560 305.9778
f 2350 2351 2352

g building_ID_0FB2CC06-02F1-45D4-A53B-E49F19D1AA8D
v -3759.5626 -1174.7018 311.8273
v -3759.8804 -1170.7457 310.8539
v -3768.4725 -1171.5456 310.8487
f 2353 2354 2355
v -3768.4725 -1171.5456 310.8487
v -3768.1057 -1175.4968 311.8222
v -3759.5626 -1174.7018 311.8273
f 2356 2357 2358
v -3759.8804 -1170.7457 310.8539
v -3759.5592 -1174.7008 305.9825
v -3759.8776 -1170.7449 305.9831
f 2359 2360 2361
v -3768.4697 -1171.5450 305.9779
v -3768.4725 -1171.5456 310.8487
v -3759.8776 -1170.7449 305.9831
f 2362 2363 2364
v -3768.1023 -1175.4959 305.9774
v -3768.1057 -1175.4968 311.8222
v -3768.4725 -1171.5456 310.8487
f 2365 2366 2367
v -3768.1057 -1175.4968 311.8222
v -3768.1023 -1175.4959 305.9774
v -3759.5626 -1174.7018 311.8273
f 2368 2369 2370
v -3759.5626 -1174.7018 311.8273
v -3768.1023 -1175.4959 305.9774
v -3759.5592 -1174.7008 305.9825
f 2371 2372 2373
v -3759.8776 -1170.7449 305.9831
v -3768.1023 -1175.4959 305.9774
v -3768.4697 -1171.5450 305.9779
f 2374 2375 2376
v -3759.5592 -1174.7008 305.9825
v -3768.1023 -1175.4959 305.9774
v -3759.8776 -1170.7449 305.9831
f 2377 2378 2379
v -3759.5592 -1174.7008 305.9825
v -3759.8804 -1170.7457 310.8539
v -3759.5626 -1174.7018 311.8273
f 2380 2381 2382
v -3768.4725 -1171.5456 310.8487
v -3759.8804 -1170.7457 310.8539
v -3759.8776 -1170.7449 305.9831
f 2383 2384 2385
v -3768.1023 -1175.4959 305.9774
v -3768.4725 -1171.5456 310.8487
v -3768.4697 -1171.5450 305.9779
f 2386 2387 2388
