# Grid Center: 2612000, 1263400
# Global Anchor: 7.64977475454284, 47.53283995868075, 0.0

g building_ID_00B0FCE4-7185-475B-AD81-35BBD7D22D64
v -3735.0674 -1359.9069 317.2524
v -3743.4413 -1369.5316 318.9563
v -3739.9723 -1371.0376 317.3251
f 1 2 3
v -3743.4413 -1369.5316 318.9563
v -3735.0674 -1359.9069 317.2524
v -3738.6921 -1358.3104 318.9615
f 4 5 6
v -3743.4413 -1369.5316 318.9563
v -3741.6348 -1357.0132 317.5951
v -3746.5548 -1368.1790 317.5139
f 7 8 9
v -3738.6921 -1358.3104 318.9615
v -3741.6348 -1357.0132 317.5951
v -3743.4413 -1369.5316 318.9563
f 10 11 12
v -3735.0674 -1359.9069 317.2524
v -3739.9723 -1371.0376 317.3251
v -3739.9711 -1371.0373 315.1312
f 13 14 15
v -3739.9711 -1371.0373 315.1312
v -3739.9690 -1371.0365 311.4763
v -3735.0674 -1359.9069 317.2524
f 16 17 18
v -3739.9690 -1371.0365 311.4763
v -3735.0641 -1359.9057 311.4816
v -3735.0674 -1359.9069 317.2524
f 19 20 21
v -3746.5534 -1368.1786 315.2200
v -3746.5548 -1368.1790 317.5139
v -3741.6348 -1357.0132 317.5951
f 22 23 24
v -3746.5513 -1368.1779 311.4731
v -3741.6348 -1357.0132 317.5951
v -3741.6313 -1357.0121 311.4783
f 25 26 27
v -3735.0641 -1359.9057 311.4816
v -3739.9690 -1371.0365 311.4763
v -3743.4370 -1369.5303 311.4746
f 28 29 30
v -3735.0641 -1359.9057 311.4816
v -3743.4370 -1369.5303 311.4746
v -3746.5513 -1368.1779 311.4731
f 31 32 33
v -3746.5513 -1368.1779 311.4731
v -3741.6313 -1357.0121 311.4783
v -3738.6878 -1358.3090 311.4798
f 34 35 36
v -3746.5513 -1368.1779 311.4731
v -3738.6878 -1358.3090 311.4798
v -3735.0641 -1359.9057 311.4816
f 37 38 39
v -3738.6921 -1358.3104 318.9615
v -3741.6313 -1357.0121 311.4783
v -3741.6348 -1357.0132 317.5951
f 40 41 42
v -3741.6313 -1357.0121 311.4783
v -3738.6921 -1358.3104 318.9615
v -3738.6878 -1358.3090 311.4798
f 43 44 45
v -3735.0641 -1359.9057 311.4816
v -3738.6878 -1358.3090 311.4798
v -3735.0674 -1359.9069 317.2524
f 46 47 48
v -3735.0674 -1359.9069 317.2524
v -3738.6878 -1358.3090 311.4798
v -3738.6921 -1358.3104 318.9615
f 49 50 51
v -3739.9690 -1371.0365 311.4763
v -3739.9711 -1371.0373 315.1312
v -3746.5534 -1368.1786 315.2200
f 52 53 54
v -3739.9723 -1371.0376 317.3251
v -3743.4413 -1369.5316 318.9563
v -3739.9711 -1371.0373 315.1312
f 55 56 57
v -3739.9711 -1371.0373 315.1312
v -3746.5548 -1368.1790 317.5139
v -3746.5534 -1368.1786 315.2200
f 58 59 60
v -3746.5513 -1368.1779 311.4731
v -3743.4370 -1369.5303 311.4746
v -3746.5534 -1368.1786 315.2200
f 61 62 63
v -3746.5534 -1368.1786 315.2200
v -3743.4370 -1369.5303 311.4746
v -3739.9690 -1371.0365 311.4763
f 64 65 66
v -3746.5548 -1368.1790 317.5139
v -3739.9711 -1371.0373 315.1312
v -3743.4413 -1369.5316 318.9563
f 67 68 69
v -3746.5534 -1368.1786 315.2200
v -3741.6348 -1357.0132 317.5951
v -3746.5513 -1368.1779 311.4731
f 70 71 72

g building_ID_7DC7F5D2-7365-488A-B852-E8DCE9B514CC
v -3993.7094 -1343.4840 333.4485
v -3991.7688 -1339.2795 334.5616
v -3993.7727 -1340.6248 333.4211
f 73 74 75
v -3993.7727 -1340.6248 333.4211
v -3991.7688 -1339.2795 334.5616
v -3993.7802 -1339.3238 333.4214
f 76 77 78
v -3993.6103 -1347.9063 333.4907
v -3991.7239 -1347.8975 334.5598
v -3993.7094 -1343.4840 333.4485
f 79 80 81
v -3991.7688 -1339.2795 334.5616
v -3993.7094 -1343.4840 333.4485
v -3991.7239 -1347.8975 334.5598
f 82 83 84
v -3990.6894 -1339.2552 334.0673
v -3991.7688 -1339.2795 334.5616
v -3991.7239 -1347.8975 334.5598
f 85 86 87
v -3989.3947 -1342.4876 333.4814
v -3990.6894 -1339.2552 334.0673
v -3991.7239 -1347.8975 334.5598
f 88 89 90
v -3991.7239 -1347.8975 334.5598
v -3989.2752 -1347.8839 333.4384
v -3989.3368 -1345.1128 333.4609
f 91 92 93
v -3990.6894 -1339.2552 334.0673
v -3989.3947 -1342.4876 333.4814
v -3989.4660 -1339.2425 333.5071
f 94 95 96
v -3991.7239 -1347.8975 334.5598
v -3989.3368 -1345.1128 333.4609
v -3989.3947 -1342.4876 333.4814
f 97 98 99
v -3993.6094 -1347.9060 331.9068
v -3993.6103 -1347.9063 333.4907
v -3993.7094 -1343.4840 333.4485
f 100 101 102
v -3993.7094 -1343.4840 333.4485
v -3993.6065 -1347.9051 327.1570
v -3993.6074 -1347.9054 328.7409
f 103 104 105
v -3993.6065 -1347.9051 327.1570
v -3993.7094 -1343.4840 333.4485
v -3993.6627 -1345.4019 327.1575
f 106 107 108
v -3993.6627 -1345.4019 327.1575
v -3993.7094 -1343.4840 333.4485
v -3993.7234 -1342.6718 327.1580
f 109 110 111
v -3993.7234 -1342.6718 327.1580
v -3993.7094 -1343.4840 333.4485
v -3993.7727 -1340.6248 333.4211
f 112 113 114
v -3993.7727 -1340.6248 333.4211
v -3993.7688 -1340.6237 327.1584
v -3993.7234 -1342.6718 327.1580
f 115 116 117
v -3993.7802 -1339.3238 333.4214
v -3993.7764 -1339.3227 327.1587
v -3993.7727 -1340.6248 333.4211
f 118 119 120
v -3993.7727 -1340.6248 333.4211
v -3993.7764 -1339.3227 327.1587
v -3993.7688 -1340.6237 327.1584
f 121 122 123
v -3989.3561 -1344.0635 327.1604
v -3989.4154 -1341.4018 329.5239
v -3989.3368 -1345.1128 333.4609
f 124 125 126
v -3989.4154 -1341.4018 329.5239
v -3989.3561 -1344.0635 327.1604
v -3989.4621 -1339.2412 327.1614
f 127 128 129
v -3989.3561 -1344.0635 327.1604
v -3989.3368 -1345.1128 333.4609
v -3989.2752 -1347.8839 333.4384
f 130 131 132
v -3989.2733 -1347.8833 330.2655
v -3989.2714 -1347.8827 327.1597
v -3989.3561 -1344.0635 327.1604
f 133 134 135
v -3990.6852 -1339.2540 327.1606
v -3990.6894 -1339.2552 334.0673
v -3989.4621 -1339.2412 327.1614
f 136 137 138
v -3989.4660 -1339.2425 333.5071
v -3989.4621 -1339.2412 327.1614
v -3990.6894 -1339.2552 334.0673
f 139 140 141
v -3991.7643 -1339.2780 327.1599
v -3993.7688 -1340.6237 327.1584
v -3993.7764 -1339.3227 327.1587
f 142 143 144
v -3993.7688 -1340.6237 327.1584
v -3991.7643 -1339.2780 327.1599
v -3993.7234 -1342.6718 327.1580
f 145 146 147
v -3993.7234 -1342.6718 327.1580
v -3989.3561 -1344.0635 327.1604
v -3993.6627 -1345.4019 327.1575
f 148 149 150
v -3993.6065 -1347.9051 327.1570
v -3993.6627 -1345.4019 327.1575
v -3991.7194 -1347.8961 327.1581
f 151 152 153
v -3991.7643 -1339.2780 327.1599
v -3989.3561 -1344.0635 327.1604
v -3993.7234 -1342.6718 327.1580
f 154 155 156
v -3990.6852 -1339.2540 327.1606
v -3989.4621 -1339.2412 327.1614
v -3989.3561 -1344.0635 327.1604
f 157 158 159
v -3989.3561 -1344.0635 327.1604
v -3991.7194 -1347.8961 327.1581
v -3993.6627 -1345.4019 327.1575
f 160 161 162
v -3989.2714 -1347.8827 327.1597
v -3991.7194 -1347.8961 327.1581
v -3989.3561 -1344.0635 327.1604
f 163 164 165
v -3989.3561 -1344.0635 327.1604
v -3991.7643 -1339.2780 327.1599
v -3990.6852 -1339.2540 327.1606
f 166 167 168
v -3993.6074 -1347.9054 328.7409
v -3989.2733 -1347.8833 330.2655
v -3989.2752 -1347.8839 333.4384
f 169 170 171
v -3989.2714 -1347.8827 327.1597
v -3989.2733 -1347.8833 330.2655
v -3991.7194 -1347.8961 327.1581
f 172 173 174
v -3993.6094 -1347.9060 331.9068
v -3989.2752 -1347.8839 333.4384
v -3991.7239 -1347.8975 334.5598
f 175 176 177
v -3993.6094 -1347.9060 331.9068
v -3993.6074 -1347.9054 328.7409
v -3989.2752 -1347.8839 333.4384
f 178 179 180
v -3993.6065 -1347.9051 327.1570
v -3991.7194 -1347.8961 327.1581
v -3993.6074 -1347.9054 328.7409
f 181 182 183
v -3993.6074 -1347.9054 328.7409
v -3991.7194 -1347.8961 327.1581
v -3989.2733 -1347.8833 330.2655
f 184 185 186
v -3993.6103 -1347.9063 333.4907
v -3993.6094 -1347.9060 331.9068
v -3991.7239 -1347.8975 334.5598
f 187 188 189
v -3990.6852 -1339.2540 327.1606
v -3991.7643 -1339.2780 327.1599
v -3993.7802 -1339.3238 333.4214
f 190 191 192
v -3993.7764 -1339.3227 327.1587
v -3993.7802 -1339.3238 333.4214
v -3991.7643 -1339.2780 327.1599
f 193 194 195
v -3990.6894 -1339.2552 334.0673
v -3993.7802 -1339.3238 333.4214
v -3991.7688 -1339.2795 334.5616
f 196 197 198
v -3990.6852 -1339.2540 327.1606
v -3993.7802 -1339.3238 333.4214
v -3990.6894 -1339.2552 334.0673
f 199 200 201
v -3993.7094 -1343.4840 333.4485
v -3993.6074 -1347.9054 328.7409
v -3993.6094 -1347.9060 331.9068
f 202 203 204
v -3989.4154 -1341.4018 329.5239
v -3989.3947 -1342.4876 333.4814
v -3989.3368 -1345.1128 333.4609
f 205 206 207
v -3989.4621 -1339.2412 327.1614
v -3989.4660 -1339.2425 333.5071
v -3989.3947 -1342.4876 333.4814
f 208 209 210
v -3989.4621 -1339.2412 327.1614
v -3989.3947 -1342.4876 333.4814
v -3989.4154 -1341.4018 329.5239
f 211 212 213
v -3989.3561 -1344.0635 327.1604
v -3989.2752 -1347.8839 333.4384
v -3989.2733 -1347.8833 330.2655
f 214 215 216

g building_ID_248711FC-A17B-4122-9807-364C761E18D8
v -3767.0694 -1186.6264 311.5247
v -3763.9238 -1186.3570 311.7585
v -3762.1644 -1180.9498 311.9267
f 217 218 219
v -3763.9238 -1186.3570 311.7585
v -3761.7404 -1186.1579 311.9208
v -3762.1644 -1180.9498 311.9267
f 220 221 222
v -3768.1045 -1175.4968 311.5262
v -3762.1644 -1180.9498 311.9267
v -3762.6494 -1174.9845 311.9325
f 223 224 225
v -3768.1045 -1175.4968 311.5262
v -3767.0694 -1186.6264 311.5247
v -3762.1644 -1180.9498 311.9267
f 226 227 228
v -3762.6459 -1174.9836 305.9807
v -3762.1644 -1180.9498 311.9267
v -3761.7370 -1186.1570 305.9791
f 229 230 231
v -3761.7370 -1186.1570 305.9791
v -3762.1644 -1180.9498 311.9267
v -3761.7404 -1186.1579 311.9208
f 232 233 234
v -3768.1013 -1175.4959 305.9774
v -3768.1045 -1175.4968 311.5262
v -3762.6494 -1174.9845 311.9325
f 235 236 237
v -3768.1013 -1175.4959 305.9774
v -3762.6494 -1174.9845 311.9325
v -3762.6459 -1174.9836 305.9807
f 238 239 240
v -3768.1045 -1175.4968 311.5262
v -3768.1013 -1175.4959 305.9774
v -3767.0694 -1186.6264 311.5247
f 241 242 243
v -3767.0694 -1186.6264 311.5247
v -3768.1013 -1175.4959 305.9774
v -3767.0662 -1186.6256 305.9759
f 244 245 246
v -3767.0662 -1186.6256 305.9759
v -3763.9238 -1186.3570 311.7585
v -3767.0694 -1186.6264 311.5247
f 247 248 249
v -3767.0662 -1186.6256 305.9759
v -3763.9205 -1186.3560 305.9778
v -3763.9238 -1186.3570 311.7585
f 250 251 252
v -3761.7370 -1186.1570 305.9791
v -3761.7404 -1186.1579 311.9208
v -3763.9238 -1186.3570 311.7585
f 253 254 255
v -3762.6459 -1174.9836 305.9807
v -3761.7370 -1186.1570 305.9791
v -3763.9205 -1186.3560 305.9778
f 256 257 258
v -3767.0662 -1186.6256 305.9759
v -3768.1013 -1175.4959 305.9774
v -3762.6459 -1174.9836 305.9807
f 259 260 261
v -3762.6459 -1174.9836 305.9807
v -3763.9205 -1186.3560 305.9778
v -3767.0662 -1186.6256 305.9759
f 262 263 264
v -3762.6459 -1174.9836 305.9807
v -3762.6494 -1174.9845 311.9325
v -3762.1644 -1180.9498 311.9267
f 265 266 267
v -3761.7370 -1186.1570 305.9791
v -3763.9238 -1186.3570 311.7585
v -3763.9205 -1186.3560 305.9778
f 268 269 270

g building_ID_0FB2CC06-02F1-45D4-A53B-E49F19D1AA8D
v -3759.5626 -1174.7018 311.8273
v -3759.8804 -1170.7457 310.8539
v -3768.4725 -1171.5456 310.8487
f 271 272 273
v -3768.4725 -1171.5456 310.8487
v -3768.1057 -1175.4968 311.8222
v -3759.5626 -1174.7018 311.8273
f 274 275 276
v -3759.8804 -1170.7457 310.8539
v -3759.5592 -1174.7008 305.9825
v -3759.8776 -1170.7449 305.9831
f 277 278 279
v -3768.4697 -1171.5450 305.9779
v -3768.4725 -1171.5456 310.8487
v -3759.8776 -1170.7449 305.9831
f 280 281 282
v -3768.1023 -1175.4959 305.9774
v -3768.1057 -1175.4968 311.8222
v -3768.4725 -1171.5456 310.8487
f 283 284 285
v -3768.1057 -1175.4968 311.8222
v -3768.1023 -1175.4959 305.9774
v -3759.5626 -1174.7018 311.8273
f 286 287 288
v -3759.5626 -1174.7018 311.8273
v -3768.1023 -1175.4959 305.9774
v -3759.5592 -1174.7008 305.9825
f 289 290 291
v -3759.8776 -1170.7449 305.9831
v -3768.1023 -1175.4959 305.9774
v -3768.4697 -1171.5450 305.9779
f 292 293 294
v -3759.5592 -1174.7008 305.9825
v -3768.1023 -1175.4959 305.9774
v -3759.8776 -1170.7449 305.9831
f 295 296 297
v -3759.5592 -1174.7008 305.9825
v -3759.8804 -1170.7457 310.8539
v -3759.5626 -1174.7018 311.8273
f 298 299 300
v -3768.4725 -1171.5456 310.8487
v -3759.8804 -1170.7457 310.8539
v -3759.8776 -1170.7449 305.9831
f 301 302 303
v -3768.1023 -1175.4959 305.9774
v -3768.4725 -1171.5456 310.8487
v -3768.4697 -1171.5450 305.9779
f 304 305 306

g building_ID_4B95D2B5-66E8-4D42-B1E9-7780251A7B8C
v -4105.1985 -1112.2621 323.1492
v -4097.4892 -1098.0208 323.1566
v -4097.7739 -1112.4259 323.1539
f 307 308 309
v -4105.1985 -1112.2621 323.1492
v -4105.0718 -1097.8814 323.1517
v -4101.4670 -1097.9471 323.1540
f 310 311 312
v -4101.4670 -1097.9471 323.1540
v -4097.4892 -1098.0208 323.1566
v -4105.1985 -1112.2621 323.1492
f 313 314 315
v -4097.6354 -1105.2243 329.2929
v -4101.4717 -1097.9482 330.6477
v -4101.5964 -1112.3428 330.6452
f 316 317 318
v -4097.6354 -1105.2243 329.2929
v -4097.4931 -1098.0217 329.2674
v -4101.4717 -1097.9482 330.6477
f 319 320 321
v -4097.7778 -1112.4269 329.3196
v -4097.6354 -1105.2243 329.2929
v -4101.5964 -1112.3428 330.6452
f 322 323 324
v -4101.5964 -1112.3428 330.6452
v -4101.4717 -1097.9482 330.6477
v -4105.2023 -1112.2629 329.2878
f 325 326 327
v -4105.2023 -1112.2629 329.2878
v -4101.4717 -1097.9482 330.6477
v -4105.0756 -1097.8823 329.2904
f 328 329 330
v -4097.4892 -1098.0208 323.1566
v -4097.4931 -1098.0217 329.2674
v -4097.6354 -1105.2243 329.2929
f 331 332 333
v -4097.7778 -1112.4269 329.3196
v -4097.7739 -1112.4259 323.1539
v -4097.6354 -1105.2243 329.2929
f 334 335 336
v -4097.7739 -1112.4259 323.1539
v -4097.4892 -1098.0208 323.1566
v -4097.6354 -1105.2243 329.2929
f 337 338 339
v -4105.2023 -1112.2629 329.2878
v -4105.1997 -1112.2603 325.0231
v -4105.1985 -1112.2621 323.1492
f 340 341 342
v -4105.1997 -1112.2603 325.0231
v -4105.2023 -1112.2629 329.2878
v -4105.2020 -1112.2608 328.7178
f 343 344 345
v -4105.2023 -1112.2629 329.2878
v -4105.0912 -1099.6792 328.7202
v -4105.2020 -1112.2608 328.7178
f 346 347 348
v -4105.1985 -1112.2621 323.1492
v -4105.1997 -1112.2603 325.0231
v -4105.1985 -1112.2601 323.1592
f 349 350 351
v -4105.0912 -1099.6792 328.7202
v -4105.2023 -1112.2629 329.2878
v -4105.0756 -1097.8823 329.2904
f 352 353 354
v -4105.0753 -1097.8822 328.7205
v -4105.0912 -1099.6792 328.7202
v -4105.0756 -1097.8823 329.2904
f 355 356 357
v -4105.1985 -1112.2621 323.1492
v -4105.1985 -1112.2601 323.1592
v -4105.0718 -1097.8814 323.1517
f 358 359 360
v -4105.0718 -1097.8814 323.1517
v -4105.1985 -1112.2601 323.1592
v -4105.0877 -1099.6784 323.1614
f 361 362 363
v -4105.0718 -1097.8814 323.1617
v -4105.0718 -1097.8814 323.1517
v -4105.0877 -1099.6784 323.1614
f 364 365 366
v -4111.1675 -1097.7900 323.1578
v -4111.1676 -1097.7900 323.2468
v -4109.6366 -1097.8031 323.2478
f 367 368 369
v -4108.9586 -1097.8089 323.1592
v -4111.1675 -1097.7900 323.1578
v -4109.6366 -1097.8031 323.2478
f 370 371 372
v -4109.6366 -1097.8031 323.2478
v -4108.9621 -1097.8098 328.7180
v -4108.9586 -1097.8089 323.1592
f 373 374 375
v -4109.6401 -1097.8010 328.7176
v -4108.9621 -1097.8098 328.7180
v -4109.6366 -1097.8031 323.2478
f 376 377 378
v -4111.2921 -1112.1276 323.1553
v -4111.2921 -1112.1276 323.2443
v -4111.1675 -1097.7900 323.1578
f 379 380 381
v -4108.9586 -1097.8089 323.1592
v -4111.2921 -1112.1276 323.1553
v -4111.1675 -1097.7900 323.1578
f 382 383 384
v -4108.9586 -1097.8089 323.1592
v -4105.1985 -1112.2601 323.1592
v -4111.2921 -1112.1276 323.1553
f 385 386 387
v -4108.9586 -1097.8089 323.1592
v -4105.0877 -1099.6784 323.1614
v -4105.1985 -1112.2601 323.1592
f 388 389 390
v -4108.9586 -1097.8089 323.1592
v -4105.0718 -1097.8814 323.1617
v -4105.0877 -1099.6784 323.1614
f 391 392 393
v -4109.7657 -1112.1615 328.7149
v -4108.9621 -1097.8098 328.7180
v -4109.6559 -1099.5959 328.7173
f 394 395 396
v -4109.6401 -1097.8010 328.7176
v -4109.6559 -1099.5959 328.7173
v -4108.9621 -1097.8098 328.7180
f 397 398 399
v -4105.2020 -1112.2608 328.7178
v -4105.0912 -1099.6792 328.7202
v -4109.7657 -1112.1615 328.7149
f 400 401 402
v -4105.0912 -1099.6792 328.7202
v -4108.9621 -1097.8098 328.7180
v -4109.7657 -1112.1615 328.7149
f 403 404 405
v -4108.9621 -1097.8098 328.7180
v -4105.0912 -1099.6792 328.7202
v -4105.0753 -1097.8822 328.7205
f 406 407 408
v -4109.7027 -1104.9749 329.2762
v -4113.3951 -1097.7282 330.6401
v -4113.5196 -1112.0797 330.6375
f 409 410 411
v -4109.7027 -1104.9749 329.2762
v -4109.6404 -1097.7971 329.2775
v -4113.3951 -1097.7282 330.6401
f 412 413 414
v -4109.7660 -1112.1616 329.2749
v -4109.7027 -1104.9749 329.2762
v -4113.5196 -1112.0797 330.6375
f 415 416 417
v -4113.5196 -1112.0797 330.6375
v -4113.3951 -1097.7282 330.6401
v -4117.1256 -1111.9999 329.2582
f 418 419 420
v -4117.1256 -1111.9999 329.2582
v -4113.3951 -1097.7282 330.6401
v -4116.8401 -1097.6647 329.3229
f 421 422 423
v -4116.8382 -1097.6643 326.2831
v -4117.1256 -1111.9999 329.2582
v -4116.8391 -1097.6644 327.8030
f 424 425 426
v -4116.8382 -1097.6643 326.2831
v -4116.8363 -1097.6638 323.2432
v -4117.1256 -1111.9999 329.2582
f 427 428 429
v -4117.1218 -1111.9990 323.2405
v -4117.1243 -1111.9995 327.1833
v -4116.8363 -1097.6638 323.2432
f 430 431 432
v -4113.3905 -1097.7270 323.2454
v -4117.1218 -1111.9990 323.2405
v -4116.8363 -1097.6638 323.2432
f 433 434 435
v -4109.6366 -1097.8031 323.2478
v -4111.1676 -1097.7900 323.2468
v -4113.3905 -1097.7270 323.2454
f 436 437 438
v -4111.1676 -1097.7900 323.2468
v -4111.2921 -1112.1276 323.2443
v -4113.3905 -1097.7270 323.2454
f 439 440 441
v -4117.1218 -1111.9990 323.2405
v -4113.3905 -1097.7270 323.2454
v -4113.5150 -1112.0787 323.2428
f 442 443 444
v -4113.3905 -1097.7270 323.2454
v -4111.2921 -1112.1276 323.2443
v -4113.5150 -1112.0787 323.2428
f 445 446 447
v -4109.7027 -1104.9749 329.2762
v -4109.6559 -1099.5959 328.7173
v -4109.6404 -1097.7971 329.2775
f 448 449 450
v -4109.7027 -1104.9749 329.2762
v -4109.7657 -1112.1615 328.7149
v -4109.6559 -1099.5959 328.7173
f 451 452 453
v -4109.7657 -1112.1615 328.7149
v -4109.7027 -1104.9749 329.2762
v -4109.7660 -1112.1616 329.2749
f 454 455 456
v -4109.6404 -1097.7971 329.2775
v -4109.6401 -1097.8010 328.7176
v -4109.6400 -1097.7970 328.7176
f 457 458 459
v -4109.6404 -1097.7971 329.2775
v -4109.6559 -1099.5959 328.7173
v -4109.6401 -1097.8010 328.7176
f 460 461 462
v -4105.1985 -1112.2621 323.1492
v -4101.5964 -1112.3428 330.6452
v -4105.2023 -1112.2629 329.2878
f 463 464 465
v -4101.5964 -1112.3428 330.6452
v -4105.1985 -1112.2621 323.1492
v -4097.7739 -1112.4259 323.1539
f 466 467 468
v -4097.7778 -1112.4269 329.3196
v -4101.5964 -1112.3428 330.6452
v -4097.7739 -1112.4259 323.1539
f 469 470 471
v -4101.4717 -1097.9482 330.6477
v -4105.0753 -1097.8822 328.7205
v -4105.0756 -1097.8823 329.2904
f 472 473 474
v -4108.9621 -1097.8098 328.7180
v -4105.0753 -1097.8822 328.7205
v -4105.0718 -1097.8814 323.1617
f 475 476 477
v -4105.0718 -1097.8814 323.1617
v -4101.4670 -1097.9471 323.1540
v -4105.0718 -1097.8814 323.1517
f 478 479 480
v -4101.4670 -1097.9471 323.1540
v -4105.0718 -1097.8814 323.1617
v -4105.0753 -1097.8822 328.7205
f 481 482 483
v -4097.4892 -1098.0208 323.1566
v -4101.4670 -1097.9471 323.1540
v -4097.4931 -1098.0217 329.2674
f 484 485 486
v -4101.4717 -1097.9482 330.6477
v -4097.4931 -1098.0217 329.2674
v -4101.4670 -1097.9471 323.1540
f 487 488 489
v -4105.0753 -1097.8822 328.7205
v -4101.4717 -1097.9482 330.6477
v -4101.4670 -1097.9471 323.1540
f 490 491 492
v -4109.6400 -1097.7970 328.7176
v -4116.8391 -1097.6644 327.8030
v -4116.8401 -1097.6647 329.3229
f 493 494 495
v -4109.6366 -1097.8031 323.2478
v -4116.8382 -1097.6643 326.2831
v -4116.8391 -1097.6644 327.8030
f 496 497 498
v -4116.8382 -1097.6643 326.2831
v -4113.3905 -1097.7270 323.2454
v -4116.8363 -1097.6638 323.2432
f 499 500 501
v -4109.6400 -1097.7970 328.7176
v -4116.8401 -1097.6647 329.3229
v -4113.3951 -1097.7282 330.6401
f 502 503 504
v -4116.8391 -1097.6644 327.8030
v -4109.6400 -1097.7970 328.7176
v -4109.6366 -1097.8031 323.2478
f 505 506 507
v -4109.6400 -1097.7970 328.7176
v -4113.3951 -1097.7282 330.6401
v -4109.6404 -1097.7971 329.2775
f 508 509 510
v -4116.8382 -1097.6643 326.2831
v -4109.6366 -1097.8031 323.2478
v -4113.3905 -1097.7270 323.2454
f 511 512 513
v -4113.5196 -1112.0797 330.6375
v -4109.7657 -1112.1615 328.7149
v -4109.7660 -1112.1616 329.2749
f 514 515 516
v -4109.7657 -1112.1615 328.7149
v -4105.1997 -1112.2603 325.0231
v -4105.2020 -1112.2608 328.7178
f 517 518 519
v -4105.1985 -1112.2601 323.1592
v -4105.1997 -1112.2603 325.0231
v -4111.2921 -1112.1276 323.1553
f 520 521 522
v -4117.1243 -1111.9995 327.1833
v -4113.5196 -1112.0797 330.6375
v -4117.1256 -1111.9999 329.2582
f 523 524 525
v -4109.7657 -1112.1615 328.7149
v -4113.5196 -1112.0797 330.6375
v -4117.1243 -1111.9995 327.1833
f 526 527 528
v -4105.1997 -1112.2603 325.0231
v -4111.2921 -1112.1276 323.2443
v -4111.2921 -1112.1276 323.1553
f 529 530 531
v -4113.5150 -1112.0787 323.2428
v -4111.2921 -1112.1276 323.2443
v -4109.7657 -1112.1615 328.7149
f 532 533 534
v -4117.1243 -1111.9995 327.1833
v -4113.5150 -1112.0787 323.2428
v -4109.7657 -1112.1615 328.7149
f 535 536 537
v -4113.5150 -1112.0787 323.2428
v -4117.1243 -1111.9995 327.1833
v -4117.1218 -1111.9990 323.2405
f 538 539 540
v -4109.7657 -1112.1615 328.7149
v -4111.2921 -1112.1276 323.2443
v -4105.1997 -1112.2603 325.0231
f 541 542 543
v -4111.2921 -1112.1276 323.2443
v -4111.1676 -1097.7900 323.2468
v -4111.1675 -1097.7900 323.1578
f 544 545 546
v -4117.1256 -1111.9999 329.2582
v -4116.8401 -1097.6647 329.3229
v -4116.8391 -1097.6644 327.8030
f 547 548 549
v -4116.8363 -1097.6638 323.2432
v -4117.1243 -1111.9995 327.1833
v -4117.1256 -1111.9999 329.2582
f 550 551 552
v -4108.9621 -1097.8098 328.7180
v -4105.0718 -1097.8814 323.1617
v -4108.9586 -1097.8089 323.1592
f 553 554 555
v -4109.6401 -1097.8010 328.7176
v -4109.6366 -1097.8031 323.2478
v -4109.6400 -1097.7970 328.7176
f 556 557 558
