# Grid Center: 2612000, 1266200
# Global Anchor: 7.64977475454284, 47.53283995868075, 0.0

g building_ID_113E6F39-C92C-4CE5-8710-A8DC4A2982A7
v -4076.0720 1306.6207 283.2168
v -4072.6402 1305.0414 283.2193
v -4070.7575 1309.0333 283.2197
f 1 2 3
v -4070.7575 1309.0333 283.2197
v -4077.2066 1307.1417 283.2160
v -4076.0720 1306.6207 283.2168
f 4 5 6
v -4077.2066 1307.1417 283.2160
v -4070.7575 1309.0333 283.2197
v -4082.2191 1314.3471 283.2113
f 7 8 9
v -4077.2066 1307.1417 283.2160
v -4082.2191 1314.3471 283.2113
v -4083.8660 1310.6555 283.2110
f 10 11 12
v -4083.8660 1310.6555 283.2110
v -4083.9519 1310.6847 283.2109
v -4084.1179 1310.3232 283.2109
f 13 14 15
v -4077.2066 1307.1417 283.2160
v -4083.8660 1310.6555 283.2110
v -4084.1179 1310.3232 283.2109
f 16 17 18
v -4083.8617 1310.6540 276.4553
v -4083.8660 1310.6555 283.2110
v -4082.2191 1314.3471 283.2113
f 19 20 21
v -4083.9477 1310.6832 276.4552
v -4083.9519 1310.6847 283.2109
v -4083.8660 1310.6555 283.2110
f 22 23 24
v -4084.1136 1310.3216 276.4552
v -4084.1179 1310.3232 283.2109
v -4083.9519 1310.6847 283.2109
f 25 26 27
v -4082.2148 1314.3455 276.4556
v -4082.2191 1314.3471 283.2113
v -4070.7575 1309.0333 283.2197
f 28 29 30
v -4077.2023 1307.1401 276.4603
v -4083.8617 1310.6540 276.4553
v -4082.2148 1314.3455 276.4556
f 31 32 33
v -4083.8617 1310.6540 276.4553
v -4084.1136 1310.3216 276.4552
v -4083.9477 1310.6832 276.4552
f 34 35 36
v -4084.1136 1310.3216 276.4552
v -4083.8617 1310.6540 276.4553
v -4077.2023 1307.1401 276.4603
f 37 38 39
v -4076.0677 1306.6191 276.4611
v -4070.7533 1309.0318 276.4640
v -4072.6360 1305.0398 276.4636
f 40 41 42
v -4070.7533 1309.0318 276.4640
v -4076.0677 1306.6191 276.4611
v -4077.2023 1307.1401 276.4603
f 43 44 45
v -4082.2148 1314.3455 276.4556
v -4070.7533 1309.0318 276.4640
v -4077.2023 1307.1401 276.4603
f 46 47 48
v -4080.4572 1305.7753 296.0147
v -4084.3608 1304.7948 296.0124
v -4081.5114 1303.4832 296.0145
f 49 50 51
v -4084.3608 1304.7948 296.0124
v -4080.4572 1305.7753 296.0147
v -4083.3066 1307.0860 296.0126
f 52 53 54
v -4080.4572 1305.7753 296.0147
v -4081.5114 1303.4832 296.0145
v -4079.2340 1304.2416 293.9529
f 55 56 57
v -4077.2128 1307.1440 293.2216
v -4080.4572 1305.7753 296.0147
v -4079.2340 1304.2416 293.9529
f 58 59 60
v -4077.2128 1307.1440 293.2216
v -4076.8005 1305.0505 291.7513
v -4076.0773 1306.6225 291.7515
f 61 62 63
v -4079.2340 1304.2416 293.9529
v -4076.8005 1305.0505 291.7513
v -4077.2128 1307.1440 293.2216
f 64 65 66
v -4085.3909 1310.1967 292.2457
v -4085.7801 1310.3676 291.7445
v -4086.2297 1309.3908 291.7444
f 67 68 69
v -4085.1001 1310.5139 292.4008
v -4085.2595 1310.3684 292.3028
v -4084.3729 1310.4402 293.2163
f 70 71 72
v -4085.3909 1310.1967 292.2457
v -4084.3729 1310.4402 293.2163
v -4085.2595 1310.3684 292.3028
f 73 74 75
v -4085.3909 1310.1967 292.2457
v -4086.2297 1309.3908 291.7444
v -4084.3729 1310.4402 293.2163
f 76 77 78
v -4083.3066 1307.0860 296.0126
v -4084.3729 1310.4402 293.2163
v -4086.2297 1309.3908 291.7444
f 79 80 81
v -4084.8458 1310.6583 292.6020
v -4084.9179 1310.6295 292.5389
v -4084.3729 1310.4402 293.2163
f 82 83 84
v -4084.3729 1310.4402 293.2163
v -4084.9179 1310.6295 292.5389
v -4085.1001 1310.5139 292.4008
f 85 86 87
v -4084.3608 1304.7948 296.0124
v -4083.3066 1307.0860 296.0126
v -4086.2297 1309.3908 291.7444
f 88 89 90
v -4084.3729 1310.4402 293.2163
v -4080.4572 1305.7753 296.0147
v -4077.2128 1307.1440 293.2216
f 91 92 93
v -4080.4572 1305.7753 296.0147
v -4084.3729 1310.4402 293.2163
v -4083.3066 1307.0860 296.0126
f 94 95 96
v -4085.7801 1310.3676 291.7445
v -4085.7793 1310.3673 290.3925
v -4086.2297 1309.3908 291.7444
f 97 98 99
v -4076.0759 1306.6221 289.5775
v -4076.0773 1306.6225 291.7515
v -4076.8005 1305.0505 291.7513
f 100 101 102
v -4083.9944 1302.7308 296.0130
v -4084.1682 1298.1388 293.6610
v -4082.1458 1297.2247 290.6995
f 103 104 105
v -4084.1682 1298.1388 293.6610
v -4083.9944 1302.7308 296.0130
v -4085.1521 1300.2161 296.0128
f 106 107 108
v -4085.1521 1300.2161 296.0128
v -4087.4052 1299.6015 293.6176
v -4084.1682 1298.1388 293.6610
f 109 110 111
v -4087.4052 1299.6015 293.6176
v -4085.1521 1300.2161 296.0128
v -4083.9944 1302.7308 296.0130
f 112 113 114
v -4083.9944 1302.7308 296.0130
v -4089.4438 1300.5223 290.6242
v -4087.4052 1299.6015 293.6176
f 115 116 117
v -4093.3620 1305.3076 294.0246
v -4093.4608 1305.3548 293.8855
v -4093.5101 1305.2519 293.8835
f 118 119 120
v -4090.1408 1306.5076 297.0903
v -4091.2519 1309.5379 294.2131
v -4093.2300 1305.3563 294.1507
f 121 122 123
v -4094.0178 1304.1693 276.0211
v -4093.3278 1302.2784 276.0219
v -4093.3319 1302.2798 282.4046
f 124 125 126
v -4093.3319 1302.2798 282.4046
v -4093.3370 1302.2817 290.5833
v -4094.0255 1304.1720 288.2896
f 127 128 129
v -4093.3319 1302.2798 282.4046
v -4094.0255 1304.1720 288.2896
v -4094.0229 1304.1711 284.1997
f 130 131 132
v -4094.0229 1304.1711 284.1997
v -4094.0178 1304.1693 276.0211
v -4093.3319 1302.2798 282.4046
f 133 134 135
v -4090.7945 1310.4815 280.2407
v -4090.8025 1310.4843 292.8962
v -4090.9852 1310.5719 292.8920
f 136 137 138
v -4090.7918 1310.4805 276.0219
v -4090.7945 1310.4815 280.2407
v -4090.9746 1310.5679 276.0218
f 139 140 141
v -4086.3352 1310.4508 290.5891
v -4086.2737 1310.5846 290.4042
v -4086.2646 1310.5813 276.0248
f 142 143 144
v -4086.3260 1310.4475 276.0248
v -4086.3352 1310.4508 290.5891
v -4086.2646 1310.5813 276.0248
f 145 146 147
v -4088.8319 1311.5782 276.0229
v -4088.7716 1311.7071 276.0229
v -4088.7807 1311.7104 290.4343
f 148 149 150
v -4090.1019 1312.3276 276.0220
v -4090.1109 1312.3309 290.4243
v -4088.7807 1311.7104 290.4343
f 151 152 153
v -4090.1019 1312.3276 276.0220
v -4088.7807 1311.7104 290.4343
v -4088.7716 1311.7071 276.0229
f 154 155 156
v -4075.1893 1299.6267 276.0341
v -4091.2404 1309.5338 276.0218
v -4085.3807 1310.1930 276.0254
f 157 158 159
v -4086.3260 1310.4475 276.0248
v -4085.3807 1310.1930 276.0254
v -4091.2404 1309.5338 276.0218
f 160 161 162
v -4077.3445 1295.0566 276.0336
v -4093.3278 1302.2784 276.0219
v -4075.1893 1299.6267 276.0341
f 163 164 165
v -4086.2646 1310.5813 276.0248
v -4085.3807 1310.1930 276.0254
v -4086.3260 1310.4475 276.0248
f 166 167 168
v -4084.9075 1310.6256 276.0256
v -4084.8365 1310.6545 276.0257
v -4085.0899 1310.5101 276.0255
f 169 170 171
v -4072.6357 1305.0397 276.0346
v -4085.3807 1310.1930 276.0254
v -4084.8365 1310.6545 276.0257
f 172 173 174
v -4085.0899 1310.5101 276.0255
v -4084.8365 1310.6545 276.0257
v -4085.2493 1310.3646 276.0255
f 175 176 177
v -4085.3807 1310.1930 276.0254
v -4085.2493 1310.3646 276.0255
v -4084.8365 1310.6545 276.0257
f 178 179 180
v -4085.3807 1310.1930 276.0254
v -4072.6357 1305.0397 276.0346
v -4075.1893 1299.6267 276.0341
f 181 182 183
v -4093.3507 1305.3035 276.0213
v -4093.2618 1305.2602 276.0214
v -4093.4989 1305.2479 276.0212
f 184 185 186
v -4093.3278 1302.2784 276.0219
v -4094.0178 1304.1693 276.0211
v -4093.2618 1305.2602 276.0214
f 187 188 189
v -4075.1893 1299.6267 276.0341
v -4093.2618 1305.2602 276.0214
v -4093.2186 1305.3521 276.0214
f 190 191 192
v -4093.3507 1305.3035 276.0213
v -4093.4989 1305.2479 276.0212
v -4093.4496 1305.3507 276.0212
f 193 194 195
v -4093.2618 1305.2602 276.0214
v -4094.0178 1304.1693 276.0211
v -4093.4989 1305.2479 276.0212
f 196 197 198
v -4088.8319 1311.5782 276.0229
v -4086.3260 1310.4475 276.0248
v -4090.7918 1310.4805 276.0219
f 199 200 201
v -4090.7918 1310.4805 276.0219
v -4086.3260 1310.4475 276.0248
v -4091.2404 1309.5338 276.0218
f 202 203 204
v -4090.1019 1312.3276 276.0220
v -4088.8319 1311.5782 276.0229
v -4090.7918 1310.4805 276.0219
f 205 206 207
v -4090.7918 1310.4805 276.0219
v -4090.9746 1310.5679 276.0218
v -4090.1019 1312.3276 276.0220
f 208 209 210
v -4075.1893 1299.6267 276.0341
v -4093.2186 1305.3521 276.0214
v -4091.2404 1309.5338 276.0218
f 211 212 213
v -4088.7716 1311.7071 276.0229
v -4088.8319 1311.5782 276.0229
v -4090.1019 1312.3276 276.0220
f 214 215 216
v -4093.2618 1305.2602 276.0214
v -4075.1893 1299.6267 276.0341
v -4093.3278 1302.2784 276.0219
f 217 218 219
v -4094.0281 1304.1730 292.3794
v -4089.4438 1300.5223 290.6242
v -4093.2731 1305.2643 294.0227
f 220 221 222
v -4094.0281 1304.1730 292.3794
v -4093.3370 1302.2817 290.5833
v -4089.4438 1300.5223 290.6242
f 223 224 225
v -4093.2731 1305.2643 294.0227
v -4093.3620 1305.3076 294.0246
v -4093.5101 1305.2519 293.8835
f 226 227 228
v -4093.2731 1305.2643 294.0227
v -4083.9944 1302.7308 296.0130
v -4093.2300 1305.3563 294.1507
f 229 230 231
v -4093.2731 1305.2643 294.0227
v -4093.5101 1305.2519 293.8835
v -4094.0281 1304.1730 292.3794
f 232 233 234
v -4083.9944 1302.7308 296.0130
v -4082.1458 1297.2247 290.6995
v -4077.3537 1295.0599 290.7490
f 235 236 237
v -4090.1408 1306.5076 297.0903
v -4093.2300 1305.3563 294.1507
v -4083.9944 1302.7308 296.0130
f 238 239 240
v -4090.1408 1306.5076 297.0903
v -4083.9944 1302.7308 296.0130
v -4075.2025 1299.6315 297.1012
f 241 242 243
v -4083.9944 1302.7308 296.0130
v -4093.2731 1305.2643 294.0227
v -4089.4438 1300.5223 290.6242
f 244 245 246
v -4083.9944 1302.7308 296.0130
v -4077.3537 1295.0599 290.7490
v -4075.2025 1299.6315 297.1012
f 247 248 249
v -4084.8365 1310.6545 276.0257
v -4084.9075 1310.6256 276.0256
v -4084.8356 1310.6545 276.2097
f 250 251 252
v -4084.8450 1310.6576 289.5711
v -4084.8356 1310.6545 276.2097
v -4084.9075 1310.6256 276.0256
f 253 254 255
v -4084.8458 1310.6583 292.6020
v -4084.8450 1310.6576 289.5711
v -4084.9179 1310.6295 292.5389
f 256 257 258
v -4084.9075 1310.6256 276.0256
v -4084.9179 1310.6295 292.5389
v -4084.8450 1310.6576 289.5711
f 259 260 261
v -4085.2595 1310.3684 292.3028
v -4085.0899 1310.5101 276.0255
v -4085.2493 1310.3646 276.0255
f 262 263 264
v -4085.0899 1310.5101 276.0255
v -4085.2595 1310.3684 292.3028
v -4085.1001 1310.5139 292.4008
f 265 266 267
v -4084.3729 1310.4402 293.2163
v -4084.8450 1310.6576 289.5711
v -4084.8458 1310.6583 292.6020
f 268 269 270
v -4084.3729 1310.4402 293.2163
v -4077.2128 1307.1440 293.2216
v -4084.8450 1310.6576 289.5711
f 271 272 273
v -4084.8450 1310.6576 289.5711
v -4076.0759 1306.6221 289.5775
v -4077.2066 1307.1417 283.2160
f 274 275 276
v -4084.1136 1310.3216 276.4552
v -4084.8365 1310.6545 276.0257
v -4084.8356 1310.6545 276.2097
f 277 278 279
v -4084.8356 1310.6545 276.2097
v -4084.1179 1310.3232 283.2109
v -4084.1136 1310.3216 276.4552
f 280 281 282
v -4084.1179 1310.3232 283.2109
v -4084.8356 1310.6545 276.2097
v -4084.8450 1310.6576 289.5711
f 283 284 285
v -4077.2023 1307.1401 276.4603
v -4084.8365 1310.6545 276.0257
v -4084.1136 1310.3216 276.4552
f 286 287 288
v -4076.0759 1306.6221 289.5775
v -4076.0720 1306.6207 283.2168
v -4077.2066 1307.1417 283.2160
f 289 290 291
v -4076.0759 1306.6221 289.5775
v -4072.6442 1305.0429 289.5800
v -4072.6402 1305.0414 283.2193
f 292 293 294
v -4072.6357 1305.0397 276.0346
v -4077.2023 1307.1401 276.4603
v -4076.0677 1306.6191 276.4611
f 295 296 297
v -4076.0677 1306.6191 276.4611
v -4072.6360 1305.0398 276.4636
v -4072.6357 1305.0397 276.0346
f 298 299 300
v -4084.8365 1310.6545 276.0257
v -4077.2023 1307.1401 276.4603
v -4072.6357 1305.0397 276.0346
f 301 302 303
v -4076.0773 1306.6225 291.7515
v -4076.0759 1306.6221 289.5775
v -4077.2128 1307.1440 293.2216
f 304 305 306
v -4082.1458 1297.2247 290.6995
v -4087.4052 1299.6015 293.6176
v -4089.4438 1300.5223 290.6242
f 307 308 309
v -4087.4052 1299.6015 293.6176
v -4082.1458 1297.2247 290.6995
v -4084.1682 1298.1388 293.6610
f 310 311 312
v -4082.1458 1297.2247 290.6995
v -4077.3445 1295.0566 276.0336
v -4077.3537 1295.0599 290.7490
f 313 314 315
v -4093.3319 1302.2798 282.4046
v -4082.1458 1297.2247 290.6995
v -4089.4438 1300.5223 290.6242
f 316 317 318
v -4093.3370 1302.2817 290.5833
v -4093.3319 1302.2798 282.4046
v -4089.4438 1300.5223 290.6242
f 319 320 321
v -4093.3278 1302.2784 276.0219
v -4077.3445 1295.0566 276.0336
v -4093.3319 1302.2798 282.4046
f 322 323 324
v -4093.3319 1302.2798 282.4046
v -4077.3445 1295.0566 276.0336
v -4082.1458 1297.2247 290.6995
f 325 326 327
v -4085.0899 1310.5101 276.0255
v -4085.1001 1310.5139 292.4008
v -4084.9179 1310.6295 292.5389
f 328 329 330
v -4084.9179 1310.6295 292.5389
v -4084.9075 1310.6256 276.0256
v -4085.0899 1310.5101 276.0255
f 331 332 333
v -4085.2493 1310.3646 276.0255
v -4085.3909 1310.1967 292.2457
v -4085.2595 1310.3684 292.3028
f 334 335 336
v -4085.3909 1310.1967 292.2457
v -4085.2493 1310.3646 276.0255
v -4085.3807 1310.1930 276.0254
f 337 338 339
v -4093.4608 1305.3548 293.8855
v -4093.3507 1305.3035 276.0213
v -4093.4496 1305.3507 276.0212
f 340 341 342
v -4093.4608 1305.3548 293.8855
v -4093.2618 1305.2602 276.0214
v -4093.3507 1305.3035 276.0213
f 343 344 345
v -4093.2731 1305.2643 294.0227
v -4093.4608 1305.3548 293.8855
v -4093.3620 1305.3076 294.0246
f 346 347 348
v -4093.2618 1305.2602 276.0214
v -4093.4608 1305.3548 293.8855
v -4093.2731 1305.2643 294.0227
f 349 350 351
v -4094.0229 1304.1711 284.1997
v -4093.4989 1305.2479 276.0212
v -4094.0178 1304.1693 276.0211
f 352 353 354
v -4093.4608 1305.3548 293.8855
v -4094.0229 1304.1711 284.1997
v -4094.0255 1304.1720 288.2896
f 355 356 357
v -4094.0229 1304.1711 284.1997
v -4093.4608 1305.3548 293.8855
v -4093.4496 1305.3507 276.0212
f 358 359 360
v -4094.0255 1304.1720 288.2896
v -4093.5101 1305.2519 293.8835
v -4093.4608 1305.3548 293.8855
f 361 362 363
v -4093.4989 1305.2479 276.0212
v -4094.0229 1304.1711 284.1997
v -4093.4496 1305.3507 276.0212
f 364 365 366
v -4094.0281 1304.1730 292.3794
v -4093.5101 1305.2519 293.8835
v -4094.0255 1304.1720 288.2896
f 367 368 369
v -4093.2731 1305.2643 294.0227
v -4091.2519 1309.5379 294.2131
v -4090.8025 1310.4843 292.8962
f 370 371 372
v -4093.2300 1305.3563 294.1507
v -4091.2519 1309.5379 294.2131
v -4093.2731 1305.2643 294.0227
f 373 374 375
v -4090.7945 1310.4815 280.2407
v -4093.2731 1305.2643 294.0227
v -4090.8025 1310.4843 292.8962
f 376 377 378
v -4093.2618 1305.2602 276.0214
v -4093.2731 1305.2643 294.0227
v -4090.7945 1310.4815 280.2407
f 379 380 381
v -4091.2404 1309.5338 276.0218
v -4090.7945 1310.4815 280.2407
v -4090.7918 1310.4805 276.0219
f 382 383 384
v -4093.2618 1305.2602 276.0214
v -4090.7945 1310.4815 280.2407
v -4093.2186 1305.3521 276.0214
f 385 386 387
v -4091.2404 1309.5338 276.0218
v -4093.2186 1305.3521 276.0214
v -4090.7945 1310.4815 280.2407
f 388 389 390
v -4085.7793 1310.3673 290.3925
v -4085.7801 1310.3676 291.7445
v -4085.3909 1310.1967 292.2457
f 391 392 393
v -4086.2646 1310.5813 276.0248
v -4085.7793 1310.3673 290.3925
v -4085.3807 1310.1930 276.0254
f 394 395 396
v -4085.3909 1310.1967 292.2457
v -4085.3807 1310.1930 276.0254
v -4085.7793 1310.3673 290.3925
f 397 398 399
v -4086.2737 1310.5846 290.4042
v -4085.7793 1310.3673 290.3925
v -4086.2646 1310.5813 276.0248
f 400 401 402
v -4088.8319 1311.5782 276.0229
v -4088.8411 1311.5816 290.6133
v -4086.3352 1310.4508 290.5891
f 403 404 405
v -4086.3260 1310.4475 276.0248
v -4088.8319 1311.5782 276.0229
v -4086.3352 1310.4508 290.5891
f 406 407 408
v -4090.9852 1310.5719 292.8920
v -4090.1109 1312.3309 290.4243
v -4090.9746 1310.5679 276.0218
f 409 410 411
v -4090.1019 1312.3276 276.0220
v -4090.9746 1310.5679 276.0218
v -4090.1109 1312.3309 290.4243
f 412 413 414
v -4072.6360 1305.0398 276.4636
v -4070.7533 1309.0318 276.4640
v -4070.7575 1309.0333 283.2197
f 415 416 417
v -4072.6402 1305.0414 283.2193
v -4075.1893 1299.6267 276.0341
v -4072.6360 1305.0398 276.4636
f 418 419 420
v -4075.1893 1299.6267 276.0341
v -4072.6402 1305.0414 283.2193
v -4072.6442 1305.0429 289.5800
f 421 422 423
v -4075.1893 1299.6267 276.0341
v -4075.2025 1299.6315 297.1012
v -4077.3537 1295.0599 290.7490
f 424 425 426
v -4075.1893 1299.6267 276.0341
v -4072.6357 1305.0397 276.0346
v -4072.6360 1305.0398 276.4636
f 427 428 429
v -4075.2025 1299.6315 297.1012
v -4075.1893 1299.6267 276.0341
v -4072.6442 1305.0429 289.5800
f 430 431 432
v -4090.8025 1310.4843 292.8962
v -4086.3352 1310.4508 290.5891
v -4090.9852 1310.5719 292.8920
f 433 434 435
v -4086.3352 1310.4508 290.5891
v -4088.8411 1311.5816 290.6133
v -4090.9852 1310.5719 292.8920
f 436 437 438
v -4090.8025 1310.4843 292.8962
v -4091.2519 1309.5379 294.2131
v -4086.2297 1309.3908 291.7444
f 439 440 441
v -4090.1109 1312.3309 290.4243
v -4088.8411 1311.5816 290.6133
v -4088.7807 1311.7104 290.4343
f 442 443 444
v -4090.9852 1310.5719 292.8920
v -4088.8411 1311.5816 290.6133
v -4090.1109 1312.3309 290.4243
f 445 446 447
v -4090.1408 1306.5076 297.0903
v -4086.2297 1309.3908 291.7444
v -4091.2519 1309.5379 294.2131
f 448 449 450
v -4075.2025 1299.6315 297.1012
v -4079.2340 1304.2416 293.9529
v -4081.5114 1303.4832 296.0145
f 451 452 453
v -4086.2297 1309.3908 291.7444
v -4085.7793 1310.3673 290.3925
v -4090.8025 1310.4843 292.8962
f 454 455 456
v -4081.5114 1303.4832 296.0145
v -4084.3608 1304.7948 296.0124
v -4090.1408 1306.5076 297.0903
f 457 458 459
v -4075.2025 1299.6315 297.1012
v -4072.6442 1305.0429 289.5800
v -4079.2340 1304.2416 293.9529
f 460 461 462
v -4076.8005 1305.0505 291.7513
v -4079.2340 1304.2416 293.9529
v -4072.6442 1305.0429 289.5800
f 463 464 465
v -4076.8005 1305.0505 291.7513
v -4072.6442 1305.0429 289.5800
v -4076.0759 1306.6221 289.5775
f 466 467 468
v -4081.5114 1303.4832 296.0145
v -4090.1408 1306.5076 297.0903
v -4075.2025 1299.6315 297.1012
f 469 470 471
v -4086.3352 1310.4508 290.5891
v -4090.8025 1310.4843 292.8962
v -4085.7793 1310.3673 290.3925
f 472 473 474
v -4085.7793 1310.3673 290.3925
v -4086.2737 1310.5846 290.4042
v -4086.3352 1310.4508 290.5891
f 475 476 477
v -4084.3608 1304.7948 296.0124
v -4086.2297 1309.3908 291.7444
v -4090.1408 1306.5076 297.0903
f 478 479 480
v -4083.8617 1310.6540 276.4553
v -4082.2191 1314.3471 283.2113
v -4082.2148 1314.3455 276.4556
f 481 482 483
v -4083.9477 1310.6832 276.4552
v -4083.8660 1310.6555 283.2110
v -4083.8617 1310.6540 276.4553
f 484 485 486
v -4084.1136 1310.3216 276.4552
v -4083.9519 1310.6847 283.2109
v -4083.9477 1310.6832 276.4552
f 487 488 489
v -4082.2148 1314.3455 276.4556
v -4070.7575 1309.0333 283.2197
v -4070.7533 1309.0318 276.4640
f 490 491 492
v -4093.3370 1302.2817 290.5833
v -4094.0281 1304.1730 292.3794
v -4094.0255 1304.1720 288.2896
f 493 494 495
v -4090.9746 1310.5679 276.0218
v -4090.7945 1310.4815 280.2407
v -4090.9852 1310.5719 292.8920
f 496 497 498
v -4088.7807 1311.7104 290.4343
v -4088.8411 1311.5816 290.6133
v -4088.8319 1311.5782 276.0229
f 499 500 501
v -4077.2128 1307.1440 293.2216
v -4076.0759 1306.6221 289.5775
v -4084.8450 1310.6576 289.5711
f 502 503 504
v -4084.8450 1310.6576 289.5711
v -4077.2066 1307.1417 283.2160
v -4084.1179 1310.3232 283.2109
f 505 506 507
v -4076.0759 1306.6221 289.5775
v -4072.6402 1305.0414 283.2193
v -4076.0720 1306.6207 283.2168
f 508 509 510
v -4072.6360 1305.0398 276.4636
v -4070.7575 1309.0333 283.2197
v -4072.6402 1305.0414 283.2193
f 511 512 513
v -4075.1893 1299.6267 276.0341
v -4077.3537 1295.0599 290.7490
v -4077.3445 1295.0566 276.0336
f 514 515 516
