# Grid Center: 2612200, 1263800
# Global Anchor: 7.64977475454284, 47.53283995868075, 0.0

g building_ID_8C386B3B-B9CB-4240-BF71-3535C5F5A93D
v -3499.9908 -1090.3197 292.8359
v -3500.1023 -1090.8694 292.8357
v -3498.4003 -1091.2120 292.8366
f 1 2 3
v -3496.1168 -1079.8672 292.8398
v -3499.9908 -1090.3197 292.8359
v -3498.4003 -1091.2120 292.8366
f 4 5 6
v -3499.9908 -1090.3197 292.8359
v -3504.7858 -1088.0739 292.8336
v -3505.0330 -1089.2972 292.8333
f 7 8 9
v -3507.9032 -1081.1635 292.8331
v -3509.1244 -1087.1952 292.8314
v -3504.7858 -1088.0739 292.8336
f 10 11 12
v -3504.7858 -1088.0739 292.8336
v -3499.9908 -1090.3197 292.8359
v -3496.1168 -1079.8672 292.8398
f 13 14 15
v -3493.8434 -1068.5473 292.8429
v -3507.1796 -1077.5895 292.8341
v -3496.1168 -1079.8672 292.8398
f 16 17 18
v -3504.8994 -1066.3237 292.8373
v -3507.1796 -1077.5895 292.8341
v -3493.8434 -1068.5473 292.8429
f 19 20 21
v -3507.9082 -1077.4425 292.8337
v -3508.6268 -1081.0176 292.8327
v -3507.9032 -1081.1635 292.8331
f 22 23 24
v -3507.9032 -1081.1635 292.8331
v -3507.1796 -1077.5895 292.8341
v -3507.9082 -1077.4425 292.8337
f 25 26 27
v -3507.9032 -1081.1635 292.8331
v -3504.7858 -1088.0739 292.8336
v -3507.1796 -1077.5895 292.8341
f 28 29 30
v -3496.1168 -1079.8672 292.8398
v -3507.1796 -1077.5895 292.8341
v -3504.7858 -1088.0739 292.8336
f 31 32 33
v -3507.1765 -1077.5886 287.1164
v -3507.1796 -1077.5895 292.8341
v -3504.8994 -1066.3237 292.8373
f 34 35 36
v -3507.9051 -1077.4417 287.1160
v -3507.9082 -1077.4425 292.8337
v -3507.1796 -1077.5895 292.8341
f 37 38 39
v -3508.6237 -1081.0167 287.1150
v -3508.6268 -1081.0176 292.8327
v -3507.9082 -1077.4425 292.8337
f 40 41 42
v -3507.9001 -1081.1627 287.1154
v -3507.9032 -1081.1635 292.8331
v -3508.6268 -1081.0176 292.8327
f 43 44 45
v -3509.1213 -1087.1944 287.1136
v -3509.1244 -1087.1952 292.8314
v -3507.9032 -1081.1635 292.8331
f 46 47 48
v -3504.7827 -1088.0730 287.1158
v -3504.7858 -1088.0739 292.8336
v -3509.1244 -1087.1952 292.8314
f 49 50 51
v -3505.0300 -1089.2963 287.1155
v -3505.0330 -1089.2972 292.8333
v -3504.7858 -1088.0739 292.8336
f 52 53 54
v -3499.9878 -1090.3188 287.1181
v -3499.9908 -1090.3197 292.8359
v -3505.0330 -1089.2972 292.8333
f 55 56 57
v -3500.0993 -1090.8686 287.1179
v -3500.1023 -1090.8694 292.8357
v -3499.9908 -1090.3197 292.8359
f 58 59 60
v -3498.3972 -1091.2111 287.1188
v -3498.4003 -1091.2120 292.8366
v -3500.1023 -1090.8694 292.8357
f 61 62 63
v -3504.8963 -1066.3229 287.1196
v -3504.8994 -1066.3237 292.8373
v -3493.8434 -1068.5473 292.8429
f 64 65 66
v -3507.1765 -1077.5886 287.1164
v -3504.8963 -1066.3229 287.1196
v -3493.8404 -1068.5466 287.1252
f 67 68 69
v -3496.1137 -1079.8663 287.1221
v -3507.1765 -1077.5886 287.1164
v -3493.8404 -1068.5466 287.1252
f 70 71 72
v -3507.9001 -1081.1627 287.1154
v -3508.6237 -1081.0167 287.1150
v -3507.9051 -1077.4417 287.1160
f 73 74 75
v -3507.9051 -1077.4417 287.1160
v -3507.1765 -1077.5886 287.1164
v -3507.9001 -1081.1627 287.1154
f 76 77 78
v -3504.7827 -1088.0730 287.1158
v -3507.1765 -1077.5886 287.1164
v -3496.1137 -1079.8663 287.1221
f 79 80 81
v -3500.0993 -1090.8686 287.1179
v -3499.9878 -1090.3188 287.1181
v -3498.3972 -1091.2111 287.1188
f 82 83 84
v -3499.9878 -1090.3188 287.1181
v -3504.7827 -1088.0730 287.1158
v -3496.1137 -1079.8663 287.1221
f 85 86 87
v -3504.7827 -1088.0730 287.1158
v -3509.1213 -1087.1944 287.1136
v -3507.9001 -1081.1627 287.1154
f 88 89 90
v -3499.9878 -1090.3188 287.1181
v -3505.0300 -1089.2963 287.1155
v -3504.7827 -1088.0730 287.1158
f 91 92 93
v -3507.9001 -1081.1627 287.1154
v -3507.1765 -1077.5886 287.1164
v -3504.7827 -1088.0730 287.1158
f 94 95 96
v -3498.3972 -1091.2111 287.1188
v -3499.9878 -1090.3188 287.1181
v -3496.1137 -1079.8663 287.1221
f 97 98 99
v -3496.1137 -1079.8663 287.1221
v -3493.8404 -1068.5466 287.1252
v -3493.8434 -1068.5473 292.8429
f 100 101 102
v -3496.1168 -1079.8672 292.8398
v -3498.4003 -1091.2120 292.8366
v -3498.3972 -1091.2111 287.1188
f 103 104 105
v -3507.1765 -1077.5886 287.1164
v -3504.8994 -1066.3237 292.8373
v -3504.8963 -1066.3229 287.1196
f 106 107 108
v -3507.9051 -1077.4417 287.1160
v -3507.1796 -1077.5895 292.8341
v -3507.1765 -1077.5886 287.1164
f 109 110 111
v -3508.6237 -1081.0167 287.1150
v -3507.9082 -1077.4425 292.8337
v -3507.9051 -1077.4417 287.1160
f 112 113 114
v -3507.9001 -1081.1627 287.1154
v -3508.6268 -1081.0176 292.8327
v -3508.6237 -1081.0167 287.1150
f 115 116 117
v -3509.1213 -1087.1944 287.1136
v -3507.9032 -1081.1635 292.8331
v -3507.9001 -1081.1627 287.1154
f 118 119 120
v -3504.7827 -1088.0730 287.1158
v -3509.1244 -1087.1952 292.8314
v -3509.1213 -1087.1944 287.1136
f 121 122 123
v -3505.0300 -1089.2963 287.1155
v -3504.7858 -1088.0739 292.8336
v -3504.7827 -1088.0730 287.1158
f 124 125 126
v -3499.9878 -1090.3188 287.1181
v -3505.0330 -1089.2972 292.8333
v -3505.0300 -1089.2963 287.1155
f 127 128 129
v -3500.0993 -1090.8686 287.1179
v -3499.9908 -1090.3197 292.8359
v -3499.9878 -1090.3188 287.1181
f 130 131 132
v -3498.3972 -1091.2111 287.1188
v -3500.1023 -1090.8694 292.8357
v -3500.0993 -1090.8686 287.1179
f 133 134 135
v -3504.8963 -1066.3229 287.1196
v -3493.8434 -1068.5473 292.8429
v -3493.8404 -1068.5466 287.1252
f 136 137 138
v -3496.1137 -1079.8663 287.1221
v -3493.8434 -1068.5473 292.8429
v -3496.1168 -1079.8672 292.8398
f 139 140 141
v -3496.1168 -1079.8672 292.8398
v -3498.3972 -1091.2111 287.1188
v -3496.1137 -1079.8663 287.1221
f 142 143 144
