# Grid Center: 2613400, 1266200
# Global Anchor: 7.64977475454284, 47.53283995868075, 0.0

g building_ID_01C74B10-2080-42CF-8268-F328F2359511
v -2333.1647 1296.7672 257.7759
v -2333.0709 1293.3310 257.7766
v -2345.9896 1293.0057 257.7719
f 1 2 3
v -2333.4235 1306.1638 257.7739
v -2332.4027 1296.7882 257.7761
v -2333.1647 1296.7672 257.7759
f 4 5 6
v -2333.1647 1296.7672 257.7759
v -2345.9896 1293.0057 257.7719
v -2346.4689 1309.2787 257.7684
f 7 8 9
v -2333.5174 1309.5770 257.7731
v -2333.4235 1306.1638 257.7739
v -2346.4689 1309.2787 257.7684
f 10 11 12
v -2333.1647 1296.7672 257.7759
v -2346.4689 1309.2787 257.7684
v -2333.4235 1306.1638 257.7739
f 13 14 15
v -2332.4027 1296.7882 257.7761
v -2333.4235 1306.1638 257.7739
v -2332.6795 1306.1848 257.7741
f 16 17 18
v -2333.5270 1309.5833 285.1341
v -2346.4786 1309.2850 285.1294
v -2333.4332 1306.1700 285.1349
f 19 20 21
v -2345.9993 1293.0119 285.1329
v -2333.4332 1306.1700 285.1349
v -2346.4786 1309.2850 285.1294
f 22 23 24
v -2332.6891 1306.1911 285.1351
v -2333.4332 1306.1700 285.1349
v -2333.1744 1296.7735 285.1369
f 25 26 27
v -2333.1744 1296.7735 285.1369
v -2345.9993 1293.0119 285.1329
v -2333.0806 1293.3372 285.1376
f 28 29 30
v -2332.6891 1306.1911 285.1351
v -2333.1744 1296.7735 285.1369
v -2332.4123 1296.7944 285.1371
f 31 32 33
v -2333.4332 1306.1700 285.1349
v -2345.9993 1293.0119 285.1329
v -2333.1744 1296.7735 285.1369
f 34 35 36
v -2333.1647 1296.7672 257.7759
v -2333.1744 1296.7735 285.1369
v -2333.0806 1293.3372 285.1376
f 37 38 39
v -2332.4027 1296.7882 257.7761
v -2332.4123 1296.7944 285.1371
v -2333.1744 1296.7735 285.1369
f 40 41 42
v -2332.6795 1306.1848 257.7741
v -2332.6891 1306.1911 285.1351
v -2332.4123 1296.7944 285.1371
f 43 44 45
v -2333.4235 1306.1638 257.7739
v -2333.4332 1306.1700 285.1349
v -2332.6891 1306.1911 285.1351
f 46 47 48
v -2333.5174 1309.5770 257.7731
v -2333.5270 1309.5833 285.1341
v -2333.4332 1306.1700 285.1349
f 49 50 51
v -2346.4689 1309.2787 257.7684
v -2346.4786 1309.2850 285.1294
v -2333.5270 1309.5833 285.1341
f 52 53 54
v -2345.9896 1293.0057 257.7719
v -2345.9993 1293.0119 285.1329
v -2346.4786 1309.2850 285.1294
f 55 56 57
v -2333.0709 1293.3310 257.7766
v -2333.0806 1293.3372 285.1376
v -2345.9993 1293.0119 285.1329
f 58 59 60
v -2333.1647 1296.7672 257.7759
v -2333.0806 1293.3372 285.1376
v -2333.0709 1293.3310 257.7766
f 61 62 63
v -2332.4027 1296.7882 257.7761
v -2333.1744 1296.7735 285.1369
v -2333.1647 1296.7672 257.7759
f 64 65 66
v -2332.6795 1306.1848 257.7741
v -2332.4123 1296.7944 285.1371
v -2332.4027 1296.7882 257.7761
f 67 68 69
v -2333.4235 1306.1638 257.7739
v -2332.6891 1306.1911 285.1351
v -2332.6795 1306.1848 257.7741
f 70 71 72
v -2333.5174 1309.5770 257.7731
v -2333.4332 1306.1700 285.1349
v -2333.4235 1306.1638 257.7739
f 73 74 75
v -2346.4689 1309.2787 257.7684
v -2333.5270 1309.5833 285.1341
v -2333.5174 1309.5770 257.7731
f 76 77 78
v -2345.9896 1293.0057 257.7719
v -2346.4786 1309.2850 285.1294
v -2346.4689 1309.2787 257.7684
f 79 80 81
v -2333.0709 1293.3310 257.7766
v -2345.9993 1293.0119 285.1329
v -2345.9896 1293.0057 257.7719
f 82 83 84

g building_ID_DA8EAEA5-A3A3-423E-9617-CA3CAF3D76A5
v -2289.9034 1281.2369 255.4268
v -2299.0269 1280.2203 255.4237
v -2290.8917 1290.0333 255.4246
f 85 86 87
v -2292.2129 1301.8847 255.4217
v -2288.2879 1293.3273 255.4249
v -2290.8917 1290.0333 255.4246
f 88 89 90
v -2288.2879 1293.3273 255.4249
v -2287.9548 1290.3645 255.4256
v -2290.8917 1290.0333 255.4246
f 91 92 93
v -2302.3158 1309.6426 255.4165
v -2290.8917 1290.0333 255.4246
v -2299.0269 1280.2203 255.4237
f 94 95 96
v -2292.2157 1301.9617 255.4217
v -2302.3158 1309.6426 255.4165
v -2293.2002 1310.6802 255.4196
f 97 98 99
v -2302.3158 1309.6426 255.4165
v -2292.2157 1301.9617 255.4217
v -2292.2129 1301.8847 255.4217
f 100 101 102
v -2288.2879 1293.3273 255.4249
v -2292.2129 1301.8847 255.4217
v -2289.2810 1302.2137 255.4227
f 103 104 105
v -2290.8917 1290.0333 255.4246
v -2302.3158 1309.6426 255.4165
v -2292.2129 1301.8847 255.4217
f 106 107 108
v -2292.2181 1301.9633 262.5745
v -2302.3183 1309.6443 262.5693
v -2292.2153 1301.8863 262.5745
f 109 110 111
v -2290.8942 1290.0350 262.5774
v -2292.2153 1301.8863 262.5745
v -2302.3183 1309.6443 262.5693
f 112 113 114
v -2302.3183 1309.6443 262.5693
v -2292.2181 1301.9633 262.5745
v -2293.2027 1310.6818 262.5724
f 115 116 117
v -2289.2835 1302.2154 262.5755
v -2292.2153 1301.8863 262.5745
v -2288.2904 1293.3289 262.5777
f 118 119 120
v -2290.8942 1290.0350 262.5774
v -2299.0294 1280.2220 262.5764
v -2289.9058 1281.2384 262.5796
f 121 122 123
v -2287.9573 1290.3660 262.5784
v -2288.2904 1293.3289 262.5777
v -2290.8942 1290.0350 262.5774
f 124 125 126
v -2290.8942 1290.0350 262.5774
v -2288.2904 1293.3289 262.5777
v -2292.2153 1301.8863 262.5745
f 127 128 129
v -2299.0294 1280.2220 262.5764
v -2290.8942 1290.0350 262.5774
v -2302.3183 1309.6443 262.5693
f 130 131 132
v -2299.0269 1280.2203 255.4237
v -2299.0294 1280.2220 262.5764
v -2302.3183 1309.6443 262.5693
f 133 134 135
v -2289.9034 1281.2369 255.4268
v -2289.9058 1281.2384 262.5796
v -2299.0294 1280.2220 262.5764
f 136 137 138
v -2290.8917 1290.0333 255.4246
v -2290.8942 1290.0350 262.5774
v -2289.9058 1281.2384 262.5796
f 139 140 141
v -2287.9548 1290.3645 255.4256
v -2287.9573 1290.3660 262.5784
v -2290.8942 1290.0350 262.5774
f 142 143 144
v -2292.2129 1301.8847 255.4217
v -2292.2153 1301.8863 262.5745
v -2289.2835 1302.2154 262.5755
f 145 146 147
v -2292.2157 1301.9617 255.4217
v -2292.2181 1301.9633 262.5745
v -2292.2153 1301.8863 262.5745
f 148 149 150
v -2293.2002 1310.6802 255.4196
v -2293.2027 1310.6818 262.5724
v -2292.2181 1301.9633 262.5745
f 151 152 153
v -2302.3158 1309.6426 255.4165
v -2302.3183 1309.6443 262.5693
v -2293.2027 1310.6818 262.5724
f 154 155 156
v -2288.2879 1293.3273 255.4249
v -2289.2810 1302.2137 255.4227
v -2289.2835 1302.2154 262.5755
f 157 158 159
v -2288.2904 1293.3289 262.5777
v -2287.9573 1290.3660 262.5784
v -2287.9548 1290.3645 255.4256
f 160 161 162
v -2299.0269 1280.2203 255.4237
v -2302.3183 1309.6443 262.5693
v -2302.3158 1309.6426 255.4165
f 163 164 165
v -2289.9034 1281.2369 255.4268
v -2299.0294 1280.2220 262.5764
v -2299.0269 1280.2203 255.4237
f 166 167 168
v -2290.8917 1290.0333 255.4246
v -2289.9058 1281.2384 262.5796
v -2289.9034 1281.2369 255.4268
f 169 170 171
v -2287.9548 1290.3645 255.4256
v -2290.8942 1290.0350 262.5774
v -2290.8917 1290.0333 255.4246
f 172 173 174
v -2292.2129 1301.8847 255.4217
v -2289.2835 1302.2154 262.5755
v -2289.2810 1302.2137 255.4227
f 175 176 177
v -2292.2157 1301.9617 255.4217
v -2292.2153 1301.8863 262.5745
v -2292.2129 1301.8847 255.4217
f 178 179 180
v -2293.2002 1310.6802 255.4196
v -2292.2181 1301.9633 262.5745
v -2292.2157 1301.9617 255.4217
f 181 182 183
v -2302.3158 1309.6426 255.4165
v -2293.2027 1310.6818 262.5724
v -2293.2002 1310.6802 255.4196
f 184 185 186
v -2288.2879 1293.3273 255.4249
v -2289.2835 1302.2154 262.5755
v -2288.2904 1293.3289 262.5777
f 187 188 189
v -2288.2904 1293.3289 262.5777
v -2287.9548 1290.3645 255.4256
v -2288.2879 1293.3273 255.4249
f 190 191 192
