# Grid Center: 2613200, 1266200
# Global Anchor: 7.64977475454284, 47.53283995868075, 0.0

g building_ID_E648C201-8AAE-42F4-9505-0B44963C1266
v -2864.0493 1285.6228 270.5432
v -2862.5267 1310.7833 270.5388
v -2858.1946 1309.7327 270.5409
f 1 2 3
v -2862.5267 1310.7833 270.5388
v -2864.0493 1285.6228 270.5432
v -2868.4093 1286.6965 270.5411
f 4 5 6
v -2858.1977 1309.7343 277.4657
v -2868.4124 1286.6980 277.4658
v -2864.0523 1285.6244 277.4679
f 7 8 9
v -2868.4124 1286.6980 277.4658
v -2858.1977 1309.7343 277.4657
v -2862.5298 1310.7850 277.4636
f 10 11 12
v -2862.5267 1310.7833 270.5388
v -2862.5298 1310.7850 277.4636
v -2858.1977 1309.7343 277.4657
f 13 14 15
v -2868.4093 1286.6965 270.5411
v -2868.4124 1286.6980 277.4658
v -2862.5298 1310.7850 277.4636
f 16 17 18
v -2864.0493 1285.6228 270.5432
v -2864.0523 1285.6244 277.4679
v -2868.4124 1286.6980 277.4658
f 19 20 21
v -2858.1946 1309.7327 270.5409
v -2858.1977 1309.7343 277.4657
v -2864.0523 1285.6244 277.4679
f 22 23 24
v -2862.5267 1310.7833 270.5388
v -2858.1977 1309.7343 277.4657
v -2858.1946 1309.7327 270.5409
f 25 26 27
v -2868.4093 1286.6965 270.5411
v -2862.5298 1310.7850 277.4636
v -2862.5267 1310.7833 270.5388
f 28 29 30
v -2864.0493 1285.6228 270.5432
v -2868.4124 1286.6980 277.4658
v -2868.4093 1286.6965 270.5411
f 31 32 33
v -2858.1946 1309.7327 270.5409
v -2864.0523 1285.6244 277.4679
v -2864.0493 1285.6228 270.5432
f 34 35 36
