# Grid Center: 2613000, 1266200
# Global Anchor: 7.64977475454284, 47.53283995868075, 0.0

g building_ID_A3CE6CC4-7913-4331-999A-0E77AA3616BA
v -2923.9732 1325.4032 292.1931
v -2924.9378 1321.4338 292.1935
v -2922.0287 1323.4636 290.4255
f 1 2 3
v -2921.3211 1324.7576 290.1376
v -2923.9732 1325.4032 292.1931
v -2922.0287 1323.4636 290.4255
f 4 5 6
v -2921.6578 1323.3735 290.1377
v -2921.3211 1324.7576 290.1376
v -2922.0287 1323.4636 290.4255
f 7 8 9
v -2926.9454 1324.6577 290.4230
v -2923.9732 1325.4032 292.1931
v -2927.1142 1326.1671 290.0837
f 10 11 12
v -2926.9454 1324.6577 290.4230
v -2927.1142 1326.1671 290.0837
v -2927.4509 1324.7810 290.0838
f 13 14 15
v -2923.9732 1325.4032 292.1931
v -2926.9454 1324.6577 290.4230
v -2924.9378 1321.4338 292.1935
f 16 17 18
v -2921.3199 1324.7569 287.3387
v -2921.3211 1324.7576 290.1376
v -2921.6578 1323.3735 290.1377
f 19 20 21
v -2921.3199 1324.7569 287.3387
v -2921.6578 1323.3735 290.1377
v -2921.6569 1323.3731 288.1357
f 22 23 24
v -2927.4500 1324.7806 288.1328
v -2927.4509 1324.7810 290.0838
v -2927.1142 1326.1671 290.0837
f 25 26 27
v -2927.1130 1326.1665 287.3348
v -2927.4500 1324.7806 288.1328
v -2927.1142 1326.1671 290.0837
f 28 29 30
v -2932.4206 1327.9708 270.6485
v -2914.9842 1323.7270 270.6574
v -2921.0500 1298.8158 270.6598
f 31 32 33
v -2923.5896 1285.9388 270.6612
v -2921.0500 1298.8158 270.6598
v -2920.4774 1298.6752 270.6600
f 34 35 36
v -2921.0500 1298.8158 270.6598
v -2938.4690 1303.2195 270.6509
v -2932.4206 1327.9708 270.6485
f 37 38 39
v -2921.0500 1298.8158 270.6598
v -2923.5896 1285.9388 270.6612
v -2924.1722 1286.0813 270.6609
f 40 41 42
v -2921.0500 1298.8158 270.6598
v -2924.1722 1286.0813 270.6609
v -2940.6360 1270.0617 270.6565
f 43 44 45
v -2940.6360 1270.0617 270.6565
v -2938.4690 1303.2195 270.6509
v -2921.0500 1298.8158 270.6598
f 46 47 48
v -2942.9821 1290.5097 270.6514
v -2939.8100 1303.5670 270.6502
v -2938.4690 1303.2195 270.6509
f 49 50 51
v -2938.4690 1303.2195 270.6509
v -2941.6399 1290.2002 270.6521
v -2942.9821 1290.5097 270.6514
f 52 53 54
v -2940.6360 1270.0617 270.6565
v -2941.6399 1290.2002 270.6521
v -2938.4690 1303.2195 270.6509
f 55 56 57
v -2934.7039 1268.6209 270.6595
v -2926.6991 1275.6902 270.6617
v -2930.2361 1261.1439 270.6630
f 58 59 60
v -2924.1722 1286.0813 270.6609
v -2934.7039 1268.6209 270.6595
v -2940.6360 1270.0617 270.6565
f 61 62 63
v -2936.0458 1263.0905 270.6600
v -2934.7039 1268.6209 270.6595
v -2930.2361 1261.1439 270.6630
f 64 65 66
v -2941.9747 1264.5515 270.6570
v -2936.0458 1263.0905 270.6600
v -2947.7063 1265.4488 270.6541
f 67 68 69
v -2947.7063 1265.4488 270.6541
v -2936.0458 1263.0905 270.6600
v -2930.2361 1261.1439 270.6630
f 70 71 72
v -2947.7063 1265.4488 270.6541
v -2940.6360 1270.0617 270.6565
v -2941.9747 1264.5515 270.6570
f 73 74 75
v -2940.6360 1270.0617 270.6565
v -2947.7063 1265.4488 270.6541
v -2941.6399 1290.2002 270.6521
f 76 77 78
v -2934.7039 1268.6209 270.6595
v -2924.1722 1286.0813 270.6609
v -2926.6991 1275.6902 270.6617
f 79 80 81
v -2947.6782 1265.5974 287.0295
v -2947.7136 1265.4524 286.9455
v -2943.3465 1264.3767 286.9398
f 82 83 84
v -2945.2216 1267.1800 288.2153
v -2947.6782 1265.5974 287.0295
v -2945.2266 1267.1600 288.2033
f 85 86 87
v -2947.6782 1265.5974 287.0295
v -2941.9822 1264.5552 287.2173
v -2945.2266 1267.1600 288.2033
f 88 89 90
v -2941.9822 1264.5552 287.2173
v -2947.6782 1265.5974 287.0295
v -2943.3465 1264.3767 286.9398
f 91 92 93
v -2941.9822 1264.5552 287.2173
v -2937.1347 1262.8461 286.9309
v -2939.1811 1263.8646 287.2138
f 94 95 96
v -2937.1347 1262.8461 286.9309
v -2941.9822 1264.5552 287.2173
v -2943.3465 1264.3767 286.9398
f 97 98 99
v -2941.5660 1266.2712 288.2052
v -2945.2266 1267.1600 288.2033
v -2941.9822 1264.5552 287.2173
f 100 101 102
v -2937.1347 1262.8461 286.9309
v -2936.0532 1263.0942 287.2094
v -2939.1811 1263.8646 287.2138
f 103 104 105
v -2936.0532 1263.0942 287.2094
v -2937.1347 1262.8461 286.9309
v -2930.2434 1261.1476 286.9224
f 106 107 108
v -2936.0532 1263.0942 287.2094
v -2930.2434 1261.1476 286.9224
v -2935.6329 1264.8303 288.2092
f 109 110 111
v -2930.2434 1261.1476 286.9224
v -2932.1313 1263.9799 288.2110
v -2935.6329 1264.8303 288.2092
f 112 113 114
v -2930.2434 1261.1476 286.9224
v -2932.0536 1264.2987 288.3940
v -2932.1313 1263.9799 288.2110
f 115 116 117
v -2932.0536 1264.2987 288.3940
v -2930.2434 1261.1476 286.9224
v -2928.7559 1267.2625 286.9219
f 118 119 120
v -2926.6891 1275.7658 286.9201
v -2932.0536 1264.2987 288.3940
v -2928.7559 1267.2625 286.9219
f 121 122 123
v -2932.0536 1264.2987 288.3940
v -2926.6891 1275.7658 286.9201
v -2924.1794 1286.0850 286.9182
f 124 125 126
v -2924.1794 1286.0850 286.9182
v -2915.2784 1323.8006 287.0637
v -2932.0536 1264.2987 288.3940
f 127 128 129
v -2920.4845 1298.6789 286.5534
v -2924.1794 1286.0850 286.9182
v -2923.5967 1285.9423 286.5656
f 130 131 132
v -2920.4845 1298.6789 286.5534
v -2921.0573 1298.8194 286.9002
v -2924.1794 1286.0850 286.9182
f 133 134 135
v -2915.2784 1323.8006 287.0637
v -2918.0287 1322.0284 288.3897
v -2932.0536 1264.2987 288.3940
f 136 137 138
v -2914.9914 1323.7308 286.8898
v -2915.2784 1323.8006 287.0637
v -2921.0573 1298.8194 286.9002
f 139 140 141
v -2921.0573 1298.8194 286.9002
v -2915.2784 1323.8006 287.0637
v -2924.1794 1286.0850 286.9182
f 142 143 144
v -2941.2401 1290.6418 287.2295
v -2947.6782 1265.5974 287.0295
v -2945.2216 1267.1800 288.2153
f 145 146 147
v -2941.6472 1290.2039 287.0574
v -2947.6782 1265.5974 287.0295
v -2941.2401 1290.6418 287.2295
f 148 149 150
v -2939.6177 1290.2477 288.2133
v -2941.2401 1290.6418 287.2295
v -2945.2216 1267.1800 288.2153
f 151 152 153
v -2942.8626 1291.0359 286.2457
v -2941.6472 1290.2039 287.0574
v -2941.2401 1290.6418 287.2295
f 154 155 156
v -2942.9890 1290.5133 286.2458
v -2941.6472 1290.2039 287.0574
v -2942.8626 1291.0359 286.2457
f 157 158 159
v -2930.2361 1261.1439 270.6630
v -2930.2434 1261.1476 286.9224
v -2937.1347 1262.8461 286.9309
f 160 161 162
v -2947.7063 1265.4488 270.6541
v -2930.2361 1261.1439 270.6630
v -2937.1347 1262.8461 286.9309
f 163 164 165
v -2947.7136 1265.4524 286.9455
v -2947.7118 1265.4516 282.8727
v -2943.3465 1264.3767 286.9398
f 166 167 168
v -2947.7118 1265.4516 282.8727
v -2947.7099 1265.4507 278.7998
v -2937.1347 1262.8461 286.9309
f 169 170 171
v -2937.1347 1262.8461 286.9309
v -2947.7081 1265.4497 274.7270
v -2947.7063 1265.4488 270.6541
f 172 173 174
v -2947.7099 1265.4507 278.7998
v -2947.7081 1265.4497 274.7270
v -2937.1347 1262.8461 286.9309
f 175 176 177
v -2921.0500 1298.8158 270.6598
v -2920.4845 1298.6789 286.5534
v -2920.4774 1298.6752 270.6600
f 178 179 180
v -2914.9887 1323.7295 280.8000
v -2914.9914 1323.7308 286.8898
v -2921.0573 1298.8194 286.9002
f 181 182 183
v -2914.9842 1323.7270 270.6574
v -2914.9887 1323.7295 280.8000
v -2921.0573 1298.8194 286.9002
f 184 185 186
v -2914.9842 1323.7270 270.6574
v -2921.0573 1298.8194 286.9002
v -2921.0500 1298.8158 270.6598
f 187 188 189
v -2928.1544 1269.7174 275.7431
v -2926.6991 1275.6902 270.6617
v -2926.6891 1275.7658 286.9201
f 190 191 192
v -2926.6891 1275.7658 286.9201
v -2926.6991 1275.6902 270.6617
v -2924.1722 1286.0813 270.6609
f 193 194 195
v -2930.2361 1261.1439 270.6630
v -2928.1544 1269.7174 275.7431
v -2928.7559 1267.2625 286.9219
f 196 197 198
v -2928.1544 1269.7174 275.7431
v -2930.2361 1261.1439 270.6630
v -2926.6991 1275.6902 270.6617
f 199 200 201
v -2924.1722 1286.0813 270.6609
v -2923.5967 1285.9423 286.5656
v -2924.1794 1286.0850 286.9182
f 202 203 204
v -2923.5896 1285.9388 270.6612
v -2923.5967 1285.9423 286.5656
v -2924.1722 1286.0813 270.6609
f 205 206 207
v -2923.5967 1285.9423 286.5656
v -2920.4774 1298.6752 270.6600
v -2920.4845 1298.6789 286.5534
f 208 209 210
v -2920.4774 1298.6752 270.6600
v -2923.5967 1285.9423 286.5656
v -2923.5896 1285.9388 270.6612
f 211 212 213
v -2938.4763 1303.2232 287.0613
v -2938.4690 1303.2195 270.6509
v -2939.8170 1303.5706 286.2446
f 214 215 216
v -2939.8100 1303.5670 270.6502
v -2939.8170 1303.5706 286.2446
v -2938.4690 1303.2195 270.6509
f 217 218 219
v -2942.8626 1291.0359 286.2457
v -2942.9821 1290.5097 270.6514
v -2942.9890 1290.5133 286.2458
f 220 221 222
v -2939.8170 1303.5706 286.2446
v -2939.8100 1303.5670 270.6502
v -2939.9272 1303.1179 286.2446
f 223 224 225
v -2939.8100 1303.5670 270.6502
v -2939.9207 1303.1146 271.7381
v -2939.9272 1303.1179 286.2446
f 226 227 228
v -2942.8561 1291.0327 271.7392
v -2939.9207 1303.1146 271.7381
v -2939.8100 1303.5670 270.6502
f 229 230 231
v -2942.9821 1290.5097 270.6514
v -2942.8561 1291.0327 271.7392
v -2939.8100 1303.5670 270.6502
f 232 233 234
v -2941.6417 1290.2011 274.7539
v -2941.6472 1290.2039 287.0574
v -2942.9821 1290.5097 270.6514
f 235 236 237
v -2941.6399 1290.2002 270.6521
v -2941.6417 1290.2011 274.7539
v -2942.9821 1290.5097 270.6514
f 238 239 240
v -2921.3199 1324.7569 287.3387
v -2917.9223 1322.4660 288.1376
v -2915.2784 1323.8006 287.0637
f 241 242 243
v -2918.0287 1322.0284 288.3897
v -2915.2784 1323.8006 287.0637
v -2917.9223 1322.4660 288.1376
f 244 245 246
v -2921.3199 1324.7569 287.3387
v -2915.2784 1323.8006 287.0637
v -2932.4279 1327.9747 287.0499
f 247 248 249
v -2921.3199 1324.7569 287.3387
v -2921.6569 1323.3731 288.1357
v -2917.9223 1322.4660 288.1376
f 250 251 252
v -2921.3199 1324.7569 287.3387
v -2932.4401 1327.9247 287.0789
v -2927.1130 1326.1665 287.3348
f 253 254 255
v -2927.1130 1326.1665 287.3348
v -2932.4401 1327.9247 287.0789
v -2927.4500 1324.7806 288.1328
f 256 257 258
v -2932.4401 1327.9247 287.0789
v -2931.0187 1325.6472 288.1310
v -2927.4500 1324.7806 288.1328
f 259 260 261
v -2932.4279 1327.9747 287.0499
v -2932.4401 1327.9247 287.0789
v -2921.3199 1324.7569 287.3387
f 262 263 264
v -2931.0521 1325.5092 288.2100
v -2931.0187 1325.6472 288.1310
v -2932.4401 1327.9247 287.0789
f 265 266 267
v -2942.5124 1295.1353 292.4198
v -2942.1426 1295.0503 292.4230
v -2942.3466 1295.8569 292.8087
f 268 269 270
v -2943.0573 1291.0834 290.2834
v -2939.6186 1290.2481 290.2852
v -2939.5459 1290.5490 290.4482
f 271 272 273
v -2942.1426 1295.0503 292.4230
v -2933.8339 1295.1774 293.5217
v -2941.9758 1295.7710 292.8109
f 274 275 276
v -2942.3466 1295.8569 292.8087
v -2942.1426 1295.0503 292.4230
v -2941.9758 1295.7710 292.8109
f 277 278 279
v -2939.5459 1290.5490 290.4482
v -2942.1426 1295.0503 292.4230
v -2943.0573 1291.0834 290.2834
f 280 281 282
v -2939.5459 1290.5490 290.4482
v -2933.8339 1295.1774 293.5217
v -2942.1426 1295.0503 292.4230
f 283 284 285
v -2941.6737 1297.0814 293.5178
v -2941.9758 1295.7710 292.8109
v -2933.8339 1295.1774 293.5217
f 286 287 288
v -2940.2598 1303.1987 290.2733
v -2936.7621 1302.0064 290.4471
v -2936.6842 1302.3301 290.2751
f 289 290 291
v -2940.2598 1303.1987 290.2733
v -2941.1977 1299.1427 292.4246
v -2936.7621 1302.0064 290.4471
f 292 293 294
v -2933.8339 1295.1774 293.5217
v -2936.7621 1302.0064 290.4471
v -2941.6737 1297.0814 293.5178
f 295 296 297
v -2941.6737 1297.0814 293.5178
v -2936.7621 1302.0064 290.4471
v -2941.3637 1298.4213 292.8066
f 298 299 300
v -2941.1977 1299.1427 292.4246
v -2941.3637 1298.4213 292.8066
v -2936.7621 1302.0064 290.4471
f 301 302 303
v -2941.3637 1298.4213 292.8066
v -2941.5674 1299.2278 292.4264
v -2941.7345 1298.5073 292.8084
f 304 305 306
v -2941.5674 1299.2278 292.4264
v -2941.3637 1298.4213 292.8066
v -2941.1977 1299.1427 292.4246
f 307 308 309
v -2942.1426 1295.0503 292.4230
v -2943.0490 1291.0791 271.7391
v -2943.0573 1291.0834 290.2834
f 310 311 312
v -2943.0490 1291.0791 271.7391
v -2942.1426 1295.0503 292.4230
v -2942.1333 1295.0457 271.7388
f 313 314 315
v -2941.9758 1295.7710 292.8109
v -2942.3372 1295.8522 271.7385
v -2942.3466 1295.8569 292.8087
f 316 317 318
v -2942.3372 1295.8522 271.7385
v -2941.9758 1295.7710 292.8109
v -2941.9664 1295.7662 271.7387
f 319 320 321
v -2942.3466 1295.8569 292.8087
v -2942.5031 1295.1307 271.7386
v -2942.5124 1295.1353 292.4198
f 322 323 324
v -2942.3466 1295.8569 292.8087
v -2942.3372 1295.8522 271.7385
v -2942.5031 1295.1307 271.7386
f 325 326 327
v -2942.5124 1295.1353 292.4198
v -2942.1333 1295.0457 271.7388
v -2942.1426 1295.0503 292.4230
f 328 329 330
v -2942.1333 1295.0457 271.7388
v -2942.5124 1295.1353 292.4198
v -2942.5031 1295.1307 271.7386
f 331 332 333
v -2941.5581 1299.2231 271.7382
v -2941.1977 1299.1427 292.4246
v -2941.1884 1299.1381 271.7384
f 334 335 336
v -2941.5674 1299.2278 292.4264
v -2941.7251 1298.5025 271.7382
v -2941.7345 1298.5073 292.8084
f 337 338 339
v -2941.5674 1299.2278 292.4264
v -2941.5581 1299.2231 271.7382
v -2941.7251 1298.5025 271.7382
f 340 341 342
v -2941.3637 1298.4213 292.8066
v -2941.7345 1298.5073 292.8084
v -2941.7251 1298.5025 271.7382
f 343 344 345
v -2941.3543 1298.4166 271.7384
v -2941.3637 1298.4213 292.8066
v -2941.7251 1298.5025 271.7382
f 346 347 348
v -2932.4401 1327.9247 287.0789
v -2938.4763 1303.2232 287.0613
v -2938.3048 1302.7238 287.2284
f 349 350 351
v -2938.3048 1302.7238 287.2284
v -2938.4763 1303.2232 287.0613
v -2939.9272 1303.1179 286.2446
f 352 353 354
v -2939.9272 1303.1179 286.2446
v -2938.4763 1303.2232 287.0613
v -2939.8170 1303.5706 286.2446
f 355 356 357
v -2931.0521 1325.5092 288.2100
v -2938.3048 1302.7238 287.2284
v -2936.6833 1302.3297 288.2122
f 358 359 360
v -2931.0521 1325.5092 288.2100
v -2932.4401 1327.9247 287.0789
v -2938.3048 1302.7238 287.2284
f 361 362 363
v -2941.1884 1299.1381 271.7384
v -2939.9207 1303.1146 271.7381
v -2941.3543 1298.4166 271.7384
f 364 365 366
v -2941.7251 1298.5025 271.7382
v -2941.1884 1299.1381 271.7384
v -2941.3543 1298.4166 271.7384
f 367 368 369
v -2939.9207 1303.1146 271.7381
v -2941.1884 1299.1381 271.7384
v -2940.2515 1303.1945 271.7380
f 370 371 372
v -2941.5581 1299.2231 271.7382
v -2941.1884 1299.1381 271.7384
v -2941.7251 1298.5025 271.7382
f 373 374 375
v -2942.8561 1291.0327 271.7392
v -2943.0490 1291.0791 271.7391
v -2942.1333 1295.0457 271.7388
f 376 377 378
v -2942.8561 1291.0327 271.7392
v -2942.1333 1295.0457 271.7388
v -2941.9664 1295.7662 271.7387
f 379 380 381
v -2942.3372 1295.8522 271.7385
v -2941.9664 1295.7662 271.7387
v -2942.5031 1295.1307 271.7386
f 382 383 384
v -2941.9664 1295.7662 271.7387
v -2941.3543 1298.4166 271.7384
v -2939.9207 1303.1146 271.7381
f 385 386 387
v -2942.5031 1295.1307 271.7386
v -2941.9664 1295.7662 271.7387
v -2942.1333 1295.0457 271.7388
f 388 389 390
v -2942.8561 1291.0327 271.7392
v -2941.9664 1295.7662 271.7387
v -2939.9207 1303.1146 271.7381
f 391 392 393
v -2941.2401 1290.6418 287.2295
v -2939.6186 1290.2481 290.2852
v -2943.0573 1291.0834 290.2834
f 394 395 396
v -2939.6186 1290.2481 290.2852
v -2941.2401 1290.6418 287.2295
v -2939.6177 1290.2477 288.2133
f 397 398 399
v -2942.8626 1291.0359 286.2457
v -2941.2401 1290.6418 287.2295
v -2943.0573 1291.0834 290.2834
f 400 401 402
v -2943.0573 1291.0834 290.2834
v -2943.0490 1291.0791 271.7391
v -2942.8561 1291.0327 271.7392
f 403 404 405
v -2943.0573 1291.0834 290.2834
v -2942.8561 1291.0327 271.7392
v -2942.8626 1291.0359 286.2457
f 406 407 408
v -2939.9272 1303.1179 286.2446
v -2940.2515 1303.1945 271.7380
v -2940.2598 1303.1987 290.2733
f 409 410 411
v -2936.6833 1302.3297 288.2122
v -2940.2598 1303.1987 290.2733
v -2936.6842 1302.3301 290.2751
f 412 413 414
v -2940.2598 1303.1987 290.2733
v -2936.6833 1302.3297 288.2122
v -2938.3048 1302.7238 287.2284
f 415 416 417
v -2940.2515 1303.1945 271.7380
v -2939.9272 1303.1179 286.2446
v -2939.9207 1303.1146 271.7381
f 418 419 420
v -2940.2598 1303.1987 290.2733
v -2938.3048 1302.7238 287.2284
v -2939.9272 1303.1179 286.2446
f 421 422 423
v -2926.0349 1317.0814 295.1798
v -2936.8685 1272.4850 295.1838
v -2932.1152 1264.0493 290.4809
f 424 425 426
v -2932.1152 1264.0493 290.4809
v -2917.9396 1322.3986 290.4746
v -2926.0349 1317.0814 295.1798
f 427 428 429
v -2945.2195 1267.1945 290.4502
v -2945.2276 1267.1606 290.4262
v -2938.0782 1268.4168 292.3642
f 430 431 432
v -2938.0782 1268.4168 292.3642
v -2945.2276 1267.1606 290.4262
v -2941.2113 1266.1848 290.4283
f 433 434 435
v -2936.8685 1272.4850 295.1838
v -2945.2195 1267.1945 290.4502
v -2938.0782 1268.4168 292.3642
f 436 437 438
v -2936.8275 1266.2462 291.1583
v -2936.0727 1264.9370 290.4309
v -2932.1323 1263.9804 290.4339
f 439 440 441
v -2936.8685 1272.4850 295.1838
v -2938.0782 1268.4168 292.3642
v -2932.1152 1264.0493 290.4809
f 442 443 444
v -2936.8275 1266.2462 291.1583
v -2932.1152 1264.0493 290.4809
v -2938.0782 1268.4168 292.3642
f 445 446 447
v -2932.1323 1263.9804 290.4339
v -2932.1152 1264.0493 290.4809
v -2936.8275 1266.2462 291.1583
f 448 449 450
v -2941.9747 1264.5514 270.5400
v -2940.6359 1270.0617 270.5395
v -2936.0457 1263.0905 270.5430
f 451 452 453
v -2936.0457 1263.0905 270.5430
v -2940.6359 1270.0617 270.5395
v -2934.7039 1268.6209 270.5425
f 454 455 456
v -2941.2113 1266.1848 290.4283
v -2941.5669 1266.2716 290.1471
v -2941.9835 1264.5558 290.1472
f 457 458 459
v -2941.2113 1266.1848 290.4283
v -2939.1834 1263.8658 292.3646
v -2938.0782 1268.4168 292.3642
f 460 461 462
v -2941.9835 1264.5558 290.1472
v -2939.1834 1263.8658 292.3646
v -2941.2113 1266.1848 290.4283
f 463 464 465
v -2933.8339 1295.1774 293.5217
v -2926.0349 1317.0814 295.1798
v -2931.0278 1325.6128 290.4450
f 466 467 468
v -2933.8339 1295.1774 293.5217
v -2939.5459 1290.5490 290.4482
v -2945.2195 1267.1945 290.4502
f 469 470 471
v -2936.8685 1272.4850 295.1838
v -2933.8339 1295.1774 293.5217
v -2945.2195 1267.1945 290.4502
f 472 473 474
v -2926.0349 1317.0814 295.1798
v -2933.8339 1295.1774 293.5217
v -2936.8685 1272.4850 295.1838
f 475 476 477
v -2931.0278 1325.6128 290.4450
v -2936.7621 1302.0064 290.4471
v -2933.8339 1295.1774 293.5217
f 478 479 480
v -2924.9378 1321.4338 292.1935
v -2918.9497 1322.7163 290.4271
v -2922.0287 1323.4636 290.4255
f 481 482 483
v -2917.9396 1322.3986 290.4746
v -2917.9234 1322.4665 290.4276
v -2918.9497 1322.7163 290.4271
f 484 485 486
v -2917.9396 1322.3986 290.4746
v -2924.9378 1321.4338 292.1935
v -2926.0349 1317.0814 295.1798
f 487 488 489
v -2931.0278 1325.6128 290.4450
v -2926.0349 1317.0814 295.1798
v -2924.9378 1321.4338 292.1935
f 490 491 492
v -2917.9396 1322.3986 290.4746
v -2918.9497 1322.7163 290.4271
v -2924.9378 1321.4338 292.1935
f 493 494 495
v -2924.9378 1321.4338 292.1935
v -2926.9454 1324.6577 290.4230
v -2930.0014 1325.4000 290.4215
f 496 497 498
v -2931.0278 1325.6128 290.4450
v -2924.9378 1321.4338 292.1935
v -2930.0014 1325.4000 290.4215
f 499 500 501
v -2931.0197 1325.6477 290.4210
v -2931.0278 1325.6128 290.4450
v -2930.0014 1325.4000 290.4215
f 502 503 504
v -2945.2276 1267.1606 290.4262
v -2941.5660 1266.2712 288.2052
v -2941.5669 1266.2716 290.1471
f 505 506 507
v -2941.5669 1266.2716 290.1471
v -2941.2113 1266.1848 290.4283
v -2945.2276 1267.1606 290.4262
f 508 509 510
v -2945.2271 1267.1603 289.3152
v -2945.2266 1267.1600 288.2033
v -2941.5660 1266.2712 288.2052
f 511 512 513
v -2931.0521 1325.5092 288.2100
v -2936.6833 1302.3297 288.2122
v -2936.6842 1302.3301 290.2751
f 514 515 516
v -2936.6842 1302.3301 290.2751
v -2936.7621 1302.0064 290.4471
v -2931.0278 1325.6128 290.4450
f 517 518 519
v -2936.6842 1302.3301 290.2751
v -2931.0278 1325.6128 290.4450
v -2931.0521 1325.5092 288.2100
f 520 521 522
v -2931.0521 1325.5092 288.2100
v -2931.0197 1325.6477 290.4210
v -2931.0187 1325.6472 288.1310
f 523 524 525
v -2917.9223 1322.4660 288.1376
v -2921.6569 1323.3731 288.1357
v -2921.6578 1323.3735 290.1377
f 526 527 528
v -2921.6578 1323.3735 290.1377
v -2918.9497 1322.7163 290.4271
v -2917.9234 1322.4665 290.4276
f 529 530 531
v -2917.9234 1322.4665 290.4276
v -2917.9223 1322.4660 288.1376
v -2921.6578 1323.3735 290.1377
f 532 533 534
v -2930.0014 1325.4000 290.4215
v -2931.0187 1325.6472 288.1310
v -2931.0197 1325.6477 290.4210
f 535 536 537
v -2927.4509 1324.7810 290.0838
v -2927.4500 1324.7806 288.1328
v -2931.0187 1325.6472 288.1310
f 538 539 540
v -2930.0014 1325.4000 290.4215
v -2927.4509 1324.7810 290.0838
v -2931.0187 1325.6472 288.1310
f 541 542 543
v -2932.1313 1263.9799 288.2110
v -2932.1323 1263.9804 290.4339
v -2935.6338 1264.8308 290.1151
f 544 545 546
v -2935.6329 1264.8303 288.2092
v -2932.1313 1263.9799 288.2110
v -2935.6338 1264.8308 290.1151
f 547 548 549
v -2935.6329 1264.8303 288.2092
v -2935.6338 1264.8308 290.1151
v -2936.0545 1263.0949 290.1153
f 550 551 552
v -2941.9747 1264.5514 270.5400
v -2941.9747 1264.5515 270.6570
v -2940.6360 1270.0617 270.6565
f 553 554 555
v -2941.9822 1264.5552 287.2173
v -2941.9835 1264.5558 290.1472
v -2941.5660 1266.2712 288.2052
f 556 557 558
v -2927.1142 1326.1671 290.0837
v -2921.3199 1324.7569 287.3387
v -2927.1130 1326.1665 287.3348
f 559 560 561
v -2921.3211 1324.7576 290.1376
v -2927.1142 1326.1671 290.0837
v -2923.9732 1325.4032 292.1931
f 562 563 564
v -2927.1142 1326.1671 290.0837
v -2921.3211 1324.7576 290.1376
v -2921.3199 1324.7569 287.3387
f 565 566 567
v -2947.7081 1265.4497 274.7270
v -2947.7099 1265.4507 278.7998
v -2941.6472 1290.2039 287.0574
f 568 569 570
v -2947.7099 1265.4507 278.7998
v -2947.7118 1265.4516 282.8727
v -2941.6472 1290.2039 287.0574
f 571 572 573
v -2947.7081 1265.4497 274.7270
v -2941.6417 1290.2011 274.7539
v -2947.7063 1265.4488 270.6541
f 574 575 576
v -2947.6782 1265.5974 287.0295
v -2947.7118 1265.4516 282.8727
v -2947.7136 1265.4524 286.9455
f 577 578 579
v -2947.7063 1265.4488 270.6541
v -2941.6417 1290.2011 274.7539
v -2941.6399 1290.2002 270.6521
f 580 581 582
v -2941.6417 1290.2011 274.7539
v -2947.7081 1265.4497 274.7270
v -2941.6472 1290.2039 287.0574
f 583 584 585
v -2947.6782 1265.5974 287.0295
v -2941.6472 1290.2039 287.0574
v -2947.7118 1265.4516 282.8727
f 586 587 588
v -2914.9887 1323.7295 280.8000
v -2932.4206 1327.9708 270.6485
v -2915.2784 1323.8006 287.0637
f 589 590 591
v -2915.2784 1323.8006 287.0637
v -2932.4206 1327.9708 270.6485
v -2932.4279 1327.9747 287.0499
f 592 593 594
v -2914.9887 1323.7295 280.8000
v -2915.2784 1323.8006 287.0637
v -2914.9914 1323.7308 286.8898
f 595 596 597
v -2932.4206 1327.9708 270.6485
v -2914.9887 1323.7295 280.8000
v -2914.9842 1323.7270 270.6574
f 598 599 600
v -2932.4206 1327.9708 270.6485
v -2938.4690 1303.2195 270.6509
v -2938.4763 1303.2232 287.0613
f 601 602 603
v -2932.4206 1327.9708 270.6485
v -2932.4401 1327.9247 287.0789
v -2932.4279 1327.9747 287.0499
f 604 605 606
v -2932.4401 1327.9247 287.0789
v -2932.4206 1327.9708 270.6485
v -2938.4763 1303.2232 287.0613
f 607 608 609
v -2941.6737 1297.0814 293.5178
v -2941.3637 1298.4213 292.8066
v -2941.9758 1295.7710 292.8109
f 610 611 612
v -2941.3637 1298.4213 292.8066
v -2941.3543 1298.4166 271.7384
v -2941.9664 1295.7662 271.7387
f 613 614 615
v -2941.9758 1295.7710 292.8109
v -2941.3637 1298.4213 292.8066
v -2941.9664 1295.7662 271.7387
f 616 617 618
v -2939.1834 1263.8658 292.3646
v -2936.0545 1263.0949 290.1153
v -2936.8275 1266.2462 291.1583
f 619 620 621
v -2939.1834 1263.8658 292.3646
v -2936.8275 1266.2462 291.1583
v -2938.0782 1268.4168 292.3642
f 622 623 624
v -2936.0545 1263.0949 290.1153
v -2936.0727 1264.9370 290.4309
v -2936.8275 1266.2462 291.1583
f 625 626 627
v -2936.0545 1263.0949 290.1153
v -2935.6338 1264.8308 290.1151
v -2936.0727 1264.9370 290.4309
f 628 629 630
v -2936.0458 1263.0905 270.6600
v -2936.0457 1263.0905 270.5430
v -2934.7039 1268.6209 270.5425
f 631 632 633
v -2934.7039 1268.6209 270.6595
v -2936.0458 1263.0905 270.6600
v -2934.7039 1268.6209 270.5425
f 634 635 636
v -2940.6359 1270.0617 270.5395
v -2934.7039 1268.6209 270.6595
v -2934.7039 1268.6209 270.5425
f 637 638 639
v -2934.7039 1268.6209 270.6595
v -2940.6359 1270.0617 270.5395
v -2940.6360 1270.0617 270.6565
f 640 641 642
v -2945.2271 1267.1603 289.3152
v -2945.2216 1267.1800 288.2153
v -2945.2266 1267.1600 288.2033
f 643 644 645
v -2945.2216 1267.1800 288.2153
v -2945.2271 1267.1603 289.3152
v -2939.6177 1290.2477 288.2133
f 646 647 648
v -2945.2271 1267.1603 289.3152
v -2945.2195 1267.1945 290.4502
v -2939.6177 1290.2477 288.2133
f 649 650 651
v -2945.2195 1267.1945 290.4502
v -2939.6186 1290.2481 290.2852
v -2939.6177 1290.2477 288.2133
f 652 653 654
v -2945.2195 1267.1945 290.4502
v -2939.5459 1290.5490 290.4482
v -2939.6186 1290.2481 290.2852
f 655 656 657
v -2945.2276 1267.1606 290.4262
v -2945.2195 1267.1945 290.4502
v -2945.2271 1267.1603 289.3152
f 658 659 660
v -2917.9234 1322.4665 290.4276
v -2918.0287 1322.0284 288.3897
v -2917.9223 1322.4660 288.1376
f 661 662 663
v -2917.9396 1322.3986 290.4746
v -2918.0287 1322.0284 288.3897
v -2917.9234 1322.4665 290.4276
f 664 665 666
v -2932.0536 1264.2987 288.3940
v -2932.1152 1264.0493 290.4809
v -2932.1323 1263.9804 290.4339
f 667 668 669
v -2932.0536 1264.2987 288.3940
v -2918.0287 1322.0284 288.3897
v -2917.9396 1322.3986 290.4746
f 670 671 672
v -2932.0536 1264.2987 288.3940
v -2932.1323 1263.9804 290.4339
v -2932.1313 1263.9799 288.2110
f 673 674 675
v -2932.1152 1264.0493 290.4809
v -2932.0536 1264.2987 288.3940
v -2917.9396 1322.3986 290.4746
f 676 677 678
v -2936.0545 1263.0949 290.1153
v -2939.1834 1263.8658 292.3646
v -2936.0532 1263.0942 287.2094
f 679 680 681
v -2941.9835 1264.5558 290.1472
v -2939.1811 1263.8646 287.2138
v -2936.0532 1263.0942 287.2094
f 682 683 684
v -2939.1811 1263.8646 287.2138
v -2941.9835 1264.5558 290.1472
v -2941.9822 1264.5552 287.2173
f 685 686 687
v -2939.1834 1263.8658 292.3646
v -2941.9835 1264.5558 290.1472
v -2936.0532 1263.0942 287.2094
f 688 689 690
v -2941.9747 1264.5515 270.6570
v -2936.0457 1263.0905 270.5430
v -2936.0458 1263.0905 270.6600
f 691 692 693
v -2941.9747 1264.5514 270.5400
v -2936.0457 1263.0905 270.5430
v -2941.9747 1264.5515 270.6570
f 694 695 696
v -2947.7118 1265.4516 282.8727
v -2937.1347 1262.8461 286.9309
v -2943.3465 1264.3767 286.9398
f 697 698 699
v -2921.0573 1298.8194 286.9002
v -2920.4845 1298.6789 286.5534
v -2921.0500 1298.8158 270.6598
f 700 701 702
v -2928.1544 1269.7174 275.7431
v -2926.6891 1275.7658 286.9201
v -2928.7559 1267.2625 286.9219
f 703 704 705
v -2926.6891 1275.7658 286.9201
v -2924.1722 1286.0813 270.6609
v -2924.1794 1286.0850 286.9182
f 706 707 708
v -2928.7559 1267.2625 286.9219
v -2930.2434 1261.1476 286.9224
v -2930.2361 1261.1439 270.6630
f 709 710 711
v -2942.9821 1290.5097 270.6514
v -2942.8626 1291.0359 286.2457
v -2942.8561 1291.0327 271.7392
f 712 713 714
v -2942.9890 1290.5133 286.2458
v -2942.9821 1290.5097 270.6514
v -2941.6472 1290.2039 287.0574
f 715 716 717
v -2940.2515 1303.1945 271.7380
v -2941.1884 1299.1381 271.7384
v -2941.1977 1299.1427 292.4246
f 718 719 720
v -2941.1977 1299.1427 292.4246
v -2940.2598 1303.1987 290.2733
v -2940.2515 1303.1945 271.7380
f 721 722 723
v -2941.1977 1299.1427 292.4246
v -2941.5581 1299.2231 271.7382
v -2941.5674 1299.2278 292.4264
f 724 725 726
v -2941.5660 1266.2712 288.2052
v -2945.2276 1267.1606 290.4262
v -2945.2271 1267.1603 289.3152
f 727 728 729
v -2931.0521 1325.5092 288.2100
v -2931.0278 1325.6128 290.4450
v -2931.0197 1325.6477 290.4210
f 730 731 732
v -2922.0287 1323.4636 290.4255
v -2918.9497 1322.7163 290.4271
v -2921.6578 1323.3735 290.1377
f 733 734 735
v -2930.0014 1325.4000 290.4215
v -2926.9454 1324.6577 290.4230
v -2927.4509 1324.7810 290.0838
f 736 737 738
v -2936.0727 1264.9370 290.4309
v -2935.6338 1264.8308 290.1151
v -2932.1323 1263.9804 290.4339
f 739 740 741
v -2936.0532 1263.0942 287.2094
v -2935.6329 1264.8303 288.2092
v -2936.0545 1263.0949 290.1153
f 742 743 744
v -2941.9747 1264.5514 270.5400
v -2940.6360 1270.0617 270.6565
v -2940.6359 1270.0617 270.5395
f 745 746 747
v -2941.9835 1264.5558 290.1472
v -2941.5669 1266.2716 290.1471
v -2941.5660 1266.2712 288.2052
f 748 749 750

g building_ID_9E3C3E8A-E8AC-418D-AB83-DF30AA96C98F
v -2971.7812 1307.7537 270.3475
v -2965.5683 1306.2321 270.3507
v -2969.5997 1289.6922 270.3521
f 751 752 753
v -2978.4476 1305.3407 270.3449
v -2971.7812 1307.7537 270.3475
v -2969.5997 1289.6922 270.3521
f 754 755 756
v -2978.4476 1305.3407 270.3449
v -2979.2900 1305.5470 270.3445
v -2978.3617 1309.3664 270.3441
f 757 758 759
v -2978.4476 1305.3407 270.3449
v -2978.3617 1309.3664 270.3441
v -2971.7812 1307.7537 270.3475
f 760 761 762
v -2969.9125 1289.7680 270.3520
v -2981.3797 1293.3448 270.3459
v -2969.5997 1289.6922 270.3521
f 763 764 765
v -2969.9125 1289.7680 270.3520
v -2981.5587 1292.6113 270.3460
v -2981.3797 1293.3448 270.3459
f 766 767 768
v -2980.3474 1297.5699 270.3455
v -2978.4476 1305.3407 270.3449
v -2969.5997 1289.6922 270.3521
f 769 770 771
v -2982.2071 1293.5470 270.3455
v -2981.1798 1297.7732 270.3451
v -2980.3474 1297.5699 270.3455
f 772 773 774
v -2980.3474 1297.5699 270.3455
v -2981.3797 1293.3448 270.3459
v -2982.2071 1293.5470 270.3455
f 775 776 777
v -2969.5997 1289.6922 270.3521
v -2981.3797 1293.3448 270.3459
v -2980.3474 1297.5699 270.3455
f 778 779 780
v -2974.5813 1296.2746 288.7499
v -2981.5321 1292.6065 284.5155
v -2969.9189 1289.7713 284.5125
f 781 782 783
v -2981.5651 1292.6145 284.4905
v -2981.5321 1292.6065 284.5155
v -2981.3862 1293.3480 284.4914
f 784 785 786
v -2974.5813 1296.2746 288.7499
v -2980.3538 1297.5732 284.4940
v -2981.3862 1293.3480 284.4914
f 787 788 789
v -2981.5321 1292.6065 284.5155
v -2974.5813 1296.2746 288.7499
v -2981.3862 1293.3480 284.4914
f 790 791 792
v -2981.3862 1293.3480 284.4914
v -2980.3538 1297.5732 284.4940
v -2982.2133 1293.5501 283.8790
f 793 794 795
v -2978.4539 1305.3440 284.5013
v -2980.3538 1297.5732 284.4940
v -2974.5813 1296.2746 288.7499
f 796 797 798
v -2974.5813 1296.2746 288.7499
v -2971.7895 1307.7580 288.7488
v -2978.4539 1305.3440 284.5013
f 799 800 801
v -2978.3679 1309.3695 283.8776
v -2978.4539 1305.3440 284.5013
v -2971.7895 1307.7580 288.7488
f 802 803 804
v -2982.2133 1293.5501 283.8790
v -2980.3538 1297.5732 284.4940
v -2981.1860 1297.7762 283.8786
f 805 806 807
v -2978.4539 1305.3440 284.5013
v -2978.3679 1309.3695 283.8776
v -2979.2961 1305.5501 283.8779
f 808 809 810
v -2969.9189 1289.7713 284.5125
v -2969.6060 1289.6954 284.2876
v -2968.2672 1295.1896 284.2851
f 811 812 813
v -2968.2672 1295.1896 284.2851
v -2974.5813 1296.2746 288.7499
v -2969.9189 1289.7713 284.5125
f 814 815 816
v -2971.7895 1307.7580 288.7488
v -2966.5857 1302.0861 284.2815
v -2965.5746 1306.2353 284.2791
f 817 818 819
v -2968.2672 1295.1896 284.2851
v -2966.5857 1302.0861 284.2815
v -2974.5813 1296.2746 288.7499
f 820 821 822
v -2971.7895 1307.7580 288.7488
v -2974.5813 1296.2746 288.7499
v -2966.5857 1302.0861 284.2815
f 823 824 825
v -2981.1798 1297.7732 270.3451
v -2980.3538 1297.5732 284.4940
v -2980.3474 1297.5699 270.3455
f 826 827 828
v -2982.2071 1293.5470 270.3455
v -2982.2133 1293.5501 283.8790
v -2981.1860 1297.7762 283.8786
f 829 830 831
v -2982.2071 1293.5470 270.3455
v -2981.3862 1293.3480 284.4914
v -2982.2133 1293.5501 283.8790
f 832 833 834
v -2981.5587 1292.6113 270.3460
v -2981.5635 1292.6136 280.9026
v -2981.3797 1293.3448 270.3459
f 835 836 837
v -2981.5635 1292.6136 280.9026
v -2981.3862 1293.3480 284.4914
v -2981.3797 1293.3448 270.3459
f 838 839 840
v -2978.3679 1309.3695 283.8776
v -2979.2900 1305.5470 270.3445
v -2979.2961 1305.5501 283.8779
f 841 842 843
v -2978.3679 1309.3695 283.8776
v -2978.3617 1309.3664 270.3441
v -2979.2900 1305.5470 270.3445
f 844 845 846
v -2979.2900 1305.5470 270.3445
v -2978.4476 1305.3407 270.3449
v -2979.2961 1305.5501 283.8779
f 847 848 849
v -2978.4539 1305.3440 284.5013
v -2978.4476 1305.3407 270.3449
v -2980.3538 1297.5732 284.4940
f 850 851 852
v -2978.4476 1305.3407 270.3449
v -2980.3474 1297.5699 270.3455
v -2980.3538 1297.5732 284.4940
f 853 854 855
v -2969.5997 1289.6922 270.3521
v -2966.5857 1302.0861 284.2815
v -2968.2672 1295.1896 284.2851
f 856 857 858
v -2965.5683 1306.2321 270.3507
v -2965.5715 1306.2338 277.3114
v -2966.5857 1302.0861 284.2815
f 859 860 861
v -2965.5683 1306.2321 270.3507
v -2966.5857 1302.0861 284.2815
v -2969.5997 1289.6922 270.3521
f 862 863 864
v -2969.6045 1289.6946 280.8038
v -2969.6060 1289.6954 284.2876
v -2969.9189 1289.7713 284.5125
f 865 866 867
v -2969.6013 1289.6930 273.8360
v -2969.6045 1289.6946 280.8038
v -2981.5635 1292.6136 280.9026
f 868 869 870
v -2969.9125 1289.7680 270.3520
v -2969.5997 1289.6922 270.3521
v -2969.6013 1289.6930 273.8360
f 871 872 873
v -2969.6045 1289.6946 280.8038
v -2969.9189 1289.7713 284.5125
v -2981.5635 1292.6136 280.9026
f 874 875 876
v -2981.5635 1292.6136 280.9026
v -2981.5321 1292.6065 284.5155
v -2981.5651 1292.6145 284.4905
f 877 878 879
v -2969.9125 1289.7680 270.3520
v -2969.6013 1289.6930 273.8360
v -2981.5587 1292.6113 270.3460
f 880 881 882
v -2981.5587 1292.6113 270.3460
v -2969.6013 1289.6930 273.8360
v -2981.5635 1292.6136 280.9026
f 883 884 885
v -2981.5321 1292.6065 284.5155
v -2981.5635 1292.6136 280.9026
v -2969.9189 1289.7713 284.5125
f 886 887 888
v -2971.7812 1307.7537 270.3475
v -2978.3617 1309.3664 270.3441
v -2978.3679 1309.3695 283.8776
f 889 890 891
v -2978.3679 1309.3695 283.8776
v -2965.5683 1306.2321 270.3507
v -2971.7812 1307.7537 270.3475
f 892 893 894
v -2965.5683 1306.2321 270.3507
v -2978.3679 1309.3695 283.8776
v -2965.5715 1306.2338 277.3114
f 895 896 897
v -2971.7895 1307.7580 288.7488
v -2965.5746 1306.2353 284.2791
v -2965.5715 1306.2338 277.3114
f 898 899 900
v -2978.3679 1309.3695 283.8776
v -2971.7895 1307.7580 288.7488
v -2965.5715 1306.2338 277.3114
f 901 902 903
v -2981.1860 1297.7762 283.8786
v -2980.3538 1297.5732 284.4940
v -2981.1798 1297.7732 270.3451
f 904 905 906
v -2982.2071 1293.5470 270.3455
v -2981.1860 1297.7762 283.8786
v -2981.1798 1297.7732 270.3451
f 907 908 909
v -2981.3797 1293.3448 270.3459
v -2981.3862 1293.3480 284.4914
v -2982.2071 1293.5470 270.3455
f 910 911 912
v -2981.5651 1292.6145 284.4905
v -2981.3862 1293.3480 284.4914
v -2981.5635 1292.6136 280.9026
f 913 914 915
v -2978.4476 1305.3407 270.3449
v -2978.4539 1305.3440 284.5013
v -2979.2961 1305.5501 283.8779
f 916 917 918
v -2969.6013 1289.6930 273.8360
v -2968.2672 1295.1896 284.2851
v -2969.6045 1289.6946 280.8038
f 919 920 921
v -2969.5997 1289.6922 270.3521
v -2968.2672 1295.1896 284.2851
v -2969.6013 1289.6930 273.8360
f 922 923 924
v -2966.5857 1302.0861 284.2815
v -2965.5715 1306.2338 277.3114
v -2965.5746 1306.2353 284.2791
f 925 926 927
v -2968.2672 1295.1896 284.2851
v -2969.6060 1289.6954 284.2876
v -2969.6045 1289.6946 280.8038
f 928 929 930

g building_ID_0EABBE73-5A40-4A6B-9F4A-1B7D3012F2FD
v -3107.9618 1272.0580 270.0039
v -3070.1279 1309.8568 270.0145
v -3054.7066 1294.4216 270.0251
f 931 932 933
v -3054.7066 1294.4216 270.0251
v -3092.5405 1256.6218 270.0144
v -3107.9618 1272.0580 270.0039
f 934 935 936
v -3054.7245 1294.4304 308.3937
v -3107.9801 1272.0665 308.3724
v -3092.5586 1256.6303 308.3829
f 937 938 939
v -3107.9801 1272.0665 308.3724
v -3054.7245 1294.4304 308.3937
v -3070.1459 1309.8657 308.3831
f 940 941 942
v -3092.5405 1256.6218 270.0144
v -3092.5586 1256.6303 308.3829
v -3107.9801 1272.0665 308.3724
f 943 944 945
v -3054.7066 1294.4216 270.0251
v -3054.7245 1294.4304 308.3937
v -3092.5586 1256.6303 308.3829
f 946 947 948
v -3070.1279 1309.8568 270.0145
v -3070.1459 1309.8657 308.3831
v -3054.7245 1294.4304 308.3937
f 949 950 951
v -3107.9618 1272.0580 270.0039
v -3107.9801 1272.0665 308.3724
v -3070.1459 1309.8657 308.3831
f 952 953 954
v -3092.5405 1256.6218 270.0144
v -3107.9801 1272.0665 308.3724
v -3107.9618 1272.0580 270.0039
f 955 956 957
v -3054.7066 1294.4216 270.0251
v -3092.5586 1256.6303 308.3829
v -3092.5405 1256.6218 270.0144
f 958 959 960
v -3070.1279 1309.8568 270.0145
v -3054.7245 1294.4304 308.3937
v -3054.7066 1294.4216 270.0251
f 961 962 963
v -3107.9618 1272.0580 270.0039
v -3070.1459 1309.8657 308.3831
v -3070.1279 1309.8568 270.0145
f 964 965 966

g building_ID_E648C201-8AAE-42F4-9505-0B44963C1266
v -2864.0493 1285.6228 270.5432
v -2862.5267 1310.7833 270.5388
v -2858.1946 1309.7327 270.5409
f 967 968 969
v -2862.5267 1310.7833 270.5388
v -2864.0493 1285.6228 270.5432
v -2868.4093 1286.6965 270.5411
f 970 971 972
v -2858.1977 1309.7343 277.4657
v -2868.4124 1286.6980 277.4658
v -2864.0523 1285.6244 277.4679
f 973 974 975
v -2868.4124 1286.6980 277.4658
v -2858.1977 1309.7343 277.4657
v -2862.5298 1310.7850 277.4636
f 976 977 978
v -2862.5267 1310.7833 270.5388
v -2862.5298 1310.7850 277.4636
v -2858.1977 1309.7343 277.4657
f 979 980 981
v -2868.4093 1286.6965 270.5411
v -2868.4124 1286.6980 277.4658
v -2862.5298 1310.7850 277.4636
f 982 983 984
v -2864.0493 1285.6228 270.5432
v -2864.0523 1285.6244 277.4679
v -2868.4124 1286.6980 277.4658
f 985 986 987
v -2858.1946 1309.7327 270.5409
v -2858.1977 1309.7343 277.4657
v -2864.0523 1285.6244 277.4679
f 988 989 990
v -2862.5267 1310.7833 270.5388
v -2858.1977 1309.7343 277.4657
v -2858.1946 1309.7327 270.5409
f 991 992 993
v -2868.4093 1286.6965 270.5411
v -2862.5298 1310.7850 277.4636
v -2862.5267 1310.7833 270.5388
f 994 995 996
v -2864.0493 1285.6228 270.5432
v -2868.4124 1286.6980 277.4658
v -2868.4093 1286.6965 270.5411
f 997 998 999
v -2858.1946 1309.7327 270.5409
v -2864.0523 1285.6244 277.4679
v -2864.0493 1285.6228 270.5432
f 1000 1001 1002
