# Grid Center: 2613800, 1263000
# Global Anchor: 7.64977475454284, 47.53283995868075, 0.0

g building_ID_0A25FED0-912F-4B70-9C1D-AE761D006BBA
v -2243.8094 -1645.9221 279.7227
v -2246.2038 -1644.6415 279.1372
v -2246.5148 -1644.6547 279.0591
f 1 2 3
v -2245.8261 -1648.8425 279.1803
v -2243.8094 -1645.9221 279.7227
v -2246.3101 -1648.8712 279.0581
f 4 5 6
v -2246.5148 -1644.6547 279.0591
v -2246.3101 -1648.8712 279.0581
v -2243.8094 -1645.9221 279.7227
f 7 8 9
v -2246.2038 -1644.6415 279.1372
v -2241.3711 -1645.8036 279.7236
v -2239.1760 -1644.3393 279.1568
f 10 11 12
v -2241.3711 -1645.8036 279.7236
v -2246.2038 -1644.6415 279.1372
v -2243.8094 -1645.9221 279.7227
f 13 14 15
v -2243.8094 -1645.9221 279.7227
v -2245.8261 -1648.8425 279.1803
v -2244.1828 -1648.7459 279.1839
f 16 17 18
v -2244.1828 -1648.7459 279.1839
v -2243.5505 -1649.3676 279.0589
v -2243.3334 -1649.3572 279.0590
f 19 20 21
v -2244.1828 -1648.7459 279.1839
v -2241.3711 -1645.8036 279.7236
v -2243.8094 -1645.9221 279.7227
f 22 23 24
v -2241.3711 -1645.8036 279.7236
v -2244.1828 -1648.7459 279.1839
v -2243.3334 -1649.3572 279.0590
f 25 26 27
v -2246.3076 -1648.8695 271.6984
v -2246.3101 -1648.8712 279.0581
v -2246.5148 -1644.6547 279.0591
f 28 29 30
v -2243.5505 -1649.3676 279.0589
v -2244.1813 -1648.7448 274.5061
v -2244.1803 -1648.7441 271.6992
f 31 32 33
v -2243.5480 -1649.3659 271.6992
v -2243.5505 -1649.3676 279.0589
v -2244.1803 -1648.7441 271.6992
f 34 35 36
v -2243.3310 -1649.3554 271.6993
v -2243.3334 -1649.3572 279.0590
v -2243.5480 -1649.3659 271.6992
f 37 38 39
v -2238.3839 -1652.8494 279.0598
v -2242.7245 -1652.7238 279.1973
v -2242.7103 -1653.0538 279.0583
f 40 41 42
v -2242.7245 -1652.7238 279.1973
v -2238.3839 -1652.8494 279.0598
v -2241.1002 -1651.3913 279.7223
f 43 44 45
v -2241.1002 -1651.3913 279.7223
v -2238.3839 -1652.8494 279.0598
v -2238.5649 -1649.1260 279.0607
f 46 47 48
v -2241.3711 -1645.8036 279.7236
v -2241.1002 -1651.3913 279.7223
v -2238.5649 -1649.1260 279.0607
f 49 50 51
v -2241.3711 -1645.8036 279.7236
v -2238.5649 -1649.1260 279.0607
v -2239.1760 -1644.3393 279.1568
f 52 53 54
v -2238.7980 -1644.3233 279.0619
v -2239.1760 -1644.3393 279.1568
v -2238.5649 -1649.1260 279.0607
f 55 56 57
v -2242.8359 -1650.0675 274.9822
v -2242.8373 -1650.0686 279.2020
v -2243.3220 -1649.5921 279.0589
f 58 59 60
v -2242.8349 -1650.0667 271.6993
v -2242.8359 -1650.0675 274.9822
v -2243.3195 -1649.5905 271.6993
f 61 62 63
v -2238.3814 -1652.8476 271.7001
v -2238.3839 -1652.8494 279.0598
v -2242.7103 -1653.0538 279.0583
f 64 65 66
v -2242.7245 -1652.7238 279.1973
v -2241.1002 -1651.3913 279.7223
v -2242.8373 -1650.0686 279.2020
f 67 68 69
v -2241.3711 -1645.8036 279.7236
v -2243.3220 -1649.5921 279.0589
v -2242.8373 -1650.0686 279.2020
f 70 71 72
v -2241.3711 -1645.8036 279.7236
v -2242.8373 -1650.0686 279.2020
v -2241.1002 -1651.3913 279.7223
f 73 74 75
v -2241.3711 -1645.8036 279.7236
v -2243.3334 -1649.3572 279.0590
v -2243.3220 -1649.5921 279.0589
f 76 77 78
v -2243.3334 -1649.3572 279.0590
v -2243.3195 -1649.5905 271.6993
v -2243.3220 -1649.5921 279.0589
f 79 80 81
v -2243.3334 -1649.3572 279.0590
v -2243.3310 -1649.3554 271.6993
v -2243.3195 -1649.5905 271.6993
f 82 83 84
v -2238.7955 -1644.3216 271.7022
v -2238.7980 -1644.3233 279.0619
v -2238.5649 -1649.1260 279.0607
f 85 86 87
v -2238.3839 -1652.8494 279.0598
v -2238.3814 -1652.8476 271.7001
v -2238.5624 -1649.1242 271.7010
f 88 89 90
v -2245.8261 -1648.8425 279.1803
v -2244.1813 -1648.7448 274.5061
v -2244.1828 -1648.7459 279.1839
f 91 92 93
v -2246.3101 -1648.8712 279.0581
v -2245.8235 -1648.8408 271.6986
v -2244.1813 -1648.7448 274.5061
f 94 95 96
v -2244.1813 -1648.7448 274.5061
v -2245.8235 -1648.8408 271.6986
v -2244.1803 -1648.7441 271.6992
f 97 98 99
v -2246.3076 -1648.8695 271.6984
v -2245.8235 -1648.8408 271.6986
v -2246.3101 -1648.8712 279.0581
f 100 101 102
v -2245.8261 -1648.8425 279.1803
v -2246.3101 -1648.8712 279.0581
v -2244.1813 -1648.7448 274.5061
f 103 104 105
v -2246.5148 -1644.6547 279.0591
v -2246.2038 -1644.6415 279.1372
v -2246.5123 -1644.6529 271.6994
f 106 107 108
v -2246.2002 -1644.6398 271.6995
v -2246.5123 -1644.6529 271.6994
v -2246.2038 -1644.6415 279.1372
f 109 110 111
v -2238.7980 -1644.3233 279.0619
v -2239.1785 -1644.3376 271.7021
v -2239.1760 -1644.3393 279.1568
f 112 113 114
v -2238.7955 -1644.3216 271.7022
v -2239.1785 -1644.3376 271.7021
v -2238.7980 -1644.3233 279.0619
f 115 116 117
v -2239.1785 -1644.3376 271.7021
v -2246.2002 -1644.6398 271.6995
v -2246.2038 -1644.6415 279.1372
f 118 119 120
v -2239.1760 -1644.3393 279.1568
v -2239.1785 -1644.3376 271.7021
v -2246.2038 -1644.6415 279.1372
f 121 122 123
v -2242.7103 -1653.0538 279.0583
v -2242.8359 -1650.0675 274.9822
v -2242.7079 -1653.0520 271.6986
f 124 125 126
v -2242.8359 -1650.0675 274.9822
v -2242.7103 -1653.0538 279.0583
v -2242.7245 -1652.7238 279.1973
f 127 128 129
v -2242.7079 -1653.0520 271.6986
v -2242.8359 -1650.0675 274.9822
v -2242.8349 -1650.0667 271.6993
f 130 131 132
v -2242.8359 -1650.0675 274.9822
v -2242.7245 -1652.7238 279.1973
v -2242.8373 -1650.0686 279.2020
f 133 134 135
v -2246.2002 -1644.6398 271.6995
v -2246.3076 -1648.8695 271.6984
v -2246.5123 -1644.6529 271.6994
f 136 137 138
v -2238.5624 -1649.1242 271.7010
v -2243.3310 -1649.3554 271.6993
v -2244.1803 -1648.7441 271.6992
f 139 140 141
v -2244.1803 -1648.7441 271.6992
v -2245.8235 -1648.8408 271.6986
v -2246.2002 -1644.6398 271.6995
f 142 143 144
v -2246.2002 -1644.6398 271.6995
v -2245.8235 -1648.8408 271.6986
v -2246.3076 -1648.8695 271.6984
f 145 146 147
v -2243.5480 -1649.3659 271.6992
v -2244.1803 -1648.7441 271.6992
v -2243.3310 -1649.3554 271.6993
f 148 149 150
v -2239.1785 -1644.3376 271.7021
v -2244.1803 -1648.7441 271.6992
v -2246.2002 -1644.6398 271.6995
f 151 152 153
v -2244.1803 -1648.7441 271.6992
v -2239.1785 -1644.3376 271.7021
v -2238.5624 -1649.1242 271.7010
f 154 155 156
v -2239.1785 -1644.3376 271.7021
v -2238.7955 -1644.3216 271.7022
v -2238.5624 -1649.1242 271.7010
f 157 158 159
v -2238.5624 -1649.1242 271.7010
v -2242.8349 -1650.0667 271.6993
v -2243.3310 -1649.3554 271.6993
f 160 161 162
v -2238.3814 -1652.8476 271.7001
v -2242.7079 -1653.0520 271.6986
v -2242.8349 -1650.0667 271.6993
f 163 164 165
v -2242.8349 -1650.0667 271.6993
v -2243.3195 -1649.5905 271.6993
v -2243.3310 -1649.3554 271.6993
f 166 167 168
v -2242.8349 -1650.0667 271.6993
v -2238.5624 -1649.1242 271.7010
v -2238.3814 -1652.8476 271.7001
f 169 170 171
v -2246.3076 -1648.8695 271.6984
v -2246.5148 -1644.6547 279.0591
v -2246.5123 -1644.6529 271.6994
f 172 173 174
v -2244.1813 -1648.7448 274.5061
v -2243.5505 -1649.3676 279.0589
v -2244.1828 -1648.7459 279.1839
f 175 176 177
v -2243.3334 -1649.3572 279.0590
v -2243.5505 -1649.3676 279.0589
v -2243.5480 -1649.3659 271.6992
f 178 179 180
v -2242.8359 -1650.0675 274.9822
v -2243.3220 -1649.5921 279.0589
v -2243.3195 -1649.5905 271.6993
f 181 182 183
v -2238.3814 -1652.8476 271.7001
v -2242.7103 -1653.0538 279.0583
v -2242.7079 -1653.0520 271.6986
f 184 185 186
v -2238.7955 -1644.3216 271.7022
v -2238.5649 -1649.1260 279.0607
v -2238.5624 -1649.1242 271.7010
f 187 188 189
v -2238.3839 -1652.8494 279.0598
v -2238.5624 -1649.1242 271.7010
v -2238.5649 -1649.1260 279.0607
f 190 191 192

g building_ID_11D24D36-5FE4-4269-B845-AD9766F7DC88
v -2260.6966 -1680.1206 272.3130
v -2272.8523 -1680.8290 272.3085
v -2260.8918 -1671.6342 272.3153
f 193 194 195
v -2274.1010 -1659.4838 272.3138
v -2260.8918 -1671.6342 272.3153
v -2272.8523 -1680.8290 272.3085
f 196 197 198
v -2260.6966 -1680.1206 272.3130
v -2260.8918 -1671.6342 272.3153
v -2260.1304 -1680.0872 272.3133
f 199 200 201
v -2261.1831 -1668.3985 272.3161
v -2260.0174 -1671.8646 272.3156
v -2260.8918 -1671.6342 272.3153
f 202 203 204
v -2261.1831 -1668.3985 272.3161
v -2260.2240 -1668.0000 272.3165
v -2260.0174 -1671.8646 272.3156
f 205 206 207
v -2261.1831 -1668.3985 272.3161
v -2260.8918 -1671.6342 272.3153
v -2274.1010 -1659.4838 272.3138
f 208 209 210
v -2274.1010 -1659.4838 272.3138
v -2261.4064 -1665.9218 272.3166
v -2261.1831 -1668.3985 272.3161
f 211 212 213
v -2274.1010 -1659.4838 272.3138
v -2253.2350 -1659.7889 272.3211
v -2261.4064 -1665.9218 272.3166
f 214 215 216
v -2252.9003 -1665.0848 272.3198
v -2252.8830 -1665.3677 272.3198
v -2261.4064 -1665.9218 272.3166
f 217 218 219
v -2252.5429 -1659.7468 272.3214
v -2252.2592 -1665.0564 272.3201
v -2252.9003 -1665.0848 272.3198
f 220 221 222
v -2252.9003 -1665.0848 272.3198
v -2253.2350 -1659.7889 272.3211
v -2252.5429 -1659.7468 272.3214
f 223 224 225
v -2253.2350 -1659.7889 272.3211
v -2252.9003 -1665.0848 272.3198
v -2261.4064 -1665.9218 272.3166
f 226 227 228
v -2253.2350 -1659.7889 272.3211
v -2274.1010 -1659.4838 272.3138
v -2253.3348 -1658.2177 272.3215
f 229 230 231
v -2252.8715 -1665.5438 272.3197
v -2261.4064 -1665.9218 272.3166
v -2252.8830 -1665.3677 272.3198
f 232 233 234
v -2261.7443 -1668.1248 283.9274
v -2261.2306 -1667.9161 283.5527
v -2261.3559 -1666.5227 283.5890
f 235 236 237
v -2262.3713 -1666.5772 284.3166
v -2261.7443 -1668.1248 283.9274
v -2261.3559 -1666.5227 283.5890
f 238 239 240
v -2261.7443 -1668.1248 283.9274
v -2262.3713 -1666.5772 284.3166
v -2262.2532 -1668.7624 284.3151
f 241 242 243
v -2262.4410 -1669.7770 284.4878
v -2261.7443 -1668.1248 283.9274
v -2262.2532 -1668.7624 284.3151
f 244 245 246
v -2263.8357 -1668.8475 285.4494
v -2264.0747 -1664.3869 285.4505
v -2267.6885 -1662.4867 287.9606
f 247 248 249
v -2260.7004 -1680.1234 283.6376
v -2262.4410 -1669.7770 284.4878
v -2263.8357 -1668.8475 285.4494
f 250 251 252
v -2267.6885 -1662.4867 287.9606
v -2266.9219 -1676.8027 287.9571
v -2263.8357 -1668.8475 285.4494
f 253 254 255
v -2266.9219 -1676.8027 287.9571
v -2260.7004 -1680.1234 283.6376
v -2263.8357 -1668.8475 285.4494
f 256 257 258
v -2263.8357 -1668.8475 285.4494
v -2262.4410 -1669.7770 284.4878
v -2262.2532 -1668.7624 284.3151
f 259 260 261
v -2260.7004 -1680.1234 283.6376
v -2260.8800 -1671.8079 283.4498
v -2261.7642 -1671.4357 284.0676
f 262 263 264
v -2260.8800 -1671.8079 283.4498
v -2260.7004 -1680.1234 283.6376
v -2260.1342 -1680.0898 283.2319
f 265 266 267
v -2260.7004 -1680.1234 283.6376
v -2261.7642 -1671.4357 284.0676
v -2262.4410 -1669.7770 284.4878
f 268 269 270
v -2266.9219 -1676.8027 287.9571
v -2272.4471 -1680.8078 283.5663
v -2260.7004 -1680.1234 283.6376
f 271 272 273
v -2252.8869 -1665.3705 283.5563
v -2259.6641 -1665.8472 283.4168
v -2252.8753 -1665.5464 283.3442
f 274 275 276
v -2257.0220 -1661.9154 287.9646
v -2259.7495 -1664.2704 285.3141
v -2252.8869 -1665.3705 283.5563
f 277 278 279
v -2257.0220 -1661.9154 287.9646
v -2264.0747 -1664.3869 285.4505
v -2259.7495 -1664.2704 285.3141
f 280 281 282
v -2252.8869 -1665.3705 283.5563
v -2259.7495 -1664.2704 285.3141
v -2259.6641 -1665.8472 283.4168
f 283 284 285
v -2267.6885 -1662.4867 287.9606
v -2264.0747 -1664.3869 285.4505
v -2257.0220 -1661.9154 287.9646
f 286 287 288
v -2252.9416 -1662.3182 283.4371
v -2253.2389 -1659.7916 283.6186
v -2257.0220 -1661.9154 287.9646
f 289 290 291
v -2252.9041 -1665.0874 283.5593
v -2252.9416 -1662.3182 283.4371
v -2257.0220 -1661.9154 287.9646
f 292 293 294
v -2252.5352 -1660.3883 282.8688
v -2253.2389 -1659.7916 283.6186
v -2252.9416 -1662.3182 283.4371
f 295 296 297
v -2257.0220 -1661.9154 287.9646
v -2253.2389 -1659.7916 283.6186
v -2253.3358 -1658.2673 283.6360
f 298 299 300
v -2252.5352 -1660.3883 282.8688
v -2252.5465 -1659.7492 282.8440
v -2253.2389 -1659.7916 283.6186
f 301 302 303
v -2252.5465 -1659.7492 282.8440
v -2252.5352 -1660.3883 282.8688
v -2252.5142 -1660.3633 282.8438
f 304 305 306
v -2257.0220 -1661.9154 287.9646
v -2252.8869 -1665.3705 283.5563
v -2252.9041 -1665.0874 283.5593
f 307 308 309
v -2252.2628 -1665.0590 282.8427
v -2252.3315 -1664.1938 282.8679
v -2252.9041 -1665.0874 283.5593
f 310 311 312
v -2252.2628 -1665.0590 282.8427
v -2252.3075 -1664.2158 282.8429
v -2252.3315 -1664.1938 282.8679
f 313 314 315
v -2252.9416 -1662.3182 283.4371
v -2252.9041 -1665.0874 283.5593
v -2252.3315 -1664.1938 282.8679
f 316 317 318
v -2273.3498 -1659.4406 283.7566
v -2274.1048 -1659.4864 283.1773
v -2273.7921 -1664.8233 283.1960
f 319 320 321
v -2273.7921 -1664.8233 283.1960
v -2267.6885 -1662.4867 287.9606
v -2273.3498 -1659.4406 283.7566
f 322 323 324
v -2267.6885 -1662.4867 287.9606
v -2273.7921 -1664.8233 283.1960
v -2273.4804 -1670.1591 283.2147
f 325 326 327
v -2266.9219 -1676.8027 287.9571
v -2273.4804 -1670.1591 283.2147
v -2273.1677 -1675.4948 283.2344
f 328 329 330
v -2266.9219 -1676.8027 287.9571
v -2273.1677 -1675.4948 283.2344
v -2272.4471 -1680.8078 283.5663
f 331 332 333
v -2272.8561 -1680.8316 283.2531
v -2272.4471 -1680.8078 283.5663
v -2273.1677 -1675.4948 283.2344
f 334 335 336
v -2267.6885 -1662.4867 287.9606
v -2273.4804 -1670.1591 283.2147
v -2266.9219 -1676.8027 287.9571
f 337 338 339
v -2273.3498 -1659.4406 283.7566
v -2253.3358 -1658.2673 283.6360
v -2253.3386 -1658.2203 283.5760
f 340 341 342
v -2267.6885 -1662.4867 287.9606
v -2257.0220 -1661.9154 287.9646
v -2273.3498 -1659.4406 283.7566
f 343 344 345
v -2253.3358 -1658.2673 283.6360
v -2273.3498 -1659.4406 283.7566
v -2257.0220 -1661.9154 287.9646
f 346 347 348
v -2260.2240 -1668.0000 272.3165
v -2260.2241 -1668.0001 272.6874
v -2260.0174 -1671.8646 272.3156
f 349 350 351
v -2252.9003 -1665.0848 272.3198
v -2252.2592 -1665.0564 272.3201
v -2252.2628 -1665.0590 282.8427
f 352 353 354
v -2252.9041 -1665.0874 283.5593
v -2252.9012 -1665.0854 275.1297
v -2252.2628 -1665.0590 282.8427
f 355 356 357
v -2252.2628 -1665.0590 282.8427
v -2252.9012 -1665.0854 275.1297
v -2252.9003 -1665.0848 272.3198
f 358 359 360
v -2252.5463 -1659.7491 282.1920
v -2252.5465 -1659.7492 282.8440
v -2252.5142 -1660.3633 282.8438
f 361 362 363
v -2272.8544 -1680.8305 278.4653
v -2272.8561 -1680.8316 283.2531
v -2273.1677 -1675.4948 283.2344
f 364 365 366
v -2273.4804 -1670.1591 283.2147
v -2273.7921 -1664.8233 283.1960
v -2272.8544 -1680.8305 278.4653
f 367 368 369
v -2272.8544 -1680.8305 278.4653
v -2273.7921 -1664.8233 283.1960
v -2272.8523 -1680.8290 272.3085
f 370 371 372
v -2273.7921 -1664.8233 283.1960
v -2274.1010 -1659.4838 272.3138
v -2272.8523 -1680.8290 272.3085
f 373 374 375
v -2274.1010 -1659.4838 272.3138
v -2273.7921 -1664.8233 283.1960
v -2274.1024 -1659.4849 276.3366
f 376 377 378
v -2259.6647 -1665.8476 285.3138
v -2259.7495 -1664.2704 285.3141
v -2261.4109 -1665.9250 285.3690
f 379 380 381
v -2264.0747 -1664.3869 285.4505
v -2261.4109 -1665.9250 285.3690
v -2259.7495 -1664.2704 285.3141
f 382 383 384
v -2261.3565 -1666.5231 285.3679
v -2261.4109 -1665.9250 285.3690
v -2262.3716 -1666.5774 285.3995
f 385 386 387
v -2263.8357 -1668.8475 285.4494
v -2262.3716 -1666.5774 285.3995
v -2264.0747 -1664.3869 285.4505
f 388 389 390
v -2261.4109 -1665.9250 285.3690
v -2264.0747 -1664.3869 285.4505
v -2262.3716 -1666.5774 285.3995
f 391 392 393
v -2262.3716 -1666.5774 285.3995
v -2263.8357 -1668.8475 285.4494
v -2262.2535 -1668.7627 285.3990
f 394 395 396
v -2259.6641 -1665.8472 283.4168
v -2259.7495 -1664.2704 285.3141
v -2259.6647 -1665.8476 285.3138
f 397 398 399
v -2262.2532 -1668.7624 284.3151
v -2262.2535 -1668.7627 285.3990
v -2263.8357 -1668.8475 285.4494
f 400 401 402
v -2262.3713 -1666.5772 284.3166
v -2262.3716 -1666.5774 285.3995
v -2262.2535 -1668.7627 285.3990
f 403 404 405
v -2261.3559 -1666.5227 283.5890
v -2261.3565 -1666.5231 285.3679
v -2262.3713 -1666.5772 284.3166
f 406 407 408
v -2260.8973 -1671.6381 288.5456
v -2260.1130 -1671.8452 288.7328
v -2260.1015 -1669.7921 291.8383
f 409 410 411
v -2260.8817 -1671.8091 288.2976
v -2260.8973 -1671.6381 288.5456
v -2261.7657 -1671.4367 288.2974
f 412 413 414
v -2260.1015 -1669.7921 291.8383
v -2261.7657 -1671.4367 288.2974
v -2260.8973 -1671.6381 288.5456
f 415 416 417
v -2260.1015 -1669.7921 291.8383
v -2259.6861 -1671.9573 288.2980
v -2258.4548 -1671.4565 288.2985
f 418 419 420
v -2259.6861 -1671.9573 288.2980
v -2260.1015 -1669.7921 291.8383
v -2260.1130 -1671.8452 288.7328
f 421 422 423
v -2258.4548 -1671.4565 288.2985
v -2257.7584 -1669.8055 288.2992
v -2260.1015 -1669.7921 291.8383
f 424 425 426
v -2257.7584 -1669.8055 288.2992
v -2258.4810 -1668.1926 288.3994
v -2260.1015 -1669.7921 291.8383
f 427 428 429
v -2258.4810 -1668.1926 288.3994
v -2257.7584 -1669.8055 288.2992
v -2258.4070 -1668.2087 288.2994
f 430 431 432
v -2259.9183 -1667.8748 288.8329
v -2260.0896 -1667.9454 289.0479
v -2260.1015 -1669.7921 291.8383
f 433 434 435
v -2260.1015 -1669.7921 291.8383
v -2258.4810 -1668.1926 288.3994
v -2259.9183 -1667.8748 288.8329
f 436 437 438
v -2261.1888 -1668.4024 289.0614
v -2261.2322 -1667.9171 288.2985
v -2261.7458 -1668.1258 288.2982
f 439 440 441
v -2260.0896 -1667.9454 289.0479
v -2261.1888 -1668.4024 289.0614
v -2260.1015 -1669.7921 291.8383
f 442 443 444
v -2261.7458 -1668.1258 288.2982
v -2260.1015 -1669.7921 291.8383
v -2261.1888 -1668.4024 289.0614
f 445 446 447
v -2261.7458 -1668.1258 288.2982
v -2262.4422 -1669.7779 288.2976
v -2260.1015 -1669.7921 291.8383
f 448 449 450
v -2261.7657 -1671.4367 288.2974
v -2260.1015 -1669.7921 291.8383
v -2262.4422 -1669.7779 288.2976
f 451 452 453
v -2258.4495 -1671.4529 272.6871
v -2258.4548 -1671.4565 288.2985
v -2259.6861 -1671.9573 288.2980
f 454 455 456
v -2257.7530 -1669.8017 272.6878
v -2257.7584 -1669.8055 288.2992
v -2258.4548 -1671.4565 288.2985
f 457 458 459
v -2258.4017 -1668.2051 272.6880
v -2258.4070 -1668.2087 288.2994
v -2257.7584 -1669.8055 288.2992
f 460 461 462
v -2257.7530 -1669.8017 272.6878
v -2259.6808 -1671.9535 272.6866
v -2260.0175 -1671.8647 272.6865
f 463 464 465
v -2259.6808 -1671.9535 272.6866
v -2257.7530 -1669.8017 272.6878
v -2258.4495 -1671.4529 272.6871
f 466 467 468
v -2257.7530 -1669.8017 272.6878
v -2260.0175 -1671.8647 272.6865
v -2258.4017 -1668.2051 272.6880
f 469 470 471
v -2260.0840 -1667.9415 272.6875
v -2259.9128 -1667.8709 272.6875
v -2260.0175 -1671.8647 272.6865
f 472 473 474
v -2259.9128 -1667.8709 272.6875
v -2258.4017 -1668.2051 272.6880
v -2260.0175 -1671.8647 272.6865
f 475 476 477
v -2260.0840 -1667.9415 272.6875
v -2260.0175 -1671.8647 272.6865
v -2260.2241 -1668.0001 272.6874
f 478 479 480
v -2260.8800 -1671.8079 283.4498
v -2260.8817 -1671.8091 288.2976
v -2261.7642 -1671.4357 284.0676
f 481 482 483
v -2261.7443 -1668.1248 283.9274
v -2261.7458 -1668.1258 288.2982
v -2261.2322 -1667.9171 288.2985
f 484 485 486
v -2262.4410 -1669.7770 284.4878
v -2262.4422 -1669.7779 288.2976
v -2261.7458 -1668.1258 288.2982
f 487 488 489
v -2261.7642 -1671.4357 284.0676
v -2261.7657 -1671.4367 288.2974
v -2262.4410 -1669.7770 284.4878
f 490 491 492
v -2252.2631 -1664.9945 272.6161
v -2252.5429 -1659.7468 272.3214
v -2252.5431 -1659.7469 272.6174
f 493 494 495
v -2252.5429 -1659.7468 272.3214
v -2252.2631 -1664.9945 272.6161
v -2252.2592 -1665.0564 272.3201
f 496 497 498
v -2252.3075 -1664.2158 282.8429
v -2252.2628 -1665.0590 282.8427
v -2252.2663 -1664.9967 282.0137
f 499 500 501
v -2252.2631 -1664.9945 272.6161
v -2252.2663 -1664.9967 282.0137
v -2252.2628 -1665.0590 282.8427
f 502 503 504
v -2252.2628 -1665.0590 282.8427
v -2252.2592 -1665.0564 272.3201
v -2252.2631 -1664.9945 272.6161
f 505 506 507
v -2248.8113 -1660.1858 272.6186
v -2252.5431 -1659.7469 272.6174
v -2248.8454 -1659.5218 272.6187
f 508 509 510
v -2248.6659 -1663.0392 272.6179
v -2252.5431 -1659.7469 272.6174
v -2248.8113 -1660.1858 272.6186
f 511 512 513
v -2248.6659 -1663.0392 272.6179
v -2248.5766 -1664.7964 272.6174
v -2252.2631 -1664.9945 272.6161
f 514 515 516
v -2252.5431 -1659.7469 272.6174
v -2248.6659 -1663.0392 272.6179
v -2252.2631 -1664.9945 272.6161
f 517 518 519
v -2252.3315 -1664.1938 282.8679
v -2248.6210 -1663.9948 282.8692
v -2248.7181 -1662.0916 283.4386
f 520 521 522
v -2248.7181 -1662.0916 283.4386
v -2252.9416 -1662.3182 283.4371
v -2252.3315 -1664.1938 282.8679
f 523 524 525
v -2252.3075 -1664.2158 282.8429
v -2248.5799 -1664.7987 282.0150
v -2248.6210 -1663.9948 282.8692
f 526 527 528
v -2248.6210 -1663.9948 282.8692
v -2252.3315 -1664.1938 282.8679
v -2252.3075 -1664.2158 282.8429
f 529 530 531
v -2248.5799 -1664.7987 282.0150
v -2252.3075 -1664.2158 282.8429
v -2252.2663 -1664.9967 282.0137
f 532 533 534
v -2252.5352 -1660.3883 282.8688
v -2248.7181 -1662.0916 283.4386
v -2248.8147 -1660.1883 282.8702
f 535 536 537
v -2248.7181 -1662.0916 283.4386
v -2252.5352 -1660.3883 282.8688
v -2252.9416 -1662.3182 283.4371
f 538 539 540
v -2248.8147 -1660.1883 282.8702
v -2252.5142 -1660.3633 282.8438
v -2252.5352 -1660.3883 282.8688
f 541 542 543
v -2248.8487 -1659.5239 282.1653
v -2252.5463 -1659.7491 282.1920
v -2248.8147 -1660.1883 282.8702
f 544 545 546
v -2252.5142 -1660.3633 282.8438
v -2248.8147 -1660.1883 282.8702
v -2252.5463 -1659.7491 282.1920
f 547 548 549
v -2248.5766 -1664.7964 272.6174
v -2248.5799 -1664.7987 282.0150
v -2252.2663 -1664.9967 282.0137
f 550 551 552
v -2252.9041 -1665.0874 283.5593
v -2252.8869 -1665.3705 283.5563
v -2252.8753 -1665.5464 283.3442
f 553 554 555
v -2252.8715 -1665.5438 272.3197
v -2252.9012 -1665.0854 275.1297
v -2252.9041 -1665.0874 283.5593
f 556 557 558
v -2252.9003 -1665.0848 272.3198
v -2252.9012 -1665.0854 275.1297
v -2252.8830 -1665.3677 272.3198
f 559 560 561
v -2252.8715 -1665.5438 272.3197
v -2252.8830 -1665.3677 272.3198
v -2252.9012 -1665.0854 275.1297
f 562 563 564
v -2252.8715 -1665.5438 272.3197
v -2252.9041 -1665.0874 283.5593
v -2252.8753 -1665.5464 283.3442
f 565 566 567
v -2253.3348 -1658.2177 272.3215
v -2253.3386 -1658.2203 283.5760
v -2253.3358 -1658.2673 283.6360
f 568 569 570
v -2253.3348 -1658.2177 272.3215
v -2253.3358 -1658.2673 283.6360
v -2253.2350 -1659.7889 272.3211
f 571 572 573
v -2253.2389 -1659.7916 283.6186
v -2253.2350 -1659.7889 272.3211
v -2253.3358 -1658.2673 283.6360
f 574 575 576
v -2253.3386 -1658.2203 283.5760
v -2274.1010 -1659.4838 272.3138
v -2274.1024 -1659.4849 276.3366
f 577 578 579
v -2274.1010 -1659.4838 272.3138
v -2253.3386 -1658.2203 283.5760
v -2253.3348 -1658.2177 272.3215
f 580 581 582
v -2273.3498 -1659.4406 283.7566
v -2253.3386 -1658.2203 283.5760
v -2274.1048 -1659.4864 283.1773
f 583 584 585
v -2274.1048 -1659.4864 283.1773
v -2253.3386 -1658.2203 283.5760
v -2274.1024 -1659.4849 276.3366
f 586 587 588
v -2272.8544 -1680.8305 278.4653
v -2260.6966 -1680.1206 272.3130
v -2260.7004 -1680.1234 283.6376
f 589 590 591
v -2260.1304 -1680.0872 272.3133
v -2260.1342 -1680.0898 283.2319
v -2260.6966 -1680.1206 272.3130
f 592 593 594
v -2260.7004 -1680.1234 283.6376
v -2260.6966 -1680.1206 272.3130
v -2260.1342 -1680.0898 283.2319
f 595 596 597
v -2272.8544 -1680.8305 278.4653
v -2260.7004 -1680.1234 283.6376
v -2272.4471 -1680.8078 283.5663
f 598 599 600
v -2272.8544 -1680.8305 278.4653
v -2272.8523 -1680.8290 272.3085
v -2260.6966 -1680.1206 272.3130
f 601 602 603
v -2272.8561 -1680.8316 283.2531
v -2272.8544 -1680.8305 278.4653
v -2272.4471 -1680.8078 283.5663
f 604 605 606
v -2261.4109 -1665.9250 285.3690
v -2259.6641 -1665.8472 283.4168
v -2259.6647 -1665.8476 285.3138
f 607 608 609
v -2259.6641 -1665.8472 283.4168
v -2252.8715 -1665.5438 272.3197
v -2252.8753 -1665.5464 283.3442
f 610 611 612
v -2252.8715 -1665.5438 272.3197
v -2259.6641 -1665.8472 283.4168
v -2261.4064 -1665.9218 272.3166
f 613 614 615
v -2261.4109 -1665.9250 285.3690
v -2261.4065 -1665.9219 272.5986
v -2259.6641 -1665.8472 283.4168
f 616 617 618
v -2261.4065 -1665.9219 272.5986
v -2261.4064 -1665.9218 272.3166
v -2259.6641 -1665.8472 283.4168
f 619 620 621
v -2259.6861 -1671.9573 288.2980
v -2260.1130 -1671.8452 288.7328
v -2260.8973 -1671.6381 288.5456
f 622 623 624
v -2259.6808 -1671.9535 272.6866
v -2259.6861 -1671.9573 288.2980
v -2260.8956 -1671.6369 283.4548
f 625 626 627
v -2260.8973 -1671.6381 288.5456
v -2260.8956 -1671.6369 283.4548
v -2259.6861 -1671.9573 288.2980
f 628 629 630
v -2260.0174 -1671.8646 272.3156
v -2260.0175 -1671.8647 272.6865
v -2260.8918 -1671.6342 272.3153
f 631 632 633
v -2260.8956 -1671.6369 283.4548
v -2260.0175 -1671.8647 272.6865
v -2259.6808 -1671.9535 272.6866
f 634 635 636
v -2260.8918 -1671.6342 272.3153
v -2260.0175 -1671.8647 272.6865
v -2260.8956 -1671.6369 283.4548
f 637 638 639
v -2260.8956 -1671.6369 283.4548
v -2260.8973 -1671.6381 288.5456
v -2260.8817 -1671.8091 288.2976
f 640 641 642
v -2260.8918 -1671.6342 272.3153
v -2260.8956 -1671.6369 283.4548
v -2260.8800 -1671.8079 283.4498
f 643 644 645
v -2260.8817 -1671.8091 288.2976
v -2260.8800 -1671.8079 283.4498
v -2260.8956 -1671.6369 283.4548
f 646 647 648
v -2260.8800 -1671.8079 283.4498
v -2260.1304 -1680.0872 272.3133
v -2260.8918 -1671.6342 272.3153
f 649 650 651
v -2260.1342 -1680.0898 283.2319
v -2260.1304 -1680.0872 272.3133
v -2260.8800 -1671.8079 283.4498
f 652 653 654
v -2258.4070 -1668.2087 288.2994
v -2259.9183 -1667.8748 288.8329
v -2258.4810 -1668.1926 288.3994
f 655 656 657
v -2259.9128 -1667.8709 272.6875
v -2259.9183 -1667.8748 288.8329
v -2258.4070 -1668.2087 288.2994
f 658 659 660
v -2258.4070 -1668.2087 288.2994
v -2258.4017 -1668.2051 272.6880
v -2259.9128 -1667.8709 272.6875
f 661 662 663
v -2261.1888 -1668.4024 289.0614
v -2260.0896 -1667.9454 289.0479
v -2259.9183 -1667.8748 288.8329
f 664 665 666
v -2261.1888 -1668.4024 289.0614
v -2259.9183 -1667.8748 288.8329
v -2261.1869 -1668.4011 283.5396
f 667 668 669
v -2260.2241 -1668.0001 272.6874
v -2261.1831 -1668.3985 272.3161
v -2261.1869 -1668.4011 283.5396
f 670 671 672
v -2259.9128 -1667.8709 272.6875
v -2261.1869 -1668.4011 283.5396
v -2259.9183 -1667.8748 288.8329
f 673 674 675
v -2261.1869 -1668.4011 283.5396
v -2259.9128 -1667.8709 272.6875
v -2260.0840 -1667.9415 272.6875
f 676 677 678
v -2260.2240 -1668.0000 272.3165
v -2261.1831 -1668.3985 272.3161
v -2260.2241 -1668.0001 272.6874
f 679 680 681
v -2261.1869 -1668.4011 283.5396
v -2260.0840 -1667.9415 272.6875
v -2260.2241 -1668.0001 272.6874
f 682 683 684
v -2261.4109 -1665.9250 285.3690
v -2261.1831 -1668.3985 272.3161
v -2261.4065 -1665.9219 272.5986
f 685 686 687
v -2261.3559 -1666.5227 283.5890
v -2261.1831 -1668.3985 272.3161
v -2261.4109 -1665.9250 285.3690
f 688 689 690
v -2261.4064 -1665.9218 272.3166
v -2261.4065 -1665.9219 272.5986
v -2261.1831 -1668.3985 272.3161
f 691 692 693
v -2261.1831 -1668.3985 272.3161
v -2261.3559 -1666.5227 283.5890
v -2261.2306 -1667.9161 283.5527
f 694 695 696
v -2261.1869 -1668.4011 283.5396
v -2261.2322 -1667.9171 288.2985
v -2261.1888 -1668.4024 289.0614
f 697 698 699
v -2261.1869 -1668.4011 283.5396
v -2261.2306 -1667.9161 283.5527
v -2261.2322 -1667.9171 288.2985
f 700 701 702
v -2261.1831 -1668.3985 272.3161
v -2261.2306 -1667.9161 283.5527
v -2261.1869 -1668.4011 283.5396
f 703 704 705
v -2261.4109 -1665.9250 285.3690
v -2261.3565 -1666.5231 285.3679
v -2261.3559 -1666.5227 283.5890
f 706 707 708
v -2253.2350 -1659.7889 272.3211
v -2253.2389 -1659.7916 283.6186
v -2252.5465 -1659.7492 282.8440
f 709 710 711
v -2252.5465 -1659.7492 282.8440
v -2252.5463 -1659.7491 282.1920
v -2253.2350 -1659.7889 272.3211
f 712 713 714
v -2252.5431 -1659.7469 272.6174
v -2252.5463 -1659.7491 282.1920
v -2248.8487 -1659.5239 282.1653
f 715 716 717
v -2248.8487 -1659.5239 282.1653
v -2248.8454 -1659.5218 272.6187
v -2252.5431 -1659.7469 272.6174
f 718 719 720
v -2252.5431 -1659.7469 272.6174
v -2252.5429 -1659.7468 272.3214
v -2253.2350 -1659.7889 272.3211
f 721 722 723
v -2252.5463 -1659.7491 282.1920
v -2252.5431 -1659.7469 272.6174
v -2253.2350 -1659.7889 272.3211
f 724 725 726
v -2248.8487 -1659.5239 282.1653
v -2248.8113 -1660.1858 272.6186
v -2248.8454 -1659.5218 272.6187
f 727 728 729
v -2248.5766 -1664.7964 272.6174
v -2248.6659 -1663.0392 272.6179
v -2248.5799 -1664.7987 282.0150
f 730 731 732
v -2248.8487 -1659.5239 282.1653
v -2248.6659 -1663.0392 272.6179
v -2248.8113 -1660.1858 272.6186
f 733 734 735
v -2248.7181 -1662.0916 283.4386
v -2248.8487 -1659.5239 282.1653
v -2248.8147 -1660.1883 282.8702
f 736 737 738
v -2248.5799 -1664.7987 282.0150
v -2248.7181 -1662.0916 283.4386
v -2248.6210 -1663.9948 282.8692
f 739 740 741
v -2248.8487 -1659.5239 282.1653
v -2248.7181 -1662.0916 283.4386
v -2248.5799 -1664.7987 282.0150
f 742 743 744
v -2248.6659 -1663.0392 272.6179
v -2248.8487 -1659.5239 282.1653
v -2248.5799 -1664.7987 282.0150
f 745 746 747
v -2260.2241 -1668.0001 272.6874
v -2260.0175 -1671.8647 272.6865
v -2260.0174 -1671.8646 272.3156
f 748 749 750
v -2272.8544 -1680.8305 278.4653
v -2273.1677 -1675.4948 283.2344
v -2273.4804 -1670.1591 283.2147
f 751 752 753
v -2273.7921 -1664.8233 283.1960
v -2274.1048 -1659.4864 283.1773
v -2274.1024 -1659.4849 276.3366
f 754 755 756
v -2262.3713 -1666.5772 284.3166
v -2262.2535 -1668.7627 285.3990
v -2262.2532 -1668.7624 284.3151
f 757 758 759
v -2261.3565 -1666.5231 285.3679
v -2262.3716 -1666.5774 285.3995
v -2262.3713 -1666.5772 284.3166
f 760 761 762
v -2258.4495 -1671.4529 272.6871
v -2259.6861 -1671.9573 288.2980
v -2259.6808 -1671.9535 272.6866
f 763 764 765
v -2257.7530 -1669.8017 272.6878
v -2258.4548 -1671.4565 288.2985
v -2258.4495 -1671.4529 272.6871
f 766 767 768
v -2258.4017 -1668.2051 272.6880
v -2257.7584 -1669.8055 288.2992
v -2257.7530 -1669.8017 272.6878
f 769 770 771
v -2260.8817 -1671.8091 288.2976
v -2261.7657 -1671.4367 288.2974
v -2261.7642 -1671.4357 284.0676
f 772 773 774
v -2261.7443 -1668.1248 283.9274
v -2261.2322 -1667.9171 288.2985
v -2261.2306 -1667.9161 283.5527
f 775 776 777
v -2262.4410 -1669.7770 284.4878
v -2261.7458 -1668.1258 288.2982
v -2261.7443 -1668.1248 283.9274
f 778 779 780
v -2261.7657 -1671.4367 288.2974
v -2262.4422 -1669.7779 288.2976
v -2262.4410 -1669.7770 284.4878
f 781 782 783
v -2248.5766 -1664.7964 272.6174
v -2252.2663 -1664.9967 282.0137
v -2252.2631 -1664.9945 272.6161
f 784 785 786

g building_ID_AB7E99BC-07E8-4732-A70E-74B424367040
v -2245.4336 -1661.9154 283.4398
v -2243.5293 -1663.7214 282.8711
v -2242.7472 -1661.7707 283.4408
f 787 788 789
v -2243.5293 -1663.7214 282.8711
v -2245.4336 -1661.9154 283.4398
v -2245.3615 -1663.8195 282.8704
f 790 791 792
v -2245.3615 -1663.8195 282.8704
v -2244.8133 -1664.5968 282.0164
v -2243.5293 -1663.7214 282.8711
f 793 794 795
v -2244.8133 -1664.5968 282.0164
v -2245.3615 -1663.8195 282.8704
v -2245.3314 -1664.6244 282.0162
f 796 797 798
v -2245.4336 -1661.9154 283.4398
v -2242.7472 -1661.7707 283.4408
v -2243.7331 -1659.9159 282.8720
f 799 800 801
v -2243.7331 -1659.9159 282.8720
v -2245.5043 -1660.0112 282.8714
v -2245.4336 -1661.9154 283.4398
f 802 803 804
v -2245.5043 -1660.0112 282.8714
v -2243.7331 -1659.9159 282.8720
v -2245.1038 -1659.1830 282.0177
f 805 806 807
v -2245.1038 -1659.1830 282.0177
v -2245.5338 -1659.2059 282.0176
v -2245.5043 -1660.0112 282.8714
f 808 809 810
v -2245.3310 -1664.6240 280.7962
v -2244.8133 -1664.5968 282.0164
v -2245.3314 -1664.6244 282.0162
f 811 812 813
v -2245.5335 -1659.2056 281.0046
v -2245.5338 -1659.2059 282.0176
v -2245.1038 -1659.1830 282.0177
f 814 815 816
v -2238.6304 -1657.5025 282.0204
v -2241.5144 -1665.4760 284.1033
v -2238.0787 -1668.4458 282.0398
f 817 818 819
v -2238.0437 -1668.4439 282.0178
v -2238.6304 -1657.5025 282.0204
v -2238.0787 -1668.4458 282.0398
f 820 821 822
v -2241.7916 -1660.3144 284.1045
v -2241.5144 -1665.4760 284.1033
v -2239.1935 -1657.5300 282.3752
f 823 824 825
v -2238.6304 -1657.5025 282.0204
v -2239.1935 -1657.5300 282.3752
v -2241.5144 -1665.4760 284.1033
f 826 827 828
v -2241.5144 -1665.4760 284.1033
v -2244.5857 -1668.8324 282.0154
v -2238.0787 -1668.4458 282.0398
f 829 830 831
v -2237.4632 -1662.9250 279.9645
v -2238.0437 -1668.4439 282.0178
v -2237.1639 -1668.3908 279.9492
f 832 833 834
v -2238.6304 -1657.5025 282.0204
v -2237.4632 -1662.9250 279.9645
v -2237.7625 -1657.4592 279.9809
f 835 836 837
v -2238.0437 -1668.4439 282.0178
v -2237.4632 -1662.9250 279.9645
v -2238.6304 -1657.5025 282.0204
f 838 839 840
v -2243.5293 -1663.7214 282.8711
v -2241.5144 -1665.4760 284.1033
v -2242.7472 -1661.7707 283.4408
f 841 842 843
v -2241.7916 -1660.3144 284.1045
v -2242.7472 -1661.7707 283.4408
v -2241.5144 -1665.4760 284.1033
f 844 845 846
v -2244.8133 -1664.5968 282.0164
v -2244.5857 -1668.8324 282.0154
v -2243.5293 -1663.7214 282.8711
f 847 848 849
v -2241.5144 -1665.4760 284.1033
v -2243.5293 -1663.7214 282.8711
v -2244.5857 -1668.8324 282.0154
f 850 851 852
v -2242.7472 -1661.7707 283.4408
v -2241.7916 -1660.3144 284.1045
v -2243.7331 -1659.9159 282.8720
f 853 854 855
v -2244.6512 -1657.7973 282.3563
v -2243.7331 -1659.9159 282.8720
v -2241.7916 -1660.3144 284.1045
f 856 857 858
v -2245.1772 -1657.8228 282.0181
v -2245.1038 -1659.1830 282.0177
v -2244.6512 -1657.7973 282.3563
f 859 860 861
v -2243.7331 -1659.9159 282.8720
v -2244.6512 -1657.7973 282.3563
v -2245.1038 -1659.1830 282.0177
f 862 863 864
v -2241.7916 -1660.3144 284.1045
v -2239.1935 -1657.5300 282.3752
v -2244.6512 -1657.7973 282.3563
f 865 866 867
v -2237.1623 -1668.3897 275.3914
v -2237.4632 -1662.9250 279.9645
v -2237.1633 -1668.3903 278.1262
f 868 869 870
v -2237.4632 -1662.9250 279.9645
v -2237.7600 -1657.4576 272.6872
v -2237.7617 -1657.4588 277.7540
f 871 872 873
v -2237.1639 -1668.3908 279.9492
v -2237.1633 -1668.3903 278.1262
v -2237.4632 -1662.9250 279.9645
f 874 875 876
v -2237.4632 -1662.9250 279.9645
v -2237.1623 -1668.3897 275.3914
v -2237.7600 -1657.4576 272.6872
f 877 878 879
v -2237.7600 -1657.4576 272.6872
v -2237.1623 -1668.3897 275.3914
v -2237.1614 -1668.3890 272.6845
f 880 881 882
v -2244.5857 -1668.8324 282.0154
v -2244.8133 -1664.5968 282.0164
v -2245.3310 -1664.6240 280.7962
f 883 884 885
v -2245.3310 -1664.6240 280.7962
v -2245.1723 -1668.8655 280.6332
v -2244.5857 -1668.8324 282.0154
f 886 887 888
v -2245.1038 -1659.1830 282.0177
v -2245.1772 -1657.8228 282.0181
v -2245.5849 -1657.8426 281.0579
f 889 890 891
v -2245.5849 -1657.8426 281.0579
v -2245.5335 -1659.2056 281.0046
v -2245.1038 -1659.1830 282.0177
f 892 893 894
v -2245.4336 -1661.9154 283.4398
v -2245.5335 -1659.2056 281.0046
v -2245.3615 -1663.8195 282.8704
f 895 896 897
v -2245.5335 -1659.2056 281.0046
v -2245.4336 -1661.9154 283.4398
v -2245.5043 -1660.0112 282.8714
f 898 899 900
v -2245.5335 -1659.2056 281.0046
v -2245.3310 -1664.6240 280.7962
v -2245.3615 -1663.8195 282.8704
f 901 902 903
v -2245.1696 -1668.8635 272.6816
v -2245.1723 -1668.8655 280.6332
v -2245.3282 -1664.6221 272.6826
f 904 905 906
v -2245.1723 -1668.8655 280.6332
v -2245.3310 -1664.6240 280.7962
v -2245.4300 -1661.9129 272.6833
f 907 908 909
v -2245.3310 -1664.6240 280.7962
v -2245.3314 -1664.6244 282.0162
v -2245.3615 -1663.8195 282.8704
f 910 911 912
v -2245.5335 -1659.2056 281.0046
v -2245.5043 -1660.0112 282.8714
v -2245.5338 -1659.2059 282.0176
f 913 914 915
v -2245.5820 -1657.8405 272.6843
v -2245.5335 -1659.2056 281.0046
v -2245.5849 -1657.8426 281.0579
f 916 917 918
v -2245.5820 -1657.8405 272.6843
v -2245.5325 -1659.1426 272.6840
v -2245.3310 -1664.6240 280.7962
f 919 920 921
v -2245.3282 -1664.6221 272.6826
v -2245.1723 -1668.8655 280.6332
v -2245.3581 -1663.8170 272.6828
f 922 923 924
v -2245.3581 -1663.8170 272.6828
v -2245.1723 -1668.8655 280.6332
v -2245.4300 -1661.9129 272.6833
f 925 926 927
v -2245.3310 -1664.6240 280.7962
v -2245.5325 -1659.1426 272.6840
v -2245.4300 -1661.9129 272.6833
f 928 929 930
v -2245.5820 -1657.8405 272.6843
v -2245.3310 -1664.6240 280.7962
v -2245.5335 -1659.2056 281.0046
f 931 932 933
v -2245.1723 -1668.8655 280.6332
v -2238.0787 -1668.4458 282.0398
v -2244.5857 -1668.8324 282.0154
f 934 935 936
v -2237.1639 -1668.3908 279.9492
v -2238.0787 -1668.4458 282.0398
v -2245.1723 -1668.8655 280.6332
f 937 938 939
v -2238.0437 -1668.4439 282.0178
v -2238.0787 -1668.4458 282.0398
v -2237.1639 -1668.3908 279.9492
f 940 941 942
v -2237.1633 -1668.3903 278.1262
v -2237.1639 -1668.3908 279.9492
v -2245.1723 -1668.8655 280.6332
f 943 944 945
v -2237.1633 -1668.3903 278.1262
v -2245.1723 -1668.8655 280.6332
v -2244.5826 -1668.8301 272.6818
f 946 947 948
v -2237.1623 -1668.3897 275.3914
v -2237.1633 -1668.3903 278.1262
v -2244.5826 -1668.8301 272.6818
f 949 950 951
v -2245.1696 -1668.8635 272.6816
v -2244.5826 -1668.8301 272.6818
v -2245.1723 -1668.8655 280.6332
f 952 953 954
v -2238.0375 -1668.4417 272.6842
v -2237.1623 -1668.3897 275.3914
v -2244.5826 -1668.8301 272.6818
f 955 956 957
v -2238.0375 -1668.4417 272.6842
v -2237.1614 -1668.3890 272.6845
v -2237.1623 -1668.3897 275.3914
f 958 959 960
v -2244.6479 -1657.7950 272.6847
v -2245.5325 -1659.1426 272.6840
v -2245.5820 -1657.8405 272.6843
f 961 962 963
v -2245.5325 -1659.1426 272.6840
v -2244.6479 -1657.7950 272.6847
v -2237.7600 -1657.4576 272.6872
f 964 965 966
v -2238.0375 -1668.4417 272.6842
v -2237.7600 -1657.4576 272.6872
v -2237.1614 -1668.3890 272.6845
f 967 968 969
v -2238.0375 -1668.4417 272.6842
v -2244.5826 -1668.8301 272.6818
v -2237.7600 -1657.4576 272.6872
f 970 971 972
v -2237.7600 -1657.4576 272.6872
v -2245.3581 -1663.8170 272.6828
v -2245.4300 -1661.9129 272.6833
f 973 974 975
v -2245.4300 -1661.9129 272.6833
v -2245.5325 -1659.1426 272.6840
v -2237.7600 -1657.4576 272.6872
f 976 977 978
v -2245.1696 -1668.8635 272.6816
v -2245.3282 -1664.6221 272.6826
v -2244.5826 -1668.8301 272.6818
f 979 980 981
v -2245.3282 -1664.6221 272.6826
v -2245.3581 -1663.8170 272.6828
v -2237.7600 -1657.4576 272.6872
f 982 983 984
v -2244.5826 -1668.8301 272.6818
v -2245.3282 -1664.6221 272.6826
v -2237.7600 -1657.4576 272.6872
f 985 986 987
v -2237.7625 -1657.4592 279.9809
v -2239.1935 -1657.5300 282.3752
v -2238.6304 -1657.5025 282.0204
f 988 989 990
v -2237.7617 -1657.4588 277.7540
v -2239.1935 -1657.5300 282.3752
v -2237.7625 -1657.4592 279.9809
f 991 992 993
v -2245.5849 -1657.8426 281.0579
v -2245.1772 -1657.8228 282.0181
v -2244.6512 -1657.7973 282.3563
f 994 995 996
v -2244.6512 -1657.7973 282.3563
v -2237.7617 -1657.4588 277.7540
v -2245.5849 -1657.8426 281.0579
f 997 998 999
v -2237.7617 -1657.4588 277.7540
v -2244.6512 -1657.7973 282.3563
v -2239.1935 -1657.5300 282.3752
f 1000 1001 1002
v -2237.7617 -1657.4588 277.7540
v -2237.7600 -1657.4576 272.6872
v -2244.6479 -1657.7950 272.6847
f 1003 1004 1005
v -2245.5849 -1657.8426 281.0579
v -2244.6479 -1657.7950 272.6847
v -2245.5820 -1657.8405 272.6843
f 1006 1007 1008
v -2244.6479 -1657.7950 272.6847
v -2245.5849 -1657.8426 281.0579
v -2237.7617 -1657.4588 277.7540
f 1009 1010 1011
v -2237.7617 -1657.4588 277.7540
v -2237.7625 -1657.4592 279.9809
v -2237.4632 -1662.9250 279.9645
f 1012 1013 1014

g building_ID_96F6BB54-3C4B-4CC1-8EB2-DE0283E8A450
v -2304.4656 -1497.0574 283.5000
v -2311.6823 -1497.7360 283.4972
v -2311.5497 -1499.0932 282.6629
f 1015 1016 1017
v -2311.5497 -1499.0932 282.6629
v -2304.5395 -1501.8625 280.5749
v -2302.1234 -1499.0233 282.1683
f 1018 1019 1020
v -2302.1234 -1499.0233 282.1683
v -2304.4656 -1497.0574 283.5000
v -2311.5497 -1499.0932 282.6629
f 1021 1022 1023
v -2304.5395 -1501.8625 280.5749
v -2311.5497 -1499.0932 282.6629
v -2311.2132 -1502.5176 280.5563
f 1024 1025 1026
v -2311.8882 -1495.6332 282.2046
v -2305.3251 -1492.4365 280.6358
v -2312.1387 -1493.0612 280.6242
f 1027 1028 1029
v -2311.6823 -1497.7360 283.4972
v -2305.3251 -1492.4365 280.6358
v -2311.8882 -1495.6332 282.2046
f 1030 1031 1032
v -2302.5307 -1494.6883 282.1693
v -2305.3251 -1492.4365 280.6358
v -2304.4656 -1497.0574 283.5000
f 1033 1034 1035
v -2311.6823 -1497.7360 283.4972
v -2304.4656 -1497.0574 283.5000
v -2305.3251 -1492.4365 280.6358
f 1036 1037 1038
v -2319.9036 -1492.4293 270.8550
v -2319.9036 -1492.4293 270.9330
v -2312.3707 -1491.7215 270.9359
f 1039 1040 1041
v -2318.7894 -1504.2731 270.8526
v -2318.7894 -1504.2731 270.9306
v -2319.9036 -1492.4293 270.9330
f 1042 1043 1044
v -2312.2439 -1493.0715 283.6851
v -2320.2152 -1491.8939 282.4775
v -2311.8893 -1495.6338 285.3075
f 1045 1046 1047
v -2311.8893 -1495.6338 285.3075
v -2312.1398 -1493.0618 283.6851
v -2312.2439 -1493.0715 283.6851
f 1048 1049 1050
v -2327.4612 -1498.1571 285.9633
v -2313.0764 -1497.3928 286.3367
v -2311.8893 -1495.6338 285.3075
f 1051 1052 1053
v -2320.2152 -1491.8939 282.4775
v -2312.2439 -1493.0715 283.6851
v -2312.4332 -1491.1318 282.4615
f 1054 1055 1056
v -2327.4612 -1498.1571 285.9633
v -2320.2152 -1491.8939 282.4775
v -2327.9972 -1492.6560 282.4935
f 1057 1058 1059
v -2311.8893 -1495.6338 285.3075
v -2320.2152 -1491.8939 282.4775
v -2327.4612 -1498.1571 285.9633
f 1060 1061 1062
v -2313.0764 -1497.3928 286.3367
v -2327.4612 -1498.1571 285.9633
v -2326.9277 -1498.6957 286.3313
f 1063 1064 1065
v -2326.9277 -1498.6957 286.3313
v -2327.4612 -1498.1571 285.9633
v -2327.3483 -1499.3184 285.9660
f 1066 1067 1068
v -2313.0764 -1497.3928 286.3367
v -2311.5681 -1498.9117 285.2969
v -2311.8893 -1495.6338 285.3075
f 1069 1070 1071
v -2327.9951 -1492.6548 276.7118
v -2327.9962 -1492.6554 279.6026
v -2320.2152 -1491.8939 282.4775
f 1072 1073 1074
v -2327.9931 -1492.6536 270.9300
v -2327.9951 -1492.6548 276.7118
v -2320.4542 -1491.9149 270.9329
f 1075 1076 1077
v -2327.9951 -1492.6548 276.7118
v -2320.2152 -1491.8939 282.4775
v -2312.4332 -1491.1318 282.4615
f 1078 1079 1080
v -2312.4332 -1491.1318 282.4615
v -2312.4302 -1491.1300 273.7899
v -2327.9951 -1492.6548 276.7118
f 1081 1082 1083
v -2312.4292 -1491.1294 270.9360
v -2327.9951 -1492.6548 276.7118
v -2312.4302 -1491.1300 273.7899
f 1084 1085 1086
v -2320.4542 -1491.9149 270.9329
v -2327.9951 -1492.6548 276.7118
v -2312.4292 -1491.1294 270.9360
f 1087 1088 1089
v -2327.3430 -1499.3152 270.9286
v -2319.9036 -1492.4293 270.9330
v -2318.7894 -1504.2731 270.9306
f 1090 1091 1092
v -2320.4542 -1491.9149 270.9329
v -2312.3707 -1491.7215 270.9359
v -2319.9036 -1492.4293 270.9330
f 1093 1094 1095
v -2312.4292 -1491.1294 270.9360
v -2312.3707 -1491.7215 270.9359
v -2320.4542 -1491.9149 270.9329
f 1096 1097 1098
v -2319.9036 -1492.4293 270.9330
v -2327.4559 -1498.1539 270.9289
v -2320.4542 -1491.9149 270.9329
f 1099 1100 1101
v -2327.4559 -1498.1539 270.9289
v -2319.9036 -1492.4293 270.9330
v -2327.3430 -1499.3152 270.9286
f 1102 1103 1104
v -2327.3430 -1499.3152 270.9286
v -2318.7894 -1504.2731 270.9306
v -2326.7824 -1505.0567 270.9275
f 1105 1106 1107
v -2327.4559 -1498.1539 270.9289
v -2327.9931 -1492.6536 270.9300
v -2320.4542 -1491.9149 270.9329
f 1108 1109 1110
v -2299.0569 -1502.3891 280.4698
v -2304.2823 -1502.5152 280.6908
v -2304.2452 -1502.8922 280.4588
f 1111 1112 1113
v -2304.2823 -1502.5152 280.6908
v -2299.0569 -1502.3891 280.4698
v -2302.0418 -1499.8936 282.1672
f 1114 1115 1116
v -2305.4790 -1490.5301 280.6512
v -2302.7136 -1492.7518 282.1687
v -2300.4055 -1489.9357 280.5822
f 1117 1118 1119
v -2300.4055 -1489.9357 280.5822
v -2305.4878 -1490.4420 280.5972
v -2305.4790 -1490.5301 280.6512
f 1120 1121 1122
v -2302.7136 -1492.7518 282.1687
v -2305.2961 -1492.4336 280.6538
v -2302.5307 -1494.6883 282.1693
f 1123 1124 1125
v -2305.3251 -1492.4365 280.6358
v -2302.5307 -1494.6883 282.1693
v -2305.2961 -1492.4336 280.6538
f 1126 1127 1128
v -2305.4790 -1490.5301 280.6512
v -2305.2961 -1492.4336 280.6538
v -2302.7136 -1492.7518 282.1687
f 1129 1130 1131
v -2304.3474 -1501.8441 280.6900
v -2302.0418 -1499.8936 282.1672
v -2302.1234 -1499.0233 282.1683
f 1132 1133 1134
v -2302.1234 -1499.0233 282.1683
v -2304.5395 -1501.8625 280.5749
v -2304.3474 -1501.8441 280.6900
f 1135 1136 1137
v -2302.0418 -1499.8936 282.1672
v -2304.3474 -1501.8441 280.6900
v -2304.2823 -1502.5152 280.6908
f 1138 1139 1140
v -2299.3528 -1497.6979 273.2321
v -2299.8052 -1493.0217 273.2410
v -2298.9028 -1502.3746 280.3738
f 1141 1142 1143
v -2300.1085 -1489.9060 278.0134
v -2300.1093 -1489.9064 280.3973
v -2299.8077 -1493.0232 280.3917
f 1144 1145 1146
v -2300.1068 -1489.9050 273.2466
v -2300.1085 -1489.9060 278.0134
v -2299.2064 -1499.2418 280.3794
f 1147 1148 1149
v -2298.9028 -1502.3746 280.3738
v -2299.8052 -1493.0217 273.2410
v -2300.1068 -1489.9050 273.2466
f 1150 1151 1152
v -2299.9493 -1491.5299 270.8624
v -2300.1060 -1489.9044 270.8627
v -2300.1068 -1489.9050 273.2466
f 1153 1154 1155
v -2299.8052 -1493.0217 273.2410
v -2299.3528 -1497.6979 273.2321
v -2299.5076 -1496.0920 270.8615
f 1156 1157 1158
v -2299.8052 -1493.0217 273.2410
v -2299.5076 -1496.0920 270.8615
v -2299.9493 -1491.5299 270.8624
f 1159 1160 1161
v -2300.1068 -1489.9050 273.2466
v -2299.8052 -1493.0217 273.2410
v -2299.9493 -1491.5299 270.8624
f 1162 1163 1164
v -2298.9020 -1502.3740 277.9899
v -2298.8995 -1502.3726 270.8602
v -2299.3528 -1497.6979 273.2321
f 1165 1166 1167
v -2298.8995 -1502.3726 270.8602
v -2299.5076 -1496.0920 270.8615
v -2299.3528 -1497.6979 273.2321
f 1168 1169 1170
v -2299.2064 -1499.2418 280.3794
v -2299.0569 -1502.3891 280.4698
v -2298.9028 -1502.3746 280.3738
f 1171 1172 1173
v -2302.0418 -1499.8936 282.1672
v -2299.0569 -1502.3891 280.4698
v -2299.2064 -1499.2418 280.3794
f 1174 1175 1176
v -2299.2064 -1499.2418 280.3794
v -2302.1234 -1499.0233 282.1683
v -2302.0418 -1499.8936 282.1672
f 1177 1178 1179
v -2302.1234 -1499.0233 282.1683
v -2302.5307 -1494.6883 282.1693
v -2304.4656 -1497.0574 283.5000
f 1180 1181 1182
v -2300.4055 -1489.9357 280.5822
v -2299.8077 -1493.0232 280.3917
v -2300.1093 -1489.9064 280.3973
f 1183 1184 1185
v -2302.5307 -1494.6883 282.1693
v -2299.2064 -1499.2418 280.3794
v -2299.8077 -1493.0232 280.3917
f 1186 1187 1188
v -2302.5307 -1494.6883 282.1693
v -2299.8077 -1493.0232 280.3917
v -2302.7136 -1492.7518 282.1687
f 1189 1190 1191
v -2300.4055 -1489.9357 280.5822
v -2302.7136 -1492.7518 282.1687
v -2299.8077 -1493.0232 280.3917
f 1192 1193 1194
v -2302.1234 -1499.0233 282.1683
v -2299.2064 -1499.2418 280.3794
v -2302.5307 -1494.6883 282.1693
f 1195 1196 1197
v -2304.3440 -1501.8420 270.8584
v -2304.3474 -1501.8441 280.6900
v -2304.5395 -1501.8625 280.5749
f 1198 1199 1200
v -2305.8384 -1501.9889 270.8578
v -2304.3440 -1501.8420 270.8584
v -2304.5395 -1501.8625 280.5749
f 1201 1202 1203
v -2311.2132 -1502.5176 280.5563
v -2311.2097 -1502.5155 270.8557
v -2305.8384 -1501.9889 270.8578
f 1204 1205 1206
v -2304.5395 -1501.8625 280.5749
v -2311.2132 -1502.5176 280.5563
v -2305.8384 -1501.9889 270.8578
f 1207 1208 1209
v -2312.3707 -1491.7215 270.9359
v -2312.4292 -1491.1294 270.9360
v -2312.4302 -1491.1300 273.7899
f 1210 1211 1212
v -2312.2394 -1493.0689 270.8576
v -2312.3707 -1491.7215 270.8579
v -2312.3707 -1491.7215 270.9359
f 1213 1214 1215
v -2312.3707 -1491.7215 270.9359
v -2312.4302 -1491.1300 273.7899
v -2312.2394 -1493.0689 270.8576
f 1216 1217 1218
v -2312.4302 -1491.1300 273.7899
v -2312.4332 -1491.1318 282.4615
v -2312.2394 -1493.0689 270.8576
f 1219 1220 1221
v -2312.2394 -1493.0689 270.8576
v -2312.4332 -1491.1318 282.4615
v -2312.2439 -1493.0715 283.6851
f 1222 1223 1224
v -2311.1115 -1503.5198 270.8555
v -2311.1155 -1503.5222 282.3870
v -2318.5854 -1504.2527 270.8527
f 1225 1226 1227
v -2318.7894 -1504.2731 270.9306
v -2318.5854 -1504.2527 270.8527
v -2311.1155 -1503.5222 282.3870
f 1228 1229 1230
v -2318.7894 -1504.2731 270.9306
v -2326.7865 -1505.0591 282.3410
v -2326.7824 -1505.0567 270.9275
f 1231 1232 1233
v -2318.5854 -1504.2527 270.8527
v -2318.7894 -1504.2731 270.9306
v -2318.7894 -1504.2731 270.8526
f 1234 1235 1236
v -2311.1155 -1503.5222 282.3870
v -2326.7865 -1505.0591 282.3410
v -2318.7894 -1504.2731 270.9306
f 1237 1238 1239
v -2312.2394 -1493.0689 270.8576
v -2311.2097 -1502.5155 270.8557
v -2318.5854 -1504.2527 270.8527
f 1240 1241 1242
v -2311.2097 -1502.5155 270.8557
v -2311.1115 -1503.5198 270.8555
v -2318.5854 -1504.2527 270.8527
f 1243 1244 1245
v -2304.3440 -1501.8420 270.8584
v -2305.8384 -1501.9889 270.8578
v -2299.5076 -1496.0920 270.8615
f 1246 1247 1248
v -2305.8384 -1501.9889 270.8578
v -2305.2927 -1492.4315 270.8602
v -2299.5076 -1496.0920 270.8615
f 1249 1250 1251
v -2305.2927 -1492.4315 270.8602
v -2305.8384 -1501.9889 270.8578
v -2311.2097 -1502.5155 270.8557
f 1252 1253 1254
v -2304.2788 -1502.5131 270.8582
v -2298.8995 -1502.3726 270.8602
v -2304.2418 -1502.8902 270.8582
f 1255 1256 1257
v -2299.5076 -1496.0920 270.8615
v -2298.8995 -1502.3726 270.8602
v -2304.3440 -1501.8420 270.8584
f 1258 1259 1260
v -2304.3440 -1501.8420 270.8584
v -2298.8995 -1502.3726 270.8602
v -2304.2788 -1502.5131 270.8582
f 1261 1262 1263
v -2318.7894 -1504.2731 270.8526
v -2319.9036 -1492.4293 270.8550
v -2318.5854 -1504.2527 270.8527
f 1264 1265 1266
v -2312.2394 -1493.0689 270.8576
v -2319.9036 -1492.4293 270.8550
v -2312.3707 -1491.7215 270.8579
f 1267 1268 1269
v -2305.2927 -1492.4315 270.8602
v -2311.2097 -1502.5155 270.8557
v -2312.2394 -1493.0689 270.8576
f 1270 1271 1272
v -2300.1060 -1489.9044 270.8627
v -2305.4241 -1491.0682 270.8605
v -2305.4844 -1490.4400 270.8606
f 1273 1274 1275
v -2299.9493 -1491.5299 270.8624
v -2299.5076 -1496.0920 270.8615
v -2305.2927 -1492.4315 270.8602
f 1276 1277 1278
v -2299.9493 -1491.5299 270.8624
v -2305.2927 -1492.4315 270.8602
v -2305.4241 -1491.0682 270.8605
f 1279 1280 1281
v -2299.9493 -1491.5299 270.8624
v -2305.4241 -1491.0682 270.8605
v -2300.1060 -1489.9044 270.8627
f 1282 1283 1284
v -2319.9036 -1492.4293 270.8550
v -2312.2394 -1493.0689 270.8576
v -2318.5854 -1504.2527 270.8527
f 1285 1286 1287
v -2326.9277 -1498.6957 286.3313
v -2327.3483 -1499.3184 285.9660
v -2326.7865 -1505.0591 282.3410
f 1288 1289 1290
v -2326.7865 -1505.0591 282.3410
v -2313.0764 -1497.3928 286.3367
v -2326.9277 -1498.6957 286.3313
f 1291 1292 1293
v -2313.0764 -1497.3928 286.3367
v -2326.7865 -1505.0591 282.3410
v -2311.3116 -1501.5249 283.6484
f 1294 1295 1296
v -2326.7865 -1505.0591 282.3410
v -2311.2140 -1502.5180 283.0212
v -2311.3116 -1501.5249 283.6484
f 1297 1298 1299
v -2311.3116 -1501.5249 283.6484
v -2311.5681 -1498.9117 285.2969
v -2313.0764 -1497.3928 286.3367
f 1300 1301 1302
v -2311.2140 -1502.5180 283.0212
v -2326.7865 -1505.0591 282.3410
v -2311.1155 -1503.5222 282.3870
f 1303 1304 1305
v -2327.3430 -1499.3152 270.9286
v -2326.7824 -1505.0567 270.9275
v -2326.7865 -1505.0591 282.3410
f 1306 1307 1308
v -2327.4559 -1498.1539 270.9289
v -2327.3430 -1499.3152 270.9286
v -2327.9951 -1492.6548 276.7118
f 1309 1310 1311
v -2326.7865 -1505.0591 282.3410
v -2327.9951 -1492.6548 276.7118
v -2327.3430 -1499.3152 270.9286
f 1312 1313 1314
v -2327.4612 -1498.1571 285.9633
v -2327.9962 -1492.6554 279.6026
v -2327.3483 -1499.3184 285.9660
f 1315 1316 1317
v -2327.9972 -1492.6560 282.4935
v -2327.9962 -1492.6554 279.6026
v -2327.4612 -1498.1571 285.9633
f 1318 1319 1320
v -2327.9951 -1492.6548 276.7118
v -2327.9931 -1492.6536 270.9300
v -2327.4559 -1498.1539 270.9289
f 1321 1322 1323
v -2327.9962 -1492.6554 279.6026
v -2327.9951 -1492.6548 276.7118
v -2326.7865 -1505.0591 282.3410
f 1324 1325 1326
v -2327.9962 -1492.6554 279.6026
v -2326.7865 -1505.0591 282.3410
v -2327.3483 -1499.3184 285.9660
f 1327 1328 1329
v -2304.2418 -1502.8902 270.8582
v -2298.8995 -1502.3726 270.8602
v -2298.9020 -1502.3740 277.9899
f 1330 1331 1332
v -2298.9020 -1502.3740 277.9899
v -2298.9028 -1502.3746 280.3738
v -2299.0569 -1502.3891 280.4698
f 1333 1334 1335
v -2298.9020 -1502.3740 277.9899
v -2304.2452 -1502.8922 280.4588
v -2304.2418 -1502.8902 270.8582
f 1336 1337 1338
v -2299.0569 -1502.3891 280.4698
v -2304.2452 -1502.8922 280.4588
v -2298.9020 -1502.3740 277.9899
f 1339 1340 1341
v -2300.1085 -1489.9060 278.0134
v -2305.4878 -1490.4420 280.5972
v -2300.4055 -1489.9357 280.5822
f 1342 1343 1344
v -2305.4878 -1490.4420 280.5972
v -2300.1068 -1489.9050 273.2466
v -2305.4844 -1490.4400 270.8606
f 1345 1346 1347
v -2300.1093 -1489.9064 280.3973
v -2300.1085 -1489.9060 278.0134
v -2300.4055 -1489.9357 280.5822
f 1348 1349 1350
v -2300.1068 -1489.9050 273.2466
v -2300.1060 -1489.9044 270.8627
v -2305.4844 -1490.4400 270.8606
f 1351 1352 1353
v -2300.1085 -1489.9060 278.0134
v -2300.1068 -1489.9050 273.2466
v -2305.4878 -1490.4420 280.5972
f 1354 1355 1356
v -2305.4790 -1490.5301 280.6512
v -2305.2927 -1492.4315 270.8602
v -2305.2961 -1492.4336 280.6538
f 1357 1358 1359
v -2305.4878 -1490.4420 280.5972
v -2305.2927 -1492.4315 270.8602
v -2305.4790 -1490.5301 280.6512
f 1360 1361 1362
v -2305.4878 -1490.4420 280.5972
v -2305.4844 -1490.4400 270.8606
v -2305.4241 -1491.0682 270.8605
f 1363 1364 1365
v -2305.4878 -1490.4420 280.5972
v -2305.4241 -1491.0682 270.8605
v -2305.2927 -1492.4315 270.8602
f 1366 1367 1368
v -2305.2927 -1492.4315 270.8602
v -2312.2394 -1493.0689 270.8576
v -2312.1387 -1493.0612 280.6242
f 1369 1370 1371
v -2312.2439 -1493.0715 283.6851
v -2312.1387 -1493.0612 280.6242
v -2312.2394 -1493.0689 270.8576
f 1372 1373 1374
v -2305.3251 -1492.4365 280.6358
v -2305.2927 -1492.4315 270.8602
v -2312.1387 -1493.0612 280.6242
f 1375 1376 1377
v -2305.2927 -1492.4315 270.8602
v -2305.3251 -1492.4365 280.6358
v -2305.2961 -1492.4336 280.6538
f 1378 1379 1380
v -2312.2439 -1493.0715 283.6851
v -2312.1398 -1493.0618 283.6851
v -2312.1387 -1493.0612 280.6242
f 1381 1382 1383
v -2304.2788 -1502.5131 270.8582
v -2304.2418 -1502.8902 270.8582
v -2304.2452 -1502.8922 280.4588
f 1384 1385 1386
v -2304.2823 -1502.5152 280.6908
v -2304.2788 -1502.5131 270.8582
v -2304.2452 -1502.8922 280.4588
f 1387 1388 1389
v -2304.3440 -1501.8420 270.8584
v -2304.2788 -1502.5131 270.8582
v -2304.3474 -1501.8441 280.6900
f 1390 1391 1392
v -2304.2823 -1502.5152 280.6908
v -2304.3474 -1501.8441 280.6900
v -2304.2788 -1502.5131 270.8582
f 1393 1394 1395
v -2312.1398 -1493.0618 283.6851
v -2311.8882 -1495.6332 282.2046
v -2312.1387 -1493.0612 280.6242
f 1396 1397 1398
v -2311.8893 -1495.6338 285.3075
v -2311.8882 -1495.6332 282.2046
v -2312.1398 -1493.0618 283.6851
f 1399 1400 1401
v -2311.1115 -1503.5198 270.8555
v -2311.2097 -1502.5155 270.8557
v -2311.2132 -1502.5176 280.5563
f 1402 1403 1404
v -2311.6823 -1497.7360 283.4972
v -2311.8882 -1495.6332 282.2046
v -2311.8893 -1495.6338 285.3075
f 1405 1406 1407
v -2311.5681 -1498.9117 285.2969
v -2311.5497 -1499.0932 282.6629
v -2311.6823 -1497.7360 283.4972
f 1408 1409 1410
v -2311.5497 -1499.0932 282.6629
v -2311.5681 -1498.9117 285.2969
v -2311.3116 -1501.5249 283.6484
f 1411 1412 1413
v -2311.5681 -1498.9117 285.2969
v -2311.6823 -1497.7360 283.4972
v -2311.8893 -1495.6338 285.3075
f 1414 1415 1416
v -2311.2140 -1502.5180 283.0212
v -2311.2132 -1502.5176 280.5563
v -2311.5497 -1499.0932 282.6629
f 1417 1418 1419
v -2311.2132 -1502.5176 280.5563
v -2311.2140 -1502.5180 283.0212
v -2311.1155 -1503.5222 282.3870
f 1420 1421 1422
v -2311.2140 -1502.5180 283.0212
v -2311.5497 -1499.0932 282.6629
v -2311.3116 -1501.5249 283.6484
f 1423 1424 1425
v -2311.1115 -1503.5198 270.8555
v -2311.2132 -1502.5176 280.5563
v -2311.1155 -1503.5222 282.3870
f 1426 1427 1428
v -2319.9036 -1492.4293 270.8550
v -2312.3707 -1491.7215 270.9359
v -2312.3707 -1491.7215 270.8579
f 1429 1430 1431
v -2318.7894 -1504.2731 270.8526
v -2319.9036 -1492.4293 270.9330
v -2319.9036 -1492.4293 270.8550
f 1432 1433 1434
v -2327.9962 -1492.6554 279.6026
v -2327.9972 -1492.6560 282.4935
v -2320.2152 -1491.8939 282.4775
f 1435 1436 1437
v -2299.3528 -1497.6979 273.2321
v -2298.9028 -1502.3746 280.3738
v -2298.9020 -1502.3740 277.9899
f 1438 1439 1440
v -2300.1085 -1489.9060 278.0134
v -2299.8077 -1493.0232 280.3917
v -2299.2064 -1499.2418 280.3794
f 1441 1442 1443
v -2300.1068 -1489.9050 273.2466
v -2299.2064 -1499.2418 280.3794
v -2298.9028 -1502.3746 280.3738
f 1444 1445 1446
