# Grid Center: 2613600, 1264600
# Global Anchor: 7.64977475454284, 47.53283995868075, 0.0

g building_ID_21CCB834-0119-4597-9421-8BEF7ED5CB1F
v -2239.5885 -121.9367 265.4069
v -2243.6811 -121.4487 265.4054
v -2242.6183 -123.3945 265.4058
f 1 2 3
v -2239.1698 -121.7038 265.4070
v -2241.1000 -117.6887 265.4064
v -2239.5885 -121.9367 265.4069
f 4 5 6
v -2245.2503 -118.1845 265.4050
v -2241.1000 -117.6887 265.4064
v -2241.7488 -116.5000 265.4062
f 7 8 9
v -2241.1000 -117.6887 265.4064
v -2245.2503 -118.1845 265.4050
v -2243.6811 -121.4487 265.4054
f 10 11 12
v -2239.5885 -121.9367 265.4069
v -2241.1000 -117.6887 265.4064
v -2243.6811 -121.4487 265.4054
f 13 14 15
v -2239.1679 -121.7038 259.6842
v -2239.1698 -121.7038 265.4070
v -2239.5885 -121.9367 265.4069
f 16 17 18
v -2241.0981 -117.6887 259.6836
v -2241.1000 -117.6887 265.4064
v -2239.1698 -121.7038 265.4070
f 19 20 21
v -2241.7469 -116.5000 259.6834
v -2241.7488 -116.5000 265.4062
v -2241.1000 -117.6887 265.4064
f 22 23 24
v -2245.2483 -118.1845 259.6822
v -2245.2503 -118.1845 265.4050
v -2241.7488 -116.5000 265.4062
f 25 26 27
v -2243.6791 -121.4487 259.6826
v -2243.6811 -121.4487 265.4054
v -2245.2503 -118.1845 265.4050
f 28 29 30
v -2242.6164 -123.3945 259.6830
v -2242.6183 -123.3945 265.4058
v -2243.6811 -121.4487 265.4054
f 31 32 33
v -2239.5865 -121.9367 259.6841
v -2239.5885 -121.9367 265.4069
v -2242.6183 -123.3945 265.4058
f 34 35 36
v -2245.2483 -118.1845 259.6822
v -2241.7469 -116.5000 259.6834
v -2241.0981 -117.6887 259.6836
f 37 38 39
v -2243.6791 -121.4487 259.6826
v -2245.2483 -118.1845 259.6822
v -2241.0981 -117.6887 259.6836
f 40 41 42
v -2241.0981 -117.6887 259.6836
v -2239.5865 -121.9367 259.6841
v -2243.6791 -121.4487 259.6826
f 43 44 45
v -2239.5865 -121.9367 259.6841
v -2242.6164 -123.3945 259.6830
v -2243.6791 -121.4487 259.6826
f 46 47 48
v -2239.1679 -121.7038 259.6842
v -2239.5865 -121.9367 259.6841
v -2241.0981 -117.6887 259.6836
f 49 50 51
v -2239.1679 -121.7038 259.6842
v -2239.5885 -121.9367 265.4069
v -2239.5865 -121.9367 259.6841
f 52 53 54
v -2241.0981 -117.6887 259.6836
v -2239.1698 -121.7038 265.4070
v -2239.1679 -121.7038 259.6842
f 55 56 57
v -2241.7469 -116.5000 259.6834
v -2241.1000 -117.6887 265.4064
v -2241.0981 -117.6887 259.6836
f 58 59 60
v -2245.2483 -118.1845 259.6822
v -2241.7488 -116.5000 265.4062
v -2241.7469 -116.5000 259.6834
f 61 62 63
v -2243.6791 -121.4487 259.6826
v -2245.2503 -118.1845 265.4050
v -2245.2483 -118.1845 259.6822
f 64 65 66
v -2242.6164 -123.3945 259.6830
v -2243.6811 -121.4487 265.4054
v -2243.6791 -121.4487 259.6826
f 67 68 69
v -2239.5865 -121.9367 259.6841
v -2242.6183 -123.3945 265.4058
v -2242.6164 -123.3945 259.6830
f 70 71 72

g building_ID_7BB4EE2A-06AE-49E8-8727-D25EB227CF28
v -2435.2738 53.5512 263.2252
v -2440.2511 55.6566 263.2233
v -2440.2138 53.5365 263.2233
f 73 74 75
v -2440.2511 55.6566 263.2233
v -2435.2738 53.5512 263.2252
v -2435.2832 55.6712 263.2252
f 76 77 78
v -2435.2813 55.6711 258.1724
v -2435.2832 55.6712 263.2252
v -2435.2738 53.5512 263.2252
f 79 80 81
v -2440.2493 55.6565 258.1705
v -2440.2511 55.6566 263.2233
v -2435.2832 55.6712 263.2252
f 82 83 84
v -2440.2120 53.5364 258.1705
v -2440.2138 53.5365 263.2233
v -2440.2511 55.6566 263.2233
f 85 86 87
v -2435.2720 53.5511 258.1724
v -2435.2738 53.5512 263.2252
v -2440.2138 53.5365 263.2233
f 88 89 90
v -2435.2720 53.5511 258.1724
v -2440.2120 53.5364 258.1705
v -2440.2493 55.6565 258.1705
f 91 92 93
v -2440.2493 55.6565 258.1705
v -2435.2813 55.6711 258.1724
v -2435.2720 53.5511 258.1724
f 94 95 96
v -2435.2813 55.6711 258.1724
v -2435.2738 53.5512 263.2252
v -2435.2720 53.5511 258.1724
f 97 98 99
v -2440.2493 55.6565 258.1705
v -2435.2832 55.6712 263.2252
v -2435.2813 55.6711 258.1724
f 100 101 102
v -2440.2120 53.5364 258.1705
v -2440.2511 55.6566 263.2233
v -2440.2493 55.6565 258.1705
f 103 104 105
v -2435.2720 53.5511 258.1724
v -2440.2138 53.5365 263.2233
v -2440.2120 53.5364 258.1705
f 106 107 108

g building_ID_7DE0FE8E-D28D-4A9C-83EB-B8D7F8D84C4F
v -2246.8573 -8.7597 264.7137
v -2240.9352 -9.0216 264.9048
v -2246.8465 -6.2087 264.7107
f 109 110 111
v -2240.7222 -4.2042 264.9048
v -2246.8465 -6.2087 264.7107
v -2240.9352 -9.0216 264.9048
f 112 113 114
v -2246.8465 -6.2087 264.7107
v -2240.7222 -4.2042 264.9048
v -2246.8363 -3.9358 264.7077
f 115 116 117
v -2246.8447 -6.3598 258.5639
v -2246.8552 -8.7598 258.5639
v -2246.8573 -8.7597 264.7137
f 118 119 120
v -2246.8447 -6.3598 258.5639
v -2246.8465 -6.2087 264.7107
v -2246.8363 -3.9358 264.7077
f 121 122 123
v -2246.8363 -3.9358 264.7077
v -2246.8343 -3.9359 258.5639
v -2246.8447 -6.3598 258.5639
f 124 125 126
v -2240.9330 -9.0217 258.5660
v -2240.9352 -9.0216 264.9048
v -2246.8573 -8.7597 264.7137
f 127 128 129
v -2240.9330 -9.0217 258.5660
v -2246.8573 -8.7597 264.7137
v -2246.8552 -8.7598 258.5639
f 130 131 132
v -2240.7200 -4.2043 258.5660
v -2240.7222 -4.2042 264.9048
v -2240.9352 -9.0216 264.9048
f 133 134 135
v -2240.7222 -4.2042 264.9048
v -2240.7200 -4.2043 258.5660
v -2246.8363 -3.9358 264.7077
f 136 137 138
v -2246.8363 -3.9358 264.7077
v -2240.7200 -4.2043 258.5660
v -2246.8343 -3.9359 258.5639
f 139 140 141
v -2240.9330 -9.0217 258.5660
v -2246.8552 -8.7598 258.5639
v -2246.8447 -6.3598 258.5639
f 142 143 144
v -2246.8447 -6.3598 258.5639
v -2246.8343 -3.9359 258.5639
v -2240.7200 -4.2043 258.5660
f 145 146 147
v -2246.8447 -6.3598 258.5639
v -2240.7200 -4.2043 258.5660
v -2240.9330 -9.0217 258.5660
f 148 149 150
v -2246.8573 -8.7597 264.7137
v -2246.8465 -6.2087 264.7107
v -2246.8447 -6.3598 258.5639
f 151 152 153
v -2240.7200 -4.2043 258.5660
v -2240.9352 -9.0216 264.9048
v -2240.9330 -9.0217 258.5660
f 154 155 156

g building_ID_55F62B1C-3B35-41B3-BAEF-B9D6D6FDB0C3
v -2241.4857 78.9847 264.2032
v -2245.1297 84.8944 264.2018
v -2245.2385 79.0217 264.2019
f 157 158 159
v -2245.1297 84.8944 264.2018
v -2241.4857 78.9847 264.2032
v -2241.4289 84.8534 264.2031
f 160 161 162
v -2245.2364 79.0215 258.2482
v -2245.2385 79.0217 264.2019
v -2245.1297 84.8944 264.2018
f 163 164 165
v -2241.4836 78.9845 258.2495
v -2241.4857 78.9847 264.2032
v -2245.2385 79.0217 264.2019
f 166 167 168
v -2241.4269 84.8532 258.2494
v -2241.4289 84.8534 264.2031
v -2241.4857 78.9847 264.2032
f 169 170 171
v -2245.1277 84.8942 258.2481
v -2245.1297 84.8944 264.2018
v -2241.4289 84.8534 264.2031
f 172 173 174
v -2241.4836 78.9845 258.2495
v -2245.2364 79.0215 258.2482
v -2245.1277 84.8942 258.2481
f 175 176 177
v -2245.1277 84.8942 258.2481
v -2241.4269 84.8532 258.2494
v -2241.4836 78.9845 258.2495
f 178 179 180
v -2245.2364 79.0215 258.2482
v -2245.1297 84.8944 264.2018
v -2245.1277 84.8942 258.2481
f 181 182 183
v -2241.4836 78.9845 258.2495
v -2245.2385 79.0217 264.2019
v -2245.2364 79.0215 258.2482
f 184 185 186
v -2241.4269 84.8532 258.2494
v -2241.4857 78.9847 264.2032
v -2241.4836 78.9845 258.2495
f 187 188 189
v -2245.1277 84.8942 258.2481
v -2241.4289 84.8534 264.2031
v -2241.4269 84.8532 258.2494
f 190 191 192

g building_ID_E85098DC-083B-48E0-921E-FB4BF2DE2598
v -2153.5280 104.6612 264.4932
v -2151.7811 104.5676 263.9147
v -2150.9187 120.7350 263.9239
f 193 194 195
v -2153.5280 104.6612 264.4932
v -2150.9187 120.7350 263.9239
v -2151.3187 120.7591 264.0557
f 196 197 198
v -2151.3187 120.7591 264.0557
v -2151.3049 121.0370 264.0567
v -2152.6239 121.1096 264.4932
f 199 200 201
v -2153.5280 104.6612 264.4932
v -2151.3187 120.7591 264.0557
v -2152.6239 121.1096 264.4932
f 202 203 204
v -2154.7371 120.9322 263.6896
v -2154.5462 120.9237 263.7626
v -2154.5443 120.9235 258.2808
f 205 206 207
v -2154.7353 120.9320 258.2808
v -2154.7371 120.9322 263.6896
v -2154.5443 120.9235 258.2808
f 208 209 210
v -2150.9169 120.7347 258.2821
v -2150.9187 120.7350 263.9239
v -2151.7793 104.5672 258.2819
f 211 212 213
v -2151.7811 104.5676 263.9147
v -2151.7793 104.5672 258.2819
v -2150.9187 120.7350 263.9239
f 214 215 216
v -2151.3169 120.7588 258.2819
v -2151.3187 120.7591 264.0557
v -2150.9187 120.7350 263.9239
f 217 218 219
v -2151.3169 120.7588 258.2819
v -2150.9187 120.7350 263.9239
v -2150.9169 120.7347 258.2821
f 220 221 222
v -2151.3043 121.0369 261.9597
v -2151.3049 121.0370 264.0567
v -2151.3187 120.7591 264.0557
f 223 224 225
v -2151.3031 121.0368 258.2819
v -2151.3043 121.0369 261.9597
v -2151.3187 120.7591 264.0557
f 226 227 228
v -2155.6137 104.7726 258.2807
v -2155.6154 104.7728 263.6895
v -2154.7371 120.9322 263.6896
f 229 230 231
v -2155.6137 104.7726 258.2807
v -2154.7371 120.9322 263.6896
v -2154.7353 120.9320 258.2808
f 232 233 234
v -2152.6219 121.1093 258.2815
v -2151.3031 121.0368 258.2819
v -2151.3169 120.7588 258.2819
f 235 236 237
v -2151.3169 120.7588 258.2819
v -2150.9169 120.7347 258.2821
v -2151.7793 104.5672 258.2819
f 238 239 240
v -2152.6219 121.1093 258.2815
v -2151.3169 120.7588 258.2819
v -2151.7793 104.5672 258.2819
f 241 242 243
v -2154.5443 120.9235 258.2808
v -2154.5296 121.2134 258.2808
v -2152.6219 121.1093 258.2815
f 244 245 246
v -2154.5443 120.9235 258.2808
v -2155.6137 104.7726 258.2807
v -2154.7353 120.9320 258.2808
f 247 248 249
v -2153.5660 104.6631 258.2813
v -2154.5443 120.9235 258.2808
v -2152.6219 121.1093 258.2815
f 250 251 252
v -2152.6219 121.1093 258.2815
v -2151.7793 104.5672 258.2819
v -2153.5660 104.6631 258.2813
f 253 254 255
v -2153.5660 104.6631 258.2813
v -2155.6137 104.7726 258.2807
v -2154.5443 120.9235 258.2808
f 256 257 258
v -2154.7371 120.9322 263.6896
v -2155.6154 104.7728 263.6895
v -2153.5280 104.6612 264.4932
f 259 260 261
v -2154.7371 120.9322 263.6896
v -2153.5280 104.6612 264.4932
v -2154.5462 120.9237 263.7626
f 262 263 264
v -2152.6239 121.1096 264.4932
v -2154.5462 120.9237 263.7626
v -2153.5280 104.6612 264.4932
f 265 266 267
v -2154.5314 121.2137 263.7596
v -2154.5462 120.9237 263.7626
v -2152.6239 121.1096 264.4932
f 268 269 270
v -2154.5462 120.9237 263.7626
v -2154.5296 121.2134 258.2808
v -2154.5443 120.9235 258.2808
f 271 272 273
v -2154.5462 120.9237 263.7626
v -2154.5314 121.2137 263.7596
v -2154.5296 121.2134 258.2808
f 274 275 276
v -2152.6239 121.1096 264.4932
v -2151.3043 121.0369 261.9597
v -2154.5314 121.2137 263.7596
f 277 278 279
v -2154.5314 121.2137 263.7596
v -2151.3043 121.0369 261.9597
v -2154.5296 121.2134 258.2808
f 280 281 282
v -2151.3043 121.0369 261.9597
v -2152.6239 121.1096 264.4932
v -2151.3049 121.0370 264.0567
f 283 284 285
v -2154.5296 121.2134 258.2808
v -2151.3043 121.0369 261.9597
v -2152.6219 121.1093 258.2815
f 286 287 288
v -2151.3043 121.0369 261.9597
v -2151.3031 121.0368 258.2819
v -2152.6219 121.1093 258.2815
f 289 290 291
v -2151.7811 104.5676 263.9147
v -2155.6154 104.7728 263.6895
v -2151.7793 104.5672 258.2819
f 292 293 294
v -2155.6154 104.7728 263.6895
v -2151.7811 104.5676 263.9147
v -2153.5280 104.6612 264.4932
f 295 296 297
v -2155.6154 104.7728 263.6895
v -2153.5660 104.6631 258.2813
v -2151.7793 104.5672 258.2819
f 298 299 300
v -2155.6137 104.7726 258.2807
v -2153.5660 104.6631 258.2813
v -2155.6154 104.7728 263.6895
f 301 302 303
v -2151.3031 121.0368 258.2819
v -2151.3187 120.7591 264.0557
v -2151.3169 120.7588 258.2819
f 304 305 306

g building_ID_5D273BF0-87F4-4A4D-9142-8BE40FC3FE9B
v -2414.2106 66.5057 266.5780
v -2408.8089 88.4069 266.5799
v -2437.1601 66.5653 266.5693
f 307 308 309
v -2409.9064 96.4057 266.5793
v -2437.0684 98.4736 266.5689
v -2408.8089 88.4069 266.5799
f 310 311 312
v -2437.1601 66.5653 266.5693
v -2408.8089 88.4069 266.5799
v -2437.0684 98.4736 266.5689
f 313 314 315
v -2404.3020 88.3638 266.5816
v -2409.9064 96.4057 266.5793
v -2408.8089 88.4069 266.5799
f 316 317 318
v -2409.9064 96.4057 266.5793
v -2404.3020 88.3638 266.5816
v -2402.5825 96.3870 266.5821
f 319 320 321
v -2384.9617 98.2836 266.5888
v -2394.4139 77.2904 266.5855
v -2385.0452 66.4294 266.5892
f 322 323 324
v -2403.8869 87.6906 266.5817
v -2397.3294 77.0772 266.5844
v -2394.4139 77.2904 266.5855
f 325 326 327
v -2384.9617 98.2836 266.5888
v -2404.1059 88.0513 266.5816
v -2403.8869 87.6906 266.5817
f 328 329 330
v -2384.9617 98.2836 266.5888
v -2402.5825 96.3870 266.5821
v -2404.3020 88.3638 266.5816
f 331 332 333
v -2384.9617 98.2836 266.5888
v -2403.8869 87.6906 266.5817
v -2394.4139 77.2904 266.5855
f 334 335 336
v -2404.1059 88.0513 266.5816
v -2384.9617 98.2836 266.5888
v -2404.3020 88.3638 266.5816
f 337 338 339
v -2437.1566 66.5649 257.0627
v -2437.1601 66.5653 266.5693
v -2437.0684 98.4736 266.5689
f 340 341 342
v -2414.2071 66.5053 257.0714
v -2414.2106 66.5057 266.5780
v -2437.1601 66.5653 266.5693
f 343 344 345
v -2408.8054 88.4065 257.0732
v -2408.8089 88.4069 266.5799
v -2414.2106 66.5057 266.5780
f 346 347 348
v -2404.2986 88.3634 257.0749
v -2404.3020 88.3638 266.5816
v -2408.8089 88.4069 266.5799
f 349 350 351
v -2404.1024 88.0509 257.0749
v -2404.1059 88.0513 266.5816
v -2404.3020 88.3638 266.5816
f 352 353 354
v -2394.4104 77.2900 257.0789
v -2394.4139 77.2904 266.5855
v -2397.3294 77.0772 266.5844
f 355 356 357
v -2385.0418 66.4290 257.0826
v -2385.0452 66.4294 266.5892
v -2394.4139 77.2904 266.5855
f 358 359 360
v -2384.9582 98.2833 257.0822
v -2384.9617 98.2836 266.5888
v -2385.0452 66.4294 266.5892
f 361 362 363
v -2402.5790 96.3867 257.0754
v -2402.5825 96.3870 266.5821
v -2384.9617 98.2836 266.5888
f 364 365 366
v -2409.9029 96.4053 257.0726
v -2409.9064 96.4057 266.5793
v -2402.5825 96.3870 266.5821
f 367 368 369
v -2437.0650 98.4732 257.0623
v -2437.0684 98.4736 266.5689
v -2409.9064 96.4057 266.5793
f 370 371 372
v -2408.8054 88.4065 257.0732
v -2437.0650 98.4732 257.0623
v -2409.9029 96.4053 257.0726
f 373 374 375
v -2404.2986 88.3634 257.0749
v -2408.8054 88.4065 257.0732
v -2409.9029 96.4053 257.0726
f 376 377 378
v -2437.1566 66.5649 257.0627
v -2437.0650 98.4732 257.0623
v -2408.8054 88.4065 257.0732
f 379 380 381
v -2437.1566 66.5649 257.0627
v -2408.8054 88.4065 257.0732
v -2414.2071 66.5053 257.0714
f 382 383 384
v -2404.2986 88.3634 257.0749
v -2409.9029 96.4053 257.0726
v -2402.5790 96.3867 257.0754
f 385 386 387
v -2404.1024 88.0509 257.0749
v -2404.2986 88.3634 257.0749
v -2384.9582 98.2833 257.0822
f 388 389 390
v -2402.5790 96.3867 257.0754
v -2384.9582 98.2833 257.0822
v -2404.2986 88.3634 257.0749
f 391 392 393
v -2403.8834 87.6902 257.0750
v -2404.1024 88.0509 257.0749
v -2384.9582 98.2833 257.0822
f 394 395 396
v -2394.4104 77.2900 257.0789
v -2397.3260 77.0769 257.0778
v -2403.8834 87.6902 257.0750
f 397 398 399
v -2384.9582 98.2833 257.0822
v -2385.0418 66.4290 257.0826
v -2394.4104 77.2900 257.0789
f 400 401 402
v -2394.4104 77.2900 257.0789
v -2403.8834 87.6902 257.0750
v -2384.9582 98.2833 257.0822
f 403 404 405
v -2397.3260 77.0769 257.0778
v -2397.3294 77.0772 266.5844
v -2403.8869 87.6906 266.5817
f 406 407 408
v -2404.1059 88.0513 266.5816
v -2404.1024 88.0509 257.0749
v -2403.8834 87.6902 257.0750
f 409 410 411
v -2437.1566 66.5649 257.0627
v -2437.0684 98.4736 266.5689
v -2437.0650 98.4732 257.0623
f 412 413 414
v -2414.2071 66.5053 257.0714
v -2437.1601 66.5653 266.5693
v -2437.1566 66.5649 257.0627
f 415 416 417
v -2408.8054 88.4065 257.0732
v -2414.2106 66.5057 266.5780
v -2414.2071 66.5053 257.0714
f 418 419 420
v -2404.2986 88.3634 257.0749
v -2408.8089 88.4069 266.5799
v -2408.8054 88.4065 257.0732
f 421 422 423
v -2404.1024 88.0509 257.0749
v -2404.3020 88.3638 266.5816
v -2404.2986 88.3634 257.0749
f 424 425 426
v -2394.4104 77.2900 257.0789
v -2397.3294 77.0772 266.5844
v -2397.3260 77.0769 257.0778
f 427 428 429
v -2385.0418 66.4290 257.0826
v -2394.4139 77.2904 266.5855
v -2394.4104 77.2900 257.0789
f 430 431 432
v -2384.9582 98.2833 257.0822
v -2385.0452 66.4294 266.5892
v -2385.0418 66.4290 257.0826
f 433 434 435
v -2402.5790 96.3867 257.0754
v -2384.9617 98.2836 266.5888
v -2384.9582 98.2833 257.0822
f 436 437 438
v -2409.9029 96.4053 257.0726
v -2402.5825 96.3870 266.5821
v -2402.5790 96.3867 257.0754
f 439 440 441
v -2437.0650 98.4732 257.0623
v -2409.9064 96.4057 266.5793
v -2409.9029 96.4053 257.0726
f 442 443 444
v -2397.3260 77.0769 257.0778
v -2403.8869 87.6906 266.5817
v -2403.8834 87.6902 257.0750
f 445 446 447
v -2404.1059 88.0513 266.5816
v -2403.8834 87.6902 257.0750
v -2403.8869 87.6906 266.5817
f 448 449 450
