# Grid Center: 2613600, 1264400
# Global Anchor: 7.64977475454284, 47.53283995868075, 0.0

g building_ID_3624A233-16F6-45BF-991C-3A5A71EC6974
v -2420.4877 -471.3915 266.7967
v -2430.0782 -468.2497 266.7933
v -2430.9661 -470.8233 266.7928
f 1 2 3
v -2431.3008 -471.8424 266.7926
v -2419.8671 -475.6031 266.7967
v -2430.9661 -470.8233 266.7928
f 4 5 6
v -2418.6345 -472.0304 266.7974
v -2420.4877 -471.3915 266.7967
v -2419.8671 -475.6031 266.7967
f 7 8 9
v -2430.9661 -470.8233 266.7928
v -2419.8671 -475.6031 266.7967
v -2420.4877 -471.3915 266.7967
f 10 11 12
v -2430.0762 -468.2494 261.3865
v -2430.0782 -468.2497 266.7933
v -2420.4857 -471.3912 261.3899
f 13 14 15
v -2430.9641 -470.8230 261.3860
v -2430.9661 -470.8233 266.7928
v -2430.0782 -468.2497 266.7933
f 16 17 18
v -2431.2989 -471.8421 261.3858
v -2431.3008 -471.8424 266.7926
v -2430.9661 -470.8233 266.7928
f 19 20 21
v -2419.8651 -475.6028 261.3899
v -2419.8671 -475.6031 266.7967
v -2431.3008 -471.8424 266.7926
f 22 23 24
v -2418.6325 -472.0302 261.3906
v -2418.6345 -472.0304 266.7974
v -2419.8671 -475.6031 266.7967
f 25 26 27
v -2420.4857 -471.3912 261.3899
v -2420.4877 -471.3915 266.7967
v -2418.6325 -472.0302 261.3906
f 28 29 30
v -2420.4857 -471.3912 261.3899
v -2418.6325 -472.0302 261.3906
v -2419.8651 -475.6028 261.3899
f 31 32 33
v -2430.9641 -470.8230 261.3860
v -2420.4857 -471.3912 261.3899
v -2419.8651 -475.6028 261.3899
f 34 35 36
v -2430.0762 -468.2494 261.3865
v -2420.4857 -471.3912 261.3899
v -2430.9641 -470.8230 261.3860
f 37 38 39
v -2431.2989 -471.8421 261.3858
v -2430.9641 -470.8230 261.3860
v -2419.8651 -475.6028 261.3899
f 40 41 42
v -2430.0782 -468.2497 266.7933
v -2420.4877 -471.3915 266.7967
v -2420.4857 -471.3912 261.3899
f 43 44 45
v -2430.9641 -470.8230 261.3860
v -2430.0782 -468.2497 266.7933
v -2430.0762 -468.2494 261.3865
f 46 47 48
v -2431.2989 -471.8421 261.3858
v -2430.9661 -470.8233 266.7928
v -2430.9641 -470.8230 261.3860
f 49 50 51
v -2419.8651 -475.6028 261.3899
v -2431.3008 -471.8424 266.7926
v -2431.2989 -471.8421 261.3858
f 52 53 54
v -2418.6325 -472.0302 261.3906
v -2419.8671 -475.6031 266.7967
v -2419.8651 -475.6028 261.3899
f 55 56 57
v -2420.4877 -471.3915 266.7967
v -2418.6345 -472.0304 266.7974
v -2418.6325 -472.0302 261.3906
f 58 59 60

g building_ID_5C279C59-CA13-414A-98AD-6E3CFDF27E9A
v -2432.7951 -417.9044 275.2496
v -2442.3400 -447.7055 275.2438
v -2434.8410 -450.1075 273.9196
f 61 62 63
v -2434.8410 -450.1075 273.9196
v -2425.2911 -420.2905 273.9253
v -2432.7951 -417.9044 275.2496
f 64 65 66
v -2448.8651 -443.0939 273.9658
v -2449.5932 -445.3819 273.9663
v -2442.3400 -447.7055 275.2438
f 67 68 69
v -2441.9419 -421.3938 273.9659
v -2448.4297 -440.7312 273.9151
v -2448.1430 -440.8219 273.9662
f 70 71 72
v -2448.1430 -440.8219 273.9662
v -2448.8651 -443.0939 273.9658
v -2442.3400 -447.7055 275.2438
f 73 74 75
v -2448.1430 -440.8219 273.9662
v -2442.3400 -447.7055 275.2438
v -2441.9419 -421.3938 273.9659
f 76 77 78
v -2442.3400 -447.7055 275.2438
v -2432.7951 -417.9044 275.2496
v -2441.9419 -421.3938 273.9659
f 79 80 81
v -2440.0933 -415.5828 273.9650
v -2441.9419 -421.3938 273.9659
v -2432.7951 -417.9044 275.2496
f 82 83 84
v -2448.4297 -440.7312 273.9151
v -2441.9419 -421.3938 273.9659
v -2442.2106 -421.3080 273.9188
f 85 86 87
v -2425.2862 -420.2899 260.5188
v -2425.2911 -420.2905 273.9253
v -2426.8207 -425.0712 270.6515
f 88 89 90
v -2434.8410 -450.1075 273.9196
v -2426.8207 -425.0712 270.6515
v -2425.2911 -420.2905 273.9253
f 91 92 93
v -2434.8361 -450.1069 260.5131
v -2425.2862 -420.2899 260.5188
v -2426.8171 -425.0708 261.0069
f 94 95 96
v -2426.8207 -425.0712 270.6515
v -2426.8171 -425.0708 261.0069
v -2425.2862 -420.2899 260.5188
f 97 98 99
v -2426.8207 -425.0712 270.6515
v -2434.8410 -450.1075 273.9196
v -2434.8399 -450.1074 270.6467
f 100 101 102
v -2448.4247 -440.7306 260.5086
v -2448.4247 -440.7306 260.5436
v -2442.2057 -421.3075 260.5473
f 103 104 105
v -2448.1430 -440.8219 273.9662
v -2448.1405 -440.8217 267.2364
v -2448.8651 -443.0939 273.9658
f 106 107 108
v -2448.8631 -443.1013 260.5082
v -2448.8651 -443.0939 273.9658
v -2448.1380 -440.8213 260.5087
f 109 110 111
v -2448.8651 -443.0939 273.9658
v -2448.1392 -440.8214 263.8716
v -2448.1380 -440.8213 260.5087
f 112 113 114
v -2449.5882 -445.3813 260.5078
v -2448.8651 -443.0939 273.9658
v -2448.8631 -443.1013 260.5082
f 115 116 117
v -2440.0933 -415.5828 273.9650
v -2441.9369 -421.3932 260.5474
v -2441.9394 -421.3935 267.2392
f 118 119 120
v -2440.0883 -415.5823 260.5135
v -2441.9369 -421.3932 260.5124
v -2441.9369 -421.3932 260.5474
f 121 122 123
v -2440.0908 -415.5825 267.2383
v -2440.0883 -415.5823 260.5135
v -2441.9369 -421.3932 260.5474
f 124 125 126
v -2441.9369 -421.3932 260.5124
v -2432.7897 -417.9038 260.5161
v -2442.3345 -447.7048 260.5104
f 127 128 129
v -2425.2862 -420.2899 260.5188
v -2434.8361 -450.1069 260.5131
v -2432.7897 -417.9038 260.5161
f 130 131 132
v -2440.0883 -415.5823 260.5135
v -2432.7897 -417.9038 260.5161
v -2441.9369 -421.3932 260.5124
f 133 134 135
v -2448.8631 -443.1013 260.5082
v -2442.3345 -447.7048 260.5104
v -2449.5882 -445.3813 260.5078
f 136 137 138
v -2442.3345 -447.7048 260.5104
v -2448.1380 -440.8213 260.5087
v -2441.9369 -421.3932 260.5124
f 139 140 141
v -2448.4247 -440.7306 260.5086
v -2442.2056 -421.3075 260.5123
v -2448.1380 -440.8213 260.5087
f 142 143 144
v -2448.1380 -440.8213 260.5087
v -2442.2056 -421.3075 260.5123
v -2441.9369 -421.3932 260.5124
f 145 146 147
v -2448.8631 -443.1013 260.5082
v -2448.1380 -440.8213 260.5087
v -2442.3345 -447.7048 260.5104
f 148 149 150
v -2434.8361 -450.1069 260.5131
v -2442.3345 -447.7048 260.5104
v -2432.7897 -417.9038 260.5161
f 151 152 153
v -2431.6258 -440.6167 261.0040
v -2426.6668 -425.1206 270.6185
v -2431.6294 -440.6171 270.6156
f 154 155 156
v -2426.6633 -425.1202 261.0069
v -2426.6668 -425.1206 270.6185
v -2431.6258 -440.6167 261.0040
f 157 158 159
v -2429.8688 -448.7973 261.0041
v -2430.6492 -448.5472 261.0038
v -2430.6524 -448.5476 269.9344
f 160 161 162
v -2429.9355 -446.3106 269.9349
v -2430.6524 -448.5476 269.9344
v -2430.6492 -448.5472 261.0038
f 163 164 165
v -2429.9321 -446.3102 261.0043
v -2429.9355 -446.3106 269.9349
v -2430.6492 -448.5472 261.0038
f 166 167 168
v -2428.7854 -446.6786 269.6903
v -2427.2807 -442.0083 261.0056
v -2427.2838 -442.0087 269.6902
f 169 170 171
v -2428.7854 -446.6786 269.6903
v -2428.7822 -446.6782 261.0047
v -2427.2807 -442.0083 261.0056
f 172 173 174
v -2429.8721 -448.7977 269.7687
v -2430.6524 -448.5476 269.9344
v -2430.7151 -451.4284 269.7682
f 175 176 177
v -2430.6524 -448.5476 269.9344
v -2431.6294 -440.6171 270.6156
v -2434.8399 -450.1074 270.6467
f 178 179 180
v -2430.6524 -448.5476 269.9344
v -2434.8399 -450.1074 270.6467
v -2430.7151 -451.4284 269.7682
f 181 182 183
v -2429.9355 -446.3106 269.9349
v -2431.6294 -440.6171 270.6156
v -2430.6524 -448.5476 269.9344
f 184 185 186
v -2431.6294 -440.6171 270.6156
v -2428.7854 -446.6786 269.6903
v -2427.2838 -442.0087 269.6902
f 187 188 189
v -2431.6294 -440.6171 270.6156
v -2429.9355 -446.3106 269.9349
v -2428.7854 -446.6786 269.6903
f 190 191 192
v -2434.8399 -450.1074 270.6467
v -2431.6294 -440.6171 270.6156
v -2426.8207 -425.0712 270.6515
f 193 194 195
v -2431.6294 -440.6171 270.6156
v -2426.6668 -425.1206 270.6185
v -2426.8207 -425.0712 270.6515
f 196 197 198
v -2426.8171 -425.0708 261.0069
v -2426.8207 -425.0712 270.6515
v -2426.6633 -425.1202 261.0069
f 199 200 201
v -2426.6668 -425.1206 270.6185
v -2426.6633 -425.1202 261.0069
v -2426.8207 -425.0712 270.6515
f 202 203 204
v -2430.6492 -448.5472 261.0038
v -2430.7119 -451.4280 261.0036
v -2434.8363 -450.1069 261.0021
f 205 206 207
v -2430.6492 -448.5472 261.0038
v -2429.8688 -448.7973 261.0041
v -2430.7119 -451.4280 261.0036
f 208 209 210
v -2429.9321 -446.3102 261.0043
v -2430.6492 -448.5472 261.0038
v -2431.6258 -440.6167 261.0040
f 211 212 213
v -2430.6492 -448.5472 261.0038
v -2434.8363 -450.1069 261.0021
v -2431.6258 -440.6167 261.0040
f 214 215 216
v -2429.9321 -446.3102 261.0043
v -2431.6258 -440.6167 261.0040
v -2428.7822 -446.6782 261.0047
f 217 218 219
v -2427.2807 -442.0083 261.0056
v -2428.7822 -446.6782 261.0047
v -2431.6258 -440.6167 261.0040
f 220 221 222
v -2426.6633 -425.1202 261.0069
v -2431.6258 -440.6167 261.0040
v -2426.8171 -425.0708 261.0069
f 223 224 225
v -2426.8171 -425.0708 261.0069
v -2431.6258 -440.6167 261.0040
v -2434.8363 -450.1069 261.0021
f 226 227 228
v -2449.2597 -435.1144 260.5436
v -2449.4584 -435.0583 270.9272
v -2449.4545 -435.0579 260.5436
f 229 230 231
v -2456.1023 -432.9375 270.0798
v -2456.0987 -432.9370 260.5412
v -2449.4584 -435.0583 270.9272
f 232 233 234
v -2449.4584 -435.0583 270.9272
v -2456.0987 -432.9370 260.5412
v -2449.4545 -435.0579 260.5436
f 235 236 237
v -2448.4297 -440.7312 273.9151
v -2447.2871 -437.1652 271.2569
v -2448.4288 -440.7310 271.2562
f 238 239 240
v -2447.2871 -437.1652 271.2569
v -2448.4297 -440.7312 273.9151
v -2445.6686 -432.1116 271.2578
f 241 242 243
v -2442.2106 -421.3080 273.9188
v -2442.2097 -421.3070 271.2609
v -2445.6686 -432.1116 271.2578
f 244 245 246
v -2448.4297 -440.7312 273.9151
v -2442.2106 -421.3080 273.9188
v -2445.6686 -432.1116 271.2578
f 247 248 249
v -2449.4545 -435.0579 260.5436
v -2451.4636 -418.3628 260.5439
v -2442.2057 -421.3075 260.5473
f 250 251 252
v -2448.4247 -440.7306 260.5436
v -2449.2597 -435.1144 260.5436
v -2442.2057 -421.3075 260.5473
f 253 254 255
v -2449.2597 -435.1144 260.5436
v -2449.4545 -435.0579 260.5436
v -2442.2057 -421.3075 260.5473
f 256 257 258
v -2451.4636 -418.3628 260.5439
v -2449.4545 -435.0579 260.5436
v -2456.0987 -432.9370 260.5412
f 259 260 261
v -2448.4247 -440.7306 260.5436
v -2450.8047 -439.9732 260.5427
v -2449.2597 -435.1144 260.5436
f 262 263 264
v -2425.2862 -420.2899 260.5188
v -2440.0908 -415.5825 267.2383
v -2440.0921 -415.5827 270.6021
f 265 266 267
v -2432.7951 -417.9044 275.2496
v -2440.0921 -415.5827 270.6021
v -2440.0933 -415.5828 273.9650
f 268 269 270
v -2440.0921 -415.5827 270.6021
v -2425.2911 -420.2905 273.9253
v -2425.2862 -420.2899 260.5188
f 271 272 273
v -2432.7897 -417.9038 260.5161
v -2440.0883 -415.5823 260.5135
v -2440.0908 -415.5825 267.2383
f 274 275 276
v -2425.2862 -420.2899 260.5188
v -2432.7897 -417.9038 260.5161
v -2440.0908 -415.5825 267.2383
f 277 278 279
v -2440.0921 -415.5827 270.6021
v -2432.7951 -417.9044 275.2496
v -2425.2911 -420.2905 273.9253
f 280 281 282
v -2451.4636 -418.3628 260.5439
v -2451.4672 -418.3630 270.0785
v -2442.2057 -421.3075 260.5473
f 283 284 285
v -2442.2057 -421.3075 260.5473
v -2441.9369 -421.3932 260.5124
v -2442.2056 -421.3075 260.5123
f 286 287 288
v -2442.2057 -421.3075 260.5473
v -2441.9394 -421.3935 267.2392
v -2441.9369 -421.3932 260.5474
f 289 290 291
v -2441.9369 -421.3932 260.5474
v -2441.9369 -421.3932 260.5124
v -2442.2057 -421.3075 260.5473
f 292 293 294
v -2441.9394 -421.3935 267.2392
v -2442.2057 -421.3075 260.5473
v -2451.4672 -418.3630 270.0785
f 295 296 297
v -2441.9419 -421.3938 273.9659
v -2442.2097 -421.3070 271.2609
v -2442.2106 -421.3080 273.9188
f 298 299 300
v -2441.9394 -421.3935 267.2392
v -2442.2097 -421.3070 271.2609
v -2441.9419 -421.3938 273.9659
f 301 302 303
v -2442.2097 -421.3070 271.2609
v -2441.9394 -421.3935 267.2392
v -2451.4672 -418.3630 270.0785
f 304 305 306
v -2434.8363 -450.1069 261.0021
v -2430.7151 -451.4284 269.7682
v -2434.8399 -450.1074 270.6467
f 307 308 309
v -2442.3345 -447.7048 260.5104
v -2434.8361 -450.1069 260.5131
v -2434.8363 -450.1069 261.0021
f 310 311 312
v -2434.8363 -450.1069 261.0021
v -2430.7119 -451.4280 261.0036
v -2430.7151 -451.4284 269.7682
f 313 314 315
v -2434.8363 -450.1069 261.0021
v -2434.8399 -450.1074 270.6467
v -2442.3345 -447.7048 260.5104
f 316 317 318
v -2442.3400 -447.7055 275.2438
v -2449.5932 -445.3819 273.9663
v -2434.8399 -450.1074 270.6467
f 319 320 321
v -2449.5882 -445.3813 260.5078
v -2434.8399 -450.1074 270.6467
v -2449.5932 -445.3819 273.9663
f 322 323 324
v -2442.3345 -447.7048 260.5104
v -2434.8399 -450.1074 270.6467
v -2449.5882 -445.3813 260.5078
f 325 326 327
v -2434.8410 -450.1075 273.9196
v -2442.3400 -447.7055 275.2438
v -2434.8399 -450.1074 270.6467
f 328 329 330
v -2451.4672 -418.3630 270.0785
v -2456.0987 -432.9370 260.5412
v -2456.1023 -432.9375 270.0798
f 331 332 333
v -2456.0987 -432.9370 260.5412
v -2451.4672 -418.3630 270.0785
v -2451.4636 -418.3628 260.5439
f 334 335 336
v -2449.2597 -435.1144 260.5436
v -2450.8047 -439.9732 260.5427
v -2450.8086 -439.9737 270.9523
f 337 338 339
v -2449.2597 -435.1144 260.5436
v -2450.8086 -439.9737 270.9523
v -2449.2635 -435.1148 270.9522
f 340 341 342
v -2448.4288 -440.7310 271.2562
v -2448.1430 -440.8219 273.9662
v -2448.4297 -440.7312 273.9151
f 343 344 345
v -2448.1405 -440.8217 267.2364
v -2448.1430 -440.8219 273.9662
v -2448.4288 -440.7310 271.2562
f 346 347 348
v -2450.8086 -439.9737 270.9523
v -2448.1405 -440.8217 267.2364
v -2448.4288 -440.7310 271.2562
f 349 350 351
v -2450.8047 -439.9732 260.5427
v -2448.1392 -440.8214 263.8716
v -2450.8086 -439.9737 270.9523
f 352 353 354
v -2448.1405 -440.8217 267.2364
v -2450.8086 -439.9737 270.9523
v -2448.1392 -440.8214 263.8716
f 355 356 357
v -2448.4247 -440.7306 260.5436
v -2448.1392 -440.8214 263.8716
v -2450.8047 -439.9732 260.5427
f 358 359 360
v -2448.4247 -440.7306 260.5086
v -2448.1380 -440.8213 260.5087
v -2448.4247 -440.7306 260.5436
f 361 362 363
v -2448.1392 -440.8214 263.8716
v -2448.4247 -440.7306 260.5436
v -2448.1380 -440.8213 260.5087
f 364 365 366
v -2449.2635 -435.1148 270.9522
v -2447.2871 -437.1652 271.2569
v -2445.6686 -432.1116 271.2578
f 367 368 369
v -2448.4288 -440.7310 271.2562
v -2449.2635 -435.1148 270.9522
v -2450.8086 -439.9737 270.9523
f 370 371 372
v -2449.2635 -435.1148 270.9522
v -2448.4288 -440.7310 271.2562
v -2447.2871 -437.1652 271.2569
f 373 374 375
v -2442.2097 -421.3070 271.2609
v -2451.4672 -418.3630 270.0785
v -2445.6686 -432.1116 271.2578
f 376 377 378
v -2456.1023 -432.9375 270.0798
v -2449.4584 -435.0583 270.9272
v -2451.4672 -418.3630 270.0785
f 379 380 381
v -2445.6686 -432.1116 271.2578
v -2449.4584 -435.0583 270.9272
v -2449.2635 -435.1148 270.9522
f 382 383 384
v -2445.6686 -432.1116 271.2578
v -2451.4672 -418.3630 270.0785
v -2449.4584 -435.0583 270.9272
f 385 386 387
v -2434.8361 -450.1069 260.5131
v -2426.8171 -425.0708 261.0069
v -2434.8363 -450.1069 261.0021
f 388 389 390
v -2448.4247 -440.7306 260.5086
v -2442.2057 -421.3075 260.5473
v -2442.2056 -421.3075 260.5123
f 391 392 393
v -2448.8651 -443.0939 273.9658
v -2449.5882 -445.3813 260.5078
v -2449.5932 -445.3819 273.9663
f 394 395 396
v -2448.8651 -443.0939 273.9658
v -2448.1405 -440.8217 267.2364
v -2448.1392 -440.8214 263.8716
f 397 398 399
v -2441.9369 -421.3932 260.5474
v -2440.0933 -415.5828 273.9650
v -2440.0921 -415.5827 270.6021
f 400 401 402
v -2440.0933 -415.5828 273.9650
v -2441.9394 -421.3935 267.2392
v -2441.9419 -421.3938 273.9659
f 403 404 405
v -2440.0908 -415.5825 267.2383
v -2441.9369 -421.3932 260.5474
v -2440.0921 -415.5827 270.6021
f 406 407 408
v -2431.6294 -440.6171 270.6156
v -2427.2838 -442.0087 269.6902
v -2427.2807 -442.0083 261.0056
f 409 410 411
v -2427.2807 -442.0083 261.0056
v -2431.6258 -440.6167 261.0040
v -2431.6294 -440.6171 270.6156
f 412 413 414
v -2429.8721 -448.7977 269.7687
v -2430.7151 -451.4284 269.7682
v -2429.8688 -448.7973 261.0041
f 415 416 417
v -2429.8688 -448.7973 261.0041
v -2430.7151 -451.4284 269.7682
v -2430.7119 -451.4280 261.0036
f 418 419 420
v -2429.8688 -448.7973 261.0041
v -2430.6524 -448.5476 269.9344
v -2429.8721 -448.7977 269.7687
f 421 422 423
v -2428.7854 -446.6786 269.6903
v -2429.9355 -446.3106 269.9349
v -2429.9321 -446.3102 261.0043
f 424 425 426
v -2429.9321 -446.3102 261.0043
v -2428.7822 -446.6782 261.0047
v -2428.7854 -446.6786 269.6903
f 427 428 429
v -2449.2597 -435.1144 260.5436
v -2449.2635 -435.1148 270.9522
v -2449.4584 -435.0583 270.9272
f 430 431 432

g building_ID_7A80387E-F30D-49D5-AEE1-76F78C73C240
v -2373.3604 -430.4637 269.4494
v -2369.9493 -422.4989 269.9682
v -2370.7225 -422.2618 269.4739
f 433 434 435
v -2369.9493 -422.4989 269.9682
v -2366.8559 -423.2082 271.9012
v -2369.8675 -422.2411 269.9683
f 436 437 438
v -2366.8559 -423.2082 271.9012
v -2369.9493 -422.4989 269.9682
v -2373.3604 -430.4637 269.4494
f 439 440 441
v -2372.9263 -442.3718 271.8977
v -2373.3604 -430.4637 269.4494
v -2376.7860 -441.1173 269.4174
f 442 443 444
v -2366.8559 -423.2082 271.9012
v -2373.3604 -430.4637 269.4494
v -2372.9263 -442.3718 271.8977
f 445 446 447
v -2363.0392 -424.4344 269.0256
v -2372.9263 -442.3718 271.8977
v -2369.1146 -443.6109 269.0221
f 448 449 450
v -2372.9263 -442.3718 271.8977
v -2363.0392 -424.4344 269.0256
v -2366.8559 -423.2082 271.9012
f 451 452 453
v -2376.7845 -441.1172 265.4175
v -2376.7860 -441.1173 269.4174
v -2373.3604 -430.4637 269.4494
f 454 455 456
v -2376.7845 -441.1172 265.4175
v -2374.4143 -433.7513 261.4951
v -2376.7831 -441.1169 261.4937
f 457 458 459
v -2376.7845 -441.1172 265.4175
v -2373.3604 -430.4637 269.4494
v -2374.4143 -433.7513 261.4951
f 460 461 462
v -2370.7225 -422.2618 269.4739
v -2370.7196 -422.2615 261.4972
v -2373.3604 -430.4637 269.4494
f 463 464 465
v -2371.8561 -425.7974 261.4966
v -2374.4143 -433.7513 261.4951
v -2373.3604 -430.4637 269.4494
f 466 467 468
v -2370.7196 -422.2615 261.4972
v -2371.8561 -425.7974 261.4966
v -2373.3604 -430.4637 269.4494
f 469 470 471
v -2369.9462 -422.4985 261.4975
v -2369.9493 -422.4989 269.9682
v -2369.8675 -422.2411 269.9683
f 472 473 474
v -2370.7196 -422.2615 261.4972
v -2370.7225 -422.2618 269.4739
v -2369.9462 -422.4985 261.4975
f 475 476 477
v -2369.9493 -422.4989 269.9682
v -2369.9462 -422.4985 261.4975
v -2370.7225 -422.2618 269.4739
f 478 479 480
v -2363.0365 -424.4340 261.4999
v -2363.0366 -424.4341 261.7859
v -2369.1120 -443.6105 261.7824
f 481 482 483
v -2366.8521 -423.2079 261.4986
v -2369.9462 -422.4985 261.4975
v -2369.8646 -422.2408 261.4976
f 484 485 486
v -2366.8521 -423.2079 261.4986
v -2374.4143 -433.7513 261.4951
v -2371.8561 -425.7974 261.4966
f 487 488 489
v -2371.8561 -425.7974 261.4966
v -2370.7196 -422.2615 261.4972
v -2369.9462 -422.4985 261.4975
f 490 491 492
v -2366.8521 -423.2079 261.4986
v -2371.8561 -425.7974 261.4966
v -2369.9462 -422.4985 261.4975
f 493 494 495
v -2374.4143 -433.7513 261.4951
v -2366.8521 -423.2079 261.4986
v -2363.0365 -424.4340 261.4999
f 496 497 498
v -2374.4143 -433.7513 261.4951
v -2363.0365 -424.4340 261.4999
v -2369.1119 -443.6104 261.4964
f 499 500 501
v -2372.9225 -442.3713 261.4951
v -2374.4143 -433.7513 261.4951
v -2369.1119 -443.6104 261.4964
f 502 503 504
v -2372.9225 -442.3713 261.4951
v -2376.7831 -441.1169 261.4937
v -2374.4143 -433.7513 261.4951
f 505 506 507
v -2358.2135 -426.2150 261.7876
v -2358.2158 -426.2153 268.3254
v -2364.2317 -445.1979 268.3218
f 508 509 510
v -2360.3576 -425.5352 261.7869
v -2360.3600 -425.5356 268.6317
v -2358.2158 -426.2153 268.3254
f 511 512 513
v -2360.2890 -425.3164 261.7869
v -2360.2915 -425.3168 268.6317
v -2360.3600 -425.5356 268.6317
f 514 515 516
v -2360.2915 -425.3168 268.6317
v -2363.0392 -424.4344 269.0256
v -2360.3600 -425.5356 268.6317
f 517 518 519
v -2369.1146 -443.6109 269.0221
v -2360.3600 -425.5356 268.6317
v -2363.0392 -424.4344 269.0256
f 520 521 522
v -2358.2158 -426.2153 268.3254
v -2360.3600 -425.5356 268.6317
v -2364.2317 -445.1979 268.3218
f 523 524 525
v -2369.1146 -443.6109 269.0221
v -2364.2317 -445.1979 268.3218
v -2360.3600 -425.5356 268.6317
f 526 527 528
v -2360.3576 -425.5352 261.7869
v -2358.2135 -426.2150 261.7876
v -2364.2294 -445.1976 261.7841
f 529 530 531
v -2369.1120 -443.6105 261.7824
v -2360.3576 -425.5352 261.7869
v -2364.2294 -445.1976 261.7841
f 532 533 534
v -2360.2890 -425.3164 261.7869
v -2360.3576 -425.5352 261.7869
v -2363.0366 -424.4341 261.7859
f 535 536 537
v -2369.1120 -443.6105 261.7824
v -2363.0366 -424.4341 261.7859
v -2360.3576 -425.5352 261.7869
f 538 539 540
v -2363.0392 -424.4344 269.0256
v -2366.8521 -423.2079 261.4986
v -2369.8675 -422.2411 269.9683
f 541 542 543
v -2369.8675 -422.2411 269.9683
v -2366.8521 -423.2079 261.4986
v -2369.8646 -422.2408 261.4976
f 544 545 546
v -2363.0392 -424.4344 269.0256
v -2369.8675 -422.2411 269.9683
v -2366.8559 -423.2082 271.9012
f 547 548 549
v -2363.0366 -424.4341 261.7859
v -2363.0392 -424.4344 269.0256
v -2360.2915 -425.3168 268.6317
f 550 551 552
v -2360.2915 -425.3168 268.6317
v -2360.2890 -425.3164 261.7869
v -2363.0366 -424.4341 261.7859
f 553 554 555
v -2363.0366 -424.4341 261.7859
v -2363.0365 -424.4340 261.4999
v -2366.8521 -423.2079 261.4986
f 556 557 558
v -2363.0392 -424.4344 269.0256
v -2363.0366 -424.4341 261.7859
v -2366.8521 -423.2079 261.4986
f 559 560 561
v -2369.1120 -443.6105 261.7824
v -2364.2317 -445.1979 268.3218
v -2369.1146 -443.6109 269.0221
f 562 563 564
v -2364.2317 -445.1979 268.3218
v -2369.1120 -443.6105 261.7824
v -2364.2294 -445.1976 261.7841
f 565 566 567
v -2369.1120 -443.6105 261.7824
v -2372.9225 -442.3713 261.4951
v -2369.1119 -443.6104 261.4964
f 568 569 570
v -2376.7845 -441.1172 265.4175
v -2369.1120 -443.6105 261.7824
v -2369.1146 -443.6109 269.0221
f 571 572 573
v -2376.7860 -441.1173 269.4174
v -2376.7845 -441.1172 265.4175
v -2369.1146 -443.6109 269.0221
f 574 575 576
v -2376.7831 -441.1169 261.4937
v -2372.9225 -442.3713 261.4951
v -2376.7845 -441.1172 265.4175
f 577 578 579
v -2376.7845 -441.1172 265.4175
v -2372.9225 -442.3713 261.4951
v -2369.1120 -443.6105 261.7824
f 580 581 582
v -2376.7860 -441.1173 269.4174
v -2369.1146 -443.6109 269.0221
v -2372.9263 -442.3718 271.8977
f 583 584 585
v -2369.9462 -422.4985 261.4975
v -2369.8675 -422.2411 269.9683
v -2369.8646 -422.2408 261.4976
f 586 587 588
v -2363.0365 -424.4340 261.4999
v -2369.1120 -443.6105 261.7824
v -2369.1119 -443.6104 261.4964
f 589 590 591
v -2358.2135 -426.2150 261.7876
v -2364.2317 -445.1979 268.3218
v -2364.2294 -445.1976 261.7841
f 592 593 594
v -2360.3576 -425.5352 261.7869
v -2358.2158 -426.2153 268.3254
v -2358.2135 -426.2150 261.7876
f 595 596 597
v -2360.2890 -425.3164 261.7869
v -2360.3600 -425.5356 268.6317
v -2360.3576 -425.5352 261.7869
f 598 599 600

g building_ID_57D3D714-099F-4FBE-9093-950EF5E27207
v -2388.7876 -443.4313 273.7326
v -2377.7125 -408.3404 273.7391
v -2391.6685 -403.9370 273.7342
f 601 602 603
v -2391.6685 -403.9370 273.7342
v -2402.8275 -439.0016 273.7275
v -2388.7876 -443.4313 273.7326
f 604 605 606
v -2402.8230 -439.0010 261.2780
v -2402.8275 -439.0016 273.7275
v -2391.6685 -403.9370 273.7342
f 607 608 609
v -2388.7831 -443.4307 261.2831
v -2388.7876 -443.4313 273.7326
v -2402.8275 -439.0016 273.7275
f 610 611 612
v -2377.7080 -408.3398 261.2896
v -2377.7125 -408.3404 273.7391
v -2388.7876 -443.4313 273.7326
f 613 614 615
v -2391.6640 -403.9365 261.2846
v -2391.6685 -403.9370 273.7342
v -2377.7125 -408.3404 273.7391
f 616 617 618
v -2377.7080 -408.3398 261.2896
v -2388.7831 -443.4307 261.2831
v -2402.8230 -439.0010 261.2780
f 619 620 621
v -2402.8230 -439.0010 261.2780
v -2391.6640 -403.9365 261.2846
v -2377.7080 -408.3398 261.2896
f 622 623 624
v -2402.8230 -439.0010 261.2780
v -2391.6685 -403.9370 273.7342
v -2391.6640 -403.9365 261.2846
f 625 626 627
v -2388.7831 -443.4307 261.2831
v -2402.8275 -439.0016 273.7275
v -2402.8230 -439.0010 261.2780
f 628 629 630
v -2377.7080 -408.3398 261.2896
v -2388.7876 -443.4313 273.7326
v -2388.7831 -443.4307 261.2831
f 631 632 633
v -2391.6640 -403.9365 261.2846
v -2377.7125 -408.3404 273.7391
v -2377.7080 -408.3398 261.2896
f 634 635 636

g building_ID_750EB98C-EBDE-4FCE-80DC-EC383542229D
v -2366.6870 -409.7100 272.6821
v -2357.1522 -401.1786 272.7392
v -2363.3068 -399.2001 272.6841
f 637 638 639
v -2363.0899 -420.0975 272.7358
v -2354.1238 -402.1527 272.7663
v -2357.1522 -401.1786 272.7392
f 640 641 642
v -2351.0635 -403.1369 272.7933
v -2354.1238 -402.1527 272.7663
v -2357.0441 -422.0117 272.7899
f 643 644 645
v -2363.0899 -420.0975 272.7358
v -2357.0441 -422.0117 272.7899
v -2354.1238 -402.1527 272.7663
f 646 647 648
v -2363.0899 -420.0975 272.7358
v -2357.1522 -401.1786 272.7392
v -2366.6870 -409.7100 272.6821
f 649 650 651
v -2363.0899 -420.0975 272.7358
v -2366.6870 -409.7100 272.6821
v -2368.3684 -418.4403 272.6890
f 652 653 654
v -2369.3885 -418.1126 272.6806
v -2368.3684 -418.4403 272.6890
v -2366.6870 -409.7100 272.6821
f 655 656 657
v -2368.3684 -418.4403 272.6890
v -2369.6168 -422.3219 272.6882
v -2363.0899 -420.0975 272.7358
f 658 659 660
v -2369.6168 -422.3219 272.6882
v -2364.3324 -424.0201 272.7351
v -2363.0899 -420.0975 272.7358
f 661 662 663
v -2363.3027 -399.1996 261.1926
v -2363.3068 -399.2001 272.6841
v -2357.1522 -401.1786 272.7392
f 664 665 666
v -2357.1522 -401.1786 272.7392
v -2354.1238 -402.1527 272.7663
v -2351.0594 -403.1365 261.1968
f 667 668 669
v -2363.3027 -399.1996 261.1926
v -2357.1522 -401.1786 272.7392
v -2351.0594 -403.1365 261.1968
f 670 671 672
v -2366.6870 -409.7100 272.6821
v -2369.3844 -418.1121 261.1890
v -2369.3885 -418.1126 272.6806
f 673 674 675
v -2369.3844 -418.1121 261.1890
v -2366.6870 -409.7100 272.6821
v -2363.3027 -399.1996 261.1926
f 676 677 678
v -2368.3643 -418.4398 261.1894
v -2368.3684 -418.4403 272.6890
v -2369.3885 -418.1126 272.6806
f 679 680 681
v -2368.3643 -418.4398 261.1894
v -2369.3885 -418.1126 272.6806
v -2369.3844 -418.1121 261.1890
f 682 683 684
v -2368.3643 -418.4398 261.1894
v -2369.6127 -422.3214 261.1886
v -2369.6168 -422.3219 272.6882
f 685 686 687
v -2369.6168 -422.3219 272.6882
v -2368.3684 -418.4403 272.6890
v -2368.3643 -418.4398 261.1894
f 688 689 690
v -2363.5064 -421.4258 261.5000
v -2363.0857 -420.0970 261.1912
v -2363.0860 -420.0970 261.7862
f 691 692 693
v -2363.5065 -421.4258 261.7860
v -2363.5064 -421.4258 261.5000
v -2363.0860 -420.0970 261.7862
f 694 695 696
v -2364.3283 -424.0195 261.1905
v -2363.5064 -421.4258 261.5000
v -2364.3284 -424.0196 261.4995
f 697 698 699
v -2363.0857 -420.0970 261.1912
v -2363.5064 -421.4258 261.5000
v -2364.3283 -424.0195 261.1905
f 700 701 702
v -2357.0400 -422.0111 261.1933
v -2357.0441 -422.0117 272.7899
v -2359.0440 -421.3783 271.6822
f 703 704 705
v -2363.0899 -420.0975 272.7358
v -2359.0440 -421.3783 271.6822
v -2357.0441 -422.0117 272.7899
f 706 707 708
v -2363.0857 -420.0970 261.1912
v -2357.0400 -422.0111 261.1933
v -2359.0405 -421.3778 261.7876
f 709 710 711
v -2359.0440 -421.3783 271.6822
v -2363.0899 -420.0975 272.7358
v -2363.0895 -420.0974 271.6808
f 712 713 714
v -2359.0405 -421.3778 261.7876
v -2363.0860 -420.0970 261.7862
v -2363.0857 -420.0970 261.1912
f 715 716 717
v -2357.0441 -422.0117 272.7899
v -2351.0594 -403.1365 261.1968
v -2351.0635 -403.1369 272.7933
f 718 719 720
v -2357.0441 -422.0117 272.7899
v -2357.0400 -422.0111 261.1933
v -2351.0594 -403.1365 261.1968
f 721 722 723
v -2363.3027 -399.1996 261.1926
v -2368.3643 -418.4398 261.1894
v -2369.3844 -418.1121 261.1890
f 724 725 726
v -2363.0857 -420.0970 261.1912
v -2364.3283 -424.0195 261.1905
v -2368.3643 -418.4398 261.1894
f 727 728 729
v -2369.6127 -422.3214 261.1886
v -2368.3643 -418.4398 261.1894
v -2364.3283 -424.0195 261.1905
f 730 731 732
v -2363.3027 -399.1996 261.1926
v -2363.0857 -420.0970 261.1912
v -2368.3643 -418.4398 261.1894
f 733 734 735
v -2363.0857 -420.0970 261.1912
v -2351.0594 -403.1365 261.1968
v -2357.0400 -422.0111 261.1933
f 736 737 738
v -2363.3027 -399.1996 261.1926
v -2351.0594 -403.1365 261.1968
v -2363.0857 -420.0970 261.1912
f 739 740 741
v -2362.2126 -421.8353 261.5004
v -2362.2127 -421.8353 261.7864
v -2363.0366 -424.4341 261.7859
f 742 743 744
v -2362.2126 -421.8353 261.5004
v -2363.5064 -421.4258 261.5000
v -2363.5065 -421.4258 261.7860
f 745 746 747
v -2363.5065 -421.4258 261.7860
v -2362.2127 -421.8353 261.7864
v -2362.2126 -421.8353 261.5004
f 748 749 750
v -2362.2126 -421.8353 261.5004
v -2364.3284 -424.0196 261.4995
v -2363.5064 -421.4258 261.5000
f 751 752 753
v -2364.3284 -424.0196 261.4995
v -2362.2126 -421.8353 261.5004
v -2363.0365 -424.4340 261.4999
f 754 755 756
v -2363.0895 -420.0974 271.6808
v -2363.0899 -420.0975 272.7358
v -2364.3320 -424.0200 271.6801
f 757 758 759
v -2359.0440 -421.3783 271.6822
v -2364.3320 -424.0200 271.6801
v -2360.2926 -425.3179 271.6815
f 760 761 762
v -2364.3320 -424.0200 271.6801
v -2359.0440 -421.3783 271.6822
v -2363.0895 -420.0974 271.6808
f 763 764 765
v -2359.0405 -421.3778 261.7876
v -2359.0440 -421.3783 271.6822
v -2360.2926 -425.3179 271.6815
f 766 767 768
v -2363.0860 -420.0970 261.7862
v -2359.0405 -421.3778 261.7876
v -2362.2127 -421.8353 261.7864
f 769 770 771
v -2360.2890 -425.3174 261.7869
v -2362.2127 -421.8353 261.7864
v -2359.0405 -421.3778 261.7876
f 772 773 774
v -2363.5065 -421.4258 261.7860
v -2363.0860 -420.0970 261.7862
v -2362.2127 -421.8353 261.7864
f 775 776 777
v -2360.2890 -425.3174 261.7869
v -2363.0366 -424.4341 261.7859
v -2362.2127 -421.8353 261.7864
f 778 779 780
v -2369.6168 -422.3219 272.6882
v -2364.3320 -424.0200 271.6801
v -2364.3324 -424.0201 272.7351
f 781 782 783
v -2363.0366 -424.4341 261.7859
v -2360.2926 -425.3179 271.6815
v -2364.3320 -424.0200 271.6801
f 784 785 786
v -2360.2926 -425.3179 271.6815
v -2363.0366 -424.4341 261.7859
v -2360.2890 -425.3174 261.7869
f 787 788 789
v -2363.0366 -424.4341 261.7859
v -2364.3284 -424.0196 261.4995
v -2363.0365 -424.4340 261.4999
f 790 791 792
v -2364.3284 -424.0196 261.4995
v -2363.0366 -424.4341 261.7859
v -2364.3320 -424.0200 271.6801
f 793 794 795
v -2364.3320 -424.0200 271.6801
v -2369.6127 -422.3214 261.1886
v -2364.3284 -424.0196 261.4995
f 796 797 798
v -2369.6168 -422.3219 272.6882
v -2369.6127 -422.3214 261.1886
v -2364.3320 -424.0200 271.6801
f 799 800 801
v -2364.3283 -424.0195 261.1905
v -2364.3284 -424.0196 261.4995
v -2369.6127 -422.3214 261.1886
f 802 803 804
v -2354.1238 -402.1527 272.7663
v -2351.0635 -403.1369 272.7933
v -2351.0594 -403.1365 261.1968
f 805 806 807
v -2366.6870 -409.7100 272.6821
v -2363.3068 -399.2001 272.6841
v -2363.3027 -399.1996 261.1926
f 808 809 810
v -2357.0400 -422.0111 261.1933
v -2359.0440 -421.3783 271.6822
v -2359.0405 -421.3778 261.7876
f 811 812 813
v -2362.2126 -421.8353 261.5004
v -2363.0366 -424.4341 261.7859
v -2363.0365 -424.4340 261.4999
f 814 815 816
v -2363.0899 -420.0975 272.7358
v -2364.3324 -424.0201 272.7351
v -2364.3320 -424.0200 271.6801
f 817 818 819
v -2359.0405 -421.3778 261.7876
v -2360.2926 -425.3179 271.6815
v -2360.2890 -425.3174 261.7869
f 820 821 822

g building_ID_E2D8B1AD-1DA6-4AA7-AEE5-3B1D6A6409E0
v -2244.0597 -406.7796 284.9642
v -2260.7579 -429.2856 284.9568
v -2243.6042 -428.9336 284.9629
f 823 824 825
v -2260.7579 -429.2856 284.9568
v -2244.0597 -406.7796 284.9642
v -2261.2526 -407.1615 284.9581
f 826 827 828
v -2261.2447 -407.1606 262.0180
v -2261.2526 -407.1615 284.9581
v -2244.0597 -406.7796 284.9642
f 829 830 831
v -2260.7501 -429.2846 262.0167
v -2260.7579 -429.2856 284.9568
v -2261.2526 -407.1615 284.9581
f 832 833 834
v -2243.5964 -428.9326 262.0228
v -2243.6042 -428.9336 284.9629
v -2260.7579 -429.2856 284.9568
f 835 836 837
v -2244.0519 -406.7787 262.0241
v -2244.0597 -406.7796 284.9642
v -2243.6042 -428.9336 284.9629
f 838 839 840
v -2260.7501 -429.2846 262.0167
v -2261.2447 -407.1606 262.0180
v -2244.0519 -406.7787 262.0241
f 841 842 843
v -2244.0519 -406.7787 262.0241
v -2243.5964 -428.9326 262.0228
v -2260.7501 -429.2846 262.0167
f 844 845 846
v -2261.2447 -407.1606 262.0180
v -2244.0597 -406.7796 284.9642
v -2244.0519 -406.7787 262.0241
f 847 848 849
v -2260.7501 -429.2846 262.0167
v -2261.2526 -407.1615 284.9581
v -2261.2447 -407.1606 262.0180
f 850 851 852
v -2243.5964 -428.9326 262.0228
v -2260.7579 -429.2856 284.9568
v -2260.7501 -429.2846 262.0167
f 853 854 855
v -2244.0519 -406.7787 262.0241
v -2243.6042 -428.9336 284.9629
v -2243.5964 -428.9326 262.0228
f 856 857 858

g building_ID_F490EE4C-E3E4-4BAF-A1CC-0F63DE819DB6
v -2180.7382 -445.3239 277.0828
v -2174.6999 -445.1762 277.0849
v -2174.9051 -435.2097 277.0855
f 859 860 861
v -2191.4087 -445.5623 277.0792
v -2180.7022 -446.8130 277.0827
v -2180.7382 -445.3239 277.0828
f 862 863 864
v -2180.7382 -445.3239 277.0828
v -2174.9051 -435.2097 277.0855
v -2195.2620 -435.6291 277.0785
f 865 866 867
v -2195.0279 -445.6486 277.0779
v -2191.4087 -445.5623 277.0792
v -2195.2620 -435.6291 277.0785
f 868 869 870
v -2180.7382 -445.3239 277.0828
v -2195.2620 -435.6291 277.0785
v -2191.4087 -445.5623 277.0792
f 871 872 873
v -2180.7022 -446.8130 277.0827
v -2191.4087 -445.5623 277.0792
v -2191.3738 -447.0673 277.0791
f 874 875 876
v -2174.6948 -445.1754 261.8355
v -2174.6999 -445.1762 277.0849
v -2180.7382 -445.3239 277.0828
f 877 878 879
v -2174.9001 -435.2090 261.8361
v -2174.9051 -435.2097 277.0855
v -2174.6999 -445.1762 277.0849
f 880 881 882
v -2195.2569 -435.6283 261.8291
v -2195.2620 -435.6291 277.0785
v -2174.9051 -435.2097 277.0855
f 883 884 885
v -2195.0228 -445.6478 261.8285
v -2195.0279 -445.6486 277.0779
v -2195.2620 -435.6291 277.0785
f 886 887 888
v -2191.4037 -445.5616 261.8298
v -2191.4087 -445.5623 277.0792
v -2195.0279 -445.6486 277.0779
f 889 890 891
v -2191.3687 -447.0666 261.8297
v -2191.3738 -447.0673 277.0791
v -2191.4087 -445.5623 277.0792
f 892 893 894
v -2180.6971 -446.8123 261.8333
v -2180.7022 -446.8130 277.0827
v -2191.3738 -447.0673 277.0791
f 895 896 897
v -2180.7332 -445.3232 261.8334
v -2180.7382 -445.3239 277.0828
v -2180.7022 -446.8130 277.0827
f 898 899 900
v -2195.0228 -445.6478 261.8285
v -2195.2569 -435.6283 261.8291
v -2191.4037 -445.5616 261.8298
f 901 902 903
v -2180.7332 -445.3232 261.8334
v -2191.4037 -445.5616 261.8298
v -2195.2569 -435.6283 261.8291
f 904 905 906
v -2191.3687 -447.0666 261.8297
v -2191.4037 -445.5616 261.8298
v -2180.6971 -446.8123 261.8333
f 907 908 909
v -2180.7332 -445.3232 261.8334
v -2174.9001 -435.2090 261.8361
v -2174.6948 -445.1754 261.8355
f 910 911 912
v -2191.4037 -445.5616 261.8298
v -2180.7332 -445.3232 261.8334
v -2180.6971 -446.8123 261.8333
f 913 914 915
v -2195.2569 -435.6283 261.8291
v -2174.9001 -435.2090 261.8361
v -2180.7332 -445.3232 261.8334
f 916 917 918
v -2174.6948 -445.1754 261.8355
v -2180.7382 -445.3239 277.0828
v -2180.7332 -445.3232 261.8334
f 919 920 921
v -2174.9001 -435.2090 261.8361
v -2174.6999 -445.1762 277.0849
v -2174.6948 -445.1754 261.8355
f 922 923 924
v -2195.2569 -435.6283 261.8291
v -2174.9051 -435.2097 277.0855
v -2174.9001 -435.2090 261.8361
f 925 926 927
v -2195.0228 -445.6478 261.8285
v -2195.2620 -435.6291 277.0785
v -2195.2569 -435.6283 261.8291
f 928 929 930
v -2191.4037 -445.5616 261.8298
v -2195.0279 -445.6486 277.0779
v -2195.0228 -445.6478 261.8285
f 931 932 933
v -2191.3687 -447.0666 261.8297
v -2191.4087 -445.5623 277.0792
v -2191.4037 -445.5616 261.8298
f 934 935 936
v -2180.6971 -446.8123 261.8333
v -2191.3738 -447.0673 277.0791
v -2191.3687 -447.0666 261.8297
f 937 938 939
v -2180.7332 -445.3232 261.8334
v -2180.7022 -446.8130 277.0827
v -2180.6971 -446.8123 261.8333
f 940 941 942

g building_ID_126ED00D-412A-4CE8-A8E1-9DEB321F6DF8
v -2163.9977 -487.4954 277.4914
v -2164.4233 -466.8245 277.4928
v -2173.7987 -473.3792 277.4892
f 943 944 945
v -2173.9476 -467.0289 277.4896
v -2173.7987 -473.3792 277.4892
v -2164.4233 -466.8245 277.4928
f 946 947 948
v -2173.7987 -473.3792 277.4892
v -2175.3118 -473.4152 277.4886
v -2175.0689 -483.8717 277.4879
f 949 950 951
v -2173.7987 -473.3792 277.4892
v -2175.0689 -483.8717 277.4879
v -2173.5508 -483.8358 277.4885
f 952 953 954
v -2173.5508 -483.8358 277.4885
v -2173.4712 -487.6990 277.4881
v -2163.9977 -487.4954 277.4914
f 955 956 957
v -2173.7987 -473.3792 277.4892
v -2173.5508 -483.8358 277.4885
v -2163.9977 -487.4954 277.4914
f 958 959 960
v -2173.9420 -467.0280 260.3522
v -2173.9476 -467.0289 277.4896
v -2164.4233 -466.8245 277.4928
f 961 962 963
v -2173.7931 -473.3784 260.3518
v -2173.7987 -473.3792 277.4892
v -2173.9476 -467.0289 277.4896
f 964 965 966
v -2175.3062 -473.4143 260.3512
v -2175.3118 -473.4152 277.4886
v -2173.7987 -473.3792 277.4892
f 967 968 969
v -2175.0633 -483.8708 260.3505
v -2175.0689 -483.8717 277.4879
v -2175.3118 -473.4152 277.4886
f 970 971 972
v -2173.5452 -483.8349 260.3511
v -2173.5508 -483.8358 277.4885
v -2175.0689 -483.8717 277.4879
f 973 974 975
v -2173.4656 -487.6981 260.3508
v -2173.4712 -487.6990 277.4881
v -2173.5508 -483.8358 277.4885
f 976 977 978
v -2163.9921 -487.4945 260.3540
v -2163.9977 -487.4954 277.4914
v -2173.4712 -487.6990 277.4881
f 979 980 981
v -2164.4176 -466.8237 260.3554
v -2164.4233 -466.8245 277.4928
v -2163.9977 -487.4954 277.4914
f 982 983 984
v -2173.9420 -467.0280 260.3522
v -2164.4176 -466.8237 260.3554
v -2173.7931 -473.3784 260.3518
f 985 986 987
v -2163.9921 -487.4945 260.3540
v -2173.7931 -473.3784 260.3518
v -2164.4176 -466.8237 260.3554
f 988 989 990
v -2175.3062 -473.4143 260.3512
v -2173.7931 -473.3784 260.3518
v -2175.0633 -483.8708 260.3505
f 991 992 993
v -2173.5452 -483.8349 260.3511
v -2163.9921 -487.4945 260.3540
v -2173.4656 -487.6981 260.3508
f 994 995 996
v -2173.7931 -473.3784 260.3518
v -2173.5452 -483.8349 260.3511
v -2175.0633 -483.8708 260.3505
f 997 998 999
v -2173.7931 -473.3784 260.3518
v -2163.9921 -487.4945 260.3540
v -2173.5452 -483.8349 260.3511
f 1000 1001 1002
v -2173.9420 -467.0280 260.3522
v -2164.4233 -466.8245 277.4928
v -2164.4176 -466.8237 260.3554
f 1003 1004 1005
v -2173.7931 -473.3784 260.3518
v -2173.9476 -467.0289 277.4896
v -2173.9420 -467.0280 260.3522
f 1006 1007 1008
v -2175.3062 -473.4143 260.3512
v -2173.7987 -473.3792 277.4892
v -2173.7931 -473.3784 260.3518
f 1009 1010 1011
v -2175.0633 -483.8708 260.3505
v -2175.3118 -473.4152 277.4886
v -2175.3062 -473.4143 260.3512
f 1012 1013 1014
v -2173.5452 -483.8349 260.3511
v -2175.0689 -483.8717 277.4879
v -2175.0633 -483.8708 260.3505
f 1015 1016 1017
v -2173.4656 -487.6981 260.3508
v -2173.5508 -483.8358 277.4885
v -2173.5452 -483.8349 260.3511
f 1018 1019 1020
v -2163.9921 -487.4945 260.3540
v -2173.4712 -487.6990 277.4881
v -2173.4656 -487.6981 260.3508
f 1021 1022 1023
v -2164.4176 -466.8237 260.3554
v -2163.9977 -487.4954 277.4914
v -2163.9921 -487.4945 260.3540
f 1024 1025 1026

g building_ID_4CD96AE5-FC77-4B49-9408-C262131E91A0
v -2173.1475 -501.9917 277.4871
v -2173.0057 -508.0180 277.4867
v -2163.5793 -507.8253 277.4899
f 1027 1028 1029
v -2173.3968 -491.2951 277.4878
v -2174.6466 -502.0266 277.4866
v -2173.1475 -501.9917 277.4871
f 1030 1031 1032
v -2173.1475 -501.9917 277.4871
v -2163.5793 -507.8253 277.4899
v -2163.9977 -487.4954 277.4914
f 1033 1034 1035
v -2173.4712 -487.6990 277.4881
v -2173.3968 -491.2951 277.4878
v -2163.9977 -487.4954 277.4914
f 1036 1037 1038
v -2173.1475 -501.9917 277.4871
v -2163.9977 -487.4954 277.4914
v -2173.3968 -491.2951 277.4878
f 1039 1040 1041
v -2174.6466 -502.0266 277.4866
v -2173.3968 -491.2951 277.4878
v -2174.8949 -491.3301 277.4873
f 1042 1043 1044
v -2173.3912 -491.2942 260.3505
v -2173.3968 -491.2951 277.4878
v -2173.4712 -487.6990 277.4881
f 1045 1046 1047
v -2174.8893 -491.3292 260.3500
v -2174.8949 -491.3301 277.4873
v -2173.3968 -491.2951 277.4878
f 1048 1049 1050
v -2174.6410 -502.0257 260.3493
v -2174.6466 -502.0266 277.4866
v -2174.8949 -491.3301 277.4873
f 1051 1052 1053
v -2173.1419 -501.9907 260.3498
v -2173.1475 -501.9917 277.4871
v -2174.6466 -502.0266 277.4866
f 1054 1055 1056
v -2173.0001 -508.0170 260.3494
v -2173.0057 -508.0180 277.4867
v -2173.1475 -501.9917 277.4871
f 1057 1058 1059
v -2163.5737 -507.8244 260.3526
v -2163.5793 -507.8253 277.4899
v -2173.0057 -508.0180 277.4867
f 1060 1061 1062
v -2163.9921 -487.4945 260.3540
v -2163.9977 -487.4954 277.4914
v -2163.5793 -507.8253 277.4899
f 1063 1064 1065
v -2173.4656 -487.6981 260.3508
v -2173.4712 -487.6990 277.4881
v -2163.9977 -487.4954 277.4914
f 1066 1067 1068
v -2173.4656 -487.6981 260.3508
v -2163.9921 -487.4945 260.3540
v -2173.3912 -491.2942 260.3505
f 1069 1070 1071
v -2173.1419 -501.9907 260.3498
v -2173.3912 -491.2942 260.3505
v -2163.9921 -487.4945 260.3540
f 1072 1073 1074
v -2174.8893 -491.3292 260.3500
v -2173.3912 -491.2942 260.3505
v -2174.6410 -502.0257 260.3493
f 1075 1076 1077
v -2173.1419 -501.9907 260.3498
v -2163.5737 -507.8244 260.3526
v -2173.0001 -508.0170 260.3494
f 1078 1079 1080
v -2173.3912 -491.2942 260.3505
v -2173.1419 -501.9907 260.3498
v -2174.6410 -502.0257 260.3493
f 1081 1082 1083
v -2163.9921 -487.4945 260.3540
v -2163.5737 -507.8244 260.3526
v -2173.1419 -501.9907 260.3498
f 1084 1085 1086
v -2173.3912 -491.2942 260.3505
v -2173.4712 -487.6990 277.4881
v -2173.4656 -487.6981 260.3508
f 1087 1088 1089
v -2174.8893 -491.3292 260.3500
v -2173.3968 -491.2951 277.4878
v -2173.3912 -491.2942 260.3505
f 1090 1091 1092
v -2174.6410 -502.0257 260.3493
v -2174.8949 -491.3301 277.4873
v -2174.8893 -491.3292 260.3500
f 1093 1094 1095
v -2173.1419 -501.9907 260.3498
v -2174.6466 -502.0266 277.4866
v -2174.6410 -502.0257 260.3493
f 1096 1097 1098
v -2173.0001 -508.0170 260.3494
v -2173.1475 -501.9917 277.4871
v -2173.1419 -501.9907 260.3498
f 1099 1100 1101
v -2163.5737 -507.8244 260.3526
v -2173.0057 -508.0180 277.4867
v -2173.0001 -508.0170 260.3494
f 1102 1103 1104
v -2163.9921 -487.4945 260.3540
v -2163.5793 -507.8253 277.4899
v -2163.5737 -507.8244 260.3526
f 1105 1106 1107
v -2173.4656 -487.6981 260.3508
v -2163.9977 -487.4954 277.4914
v -2163.9921 -487.4945 260.3540
f 1108 1109 1110

g building_ID_9D397B84-D395-4DCC-9235-922D79F6E71B
v -2233.9347 -489.9446 278.1851
v -2234.1814 -479.3671 278.1858
v -2235.6805 -479.4021 278.1853
f 1111 1112 1113
v -2234.1814 -479.3671 278.1858
v -2224.7686 -474.2124 278.1895
v -2234.2971 -474.4338 278.1861
f 1114 1115 1116
v -2224.7686 -474.2124 278.1895
v -2234.1814 -479.3671 278.1858
v -2224.2423 -494.5647 278.1881
f 1117 1118 1119
v -2234.1814 -479.3671 278.1858
v -2233.9347 -489.9446 278.1851
v -2224.2423 -494.5647 278.1881
f 1120 1121 1122
v -2233.8209 -494.8130 278.1847
v -2224.2423 -494.5647 278.1881
v -2233.9347 -489.9446 278.1851
f 1123 1124 1125
v -2235.6805 -479.4021 278.1853
v -2235.4328 -489.9837 278.1845
v -2233.9347 -489.9446 278.1851
f 1126 1127 1128
v -2234.1762 -479.3664 262.9884
v -2234.1814 -479.3671 278.1858
v -2234.2971 -474.4338 278.1861
f 1129 1130 1131
v -2235.6753 -479.4013 262.9879
v -2235.6805 -479.4021 278.1853
v -2234.1814 -479.3671 278.1858
f 1132 1133 1134
v -2235.4277 -489.9828 262.9871
v -2235.4328 -489.9837 278.1845
v -2235.6805 -479.4021 278.1853
f 1135 1136 1137
v -2233.9297 -489.9438 262.9877
v -2233.9347 -489.9446 278.1851
v -2235.4328 -489.9837 278.1845
f 1138 1139 1140
v -2233.8157 -494.8121 262.9873
v -2233.8209 -494.8130 278.1847
v -2233.9347 -489.9446 278.1851
f 1141 1142 1143
v -2224.2371 -494.5638 262.9907
v -2224.2423 -494.5647 278.1881
v -2233.8209 -494.8130 278.1847
f 1144 1145 1146
v -2224.7635 -474.2116 262.9921
v -2224.7686 -474.2124 278.1895
v -2224.2423 -494.5647 278.1881
f 1147 1148 1149
v -2234.2920 -474.4331 262.9887
v -2234.2971 -474.4338 278.1861
v -2224.7686 -474.2124 278.1895
f 1150 1151 1152
v -2234.1762 -479.3664 262.9884
v -2234.2920 -474.4331 262.9887
v -2224.7635 -474.2116 262.9921
f 1153 1154 1155
v -2233.9297 -489.9438 262.9877
v -2235.6753 -479.4013 262.9879
v -2234.1762 -479.3664 262.9884
f 1156 1157 1158
v -2234.1762 -479.3664 262.9884
v -2224.7635 -474.2116 262.9921
v -2224.2371 -494.5638 262.9907
f 1159 1160 1161
v -2233.8157 -494.8121 262.9873
v -2233.9297 -489.9438 262.9877
v -2224.2371 -494.5638 262.9907
f 1162 1163 1164
v -2234.1762 -479.3664 262.9884
v -2224.2371 -494.5638 262.9907
v -2233.9297 -489.9438 262.9877
f 1165 1166 1167
v -2235.6753 -479.4013 262.9879
v -2233.9297 -489.9438 262.9877
v -2235.4277 -489.9828 262.9871
f 1168 1169 1170
v -2234.1762 -479.3664 262.9884
v -2234.2971 -474.4338 278.1861
v -2234.2920 -474.4331 262.9887
f 1171 1172 1173
v -2235.6753 -479.4013 262.9879
v -2234.1814 -479.3671 278.1858
v -2234.1762 -479.3664 262.9884
f 1174 1175 1176
v -2235.4277 -489.9828 262.9871
v -2235.6805 -479.4021 278.1853
v -2235.6753 -479.4013 262.9879
f 1177 1178 1179
v -2233.9297 -489.9438 262.9877
v -2235.4328 -489.9837 278.1845
v -2235.4277 -489.9828 262.9871
f 1180 1181 1182
v -2233.8157 -494.8121 262.9873
v -2233.9347 -489.9446 278.1851
v -2233.9297 -489.9438 262.9877
f 1183 1184 1185
v -2224.2371 -494.5638 262.9907
v -2233.8209 -494.8130 278.1847
v -2233.8157 -494.8121 262.9873
f 1186 1187 1188
v -2224.7635 -474.2116 262.9921
v -2224.2423 -494.5647 278.1881
v -2224.2371 -494.5638 262.9907
f 1189 1190 1191
v -2234.2920 -474.4331 262.9887
v -2224.7686 -474.2124 278.1895
v -2224.7635 -474.2116 262.9921
f 1192 1193 1194

g building_ID_FF1D1C5C-CE91-40DE-B576-4A6D68B7197A
v -2234.4083 -469.6596 278.1864
v -2224.7686 -474.2124 278.1895
v -2234.6596 -458.9631 278.1871
f 1195 1196 1197
v -2225.3041 -453.5442 278.1908
v -2234.6596 -458.9631 278.1871
v -2224.7686 -474.2124 278.1895
f 1198 1199 1200
v -2224.7686 -474.2124 278.1895
v -2234.4083 -469.6596 278.1864
v -2234.2971 -474.4338 278.1861
f 1201 1202 1203
v -2234.4083 -469.6596 278.1864
v -2236.1576 -458.9981 278.1866
v -2235.9074 -469.6946 278.1859
f 1204 1205 1206
v -2236.1576 -458.9981 278.1866
v -2234.4083 -469.6596 278.1864
v -2234.6596 -458.9631 278.1871
f 1207 1208 1209
v -2234.8597 -453.7916 278.1874
v -2234.7779 -453.8698 278.1875
v -2225.3041 -453.5442 278.1908
f 1210 1211 1212
v -2234.7779 -453.8698 278.1875
v -2234.8597 -453.7916 278.1874
v -2234.8579 -453.8715 278.1874
f 1213 1214 1215
v -2225.3041 -453.5442 278.1908
v -2234.7779 -453.8698 278.1875
v -2234.6596 -458.9631 278.1871
f 1216 1217 1218
v -2234.8528 -453.8709 262.9900
v -2234.8579 -453.8715 278.1874
v -2234.8597 -453.7916 278.1874
f 1219 1220 1221
v -2234.7728 -453.8690 262.9901
v -2234.7779 -453.8698 278.1875
v -2234.8579 -453.8715 278.1874
f 1222 1223 1224
v -2234.6545 -458.9623 262.9897
v -2234.6596 -458.9631 278.1871
v -2234.7779 -453.8698 278.1875
f 1225 1226 1227
v -2236.1525 -458.9973 262.9892
v -2236.1576 -458.9981 278.1866
v -2234.6596 -458.9631 278.1871
f 1228 1229 1230
v -2235.9022 -469.6938 262.9885
v -2235.9074 -469.6946 278.1859
v -2236.1576 -458.9981 278.1866
f 1231 1232 1233
v -2234.4032 -469.6589 262.9890
v -2234.4083 -469.6596 278.1864
v -2235.9074 -469.6946 278.1859
f 1234 1235 1236
v -2234.2920 -474.4331 262.9887
v -2234.2971 -474.4338 278.1861
v -2234.4083 -469.6596 278.1864
f 1237 1238 1239
v -2224.7635 -474.2116 262.9921
v -2224.7686 -474.2124 278.1895
v -2234.2971 -474.4338 278.1861
f 1240 1241 1242
v -2225.2990 -453.5436 262.9934
v -2225.3041 -453.5442 278.1908
v -2224.7686 -474.2124 278.1895
f 1243 1244 1245
v -2234.8545 -453.7909 262.9900
v -2234.8597 -453.7916 278.1874
v -2225.3041 -453.5442 278.1908
f 1246 1247 1248
v -2234.8545 -453.7909 262.9900
v -2225.2990 -453.5436 262.9934
v -2234.7728 -453.8690 262.9901
f 1249 1250 1251
v -2234.7728 -453.8690 262.9901
v -2234.8528 -453.8709 262.9900
v -2234.8545 -453.7909 262.9900
f 1252 1253 1254
v -2234.6545 -458.9623 262.9897
v -2234.7728 -453.8690 262.9901
v -2225.2990 -453.5436 262.9934
f 1255 1256 1257
v -2234.4032 -469.6589 262.9890
v -2234.6545 -458.9623 262.9897
v -2224.7635 -474.2116 262.9921
f 1258 1259 1260
v -2225.2990 -453.5436 262.9934
v -2224.7635 -474.2116 262.9921
v -2234.6545 -458.9623 262.9897
f 1261 1262 1263
v -2234.4032 -469.6589 262.9890
v -2235.9022 -469.6938 262.9885
v -2236.1525 -458.9973 262.9892
f 1264 1265 1266
v -2224.7635 -474.2116 262.9921
v -2234.2920 -474.4331 262.9887
v -2234.4032 -469.6589 262.9890
f 1267 1268 1269
v -2234.6545 -458.9623 262.9897
v -2234.4032 -469.6589 262.9890
v -2236.1525 -458.9973 262.9892
f 1270 1271 1272
v -2234.8528 -453.8709 262.9900
v -2234.8597 -453.7916 278.1874
v -2234.8545 -453.7909 262.9900
f 1273 1274 1275
v -2234.7728 -453.8690 262.9901
v -2234.8579 -453.8715 278.1874
v -2234.8528 -453.8709 262.9900
f 1276 1277 1278
v -2234.6545 -458.9623 262.9897
v -2234.7779 -453.8698 278.1875
v -2234.7728 -453.8690 262.9901
f 1279 1280 1281
v -2236.1525 -458.9973 262.9892
v -2234.6596 -458.9631 278.1871
v -2234.6545 -458.9623 262.9897
f 1282 1283 1284
v -2235.9022 -469.6938 262.9885
v -2236.1576 -458.9981 278.1866
v -2236.1525 -458.9973 262.9892
f 1285 1286 1287
v -2234.4032 -469.6589 262.9890
v -2235.9074 -469.6946 278.1859
v -2235.9022 -469.6938 262.9885
f 1288 1289 1290
v -2234.2920 -474.4331 262.9887
v -2234.4083 -469.6596 278.1864
v -2234.4032 -469.6589 262.9890
f 1291 1292 1293
v -2224.7635 -474.2116 262.9921
v -2234.2971 -474.4338 278.1861
v -2234.2920 -474.4331 262.9887
f 1294 1295 1296
v -2225.2990 -453.5436 262.9934
v -2224.7686 -474.2124 278.1895
v -2224.7635 -474.2116 262.9921
f 1297 1298 1299
v -2234.8545 -453.7909 262.9900
v -2225.3041 -453.5442 278.1908
v -2225.2990 -453.5436 262.9934
f 1300 1301 1302

g building_ID_0427BB90-F7FD-470B-BF91-6C5688650BE9
v -2195.2620 -435.6291 277.0785
v -2198.6331 -445.7338 277.0767
v -2195.0279 -445.6486 277.0779
f 1303 1304 1305
v -2208.6466 -435.9041 277.0739
v -2198.6331 -445.7338 277.0767
v -2195.2620 -435.6291 277.0785
f 1306 1307 1308
v -2200.6782 -447.2883 277.0759
v -2198.5972 -447.2430 277.0766
v -2198.6331 -445.7338 277.0767
f 1309 1310 1311
v -2198.6331 -445.7338 277.0767
v -2210.5577 -446.0178 277.0725
v -2200.6782 -447.2883 277.0759
f 1312 1313 1314
v -2210.5577 -446.0178 277.0725
v -2198.6331 -445.7338 277.0767
v -2208.6466 -435.9041 277.0739
f 1315 1316 1317
v -2214.4298 -436.0275 277.0719
v -2215.6470 -446.1392 277.0708
v -2210.5577 -446.0178 277.0725
f 1318 1319 1320
v -2208.6466 -435.9041 277.0739
v -2214.4298 -436.0275 277.0719
v -2210.5577 -446.0178 277.0725
f 1321 1322 1323
v -2215.9299 -436.0546 277.0714
v -2215.6470 -446.1392 277.0708
v -2214.4298 -436.0275 277.0719
f 1324 1325 1326
v -2215.6452 -446.2192 277.0708
v -2215.6470 -446.1392 277.0708
v -2215.7252 -446.2209 277.0707
f 1327 1328 1329
v -2215.9299 -436.0546 277.0714
v -2215.7252 -446.2209 277.0707
v -2215.6470 -446.1392 277.0708
f 1330 1331 1332
v -2200.6782 -447.2883 277.0759
v -2210.5577 -446.0178 277.0725
v -2210.5287 -447.4909 277.0724
f 1333 1334 1335
v -2195.0228 -445.6478 261.8285
v -2195.0279 -445.6486 277.0779
v -2198.6331 -445.7338 277.0767
f 1336 1337 1338
v -2195.2569 -435.6283 261.8291
v -2195.2620 -435.6291 277.0785
v -2195.0279 -445.6486 277.0779
f 1339 1340 1341
v -2215.7201 -446.2203 261.8213
v -2215.7252 -446.2209 277.0707
v -2215.9299 -436.0546 277.0714
f 1342 1343 1344
v -2215.6401 -446.2184 261.8214
v -2215.6452 -446.2192 277.0708
v -2215.7252 -446.2209 277.0707
f 1345 1346 1347
v -2215.6419 -446.1385 261.8214
v -2215.6470 -446.1392 277.0708
v -2215.6452 -446.2192 277.0708
f 1348 1349 1350
v -2210.5527 -446.0171 261.8231
v -2210.5577 -446.0178 277.0725
v -2215.6470 -446.1392 277.0708
f 1351 1352 1353
v -2210.5235 -447.4902 261.8230
v -2210.5287 -447.4909 277.0724
v -2210.5577 -446.0178 277.0725
f 1354 1355 1356
v -2198.6280 -445.7332 261.8273
v -2198.6331 -445.7338 277.0767
v -2198.5972 -447.2430 277.0766
f 1357 1358 1359
v -2215.6419 -446.1385 261.8214
v -2215.9248 -436.0538 261.8220
v -2214.4248 -436.0268 261.8225
f 1360 1361 1362
v -2215.7201 -446.2203 261.8213
v -2215.9248 -436.0538 261.8220
v -2215.6419 -446.1385 261.8214
f 1363 1364 1365
v -2215.6419 -446.1385 261.8214
v -2215.6401 -446.2184 261.8214
v -2215.7201 -446.2203 261.8213
f 1366 1367 1368
v -2210.5527 -446.0171 261.8231
v -2215.6419 -446.1385 261.8214
v -2214.4248 -436.0268 261.8225
f 1369 1370 1371
v -2195.2569 -435.6283 261.8291
v -2198.6280 -445.7332 261.8273
v -2208.6415 -435.9034 261.8245
f 1372 1373 1374
v -2195.0228 -445.6478 261.8285
v -2198.6280 -445.7332 261.8273
v -2195.2569 -435.6283 261.8291
f 1375 1376 1377
v -2210.5235 -447.4902 261.8230
v -2210.5527 -446.0171 261.8231
v -2200.6731 -447.2877 261.8265
f 1378 1379 1380
v -2198.6280 -445.7332 261.8273
v -2200.6731 -447.2877 261.8265
v -2210.5527 -446.0171 261.8231
f 1381 1382 1383
v -2200.6731 -447.2877 261.8265
v -2198.6280 -445.7332 261.8273
v -2198.5921 -447.2422 261.8272
f 1384 1385 1386
v -2198.6280 -445.7332 261.8273
v -2210.5527 -446.0171 261.8231
v -2208.6415 -435.9034 261.8245
f 1387 1388 1389
v -2214.4248 -436.0268 261.8225
v -2208.6415 -435.9034 261.8245
v -2210.5527 -446.0171 261.8231
f 1390 1391 1392
v -2215.9299 -436.0546 277.0714
v -2214.4298 -436.0275 277.0719
v -2214.4248 -436.0268 261.8225
f 1393 1394 1395
v -2214.4298 -436.0275 277.0719
v -2208.6466 -435.9041 277.0739
v -2208.6415 -435.9034 261.8245
f 1396 1397 1398
v -2208.6466 -435.9041 277.0739
v -2195.2620 -435.6291 277.0785
v -2195.2569 -435.6283 261.8291
f 1399 1400 1401
v -2200.6731 -447.2877 261.8265
v -2198.5921 -447.2422 261.8272
v -2198.5972 -447.2430 277.0766
f 1402 1403 1404
v -2200.6782 -447.2883 277.0759
v -2210.5287 -447.4909 277.0724
v -2210.5235 -447.4902 261.8230
f 1405 1406 1407
v -2195.0228 -445.6478 261.8285
v -2198.6331 -445.7338 277.0767
v -2198.6280 -445.7332 261.8273
f 1408 1409 1410
v -2195.2569 -435.6283 261.8291
v -2195.0279 -445.6486 277.0779
v -2195.0228 -445.6478 261.8285
f 1411 1412 1413
v -2215.7201 -446.2203 261.8213
v -2215.9299 -436.0546 277.0714
v -2215.9248 -436.0538 261.8220
f 1414 1415 1416
v -2215.6401 -446.2184 261.8214
v -2215.7252 -446.2209 277.0707
v -2215.7201 -446.2203 261.8213
f 1417 1418 1419
v -2215.6419 -446.1385 261.8214
v -2215.6452 -446.2192 277.0708
v -2215.6401 -446.2184 261.8214
f 1420 1421 1422
v -2210.5527 -446.0171 261.8231
v -2215.6470 -446.1392 277.0708
v -2215.6419 -446.1385 261.8214
f 1423 1424 1425
v -2210.5235 -447.4902 261.8230
v -2210.5577 -446.0178 277.0725
v -2210.5527 -446.0171 261.8231
f 1426 1427 1428
v -2198.6280 -445.7332 261.8273
v -2198.5972 -447.2430 277.0766
v -2198.5921 -447.2422 261.8272
f 1429 1430 1431
v -2215.9299 -436.0546 277.0714
v -2214.4248 -436.0268 261.8225
v -2215.9248 -436.0538 261.8220
f 1432 1433 1434
v -2214.4298 -436.0275 277.0719
v -2208.6415 -435.9034 261.8245
v -2214.4248 -436.0268 261.8225
f 1435 1436 1437
v -2208.6466 -435.9041 277.0739
v -2195.2569 -435.6283 261.8291
v -2208.6415 -435.9034 261.8245
f 1438 1439 1440
v -2200.6731 -447.2877 261.8265
v -2198.5972 -447.2430 277.0766
v -2200.6782 -447.2883 277.0759
f 1441 1442 1443
v -2200.6782 -447.2883 277.0759
v -2210.5235 -447.4902 261.8230
v -2200.6731 -447.2877 261.8265
f 1444 1445 1446

g building_ID_B5741A2C-53CD-4EA6-B469-16423D6744E1
v -2277.2389 -470.9809 285.3559
v -2277.6891 -449.1020 285.3573
v -2287.6816 -449.3071 285.3538
f 1447 1448 1449
v -2287.6816 -449.3071 285.3538
v -2294.2806 -471.3322 285.3498
v -2277.2389 -470.9809 285.3559
f 1450 1451 1452
v -2294.7969 -449.4750 285.3512
v -2294.2806 -471.3322 285.3498
v -2287.6816 -449.3071 285.3538
f 1453 1454 1455
v -2294.7889 -449.4739 262.1031
v -2294.7969 -449.4750 285.3512
v -2287.6816 -449.3071 285.3538
f 1456 1457 1458
v -2294.2726 -471.3310 262.1017
v -2294.2806 -471.3322 285.3498
v -2294.7969 -449.4750 285.3512
f 1459 1460 1461
v -2277.2308 -470.9798 262.1078
v -2277.2389 -470.9809 285.3559
v -2294.2806 -471.3322 285.3498
f 1462 1463 1464
v -2277.6811 -449.1009 262.1092
v -2277.6891 -449.1020 285.3573
v -2277.2389 -470.9809 285.3559
f 1465 1466 1467
v -2287.6735 -449.3060 262.1057
v -2287.6816 -449.3071 285.3538
v -2277.6891 -449.1020 285.3573
f 1468 1469 1470
v -2277.2308 -470.9798 262.1078
v -2287.6735 -449.3060 262.1057
v -2277.6811 -449.1009 262.1092
f 1471 1472 1473
v -2294.7889 -449.4739 262.1031
v -2287.6735 -449.3060 262.1057
v -2294.2726 -471.3310 262.1017
f 1474 1475 1476
v -2277.2308 -470.9798 262.1078
v -2294.2726 -471.3310 262.1017
v -2287.6735 -449.3060 262.1057
f 1477 1478 1479
v -2294.7889 -449.4739 262.1031
v -2287.6816 -449.3071 285.3538
v -2287.6735 -449.3060 262.1057
f 1480 1481 1482
v -2294.2726 -471.3310 262.1017
v -2294.7969 -449.4750 285.3512
v -2294.7889 -449.4739 262.1031
f 1483 1484 1485
v -2277.2308 -470.9798 262.1078
v -2294.2806 -471.3322 285.3498
v -2294.2726 -471.3310 262.1017
f 1486 1487 1488
v -2277.6811 -449.1009 262.1092
v -2277.2389 -470.9809 285.3559
v -2277.2308 -470.9798 262.1078
f 1489 1490 1491
v -2287.6735 -449.3060 262.1057
v -2277.6891 -449.1020 285.3573
v -2277.6811 -449.1009 262.1092
f 1492 1493 1494

g building_ID_76180D2B-58BC-48DD-90C5-F66ED45BCAA0
v -2339.3380 -427.8739 266.8172
v -2351.8028 -451.2232 267.6400
v -2347.2294 -452.6774 266.8126
f 1495 1496 1497
v -2343.9383 -426.4126 267.6496
v -2351.8028 -451.2232 267.6400
v -2339.3380 -427.8739 266.8172
f 1498 1499 1500
v -2343.9383 -426.4126 267.6496
v -2339.3380 -427.8739 266.8172
v -2343.9361 -426.4123 261.4998
f 1501 1502 1503
v -2343.9361 -426.4123 261.4998
v -2339.3380 -427.8739 266.8172
v -2339.3361 -427.8736 261.5014
f 1504 1505 1506
v -2351.8028 -451.2232 267.6400
v -2343.9383 -426.4126 267.6496
v -2343.9361 -426.4123 261.4998
f 1507 1508 1509
v -2351.8028 -451.2232 267.6400
v -2343.9361 -426.4123 261.4998
v -2351.8006 -451.2229 261.4952
f 1510 1511 1512
v -2347.2275 -452.6771 261.4968
v -2347.2294 -452.6774 266.8126
v -2351.8006 -451.2229 261.4952
f 1513 1514 1515
v -2347.2294 -452.6774 266.8126
v -2347.2275 -452.6771 261.4968
v -2339.3380 -427.8739 266.8172
f 1516 1517 1518
v -2339.3380 -427.8739 266.8172
v -2347.2275 -452.6771 261.4968
v -2339.3361 -427.8736 261.5014
f 1519 1520 1521
v -2347.2275 -452.6771 261.4968
v -2343.9361 -426.4123 261.4998
v -2339.3361 -427.8736 261.5014
f 1522 1523 1524
v -2347.2275 -452.6771 261.4968
v -2351.8006 -451.2229 261.4952
v -2343.9361 -426.4123 261.4998
f 1525 1526 1527
v -2347.2294 -452.6774 266.8126
v -2351.8028 -451.2232 267.6400
v -2351.8006 -451.2229 261.4952
f 1528 1529 1530

g building_ID_5A6D27CE-8496-4DEA-A42B-64D4F80BB3F9
v -2390.9521 -501.3613 281.9211
v -2390.7402 -501.4267 282.0241
v -2390.9014 -501.1163 281.9101
f 1531 1532 1533
v -2382.1585 -499.4930 285.5504
v -2386.7641 -487.5666 281.8627
v -2390.7402 -501.4267 282.0241
f 1534 1535 1536
v -2386.7641 -487.5666 281.8627
v -2391.8424 -500.8268 281.4538
v -2390.9014 -501.1163 281.9101
f 1537 1538 1539
v -2386.7641 -487.5666 281.8627
v -2390.9014 -501.1163 281.9101
v -2390.7402 -501.4267 282.0241
f 1540 1541 1542
v -2391.8424 -500.8268 281.4538
v -2386.7641 -487.5666 281.8627
v -2387.6002 -487.2983 281.4564
f 1543 1544 1545
v -2386.7641 -487.5666 281.8627
v -2382.1585 -499.4930 285.5504
v -2380.7164 -468.6831 281.9225
f 1546 1547 1548
v -2380.7164 -468.6831 281.9225
v -2371.1695 -464.4539 285.5571
v -2377.1128 -457.9609 282.0306
f 1549 1550 1551
v -2377.2895 -457.9043 281.9445
v -2377.7555 -459.3731 281.9423
v -2377.1128 -457.9609 282.0306
f 1552 1553 1554
v -2381.6665 -468.3784 281.4601
v -2380.7164 -468.6831 281.9225
v -2378.7434 -459.0594 281.4619
f 1555 1556 1557
v -2377.7555 -459.3731 281.9423
v -2378.7434 -459.0594 281.4619
v -2380.7164 -468.6831 281.9225
f 1558 1559 1560
v -2377.7555 -459.3731 281.9423
v -2380.7164 -468.6831 281.9225
v -2377.1128 -457.9609 282.0306
f 1561 1562 1563
v -2382.1585 -499.4930 285.5504
v -2371.1695 -464.4539 285.5571
v -2380.7164 -468.6831 281.9225
f 1564 1565 1566
v -2382.1585 -499.4930 285.5504
v -2390.7402 -501.4267 282.0241
v -2376.1446 -505.9830 282.0462
f 1567 1568 1569
v -2362.5953 -462.5758 282.0826
v -2376.1446 -505.9830 282.0462
v -2372.0880 -494.9559 281.7886
f 1570 1571 1572
v -2362.5953 -462.5758 282.0826
v -2371.1695 -464.4539 285.5571
v -2382.1585 -499.4930 285.5504
f 1573 1574 1575
v -2362.5953 -462.5758 282.0826
v -2372.0880 -494.9559 281.7886
v -2361.7738 -462.8369 281.6899
f 1576 1577 1578
v -2372.0880 -494.9559 281.7886
v -2376.1446 -505.9830 282.0462
v -2374.9165 -506.3661 281.4596
f 1579 1580 1581
v -2382.1585 -499.4930 285.5504
v -2376.1446 -505.9830 282.0462
v -2362.5953 -462.5758 282.0826
f 1582 1583 1584
v -2374.9165 -506.3661 281.4596
v -2371.4065 -495.1747 281.4618
v -2372.0880 -494.9559 281.7886
f 1585 1586 1587
v -2371.1695 -464.4539 285.5571
v -2362.5953 -462.5758 282.0826
v -2377.1128 -457.9609 282.0306
f 1588 1589 1590
v -2380.2115 -463.7414 280.1340
v -2381.6651 -468.3783 277.8862
v -2381.6665 -468.3784 281.4601
f 1591 1592 1593
v -2378.7422 -459.0592 278.0120
v -2380.2115 -463.7414 280.1340
v -2378.7434 -459.0594 281.4619
f 1594 1595 1596
v -2381.6665 -468.3784 281.4601
v -2378.7434 -459.0594 281.4619
v -2380.2115 -463.7414 280.1340
f 1597 1598 1599
v -2386.7641 -487.5666 281.8627
v -2380.7085 -468.6819 259.7943
v -2386.7621 -487.5664 276.3309
f 1600 1601 1602
v -2386.7561 -487.5654 259.7906
v -2386.7600 -487.5660 270.7992
v -2380.7085 -468.6819 259.7943
f 1603 1604 1605
v -2386.7641 -487.5666 281.8627
v -2380.7164 -468.6831 281.9225
v -2380.7124 -468.6825 270.8579
f 1606 1607 1608
v -2380.7124 -468.6825 270.8579
v -2380.7104 -468.6822 265.3261
v -2386.7641 -487.5666 281.8627
f 1609 1610 1611
v -2380.7104 -468.6822 265.3261
v -2380.7085 -468.6819 259.7943
v -2386.7641 -487.5666 281.8627
f 1612 1613 1614
v -2390.4738 -496.4682 275.8138
v -2391.8399 -500.8264 274.6231
v -2391.8424 -500.8268 281.4538
f 1615 1616 1617
v -2387.5972 -487.2979 273.2598
v -2390.4738 -496.4682 275.8138
v -2387.6002 -487.2983 281.4564
f 1618 1619 1620
v -2391.8424 -500.8268 281.4538
v -2387.6002 -487.2983 281.4564
v -2390.4738 -496.4682 275.8138
f 1621 1622 1623
v -2377.5627 -458.7762 273.2917
v -2377.2895 -457.9043 281.9445
v -2377.2875 -457.9040 276.4077
f 1624 1625 1626
v -2377.2856 -457.9038 270.8709
v -2377.2836 -457.9036 265.3331
v -2377.5627 -458.7762 273.2917
f 1627 1628 1629
v -2377.7475 -459.3721 259.7961
v -2377.2836 -457.9036 265.3331
v -2377.2816 -457.9033 259.7963
f 1630 1631 1632
v -2371.5638 -495.6868 272.8341
v -2371.3987 -495.1735 259.7957
v -2371.4065 -495.1747 281.4618
f 1633 1634 1635
v -2374.9134 -506.3657 272.8320
v -2371.5638 -495.6868 272.8341
v -2374.9165 -506.3661 281.4596
f 1636 1637 1638
v -2371.4065 -495.1747 281.4618
v -2374.9165 -506.3661 281.4596
v -2371.5638 -495.6868 272.8341
f 1639 1640 1641
v -2371.5596 -495.6862 261.2405
v -2374.9092 -506.3651 261.2384
v -2374.9087 -506.3650 259.7935
f 1642 1643 1644
v -2371.5596 -495.6862 261.2405
v -2371.3987 -495.1735 259.7957
v -2371.5638 -495.6868 272.8341
f 1645 1646 1647
v -2371.3987 -495.1735 259.7957
v -2372.0801 -494.9548 259.7955
v -2371.4065 -495.1747 281.4618
f 1648 1649 1650
v -2371.4065 -495.1747 281.4618
v -2372.0801 -494.9548 259.7955
v -2372.0880 -494.9559 281.7886
f 1651 1652 1653
v -2361.7719 -462.8367 276.1921
v -2361.7738 -462.8369 281.6899
v -2372.0801 -494.9548 259.7955
f 1654 1655 1656
v -2361.7738 -462.8369 281.6899
v -2372.0880 -494.9559 281.7886
v -2372.0801 -494.9548 259.7955
f 1657 1658 1659
v -2361.7660 -462.8359 259.8017
v -2361.7699 -462.8364 270.6933
v -2372.0801 -494.9548 259.7955
f 1660 1661 1662
v -2380.7085 -468.6819 259.7943
v -2377.1047 -457.9597 259.7964
v -2362.5873 -462.5747 259.8014
f 1663 1664 1665
v -2361.7660 -462.8359 259.8017
v -2372.0801 -494.9548 259.7955
v -2362.5873 -462.5747 259.8014
f 1666 1667 1668
v -2362.5873 -462.5747 259.8014
v -2372.0801 -494.9548 259.7955
v -2380.7085 -468.6819 259.7943
f 1669 1670 1671
v -2381.6586 -468.3774 259.7939
v -2378.7356 -459.0583 259.7957
v -2377.7475 -459.3721 259.7961
f 1672 1673 1674
v -2377.1047 -457.9597 259.7964
v -2380.7085 -468.6819 259.7943
v -2377.7475 -459.3721 259.7961
f 1675 1676 1677
v -2381.6586 -468.3774 259.7939
v -2377.7475 -459.3721 259.7961
v -2380.7085 -468.6819 259.7943
f 1678 1679 1680
v -2377.1047 -457.9597 259.7964
v -2377.7475 -459.3721 259.7961
v -2377.2816 -457.9033 259.7963
f 1681 1682 1683
v -2372.0801 -494.9548 259.7955
v -2374.9087 -506.3650 259.7935
v -2386.7561 -487.5654 259.7906
f 1684 1685 1686
v -2374.9087 -506.3650 259.7935
v -2372.0801 -494.9548 259.7955
v -2371.3987 -495.1735 259.7957
f 1687 1688 1689
v -2386.7561 -487.5654 259.7906
v -2374.9087 -506.3650 259.7935
v -2390.7322 -501.4255 259.7880
f 1690 1691 1692
v -2386.7561 -487.5654 259.7906
v -2380.7085 -468.6819 259.7943
v -2372.0801 -494.9548 259.7955
f 1693 1694 1695
v -2390.8934 -501.1152 259.7880
v -2391.8346 -500.8256 259.7877
v -2386.7561 -487.5654 259.7906
f 1696 1697 1698
v -2391.8346 -500.8256 259.7877
v -2387.5923 -487.2972 259.7903
v -2386.7561 -487.5654 259.7906
f 1699 1700 1701
v -2390.8934 -501.1152 259.7880
v -2386.7561 -487.5654 259.7906
v -2390.7322 -501.4255 259.7880
f 1702 1703 1704
v -2390.8934 -501.1152 259.7880
v -2390.7322 -501.4255 259.7880
v -2390.9440 -501.3600 259.7880
f 1705 1706 1707
v -2405.0403 -480.9994 260.0271
v -2404.3558 -481.2153 260.0274
v -2405.0402 -480.9994 259.8551
f 1708 1709 1710
v -2404.3602 -481.2159 272.0279
v -2405.0447 -481.0000 272.0276
v -2405.0450 -481.0001 273.0436
f 1711 1712 1713
v -2404.2039 -481.2617 259.8554
v -2404.3602 -481.2159 272.0279
v -2404.2087 -481.2624 273.0439
f 1714 1715 1716
v -2405.0450 -481.0001 273.0436
v -2404.2087 -481.2624 273.0439
v -2404.3602 -481.2159 272.0279
f 1717 1718 1719
v -2404.2039 -481.2617 259.8554
v -2404.3558 -481.2153 260.0274
v -2404.3602 -481.2159 272.0279
f 1720 1721 1722
v -2402.0368 -497.9643 259.8550
v -2402.0421 -497.9651 274.5354
v -2402.4754 -497.8231 259.8548
f 1723 1724 1725
v -2401.9242 -497.7226 259.8550
v -2401.9295 -497.7234 274.6044
v -2402.0368 -497.9643 259.8550
f 1726 1727 1728
v -2409.2330 -495.0920 259.8525
v -2402.4754 -497.8231 259.8548
v -2402.4807 -497.8239 274.5362
f 1729 1730 1731
v -2402.4807 -497.8239 274.5362
v -2409.2384 -495.0928 274.6859
v -2409.2330 -495.0920 259.8525
f 1732 1733 1734
v -2391.8346 -500.8256 259.7877
v -2391.8346 -500.8256 259.8587
v -2387.5923 -487.2972 259.8613
f 1735 1736 1737
v -2390.9500 -501.3609 276.3883
v -2390.9521 -501.3613 281.9211
v -2390.9014 -501.1163 281.9101
f 1738 1739 1740
v -2390.9014 -501.1163 281.9101
v -2390.8964 -501.1156 268.0766
v -2390.9460 -501.3603 265.3217
f 1741 1742 1743
v -2390.9460 -501.3603 265.3217
v -2390.8964 -501.1156 268.0766
v -2390.8934 -501.1152 259.7880
f 1744 1745 1746
v -2390.9440 -501.3600 259.7880
v -2390.9460 -501.3603 265.3217
v -2390.8934 -501.1152 259.7880
f 1747 1748 1749
v -2405.0450 -481.0001 273.0436
v -2408.1576 -490.9218 275.8076
v -2404.4165 -481.9108 273.2248
f 1750 1751 1752
v -2390.4738 -496.4682 275.8138
v -2404.4165 -481.9108 273.2248
v -2408.1576 -490.9218 275.8076
f 1753 1754 1755
v -2405.0450 -481.0001 273.0436
v -2404.4165 -481.9108 273.2248
v -2404.2087 -481.2624 273.0439
f 1756 1757 1758
v -2390.4738 -496.4682 275.8138
v -2387.5972 -487.2979 273.2598
v -2404.4165 -481.9108 273.2248
f 1759 1760 1761
v -2408.7920 -493.7750 275.0482
v -2401.9295 -497.7234 274.6044
v -2391.8399 -500.8264 274.6231
f 1762 1763 1764
v -2402.4807 -497.8239 274.5362
v -2402.0421 -497.9651 274.5354
v -2401.9295 -497.7234 274.6044
f 1765 1766 1767
v -2408.7920 -493.7750 275.0482
v -2391.8399 -500.8264 274.6231
v -2390.4738 -496.4682 275.8138
f 1768 1769 1770
v -2408.1576 -490.9218 275.8076
v -2409.0268 -493.6954 275.0501
v -2408.7920 -493.7750 275.0482
f 1771 1772 1773
v -2408.7920 -493.7750 275.0482
v -2409.2384 -495.0928 274.6859
v -2401.9295 -497.7234 274.6044
f 1774 1775 1776
v -2402.4807 -497.8239 274.5362
v -2401.9295 -497.7234 274.6044
v -2409.2384 -495.0928 274.6859
f 1777 1778 1779
v -2408.1576 -490.9218 275.8076
v -2408.7920 -493.7750 275.0482
v -2390.4738 -496.4682 275.8138
f 1780 1781 1782
v -2404.4116 -481.9101 259.8553
v -2405.0402 -480.9994 259.8551
v -2404.2039 -481.2617 259.8554
f 1783 1784 1785
v -2408.1518 -490.9209 259.8532
v -2405.0402 -480.9994 259.8551
v -2404.4116 -481.9101 259.8553
f 1786 1787 1788
v -2408.7864 -493.7742 259.8528
v -2409.0212 -493.6945 259.8527
v -2408.1518 -490.9209 259.8532
f 1789 1790 1791
v -2408.7864 -493.7742 259.8528
v -2402.4754 -497.8231 259.8548
v -2409.2330 -495.0920 259.8525
f 1792 1793 1794
v -2402.4754 -497.8231 259.8548
v -2408.7864 -493.7742 259.8528
v -2408.1518 -490.9209 259.8532
f 1795 1796 1797
v -2404.4116 -481.9101 259.8553
v -2387.5923 -487.2972 259.8613
v -2408.1518 -490.9209 259.8532
f 1798 1799 1800
v -2408.1518 -490.9209 259.8532
v -2401.9242 -497.7226 259.8550
v -2402.4754 -497.8231 259.8548
f 1801 1802 1803
v -2408.1518 -490.9209 259.8532
v -2387.5923 -487.2972 259.8613
v -2401.9242 -497.7226 259.8550
f 1804 1805 1806
v -2391.8346 -500.8256 259.8587
v -2401.9242 -497.7226 259.8550
v -2387.5923 -487.2972 259.8613
f 1807 1808 1809
v -2402.4754 -497.8231 259.8548
v -2401.9242 -497.7226 259.8550
v -2402.0368 -497.9643 259.8550
f 1810 1811 1812
v -2404.3256 -481.1184 260.0274
v -2404.3300 -481.1189 272.0049
v -2404.3558 -481.2153 260.0274
f 1813 1814 1815
v -2404.3602 -481.2159 272.0279
v -2404.3558 -481.2153 260.0274
v -2404.3300 -481.1189 272.0049
f 1816 1817 1818
v -2407.2374 -480.1652 271.9949
v -2408.8076 -479.6473 260.0258
v -2412.2935 -478.5030 260.0246
f 1819 1820 1821
v -2404.3300 -481.1189 272.0049
v -2404.3256 -481.1184 260.0274
v -2407.2374 -480.1652 271.9949
f 1822 1823 1824
v -2407.2374 -480.1652 271.9949
v -2404.3256 -481.1184 260.0274
v -2408.8076 -479.6473 260.0258
f 1825 1826 1827
v -2404.2087 -481.2624 273.0439
v -2404.4116 -481.9101 259.8553
v -2404.2039 -481.2617 259.8554
f 1828 1829 1830
v -2404.4165 -481.9108 273.2248
v -2404.4116 -481.9101 259.8553
v -2404.2087 -481.2624 273.0439
f 1831 1832 1833
v -2408.7864 -493.7742 259.8528
v -2409.2330 -495.0920 259.8525
v -2409.2384 -495.0928 274.6859
f 1834 1835 1836
v -2408.7864 -493.7742 259.8528
v -2409.2384 -495.0928 274.6859
v -2408.7896 -493.7747 268.4004
f 1837 1838 1839
v -2412.2978 -478.5036 271.9781
v -2415.1512 -487.3149 274.0353
v -2407.2374 -480.1652 271.9949
f 1840 1841 1842
v -2407.7535 -489.6348 274.0379
v -2407.2374 -480.1652 271.9949
v -2415.1512 -487.3149 274.0353
f 1843 1844 1845
v -2404.3300 -481.1189 272.0049
v -2407.2374 -480.1652 271.9949
v -2405.0447 -481.0000 272.0276
f 1846 1847 1848
v -2407.7535 -489.6348 274.0379
v -2405.0447 -481.0000 272.0276
v -2407.2374 -480.1652 271.9949
f 1849 1850 1851
v -2404.3602 -481.2159 272.0279
v -2404.3300 -481.1189 272.0049
v -2405.0447 -481.0000 272.0276
f 1852 1853 1854
v -2416.4063 -491.1925 273.1416
v -2409.0261 -493.6953 273.1052
v -2407.7535 -489.6348 274.0379
f 1855 1856 1857
v -2407.7535 -489.6348 274.0379
v -2415.1512 -487.3149 274.0353
v -2416.4063 -491.1925 273.1416
f 1858 1859 1860
v -2409.0213 -493.6945 260.0247
v -2408.8076 -479.6473 260.0258
v -2405.0403 -480.9994 260.0271
f 1861 1862 1863
v -2408.8076 -479.6473 260.0258
v -2409.0213 -493.6945 260.0247
v -2416.4014 -491.1918 260.0221
f 1864 1865 1866
v -2404.3558 -481.2153 260.0274
v -2405.0403 -480.9994 260.0271
v -2404.3256 -481.1184 260.0274
f 1867 1868 1869
v -2404.3256 -481.1184 260.0274
v -2405.0403 -480.9994 260.0271
v -2408.8076 -479.6473 260.0258
f 1870 1871 1872
v -2412.2935 -478.5030 260.0246
v -2408.8076 -479.6473 260.0258
v -2416.4014 -491.1918 260.0221
f 1873 1874 1875
v -2381.6586 -468.3774 259.7939
v -2381.6591 -468.3775 261.1429
v -2378.7361 -459.0584 261.1447
f 1876 1877 1878
v -2378.7422 -459.0592 278.0120
v -2406.4203 -450.2850 277.9632
v -2407.9379 -455.0449 280.1242
f 1879 1880 1881
v -2407.9379 -455.0449 280.1242
v -2380.2115 -463.7414 280.1340
v -2378.7422 -459.0592 278.0120
f 1882 1883 1884
v -2409.3591 -459.5080 277.9584
v -2381.6651 -468.3783 277.8862
v -2380.2115 -463.7414 280.1340
f 1885 1886 1887
v -2380.2115 -463.7414 280.1340
v -2407.9379 -455.0449 280.1242
v -2409.3591 -459.5080 277.9584
f 1888 1889 1890
v -2407.9309 -455.0441 261.1340
v -2378.7361 -459.0584 261.1447
v -2381.6591 -468.3775 261.1429
f 1891 1892 1893
v -2378.7361 -459.0584 261.1447
v -2407.9309 -455.0441 261.1340
v -2406.4142 -450.2842 261.1349
f 1894 1895 1896
v -2409.3529 -459.5072 261.1331
v -2407.9309 -455.0441 261.1340
v -2381.6591 -468.3775 261.1429
f 1897 1898 1899
v -2365.9974 -497.4311 261.2425
v -2366.0015 -497.4317 272.8361
v -2369.4231 -508.0794 272.8339
f 1900 1901 1902
v -2369.4231 -508.0794 272.8339
v -2366.0015 -497.4317 272.8361
v -2371.5638 -495.6868 272.8341
f 1903 1904 1905
v -2371.5638 -495.6868 272.8341
v -2374.9134 -506.3657 272.8320
v -2369.4231 -508.0794 272.8339
f 1906 1907 1908
v -2371.5596 -495.6862 261.2405
v -2371.5638 -495.6868 272.8341
v -2366.0015 -497.4317 272.8361
f 1909 1910 1911
v -2371.5596 -495.6862 261.2405
v -2369.4189 -508.0788 261.2404
v -2374.9092 -506.3651 261.2384
f 1912 1913 1914
v -2369.4189 -508.0788 261.2404
v -2371.5596 -495.6862 261.2405
v -2365.9974 -497.4311 261.2425
f 1915 1916 1917
v -2406.4142 -450.2842 261.1349
v -2406.4203 -450.2850 277.9632
v -2378.7361 -459.0584 261.1447
f 1918 1919 1920
v -2377.7475 -459.3721 259.7961
v -2378.7356 -459.0583 259.7957
v -2378.7361 -459.0584 261.1447
f 1921 1922 1923
v -2377.7515 -459.3725 270.8677
v -2377.7475 -459.3721 259.7961
v -2378.7361 -459.0584 261.1447
f 1924 1925 1926
v -2378.7361 -459.0584 261.1447
v -2406.4203 -450.2850 277.9632
v -2377.7515 -459.3725 270.8677
f 1927 1928 1929
v -2378.7422 -459.0592 278.0120
v -2378.7434 -459.0594 281.4619
v -2377.7555 -459.3731 281.9423
f 1930 1931 1932
v -2377.7555 -459.3731 281.9423
v -2377.7515 -459.3725 270.8677
v -2378.7422 -459.0592 278.0120
f 1933 1934 1935
v -2406.4203 -450.2850 277.9632
v -2378.7422 -459.0592 278.0120
v -2377.7515 -459.3725 270.8677
f 1936 1937 1938
v -2391.8399 -500.8264 274.6231
v -2390.9014 -501.1163 281.9101
v -2391.8424 -500.8268 281.4538
f 1939 1940 1941
v -2390.9014 -501.1163 281.9101
v -2391.8399 -500.8264 274.6231
v -2390.8964 -501.1156 268.0766
f 1942 1943 1944
v -2390.8964 -501.1156 268.0766
v -2391.8346 -500.8256 259.8587
v -2390.8934 -501.1152 259.7880
f 1945 1946 1947
v -2391.8399 -500.8264 274.6231
v -2401.9295 -497.7234 274.6044
v -2390.8964 -501.1156 268.0766
f 1948 1949 1950
v -2401.9295 -497.7234 274.6044
v -2401.9242 -497.7226 259.8550
v -2390.8964 -501.1156 268.0766
f 1951 1952 1953
v -2390.8934 -501.1152 259.7880
v -2391.8346 -500.8256 259.8587
v -2391.8346 -500.8256 259.7877
f 1954 1955 1956
v -2390.8964 -501.1156 268.0766
v -2401.9242 -497.7226 259.8550
v -2391.8346 -500.8256 259.8587
f 1957 1958 1959
v -2377.2875 -457.9040 276.4077
v -2377.2895 -457.9043 281.9445
v -2377.1128 -457.9609 282.0306
f 1960 1961 1962
v -2361.7719 -462.8367 276.1921
v -2377.2856 -457.9038 270.8709
v -2377.2875 -457.9040 276.4077
f 1963 1964 1965
v -2377.2836 -457.9036 265.3331
v -2377.2856 -457.9038 270.8709
v -2361.7699 -462.8364 270.6933
f 1966 1967 1968
v -2377.1047 -457.9597 259.7964
v -2377.2816 -457.9033 259.7963
v -2377.2836 -457.9036 265.3331
f 1969 1970 1971
v -2377.2875 -457.9040 276.4077
v -2377.1128 -457.9609 282.0306
v -2362.5953 -462.5758 282.0826
f 1972 1973 1974
v -2361.7719 -462.8367 276.1921
v -2362.5953 -462.5758 282.0826
v -2361.7738 -462.8369 281.6899
f 1975 1976 1977
v -2361.7719 -462.8367 276.1921
v -2361.7699 -462.8364 270.6933
v -2377.2856 -457.9038 270.8709
f 1978 1979 1980
v -2377.1047 -457.9597 259.7964
v -2377.2836 -457.9036 265.3331
v -2362.5873 -462.5747 259.8014
f 1981 1982 1983
v -2362.5873 -462.5747 259.8014
v -2377.2836 -457.9036 265.3331
v -2361.7699 -462.8364 270.6933
f 1984 1985 1986
v -2361.7699 -462.8364 270.6933
v -2361.7660 -462.8359 259.8017
v -2362.5873 -462.5747 259.8014
f 1987 1988 1989
v -2362.5953 -462.5758 282.0826
v -2361.7719 -462.8367 276.1921
v -2377.2875 -457.9040 276.4077
f 1990 1991 1992
v -2408.1518 -490.9209 259.8532
v -2409.0212 -493.6945 259.8527
v -2409.0213 -493.6945 260.0247
f 1993 1994 1995
v -2408.1518 -490.9209 259.8532
v -2409.0213 -493.6945 260.0247
v -2405.0402 -480.9994 259.8551
f 1996 1997 1998
v -2405.0403 -480.9994 260.0271
v -2405.0402 -480.9994 259.8551
v -2409.0213 -493.6945 260.0247
f 1999 2000 2001
v -2387.5923 -487.2972 259.8613
v -2404.4116 -481.9101 259.8553
v -2404.4165 -481.9108 273.2248
f 2002 2003 2004
v -2386.7641 -487.5666 281.8627
v -2386.7621 -487.5664 276.3309
v -2387.6002 -487.2983 281.4564
f 2005 2006 2007
v -2387.5972 -487.2979 273.2598
v -2387.6002 -487.2983 281.4564
v -2386.7621 -487.5664 276.3309
f 2008 2009 2010
v -2387.5923 -487.2972 259.7903
v -2387.5923 -487.2972 259.8613
v -2386.7561 -487.5654 259.7906
f 2011 2012 2013
v -2386.7600 -487.5660 270.7992
v -2386.7561 -487.5654 259.7906
v -2387.5923 -487.2972 259.8613
f 2014 2015 2016
v -2386.7621 -487.5664 276.3309
v -2386.7600 -487.5660 270.7992
v -2387.5972 -487.2979 273.2598
f 2017 2018 2019
v -2404.4165 -481.9108 273.2248
v -2386.7600 -487.5660 270.7992
v -2387.5923 -487.2972 259.8613
f 2020 2021 2022
v -2404.4165 -481.9108 273.2248
v -2387.5972 -487.2979 273.2598
v -2386.7600 -487.5660 270.7992
f 2023 2024 2025
v -2416.4014 -491.1918 260.0221
v -2416.4063 -491.1925 273.1416
v -2415.1512 -487.3149 274.0353
f 2026 2027 2028
v -2416.4014 -491.1918 260.0221
v -2415.1512 -487.3149 274.0353
v -2412.2935 -478.5030 260.0246
f 2029 2030 2031
v -2415.1512 -487.3149 274.0353
v -2412.2978 -478.5036 271.9781
v -2412.2935 -478.5030 260.0246
f 2032 2033 2034
v -2408.7896 -493.7747 268.4004
v -2409.0213 -493.6945 260.0247
v -2408.7864 -493.7742 259.8528
f 2035 2036 2037
v -2409.0261 -493.6953 273.1052
v -2408.7896 -493.7747 268.4004
v -2408.7920 -493.7750 275.0482
f 2038 2039 2040
v -2408.7896 -493.7747 268.4004
v -2409.0261 -493.6953 273.1052
v -2416.4063 -491.1925 273.1416
f 2041 2042 2043
v -2408.7896 -493.7747 268.4004
v -2416.4063 -491.1925 273.1416
v -2416.4014 -491.1918 260.0221
f 2044 2045 2046
v -2409.0213 -493.6945 260.0247
v -2409.0212 -493.6945 259.8527
v -2408.7864 -493.7742 259.8528
f 2047 2048 2049
v -2416.4014 -491.1918 260.0221
v -2409.0213 -493.6945 260.0247
v -2408.7896 -493.7747 268.4004
f 2050 2051 2052
v -2409.0268 -493.6954 275.0501
v -2409.0261 -493.6953 273.1052
v -2408.7920 -493.7750 275.0482
f 2053 2054 2055
v -2407.7535 -489.6348 274.0379
v -2409.0261 -493.6953 273.1052
v -2409.0268 -493.6954 275.0501
f 2056 2057 2058
v -2408.1576 -490.9218 275.8076
v -2407.7535 -489.6348 274.0379
v -2409.0268 -493.6954 275.0501
f 2059 2060 2061
v -2408.1576 -490.9218 275.8076
v -2405.0447 -481.0000 272.0276
v -2407.7535 -489.6348 274.0379
f 2062 2063 2064
v -2405.0450 -481.0001 273.0436
v -2405.0447 -481.0000 272.0276
v -2408.1576 -490.9218 275.8076
f 2065 2066 2067
v -2407.9309 -455.0441 261.1340
v -2409.3529 -459.5072 261.1331
v -2409.3591 -459.5080 277.9584
f 2068 2069 2070
v -2407.9379 -455.0449 280.1242
v -2406.4203 -450.2850 277.9632
v -2409.3591 -459.5080 277.9584
f 2071 2072 2073
v -2407.9309 -455.0441 261.1340
v -2406.4203 -450.2850 277.9632
v -2406.4142 -450.2842 261.1349
f 2074 2075 2076
v -2409.3591 -459.5080 277.9584
v -2406.4203 -450.2850 277.9632
v -2407.9309 -455.0441 261.1340
f 2077 2078 2079
v -2380.7164 -468.6831 281.9225
v -2381.6651 -468.3783 277.8862
v -2380.7124 -468.6825 270.8579
f 2080 2081 2082
v -2380.7104 -468.6822 265.3261
v -2381.6591 -468.3775 261.1429
v -2380.7085 -468.6819 259.7943
f 2083 2084 2085
v -2380.7104 -468.6822 265.3261
v -2380.7124 -468.6825 270.8579
v -2409.3529 -459.5072 261.1331
f 2086 2087 2088
v -2380.7164 -468.6831 281.9225
v -2381.6665 -468.3784 281.4601
v -2381.6651 -468.3783 277.8862
f 2089 2090 2091
v -2380.7124 -468.6825 270.8579
v -2409.3591 -459.5080 277.9584
v -2409.3529 -459.5072 261.1331
f 2092 2093 2094
v -2381.6591 -468.3775 261.1429
v -2381.6586 -468.3774 259.7939
v -2380.7085 -468.6819 259.7943
f 2095 2096 2097
v -2409.3529 -459.5072 261.1331
v -2381.6591 -468.3775 261.1429
v -2380.7104 -468.6822 265.3261
f 2098 2099 2100
v -2380.7124 -468.6825 270.8579
v -2381.6651 -468.3783 277.8862
v -2409.3591 -459.5080 277.9584
f 2101 2102 2103
v -2376.1446 -505.9830 282.0462
v -2374.9134 -506.3657 272.8320
v -2374.9165 -506.3661 281.4596
f 2104 2105 2106
v -2374.9134 -506.3657 272.8320
v -2374.9092 -506.3651 261.2384
v -2369.4189 -508.0788 261.2404
f 2107 2108 2109
v -2374.9092 -506.3651 261.2384
v -2374.9134 -506.3657 272.8320
v -2390.9460 -501.3603 265.3217
f 2110 2111 2112
v -2376.1446 -505.9830 282.0462
v -2390.9500 -501.3609 276.3883
v -2374.9134 -506.3657 272.8320
f 2113 2114 2115
v -2390.9500 -501.3609 276.3883
v -2390.7402 -501.4267 282.0241
v -2390.9521 -501.3613 281.9211
f 2116 2117 2118
v -2390.9500 -501.3609 276.3883
v -2390.9460 -501.3603 265.3217
v -2374.9134 -506.3657 272.8320
f 2119 2120 2121
v -2390.9460 -501.3603 265.3217
v -2390.7322 -501.4255 259.7880
v -2374.9087 -506.3650 259.7935
f 2122 2123 2124
v -2390.7322 -501.4255 259.7880
v -2390.9460 -501.3603 265.3217
v -2390.9440 -501.3600 259.7880
f 2125 2126 2127
v -2374.9087 -506.3650 259.7935
v -2374.9092 -506.3651 261.2384
v -2390.9460 -501.3603 265.3217
f 2128 2129 2130
v -2390.7402 -501.4267 282.0241
v -2390.9500 -501.3609 276.3883
v -2376.1446 -505.9830 282.0462
f 2131 2132 2133
v -2380.7085 -468.6819 259.7943
v -2386.7600 -487.5660 270.7992
v -2386.7621 -487.5664 276.3309
f 2134 2135 2136
v -2377.7555 -459.3731 281.9423
v -2377.2895 -457.9043 281.9445
v -2377.5627 -458.7762 273.2917
f 2137 2138 2139
v -2377.5627 -458.7762 273.2917
v -2377.7515 -459.3725 270.8677
v -2377.7555 -459.3731 281.9423
f 2140 2141 2142
v -2377.7515 -459.3725 270.8677
v -2377.5627 -458.7762 273.2917
v -2377.7475 -459.3721 259.7961
f 2143 2144 2145
v -2377.5627 -458.7762 273.2917
v -2377.2875 -457.9040 276.4077
v -2377.2856 -457.9038 270.8709
f 2146 2147 2148
v -2377.2836 -457.9036 265.3331
v -2377.7475 -459.3721 259.7961
v -2377.5627 -458.7762 273.2917
f 2149 2150 2151
v -2371.5596 -495.6862 261.2405
v -2374.9087 -506.3650 259.7935
v -2371.3987 -495.1735 259.7957
f 2152 2153 2154
v -2372.0801 -494.9548 259.7955
v -2361.7699 -462.8364 270.6933
v -2361.7719 -462.8367 276.1921
f 2155 2156 2157
v -2404.3558 -481.2153 260.0274
v -2404.2039 -481.2617 259.8554
v -2405.0402 -480.9994 259.8551
f 2158 2159 2160
v -2402.4754 -497.8231 259.8548
v -2402.0421 -497.9651 274.5354
v -2402.4807 -497.8239 274.5362
f 2161 2162 2163
v -2401.9295 -497.7234 274.6044
v -2402.0421 -497.9651 274.5354
v -2402.0368 -497.9643 259.8550
f 2164 2165 2166
v -2391.8346 -500.8256 259.7877
v -2387.5923 -487.2972 259.8613
v -2387.5923 -487.2972 259.7903
f 2167 2168 2169
v -2390.9500 -501.3609 276.3883
v -2390.9014 -501.1163 281.9101
v -2390.9460 -501.3603 265.3217
f 2170 2171 2172
v -2407.2374 -480.1652 271.9949
v -2412.2935 -478.5030 260.0246
v -2412.2978 -478.5036 271.9781
f 2173 2174 2175
v -2408.7896 -493.7747 268.4004
v -2409.2384 -495.0928 274.6859
v -2408.7920 -493.7750 275.0482
f 2176 2177 2178
v -2381.6586 -468.3774 259.7939
v -2378.7361 -459.0584 261.1447
v -2378.7356 -459.0583 259.7957
f 2179 2180 2181
v -2365.9974 -497.4311 261.2425
v -2369.4231 -508.0794 272.8339
v -2369.4189 -508.0788 261.2404
f 2182 2183 2184
v -2371.5596 -495.6862 261.2405
v -2366.0015 -497.4317 272.8361
v -2365.9974 -497.4311 261.2425
f 2185 2186 2187
v -2374.9134 -506.3657 272.8320
v -2369.4189 -508.0788 261.2404
v -2369.4231 -508.0794 272.8339
f 2188 2189 2190

g building_ID_637D86BE-10DE-4AA7-B586-BCB7DA01691C
v -2315.2084 -505.0698 269.3722
v -2312.4518 -496.2653 269.3740
v -2315.3749 -496.3215 269.3729
f 2191 2192 2193
v -2306.5144 -496.0943 269.3761
v -2312.4518 -496.2653 269.3740
v -2306.4042 -504.9605 269.3754
f 2194 2195 2196
v -2315.2084 -505.0698 269.3722
v -2306.4042 -504.9605 269.3754
v -2312.4518 -496.2653 269.3740
f 2197 2198 2199
v -2312.4535 -496.1683 269.3740
v -2312.4518 -496.2653 269.3740
v -2306.5144 -496.0943 269.3761
f 2200 2201 2202
v -2312.4518 -496.2653 269.3740
v -2315.3726 -496.3211 262.8561
v -2315.3749 -496.3215 269.3729
f 2203 2204 2205
v -2315.3726 -496.3211 262.8561
v -2312.4518 -496.2653 269.3740
v -2312.4495 -496.2650 262.8572
f 2206 2207 2208
v -2315.2061 -505.0695 262.8555
v -2315.2084 -505.0698 269.3722
v -2315.3749 -496.3215 269.3729
f 2209 2210 2211
v -2306.4020 -504.9601 262.8587
v -2306.4042 -504.9605 269.3754
v -2315.2084 -505.0698 269.3722
f 2212 2213 2214
v -2306.5142 -496.0942 268.7441
v -2306.5144 -496.0943 269.3761
v -2306.4385 -502.1703 268.7437
f 2215 2216 2217
v -2306.4042 -504.9605 269.3754
v -2306.4385 -502.1703 268.7437
v -2306.5144 -496.0943 269.3761
f 2218 2219 2220
v -2306.4364 -502.1700 262.8589
v -2306.4385 -502.1703 268.7437
v -2306.4086 -504.4531 262.8587
f 2221 2222 2223
v -2306.4020 -504.9601 262.8587
v -2306.4385 -502.1703 268.7437
v -2306.4042 -504.9605 269.3754
f 2224 2225 2226
v -2306.4020 -504.9601 262.8587
v -2306.4086 -504.4531 262.8587
v -2306.4385 -502.1703 268.7437
f 2227 2228 2229
v -2312.4533 -496.1683 268.7420
v -2312.4535 -496.1683 269.3740
v -2306.5142 -496.0942 268.7441
f 2230 2231 2232
v -2312.5057 -493.3629 262.8574
v -2312.5078 -493.3631 268.7422
v -2291.7270 -492.9679 268.7497
f 2233 2234 2235
v -2289.0572 -504.2367 262.8649
v -2289.0593 -504.2370 268.7497
v -2291.9443 -504.2722 268.7487
f 2236 2237 2238
v -2289.1682 -495.2985 262.8656
v -2289.1702 -495.2988 268.7504
v -2289.0593 -504.2370 268.7497
f 2239 2240 2241
v -2291.6813 -495.3468 262.8647
v -2291.6834 -495.3471 268.7495
v -2289.1702 -495.2988 268.7504
f 2242 2243 2244
v -2291.7249 -492.9677 262.8649
v -2291.7270 -492.9679 268.7497
v -2291.6834 -495.3471 268.7495
f 2245 2246 2247
v -2300.8276 -498.8354 268.7459
v -2306.4385 -502.1703 268.7437
v -2300.7866 -502.1776 268.7457
f 2248 2249 2250
v -2306.5142 -496.0942 268.7441
v -2306.4385 -502.1703 268.7437
v -2300.8276 -498.8354 268.7459
f 2251 2252 2253
v -2306.5142 -496.0942 268.7441
v -2312.5078 -493.3631 268.7422
v -2312.4533 -496.1683 268.7420
f 2254 2255 2256
v -2291.7270 -492.9679 268.7497
v -2312.5078 -493.3631 268.7422
v -2306.5142 -496.0942 268.7441
f 2257 2258 2259
v -2306.5142 -496.0942 268.7441
v -2300.8276 -498.8354 268.7459
v -2291.6834 -495.3471 268.7495
f 2260 2261 2262
v -2289.0593 -504.2370 268.7497
v -2292.0124 -498.7271 268.7491
v -2291.9443 -504.2722 268.7487
f 2263 2264 2265
v -2289.1702 -495.2988 268.7504
v -2292.0124 -498.7271 268.7491
v -2289.0593 -504.2370 268.7497
f 2266 2267 2268
v -2291.6834 -495.3471 268.7495
v -2291.7270 -492.9679 268.7497
v -2306.5142 -496.0942 268.7441
f 2269 2270 2271
v -2292.0124 -498.7271 268.7491
v -2289.1702 -495.2988 268.7504
v -2291.6834 -495.3471 268.7495
f 2272 2273 2274
v -2292.0124 -498.7271 268.7491
v -2291.6834 -495.3471 268.7495
v -2300.8276 -498.8354 268.7459
f 2275 2276 2277
v -2312.4533 -496.1683 268.7420
v -2312.5078 -493.3631 268.7422
v -2312.4495 -496.2650 262.8572
f 2278 2279 2280
v -2300.7288 -502.1778 269.3777
v -2300.8278 -498.8355 269.3779
v -2300.7868 -502.1785 269.3777
f 2281 2282 2283
v -2292.0127 -498.7272 269.3811
v -2300.8278 -498.8355 269.3779
v -2300.7288 -502.1778 269.3777
f 2284 2285 2286
v -2300.7288 -502.1778 269.3777
v -2291.9044 -507.5624 269.3804
v -2292.0127 -498.7272 269.3811
f 2287 2288 2289
v -2300.6265 -507.6709 269.3772
v -2291.9044 -507.5624 269.3804
v -2300.7288 -502.1778 269.3777
f 2290 2291 2292
v -2291.9021 -507.5620 262.8637
v -2291.9044 -507.5624 269.3804
v -2300.6265 -507.6709 269.3772
f 2293 2294 2295
v -2300.7266 -502.1774 262.8609
v -2306.4364 -502.1700 262.8589
v -2312.4495 -496.2650 262.8572
f 2296 2297 2298
v -2306.4364 -502.1700 262.8589
v -2315.3726 -496.3211 262.8561
v -2312.4495 -496.2650 262.8572
f 2299 2300 2301
v -2306.4364 -502.1700 262.8589
v -2315.2061 -505.0695 262.8555
v -2315.3726 -496.3211 262.8561
f 2302 2303 2304
v -2315.2061 -505.0695 262.8555
v -2306.4364 -502.1700 262.8589
v -2306.4086 -504.4531 262.8587
f 2305 2306 2307
v -2306.4020 -504.9601 262.8587
v -2315.2061 -505.0695 262.8555
v -2306.4086 -504.4531 262.8587
f 2308 2309 2310
v -2291.6813 -495.3468 262.8647
v -2312.4495 -496.2650 262.8572
v -2312.5057 -493.3629 262.8574
f 2311 2312 2313
v -2291.6813 -495.3468 262.8647
v -2300.7266 -502.1774 262.8609
v -2312.4495 -496.2650 262.8572
f 2314 2315 2316
v -2291.9423 -504.2719 262.8639
v -2300.7266 -502.1774 262.8609
v -2291.6813 -495.3468 262.8647
f 2317 2318 2319
v -2289.1682 -495.2985 262.8656
v -2289.0572 -504.2367 262.8649
v -2291.6813 -495.3468 262.8647
f 2320 2321 2322
v -2300.6855 -504.3804 262.8608
v -2300.7266 -502.1774 262.8609
v -2291.9423 -504.2719 262.8639
f 2323 2324 2325
v -2291.9423 -504.2719 262.8639
v -2291.6813 -495.3468 262.8647
v -2289.0572 -504.2367 262.8649
f 2326 2327 2328
v -2291.6813 -495.3468 262.8647
v -2312.5057 -493.3629 262.8574
v -2291.7249 -492.9677 262.8649
f 2329 2330 2331
v -2300.7288 -502.1778 269.3777
v -2300.7866 -502.1776 268.7457
v -2300.7266 -502.1774 262.8609
f 2332 2333 2334
v -2300.7866 -502.1776 268.7457
v -2306.4385 -502.1703 268.7437
v -2300.7266 -502.1774 262.8609
f 2335 2336 2337
v -2300.6243 -507.6705 262.8605
v -2300.6265 -507.6709 269.3772
v -2300.6855 -504.3804 262.8608
f 2338 2339 2340
v -2300.7288 -502.1778 269.3777
v -2300.6855 -504.3804 262.8608
v -2300.6265 -507.6709 269.3772
f 2341 2342 2343
v -2300.6855 -504.3804 262.8608
v -2300.7288 -502.1778 269.3777
v -2300.7266 -502.1774 262.8609
f 2344 2345 2346
v -2292.0124 -498.7271 268.7491
v -2292.0127 -498.7272 269.3811
v -2291.9443 -504.2722 268.7487
f 2347 2348 2349
v -2291.9044 -507.5624 269.3804
v -2291.9443 -504.2722 268.7487
v -2292.0127 -498.7272 269.3811
f 2350 2351 2352
v -2291.9423 -504.2719 262.8639
v -2291.9443 -504.2722 268.7487
v -2291.9021 -507.5620 262.8637
f 2353 2354 2355
v -2300.8276 -498.8354 268.7459
v -2300.8278 -498.8355 269.3779
v -2292.0127 -498.7272 269.3811
f 2356 2357 2358
v -2300.7866 -502.1776 268.7457
v -2300.7868 -502.1785 269.3777
v -2300.8278 -498.8355 269.3779
f 2359 2360 2361
v -2291.9021 -507.5620 262.8637
v -2300.6243 -507.6705 262.8605
v -2300.6855 -504.3804 262.8608
f 2362 2363 2364
v -2300.6855 -504.3804 262.8608
v -2291.9423 -504.2719 262.8639
v -2291.9021 -507.5620 262.8637
f 2365 2366 2367
v -2315.2061 -505.0695 262.8555
v -2315.3749 -496.3215 269.3729
v -2315.3726 -496.3211 262.8561
f 2368 2369 2370
v -2306.4020 -504.9601 262.8587
v -2315.2084 -505.0698 269.3722
v -2315.2061 -505.0695 262.8555
f 2371 2372 2373
v -2312.4535 -496.1683 269.3740
v -2306.5144 -496.0943 269.3761
v -2306.5142 -496.0942 268.7441
f 2374 2375 2376
v -2312.5057 -493.3629 262.8574
v -2291.7270 -492.9679 268.7497
v -2291.7249 -492.9677 262.8649
f 2377 2378 2379
v -2289.0572 -504.2367 262.8649
v -2291.9443 -504.2722 268.7487
v -2291.9423 -504.2719 262.8639
f 2380 2381 2382
v -2289.1682 -495.2985 262.8656
v -2289.0593 -504.2370 268.7497
v -2289.0572 -504.2367 262.8649
f 2383 2384 2385
v -2291.6813 -495.3468 262.8647
v -2289.1702 -495.2988 268.7504
v -2289.1682 -495.2985 262.8656
f 2386 2387 2388
v -2291.7249 -492.9677 262.8649
v -2291.6834 -495.3471 268.7495
v -2291.6813 -495.3468 262.8647
f 2389 2390 2391
v -2312.4533 -496.1683 268.7420
v -2312.4518 -496.2653 269.3740
v -2312.4535 -496.1683 269.3740
f 2392 2393 2394
v -2312.4495 -496.2650 262.8572
v -2312.4518 -496.2653 269.3740
v -2312.4533 -496.1683 268.7420
f 2395 2396 2397
v -2312.5078 -493.3631 268.7422
v -2312.5057 -493.3629 262.8574
v -2312.4495 -496.2650 262.8572
f 2398 2399 2400
v -2300.7866 -502.1776 268.7457
v -2300.7288 -502.1778 269.3777
v -2300.7868 -502.1785 269.3777
f 2401 2402 2403
v -2291.9021 -507.5620 262.8637
v -2300.6265 -507.6709 269.3772
v -2300.6243 -507.6705 262.8605
f 2404 2405 2406
v -2306.4385 -502.1703 268.7437
v -2306.4364 -502.1700 262.8589
v -2300.7266 -502.1774 262.8609
f 2407 2408 2409
v -2291.9443 -504.2722 268.7487
v -2291.9044 -507.5624 269.3804
v -2291.9021 -507.5620 262.8637
f 2410 2411 2412
v -2300.8276 -498.8354 268.7459
v -2292.0127 -498.7272 269.3811
v -2292.0124 -498.7271 268.7491
f 2413 2414 2415
v -2300.7866 -502.1776 268.7457
v -2300.8278 -498.8355 269.3779
v -2300.8276 -498.8354 268.7459
f 2416 2417 2418

g building_ID_21CCB834-0119-4597-9421-8BEF7ED5CB1F
v -2239.5885 -121.9367 265.4069
v -2243.6811 -121.4487 265.4054
v -2242.6183 -123.3945 265.4058
f 2419 2420 2421
v -2239.1698 -121.7038 265.4070
v -2241.1000 -117.6887 265.4064
v -2239.5885 -121.9367 265.4069
f 2422 2423 2424
v -2245.2503 -118.1845 265.4050
v -2241.1000 -117.6887 265.4064
v -2241.7488 -116.5000 265.4062
f 2425 2426 2427
v -2241.1000 -117.6887 265.4064
v -2245.2503 -118.1845 265.4050
v -2243.6811 -121.4487 265.4054
f 2428 2429 2430
v -2239.5885 -121.9367 265.4069
v -2241.1000 -117.6887 265.4064
v -2243.6811 -121.4487 265.4054
f 2431 2432 2433
v -2239.1679 -121.7038 259.6842
v -2239.1698 -121.7038 265.4070
v -2239.5885 -121.9367 265.4069
f 2434 2435 2436
v -2241.0981 -117.6887 259.6836
v -2241.1000 -117.6887 265.4064
v -2239.1698 -121.7038 265.4070
f 2437 2438 2439
v -2241.7469 -116.5000 259.6834
v -2241.7488 -116.5000 265.4062
v -2241.1000 -117.6887 265.4064
f 2440 2441 2442
v -2245.2483 -118.1845 259.6822
v -2245.2503 -118.1845 265.4050
v -2241.7488 -116.5000 265.4062
f 2443 2444 2445
v -2243.6791 -121.4487 259.6826
v -2243.6811 -121.4487 265.4054
v -2245.2503 -118.1845 265.4050
f 2446 2447 2448
v -2242.6164 -123.3945 259.6830
v -2242.6183 -123.3945 265.4058
v -2243.6811 -121.4487 265.4054
f 2449 2450 2451
v -2239.5865 -121.9367 259.6841
v -2239.5885 -121.9367 265.4069
v -2242.6183 -123.3945 265.4058
f 2452 2453 2454
v -2245.2483 -118.1845 259.6822
v -2241.7469 -116.5000 259.6834
v -2241.0981 -117.6887 259.6836
f 2455 2456 2457
v -2243.6791 -121.4487 259.6826
v -2245.2483 -118.1845 259.6822
v -2241.0981 -117.6887 259.6836
f 2458 2459 2460
v -2241.0981 -117.6887 259.6836
v -2239.5865 -121.9367 259.6841
v -2243.6791 -121.4487 259.6826
f 2461 2462 2463
v -2239.5865 -121.9367 259.6841
v -2242.6164 -123.3945 259.6830
v -2243.6791 -121.4487 259.6826
f 2464 2465 2466
v -2239.1679 -121.7038 259.6842
v -2239.5865 -121.9367 259.6841
v -2241.0981 -117.6887 259.6836
f 2467 2468 2469
v -2239.1679 -121.7038 259.6842
v -2239.5885 -121.9367 265.4069
v -2239.5865 -121.9367 259.6841
f 2470 2471 2472
v -2241.0981 -117.6887 259.6836
v -2239.1698 -121.7038 265.4070
v -2239.1679 -121.7038 259.6842
f 2473 2474 2475
v -2241.7469 -116.5000 259.6834
v -2241.1000 -117.6887 265.4064
v -2241.0981 -117.6887 259.6836
f 2476 2477 2478
v -2245.2483 -118.1845 259.6822
v -2241.7488 -116.5000 265.4062
v -2241.7469 -116.5000 259.6834
f 2479 2480 2481
v -2243.6791 -121.4487 259.6826
v -2245.2503 -118.1845 265.4050
v -2245.2483 -118.1845 259.6822
f 2482 2483 2484
v -2242.6164 -123.3945 259.6830
v -2243.6811 -121.4487 265.4054
v -2243.6791 -121.4487 259.6826
f 2485 2486 2487
v -2239.5865 -121.9367 259.6841
v -2242.6183 -123.3945 265.4058
v -2242.6164 -123.3945 259.6830
f 2488 2489 2490
