# Grid Center: 2613800, 1266200
# Global Anchor: 7.64977475454284, 47.53283995868075, 0.0

g building_ID_7E0120B6-1FE7-4A21-B89A-2D13FF06BB10
v -2198.2038 1298.4467 252.5507
v -2200.2792 1291.9294 252.5513
v -2201.3403 1292.2653 252.5509
f 1 2 3
v -2198.2038 1298.4467 252.5507
v -2201.3403 1292.2653 252.5509
v -2205.6835 1293.6408 252.5491
f 4 5 6
v -2201.2266 1307.7957 252.5477
v -2205.6835 1293.6408 252.5491
v -2210.5363 1295.1788 252.5471
f 7 8 9
v -2201.2266 1307.7957 252.5477
v -2210.5363 1295.1788 252.5471
v -2206.0634 1309.3286 252.5457
f 10 11 12
v -2205.6835 1293.6408 252.5491
v -2201.2266 1307.7957 252.5477
v -2198.2038 1298.4467 252.5507
f 13 14 15
v -2195.7773 1306.0680 252.5500
v -2198.2038 1298.4467 252.5507
v -2196.8844 1306.4200 252.5495
f 16 17 18
v -2201.2266 1307.7957 252.5477
v -2196.8844 1306.4200 252.5495
v -2198.2038 1298.4467 252.5507
f 19 20 21
v -2210.2524 1295.0911 270.0026
v -2201.2331 1307.8002 272.2900
v -2205.7955 1309.2458 270.0013
f 22 23 24
v -2201.2331 1307.8002 272.2900
v -2210.2524 1295.0911 270.0026
v -2205.6901 1293.6454 272.2914
f 25 26 27
v -2205.7955 1309.2458 270.0013
v -2206.0692 1309.3325 269.8931
v -2210.5421 1295.1828 269.8885
f 28 29 30
v -2205.7955 1309.2458 270.0013
v -2210.5421 1295.1828 269.8885
v -2210.2524 1295.0911 270.0026
f 31 32 33
v -2205.6901 1293.6454 272.2914
v -2196.8902 1306.4240 270.0049
v -2201.2331 1307.8002 272.2900
f 34 35 36
v -2196.8902 1306.4240 270.0049
v -2205.6901 1293.6454 272.2914
v -2201.3461 1292.2691 270.0063
f 37 38 39
v -2198.5765 1297.2996 269.5822
v -2195.7830 1306.0719 269.5694
v -2196.8902 1306.4240 270.0049
f 40 41 42
v -2198.5765 1297.2996 269.5822
v -2201.3461 1292.2691 270.0063
v -2200.2849 1291.9332 269.5887
f 43 44 45
v -2196.8902 1306.4240 270.0049
v -2201.3461 1292.2691 270.0063
v -2198.5765 1297.2996 269.5822
f 46 47 48
v -2206.0678 1309.3316 265.5552
v -2210.5392 1295.1808 261.2148
v -2210.5406 1295.1818 265.5516
f 49 50 51
v -2206.0678 1309.3316 265.5552
v -2210.5363 1295.1788 252.5471
v -2210.5392 1295.1808 261.2148
f 52 53 54
v -2206.0634 1309.3286 252.5457
v -2210.5363 1295.1788 252.5471
v -2206.0648 1309.3296 256.8825
f 55 56 57
v -2206.0678 1309.3316 265.5552
v -2206.0648 1309.3296 256.8825
v -2210.5363 1295.1788 252.5471
f 58 59 60
v -2198.5765 1297.2996 269.5822
v -2195.7816 1306.0710 265.3105
v -2195.7830 1306.0719 269.5694
f 61 62 63
v -2198.2038 1298.4467 252.5507
v -2195.7773 1306.0680 252.5500
v -2195.7802 1306.0700 261.0507
f 64 65 66
v -2198.2038 1298.4467 252.5507
v -2195.7802 1306.0700 261.0507
v -2195.7816 1306.0710 265.3105
f 67 68 69
v -2200.2820 1291.9313 261.0700
v -2200.2806 1291.9304 256.8101
v -2198.5765 1297.2996 269.5822
f 70 71 72
v -2198.5765 1297.2996 269.5822
v -2198.2038 1298.4467 252.5507
v -2195.7816 1306.0710 265.3105
f 73 74 75
v -2200.2806 1291.9304 256.8101
v -2198.2038 1298.4467 252.5507
v -2198.5765 1297.2996 269.5822
f 76 77 78
v -2200.2806 1291.9304 256.8101
v -2200.2792 1291.9294 252.5513
v -2198.2038 1298.4467 252.5507
f 79 80 81
v -2206.0678 1309.3316 265.5552
v -2205.7955 1309.2458 270.0013
v -2201.2331 1307.8002 272.2900
f 82 83 84
v -2206.0678 1309.3316 265.5552
v -2206.0692 1309.3325 269.8931
v -2205.7955 1309.2458 270.0013
f 85 86 87
v -2195.7802 1306.0700 261.0507
v -2206.0648 1309.3296 256.8825
v -2206.0678 1309.3316 265.5552
f 88 89 90
v -2206.0678 1309.3316 265.5552
v -2201.2331 1307.8002 272.2900
v -2196.8902 1306.4240 270.0049
f 91 92 93
v -2195.7816 1306.0710 265.3105
v -2196.8902 1306.4240 270.0049
v -2195.7830 1306.0719 269.5694
f 94 95 96
v -2195.7816 1306.0710 265.3105
v -2195.7802 1306.0700 261.0507
v -2206.0678 1309.3316 265.5552
f 97 98 99
v -2206.0648 1309.3296 256.8825
v -2195.7802 1306.0700 261.0507
v -2201.2266 1307.7957 252.5477
f 100 101 102
v -2201.2266 1307.7957 252.5477
v -2206.0634 1309.3286 252.5457
v -2206.0648 1309.3296 256.8825
f 103 104 105
v -2195.7802 1306.0700 261.0507
v -2196.8844 1306.4200 252.5495
v -2201.2266 1307.7957 252.5477
f 106 107 108
v -2196.8844 1306.4200 252.5495
v -2195.7802 1306.0700 261.0507
v -2195.7773 1306.0680 252.5500
f 109 110 111
v -2196.8902 1306.4240 270.0049
v -2195.7816 1306.0710 265.3105
v -2206.0678 1309.3316 265.5552
f 112 113 114
v -2200.2820 1291.9313 261.0700
v -2210.5392 1295.1808 261.2148
v -2205.6835 1293.6408 252.5491
f 115 116 117
v -2200.2820 1291.9313 261.0700
v -2200.2835 1291.9322 265.3298
v -2210.5392 1295.1808 261.2148
f 118 119 120
v -2200.2806 1291.9304 256.8101
v -2201.3403 1292.2653 252.5509
v -2200.2792 1291.9294 252.5513
f 121 122 123
v -2201.3403 1292.2653 252.5509
v -2200.2806 1291.9304 256.8101
v -2205.6835 1293.6408 252.5491
f 124 125 126
v -2200.2820 1291.9313 261.0700
v -2205.6835 1293.6408 252.5491
v -2200.2806 1291.9304 256.8101
f 127 128 129
v -2201.3461 1292.2691 270.0063
v -2200.2835 1291.9322 265.3298
v -2200.2849 1291.9332 269.5887
f 130 131 132
v -2205.6901 1293.6454 272.2914
v -2210.5406 1295.1818 265.5516
v -2201.3461 1292.2691 270.0063
f 133 134 135
v -2210.2524 1295.0911 270.0026
v -2210.5406 1295.1818 265.5516
v -2205.6901 1293.6454 272.2914
f 136 137 138
v -2210.5421 1295.1828 269.8885
v -2210.5406 1295.1818 265.5516
v -2210.2524 1295.0911 270.0026
f 139 140 141
v -2210.5392 1295.1808 261.2148
v -2210.5363 1295.1788 252.5471
v -2205.6835 1293.6408 252.5491
f 142 143 144
v -2200.2835 1291.9322 265.3298
v -2210.5406 1295.1818 265.5516
v -2210.5392 1295.1808 261.2148
f 145 146 147
v -2210.5406 1295.1818 265.5516
v -2200.2835 1291.9322 265.3298
v -2201.3461 1292.2691 270.0063
f 148 149 150
v -2206.0678 1309.3316 265.5552
v -2210.5406 1295.1818 265.5516
v -2210.5421 1295.1828 269.8885
f 151 152 153
v -2210.5421 1295.1828 269.8885
v -2206.0692 1309.3325 269.8931
v -2206.0678 1309.3316 265.5552
f 154 155 156
v -2198.5765 1297.2996 269.5822
v -2200.2849 1291.9332 269.5887
v -2200.2835 1291.9322 265.3298
f 157 158 159
v -2198.5765 1297.2996 269.5822
v -2200.2835 1291.9322 265.3298
v -2200.2820 1291.9313 261.0700
f 160 161 162

g building_ID_497FCDCE-8A1B-40D9-949D-0BE59C31EF92
v -2242.7046 1294.8923 252.8699
v -2248.0870 1296.5977 252.8677
v -2243.8219 1310.0600 252.8664
f 163 164 165
v -2234.9750 1298.8844 252.8718
v -2242.7046 1294.8923 252.8699
v -2243.8219 1310.0600 252.8664
f 166 167 168
v -2233.9228 1300.4606 252.8719
v -2234.4695 1298.7241 252.8720
v -2234.9750 1298.8844 252.8718
f 169 170 171
v -2236.8317 1293.0325 252.8724
v -2242.7046 1294.8923 252.8699
v -2234.9750 1298.8844 252.8718
f 172 173 174
v -2234.9750 1298.8844 252.8718
v -2243.8219 1310.0600 252.8664
v -2234.4244 1300.6199 252.8717
f 175 176 177
v -2234.4244 1300.6199 252.8717
v -2243.8219 1310.0600 252.8664
v -2238.4685 1308.3637 252.8687
f 178 179 180
v -2234.9750 1298.8844 252.8718
v -2234.4244 1300.6199 252.8717
v -2233.9228 1300.4606 252.8719
f 181 182 183
v -2232.5626 1306.4908 252.8711
v -2234.4244 1300.6199 252.8717
v -2238.4685 1308.3637 252.8687
f 184 185 186
v -2248.0928 1296.6017 270.2470
v -2242.7113 1294.8968 272.7031
v -2245.7268 1304.0712 270.2533
f 187 188 189
v -2245.7268 1304.0712 270.2533
v -2238.4752 1308.3682 272.7019
v -2243.8278 1310.0640 270.2587
f 190 191 192
v -2242.7113 1294.8968 272.7031
v -2238.4752 1308.3682 272.7019
v -2245.7268 1304.0712 270.2533
f 193 194 195
v -2232.5684 1306.4948 269.9494
v -2238.4752 1308.3682 272.7019
v -2233.1987 1304.5055 269.9526
f 196 197 198
v -2238.4752 1308.3682 272.7019
v -2234.4302 1300.6239 269.9570
v -2233.1987 1304.5055 269.9526
f 199 200 201
v -2234.4302 1300.6239 269.9570
v -2238.4752 1308.3682 272.7019
v -2234.9808 1298.8884 269.9591
f 202 203 204
v -2233.9285 1300.4644 269.7232
v -2234.4302 1300.6239 269.9570
v -2234.4752 1298.7280 269.7233
f 205 206 207
v -2242.7113 1294.8968 272.7031
v -2236.8375 1293.0364 269.9667
v -2234.9808 1298.8884 269.9591
f 208 209 210
v -2234.9808 1298.8884 269.9591
v -2234.4752 1298.7280 269.7233
v -2234.4302 1300.6239 269.9570
f 211 212 213
v -2238.4752 1308.3682 272.7019
v -2242.7113 1294.8968 272.7031
v -2234.9808 1298.8884 269.9591
f 214 215 216
v -2248.0914 1296.6007 265.8992
v -2248.0928 1296.6017 270.2470
v -2245.7268 1304.0712 270.2533
f 217 218 219
v -2245.7268 1304.0712 270.2533
v -2248.0870 1296.5977 252.8677
v -2248.0914 1296.6007 265.8992
f 220 221 222
v -2243.8219 1310.0600 252.8664
v -2248.0870 1296.5977 252.8677
v -2243.8263 1310.0630 265.9099
f 223 224 225
v -2232.5655 1306.4928 261.4068
v -2232.5684 1306.4948 269.9494
v -2233.1987 1304.5055 269.9526
f 226 227 228
v -2232.5626 1306.4908 252.8711
v -2232.5655 1306.4928 261.4068
v -2233.1987 1304.5055 269.9526
f 229 230 231
v -2233.1987 1304.5055 269.9526
v -2234.4244 1300.6199 252.8717
v -2232.5626 1306.4908 252.8711
f 232 233 234
v -2236.8317 1293.0325 252.8724
v -2234.9750 1298.8844 252.8718
v -2234.9808 1298.8884 269.9591
f 235 236 237
v -2236.8317 1293.0325 252.8724
v -2234.9808 1298.8884 269.9591
v -2236.8331 1293.0335 257.1462
f 238 239 240
v -2234.4752 1298.7280 269.7233
v -2234.9808 1298.8884 269.9591
v -2234.9750 1298.8844 252.8718
f 241 242 243
v -2234.4695 1298.7241 252.8720
v -2234.4752 1298.7280 269.7233
v -2234.9750 1298.8844 252.8718
f 244 245 246
v -2233.9228 1300.4606 252.8719
v -2233.9285 1300.4644 269.7232
v -2234.4752 1298.7280 269.7233
f 247 248 249
v -2234.4695 1298.7241 252.8720
v -2233.9228 1300.4606 252.8719
v -2234.4752 1298.7280 269.7233
f 250 251 252
v -2236.8331 1293.0335 257.1462
v -2236.8375 1293.0364 269.9667
v -2242.7113 1294.8968 272.7031
f 253 254 255
v -2236.8331 1293.0335 257.1462
v -2242.7113 1294.8968 272.7031
v -2248.0928 1296.6017 270.2470
f 256 257 258
v -2236.8331 1293.0335 257.1462
v -2248.0914 1296.6007 265.8992
v -2242.7046 1294.8923 252.8699
f 259 260 261
v -2236.8331 1293.0335 257.1462
v -2242.7046 1294.8923 252.8699
v -2236.8317 1293.0325 252.8724
f 262 263 264
v -2248.0870 1296.5977 252.8677
v -2242.7046 1294.8923 252.8699
v -2248.0914 1296.6007 265.8992
f 265 266 267
v -2248.0928 1296.6017 270.2470
v -2248.0914 1296.6007 265.8992
v -2236.8331 1293.0335 257.1462
f 268 269 270
v -2238.4685 1308.3637 252.8687
v -2243.8219 1310.0600 252.8664
v -2243.8263 1310.0630 265.9099
f 271 272 273
v -2238.4685 1308.3637 252.8687
v -2243.8263 1310.0630 265.9099
v -2232.5626 1306.4908 252.8711
f 274 275 276
v -2238.4752 1308.3682 272.7019
v -2232.5655 1306.4928 261.4068
v -2243.8278 1310.0640 270.2587
f 277 278 279
v -2232.5684 1306.4948 269.9494
v -2232.5655 1306.4928 261.4068
v -2238.4752 1308.3682 272.7019
f 280 281 282
v -2243.8278 1310.0640 270.2587
v -2232.5655 1306.4928 261.4068
v -2232.5626 1306.4908 252.8711
f 283 284 285
v -2243.8263 1310.0630 265.9099
v -2243.8278 1310.0640 270.2587
v -2232.5626 1306.4908 252.8711
f 286 287 288
v -2248.0870 1296.5977 252.8677
v -2245.7268 1304.0712 270.2533
v -2243.8263 1310.0630 265.9099
f 289 290 291
v -2245.7268 1304.0712 270.2533
v -2243.8278 1310.0640 270.2587
v -2243.8263 1310.0630 265.9099
f 292 293 294
v -2233.1987 1304.5055 269.9526
v -2234.4302 1300.6239 269.9570
v -2234.4244 1300.6199 252.8717
f 295 296 297
v -2234.9808 1298.8884 269.9591
v -2236.8375 1293.0364 269.9667
v -2236.8331 1293.0335 257.1462
f 298 299 300
v -2233.9228 1300.4606 252.8719
v -2234.4302 1300.6239 269.9570
v -2233.9285 1300.4644 269.7232
f 301 302 303
v -2233.9228 1300.4606 252.8719
v -2234.4244 1300.6199 252.8717
v -2234.4302 1300.6239 269.9570
f 304 305 306

g building_ID_DA8EAEA5-A3A3-423E-9617-CA3CAF3D76A5
v -2289.9034 1281.2369 255.4268
v -2299.0269 1280.2203 255.4237
v -2290.8917 1290.0333 255.4246
f 307 308 309
v -2292.2129 1301.8847 255.4217
v -2288.2879 1293.3273 255.4249
v -2290.8917 1290.0333 255.4246
f 310 311 312
v -2288.2879 1293.3273 255.4249
v -2287.9548 1290.3645 255.4256
v -2290.8917 1290.0333 255.4246
f 313 314 315
v -2302.3158 1309.6426 255.4165
v -2290.8917 1290.0333 255.4246
v -2299.0269 1280.2203 255.4237
f 316 317 318
v -2292.2157 1301.9617 255.4217
v -2302.3158 1309.6426 255.4165
v -2293.2002 1310.6802 255.4196
f 319 320 321
v -2302.3158 1309.6426 255.4165
v -2292.2157 1301.9617 255.4217
v -2292.2129 1301.8847 255.4217
f 322 323 324
v -2288.2879 1293.3273 255.4249
v -2292.2129 1301.8847 255.4217
v -2289.2810 1302.2137 255.4227
f 325 326 327
v -2290.8917 1290.0333 255.4246
v -2302.3158 1309.6426 255.4165
v -2292.2129 1301.8847 255.4217
f 328 329 330
v -2292.2181 1301.9633 262.5745
v -2302.3183 1309.6443 262.5693
v -2292.2153 1301.8863 262.5745
f 331 332 333
v -2290.8942 1290.0350 262.5774
v -2292.2153 1301.8863 262.5745
v -2302.3183 1309.6443 262.5693
f 334 335 336
v -2302.3183 1309.6443 262.5693
v -2292.2181 1301.9633 262.5745
v -2293.2027 1310.6818 262.5724
f 337 338 339
v -2289.2835 1302.2154 262.5755
v -2292.2153 1301.8863 262.5745
v -2288.2904 1293.3289 262.5777
f 340 341 342
v -2290.8942 1290.0350 262.5774
v -2299.0294 1280.2220 262.5764
v -2289.9058 1281.2384 262.5796
f 343 344 345
v -2287.9573 1290.3660 262.5784
v -2288.2904 1293.3289 262.5777
v -2290.8942 1290.0350 262.5774
f 346 347 348
v -2290.8942 1290.0350 262.5774
v -2288.2904 1293.3289 262.5777
v -2292.2153 1301.8863 262.5745
f 349 350 351
v -2299.0294 1280.2220 262.5764
v -2290.8942 1290.0350 262.5774
v -2302.3183 1309.6443 262.5693
f 352 353 354
v -2299.0269 1280.2203 255.4237
v -2299.0294 1280.2220 262.5764
v -2302.3183 1309.6443 262.5693
f 355 356 357
v -2289.9034 1281.2369 255.4268
v -2289.9058 1281.2384 262.5796
v -2299.0294 1280.2220 262.5764
f 358 359 360
v -2290.8917 1290.0333 255.4246
v -2290.8942 1290.0350 262.5774
v -2289.9058 1281.2384 262.5796
f 361 362 363
v -2287.9548 1290.3645 255.4256
v -2287.9573 1290.3660 262.5784
v -2290.8942 1290.0350 262.5774
f 364 365 366
v -2292.2129 1301.8847 255.4217
v -2292.2153 1301.8863 262.5745
v -2289.2835 1302.2154 262.5755
f 367 368 369
v -2292.2157 1301.9617 255.4217
v -2292.2181 1301.9633 262.5745
v -2292.2153 1301.8863 262.5745
f 370 371 372
v -2293.2002 1310.6802 255.4196
v -2293.2027 1310.6818 262.5724
v -2292.2181 1301.9633 262.5745
f 373 374 375
v -2302.3158 1309.6426 255.4165
v -2302.3183 1309.6443 262.5693
v -2293.2027 1310.6818 262.5724
f 376 377 378
v -2288.2879 1293.3273 255.4249
v -2289.2810 1302.2137 255.4227
v -2289.2835 1302.2154 262.5755
f 379 380 381
v -2288.2904 1293.3289 262.5777
v -2287.9573 1290.3660 262.5784
v -2287.9548 1290.3645 255.4256
f 382 383 384
v -2299.0269 1280.2203 255.4237
v -2302.3183 1309.6443 262.5693
v -2302.3158 1309.6426 255.4165
f 385 386 387
v -2289.9034 1281.2369 255.4268
v -2299.0294 1280.2220 262.5764
v -2299.0269 1280.2203 255.4237
f 388 389 390
v -2290.8917 1290.0333 255.4246
v -2289.9058 1281.2384 262.5796
v -2289.9034 1281.2369 255.4268
f 391 392 393
v -2287.9548 1290.3645 255.4256
v -2290.8942 1290.0350 262.5774
v -2290.8917 1290.0333 255.4246
f 394 395 396
v -2292.2129 1301.8847 255.4217
v -2289.2835 1302.2154 262.5755
v -2289.2810 1302.2137 255.4227
f 397 398 399
v -2292.2157 1301.9617 255.4217
v -2292.2153 1301.8863 262.5745
v -2292.2129 1301.8847 255.4217
f 400 401 402
v -2293.2002 1310.6802 255.4196
v -2292.2181 1301.9633 262.5745
v -2292.2157 1301.9617 255.4217
f 403 404 405
v -2302.3158 1309.6426 255.4165
v -2293.2027 1310.6818 262.5724
v -2293.2002 1310.6802 255.4196
f 406 407 408
v -2288.2879 1293.3273 255.4249
v -2289.2835 1302.2154 262.5755
v -2288.2904 1293.3289 262.5777
f 409 410 411
v -2288.2904 1293.3289 262.5777
v -2287.9548 1290.3645 255.4256
v -2288.2879 1293.3273 255.4249
f 412 413 414

g building_ID_129F635B-E81F-402A-BF01-22F2FCAF72E9
v -2155.3733 1275.4732 252.9449
v -2154.8841 1288.2527 252.9425
v -2151.0515 1288.0904 252.9438
f 415 416 417
v -2141.8070 1274.9408 252.9496
v -2150.8124 1293.7427 252.9428
v -2130.3430 1307.7984 252.9467
f 418 419 420
v -2150.7793 1294.5155 252.9426
v -2130.3430 1307.7984 252.9467
v -2150.8124 1293.7427 252.9428
f 421 422 423
v -2151.0099 1289.0542 252.9436
v -2141.8070 1274.9408 252.9496
v -2151.0515 1288.0904 252.9438
f 424 425 426
v -2141.8070 1274.9408 252.9496
v -2141.8133 1274.8168 252.9496
v -2155.3733 1275.4732 252.9449
f 427 428 429
v -2150.9201 1291.1960 252.9432
v -2150.8124 1293.7427 252.9428
v -2141.8070 1274.9408 252.9496
f 430 431 432
v -2151.0515 1288.0904 252.9438
v -2141.8070 1274.9408 252.9496
v -2155.3733 1275.4732 252.9449
f 433 434 435
v -2150.9533 1290.4031 252.9434
v -2150.9201 1291.1960 252.9432
v -2141.8070 1274.9408 252.9496
f 436 437 438
v -2150.9779 1289.8352 252.9435
v -2150.9533 1290.4031 252.9434
v -2141.8070 1274.9408 252.9496
f 439 440 441
v -2150.9779 1289.8352 252.9435
v -2141.8070 1274.9408 252.9496
v -2151.0099 1289.0542 252.9436
f 442 443 444
v -2130.3430 1307.7984 252.9467
v -2131.9574 1274.4563 252.9530
v -2141.8070 1274.9408 252.9496
f 445 446 447
v -2130.3430 1307.7984 252.9467
v -2150.7793 1294.5155 252.9426
v -2150.7270 1295.7494 252.9424
f 448 449 450
v -2150.7270 1295.7494 252.9424
v -2154.3098 1303.2509 252.9396
v -2150.2783 1303.0911 252.9410
f 451 452 453
v -2154.5905 1295.9137 252.9410
v -2154.3098 1303.2509 252.9396
v -2150.7270 1295.7494 252.9424
f 454 455 456
v -2150.0659 1308.4624 252.9400
v -2154.1033 1308.6222 252.9386
v -2154.0915 1308.9472 252.9386
f 457 458 459
v -2130.3430 1307.7984 252.9467
v -2150.0659 1308.4624 252.9400
v -2154.0915 1308.9472 252.9386
f 460 461 462
v -2130.3430 1307.7984 252.9467
v -2150.0841 1307.9824 252.9401
v -2150.0659 1308.4624 252.9400
f 463 464 465
v -2150.0841 1307.9824 252.9401
v -2130.3430 1307.7984 252.9467
v -2150.1388 1306.6116 252.9404
f 466 467 468
v -2130.3430 1307.7984 252.9467
v -2150.2783 1303.0911 252.9410
v -2150.1388 1306.6116 252.9404
f 469 470 471
v -2150.7270 1295.7494 252.9424
v -2150.2783 1303.0911 252.9410
v -2130.3430 1307.7984 252.9467
f 472 473 474
v -2150.0701 1308.4655 266.2755
v -2155.5726 1309.0222 266.2735
v -2155.5885 1308.6842 266.2736
f 475 476 477
v -2150.7313 1295.7525 266.2779
v -2155.8490 1303.3140 266.2746
v -2156.2036 1295.9841 266.2760
f 478 479 480
v -2130.3473 1307.8015 266.2822
v -2150.0701 1308.4655 266.2755
v -2150.1002 1307.6955 266.2757
f 481 482 483
v -2150.2826 1303.0941 266.2765
v -2155.8490 1303.3140 266.2746
v -2150.7313 1295.7525 266.2779
f 484 485 486
v -2150.7313 1295.7525 266.2779
v -2150.7409 1295.5434 266.2779
v -2130.3473 1307.8015 266.2822
f 487 488 489
v -2130.3473 1307.8015 266.2822
v -2155.5726 1309.0222 266.2735
v -2150.0701 1308.4655 266.2755
f 490 491 492
v -2130.3473 1307.8015 266.2822
v -2150.7601 1295.0685 266.2780
v -2150.7750 1294.7266 266.2781
f 493 494 495
v -2150.7409 1295.5434 266.2779
v -2150.7601 1295.0685 266.2780
v -2130.3473 1307.8015 266.2822
f 496 497 498
v -2130.3473 1307.8015 266.2822
v -2150.7911 1294.3366 266.2781
v -2150.8103 1293.9057 266.2782
f 499 500 501
v -2150.8946 1291.9009 266.2786
v -2130.3473 1307.8015 266.2822
v -2150.8508 1292.9497 266.2784
f 502 503 504
v -2150.8295 1293.4407 266.2783
v -2150.8508 1292.9497 266.2784
v -2130.3473 1307.8015 266.2822
f 505 506 507
v -2150.8295 1293.4407 266.2783
v -2130.3473 1307.8015 266.2822
v -2150.8103 1293.9057 266.2782
f 508 509 510
v -2150.7911 1294.3366 266.2781
v -2130.3473 1307.8015 266.2822
v -2150.7750 1294.7266 266.2781
f 511 512 513
v -2130.3473 1307.8015 266.2822
v -2150.8946 1291.9009 266.2786
v -2141.8113 1274.9438 266.2851
f 514 515 516
v -2130.3473 1307.8015 266.2822
v -2150.1002 1307.6955 266.2757
v -2150.1271 1307.0286 266.2758
f 517 518 519
v -2150.1539 1306.3227 266.2759
v -2130.3473 1307.8015 266.2822
v -2150.1271 1307.0286 266.2758
f 520 521 522
v -2130.3473 1307.8015 266.2822
v -2150.1539 1306.3227 266.2759
v -2150.1764 1305.7798 266.2760
f 523 524 525
v -2150.2032 1305.0958 266.2762
v -2130.3473 1307.8015 266.2822
v -2150.1764 1305.7798 266.2760
f 526 527 528
v -2150.2633 1303.5740 266.2764
v -2150.2718 1303.3721 266.2765
v -2130.3473 1307.8015 266.2822
f 529 530 531
v -2150.2826 1303.0941 266.2765
v -2130.3473 1307.8015 266.2822
v -2150.2718 1303.3721 266.2765
f 532 533 534
v -2150.2322 1304.3660 266.2763
v -2150.2633 1303.5740 266.2764
v -2130.3473 1307.8015 266.2822
f 535 536 537
v -2130.3473 1307.8015 266.2822
v -2150.2032 1305.0958 266.2762
v -2150.2322 1304.3660 266.2763
f 538 539 540
v -2150.7313 1295.7525 266.2779
v -2130.3473 1307.8015 266.2822
v -2150.2826 1303.0941 266.2765
f 541 542 543
v -2150.9373 1290.8970 266.2788
v -2141.8113 1274.9438 266.2851
v -2150.9160 1291.4059 266.2787
f 544 545 546
v -2156.9341 1280.9043 266.2788
v -2151.4327 1280.7086 266.2807
v -2156.5741 1288.3272 266.2774
f 547 548 549
v -2150.9779 1289.9412 266.2790
v -2141.8113 1274.9438 266.2851
v -2150.9577 1290.4061 266.2789
f 550 551 552
v -2141.8113 1274.9438 266.2851
v -2151.0121 1289.1193 266.2791
v -2151.0270 1288.7773 266.2792
f 553 554 555
v -2150.9960 1289.5092 266.2791
v -2141.8113 1274.9438 266.2851
v -2150.9779 1289.9412 266.2790
f 556 557 558
v -2151.0121 1289.1193 266.2791
v -2141.8113 1274.9438 266.2851
v -2150.9960 1289.5092 266.2791
f 559 560 561
v -2151.4327 1280.7086 266.2807
v -2151.0559 1288.0934 266.2793
v -2156.5741 1288.3272 266.2774
f 562 563 564
v -2150.9577 1290.4061 266.2789
v -2141.8113 1274.9438 266.2851
v -2150.9373 1290.8970 266.2788
f 565 566 567
v -2141.8113 1274.9438 266.2851
v -2151.4327 1280.7086 266.2807
v -2151.4662 1279.7536 266.2809
f 568 569 570
v -2151.6090 1275.7291 266.2816
v -2157.1744 1275.9270 266.2797
v -2157.1924 1275.5641 266.2798
f 571 572 573
v -2151.4662 1279.7536 266.2809
v -2151.4760 1279.4806 266.2809
v -2141.8113 1274.9438 266.2851
f 574 575 576
v -2151.0494 1288.2604 266.2793
v -2141.8113 1274.9438 266.2851
v -2151.0388 1288.4893 266.2793
f 577 578 579
v -2141.8113 1274.9438 266.2851
v -2151.0559 1288.0934 266.2793
v -2151.4327 1280.7086 266.2807
f 580 581 582
v -2151.4879 1279.1348 266.2810
v -2141.8113 1274.9438 266.2851
v -2151.4760 1279.4806 266.2809
f 583 584 585
v -2151.0559 1288.0934 266.2793
v -2141.8113 1274.9438 266.2851
v -2151.0494 1288.2604 266.2793
f 586 587 588
v -2151.4879 1279.1348 266.2810
v -2151.5236 1278.1498 266.2812
v -2141.8113 1274.9438 266.2851
f 589 590 591
v -2151.5419 1277.6449 266.2813
v -2141.8113 1274.9438 266.2851
v -2151.5236 1278.1498 266.2812
f 592 593 594
v -2151.5701 1276.8459 266.2814
v -2141.8113 1274.9438 266.2851
v -2151.5582 1277.1549 266.2814
f 595 596 597
v -2151.5894 1276.3090 266.2815
v -2141.8113 1274.9438 266.2851
v -2151.5798 1276.5589 266.2815
f 598 599 600
v -2151.5798 1276.5589 266.2815
v -2141.8113 1274.9438 266.2851
v -2151.5701 1276.8459 266.2814
f 601 602 603
v -2151.6090 1275.7291 266.2816
v -2141.8176 1274.8199 266.2851
v -2141.8113 1274.9438 266.2851
f 604 605 606
v -2141.8113 1274.9438 266.2851
v -2131.9617 1274.4593 266.2885
v -2130.3473 1307.8015 266.2822
f 607 608 609
v -2141.8176 1274.8199 266.2851
v -2151.6090 1275.7291 266.2816
v -2157.1924 1275.5641 266.2798
f 610 611 612
v -2151.6090 1275.7291 266.2816
v -2141.8113 1274.9438 266.2851
v -2151.5894 1276.3090 266.2815
f 613 614 615
v -2151.5582 1277.1549 266.2814
v -2141.8113 1274.9438 266.2851
v -2151.5419 1277.6449 266.2813
f 616 617 618
v -2151.0388 1288.4893 266.2793
v -2141.8113 1274.9438 266.2851
v -2151.0270 1288.7773 266.2792
f 619 620 621
v -2150.9160 1291.4059 266.2787
v -2141.8113 1274.9438 266.2851
v -2150.8946 1291.9009 266.2786
f 622 623 624
v -2141.8070 1274.9408 252.9496
v -2141.8113 1274.9438 266.2851
v -2141.8176 1274.8199 266.2851
f 625 626 627
v -2131.9574 1274.4563 252.9530
v -2131.9617 1274.4593 266.2885
v -2141.8113 1274.9438 266.2851
f 628 629 630
v -2130.3430 1307.7984 252.9467
v -2130.3473 1307.8015 266.2822
v -2131.9617 1274.4593 266.2885
f 631 632 633
v -2157.1920 1275.5638 265.0869
v -2157.1924 1275.5641 266.2798
v -2157.1744 1275.9270 266.2797
f 634 635 636
v -2151.6044 1275.8826 268.6685
v -2162.2482 1276.2611 268.6648
v -2162.2536 1276.1081 268.5479
f 637 638 639
v -2151.6090 1275.7291 266.2816
v -2151.6098 1275.7296 268.5515
v -2157.1744 1275.9270 266.2797
f 640 641 642
v -2162.2536 1276.1081 268.5479
v -2157.1744 1275.9270 266.2797
v -2151.6098 1275.7296 268.5515
f 643 644 645
v -2157.1740 1275.9268 265.0868
v -2157.1744 1275.9270 266.2797
v -2162.2525 1276.1073 265.0850
f 646 647 648
v -2162.2536 1276.1081 268.5479
v -2162.2525 1276.1073 265.0850
v -2157.1744 1275.9270 266.2797
f 649 650 651
v -2151.6044 1275.8826 268.6685
v -2162.2407 1276.4522 268.7738
v -2162.2482 1276.2611 268.6648
f 652 653 654
v -2162.2407 1276.4522 268.7738
v -2151.6044 1275.8826 268.6685
v -2151.5979 1276.0736 268.7775
f 655 656 657
v -2162.2407 1276.4522 268.7738
v -2151.5979 1276.0736 268.7775
v -2151.5903 1276.3006 268.8764
f 658 659 660
v -2162.2235 1276.9391 268.9587
v -2151.5903 1276.3006 268.8764
v -2151.5807 1276.5596 268.9624
f 661 662 663
v -2151.5903 1276.3006 268.8764
v -2162.2235 1276.9391 268.9587
v -2162.2331 1276.6791 268.8728
f 664 665 666
v -2151.5807 1276.5596 268.9624
v -2162.2138 1277.2251 269.0316
v -2162.2235 1276.9391 268.9587
f 667 668 669
v -2162.2138 1277.2251 269.0316
v -2151.5807 1276.5596 268.9624
v -2151.5709 1276.8466 269.0353
f 670 671 672
v -2162.2029 1277.5341 269.0886
v -2151.5709 1276.8466 269.0353
v -2151.5591 1277.1556 269.0923
f 673 674 675
v -2151.5709 1276.8466 269.0353
v -2162.2029 1277.5341 269.0886
v -2162.2138 1277.2251 269.0316
f 676 677 678
v -2151.5483 1277.4826 269.1342
v -2162.1911 1277.8611 269.1305
v -2162.2029 1277.5341 269.0886
f 679 680 681
v -2162.2029 1277.5341 269.0886
v -2151.5591 1277.1556 269.0923
v -2151.5483 1277.4826 269.1342
f 682 683 684
v -2151.5363 1277.8205 269.1601
v -2162.1792 1278.1991 269.1565
v -2162.1911 1277.8611 269.1305
f 685 686 687
v -2162.1673 1278.5430 269.1654
v -2151.5363 1277.8205 269.1601
v -2151.5234 1278.1645 269.1691
f 688 689 690
v -2151.5363 1277.8205 269.1601
v -2162.1673 1278.5430 269.1654
v -2162.1792 1278.1991 269.1565
f 691 692 693
v -2151.5115 1278.5075 269.1600
v -2162.1543 1278.8870 269.1563
v -2162.1673 1278.5430 269.1654
f 694 695 696
v -2162.1673 1278.5430 269.1654
v -2151.5234 1278.1645 269.1691
v -2151.5115 1278.5075 269.1600
f 697 698 699
v -2151.5115 1278.5075 269.1600
v -2162.1424 1279.2250 269.1303
v -2162.1543 1278.8870 269.1563
f 700 701 702
v -2162.1424 1279.2250 269.1303
v -2151.5115 1278.5075 269.1600
v -2151.4996 1278.8464 269.1339
f 703 704 705
v -2162.1424 1279.2250 269.1303
v -2151.4996 1278.8464 269.1339
v -2151.4877 1279.1723 269.0919
f 706 707 708
v -2151.4877 1279.1723 269.0919
v -2162.1316 1279.5509 269.0882
v -2162.1424 1279.2250 269.1303
f 709 710 711
v -2151.4877 1279.1723 269.0919
v -2162.1197 1279.8598 269.0312
v -2162.1316 1279.5509 269.0882
f 712 713 714
v -2162.1197 1279.8598 269.0312
v -2151.4877 1279.1723 269.0919
v -2151.4769 1279.4813 269.0348
f 715 716 717
v -2151.4670 1279.7683 268.9618
v -2162.1099 1280.1468 268.9581
v -2162.1197 1279.8598 269.0312
f 718 719 720
v -2162.1099 1280.1468 268.9581
v -2151.4670 1279.7683 268.9618
v -2162.1002 1280.4057 268.8720
f 721 722 723
v -2162.1002 1280.4057 268.8720
v -2151.4574 1280.0272 268.8757
v -2151.4497 1280.2541 268.7767
f 724 725 726
v -2162.0860 1280.8246 268.6640
v -2151.4497 1280.2541 268.7767
v -2151.4422 1280.4451 268.6676
f 727 728 729
v -2151.4497 1280.2541 268.7767
v -2162.0860 1280.8246 268.6640
v -2162.0925 1280.6327 268.7730
f 730 731 732
v -2151.4422 1280.4451 268.6676
v -2162.0805 1280.9766 268.5469
v -2162.0860 1280.8246 268.6640
f 733 734 735
v -2162.0805 1280.9766 268.5469
v -2151.4422 1280.4451 268.6676
v -2151.4367 1280.5981 268.5506
f 736 737 738
v -2151.4334 1280.7090 268.4266
v -2162.0762 1281.0876 268.4229
v -2162.0805 1280.9766 268.5469
f 739 740 741
v -2162.0805 1280.9766 268.5469
v -2151.4367 1280.5981 268.5506
v -2151.4334 1280.7090 268.4266
f 742 743 744
v -2162.4852 1312.6115 252.1860
v -2153.9665 1312.1996 252.1889
v -2160.1105 1309.1882 252.1875
f 745 746 747
v -2160.1219 1308.6612 252.1876
v -2160.1105 1309.1882 252.1875
v -2153.9665 1312.1996 252.1889
f 748 749 750
v -2160.1105 1309.1882 252.1875
v -2162.6430 1309.3309 252.1866
v -2162.4852 1312.6115 252.1860
f 751 752 753
v -2171.4899 1288.4961 252.1878
v -2160.1219 1308.6612 252.1876
v -2172.0686 1276.2818 252.1901
f 754 755 756
v -2153.9665 1312.1996 252.1889
v -2155.3730 1275.4740 252.1959
v -2160.1219 1308.6612 252.1876
f 757 758 759
v -2169.2276 1309.0816 252.1844
v -2171.4899 1288.4961 252.1878
v -2170.7218 1304.1527 252.1849
f 760 761 762
v -2171.4899 1288.4961 252.1878
v -2169.2276 1309.0816 252.1844
v -2160.1219 1308.6612 252.1876
f 763 764 765
v -2172.0686 1276.2818 252.1901
v -2160.1219 1308.6612 252.1876
v -2155.3730 1275.4740 252.1959
f 766 767 768
v -2160.1105 1309.1882 252.1875
v -2160.1147 1309.1911 265.0791
v -2162.6472 1309.3339 265.0782
f 769 770 771
v -2170.7218 1304.1527 252.1849
v -2170.7260 1304.1557 265.0765
v -2169.2318 1309.0846 265.0760
f 772 773 774
v -2171.4899 1288.4961 252.1878
v -2171.4941 1288.4990 265.0794
v -2170.7260 1304.1557 265.0765
f 775 776 777
v -2172.0686 1276.2818 252.1901
v -2172.0728 1276.2848 265.0816
v -2171.4941 1288.4990 265.0794
f 778 779 780
v -2162.4852 1312.6115 252.1860
v -2162.4853 1312.6116 252.5050
v -2153.9666 1312.1997 252.5079
f 781 782 783
v -2150.2437 1304.0875 268.7382
v -2161.0144 1304.5134 268.7345
v -2161.0251 1304.2405 268.6276
f 784 785 786
v -2161.0026 1304.8164 268.8255
v -2150.2437 1304.0875 268.7382
v -2150.2320 1304.3895 268.8292
f 787 788 789
v -2150.2437 1304.0875 268.7382
v -2161.0026 1304.8164 268.8255
v -2161.0144 1304.5134 268.7345
f 790 791 792
v -2150.2320 1304.3895 268.8292
v -2160.9898 1305.1424 268.8984
v -2161.0026 1304.8164 268.8255
f 793 794 795
v -2160.9898 1305.1424 268.8984
v -2150.2320 1304.3895 268.8292
v -2150.2191 1304.7165 268.9021
f 796 797 798
v -2160.9759 1305.4874 268.9503
v -2150.2191 1304.7165 268.9021
v -2150.2052 1305.0604 268.9541
f 799 800 801
v -2150.2191 1304.7165 268.9021
v -2160.9759 1305.4874 268.9503
v -2160.9898 1305.1424 268.8984
f 802 803 804
v -2150.2052 1305.0604 268.9541
v -2160.9619 1305.8434 268.9823
v -2160.9759 1305.4874 268.9503
f 805 806 807
v -2160.9619 1305.8434 268.9823
v -2150.2052 1305.0604 268.9541
v -2150.1913 1305.4174 268.9860
f 808 809 810
v -2150.1773 1305.7804 268.9969
v -2160.9470 1306.2063 268.9932
v -2160.9619 1305.8434 268.9823
f 811 812 813
v -2160.9619 1305.8434 268.9823
v -2150.1913 1305.4174 268.9860
v -2150.1773 1305.7804 268.9969
f 814 815 816
v -2160.9470 1306.2063 268.9932
v -2150.1773 1305.7804 268.9969
v -2150.1623 1306.1434 268.9859
f 817 818 819
v -2150.1623 1306.1434 268.9859
v -2160.9330 1306.5693 268.9821
v -2160.9470 1306.2063 268.9932
f 820 821 822
v -2160.9190 1306.9262 268.9501
v -2150.1623 1306.1434 268.9859
v -2150.1483 1306.4993 268.9538
f 823 824 825
v -2150.1623 1306.1434 268.9859
v -2160.9190 1306.9262 268.9501
v -2160.9330 1306.5693 268.9821
f 826 827 828
v -2150.2789 1303.2115 268.2255
v -2161.0486 1303.6374 268.2218
v -2161.0539 1303.5204 268.0668
f 829 830 831
v -2161.0539 1303.5204 268.0668
v -2150.2831 1303.0945 268.0705
v -2150.2789 1303.2115 268.2255
f 832 833 834
v -2150.2725 1303.3725 268.3725
v -2161.0422 1303.7985 268.3687
v -2150.2789 1303.2115 268.2255
f 835 836 837
v -2161.0422 1303.7985 268.3687
v -2150.2725 1303.3725 268.3725
v -2150.2641 1303.5746 268.5084
f 838 839 840
v -2150.2641 1303.5746 268.5084
v -2161.0347 1304.0005 268.5046
v -2161.0422 1303.7985 268.3687
f 841 842 843
v -2161.0347 1304.0005 268.5046
v -2150.2641 1303.5746 268.5084
v -2161.0251 1304.2405 268.6276
f 844 845 846
v -2150.1483 1306.4993 268.9538
v -2160.9051 1307.2702 268.8980
v -2160.9190 1306.9262 268.9501
f 847 848 849
v -2160.9051 1307.2702 268.8980
v -2150.1483 1306.4993 268.9538
v -2150.1354 1306.8443 268.9017
f 850 851 852
v -2160.9051 1307.2702 268.8980
v -2150.1354 1306.8443 268.9017
v -2150.1225 1307.1701 268.8287
f 853 854 855
v -2160.8803 1307.8990 268.7339
v -2150.1225 1307.1701 268.8287
v -2150.1097 1307.4721 268.7376
f 856 857 858
v -2150.1225 1307.1701 268.8287
v -2160.8803 1307.8990 268.7339
v -2160.8922 1307.5961 268.8249
f 859 860 861
v -2150.1097 1307.4721 268.7376
v -2160.8696 1308.1719 268.6268
v -2160.8803 1307.8990 268.7339
f 862 863 864
v -2160.8696 1308.1719 268.6268
v -2150.1097 1307.4721 268.7376
v -2150.0989 1307.7460 268.6305
f 865 866 867
v -2160.8696 1308.1719 268.6268
v -2150.0989 1307.7460 268.6305
v -2160.8599 1308.4119 268.5038
f 868 869 870
v -2150.0816 1308.1879 268.3716
v -2160.8523 1308.6139 268.3678
v -2160.8599 1308.4119 268.5038
f 871 872 873
v -2160.8523 1308.6139 268.3678
v -2160.1271 1308.6649 268.2951
v -2160.8491 1308.6978 268.2908
f 874 875 876
v -2150.0751 1308.3489 268.2245
v -2160.1271 1308.6649 268.2951
v -2150.0816 1308.1879 268.3716
f 877 878 879
v -2160.8523 1308.6139 268.3678
v -2150.0816 1308.1879 268.3716
v -2160.1271 1308.6649 268.2951
f 880 881 882
v -2160.1249 1308.7459 268.2211
v -2160.1271 1308.6649 268.2951
v -2150.0751 1308.3489 268.2245
f 883 884 885
v -2160.1225 1308.8638 268.0660
v -2150.0751 1308.3489 268.2245
v -2150.0708 1308.4658 268.0695
f 886 887 888
v -2150.0751 1308.3489 268.2245
v -2160.1225 1308.8638 268.0660
v -2160.1249 1308.7459 268.2211
f 889 890 891
v -2150.2781 1303.0910 252.5100
v -2154.3096 1303.2508 252.5086
v -2150.1559 1306.1796 252.5094
f 892 893 894
v -2150.1559 1306.1796 252.5094
v -2154.3096 1303.2508 252.5086
v -2154.1032 1308.6221 252.5076
f 895 896 897
v -2150.0808 1308.0544 252.5091
v -2150.1301 1306.8335 252.5093
v -2154.1032 1308.6221 252.5076
f 898 899 900
v -2150.1301 1306.8335 252.5093
v -2150.1559 1306.1796 252.5094
v -2154.1032 1308.6221 252.5076
f 901 902 903
v -2150.0808 1308.0544 252.5091
v -2154.1032 1308.6221 252.5076
v -2150.0657 1308.4623 252.5090
f 904 905 906
v -2162.6502 1309.3668 277.4557
v -2119.2215 1307.2652 277.4707
v -2118.2655 1326.9904 277.4670
f 907 908 909
v -2118.2655 1326.9904 277.4670
v -2161.7013 1329.0929 277.4519
v -2162.6502 1309.3668 277.4557
f 910 911 912
v -2118.2576 1326.9846 252.5169
v -2118.2655 1326.9904 277.4670
v -2118.6811 1318.2834 259.1713
f 913 914 915
v -2119.2215 1307.2652 277.4707
v -2118.6811 1318.2834 259.1713
v -2118.2655 1326.9904 277.4670
f 916 917 918
v -2119.2135 1307.2595 252.5207
v -2118.2576 1326.9846 252.5169
v -2118.6792 1318.2821 253.4885
f 919 920 921
v -2118.6811 1318.2834 259.1713
v -2118.6792 1318.2821 253.4885
v -2118.2576 1326.9846 252.5169
f 922 923 924
v -2118.6811 1318.2834 259.1713
v -2119.2215 1307.2652 277.4707
v -2119.2156 1307.2610 259.1734
f 925 926 927
v -2118.6792 1318.2821 253.4885
v -2119.2138 1307.2597 253.4906
v -2119.2135 1307.2595 252.5207
f 928 929 930
v -2161.6931 1329.0871 252.5018
v -2161.7013 1329.0929 277.4519
v -2118.2655 1326.9904 277.4670
f 931 932 933
v -2162.4853 1312.6116 252.5050
v -2161.6931 1329.0871 252.5018
v -2153.9666 1312.1997 252.5079
f 934 935 936
v -2118.2576 1326.9846 252.5169
v -2153.9666 1312.1997 252.5079
v -2161.6931 1329.0871 252.5018
f 937 938 939
v -2154.0913 1308.9471 252.5086
v -2153.9666 1312.1997 252.5079
v -2119.2135 1307.2595 252.5207
f 940 941 942
v -2118.2576 1326.9846 252.5169
v -2119.2135 1307.2595 252.5207
v -2153.9666 1312.1997 252.5079
f 943 944 945
v -2117.3896 1302.1279 253.4012
v -2097.1554 1316.5064 253.4049
v -2097.8964 1301.1835 253.4078
f 946 947 948
v -2097.1554 1316.5064 253.4049
v -2117.3896 1302.1279 253.4012
v -2116.6485 1317.4506 253.3983
f 949 950 951
v -2097.1628 1316.5118 276.8801
v -2116.6559 1317.4561 276.8735
v -2117.3971 1302.1332 276.8764
f 952 953 954
v -2117.3971 1302.1332 276.8764
v -2097.9039 1301.1889 276.8830
v -2097.1628 1316.5118 276.8801
f 955 956 957
v -2097.8964 1301.1835 253.4078
v -2097.9039 1301.1889 276.8830
v -2117.3971 1302.1332 276.8764
f 958 959 960
v -2116.6505 1317.4521 259.7991
v -2116.6559 1317.4561 276.8735
v -2097.1628 1316.5118 276.8801
f 961 962 963
v -2117.1479 1307.1605 259.1741
v -2117.3971 1302.1332 276.8764
v -2116.8464 1313.4127 259.7999
f 964 965 966
v -2116.6559 1317.4561 276.8735
v -2116.8464 1313.4127 259.7999
v -2117.3971 1302.1332 276.8764
f 967 968 969
v -2116.8462 1313.4126 259.1729
v -2117.1479 1307.1605 259.1741
v -2116.8464 1313.4127 259.7999
f 970 971 972
v -2117.3896 1302.1279 253.4012
v -2117.3971 1302.1332 276.8764
v -2117.1479 1307.1605 259.1741
f 973 974 975
v -2117.3896 1302.1279 253.4012
v -2117.1479 1307.1605 259.1741
v -2117.1461 1307.1592 253.4913
f 976 977 978
v -2116.8443 1313.4113 253.4221
v -2117.3896 1302.1279 253.4012
v -2117.1461 1307.1592 253.4913
f 979 980 981
v -2116.6559 1317.4561 276.8735
v -2116.6505 1317.4521 259.7991
v -2116.8464 1313.4127 259.7999
f 982 983 984
v -2116.6485 1317.4506 253.3983
v -2116.8443 1313.4113 253.4221
v -2116.6485 1317.4506 253.4213
f 985 986 987
v -2117.3896 1302.1279 253.4012
v -2116.8443 1313.4113 253.4221
v -2116.6485 1317.4506 253.3983
f 988 989 990
v -2117.1461 1307.1592 253.4913
v -2116.8443 1313.4113 253.4901
v -2116.8443 1313.4113 253.4221
f 991 992 993
v -2118.3593 1318.2662 253.4886
v -2118.3611 1318.2675 259.1714
v -2118.4417 1317.2897 259.1716
f 994 995 996
v -2115.9794 1327.5397 253.4194
v -2115.9814 1327.5411 259.7972
v -2096.6673 1326.6133 259.8038
f 997 998 999
v -2116.3752 1320.1478 253.4208
v -2116.3772 1320.1493 259.7986
v -2115.9814 1327.5411 259.7972
f 1000 1001 1002
v -2116.6833 1317.5087 253.4213
v -2116.6854 1317.5102 259.7991
v -2116.3752 1320.1478 253.4208
f 1003 1004 1005
v -2116.6485 1317.4506 253.3983
v -2116.6485 1317.4506 253.4213
v -2097.1554 1316.5064 253.4049
f 1006 1007 1008
v -2116.6485 1317.4506 253.4213
v -2116.3752 1320.1478 253.4208
v -2097.1543 1316.5064 253.4279
f 1009 1010 1011
v -2115.9794 1327.5397 253.4194
v -2096.6653 1326.6118 253.4260
v -2116.3752 1320.1478 253.4208
f 1012 1013 1014
v -2097.1543 1316.5064 253.4279
v -2116.3752 1320.1478 253.4208
v -2096.6653 1326.6118 253.4260
f 1015 1016 1017
v -2117.2215 1317.4411 253.4211
v -2116.8443 1313.4113 253.4221
v -2117.4153 1313.4387 253.4219
f 1018 1019 1020
v -2116.6833 1317.5087 253.4213
v -2116.6485 1317.4506 253.4213
v -2117.2215 1317.4411 253.4211
f 1021 1022 1023
v -2116.8443 1313.4113 253.4221
v -2117.2215 1317.4411 253.4211
v -2116.6485 1317.4506 253.4213
f 1024 1025 1026
v -2116.3752 1320.1478 253.4208
v -2116.6485 1317.4506 253.4213
v -2116.6833 1317.5087 253.4213
f 1027 1028 1029
v -2116.3772 1320.1493 259.7986
v -2096.6673 1326.6133 259.8038
v -2115.9814 1327.5411 259.7972
f 1030 1031 1032
v -2116.6505 1317.4521 259.7991
v -2097.1563 1316.5078 259.8057
v -2096.6673 1326.6133 259.8038
f 1033 1034 1035
v -2116.3772 1320.1493 259.7986
v -2116.6505 1317.4521 259.7991
v -2096.6673 1326.6133 259.8038
f 1036 1037 1038
v -2117.2235 1317.4426 259.7989
v -2116.6505 1317.4521 259.7991
v -2116.6854 1317.5102 259.7991
f 1039 1040 1041
v -2116.3772 1320.1493 259.7986
v -2116.6854 1317.5102 259.7991
v -2116.6505 1317.4521 259.7991
f 1042 1043 1044
v -2117.4173 1313.4402 259.7997
v -2116.8464 1313.4127 259.7999
v -2117.2235 1317.4426 259.7989
f 1045 1046 1047
v -2116.6505 1317.4521 259.7991
v -2117.2235 1317.4426 259.7989
v -2116.8464 1313.4127 259.7999
f 1048 1049 1050
v -2117.4171 1313.4401 259.1727
v -2117.4173 1313.4402 259.7997
v -2117.2235 1317.4426 259.7989
f 1051 1052 1053
v -2117.4153 1313.4387 253.4219
v -2117.4153 1313.4387 253.4899
v -2117.2215 1317.4411 253.4211
f 1054 1055 1056
v -2116.8443 1313.4113 253.4221
v -2116.8443 1313.4113 253.4901
v -2117.4153 1313.4387 253.4899
f 1057 1058 1059
v -2116.8462 1313.4126 259.1729
v -2116.8464 1313.4127 259.7999
v -2117.4173 1313.4402 259.7997
f 1060 1061 1062
v -2118.6792 1318.2821 253.4885
v -2118.6811 1318.2834 259.1713
v -2118.3611 1318.2675 259.1714
f 1063 1064 1065
v -2119.2138 1307.2597 253.4906
v -2118.6792 1318.2821 253.4885
v -2118.4399 1317.2885 253.4888
f 1066 1067 1068
v -2118.3593 1318.2662 253.4886
v -2118.4399 1317.2885 253.4888
v -2118.6792 1318.2821 253.4885
f 1069 1070 1071
v -2118.4399 1317.2885 253.4888
v -2117.2215 1317.4411 253.4891
v -2117.4153 1313.4387 253.4899
f 1072 1073 1074
v -2117.4153 1313.4387 253.4899
v -2116.8443 1313.4113 253.4901
v -2117.1461 1307.1592 253.4913
f 1075 1076 1077
v -2118.4399 1317.2885 253.4888
v -2117.4153 1313.4387 253.4899
v -2119.2138 1307.2597 253.4906
f 1078 1079 1080
v -2117.1461 1307.1592 253.4913
v -2119.2138 1307.2597 253.4906
v -2117.4153 1313.4387 253.4899
f 1081 1082 1083
v -2117.4171 1313.4401 259.1727
v -2117.1479 1307.1605 259.1741
v -2116.8462 1313.4126 259.1729
f 1084 1085 1086
v -2118.4417 1317.2897 259.1716
v -2119.2156 1307.2610 259.1734
v -2117.4171 1313.4401 259.1727
f 1087 1088 1089
v -2117.1479 1307.1605 259.1741
v -2117.4171 1313.4401 259.1727
v -2119.2156 1307.2610 259.1734
f 1090 1091 1092
v -2119.2156 1307.2610 259.1734
v -2118.4417 1317.2897 259.1716
v -2118.6811 1318.2834 259.1713
f 1093 1094 1095
v -2118.3611 1318.2675 259.1714
v -2118.6811 1318.2834 259.1713
v -2118.4417 1317.2897 259.1716
f 1096 1097 1098
v -2117.4171 1313.4401 259.1727
v -2117.2233 1317.4425 259.1719
v -2118.4417 1317.2897 259.1716
f 1099 1100 1101
v -2151.0502 1288.2609 268.6452
v -2161.6918 1288.7115 268.6415
v -2161.6992 1288.5444 268.4865
f 1102 1103 1104
v -2161.6992 1288.5444 268.4865
v -2151.0565 1288.0939 268.4902
v -2151.0502 1288.2609 268.6452
f 1105 1106 1107
v -2161.6918 1288.7115 268.6415
v -2151.0502 1288.2609 268.6452
v -2151.0396 1288.4900 268.7912
f 1108 1109 1110
v -2151.0396 1288.4900 268.7912
v -2161.6822 1288.9405 268.7875
v -2161.6918 1288.7115 268.6415
f 1111 1112 1113
v -2151.0279 1288.7780 268.9271
v -2161.6695 1289.2295 268.9234
v -2161.6822 1288.9405 268.7875
f 1114 1115 1116
v -2161.6822 1288.9405 268.7875
v -2151.0396 1288.4900 268.7912
v -2151.0279 1288.7780 268.9271
f 1117 1118 1119
v -2161.6695 1289.2295 268.9234
v -2151.0279 1288.7780 268.9271
v -2151.0130 1289.1199 269.0500
f 1120 1121 1122
v -2151.0130 1289.1199 269.0500
v -2161.6556 1289.5714 269.0463
v -2161.6695 1289.2295 268.9234
f 1123 1124 1125
v -2156.2032 1295.9838 265.0831
v -2156.2036 1295.9841 266.2760
v -2155.8490 1303.3140 266.2746
f 1126 1127 1128
v -2155.5722 1309.0220 265.0806
v -2155.5881 1308.6840 265.0807
v -2155.5885 1308.6842 266.2736
f 1129 1130 1131
v -2156.9337 1280.9040 265.0859
v -2156.9341 1280.9043 266.2788
v -2156.5741 1288.3272 266.2774
f 1132 1133 1134
v -2162.0751 1281.0868 265.0841
v -2162.0762 1281.0876 268.4229
v -2156.9341 1280.9043 266.2788
f 1135 1136 1137
v -2151.4334 1280.7090 268.4266
v -2156.9341 1280.9043 266.2788
v -2162.0762 1281.0876 268.4229
f 1138 1139 1140
v -2156.9337 1280.9040 265.0859
v -2162.0751 1281.0868 265.0841
v -2156.9341 1280.9043 266.2788
f 1141 1142 1143
v -2151.4334 1280.7090 268.4266
v -2151.4327 1280.7086 266.2807
v -2156.9341 1280.9043 266.2788
f 1144 1145 1146
v -2160.1147 1309.1911 265.0791
v -2160.1216 1308.8632 265.0791
v -2155.5722 1309.0220 265.0806
f 1147 1148 1149
v -2155.5881 1308.6840 265.0807
v -2155.5722 1309.0220 265.0806
v -2160.1216 1308.8632 265.0791
f 1150 1151 1152
v -2160.1147 1309.1911 265.0791
v -2162.6462 1309.3639 265.0782
v -2162.6472 1309.3339 265.0782
f 1153 1154 1155
v -2155.5722 1309.0220 265.0806
v -2162.6462 1309.3639 265.0782
v -2160.1147 1309.1911 265.0791
f 1156 1157 1158
v -2150.2781 1303.0910 252.5100
v -2150.2783 1303.0911 252.9410
v -2154.3098 1303.2509 252.9396
f 1159 1160 1161
v -2150.2826 1303.0941 266.2765
v -2150.2831 1303.0945 268.0705
v -2155.8490 1303.3140 266.2746
f 1162 1163 1164
v -2161.0539 1303.5204 268.0668
v -2155.8490 1303.3140 266.2746
v -2150.2831 1303.0945 268.0705
f 1165 1166 1167
v -2155.8486 1303.3138 265.0817
v -2155.8490 1303.3140 266.2746
v -2161.0529 1303.5197 265.0799
f 1168 1169 1170
v -2161.0539 1303.5204 268.0668
v -2161.0529 1303.5197 265.0799
v -2155.8490 1303.3140 266.2746
f 1171 1172 1173
v -2155.5881 1308.6840 265.0807
v -2160.1216 1308.8632 265.0791
v -2155.5885 1308.6842 266.2736
f 1174 1175 1176
v -2160.1225 1308.8638 268.0660
v -2155.5885 1308.6842 266.2736
v -2160.1216 1308.8632 265.0791
f 1177 1178 1179
v -2150.0701 1308.4655 266.2755
v -2155.5885 1308.6842 266.2736
v -2150.0708 1308.4658 268.0695
f 1180 1181 1182
v -2160.1225 1308.8638 268.0660
v -2150.0708 1308.4658 268.0695
v -2155.5885 1308.6842 266.2736
f 1183 1184 1185
v -2154.1032 1308.6221 252.5076
v -2154.1033 1308.6222 252.9386
v -2150.0659 1308.4624 252.9400
f 1186 1187 1188
v -2154.0913 1308.9471 252.5086
v -2154.0915 1308.9472 252.9386
v -2154.1033 1308.6222 252.9386
f 1189 1190 1191
v -2154.0913 1308.9471 252.5086
v -2153.9665 1312.1996 252.1889
v -2153.9666 1312.1997 252.5079
f 1192 1193 1194
v -2154.3096 1303.2508 252.5086
v -2154.3098 1303.2509 252.9396
v -2154.5905 1295.9137 252.9410
f 1195 1196 1197
v -2153.9665 1312.1996 252.1889
v -2154.1032 1308.6221 252.5076
v -2154.3096 1303.2508 252.5086
f 1198 1199 1200
v -2154.3096 1303.2508 252.5086
v -2154.5905 1295.9137 252.9410
v -2154.5903 1295.9136 252.3750
f 1201 1202 1203
v -2154.1032 1308.6221 252.5076
v -2153.9665 1312.1996 252.1889
v -2154.0913 1308.9471 252.5086
f 1204 1205 1206
v -2154.8839 1288.2526 252.3765
v -2153.9665 1312.1996 252.1889
v -2154.5903 1295.9136 252.3750
f 1207 1208 1209
v -2154.3096 1303.2508 252.5086
v -2154.5903 1295.9136 252.3750
v -2153.9665 1312.1996 252.1889
f 1210 1211 1212
v -2155.3730 1275.4740 252.1959
v -2153.9665 1312.1996 252.1889
v -2154.8839 1288.2526 252.3765
f 1213 1214 1215
v -2154.8839 1288.2526 252.3765
v -2154.8841 1288.2527 252.9425
v -2155.3733 1275.4732 252.9449
f 1216 1217 1218
v -2155.3733 1275.4732 252.9449
v -2155.3730 1275.4740 252.1959
v -2154.8839 1288.2526 252.3765
f 1219 1220 1221
v -2157.1740 1275.9268 265.0868
v -2162.2525 1276.1073 265.0850
v -2157.1920 1275.5638 265.0869
f 1222 1223 1224
v -2172.0728 1276.2848 265.0816
v -2162.2525 1276.1073 265.0850
v -2162.2395 1276.4513 265.0850
f 1225 1226 1227
v -2162.2319 1276.6783 265.0850
v -2172.0728 1276.2848 265.0816
v -2162.2395 1276.4513 265.0850
f 1228 1229 1230
v -2161.6981 1288.5437 265.0827
v -2156.9337 1280.9040 265.0859
v -2156.5738 1288.3269 265.0845
f 1231 1232 1233
v -2172.0728 1276.2848 265.0816
v -2157.1920 1275.5638 265.0869
v -2162.2525 1276.1073 265.0850
f 1234 1235 1236
v -2161.6372 1289.9596 265.0825
v -2171.4941 1288.4990 265.0794
v -2161.6543 1289.5705 265.0826
f 1237 1238 1239
v -2161.6191 1290.3914 265.0824
v -2161.5999 1290.8564 265.0823
v -2171.4941 1288.4990 265.0794
f 1240 1241 1242
v -2161.6372 1289.9596 265.0825
v -2161.6191 1290.3914 265.0824
v -2171.4941 1288.4990 265.0794
f 1243 1244 1245
v -2161.6682 1289.2346 265.0826
v -2171.4941 1288.4990 265.0794
v -2161.6981 1288.5437 265.0827
f 1246 1247 1248
v -2171.4941 1288.4990 265.0794
v -2161.6682 1289.2346 265.0826
v -2161.6543 1289.5705 265.0826
f 1249 1250 1251
v -2156.9337 1280.9040 265.0859
v -2161.6981 1288.5437 265.0827
v -2162.0751 1281.0868 265.0841
f 1252 1253 1254
v -2161.5753 1291.4323 265.0822
v -2171.4941 1288.4990 265.0794
v -2161.5999 1290.8564 265.0823
f 1255 1256 1257
v -2172.0728 1276.2848 265.0816
v -2162.2222 1276.9383 265.0849
v -2162.2039 1277.4572 265.0848
f 1258 1259 1260
v -2172.0728 1276.2848 265.0816
v -2162.2039 1277.4572 265.0848
v -2162.1876 1277.9312 265.0847
f 1261 1262 1263
v -2162.1659 1278.5421 265.0846
v -2172.0728 1276.2848 265.0816
v -2162.1876 1277.9312 265.0847
f 1264 1265 1266
v -2172.0728 1276.2848 265.0816
v -2162.1530 1278.8861 265.0845
v -2162.1411 1279.2241 265.0845
f 1267 1268 1269
v -2162.1659 1278.5421 265.0846
v -2162.1530 1278.8861 265.0845
v -2172.0728 1276.2848 265.0816
f 1270 1271 1272
v -2162.1302 1279.5499 265.0844
v -2172.0728 1276.2848 265.0816
v -2162.1411 1279.2241 265.0845
f 1273 1274 1275
v -2162.2319 1276.6783 265.0850
v -2162.2222 1276.9383 265.0849
v -2172.0728 1276.2848 265.0816
f 1276 1277 1278
v -2172.0728 1276.2848 265.0816
v -2162.1184 1279.8589 265.0844
v -2162.1086 1280.1459 265.0843
f 1279 1280 1281
v -2172.0728 1276.2848 265.0816
v -2162.1086 1280.1459 265.0843
v -2162.0990 1280.3999 265.0842
f 1282 1283 1284
v -2162.0848 1280.8239 265.0842
v -2162.0751 1281.0868 265.0841
v -2172.0728 1276.2848 265.0816
f 1285 1286 1287
v -2172.0728 1276.2848 265.0816
v -2162.0751 1281.0868 265.0841
v -2171.4941 1288.4990 265.0794
f 1288 1289 1290
v -2161.6981 1288.5437 265.0827
v -2171.4941 1288.4990 265.0794
v -2162.0751 1281.0868 265.0841
f 1291 1292 1293
v -2162.0848 1280.8239 265.0842
v -2172.0728 1276.2848 265.0816
v -2162.0990 1280.3999 265.0842
f 1294 1295 1296
v -2162.1302 1279.5499 265.0844
v -2162.1184 1279.8589 265.0844
v -2172.0728 1276.2848 265.0816
f 1297 1298 1299
v -2156.2032 1295.9838 265.0831
v -2155.8486 1303.3138 265.0817
v -2161.0529 1303.5197 265.0799
f 1300 1301 1302
v -2160.9468 1306.1844 265.0794
v -2169.2318 1309.0846 265.0760
v -2160.9907 1305.0805 265.0796
f 1303 1304 1305
v -2160.9907 1305.0805 265.0796
v -2169.2318 1309.0846 265.0760
v -2161.0486 1303.6227 265.0799
f 1306 1307 1308
v -2160.8480 1308.6971 265.0789
v -2169.2318 1309.0846 265.0760
v -2160.8588 1308.4152 265.0790
f 1309 1310 1311
v -2169.2318 1309.0846 265.0760
v -2160.9156 1306.9713 265.0793
v -2160.8588 1308.4152 265.0790
f 1312 1313 1314
v -2169.2318 1309.0846 265.0760
v -2160.9468 1306.1844 265.0794
v -2160.9156 1306.9713 265.0793
f 1315 1316 1317
v -2171.4941 1288.4990 265.0794
v -2161.4515 1294.3559 265.0816
v -2161.4333 1294.7868 265.0816
f 1318 1319 1320
v -2161.4163 1295.1769 265.0815
v -2161.4023 1295.5188 265.0814
v -2171.4941 1288.4990 265.0794
f 1321 1322 1323
v -2161.4163 1295.1769 265.0815
v -2171.4941 1288.4990 265.0794
v -2161.4333 1294.7868 265.0816
f 1324 1325 1326
v -2161.5358 1292.3731 265.0820
v -2161.5135 1292.8912 265.0819
v -2171.4941 1288.4990 265.0794
f 1327 1328 1329
v -2171.4941 1288.4990 265.0794
v -2161.4707 1293.8910 265.0817
v -2161.4515 1294.3559 265.0816
f 1330 1331 1332
v -2161.5135 1292.8912 265.0819
v -2161.4920 1293.4000 265.0818
v -2171.4941 1288.4990 265.0794
f 1333 1334 1335
v -2161.4707 1293.8910 265.0817
v -2171.4941 1288.4990 265.0794
v -2161.4920 1293.4000 265.0818
f 1336 1337 1338
v -2170.7260 1304.1557 265.0765
v -2171.4941 1288.4990 265.0794
v -2161.4023 1295.5188 265.0814
f 1339 1340 1341
v -2161.0486 1303.6227 265.0799
v -2169.2318 1309.0846 265.0760
v -2161.0529 1303.5197 265.0799
f 1342 1343 1344
v -2161.0529 1303.5197 265.0799
v -2161.3736 1296.2037 265.0813
v -2156.2032 1295.9838 265.0831
f 1345 1346 1347
v -2161.3736 1296.2037 265.0813
v -2161.0529 1303.5197 265.0799
v -2170.7260 1304.1557 265.0765
f 1348 1349 1350
v -2169.2318 1309.0846 265.0760
v -2170.7260 1304.1557 265.0765
v -2161.0529 1303.5197 265.0799
f 1351 1352 1353
v -2161.3842 1295.9417 265.0813
v -2161.3736 1296.2037 265.0813
v -2170.7260 1304.1557 265.0765
f 1354 1355 1356
v -2161.4023 1295.5188 265.0814
v -2161.3842 1295.9417 265.0813
v -2170.7260 1304.1557 265.0765
f 1357 1358 1359
v -2161.5753 1291.4323 265.0822
v -2161.5358 1292.3731 265.0820
v -2171.4941 1288.4990 265.0794
f 1360 1361 1362
v -2151.0559 1288.0934 266.2793
v -2151.0565 1288.0939 268.4902
v -2156.5741 1288.3272 266.2774
f 1363 1364 1365
v -2161.6992 1288.5444 268.4865
v -2156.5741 1288.3272 266.2774
v -2151.0565 1288.0939 268.4902
f 1366 1367 1368
v -2156.5738 1288.3269 265.0845
v -2156.5741 1288.3272 266.2774
v -2161.6981 1288.5437 265.0827
f 1369 1370 1371
v -2161.6992 1288.5444 268.4865
v -2161.6981 1288.5437 265.0827
v -2156.5741 1288.3272 266.2774
f 1372 1373 1374
v -2151.0513 1288.0903 252.3778
v -2151.0515 1288.0904 252.9438
v -2154.8841 1288.2527 252.9425
f 1375 1376 1377
v -2151.0130 1289.1199 269.0500
v -2161.6386 1289.9604 269.1543
v -2161.6556 1289.5714 269.0463
f 1378 1379 1380
v -2161.6386 1289.9604 269.1543
v -2151.0130 1289.1199 269.0500
v -2150.9970 1289.5098 269.1580
f 1381 1382 1383
v -2150.9789 1289.9418 269.2489
v -2161.6205 1290.3923 269.2452
v -2161.6386 1289.9604 269.1543
f 1384 1385 1386
v -2161.6205 1290.3923 269.2452
v -2150.9789 1289.9418 269.2489
v -2150.9586 1290.4068 269.3218
f 1387 1388 1389
v -2150.9586 1290.4068 269.3218
v -2161.6012 1290.8573 269.3181
v -2161.6205 1290.3923 269.2452
f 1390 1391 1392
v -2150.9384 1290.8978 269.3737
v -2161.5800 1291.3483 269.3700
v -2161.6012 1290.8573 269.3181
f 1393 1394 1395
v -2161.6012 1290.8573 269.3181
v -2150.9586 1290.4068 269.3218
v -2150.9384 1290.8978 269.3737
f 1396 1397 1398
v -2150.9170 1291.4067 269.4056
v -2161.5586 1291.8572 269.4019
v -2161.5800 1291.3483 269.3700
f 1399 1400 1401
v -2161.5586 1291.8572 269.4019
v -2150.9170 1291.4067 269.4056
v -2150.8946 1291.9236 269.4165
f 1402 1403 1404
v -2150.8946 1291.9236 269.4165
v -2161.5372 1292.3741 269.4128
v -2161.5586 1291.8572 269.4019
f 1405 1406 1407
v -2150.8732 1292.4416 269.4054
v -2161.5148 1292.8921 269.4017
v -2161.5372 1292.3741 269.4128
f 1408 1409 1410
v -2161.5372 1292.3741 269.4128
v -2150.8946 1291.9236 269.4165
v -2150.8732 1292.4416 269.4054
f 1411 1412 1413
v -2161.5148 1292.8921 269.4017
v -2150.8732 1292.4416 269.4054
v -2150.8519 1292.9505 269.3733
f 1414 1415 1416
v -2150.8305 1293.4414 269.3212
v -2161.4721 1293.8920 269.3175
v -2150.8519 1292.9505 269.3733
f 1417 1418 1419
v -2150.8112 1293.9063 269.2481
v -2161.4528 1294.3569 269.2444
v -2161.4721 1293.8920 269.3175
f 1420 1421 1422
v -2161.4346 1294.7878 269.1534
v -2150.8112 1293.9063 269.2481
v -2150.7920 1294.3372 269.1570
f 1423 1424 1425
v -2150.8112 1293.9063 269.2481
v -2161.4346 1294.7878 269.1534
v -2161.4528 1294.3569 269.2444
f 1426 1427 1428
v -2150.7760 1294.7271 269.0490
v -2161.4176 1295.1777 269.0453
v -2161.4346 1294.7878 269.1534
f 1429 1430 1431
v -2161.4346 1294.7878 269.1534
v -2150.7920 1294.3372 269.1570
v -2150.7760 1294.7271 269.0490
f 1432 1433 1434
v -2161.4176 1295.1777 269.0453
v -2150.7760 1294.7271 269.0490
v -2150.7610 1295.0691 268.9259
f 1435 1436 1437
v -2150.7610 1295.0691 268.9259
v -2161.4036 1295.5197 268.9222
v -2161.4176 1295.1777 269.0453
f 1438 1439 1440
v -2150.7491 1295.3570 268.7899
v -2161.3908 1295.8086 268.7862
v -2161.4036 1295.5197 268.9222
f 1441 1442 1443
v -2161.4036 1295.5197 268.9222
v -2150.7610 1295.0691 268.9259
v -2150.7491 1295.3570 268.7899
f 1444 1445 1446
v -2150.7491 1295.3570 268.7899
v -2161.3811 1296.0375 268.6401
v -2161.3908 1295.8086 268.7862
f 1447 1448 1449
v -2161.3811 1296.0375 268.6401
v -2150.7491 1295.3570 268.7899
v -2150.7395 1295.5869 268.6438
f 1450 1451 1452
v -2161.3746 1296.2045 268.4851
v -2150.7395 1295.5869 268.6438
v -2150.7320 1295.7529 268.4888
f 1453 1454 1455
v -2150.7395 1295.5869 268.6438
v -2161.3746 1296.2045 268.4851
v -2161.3811 1296.0375 268.6401
f 1456 1457 1458
v -2161.3736 1296.2037 265.0813
v -2161.3746 1296.2045 268.4851
v -2156.2036 1295.9841 266.2760
f 1459 1460 1461
v -2150.7320 1295.7529 268.4888
v -2156.2036 1295.9841 266.2760
v -2161.3746 1296.2045 268.4851
f 1462 1463 1464
v -2156.2032 1295.9838 265.0831
v -2161.3736 1296.2037 265.0813
v -2156.2036 1295.9841 266.2760
f 1465 1466 1467
v -2150.7320 1295.7529 268.4888
v -2150.7313 1295.7525 266.2779
v -2156.2036 1295.9841 266.2760
f 1468 1469 1470
v -2154.5903 1295.9136 252.3750
v -2154.5905 1295.9137 252.9410
v -2150.7270 1295.7494 252.9424
f 1471 1472 1473
v -2155.3733 1275.4732 252.9449
v -2141.8133 1274.8168 252.9496
v -2141.8176 1274.8199 266.2851
f 1474 1475 1476
v -2172.0686 1276.2818 252.1901
v -2155.3730 1275.4740 252.1959
v -2155.3733 1275.4732 252.9449
f 1477 1478 1479
v -2155.3733 1275.4732 252.9449
v -2141.8176 1274.8199 266.2851
v -2157.1920 1275.5638 265.0869
f 1480 1481 1482
v -2141.8176 1274.8199 266.2851
v -2157.1924 1275.5641 266.2798
v -2157.1920 1275.5638 265.0869
f 1483 1484 1485
v -2157.1920 1275.5638 265.0869
v -2172.0728 1276.2848 265.0816
v -2172.0686 1276.2818 252.1901
f 1486 1487 1488
v -2155.3733 1275.4732 252.9449
v -2157.1920 1275.5638 265.0869
v -2172.0686 1276.2818 252.1901
f 1489 1490 1491
v -2162.1659 1278.5421 265.0846
v -2162.1792 1278.1991 269.1565
v -2162.1673 1278.5430 269.1654
f 1492 1493 1494
v -2162.1876 1277.9312 265.0847
v -2162.1911 1277.8611 269.1305
v -2162.1792 1278.1991 269.1565
f 1495 1496 1497
v -2162.2029 1277.5341 269.0886
v -2162.1911 1277.8611 269.1305
v -2162.1876 1277.9312 265.0847
f 1498 1499 1500
v -2162.1659 1278.5421 265.0846
v -2162.1673 1278.5430 269.1654
v -2162.1543 1278.8870 269.1563
f 1501 1502 1503
v -2162.1302 1279.5499 265.0844
v -2162.1099 1280.1468 268.9581
v -2162.1002 1280.4057 268.8720
f 1504 1505 1506
v -2162.1316 1279.5509 269.0882
v -2162.1197 1279.8598 269.0312
v -2162.1411 1279.2241 265.0845
f 1507 1508 1509
v -2162.1316 1279.5509 269.0882
v -2162.1411 1279.2241 265.0845
v -2162.1424 1279.2250 269.1303
f 1510 1511 1512
v -2162.1530 1278.8861 265.0845
v -2162.1543 1278.8870 269.1563
v -2162.1424 1279.2250 269.1303
f 1513 1514 1515
v -2162.1197 1279.8598 269.0312
v -2162.1099 1280.1468 268.9581
v -2162.1302 1279.5499 265.0844
f 1516 1517 1518
v -2162.2319 1276.6783 265.0850
v -2162.2395 1276.4513 265.0850
v -2162.2536 1276.1081 268.5479
f 1519 1520 1521
v -2162.2407 1276.4522 268.7738
v -2162.2536 1276.1081 268.5479
v -2162.2482 1276.2611 268.6648
f 1522 1523 1524
v -2162.2331 1276.6791 268.8728
v -2162.2536 1276.1081 268.5479
v -2162.2407 1276.4522 268.7738
f 1525 1526 1527
v -2162.2331 1276.6791 268.8728
v -2162.2039 1277.4572 265.0848
v -2162.2536 1276.1081 268.5479
f 1528 1529 1530
v -2162.2138 1277.2251 269.0316
v -2162.2039 1277.4572 265.0848
v -2162.2235 1276.9391 268.9587
f 1531 1532 1533
v -2162.2525 1276.1073 265.0850
v -2162.2536 1276.1081 268.5479
v -2162.2395 1276.4513 265.0850
f 1534 1535 1536
v -2162.2029 1277.5341 269.0886
v -2162.1876 1277.9312 265.0847
v -2162.2138 1277.2251 269.0316
f 1537 1538 1539
v -2162.2235 1276.9391 268.9587
v -2162.2039 1277.4572 265.0848
v -2162.2331 1276.6791 268.8728
f 1540 1541 1542
v -2162.0925 1280.6327 268.7730
v -2162.0762 1281.0876 268.4229
v -2162.1002 1280.4057 268.8720
f 1543 1544 1545
v -2162.0860 1280.8246 268.6640
v -2162.0805 1280.9766 268.5469
v -2162.0762 1281.0876 268.4229
f 1546 1547 1548
v -2162.1002 1280.4057 268.8720
v -2162.0762 1281.0876 268.4229
v -2162.1302 1279.5499 265.0844
f 1549 1550 1551
v -2162.1086 1280.1459 265.0843
v -2162.1184 1279.8589 265.0844
v -2162.0762 1281.0876 268.4229
f 1552 1553 1554
v -2162.1184 1279.8589 265.0844
v -2162.1302 1279.5499 265.0844
v -2162.0762 1281.0876 268.4229
f 1555 1556 1557
v -2162.1086 1280.1459 265.0843
v -2162.0762 1281.0876 268.4229
v -2162.0990 1280.3999 265.0842
f 1558 1559 1560
v -2162.0762 1281.0876 268.4229
v -2162.0751 1281.0868 265.0841
v -2162.0848 1280.8239 265.0842
f 1561 1562 1563
v -2162.0848 1280.8239 265.0842
v -2162.0990 1280.3999 265.0842
v -2162.0762 1281.0876 268.4229
f 1564 1565 1566
v -2162.2536 1276.1081 268.5479
v -2162.2222 1276.9383 265.0849
v -2162.2319 1276.6783 265.0850
f 1567 1568 1569
v -2162.2536 1276.1081 268.5479
v -2162.2039 1277.4572 265.0848
v -2162.2222 1276.9383 265.0849
f 1570 1571 1572
v -2162.2138 1277.2251 269.0316
v -2162.1876 1277.9312 265.0847
v -2162.2039 1277.4572 265.0848
f 1573 1574 1575
v -2162.1411 1279.2241 265.0845
v -2162.1530 1278.8861 265.0845
v -2162.1424 1279.2250 269.1303
f 1576 1577 1578
v -2162.1659 1278.5421 265.0846
v -2162.1543 1278.8870 269.1563
v -2162.1530 1278.8861 265.0845
f 1579 1580 1581
v -2162.1197 1279.8598 269.0312
v -2162.1302 1279.5499 265.0844
v -2162.1411 1279.2241 265.0845
f 1582 1583 1584
v -2162.1792 1278.1991 269.1565
v -2162.1659 1278.5421 265.0846
v -2162.1876 1277.9312 265.0847
f 1585 1586 1587
v -2162.0860 1280.8246 268.6640
v -2162.0762 1281.0876 268.4229
v -2162.0925 1280.6327 268.7730
f 1588 1589 1590
v -2162.4853 1312.6116 252.5050
v -2162.6430 1309.3309 252.1866
v -2162.6462 1309.3639 265.0782
f 1591 1592 1593
v -2162.6472 1309.3339 265.0782
v -2162.6462 1309.3639 265.0782
v -2162.6430 1309.3309 252.1866
f 1594 1595 1596
v -2162.6462 1309.3639 265.0782
v -2162.6502 1309.3668 277.4557
v -2161.7013 1329.0929 277.4519
f 1597 1598 1599
v -2162.4853 1312.6116 252.5050
v -2162.6462 1309.3639 265.0782
v -2161.6931 1329.0871 252.5018
f 1600 1601 1602
v -2161.7013 1329.0929 277.4519
v -2161.6931 1329.0871 252.5018
v -2162.6462 1309.3639 265.0782
f 1603 1604 1605
v -2162.6430 1309.3309 252.1866
v -2162.4853 1312.6116 252.5050
v -2162.4852 1312.6115 252.1860
f 1606 1607 1608
v -2160.1219 1308.6612 252.1876
v -2169.2276 1309.0816 252.1844
v -2160.8480 1308.6971 265.0789
f 1609 1610 1611
v -2169.2318 1309.0846 265.0760
v -2160.8480 1308.6971 265.0789
v -2169.2276 1309.0816 252.1844
f 1612 1613 1614
v -2160.8480 1308.6971 265.0789
v -2160.8491 1308.6978 268.2908
v -2160.1261 1308.6642 265.0792
f 1615 1616 1617
v -2160.8491 1308.6978 268.2908
v -2160.1271 1308.6649 268.2951
v -2160.1261 1308.6642 265.0792
f 1618 1619 1620
v -2160.8480 1308.6971 265.0789
v -2160.1261 1308.6642 265.0792
v -2160.1219 1308.6612 252.1876
f 1621 1622 1623
v -2160.1225 1308.8638 268.0660
v -2160.1271 1308.6649 268.2951
v -2160.1249 1308.7459 268.2211
f 1624 1625 1626
v -2160.1271 1308.6649 268.2951
v -2160.1225 1308.8638 268.0660
v -2160.1261 1308.6642 265.0792
f 1627 1628 1629
v -2160.1216 1308.8632 265.0791
v -2160.1261 1308.6642 265.0792
v -2160.1225 1308.8638 268.0660
f 1630 1631 1632
v -2160.1219 1308.6612 252.1876
v -2160.1216 1308.8632 265.0791
v -2160.1147 1309.1911 265.0791
f 1633 1634 1635
v -2160.1147 1309.1911 265.0791
v -2160.1105 1309.1882 252.1875
v -2160.1219 1308.6612 252.1876
f 1636 1637 1638
v -2160.1261 1308.6642 265.0792
v -2160.1216 1308.8632 265.0791
v -2160.1219 1308.6612 252.1876
f 1639 1640 1641
v -2097.9039 1301.1889 276.8830
v -2097.8964 1301.1835 253.4078
v -2097.1563 1316.5078 259.8057
f 1642 1643 1644
v -2097.1554 1316.5064 253.4049
v -2097.1543 1316.5064 253.4279
v -2097.8964 1301.1835 253.4078
f 1645 1646 1647
v -2097.8964 1301.1835 253.4078
v -2097.1543 1316.5064 253.4279
v -2097.1563 1316.5078 259.8057
f 1648 1649 1650
v -2097.1628 1316.5118 276.8801
v -2097.9039 1301.1889 276.8830
v -2097.1563 1316.5078 259.8057
f 1651 1652 1653
v -2117.2233 1317.4425 259.1719
v -2116.6854 1317.5102 259.7991
v -2116.6833 1317.5087 253.4213
f 1654 1655 1656
v -2118.4417 1317.2897 259.1716
v -2117.2233 1317.4425 259.1719
v -2118.4399 1317.2885 253.4888
f 1657 1658 1659
v -2117.2215 1317.4411 253.4891
v -2118.4399 1317.2885 253.4888
v -2117.2233 1317.4425 259.1719
f 1660 1661 1662
v -2117.2233 1317.4425 259.1719
v -2117.2235 1317.4426 259.7989
v -2116.6854 1317.5102 259.7991
f 1663 1664 1665
v -2116.6833 1317.5087 253.4213
v -2117.2215 1317.4411 253.4211
v -2117.2215 1317.4411 253.4891
f 1666 1667 1668
v -2119.2156 1307.2610 259.1734
v -2119.2215 1307.2652 277.4707
v -2130.3473 1307.8015 266.2822
f 1669 1670 1671
v -2119.2215 1307.2652 277.4707
v -2162.6502 1309.3668 277.4557
v -2130.3473 1307.8015 266.2822
f 1672 1673 1674
v -2119.2138 1307.2597 253.4906
v -2117.1461 1307.1592 253.4913
v -2117.1479 1307.1605 259.1741
f 1675 1676 1677
v -2119.2138 1307.2597 253.4906
v -2130.3430 1307.7984 252.9467
v -2119.2135 1307.2595 252.5207
f 1678 1679 1680
v -2130.3430 1307.7984 252.9467
v -2119.2138 1307.2597 253.4906
v -2119.2156 1307.2610 259.1734
f 1681 1682 1683
v -2130.3473 1307.8015 266.2822
v -2130.3430 1307.7984 252.9467
v -2119.2156 1307.2610 259.1734
f 1684 1685 1686
v -2155.5726 1309.0222 266.2735
v -2162.6462 1309.3639 265.0782
v -2155.5722 1309.0220 265.0806
f 1687 1688 1689
v -2162.6502 1309.3668 277.4557
v -2162.6462 1309.3639 265.0782
v -2155.5726 1309.0222 266.2735
f 1690 1691 1692
v -2130.3430 1307.7984 252.9467
v -2154.0915 1308.9472 252.9386
v -2154.0913 1308.9471 252.5086
f 1693 1694 1695
v -2161.6205 1290.3923 269.2452
v -2161.5999 1290.8564 265.0823
v -2161.6191 1290.3914 265.0824
f 1696 1697 1698
v -2161.6386 1289.9604 269.1543
v -2161.6191 1290.3914 265.0824
v -2161.6556 1289.5714 269.0463
f 1699 1700 1701
v -2161.6386 1289.9604 269.1543
v -2161.6205 1290.3923 269.2452
v -2161.6191 1290.3914 265.0824
f 1702 1703 1704
v -2161.6205 1290.3923 269.2452
v -2161.6012 1290.8573 269.3181
v -2161.5999 1290.8564 265.0823
f 1705 1706 1707
v -2161.5148 1292.8921 269.4017
v -2161.5358 1292.3731 265.0820
v -2161.5372 1292.3741 269.4128
f 1708 1709 1710
v -2161.5372 1292.3741 269.4128
v -2161.5358 1292.3731 265.0820
v -2161.5586 1291.8572 269.4019
f 1711 1712 1713
v -2161.5753 1291.4323 265.0822
v -2161.5800 1291.3483 269.3700
v -2161.5586 1291.8572 269.4019
f 1714 1715 1716
v -2161.5753 1291.4323 265.0822
v -2161.6012 1290.8573 269.3181
v -2161.5800 1291.3483 269.3700
f 1717 1718 1719
v -2161.5148 1292.8921 269.4017
v -2161.4935 1293.4010 269.3696
v -2161.5135 1292.8912 265.0819
f 1720 1721 1722
v -2161.6992 1288.5444 268.4865
v -2161.6822 1288.9405 268.7875
v -2161.6695 1289.2295 268.9234
f 1723 1724 1725
v -2161.6992 1288.5444 268.4865
v -2161.6918 1288.7115 268.6415
v -2161.6822 1288.9405 268.7875
f 1726 1727 1728
v -2161.6682 1289.2346 265.0826
v -2161.6981 1288.5437 265.0827
v -2161.6992 1288.5444 268.4865
f 1729 1730 1731
v -2161.6372 1289.9596 265.0825
v -2161.6992 1288.5444 268.4865
v -2161.6695 1289.2295 268.9234
f 1732 1733 1734
v -2161.6543 1289.5705 265.0826
v -2161.6992 1288.5444 268.4865
v -2161.6372 1289.9596 265.0825
f 1735 1736 1737
v -2161.6682 1289.2346 265.0826
v -2161.6992 1288.5444 268.4865
v -2161.6543 1289.5705 265.0826
f 1738 1739 1740
v -2161.6372 1289.9596 265.0825
v -2161.6695 1289.2295 268.9234
v -2161.6556 1289.5714 269.0463
f 1741 1742 1743
v -2161.6372 1289.9596 265.0825
v -2161.6556 1289.5714 269.0463
v -2161.6191 1290.3914 265.0824
f 1744 1745 1746
v -2161.4920 1293.4000 265.0818
v -2161.4935 1293.4010 269.3696
v -2161.4721 1293.8920 269.3175
f 1747 1748 1749
v -2161.4036 1295.5197 268.9222
v -2161.4333 1294.7868 265.0816
v -2161.4176 1295.1777 269.0453
f 1750 1751 1752
v -2161.4346 1294.7878 269.1534
v -2161.4176 1295.1777 269.0453
v -2161.4515 1294.3559 265.0816
f 1753 1754 1755
v -2161.4346 1294.7878 269.1534
v -2161.4515 1294.3559 265.0816
v -2161.4528 1294.3569 269.2444
f 1756 1757 1758
v -2161.4036 1295.5197 268.9222
v -2161.3908 1295.8086 268.7862
v -2161.3746 1296.2045 268.4851
f 1759 1760 1761
v -2161.4333 1294.7868 265.0816
v -2161.4036 1295.5197 268.9222
v -2161.3746 1296.2045 268.4851
f 1762 1763 1764
v -2161.3746 1296.2045 268.4851
v -2161.3736 1296.2037 265.0813
v -2161.3842 1295.9417 265.0813
f 1765 1766 1767
v -2161.3811 1296.0375 268.6401
v -2161.3746 1296.2045 268.4851
v -2161.3908 1295.8086 268.7862
f 1768 1769 1770
v -2161.3842 1295.9417 265.0813
v -2161.4023 1295.5188 265.0814
v -2161.3746 1296.2045 268.4851
f 1771 1772 1773
v -2161.5358 1292.3731 265.0820
v -2161.5753 1291.4323 265.0822
v -2161.5586 1291.8572 269.4019
f 1774 1775 1776
v -2161.5753 1291.4323 265.0822
v -2161.5999 1290.8564 265.0823
v -2161.6012 1290.8573 269.3181
f 1777 1778 1779
v -2161.5148 1292.8921 269.4017
v -2161.5135 1292.8912 265.0819
v -2161.5358 1292.3731 265.0820
f 1780 1781 1782
v -2161.4176 1295.1777 269.0453
v -2161.4333 1294.7868 265.0816
v -2161.4515 1294.3559 265.0816
f 1783 1784 1785
v -2161.4163 1295.1769 265.0815
v -2161.4333 1294.7868 265.0816
v -2161.3746 1296.2045 268.4851
f 1786 1787 1788
v -2161.4920 1293.4000 265.0818
v -2161.5135 1292.8912 265.0819
v -2161.4935 1293.4010 269.3696
f 1789 1790 1791
v -2161.4515 1294.3559 265.0816
v -2161.4707 1293.8910 265.0817
v -2161.4528 1294.3569 269.2444
f 1792 1793 1794
v -2161.4163 1295.1769 265.0815
v -2161.3746 1296.2045 268.4851
v -2161.4023 1295.5188 265.0814
f 1795 1796 1797
v -2161.4920 1293.4000 265.0818
v -2161.4721 1293.8920 269.3175
v -2161.4707 1293.8910 265.0817
f 1798 1799 1800
v -2161.4721 1293.8920 269.3175
v -2161.4528 1294.3569 269.2444
v -2161.4707 1293.8910 265.0817
f 1801 1802 1803
v -2150.7793 1294.5155 252.9426
v -2150.7834 1294.4044 252.3766
v -2150.7268 1295.7492 252.3764
f 1804 1805 1806
v -2150.7793 1294.5155 252.9426
v -2150.7268 1295.7492 252.3764
v -2150.7270 1295.7494 252.9424
f 1807 1808 1809
v -2150.8047 1293.9194 252.3767
v -2150.7793 1294.5155 252.9426
v -2150.8124 1293.7427 252.9428
f 1810 1811 1812
v -2150.7793 1294.5155 252.9426
v -2150.8047 1293.9194 252.3767
v -2150.7834 1294.4044 252.3766
f 1813 1814 1815
v -2150.9201 1291.1960 252.9432
v -2150.9542 1290.3840 252.3774
v -2150.8047 1293.9194 252.3767
f 1816 1817 1818
v -2150.8124 1293.7427 252.9428
v -2150.9201 1291.1960 252.9432
v -2150.8047 1293.9194 252.3767
f 1819 1820 1821
v -2150.9533 1290.4031 252.9434
v -2150.9779 1289.8352 252.9435
v -2150.9542 1290.3840 252.3774
f 1822 1823 1824
v -2150.9779 1289.8352 252.9435
v -2150.9798 1289.7770 252.3775
v -2150.9542 1290.3840 252.3774
f 1825 1826 1827
v -2150.9201 1291.1960 252.9432
v -2150.9533 1290.4031 252.9434
v -2150.9542 1290.3840 252.3774
f 1828 1829 1830
v -2151.0076 1289.1162 252.3776
v -2150.9798 1289.7770 252.3775
v -2151.0099 1289.0542 252.9436
f 1831 1832 1833
v -2150.9779 1289.8352 252.9435
v -2151.0099 1289.0542 252.9436
v -2150.9798 1289.7770 252.3775
f 1834 1835 1836
v -2151.0099 1289.0542 252.9436
v -2151.0513 1288.0903 252.3778
v -2151.0076 1289.1162 252.3776
f 1837 1838 1839
v -2151.0515 1288.0904 252.9438
v -2151.0513 1288.0903 252.3778
v -2151.0099 1289.0542 252.9436
f 1840 1841 1842
v -2161.0529 1303.5197 265.0799
v -2160.9190 1306.9262 268.9501
v -2161.0486 1303.6227 265.0799
f 1843 1844 1845
v -2160.9619 1305.8434 268.9823
v -2161.0529 1303.5197 265.0799
v -2161.0539 1303.5204 268.0668
f 1846 1847 1848
v -2161.0422 1303.7985 268.3687
v -2161.0347 1304.0005 268.5046
v -2161.0539 1303.5204 268.0668
f 1849 1850 1851
v -2161.0539 1303.5204 268.0668
v -2161.0251 1304.2405 268.6276
v -2161.0144 1304.5134 268.7345
f 1852 1853 1854
v -2161.0251 1304.2405 268.6276
v -2161.0539 1303.5204 268.0668
v -2161.0347 1304.0005 268.5046
f 1855 1856 1857
v -2161.0539 1303.5204 268.0668
v -2161.0486 1303.6374 268.2218
v -2161.0422 1303.7985 268.3687
f 1858 1859 1860
v -2161.0486 1303.6227 265.0799
v -2160.8696 1308.1719 268.6268
v -2160.9907 1305.0805 265.0796
f 1861 1862 1863
v -2160.8491 1308.6978 268.2908
v -2160.9468 1306.1844 265.0794
v -2160.9907 1305.0805 265.0796
f 1864 1865 1866
v -2160.9156 1306.9713 265.0793
v -2160.9468 1306.1844 265.0794
v -2160.8491 1308.6978 268.2908
f 1867 1868 1869
v -2161.0144 1304.5134 268.7345
v -2161.0026 1304.8164 268.8255
v -2161.0539 1303.5204 268.0668
f 1870 1871 1872
v -2161.0539 1303.5204 268.0668
v -2160.9898 1305.1424 268.8984
v -2160.9759 1305.4874 268.9503
f 1873 1874 1875
v -2160.9619 1305.8434 268.9823
v -2160.9470 1306.2063 268.9932
v -2161.0529 1303.5197 265.0799
f 1876 1877 1878
v -2160.9619 1305.8434 268.9823
v -2161.0539 1303.5204 268.0668
v -2160.9759 1305.4874 268.9503
f 1879 1880 1881
v -2161.0529 1303.5197 265.0799
v -2160.9470 1306.2063 268.9932
v -2160.9330 1306.5693 268.9821
f 1882 1883 1884
v -2160.9190 1306.9262 268.9501
v -2160.9051 1307.2702 268.8980
v -2161.0486 1303.6227 265.0799
f 1885 1886 1887
v -2160.8922 1307.5961 268.8249
v -2160.8803 1307.8990 268.7339
v -2161.0486 1303.6227 265.0799
f 1888 1889 1890
v -2160.8922 1307.5961 268.8249
v -2161.0486 1303.6227 265.0799
v -2160.9051 1307.2702 268.8980
f 1891 1892 1893
v -2160.9190 1306.9262 268.9501
v -2161.0529 1303.5197 265.0799
v -2160.9330 1306.5693 268.9821
f 1894 1895 1896
v -2161.0486 1303.6227 265.0799
v -2160.8803 1307.8990 268.7339
v -2160.8696 1308.1719 268.6268
f 1897 1898 1899
v -2160.8491 1308.6978 268.2908
v -2160.8588 1308.4152 265.0790
v -2160.9156 1306.9713 265.0793
f 1900 1901 1902
v -2160.8480 1308.6971 265.0789
v -2160.8588 1308.4152 265.0790
v -2160.8491 1308.6978 268.2908
f 1903 1904 1905
v -2160.8491 1308.6978 268.2908
v -2160.9907 1305.0805 265.0796
v -2160.8523 1308.6139 268.3678
f 1906 1907 1908
v -2160.9907 1305.0805 265.0796
v -2160.8599 1308.4119 268.5038
v -2160.8523 1308.6139 268.3678
f 1909 1910 1911
v -2160.9907 1305.0805 265.0796
v -2160.8696 1308.1719 268.6268
v -2160.8599 1308.4119 268.5038
f 1912 1913 1914
v -2161.0026 1304.8164 268.8255
v -2160.9898 1305.1424 268.8984
v -2161.0539 1303.5204 268.0668
f 1915 1916 1917
v -2151.4662 1279.7536 266.2809
v -2151.4327 1280.7086 266.2807
v -2151.4334 1280.7090 268.4266
f 1918 1919 1920
v -2151.4422 1280.4451 268.6676
v -2151.4334 1280.7090 268.4266
v -2151.4367 1280.5981 268.5506
f 1921 1922 1923
v -2151.4662 1279.7536 266.2809
v -2151.4334 1280.7090 268.4266
v -2151.4497 1280.2541 268.7767
f 1924 1925 1926
v -2151.4422 1280.4451 268.6676
v -2151.4497 1280.2541 268.7767
v -2151.4334 1280.7090 268.4266
f 1927 1928 1929
v -2151.4574 1280.0272 268.8757
v -2151.4760 1279.4806 266.2809
v -2151.4497 1280.2541 268.7767
f 1930 1931 1932
v -2151.4497 1280.2541 268.7767
v -2151.4760 1279.4806 266.2809
v -2151.4662 1279.7536 266.2809
f 1933 1934 1935
v -2151.5236 1278.1498 266.2812
v -2151.4879 1279.1348 266.2810
v -2151.4996 1278.8464 269.1339
f 1936 1937 1938
v -2151.4670 1279.7683 268.9618
v -2151.4879 1279.1348 266.2810
v -2151.4760 1279.4806 266.2809
f 1939 1940 1941
v -2151.5363 1277.8205 269.1601
v -2151.5419 1277.6449 266.2813
v -2151.5236 1278.1498 266.2812
f 1942 1943 1944
v -2151.5582 1277.1549 266.2814
v -2151.5807 1276.5596 268.9624
v -2151.5701 1276.8459 266.2814
f 1945 1946 1947
v -2151.5419 1277.6449 266.2813
v -2151.5591 1277.1556 269.0923
v -2151.5582 1277.1549 266.2814
f 1948 1949 1950
v -2151.4574 1280.0272 268.8757
v -2151.4670 1279.7683 268.9618
v -2151.4760 1279.4806 266.2809
f 1951 1952 1953
v -2151.4879 1279.1348 266.2810
v -2151.4769 1279.4813 269.0348
v -2151.4877 1279.1723 269.0919
f 1954 1955 1956
v -2151.5236 1278.1498 266.2812
v -2151.4996 1278.8464 269.1339
v -2151.5115 1278.5075 269.1600
f 1957 1958 1959
v -2151.4877 1279.1723 269.0919
v -2151.4996 1278.8464 269.1339
v -2151.4879 1279.1348 266.2810
f 1960 1961 1962
v -2151.5234 1278.1645 269.1691
v -2151.5236 1278.1498 266.2812
v -2151.5115 1278.5075 269.1600
f 1963 1964 1965
v -2151.5419 1277.6449 266.2813
v -2151.5363 1277.8205 269.1601
v -2151.5483 1277.4826 269.1342
f 1966 1967 1968
v -2151.5582 1277.1549 266.2814
v -2151.5591 1277.1556 269.0923
v -2151.5709 1276.8466 269.0353
f 1969 1970 1971
v -2151.5483 1277.4826 269.1342
v -2151.5591 1277.1556 269.0923
v -2151.5419 1277.6449 266.2813
f 1972 1973 1974
v -2151.5234 1278.1645 269.1691
v -2151.5363 1277.8205 269.1601
v -2151.5236 1278.1498 266.2812
f 1975 1976 1977
v -2151.5709 1276.8466 269.0353
v -2151.5807 1276.5596 268.9624
v -2151.5582 1277.1549 266.2814
f 1978 1979 1980
v -2151.5894 1276.3090 266.2815
v -2151.6098 1275.7296 268.5515
v -2151.6090 1275.7291 266.2816
f 1981 1982 1983
v -2151.5798 1276.5589 266.2815
v -2151.6098 1275.7296 268.5515
v -2151.5894 1276.3090 266.2815
f 1984 1985 1986
v -2151.5979 1276.0736 268.7775
v -2151.5798 1276.5589 266.2815
v -2151.5701 1276.8459 266.2814
f 1987 1988 1989
v -2151.5798 1276.5589 266.2815
v -2151.6044 1275.8826 268.6685
v -2151.6098 1275.7296 268.5515
f 1990 1991 1992
v -2151.6044 1275.8826 268.6685
v -2151.5798 1276.5589 266.2815
v -2151.5979 1276.0736 268.7775
f 1993 1994 1995
v -2151.5979 1276.0736 268.7775
v -2151.5701 1276.8459 266.2814
v -2151.5903 1276.3006 268.8764
f 1996 1997 1998
v -2151.5701 1276.8459 266.2814
v -2151.5807 1276.5596 268.9624
v -2151.5903 1276.3006 268.8764
f 1999 2000 2001
v -2151.4670 1279.7683 268.9618
v -2151.4769 1279.4813 269.0348
v -2151.4879 1279.1348 266.2810
f 2002 2003 2004
v -2150.1301 1306.8335 252.5093
v -2150.1388 1306.6116 252.9404
v -2150.1559 1306.1796 252.5094
f 2005 2006 2007
v -2150.0657 1308.4623 252.5090
v -2150.0659 1308.4624 252.9400
v -2150.0808 1308.0544 252.5091
f 2008 2009 2010
v -2150.0841 1307.9824 252.9401
v -2150.1388 1306.6116 252.9404
v -2150.1301 1306.8335 252.5093
f 2011 2012 2013
v -2150.1301 1306.8335 252.5093
v -2150.0808 1308.0544 252.5091
v -2150.0841 1307.9824 252.9401
f 2014 2015 2016
v -2150.0841 1307.9824 252.9401
v -2150.0808 1308.0544 252.5091
v -2150.0659 1308.4624 252.9400
f 2017 2018 2019
v -2150.2783 1303.0911 252.9410
v -2150.1559 1306.1796 252.5094
v -2150.1388 1306.6116 252.9404
f 2020 2021 2022
v -2150.2783 1303.0911 252.9410
v -2150.2781 1303.0910 252.5100
v -2150.1559 1306.1796 252.5094
f 2023 2024 2025
v -2150.0708 1308.4658 268.0695
v -2150.1002 1307.6955 266.2757
v -2150.0701 1308.4655 266.2755
f 2026 2027 2028
v -2150.0751 1308.3489 268.2245
v -2150.1271 1307.0286 266.2758
v -2150.0708 1308.4658 268.0695
f 2029 2030 2031
v -2150.0892 1307.9860 268.5076
v -2150.1539 1306.3227 266.2759
v -2150.0816 1308.1879 268.3716
f 2032 2033 2034
v -2150.1539 1306.3227 266.2759
v -2150.0989 1307.7460 268.6305
v -2150.1097 1307.4721 268.7376
f 2035 2036 2037
v -2150.0892 1307.9860 268.5076
v -2150.0989 1307.7460 268.6305
v -2150.1539 1306.3227 266.2759
f 2038 2039 2040
v -2150.0816 1308.1879 268.3716
v -2150.1271 1307.0286 266.2758
v -2150.0751 1308.3489 268.2245
f 2041 2042 2043
v -2150.1225 1307.1701 268.8287
v -2150.1764 1305.7798 266.2760
v -2150.1097 1307.4721 268.7376
f 2044 2045 2046
v -2150.1271 1307.0286 266.2758
v -2150.1002 1307.6955 266.2757
v -2150.0708 1308.4658 268.0695
f 2047 2048 2049
v -2150.1539 1306.3227 266.2759
v -2150.1097 1307.4721 268.7376
v -2150.1764 1305.7798 266.2760
f 2050 2051 2052
v -2150.1764 1305.7798 266.2760
v -2150.1225 1307.1701 268.8287
v -2150.2032 1305.0958 266.2762
f 2053 2054 2055
v -2150.1271 1307.0286 266.2758
v -2150.0816 1308.1879 268.3716
v -2150.1539 1306.3227 266.2759
f 2056 2057 2058
v -2150.2032 1305.0958 266.2762
v -2150.1483 1306.4993 268.9538
v -2150.2322 1304.3660 266.2763
f 2059 2060 2061
v -2150.1225 1307.1701 268.8287
v -2150.1354 1306.8443 268.9017
v -2150.2032 1305.0958 266.2762
f 2062 2063 2064
v -2150.1623 1306.1434 268.9859
v -2150.2322 1304.3660 266.2763
v -2150.1483 1306.4993 268.9538
f 2065 2066 2067
v -2150.1623 1306.1434 268.9859
v -2150.1773 1305.7804 268.9969
v -2150.2322 1304.3660 266.2763
f 2068 2069 2070
v -2150.1913 1305.4174 268.9860
v -2150.2322 1304.3660 266.2763
v -2150.1773 1305.7804 268.9969
f 2071 2072 2073
v -2150.2191 1304.7165 268.9021
v -2150.2633 1303.5740 266.2764
v -2150.2052 1305.0604 268.9541
f 2074 2075 2076
v -2150.2437 1304.0875 268.7382
v -2150.2826 1303.0941 266.2765
v -2150.2320 1304.3895 268.8292
f 2077 2078 2079
v -2150.2718 1303.3721 266.2765
v -2150.2191 1304.7165 268.9021
v -2150.2320 1304.3895 268.8292
f 2080 2081 2082
v -2150.2322 1304.3660 266.2763
v -2150.1913 1305.4174 268.9860
v -2150.2052 1305.0604 268.9541
f 2083 2084 2085
v -2150.2437 1304.0875 268.7382
v -2150.2545 1303.8145 268.6313
v -2150.2831 1303.0945 268.0705
f 2086 2087 2088
v -2150.2633 1303.5740 266.2764
v -2150.2191 1304.7165 268.9021
v -2150.2718 1303.3721 266.2765
f 2089 2090 2091
v -2150.2322 1304.3660 266.2763
v -2150.2052 1305.0604 268.9541
v -2150.2633 1303.5740 266.2764
f 2092 2093 2094
v -2150.2725 1303.3725 268.3725
v -2150.2831 1303.0945 268.0705
v -2150.2641 1303.5746 268.5084
f 2095 2096 2097
v -2150.2789 1303.2115 268.2255
v -2150.2831 1303.0945 268.0705
v -2150.2725 1303.3725 268.3725
f 2098 2099 2100
v -2150.2826 1303.0941 266.2765
v -2150.2437 1304.0875 268.7382
v -2150.2831 1303.0945 268.0705
f 2101 2102 2103
v -2150.2320 1304.3895 268.8292
v -2150.2826 1303.0941 266.2765
v -2150.2718 1303.3721 266.2765
f 2104 2105 2106
v -2150.2831 1303.0945 268.0705
v -2150.2545 1303.8145 268.6313
v -2150.2641 1303.5746 268.5084
f 2107 2108 2109
v -2150.1354 1306.8443 268.9017
v -2150.1483 1306.4993 268.9538
v -2150.2032 1305.0958 266.2762
f 2110 2111 2112
v -2151.0076 1289.1162 252.3776
v -2154.8839 1288.2526 252.3765
v -2150.9798 1289.7770 252.3775
f 2113 2114 2115
v -2154.8839 1288.2526 252.3765
v -2151.0076 1289.1162 252.3776
v -2151.0513 1288.0903 252.3778
f 2116 2117 2118
v -2154.8839 1288.2526 252.3765
v -2150.8047 1293.9194 252.3767
v -2150.9542 1290.3840 252.3774
f 2119 2120 2121
v -2154.8839 1288.2526 252.3765
v -2150.9542 1290.3840 252.3774
v -2150.9798 1289.7770 252.3775
f 2122 2123 2124
v -2154.8839 1288.2526 252.3765
v -2150.7268 1295.7492 252.3764
v -2150.7834 1294.4044 252.3766
f 2125 2126 2127
v -2150.8047 1293.9194 252.3767
v -2154.8839 1288.2526 252.3765
v -2150.7834 1294.4044 252.3766
f 2128 2129 2130
v -2154.5903 1295.9136 252.3750
v -2150.7268 1295.7492 252.3764
v -2154.8839 1288.2526 252.3765
f 2131 2132 2133
v -2150.7395 1295.5869 268.6438
v -2150.7911 1294.3366 266.2781
v -2150.7320 1295.7529 268.4888
f 2134 2135 2136
v -2150.7409 1295.5434 266.2779
v -2150.7313 1295.7525 266.2779
v -2150.7320 1295.7529 268.4888
f 2137 2138 2139
v -2150.7395 1295.5869 268.6438
v -2150.7491 1295.3570 268.7899
v -2150.7911 1294.3366 266.2781
f 2140 2141 2142
v -2150.7491 1295.3570 268.7899
v -2150.7610 1295.0691 268.9259
v -2150.8103 1293.9057 266.2782
f 2143 2144 2145
v -2150.7920 1294.3372 269.1570
v -2150.8295 1293.4407 266.2783
v -2150.7760 1294.7271 269.0490
f 2146 2147 2148
v -2150.8946 1291.9009 266.2786
v -2150.8112 1293.9063 269.2481
v -2150.8305 1293.4414 269.3212
f 2149 2150 2151
v -2150.7920 1294.3372 269.1570
v -2150.8112 1293.9063 269.2481
v -2150.8508 1292.9497 266.2784
f 2152 2153 2154
v -2150.7760 1294.7271 269.0490
v -2150.8103 1293.9057 266.2782
v -2150.7610 1295.0691 268.9259
f 2155 2156 2157
v -2150.8519 1292.9505 269.3733
v -2150.8946 1291.9009 266.2786
v -2150.8305 1293.4414 269.3212
f 2158 2159 2160
v -2150.7601 1295.0685 266.2780
v -2150.7320 1295.7529 268.4888
v -2150.7750 1294.7266 266.2781
f 2161 2162 2163
v -2150.7750 1294.7266 266.2781
v -2150.7320 1295.7529 268.4888
v -2150.7911 1294.3366 266.2781
f 2164 2165 2166
v -2150.7409 1295.5434 266.2779
v -2150.7320 1295.7529 268.4888
v -2150.7601 1295.0685 266.2780
f 2167 2168 2169
v -2150.7491 1295.3570 268.7899
v -2150.8103 1293.9057 266.2782
v -2150.7911 1294.3366 266.2781
f 2170 2171 2172
v -2150.8508 1292.9497 266.2784
v -2150.8295 1293.4407 266.2783
v -2150.7920 1294.3372 269.1570
f 2173 2174 2175
v -2150.8946 1291.9009 266.2786
v -2150.8508 1292.9497 266.2784
v -2150.8112 1293.9063 269.2481
f 2176 2177 2178
v -2150.8519 1292.9505 269.3733
v -2150.9160 1291.4059 266.2787
v -2150.8946 1291.9009 266.2786
f 2179 2180 2181
v -2150.7760 1294.7271 269.0490
v -2150.8295 1293.4407 266.2783
v -2150.8103 1293.9057 266.2782
f 2182 2183 2184
v -2150.9160 1291.4059 266.2787
v -2150.8519 1292.9505 269.3733
v -2150.8732 1292.4416 269.4054
f 2185 2186 2187
v -2150.8732 1292.4416 269.4054
v -2150.8946 1291.9236 269.4165
v -2150.9373 1290.8970 266.2788
f 2188 2189 2190
v -2150.9170 1291.4067 269.4056
v -2150.9384 1290.8978 269.3737
v -2150.9577 1290.4061 266.2789
f 2191 2192 2193
v -2150.9170 1291.4067 269.4056
v -2150.9373 1290.8970 266.2788
v -2150.8946 1291.9236 269.4165
f 2194 2195 2196
v -2150.9586 1290.4068 269.3218
v -2150.9779 1289.9412 266.2790
v -2150.9384 1290.8978 269.3737
f 2197 2198 2199
v -2150.9970 1289.5098 269.1580
v -2151.0121 1289.1193 266.2791
v -2150.9789 1289.9418 269.2489
f 2200 2201 2202
v -2151.0279 1288.7780 268.9271
v -2151.0388 1288.4893 266.2793
v -2151.0130 1289.1199 269.0500
f 2203 2204 2205
v -2151.0270 1288.7773 266.2792
v -2150.9970 1289.5098 269.1580
v -2151.0130 1289.1199 269.0500
f 2206 2207 2208
v -2150.9960 1289.5092 266.2791
v -2150.9586 1290.4068 269.3218
v -2150.9789 1289.9418 269.2489
f 2209 2210 2211
v -2151.0279 1288.7780 268.9271
v -2151.0396 1288.4900 268.7912
v -2151.0494 1288.2604 266.2793
f 2212 2213 2214
v -2150.9577 1290.4061 266.2789
v -2150.9373 1290.8970 266.2788
v -2150.9170 1291.4067 269.4056
f 2215 2216 2217
v -2150.9960 1289.5092 266.2791
v -2150.9789 1289.9418 269.2489
v -2151.0121 1289.1193 266.2791
f 2218 2219 2220
v -2150.9779 1289.9412 266.2790
v -2150.9586 1290.4068 269.3218
v -2150.9960 1289.5092 266.2791
f 2221 2222 2223
v -2150.9779 1289.9412 266.2790
v -2150.9577 1290.4061 266.2789
v -2150.9384 1290.8978 269.3737
f 2224 2225 2226
v -2151.0388 1288.4893 266.2793
v -2151.0270 1288.7773 266.2792
v -2151.0130 1289.1199 269.0500
f 2227 2228 2229
v -2150.9970 1289.5098 269.1580
v -2151.0270 1288.7773 266.2792
v -2151.0121 1289.1193 266.2791
f 2230 2231 2232
v -2151.0559 1288.0934 266.2793
v -2151.0396 1288.4900 268.7912
v -2151.0565 1288.0939 268.4902
f 2233 2234 2235
v -2151.0279 1288.7780 268.9271
v -2151.0494 1288.2604 266.2793
v -2151.0388 1288.4893 266.2793
f 2236 2237 2238
v -2151.0494 1288.2604 266.2793
v -2151.0396 1288.4900 268.7912
v -2151.0559 1288.0934 266.2793
f 2239 2240 2241
v -2151.0502 1288.2609 268.6452
v -2151.0565 1288.0939 268.4902
v -2151.0396 1288.4900 268.7912
f 2242 2243 2244
v -2150.9160 1291.4059 266.2787
v -2150.8732 1292.4416 269.4054
v -2150.9373 1290.8970 266.2788
f 2245 2246 2247
v -2141.8070 1274.9408 252.9496
v -2141.8176 1274.8199 266.2851
v -2141.8133 1274.8168 252.9496
f 2248 2249 2250
v -2131.9574 1274.4563 252.9530
v -2141.8113 1274.9438 266.2851
v -2141.8070 1274.9408 252.9496
f 2251 2252 2253
v -2130.3430 1307.7984 252.9467
v -2131.9617 1274.4593 266.2885
v -2131.9574 1274.4563 252.9530
f 2254 2255 2256
v -2157.1920 1275.5638 265.0869
v -2157.1744 1275.9270 266.2797
v -2157.1740 1275.9268 265.0868
f 2257 2258 2259
v -2151.6044 1275.8826 268.6685
v -2162.2536 1276.1081 268.5479
v -2151.6098 1275.7296 268.5515
f 2260 2261 2262
v -2162.2407 1276.4522 268.7738
v -2151.5903 1276.3006 268.8764
v -2162.2331 1276.6791 268.8728
f 2263 2264 2265
v -2151.5363 1277.8205 269.1601
v -2162.1911 1277.8611 269.1305
v -2151.5483 1277.4826 269.1342
f 2266 2267 2268
v -2151.4670 1279.7683 268.9618
v -2162.1197 1279.8598 269.0312
v -2151.4769 1279.4813 269.0348
f 2269 2270 2271
v -2151.4670 1279.7683 268.9618
v -2151.4574 1280.0272 268.8757
v -2162.1002 1280.4057 268.8720
f 2272 2273 2274
v -2162.1002 1280.4057 268.8720
v -2151.4497 1280.2541 268.7767
v -2162.0925 1280.6327 268.7730
f 2275 2276 2277
v -2160.1105 1309.1882 252.1875
v -2162.6472 1309.3339 265.0782
v -2162.6430 1309.3309 252.1866
f 2278 2279 2280
v -2170.7218 1304.1527 252.1849
v -2169.2318 1309.0846 265.0760
v -2169.2276 1309.0816 252.1844
f 2281 2282 2283
v -2171.4899 1288.4961 252.1878
v -2170.7260 1304.1557 265.0765
v -2170.7218 1304.1527 252.1849
f 2284 2285 2286
v -2172.0686 1276.2818 252.1901
v -2171.4941 1288.4990 265.0794
v -2171.4899 1288.4961 252.1878
f 2287 2288 2289
v -2162.4852 1312.6115 252.1860
v -2153.9666 1312.1997 252.5079
v -2153.9665 1312.1996 252.1889
f 2290 2291 2292
v -2150.2437 1304.0875 268.7382
v -2161.0251 1304.2405 268.6276
v -2150.2545 1303.8145 268.6313
f 2293 2294 2295
v -2161.0422 1303.7985 268.3687
v -2161.0486 1303.6374 268.2218
v -2150.2789 1303.2115 268.2255
f 2296 2297 2298
v -2150.2641 1303.5746 268.5084
v -2150.2545 1303.8145 268.6313
v -2161.0251 1304.2405 268.6276
f 2299 2300 2301
v -2160.9051 1307.2702 268.8980
v -2150.1225 1307.1701 268.8287
v -2160.8922 1307.5961 268.8249
f 2302 2303 2304
v -2150.0989 1307.7460 268.6305
v -2150.0892 1307.9860 268.5076
v -2160.8599 1308.4119 268.5038
f 2305 2306 2307
v -2150.0816 1308.1879 268.3716
v -2160.8599 1308.4119 268.5038
v -2150.0892 1307.9860 268.5076
f 2308 2309 2310
v -2161.6931 1329.0871 252.5018
v -2118.2655 1326.9904 277.4670
v -2118.2576 1326.9846 252.5169
f 2311 2312 2313
v -2097.8964 1301.1835 253.4078
v -2117.3971 1302.1332 276.8764
v -2117.3896 1302.1279 253.4012
f 2314 2315 2316
v -2116.6505 1317.4521 259.7991
v -2097.1628 1316.5118 276.8801
v -2097.1563 1316.5078 259.8057
f 2317 2318 2319
v -2118.3593 1318.2662 253.4886
v -2118.4417 1317.2897 259.1716
v -2118.4399 1317.2885 253.4888
f 2320 2321 2322
v -2115.9794 1327.5397 253.4194
v -2096.6673 1326.6133 259.8038
v -2096.6653 1326.6118 253.4260
f 2323 2324 2325
v -2116.3752 1320.1478 253.4208
v -2115.9814 1327.5411 259.7972
v -2115.9794 1327.5397 253.4194
f 2326 2327 2328
v -2116.6854 1317.5102 259.7991
v -2116.3772 1320.1493 259.7986
v -2116.3752 1320.1478 253.4208
f 2329 2330 2331
v -2116.6485 1317.4506 253.4213
v -2097.1543 1316.5064 253.4279
v -2097.1554 1316.5064 253.4049
f 2332 2333 2334
v -2117.4171 1313.4401 259.1727
v -2117.2235 1317.4426 259.7989
v -2117.2233 1317.4425 259.1719
f 2335 2336 2337
v -2117.4153 1313.4387 253.4899
v -2117.2215 1317.4411 253.4891
v -2117.2215 1317.4411 253.4211
f 2338 2339 2340
v -2116.8443 1313.4113 253.4221
v -2117.4153 1313.4387 253.4899
v -2117.4153 1313.4387 253.4219
f 2341 2342 2343
v -2116.8462 1313.4126 259.1729
v -2117.4173 1313.4402 259.7997
v -2117.4171 1313.4401 259.1727
f 2344 2345 2346
v -2118.6792 1318.2821 253.4885
v -2118.3611 1318.2675 259.1714
v -2118.3593 1318.2662 253.4886
f 2347 2348 2349
v -2156.2032 1295.9838 265.0831
v -2155.8490 1303.3140 266.2746
v -2155.8486 1303.3138 265.0817
f 2350 2351 2352
v -2155.5722 1309.0220 265.0806
v -2155.5885 1308.6842 266.2736
v -2155.5726 1309.0222 266.2735
f 2353 2354 2355
v -2156.9337 1280.9040 265.0859
v -2156.5741 1288.3272 266.2774
v -2156.5738 1288.3269 265.0845
f 2356 2357 2358
v -2150.2781 1303.0910 252.5100
v -2154.3098 1303.2509 252.9396
v -2154.3096 1303.2508 252.5086
f 2359 2360 2361
v -2154.1032 1308.6221 252.5076
v -2150.0659 1308.4624 252.9400
v -2150.0657 1308.4623 252.5090
f 2362 2363 2364
v -2154.0913 1308.9471 252.5086
v -2154.1033 1308.6222 252.9386
v -2154.1032 1308.6221 252.5076
f 2365 2366 2367
v -2151.0513 1288.0903 252.3778
v -2154.8841 1288.2527 252.9425
v -2154.8839 1288.2526 252.3765
f 2368 2369 2370
v -2150.9789 1289.9418 269.2489
v -2161.6386 1289.9604 269.1543
v -2150.9970 1289.5098 269.1580
f 2371 2372 2373
v -2150.9170 1291.4067 269.4056
v -2161.5800 1291.3483 269.3700
v -2150.9384 1290.8978 269.3737
f 2374 2375 2376
v -2161.5148 1292.8921 269.4017
v -2150.8519 1292.9505 269.3733
v -2161.4935 1293.4010 269.3696
f 2377 2378 2379
v -2161.4721 1293.8920 269.3175
v -2161.4935 1293.4010 269.3696
v -2150.8519 1292.9505 269.3733
f 2380 2381 2382
v -2150.8112 1293.9063 269.2481
v -2161.4721 1293.8920 269.3175
v -2150.8305 1293.4414 269.3212
f 2383 2384 2385
v -2154.5903 1295.9136 252.3750
v -2150.7270 1295.7494 252.9424
v -2150.7268 1295.7492 252.3764
f 2386 2387 2388
v -2096.6673 1326.6133 259.8038
v -2097.1543 1316.5064 253.4279
v -2096.6653 1326.6118 253.4260
f 2389 2390 2391
v -2097.1543 1316.5064 253.4279
v -2096.6673 1326.6133 259.8038
v -2097.1563 1316.5078 259.8057
f 2392 2393 2394
v -2117.2233 1317.4425 259.1719
v -2116.6833 1317.5087 253.4213
v -2117.2215 1317.4411 253.4891
f 2395 2396 2397
v -2162.6502 1309.3668 277.4557
v -2155.5726 1309.0222 266.2735
v -2130.3473 1307.8015 266.2822
f 2398 2399 2400
v -2119.2138 1307.2597 253.4906
v -2117.1479 1307.1605 259.1741
v -2119.2156 1307.2610 259.1734
f 2401 2402 2403
v -2130.3430 1307.7984 252.9467
v -2154.0913 1308.9471 252.5086
v -2119.2135 1307.2595 252.5207
f 2404 2405 2406
