# Grid Center: 2613600, 1265000
# Global Anchor: 7.64977475454284, 47.53283995868075, 0.0

g building_ID_E85098DC-083B-48E0-921E-FB4BF2DE2598
v -2153.5280 104.6612 264.4932
v -2151.7811 104.5676 263.9147
v -2150.9187 120.7350 263.9239
f 1 2 3
v -2153.5280 104.6612 264.4932
v -2150.9187 120.7350 263.9239
v -2151.3187 120.7591 264.0557
f 4 5 6
v -2151.3187 120.7591 264.0557
v -2151.3049 121.0370 264.0567
v -2152.6239 121.1096 264.4932
f 7 8 9
v -2153.5280 104.6612 264.4932
v -2151.3187 120.7591 264.0557
v -2152.6239 121.1096 264.4932
f 10 11 12
v -2154.7371 120.9322 263.6896
v -2154.5462 120.9237 263.7626
v -2154.5443 120.9235 258.2808
f 13 14 15
v -2154.7353 120.9320 258.2808
v -2154.7371 120.9322 263.6896
v -2154.5443 120.9235 258.2808
f 16 17 18
v -2150.9169 120.7347 258.2821
v -2150.9187 120.7350 263.9239
v -2151.7793 104.5672 258.2819
f 19 20 21
v -2151.7811 104.5676 263.9147
v -2151.7793 104.5672 258.2819
v -2150.9187 120.7350 263.9239
f 22 23 24
v -2151.3169 120.7588 258.2819
v -2151.3187 120.7591 264.0557
v -2150.9187 120.7350 263.9239
f 25 26 27
v -2151.3169 120.7588 258.2819
v -2150.9187 120.7350 263.9239
v -2150.9169 120.7347 258.2821
f 28 29 30
v -2151.3043 121.0369 261.9597
v -2151.3049 121.0370 264.0567
v -2151.3187 120.7591 264.0557
f 31 32 33
v -2151.3031 121.0368 258.2819
v -2151.3043 121.0369 261.9597
v -2151.3187 120.7591 264.0557
f 34 35 36
v -2155.6137 104.7726 258.2807
v -2155.6154 104.7728 263.6895
v -2154.7371 120.9322 263.6896
f 37 38 39
v -2155.6137 104.7726 258.2807
v -2154.7371 120.9322 263.6896
v -2154.7353 120.9320 258.2808
f 40 41 42
v -2152.6219 121.1093 258.2815
v -2151.3031 121.0368 258.2819
v -2151.3169 120.7588 258.2819
f 43 44 45
v -2151.3169 120.7588 258.2819
v -2150.9169 120.7347 258.2821
v -2151.7793 104.5672 258.2819
f 46 47 48
v -2152.6219 121.1093 258.2815
v -2151.3169 120.7588 258.2819
v -2151.7793 104.5672 258.2819
f 49 50 51
v -2154.5443 120.9235 258.2808
v -2154.5296 121.2134 258.2808
v -2152.6219 121.1093 258.2815
f 52 53 54
v -2154.5443 120.9235 258.2808
v -2155.6137 104.7726 258.2807
v -2154.7353 120.9320 258.2808
f 55 56 57
v -2153.5660 104.6631 258.2813
v -2154.5443 120.9235 258.2808
v -2152.6219 121.1093 258.2815
f 58 59 60
v -2152.6219 121.1093 258.2815
v -2151.7793 104.5672 258.2819
v -2153.5660 104.6631 258.2813
f 61 62 63
v -2153.5660 104.6631 258.2813
v -2155.6137 104.7726 258.2807
v -2154.5443 120.9235 258.2808
f 64 65 66
v -2154.7371 120.9322 263.6896
v -2155.6154 104.7728 263.6895
v -2153.5280 104.6612 264.4932
f 67 68 69
v -2154.7371 120.9322 263.6896
v -2153.5280 104.6612 264.4932
v -2154.5462 120.9237 263.7626
f 70 71 72
v -2152.6239 121.1096 264.4932
v -2154.5462 120.9237 263.7626
v -2153.5280 104.6612 264.4932
f 73 74 75
v -2154.5314 121.2137 263.7596
v -2154.5462 120.9237 263.7626
v -2152.6239 121.1096 264.4932
f 76 77 78
v -2154.5462 120.9237 263.7626
v -2154.5296 121.2134 258.2808
v -2154.5443 120.9235 258.2808
f 79 80 81
v -2154.5462 120.9237 263.7626
v -2154.5314 121.2137 263.7596
v -2154.5296 121.2134 258.2808
f 82 83 84
v -2152.6239 121.1096 264.4932
v -2151.3043 121.0369 261.9597
v -2154.5314 121.2137 263.7596
f 85 86 87
v -2154.5314 121.2137 263.7596
v -2151.3043 121.0369 261.9597
v -2154.5296 121.2134 258.2808
f 88 89 90
v -2151.3043 121.0369 261.9597
v -2152.6239 121.1096 264.4932
v -2151.3049 121.0370 264.0567
f 91 92 93
v -2154.5296 121.2134 258.2808
v -2151.3043 121.0369 261.9597
v -2152.6219 121.1093 258.2815
f 94 95 96
v -2151.3043 121.0369 261.9597
v -2151.3031 121.0368 258.2819
v -2152.6219 121.1093 258.2815
f 97 98 99
v -2151.7811 104.5676 263.9147
v -2155.6154 104.7728 263.6895
v -2151.7793 104.5672 258.2819
f 100 101 102
v -2155.6154 104.7728 263.6895
v -2151.7811 104.5676 263.9147
v -2153.5280 104.6612 264.4932
f 103 104 105
v -2155.6154 104.7728 263.6895
v -2153.5660 104.6631 258.2813
v -2151.7793 104.5672 258.2819
f 106 107 108
v -2155.6137 104.7726 258.2807
v -2153.5660 104.6631 258.2813
v -2155.6154 104.7728 263.6895
f 109 110 111
v -2151.3031 121.0368 258.2819
v -2151.3187 120.7591 264.0557
v -2151.3169 120.7588 258.2819
f 112 113 114

g building_ID_BC15B265-DAD6-4F9F-A7F8-0C5081BC3EB1
v -2543.5736 457.8705 265.4221
v -2543.6023 449.0197 265.4226
v -2500.3019 455.3923 265.4394
f 115 116 117
v -2490.8011 455.3548 265.4431
v -2500.3019 455.3923 265.4394
v -2543.6023 449.0197 265.4226
f 118 119 120
v -2500.3128 461.0063 265.4390
v -2543.5736 457.8705 265.4221
v -2500.3019 455.3923 265.4394
f 121 122 123
v -2545.8007 461.1633 265.4210
v -2545.5323 457.9838 265.4213
v -2543.5736 457.8705 265.4221
f 124 125 126
v -2500.3128 461.0063 265.4390
v -2545.8007 461.1633 265.4210
v -2543.5736 457.8705 265.4221
f 127 128 129
v -2447.5548 457.5687 265.4596
v -2490.8011 455.3548 265.4431
v -2447.5928 448.6489 265.4602
f 130 131 132
v -2543.6023 449.0197 265.4226
v -2447.5928 448.6489 265.4602
v -2490.8011 455.3548 265.4431
f 133 134 135
v -2490.7920 460.9737 265.4427
v -2490.8011 455.3548 265.4431
v -2447.5548 457.5687 265.4596
f 136 137 138
v -2490.7920 460.9737 265.4427
v -2447.5548 457.5687 265.4596
v -2445.2531 460.8165 265.4603
f 139 140 141
v -2445.5386 457.6542 265.4604
v -2445.2531 460.8165 265.4603
v -2447.5548 457.5687 265.4596
f 142 143 144
v -2500.3094 461.0054 256.4293
v -2500.3128 461.0063 265.4390
v -2500.3019 455.3923 265.4394
f 145 146 147
v -2545.7972 461.1625 256.4113
v -2545.8007 461.1633 265.4210
v -2500.3128 461.0063 265.4390
f 148 149 150
v -2545.5287 457.9829 256.4116
v -2545.5323 457.9838 265.4213
v -2545.8007 461.1633 265.4210
f 151 152 153
v -2543.5701 457.8696 256.4124
v -2543.5736 457.8705 265.4221
v -2545.5323 457.9838 265.4213
f 154 155 156
v -2543.5989 449.0188 256.4130
v -2543.6023 449.0197 265.4226
v -2543.5736 457.8705 265.4221
f 157 158 159
v -2447.5894 448.6481 256.4506
v -2447.5928 448.6489 265.4602
v -2543.6023 449.0197 265.4226
f 160 161 162
v -2447.5515 457.5678 256.4500
v -2447.5548 457.5687 265.4596
v -2447.5928 448.6489 265.4602
f 163 164 165
v -2445.5352 457.6534 256.4508
v -2445.5386 457.6542 265.4604
v -2447.5548 457.5687 265.4596
f 166 167 168
v -2445.2497 460.8156 256.4507
v -2445.2531 460.8165 265.4603
v -2445.5386 457.6542 265.4604
f 169 170 171
v -2490.7886 460.9728 256.4330
v -2490.7920 460.9737 265.4427
v -2445.2531 460.8165 265.4603
f 172 173 174
v -2490.7977 455.3539 256.4334
v -2490.8011 455.3548 265.4431
v -2490.7920 460.9737 265.4427
f 175 176 177
v -2500.2984 455.3914 256.4297
v -2500.3019 455.3923 265.4394
v -2490.8011 455.3548 265.4431
f 178 179 180
v -2543.5701 457.8696 256.4124
v -2545.5287 457.9829 256.4116
v -2545.7972 461.1625 256.4113
f 181 182 183
v -2500.3094 461.0054 256.4293
v -2543.5701 457.8696 256.4124
v -2545.7972 461.1625 256.4113
f 184 185 186
v -2500.2984 455.3914 256.4297
v -2543.5989 449.0188 256.4130
v -2543.5701 457.8696 256.4124
f 187 188 189
v -2500.3094 461.0054 256.4293
v -2500.2984 455.3914 256.4297
v -2543.5701 457.8696 256.4124
f 190 191 192
v -2490.7977 455.3539 256.4334
v -2543.5989 449.0188 256.4130
v -2500.2984 455.3914 256.4297
f 193 194 195
v -2445.2497 460.8156 256.4507
v -2447.5515 457.5678 256.4500
v -2490.7886 460.9728 256.4330
f 196 197 198
v -2445.5352 457.6534 256.4508
v -2447.5515 457.5678 256.4500
v -2445.2497 460.8156 256.4507
f 199 200 201
v -2447.5894 448.6481 256.4506
v -2490.7977 455.3539 256.4334
v -2447.5515 457.5678 256.4500
f 202 203 204
v -2490.7886 460.9728 256.4330
v -2447.5515 457.5678 256.4500
v -2490.7977 455.3539 256.4334
f 205 206 207
v -2543.5989 449.0188 256.4130
v -2490.7977 455.3539 256.4334
v -2447.5894 448.6481 256.4506
f 208 209 210
v -2500.3094 461.0054 256.4293
v -2500.3019 455.3923 265.4394
v -2500.2984 455.3914 256.4297
f 211 212 213
v -2545.7972 461.1625 256.4113
v -2500.3128 461.0063 265.4390
v -2500.3094 461.0054 256.4293
f 214 215 216
v -2545.5287 457.9829 256.4116
v -2545.8007 461.1633 265.4210
v -2545.7972 461.1625 256.4113
f 217 218 219
v -2543.5701 457.8696 256.4124
v -2545.5323 457.9838 265.4213
v -2545.5287 457.9829 256.4116
f 220 221 222
v -2543.5989 449.0188 256.4130
v -2543.5736 457.8705 265.4221
v -2543.5701 457.8696 256.4124
f 223 224 225
v -2447.5894 448.6481 256.4506
v -2543.6023 449.0197 265.4226
v -2543.5989 449.0188 256.4130
f 226 227 228
v -2447.5515 457.5678 256.4500
v -2447.5928 448.6489 265.4602
v -2447.5894 448.6481 256.4506
f 229 230 231
v -2445.5352 457.6534 256.4508
v -2447.5548 457.5687 265.4596
v -2447.5515 457.5678 256.4500
f 232 233 234
v -2445.2497 460.8156 256.4507
v -2445.5386 457.6542 265.4604
v -2445.5352 457.6534 256.4508
f 235 236 237
v -2490.7886 460.9728 256.4330
v -2445.2531 460.8165 265.4603
v -2445.2497 460.8156 256.4507
f 238 239 240
v -2490.7977 455.3539 256.4334
v -2490.7920 460.9737 265.4427
v -2490.7886 460.9728 256.4330
f 241 242 243
v -2500.2984 455.3914 256.4297
v -2490.8011 455.3548 265.4431
v -2490.7977 455.3539 256.4334
f 244 245 246

g building_ID_060C6FEB-A294-474C-AA25-1F584CC7DD73
v -2404.1190 438.2550 261.9557
v -2400.4670 438.2652 261.9570
v -2404.2575 438.4224 261.9556
f 247 248 249
v -2404.3790 438.6017 261.9556
v -2404.2575 438.4224 261.9556
v -2400.3326 438.4398 261.9571
f 250 251 252
v -2404.3790 438.6017 261.9556
v -2400.1125 438.8223 261.9571
v -2404.5750 438.9882 261.9555
f 253 254 255
v -2400.6184 438.1096 261.9570
v -2404.1190 438.2550 261.9557
v -2403.8018 437.9601 261.9558
f 256 257 258
v -2401.9661 437.4662 261.9565
v -2402.6151 437.4650 261.9563
v -2402.1822 437.4468 261.9565
f 259 260 261
v -2403.0379 437.5581 261.9561
v -2401.3407 437.6385 261.9568
v -2403.4384 437.7251 261.9560
f 262 263 264
v -2402.6151 437.4650 261.9563
v -2401.9661 437.4662 261.9565
v -2403.0379 437.5581 261.9561
f 265 266 267
v -2400.9591 437.8415 261.9569
v -2403.8018 437.9601 261.9558
v -2403.4384 437.7251 261.9560
f 268 269 270
v -2400.0290 439.0261 261.9572
v -2404.6989 439.4036 261.9554
v -2404.5750 438.9882 261.9555
f 271 272 273
v -2413.9781 441.4934 261.9517
v -2415.2062 443.3137 261.9511
v -2415.1613 439.5796 261.9514
f 274 275 276
v -2415.2062 443.3137 261.9511
v -2416.8436 445.0500 261.9504
v -2416.8453 443.2951 261.9505
f 277 278 279
v -2409.1924 445.1415 261.9533
v -2416.8436 445.0500 261.9504
v -2415.2062 443.3137 261.9511
f 280 281 282
v -2413.9781 441.4934 261.9517
v -2415.1613 439.5796 261.9514
v -2413.9843 439.5635 261.9519
f 283 284 285
v -2399.9159 439.4517 261.9572
v -2404.7478 439.8336 261.9553
v -2404.6989 439.4036 261.9554
f 286 287 288
v -2409.1924 445.1415 261.9533
v -2413.9781 441.4934 261.9517
v -2404.7424 441.4636 261.9552
f 289 290 291
v -2401.8655 444.0368 261.9561
v -2409.1924 445.1415 261.9533
v -2404.7424 441.4636 261.9552
f 292 293 294
v -2415.2062 443.3137 261.9511
v -2413.9781 441.4934 261.9517
v -2409.1924 445.1415 261.9533
f 295 296 297
v -2404.7424 441.4636 261.9552
v -2404.7478 439.8336 261.9553
v -2400.0414 440.7540 261.9570
f 298 299 300
v -2403.0379 437.5581 261.9561
v -2401.9661 437.4662 261.9565
v -2401.5439 437.5621 261.9567
f 301 302 303
v -2403.4384 437.7251 261.9560
v -2401.3407 437.6385 261.9568
v -2400.9591 437.8415 261.9569
f 304 305 306
v -2400.6184 438.1096 261.9570
v -2400.4670 438.2652 261.9570
v -2404.1190 438.2550 261.9557
f 307 308 309
v -2400.6184 438.1096 261.9570
v -2403.8018 437.9601 261.9558
v -2400.9591 437.8415 261.9569
f 310 311 312
v -2404.2575 438.4224 261.9556
v -2400.4670 438.2652 261.9570
v -2400.3326 438.4398 261.9571
f 313 314 315
v -2400.1125 438.8223 261.9571
v -2400.0290 439.0261 261.9572
v -2404.5750 438.9882 261.9555
f 316 317 318
v -2399.8807 439.8916 261.9572
v -2404.7478 439.8336 261.9553
v -2399.9159 439.4517 261.9572
f 319 320 321
v -2404.6989 439.4036 261.9554
v -2400.0290 439.0261 261.9572
v -2399.9159 439.4517 261.9572
f 322 323 324
v -2400.3326 438.4398 261.9571
v -2400.1125 438.8223 261.9571
v -2404.3790 438.6017 261.9556
f 325 326 327
v -2399.8807 439.8916 261.9572
v -2399.9225 440.3297 261.9571
v -2404.7478 439.8336 261.9553
f 328 329 330
v -2401.3725 442.1576 261.9564
v -2401.5783 442.2371 261.9564
v -2404.7424 441.4636 261.9552
f 331 332 333
v -2409.1924 445.1415 261.9533
v -2401.8655 444.0368 261.9561
v -2401.9055 445.1379 261.9560
f 334 335 336
v -2401.5773 443.7311 261.9563
v -2401.8655 444.0368 261.9561
v -2404.7424 441.4636 261.9552
f 337 338 339
v -2401.5773 443.7311 261.9563
v -2404.7424 441.4636 261.9552
v -2401.5783 442.2371 261.9564
f 340 341 342
v -2404.7424 441.4636 261.9552
v -2400.2333 441.1516 261.9569
v -2400.4913 441.5082 261.9568
f 343 344 345
v -2400.4913 441.5082 261.9568
v -2400.6439 441.6686 261.9567
v -2404.7424 441.4636 261.9552
f 346 347 348
v -2404.7424 441.4636 261.9552
v -2400.9861 441.9455 261.9566
v -2401.3725 442.1576 261.9564
f 349 350 351
v -2404.7424 441.4636 261.9552
v -2400.6439 441.6686 261.9567
v -2400.9861 441.9455 261.9566
f 352 353 354
v -2400.2333 441.1516 261.9569
v -2404.7424 441.4636 261.9552
v -2400.0414 440.7540 261.9570
f 355 356 357
v -2404.7478 439.8336 261.9553
v -2399.9225 440.3297 261.9571
v -2400.0414 440.7540 261.9570
f 358 359 360
v -2401.5439 437.5621 261.9567
v -2401.3407 437.6385 261.9568
v -2403.0379 437.5581 261.9561
f 361 362 363
v -2409.1902 445.1409 255.8745
v -2409.1924 445.1415 261.9533
v -2401.9055 445.1379 261.9560
f 364 365 366
v -2416.8413 445.0495 255.8716
v -2416.8436 445.0500 261.9504
v -2409.1924 445.1415 261.9533
f 367 368 369
v -2416.8430 443.2945 255.8717
v -2416.8453 443.2951 261.9505
v -2416.8436 445.0500 261.9504
f 370 371 372
v -2415.2040 443.3131 255.8723
v -2415.2062 443.3137 261.9511
v -2416.8453 443.2951 261.9505
f 373 374 375
v -2415.1590 439.5790 255.8726
v -2415.1613 439.5796 261.9514
v -2415.2062 443.3137 261.9511
f 376 377 378
v -2413.9821 439.5628 255.8731
v -2413.9843 439.5635 261.9519
v -2415.1613 439.5796 261.9514
f 379 380 381
v -2413.9759 441.4928 255.8729
v -2413.9781 441.4934 261.9517
v -2413.9843 439.5635 261.9519
f 382 383 384
v -2404.7401 441.4631 255.8764
v -2404.7424 441.4636 261.9552
v -2413.9781 441.4934 261.9517
f 385 386 387
v -2404.7455 439.8331 255.8765
v -2404.7478 439.8336 261.9553
v -2404.7424 441.4636 261.9552
f 388 389 390
v -2404.6966 439.4029 255.8766
v -2404.6989 439.4036 261.9554
v -2404.7478 439.8336 261.9553
f 391 392 393
v -2404.5728 438.9877 255.8767
v -2404.5750 438.9882 261.9555
v -2404.6989 439.4036 261.9554
f 394 395 396
v -2404.3768 438.6011 255.8768
v -2404.3790 438.6017 261.9556
v -2404.5750 438.9882 261.9555
f 397 398 399
v -2404.2553 438.4219 255.8768
v -2404.2575 438.4224 261.9556
v -2404.3790 438.6017 261.9556
f 400 401 402
v -2404.1167 438.2545 255.8769
v -2404.1190 438.2550 261.9557
v -2404.2575 438.4224 261.9556
f 403 404 405
v -2403.7996 437.9596 255.8770
v -2403.8018 437.9601 261.9558
v -2404.1190 438.2550 261.9557
f 406 407 408
v -2403.4362 437.7246 255.8772
v -2403.4384 437.7251 261.9560
v -2403.8018 437.9601 261.9558
f 409 410 411
v -2403.0357 437.5575 255.8773
v -2403.0379 437.5581 261.9561
v -2403.4384 437.7251 261.9560
f 412 413 414
v -2402.6129 437.4644 255.8775
v -2402.6151 437.4650 261.9563
v -2403.0379 437.5581 261.9561
f 415 416 417
v -2402.1800 437.4462 255.8777
v -2402.1822 437.4468 261.9565
v -2402.6151 437.4650 261.9563
f 418 419 420
v -2401.9639 437.4657 255.8777
v -2401.9661 437.4662 261.9565
v -2402.1822 437.4468 261.9565
f 421 422 423
v -2401.5417 437.5615 255.8779
v -2401.5439 437.5621 261.9567
v -2401.9661 437.4662 261.9565
f 424 425 426
v -2401.3384 437.6380 255.8780
v -2401.3407 437.6385 261.9568
v -2401.5439 437.5621 261.9567
f 427 428 429
v -2400.9569 437.8410 255.8781
v -2400.9591 437.8415 261.9569
v -2401.3407 437.6385 261.9568
f 430 431 432
v -2400.6162 438.1090 255.8782
v -2400.6184 438.1096 261.9570
v -2400.9591 437.8415 261.9569
f 433 434 435
v -2400.4648 438.2646 255.8782
v -2400.4670 438.2652 261.9570
v -2400.6184 438.1096 261.9570
f 436 437 438
v -2400.3303 438.4393 255.8783
v -2400.3326 438.4398 261.9571
v -2400.4670 438.2652 261.9570
f 439 440 441
v -2400.1103 438.8216 255.8783
v -2400.1125 438.8223 261.9571
v -2400.3326 438.4398 261.9571
f 442 443 444
v -2400.0268 439.0254 255.8784
v -2400.0290 439.0261 261.9572
v -2400.1125 438.8223 261.9571
f 445 446 447
v -2399.9136 439.4511 255.8784
v -2399.9159 439.4517 261.9572
v -2400.0290 439.0261 261.9572
f 448 449 450
v -2399.8785 439.8910 255.8784
v -2399.8807 439.8916 261.9572
v -2399.9159 439.4517 261.9572
f 451 452 453
v -2399.9203 440.3291 255.8783
v -2399.9225 440.3297 261.9571
v -2399.8807 439.8916 261.9572
f 454 455 456
v -2400.0391 440.7535 255.8782
v -2400.0414 440.7540 261.9570
v -2399.9225 440.3297 261.9571
f 457 458 459
v -2400.2311 441.1509 255.8781
v -2400.2333 441.1516 261.9569
v -2400.0414 440.7540 261.9570
f 460 461 462
v -2400.4891 441.5076 255.8780
v -2400.4913 441.5082 261.9568
v -2400.2333 441.1516 261.9569
f 463 464 465
v -2400.6417 441.6680 255.8779
v -2400.6439 441.6686 261.9567
v -2400.4913 441.5082 261.9568
f 466 467 468
v -2400.9839 441.9450 255.8778
v -2400.9861 441.9455 261.9566
v -2400.6439 441.6686 261.9567
f 469 470 471
v -2401.3703 442.1570 255.8776
v -2401.3725 442.1576 261.9564
v -2400.9861 441.9455 261.9566
f 472 473 474
v -2401.5761 442.2365 255.8776
v -2401.5783 442.2371 261.9564
v -2401.3725 442.1576 261.9564
f 475 476 477
v -2401.5751 443.7305 255.8775
v -2401.5773 443.7311 261.9563
v -2401.5783 442.2371 261.9564
f 478 479 480
v -2401.8633 444.0363 255.8773
v -2401.8655 444.0368 261.9561
v -2401.5773 443.7311 261.9563
f 481 482 483
v -2401.9033 445.1374 255.8772
v -2401.9055 445.1379 261.9560
v -2401.8655 444.0368 261.9561
f 484 485 486
v -2416.8430 443.2945 255.8717
v -2416.8413 445.0495 255.8716
v -2415.2040 443.3131 255.8723
f 487 488 489
v -2409.1902 445.1409 255.8745
v -2415.2040 443.3131 255.8723
v -2416.8413 445.0495 255.8716
f 490 491 492
v -2413.9759 441.4928 255.8729
v -2413.9821 439.5628 255.8731
v -2415.1590 439.5790 255.8726
f 493 494 495
v -2413.9759 441.4928 255.8729
v -2415.1590 439.5790 255.8726
v -2415.2040 443.3131 255.8723
f 496 497 498
v -2404.7401 441.4631 255.8764
v -2413.9759 441.4928 255.8729
v -2409.1902 445.1409 255.8745
f 499 500 501
v -2415.2040 443.3131 255.8723
v -2409.1902 445.1409 255.8745
v -2413.9759 441.4928 255.8729
f 502 503 504
v -2404.6966 439.4029 255.8766
v -2400.0268 439.0254 255.8784
v -2404.5728 438.9877 255.8767
f 505 506 507
v -2404.6966 439.4029 255.8766
v -2404.7455 439.8331 255.8765
v -2399.9136 439.4511 255.8784
f 508 509 510
v -2404.7401 441.4631 255.8764
v -2409.1902 445.1409 255.8745
v -2401.8633 444.0363 255.8773
f 511 512 513
v -2404.1167 438.2545 255.8769
v -2404.2553 438.4219 255.8768
v -2400.4648 438.2646 255.8782
f 514 515 516
v -2400.9569 437.8410 255.8781
v -2403.4362 437.7246 255.8772
v -2403.7996 437.9596 255.8770
f 517 518 519
v -2400.6162 438.1090 255.8782
v -2403.7996 437.9596 255.8770
v -2404.1167 438.2545 255.8769
f 520 521 522
v -2404.3768 438.6011 255.8768
v -2400.3303 438.4393 255.8783
v -2404.2553 438.4219 255.8768
f 523 524 525
v -2401.5417 437.5615 255.8779
v -2401.9639 437.4657 255.8777
v -2403.0357 437.5575 255.8773
f 526 527 528
v -2402.1800 437.4462 255.8777
v -2402.6129 437.4644 255.8775
v -2401.9639 437.4657 255.8777
f 529 530 531
v -2403.0357 437.5575 255.8773
v -2401.9639 437.4657 255.8777
v -2402.6129 437.4644 255.8775
f 532 533 534
v -2403.4362 437.7246 255.8772
v -2401.3384 437.6380 255.8780
v -2403.0357 437.5575 255.8773
f 535 536 537
v -2404.5728 438.9877 255.8767
v -2400.1103 438.8216 255.8783
v -2404.3768 438.6011 255.8768
f 538 539 540
v -2400.0391 440.7535 255.8782
v -2404.7455 439.8331 255.8765
v -2404.7401 441.4631 255.8764
f 541 542 543
v -2409.1902 445.1409 255.8745
v -2401.9033 445.1374 255.8772
v -2401.8633 444.0363 255.8773
f 544 545 546
v -2404.7401 441.4631 255.8764
v -2401.3703 442.1570 255.8776
v -2400.9839 441.9450 255.8778
f 547 548 549
v -2401.5751 443.7305 255.8775
v -2401.5761 442.2365 255.8776
v -2404.7401 441.4631 255.8764
f 550 551 552
v -2401.3703 442.1570 255.8776
v -2404.7401 441.4631 255.8764
v -2401.5761 442.2365 255.8776
f 553 554 555
v -2400.6417 441.6680 255.8779
v -2400.4891 441.5076 255.8780
v -2404.7401 441.4631 255.8764
f 556 557 558
v -2400.0391 440.7535 255.8782
v -2404.7401 441.4631 255.8764
v -2400.2311 441.1509 255.8781
f 559 560 561
v -2404.7401 441.4631 255.8764
v -2400.4891 441.5076 255.8780
v -2400.2311 441.1509 255.8781
f 562 563 564
v -2400.9839 441.9450 255.8778
v -2400.6417 441.6680 255.8779
v -2404.7401 441.4631 255.8764
f 565 566 567
v -2404.7455 439.8331 255.8765
v -2400.0391 440.7535 255.8782
v -2399.9203 440.3291 255.8783
f 568 569 570
v -2400.6162 438.1090 255.8782
v -2400.9569 437.8410 255.8781
v -2403.7996 437.9596 255.8770
f 571 572 573
v -2401.5417 437.5615 255.8779
v -2403.0357 437.5575 255.8773
v -2401.3384 437.6380 255.8780
f 574 575 576
v -2401.3384 437.6380 255.8780
v -2403.4362 437.7246 255.8772
v -2400.9569 437.8410 255.8781
f 577 578 579
v -2400.6162 438.1090 255.8782
v -2404.1167 438.2545 255.8769
v -2400.4648 438.2646 255.8782
f 580 581 582
v -2399.9136 439.4511 255.8784
v -2400.0268 439.0254 255.8784
v -2404.6966 439.4029 255.8766
f 583 584 585
v -2400.0268 439.0254 255.8784
v -2400.1103 438.8216 255.8783
v -2404.5728 438.9877 255.8767
f 586 587 588
v -2404.2553 438.4219 255.8768
v -2400.3303 438.4393 255.8783
v -2400.4648 438.2646 255.8782
f 589 590 591
v -2404.3768 438.6011 255.8768
v -2400.1103 438.8216 255.8783
v -2400.3303 438.4393 255.8783
f 592 593 594
v -2404.7455 439.8331 255.8765
v -2399.8785 439.8910 255.8784
v -2399.9136 439.4511 255.8784
f 595 596 597
v -2404.7455 439.8331 255.8765
v -2399.9203 440.3291 255.8783
v -2399.8785 439.8910 255.8784
f 598 599 600
v -2401.5751 443.7305 255.8775
v -2404.7401 441.4631 255.8764
v -2401.8633 444.0363 255.8773
f 601 602 603
v -2409.1902 445.1409 255.8745
v -2401.9055 445.1379 261.9560
v -2401.9033 445.1374 255.8772
f 604 605 606
v -2416.8413 445.0495 255.8716
v -2409.1924 445.1415 261.9533
v -2409.1902 445.1409 255.8745
f 607 608 609
v -2416.8430 443.2945 255.8717
v -2416.8436 445.0500 261.9504
v -2416.8413 445.0495 255.8716
f 610 611 612
v -2415.2040 443.3131 255.8723
v -2416.8453 443.2951 261.9505
v -2416.8430 443.2945 255.8717
f 613 614 615
v -2415.1590 439.5790 255.8726
v -2415.2062 443.3137 261.9511
v -2415.2040 443.3131 255.8723
f 616 617 618
v -2413.9821 439.5628 255.8731
v -2415.1613 439.5796 261.9514
v -2415.1590 439.5790 255.8726
f 619 620 621
v -2413.9759 441.4928 255.8729
v -2413.9843 439.5635 261.9519
v -2413.9821 439.5628 255.8731
f 622 623 624
v -2404.7401 441.4631 255.8764
v -2413.9781 441.4934 261.9517
v -2413.9759 441.4928 255.8729
f 625 626 627
v -2404.7455 439.8331 255.8765
v -2404.7424 441.4636 261.9552
v -2404.7401 441.4631 255.8764
f 628 629 630
v -2404.6966 439.4029 255.8766
v -2404.7478 439.8336 261.9553
v -2404.7455 439.8331 255.8765
f 631 632 633
v -2404.5728 438.9877 255.8767
v -2404.6989 439.4036 261.9554
v -2404.6966 439.4029 255.8766
f 634 635 636
v -2404.3768 438.6011 255.8768
v -2404.5750 438.9882 261.9555
v -2404.5728 438.9877 255.8767
f 637 638 639
v -2404.2553 438.4219 255.8768
v -2404.3790 438.6017 261.9556
v -2404.3768 438.6011 255.8768
f 640 641 642
v -2404.1167 438.2545 255.8769
v -2404.2575 438.4224 261.9556
v -2404.2553 438.4219 255.8768
f 643 644 645
v -2403.7996 437.9596 255.8770
v -2404.1190 438.2550 261.9557
v -2404.1167 438.2545 255.8769
f 646 647 648
v -2403.4362 437.7246 255.8772
v -2403.8018 437.9601 261.9558
v -2403.7996 437.9596 255.8770
f 649 650 651
v -2403.0357 437.5575 255.8773
v -2403.4384 437.7251 261.9560
v -2403.4362 437.7246 255.8772
f 652 653 654
v -2402.6129 437.4644 255.8775
v -2403.0379 437.5581 261.9561
v -2403.0357 437.5575 255.8773
f 655 656 657
v -2402.1800 437.4462 255.8777
v -2402.6151 437.4650 261.9563
v -2402.6129 437.4644 255.8775
f 658 659 660
v -2401.9639 437.4657 255.8777
v -2402.1822 437.4468 261.9565
v -2402.1800 437.4462 255.8777
f 661 662 663
v -2401.5417 437.5615 255.8779
v -2401.9661 437.4662 261.9565
v -2401.9639 437.4657 255.8777
f 664 665 666
v -2401.3384 437.6380 255.8780
v -2401.5439 437.5621 261.9567
v -2401.5417 437.5615 255.8779
f 667 668 669
v -2400.9569 437.8410 255.8781
v -2401.3407 437.6385 261.9568
v -2401.3384 437.6380 255.8780
f 670 671 672
v -2400.6162 438.1090 255.8782
v -2400.9591 437.8415 261.9569
v -2400.9569 437.8410 255.8781
f 673 674 675
v -2400.4648 438.2646 255.8782
v -2400.6184 438.1096 261.9570
v -2400.6162 438.1090 255.8782
f 676 677 678
v -2400.3303 438.4393 255.8783
v -2400.4670 438.2652 261.9570
v -2400.4648 438.2646 255.8782
f 679 680 681
v -2400.1103 438.8216 255.8783
v -2400.3326 438.4398 261.9571
v -2400.3303 438.4393 255.8783
f 682 683 684
v -2400.0268 439.0254 255.8784
v -2400.1125 438.8223 261.9571
v -2400.1103 438.8216 255.8783
f 685 686 687
v -2399.9136 439.4511 255.8784
v -2400.0290 439.0261 261.9572
v -2400.0268 439.0254 255.8784
f 688 689 690
v -2399.8785 439.8910 255.8784
v -2399.9159 439.4517 261.9572
v -2399.9136 439.4511 255.8784
f 691 692 693
v -2399.9203 440.3291 255.8783
v -2399.8807 439.8916 261.9572
v -2399.8785 439.8910 255.8784
f 694 695 696
v -2400.0391 440.7535 255.8782
v -2399.9225 440.3297 261.9571
v -2399.9203 440.3291 255.8783
f 697 698 699
v -2400.2311 441.1509 255.8781
v -2400.0414 440.7540 261.9570
v -2400.0391 440.7535 255.8782
f 700 701 702
v -2400.4891 441.5076 255.8780
v -2400.2333 441.1516 261.9569
v -2400.2311 441.1509 255.8781
f 703 704 705
v -2400.6417 441.6680 255.8779
v -2400.4913 441.5082 261.9568
v -2400.4891 441.5076 255.8780
f 706 707 708
v -2400.9839 441.9450 255.8778
v -2400.6439 441.6686 261.9567
v -2400.6417 441.6680 255.8779
f 709 710 711
v -2401.3703 442.1570 255.8776
v -2400.9861 441.9455 261.9566
v -2400.9839 441.9450 255.8778
f 712 713 714
v -2401.5761 442.2365 255.8776
v -2401.3725 442.1576 261.9564
v -2401.3703 442.1570 255.8776
f 715 716 717
v -2401.5751 443.7305 255.8775
v -2401.5783 442.2371 261.9564
v -2401.5761 442.2365 255.8776
f 718 719 720
v -2401.8633 444.0363 255.8773
v -2401.5773 443.7311 261.9563
v -2401.5751 443.7305 255.8775
f 721 722 723
v -2401.9033 445.1374 255.8772
v -2401.8655 444.0368 261.9561
v -2401.8633 444.0363 255.8773
f 724 725 726

g building_ID_335EC59C-2A3E-45C7-800E-4D471DFF4AAC
v -2328.5364 441.0790 261.6527
v -2328.6088 442.8102 261.6525
v -2328.6785 437.3164 261.6529
f 727 728 729
v -2294.7518 440.7543 261.6650
v -2328.5364 441.0790 261.6527
v -2328.6785 437.3164 261.6529
f 730 731 732
v -2294.7518 440.7543 261.6650
v -2328.6785 437.3164 261.6529
v -2294.5399 436.9868 261.6654
f 733 734 735
v -2328.6088 442.8102 261.6525
v -2328.5364 441.0790 261.6527
v -2328.5208 442.8089 261.6526
f 736 737 738
v -2294.5399 436.9868 261.6654
v -2294.4861 442.4816 261.6650
v -2294.7518 440.7543 261.6650
f 739 740 741
v -2294.7351 442.4842 261.6649
v -2294.7518 440.7543 261.6650
v -2294.4861 442.4816 261.6650
f 742 743 744
v -2294.5379 436.9863 256.0986
v -2294.5399 436.9868 261.6654
v -2328.6785 437.3164 261.6529
f 745 746 747
v -2294.4842 442.4811 256.0982
v -2328.6766 437.3159 256.0862
v -2328.6068 442.8097 256.0858
f 748 749 750
v -2328.6766 437.3159 256.0862
v -2294.4842 442.4811 256.0982
v -2294.5379 436.9863 256.0986
f 751 752 753
v -2328.6091 442.8102 262.4155
v -2328.5210 442.8090 262.4156
v -2328.4907 446.2888 262.4923
f 754 755 756
v -2328.5210 442.8090 262.4156
v -2328.5367 441.0790 262.3777
v -2294.7520 440.7543 262.3899
f 757 758 759
v -2328.4907 446.2888 262.4923
v -2328.5210 442.8090 262.4156
v -2294.7031 445.9632 262.5046
f 760 761 762
v -2328.5647 446.2901 262.4923
v -2328.6091 442.8102 262.4155
v -2328.4907 446.2888 262.4923
f 763 764 765
v -2328.4907 446.2888 262.4923
v -2294.6628 450.1980 262.5983
v -2328.4534 450.5227 262.5860
f 766 767 768
v -2294.7520 440.7543 262.3899
v -2294.7354 442.4843 262.4278
v -2328.5210 442.8090 262.4156
f 769 770 771
v -2294.4532 445.9605 262.5047
v -2294.7354 442.4843 262.4278
v -2294.4864 442.4816 262.4279
f 772 773 774
v -2328.5210 442.8090 262.4156
v -2294.7354 442.4843 262.4278
v -2294.7031 445.9632 262.5046
f 775 776 777
v -2294.6628 450.1980 262.5983
v -2328.4907 446.2888 262.4923
v -2294.7031 445.9632 262.5046
f 778 779 780
v -2294.7354 442.4843 262.4278
v -2294.4532 445.9605 262.5047
v -2294.7031 445.9632 262.5046
f 781 782 783
v -2294.6626 450.1980 262.1674
v -2324.2294 450.4824 262.1566
v -2328.4534 450.5227 262.5860
f 784 785 786
v -2328.4533 450.5227 262.1550
v -2328.4534 450.5227 262.5860
v -2324.2294 450.4824 262.1566
f 787 788 789
v -2294.6628 450.1980 262.5983
v -2294.6626 450.1980 262.1674
v -2328.4534 450.5227 262.5860
f 790 791 792
v -2328.4907 446.2888 262.4923
v -2328.4533 450.5227 262.1550
v -2328.4907 446.2888 262.3713
f 793 794 795
v -2328.4533 450.5227 262.1550
v -2328.4907 446.2888 262.4923
v -2328.4534 450.5227 262.5860
f 796 797 798
v -2294.6628 450.1980 262.5983
v -2294.7031 445.9632 262.5046
v -2294.7031 445.9632 262.3837
f 799 800 801
v -2294.7031 445.9632 262.3837
v -2294.6976 446.4932 262.3566
v -2294.6628 450.1980 262.5983
f 802 803 804
v -2328.6069 442.8097 256.1448
v -2294.4842 442.4811 256.1572
v -2328.6068 442.8097 256.0858
f 805 806 807
v -2328.5208 442.8089 261.6526
v -2328.5210 442.8090 262.4156
v -2328.6091 442.8102 262.4155
f 808 809 810
v -2328.5208 442.8089 261.6526
v -2328.6091 442.8102 262.4155
v -2328.6088 442.8102 261.6525
f 811 812 813
v -2328.5210 442.8090 262.4156
v -2328.5208 442.8089 261.6526
v -2328.5364 441.0790 261.6527
f 814 815 816
v -2294.7520 440.7543 262.3899
v -2328.5364 441.0790 261.6527
v -2294.7518 440.7543 261.6650
f 817 818 819
v -2294.7520 440.7543 262.3899
v -2294.7351 442.4842 261.6649
v -2294.7354 442.4843 262.4278
f 820 821 822
v -2294.7520 440.7543 262.3899
v -2294.7518 440.7543 261.6650
v -2294.7351 442.4842 261.6649
f 823 824 825
v -2294.7351 442.4842 261.6649
v -2294.4864 442.4816 262.4279
v -2294.7354 442.4843 262.4278
f 826 827 828
v -2344.3016 453.2525 264.8060
v -2332.9090 446.4840 264.9136
v -2334.6030 453.1854 264.8125
f 829 830 831
v -2344.3492 446.3347 264.9094
v -2332.9090 446.4840 264.9136
v -2344.3016 453.2525 264.8060
f 832 833 834
v -2332.9999 453.5961 264.8071
v -2334.6030 453.1854 264.8125
v -2332.9090 446.4840 264.9136
f 835 836 837
v -2334.5999 453.5753 264.8065
v -2334.6030 453.1854 264.8125
v -2332.9999 453.5961 264.8071
f 838 839 840
v -2332.9090 446.4840 264.9136
v -2332.9693 451.2428 262.1183
v -2332.9999 453.5961 264.8071
f 841 842 843
v -2332.9999 453.5961 264.8071
v -2332.9693 451.2428 262.1183
v -2332.9988 453.5959 261.9982
f 844 845 846
v -2332.9967 453.5952 256.0465
v -2332.9968 453.5952 256.1475
v -2332.9058 446.4832 256.0470
f 847 848 849
v -2332.9435 449.2837 262.2185
v -2332.9693 451.2428 262.1183
v -2332.9090 446.4840 264.9136
f 850 851 852
v -2332.9090 446.4840 264.9136
v -2332.9058 446.4832 256.0470
v -2332.9435 449.2837 262.2185
f 853 854 855
v -2332.9414 449.2832 256.1478
v -2332.9058 446.4832 256.0470
v -2332.9968 453.5952 256.1475
f 856 857 858
v -2332.9414 449.2832 256.1478
v -2332.9435 449.2837 262.2185
v -2332.9058 446.4832 256.0470
f 859 860 861
v -2332.9968 453.5952 256.1475
v -2334.5968 453.5745 256.0459
v -2334.5969 453.5746 256.1469
f 862 863 864
v -2332.9967 453.5952 256.0465
v -2334.5968 453.5745 256.0459
v -2332.9968 453.5952 256.1475
f 865 866 867
v -2344.2985 453.2516 256.0424
v -2344.3460 446.3339 256.0427
v -2344.3016 453.2525 264.8060
f 868 869 870
v -2332.9058 446.4832 256.0470
v -2332.9090 446.4840 264.9136
v -2344.3460 446.3339 256.0427
f 871 872 873
v -2344.3460 446.3339 256.0427
v -2334.5998 453.1846 256.0459
v -2332.9058 446.4832 256.0470
f 874 875 876
v -2344.2985 453.2516 256.0424
v -2334.5998 453.1846 256.0459
v -2344.3460 446.3339 256.0427
f 877 878 879
v -2332.9058 446.4832 256.0470
v -2334.5998 453.1846 256.0459
v -2332.9967 453.5952 256.0465
f 880 881 882
v -2332.9967 453.5952 256.0465
v -2334.5998 453.1846 256.0459
v -2334.5968 453.5745 256.0459
f 883 884 885
v -2334.5649 458.5788 260.3443
v -2334.5654 458.5789 261.7443
v -2296.1522 458.4798 261.7443
f 886 887 888
v -2282.8936 458.4447 256.1652
v -2334.5634 458.5784 256.1465
v -2282.8955 458.4452 261.7440
f 889 890 891
v -2332.3754 449.2776 256.1480
v -2332.3553 450.8225 256.1479
v -2332.3574 450.8232 262.1396
f 892 893 894
v -2332.3574 450.8232 262.1396
v -2328.5064 450.8126 259.1441
v -2328.5074 450.8129 262.1400
f 895 896 897
v -2332.3553 450.8225 256.1479
v -2328.5053 450.8122 256.1493
v -2328.5064 450.8126 259.1441
f 898 899 900
v -2332.3553 450.8225 256.1479
v -2328.5064 450.8126 259.1441
v -2332.3574 450.8232 262.1396
f 901 902 903
v -2294.2700 445.9587 259.2729
v -2294.2625 448.3414 256.1619
v -2294.2710 445.9590 262.3838
f 904 905 906
v -2294.2710 445.9590 262.3838
v -2294.2625 448.3414 256.1619
v -2294.2592 450.7248 262.1405
f 907 908 909
v -2294.2700 445.9587 259.2729
v -2294.2689 445.9584 256.1620
v -2294.2673 446.5544 256.1620
f 910 911 912
v -2282.9674 450.6950 256.1657
v -2282.9694 450.6955 262.1405
v -2287.8173 450.7086 262.1398
f 913 914 915
v -2294.2592 450.7248 262.1405
v -2294.2572 450.7243 256.1617
v -2287.8173 450.7086 262.1398
f 916 917 918
v -2282.8936 458.4447 256.1652
v -2282.8955 458.4452 261.7440
v -2282.9674 450.6950 256.1657
f 919 920 921
v -2334.1989 453.5801 261.9997
v -2332.9999 453.5961 264.8071
v -2332.9988 453.5959 261.9982
f 922 923 924
v -2334.6006 453.1847 258.2378
v -2334.5998 453.1846 256.0459
v -2344.3016 453.2525 264.8060
f 925 926 927
v -2344.3016 453.2525 264.8060
v -2334.5998 453.1846 256.0459
v -2344.2985 453.2516 256.0424
f 928 929 930
v -2332.3754 449.2776 256.1480
v -2332.3775 449.2783 262.2187
v -2332.9435 449.2837 262.2185
f 931 932 933
v -2328.4907 446.2888 262.3713
v -2328.5647 446.2901 262.3713
v -2328.5647 446.2901 262.4923
f 934 935 936
v -2294.4531 445.9605 262.3838
v -2294.7031 445.9632 262.3837
v -2294.7031 445.9632 262.5046
f 937 938 939
v -2294.4531 445.9605 262.3838
v -2294.2700 445.9587 259.2729
v -2294.2710 445.9590 262.3838
f 940 941 942
v -2294.4531 445.9605 262.3838
v -2294.4509 445.9600 256.1570
v -2294.2700 445.9587 259.2729
f 943 944 945
v -2294.2700 445.9587 259.2729
v -2294.4509 445.9600 256.1570
v -2294.2689 445.9584 256.1620
f 946 947 948
v -2332.9435 449.2837 262.2185
v -2332.3775 449.2783 262.2187
v -2332.9693 451.2428 262.1183
f 949 950 951
v -2332.3574 450.8232 262.1396
v -2332.9693 451.2428 262.1183
v -2332.3775 449.2783 262.2187
f 952 953 954
v -2328.4533 450.5227 262.1550
v -2328.5647 446.2901 262.3713
v -2328.4907 446.2888 262.3713
f 955 956 957
v -2328.4533 450.5227 262.1550
v -2328.5074 450.8129 262.1400
v -2328.5647 446.2901 262.3713
f 958 959 960
v -2334.5654 458.5789 261.7443
v -2334.5989 453.5751 261.9996
v -2334.1989 453.5801 261.9997
f 961 962 963
v -2324.2294 450.4824 262.1566
v -2332.9988 453.5959 261.9982
v -2332.9693 451.2428 262.1183
f 964 965 966
v -2334.5654 458.5789 261.7443
v -2334.1989 453.5801 261.9997
v -2332.9988 453.5959 261.9982
f 967 968 969
v -2296.1522 458.4798 261.7443
v -2334.5654 458.5789 261.7443
v -2332.9988 453.5959 261.9982
f 970 971 972
v -2324.2294 450.4824 262.1566
v -2328.5074 450.8129 262.1400
v -2328.4533 450.5227 262.1550
f 973 974 975
v -2324.2294 450.4824 262.1566
v -2332.9693 451.2428 262.1183
v -2328.5074 450.8129 262.1400
f 976 977 978
v -2294.6626 450.1980 262.1674
v -2296.1522 458.4798 261.7443
v -2332.9988 453.5959 261.9982
f 979 980 981
v -2328.5074 450.8129 262.1400
v -2332.9693 451.2428 262.1183
v -2332.3574 450.8232 262.1396
f 982 983 984
v -2294.6626 450.1980 262.1674
v -2332.9988 453.5959 261.9982
v -2324.2294 450.4824 262.1566
f 985 986 987
v -2294.6626 450.1980 262.1674
v -2294.6976 446.4932 262.3566
v -2294.2710 445.9590 262.3838
f 988 989 990
v -2294.4531 445.9605 262.3838
v -2294.2710 445.9590 262.3838
v -2294.6976 446.4932 262.3566
f 991 992 993
v -2294.6976 446.4932 262.3566
v -2294.7031 445.9632 262.3837
v -2294.4531 445.9605 262.3838
f 994 995 996
v -2294.6626 450.1980 262.1674
v -2294.2592 450.7248 262.1405
v -2296.1522 458.4798 261.7443
f 997 998 999
v -2294.2710 445.9590 262.3838
v -2294.2592 450.7248 262.1405
v -2294.6626 450.1980 262.1674
f 1000 1001 1002
v -2287.8173 450.7086 262.1398
v -2282.9694 450.6955 262.1405
v -2282.8955 458.4452 261.7440
f 1003 1004 1005
v -2287.8173 450.7086 262.1398
v -2282.8955 458.4452 261.7440
v -2296.1522 458.4798 261.7443
f 1006 1007 1008
v -2294.2592 450.7248 262.1405
v -2287.8173 450.7086 262.1398
v -2296.1522 458.4798 261.7443
f 1009 1010 1011
v -2294.4864 442.4816 262.4279
v -2294.4531 445.9605 262.3838
v -2294.4532 445.9605 262.5047
f 1012 1013 1014
v -2294.4509 445.9600 256.1570
v -2294.4531 445.9605 262.3838
v -2294.4861 442.4816 261.6650
f 1015 1016 1017
v -2294.4531 445.9605 262.3838
v -2294.4864 442.4816 262.4279
v -2294.4861 442.4816 261.6650
f 1018 1019 1020
v -2294.5379 436.9863 256.0986
v -2294.4842 442.4811 256.0982
v -2294.4842 442.4811 256.1572
f 1021 1022 1023
v -2294.4842 442.4811 256.1572
v -2294.5399 436.9868 261.6654
v -2294.5379 436.9863 256.0986
f 1024 1025 1026
v -2294.5399 436.9868 261.6654
v -2294.4842 442.4811 256.1572
v -2294.4861 442.4816 261.6650
f 1027 1028 1029
v -2294.4509 445.9600 256.1570
v -2294.4861 442.4816 261.6650
v -2294.4842 442.4811 256.1572
f 1030 1031 1032
v -2334.5989 453.5751 261.9996
v -2334.6030 453.1854 264.8125
v -2334.5999 453.5753 264.8065
f 1033 1034 1035
v -2334.6014 453.1850 260.4287
v -2334.6030 453.1854 264.8125
v -2334.5989 453.5751 261.9996
f 1036 1037 1038
v -2334.5969 453.5746 256.1469
v -2334.5998 453.1846 256.0459
v -2334.6006 453.1847 258.2378
f 1039 1040 1041
v -2334.6006 453.1847 258.2378
v -2334.6014 453.1850 260.4287
v -2334.5644 458.5786 258.9454
f 1042 1043 1044
v -2334.6014 453.1850 260.4287
v -2334.5989 453.5751 261.9996
v -2334.5649 458.5788 260.3443
f 1045 1046 1047
v -2334.6014 453.1850 260.4287
v -2334.5649 458.5788 260.3443
v -2334.5644 458.5786 258.9454
f 1048 1049 1050
v -2334.6006 453.1847 258.2378
v -2334.5644 458.5786 258.9454
v -2334.5969 453.5746 256.1469
f 1051 1052 1053
v -2334.5644 458.5786 258.9454
v -2334.5634 458.5784 256.1465
v -2334.5969 453.5746 256.1469
f 1054 1055 1056
v -2334.5969 453.5746 256.1469
v -2334.5968 453.5745 256.0459
v -2334.5998 453.1846 256.0459
f 1057 1058 1059
v -2334.5654 458.5789 261.7443
v -2334.5649 458.5788 260.3443
v -2334.5989 453.5751 261.9996
f 1060 1061 1062
v -2328.5647 446.2901 262.3713
v -2328.6088 442.8102 261.6525
v -2328.6091 442.8102 262.4155
f 1063 1064 1065
v -2328.6069 442.8097 256.1448
v -2328.6766 437.3159 256.0862
v -2328.6785 437.3164 261.6529
f 1066 1067 1068
v -2328.6766 437.3159 256.0862
v -2328.6069 442.8097 256.1448
v -2328.6068 442.8097 256.0858
f 1069 1070 1071
v -2328.6088 442.8102 261.6525
v -2328.5625 446.2894 256.1446
v -2328.6069 442.8097 256.1448
f 1072 1073 1074
v -2328.6088 442.8102 261.6525
v -2328.6069 442.8097 256.1448
v -2328.6785 437.3164 261.6529
f 1075 1076 1077
v -2328.5647 446.2901 262.3713
v -2328.5064 450.8126 259.1441
v -2328.6088 442.8102 261.6525
f 1078 1079 1080
v -2328.5647 446.2901 262.4923
v -2328.5647 446.2901 262.3713
v -2328.6091 442.8102 262.4155
f 1081 1082 1083
v -2328.5074 450.8129 262.1400
v -2328.5064 450.8126 259.1441
v -2328.5647 446.2901 262.3713
f 1084 1085 1086
v -2328.5625 446.2894 256.1446
v -2328.5064 450.8126 259.1441
v -2328.5053 450.8122 256.1493
f 1087 1088 1089
v -2328.5064 450.8126 259.1441
v -2328.5625 446.2894 256.1446
v -2328.6088 442.8102 261.6525
f 1090 1091 1092
v -2332.9968 453.5952 256.1475
v -2334.5969 453.5746 256.1469
v -2334.5634 458.5784 256.1465
f 1093 1094 1095
v -2334.5634 458.5784 256.1465
v -2328.5053 450.8122 256.1493
v -2332.9968 453.5952 256.1475
f 1096 1097 1098
v -2332.3754 449.2776 256.1480
v -2332.9414 449.2832 256.1478
v -2332.3553 450.8225 256.1479
f 1099 1100 1101
v -2332.9968 453.5952 256.1475
v -2332.3553 450.8225 256.1479
v -2332.9414 449.2832 256.1478
f 1102 1103 1104
v -2328.5053 450.8122 256.1493
v -2332.3553 450.8225 256.1479
v -2332.9968 453.5952 256.1475
f 1105 1106 1107
v -2328.5625 446.2894 256.1446
v -2328.5053 450.8122 256.1493
v -2294.2625 448.3414 256.1619
f 1108 1109 1110
v -2294.4509 445.9600 256.1570
v -2328.6069 442.8097 256.1448
v -2328.5625 446.2894 256.1446
f 1111 1112 1113
v -2282.8936 458.4447 256.1652
v -2294.2572 450.7243 256.1617
v -2334.5634 458.5784 256.1465
f 1114 1115 1116
v -2328.5053 450.8122 256.1493
v -2334.5634 458.5784 256.1465
v -2294.2572 450.7243 256.1617
f 1117 1118 1119
v -2282.8936 458.4447 256.1652
v -2282.9674 450.6950 256.1657
v -2288.8313 450.7097 256.1636
f 1120 1121 1122
v -2294.2625 448.3414 256.1619
v -2328.5053 450.8122 256.1493
v -2294.2572 450.7243 256.1617
f 1123 1124 1125
v -2294.4842 442.4811 256.1572
v -2328.6069 442.8097 256.1448
v -2294.4509 445.9600 256.1570
f 1126 1127 1128
v -2294.2673 446.5544 256.1620
v -2294.2689 445.9584 256.1620
v -2294.4509 445.9600 256.1570
f 1129 1130 1131
v -2294.2673 446.5544 256.1620
v -2294.4509 445.9600 256.1570
v -2328.5625 446.2894 256.1446
f 1132 1133 1134
v -2294.2625 448.3414 256.1619
v -2294.2673 446.5544 256.1620
v -2328.5625 446.2894 256.1446
f 1135 1136 1137
v -2288.8313 450.7097 256.1636
v -2294.2572 450.7243 256.1617
v -2282.8936 458.4447 256.1652
f 1138 1139 1140
v -2294.5379 436.9863 256.0986
v -2328.6785 437.3164 261.6529
v -2328.6766 437.3159 256.0862
f 1141 1142 1143
v -2294.6626 450.1980 262.1674
v -2294.6628 450.1980 262.5983
v -2294.6976 446.4932 262.3566
f 1144 1145 1146
v -2294.4842 442.4811 256.1572
v -2294.4842 442.4811 256.0982
v -2328.6068 442.8097 256.0858
f 1147 1148 1149
v -2328.5210 442.8090 262.4156
v -2328.5364 441.0790 261.6527
v -2328.5367 441.0790 262.3777
f 1150 1151 1152
v -2294.7520 440.7543 262.3899
v -2328.5367 441.0790 262.3777
v -2328.5364 441.0790 261.6527
f 1153 1154 1155
v -2294.7351 442.4842 261.6649
v -2294.4861 442.4816 261.6650
v -2294.4864 442.4816 262.4279
f 1156 1157 1158
v -2344.3460 446.3339 256.0427
v -2344.3492 446.3347 264.9094
v -2344.3016 453.2525 264.8060
f 1159 1160 1161
v -2332.9090 446.4840 264.9136
v -2344.3492 446.3347 264.9094
v -2344.3460 446.3339 256.0427
f 1162 1163 1164
v -2334.5634 458.5784 256.1465
v -2296.1522 458.4798 261.7443
v -2282.8955 458.4452 261.7440
f 1165 1166 1167
v -2334.5649 458.5788 260.3443
v -2296.1522 458.4798 261.7443
v -2334.5644 458.5786 258.9454
f 1168 1169 1170
v -2296.1522 458.4798 261.7443
v -2334.5634 458.5784 256.1465
v -2334.5644 458.5786 258.9454
f 1171 1172 1173
v -2332.3754 449.2776 256.1480
v -2332.3574 450.8232 262.1396
v -2332.3775 449.2783 262.2187
f 1174 1175 1176
v -2294.2673 446.5544 256.1620
v -2294.2625 448.3414 256.1619
v -2294.2700 445.9587 259.2729
f 1177 1178 1179
v -2294.2625 448.3414 256.1619
v -2294.2572 450.7243 256.1617
v -2294.2592 450.7248 262.1405
f 1180 1181 1182
v -2282.9674 450.6950 256.1657
v -2287.8173 450.7086 262.1398
v -2288.8313 450.7097 256.1636
f 1183 1184 1185
v -2294.2572 450.7243 256.1617
v -2288.8313 450.7097 256.1636
v -2287.8173 450.7086 262.1398
f 1186 1187 1188
v -2282.8955 458.4452 261.7440
v -2282.9694 450.6955 262.1405
v -2282.9674 450.6950 256.1657
f 1189 1190 1191
v -2334.1989 453.5801 261.9997
v -2334.5989 453.5751 261.9996
v -2332.9999 453.5961 264.8071
f 1192 1193 1194
v -2332.9999 453.5961 264.8071
v -2334.5989 453.5751 261.9996
v -2334.5999 453.5753 264.8065
f 1195 1196 1197
v -2334.6014 453.1850 260.4287
v -2344.3016 453.2525 264.8060
v -2334.6030 453.1854 264.8125
f 1198 1199 1200
v -2334.6006 453.1847 258.2378
v -2344.3016 453.2525 264.8060
v -2334.6014 453.1850 260.4287
f 1201 1202 1203
v -2332.3754 449.2776 256.1480
v -2332.9435 449.2837 262.2185
v -2332.9414 449.2832 256.1478
f 1204 1205 1206
v -2328.4907 446.2888 262.4923
v -2328.4907 446.2888 262.3713
v -2328.5647 446.2901 262.4923
f 1207 1208 1209
v -2294.7031 445.9632 262.5046
v -2294.4532 445.9605 262.5047
v -2294.4531 445.9605 262.3838
f 1210 1211 1212

g building_ID_F0A1689C-C663-4C25-B9DB-4F6422D5AF26
v -2264.5055 225.2664 263.8508
v -2279.9271 258.5773 264.6060
v -2280.0255 225.2831 264.6103
f 1213 1214 1215
v -2279.9271 258.5773 264.6060
v -2264.4096 309.4099 263.8474
v -2279.7765 309.4593 264.5989
f 1216 1217 1218
v -2279.9271 258.5773 264.6060
v -2264.5055 225.2664 263.8508
v -2264.4096 309.4099 263.8474
f 1219 1220 1221
v -2279.7738 309.4587 256.7681
v -2279.7765 309.4593 264.5989
v -2264.4072 309.4095 256.7737
f 1222 1223 1224
v -2279.7765 309.4593 264.5989
v -2264.4096 309.4099 263.8474
v -2264.4072 309.4095 256.7737
f 1225 1226 1227
v -2279.7738 309.4587 256.7681
v -2279.9271 258.5773 264.6060
v -2279.7765 309.4593 264.5989
f 1228 1229 1230
v -2280.0228 225.2826 256.7716
v -2280.0255 225.2831 264.6103
v -2279.9271 258.5773 264.6060
f 1231 1232 1233
v -2279.9271 258.5773 264.6060
v -2279.9050 265.0687 256.7701
v -2280.0228 225.2826 256.7716
f 1234 1235 1236
v -2279.7738 309.4587 256.7681
v -2279.9050 265.0687 256.7701
v -2279.9271 258.5773 264.6060
f 1237 1238 1239
v -2264.5031 225.2660 256.7771
v -2264.5055 225.2664 263.8508
v -2280.0228 225.2826 256.7716
f 1240 1241 1242
v -2280.0255 225.2831 264.6103
v -2280.0228 225.2826 256.7716
v -2264.5055 225.2664 263.8508
f 1243 1244 1245
v -2264.5055 225.2664 263.8508
v -2264.4072 309.4095 256.7737
v -2264.4096 309.4099 263.8474
f 1246 1247 1248
v -2264.5055 225.2664 263.8508
v -2264.5031 225.2660 256.7771
v -2264.4072 309.4095 256.7737
f 1249 1250 1251
v -2279.9050 265.0687 256.7701
v -2264.5031 225.2660 256.7771
v -2280.0228 225.2826 256.7716
f 1252 1253 1254
v -2264.5031 225.2660 256.7771
v -2279.7738 309.4587 256.7681
v -2264.4072 309.4095 256.7737
f 1255 1256 1257
v -2279.7738 309.4587 256.7681
v -2264.5031 225.2660 256.7771
v -2279.9050 265.0687 256.7701
f 1258 1259 1260
