# Grid Center: 2614600, 1263800
# Global Anchor: 7.64977475454284, 47.53283995868075, 0.0

g building_ID_E9723BAF-892E-4972-BEDA-01C919E16DEC
v -1110.8711 -726.8987 286.4419
v -1105.4049 -730.5344 286.4424
v -1103.6731 -727.9760 286.4430
f 1 2 3
v -1103.6731 -727.9760 286.4430
v -1109.1151 -724.2925 286.4425
v -1110.8711 -726.8987 286.4419
f 4 5 6
v -1109.1143 -724.2920 281.3877
v -1109.1151 -724.2925 286.4425
v -1103.6731 -727.9760 286.4430
f 7 8 9
v -1110.8703 -726.8983 281.3871
v -1110.8711 -726.8987 286.4419
v -1109.1151 -724.2925 286.4425
f 10 11 12
v -1105.4040 -730.5339 281.3876
v -1105.4049 -730.5344 286.4424
v -1110.8711 -726.8987 286.4419
f 13 14 15
v -1103.6722 -727.9755 281.3882
v -1103.6731 -727.9760 286.4430
v -1105.4049 -730.5344 286.4424
f 16 17 18
v -1105.4040 -730.5339 281.3876
v -1110.8703 -726.8983 281.3871
v -1109.1143 -724.2920 281.3877
f 19 20 21
v -1109.1143 -724.2920 281.3877
v -1103.6722 -727.9755 281.3882
v -1105.4040 -730.5339 281.3876
f 22 23 24
v -1109.1143 -724.2920 281.3877
v -1103.6731 -727.9760 286.4430
v -1103.6722 -727.9755 281.3882
f 25 26 27
v -1110.8703 -726.8983 281.3871
v -1109.1151 -724.2925 286.4425
v -1109.1143 -724.2920 281.3877
f 28 29 30
v -1105.4040 -730.5339 281.3876
v -1110.8711 -726.8987 286.4419
v -1110.8703 -726.8983 281.3871
f 31 32 33
v -1103.6722 -727.9755 281.3882
v -1105.4049 -730.5344 286.4424
v -1105.4040 -730.5339 281.3876
f 34 35 36

g building_ID_6EF80B8D-07D1-41B4-974F-254C0FFA3A79
v -1104.6879 -718.3438 290.4778
v -1105.1833 -717.7654 290.5708
v -1105.2958 -717.9351 290.4788
f 37 38 39
v -1102.2267 -717.1175 291.5653
v -1104.6879 -718.3438 290.4778
v -1101.4162 -717.6606 291.5654
f 40 41 42
v -1105.1833 -717.7654 290.5708
v -1104.6879 -718.3438 290.4778
v -1102.2267 -717.1175 291.5653
f 43 44 45
v -1105.1833 -717.7654 290.5708
v -1102.8070 -714.2908 290.5896
v -1102.8549 -714.2587 290.5626
f 46 47 48
v -1102.8070 -714.2908 290.5896
v -1105.1833 -717.7654 290.5708
v -1102.2267 -717.1175 291.5653
f 49 50 51
v -1106.9499 -722.1007 290.5780
v -1107.0633 -722.2693 290.4860
v -1104.4281 -724.0254 290.4902
f 52 53 54
v -1104.4281 -724.0254 290.4902
v -1100.7388 -720.7995 292.6401
v -1106.9499 -722.1007 290.5780
f 55 56 57
v -1095.8766 -724.0615 292.6406
v -1104.4281 -724.0254 290.4902
v -1099.3492 -727.4100 290.4996
f 58 59 60
v -1095.8766 -724.0615 292.6406
v -1099.3492 -727.4100 290.4996
v -1095.3412 -726.9659 291.6813
f 61 62 63
v -1096.7778 -729.1229 290.5039
v -1095.3412 -726.9659 291.6813
v -1099.3492 -727.4100 290.4996
f 64 65 66
v -1100.7388 -720.7995 292.6401
v -1104.4281 -724.0254 290.4902
v -1095.8766 -724.0615 292.6406
f 67 68 69
v -1095.8766 -724.0615 292.6406
v -1095.3412 -726.9659 291.6813
v -1094.3643 -725.5004 291.6837
f 70 71 72
v -1091.8465 -723.3432 291.2714
v -1094.3643 -725.5004 291.6837
v -1093.6156 -725.9994 291.2657
f 73 74 75
v -1095.8766 -724.0615 292.6406
v -1094.3643 -725.5004 291.6837
v -1091.8465 -723.3432 291.2714
f 76 77 78
v -1104.4281 -724.0254 290.4902
v -1107.0633 -722.2693 290.4860
v -1096.7768 -729.1223 283.8752
f 79 80 81
v -1101.9271 -725.6903 281.6648
v -1096.7764 -729.1221 281.6653
v -1096.7768 -729.1223 283.8752
f 82 83 84
v -1096.7768 -729.1223 283.8752
v -1107.0633 -722.2693 290.4860
v -1107.0630 -722.2692 288.2760
f 85 86 87
v -1107.0630 -722.2692 288.2760
v -1101.9271 -725.6903 281.6648
v -1096.7768 -729.1223 283.8752
f 88 89 90
v -1101.9271 -725.6903 281.6648
v -1107.0630 -722.2692 288.2760
v -1107.0623 -722.2688 283.8562
f 91 92 93
v -1107.0623 -722.2688 283.8562
v -1107.0620 -722.2685 281.6643
v -1101.9271 -725.6903 281.6648
f 94 95 96
v -1093.6156 -725.9994 291.2657
v -1094.3631 -725.4998 284.1710
v -1094.3627 -725.4996 281.6661
f 97 98 99
v -1093.6141 -725.9986 281.6661
v -1093.6156 -725.9994 291.2657
v -1094.3627 -725.4996 281.6661
f 100 101 102
v -1091.0458 -722.1436 281.6670
v -1095.6894 -719.0502 281.6666
v -1091.0471 -722.1443 290.5767
f 103 104 105
v -1091.0471 -722.1443 290.5767
v -1095.6894 -719.0502 281.6666
v -1095.6908 -719.0509 290.5853
f 106 107 108
v -1095.1013 -718.1664 290.0725
v -1095.6908 -719.0509 290.5853
v -1095.6894 -719.0502 281.6666
f 109 110 111
v -1091.8450 -723.3423 281.6668
v -1093.6141 -725.9986 281.6661
v -1094.3627 -725.4996 281.6661
f 112 113 114
v -1095.3396 -726.9650 281.6657
v -1101.9271 -725.6903 281.6648
v -1094.3627 -725.4996 281.6661
f 115 116 117
v -1096.7764 -729.1221 281.6653
v -1101.9271 -725.6903 281.6648
v -1095.3396 -726.9650 281.6657
f 118 119 120
v -1104.5067 -718.4634 281.6651
v -1095.6894 -719.0502 281.6666
v -1094.3627 -725.4996 281.6661
f 121 122 123
v -1095.6894 -719.0502 281.6666
v -1091.0458 -722.1436 281.6670
v -1094.3627 -725.4996 281.6661
f 124 125 126
v -1098.2842 -716.0292 281.6665
v -1095.1001 -718.1657 281.6668
v -1095.6894 -719.0502 281.6666
f 127 128 129
v -1094.3627 -725.4996 281.6661
v -1091.0458 -722.1436 281.6670
v -1091.8450 -723.3423 281.6668
f 130 131 132
v -1101.9271 -725.6903 281.6648
v -1104.5067 -718.4634 281.6651
v -1094.3627 -725.4996 281.6661
f 133 134 135
v -1104.5067 -718.4634 281.6651
v -1101.9271 -725.6903 281.6648
v -1105.0067 -719.2071 281.6650
f 136 137 138
v -1095.6894 -719.0502 281.6666
v -1104.5067 -718.4634 281.6651
v -1098.2842 -716.0292 281.6665
f 139 140 141
v -1101.9271 -725.6903 281.6648
v -1107.0620 -722.2685 281.6643
v -1105.0067 -719.2071 281.6650
f 142 143 144
v -1102.0619 -714.7821 281.6660
v -1098.2842 -716.0292 281.6665
v -1104.5067 -718.4634 281.6651
f 145 146 147
v -1101.4715 -713.8906 281.6662
v -1098.2842 -716.0292 281.6665
v -1102.0619 -714.7821 281.6660
f 148 149 150
v -1102.8056 -714.2901 281.6659
v -1105.2943 -717.9344 281.6651
v -1102.8534 -714.2579 281.6659
f 151 152 153
v -1105.2943 -717.9344 281.6651
v -1102.8056 -714.2901 281.6659
v -1102.0619 -714.7821 281.6660
f 154 155 156
v -1102.0619 -714.7821 281.6660
v -1104.5067 -718.4634 281.6651
v -1105.2943 -717.9344 281.6651
f 157 158 159
v -1102.0623 -714.7822 283.8949
v -1102.0633 -714.7829 290.5867
v -1101.4728 -713.8914 290.0719
f 160 161 162
v -1102.0619 -714.7821 281.6660
v -1101.4728 -713.8914 290.0719
v -1101.4715 -713.8906 281.6662
f 163 164 165
v -1104.5081 -718.4642 290.5788
v -1100.7388 -720.7995 292.6401
v -1101.4162 -717.6606 291.5654
f 166 167 168
v -1100.7388 -720.7995 292.6401
v -1104.5081 -718.4642 290.5788
v -1106.9499 -722.1007 290.5780
f 169 170 171
v -1101.4162 -717.6606 291.5654
v -1104.6879 -718.3438 290.4778
v -1104.5081 -718.4642 290.5788
f 172 173 174
v -1098.2856 -716.0299 290.0722
v -1101.4715 -713.8906 281.6662
v -1101.4728 -713.8914 290.0719
f 175 176 177
v -1095.1001 -718.1657 281.6668
v -1098.2856 -716.0299 290.0722
v -1095.1013 -718.1664 290.0725
f 178 179 180
v -1098.2856 -716.0299 290.0722
v -1095.1001 -718.1657 281.6668
v -1098.2842 -716.0292 281.6665
f 181 182 183
v -1101.4715 -713.8906 281.6662
v -1098.2856 -716.0299 290.0722
v -1098.2842 -716.0292 281.6665
f 184 185 186
v -1095.1013 -718.1664 290.0725
v -1098.2856 -716.0299 290.0722
v -1095.6908 -719.0509 290.5853
f 187 188 189
v -1095.6908 -719.0509 290.5853
v -1091.8465 -723.3432 291.2714
v -1091.0471 -722.1443 290.5767
f 190 191 192
v -1101.4162 -717.6606 291.5654
v -1095.8766 -724.0615 292.6406
v -1091.8465 -723.3432 291.2714
f 193 194 195
v -1095.6908 -719.0509 290.5853
v -1101.4162 -717.6606 291.5654
v -1091.8465 -723.3432 291.2714
f 196 197 198
v -1095.6908 -719.0509 290.5853
v -1098.2856 -716.0299 290.0722
v -1102.0633 -714.7829 290.5867
f 199 200 201
v -1101.4728 -713.8914 290.0719
v -1102.0633 -714.7829 290.5867
v -1098.2856 -716.0299 290.0722
f 202 203 204
v -1100.7388 -720.7995 292.6401
v -1095.8766 -724.0615 292.6406
v -1101.4162 -717.6606 291.5654
f 205 206 207
v -1102.0633 -714.7829 290.5867
v -1102.2267 -717.1175 291.5653
v -1101.4162 -717.6606 291.5654
f 208 209 210
v -1102.0633 -714.7829 290.5867
v -1101.4162 -717.6606 291.5654
v -1095.6908 -719.0509 290.5853
f 211 212 213
v -1102.2267 -717.1175 291.5653
v -1102.0633 -714.7829 290.5867
v -1102.8070 -714.2908 290.5896
f 214 215 216
v -1102.8548 -714.2586 290.1286
v -1105.2958 -717.9351 290.4788
v -1105.1833 -717.7654 290.5708
f 217 218 219
v -1105.2958 -717.9351 290.4788
v -1102.8548 -714.2586 290.1286
v -1105.2943 -717.9344 281.6651
f 220 221 222
v -1102.8548 -714.2586 290.1286
v -1102.8534 -714.2579 281.6659
v -1105.2943 -717.9344 281.6651
f 223 224 225
v -1102.8549 -714.2587 290.5626
v -1102.8548 -714.2586 290.1286
v -1105.1833 -717.7654 290.5708
f 226 227 228
v -1107.0630 -722.2692 288.2760
v -1105.0067 -719.2071 281.6650
v -1107.0623 -722.2688 283.8562
f 229 230 231
v -1107.0623 -722.2688 283.8562
v -1105.0067 -719.2071 281.6650
v -1107.0620 -722.2685 281.6643
f 232 233 234
v -1106.9499 -722.1007 290.5780
v -1104.5067 -718.4634 281.6651
v -1107.0630 -722.2692 288.2760
f 235 236 237
v -1107.0630 -722.2692 288.2760
v -1104.5067 -718.4634 281.6651
v -1105.0067 -719.2071 281.6650
f 238 239 240
v -1104.5081 -718.4642 290.5788
v -1104.5067 -718.4634 281.6651
v -1106.9499 -722.1007 290.5780
f 241 242 243
v -1107.0633 -722.2693 290.4860
v -1106.9499 -722.1007 290.5780
v -1107.0630 -722.2692 288.2760
f 244 245 246
v -1094.3639 -725.5003 289.1798
v -1094.3643 -725.5004 291.6837
v -1095.3412 -726.9659 291.6813
f 247 248 249
v -1094.3639 -725.5003 289.1798
v -1096.7768 -729.1223 283.8752
v -1094.3631 -725.4998 284.1710
f 250 251 252
v -1094.3631 -725.4998 284.1710
v -1095.3396 -726.9650 281.6657
v -1094.3627 -725.4996 281.6661
f 253 254 255
v -1094.3639 -725.5003 289.1798
v -1095.3412 -726.9659 291.6813
v -1096.7778 -729.1229 290.5039
f 256 257 258
v -1096.7778 -729.1229 290.5039
v -1096.7768 -729.1223 283.8752
v -1094.3639 -725.5003 289.1798
f 259 260 261
v -1096.7764 -729.1221 281.6653
v -1095.3396 -726.9650 281.6657
v -1096.7768 -729.1223 283.8752
f 262 263 264
v -1096.7768 -729.1223 283.8752
v -1095.3396 -726.9650 281.6657
v -1094.3631 -725.4998 284.1710
f 265 266 267
v -1091.8450 -723.3423 281.6668
v -1091.0458 -722.1436 281.6670
v -1091.0471 -722.1443 290.5767
f 268 269 270
v -1093.6141 -725.9986 281.6661
v -1091.8450 -723.3423 281.6668
v -1093.6156 -725.9994 291.2657
f 271 272 273
v -1091.8465 -723.3432 291.2714
v -1093.6156 -725.9994 291.2657
v -1091.8450 -723.3423 281.6668
f 274 275 276
v -1091.0471 -722.1443 290.5767
v -1091.8465 -723.3432 291.2714
v -1091.8450 -723.3423 281.6668
f 277 278 279
v -1104.5067 -718.4634 281.6651
v -1104.5081 -718.4642 290.5788
v -1104.6879 -718.3438 290.4778
f 280 281 282
v -1104.5067 -718.4634 281.6651
v -1105.2958 -717.9351 290.4788
v -1105.2943 -717.9344 281.6651
f 283 284 285
v -1104.6879 -718.3438 290.4778
v -1105.2958 -717.9351 290.4788
v -1104.5067 -718.4634 281.6651
f 286 287 288
v -1102.8534 -714.2579 281.6659
v -1102.0623 -714.7822 283.8949
v -1102.8056 -714.2901 281.6659
f 289 290 291
v -1102.0619 -714.7821 281.6660
v -1102.8056 -714.2901 281.6659
v -1102.0623 -714.7822 283.8949
f 292 293 294
v -1102.8548 -714.2586 290.1286
v -1102.0623 -714.7822 283.8949
v -1102.8534 -714.2579 281.6659
f 295 296 297
v -1102.8548 -714.2586 290.1286
v -1102.8549 -714.2587 290.5626
v -1102.8070 -714.2908 290.5896
f 298 299 300
v -1102.0623 -714.7822 283.8949
v -1102.8548 -714.2586 290.1286
v -1102.0633 -714.7829 290.5867
f 301 302 303
v -1102.8070 -714.2908 290.5896
v -1102.0633 -714.7829 290.5867
v -1102.8548 -714.2586 290.1286
f 304 305 306
v -1096.7778 -729.1229 290.5039
v -1099.3492 -727.4100 290.4996
v -1096.7768 -729.1223 283.8752
f 307 308 309
v -1104.4281 -724.0254 290.4902
v -1096.7768 -729.1223 283.8752
v -1099.3492 -727.4100 290.4996
f 310 311 312
v -1093.6156 -725.9994 291.2657
v -1094.3643 -725.5004 291.6837
v -1094.3639 -725.5003 289.1798
f 313 314 315
v -1094.3631 -725.4998 284.1710
v -1093.6156 -725.9994 291.2657
v -1094.3639 -725.5003 289.1798
f 316 317 318
v -1095.1001 -718.1657 281.6668
v -1095.1013 -718.1664 290.0725
v -1095.6894 -719.0502 281.6666
f 319 320 321
v -1102.0619 -714.7821 281.6660
v -1102.0623 -714.7822 283.8949
v -1101.4728 -713.8914 290.0719
f 322 323 324

g building_ID_464B9065-D412-406C-91A8-E711D756CD1E
v -1113.6360 -740.1953 287.9548
v -1118.2169 -739.8330 287.5670
v -1114.8688 -742.0299 287.5653
f 325 326 327
v -1113.6360 -740.1953 287.9548
v -1116.9630 -737.9644 287.9644
v -1118.2169 -739.8330 287.5670
f 328 329 330
v -1116.9630 -737.9644 287.9644
v -1118.2159 -739.8325 281.6863
v -1118.2169 -739.8330 287.5670
f 331 332 333
v -1118.2159 -739.8325 281.6863
v -1116.9630 -737.9644 287.9644
v -1116.9619 -737.9639 281.6867
f 334 335 336
v -1118.2169 -739.8330 287.5670
v -1114.8678 -742.0295 281.6866
v -1114.8688 -742.0299 287.5653
f 337 338 339
v -1114.8678 -742.0295 281.6866
v -1118.2169 -739.8330 287.5670
v -1118.2159 -739.8325 281.6863
f 340 341 342
v -1113.6350 -740.1948 281.6871
v -1114.8688 -742.0299 287.5653
v -1114.8678 -742.0295 281.6866
f 343 344 345
v -1116.9619 -737.9639 281.6867
v -1113.6350 -740.1948 281.6871
v -1118.2159 -739.8325 281.6863
f 346 347 348
v -1113.6350 -740.1948 281.6871
v -1114.8678 -742.0295 281.6866
v -1118.2159 -739.8325 281.6863
f 349 350 351
v -1113.3792 -734.6498 295.1242
v -1113.8469 -729.1153 292.2299
v -1116.2295 -732.6708 292.1821
f 352 353 354
v -1118.4834 -736.0317 292.1363
v -1113.3792 -734.6498 295.1242
v -1116.2295 -732.6708 292.1821
f 355 356 357
v -1116.2295 -732.6708 292.1821
v -1117.5038 -732.5073 291.2009
v -1118.4834 -736.0317 292.1363
f 358 359 360
v -1113.3792 -734.6498 295.1242
v -1118.4834 -736.0317 292.1363
v -1118.6813 -736.3272 292.1322
f 361 362 363
v -1119.1183 -734.9150 291.1673
v -1118.4834 -736.0317 292.1363
v -1117.5038 -732.5073 291.2009
f 364 365 366
v -1112.5267 -729.3988 291.9111
v -1113.3792 -734.6498 295.1242
v -1107.1178 -732.4312 291.6377
f 367 368 369
v -1112.2987 -729.0533 291.6372
v -1112.5267 -729.3988 291.9111
v -1107.1178 -732.4312 291.6377
f 370 371 372
v -1113.8469 -729.1153 292.2299
v -1112.5267 -729.3988 291.9111
v -1113.5687 -728.7010 291.9000
f 373 374 375
v -1113.3792 -734.6498 295.1242
v -1112.5267 -729.3988 291.9111
v -1113.8469 -729.1153 292.2299
f 376 377 378
v -1107.0794 -733.0503 291.3176
v -1106.8033 -732.6360 291.3127
v -1107.1178 -732.4312 291.6377
f 379 380 381
v -1106.9116 -733.1638 291.1426
v -1107.0794 -733.0503 291.3176
v -1111.0675 -737.9246 291.9044
f 382 383 384
v -1113.3792 -734.6498 295.1242
v -1107.0794 -733.0503 291.3176
v -1107.1178 -732.4312 291.6377
f 385 386 387
v -1110.3347 -738.4155 291.1414
v -1106.9116 -733.1638 291.1426
v -1111.0675 -737.9246 291.9044
f 388 389 390
v -1112.7934 -740.4949 291.9408
v -1111.0675 -737.9246 291.9044
v -1113.3792 -734.6498 295.1242
f 391 392 393
v -1107.0794 -733.0503 291.3176
v -1113.3792 -734.6498 295.1242
v -1111.0675 -737.9246 291.9044
f 394 395 396
v -1118.6813 -736.3272 292.1322
v -1118.9061 -736.6626 291.8511
v -1116.9636 -737.9648 291.8303
f 397 398 399
v -1116.9636 -737.9648 291.8303
v -1113.3792 -734.6498 295.1242
v -1118.6813 -736.3272 292.1322
f 400 401 402
v -1113.3792 -734.6498 295.1242
v -1116.9636 -737.9648 291.8303
v -1113.6366 -740.1956 291.7947
f 403 404 405
v -1113.3792 -734.6498 295.1242
v -1113.6366 -740.1956 291.7947
v -1112.7934 -740.4949 291.9408
f 406 407 408
v -1112.9169 -740.6787 291.7867
v -1112.7934 -740.4949 291.9408
v -1113.6366 -740.1956 291.7947
f 409 410 411
v -1117.5023 -732.5064 281.5313
v -1117.5038 -732.5073 291.2009
v -1116.2285 -732.6704 286.8573
f 412 413 414
v -1116.2285 -732.6704 286.8573
v -1117.5038 -732.5073 291.2009
v -1116.2290 -732.6706 289.5192
f 415 416 417
v -1116.2295 -732.6708 292.1821
v -1116.2290 -732.6706 289.5192
v -1117.5038 -732.5073 291.2009
f 418 419 420
v -1117.5023 -732.5064 281.5313
v -1116.2285 -732.6704 286.8573
v -1116.2277 -732.6699 281.5315
f 421 422 423
v -1119.1183 -734.9150 291.1673
v -1117.5038 -732.5073 291.2009
v -1117.5023 -732.5064 281.5313
f 424 425 426
v -1119.1167 -734.9141 281.5307
v -1119.1183 -734.9150 291.1673
v -1117.5023 -732.5064 281.5313
f 427 428 429
v -1118.4834 -736.0317 292.1363
v -1119.1183 -734.9150 291.1673
v -1119.1167 -734.9141 281.5307
f 430 431 432
v -1111.0659 -737.9236 281.5318
v -1110.3332 -738.4147 281.5318
v -1110.3347 -738.4155 291.1414
f 433 434 435
v -1111.0675 -737.9246 291.9044
v -1111.0659 -737.9236 281.5318
v -1110.3347 -738.4155 291.1414
f 436 437 438
v -1111.0659 -737.9236 281.5318
v -1114.3533 -731.7709 281.5319
v -1108.4916 -735.5895 281.5325
f 439 440 441
v -1108.4916 -735.5895 281.5325
v -1110.3332 -738.4147 281.5318
v -1111.0659 -737.9236 281.5318
f 442 443 444
v -1116.2277 -732.6699 281.5315
v -1114.3533 -731.7709 281.5319
v -1111.0659 -737.9236 281.5318
f 445 446 447
v -1113.8452 -729.1143 281.5323
v -1113.5671 -728.7000 281.5324
v -1112.7216 -729.2663 281.5325
f 448 449 450
v -1114.3533 -731.7709 281.5319
v -1116.2277 -732.6699 281.5315
v -1113.8452 -729.1143 281.5323
f 451 452 453
v -1114.3533 -731.7709 281.5319
v -1113.8452 -729.1143 281.5323
v -1112.7216 -729.2663 281.5325
f 454 455 456
v -1116.2277 -732.6699 281.5315
v -1119.1167 -734.9141 281.5307
v -1117.5023 -732.5064 281.5313
f 457 458 459
v -1119.1167 -734.9141 281.5307
v -1116.2277 -732.6699 281.5315
v -1111.0659 -737.9236 281.5318
f 460 461 462
v -1112.9152 -740.6777 281.5311
v -1118.4817 -736.0308 281.5307
v -1111.0659 -737.9236 281.5318
f 463 464 465
v -1112.9152 -740.6777 281.5311
v -1118.6795 -736.3262 281.5306
v -1118.4817 -736.0308 281.5307
f 466 467 468
v -1112.9152 -740.6777 281.5311
v -1118.9044 -736.6616 281.5305
v -1118.6795 -736.3262 281.5306
f 469 470 471
v -1119.1167 -734.9141 281.5307
v -1111.0659 -737.9236 281.5318
v -1118.4817 -736.0308 281.5307
f 472 473 474
v -1110.8703 -726.8983 281.3871
v -1110.8711 -726.8987 286.4419
v -1105.4049 -730.5344 286.4424
f 475 476 477
v -1107.0778 -733.0494 281.3870
v -1106.9101 -733.1629 281.3870
v -1108.4916 -735.5895 281.3865
f 478 479 480
v -1110.8703 -726.8983 281.3871
v -1105.4040 -730.5339 281.3876
v -1107.0778 -733.0494 281.3870
f 481 482 483
v -1107.0778 -733.0494 281.3870
v -1108.4916 -735.5895 281.3865
v -1112.5249 -729.3978 281.3865
f 484 485 486
v -1112.7216 -729.2662 281.3865
v -1112.5249 -729.3978 281.3865
v -1114.3533 -731.7708 281.3859
f 487 488 489
v -1108.4916 -735.5895 281.3865
v -1114.3533 -731.7708 281.3859
v -1112.5249 -729.3978 281.3865
f 490 491 492
v -1107.0778 -733.0494 281.3870
v -1112.5249 -729.3978 281.3865
v -1110.8703 -726.8983 281.3871
f 493 494 495
v -1106.8025 -732.6355 286.4419
v -1110.8711 -726.8987 286.4419
v -1112.2978 -729.0529 286.4414
f 496 497 498
v -1110.8711 -726.8987 286.4419
v -1106.8025 -732.6355 286.4419
v -1105.4049 -730.5344 286.4424
f 499 500 501
v -1114.3533 -731.7708 281.3859
v -1114.3533 -731.7709 281.5319
v -1112.7216 -729.2662 281.3865
f 502 503 504
v -1108.4916 -735.5895 281.3865
v -1108.4916 -735.5895 281.5325
v -1114.3533 -731.7709 281.5319
f 505 506 507
v -1116.2285 -732.6704 286.8573
v -1113.8452 -729.1143 281.5323
v -1116.2277 -732.6699 281.5315
f 508 509 510
v -1113.5687 -728.7010 291.9000
v -1116.2285 -732.6704 286.8573
v -1116.2290 -732.6706 289.5192
f 511 512 513
v -1116.2290 -732.6706 289.5192
v -1113.8469 -729.1153 292.2299
v -1113.5687 -728.7010 291.9000
f 514 515 516
v -1113.8452 -729.1143 281.5323
v -1116.2285 -732.6704 286.8573
v -1113.5671 -728.7000 281.5324
f 517 518 519
v -1113.5671 -728.7000 281.5324
v -1116.2285 -732.6704 286.8573
v -1113.5687 -728.7010 291.9000
f 520 521 522
v -1113.8469 -729.1153 292.2299
v -1116.2290 -732.6706 289.5192
v -1116.2295 -732.6708 292.1821
f 523 524 525
v -1118.6795 -736.3262 281.5306
v -1118.9061 -736.6626 291.8511
v -1118.6813 -736.3272 292.1322
f 526 527 528
v -1118.9061 -736.6626 291.8511
v -1118.6795 -736.3262 281.5306
v -1118.9044 -736.6616 281.5305
f 529 530 531
v -1118.6795 -736.3262 281.5306
v -1118.6813 -736.3272 292.1322
v -1118.4817 -736.0308 281.5307
f 532 533 534
v -1118.4817 -736.0308 281.5307
v -1118.6813 -736.3272 292.1322
v -1118.4834 -736.0317 292.1363
f 535 536 537
v -1106.8025 -732.6355 286.4419
v -1112.2978 -729.0529 286.4414
v -1106.8033 -732.6360 291.3127
f 538 539 540
v -1112.2987 -729.0533 291.6372
v -1106.8033 -732.6360 291.3127
v -1112.2978 -729.0529 286.4414
f 541 542 543
v -1107.1178 -732.4312 291.6377
v -1106.8033 -732.6360 291.3127
v -1112.2987 -729.0533 291.6372
f 544 545 546
v -1112.2978 -729.0529 286.4414
v -1112.5267 -729.3988 291.9111
v -1112.2987 -729.0533 291.6372
f 547 548 549
v -1112.5249 -729.3978 281.3865
v -1112.5267 -729.3988 291.9111
v -1112.2978 -729.0529 286.4414
f 550 551 552
v -1112.2978 -729.0529 286.4414
v -1110.8703 -726.8983 281.3871
v -1112.5249 -729.3978 281.3865
f 553 554 555
v -1110.8711 -726.8987 286.4419
v -1110.8703 -726.8983 281.3871
v -1112.2978 -729.0529 286.4414
f 556 557 558
v -1113.5687 -728.7010 291.9000
v -1112.7216 -729.2663 281.5325
v -1113.5671 -728.7000 281.5324
f 559 560 561
v -1112.5249 -729.3978 281.3865
v -1112.7216 -729.2663 281.5325
v -1112.5267 -729.3988 291.9111
f 562 563 564
v -1113.5687 -728.7010 291.9000
v -1112.5267 -729.3988 291.9111
v -1112.7216 -729.2663 281.5325
f 565 566 567
v -1112.7216 -729.2662 281.3865
v -1112.7216 -729.2663 281.5325
v -1112.5249 -729.3978 281.3865
f 568 569 570
v -1112.9152 -740.6777 281.5311
v -1111.0659 -737.9236 281.5318
v -1111.0675 -737.9246 291.9044
f 571 572 573
v -1111.0675 -737.9246 291.9044
v -1112.7934 -740.4949 291.9408
v -1112.9152 -740.6777 281.5311
f 574 575 576
v -1112.7934 -740.4949 291.9408
v -1112.9169 -740.6787 291.7867
v -1112.9152 -740.6777 281.5311
f 577 578 579
v -1106.8025 -732.6355 286.4419
v -1105.4040 -730.5339 281.3876
v -1105.4049 -730.5344 286.4424
f 580 581 582
v -1107.0778 -733.0494 281.3870
v -1105.4040 -730.5339 281.3876
v -1106.8025 -732.6355 286.4419
f 583 584 585
v -1106.8025 -732.6355 286.4419
v -1107.0794 -733.0503 291.3176
v -1107.0778 -733.0494 281.3870
f 586 587 588
v -1106.8033 -732.6360 291.3127
v -1107.0794 -733.0503 291.3176
v -1106.8025 -732.6355 286.4419
f 589 590 591
v -1106.9101 -733.1629 281.3870
v -1106.9116 -733.1638 291.1426
v -1108.4916 -735.5895 281.5325
f 592 593 594
v -1110.3347 -738.4155 291.1414
v -1108.4916 -735.5895 281.5325
v -1106.9116 -733.1638 291.1426
f 595 596 597
v -1108.4916 -735.5895 281.5325
v -1108.4916 -735.5895 281.3865
v -1106.9101 -733.1629 281.3870
f 598 599 600
v -1108.4916 -735.5895 281.5325
v -1110.3347 -738.4155 291.1414
v -1110.3332 -738.4147 281.5318
f 601 602 603
v -1107.0778 -733.0494 281.3870
v -1107.0794 -733.0503 291.3176
v -1106.9116 -733.1638 291.1426
f 604 605 606
v -1112.9152 -740.6777 281.5311
v -1112.9169 -740.6787 291.7867
v -1113.6350 -740.1948 281.6871
f 607 608 609
v -1112.9169 -740.6787 291.7867
v -1113.6360 -740.1953 287.9548
v -1113.6350 -740.1948 281.6871
f 610 611 612
v -1113.6360 -740.1953 287.9548
v -1112.9169 -740.6787 291.7867
v -1113.6366 -740.1956 291.7947
f 613 614 615
v -1118.9061 -736.6626 291.8511
v -1116.9630 -737.9644 287.9644
v -1116.9636 -737.9648 291.8303
f 616 617 618
v -1113.6366 -740.1956 291.7947
v -1116.9636 -737.9648 291.8303
v -1116.9630 -737.9644 287.9644
f 619 620 621
v -1116.9619 -737.9639 281.6867
v -1116.9630 -737.9644 287.9644
v -1118.9061 -736.6626 291.8511
f 622 623 624
v -1118.9044 -736.6616 281.5305
v -1116.9619 -737.9639 281.6867
v -1118.9061 -736.6626 291.8511
f 625 626 627
v -1118.9044 -736.6616 281.5305
v -1112.9152 -740.6777 281.5311
v -1116.9619 -737.9639 281.6867
f 628 629 630
v -1112.9152 -740.6777 281.5311
v -1113.6350 -740.1948 281.6871
v -1116.9619 -737.9639 281.6867
f 631 632 633
v -1116.9630 -737.9644 287.9644
v -1113.6360 -740.1953 287.9548
v -1113.6366 -740.1956 291.7947
f 634 635 636
v -1113.6350 -740.1948 281.6871
v -1113.6360 -740.1953 287.9548
v -1114.8688 -742.0299 287.5653
f 637 638 639
v -1118.4817 -736.0308 281.5307
v -1118.4834 -736.0317 292.1363
v -1119.1167 -734.9141 281.5307
f 640 641 642
v -1110.8703 -726.8983 281.3871
v -1105.4049 -730.5344 286.4424
v -1105.4040 -730.5339 281.3876
f 643 644 645
v -1114.3533 -731.7709 281.5319
v -1112.7216 -729.2663 281.5325
v -1112.7216 -729.2662 281.3865
f 646 647 648
v -1108.4916 -735.5895 281.3865
v -1114.3533 -731.7709 281.5319
v -1114.3533 -731.7708 281.3859
f 649 650 651
v -1107.0778 -733.0494 281.3870
v -1106.9116 -733.1638 291.1426
v -1106.9101 -733.1629 281.3870
f 652 653 654

g building_ID_47CF18A7-21D8-49EA-8BB2-B2C69869354E
v -1276.9539 -967.3098 346.9673
v -1280.8314 -969.7374 346.9861
v -1280.2242 -970.7081 347.9310
f 655 656 657
v -1276.3337 -968.3005 347.9321
v -1276.9539 -967.3098 346.9673
v -1280.2242 -970.7081 347.9310
f 658 659 660
v -1279.4713 -971.9101 347.1161
v -1275.5978 -969.4774 347.1342
v -1276.3337 -968.3005 347.9321
f 661 662 663
v -1280.2242 -970.7081 347.9310
v -1279.4713 -971.9101 347.1161
v -1276.3337 -968.3005 347.9321
f 664 665 666
v -1280.8304 -969.7366 341.4293
v -1280.8314 -969.7374 346.9861
v -1276.9539 -967.3098 346.9673
f 667 668 669
v -1276.9539 -967.3098 346.9673
v -1276.9531 -967.3093 342.8004
v -1280.8304 -969.7366 341.4293
f 670 671 672
v -1276.9531 -967.3093 342.8004
v -1276.9529 -967.3090 341.4305
v -1280.8304 -969.7366 341.4293
f 673 674 675
v -1279.4713 -971.9101 347.1161
v -1275.5969 -969.4768 342.8563
v -1275.5978 -969.4774 347.1342
f 676 677 678
v -1279.4713 -971.9101 347.1161
v -1279.4705 -971.9094 342.8382
v -1275.5969 -969.4768 342.8563
f 679 680 681
v -1279.4705 -971.9094 342.8382
v -1279.4702 -971.9093 341.4293
v -1275.5969 -969.4768 342.8563
f 682 683 684
v -1275.5967 -969.4767 341.4304
v -1275.5969 -969.4768 342.8563
v -1279.4702 -971.9093 341.4293
f 685 686 687
v -1280.8304 -969.7366 341.4293
v -1276.9529 -967.3090 341.4305
v -1276.3325 -968.2997 341.4304
f 688 689 690
v -1280.2230 -970.7072 341.4293
v -1276.3325 -968.2997 341.4304
v -1279.4702 -971.9093 341.4293
f 691 692 693
v -1275.5967 -969.4767 341.4304
v -1279.4702 -971.9093 341.4293
v -1276.3325 -968.2997 341.4304
f 694 695 696
v -1280.8304 -969.7366 341.4293
v -1276.3325 -968.2997 341.4304
v -1280.2230 -970.7072 341.4293
f 697 698 699
v -1276.3325 -968.2997 341.4304
v -1276.9531 -967.3093 342.8004
v -1275.5969 -969.4768 342.8563
f 700 701 702
v -1276.9531 -967.3093 342.8004
v -1276.9539 -967.3098 346.9673
v -1275.5969 -969.4768 342.8563
f 703 704 705
v -1276.9531 -967.3093 342.8004
v -1276.3325 -968.2997 341.4304
v -1276.9529 -967.3090 341.4305
f 706 707 708
v -1276.3325 -968.2997 341.4304
v -1275.5969 -969.4768 342.8563
v -1275.5967 -969.4767 341.4304
f 709 710 711
v -1275.5978 -969.4774 347.1342
v -1276.9539 -967.3098 346.9673
v -1276.3337 -968.3005 347.9321
f 712 713 714
v -1275.5969 -969.4768 342.8563
v -1276.9539 -967.3098 346.9673
v -1275.5978 -969.4774 347.1342
f 715 716 717
v -1280.2242 -970.7081 347.9310
v -1280.8314 -969.7374 346.9861
v -1279.4713 -971.9101 347.1161
f 718 719 720
v -1279.4713 -971.9101 347.1161
v -1280.8304 -969.7366 341.4293
v -1279.4705 -971.9094 342.8382
f 721 722 723
v -1279.4713 -971.9101 347.1161
v -1280.8314 -969.7374 346.9861
v -1280.8304 -969.7366 341.4293
f 724 725 726
v -1280.2230 -970.7072 341.4293
v -1279.4702 -971.9093 341.4293
v -1279.4705 -971.9094 342.8382
f 727 728 729
v -1280.8304 -969.7366 341.4293
v -1280.2230 -970.7072 341.4293
v -1279.4705 -971.9094 342.8382
f 730 731 732

g building_ID_D096B7C4-EF18-40F5-9632-0EB5AD51C243
v -1130.1168 -788.0660 291.6289
v -1129.9743 -782.4318 294.7895
v -1132.6133 -786.3994 291.6657
f 733 734 735
v -1129.9743 -782.4318 294.7895
v -1130.1168 -788.0660 291.6289
v -1124.6604 -785.8381 294.7901
f 736 737 738
v -1127.3668 -789.9014 291.5882
v -1124.6604 -785.8381 294.7901
v -1130.1168 -788.0660 291.6289
f 739 740 741
v -1124.8234 -780.3813 292.0338
v -1129.9743 -782.4318 294.7895
v -1124.6604 -785.8381 294.7901
f 742 743 744
v -1122.1941 -782.1364 292.0690
v -1124.8234 -780.3813 292.0338
v -1124.6604 -785.8381 294.7901
f 745 746 747
v -1129.9743 -782.4318 294.7895
v -1124.8234 -780.3813 292.0338
v -1127.4466 -778.6313 291.9976
f 748 749 750
v -1127.3668 -789.9014 291.5882
v -1130.4944 -787.8120 281.1843
v -1127.3661 -789.9011 287.6574
f 751 752 753
v -1127.3651 -789.9004 281.1846
v -1127.3661 -789.9011 287.6574
v -1130.4944 -787.8120 281.1843
f 754 755 756
v -1130.1168 -788.0660 291.6289
v -1132.6133 -786.3994 291.6657
v -1132.6130 -786.3991 289.0448
f 757 758 759
v -1130.4944 -787.8120 281.1843
v -1130.1168 -788.0660 291.6289
v -1132.6130 -786.3991 289.0448
f 760 761 762
v -1130.4944 -787.8120 281.1843
v -1132.6130 -786.3991 289.0448
v -1132.6116 -786.3983 281.1841
f 763 764 765
v -1127.4466 -778.6313 291.9976
v -1124.8234 -780.3813 292.0338
v -1122.1923 -782.1354 281.1864
f 766 767 768
v -1122.1923 -782.1354 281.1864
v -1124.8234 -780.3813 292.0338
v -1122.1934 -782.1360 287.9882
f 769 770 771
v -1132.6116 -786.3983 281.1841
v -1129.9720 -782.4305 281.1850
v -1130.4944 -787.8120 281.1843
f 772 773 774
v -1127.4448 -778.6303 281.1860
v -1130.4944 -787.8120 281.1843
v -1129.9720 -782.4305 281.1850
f 775 776 777
v -1124.6582 -785.8367 281.1856
v -1127.4448 -778.6303 281.1860
v -1122.1923 -782.1354 281.1864
f 778 779 780
v -1127.3651 -789.9004 281.1846
v -1127.4448 -778.6303 281.1860
v -1124.6582 -785.8367 281.1856
f 781 782 783
v -1127.4448 -778.6303 281.1860
v -1127.3651 -789.9004 281.1846
v -1130.4944 -787.8120 281.1843
f 784 785 786
v -1122.1934 -782.1360 287.9882
v -1122.1941 -782.1364 292.0690
v -1124.6604 -785.8381 294.7901
f 787 788 789
v -1124.6582 -785.8367 281.1856
v -1122.1923 -782.1354 281.1864
v -1122.1934 -782.1360 287.9882
f 790 791 792
v -1124.6604 -785.8381 294.7901
v -1127.3661 -789.9011 287.6574
v -1122.1934 -782.1360 287.9882
f 793 794 795
v -1124.6582 -785.8367 281.1856
v -1122.1934 -782.1360 287.9882
v -1127.3661 -789.9011 287.6574
f 796 797 798
v -1127.3651 -789.9004 281.1846
v -1124.6582 -785.8367 281.1856
v -1127.3661 -789.9011 287.6574
f 799 800 801
v -1127.3668 -789.9014 291.5882
v -1127.3661 -789.9011 287.6574
v -1124.6604 -785.8381 294.7901
f 802 803 804
v -1129.9720 -782.4305 281.1850
v -1132.6116 -786.3983 281.1841
v -1132.6130 -786.3991 289.0448
f 805 806 807
v -1129.9720 -782.4305 281.1850
v -1132.6130 -786.3991 289.0448
v -1127.4448 -778.6303 281.1860
f 808 809 810
v -1129.9743 -782.4318 294.7895
v -1127.4457 -778.6308 286.5558
v -1132.6133 -786.3994 291.6657
f 811 812 813
v -1132.6133 -786.3994 291.6657
v -1127.4457 -778.6308 286.5558
v -1127.4448 -778.6303 281.1860
f 814 815 816
v -1129.9743 -782.4318 294.7895
v -1127.4466 -778.6313 291.9976
v -1127.4457 -778.6308 286.5558
f 817 818 819
v -1132.6130 -786.3991 289.0448
v -1132.6133 -786.3994 291.6657
v -1127.4448 -778.6303 281.1860
f 820 821 822
v -1130.4944 -787.8120 281.1843
v -1127.3668 -789.9014 291.5882
v -1130.1168 -788.0660 291.6289
f 823 824 825
v -1122.1923 -782.1354 281.1864
v -1127.4457 -778.6308 286.5558
v -1127.4466 -778.6313 291.9976
f 826 827 828
v -1127.4457 -778.6308 286.5558
v -1122.1923 -782.1354 281.1864
v -1127.4448 -778.6303 281.1860
f 829 830 831
v -1124.8234 -780.3813 292.0338
v -1122.1941 -782.1364 292.0690
v -1122.1934 -782.1360 287.9882
f 832 833 834

g building_ID_1E98BE61-094D-4B5B-A583-2A479B4B4618
v -1132.6133 -786.3994 291.6657
v -1129.9743 -782.4318 294.7895
v -1134.7695 -784.9606 291.6965
f 835 836 837
v -1135.2162 -779.0728 294.7890
v -1137.7881 -782.9455 291.7412
v -1134.7695 -784.9606 291.6965
f 838 839 840
v -1129.9743 -782.4318 294.7895
v -1135.2162 -779.0728 294.7890
v -1134.7695 -784.9606 291.6965
f 841 842 843
v -1129.9743 -782.4318 294.7895
v -1127.4466 -778.6313 291.9976
v -1135.2162 -779.0728 294.7890
f 844 845 846
v -1132.6263 -775.1744 291.9261
v -1135.2162 -779.0728 294.7890
v -1127.4466 -778.6313 291.9976
f 847 848 849
v -1136.1700 -784.0243 285.7785
v -1134.5529 -785.1036 286.0847
v -1134.7695 -784.9606 291.6965
f 850 851 852
v -1132.6129 -786.3991 289.0268
v -1132.6133 -786.3994 291.6657
v -1134.5529 -785.1036 286.0847
f 853 854 855
v -1136.1700 -784.0243 285.7785
v -1132.6116 -786.3983 281.1841
v -1134.5529 -785.1036 286.0847
f 856 857 858
v -1135.1989 -784.6714 281.1838
v -1132.6116 -786.3983 281.1841
v -1136.1700 -784.0243 285.7785
f 859 860 861
v -1137.7881 -782.9455 291.7412
v -1136.1700 -784.0243 285.7785
v -1134.7695 -784.9606 291.6965
f 862 863 864
v -1136.1700 -784.0243 285.7785
v -1137.7881 -782.9455 291.7412
v -1137.7876 -782.9453 289.1013
f 865 866 867
v -1135.1989 -784.6714 281.1838
v -1136.1700 -784.0243 285.7785
v -1137.7863 -782.9444 281.1836
f 868 869 870
v -1132.6263 -775.1744 291.9261
v -1127.4466 -778.6313 291.9976
v -1127.4457 -778.6308 286.5918
f 871 872 873
v -1127.4457 -778.6308 286.5918
v -1127.4452 -778.6305 283.8889
v -1132.6263 -775.1744 291.9261
f 874 875 876
v -1135.2140 -779.0714 281.1845
v -1132.6245 -775.1734 281.1855
v -1127.4448 -778.6303 281.1860
f 877 878 879
v -1135.2140 -779.0714 281.1845
v -1135.1989 -784.6714 281.1838
v -1137.7863 -782.9444 281.1836
f 880 881 882
v -1129.9720 -782.4305 281.1850
v -1135.2140 -779.0714 281.1845
v -1127.4448 -778.6303 281.1860
f 883 884 885
v -1135.2140 -779.0714 281.1845
v -1129.9720 -782.4305 281.1850
v -1135.1989 -784.6714 281.1838
f 886 887 888
v -1129.9720 -782.4305 281.1850
v -1132.6116 -786.3983 281.1841
v -1135.1989 -784.6714 281.1838
f 889 890 891
v -1127.4466 -778.6313 291.9976
v -1129.9743 -782.4318 294.7895
v -1127.4457 -778.6308 286.5918
f 892 893 894
v -1132.6133 -786.3994 291.6657
v -1127.4452 -778.6305 283.8889
v -1127.4457 -778.6308 286.5918
f 895 896 897
v -1132.6133 -786.3994 291.6657
v -1127.4457 -778.6308 286.5918
v -1129.9743 -782.4318 294.7895
f 898 899 900
v -1129.9720 -782.4305 281.1850
v -1132.6129 -786.3991 289.0268
v -1132.6116 -786.3983 281.1841
f 901 902 903
v -1132.6129 -786.3991 289.0268
v -1129.9720 -782.4305 281.1850
v -1127.4452 -778.6305 283.8889
f 904 905 906
v -1127.4452 -778.6305 283.8889
v -1129.9720 -782.4305 281.1850
v -1127.4448 -778.6303 281.1860
f 907 908 909
v -1132.6133 -786.3994 291.6657
v -1132.6129 -786.3991 289.0268
v -1127.4452 -778.6305 283.8889
f 910 911 912
v -1135.2140 -779.0714 281.1845
v -1137.7863 -782.9444 281.1836
v -1137.7876 -782.9453 289.1013
f 913 914 915
v -1135.2140 -779.0714 281.1845
v -1137.7876 -782.9453 289.1013
v -1132.6245 -775.1734 281.1855
f 916 917 918
v -1135.2162 -779.0728 294.7890
v -1132.6254 -775.1740 286.5203
v -1137.7881 -782.9455 291.7412
f 919 920 921
v -1132.6245 -775.1734 281.1855
v -1137.7881 -782.9455 291.7412
v -1132.6254 -775.1740 286.5203
f 922 923 924
v -1132.6263 -775.1744 291.9261
v -1132.6254 -775.1740 286.5203
v -1135.2162 -779.0728 294.7890
f 925 926 927
v -1137.7876 -782.9453 289.1013
v -1137.7881 -782.9455 291.7412
v -1132.6245 -775.1734 281.1855
f 928 929 930
v -1132.6133 -786.3994 291.6657
v -1134.7695 -784.9606 291.6965
v -1134.5529 -785.1036 286.0847
f 931 932 933
v -1134.5529 -785.1036 286.0847
v -1132.6116 -786.3983 281.1841
v -1132.6129 -786.3991 289.0268
f 934 935 936
v -1136.1700 -784.0243 285.7785
v -1137.7876 -782.9453 289.1013
v -1137.7863 -782.9444 281.1836
f 937 938 939
v -1127.4448 -778.6303 281.1860
v -1132.6254 -775.1740 286.5203
v -1132.6263 -775.1744 291.9261
f 940 941 942
v -1132.6254 -775.1740 286.5203
v -1127.4448 -778.6303 281.1860
v -1132.6245 -775.1734 281.1855
f 943 944 945
v -1127.4452 -778.6305 283.8889
v -1127.4448 -778.6303 281.1860
v -1132.6263 -775.1744 291.9261
f 946 947 948

g building_ID_167CFC5C-D88E-4E24-8B58-D4005D587314
v -1141.5702 -775.0008 294.7884
v -1142.9754 -779.3326 291.8997
v -1140.0879 -781.4114 291.7740
f 949 950 951
v -1140.0879 -781.4114 291.7740
v -1135.2162 -779.0728 294.7890
v -1141.5702 -775.0008 294.7884
f 952 953 954
v -1140.0879 -781.4114 291.7740
v -1137.7881 -782.9455 291.7412
v -1135.2162 -779.0728 294.7890
f 955 956 957
v -1140.0879 -781.4114 291.7740
v -1142.9754 -779.3326 291.8997
v -1143.0456 -779.4375 291.8167
f 958 959 960
v -1143.6013 -778.9160 291.9086
v -1141.5702 -775.0008 294.7884
v -1143.9357 -778.6931 291.9136
f 961 962 963
v -1141.5702 -775.0008 294.7884
v -1143.6013 -778.9160 291.9086
v -1142.9754 -779.3326 291.8997
f 964 965 966
v -1132.6263 -775.1744 291.9261
v -1138.5035 -772.6187 292.5493
v -1135.2162 -779.0728 294.7890
f 967 968 969
v -1132.6263 -775.1744 291.9261
v -1137.8728 -771.6725 291.8536
v -1138.5035 -772.6187 292.5493
f 970 971 972
v -1141.5702 -775.0008 294.7884
v -1138.5035 -772.6187 292.5493
v -1139.5826 -771.8999 292.5352
f 973 974 975
v -1135.2162 -779.0728 294.7890
v -1138.5035 -772.6187 292.5493
v -1141.5702 -775.0008 294.7884
f 976 977 978
v -1143.3344 -779.0919 283.8570
v -1142.9736 -779.3316 281.1831
v -1142.9754 -779.3326 291.8997
f 979 980 981
v -1143.9357 -778.6931 291.9136
v -1143.9352 -778.6928 289.2307
v -1143.6013 -778.9160 291.9086
f 982 983 984
v -1143.9352 -778.6928 289.2307
v -1143.9338 -778.6921 281.1830
v -1143.6013 -778.9160 291.9086
f 985 986 987
v -1143.9338 -778.6921 281.1830
v -1143.3344 -779.0919 283.8570
v -1143.6013 -778.9160 291.9086
f 988 989 990
v -1142.9736 -779.3316 281.1831
v -1143.3344 -779.0919 283.8570
v -1143.9338 -778.6921 281.1830
f 991 992 993
v -1142.9754 -779.3326 291.8997
v -1143.0439 -779.4364 281.1831
v -1143.0456 -779.4375 291.8167
f 994 995 996
v -1143.0439 -779.4364 281.1831
v -1142.9754 -779.3326 291.8997
v -1142.9736 -779.3316 281.1831
f 997 998 999
v -1137.7876 -782.9453 289.0823
v -1137.7881 -782.9455 291.7412
v -1140.0879 -781.4114 291.7740
f 1000 1001 1002
v -1140.0879 -781.4114 291.7740
v -1140.7440 -780.9715 281.1833
v -1137.7863 -782.9444 281.1836
f 1003 1004 1005
v -1140.0879 -781.4114 291.7740
v -1143.0456 -779.4375 291.8167
v -1143.0439 -779.4364 281.1831
f 1006 1007 1008
v -1140.0879 -781.4114 291.7740
v -1143.0439 -779.4364 281.1831
v -1140.7440 -780.9715 281.1833
f 1009 1010 1011
v -1135.0439 -773.5595 285.9351
v -1137.8711 -771.6714 281.1850
v -1137.8728 -771.6725 291.8536
f 1012 1013 1014
v -1137.8711 -771.6714 281.1850
v -1135.0439 -773.5595 285.9351
v -1132.6245 -775.1734 281.1855
f 1015 1016 1017
v -1132.6256 -775.1740 287.8983
v -1132.6249 -775.1737 283.8704
v -1135.0439 -773.5595 285.9351
f 1018 1019 1020
v -1135.0439 -773.5595 285.9351
v -1132.6249 -775.1737 283.8704
v -1132.6245 -775.1734 281.1855
f 1021 1022 1023
v -1138.5035 -772.6187 292.5493
v -1137.8728 -771.6725 291.8536
v -1137.8711 -771.6714 281.1850
f 1024 1025 1026
v -1138.5016 -772.6177 281.1847
v -1138.5035 -772.6187 292.5493
v -1137.8711 -771.6714 281.1850
f 1027 1028 1029
v -1135.2140 -779.0714 281.1845
v -1137.7863 -782.9444 281.1836
v -1140.7440 -780.9715 281.1833
f 1030 1031 1032
v -1140.7440 -780.9715 281.1833
v -1141.5680 -774.9995 281.1839
v -1135.2140 -779.0714 281.1845
f 1033 1034 1035
v -1141.5680 -774.9995 281.1839
v -1132.6245 -775.1734 281.1855
v -1135.2140 -779.0714 281.1845
f 1036 1037 1038
v -1142.9736 -779.3316 281.1831
v -1141.5680 -774.9995 281.1839
v -1140.7440 -780.9715 281.1833
f 1039 1040 1041
v -1142.9736 -779.3316 281.1831
v -1143.9338 -778.6921 281.1830
v -1141.5680 -774.9995 281.1839
f 1042 1043 1044
v -1141.5680 -774.9995 281.1839
v -1138.5016 -772.6177 281.1847
v -1132.6245 -775.1734 281.1855
f 1045 1046 1047
v -1138.5016 -772.6177 281.1847
v -1137.8711 -771.6714 281.1850
v -1132.6245 -775.1734 281.1855
f 1048 1049 1050
v -1139.5806 -771.8988 281.1846
v -1138.5016 -772.6177 281.1847
v -1141.5680 -774.9995 281.1839
f 1051 1052 1053
v -1143.0439 -779.4364 281.1831
v -1142.9736 -779.3316 281.1831
v -1140.7440 -780.9715 281.1833
f 1054 1055 1056
v -1132.6256 -775.1740 287.8983
v -1132.6263 -775.1744 291.9261
v -1135.2162 -779.0728 294.7890
f 1057 1058 1059
v -1137.7881 -782.9455 291.7412
v -1132.6249 -775.1737 283.8704
v -1132.6256 -775.1740 287.8983
f 1060 1061 1062
v -1137.7881 -782.9455 291.7412
v -1132.6256 -775.1740 287.8983
v -1135.2162 -779.0728 294.7890
f 1063 1064 1065
v -1132.6249 -775.1737 283.8704
v -1137.7876 -782.9453 289.0823
v -1135.2140 -779.0714 281.1845
f 1066 1067 1068
v -1137.7863 -782.9444 281.1836
v -1135.2140 -779.0714 281.1845
v -1137.7876 -782.9453 289.0823
f 1069 1070 1071
v -1135.2140 -779.0714 281.1845
v -1132.6245 -775.1734 281.1855
v -1132.6249 -775.1737 283.8704
f 1072 1073 1074
v -1137.7881 -782.9455 291.7412
v -1137.7876 -782.9453 289.0823
v -1132.6249 -775.1737 283.8704
f 1075 1076 1077
v -1141.5680 -774.9995 281.1839
v -1143.9338 -778.6921 281.1830
v -1143.9352 -778.6928 289.2307
f 1078 1079 1080
v -1141.5680 -774.9995 281.1839
v -1143.9352 -778.6928 289.2307
v -1139.5806 -771.8988 281.1846
f 1081 1082 1083
v -1141.5702 -775.0008 294.7884
v -1139.5816 -771.8993 286.8534
v -1143.9357 -778.6931 291.9136
f 1084 1085 1086
v -1139.5816 -771.8993 286.8534
v -1139.5806 -771.8988 281.1846
v -1143.9352 -778.6928 289.2307
f 1087 1088 1089
v -1141.5702 -775.0008 294.7884
v -1139.5826 -771.8999 292.5352
v -1139.5816 -771.8993 286.8534
f 1090 1091 1092
v -1143.9357 -778.6931 291.9136
v -1139.5816 -771.8993 286.8534
v -1143.9352 -778.6928 289.2307
f 1093 1094 1095
v -1143.3344 -779.0919 283.8570
v -1142.9754 -779.3326 291.8997
v -1143.6013 -778.9160 291.9086
f 1096 1097 1098
v -1140.0879 -781.4114 291.7740
v -1137.7863 -782.9444 281.1836
v -1137.7876 -782.9453 289.0823
f 1099 1100 1101
v -1138.5016 -772.6177 281.1847
v -1139.5826 -771.8999 292.5352
v -1138.5035 -772.6187 292.5493
f 1102 1103 1104
v -1138.5016 -772.6177 281.1847
v -1139.5816 -771.8993 286.8534
v -1139.5826 -771.8999 292.5352
f 1105 1106 1107
v -1139.5816 -771.8993 286.8534
v -1138.5016 -772.6177 281.1847
v -1139.5806 -771.8988 281.1846
f 1108 1109 1110
v -1135.0439 -773.5595 285.9351
v -1137.8728 -771.6725 291.8536
v -1132.6263 -775.1744 291.9261
f 1111 1112 1113
v -1132.6256 -775.1740 287.8983
v -1135.0439 -773.5595 285.9351
v -1132.6263 -775.1744 291.9261
f 1114 1115 1116

g building_ID_42CAFB05-73B9-4B4E-ADBE-A29F6F8B63AC
v -1149.3793 -752.0023 287.8470
v -1160.1047 -756.1557 290.0105
v -1154.5322 -759.8084 287.8402
f 1117 1118 1119
v -1160.1047 -756.1557 290.0105
v -1149.3793 -752.0023 287.8470
v -1154.9298 -748.3427 290.0124
f 1120 1121 1122
v -1155.7862 -747.7783 289.6124
v -1160.9552 -755.5984 289.6144
v -1160.1047 -756.1557 290.0105
f 1123 1124 1125
v -1154.9298 -748.3427 290.0124
v -1155.7862 -747.7783 289.6124
v -1160.1047 -756.1557 290.0105
f 1126 1127 1128
v -1149.3785 -752.0019 283.1142
v -1149.3793 -752.0023 287.8470
v -1154.5322 -759.8084 287.8402
f 1129 1130 1131
v -1149.3782 -752.0017 281.5372
v -1154.5322 -759.8084 287.8402
v -1154.5312 -759.8078 281.5354
f 1132 1133 1134
v -1155.7852 -747.7777 283.5536
v -1160.9538 -755.5976 281.5347
v -1155.7859 -747.7782 287.5924
f 1135 1136 1137
v -1160.9546 -755.5981 286.5846
v -1160.9552 -755.5984 289.6144
v -1155.7862 -747.7783 289.6124
f 1138 1139 1140
v -1155.7852 -747.7777 283.5536
v -1155.7849 -747.7776 281.5367
v -1160.9538 -755.5976 281.5347
f 1141 1142 1143
v -1154.5312 -759.8078 281.5354
v -1160.1033 -756.1550 281.5348
v -1149.3782 -752.0017 281.5372
f 1144 1145 1146
v -1154.9283 -748.3419 281.5368
v -1160.1033 -756.1550 281.5348
v -1160.9538 -755.5976 281.5347
f 1147 1148 1149
v -1160.1033 -756.1550 281.5348
v -1154.9283 -748.3419 281.5368
v -1149.3782 -752.0017 281.5372
f 1150 1151 1152
v -1155.7849 -747.7776 281.5367
v -1154.9283 -748.3419 281.5368
v -1160.9538 -755.5976 281.5347
f 1153 1154 1155
v -1155.7859 -747.7782 287.5924
v -1155.7862 -747.7783 289.6124
v -1154.9298 -748.3427 290.0124
f 1156 1157 1158
v -1149.3793 -752.0023 287.8470
v -1155.7852 -747.7777 283.5536
v -1155.7859 -747.7782 287.5924
f 1159 1160 1161
v -1154.9283 -748.3419 281.5368
v -1155.7849 -747.7776 281.5367
v -1155.7852 -747.7777 283.5536
f 1162 1163 1164
v -1155.7859 -747.7782 287.5924
v -1154.9298 -748.3427 290.0124
v -1149.3793 -752.0023 287.8470
f 1165 1166 1167
v -1149.3793 -752.0023 287.8470
v -1149.3785 -752.0019 283.1142
v -1155.7852 -747.7777 283.5536
f 1168 1169 1170
v -1149.3782 -752.0017 281.5372
v -1154.9283 -748.3419 281.5368
v -1149.3785 -752.0019 283.1142
f 1171 1172 1173
v -1149.3785 -752.0019 283.1142
v -1154.9283 -748.3419 281.5368
v -1155.7852 -747.7777 283.5536
f 1174 1175 1176
v -1154.5322 -759.8084 287.8402
v -1160.1033 -756.1550 281.5348
v -1154.5312 -759.8078 281.5354
f 1177 1178 1179
v -1160.1033 -756.1550 281.5348
v -1154.5322 -759.8084 287.8402
v -1160.9546 -755.5981 286.5846
f 1180 1181 1182
v -1160.9546 -755.5981 286.5846
v -1160.1047 -756.1557 290.0105
v -1160.9552 -755.5984 289.6144
f 1183 1184 1185
v -1160.9538 -755.5976 281.5347
v -1160.1033 -756.1550 281.5348
v -1160.9546 -755.5981 286.5846
f 1186 1187 1188
v -1160.9546 -755.5981 286.5846
v -1154.5322 -759.8084 287.8402
v -1160.1047 -756.1557 290.0105
f 1189 1190 1191
v -1149.3785 -752.0019 283.1142
v -1154.5322 -759.8084 287.8402
v -1149.3782 -752.0017 281.5372
f 1192 1193 1194
v -1160.9546 -755.5981 286.5846
v -1155.7862 -747.7783 289.6124
v -1160.9538 -755.5976 281.5347
f 1195 1196 1197
v -1160.9538 -755.5976 281.5347
v -1155.7862 -747.7783 289.6124
v -1155.7859 -747.7782 287.5924
f 1198 1199 1200

g building_ID_882C1D46-954F-4122-B647-ACFC1990F249
v -1130.1264 -759.5663 291.5955
v -1134.8012 -760.6796 290.5575
v -1129.5055 -759.9779 291.5955
f 1201 1202 1203
v -1134.9628 -760.9222 290.4715
v -1128.7549 -765.0448 290.4701
v -1134.8012 -760.6796 290.5575
f 1204 1205 1206
v -1134.8012 -760.6796 290.5575
v -1128.7549 -765.0448 290.4701
v -1129.5055 -759.9779 291.5955
f 1207 1208 1209
v -1126.6184 -762.2716 290.3888
v -1126.4418 -762.0060 290.3888
v -1126.7842 -762.1651 290.4538
f 1210 1211 1212
v -1129.5055 -759.9779 291.5955
v -1126.7842 -762.1651 290.4538
v -1126.4418 -762.0060 290.3888
f 1213 1214 1215
v -1126.7842 -762.1651 290.4538
v -1128.7549 -765.0448 290.4701
v -1128.7149 -765.0709 290.4541
f 1216 1217 1218
v -1129.5055 -759.9779 291.5955
v -1128.7549 -765.0448 290.4701
v -1126.7842 -762.1651 290.4538
f 1219 1220 1221
v -1130.1264 -759.5663 291.5955
v -1132.8563 -757.7569 290.5602
v -1134.8012 -760.6796 290.5575
f 1222 1223 1224
v -1131.5983 -763.1543 281.1821
v -1134.9613 -760.9213 281.1818
v -1134.7996 -760.6787 281.1818
f 1225 1226 1227
v -1132.8548 -757.7560 281.1826
v -1131.5983 -763.1543 281.1821
v -1134.7996 -760.6787 281.1818
f 1228 1229 1230
v -1131.5983 -763.1543 281.1821
v -1132.8548 -757.7560 281.1826
v -1129.4968 -759.9809 281.1828
f 1231 1232 1233
v -1116.5115 -758.3648 281.1004
v -1116.5126 -758.3654 287.8471
v -1121.3992 -765.6473 287.8454
f 1234 1235 1236
v -1121.7353 -754.8999 281.0999
v -1121.7363 -754.9004 287.8466
v -1116.5126 -758.3654 287.8471
f 1237 1238 1239
v -1121.8386 -755.0555 281.0999
v -1121.8397 -755.0562 287.8466
v -1121.7363 -754.9004 287.8466
f 1240 1241 1242
v -1126.4413 -762.0058 287.8449
v -1126.6181 -762.2723 287.8449
v -1121.3992 -765.6473 287.8454
f 1243 1244 1245
v -1123.5577 -757.6515 287.8460
v -1126.4413 -762.0058 287.8449
v -1121.3992 -765.6473 287.8454
f 1246 1247 1248
v -1121.8397 -755.0562 287.8466
v -1123.5577 -757.6515 287.8460
v -1116.5126 -758.3654 287.8471
f 1249 1250 1251
v -1121.3992 -765.6473 287.8454
v -1116.5126 -758.3654 287.8471
v -1123.5577 -757.6515 287.8460
f 1252 1253 1254
v -1116.5126 -758.3654 287.8471
v -1121.7363 -754.9004 287.8466
v -1121.8397 -755.0562 287.8466
f 1255 1256 1257
v -1131.5983 -763.1543 281.0971
v -1131.5983 -763.1543 281.1821
v -1129.4968 -759.9809 281.1828
f 1258 1259 1260
v -1129.8782 -759.7312 294.0394
v -1125.2746 -752.7826 294.0410
v -1128.2379 -750.8184 291.4639
f 1261 1262 1263
v -1128.2379 -750.8184 291.4639
v -1132.8565 -757.7570 291.4482
v -1129.8782 -759.7312 294.0394
f 1264 1265 1266
v -1127.4700 -751.0904 281.2484
v -1127.4708 -751.0909 286.4092
v -1125.7892 -748.6125 286.4097
f 1267 1268 1269
v -1127.6487 -750.9720 281.2483
v -1127.6495 -750.9725 286.4091
v -1127.4708 -751.0909 286.4092
f 1270 1271 1272
v -1125.7884 -748.6120 281.2489
v -1125.7892 -748.6125 286.4097
v -1120.7981 -751.9239 286.4102
f 1273 1274 1275
v -1127.6495 -750.9725 286.4091
v -1127.7579 -751.1352 286.4091
v -1127.4708 -751.0909 286.4092
f 1276 1277 1278
v -1125.2734 -752.7818 286.4093
v -1127.4708 -751.0909 286.4092
v -1127.7579 -751.1352 286.4091
f 1279 1280 1281
v -1125.7892 -748.6125 286.4097
v -1127.4708 -751.0909 286.4092
v -1125.2734 -752.7818 286.4093
f 1282 1283 1284
v -1125.7892 -748.6125 286.4097
v -1124.8940 -753.0329 286.4094
v -1120.7981 -751.9239 286.4102
f 1285 1286 1287
v -1124.8940 -753.0329 286.4094
v -1122.5582 -754.5801 286.4096
v -1120.7981 -751.9239 286.4102
f 1288 1289 1290
v -1125.2734 -752.7818 286.4093
v -1124.8940 -753.0329 286.4094
v -1125.7892 -748.6125 286.4097
f 1291 1292 1293
v -1127.7571 -751.1347 281.2483
v -1127.7579 -751.1352 286.4091
v -1127.6495 -750.9725 286.4091
f 1294 1295 1296
v -1122.5574 -754.5796 281.2488
v -1127.4700 -751.0904 281.2484
v -1120.7973 -751.9234 281.2494
f 1297 1298 1299
v -1127.4700 -751.0904 281.2484
v -1122.5574 -754.5796 281.2488
v -1127.7571 -751.1347 281.2483
f 1300 1301 1302
v -1127.4700 -751.0904 281.2484
v -1125.7884 -748.6120 281.2489
v -1120.7973 -751.9234 281.2494
f 1303 1304 1305
v -1127.7571 -751.1347 281.2483
v -1127.6487 -750.9720 281.2483
v -1127.4700 -751.0904 281.2484
f 1306 1307 1308
v -1126.6181 -762.2723 287.8449
v -1126.7826 -762.1642 281.0981
v -1121.3980 -765.6466 281.0986
f 1309 1310 1311
v -1121.3992 -765.6473 287.8454
v -1126.6181 -762.2723 287.8449
v -1121.3980 -765.6466 281.0986
f 1312 1313 1314
v -1126.7842 -762.1651 290.4538
v -1126.6181 -762.2723 287.8449
v -1126.6184 -762.2716 290.3888
f 1315 1316 1317
v -1126.7826 -762.1642 281.0981
v -1126.6181 -762.2723 287.8449
v -1126.7842 -762.1651 290.4538
f 1318 1319 1320
v -1126.4418 -762.0060 290.3888
v -1123.5577 -757.6515 287.8460
v -1121.8403 -755.0565 291.0545
f 1321 1322 1323
v -1121.8403 -755.0565 291.0545
v -1123.5577 -757.6515 287.8460
v -1121.8397 -755.0562 287.8466
f 1324 1325 1326
v -1126.4418 -762.0060 290.3888
v -1121.8403 -755.0565 291.0545
v -1126.4418 -762.0060 291.0528
f 1327 1328 1329
v -1126.4413 -762.0058 287.8449
v -1126.4418 -762.0060 290.3888
v -1126.6184 -762.2716 290.3888
f 1330 1331 1332
v -1126.6184 -762.2716 290.3888
v -1126.6181 -762.2723 287.8449
v -1126.4413 -762.0058 287.8449
f 1333 1334 1335
v -1123.5577 -757.6515 287.8460
v -1126.4418 -762.0060 290.3888
v -1126.4413 -762.0058 287.8449
f 1336 1337 1338
v -1128.7149 -765.0709 290.4541
v -1131.5983 -763.1543 281.1821
v -1128.7134 -765.0700 281.0974
f 1339 1340 1341
v -1128.7549 -765.0448 290.4701
v -1131.5983 -763.1543 281.1821
v -1128.7149 -765.0709 290.4541
f 1342 1343 1344
v -1134.9613 -760.9213 281.1818
v -1131.5983 -763.1543 281.1821
v -1134.9628 -760.9222 290.4715
f 1345 1346 1347
v -1128.7549 -765.0448 290.4701
v -1134.9628 -760.9222 290.4715
v -1131.5983 -763.1543 281.1821
f 1348 1349 1350
v -1128.7134 -765.0700 281.0974
v -1131.5983 -763.1543 281.1821
v -1131.5983 -763.1543 281.0971
f 1351 1352 1353
v -1126.7826 -762.1642 281.0981
v -1126.7842 -762.1651 290.4538
v -1128.7134 -765.0700 281.0974
f 1354 1355 1356
v -1121.8403 -755.0565 291.0545
v -1129.8782 -759.7312 294.0394
v -1126.4418 -762.0060 291.0528
f 1357 1358 1359
v -1129.8782 -759.7312 294.0394
v -1121.8403 -755.0565 291.0545
v -1125.2746 -752.7826 294.0410
f 1360 1361 1362
v -1122.5574 -754.5796 281.2488
v -1120.7973 -751.9234 281.2494
v -1120.7981 -751.9239 286.4102
f 1363 1364 1365
v -1125.2725 -752.7813 281.0995
v -1129.4967 -759.9809 281.0979
v -1132.8547 -757.7560 281.0976
f 1366 1367 1368
v -1126.7826 -762.1642 281.0981
v -1131.5983 -763.1543 281.0971
v -1129.4967 -759.9809 281.0979
f 1369 1370 1371
v -1131.5983 -763.1543 281.0971
v -1126.7826 -762.1642 281.0981
v -1128.7134 -765.0700 281.0974
f 1372 1373 1374
v -1126.7826 -762.1642 281.0981
v -1121.8386 -755.0555 281.0999
v -1121.3980 -765.6466 281.0986
f 1375 1376 1377
v -1121.8386 -755.0555 281.0999
v -1126.7826 -762.1642 281.0981
v -1129.4967 -759.9809 281.0979
f 1378 1379 1380
v -1132.8547 -757.7560 281.0976
v -1128.2362 -750.8174 281.0993
v -1125.2725 -752.7813 281.0995
f 1381 1382 1383
v -1129.4967 -759.9809 281.0979
v -1125.2725 -752.7813 281.0995
v -1121.8386 -755.0555 281.0999
f 1384 1385 1386
v -1121.8386 -755.0555 281.0999
v -1121.7353 -754.8999 281.0999
v -1116.5115 -758.3648 281.1004
f 1387 1388 1389
v -1121.8386 -755.0555 281.0999
v -1116.5115 -758.3648 281.1004
v -1121.3980 -765.6466 281.0986
f 1390 1391 1392
v -1134.7996 -760.6787 281.1818
v -1134.9628 -760.9222 290.4715
v -1134.8012 -760.6796 290.5575
f 1393 1394 1395
v -1134.9628 -760.9222 290.4715
v -1134.7996 -760.6787 281.1818
v -1134.9613 -760.9213 281.1818
f 1396 1397 1398
v -1132.8563 -757.7569 290.5602
v -1134.7996 -760.6787 281.1818
v -1134.8012 -760.6796 290.5575
f 1399 1400 1401
v -1132.8563 -757.7569 290.5602
v -1132.8565 -757.7570 291.4482
v -1128.2379 -750.8184 291.4639
f 1402 1403 1404
v -1128.2362 -750.8174 281.0993
v -1132.8548 -757.7560 281.1826
v -1132.8563 -757.7569 290.5602
f 1405 1406 1407
v -1132.8563 -757.7569 290.5602
v -1132.8548 -757.7560 281.1826
v -1134.7996 -760.6787 281.1818
f 1408 1409 1410
v -1128.2379 -750.8184 291.4639
v -1128.2362 -750.8174 281.0993
v -1132.8563 -757.7569 290.5602
f 1411 1412 1413
v -1132.8547 -757.7560 281.0976
v -1132.8548 -757.7560 281.1826
v -1128.2362 -750.8174 281.0993
f 1414 1415 1416
v -1132.8547 -757.7560 281.0976
v -1129.4967 -759.9809 281.0979
v -1129.4968 -759.9809 281.1828
f 1417 1418 1419
v -1132.8548 -757.7560 281.1826
v -1132.8547 -757.7560 281.0976
v -1129.4968 -759.9809 281.1828
f 1420 1421 1422
v -1126.4418 -762.0060 291.0528
v -1129.8782 -759.7312 294.0394
v -1129.5055 -759.9779 291.5955
f 1423 1424 1425
v -1129.5055 -759.9779 291.5955
v -1126.4418 -762.0060 290.3888
v -1126.4418 -762.0060 291.0528
f 1426 1427 1428
v -1130.1264 -759.5663 291.5955
v -1132.8565 -757.7570 291.4482
v -1132.8563 -757.7569 290.5602
f 1429 1430 1431
v -1129.8782 -759.7312 294.0394
v -1130.1264 -759.5663 291.5955
v -1129.5055 -759.9779 291.5955
f 1432 1433 1434
v -1129.8782 -759.7312 294.0394
v -1132.8565 -757.7570 291.4482
v -1130.1264 -759.5663 291.5955
f 1435 1436 1437
v -1128.2362 -750.8174 281.0993
v -1128.2379 -750.8184 291.4639
v -1127.7579 -751.1352 286.4091
f 1438 1439 1440
v -1125.2734 -752.7818 286.4093
v -1127.7579 -751.1352 286.4091
v -1128.2379 -750.8184 291.4639
f 1441 1442 1443
v -1128.2379 -750.8184 291.4639
v -1125.2746 -752.7826 294.0410
v -1125.2734 -752.7818 286.4093
f 1444 1445 1446
v -1125.2725 -752.7813 281.0995
v -1128.2362 -750.8174 281.0993
v -1127.7571 -751.1347 281.2483
f 1447 1448 1449
v -1127.7579 -751.1352 286.4091
v -1127.7571 -751.1347 281.2483
v -1128.2362 -750.8174 281.0993
f 1450 1451 1452
v -1127.7571 -751.1347 281.2483
v -1122.5574 -754.5796 281.2488
v -1125.2725 -752.7813 281.0995
f 1453 1454 1455
v -1124.8940 -753.0329 286.4094
v -1125.2734 -752.7818 286.4093
v -1125.2746 -752.7826 294.0410
f 1456 1457 1458
v -1121.8403 -755.0565 291.0545
v -1122.5582 -754.5801 286.4096
v -1124.8940 -753.0329 286.4094
f 1459 1460 1461
v -1122.5582 -754.5801 286.4096
v -1121.8403 -755.0565 291.0545
v -1121.8397 -755.0562 287.8466
f 1462 1463 1464
v -1121.8403 -755.0565 291.0545
v -1124.8940 -753.0329 286.4094
v -1125.2746 -752.7826 294.0410
f 1465 1466 1467
v -1121.8386 -755.0555 281.0999
v -1122.5582 -754.5801 286.4096
v -1121.8397 -755.0562 287.8466
f 1468 1469 1470
v -1122.5582 -754.5801 286.4096
v -1121.8386 -755.0555 281.0999
v -1122.5574 -754.5796 281.2488
f 1471 1472 1473
v -1116.5115 -758.3648 281.1004
v -1121.3992 -765.6473 287.8454
v -1121.3980 -765.6466 281.0986
f 1474 1475 1476
v -1121.7353 -754.8999 281.0999
v -1116.5126 -758.3654 287.8471
v -1116.5115 -758.3648 281.1004
f 1477 1478 1479
v -1121.8386 -755.0555 281.0999
v -1121.7363 -754.9004 287.8466
v -1121.7353 -754.8999 281.0999
f 1480 1481 1482
v -1131.5983 -763.1543 281.0971
v -1129.4968 -759.9809 281.1828
v -1129.4967 -759.9809 281.0979
f 1483 1484 1485
v -1127.4700 -751.0904 281.2484
v -1125.7892 -748.6125 286.4097
v -1125.7884 -748.6120 281.2489
f 1486 1487 1488
v -1127.6487 -750.9720 281.2483
v -1127.4708 -751.0909 286.4092
v -1127.4700 -751.0904 281.2484
f 1489 1490 1491
v -1125.7884 -748.6120 281.2489
v -1120.7981 -751.9239 286.4102
v -1120.7973 -751.9234 281.2494
f 1492 1493 1494
v -1127.7571 -751.1347 281.2483
v -1127.6495 -750.9725 286.4091
v -1127.6487 -750.9720 281.2483
f 1495 1496 1497
v -1126.7842 -762.1651 290.4538
v -1128.7149 -765.0709 290.4541
v -1128.7134 -765.0700 281.0974
f 1498 1499 1500
v -1122.5574 -754.5796 281.2488
v -1120.7981 -751.9239 286.4102
v -1122.5582 -754.5801 286.4096
f 1501 1502 1503
v -1125.2725 -752.7813 281.0995
v -1122.5574 -754.5796 281.2488
v -1121.8386 -755.0555 281.0999
f 1504 1505 1506

g building_ID_C3464BFD-82C0-41D4-A1F4-FC3CB036B875
v -1175.7529 -732.3460 291.2614
v -1167.4049 -730.6498 294.1041
v -1172.3878 -727.2754 294.1035
f 1507 1508 1509
v -1170.7798 -735.6364 291.2920
v -1167.4049 -730.6498 294.1041
v -1175.7529 -732.3460 291.2614
f 1510 1511 1512
v -1170.4958 -724.4243 291.5143
v -1167.4049 -730.6498 294.1041
v -1165.4508 -727.7638 291.4679
f 1513 1514 1515
v -1167.4049 -730.6498 294.1041
v -1170.4958 -724.4243 291.5143
v -1172.3878 -727.2754 294.1035
f 1516 1517 1518
v -1172.3858 -727.2743 281.9390
v -1167.4028 -730.6486 281.9396
v -1175.7513 -732.3452 281.9378
f 1519 1520 1521
v -1175.7513 -732.3452 281.9378
v -1167.4028 -730.6486 281.9396
v -1170.7782 -735.6355 281.9384
f 1522 1523 1524
v -1170.4941 -724.4234 281.9397
v -1165.4491 -727.7629 281.9403
v -1167.4028 -730.6486 281.9396
f 1525 1526 1527
v -1172.3858 -727.2743 281.9390
v -1170.4941 -724.4234 281.9397
v -1167.4028 -730.6486 281.9396
f 1528 1529 1530
v -1170.7782 -735.6355 281.9384
v -1170.7798 -735.6364 291.2920
v -1175.7529 -732.3460 291.2614
f 1531 1532 1533
v -1175.7513 -732.3452 281.9378
v -1170.7782 -735.6355 281.9384
v -1175.7529 -732.3460 291.2614
f 1534 1535 1536
v -1167.4028 -730.6486 281.9396
v -1165.4491 -727.7629 281.9403
v -1165.4508 -727.7638 291.4679
f 1537 1538 1539
v -1167.4049 -730.6498 294.1041
v -1170.7798 -735.6364 291.2920
v -1165.4508 -727.7638 291.4679
f 1540 1541 1542
v -1170.7782 -735.6355 281.9384
v -1167.4028 -730.6486 281.9396
v -1170.7798 -735.6364 291.2920
f 1543 1544 1545
v -1165.4508 -727.7638 291.4679
v -1170.7798 -735.6364 291.2920
v -1167.4028 -730.6486 281.9396
f 1546 1547 1548
v -1172.3858 -727.2743 281.9390
v -1175.7513 -732.3452 281.9378
v -1175.7529 -732.3460 291.2614
f 1549 1550 1551
v -1172.3878 -727.2754 294.1035
v -1172.3858 -727.2743 281.9390
v -1175.7529 -732.3460 291.2614
f 1552 1553 1554
v -1170.4958 -724.4243 291.5143
v -1170.4941 -724.4234 281.9397
v -1172.3878 -727.2754 294.1035
f 1555 1556 1557
v -1172.3858 -727.2743 281.9390
v -1172.3878 -727.2754 294.1035
v -1170.4941 -724.4234 281.9397
f 1558 1559 1560
v -1165.4491 -727.7629 281.9403
v -1170.4941 -724.4234 281.9397
v -1165.4508 -727.7638 291.4679
f 1561 1562 1563
v -1170.4958 -724.4243 291.5143
v -1165.4508 -727.7638 291.4679
v -1170.4941 -724.4234 281.9397
f 1564 1565 1566

g building_ID_2A5FD18A-4389-41C5-9C88-088551728E55
v -1177.2789 -723.9643 294.1030
v -1177.9440 -730.8921 291.2502
v -1172.3878 -727.2754 294.1035
f 1567 1568 1569
v -1180.6841 -729.0738 291.2359
v -1177.9440 -730.8921 291.2502
v -1177.2789 -723.9643 294.1030
f 1570 1571 1572
v -1177.9440 -730.8921 291.2502
v -1175.7529 -732.3460 291.2624
v -1172.3878 -727.2754 294.1035
f 1573 1574 1575
v -1172.4502 -723.1310 291.5331
v -1172.3878 -727.2754 294.1035
v -1170.4958 -724.4243 291.5143
f 1576 1577 1578
v -1175.4160 -721.1681 291.5608
v -1172.3878 -727.2754 294.1035
v -1172.4502 -723.1310 291.5331
f 1579 1580 1581
v -1172.3878 -727.2754 294.1035
v -1175.4160 -721.1681 291.5608
v -1177.2789 -723.9643 294.1030
f 1582 1583 1584
v -1175.7513 -732.3452 281.9378
v -1177.9440 -730.8921 291.2502
v -1180.6825 -729.0730 281.9373
f 1585 1586 1587
v -1172.4502 -723.1310 291.5331
v -1175.4143 -721.1673 281.9392
v -1175.4147 -721.1674 284.3451
f 1588 1589 1590
v -1175.4143 -721.1673 281.9392
v -1172.4502 -723.1310 291.5331
v -1172.3388 -723.2025 281.9395
f 1591 1592 1593
v -1170.4941 -724.4234 281.9397
v -1172.3388 -723.2025 281.9395
v -1172.4502 -723.1310 291.5331
f 1594 1595 1596
v -1170.4949 -724.4239 286.7035
v -1170.4941 -724.4234 281.9397
v -1172.4502 -723.1310 291.5331
f 1597 1598 1599
v -1172.3858 -727.2743 281.9390
v -1180.6825 -729.0730 281.9373
v -1172.3388 -723.2025 281.9395
f 1600 1601 1602
v -1180.6825 -729.0730 281.9373
v -1172.3858 -727.2743 281.9390
v -1175.7513 -732.3452 281.9378
f 1603 1604 1605
v -1172.3388 -723.2025 281.9395
v -1177.2768 -723.9632 281.9385
v -1175.4143 -721.1673 281.9392
f 1606 1607 1608
v -1172.3388 -723.2025 281.9395
v -1170.4941 -724.4234 281.9397
v -1172.3858 -727.2743 281.9390
f 1609 1610 1611
v -1172.3388 -723.2025 281.9395
v -1180.6825 -729.0730 281.9373
v -1177.2768 -723.9632 281.9385
f 1612 1613 1614
v -1175.7513 -732.3452 281.9378
v -1170.4949 -724.4239 286.7035
v -1170.4958 -724.4243 291.5143
f 1615 1616 1617
v -1170.4949 -724.4239 286.7035
v -1172.3858 -727.2743 281.9390
v -1170.4941 -724.4234 281.9397
f 1618 1619 1620
v -1175.7525 -732.3459 288.9315
v -1170.4958 -724.4243 291.5143
v -1172.3878 -727.2754 294.1035
f 1621 1622 1623
v -1170.4958 -724.4243 291.5143
v -1175.7525 -732.3459 288.9315
v -1175.7513 -732.3452 281.9378
f 1624 1625 1626
v -1172.3858 -727.2743 281.9390
v -1170.4949 -724.4239 286.7035
v -1175.7513 -732.3452 281.9378
f 1627 1628 1629
v -1175.7529 -732.3460 291.2624
v -1175.7525 -732.3459 288.9315
v -1172.3878 -727.2754 294.1035
f 1630 1631 1632
v -1180.6841 -729.0738 291.2359
v -1177.2768 -723.9632 281.9385
v -1180.6825 -729.0730 281.9373
f 1633 1634 1635
v -1177.2768 -723.9632 281.9385
v -1180.6841 -729.0738 291.2359
v -1175.4147 -721.1674 284.3451
f 1636 1637 1638
v -1175.4152 -721.1677 286.7500
v -1177.2789 -723.9643 294.1030
v -1175.4160 -721.1681 291.5608
f 1639 1640 1641
v -1177.2768 -723.9632 281.9385
v -1175.4147 -721.1674 284.3451
v -1175.4143 -721.1673 281.9392
f 1642 1643 1644
v -1175.4147 -721.1674 284.3451
v -1180.6841 -729.0738 291.2359
v -1175.4152 -721.1677 286.7500
f 1645 1646 1647
v -1175.4152 -721.1677 286.7500
v -1180.6841 -729.0738 291.2359
v -1177.2789 -723.9643 294.1030
f 1648 1649 1650
v -1175.7525 -732.3459 288.9315
v -1175.7529 -732.3460 291.2624
v -1177.9440 -730.8921 291.2502
f 1651 1652 1653
v -1177.9440 -730.8921 291.2502
v -1175.7513 -732.3452 281.9378
v -1175.7525 -732.3459 288.9315
f 1654 1655 1656
v -1180.6841 -729.0738 291.2359
v -1180.6825 -729.0730 281.9373
v -1177.9440 -730.8921 291.2502
f 1657 1658 1659
v -1175.4152 -721.1677 286.7500
v -1175.4160 -721.1681 291.5608
v -1172.4502 -723.1310 291.5331
f 1660 1661 1662
v -1172.4502 -723.1310 291.5331
v -1175.4147 -721.1674 284.3451
v -1175.4152 -721.1677 286.7500
f 1663 1664 1665
v -1172.4502 -723.1310 291.5331
v -1170.4958 -724.4243 291.5143
v -1170.4949 -724.4239 286.7035
f 1666 1667 1668

g building_ID_16C88D0C-4102-48ED-9A82-BAEAB1612BF1
v -1157.6905 -704.5508 291.5250
v -1154.5589 -710.8394 294.5736
v -1152.6266 -707.9114 291.5154
f 1669 1670 1671
v -1154.5589 -710.8394 294.5736
v -1157.6905 -704.5508 291.5250
v -1159.6239 -707.4638 294.5731
f 1672 1673 1674
v -1162.9537 -712.4826 291.1811
v -1154.5589 -710.8394 294.5736
v -1159.6239 -707.4638 294.5731
f 1675 1676 1677
v -1157.8689 -715.8572 291.1886
v -1154.5589 -710.8394 294.5736
v -1162.9537 -712.4826 291.1811
f 1678 1679 1680
v -1154.5568 -710.8382 282.1061
v -1157.6890 -704.5499 282.1063
v -1152.6250 -707.9105 282.1068
f 1681 1682 1683
v -1162.9522 -712.4818 282.1044
v -1154.5568 -710.8382 282.1061
v -1157.8673 -715.8564 282.1050
f 1684 1685 1686
v -1162.9522 -712.4818 282.1044
v -1157.6890 -704.5499 282.1063
v -1154.5568 -710.8382 282.1061
f 1687 1688 1689
v -1152.6250 -707.9105 282.1068
v -1157.6890 -704.5499 282.1063
v -1152.6266 -707.9114 291.5154
f 1690 1691 1692
v -1157.6905 -704.5508 291.5250
v -1152.6266 -707.9114 291.5154
v -1157.6890 -704.5499 282.1063
f 1693 1694 1695
v -1157.6890 -704.5499 282.1063
v -1162.9522 -712.4818 282.1044
v -1162.9537 -712.4826 291.1811
f 1696 1697 1698
v -1159.6239 -707.4638 294.5731
v -1157.6905 -704.5508 291.5250
v -1162.9537 -712.4826 291.1811
f 1699 1700 1701
v -1162.9537 -712.4826 291.1811
v -1157.6905 -704.5508 291.5250
v -1157.6890 -704.5499 282.1063
f 1702 1703 1704
v -1154.5568 -710.8382 282.1061
v -1152.6250 -707.9105 282.1068
v -1152.6266 -707.9114 291.5154
f 1705 1706 1707
v -1157.8673 -715.8564 282.1050
v -1154.5568 -710.8382 282.1061
v -1152.6266 -707.9114 291.5154
f 1708 1709 1710
v -1157.8689 -715.8572 291.1886
v -1157.8673 -715.8564 282.1050
v -1154.5589 -710.8394 294.5736
f 1711 1712 1713
v -1152.6266 -707.9114 291.5154
v -1154.5589 -710.8394 294.5736
v -1157.8673 -715.8564 282.1050
f 1714 1715 1716
v -1157.8673 -715.8564 282.1050
v -1157.8689 -715.8572 291.1886
v -1162.9537 -712.4826 291.1811
f 1717 1718 1719
v -1162.9522 -712.4818 282.1044
v -1157.8673 -715.8564 282.1050
v -1162.9537 -712.4826 291.1811
f 1720 1721 1722

g building_ID_122358A0-AAFB-4D70-BDD2-4FBE8715E0A8
v -1157.6905 -704.5508 291.5250
v -1162.5619 -701.3167 291.5334
v -1159.6239 -707.4638 294.5731
f 1723 1724 1725
v -1164.4911 -704.2208 294.5726
v -1159.6239 -707.4638 294.5731
v -1162.5619 -701.3167 291.5334
f 1726 1727 1728
v -1167.8280 -709.2456 291.1756
v -1159.6239 -707.4638 294.5731
v -1164.4911 -704.2208 294.5726
f 1729 1730 1731
v -1159.6239 -707.4638 294.5731
v -1167.8280 -709.2456 291.1756
v -1162.9537 -712.4826 291.1811
f 1732 1733 1734
v -1164.4890 -704.2197 282.1051
v -1157.6890 -704.5499 282.1063
v -1167.8264 -709.2448 282.1039
f 1735 1736 1737
v -1167.8264 -709.2448 282.1039
v -1157.6890 -704.5499 282.1063
v -1162.9522 -712.4818 282.1044
f 1738 1739 1740
v -1164.4890 -704.2197 282.1051
v -1162.5602 -701.3159 282.1057
v -1157.6890 -704.5499 282.1063
f 1741 1742 1743
v -1157.6890 -704.5499 282.1063
v -1162.5602 -701.3159 282.1057
v -1157.6905 -704.5508 291.5250
f 1744 1745 1746
v -1162.5619 -701.3167 291.5334
v -1157.6905 -704.5508 291.5250
v -1162.5602 -701.3159 282.1057
f 1747 1748 1749
v -1164.4890 -704.2197 282.1051
v -1167.8264 -709.2448 282.1039
v -1167.8280 -709.2456 291.1756
f 1750 1751 1752
v -1164.4911 -704.2208 294.5726
v -1162.5619 -701.3167 291.5334
v -1167.8280 -709.2456 291.1756
f 1753 1754 1755
v -1164.4890 -704.2197 282.1051
v -1162.5619 -701.3167 291.5334
v -1162.5602 -701.3159 282.1057
f 1756 1757 1758
v -1167.8280 -709.2456 291.1756
v -1162.5619 -701.3167 291.5334
v -1164.4890 -704.2197 282.1051
f 1759 1760 1761
v -1162.9537 -712.4826 291.1811
v -1157.6890 -704.5499 282.1063
v -1157.6905 -704.5508 291.5250
f 1762 1763 1764
v -1162.9522 -712.4818 282.1044
v -1157.6890 -704.5499 282.1063
v -1162.9537 -712.4826 291.1811
f 1765 1766 1767
v -1159.6239 -707.4638 294.5731
v -1162.9537 -712.4826 291.1811
v -1157.6905 -704.5508 291.5250
f 1768 1769 1770
v -1162.9522 -712.4818 282.1044
v -1162.9537 -712.4826 291.1811
v -1167.8280 -709.2456 291.1756
f 1771 1772 1773
v -1167.8264 -709.2448 282.1039
v -1162.9522 -712.4818 282.1044
v -1167.8280 -709.2456 291.1756
f 1774 1775 1776

g building_ID_8D640728-AB85-40B4-83EA-2C8E69B9DEC8
v -1169.3614 -700.9758 294.5720
v -1167.3912 -698.1118 291.5429
v -1167.4381 -698.0817 291.5429
f 1777 1778 1779
v -1167.3912 -698.1118 291.5429
v -1169.3614 -700.9758 294.5720
v -1164.5024 -700.0296 291.5372
f 1780 1781 1782
v -1164.5024 -700.0296 291.5372
v -1169.3614 -700.9758 294.5720
v -1164.4911 -704.2208 294.5726
f 1783 1784 1785
v -1164.4911 -704.2208 294.5726
v -1162.5619 -701.3167 291.5334
v -1164.5024 -700.0296 291.5372
f 1786 1787 1788
v -1172.7032 -706.0065 291.1711
v -1164.4911 -704.2208 294.5726
v -1169.3614 -700.9758 294.5720
f 1789 1790 1791
v -1164.4911 -704.2208 294.5726
v -1172.7032 -706.0065 291.1711
v -1167.8280 -709.2456 291.1756
f 1792 1793 1794
v -1162.5619 -701.3167 291.5334
v -1162.5602 -701.3159 282.1057
v -1164.5024 -700.0296 291.5372
f 1795 1796 1797
v -1167.4365 -698.0809 282.1052
v -1164.5024 -700.0296 291.5372
v -1162.5602 -701.3159 282.1057
f 1798 1799 1800
v -1164.4890 -704.2197 282.1051
v -1167.8264 -709.2448 282.1039
v -1172.7017 -706.0057 282.1034
f 1801 1802 1803
v -1169.3593 -700.9747 282.1045
v -1164.4890 -704.2197 282.1051
v -1172.7017 -706.0057 282.1034
f 1804 1805 1806
v -1164.4890 -704.2197 282.1051
v -1169.3593 -700.9747 282.1045
v -1167.4365 -698.0809 282.1052
f 1807 1808 1809
v -1167.4365 -698.0809 282.1052
v -1162.5602 -701.3159 282.1057
v -1164.4890 -704.2197 282.1051
f 1810 1811 1812
v -1167.4381 -698.0817 291.5429
v -1172.7032 -706.0065 291.1711
v -1169.3614 -700.9758 294.5720
f 1813 1814 1815
v -1172.7032 -706.0065 291.1711
v -1169.3593 -700.9747 282.1045
v -1172.7017 -706.0057 282.1034
f 1816 1817 1818
v -1167.4365 -698.0809 282.1052
v -1169.3593 -700.9747 282.1045
v -1172.7032 -706.0065 291.1711
f 1819 1820 1821
v -1167.4381 -698.0817 291.5429
v -1167.4365 -698.0809 282.1052
v -1172.7032 -706.0065 291.1711
f 1822 1823 1824
v -1167.8280 -709.2456 291.1756
v -1164.4890 -704.2197 282.1051
v -1162.5602 -701.3159 282.1057
f 1825 1826 1827
v -1164.4890 -704.2197 282.1051
v -1167.8280 -709.2456 291.1756
v -1167.8264 -709.2448 282.1039
f 1828 1829 1830
v -1164.4911 -704.2208 294.5726
v -1167.8280 -709.2456 291.1756
v -1162.5619 -701.3167 291.5334
f 1831 1832 1833
v -1162.5619 -701.3167 291.5334
v -1167.8280 -709.2456 291.1756
v -1162.5602 -701.3159 282.1057
f 1834 1835 1836
v -1167.8264 -709.2448 282.1039
v -1167.8280 -709.2456 291.1756
v -1172.7032 -706.0065 291.1711
f 1837 1838 1839
v -1172.7017 -706.0057 282.1034
v -1167.8264 -709.2448 282.1039
v -1172.7032 -706.0065 291.1711
f 1840 1841 1842
v -1167.4365 -698.0809 282.1052
v -1167.4381 -698.0817 291.5429
v -1167.3912 -698.1118 291.5429
f 1843 1844 1845
v -1167.4365 -698.0809 282.1052
v -1167.3912 -698.1118 291.5429
v -1164.5024 -700.0296 291.5372
f 1846 1847 1848

g building_ID_132317E4-E604-4E62-AED4-6EBD4F454F76
v -1169.6511 -696.6128 291.5467
v -1169.3614 -700.9758 294.5720
v -1167.4381 -698.0817 291.5429
f 1849 1850 1851
v -1174.3075 -697.6805 294.5716
v -1169.6511 -696.6128 291.5467
v -1172.3933 -694.7924 291.5524
f 1852 1853 1854
v -1169.3614 -700.9758 294.5720
v -1169.6511 -696.6128 291.5467
v -1174.3075 -697.6805 294.5716
f 1855 1856 1857
v -1174.3075 -697.6805 294.5716
v -1174.3882 -704.8870 291.1699
v -1169.3614 -700.9758 294.5720
f 1858 1859 1860
v -1169.3614 -700.9758 294.5720
v -1174.3882 -704.8870 291.1699
v -1172.7032 -706.0065 291.1711
f 1861 1862 1863
v -1174.3075 -697.6805 294.5716
v -1177.6474 -702.7222 291.1655
v -1174.3882 -704.8870 291.1699
f 1864 1865 1866
v -1172.3922 -694.7919 285.6476
v -1172.3928 -694.7922 289.1905
v -1169.4090 -696.7716 282.1050
f 1867 1868 1869
v -1169.4090 -696.7716 282.1050
v -1172.3933 -694.7924 291.5524
v -1169.6511 -696.6128 291.5467
f 1870 1871 1872
v -1169.4090 -696.7716 282.1050
v -1172.3916 -694.7917 282.1047
v -1172.3922 -694.7919 285.6476
f 1873 1874 1875
v -1169.4090 -696.7716 282.1050
v -1169.6511 -696.6128 291.5467
v -1167.4381 -698.0817 291.5429
f 1876 1877 1878
v -1167.4375 -698.0814 288.0000
v -1167.4365 -698.0809 282.1052
v -1169.4090 -696.7716 282.1050
f 1879 1880 1881
v -1172.7017 -706.0057 282.1034
v -1172.7026 -706.0061 287.2042
v -1177.6459 -702.7214 282.1028
f 1882 1883 1884
v -1174.3882 -704.8870 291.1699
v -1177.6459 -702.7214 282.1028
v -1172.7026 -706.0061 287.2042
f 1885 1886 1887
v -1177.6459 -702.7214 282.1028
v -1174.3053 -697.6795 282.1040
v -1169.3593 -700.9747 282.1045
f 1888 1889 1890
v -1169.3593 -700.9747 282.1045
v -1172.7017 -706.0057 282.1034
v -1177.6459 -702.7214 282.1028
f 1891 1892 1893
v -1169.4090 -696.7716 282.1050
v -1174.3053 -697.6795 282.1040
v -1172.3916 -694.7917 282.1047
f 1894 1895 1896
v -1169.4090 -696.7716 282.1050
v -1167.4365 -698.0809 282.1052
v -1169.3593 -700.9747 282.1045
f 1897 1898 1899
v -1169.4090 -696.7716 282.1050
v -1169.3593 -700.9747 282.1045
v -1174.3053 -697.6795 282.1040
f 1900 1901 1902
v -1177.6470 -702.7220 288.8986
v -1177.6474 -702.7222 291.1655
v -1174.3075 -697.6805 294.5716
f 1903 1904 1905
v -1172.3922 -694.7919 285.6476
v -1177.6464 -702.7218 285.4987
v -1177.6470 -702.7220 288.8986
f 1906 1907 1908
v -1177.6464 -702.7218 285.4987
v -1174.3053 -697.6795 282.1040
v -1177.6459 -702.7214 282.1028
f 1909 1910 1911
v -1177.6470 -702.7220 288.8986
v -1174.3075 -697.6805 294.5716
v -1172.3928 -694.7922 289.1905
f 1912 1913 1914
v -1177.6470 -702.7220 288.8986
v -1172.3928 -694.7922 289.1905
v -1172.3922 -694.7919 285.6476
f 1915 1916 1917
v -1174.3053 -697.6795 282.1040
v -1177.6464 -702.7218 285.4987
v -1172.3922 -694.7919 285.6476
f 1918 1919 1920
v -1172.3916 -694.7917 282.1047
v -1174.3053 -697.6795 282.1040
v -1172.3922 -694.7919 285.6476
f 1921 1922 1923
v -1172.3933 -694.7924 291.5524
v -1172.3928 -694.7922 289.1905
v -1174.3075 -697.6805 294.5716
f 1924 1925 1926
v -1172.7026 -706.0061 287.2042
v -1169.3593 -700.9747 282.1045
v -1167.4375 -698.0814 288.0000
f 1927 1928 1929
v -1167.4375 -698.0814 288.0000
v -1169.3593 -700.9747 282.1045
v -1167.4365 -698.0809 282.1052
f 1930 1931 1932
v -1169.3614 -700.9758 294.5720
v -1167.4375 -698.0814 288.0000
v -1167.4381 -698.0817 291.5429
f 1933 1934 1935
v -1172.7026 -706.0061 287.2042
v -1169.3614 -700.9758 294.5720
v -1172.7032 -706.0065 291.1711
f 1936 1937 1938
v -1169.3593 -700.9747 282.1045
v -1172.7026 -706.0061 287.2042
v -1172.7017 -706.0057 282.1034
f 1939 1940 1941
v -1167.4375 -698.0814 288.0000
v -1169.3614 -700.9758 294.5720
v -1172.7026 -706.0061 287.2042
f 1942 1943 1944
v -1172.3928 -694.7922 289.1905
v -1172.3933 -694.7924 291.5524
v -1169.4090 -696.7716 282.1050
f 1945 1946 1947
v -1169.4090 -696.7716 282.1050
v -1167.4381 -698.0817 291.5429
v -1167.4375 -698.0814 288.0000
f 1948 1949 1950
v -1172.7026 -706.0061 287.2042
v -1172.7032 -706.0065 291.1711
v -1174.3882 -704.8870 291.1699
f 1951 1952 1953
v -1174.3882 -704.8870 291.1699
v -1177.6474 -702.7222 291.1655
v -1177.6470 -702.7220 288.8986
f 1954 1955 1956
v -1174.3882 -704.8870 291.1699
v -1177.6470 -702.7220 288.8986
v -1177.6464 -702.7218 285.4987
f 1957 1958 1959
v -1177.6464 -702.7218 285.4987
v -1177.6459 -702.7214 282.1028
v -1174.3882 -704.8870 291.1699
f 1960 1961 1962

g building_ID_9421486D-2065-4F70-8845-5FC3E0AF44D0
v -1194.3051 -700.7032 287.2588
v -1192.5362 -701.8908 286.2431
v -1190.7943 -699.3176 286.2317
f 1963 1964 1965
v -1190.2398 -694.5912 287.2602
v -1190.7943 -699.3176 286.2317
v -1188.4159 -695.8030 286.2165
f 1966 1967 1968
v -1194.3051 -700.7032 287.2588
v -1190.7943 -699.3176 286.2317
v -1190.2398 -694.5912 287.2602
f 1969 1970 1971
v -1190.2398 -694.5912 287.2602
v -1191.7579 -693.5811 286.3191
v -1193.8863 -696.7203 286.3014
f 1972 1973 1974
v -1194.3051 -700.7032 287.2588
v -1193.8863 -696.7203 286.3014
v -1195.8651 -699.6390 286.2837
f 1975 1976 1977
v -1190.2398 -694.5912 287.2602
v -1193.8863 -696.7203 286.3014
v -1194.3051 -700.7032 287.2588
f 1978 1979 1980
v -1190.7943 -699.3176 286.2317
v -1188.4156 -695.8028 284.4085
v -1188.4159 -695.8030 286.2165
f 1981 1982 1983
v -1190.0134 -698.1642 281.2600
v -1188.4151 -695.8026 281.2606
v -1188.4156 -695.8028 284.4085
f 1984 1985 1986
v -1190.7943 -699.3176 286.2317
v -1190.0134 -698.1642 281.2600
v -1188.4156 -695.8028 284.4085
f 1987 1988 1989
v -1190.0134 -698.1642 281.2600
v -1190.7943 -699.3176 286.2317
v -1192.5353 -701.8904 281.2592
f 1990 1991 1992
v -1195.8643 -699.6385 281.2588
v -1195.8647 -699.6387 283.7548
v -1193.8863 -696.7203 286.3014
f 1993 1994 1995
v -1195.8643 -699.6385 281.2588
v -1193.8863 -696.7203 286.3014
v -1191.7570 -693.5806 281.2603
f 1996 1997 1998
v -1190.2388 -694.5906 281.2605
v -1188.4151 -695.8026 281.2606
v -1190.0134 -698.1642 281.2600
f 1999 2000 2001
v -1190.2388 -694.5906 281.2605
v -1195.8643 -699.6385 281.2588
v -1191.7570 -693.5806 281.2603
f 2002 2003 2004
v -1195.8643 -699.6385 281.2588
v -1190.2388 -694.5906 281.2605
v -1190.0134 -698.1642 281.2600
f 2005 2006 2007
v -1190.0134 -698.1642 281.2600
v -1194.3041 -700.7027 281.2590
v -1195.8643 -699.6385 281.2588
f 2008 2009 2010
v -1192.5353 -701.8904 281.2592
v -1194.3041 -700.7027 281.2590
v -1190.0134 -698.1642 281.2600
f 2011 2012 2013
v -1191.7576 -693.5809 284.4561
v -1191.7579 -693.5811 286.3191
v -1190.2398 -694.5912 287.2602
f 2014 2015 2016
v -1191.7576 -693.5809 284.4561
v -1190.2388 -694.5906 281.2605
v -1191.7570 -693.5806 281.2603
f 2017 2018 2019
v -1190.2398 -694.5912 287.2602
v -1188.4156 -695.8028 284.4085
v -1191.7576 -693.5809 284.4561
f 2020 2021 2022
v -1190.2388 -694.5906 281.2605
v -1191.7576 -693.5809 284.4561
v -1188.4156 -695.8028 284.4085
f 2023 2024 2025
v -1188.4156 -695.8028 284.4085
v -1188.4151 -695.8026 281.2606
v -1190.2388 -694.5906 281.2605
f 2026 2027 2028
v -1188.4159 -695.8030 286.2165
v -1188.4156 -695.8028 284.4085
v -1190.2398 -694.5912 287.2602
f 2029 2030 2031
v -1194.3041 -700.7027 281.2590
v -1192.5353 -701.8904 281.2592
v -1192.5362 -701.8908 286.2431
f 2032 2033 2034
v -1194.3051 -700.7032 287.2588
v -1195.8647 -699.6387 283.7548
v -1192.5362 -701.8908 286.2431
f 2035 2036 2037
v -1192.5362 -701.8908 286.2431
v -1195.8647 -699.6387 283.7548
v -1195.8643 -699.6385 281.2588
f 2038 2039 2040
v -1194.3051 -700.7032 287.2588
v -1195.8651 -699.6390 286.2837
v -1195.8647 -699.6387 283.7548
f 2041 2042 2043
v -1194.3041 -700.7027 281.2590
v -1192.5362 -701.8908 286.2431
v -1195.8643 -699.6385 281.2588
f 2044 2045 2046
v -1190.7943 -699.3176 286.2317
v -1192.5362 -701.8908 286.2431
v -1192.5353 -701.8904 281.2592
f 2047 2048 2049
v -1191.7570 -693.5806 281.2603
v -1193.8863 -696.7203 286.3014
v -1191.7576 -693.5809 284.4561
f 2050 2051 2052
v -1193.8863 -696.7203 286.3014
v -1195.8647 -699.6387 283.7548
v -1195.8651 -699.6390 286.2837
f 2053 2054 2055
v -1193.8863 -696.7203 286.3014
v -1191.7579 -693.5811 286.3191
v -1191.7576 -693.5809 284.4561
f 2056 2057 2058

g building_ID_C6078A11-2CBB-47A8-BD78-E4327CC8AC76
v -1148.0622 -694.1419 294.4168
v -1145.0453 -696.1927 291.5922
v -1145.0251 -696.1628 291.5912
f 2059 2060 2061
v -1146.9398 -699.0406 291.6005
v -1151.3404 -699.1061 294.4156
v -1148.3144 -701.1060 291.6060
f 2062 2063 2064
v -1146.9398 -699.0406 291.6005
v -1145.0453 -696.1927 291.5922
v -1148.0622 -694.1419 294.4168
f 2065 2066 2067
v -1146.9398 -699.0406 291.6005
v -1148.0622 -694.1419 294.4168
v -1151.3404 -699.1061 294.4156
f 2068 2069 2070
v -1151.3404 -699.1061 294.4156
v -1152.9379 -690.8976 291.5053
v -1156.2353 -695.8737 291.4992
f 2071 2072 2073
v -1151.3404 -699.1061 294.4156
v -1148.0622 -694.1419 294.4168
v -1152.9379 -690.8976 291.5053
f 2074 2075 2076
v -1145.0453 -696.1927 291.5922
v -1146.9398 -699.0406 291.6005
v -1146.6420 -698.5936 281.6339
f 2077 2078 2079
v -1146.6420 -698.5936 281.6339
v -1145.0235 -696.1620 281.6345
v -1145.0453 -696.1927 291.5922
f 2080 2081 2082
v -1146.9398 -699.0406 291.6005
v -1148.3144 -701.1060 291.6060
v -1148.3140 -701.1058 289.1130
f 2083 2084 2085
v -1148.3136 -701.1055 286.6191
v -1148.3127 -701.1051 281.6333
v -1146.9398 -699.0406 291.6005
f 2086 2087 2088
v -1145.0248 -696.1627 289.1023
v -1145.0251 -696.1628 291.5912
v -1145.0453 -696.1927 291.5922
f 2089 2090 2091
v -1145.0235 -696.1620 281.6345
v -1145.0243 -696.1624 286.6123
v -1145.0453 -696.1927 291.5922
f 2092 2093 2094
v -1148.0600 -694.1409 281.6342
v -1148.3127 -701.1051 281.6333
v -1151.3383 -699.1050 281.6330
f 2095 2096 2097
v -1152.9363 -690.8969 281.6336
v -1151.3383 -699.1050 281.6330
v -1156.2336 -695.8729 281.6325
f 2098 2099 2100
v -1148.3127 -701.1051 281.6333
v -1148.0600 -694.1409 281.6342
v -1146.6420 -698.5936 281.6339
f 2101 2102 2103
v -1148.0600 -694.1409 281.6342
v -1145.0235 -696.1620 281.6345
v -1146.6420 -698.5936 281.6339
f 2104 2105 2106
v -1152.9363 -690.8969 281.6336
v -1148.0600 -694.1409 281.6342
v -1151.3383 -699.1050 281.6330
f 2107 2108 2109
v -1145.0248 -696.1627 289.1023
v -1152.9379 -690.8976 291.5053
v -1148.0622 -694.1419 294.4168
f 2110 2111 2112
v -1152.9379 -690.8976 291.5053
v -1148.0600 -694.1409 281.6342
v -1152.9363 -690.8969 281.6336
f 2113 2114 2115
v -1145.0251 -696.1628 291.5912
v -1145.0248 -696.1627 289.1023
v -1148.0622 -694.1419 294.4168
f 2116 2117 2118
v -1152.9379 -690.8976 291.5053
v -1145.0243 -696.1624 286.6123
v -1148.0600 -694.1409 281.6342
f 2119 2120 2121
v -1145.0243 -696.1624 286.6123
v -1145.0235 -696.1620 281.6345
v -1148.0600 -694.1409 281.6342
f 2122 2123 2124
v -1145.0248 -696.1627 289.1023
v -1145.0243 -696.1624 286.6123
v -1152.9379 -690.8976 291.5053
f 2125 2126 2127
v -1151.3383 -699.1050 281.6330
v -1148.3127 -701.1051 281.6333
v -1148.3136 -701.1055 286.6191
f 2128 2129 2130
v -1151.3383 -699.1050 281.6330
v -1148.3136 -701.1055 286.6191
v -1156.2353 -695.8737 291.4992
f 2131 2132 2133
v -1148.3140 -701.1058 289.1130
v -1148.3144 -701.1060 291.6060
v -1151.3404 -699.1061 294.4156
f 2134 2135 2136
v -1151.3383 -699.1050 281.6330
v -1156.2353 -695.8737 291.4992
v -1156.2336 -695.8729 281.6325
f 2137 2138 2139
v -1151.3404 -699.1061 294.4156
v -1156.2353 -695.8737 291.4992
v -1148.3140 -701.1058 289.1130
f 2140 2141 2142
v -1148.3140 -701.1058 289.1130
v -1156.2353 -695.8737 291.4992
v -1148.3136 -701.1055 286.6191
f 2143 2144 2145
v -1152.9363 -690.8969 281.6336
v -1156.2336 -695.8729 281.6325
v -1156.2353 -695.8737 291.4992
f 2146 2147 2148
v -1152.9379 -690.8976 291.5053
v -1152.9363 -690.8969 281.6336
v -1156.2353 -695.8737 291.4992
f 2149 2150 2151
v -1146.9398 -699.0406 291.6005
v -1148.3140 -701.1058 289.1130
v -1148.3136 -701.1055 286.6191
f 2152 2153 2154
v -1148.3127 -701.1051 281.6333
v -1146.6420 -698.5936 281.6339
v -1146.9398 -699.0406 291.6005
f 2155 2156 2157
v -1145.0453 -696.1927 291.5922
v -1145.0243 -696.1624 286.6123
v -1145.0248 -696.1627 289.1023
f 2158 2159 2160
