# Grid Center: 2614800, 1263200
# Global Anchor: 7.64977475454284, 47.53283995868075, 0.0

g building_ID_5B32E9A8-6512-4133-BA2A-55F0ECE7B3D9
v -974.0711 -1317.8149 348.1731
v -972.9743 -1316.3788 348.1725
v -973.8964 -1315.6743 348.1145
f 1 2 3
v -974.8850 -1318.8807 348.1727
v -974.0711 -1317.8149 348.1731
v -973.8964 -1315.6743 348.1145
f 4 5 6
v -974.8850 -1318.8807 348.1727
v -973.8964 -1315.6743 348.1145
v -979.1677 -1310.9580 347.7567
f 7 8 9
v -975.3152 -1309.2905 347.8616
v -976.9559 -1308.0450 347.7576
v -973.8964 -1315.6743 348.1145
f 10 11 12
v -979.1677 -1310.9580 347.7567
v -981.3986 -1313.8961 347.7567
v -974.8850 -1318.8807 348.1727
f 13 14 15
v -973.8964 -1315.6743 348.1145
v -976.9559 -1308.0450 347.7576
v -979.1677 -1310.9580 347.7567
f 16 17 18
v -972.9743 -1316.3788 348.1725
v -973.8954 -1315.6730 340.9968
v -973.8964 -1315.6743 348.1145
f 19 20 21
v -973.8954 -1315.6730 340.9968
v -972.9743 -1316.3788 348.1725
v -972.9733 -1316.3775 340.9968
f 22 23 24
v -973.8964 -1315.6743 348.1145
v -973.8954 -1315.6730 340.9968
v -975.3143 -1309.2892 340.9979
f 25 26 27
v -975.3143 -1309.2892 340.9979
v -976.9559 -1308.0450 347.7576
v -975.3152 -1309.2905 347.8616
f 28 29 30
v -975.3143 -1309.2892 340.9979
v -976.9550 -1308.0438 340.9979
v -976.9559 -1308.0450 347.7576
f 31 32 33
v -981.3986 -1313.8961 347.7567
v -976.9550 -1308.0438 340.9979
v -981.3976 -1313.8948 340.9960
f 34 35 36
v -974.8840 -1318.8793 340.9960
v -974.8850 -1318.8807 348.1727
v -981.3986 -1313.8961 347.7567
f 37 38 39
v -972.9733 -1316.3775 340.9968
v -972.9743 -1316.3788 348.1725
v -973.8564 -1317.5331 340.9964
f 40 41 42
v -974.8850 -1318.8807 348.1727
v -974.8840 -1318.8793 340.9960
v -974.0711 -1317.8149 348.1731
f 43 44 45
v -974.8840 -1318.8793 340.9960
v -973.8564 -1317.5331 340.9964
v -974.0711 -1317.8149 348.1731
f 46 47 48
v -972.9743 -1316.3788 348.1725
v -974.0711 -1317.8149 348.1731
v -973.8564 -1317.5331 340.9964
f 49 50 51
v -973.8954 -1315.6730 340.9968
v -973.8564 -1317.5331 340.9964
v -976.9550 -1308.0438 340.9979
f 52 53 54
v -972.9733 -1316.3775 340.9968
v -973.8564 -1317.5331 340.9964
v -973.8954 -1315.6730 340.9968
f 55 56 57
v -973.8564 -1317.5331 340.9964
v -974.8840 -1318.8793 340.9960
v -976.9550 -1308.0438 340.9979
f 58 59 60
v -973.8954 -1315.6730 340.9968
v -976.9550 -1308.0438 340.9979
v -975.3143 -1309.2892 340.9979
f 61 62 63
v -981.3976 -1313.8948 340.9960
v -976.9550 -1308.0438 340.9979
v -974.8840 -1318.8793 340.9960
f 64 65 66
v -973.8964 -1315.6743 348.1145
v -975.3143 -1309.2892 340.9979
v -975.3152 -1309.2905 347.8616
f 67 68 69
v -976.9550 -1308.0438 340.9979
v -979.1677 -1310.9580 347.7567
v -976.9559 -1308.0450 347.7576
f 70 71 72
v -981.3986 -1313.8961 347.7567
v -979.1677 -1310.9580 347.7567
v -976.9550 -1308.0438 340.9979
f 73 74 75
v -974.8840 -1318.8793 340.9960
v -981.3986 -1313.8961 347.7567
v -981.3976 -1313.8948 340.9960
f 76 77 78
