# Grid Center: 2614400, 1263600
# Global Anchor: 7.64977475454284, 47.53283995868075, 0.0

g building_ID_76693E02-6278-4F0C-9029-35DBFB6980BE
v -1701.9110 -1236.4810 348.9200
v -1705.1735 -1238.8913 349.1466
v -1705.0300 -1239.0647 348.9676
f 1 2 3
v -1705.1735 -1238.8913 349.1466
v -1701.9110 -1236.4810 348.9200
v -1702.0945 -1236.2606 349.1480
f 4 5 6
v -1706.9845 -1236.7063 348.3036
v -1702.0945 -1236.2606 349.1480
v -1703.8645 -1234.1227 348.3229
f 7 8 9
v -1702.0945 -1236.2606 349.1480
v -1706.9845 -1236.7063 348.3036
v -1705.1735 -1238.8913 349.1466
f 10 11 12
v -1701.9106 -1236.4808 347.4251
v -1705.0300 -1239.0647 348.9676
v -1705.0291 -1239.0641 345.6047
f 13 14 15
v -1705.0285 -1239.0637 342.9898
v -1701.9095 -1236.4801 342.9912
v -1701.9106 -1236.4808 347.4251
f 16 17 18
v -1705.0291 -1239.0641 345.6047
v -1705.0285 -1239.0637 342.9898
v -1701.9106 -1236.4808 347.4251
f 19 20 21
v -1703.8639 -1234.1222 345.6570
v -1706.9831 -1236.7054 342.9898
v -1706.9845 -1236.7063 348.3036
f 22 23 24
v -1703.8639 -1234.1222 345.6570
v -1706.9845 -1236.7063 348.3036
v -1703.8645 -1234.1227 348.3229
f 25 26 27
v -1703.8632 -1234.1218 342.9911
v -1706.9831 -1236.7054 342.9898
v -1703.8639 -1234.1222 345.6570
f 28 29 30
v -1705.0285 -1239.0637 342.9898
v -1706.9831 -1236.7054 342.9898
v -1703.8632 -1234.1218 342.9911
f 31 32 33
v -1705.0285 -1239.0637 342.9898
v -1702.0929 -1236.2595 342.9912
v -1701.9095 -1236.4801 342.9912
f 34 35 36
v -1705.0285 -1239.0637 342.9898
v -1703.8632 -1234.1218 342.9911
v -1702.0929 -1236.2595 342.9912
f 37 38 39
v -1701.9106 -1236.4808 347.4251
v -1703.8645 -1234.1227 348.3229
v -1702.0945 -1236.2606 349.1480
f 40 41 42
v -1703.8645 -1234.1227 348.3229
v -1701.9095 -1236.4801 342.9912
v -1703.8639 -1234.1222 345.6570
f 43 44 45
v -1702.0945 -1236.2606 349.1480
v -1701.9110 -1236.4810 348.9200
v -1701.9106 -1236.4808 347.4251
f 46 47 48
v -1703.8639 -1234.1222 345.6570
v -1701.9095 -1236.4801 342.9912
v -1702.0929 -1236.2595 342.9912
f 49 50 51
v -1702.0929 -1236.2595 342.9912
v -1703.8632 -1234.1218 342.9911
v -1703.8639 -1234.1222 345.6570
f 52 53 54
v -1701.9106 -1236.4808 347.4251
v -1701.9095 -1236.4801 342.9912
v -1703.8645 -1234.1227 348.3229
f 55 56 57
v -1705.0291 -1239.0641 345.6047
v -1706.9831 -1236.7054 342.9898
v -1705.0285 -1239.0637 342.9898
f 58 59 60
v -1705.1735 -1238.8913 349.1466
v -1705.0291 -1239.0641 345.6047
v -1705.0300 -1239.0647 348.9676
f 61 62 63
v -1706.9845 -1236.7063 348.3036
v -1705.0291 -1239.0641 345.6047
v -1705.1735 -1238.8913 349.1466
f 64 65 66
v -1706.9845 -1236.7063 348.3036
v -1706.9831 -1236.7054 342.9898
v -1705.0291 -1239.0641 345.6047
f 67 68 69
v -1701.9110 -1236.4810 348.9200
v -1705.0300 -1239.0647 348.9676
v -1701.9106 -1236.4808 347.4251
f 70 71 72

g building_ID_3F3C57AC-498E-403E-A018-DC1C172A6D6E
v -1331.7631 -1158.9290 341.6549
v -1329.1926 -1161.3779 341.6550
v -1329.1937 -1161.3789 347.2958
f 73 74 75
v -1326.3335 -1158.3695 341.6561
v -1326.3346 -1158.3705 347.3279
v -1327.0356 -1159.1076 347.3207
f 76 77 78
v -1326.3335 -1158.3695 341.6561
v -1327.0356 -1159.1076 347.3207
v -1329.1926 -1161.3779 341.6550
f 79 80 81
v -1329.1926 -1161.3779 341.6550
v -1327.0356 -1159.1076 347.3207
v -1329.1937 -1161.3789 347.2958
f 82 83 84
v -1329.1926 -1161.3779 341.6550
v -1331.7631 -1158.9290 341.6549
v -1328.8999 -1155.9247 341.6560
f 85 86 87
v -1326.3335 -1158.3695 341.6561
v -1329.1926 -1161.3779 341.6550
v -1328.8999 -1155.9247 341.6560
f 88 89 90
v -1326.5201 -1158.1939 347.2789
v -1327.0356 -1159.1076 347.3207
v -1326.3346 -1158.3705 347.3279
f 91 92 93
v -1328.9010 -1155.9255 346.6408
v -1327.0356 -1159.1076 347.3207
v -1326.5201 -1158.1939 347.2789
f 94 95 96
v -1329.1937 -1161.3789 347.2958
v -1327.0356 -1159.1076 347.3207
v -1328.9010 -1155.9255 346.6408
f 97 98 99
v -1328.9010 -1155.9255 346.6408
v -1331.7640 -1158.9298 346.6067
v -1329.1937 -1161.3789 347.2958
f 100 101 102
v -1328.9010 -1155.9255 346.6408
v -1326.3335 -1158.3695 341.6561
v -1328.8999 -1155.9247 341.6560
f 103 104 105
v -1326.3335 -1158.3695 341.6561
v -1326.5201 -1158.1939 347.2789
v -1326.3346 -1158.3705 347.3279
f 106 107 108
v -1326.5201 -1158.1939 347.2789
v -1326.3335 -1158.3695 341.6561
v -1328.9010 -1155.9255 346.6408
f 109 110 111
v -1328.8999 -1155.9247 341.6560
v -1331.7640 -1158.9298 346.6067
v -1328.9010 -1155.9255 346.6408
f 112 113 114
v -1328.8999 -1155.9247 341.6560
v -1331.7631 -1158.9290 341.6549
v -1331.7640 -1158.9298 346.6067
f 115 116 117
v -1329.1937 -1161.3789 347.2958
v -1331.7640 -1158.9298 346.6067
v -1331.7631 -1158.9290 341.6549
f 118 119 120

g building_ID_331B9E8E-5598-4E93-8CB2-BDCD892E899E
v -1665.8876 -977.5671 338.6433
v -1669.3659 -979.5507 338.6421
v -1665.6348 -978.7598 338.6432
f 121 122 123
v -1669.7397 -977.9607 338.6423
v -1669.3659 -979.5507 338.6421
v -1665.8876 -977.5671 338.6433
f 124 125 126
v -1669.8654 -977.8614 338.6423
v -1669.8397 -977.9805 338.6423
v -1669.7397 -977.9607 338.6423
f 127 128 129
v -1673.8914 -969.6875 338.6425
v -1671.8965 -978.2910 338.6417
v -1669.8654 -977.8614 338.6423
f 130 131 132
v -1671.0348 -969.0703 338.6433
v -1669.8654 -977.8614 338.6423
v -1669.7397 -977.9607 338.6423
f 133 134 135
v -1671.0348 -969.0703 338.6433
v -1669.7397 -977.9607 338.6423
v -1665.8876 -977.5671 338.6433
f 136 137 138
v -1668.6802 -964.3776 338.6446
v -1667.9818 -968.6814 338.6442
v -1667.7786 -968.6360 338.6442
f 139 140 141
v -1671.9141 -965.0959 338.6437
v -1667.9818 -968.6814 338.6442
v -1668.6802 -964.3776 338.6446
f 142 143 144
v -1671.2349 -969.1187 338.6432
v -1673.8914 -969.6875 338.6425
v -1669.8654 -977.8614 338.6423
f 145 146 147
v -1667.9818 -968.6814 338.6442
v -1671.9141 -965.0959 338.6437
v -1671.0348 -969.0703 338.6433
f 148 149 150
v -1671.2349 -969.1187 338.6432
v -1669.8654 -977.8614 338.6423
v -1671.0348 -969.0703 338.6433
f 151 152 153
v -1671.0348 -969.0703 338.6433
v -1665.8876 -977.5671 338.6433
v -1667.9818 -968.6814 338.6442
f 154 155 156
v -1667.9800 -968.6806 331.5705
v -1667.9818 -968.6814 338.6442
v -1665.8876 -977.5671 338.6433
f 157 158 159
v -1667.7769 -968.6351 331.5705
v -1667.7786 -968.6360 338.6442
v -1667.9818 -968.6814 338.6442
f 160 161 162
v -1668.6784 -964.3767 331.5709
v -1668.6802 -964.3776 338.6446
v -1667.7786 -968.6360 338.6442
f 163 164 165
v -1671.9123 -965.0950 331.5700
v -1671.9141 -965.0959 338.6437
v -1668.6802 -964.3776 338.6446
f 166 167 168
v -1671.0330 -969.0693 331.5696
v -1671.0348 -969.0703 338.6433
v -1671.9141 -965.0959 338.6437
f 169 170 171
v -1671.2331 -969.1178 331.5695
v -1671.2349 -969.1187 338.6432
v -1671.0348 -969.0703 338.6433
f 172 173 174
v -1673.8896 -969.6867 331.5688
v -1673.8914 -969.6875 338.6425
v -1671.2349 -969.1187 338.6432
f 175 176 177
v -1671.8948 -978.2900 331.5680
v -1671.8965 -978.2910 338.6417
v -1673.8914 -969.6875 338.6425
f 178 179 180
v -1669.8636 -977.8605 331.5686
v -1669.8654 -977.8614 338.6423
v -1671.8965 -978.2910 338.6417
f 181 182 183
v -1669.8379 -977.9795 331.5686
v -1669.8397 -977.9805 338.6423
v -1669.8654 -977.8614 338.6423
f 184 185 186
v -1669.7379 -977.9598 331.5686
v -1669.7397 -977.9607 338.6423
v -1669.8397 -977.9805 338.6423
f 187 188 189
v -1669.3641 -979.5498 331.5684
v -1669.3659 -979.5507 338.6421
v -1669.7397 -977.9607 338.6423
f 190 191 192
v -1665.6330 -978.7588 331.5695
v -1665.6348 -978.7598 338.6432
v -1669.3659 -979.5507 338.6421
f 193 194 195
v -1665.8858 -977.5661 331.5696
v -1665.8876 -977.5671 338.6433
v -1665.6348 -978.7598 338.6432
f 196 197 198
v -1667.9800 -968.6806 331.5705
v -1668.6784 -964.3767 331.5709
v -1667.7769 -968.6351 331.5705
f 199 200 201
v -1671.9123 -965.0950 331.5700
v -1668.6784 -964.3767 331.5709
v -1667.9800 -968.6806 331.5705
f 202 203 204
v -1671.0330 -969.0693 331.5696
v -1669.8636 -977.8605 331.5686
v -1671.2331 -969.1178 331.5695
f 205 206 207
v -1671.0330 -969.0693 331.5696
v -1671.9123 -965.0950 331.5700
v -1667.9800 -968.6806 331.5705
f 208 209 210
v -1671.2331 -969.1178 331.5695
v -1669.8636 -977.8605 331.5686
v -1673.8896 -969.6867 331.5688
f 211 212 213
v -1667.9800 -968.6806 331.5705
v -1665.8858 -977.5661 331.5696
v -1671.0330 -969.0693 331.5696
f 214 215 216
v -1665.8858 -977.5661 331.5696
v -1669.3641 -979.5498 331.5684
v -1669.7379 -977.9598 331.5686
f 217 218 219
v -1671.0330 -969.0693 331.5696
v -1669.7379 -977.9598 331.5686
v -1669.8636 -977.8605 331.5686
f 220 221 222
v -1665.6330 -978.7588 331.5695
v -1669.3641 -979.5498 331.5684
v -1665.8858 -977.5661 331.5696
f 223 224 225
v -1673.8896 -969.6867 331.5688
v -1669.8636 -977.8605 331.5686
v -1671.8948 -978.2900 331.5680
f 226 227 228
v -1669.7379 -977.9598 331.5686
v -1669.8379 -977.9795 331.5686
v -1669.8636 -977.8605 331.5686
f 229 230 231
v -1665.8858 -977.5661 331.5696
v -1669.7379 -977.9598 331.5686
v -1671.0330 -969.0693 331.5696
f 232 233 234
v -1667.9800 -968.6806 331.5705
v -1665.8876 -977.5671 338.6433
v -1665.8858 -977.5661 331.5696
f 235 236 237
v -1667.7769 -968.6351 331.5705
v -1667.9818 -968.6814 338.6442
v -1667.9800 -968.6806 331.5705
f 238 239 240
v -1668.6784 -964.3767 331.5709
v -1667.7786 -968.6360 338.6442
v -1667.7769 -968.6351 331.5705
f 241 242 243
v -1671.9123 -965.0950 331.5700
v -1668.6802 -964.3776 338.6446
v -1668.6784 -964.3767 331.5709
f 244 245 246
v -1671.0330 -969.0693 331.5696
v -1671.9141 -965.0959 338.6437
v -1671.9123 -965.0950 331.5700
f 247 248 249
v -1671.2331 -969.1178 331.5695
v -1671.0348 -969.0703 338.6433
v -1671.0330 -969.0693 331.5696
f 250 251 252
v -1673.8896 -969.6867 331.5688
v -1671.2349 -969.1187 338.6432
v -1671.2331 -969.1178 331.5695
f 253 254 255
v -1671.8948 -978.2900 331.5680
v -1673.8914 -969.6875 338.6425
v -1673.8896 -969.6867 331.5688
f 256 257 258
v -1669.8636 -977.8605 331.5686
v -1671.8965 -978.2910 338.6417
v -1671.8948 -978.2900 331.5680
f 259 260 261
v -1669.8379 -977.9795 331.5686
v -1669.8654 -977.8614 338.6423
v -1669.8636 -977.8605 331.5686
f 262 263 264
v -1669.7379 -977.9598 331.5686
v -1669.8397 -977.9805 338.6423
v -1669.8379 -977.9795 331.5686
f 265 266 267
v -1669.3641 -979.5498 331.5684
v -1669.7397 -977.9607 338.6423
v -1669.7379 -977.9598 331.5686
f 268 269 270
v -1665.6330 -978.7588 331.5695
v -1669.3659 -979.5507 338.6421
v -1669.3641 -979.5498 331.5684
f 271 272 273
v -1665.8858 -977.5661 331.5696
v -1665.6348 -978.7598 338.6432
v -1665.6330 -978.7588 331.5695
f 274 275 276
