# Grid Center: 2614600, 1263600
# Global Anchor: 7.64977475454284, 47.53283995868075, 0.0

g building_ID_3F3C57AC-498E-403E-A018-DC1C172A6D6E
v -1331.7631 -1158.9290 341.6549
v -1329.1926 -1161.3779 341.6550
v -1329.1937 -1161.3789 347.2958
f 1 2 3
v -1326.3335 -1158.3695 341.6561
v -1326.3346 -1158.3705 347.3279
v -1327.0356 -1159.1076 347.3207
f 4 5 6
v -1326.3335 -1158.3695 341.6561
v -1327.0356 -1159.1076 347.3207
v -1329.1926 -1161.3779 341.6550
f 7 8 9
v -1329.1926 -1161.3779 341.6550
v -1327.0356 -1159.1076 347.3207
v -1329.1937 -1161.3789 347.2958
f 10 11 12
v -1329.1926 -1161.3779 341.6550
v -1331.7631 -1158.9290 341.6549
v -1328.8999 -1155.9247 341.6560
f 13 14 15
v -1326.3335 -1158.3695 341.6561
v -1329.1926 -1161.3779 341.6550
v -1328.8999 -1155.9247 341.6560
f 16 17 18
v -1326.5201 -1158.1939 347.2789
v -1327.0356 -1159.1076 347.3207
v -1326.3346 -1158.3705 347.3279
f 19 20 21
v -1328.9010 -1155.9255 346.6408
v -1327.0356 -1159.1076 347.3207
v -1326.5201 -1158.1939 347.2789
f 22 23 24
v -1329.1937 -1161.3789 347.2958
v -1327.0356 -1159.1076 347.3207
v -1328.9010 -1155.9255 346.6408
f 25 26 27
v -1328.9010 -1155.9255 346.6408
v -1331.7640 -1158.9298 346.6067
v -1329.1937 -1161.3789 347.2958
f 28 29 30
v -1328.9010 -1155.9255 346.6408
v -1326.3335 -1158.3695 341.6561
v -1328.8999 -1155.9247 341.6560
f 31 32 33
v -1326.3335 -1158.3695 341.6561
v -1326.5201 -1158.1939 347.2789
v -1326.3346 -1158.3705 347.3279
f 34 35 36
v -1326.5201 -1158.1939 347.2789
v -1326.3335 -1158.3695 341.6561
v -1328.9010 -1155.9255 346.6408
f 37 38 39
v -1328.8999 -1155.9247 341.6560
v -1331.7640 -1158.9298 346.6067
v -1328.9010 -1155.9255 346.6408
f 40 41 42
v -1328.8999 -1155.9247 341.6560
v -1331.7631 -1158.9290 341.6549
v -1331.7640 -1158.9298 346.6067
f 43 44 45
v -1329.1937 -1161.3789 347.2958
v -1331.7640 -1158.9298 346.6067
v -1331.7631 -1158.9290 341.6549
f 46 47 48

g building_ID_47CF18A7-21D8-49EA-8BB2-B2C69869354E
v -1276.9539 -967.3098 346.9673
v -1280.8314 -969.7374 346.9861
v -1280.2242 -970.7081 347.9310
f 49 50 51
v -1276.3337 -968.3005 347.9321
v -1276.9539 -967.3098 346.9673
v -1280.2242 -970.7081 347.9310
f 52 53 54
v -1279.4713 -971.9101 347.1161
v -1275.5978 -969.4774 347.1342
v -1276.3337 -968.3005 347.9321
f 55 56 57
v -1280.2242 -970.7081 347.9310
v -1279.4713 -971.9101 347.1161
v -1276.3337 -968.3005 347.9321
f 58 59 60
v -1280.8304 -969.7366 341.4293
v -1280.8314 -969.7374 346.9861
v -1276.9539 -967.3098 346.9673
f 61 62 63
v -1276.9539 -967.3098 346.9673
v -1276.9531 -967.3093 342.8004
v -1280.8304 -969.7366 341.4293
f 64 65 66
v -1276.9531 -967.3093 342.8004
v -1276.9529 -967.3090 341.4305
v -1280.8304 -969.7366 341.4293
f 67 68 69
v -1279.4713 -971.9101 347.1161
v -1275.5969 -969.4768 342.8563
v -1275.5978 -969.4774 347.1342
f 70 71 72
v -1279.4713 -971.9101 347.1161
v -1279.4705 -971.9094 342.8382
v -1275.5969 -969.4768 342.8563
f 73 74 75
v -1279.4705 -971.9094 342.8382
v -1279.4702 -971.9093 341.4293
v -1275.5969 -969.4768 342.8563
f 76 77 78
v -1275.5967 -969.4767 341.4304
v -1275.5969 -969.4768 342.8563
v -1279.4702 -971.9093 341.4293
f 79 80 81
v -1280.8304 -969.7366 341.4293
v -1276.9529 -967.3090 341.4305
v -1276.3325 -968.2997 341.4304
f 82 83 84
v -1280.2230 -970.7072 341.4293
v -1276.3325 -968.2997 341.4304
v -1279.4702 -971.9093 341.4293
f 85 86 87
v -1275.5967 -969.4767 341.4304
v -1279.4702 -971.9093 341.4293
v -1276.3325 -968.2997 341.4304
f 88 89 90
v -1280.8304 -969.7366 341.4293
v -1276.3325 -968.2997 341.4304
v -1280.2230 -970.7072 341.4293
f 91 92 93
v -1276.3325 -968.2997 341.4304
v -1276.9531 -967.3093 342.8004
v -1275.5969 -969.4768 342.8563
f 94 95 96
v -1276.9531 -967.3093 342.8004
v -1276.9539 -967.3098 346.9673
v -1275.5969 -969.4768 342.8563
f 97 98 99
v -1276.9531 -967.3093 342.8004
v -1276.3325 -968.2997 341.4304
v -1276.9529 -967.3090 341.4305
f 100 101 102
v -1276.3325 -968.2997 341.4304
v -1275.5969 -969.4768 342.8563
v -1275.5967 -969.4767 341.4304
f 103 104 105
v -1275.5978 -969.4774 347.1342
v -1276.9539 -967.3098 346.9673
v -1276.3337 -968.3005 347.9321
f 106 107 108
v -1275.5969 -969.4768 342.8563
v -1276.9539 -967.3098 346.9673
v -1275.5978 -969.4774 347.1342
f 109 110 111
v -1280.2242 -970.7081 347.9310
v -1280.8314 -969.7374 346.9861
v -1279.4713 -971.9101 347.1161
f 112 113 114
v -1279.4713 -971.9101 347.1161
v -1280.8304 -969.7366 341.4293
v -1279.4705 -971.9094 342.8382
f 115 116 117
v -1279.4713 -971.9101 347.1161
v -1280.8314 -969.7374 346.9861
v -1280.8304 -969.7366 341.4293
f 118 119 120
v -1280.2230 -970.7072 341.4293
v -1279.4702 -971.9093 341.4293
v -1279.4705 -971.9094 342.8382
f 121 122 123
v -1280.8304 -969.7366 341.4293
v -1280.2230 -970.7072 341.4293
v -1279.4705 -971.9094 342.8382
f 124 125 126
