# Grid Center: 2614400, 1263800
# Global Anchor: 7.64977475454284, 47.53283995868075, 0.0

g building_ID_331B9E8E-5598-4E93-8CB2-BDCD892E899E
v -1665.8876 -977.5671 338.6433
v -1669.3659 -979.5507 338.6421
v -1665.6348 -978.7598 338.6432
f 1 2 3
v -1669.7397 -977.9607 338.6423
v -1669.3659 -979.5507 338.6421
v -1665.8876 -977.5671 338.6433
f 4 5 6
v -1669.8654 -977.8614 338.6423
v -1669.8397 -977.9805 338.6423
v -1669.7397 -977.9607 338.6423
f 7 8 9
v -1673.8914 -969.6875 338.6425
v -1671.8965 -978.2910 338.6417
v -1669.8654 -977.8614 338.6423
f 10 11 12
v -1671.0348 -969.0703 338.6433
v -1669.8654 -977.8614 338.6423
v -1669.7397 -977.9607 338.6423
f 13 14 15
v -1671.0348 -969.0703 338.6433
v -1669.7397 -977.9607 338.6423
v -1665.8876 -977.5671 338.6433
f 16 17 18
v -1668.6802 -964.3776 338.6446
v -1667.9818 -968.6814 338.6442
v -1667.7786 -968.6360 338.6442
f 19 20 21
v -1671.9141 -965.0959 338.6437
v -1667.9818 -968.6814 338.6442
v -1668.6802 -964.3776 338.6446
f 22 23 24
v -1671.2349 -969.1187 338.6432
v -1673.8914 -969.6875 338.6425
v -1669.8654 -977.8614 338.6423
f 25 26 27
v -1667.9818 -968.6814 338.6442
v -1671.9141 -965.0959 338.6437
v -1671.0348 -969.0703 338.6433
f 28 29 30
v -1671.2349 -969.1187 338.6432
v -1669.8654 -977.8614 338.6423
v -1671.0348 -969.0703 338.6433
f 31 32 33
v -1671.0348 -969.0703 338.6433
v -1665.8876 -977.5671 338.6433
v -1667.9818 -968.6814 338.6442
f 34 35 36
v -1667.9800 -968.6806 331.5705
v -1667.9818 -968.6814 338.6442
v -1665.8876 -977.5671 338.6433
f 37 38 39
v -1667.7769 -968.6351 331.5705
v -1667.7786 -968.6360 338.6442
v -1667.9818 -968.6814 338.6442
f 40 41 42
v -1668.6784 -964.3767 331.5709
v -1668.6802 -964.3776 338.6446
v -1667.7786 -968.6360 338.6442
f 43 44 45
v -1671.9123 -965.0950 331.5700
v -1671.9141 -965.0959 338.6437
v -1668.6802 -964.3776 338.6446
f 46 47 48
v -1671.0330 -969.0693 331.5696
v -1671.0348 -969.0703 338.6433
v -1671.9141 -965.0959 338.6437
f 49 50 51
v -1671.2331 -969.1178 331.5695
v -1671.2349 -969.1187 338.6432
v -1671.0348 -969.0703 338.6433
f 52 53 54
v -1673.8896 -969.6867 331.5688
v -1673.8914 -969.6875 338.6425
v -1671.2349 -969.1187 338.6432
f 55 56 57
v -1671.8948 -978.2900 331.5680
v -1671.8965 -978.2910 338.6417
v -1673.8914 -969.6875 338.6425
f 58 59 60
v -1669.8636 -977.8605 331.5686
v -1669.8654 -977.8614 338.6423
v -1671.8965 -978.2910 338.6417
f 61 62 63
v -1669.8379 -977.9795 331.5686
v -1669.8397 -977.9805 338.6423
v -1669.8654 -977.8614 338.6423
f 64 65 66
v -1669.7379 -977.9598 331.5686
v -1669.7397 -977.9607 338.6423
v -1669.8397 -977.9805 338.6423
f 67 68 69
v -1669.3641 -979.5498 331.5684
v -1669.3659 -979.5507 338.6421
v -1669.7397 -977.9607 338.6423
f 70 71 72
v -1665.6330 -978.7588 331.5695
v -1665.6348 -978.7598 338.6432
v -1669.3659 -979.5507 338.6421
f 73 74 75
v -1665.8858 -977.5661 331.5696
v -1665.8876 -977.5671 338.6433
v -1665.6348 -978.7598 338.6432
f 76 77 78
v -1667.9800 -968.6806 331.5705
v -1668.6784 -964.3767 331.5709
v -1667.7769 -968.6351 331.5705
f 79 80 81
v -1671.9123 -965.0950 331.5700
v -1668.6784 -964.3767 331.5709
v -1667.9800 -968.6806 331.5705
f 82 83 84
v -1671.0330 -969.0693 331.5696
v -1669.8636 -977.8605 331.5686
v -1671.2331 -969.1178 331.5695
f 85 86 87
v -1671.0330 -969.0693 331.5696
v -1671.9123 -965.0950 331.5700
v -1667.9800 -968.6806 331.5705
f 88 89 90
v -1671.2331 -969.1178 331.5695
v -1669.8636 -977.8605 331.5686
v -1673.8896 -969.6867 331.5688
f 91 92 93
v -1667.9800 -968.6806 331.5705
v -1665.8858 -977.5661 331.5696
v -1671.0330 -969.0693 331.5696
f 94 95 96
v -1665.8858 -977.5661 331.5696
v -1669.3641 -979.5498 331.5684
v -1669.7379 -977.9598 331.5686
f 97 98 99
v -1671.0330 -969.0693 331.5696
v -1669.7379 -977.9598 331.5686
v -1669.8636 -977.8605 331.5686
f 100 101 102
v -1665.6330 -978.7588 331.5695
v -1669.3641 -979.5498 331.5684
v -1665.8858 -977.5661 331.5696
f 103 104 105
v -1673.8896 -969.6867 331.5688
v -1669.8636 -977.8605 331.5686
v -1671.8948 -978.2900 331.5680
f 106 107 108
v -1669.7379 -977.9598 331.5686
v -1669.8379 -977.9795 331.5686
v -1669.8636 -977.8605 331.5686
f 109 110 111
v -1665.8858 -977.5661 331.5696
v -1669.7379 -977.9598 331.5686
v -1671.0330 -969.0693 331.5696
f 112 113 114
v -1667.9800 -968.6806 331.5705
v -1665.8876 -977.5671 338.6433
v -1665.8858 -977.5661 331.5696
f 115 116 117
v -1667.7769 -968.6351 331.5705
v -1667.9818 -968.6814 338.6442
v -1667.9800 -968.6806 331.5705
f 118 119 120
v -1668.6784 -964.3767 331.5709
v -1667.7786 -968.6360 338.6442
v -1667.7769 -968.6351 331.5705
f 121 122 123
v -1671.9123 -965.0950 331.5700
v -1668.6802 -964.3776 338.6446
v -1668.6784 -964.3767 331.5709
f 124 125 126
v -1671.0330 -969.0693 331.5696
v -1671.9141 -965.0959 338.6437
v -1671.9123 -965.0950 331.5700
f 127 128 129
v -1671.2331 -969.1178 331.5695
v -1671.0348 -969.0703 338.6433
v -1671.0330 -969.0693 331.5696
f 130 131 132
v -1673.8896 -969.6867 331.5688
v -1671.2349 -969.1187 338.6432
v -1671.2331 -969.1178 331.5695
f 133 134 135
v -1671.8948 -978.2900 331.5680
v -1673.8914 -969.6875 338.6425
v -1673.8896 -969.6867 331.5688
f 136 137 138
v -1669.8636 -977.8605 331.5686
v -1671.8965 -978.2910 338.6417
v -1671.8948 -978.2900 331.5680
f 139 140 141
v -1669.8379 -977.9795 331.5686
v -1669.8654 -977.8614 338.6423
v -1669.8636 -977.8605 331.5686
f 142 143 144
v -1669.7379 -977.9598 331.5686
v -1669.8397 -977.9805 338.6423
v -1669.8379 -977.9795 331.5686
f 145 146 147
v -1669.3641 -979.5498 331.5684
v -1669.7397 -977.9607 338.6423
v -1669.7379 -977.9598 331.5686
f 148 149 150
v -1665.6330 -978.7588 331.5695
v -1669.3659 -979.5507 338.6421
v -1669.3641 -979.5498 331.5684
f 151 152 153
v -1665.8858 -977.5661 331.5696
v -1665.6348 -978.7598 338.6432
v -1665.6330 -978.7588 331.5695
f 154 155 156
