# Grid Center: 2614200, 1264200
# Global Anchor: 7.64977475454284, 47.53283995868075, 0.0

g building_ID_C33E516A-398D-4952-A2B9-4F0E23AF17C5
v -1598.7843 -303.6478 292.7682
v -1599.3994 -307.3280 289.7209
v -1595.2543 -308.0132 289.6449
f 1 2 3
v -1598.7843 -303.6478 292.7682
v -1595.2543 -308.0132 289.6449
v -1590.5585 -304.8189 292.7702
f 4 5 6
v -1591.1091 -308.6982 289.5689
v -1590.5585 -304.8189 292.7702
v -1595.2543 -308.0132 289.6449
f 7 8 9
v -1589.9726 -300.7063 289.1816
v -1591.7176 -300.4575 279.7556
v -1591.7199 -300.4577 289.1812
f 10 11 12
v -1589.9726 -300.7063 289.1816
v -1589.9704 -300.7062 279.7560
v -1591.7176 -300.4575 279.7556
f 13 14 15
v -1591.8356 -301.1691 279.7555
v -1591.7199 -300.4577 289.1812
v -1591.7176 -300.4575 279.7556
f 16 17 18
v -1591.1091 -308.6982 289.5689
v -1599.3970 -307.3278 279.7533
v -1591.1082 -308.6982 285.8310
f 19 20 21
v -1591.1091 -308.6982 289.5689
v -1595.2543 -308.0132 289.6449
v -1599.3970 -307.3278 279.7533
f 22 23 24
v -1591.1068 -308.6981 279.7553
v -1591.8356 -301.1691 279.7555
v -1590.5554 -304.8185 279.7557
f 25 26 27
v -1591.7176 -300.4575 279.7556
v -1589.9704 -300.7062 279.7560
v -1591.8356 -301.1691 279.7555
f 28 29 30
v -1590.5554 -304.8185 279.7557
v -1591.8356 -301.1691 279.7555
v -1589.9704 -300.7062 279.7560
f 31 32 33
v -1591.8356 -301.1691 279.7555
v -1591.1068 -308.6981 279.7553
v -1598.7812 -303.6475 279.7537
f 34 35 36
v -1598.7812 -303.6475 279.7537
v -1591.1068 -308.6981 279.7553
v -1599.3970 -307.3278 279.7533
f 37 38 39
v -1598.7812 -303.6475 279.7537
v -1598.1897 -300.1121 279.7540
v -1591.8356 -301.1691 279.7555
f 40 41 42
v -1592.9035 -300.9925 289.7819
v -1590.5585 -304.8189 292.7702
v -1591.8380 -301.1694 289.8041
f 43 44 45
v -1589.9726 -300.7063 289.1816
v -1591.8380 -301.1694 289.8041
v -1590.5585 -304.8189 292.7702
f 46 47 48
v -1598.7843 -303.6478 292.7682
v -1590.5585 -304.8189 292.7702
v -1598.1920 -300.1124 289.6716
f 49 50 51
v -1592.9035 -300.9925 289.7819
v -1598.1920 -300.1124 289.6716
v -1590.5585 -304.8189 292.7702
f 52 53 54
v -1589.9726 -300.7063 289.1816
v -1591.7199 -300.4577 289.1812
v -1591.8380 -301.1694 289.8041
f 55 56 57
v -1590.5554 -304.8185 279.7557
v -1589.9704 -300.7062 279.7560
v -1589.9726 -300.7063 289.1816
f 58 59 60
v -1590.5554 -304.8185 279.7557
v -1591.1082 -308.6982 285.8310
v -1591.1068 -308.6981 279.7553
f 61 62 63
v -1591.1082 -308.6982 285.8310
v -1590.5554 -304.8185 279.7557
v -1589.9726 -300.7063 289.1816
f 64 65 66
v -1589.9726 -300.7063 289.1816
v -1591.1091 -308.6982 289.5689
v -1591.1082 -308.6982 285.8310
f 67 68 69
v -1591.1091 -308.6982 289.5689
v -1589.9726 -300.7063 289.1816
v -1590.5585 -304.8189 292.7702
f 70 71 72
v -1591.8356 -301.1691 279.7555
v -1598.1897 -300.1121 279.7540
v -1598.1920 -300.1124 289.6716
f 73 74 75
v -1592.9035 -300.9925 289.7819
v -1591.8356 -301.1691 279.7555
v -1598.1920 -300.1124 289.6716
f 76 77 78
v -1591.8380 -301.1694 289.8041
v -1591.8356 -301.1691 279.7555
v -1592.9035 -300.9925 289.7819
f 79 80 81
v -1599.3994 -307.3280 289.7209
v -1598.1920 -300.1124 289.6716
v -1599.3970 -307.3278 279.7533
f 82 83 84
v -1598.7843 -303.6478 292.7682
v -1598.1920 -300.1124 289.6716
v -1599.3994 -307.3280 289.7209
f 85 86 87
v -1598.7812 -303.6475 279.7537
v -1598.1920 -300.1124 289.6716
v -1598.1897 -300.1121 279.7540
f 88 89 90
v -1598.1920 -300.1124 289.6716
v -1598.7812 -303.6475 279.7537
v -1599.3970 -307.3278 279.7533
f 91 92 93
v -1591.7199 -300.4577 289.1812
v -1591.8356 -301.1691 279.7555
v -1591.8380 -301.1694 289.8041
f 94 95 96
v -1591.1082 -308.6982 285.8310
v -1599.3970 -307.3278 279.7533
v -1591.1068 -308.6981 279.7553
f 97 98 99
v -1595.2543 -308.0132 289.6449
v -1599.3994 -307.3280 289.7209
v -1599.3970 -307.3278 279.7533
f 100 101 102

g building_ID_5C7109AE-0210-4F1A-81A9-5FEE8F750513
v -1498.8726 -399.8951 293.7069
v -1500.9570 -398.7824 291.0215
v -1503.6845 -403.8230 290.9816
f 103 104 105
v -1504.8496 -411.0979 293.7047
v -1503.6845 -403.8230 290.9816
v -1506.9939 -409.9391 290.9344
f 106 107 108
v -1498.8726 -399.8951 293.7069
v -1503.6845 -403.8230 290.9816
v -1504.8496 -411.0979 293.7047
f 109 110 111
v -1502.9291 -412.2290 290.9562
v -1502.8941 -412.2481 290.9072
v -1502.8899 -412.1561 290.9562
f 112 113 114
v -1498.8726 -399.8951 293.7069
v -1502.8899 -412.1561 290.9562
v -1496.8729 -400.9614 290.9094
f 115 116 117
v -1502.8941 -412.2481 290.9072
v -1496.8729 -400.9614 290.9094
v -1502.8899 -412.1561 290.9562
f 118 119 120
v -1498.8726 -399.8951 293.7069
v -1504.8496 -411.0979 293.7047
v -1502.8899 -412.1561 290.9562
f 121 122 123
v -1506.9918 -409.9387 281.6957
v -1506.9939 -409.9391 290.9344
v -1503.6845 -403.8230 290.9816
f 124 125 126
v -1500.9562 -398.7823 287.5256
v -1500.9549 -398.7821 281.6978
v -1503.6845 -403.8230 290.9816
f 127 128 129
v -1500.9549 -398.7821 281.6978
v -1506.9918 -409.9387 281.6957
v -1503.6845 -403.8230 290.9816
f 130 131 132
v -1502.9270 -412.2286 281.6965
v -1502.9291 -412.2290 290.9562
v -1502.8899 -412.1561 290.9562
f 133 134 135
v -1502.8920 -412.2478 281.6965
v -1502.8941 -412.2481 290.9072
v -1502.9270 -412.2286 281.6965
f 136 137 138
v -1502.9291 -412.2290 290.9562
v -1502.9270 -412.2286 281.6965
v -1502.8941 -412.2481 290.9072
f 139 140 141
v -1496.8708 -400.9610 281.6987
v -1496.8729 -400.9614 290.9094
v -1502.8941 -412.2481 290.9072
f 142 143 144
v -1500.9549 -398.7821 281.6978
v -1498.8700 -399.8946 281.6983
v -1506.9918 -409.9387 281.6957
f 145 146 147
v -1502.8878 -412.1557 281.6965
v -1498.8700 -399.8946 281.6983
v -1496.8708 -400.9610 281.6987
f 148 149 150
v -1502.8878 -412.1557 281.6965
v -1502.8920 -412.2478 281.6965
v -1502.9270 -412.2286 281.6965
f 151 152 153
v -1502.8920 -412.2478 281.6965
v -1502.8878 -412.1557 281.6965
v -1496.8708 -400.9610 281.6987
f 154 155 156
v -1502.8878 -412.1557 281.6965
v -1506.9918 -409.9387 281.6957
v -1498.8700 -399.8946 281.6983
f 157 158 159
v -1506.9939 -409.9391 290.9344
v -1502.8899 -412.1561 290.9562
v -1504.8496 -411.0979 293.7047
f 160 161 162
v -1506.9939 -409.9391 290.9344
v -1502.8878 -412.1557 281.6965
v -1502.8899 -412.1561 290.9562
f 163 164 165
v -1506.9939 -409.9391 290.9344
v -1506.9918 -409.9387 281.6957
v -1502.8878 -412.1557 281.6965
f 166 167 168
v -1498.8700 -399.8946 281.6983
v -1500.9562 -398.7823 287.5256
v -1496.8708 -400.9610 281.6987
f 169 170 171
v -1500.9562 -398.7823 287.5256
v -1498.8700 -399.8946 281.6983
v -1500.9549 -398.7821 281.6978
f 172 173 174
v -1496.8729 -400.9614 290.9094
v -1500.9570 -398.7824 291.0215
v -1498.8726 -399.8951 293.7069
f 175 176 177
v -1500.9570 -398.7824 291.0215
v -1496.8729 -400.9614 290.9094
v -1500.9562 -398.7823 287.5256
f 178 179 180
v -1496.8708 -400.9610 281.6987
v -1500.9562 -398.7823 287.5256
v -1496.8729 -400.9614 290.9094
f 181 182 183
v -1503.6845 -403.8230 290.9816
v -1500.9570 -398.7824 291.0215
v -1500.9562 -398.7823 287.5256
f 184 185 186
v -1502.9270 -412.2286 281.6965
v -1502.8899 -412.1561 290.9562
v -1502.8878 -412.1557 281.6965
f 187 188 189
v -1496.8708 -400.9610 281.6987
v -1502.8941 -412.2481 290.9072
v -1502.8920 -412.2478 281.6965
f 190 191 192

g building_ID_44832909-13A8-4521-93F5-F9E82A8767AF
v -1619.8541 -391.0642 286.3832
v -1621.2410 -387.3095 286.3831
v -1621.7653 -390.7552 286.3827
f 193 194 195
v -1621.2410 -387.3095 286.3831
v -1619.8541 -391.0642 286.3832
v -1619.2969 -387.6048 286.3835
f 196 197 198
v -1619.2955 -387.6046 281.1307
v -1619.2969 -387.6048 286.3835
v -1619.8541 -391.0642 286.3832
f 199 200 201
v -1621.2397 -387.3093 281.1303
v -1621.2410 -387.3095 286.3831
v -1619.2969 -387.6048 286.3835
f 202 203 204
v -1619.8528 -391.0640 281.1304
v -1621.7640 -390.7550 281.1299
v -1621.2397 -387.3093 281.1303
f 205 206 207
v -1621.2397 -387.3093 281.1303
v -1619.2955 -387.6046 281.1307
v -1619.8528 -391.0640 281.1304
f 208 209 210
v -1620.6686 -383.0492 286.6045
v -1625.6784 -382.2397 286.6032
v -1621.3327 -387.1573 286.6040
f 211 212 213
v -1626.9505 -390.1042 286.6024
v -1621.3327 -387.1573 286.6040
v -1625.6784 -382.2397 286.6032
f 214 215 216
v -1621.2207 -387.1756 286.6041
v -1621.3327 -387.1573 286.6040
v -1621.7653 -390.7552 286.6037
f 217 218 219
v -1621.9103 -390.7318 286.6037
v -1626.9505 -390.1042 286.6024
v -1621.9418 -390.9297 286.6037
f 220 221 222
v -1621.3327 -387.1573 286.6040
v -1621.9103 -390.7318 286.6037
v -1621.7653 -390.7552 286.6037
f 223 224 225
v -1621.3327 -387.1573 286.6040
v -1626.9505 -390.1042 286.6024
v -1621.9103 -390.7318 286.6037
f 226 227 228
v -1621.3313 -387.1571 280.8732
v -1621.3327 -387.1573 286.6040
v -1621.2207 -387.1756 286.6041
f 229 230 231
v -1620.6672 -383.0489 280.8737
v -1620.6686 -383.0492 286.6045
v -1621.3327 -387.1573 286.6040
f 232 233 234
v -1625.6770 -382.2396 280.8724
v -1625.6784 -382.2397 286.6032
v -1620.6686 -383.0492 286.6045
f 235 236 237
v -1626.9491 -390.1041 280.8716
v -1626.9505 -390.1042 286.6024
v -1625.6784 -382.2397 286.6032
f 238 239 240
v -1621.9089 -390.7315 280.8729
v -1621.9103 -390.7318 286.6037
v -1621.9418 -390.9297 286.6037
f 241 242 243
v -1621.9404 -390.9295 280.8729
v -1626.9491 -390.1041 280.8716
v -1621.9089 -390.7315 280.8729
f 244 245 246
v -1621.3313 -387.1571 280.8732
v -1621.9089 -390.7315 280.8729
v -1626.9491 -390.1041 280.8716
f 247 248 249
v -1621.7639 -390.7549 280.8729
v -1621.9089 -390.7315 280.8729
v -1621.2193 -387.1755 280.8733
f 250 251 252
v -1621.3313 -387.1571 280.8732
v -1625.6770 -382.2396 280.8724
v -1620.6672 -383.0489 280.8737
f 253 254 255
v -1621.9089 -390.7315 280.8729
v -1621.3313 -387.1571 280.8732
v -1621.2193 -387.1755 280.8733
f 256 257 258
v -1626.9491 -390.1041 280.8716
v -1625.6770 -382.2396 280.8724
v -1621.3313 -387.1571 280.8732
f 259 260 261
v -1621.2410 -387.3095 286.3831
v -1621.2397 -387.3093 281.1303
v -1621.2207 -387.1756 286.6041
f 262 263 264
v -1621.7653 -390.7552 286.6037
v -1621.2410 -387.3095 286.3831
v -1621.2207 -387.1756 286.6041
f 265 266 267
v -1621.7639 -390.7549 280.8729
v -1621.2193 -387.1755 280.8733
v -1621.2397 -387.3093 281.1303
f 268 269 270
v -1621.2410 -387.3095 286.3831
v -1621.7653 -390.7552 286.6037
v -1621.7653 -390.7552 286.3827
f 271 272 273
v -1621.2397 -387.3093 281.1303
v -1621.7640 -390.7550 281.1299
v -1621.7639 -390.7549 280.8729
f 274 275 276
v -1621.9404 -390.9295 280.8729
v -1621.9418 -390.9297 286.6037
v -1626.9491 -390.1041 280.8716
f 277 278 279
v -1619.8528 -391.0640 281.1304
v -1619.8541 -391.0642 286.3832
v -1621.7653 -390.7552 286.3827
f 280 281 282
v -1621.7653 -390.7552 286.3827
v -1621.7653 -390.7552 286.6037
v -1621.9103 -390.7318 286.6037
f 283 284 285
v -1621.7640 -390.7550 281.1299
v -1621.7653 -390.7552 286.3827
v -1621.9103 -390.7318 286.6037
f 286 287 288
v -1621.7639 -390.7549 280.8729
v -1621.7640 -390.7550 281.1299
v -1621.9089 -390.7315 280.8729
f 289 290 291
v -1619.2955 -387.6046 281.1307
v -1619.8541 -391.0642 286.3832
v -1619.8528 -391.0640 281.1304
f 292 293 294
v -1621.2397 -387.3093 281.1303
v -1619.2969 -387.6048 286.3835
v -1619.2955 -387.6046 281.1307
f 295 296 297
v -1621.3313 -387.1571 280.8732
v -1621.2207 -387.1756 286.6041
v -1621.2193 -387.1755 280.8733
f 298 299 300
v -1620.6672 -383.0489 280.8737
v -1621.3327 -387.1573 286.6040
v -1621.3313 -387.1571 280.8732
f 301 302 303
v -1625.6770 -382.2396 280.8724
v -1620.6686 -383.0492 286.6045
v -1620.6672 -383.0489 280.8737
f 304 305 306
v -1626.9491 -390.1041 280.8716
v -1625.6784 -382.2397 286.6032
v -1625.6770 -382.2396 280.8724
f 307 308 309
v -1621.9089 -390.7315 280.8729
v -1621.9418 -390.9297 286.6037
v -1621.9404 -390.9295 280.8729
f 310 311 312
v -1621.2397 -387.3093 281.1303
v -1621.2193 -387.1755 280.8733
v -1621.2207 -387.1756 286.6041
f 313 314 315
v -1621.9418 -390.9297 286.6037
v -1626.9505 -390.1042 286.6024
v -1626.9491 -390.1041 280.8716
f 316 317 318
v -1619.8528 -391.0640 281.1304
v -1621.7653 -390.7552 286.3827
v -1621.7640 -390.7550 281.1299
f 319 320 321
v -1621.7640 -390.7550 281.1299
v -1621.9103 -390.7318 286.6037
v -1621.9089 -390.7315 280.8729
f 322 323 324

g building_ID_132292E1-A27F-4FC1-BD4E-CD80EFCCB8BA
v -1493.9388 -437.7509 291.8265
v -1492.3187 -435.0883 291.8151
v -1494.4856 -433.7716 293.9536
f 325 326 327
v -1493.9388 -437.7509 291.8265
v -1494.4856 -433.7716 293.9536
v -1498.1931 -439.9246 293.9523
f 328 329 330
v -1496.0521 -441.2242 291.8398
v -1493.1869 -438.2080 291.0837
v -1493.9388 -437.7509 291.8265
f 331 332 333
v -1498.1931 -439.9246 293.9523
v -1496.0521 -441.2242 291.8398
v -1493.9388 -437.7509 291.8265
f 334 335 336
v -1496.1204 -441.3390 291.8398
v -1495.3675 -441.7960 291.0969
v -1496.0521 -441.2242 291.8398
f 337 338 339
v -1495.3675 -441.7960 291.0969
v -1493.1869 -438.2080 291.0837
v -1496.0521 -441.2242 291.8398
f 340 341 342
v -1503.2763 -436.8398 292.0104
v -1498.1931 -439.9246 293.9523
v -1501.4523 -433.8358 292.0150
f 343 344 345
v -1494.4856 -433.7716 293.9536
v -1501.4523 -433.8358 292.0150
v -1498.1931 -439.9246 293.9523
f 346 347 348
v -1500.2956 -430.2409 291.7335
v -1501.4523 -433.8358 292.0150
v -1494.4856 -433.7716 293.9536
f 349 350 351
v -1500.2956 -430.2409 291.7335
v -1502.2040 -433.3798 291.7279
v -1501.4523 -433.8358 292.0150
f 352 353 354
v -1495.3675 -441.7960 291.0969
v -1495.3656 -441.7957 282.3733
v -1493.1869 -438.2080 291.0837
f 355 356 357
v -1493.9368 -437.7505 282.3739
v -1493.1869 -438.2080 291.0837
v -1493.1850 -438.2075 282.3741
f 358 359 360
v -1493.9368 -437.7505 282.3739
v -1492.3166 -435.0879 282.3745
v -1493.9388 -437.7509 291.8265
f 361 362 363
v -1496.1183 -441.3386 282.3732
v -1496.1204 -441.3390 291.8398
v -1496.0521 -441.2242 291.8398
f 364 365 366
v -1496.1204 -441.3390 291.8398
v -1495.3656 -441.7957 282.3733
v -1495.3675 -441.7960 291.0969
f 367 368 369
v -1496.1204 -441.3390 291.8398
v -1496.1183 -441.3386 282.3732
v -1495.3656 -441.7957 282.3733
f 370 371 372
v -1500.2935 -430.2405 282.3729
v -1502.2019 -433.3793 282.3723
v -1502.2040 -433.3798 291.7279
f 373 374 375
v -1500.2956 -430.2409 291.7335
v -1500.2940 -430.2407 284.7128
v -1502.2040 -433.3798 291.7279
f 376 377 378
v -1502.2040 -433.3798 291.7279
v -1500.2940 -430.2407 284.7128
v -1500.2935 -430.2405 282.3729
f 379 380 381
v -1502.2019 -433.3793 282.3723
v -1501.4501 -433.8354 282.3724
v -1501.4523 -433.8358 292.0150
f 382 383 384
v -1501.4523 -433.8358 292.0150
v -1502.2040 -433.3798 291.7279
v -1502.2019 -433.3793 282.3723
f 385 386 387
v -1501.4501 -433.8354 282.3724
v -1502.2019 -433.3793 282.3723
v -1500.2935 -430.2405 282.3729
f 388 389 390
v -1501.4501 -433.8354 282.3724
v -1500.2935 -430.2405 282.3729
v -1494.4831 -433.7710 282.3741
f 391 392 393
v -1501.4501 -433.8354 282.3724
v -1498.1905 -439.9241 282.3728
v -1503.2742 -436.8394 282.3718
f 394 395 396
v -1498.1905 -439.9241 282.3728
v -1501.4501 -433.8354 282.3724
v -1494.4831 -433.7710 282.3741
f 397 398 399
v -1498.1905 -439.9241 282.3728
v -1494.4831 -433.7710 282.3741
v -1493.9368 -437.7505 282.3739
f 400 401 402
v -1493.9368 -437.7505 282.3739
v -1494.4831 -433.7710 282.3741
v -1492.3166 -435.0879 282.3745
f 403 404 405
v -1495.3656 -441.7957 282.3733
v -1496.1183 -441.3386 282.3732
v -1496.0500 -441.2238 282.3732
f 406 407 408
v -1495.3656 -441.7957 282.3733
v -1496.0500 -441.2238 282.3732
v -1493.1850 -438.2075 282.3741
f 409 410 411
v -1493.1850 -438.2075 282.3741
v -1496.0500 -441.2238 282.3732
v -1493.9368 -437.7505 282.3739
f 412 413 414
v -1498.1905 -439.9241 282.3728
v -1493.9368 -437.7505 282.3739
v -1496.0500 -441.2238 282.3732
f 415 416 417
v -1500.2940 -430.2407 284.7128
v -1500.2956 -430.2409 291.7335
v -1494.4856 -433.7716 293.9536
f 418 419 420
v -1500.2940 -430.2407 284.7128
v -1494.4856 -433.7716 293.9536
v -1492.3187 -435.0883 291.8151
f 421 422 423
v -1500.2935 -430.2405 282.3729
v -1492.3187 -435.0883 291.8151
v -1492.3177 -435.0881 287.0893
f 424 425 426
v -1500.2940 -430.2407 284.7128
v -1492.3187 -435.0883 291.8151
v -1500.2935 -430.2405 282.3729
f 427 428 429
v -1500.2935 -430.2405 282.3729
v -1492.3177 -435.0881 287.0893
v -1494.4831 -433.7710 282.3741
f 430 431 432
v -1492.3166 -435.0879 282.3745
v -1494.4831 -433.7710 282.3741
v -1492.3177 -435.0881 287.0893
f 433 434 435
v -1498.1905 -439.9241 282.3728
v -1496.0500 -441.2238 282.3732
v -1496.0521 -441.2242 291.8398
f 436 437 438
v -1503.2763 -436.8398 292.0104
v -1498.1905 -439.9241 282.3728
v -1496.0521 -441.2242 291.8398
f 439 440 441
v -1503.2742 -436.8394 282.3718
v -1498.1905 -439.9241 282.3728
v -1503.2763 -436.8398 292.0104
f 442 443 444
v -1498.1931 -439.9246 293.9523
v -1503.2763 -436.8398 292.0104
v -1496.0521 -441.2242 291.8398
f 445 446 447
v -1503.2742 -436.8394 282.3718
v -1503.2763 -436.8398 292.0104
v -1501.4523 -433.8358 292.0150
f 448 449 450
v -1501.4501 -433.8354 282.3724
v -1503.2742 -436.8394 282.3718
v -1501.4523 -433.8358 292.0150
f 451 452 453
v -1495.3656 -441.7957 282.3733
v -1493.1850 -438.2075 282.3741
v -1493.1869 -438.2080 291.0837
f 454 455 456
v -1493.9388 -437.7509 291.8265
v -1493.1869 -438.2080 291.0837
v -1493.9368 -437.7505 282.3739
f 457 458 459
v -1493.9388 -437.7509 291.8265
v -1492.3177 -435.0881 287.0893
v -1492.3187 -435.0883 291.8151
f 460 461 462
v -1492.3177 -435.0881 287.0893
v -1493.9388 -437.7509 291.8265
v -1492.3166 -435.0879 282.3745
f 463 464 465
v -1496.1183 -441.3386 282.3732
v -1496.0521 -441.2242 291.8398
v -1496.0500 -441.2238 282.3732
f 466 467 468

g building_ID_A923324F-9B05-4245-B740-D259C6BA8C18
v -1494.9743 -401.9755 293.8676
v -1496.8729 -400.9614 290.9094
v -1501.8697 -412.7079 292.4463
f 469 470 471
v -1501.8697 -412.7079 292.4463
v -1500.9614 -413.1994 293.8655
v -1494.9743 -401.9755 293.8676
f 472 473 474
v -1496.8729 -400.9614 290.9094
v -1501.9219 -412.7667 292.4213
v -1501.8697 -412.7079 292.4463
f 475 476 477
v -1496.8729 -400.9614 290.9094
v -1502.8941 -412.2481 290.9072
v -1501.9219 -412.7667 292.4213
f 478 479 480
v -1501.8679 -412.7075 284.3846
v -1501.8697 -412.7079 292.4463
v -1501.9219 -412.7667 292.4213
f 481 482 483
v -1501.9194 -412.7664 281.6967
v -1501.8673 -412.7074 281.6967
v -1501.9219 -412.7667 292.4213
f 484 485 486
v -1502.8920 -412.2478 281.6965
v -1502.8941 -412.2481 290.9072
v -1496.8729 -400.9614 290.9094
f 487 488 489
v -1502.8941 -412.2481 290.9072
v -1502.8920 -412.2478 281.6965
v -1501.9219 -412.7667 292.4213
f 490 491 492
v -1501.9219 -412.7667 292.4213
v -1502.8920 -412.2478 281.6965
v -1501.9194 -412.7664 281.6967
f 493 494 495
v -1492.9275 -403.0646 281.6995
v -1492.9295 -403.0649 290.9102
v -1498.9266 -414.2978 290.9080
f 496 497 498
v -1492.9275 -403.0646 281.6995
v -1498.9246 -414.2974 281.6973
v -1500.9586 -413.1989 281.6969
f 499 500 501
v -1501.8673 -412.7074 281.6967
v -1501.9194 -412.7664 281.6967
v -1502.8920 -412.2478 281.6965
f 502 503 504
v -1494.9716 -401.9751 281.6990
v -1501.8673 -412.7074 281.6967
v -1496.8708 -400.9610 281.6987
f 505 506 507
v -1502.8920 -412.2478 281.6965
v -1496.8708 -400.9610 281.6987
v -1501.8673 -412.7074 281.6967
f 508 509 510
v -1494.9716 -401.9751 281.6990
v -1492.9275 -403.0646 281.6995
v -1500.9586 -413.1989 281.6969
f 511 512 513
v -1501.8673 -412.7074 281.6967
v -1494.9716 -401.9751 281.6990
v -1500.9586 -413.1989 281.6969
f 514 515 516
v -1492.9295 -403.0649 290.9102
v -1500.9614 -413.1994 293.8655
v -1498.9266 -414.2978 290.9080
f 517 518 519
v -1500.9614 -413.1994 293.8655
v -1492.9295 -403.0649 290.9102
v -1494.9743 -401.9755 293.8676
f 520 521 522
v -1500.9586 -413.1989 281.6969
v -1498.9246 -414.2974 281.6973
v -1501.8679 -412.7075 284.3846
f 523 524 525
v -1498.9266 -414.2978 290.9080
v -1501.8679 -412.7075 284.3846
v -1498.9246 -414.2974 281.6973
f 526 527 528
v -1501.8679 -412.7075 284.3846
v -1501.8673 -412.7074 281.6967
v -1500.9586 -413.1989 281.6969
f 529 530 531
v -1501.8697 -412.7079 292.4463
v -1498.9266 -414.2978 290.9080
v -1500.9614 -413.1994 293.8655
f 532 533 534
v -1501.8697 -412.7079 292.4463
v -1501.8679 -412.7075 284.3846
v -1498.9266 -414.2978 290.9080
f 535 536 537
v -1492.9275 -403.0646 281.6995
v -1494.9716 -401.9751 281.6990
v -1492.9295 -403.0649 290.9102
f 538 539 540
v -1496.8708 -400.9610 281.6987
v -1492.9295 -403.0649 290.9102
v -1494.9716 -401.9751 281.6990
f 541 542 543
v -1492.9295 -403.0649 290.9102
v -1496.8729 -400.9614 290.9094
v -1494.9743 -401.9755 293.8676
f 544 545 546
v -1496.8708 -400.9610 281.6987
v -1496.8729 -400.9614 290.9094
v -1492.9295 -403.0649 290.9102
f 547 548 549
v -1501.8673 -412.7074 281.6967
v -1501.8679 -412.7075 284.3846
v -1501.9219 -412.7667 292.4213
f 550 551 552
v -1502.8920 -412.2478 281.6965
v -1496.8729 -400.9614 290.9094
v -1496.8708 -400.9610 281.6987
f 553 554 555
v -1492.9275 -403.0646 281.6995
v -1498.9266 -414.2978 290.9080
v -1498.9246 -414.2974 281.6973
f 556 557 558

g building_ID_70601574-4E1F-403C-A2A4-AF95D28CDB73
v -1496.1214 -441.3390 291.8398
v -1496.0521 -441.2242 291.8398
v -1498.1931 -439.9246 293.9523
f 559 560 561
v -1498.1931 -439.9246 293.9523
v -1497.6010 -443.7751 291.8483
v -1496.1214 -441.3390 291.8398
f 562 563 564
v -1497.6010 -443.7751 291.8483
v -1498.1931 -439.9246 293.9523
v -1501.8323 -445.9647 293.9510
f 565 566 567
v -1498.0735 -446.2477 291.1130
v -1496.8480 -444.2320 291.1054
v -1497.6010 -443.7751 291.8483
f 568 569 570
v -1499.7163 -447.2493 291.8635
v -1499.6186 -447.3876 291.7325
v -1497.6010 -443.7751 291.8483
f 571 572 573
v -1499.6186 -447.3876 291.7325
v -1499.7163 -447.2493 291.8635
v -1499.7866 -447.3642 291.8635
f 574 575 576
v -1499.6537 -447.4455 291.7325
v -1499.6186 -447.3876 291.7325
v -1499.7866 -447.3642 291.8635
f 577 578 579
v -1498.9955 -447.7633 291.1186
v -1498.0735 -446.2477 291.1130
v -1499.6186 -447.3876 291.7325
f 580 581 582
v -1497.6010 -443.7751 291.8483
v -1499.6186 -447.3876 291.7325
v -1498.0735 -446.2477 291.1130
f 583 584 585
v -1501.8323 -445.9647 293.9510
v -1499.7163 -447.2493 291.8635
v -1497.6010 -443.7751 291.8483
f 586 587 588
v -1501.8323 -445.9647 293.9510
v -1505.1225 -439.8729 292.0048
v -1506.9394 -442.8620 292.0001
f 589 590 591
v -1504.6859 -437.4621 291.7210
v -1505.1225 -439.8729 292.0048
v -1503.2763 -436.8398 292.0104
f 592 593 594
v -1504.6859 -437.4621 291.7210
v -1505.8752 -439.4159 291.7176
v -1505.1225 -439.8729 292.0048
f 595 596 597
v -1498.1931 -439.9246 293.9523
v -1505.1225 -439.8729 292.0048
v -1501.8323 -445.9647 293.9510
f 598 599 600
v -1503.2763 -436.8398 292.0104
v -1503.2221 -436.7510 292.0104
v -1503.6633 -436.4838 291.8423
f 601 602 603
v -1504.6859 -437.4621 291.7210
v -1503.2763 -436.8398 292.0104
v -1503.6633 -436.4838 291.8423
f 604 605 606
v -1503.9979 -436.3320 291.7233
v -1504.6859 -437.4621 291.7210
v -1503.9570 -436.3571 291.7393
f 607 608 609
v -1503.6633 -436.4838 291.8423
v -1503.9570 -436.3571 291.7393
v -1504.6859 -437.4621 291.7210
f 610 611 612
v -1503.6633 -436.4838 291.8423
v -1503.9349 -436.3201 291.7393
v -1503.9570 -436.3571 291.7393
f 613 614 615
v -1498.1931 -439.9246 293.9523
v -1503.2763 -436.8398 292.0104
v -1505.1225 -439.8729 292.0048
f 616 617 618
v -1496.8480 -444.2320 291.1054
v -1497.7195 -445.6664 284.8244
v -1496.8461 -444.2316 282.3728
f 619 620 621
v -1498.9955 -447.7633 291.1186
v -1498.9935 -447.7629 282.3719
v -1498.0735 -446.2477 291.1130
f 622 623 624
v -1498.4562 -446.8803 282.3721
v -1496.8461 -444.2316 282.3728
v -1497.7195 -445.6664 284.8244
f 625 626 627
v -1497.7195 -445.6664 284.8244
v -1498.9935 -447.7629 282.3719
v -1498.4562 -446.8803 282.3721
f 628 629 630
v -1497.5988 -443.7746 282.3727
v -1497.6010 -443.7751 291.8483
v -1496.8480 -444.2320 291.1054
f 631 632 633
v -1497.5988 -443.7746 282.3727
v -1496.8480 -444.2320 291.1054
v -1496.8461 -444.2316 282.3728
f 634 635 636
v -1499.7844 -447.3637 282.3718
v -1499.7866 -447.3642 291.8635
v -1499.7163 -447.2493 291.8635
f 637 638 639
v -1499.6517 -447.4450 282.3718
v -1499.6537 -447.4455 291.7325
v -1499.7844 -447.3637 282.3718
f 640 641 642
v -1499.6165 -447.3871 282.3718
v -1499.6186 -447.3876 291.7325
v -1499.6537 -447.4455 291.7325
f 643 644 645
v -1499.6186 -447.3876 291.7325
v -1498.9935 -447.7629 282.3719
v -1498.9955 -447.7633 291.1186
f 646 647 648
v -1499.6186 -447.3876 291.7325
v -1499.6165 -447.3871 282.3718
v -1498.9935 -447.7629 282.3719
f 649 650 651
v -1505.1225 -439.8729 292.0048
v -1505.8730 -439.4155 282.3710
v -1505.1203 -439.8724 282.3712
f 652 653 654
v -1505.8730 -439.4155 282.3710
v -1505.1225 -439.8729 292.0048
v -1505.8752 -439.4159 291.7176
f 655 656 657
v -1503.2763 -436.8398 292.0104
v -1503.2742 -436.8394 282.3718
v -1503.2221 -436.7510 292.0104
f 658 659 660
v -1503.2221 -436.7510 292.0104
v -1503.2742 -436.8394 282.3718
v -1503.2199 -436.7506 282.3718
f 661 662 663
v -1503.9328 -436.3197 282.3717
v -1503.6633 -436.4838 291.8423
v -1503.2199 -436.7506 282.3718
f 664 665 666
v -1503.9549 -436.3567 282.3717
v -1503.9570 -436.3571 291.7393
v -1503.9349 -436.3201 291.7393
f 667 668 669
v -1503.9549 -436.3567 282.3717
v -1503.9349 -436.3201 291.7393
v -1503.9328 -436.3197 282.3717
f 670 671 672
v -1503.9570 -436.3571 291.7393
v -1503.9958 -436.3315 282.3717
v -1503.9979 -436.3320 291.7233
f 673 674 675
v -1503.9570 -436.3571 291.7393
v -1503.9549 -436.3567 282.3717
v -1503.9958 -436.3315 282.3717
f 676 677 678
v -1505.0515 -438.0667 282.3713
v -1505.8730 -439.4155 282.3710
v -1505.8752 -439.4159 291.7176
f 679 680 681
v -1504.6859 -437.4621 291.7210
v -1505.0515 -438.0667 282.3713
v -1505.8752 -439.4159 291.7176
f 682 683 684
v -1503.9979 -436.3320 291.7233
v -1503.9958 -436.3315 282.3717
v -1504.6859 -437.4621 291.7210
f 685 686 687
v -1499.7844 -447.3637 282.3718
v -1499.6165 -447.3871 282.3718
v -1499.6517 -447.4450 282.3718
f 688 689 690
v -1499.6165 -447.3871 282.3718
v -1498.4562 -446.8803 282.3721
v -1498.9935 -447.7629 282.3719
f 691 692 693
v -1499.6165 -447.3871 282.3718
v -1499.7844 -447.3637 282.3718
v -1499.7142 -447.2489 282.3718
f 694 695 696
v -1498.4562 -446.8803 282.3721
v -1499.7142 -447.2489 282.3718
v -1501.8297 -445.9643 282.3715
f 697 698 699
v -1499.7142 -447.2489 282.3718
v -1498.4562 -446.8803 282.3721
v -1499.6165 -447.3871 282.3718
f 700 701 702
v -1497.5988 -443.7746 282.3727
v -1496.8461 -444.2316 282.3728
v -1501.8297 -445.9643 282.3715
f 703 704 705
v -1497.5988 -443.7746 282.3727
v -1498.1905 -439.9241 282.3728
v -1496.1194 -441.3386 282.3732
f 706 707 708
v -1496.0500 -441.2238 282.3732
v -1496.1194 -441.3386 282.3732
v -1498.1905 -439.9241 282.3728
f 709 710 711
v -1496.8461 -444.2316 282.3728
v -1498.4562 -446.8803 282.3721
v -1501.8297 -445.9643 282.3715
f 712 713 714
v -1501.8297 -445.9643 282.3715
v -1505.1203 -439.8724 282.3712
v -1497.5988 -443.7746 282.3727
f 715 716 717
v -1497.5988 -443.7746 282.3727
v -1505.1203 -439.8724 282.3712
v -1498.1905 -439.9241 282.3728
f 718 719 720
v -1506.9373 -442.8615 282.3705
v -1505.1203 -439.8724 282.3712
v -1501.8297 -445.9643 282.3715
f 721 722 723
v -1505.1203 -439.8724 282.3712
v -1505.8730 -439.4155 282.3710
v -1505.0515 -438.0667 282.3713
f 724 725 726
v -1498.1905 -439.9241 282.3728
v -1505.1203 -439.8724 282.3712
v -1505.0515 -438.0667 282.3713
f 727 728 729
v -1503.2742 -436.8394 282.3718
v -1498.1905 -439.9241 282.3728
v -1505.0515 -438.0667 282.3713
f 730 731 732
v -1503.9549 -436.3567 282.3717
v -1503.2199 -436.7506 282.3718
v -1503.2742 -436.8394 282.3718
f 733 734 735
v -1503.9958 -436.3315 282.3717
v -1503.9549 -436.3567 282.3717
v -1505.0515 -438.0667 282.3713
f 736 737 738
v -1503.2742 -436.8394 282.3718
v -1505.0515 -438.0667 282.3713
v -1503.9549 -436.3567 282.3717
f 739 740 741
v -1503.2199 -436.7506 282.3718
v -1503.9549 -436.3567 282.3717
v -1503.9328 -436.3197 282.3717
f 742 743 744
v -1496.1194 -441.3386 282.3732
v -1496.0521 -441.2242 291.8398
v -1496.1214 -441.3390 291.8398
f 745 746 747
v -1496.0521 -441.2242 291.8398
v -1496.1194 -441.3386 282.3732
v -1496.0500 -441.2238 282.3732
f 748 749 750
v -1496.1194 -441.3386 282.3732
v -1496.1214 -441.3390 291.8398
v -1497.6010 -443.7751 291.8483
f 751 752 753
v -1496.1194 -441.3386 282.3732
v -1497.6010 -443.7751 291.8483
v -1497.5988 -443.7746 282.3727
f 754 755 756
v -1498.1905 -439.9241 282.3728
v -1503.2742 -436.8394 282.3718
v -1503.2763 -436.8398 292.0104
f 757 758 759
v -1498.1931 -439.9246 293.9523
v -1496.0521 -441.2242 291.8398
v -1503.2763 -436.8398 292.0104
f 760 761 762
v -1498.1905 -439.9241 282.3728
v -1496.0521 -441.2242 291.8398
v -1496.0500 -441.2238 282.3732
f 763 764 765
v -1503.2763 -436.8398 292.0104
v -1496.0521 -441.2242 291.8398
v -1498.1905 -439.9241 282.3728
f 766 767 768
v -1501.8297 -445.9643 282.3715
v -1499.7142 -447.2489 282.3718
v -1499.7163 -447.2493 291.8635
f 769 770 771
v -1506.9394 -442.8620 292.0001
v -1501.8297 -445.9643 282.3715
v -1499.7163 -447.2493 291.8635
f 772 773 774
v -1506.9373 -442.8615 282.3705
v -1501.8297 -445.9643 282.3715
v -1506.9394 -442.8620 292.0001
f 775 776 777
v -1501.8323 -445.9647 293.9510
v -1506.9394 -442.8620 292.0001
v -1499.7163 -447.2493 291.8635
f 778 779 780
v -1506.9373 -442.8615 282.3705
v -1506.9394 -442.8620 292.0001
v -1505.1203 -439.8724 282.3712
f 781 782 783
v -1505.1225 -439.8729 292.0048
v -1505.1203 -439.8724 282.3712
v -1506.9394 -442.8620 292.0001
f 784 785 786
v -1496.8480 -444.2320 291.1054
v -1498.0735 -446.2477 291.1130
v -1497.7195 -445.6664 284.8244
f 787 788 789
v -1498.9935 -447.7629 282.3719
v -1497.7195 -445.6664 284.8244
v -1498.0735 -446.2477 291.1130
f 790 791 792
v -1499.7844 -447.3637 282.3718
v -1499.7163 -447.2493 291.8635
v -1499.7142 -447.2489 282.3718
f 793 794 795
v -1499.6537 -447.4455 291.7325
v -1499.7866 -447.3642 291.8635
v -1499.7844 -447.3637 282.3718
f 796 797 798
v -1499.6165 -447.3871 282.3718
v -1499.6537 -447.4455 291.7325
v -1499.6517 -447.4450 282.3718
f 799 800 801
v -1503.9349 -436.3201 291.7393
v -1503.6633 -436.4838 291.8423
v -1503.9328 -436.3197 282.3717
f 802 803 804
v -1503.2221 -436.7510 292.0104
v -1503.2199 -436.7506 282.3718
v -1503.6633 -436.4838 291.8423
f 805 806 807
v -1503.9958 -436.3315 282.3717
v -1505.0515 -438.0667 282.3713
v -1504.6859 -437.4621 291.7210
f 808 809 810

g building_ID_58A1BD68-B8B1-4958-9FD0-D02D22F7EBE1
v -1499.7866 -447.3642 291.8635
v -1501.8323 -445.9647 293.9510
v -1501.2611 -449.7902 291.8730
f 811 812 813
v -1505.4453 -451.9600 293.9497
v -1501.2611 -449.7902 291.8730
v -1501.8323 -445.9647 293.9510
f 814 815 816
v -1499.7163 -447.2493 291.8635
v -1501.8323 -445.9647 293.9510
v -1499.7866 -447.3642 291.8635
f 817 818 819
v -1501.8742 -452.4935 291.1386
v -1500.5091 -450.2471 291.1311
v -1501.2611 -449.7902 291.8730
f 820 821 822
v -1501.8742 -452.4935 291.1386
v -1501.2611 -449.7902 291.8730
v -1505.4453 -451.9600 293.9497
f 823 824 825
v -1502.5933 -453.6776 291.1424
v -1501.8742 -452.4935 291.1386
v -1505.4453 -451.9600 293.9497
f 826 827 828
v -1510.5856 -448.8622 291.9908
v -1505.4453 -451.9600 293.9497
v -1509.9377 -447.7959 291.9921
f 829 830 831
v -1509.9377 -447.7959 291.9921
v -1505.4453 -451.9600 293.9497
v -1508.7796 -445.8890 291.9945
f 832 833 834
v -1508.7796 -445.8890 291.9945
v -1505.4453 -451.9600 293.9497
v -1501.8323 -445.9647 293.9510
f 835 836 837
v -1506.9394 -442.8620 292.0001
v -1508.2888 -443.3874 291.7108
v -1508.7796 -445.8890 291.9945
f 838 839 840
v -1506.9394 -442.8620 292.0001
v -1506.8832 -442.7691 292.0001
v -1507.2046 -442.5743 291.8771
f 841 842 843
v -1508.2888 -443.3874 291.7108
v -1506.9394 -442.8620 292.0001
v -1507.2046 -442.5743 291.8771
f 844 845 846
v -1509.5313 -445.4320 291.7073
v -1508.7796 -445.8890 291.9945
v -1508.2888 -443.3874 291.7108
f 847 848 849
v -1507.6359 -442.3132 291.7120
v -1508.2888 -443.3874 291.7108
v -1507.2046 -442.5743 291.8771
f 850 851 852
v -1501.8323 -445.9647 293.9510
v -1506.9394 -442.8620 292.0001
v -1508.7796 -445.8890 291.9945
f 853 854 855
v -1500.5091 -450.2471 291.1311
v -1501.8742 -452.4935 291.1386
v -1501.4715 -451.8341 282.3711
f 856 857 858
v -1501.4715 -451.8341 282.3711
v -1500.5072 -450.2467 282.3714
v -1500.5091 -450.2471 291.1311
f 859 860 861
v -1501.4715 -451.8341 282.3711
v -1501.8742 -452.4935 291.1386
v -1502.5928 -453.6774 288.9495
f 862 863 864
v -1502.5924 -453.6774 286.7566
v -1502.5914 -453.6772 282.3707
v -1501.4715 -451.8341 282.3711
f 865 866 867
v -1508.2888 -443.3874 291.7108
v -1509.5292 -445.4316 282.3697
v -1509.5313 -445.4320 291.7073
f 868 869 870
v -1508.2888 -443.3874 291.7108
v -1507.6359 -442.3132 291.7120
v -1509.5292 -445.4316 282.3697
f 871 872 873
v -1507.6359 -442.3132 291.7120
v -1507.6338 -442.3128 282.3704
v -1509.5292 -445.4316 282.3697
f 874 875 876
v -1509.5292 -445.4316 282.3697
v -1508.7774 -445.8886 282.3699
v -1508.7796 -445.8890 291.9945
f 877 878 879
v -1510.5850 -448.8620 289.5849
v -1510.5856 -448.8622 291.9908
v -1509.9377 -447.7959 291.9921
f 880 881 882
v -1508.7774 -445.8886 282.3699
v -1510.5834 -448.8617 282.3691
v -1509.9377 -447.7959 291.9921
f 883 884 885
v -1509.9377 -447.7959 291.9921
v -1508.7796 -445.8890 291.9945
v -1508.7774 -445.8886 282.3699
f 886 887 888
v -1506.9394 -442.8620 292.0001
v -1506.8810 -442.7687 282.3705
v -1506.8832 -442.7691 292.0001
f 889 890 891
v -1506.9394 -442.8620 292.0001
v -1506.9373 -442.8615 282.3705
v -1506.8810 -442.7687 282.3705
f 892 893 894
v -1506.8810 -442.7687 282.3705
v -1507.6338 -442.3128 282.3704
v -1507.2046 -442.5743 291.8771
f 895 896 897
v -1507.2046 -442.5743 291.8771
v -1507.6338 -442.3128 282.3704
v -1507.6359 -442.3132 291.7120
f 898 899 900
v -1506.8832 -442.7691 292.0001
v -1506.8810 -442.7687 282.3705
v -1507.2046 -442.5743 291.8771
f 901 902 903
v -1505.4427 -451.9595 282.3701
v -1501.4715 -451.8341 282.3711
v -1502.5914 -453.6772 282.3707
f 904 905 906
v -1505.4427 -451.9595 282.3701
v -1501.2589 -449.7898 282.3713
v -1501.4715 -451.8341 282.3711
f 907 908 909
v -1501.8297 -445.9643 282.3715
v -1499.7844 -447.3637 282.3718
v -1501.2589 -449.7898 282.3713
f 910 911 912
v -1501.2589 -449.7898 282.3713
v -1508.7774 -445.8886 282.3699
v -1501.8297 -445.9643 282.3715
f 913 914 915
v -1499.7142 -447.2489 282.3718
v -1499.7844 -447.3637 282.3718
v -1501.8297 -445.9643 282.3715
f 916 917 918
v -1501.2589 -449.7898 282.3713
v -1500.5072 -450.2467 282.3714
v -1501.4715 -451.8341 282.3711
f 919 920 921
v -1508.7774 -445.8886 282.3699
v -1501.2589 -449.7898 282.3713
v -1505.4427 -451.9595 282.3701
f 922 923 924
v -1508.7774 -445.8886 282.3699
v -1509.5292 -445.4316 282.3697
v -1501.8297 -445.9643 282.3715
f 925 926 927
v -1507.6338 -442.3128 282.3704
v -1506.8810 -442.7687 282.3705
v -1506.9373 -442.8615 282.3705
f 928 929 930
v -1506.9373 -442.8615 282.3705
v -1509.5292 -445.4316 282.3697
v -1507.6338 -442.3128 282.3704
f 931 932 933
v -1506.9373 -442.8615 282.3705
v -1501.8297 -445.9643 282.3715
v -1509.5292 -445.4316 282.3697
f 934 935 936
v -1510.5834 -448.8617 282.3691
v -1508.7774 -445.8886 282.3699
v -1505.4427 -451.9595 282.3701
f 937 938 939
v -1499.7844 -447.3637 282.3718
v -1499.7163 -447.2493 291.8635
v -1499.7866 -447.3642 291.8635
f 940 941 942
v -1499.7163 -447.2493 291.8635
v -1499.7844 -447.3637 282.3718
v -1499.7142 -447.2489 282.3718
f 943 944 945
v -1499.7844 -447.3637 282.3718
v -1499.7866 -447.3642 291.8635
v -1501.2589 -449.7898 282.3713
f 946 947 948
v -1499.7866 -447.3642 291.8635
v -1501.2611 -449.7902 291.8730
v -1501.2589 -449.7898 282.3713
f 949 950 951
v -1501.8297 -445.9643 282.3715
v -1506.9373 -442.8615 282.3705
v -1506.9394 -442.8620 292.0001
f 952 953 954
v -1501.8323 -445.9647 293.9510
v -1499.7163 -447.2493 291.8635
v -1506.9394 -442.8620 292.0001
f 955 956 957
v -1501.8297 -445.9643 282.3715
v -1499.7163 -447.2493 291.8635
v -1499.7142 -447.2489 282.3718
f 958 959 960
v -1506.9394 -442.8620 292.0001
v -1499.7163 -447.2493 291.8635
v -1501.8297 -445.9643 282.3715
f 961 962 963
v -1510.5844 -448.8620 287.1780
v -1505.4427 -451.9595 282.3701
v -1502.5924 -453.6774 286.7566
f 964 965 966
v -1502.5924 -453.6774 286.7566
v -1505.4427 -451.9595 282.3701
v -1502.5914 -453.6772 282.3707
f 967 968 969
v -1510.5844 -448.8620 287.1780
v -1502.5924 -453.6774 286.7566
v -1502.5928 -453.6774 288.9495
f 970 971 972
v -1510.5850 -448.8620 289.5849
v -1502.5928 -453.6774 288.9495
v -1505.4453 -451.9600 293.9497
f 973 974 975
v -1510.5856 -448.8622 291.9908
v -1510.5850 -448.8620 289.5849
v -1505.4453 -451.9600 293.9497
f 976 977 978
v -1510.5844 -448.8620 287.1780
v -1510.5834 -448.8617 282.3691
v -1505.4427 -451.9595 282.3701
f 979 980 981
v -1510.5850 -448.8620 289.5849
v -1510.5844 -448.8620 287.1780
v -1502.5928 -453.6774 288.9495
f 982 983 984
v -1502.5928 -453.6774 288.9495
v -1502.5933 -453.6776 291.1424
v -1505.4453 -451.9600 293.9497
f 985 986 987
v -1500.5072 -450.2467 282.3714
v -1501.2589 -449.7898 282.3713
v -1500.5091 -450.2471 291.1311
f 988 989 990
v -1501.2611 -449.7902 291.8730
v -1500.5091 -450.2471 291.1311
v -1501.2589 -449.7898 282.3713
f 991 992 993
v -1501.8742 -452.4935 291.1386
v -1502.5933 -453.6776 291.1424
v -1502.5928 -453.6774 288.9495
f 994 995 996
v -1501.4715 -451.8341 282.3711
v -1502.5928 -453.6774 288.9495
v -1502.5924 -453.6774 286.7566
f 997 998 999
v -1508.7796 -445.8890 291.9945
v -1509.5313 -445.4320 291.7073
v -1509.5292 -445.4316 282.3697
f 1000 1001 1002
v -1509.9377 -447.7959 291.9921
v -1510.5844 -448.8620 287.1780
v -1510.5850 -448.8620 289.5849
f 1003 1004 1005
v -1510.5844 -448.8620 287.1780
v -1509.9377 -447.7959 291.9921
v -1510.5834 -448.8617 282.3691
f 1006 1007 1008

g building_ID_78D42012-F14B-44AB-804E-EAA47B88CD98
v -1859.1643 -401.9498 283.8934
v -1865.2449 -402.5715 283.8915
v -1864.9523 -405.3532 283.8915
f 1009 1010 1011
v -1859.1043 -401.9440 283.8934
v -1859.1643 -401.9498 283.8934
v -1858.8030 -404.8187 283.8933
f 1012 1013 1014
v -1864.9523 -405.3532 283.8915
v -1858.8030 -404.8187 283.8933
v -1859.1643 -401.9498 283.8934
f 1015 1016 1017
v -1858.8016 -404.8186 278.7415
v -1858.8030 -404.8187 283.8933
v -1864.9523 -405.3532 283.8915
f 1018 1019 1020
v -1865.2450 -402.5705 284.2066
v -1863.3425 -393.5997 286.1796
v -1866.1557 -393.8931 284.1908
f 1021 1022 1023
v -1863.3425 -393.5997 286.1796
v -1865.2450 -402.5705 284.2066
v -1862.4538 -402.2851 286.1793
f 1024 1025 1026
v -1859.1042 -401.9440 283.8514
v -1859.1643 -401.9498 283.8934
v -1859.1043 -401.9440 283.8934
f 1027 1028 1029
v -1860.0145 -393.2524 278.7419
v -1860.0159 -393.2526 283.8667
v -1859.1042 -401.9440 283.8514
f 1030 1031 1032
v -1858.8030 -404.8187 283.8933
v -1858.8016 -404.8186 278.7415
v -1859.1042 -401.9440 283.8514
f 1033 1034 1035
v -1859.1043 -401.9440 283.8934
v -1858.8030 -404.8187 283.8933
v -1859.1042 -401.9440 283.8514
f 1036 1037 1038
v -1865.2434 -402.5712 278.7398
v -1864.9509 -405.3530 278.7397
v -1865.2449 -402.5715 283.8915
f 1039 1040 1041
v -1864.9523 -405.3532 283.8915
v -1865.2449 -402.5715 283.8915
v -1864.9509 -405.3530 278.7397
f 1042 1043 1044
v -1865.2449 -402.5715 283.8915
v -1865.2450 -402.5705 284.2066
v -1866.1557 -393.8931 284.1908
f 1045 1046 1047
v -1865.2434 -402.5712 278.7398
v -1865.2449 -402.5715 283.8915
v -1866.1542 -393.8929 278.7400
f 1048 1049 1050
v -1866.1557 -393.8931 284.1908
v -1866.1542 -393.8929 278.7400
v -1865.2449 -402.5715 283.8915
f 1051 1052 1053
v -1864.9509 -405.3530 278.7397
v -1865.2434 -402.5712 278.7398
v -1859.1028 -401.9438 278.7416
f 1054 1055 1056
v -1866.1542 -393.8929 278.7400
v -1863.3404 -393.5995 278.7409
v -1865.2434 -402.5712 278.7398
f 1057 1058 1059
v -1859.1028 -401.9438 278.7416
v -1863.3404 -393.5995 278.7409
v -1860.0145 -393.2524 278.7419
f 1060 1061 1062
v -1859.1028 -401.9438 278.7416
v -1858.8016 -404.8186 278.7415
v -1864.9509 -405.3530 278.7397
f 1063 1064 1065
v -1863.3404 -393.5995 278.7409
v -1859.1028 -401.9438 278.7416
v -1865.2434 -402.5712 278.7398
f 1066 1067 1068
v -1862.4538 -402.2851 286.1793
v -1860.0159 -393.2526 283.8667
v -1863.3425 -393.5997 286.1796
f 1069 1070 1071
v -1860.0159 -393.2526 283.8667
v -1859.1643 -401.9498 283.8934
v -1859.1042 -401.9440 283.8514
f 1072 1073 1074
v -1862.4538 -402.2851 286.1793
v -1859.1643 -401.9498 283.8934
v -1860.0159 -393.2526 283.8667
f 1075 1076 1077
v -1866.1542 -393.8929 278.7400
v -1866.1557 -393.8931 284.1908
v -1863.3425 -393.5997 286.1796
f 1078 1079 1080
v -1860.0159 -393.2526 283.8667
v -1866.1542 -393.8929 278.7400
v -1863.3425 -393.5997 286.1796
f 1081 1082 1083
v -1863.3404 -393.5995 278.7409
v -1860.0159 -393.2526 283.8667
v -1860.0145 -393.2524 278.7419
f 1084 1085 1086
v -1866.1542 -393.8929 278.7400
v -1860.0159 -393.2526 283.8667
v -1863.3404 -393.5995 278.7409
f 1087 1088 1089
v -1865.2450 -402.5705 284.2066
v -1859.1643 -401.9498 283.8934
v -1862.4538 -402.2851 286.1793
f 1090 1091 1092
v -1859.1643 -401.9498 283.8934
v -1865.2450 -402.5705 284.2066
v -1865.2449 -402.5715 283.8915
f 1093 1094 1095
v -1858.8016 -404.8186 278.7415
v -1864.9523 -405.3532 283.8915
v -1864.9509 -405.3530 278.7397
f 1096 1097 1098
v -1860.0145 -393.2524 278.7419
v -1859.1042 -401.9440 283.8514
v -1859.1028 -401.9438 278.7416
f 1099 1100 1101
v -1858.8016 -404.8186 278.7415
v -1859.1028 -401.9438 278.7416
v -1859.1042 -401.9440 283.8514
f 1102 1103 1104
