# Grid Center: 2614200, 1263400
# Global Anchor: 7.64977475454284, 47.53283995868075, 0.0

g building_ID_76693E02-6278-4F0C-9029-35DBFB6980BE
v -1701.9110 -1236.4810 348.9200
v -1705.1735 -1238.8913 349.1466
v -1705.0300 -1239.0647 348.9676
f 1 2 3
v -1705.1735 -1238.8913 349.1466
v -1701.9110 -1236.4810 348.9200
v -1702.0945 -1236.2606 349.1480
f 4 5 6
v -1706.9845 -1236.7063 348.3036
v -1702.0945 -1236.2606 349.1480
v -1703.8645 -1234.1227 348.3229
f 7 8 9
v -1702.0945 -1236.2606 349.1480
v -1706.9845 -1236.7063 348.3036
v -1705.1735 -1238.8913 349.1466
f 10 11 12
v -1701.9106 -1236.4808 347.4251
v -1705.0300 -1239.0647 348.9676
v -1705.0291 -1239.0641 345.6047
f 13 14 15
v -1705.0285 -1239.0637 342.9898
v -1701.9095 -1236.4801 342.9912
v -1701.9106 -1236.4808 347.4251
f 16 17 18
v -1705.0291 -1239.0641 345.6047
v -1705.0285 -1239.0637 342.9898
v -1701.9106 -1236.4808 347.4251
f 19 20 21
v -1703.8639 -1234.1222 345.6570
v -1706.9831 -1236.7054 342.9898
v -1706.9845 -1236.7063 348.3036
f 22 23 24
v -1703.8639 -1234.1222 345.6570
v -1706.9845 -1236.7063 348.3036
v -1703.8645 -1234.1227 348.3229
f 25 26 27
v -1703.8632 -1234.1218 342.9911
v -1706.9831 -1236.7054 342.9898
v -1703.8639 -1234.1222 345.6570
f 28 29 30
v -1705.0285 -1239.0637 342.9898
v -1706.9831 -1236.7054 342.9898
v -1703.8632 -1234.1218 342.9911
f 31 32 33
v -1705.0285 -1239.0637 342.9898
v -1702.0929 -1236.2595 342.9912
v -1701.9095 -1236.4801 342.9912
f 34 35 36
v -1705.0285 -1239.0637 342.9898
v -1703.8632 -1234.1218 342.9911
v -1702.0929 -1236.2595 342.9912
f 37 38 39
v -1701.9106 -1236.4808 347.4251
v -1703.8645 -1234.1227 348.3229
v -1702.0945 -1236.2606 349.1480
f 40 41 42
v -1703.8645 -1234.1227 348.3229
v -1701.9095 -1236.4801 342.9912
v -1703.8639 -1234.1222 345.6570
f 43 44 45
v -1702.0945 -1236.2606 349.1480
v -1701.9110 -1236.4810 348.9200
v -1701.9106 -1236.4808 347.4251
f 46 47 48
v -1703.8639 -1234.1222 345.6570
v -1701.9095 -1236.4801 342.9912
v -1702.0929 -1236.2595 342.9912
f 49 50 51
v -1702.0929 -1236.2595 342.9912
v -1703.8632 -1234.1218 342.9911
v -1703.8639 -1234.1222 345.6570
f 52 53 54
v -1701.9106 -1236.4808 347.4251
v -1701.9095 -1236.4801 342.9912
v -1703.8645 -1234.1227 348.3229
f 55 56 57
v -1705.0291 -1239.0641 345.6047
v -1706.9831 -1236.7054 342.9898
v -1705.0285 -1239.0637 342.9898
f 58 59 60
v -1705.1735 -1238.8913 349.1466
v -1705.0291 -1239.0641 345.6047
v -1705.0300 -1239.0647 348.9676
f 61 62 63
v -1706.9845 -1236.7063 348.3036
v -1705.0291 -1239.0641 345.6047
v -1705.1735 -1238.8913 349.1466
f 64 65 66
v -1706.9845 -1236.7063 348.3036
v -1706.9831 -1236.7054 342.9898
v -1705.0291 -1239.0641 345.6047
f 67 68 69
v -1701.9110 -1236.4810 348.9200
v -1705.0300 -1239.0647 348.9676
v -1701.9106 -1236.4808 347.4251
f 70 71 72

g building_ID_6D4F0C71-3E0A-41D6-9A58-22BB07034370
v -1811.9282 -1378.8087 290.2585
v -1814.2511 -1372.3238 291.6531
v -1816.1414 -1377.0294 290.2677
f 73 74 75
v -1814.2511 -1372.3238 291.6531
v -1811.9282 -1378.8087 290.2585
v -1806.0173 -1375.7189 291.6547
f 76 77 78
v -1807.9777 -1380.4763 290.2493
v -1806.0173 -1375.7189 291.6547
v -1811.9282 -1378.8087 290.2585
f 79 80 81
v -1804.2042 -1371.3225 290.3583
v -1807.1714 -1370.9946 290.5835
v -1806.0173 -1375.7189 291.6547
f 82 83 84
v -1807.1714 -1370.9946 290.5835
v -1804.2042 -1371.3225 290.3583
v -1806.8402 -1370.2105 290.3518
f 85 86 87
v -1814.2511 -1372.3238 291.6531
v -1807.1714 -1370.9946 290.5835
v -1812.7689 -1368.6335 290.5695
f 88 89 90
v -1806.0173 -1375.7189 291.6547
v -1807.1714 -1370.9946 290.5835
v -1814.2511 -1372.3238 291.6531
f 91 92 93
v -1816.1396 -1377.0281 283.7419
v -1810.5276 -1379.3986 285.7689
v -1807.9777 -1380.4763 290.2493
f 94 95 96
v -1807.9760 -1380.4751 283.7435
v -1810.5276 -1379.3986 285.7689
v -1816.1396 -1377.0281 283.7419
f 97 98 99
v -1804.2042 -1371.3225 290.3583
v -1806.8384 -1370.2092 283.7460
v -1806.8402 -1370.2105 290.3518
f 100 101 102
v -1806.8384 -1370.2092 283.7460
v -1804.2042 -1371.3225 290.3583
v -1804.2024 -1371.3213 283.7465
f 103 104 105
v -1807.1695 -1370.9933 283.7457
v -1806.8402 -1370.2105 290.3518
v -1806.8384 -1370.2092 283.7460
f 106 107 108
v -1812.7671 -1368.6323 283.7447
v -1807.1714 -1370.9946 290.5835
v -1807.1695 -1370.9933 283.7457
f 109 110 111
v -1806.8384 -1370.2092 283.7460
v -1804.2024 -1371.3213 283.7465
v -1807.1695 -1370.9933 283.7457
f 112 113 114
v -1807.1695 -1370.9933 283.7457
v -1804.2024 -1371.3213 283.7465
v -1806.0152 -1375.7174 283.7450
f 115 116 117
v -1814.2491 -1372.3223 283.7434
v -1807.9760 -1380.4751 283.7435
v -1816.1396 -1377.0281 283.7419
f 118 119 120
v -1806.0152 -1375.7174 283.7450
v -1814.2491 -1372.3223 283.7434
v -1807.1695 -1370.9933 283.7457
f 121 122 123
v -1807.1695 -1370.9933 283.7457
v -1814.2491 -1372.3223 283.7434
v -1812.7671 -1368.6323 283.7447
f 124 125 126
v -1807.9760 -1380.4751 283.7435
v -1814.2491 -1372.3223 283.7434
v -1806.0152 -1375.7174 283.7450
f 127 128 129
v -1814.2511 -1372.3238 291.6531
v -1816.1409 -1377.0291 288.6367
v -1816.1414 -1377.0294 290.2677
f 130 131 132
v -1816.1401 -1377.0285 285.3739
v -1814.2491 -1372.3223 283.7434
v -1816.1396 -1377.0281 283.7419
f 133 134 135
v -1816.1401 -1377.0285 285.3739
v -1816.1409 -1377.0291 288.6367
v -1812.7689 -1368.6335 290.5695
f 136 137 138
v -1816.1401 -1377.0285 285.3739
v -1812.7689 -1368.6335 290.5695
v -1812.7681 -1368.6329 287.1506
f 139 140 141
v -1812.7671 -1368.6323 283.7447
v -1814.2491 -1372.3223 283.7434
v -1812.7681 -1368.6329 287.1506
f 142 143 144
v -1812.7681 -1368.6329 287.1506
v -1814.2491 -1372.3223 283.7434
v -1816.1401 -1377.0285 285.3739
f 145 146 147
v -1812.7689 -1368.6335 290.5695
v -1816.1409 -1377.0291 288.6367
v -1814.2511 -1372.3238 291.6531
f 148 149 150
v -1806.0152 -1375.7174 283.7450
v -1804.2024 -1371.3213 283.7465
v -1804.2042 -1371.3225 290.3583
f 151 152 153
v -1807.9777 -1380.4763 290.2493
v -1806.0152 -1375.7174 283.7450
v -1806.0173 -1375.7189 291.6547
f 154 155 156
v -1807.9760 -1380.4751 283.7435
v -1806.0152 -1375.7174 283.7450
v -1807.9777 -1380.4763 290.2493
f 157 158 159
v -1804.2042 -1371.3225 290.3583
v -1806.0173 -1375.7189 291.6547
v -1806.0152 -1375.7174 283.7450
f 160 161 162
v -1816.1396 -1377.0281 283.7419
v -1807.9777 -1380.4763 290.2493
v -1811.9282 -1378.8087 290.2585
f 163 164 165
v -1807.9760 -1380.4751 283.7435
v -1807.9777 -1380.4763 290.2493
v -1810.5276 -1379.3986 285.7689
f 166 167 168
v -1811.9282 -1378.8087 290.2585
v -1816.1414 -1377.0294 290.2677
v -1816.1409 -1377.0291 288.6367
f 169 170 171
v -1811.9282 -1378.8087 290.2585
v -1816.1409 -1377.0291 288.6367
v -1816.1401 -1377.0285 285.3739
f 172 173 174
v -1816.1401 -1377.0285 285.3739
v -1816.1396 -1377.0281 283.7419
v -1811.9282 -1378.8087 290.2585
f 175 176 177
v -1806.8402 -1370.2105 290.3518
v -1807.1695 -1370.9933 283.7457
v -1807.1714 -1370.9946 290.5835
f 178 179 180
v -1812.7681 -1368.6329 287.1506
v -1812.7689 -1368.6335 290.5695
v -1807.1714 -1370.9946 290.5835
f 181 182 183
v -1807.1714 -1370.9946 290.5835
v -1812.7671 -1368.6323 283.7447
v -1812.7681 -1368.6329 287.1506
f 184 185 186
