# Grid Center: 2614400, 1263400
# Global Anchor: 7.64977475454284, 47.53283995868075, 0.0

g building_ID_76693E02-6278-4F0C-9029-35DBFB6980BE
v -1701.9110 -1236.4810 348.9200
v -1705.1735 -1238.8913 349.1466
v -1705.0300 -1239.0647 348.9676
f 1 2 3
v -1705.1735 -1238.8913 349.1466
v -1701.9110 -1236.4810 348.9200
v -1702.0945 -1236.2606 349.1480
f 4 5 6
v -1706.9845 -1236.7063 348.3036
v -1702.0945 -1236.2606 349.1480
v -1703.8645 -1234.1227 348.3229
f 7 8 9
v -1702.0945 -1236.2606 349.1480
v -1706.9845 -1236.7063 348.3036
v -1705.1735 -1238.8913 349.1466
f 10 11 12
v -1701.9106 -1236.4808 347.4251
v -1705.0300 -1239.0647 348.9676
v -1705.0291 -1239.0641 345.6047
f 13 14 15
v -1705.0285 -1239.0637 342.9898
v -1701.9095 -1236.4801 342.9912
v -1701.9106 -1236.4808 347.4251
f 16 17 18
v -1705.0291 -1239.0641 345.6047
v -1705.0285 -1239.0637 342.9898
v -1701.9106 -1236.4808 347.4251
f 19 20 21
v -1703.8639 -1234.1222 345.6570
v -1706.9831 -1236.7054 342.9898
v -1706.9845 -1236.7063 348.3036
f 22 23 24
v -1703.8639 -1234.1222 345.6570
v -1706.9845 -1236.7063 348.3036
v -1703.8645 -1234.1227 348.3229
f 25 26 27
v -1703.8632 -1234.1218 342.9911
v -1706.9831 -1236.7054 342.9898
v -1703.8639 -1234.1222 345.6570
f 28 29 30
v -1705.0285 -1239.0637 342.9898
v -1706.9831 -1236.7054 342.9898
v -1703.8632 -1234.1218 342.9911
f 31 32 33
v -1705.0285 -1239.0637 342.9898
v -1702.0929 -1236.2595 342.9912
v -1701.9095 -1236.4801 342.9912
f 34 35 36
v -1705.0285 -1239.0637 342.9898
v -1703.8632 -1234.1218 342.9911
v -1702.0929 -1236.2595 342.9912
f 37 38 39
v -1701.9106 -1236.4808 347.4251
v -1703.8645 -1234.1227 348.3229
v -1702.0945 -1236.2606 349.1480
f 40 41 42
v -1703.8645 -1234.1227 348.3229
v -1701.9095 -1236.4801 342.9912
v -1703.8639 -1234.1222 345.6570
f 43 44 45
v -1702.0945 -1236.2606 349.1480
v -1701.9110 -1236.4810 348.9200
v -1701.9106 -1236.4808 347.4251
f 46 47 48
v -1703.8639 -1234.1222 345.6570
v -1701.9095 -1236.4801 342.9912
v -1702.0929 -1236.2595 342.9912
f 49 50 51
v -1702.0929 -1236.2595 342.9912
v -1703.8632 -1234.1218 342.9911
v -1703.8639 -1234.1222 345.6570
f 52 53 54
v -1701.9106 -1236.4808 347.4251
v -1701.9095 -1236.4801 342.9912
v -1703.8645 -1234.1227 348.3229
f 55 56 57
v -1705.0291 -1239.0641 345.6047
v -1706.9831 -1236.7054 342.9898
v -1705.0285 -1239.0637 342.9898
f 58 59 60
v -1705.1735 -1238.8913 349.1466
v -1705.0291 -1239.0641 345.6047
v -1705.0300 -1239.0647 348.9676
f 61 62 63
v -1706.9845 -1236.7063 348.3036
v -1705.0291 -1239.0641 345.6047
v -1705.1735 -1238.8913 349.1466
f 64 65 66
v -1706.9845 -1236.7063 348.3036
v -1706.9831 -1236.7054 342.9898
v -1705.0291 -1239.0641 345.6047
f 67 68 69
v -1701.9110 -1236.4810 348.9200
v -1705.0300 -1239.0647 348.9676
v -1701.9106 -1236.4808 347.4251
f 70 71 72

g building_ID_3F3C57AC-498E-403E-A018-DC1C172A6D6E
v -1331.7631 -1158.9290 341.6549
v -1329.1926 -1161.3779 341.6550
v -1329.1937 -1161.3789 347.2958
f 73 74 75
v -1326.3335 -1158.3695 341.6561
v -1326.3346 -1158.3705 347.3279
v -1327.0356 -1159.1076 347.3207
f 76 77 78
v -1326.3335 -1158.3695 341.6561
v -1327.0356 -1159.1076 347.3207
v -1329.1926 -1161.3779 341.6550
f 79 80 81
v -1329.1926 -1161.3779 341.6550
v -1327.0356 -1159.1076 347.3207
v -1329.1937 -1161.3789 347.2958
f 82 83 84
v -1329.1926 -1161.3779 341.6550
v -1331.7631 -1158.9290 341.6549
v -1328.8999 -1155.9247 341.6560
f 85 86 87
v -1326.3335 -1158.3695 341.6561
v -1329.1926 -1161.3779 341.6550
v -1328.8999 -1155.9247 341.6560
f 88 89 90
v -1326.5201 -1158.1939 347.2789
v -1327.0356 -1159.1076 347.3207
v -1326.3346 -1158.3705 347.3279
f 91 92 93
v -1328.9010 -1155.9255 346.6408
v -1327.0356 -1159.1076 347.3207
v -1326.5201 -1158.1939 347.2789
f 94 95 96
v -1329.1937 -1161.3789 347.2958
v -1327.0356 -1159.1076 347.3207
v -1328.9010 -1155.9255 346.6408
f 97 98 99
v -1328.9010 -1155.9255 346.6408
v -1331.7640 -1158.9298 346.6067
v -1329.1937 -1161.3789 347.2958
f 100 101 102
v -1328.9010 -1155.9255 346.6408
v -1326.3335 -1158.3695 341.6561
v -1328.8999 -1155.9247 341.6560
f 103 104 105
v -1326.3335 -1158.3695 341.6561
v -1326.5201 -1158.1939 347.2789
v -1326.3346 -1158.3705 347.3279
f 106 107 108
v -1326.5201 -1158.1939 347.2789
v -1326.3335 -1158.3695 341.6561
v -1328.9010 -1155.9255 346.6408
f 109 110 111
v -1328.8999 -1155.9247 341.6560
v -1331.7640 -1158.9298 346.6067
v -1328.9010 -1155.9255 346.6408
f 112 113 114
v -1328.8999 -1155.9247 341.6560
v -1331.7631 -1158.9290 341.6549
v -1331.7640 -1158.9298 346.6067
f 115 116 117
v -1329.1937 -1161.3789 347.2958
v -1331.7640 -1158.9298 346.6067
v -1331.7631 -1158.9290 341.6549
f 118 119 120
