# Grid Center: 2614600, 1265600
# Global Anchor: 7.64977475454284, 47.53283995868075, 0.0

g building_ID_47681902-6F01-482D-8BE3-AF2C8BD9E0E9
v -1100.0626 730.3351 279.0584
v -1096.9316 729.5335 277.3341
v -1095.0651 736.8285 277.3276
f 1 2 3
v -1100.0626 730.3351 279.0584
v -1095.0651 736.8285 277.3276
v -1096.3485 744.9559 279.0574
f 4 5 6
v -1093.2005 744.1163 277.3201
v -1096.3485 744.9559 279.0574
v -1095.0651 736.8285 277.3276
f 7 8 9
v -1096.3485 744.9559 279.0574
v -1099.1093 745.6923 277.7748
v -1102.8285 731.0434 277.7769
f 10 11 12
v -1096.3485 744.9559 279.0574
v -1102.8285 731.0434 277.7769
v -1100.0626 730.3351 279.0584
f 13 14 15
v -1095.0651 736.8285 277.3276
v -1096.9306 729.5326 271.2604
v -1093.2005 744.1163 277.3201
f 16 17 18
v -1096.9306 729.5326 271.2604
v -1095.0651 736.8285 277.3276
v -1096.9312 729.5332 275.0572
f 19 20 21
v -1099.1082 745.6913 271.2581
v -1102.8275 731.0424 271.2592
v -1102.8279 731.0428 273.7031
f 22 23 24
v -1102.8279 731.0428 273.7031
v -1102.8285 731.0434 277.7769
v -1099.1082 745.6913 271.2581
f 25 26 27
v -1099.1082 745.6913 271.2581
v -1102.8285 731.0434 277.7769
v -1099.1093 745.6923 277.7748
f 28 29 30
v -1099.1082 745.6913 271.2581
v -1100.0614 730.3341 271.2597
v -1102.8275 731.0424 271.2592
f 31 32 33
v -1099.1082 745.6913 271.2581
v -1093.1995 744.1154 271.2593
v -1100.0614 730.3341 271.2597
f 34 35 36
v -1096.9306 729.5326 271.2604
v -1100.0614 730.3341 271.2597
v -1093.1995 744.1154 271.2593
f 37 38 39
v -1099.1093 745.6923 277.7748
v -1096.3485 744.9559 279.0574
v -1093.2005 744.1163 277.3201
f 40 41 42
v -1093.2005 744.1163 277.3201
v -1093.1995 744.1154 271.2593
v -1099.1093 745.6923 277.7748
f 43 44 45
v -1099.1093 745.6923 277.7748
v -1093.1995 744.1154 271.2593
v -1099.1082 745.6913 271.2581
f 46 47 48
v -1096.9312 729.5332 275.0572
v -1102.8279 731.0428 273.7031
v -1100.0614 730.3341 271.2597
f 49 50 51
v -1096.9312 729.5332 275.0572
v -1100.0614 730.3341 271.2597
v -1096.9306 729.5326 271.2604
f 52 53 54
v -1100.0626 730.3351 279.0584
v -1096.9312 729.5332 275.0572
v -1096.9316 729.5335 277.3341
f 55 56 57
v -1096.9312 729.5332 275.0572
v -1102.8285 731.0434 277.7769
v -1102.8279 731.0428 273.7031
f 58 59 60
v -1102.8279 731.0428 273.7031
v -1102.8275 731.0424 271.2592
v -1100.0614 730.3341 271.2597
f 61 62 63
v -1096.9312 729.5332 275.0572
v -1100.0626 730.3351 279.0584
v -1102.8285 731.0434 277.7769
f 64 65 66
v -1093.2005 744.1163 277.3201
v -1096.9306 729.5326 271.2604
v -1093.1995 744.1154 271.2593
f 67 68 69
v -1095.0651 736.8285 277.3276
v -1096.9316 729.5335 277.3341
v -1096.9312 729.5332 275.0572
f 70 71 72

g building_ID_7D63610A-A6E8-4235-B1E3-BC97708063D0
v -1314.4945 743.9701 284.9822
v -1312.4844 747.3727 284.9822
v -1318.3933 746.2716 284.9811
f 73 74 75
v -1322.0453 747.7223 284.9802
v -1319.7750 746.3823 284.9808
v -1318.3933 746.2716 284.9811
f 76 77 78
v -1322.8322 748.8915 284.9799
v -1318.3933 746.2716 284.9811
v -1312.4844 747.3727 284.9822
f 79 80 81
v -1322.8322 748.8915 284.9799
v -1324.7997 754.6407 284.9788
v -1326.8079 751.2381 284.9788
f 82 83 84
v -1322.8322 748.8915 284.9799
v -1322.0453 747.7223 284.9802
v -1318.3933 746.2716 284.9811
f 85 86 87
v -1324.7997 754.6407 284.9788
v -1322.8322 748.8915 284.9799
v -1312.4844 747.3727 284.9822
f 88 89 90
v -1324.7977 754.6391 274.8202
v -1324.7997 754.6407 284.9788
v -1312.4844 747.3727 284.9822
f 91 92 93
v -1326.8058 751.2366 274.8202
v -1326.8079 751.2381 284.9788
v -1324.7997 754.6407 284.9788
f 94 95 96
v -1322.8302 748.8899 274.8213
v -1322.8322 748.8915 284.9799
v -1326.8079 751.2381 284.9788
f 97 98 99
v -1322.0433 747.7208 274.8216
v -1322.0453 747.7223 284.9802
v -1322.8322 748.8915 284.9799
f 100 101 102
v -1319.7729 746.3808 274.8222
v -1319.7750 746.3823 284.9808
v -1322.0453 747.7223 284.9802
f 103 104 105
v -1318.3913 746.2700 274.8225
v -1318.3933 746.2716 284.9811
v -1319.7750 746.3823 284.9808
f 106 107 108
v -1314.4925 743.9686 274.8236
v -1314.4945 743.9701 284.9822
v -1318.3933 746.2716 284.9811
f 109 110 111
v -1312.4824 747.3712 274.8236
v -1312.4844 747.3727 284.9822
v -1314.4945 743.9701 284.9822
f 112 113 114
v -1322.8302 748.8899 274.8213
v -1326.8058 751.2366 274.8202
v -1324.7977 754.6391 274.8202
f 115 116 117
v -1322.8302 748.8899 274.8213
v -1318.3913 746.2700 274.8225
v -1322.0433 747.7208 274.8216
f 118 119 120
v -1312.4824 747.3712 274.8236
v -1322.8302 748.8899 274.8213
v -1324.7977 754.6391 274.8202
f 121 122 123
v -1314.4925 743.9686 274.8236
v -1318.3913 746.2700 274.8225
v -1312.4824 747.3712 274.8236
f 124 125 126
v -1322.0433 747.7208 274.8216
v -1318.3913 746.2700 274.8225
v -1319.7729 746.3808 274.8222
f 127 128 129
v -1312.4824 747.3712 274.8236
v -1318.3913 746.2700 274.8225
v -1322.8302 748.8899 274.8213
f 130 131 132
v -1324.7977 754.6391 274.8202
v -1312.4844 747.3727 284.9822
v -1312.4824 747.3712 274.8236
f 133 134 135
v -1326.8058 751.2366 274.8202
v -1324.7997 754.6407 284.9788
v -1324.7977 754.6391 274.8202
f 136 137 138
v -1322.8302 748.8899 274.8213
v -1326.8079 751.2381 284.9788
v -1326.8058 751.2366 274.8202
f 139 140 141
v -1322.0433 747.7208 274.8216
v -1322.8322 748.8915 284.9799
v -1322.8302 748.8899 274.8213
f 142 143 144
v -1319.7729 746.3808 274.8222
v -1322.0453 747.7223 284.9802
v -1322.0433 747.7208 274.8216
f 145 146 147
v -1318.3913 746.2700 274.8225
v -1319.7750 746.3823 284.9808
v -1319.7729 746.3808 274.8222
f 148 149 150
v -1314.4925 743.9686 274.8236
v -1318.3933 746.2716 284.9811
v -1318.3913 746.2700 274.8225
f 151 152 153
v -1312.4824 747.3712 274.8236
v -1314.4945 743.9701 284.9822
v -1314.4925 743.9686 274.8236
f 154 155 156

g building_ID_4E118EC9-7053-40E7-AA2A-73FA51B8143E
v -1468.2783 1086.6090 271.6122
v -1478.9572 1087.3356 271.6097
v -1471.2740 1091.2030 271.6108
f 157 158 159
v -1477.8754 1103.6755 271.6071
v -1471.2740 1091.2030 271.6108
v -1478.9572 1087.3356 271.6097
f 160 161 162
v -1468.2783 1086.6090 271.6122
v -1465.9499 1090.8648 271.6120
v -1461.6555 1086.1883 271.6138
f 163 164 165
v -1465.9499 1090.8648 271.6120
v -1468.2783 1086.6090 271.6122
v -1471.2740 1091.2030 271.6108
f 166 167 168
v -1470.3374 1105.9473 271.6084
v -1477.8754 1103.6755 271.6071
v -1477.6891 1106.4130 271.6067
f 169 170 171
v -1461.6555 1086.1883 271.6138
v -1465.9499 1090.8648 271.6120
v -1461.3568 1090.5744 271.6132
f 172 173 174
v -1477.8754 1103.6755 271.6071
v -1470.3374 1105.9473 271.6084
v -1471.2740 1091.2030 271.6108
f 175 176 177
v -1468.2783 1086.6090 271.6122
v -1468.2798 1086.6103 278.1969
v -1478.9586 1087.3370 278.1944
f 178 179 180
v -1461.6555 1086.1883 271.6138
v -1461.6570 1086.1895 278.1985
v -1468.2798 1086.6103 278.1969
f 181 182 183
v -1477.6891 1106.4130 271.6067
v -1477.6891 1106.4130 271.6347
v -1470.3374 1105.9473 271.6084
f 184 185 186
v -1470.6400 1102.7169 280.3586
v -1476.7535 1107.7774 281.3442
v -1477.0498 1103.1250 280.3571
f 187 188 189
v -1476.7535 1107.7774 281.3442
v -1470.6400 1102.7169 280.3586
v -1470.3437 1107.3701 281.3458
f 190 191 192
v -1477.0285 1103.4495 278.1920
v -1477.0493 1103.1246 278.1921
v -1477.0498 1103.1250 280.3571
f 193 194 195
v -1477.0498 1103.1250 280.3571
v -1476.7535 1107.7774 281.3442
v -1477.0285 1103.4495 278.1920
f 196 197 198
v -1470.6395 1102.7164 278.1936
v -1470.6400 1102.7169 280.3586
v -1477.0498 1103.1250 280.3571
f 199 200 201
v -1470.6400 1102.7169 280.3586
v -1470.6187 1103.0424 278.1936
v -1470.3437 1107.3701 281.3458
f 202 203 204
v -1470.6187 1103.0424 278.1936
v -1470.6400 1102.7169 280.3586
v -1470.6395 1102.7164 278.1936
f 205 206 207
v -1469.0062 1111.4260 278.6795
v -1468.9771 1112.1788 278.0464
v -1468.9772 1112.1788 278.1924
f 208 209 210
v -1468.9771 1112.1788 278.0464
v -1469.0062 1111.4260 278.6795
v -1469.0062 1111.4259 278.0565
f 211 212 213
v -1477.7545 1112.7364 278.0452
v -1477.7545 1112.7364 278.1902
v -1477.4945 1112.7196 278.0453
f 214 215 216
v -1472.7354 1112.4179 278.0465
v -1477.4945 1112.7196 278.0453
v -1468.9772 1112.1788 278.1924
f 217 218 219
v -1477.7545 1112.7364 278.1902
v -1468.9772 1112.1788 278.1924
v -1477.4945 1112.7196 278.0453
f 220 221 222
v -1468.9772 1112.1788 278.1924
v -1468.9771 1112.1788 278.0464
v -1472.7354 1112.4179 278.0465
f 223 224 225
v -1477.7531 1112.7350 271.6335
v -1477.8032 1111.9432 271.6337
v -1477.8032 1111.9432 271.7637
f 226 227 228
v -1477.8032 1111.9432 271.7637
v -1477.7531 1112.7351 271.7635
v -1477.7531 1112.7350 271.6335
f 229 230 231
v -1477.0285 1103.4495 278.1920
v -1477.8768 1103.6769 278.3178
v -1477.8883 1103.5039 278.1918
f 232 233 234
v -1477.5944 1107.8306 281.3440
v -1477.8768 1103.6769 278.3178
v -1476.7535 1107.7774 281.3442
f 235 236 237
v -1477.0285 1103.4495 278.1920
v -1476.7535 1107.7774 281.3442
v -1477.8768 1103.6769 278.3178
f 238 239 240
v -1470.5237 1103.0361 278.1936
v -1470.3437 1107.3701 281.3458
v -1470.6187 1103.0424 278.1936
f 241 242 243
v -1470.3437 1107.3701 281.3458
v -1470.5237 1103.0361 278.1936
v -1465.4326 1107.0580 281.3470
f 244 245 246
v -1479.0675 1117.0465 271.7625
v -1479.0689 1117.0478 277.9893
v -1478.7456 1117.1710 277.9863
f 247 248 249
v -1479.0675 1117.0465 271.7625
v -1478.0989 1117.4152 277.9824
v -1477.7756 1117.5383 277.9805
f 250 251 252
v -1478.9132 1112.7152 271.7633
v -1478.9138 1112.7158 274.9052
v -1479.2645 1112.7324 278.0459
f 253 254 255
v -1479.2631 1112.7311 271.7632
v -1478.9132 1112.7152 271.7633
v -1479.2645 1112.7324 278.0459
f 256 257 258
v -1465.9499 1090.8647 271.5140
v -1464.6699 1111.0090 271.5109
v -1461.3567 1090.5744 271.5152
f 259 260 261
v -1461.3567 1090.5744 271.5152
v -1464.6699 1111.0090 271.5109
v -1459.9848 1110.6894 271.5120
f 262 263 264
v -1468.9960 1111.3045 271.5098
v -1465.9499 1090.8647 271.5140
v -1471.2740 1091.2030 271.5128
f 265 266 267
v -1468.9867 1111.4235 271.5098
v -1468.9960 1111.3045 271.5098
v -1469.9855 1111.4872 271.5096
f 268 269 270
v -1471.2740 1091.2030 271.5128
v -1469.9855 1111.4872 271.5096
v -1468.9960 1111.3045 271.5098
f 271 272 273
v -1465.9499 1090.8647 271.5140
v -1468.9960 1111.3045 271.5098
v -1464.6699 1111.0090 271.5109
f 274 275 276
v -1464.6721 1111.0110 281.6785
v -1465.9521 1090.8667 281.6816
v -1461.3583 1090.5757 278.5249
f 277 278 279
v -1461.3583 1090.5757 278.5249
v -1459.9863 1110.6907 278.4577
v -1464.6721 1111.0110 281.6785
f 280 281 282
v -1469.0047 1111.4246 271.7658
v -1468.9757 1112.1776 271.6357
v -1468.9758 1112.1776 271.7657
f 283 284 285
v -1468.9757 1112.1776 271.6357
v -1469.0047 1111.4246 271.7658
v -1469.0048 1111.4246 271.6358
f 286 287 288
v -1477.7531 1112.7350 271.6335
v -1477.7531 1112.7351 271.7635
v -1468.9758 1112.1776 271.7657
f 289 290 291
v -1477.7545 1112.7364 278.0452
v -1477.8046 1111.9445 278.0564
v -1477.8047 1111.9446 278.7024
f 292 293 294
v -1477.7545 1112.7364 278.1902
v -1477.7545 1112.7364 278.0452
v -1477.8047 1111.9446 278.7024
f 295 296 297
v -1477.0285 1103.4495 278.1920
v -1477.8883 1103.5039 278.1918
v -1477.0493 1103.1246 278.1921
f 298 299 300
v -1478.9586 1087.3370 278.1944
v -1477.0493 1103.1246 278.1921
v -1477.8883 1103.5039 278.1918
f 301 302 303
v -1470.5237 1103.0361 278.1936
v -1470.6187 1103.0424 278.1936
v -1470.6395 1102.7164 278.1936
f 304 305 306
v -1470.5237 1103.0361 278.1936
v -1470.6395 1102.7164 278.1936
v -1471.2754 1091.2042 278.1955
f 307 308 309
v -1470.6395 1102.7164 278.1936
v -1477.0493 1103.1246 278.1921
v -1471.2754 1091.2042 278.1955
f 310 311 312
v -1468.2798 1086.6103 278.1969
v -1471.2754 1091.2042 278.1955
v -1478.9586 1087.3370 278.1944
f 313 314 315
v -1477.0493 1103.1246 278.1921
v -1478.9586 1087.3370 278.1944
v -1471.2754 1091.2042 278.1955
f 316 317 318
v -1465.9514 1090.8660 278.1967
v -1471.2754 1091.2042 278.1955
v -1468.2798 1086.6103 278.1969
f 319 320 321
v -1461.6570 1086.1895 278.1985
v -1461.3582 1090.5756 278.1979
v -1465.9514 1090.8660 278.1967
f 322 323 324
v -1468.2798 1086.6103 278.1969
v -1461.6570 1086.1895 278.1985
v -1465.9514 1090.8660 278.1967
f 325 326 327
v -1478.9132 1112.7152 271.7633
v -1479.2631 1112.7311 271.7632
v -1479.0675 1117.0465 271.7625
f 328 329 330
v -1477.8032 1111.9432 271.7637
v -1478.9132 1112.7152 271.7633
v -1477.7531 1112.7351 271.7635
f 331 332 333
v -1479.0675 1117.0465 271.7625
v -1477.7531 1112.7351 271.7635
v -1478.9132 1112.7152 271.7633
f 334 335 336
v -1468.9758 1112.1776 271.7657
v -1477.7531 1112.7351 271.7635
v -1479.0675 1117.0465 271.7625
f 337 338 339
v -1468.9758 1112.1776 271.7657
v -1479.0675 1117.0465 271.7625
v -1477.7742 1117.5371 271.7627
f 340 341 342
v -1468.9867 1111.4236 271.7658
v -1468.9758 1112.1776 271.7657
v -1468.7365 1114.5139 271.7653
f 343 344 345
v -1468.9758 1112.1776 271.7657
v -1468.9867 1111.4236 271.7658
v -1469.0047 1111.4246 271.7658
f 346 347 348
v -1468.7365 1114.5139 271.7653
v -1468.9758 1112.1776 271.7657
v -1477.7742 1117.5371 271.7627
f 349 350 351
v -1469.2432 1111.4417 278.6794
v -1468.9977 1111.3060 278.8455
v -1468.9883 1111.4250 278.8465
f 352 353 354
v -1465.4326 1107.0580 281.3470
v -1464.6721 1111.0110 281.6785
v -1468.9977 1111.3060 278.8455
f 355 356 357
v -1465.9521 1090.8667 281.6816
v -1470.5237 1103.0361 278.1936
v -1471.2754 1091.2042 278.1955
f 358 359 360
v -1465.9521 1090.8667 281.6816
v -1465.4326 1107.0580 281.3470
v -1470.5237 1103.0361 278.1936
f 361 362 363
v -1464.6721 1111.0110 281.6785
v -1465.4326 1107.0580 281.3470
v -1465.9521 1090.8667 281.6816
f 364 365 366
v -1469.2432 1111.4417 278.6794
v -1465.4326 1107.0580 281.3470
v -1468.9977 1111.3060 278.8455
f 367 368 369
v -1468.9883 1111.4250 278.8465
v -1469.0062 1111.4260 278.6795
v -1469.2432 1111.4417 278.6794
f 370 371 372
v -1468.9881 1111.4248 278.0565
v -1469.0062 1111.4259 278.0565
v -1469.0062 1111.4260 278.6795
f 373 374 375
v -1468.9883 1111.4250 278.8465
v -1468.9881 1111.4248 278.0565
v -1469.0062 1111.4260 278.6795
f 376 377 378
v -1469.9855 1111.4872 271.5096
v -1469.9856 1111.4872 271.6356
v -1469.0048 1111.4246 271.6358
f 379 380 381
v -1468.9867 1111.4235 271.5098
v -1469.9855 1111.4872 271.5096
v -1469.0048 1111.4246 271.6358
f 382 383 384
v -1469.0047 1111.4246 271.7658
v -1468.9867 1111.4236 271.7658
v -1469.0048 1111.4246 271.6358
f 385 386 387
v -1468.9867 1111.4236 271.7658
v -1468.9867 1111.4235 271.5098
v -1469.0048 1111.4246 271.6358
f 388 389 390
v -1470.3374 1105.9473 271.6084
v -1471.2740 1091.2030 271.5128
v -1471.2740 1091.2030 271.6108
f 391 392 393
v -1469.9855 1111.4872 271.5096
v -1470.3374 1105.9473 271.6084
v -1469.9856 1111.4872 271.6356
f 394 395 396
v -1470.3374 1105.9473 271.6364
v -1469.9856 1111.4872 271.6356
v -1470.3374 1105.9473 271.6084
f 397 398 399
v -1471.2740 1091.2030 271.5128
v -1470.3374 1105.9473 271.6084
v -1469.9855 1111.4872 271.5096
f 400 401 402
v -1477.8764 1103.6635 271.6381
v -1477.8754 1103.6755 271.6071
v -1478.9572 1087.3356 271.6097
f 403 404 405
v -1478.9586 1087.3370 278.1944
v -1477.8883 1103.5039 278.1918
v -1478.9572 1087.3356 271.6097
f 406 407 408
v -1477.8764 1103.6635 271.6381
v -1477.8883 1103.5039 278.1918
v -1477.8768 1103.6769 278.3178
f 409 410 411
v -1478.9572 1087.3356 271.6097
v -1477.8883 1103.5039 278.1918
v -1477.8764 1103.6635 271.6381
f 412 413 414
v -1477.7531 1112.7350 271.6335
v -1468.9757 1112.1776 271.6357
v -1469.9856 1111.4872 271.6356
f 415 416 417
v -1469.0048 1111.4246 271.6358
v -1469.9856 1111.4872 271.6356
v -1468.9757 1112.1776 271.6357
f 418 419 420
v -1469.9856 1111.4872 271.6356
v -1470.3374 1105.9473 271.6364
v -1477.3341 1111.6170 271.6338
f 421 422 423
v -1470.3374 1105.9473 271.6364
v -1477.6891 1106.4130 271.6347
v -1477.3341 1111.6170 271.6338
f 424 425 426
v -1477.7531 1112.7350 271.6335
v -1477.3341 1111.6170 271.6338
v -1477.8032 1111.9432 271.6337
f 427 428 429
v -1469.9856 1111.4872 271.6356
v -1477.3341 1111.6170 271.6338
v -1477.7531 1112.7350 271.6335
f 430 431 432
v -1469.2432 1111.4417 278.6794
v -1477.3357 1111.6185 278.8945
v -1476.7535 1107.7774 281.3442
f 433 434 435
v -1477.3357 1111.6185 278.8945
v -1477.5944 1107.8306 281.3440
v -1476.7535 1107.7774 281.3442
f 436 437 438
v -1477.7545 1112.7364 278.1902
v -1477.8047 1111.9446 278.7024
v -1477.3357 1111.6185 278.8945
f 439 440 441
v -1477.3357 1111.6185 278.8945
v -1468.9772 1112.1788 278.1924
v -1477.7545 1112.7364 278.1902
f 442 443 444
v -1470.3437 1107.3701 281.3458
v -1469.2432 1111.4417 278.6794
v -1476.7535 1107.7774 281.3442
f 445 446 447
v -1465.4326 1107.0580 281.3470
v -1469.2432 1111.4417 278.6794
v -1470.3437 1107.3701 281.3458
f 448 449 450
v -1468.9772 1112.1788 278.1924
v -1469.2432 1111.4417 278.6794
v -1469.0062 1111.4260 278.6795
f 451 452 453
v -1477.3357 1111.6185 278.8945
v -1469.2432 1111.4417 278.6794
v -1468.9772 1112.1788 278.1924
f 454 455 456
v -1479.2631 1112.7311 271.7632
v -1479.2645 1112.7324 278.0459
v -1479.0689 1117.0478 277.9893
f 457 458 459
v -1479.2631 1112.7311 271.7632
v -1479.0689 1117.0478 277.9893
v -1479.0675 1117.0465 271.7625
f 460 461 462
v -1477.8046 1111.9445 278.0564
v -1477.3357 1111.6185 278.8945
v -1477.8047 1111.9446 278.7024
f 463 464 465
v -1477.3341 1111.6170 271.6338
v -1477.3357 1111.6185 278.8945
v -1478.9138 1112.7158 274.9052
f 466 467 468
v -1477.8046 1111.9445 278.0564
v -1478.9138 1112.7158 274.9052
v -1477.3357 1111.6185 278.8945
f 469 470 471
v -1477.8046 1111.9445 278.0564
v -1478.9146 1112.7164 278.0460
v -1478.9138 1112.7158 274.9052
f 472 473 474
v -1477.8032 1111.9432 271.7637
v -1477.3341 1111.6170 271.6338
v -1478.9138 1112.7158 274.9052
f 475 476 477
v -1478.9138 1112.7158 274.9052
v -1478.9132 1112.7152 271.7633
v -1477.8032 1111.9432 271.7637
f 478 479 480
v -1477.3341 1111.6170 271.6338
v -1477.8032 1111.9432 271.7637
v -1477.8032 1111.9432 271.6337
f 481 482 483
v -1468.9977 1111.3060 278.8455
v -1468.9881 1111.4248 278.0565
v -1468.9883 1111.4250 278.8465
f 484 485 486
v -1468.7378 1114.5151 278.0151
v -1468.9881 1111.4248 278.0565
v -1468.7365 1114.5139 271.7653
f 487 488 489
v -1468.9867 1111.4236 271.7658
v -1468.7365 1114.5139 271.7653
v -1468.9881 1111.4248 278.0565
f 490 491 492
v -1468.9867 1111.4236 271.7658
v -1468.9881 1111.4248 278.0565
v -1468.9960 1111.3045 271.5098
f 493 494 495
v -1468.9977 1111.3060 278.8455
v -1468.9960 1111.3045 271.5098
v -1468.9881 1111.4248 278.0565
f 496 497 498
v -1468.9960 1111.3045 271.5098
v -1468.9867 1111.4235 271.5098
v -1468.9867 1111.4236 271.7658
f 499 500 501
v -1461.3568 1090.5744 271.6132
v -1459.9848 1110.6894 271.5120
v -1461.3582 1090.5756 278.1979
f 502 503 504
v -1459.9863 1110.6907 278.4577
v -1461.3582 1090.5756 278.1979
v -1459.9848 1110.6894 271.5120
f 505 506 507
v -1461.3568 1090.5744 271.6132
v -1461.3567 1090.5744 271.5152
v -1459.9848 1110.6894 271.5120
f 508 509 510
v -1459.9863 1110.6907 278.4577
v -1461.3583 1090.5757 278.5249
v -1461.3582 1090.5756 278.1979
f 511 512 513
v -1461.6570 1086.1895 278.1985
v -1461.6555 1086.1883 271.6138
v -1461.3568 1090.5744 271.6132
f 514 515 516
v -1461.3582 1090.5756 278.1979
v -1461.6570 1086.1895 278.1985
v -1461.3568 1090.5744 271.6132
f 517 518 519
v -1464.6721 1111.0110 281.6785
v -1468.9960 1111.3045 271.5098
v -1468.9977 1111.3060 278.8455
f 520 521 522
v -1468.9960 1111.3045 271.5098
v -1464.6721 1111.0110 281.6785
v -1459.9863 1110.6907 278.4577
f 523 524 525
v -1464.6699 1111.0090 271.5109
v -1459.9863 1110.6907 278.4577
v -1459.9848 1110.6894 271.5120
f 526 527 528
v -1459.9863 1110.6907 278.4577
v -1464.6699 1111.0090 271.5109
v -1468.9960 1111.3045 271.5098
f 529 530 531
v -1477.3341 1111.6170 271.6338
v -1477.8764 1103.6635 271.6381
v -1477.8768 1103.6769 278.3178
f 532 533 534
v -1477.3341 1111.6170 271.6338
v -1477.6891 1106.4130 271.6347
v -1477.8764 1103.6635 271.6381
f 535 536 537
v -1477.6891 1106.4130 271.6067
v -1477.8754 1103.6755 271.6071
v -1477.8764 1103.6635 271.6381
f 538 539 540
v -1477.6891 1106.4130 271.6347
v -1477.6891 1106.4130 271.6067
v -1477.8764 1103.6635 271.6381
f 541 542 543
v -1477.5944 1107.8306 281.3440
v -1477.3357 1111.6185 278.8945
v -1477.8768 1103.6769 278.3178
f 544 545 546
v -1477.3341 1111.6170 271.6338
v -1477.8768 1103.6769 278.3178
v -1477.3357 1111.6185 278.8945
f 547 548 549
v -1461.3567 1090.5744 271.5152
v -1461.3568 1090.5744 271.6132
v -1465.9499 1090.8648 271.6120
f 550 551 552
v -1465.9499 1090.8647 271.5140
v -1461.3567 1090.5744 271.5152
v -1465.9499 1090.8648 271.6120
f 553 554 555
v -1471.2740 1091.2030 271.5128
v -1465.9499 1090.8647 271.5140
v -1471.2740 1091.2030 271.6108
f 556 557 558
v -1465.9499 1090.8648 271.6120
v -1471.2740 1091.2030 271.6108
v -1465.9499 1090.8647 271.5140
f 559 560 561
v -1465.9514 1090.8660 278.1967
v -1461.3582 1090.5756 278.1979
v -1461.3583 1090.5757 278.5249
f 562 563 564
v -1465.9514 1090.8660 278.1967
v -1465.9521 1090.8667 281.6816
v -1471.2754 1091.2042 278.1955
f 565 566 567
v -1461.3583 1090.5757 278.5249
v -1465.9521 1090.8667 281.6816
v -1465.9514 1090.8660 278.1967
f 568 569 570
v -1477.7756 1117.5383 277.9805
v -1468.7365 1114.5139 271.7653
v -1477.7742 1117.5371 271.7627
f 571 572 573
v -1477.7756 1117.5383 277.9805
v -1468.7378 1114.5151 278.0151
v -1468.7365 1114.5139 271.7653
f 574 575 576
v -1468.7378 1114.5151 278.0151
v -1477.7756 1117.5383 277.9805
v -1472.7354 1112.4179 278.0465
f 577 578 579
v -1477.7756 1117.5383 277.9805
v -1477.4945 1112.7196 278.0453
v -1472.7354 1112.4179 278.0465
f 580 581 582
v -1478.0989 1117.4152 277.9824
v -1477.4945 1112.7196 278.0453
v -1477.7756 1117.5383 277.9805
f 583 584 585
v -1468.9881 1111.4248 278.0565
v -1468.7378 1114.5151 278.0151
v -1468.9771 1112.1788 278.0464
f 586 587 588
v -1469.0062 1111.4259 278.0565
v -1468.9881 1111.4248 278.0565
v -1468.9771 1112.1788 278.0464
f 589 590 591
v -1468.9771 1112.1788 278.0464
v -1468.7378 1114.5151 278.0151
v -1472.7354 1112.4179 278.0465
f 592 593 594
v -1478.0989 1117.4152 277.9824
v -1478.7456 1117.1710 277.9863
v -1477.4945 1112.7196 278.0453
f 595 596 597
v -1479.0689 1117.0478 277.9893
v -1477.4945 1112.7196 278.0453
v -1478.7456 1117.1710 277.9863
f 598 599 600
v -1479.0689 1117.0478 277.9893
v -1477.7545 1112.7364 278.0452
v -1477.4945 1112.7196 278.0453
f 601 602 603
v -1479.0689 1117.0478 277.9893
v -1478.9146 1112.7164 278.0460
v -1477.7545 1112.7364 278.0452
f 604 605 606
v -1477.7545 1112.7364 278.0452
v -1478.9146 1112.7164 278.0460
v -1477.8046 1111.9445 278.0564
f 607 608 609
v -1478.9146 1112.7164 278.0460
v -1479.0689 1117.0478 277.9893
v -1479.2645 1112.7324 278.0459
f 610 611 612
v -1468.2783 1086.6090 271.6122
v -1478.9586 1087.3370 278.1944
v -1478.9572 1087.3356 271.6097
f 613 614 615
v -1461.6555 1086.1883 271.6138
v -1468.2798 1086.6103 278.1969
v -1468.2783 1086.6090 271.6122
f 616 617 618
v -1477.6891 1106.4130 271.6347
v -1470.3374 1105.9473 271.6364
v -1470.3374 1105.9473 271.6084
f 619 620 621
v -1470.6395 1102.7164 278.1936
v -1477.0498 1103.1250 280.3571
v -1477.0493 1103.1246 278.1921
f 622 623 624
v -1479.0675 1117.0465 271.7625
v -1478.7456 1117.1710 277.9863
v -1478.0989 1117.4152 277.9824
f 625 626 627
v -1477.7756 1117.5383 277.9805
v -1477.7742 1117.5371 271.7627
v -1479.0675 1117.0465 271.7625
f 628 629 630
v -1479.2645 1112.7324 278.0459
v -1478.9138 1112.7158 274.9052
v -1478.9146 1112.7164 278.0460
f 631 632 633
v -1477.7531 1112.7350 271.6335
v -1468.9758 1112.1776 271.7657
v -1468.9757 1112.1776 271.6357
f 634 635 636
