# Grid Center: 2614200, 1266200
# Global Anchor: 7.64977475454284, 47.53283995868075, 0.0

g building_ID_FCB57ED7-CEF6-4E72-8442-850EC1278624
v -1684.7185 1294.7463 286.7614
v -1685.0738 1296.0952 286.5831
v -1685.0354 1294.7370 286.5854
f 1 2 3
v -1685.0214 1306.3329 286.7590
v -1688.7375 1295.9875 284.5572
v -1685.0738 1296.0952 286.5831
f 4 5 6
v -1685.0214 1306.3329 286.7590
v -1685.0738 1296.0952 286.5831
v -1684.7185 1294.7463 286.7614
f 7 8 9
v -1688.7375 1295.9875 284.5572
v -1685.0214 1306.3329 286.7590
v -1689.0441 1306.2052 284.5331
f 10 11 12
v -1680.8945 1294.8775 284.4005
v -1684.6349 1294.5960 286.7125
v -1680.8890 1294.6945 284.3996
f 13 14 15
v -1685.0214 1306.3329 286.7590
v -1684.7185 1294.7463 286.7614
v -1684.6394 1294.7490 286.7125
f 16 17 18
v -1680.8945 1294.8775 284.4005
v -1684.6394 1294.7490 286.7125
v -1684.6349 1294.5960 286.7125
f 19 20 21
v -1680.8945 1294.8775 284.4005
v -1680.4385 1294.8852 284.1186
v -1680.7974 1306.4660 284.1512
f 22 23 24
v -1684.6394 1294.7490 286.7125
v -1680.7974 1306.4660 284.1512
v -1685.0214 1306.3329 286.7590
f 25 26 27
v -1680.7974 1306.4660 284.1512
v -1684.6394 1294.7490 286.7125
v -1680.8945 1294.8775 284.4005
f 28 29 30
v -1688.7340 1295.9844 270.8347
v -1688.7375 1295.9875 284.5572
v -1689.0441 1306.2052 284.5331
f 31 32 33
v -1685.0698 1296.0915 270.8357
v -1685.0738 1296.0952 286.5831
v -1688.7375 1295.9875 284.5572
f 34 35 36
v -1688.7375 1295.9875 284.5572
v -1688.7340 1295.9844 270.8347
v -1685.0698 1296.0915 270.8357
f 37 38 39
v -1685.0698 1296.0915 270.8357
v -1685.0354 1294.7370 286.5854
v -1685.0738 1296.0952 286.5831
f 40 41 42
v -1685.0325 1294.7344 274.7728
v -1685.0354 1294.7370 286.5854
v -1685.0698 1296.0915 270.8357
f 43 44 45
v -1685.0698 1296.0915 270.8357
v -1685.0314 1294.7335 270.8360
v -1685.0325 1294.7344 274.7728
f 46 47 48
v -1684.6394 1294.7490 286.7125
v -1684.6308 1294.5924 270.8361
v -1684.6349 1294.5960 286.7125
f 49 50 51
v -1684.6354 1294.7454 270.8361
v -1684.6308 1294.5924 270.8361
v -1684.6394 1294.7490 286.7125
f 52 53 54
v -1682.7584 1294.6420 273.6485
v -1681.8223 1294.6674 273.0707
v -1681.8242 1294.6691 281.0084
f 55 56 57
v -1681.8242 1294.6691 281.0084
v -1681.8223 1294.6674 273.0707
v -1680.8890 1294.6945 284.3996
f 58 59 60
v -1681.8242 1294.6691 281.0084
v -1680.8890 1294.6945 284.3996
v -1682.7604 1294.6438 281.5872
f 61 62 63
v -1682.7584 1294.6420 273.6485
v -1680.8856 1294.6914 270.8371
v -1681.8223 1294.6674 273.0707
f 64 65 66
v -1684.6349 1294.5960 286.7125
v -1682.7584 1294.6420 273.6485
v -1682.7604 1294.6438 281.5872
f 67 68 69
v -1684.6349 1294.5960 286.7125
v -1682.7604 1294.6438 281.5872
v -1680.8890 1294.6945 284.3996
f 70 71 72
v -1684.6308 1294.5924 270.8361
v -1682.7584 1294.6420 273.6485
v -1684.6349 1294.5960 286.7125
f 73 74 75
v -1680.8856 1294.6914 270.8371
v -1682.7584 1294.6420 273.6485
v -1684.6308 1294.5924 270.8361
f 76 77 78
v -1680.8911 1294.8744 270.8370
v -1680.8890 1294.6945 284.3996
v -1680.8856 1294.6914 270.8371
f 79 80 81
v -1680.4385 1294.8852 284.1186
v -1680.8945 1294.8775 284.4005
v -1680.8911 1294.8744 270.8370
f 82 83 84
v -1680.4351 1294.8821 270.8371
v -1680.4385 1294.8852 284.1186
v -1680.8911 1294.8744 270.8370
f 85 86 87
v -1680.7974 1306.4660 284.1512
v -1680.4351 1294.8821 270.8371
v -1680.7941 1306.4630 270.8347
f 88 89 90
v -1680.4385 1294.8852 284.1186
v -1680.4351 1294.8821 270.8371
v -1680.7974 1306.4660 284.1512
f 91 92 93
v -1685.0698 1296.0915 270.8357
v -1680.7941 1306.4630 270.8347
v -1680.4351 1294.8821 270.8371
f 94 95 96
v -1688.7340 1295.9844 270.8347
v -1689.0406 1306.2020 270.8326
v -1680.7941 1306.4630 270.8347
f 97 98 99
v -1685.0698 1296.0915 270.8357
v -1688.7340 1295.9844 270.8347
v -1680.7941 1306.4630 270.8347
f 100 101 102
v -1680.4351 1294.8821 270.8371
v -1680.8911 1294.8744 270.8370
v -1685.0698 1296.0915 270.8357
f 103 104 105
v -1684.6354 1294.7454 270.8361
v -1680.8911 1294.8744 270.8370
v -1680.8856 1294.6914 270.8371
f 106 107 108
v -1684.6308 1294.5924 270.8361
v -1684.6354 1294.7454 270.8361
v -1680.8856 1294.6914 270.8371
f 109 110 111
v -1685.0698 1296.0915 270.8357
v -1680.8911 1294.8744 270.8370
v -1684.6354 1294.7454 270.8361
f 112 113 114
v -1685.0698 1296.0915 270.8357
v -1684.7144 1294.7426 270.8360
v -1685.0314 1294.7335 270.8360
f 115 116 117
v -1684.6354 1294.7454 270.8361
v -1684.7144 1294.7426 270.8360
v -1685.0698 1296.0915 270.8357
f 118 119 120
v -1685.0354 1294.7370 286.5854
v -1684.6394 1294.7490 286.7125
v -1684.7185 1294.7463 286.7614
f 121 122 123
v -1684.6394 1294.7490 286.7125
v -1685.0354 1294.7370 286.5854
v -1685.0325 1294.7344 274.7728
f 124 125 126
v -1684.6354 1294.7454 270.8361
v -1684.6394 1294.7490 286.7125
v -1685.0325 1294.7344 274.7728
f 127 128 129
v -1685.0325 1294.7344 274.7728
v -1684.7144 1294.7426 270.8360
v -1684.6354 1294.7454 270.8361
f 130 131 132
v -1685.0325 1294.7344 274.7728
v -1685.0314 1294.7335 270.8360
v -1684.7144 1294.7426 270.8360
f 133 134 135
v -1689.0406 1306.2020 270.8326
v -1689.0441 1306.2052 284.5331
v -1680.7974 1306.4660 284.1512
f 136 137 138
v -1689.0406 1306.2020 270.8326
v -1680.7974 1306.4660 284.1512
v -1680.7941 1306.4630 270.8347
f 139 140 141
v -1685.0214 1306.3329 286.7590
v -1680.7974 1306.4660 284.1512
v -1689.0441 1306.2052 284.5331
f 142 143 144
v -1688.7340 1295.9844 270.8347
v -1689.0441 1306.2052 284.5331
v -1689.0406 1306.2020 270.8326
f 145 146 147
v -1682.7584 1294.6420 273.6485
v -1681.8242 1294.6691 281.0084
v -1682.7604 1294.6438 281.5872
f 148 149 150
v -1681.8223 1294.6674 273.0707
v -1680.8856 1294.6914 270.8371
v -1680.8890 1294.6945 284.3996
f 151 152 153
v -1680.8890 1294.6945 284.3996
v -1680.8911 1294.8744 270.8370
v -1680.8945 1294.8775 284.4005
f 154 155 156

g building_ID_1996FE7F-E338-4111-8B89-B7D3E5987378
v -1571.7696 1297.3680 277.4091
v -1576.8841 1301.3719 278.5999
v -1577.4791 1298.6412 277.4444
f 157 158 159
v -1576.8841 1301.3719 278.5999
v -1571.7696 1297.3680 277.4091
v -1570.9794 1300.1481 278.6016
f 160 161 162
v -1571.7696 1297.3680 277.4091
v -1571.8253 1297.1151 277.3021
v -1571.6574 1297.0797 277.3022
f 163 164 165
v -1571.6574 1297.0797 277.3022
v -1570.9794 1300.1481 278.6016
v -1571.7696 1297.3680 277.4091
f 166 167 168
v -1570.9794 1300.1481 278.6016
v -1570.3172 1303.1430 277.4493
v -1572.4219 1303.5977 277.4417
f 169 170 171
v -1570.9794 1300.1481 278.6016
v -1572.4219 1303.5977 277.4417
v -1576.8841 1301.3719 278.5999
f 172 173 174
v -1576.2196 1304.4188 277.4286
v -1576.8841 1301.3719 278.5999
v -1572.4219 1303.5977 277.4417
f 175 176 177
v -1572.0278 1295.4076 277.0174
v -1571.6574 1297.0797 277.3022
v -1571.8253 1297.1151 277.3021
f 178 179 180
v -1572.1947 1295.4440 277.0174
v -1572.0278 1295.4076 277.0174
v -1571.8253 1297.1151 277.3021
f 181 182 183
v -1571.7682 1297.3666 271.4493
v -1571.7691 1297.3675 275.1612
v -1577.4791 1298.6412 277.4444
f 184 185 186
v -1571.7682 1297.3666 271.4493
v -1577.4791 1298.6412 277.4444
v -1577.4777 1298.6399 271.4476
f 187 188 189
v -1572.4219 1303.5977 277.4417
v -1573.6947 1303.8717 271.4475
v -1576.2196 1304.4188 277.4286
f 190 191 192
v -1576.2182 1304.4175 271.4468
v -1576.2196 1304.4188 277.4286
v -1573.6947 1303.8717 271.4475
f 193 194 195
v -1573.6947 1303.8717 271.4475
v -1572.4219 1303.5977 277.4417
v -1570.3157 1303.1416 271.4485
f 196 197 198
v -1572.1947 1295.4440 277.0174
v -1572.0265 1295.4064 271.4496
v -1572.0278 1295.4076 277.0174
f 199 200 201
v -1576.8824 1301.3703 271.4472
v -1576.2182 1304.4175 271.4468
v -1573.6947 1303.8717 271.4475
f 202 203 204
v -1576.8824 1301.3703 271.4472
v -1570.3157 1303.1416 271.4485
v -1577.4777 1298.6399 271.4476
f 205 206 207
v -1570.3157 1303.1416 271.4485
v -1576.8824 1301.3703 271.4472
v -1573.6947 1303.8717 271.4475
f 208 209 210
v -1571.7682 1297.3666 271.4493
v -1577.4777 1298.6399 271.4476
v -1570.3157 1303.1416 271.4485
f 211 212 213
v -1572.0265 1295.4064 271.4496
v -1572.1934 1295.4428 271.4496
v -1571.7682 1297.3666 271.4493
f 214 215 216
v -1571.7682 1297.3666 271.4493
v -1571.6560 1297.0783 271.4494
v -1572.0265 1295.4064 271.4496
f 217 218 219
v -1570.3157 1303.1416 271.4485
v -1571.6560 1297.0783 271.4494
v -1571.7682 1297.3666 271.4493
f 220 221 222
v -1572.1947 1295.4440 277.0174
v -1571.7691 1297.3675 275.1612
v -1572.1934 1295.4428 271.4496
f 223 224 225
v -1572.1934 1295.4428 271.4496
v -1571.7691 1297.3675 275.1612
v -1571.7682 1297.3666 271.4493
f 226 227 228
v -1571.7691 1297.3675 275.1612
v -1571.8253 1297.1151 277.3021
v -1571.7696 1297.3680 277.4091
f 229 230 231
v -1572.1947 1295.4440 277.0174
v -1571.8253 1297.1151 277.3021
v -1571.7691 1297.3675 275.1612
f 232 233 234
v -1576.2196 1304.4188 277.4286
v -1577.4777 1298.6399 271.4476
v -1577.4791 1298.6412 277.4444
f 235 236 237
v -1576.2182 1304.4175 271.4468
v -1576.8824 1301.3703 271.4472
v -1576.2196 1304.4188 277.4286
f 238 239 240
v -1576.2196 1304.4188 277.4286
v -1576.8824 1301.3703 271.4472
v -1577.4777 1298.6399 271.4476
f 241 242 243
v -1576.2196 1304.4188 277.4286
v -1577.4791 1298.6412 277.4444
v -1576.8841 1301.3719 278.5999
f 244 245 246
v -1570.3157 1303.1416 271.4485
v -1570.3172 1303.1430 277.4493
v -1570.9794 1300.1481 278.6016
f 247 248 249
v -1570.3157 1303.1416 271.4485
v -1570.9794 1300.1481 278.6016
v -1571.6574 1297.0797 277.3022
f 250 251 252
v -1571.6574 1297.0797 277.3022
v -1572.0278 1295.4076 277.0174
v -1571.6560 1297.0783 271.4494
f 253 254 255
v -1571.6560 1297.0783 271.4494
v -1572.0278 1295.4076 277.0174
v -1572.0265 1295.4064 271.4496
f 256 257 258
v -1570.3157 1303.1416 271.4485
v -1571.6574 1297.0797 277.3022
v -1571.6560 1297.0783 271.4494
f 259 260 261
v -1571.7691 1297.3675 275.1612
v -1571.7696 1297.3680 277.4091
v -1577.4791 1298.6412 277.4444
f 262 263 264
v -1572.4219 1303.5977 277.4417
v -1570.3172 1303.1430 277.4493
v -1570.3157 1303.1416 271.4485
f 265 266 267
v -1572.0265 1295.4064 271.4496
v -1572.1947 1295.4440 277.0174
v -1572.1934 1295.4428 271.4496
f 268 269 270

g building_ID_13019970-3FDD-4BC5-8FCA-4BB40CD47731
v -1547.2610 1294.4614 286.9043
v -1548.4821 1301.0203 285.6187
v -1550.4296 1295.5986 285.6264
f 271 272 273
v -1548.4821 1301.0203 285.6187
v -1547.9220 1307.3115 285.0036
v -1550.7846 1301.8463 284.6900
f 274 275 276
v -1548.4821 1301.0203 285.6187
v -1547.2610 1294.4614 286.9043
v -1543.1456 1305.8022 286.9030
f 277 278 279
v -1547.9220 1307.3115 285.0036
v -1548.4821 1301.0203 285.6187
v -1547.8545 1307.5004 285.0026
f 280 281 282
v -1547.8545 1307.5004 285.0026
v -1548.4821 1301.0203 285.6187
v -1543.1456 1305.8022 286.9030
f 283 284 285
v -1550.7846 1301.8463 284.6900
v -1547.9220 1307.3115 285.0036
v -1548.6992 1307.5915 284.6893
f 286 287 288
v -1542.4252 1292.7260 284.8789
v -1538.3418 1304.0699 284.8896
v -1543.1456 1305.8022 286.9030
f 289 290 291
v -1547.2610 1294.4614 286.9043
v -1542.4252 1292.7260 284.8789
v -1543.1456 1305.8022 286.9030
f 292 293 294
v -1550.7846 1301.8463 284.6900
v -1550.7816 1301.8433 271.7325
v -1548.4821 1301.0203 285.6187
f 295 296 297
v -1550.4264 1295.5955 271.7339
v -1548.4821 1301.0203 285.6187
v -1548.4789 1301.0172 271.7332
f 298 299 300
v -1547.8515 1307.4974 271.7321
v -1547.9220 1307.3115 285.0036
v -1547.8545 1307.5004 285.0026
f 301 302 303
v -1547.8515 1307.4974 271.7321
v -1547.9190 1307.3085 271.7321
v -1547.9220 1307.3115 285.0036
f 304 305 306
v -1547.9190 1307.3085 271.7321
v -1548.6992 1307.5915 284.6893
v -1547.9220 1307.3115 285.0036
f 307 308 309
v -1547.9190 1307.3085 271.7321
v -1548.6962 1307.5887 271.7318
v -1548.6992 1307.5915 284.6893
f 310 311 312
v -1550.7816 1301.8433 271.7325
v -1550.7846 1301.8463 284.6900
v -1548.6992 1307.5915 284.6893
f 313 314 315
v -1538.3388 1304.0669 271.7351
v -1538.3418 1304.0699 284.8896
v -1542.4252 1292.7260 284.8789
f 316 317 318
v -1538.3388 1304.0669 271.7351
v -1542.4229 1292.7237 275.0133
v -1542.4222 1292.7230 271.7364
f 319 320 321
v -1542.4252 1292.7260 284.8789
v -1542.4229 1292.7237 275.0133
v -1538.3388 1304.0669 271.7351
f 322 323 324
v -1548.4789 1301.0172 271.7332
v -1543.1421 1305.7988 271.7335
v -1538.3388 1304.0669 271.7351
f 325 326 327
v -1550.7816 1301.8433 271.7325
v -1548.6962 1307.5887 271.7318
v -1547.9190 1307.3085 271.7321
f 328 329 330
v -1543.1421 1305.7988 271.7335
v -1547.9190 1307.3085 271.7321
v -1547.8515 1307.4974 271.7321
f 331 332 333
v -1547.9190 1307.3085 271.7321
v -1543.1421 1305.7988 271.7335
v -1548.4789 1301.0172 271.7332
f 334 335 336
v -1548.4789 1301.0172 271.7332
v -1550.7816 1301.8433 271.7325
v -1547.9190 1307.3085 271.7321
f 337 338 339
v -1548.4789 1301.0172 271.7332
v -1538.3388 1304.0669 271.7351
v -1542.4222 1292.7230 271.7364
f 340 341 342
v -1547.2575 1294.4580 271.7349
v -1548.4789 1301.0172 271.7332
v -1542.4222 1292.7230 271.7364
f 343 344 345
v -1547.2575 1294.4580 271.7349
v -1550.4264 1295.5955 271.7339
v -1548.4789 1301.0172 271.7332
f 346 347 348
v -1547.2610 1294.4614 286.9043
v -1542.4229 1292.7237 275.0133
v -1542.4252 1292.7260 284.8789
f 349 350 351
v -1542.4229 1292.7237 275.0133
v -1550.4287 1295.5978 282.1535
v -1542.4222 1292.7230 271.7364
f 352 353 354
v -1550.4296 1295.5986 285.6264
v -1542.4229 1292.7237 275.0133
v -1547.2610 1294.4614 286.9043
f 355 356 357
v -1547.2575 1294.4580 271.7349
v -1542.4222 1292.7230 271.7364
v -1550.4287 1295.5978 282.1535
f 358 359 360
v -1550.4264 1295.5955 271.7339
v -1547.2575 1294.4580 271.7349
v -1550.4287 1295.5978 282.1535
f 361 362 363
v -1550.4296 1295.5986 285.6264
v -1550.4287 1295.5978 282.1535
v -1542.4229 1292.7237 275.0133
f 364 365 366
v -1543.1421 1305.7988 271.7335
v -1547.8515 1307.4974 271.7321
v -1547.8545 1307.5004 285.0026
f 367 368 369
v -1543.1421 1305.7988 271.7335
v -1547.8545 1307.5004 285.0026
v -1543.1456 1305.8022 286.9030
f 370 371 372
v -1538.3388 1304.0669 271.7351
v -1543.1456 1305.8022 286.9030
v -1538.3418 1304.0699 284.8896
f 373 374 375
v -1543.1456 1305.8022 286.9030
v -1538.3388 1304.0669 271.7351
v -1543.1421 1305.7988 271.7335
f 376 377 378
v -1550.7816 1301.8433 271.7325
v -1548.4789 1301.0172 271.7332
v -1548.4821 1301.0203 285.6187
f 379 380 381
v -1550.4287 1295.5978 282.1535
v -1550.4296 1295.5986 285.6264
v -1548.4821 1301.0203 285.6187
f 382 383 384
v -1548.4821 1301.0203 285.6187
v -1550.4264 1295.5955 271.7339
v -1550.4287 1295.5978 282.1535
f 385 386 387
v -1550.7816 1301.8433 271.7325
v -1548.6992 1307.5915 284.6893
v -1548.6962 1307.5887 271.7318
f 388 389 390

g building_ID_4496FE72-61DF-447F-BFC9-F4B1A9122188
v -1520.0608 1301.7564 283.0185
v -1520.5726 1300.3228 283.0157
v -1516.1080 1296.4518 286.7904
f 391 392 393
v -1521.3042 1298.2748 283.0119
v -1516.1080 1296.4518 286.7904
v -1520.5726 1300.3228 283.0157
f 394 395 396
v -1516.1080 1296.4518 286.7904
v -1514.0121 1302.3750 286.7897
v -1520.0608 1301.7564 283.0185
f 397 398 399
v -1520.0608 1301.7564 283.0185
v -1514.0121 1302.3750 286.7897
v -1519.1812 1304.2211 283.0242
f 400 401 402
v -1510.6848 1298.1334 283.6155
v -1514.0121 1302.3750 286.7897
v -1516.1080 1296.4518 286.7904
f 403 404 405
v -1510.4984 1294.4818 282.6443
v -1510.6848 1298.1334 283.6155
v -1516.1080 1296.4518 286.7904
f 406 407 408
v -1509.7195 1300.8408 283.6101
v -1514.0121 1302.3750 286.7897
v -1510.0491 1299.9167 283.6123
f 409 410 411
v -1510.6848 1298.1334 283.6155
v -1510.0491 1299.9167 283.6123
v -1514.0121 1302.3750 286.7897
f 412 413 414
v -1510.6848 1298.1334 283.6155
v -1510.4984 1294.4818 282.6443
v -1509.3659 1297.6577 282.6379
f 415 416 417
v -1521.3035 1298.2741 280.2080
v -1521.3042 1298.2748 283.0119
v -1520.5726 1300.3228 283.0157
f 418 419 420
v -1520.5726 1300.3228 283.0157
v -1520.5056 1300.5021 271.8111
v -1521.3017 1298.2723 271.8113
f 421 422 423
v -1519.6220 1302.9767 271.8108
v -1520.0608 1301.7564 283.0185
v -1519.1812 1304.2211 283.0242
f 424 425 426
v -1520.5726 1300.3228 283.0157
v -1519.6220 1302.9767 271.8108
v -1520.5056 1300.5021 271.8111
f 427 428 429
v -1519.6220 1302.9767 271.8108
v -1519.1796 1304.2194 276.0154
v -1519.1787 1304.2184 271.8106
f 430 431 432
v -1509.7189 1300.8402 280.6592
v -1509.7195 1300.8408 283.6101
v -1510.0491 1299.9167 283.6123
f 433 434 435
v -1509.7169 1300.8382 271.8135
v -1509.7182 1300.8395 277.7093
v -1510.0491 1299.9167 283.6123
f 436 437 438
v -1510.2318 1299.3945 271.8137
v -1509.7169 1300.8382 271.8135
v -1510.0491 1299.9167 283.6123
f 439 440 441
v -1510.2318 1299.3945 271.8137
v -1510.6848 1298.1334 283.6155
v -1510.6822 1298.1308 271.8139
f 442 443 444
v -1510.4960 1294.4793 271.8147
v -1509.3634 1297.6552 271.8143
v -1509.3659 1297.6577 282.6379
f 445 446 447
v -1510.4978 1294.4812 279.9374
v -1510.4960 1294.4793 271.8147
v -1509.3659 1297.6577 282.6379
f 448 449 450
v -1509.3634 1297.6552 271.8143
v -1510.6848 1298.1334 283.6155
v -1509.3659 1297.6577 282.6379
f 451 452 453
v -1509.3634 1297.6552 271.8143
v -1510.6822 1298.1308 271.8139
v -1510.6848 1298.1334 283.6155
f 454 455 456
v -1516.1046 1296.4484 271.8129
v -1521.3017 1298.2723 271.8113
v -1520.5056 1300.5021 271.8111
f 457 458 459
v -1516.1046 1296.4484 271.8129
v -1510.6822 1298.1308 271.8139
v -1510.4960 1294.4793 271.8147
f 460 461 462
v -1510.6822 1298.1308 271.8139
v -1516.1046 1296.4484 271.8129
v -1520.5056 1300.5021 271.8111
f 463 464 465
v -1514.0088 1302.3716 271.8122
v -1519.6220 1302.9767 271.8108
v -1519.1787 1304.2184 271.8106
f 466 467 468
v -1520.5056 1300.5021 271.8111
v -1514.0088 1302.3716 271.8122
v -1510.6822 1298.1308 271.8139
f 469 470 471
v -1510.4960 1294.4793 271.8147
v -1510.6822 1298.1308 271.8139
v -1509.3634 1297.6552 271.8143
f 472 473 474
v -1514.0088 1302.3716 271.8122
v -1510.2318 1299.3945 271.8137
v -1510.6822 1298.1308 271.8139
f 475 476 477
v -1510.2318 1299.3945 271.8137
v -1514.0088 1302.3716 271.8122
v -1509.7169 1300.8382 271.8135
f 478 479 480
v -1519.6220 1302.9767 271.8108
v -1514.0088 1302.3716 271.8122
v -1520.5056 1300.5021 271.8111
f 481 482 483
v -1521.3017 1298.2723 271.8113
v -1510.4978 1294.4812 279.9374
v -1510.4984 1294.4818 282.6443
f 484 485 486
v -1510.4960 1294.4793 271.8147
v -1510.4978 1294.4812 279.9374
v -1516.1046 1296.4484 271.8129
f 487 488 489
v -1510.4984 1294.4818 282.6443
v -1516.1080 1296.4518 286.7904
v -1521.3035 1298.2741 280.2080
f 490 491 492
v -1510.4984 1294.4818 282.6443
v -1521.3035 1298.2741 280.2080
v -1521.3017 1298.2723 271.8113
f 493 494 495
v -1521.3017 1298.2723 271.8113
v -1516.1046 1296.4484 271.8129
v -1510.4978 1294.4812 279.9374
f 496 497 498
v -1521.3042 1298.2748 283.0119
v -1521.3035 1298.2741 280.2080
v -1516.1080 1296.4518 286.7904
f 499 500 501
v -1509.7182 1300.8395 277.7093
v -1514.0088 1302.3716 271.8122
v -1519.1796 1304.2194 276.0154
f 502 503 504
v -1514.0088 1302.3716 271.8122
v -1519.1787 1304.2184 271.8106
v -1519.1796 1304.2194 276.0154
f 505 506 507
v -1509.7182 1300.8395 277.7093
v -1519.1796 1304.2194 276.0154
v -1519.1812 1304.2211 283.0242
f 508 509 510
v -1514.0121 1302.3750 286.7897
v -1509.7189 1300.8402 280.6592
v -1519.1812 1304.2211 283.0242
f 511 512 513
v -1509.7195 1300.8408 283.6101
v -1509.7189 1300.8402 280.6592
v -1514.0121 1302.3750 286.7897
f 514 515 516
v -1514.0088 1302.3716 271.8122
v -1509.7182 1300.8395 277.7093
v -1509.7169 1300.8382 271.8135
f 517 518 519
v -1509.7182 1300.8395 277.7093
v -1519.1812 1304.2211 283.0242
v -1509.7189 1300.8402 280.6592
f 520 521 522
v -1520.5726 1300.3228 283.0157
v -1521.3017 1298.2723 271.8113
v -1521.3035 1298.2741 280.2080
f 523 524 525
v -1519.6220 1302.9767 271.8108
v -1520.5726 1300.3228 283.0157
v -1520.0608 1301.7564 283.0185
f 526 527 528
v -1519.6220 1302.9767 271.8108
v -1519.1812 1304.2211 283.0242
v -1519.1796 1304.2194 276.0154
f 529 530 531
v -1510.2318 1299.3945 271.8137
v -1510.0491 1299.9167 283.6123
v -1510.6848 1298.1334 283.6155
f 532 533 534
v -1510.0491 1299.9167 283.6123
v -1509.7182 1300.8395 277.7093
v -1509.7189 1300.8402 280.6592
f 535 536 537
v -1510.4978 1294.4812 279.9374
v -1509.3659 1297.6577 282.6379
v -1510.4984 1294.4818 282.6443
f 538 539 540
