# Grid Center: 2614400, 1266200
# Global Anchor: 7.64977475454284, 47.53283995868075, 0.0

g building_ID_FCB57ED7-CEF6-4E72-8442-850EC1278624
v -1684.7185 1294.7463 286.7614
v -1685.0738 1296.0952 286.5831
v -1685.0354 1294.7370 286.5854
f 1 2 3
v -1685.0214 1306.3329 286.7590
v -1688.7375 1295.9875 284.5572
v -1685.0738 1296.0952 286.5831
f 4 5 6
v -1685.0214 1306.3329 286.7590
v -1685.0738 1296.0952 286.5831
v -1684.7185 1294.7463 286.7614
f 7 8 9
v -1688.7375 1295.9875 284.5572
v -1685.0214 1306.3329 286.7590
v -1689.0441 1306.2052 284.5331
f 10 11 12
v -1680.8945 1294.8775 284.4005
v -1684.6349 1294.5960 286.7125
v -1680.8890 1294.6945 284.3996
f 13 14 15
v -1685.0214 1306.3329 286.7590
v -1684.7185 1294.7463 286.7614
v -1684.6394 1294.7490 286.7125
f 16 17 18
v -1680.8945 1294.8775 284.4005
v -1684.6394 1294.7490 286.7125
v -1684.6349 1294.5960 286.7125
f 19 20 21
v -1680.8945 1294.8775 284.4005
v -1680.4385 1294.8852 284.1186
v -1680.7974 1306.4660 284.1512
f 22 23 24
v -1684.6394 1294.7490 286.7125
v -1680.7974 1306.4660 284.1512
v -1685.0214 1306.3329 286.7590
f 25 26 27
v -1680.7974 1306.4660 284.1512
v -1684.6394 1294.7490 286.7125
v -1680.8945 1294.8775 284.4005
f 28 29 30
v -1688.7340 1295.9844 270.8347
v -1688.7375 1295.9875 284.5572
v -1689.0441 1306.2052 284.5331
f 31 32 33
v -1685.0698 1296.0915 270.8357
v -1685.0738 1296.0952 286.5831
v -1688.7375 1295.9875 284.5572
f 34 35 36
v -1688.7375 1295.9875 284.5572
v -1688.7340 1295.9844 270.8347
v -1685.0698 1296.0915 270.8357
f 37 38 39
v -1685.0698 1296.0915 270.8357
v -1685.0354 1294.7370 286.5854
v -1685.0738 1296.0952 286.5831
f 40 41 42
v -1685.0325 1294.7344 274.7728
v -1685.0354 1294.7370 286.5854
v -1685.0698 1296.0915 270.8357
f 43 44 45
v -1685.0698 1296.0915 270.8357
v -1685.0314 1294.7335 270.8360
v -1685.0325 1294.7344 274.7728
f 46 47 48
v -1684.6394 1294.7490 286.7125
v -1684.6308 1294.5924 270.8361
v -1684.6349 1294.5960 286.7125
f 49 50 51
v -1684.6354 1294.7454 270.8361
v -1684.6308 1294.5924 270.8361
v -1684.6394 1294.7490 286.7125
f 52 53 54
v -1682.7584 1294.6420 273.6485
v -1681.8223 1294.6674 273.0707
v -1681.8242 1294.6691 281.0084
f 55 56 57
v -1681.8242 1294.6691 281.0084
v -1681.8223 1294.6674 273.0707
v -1680.8890 1294.6945 284.3996
f 58 59 60
v -1681.8242 1294.6691 281.0084
v -1680.8890 1294.6945 284.3996
v -1682.7604 1294.6438 281.5872
f 61 62 63
v -1682.7584 1294.6420 273.6485
v -1680.8856 1294.6914 270.8371
v -1681.8223 1294.6674 273.0707
f 64 65 66
v -1684.6349 1294.5960 286.7125
v -1682.7584 1294.6420 273.6485
v -1682.7604 1294.6438 281.5872
f 67 68 69
v -1684.6349 1294.5960 286.7125
v -1682.7604 1294.6438 281.5872
v -1680.8890 1294.6945 284.3996
f 70 71 72
v -1684.6308 1294.5924 270.8361
v -1682.7584 1294.6420 273.6485
v -1684.6349 1294.5960 286.7125
f 73 74 75
v -1680.8856 1294.6914 270.8371
v -1682.7584 1294.6420 273.6485
v -1684.6308 1294.5924 270.8361
f 76 77 78
v -1680.8911 1294.8744 270.8370
v -1680.8890 1294.6945 284.3996
v -1680.8856 1294.6914 270.8371
f 79 80 81
v -1680.4385 1294.8852 284.1186
v -1680.8945 1294.8775 284.4005
v -1680.8911 1294.8744 270.8370
f 82 83 84
v -1680.4351 1294.8821 270.8371
v -1680.4385 1294.8852 284.1186
v -1680.8911 1294.8744 270.8370
f 85 86 87
v -1680.7974 1306.4660 284.1512
v -1680.4351 1294.8821 270.8371
v -1680.7941 1306.4630 270.8347
f 88 89 90
v -1680.4385 1294.8852 284.1186
v -1680.4351 1294.8821 270.8371
v -1680.7974 1306.4660 284.1512
f 91 92 93
v -1685.0698 1296.0915 270.8357
v -1680.7941 1306.4630 270.8347
v -1680.4351 1294.8821 270.8371
f 94 95 96
v -1688.7340 1295.9844 270.8347
v -1689.0406 1306.2020 270.8326
v -1680.7941 1306.4630 270.8347
f 97 98 99
v -1685.0698 1296.0915 270.8357
v -1688.7340 1295.9844 270.8347
v -1680.7941 1306.4630 270.8347
f 100 101 102
v -1680.4351 1294.8821 270.8371
v -1680.8911 1294.8744 270.8370
v -1685.0698 1296.0915 270.8357
f 103 104 105
v -1684.6354 1294.7454 270.8361
v -1680.8911 1294.8744 270.8370
v -1680.8856 1294.6914 270.8371
f 106 107 108
v -1684.6308 1294.5924 270.8361
v -1684.6354 1294.7454 270.8361
v -1680.8856 1294.6914 270.8371
f 109 110 111
v -1685.0698 1296.0915 270.8357
v -1680.8911 1294.8744 270.8370
v -1684.6354 1294.7454 270.8361
f 112 113 114
v -1685.0698 1296.0915 270.8357
v -1684.7144 1294.7426 270.8360
v -1685.0314 1294.7335 270.8360
f 115 116 117
v -1684.6354 1294.7454 270.8361
v -1684.7144 1294.7426 270.8360
v -1685.0698 1296.0915 270.8357
f 118 119 120
v -1685.0354 1294.7370 286.5854
v -1684.6394 1294.7490 286.7125
v -1684.7185 1294.7463 286.7614
f 121 122 123
v -1684.6394 1294.7490 286.7125
v -1685.0354 1294.7370 286.5854
v -1685.0325 1294.7344 274.7728
f 124 125 126
v -1684.6354 1294.7454 270.8361
v -1684.6394 1294.7490 286.7125
v -1685.0325 1294.7344 274.7728
f 127 128 129
v -1685.0325 1294.7344 274.7728
v -1684.7144 1294.7426 270.8360
v -1684.6354 1294.7454 270.8361
f 130 131 132
v -1685.0325 1294.7344 274.7728
v -1685.0314 1294.7335 270.8360
v -1684.7144 1294.7426 270.8360
f 133 134 135
v -1689.0406 1306.2020 270.8326
v -1689.0441 1306.2052 284.5331
v -1680.7974 1306.4660 284.1512
f 136 137 138
v -1689.0406 1306.2020 270.8326
v -1680.7974 1306.4660 284.1512
v -1680.7941 1306.4630 270.8347
f 139 140 141
v -1685.0214 1306.3329 286.7590
v -1680.7974 1306.4660 284.1512
v -1689.0441 1306.2052 284.5331
f 142 143 144
v -1688.7340 1295.9844 270.8347
v -1689.0441 1306.2052 284.5331
v -1689.0406 1306.2020 270.8326
f 145 146 147
v -1682.7584 1294.6420 273.6485
v -1681.8242 1294.6691 281.0084
v -1682.7604 1294.6438 281.5872
f 148 149 150
v -1681.8223 1294.6674 273.0707
v -1680.8856 1294.6914 270.8371
v -1680.8890 1294.6945 284.3996
f 151 152 153
v -1680.8890 1294.6945 284.3996
v -1680.8911 1294.8744 270.8370
v -1680.8945 1294.8775 284.4005
f 154 155 156

g building_ID_5A21BE57-C7A2-43A8-877F-0B6337C6755E
v -1460.4100 1300.5235 283.5777
v -1457.6506 1296.4738 286.3300
v -1455.5285 1302.4720 286.3293
f 157 158 159
v -1460.5566 1304.3107 282.6009
v -1460.4100 1300.5235 283.5777
v -1455.5285 1302.4720 286.3293
f 160 161 162
v -1461.0166 1298.8071 283.5779
v -1461.3703 1297.8071 283.5780
v -1457.6506 1296.4738 286.3300
f 163 164 165
v -1457.6506 1296.4738 286.3300
v -1460.4100 1300.5235 283.5777
v -1461.0166 1298.8071 283.5779
f 166 167 168
v -1461.7296 1300.9898 282.6023
v -1460.4100 1300.5235 283.5777
v -1460.5566 1304.3107 282.6009
f 169 170 171
v -1451.0836 1296.8732 282.1595
v -1457.6506 1296.4738 286.3300
v -1451.9482 1294.4295 282.1598
f 172 173 174
v -1449.8392 1300.3898 282.1591
v -1455.5285 1302.4720 286.3293
v -1451.0836 1296.8732 282.1595
f 175 176 177
v -1457.6506 1296.4738 286.3300
v -1451.0836 1296.8732 282.1595
v -1455.5285 1302.4720 286.3293
f 178 179 180
v -1460.5542 1304.3080 271.2793
v -1461.7271 1300.9873 271.2797
v -1461.7296 1300.9898 282.6023
f 181 182 183
v -1461.7296 1300.9898 282.6023
v -1460.5566 1304.3107 282.6009
v -1460.5561 1304.3100 279.7700
f 184 185 186
v -1460.5554 1304.3093 276.9391
v -1460.5542 1304.3080 271.2793
v -1461.7296 1300.9898 282.6023
f 187 188 189
v -1461.7271 1300.9873 271.2797
v -1460.4074 1300.5208 271.2801
v -1460.4100 1300.5235 283.5777
f 190 191 192
v -1461.3696 1297.8064 280.5041
v -1461.3703 1297.8071 283.5780
v -1461.0166 1298.8071 283.5779
f 193 194 195
v -1461.3677 1297.8043 271.2804
v -1461.3690 1297.8057 277.4292
v -1461.0166 1298.8071 283.5779
f 196 197 198
v -1451.9459 1294.4271 271.2832
v -1450.6591 1298.0646 271.2828
v -1451.0836 1296.8732 282.1595
f 199 200 201
v -1449.8381 1300.3886 276.7203
v -1449.8387 1300.3893 279.4402
v -1450.6591 1298.0646 271.2828
f 202 203 204
v -1450.6591 1298.0646 271.2828
v -1449.8392 1300.3898 282.1591
v -1451.0836 1296.8732 282.1595
f 205 206 207
v -1451.9459 1294.4271 271.2832
v -1451.0836 1296.8732 282.1595
v -1451.9470 1294.4283 276.7210
f 208 209 210
v -1455.5252 1302.4686 271.2808
v -1449.8369 1300.3874 271.2825
v -1450.6591 1298.0646 271.2828
f 211 212 213
v -1460.4074 1300.5208 271.2801
v -1460.5542 1304.3080 271.2793
v -1450.6591 1298.0646 271.2828
f 214 215 216
v -1450.6591 1298.0646 271.2828
v -1460.5542 1304.3080 271.2793
v -1455.5252 1302.4686 271.2808
f 217 218 219
v -1457.6473 1296.4703 271.2815
v -1450.6591 1298.0646 271.2828
v -1451.9459 1294.4271 271.2832
f 220 221 222
v -1461.3677 1297.8043 271.2804
v -1450.6591 1298.0646 271.2828
v -1457.6473 1296.4703 271.2815
f 223 224 225
v -1460.5542 1304.3080 271.2793
v -1460.4074 1300.5208 271.2801
v -1461.7271 1300.9873 271.2797
f 226 227 228
v -1450.6591 1298.0646 271.2828
v -1461.3677 1297.8043 271.2804
v -1460.4074 1300.5208 271.2801
f 229 230 231
v -1451.9476 1294.4290 279.4409
v -1451.9482 1294.4295 282.1598
v -1457.6506 1296.4738 286.3300
f 232 233 234
v -1461.3690 1297.8057 277.4292
v -1451.9470 1294.4283 276.7210
v -1451.9476 1294.4290 279.4409
f 235 236 237
v -1451.9470 1294.4283 276.7210
v -1457.6473 1296.4703 271.2815
v -1451.9459 1294.4271 271.2832
f 238 239 240
v -1451.9476 1294.4290 279.4409
v -1457.6506 1296.4738 286.3300
v -1461.3696 1297.8064 280.5041
f 241 242 243
v -1451.9476 1294.4290 279.4409
v -1461.3696 1297.8064 280.5041
v -1461.3690 1297.8057 277.4292
f 244 245 246
v -1457.6473 1296.4703 271.2815
v -1451.9470 1294.4283 276.7210
v -1461.3690 1297.8057 277.4292
f 247 248 249
v -1461.3690 1297.8057 277.4292
v -1461.3677 1297.8043 271.2804
v -1457.6473 1296.4703 271.2815
f 250 251 252
v -1461.3703 1297.8071 283.5780
v -1461.3696 1297.8064 280.5041
v -1457.6506 1296.4738 286.3300
f 253 254 255
v -1460.5554 1304.3093 276.9391
v -1449.8381 1300.3886 276.7203
v -1455.5252 1302.4686 271.2808
f 256 257 258
v -1460.5554 1304.3093 276.9391
v -1460.5561 1304.3100 279.7700
v -1449.8387 1300.3893 279.4402
f 259 260 261
v -1460.5554 1304.3093 276.9391
v -1455.5252 1302.4686 271.2808
v -1460.5542 1304.3080 271.2793
f 262 263 264
v -1455.5285 1302.4720 286.3293
v -1460.5561 1304.3100 279.7700
v -1460.5566 1304.3107 282.6009
f 265 266 267
v -1449.8387 1300.3893 279.4402
v -1455.5285 1302.4720 286.3293
v -1449.8392 1300.3898 282.1591
f 268 269 270
v -1460.5554 1304.3093 276.9391
v -1449.8387 1300.3893 279.4402
v -1449.8381 1300.3886 276.7203
f 271 272 273
v -1449.8381 1300.3886 276.7203
v -1449.8369 1300.3874 271.2825
v -1455.5252 1302.4686 271.2808
f 274 275 276
v -1460.5561 1304.3100 279.7700
v -1455.5285 1302.4720 286.3293
v -1449.8387 1300.3893 279.4402
f 277 278 279
v -1461.7296 1300.9898 282.6023
v -1460.5561 1304.3100 279.7700
v -1460.5554 1304.3093 276.9391
f 280 281 282
v -1460.4100 1300.5235 283.5777
v -1461.7296 1300.9898 282.6023
v -1461.7271 1300.9873 271.2797
f 283 284 285
v -1461.0166 1298.8071 283.5779
v -1460.4100 1300.5235 283.5777
v -1461.3677 1297.8043 271.2804
f 286 287 288
v -1461.0166 1298.8071 283.5779
v -1461.3690 1297.8057 277.4292
v -1461.3696 1297.8064 280.5041
f 289 290 291
v -1461.3677 1297.8043 271.2804
v -1460.4100 1300.5235 283.5777
v -1460.4074 1300.5208 271.2801
f 292 293 294
v -1449.8387 1300.3893 279.4402
v -1449.8392 1300.3898 282.1591
v -1450.6591 1298.0646 271.2828
f 295 296 297
v -1450.6591 1298.0646 271.2828
v -1449.8369 1300.3874 271.2825
v -1449.8381 1300.3886 276.7203
f 298 299 300
v -1451.0836 1296.8732 282.1595
v -1451.9482 1294.4295 282.1598
v -1451.9476 1294.4290 279.4409
f 301 302 303
v -1451.0836 1296.8732 282.1595
v -1451.9476 1294.4290 279.4409
v -1451.9470 1294.4283 276.7210
f 304 305 306

g building_ID_6FB6C561-69BF-416B-AC55-8F96C495A07D
v -1410.9019 1304.8997 283.6519
v -1426.5300 1303.3276 283.6487
v -1413.0176 1298.6694 283.6527
f 307 308 309
v -1410.9019 1304.8997 283.6519
v -1407.9290 1312.7296 283.6509
v -1408.1080 1312.7361 283.6509
f 310 311 312
v -1421.5253 1317.4139 283.6470
v -1426.5300 1303.3276 283.6487
v -1410.9019 1304.8997 283.6519
f 313 314 315
v -1410.9019 1304.8997 283.6519
v -1408.1080 1312.7361 283.6509
v -1421.5253 1317.4139 283.6470
f 316 317 318
v -1408.1080 1312.7361 283.6509
v -1407.9290 1312.7296 283.6509
v -1408.0888 1312.7860 283.6509
f 319 320 321
v -1348.7941 1298.0470 283.6666
v -1406.7330 1316.0943 283.6505
v -1407.9290 1312.7296 283.6509
f 322 323 324
v -1410.9019 1304.8997 283.6519
v -1353.3965 1284.8476 283.6683
v -1407.9290 1312.7296 283.6509
f 325 326 327
v -1353.3965 1284.8476 283.6683
v -1348.7941 1298.0470 283.6666
v -1407.9290 1312.7296 283.6509
f 328 329 330
v -1406.8109 1316.1225 283.6505
v -1406.7330 1316.0943 283.6505
v -1405.9992 1318.2413 283.6502
f 331 332 333
v -1348.7941 1298.0470 283.6666
v -1405.9992 1318.2413 283.6502
v -1406.7330 1316.0943 283.6505
f 334 335 336
v -1406.7296 1316.0906 267.5751
v -1407.9256 1312.7258 267.5755
v -1407.9290 1312.7296 283.6509
f 337 338 339
v -1407.9290 1312.7296 283.6509
v -1406.7330 1316.0943 283.6505
v -1406.7296 1316.0906 267.5751
f 340 341 342
v -1408.0855 1312.7822 267.5755
v -1408.0888 1312.7860 283.6509
v -1407.9290 1312.7296 283.6509
f 343 344 345
v -1408.1046 1312.7323 267.5755
v -1408.1080 1312.7361 283.6509
v -1408.0888 1312.7860 283.6509
f 346 347 348
v -1421.5218 1317.4103 267.5716
v -1421.5253 1317.4139 283.6470
v -1408.1080 1312.7361 283.6509
f 349 350 351
v -1426.5266 1303.3239 267.5733
v -1426.5300 1303.3276 283.6487
v -1421.5253 1317.4139 283.6470
f 352 353 354
v -1413.0143 1298.6658 267.5773
v -1413.0176 1298.6694 283.6527
v -1426.5300 1303.3276 283.6487
f 355 356 357
v -1410.8986 1304.8959 267.5765
v -1410.9019 1304.8997 283.6519
v -1413.0176 1298.6694 283.6527
f 358 359 360
v -1353.3933 1284.8439 267.5929
v -1353.3965 1284.8476 283.6683
v -1410.9019 1304.8997 283.6519
f 361 362 363
v -1348.7910 1298.0434 267.5912
v -1348.7941 1298.0470 283.6666
v -1353.3965 1284.8476 283.6683
f 364 365 366
v -1403.7513 1317.4473 283.3809
v -1405.9992 1318.2412 283.3802
v -1405.9992 1318.2413 283.6502
f 367 368 369
v -1403.7480 1317.4435 267.5755
v -1403.7513 1317.4473 283.3809
v -1366.7497 1304.3850 282.7366
f 370 371 372
v -1405.9992 1318.2413 283.6502
v -1366.7497 1304.3850 282.7366
v -1403.7513 1317.4473 283.3809
f 373 374 375
v -1366.7497 1304.3850 282.7366
v -1405.9992 1318.2413 283.6502
v -1348.7941 1298.0470 283.6666
f 376 377 378
v -1359.9686 1301.9912 279.7436
v -1360.3113 1302.1120 279.9275
v -1348.7941 1298.0470 283.6666
f 379 380 381
v -1366.7497 1304.3850 282.7366
v -1348.7941 1298.0470 283.6666
v -1360.3113 1302.1120 279.9275
f 382 383 384
v -1348.7910 1298.0434 267.5912
v -1359.9686 1301.9912 279.7436
v -1348.7941 1298.0470 283.6666
f 385 386 387
v -1366.7497 1304.3850 282.7366
v -1366.7467 1304.3815 267.5861
v -1403.7480 1317.4435 267.5755
f 388 389 390
v -1359.9686 1301.9912 279.7436
v -1348.7910 1298.0434 267.5912
v -1359.9662 1301.9883 267.5880
f 391 392 393
v -1406.8109 1316.1224 283.3805
v -1406.8109 1316.1225 283.6505
v -1405.9992 1318.2412 283.3802
f 394 395 396
v -1408.1479 1323.4223 267.5733
v -1408.1512 1323.4259 283.3787
v -1406.8453 1327.1164 283.3782
f 397 398 399
v -1408.4416 1323.5191 267.5732
v -1408.4450 1323.5227 283.3786
v -1408.1512 1323.4259 283.3787
f 400 401 402
v -1408.4450 1323.5227 283.3786
v -1408.4665 1323.4580 280.0477
v -1408.4671 1323.4598 283.3786
f 403 404 405
v -1408.4639 1323.4561 267.5732
v -1408.4665 1323.4580 280.0477
v -1408.4416 1323.5191 267.5732
f 406 407 408
v -1408.2845 1319.4767 267.5741
v -1408.2879 1319.4804 283.3795
v -1408.2579 1319.5625 280.1236
f 409 410 411
v -1407.0585 1322.9610 283.3790
v -1408.2579 1319.5625 280.1236
v -1408.2879 1319.4804 283.3795
f 412 413 414
v -1408.2553 1319.5596 267.5741
v -1408.2845 1319.4767 267.5741
v -1408.2579 1319.5625 280.1236
f 415 416 417
v -1407.0585 1322.9610 283.3790
v -1407.0577 1322.9601 279.7461
v -1408.2579 1319.5625 280.1236
f 418 419 420
v -1408.0397 1319.3900 267.5741
v -1408.0431 1319.3937 283.3795
v -1408.2879 1319.4804 283.3795
f 421 422 423
v -1408.9345 1316.8745 267.5745
v -1408.9378 1316.8781 283.3799
v -1408.0431 1319.3937 283.3795
f 424 425 426
v -1404.9877 1323.5288 267.5740
v -1404.9910 1323.5325 283.3794
v -1401.9789 1322.4673 283.3802
f 427 428 429
v -1404.0687 1326.1333 267.5736
v -1404.0720 1326.1370 283.3790
v -1404.9910 1323.5325 283.3794
f 430 431 432
v -1406.8421 1327.1127 267.5728
v -1406.8453 1327.1164 283.3782
v -1404.0720 1326.1370 283.3790
f 433 434 435
v -1405.9992 1318.2412 283.3802
v -1404.9910 1323.5325 283.3794
v -1408.0431 1319.3937 283.3795
f 436 437 438
v -1408.9378 1316.8781 283.3799
v -1406.8109 1316.1224 283.3805
v -1405.9992 1318.2412 283.3802
f 439 440 441
v -1405.9992 1318.2412 283.3802
v -1408.0431 1319.3937 283.3795
v -1408.9378 1316.8781 283.3799
f 442 443 444
v -1408.4671 1323.4598 283.3786
v -1407.0585 1322.9610 283.3790
v -1408.1512 1323.4259 283.3787
f 445 446 447
v -1408.0431 1319.3937 283.3795
v -1407.0585 1322.9610 283.3790
v -1408.2879 1319.4804 283.3795
f 448 449 450
v -1404.9910 1323.5325 283.3794
v -1407.0585 1322.9610 283.3790
v -1408.0431 1319.3937 283.3795
f 451 452 453
v -1401.9789 1322.4673 283.3802
v -1405.9992 1318.2412 283.3802
v -1403.7513 1317.4473 283.3809
f 454 455 456
v -1407.0585 1322.9610 283.3790
v -1404.0720 1326.1370 283.3790
v -1406.8453 1327.1164 283.3782
f 457 458 459
v -1404.0720 1326.1370 283.3790
v -1407.0585 1322.9610 283.3790
v -1404.9910 1323.5325 283.3794
f 460 461 462
v -1408.1512 1323.4259 283.3787
v -1408.4450 1323.5227 283.3786
v -1408.4671 1323.4598 283.3786
f 463 464 465
v -1406.8453 1327.1164 283.3782
v -1408.1512 1323.4259 283.3787
v -1407.0585 1322.9610 283.3790
f 466 467 468
v -1404.9910 1323.5325 283.3794
v -1405.9992 1318.2412 283.3802
v -1401.9789 1322.4673 283.3802
f 469 470 471
v -1401.9756 1322.4637 267.5748
v -1401.9789 1322.4673 283.3802
v -1403.7513 1317.4473 283.3809
f 472 473 474
v -1414.3539 1319.9680 280.7781
v -1412.0720 1324.0439 280.7778
v -1414.9080 1323.6435 280.7772
f 475 476 477
v -1411.2948 1320.3959 280.7787
v -1411.8031 1324.0101 280.7779
v -1414.3539 1319.9680 280.7781
f 478 479 480
v -1412.0720 1324.0439 280.7778
v -1414.3539 1319.9680 280.7781
v -1411.8031 1324.0101 280.7779
f 481 482 483
v -1409.7060 1323.7485 267.5729
v -1409.7087 1323.7514 280.3164
v -1408.4665 1323.4580 280.0477
f 484 485 486
v -1414.9052 1323.6404 267.5717
v -1414.9080 1323.6435 280.7772
v -1412.0720 1324.0439 280.7778
f 487 488 489
v -1414.3511 1319.9650 267.5726
v -1414.3539 1319.9680 280.7781
v -1414.9080 1323.6435 280.7772
f 490 491 492
v -1411.2920 1320.3928 267.5732
v -1411.2948 1320.3959 280.7787
v -1414.3539 1319.9680 280.7781
f 493 494 495
v -1407.0577 1322.9601 279.7461
v -1407.0585 1322.9610 283.3790
v -1408.4665 1323.4580 280.0477
f 496 497 498
v -1409.7087 1323.7514 280.3164
v -1411.8031 1324.0101 280.7779
v -1411.2948 1320.3959 280.7787
f 499 500 501
v -1408.4665 1323.4580 280.0477
v -1409.7087 1323.7514 280.3164
v -1411.2948 1320.3959 280.7787
f 502 503 504
v -1407.0577 1322.9601 279.7461
v -1408.4665 1323.4580 280.0477
v -1408.2579 1319.5625 280.1236
f 505 506 507
v -1411.2948 1320.3959 280.7787
v -1408.2579 1319.5625 280.1236
v -1408.4665 1323.4580 280.0477
f 508 509 510
v -1408.2553 1319.5596 267.5741
v -1408.2579 1319.5625 280.1236
v -1411.2920 1320.3928 267.5732
f 511 512 513
v -1359.6062 1306.5861 284.0566
v -1363.2337 1307.8668 284.0555
v -1364.1113 1305.3812 284.0559
f 514 515 516
v -1364.1113 1305.3812 284.0559
v -1360.4828 1304.1005 284.0569
v -1359.6062 1306.5861 284.0566
f 517 518 519
v -1360.4821 1304.0996 280.2061
v -1360.4828 1304.1005 284.0569
v -1360.5949 1304.1399 280.2331
f 520 521 522
v -1361.3203 1304.3949 280.3848
v -1360.5949 1304.1399 280.2331
v -1360.4828 1304.1005 284.0569
f 523 524 525
v -1361.3203 1304.3949 280.3848
v -1360.4828 1304.1005 284.0569
v -1364.1109 1305.3806 281.6020
f 526 527 528
v -1364.1113 1305.3812 284.0559
v -1364.1109 1305.3806 281.6020
v -1360.4828 1304.1005 284.0569
f 529 530 531
v -1360.0256 1305.3944 280.3739
v -1359.6054 1306.5852 280.4527
v -1359.6062 1306.5861 284.0566
f 532 533 534
v -1360.4821 1304.0996 280.2061
v -1360.0256 1305.3944 280.3739
v -1360.4828 1304.1005 284.0569
f 535 536 537
v -1359.6062 1306.5861 284.0566
v -1360.4828 1304.1005 284.0569
v -1360.0256 1305.3944 280.3739
f 538 539 540
v -1363.2331 1307.8661 281.3536
v -1363.2337 1307.8668 284.0555
v -1361.7835 1307.3543 281.0510
f 541 542 543
v -1359.6062 1306.5861 284.0566
v -1361.7835 1307.3543 281.0510
v -1363.2337 1307.8668 284.0555
f 544 545 546
v -1359.6054 1306.5852 280.4527
v -1360.0860 1306.7546 280.6435
v -1359.6062 1306.5861 284.0566
f 547 548 549
v -1361.7835 1307.3543 281.0510
v -1359.6062 1306.5861 284.0566
v -1360.0860 1306.7546 280.6435
f 550 551 552
v -1363.3641 1307.4965 281.2967
v -1364.1109 1305.3806 281.6020
v -1364.1113 1305.3812 284.0559
f 553 554 555
v -1363.2331 1307.8661 281.3536
v -1363.3641 1307.4965 281.2967
v -1363.2337 1307.8668 284.0555
f 556 557 558
v -1364.1113 1305.3812 284.0559
v -1363.2337 1307.8668 284.0555
v -1363.3641 1307.4965 281.2967
f 559 560 561
v -1359.8840 1302.2168 279.7436
v -1357.8483 1307.7374 280.0539
v -1358.1138 1307.9552 280.2048
f 562 563 564
v -1357.8483 1307.7374 280.0539
v -1359.8840 1302.2168 279.7436
v -1357.0297 1303.7850 278.9139
f 565 566 567
v -1357.0297 1303.7850 278.9139
v -1356.4850 1306.2866 279.0555
v -1356.8927 1306.7937 279.1863
f 568 569 570
v -1356.4850 1306.2866 279.0555
v -1357.0297 1303.7850 278.9139
v -1356.0837 1305.6605 278.9137
f 571 572 573
v -1357.8483 1307.7374 280.0539
v -1357.0297 1303.7850 278.9139
v -1357.6128 1307.5457 279.8450
f 574 575 576
v -1357.6128 1307.5457 279.8450
v -1357.0297 1303.7850 278.9139
v -1357.0153 1306.9461 279.3012
f 577 578 579
v -1357.0297 1303.7850 278.9139
v -1356.8927 1306.7937 279.1863
v -1357.0153 1306.9461 279.3012
f 580 581 582
v -1356.0060 1305.5402 278.8627
v -1356.0837 1305.6605 278.9137
v -1357.0297 1303.7850 278.9139
f 583 584 585
v -1356.0060 1305.5402 278.8627
v -1357.0297 1303.7850 278.9139
v -1353.7959 1305.5351 278.0442
f 586 587 588
v -1347.2244 1303.6809 275.2661
v -1353.7959 1305.5351 278.0442
v -1357.0297 1303.7850 278.9139
f 589 590 591
v -1353.7959 1305.5351 278.0442
v -1347.2244 1303.6809 275.2661
v -1347.2854 1305.5200 275.2657
f 592 593 594
v -1359.7283 1308.9293 270.9216
v -1359.7303 1308.9316 280.9252
v -1358.9772 1308.5455 280.6024
f 595 596 597
v -1358.2684 1308.0815 280.2797
v -1358.2678 1308.0809 277.0258
v -1358.9772 1308.5455 280.6024
f 598 599 600
v -1358.9746 1308.5425 267.5869
v -1358.9772 1308.5455 280.6024
v -1358.2678 1308.0809 277.0258
f 601 602 603
v -1358.2659 1308.0787 267.5871
v -1358.9746 1308.5425 267.5869
v -1358.2678 1308.0809 277.0258
f 604 605 606
v -1357.0274 1303.7824 267.5883
v -1357.0297 1303.7850 278.9139
v -1359.8816 1302.2141 267.5880
f 607 608 609
v -1360.5168 1309.2347 267.5864
v -1361.3341 1309.4549 267.5862
v -1360.5184 1309.2366 276.0211
f 610 611 612
v -1362.1705 1309.5909 271.0759
v -1362.1726 1309.5933 281.5445
v -1361.3341 1309.4549 267.5862
f 613 614 615
v -1361.3341 1309.4549 267.5862
v -1362.1697 1309.5901 267.5860
v -1362.1705 1309.5909 271.0759
f 616 617 618
v -1361.3341 1309.4549 267.5862
v -1362.1726 1309.5933 281.5445
v -1361.3369 1309.4581 281.3747
f 619 620 621
v -1363.0167 1309.6388 278.1334
v -1363.0146 1309.6364 267.5858
v -1363.8607 1309.5947 267.5856
f 622 623 624
v -1359.9468 1302.1463 267.5880
v -1359.9492 1302.1490 279.7626
v -1359.9142 1302.1370 279.7436
f 625 626 627
v -1359.9468 1302.1463 267.5880
v -1359.8987 1302.1691 267.5880
v -1359.9011 1302.1719 279.7436
f 628 629 630
v -1359.8816 1302.2141 267.5880
v -1359.8840 1302.2168 279.7436
v -1359.8987 1302.1691 267.5880
f 631 632 633
v -1364.6971 1309.4649 267.5855
v -1365.8522 1304.5721 267.5862
v -1365.8552 1304.5755 282.3517
f 634 635 636
v -1364.6971 1309.4649 267.5855
v -1365.8552 1304.5755 282.3517
v -1364.6988 1309.4670 276.3552
f 637 638 639
v -1366.3198 1304.7397 282.5536
v -1365.8522 1304.5721 267.5862
v -1366.6125 1304.8411 267.5860
f 640 641 642
v -1365.8522 1304.5721 267.5862
v -1366.3198 1304.7397 282.5536
v -1365.8552 1304.5755 282.3517
f 643 644 645
v -1357.6109 1307.5436 270.6523
v -1357.6128 1307.5457 279.8450
v -1357.0130 1306.9433 267.5876
f 646 647 648
v -1357.6103 1307.5429 267.5874
v -1357.6109 1307.5436 270.6523
v -1357.0130 1306.9433 267.5876
f 649 650 651
v -1347.2229 1303.6791 267.5904
v -1347.2244 1303.6809 275.2661
v -1357.0274 1303.7824 267.5883
f 652 653 654
v -1347.2839 1305.5182 267.5900
v -1347.2854 1305.5200 275.2657
v -1347.2244 1303.6809 275.2661
f 655 656 657
v -1358.9772 1308.5455 280.6024
v -1359.7303 1308.9316 280.9252
v -1359.6054 1306.5852 280.4527
f 658 659 660
v -1358.9772 1308.5455 280.6024
v -1359.6054 1306.5852 280.4527
v -1358.2684 1308.0815 280.2797
f 661 662 663
v -1359.7303 1308.9316 280.9252
v -1360.1908 1309.1100 281.1110
v -1360.0860 1306.7546 280.6435
f 664 665 666
v -1359.6054 1306.5852 280.4527
v -1360.0256 1305.3944 280.3739
v -1359.8840 1302.2168 279.7436
f 667 668 669
v -1358.1138 1307.9552 280.2048
v -1359.6054 1306.5852 280.4527
v -1359.8840 1302.2168 279.7436
f 670 671 672
v -1359.6054 1306.5852 280.4527
v -1358.1138 1307.9552 280.2048
v -1358.2684 1308.0815 280.2797
f 673 674 675
v -1360.0860 1306.7546 280.6435
v -1359.6054 1306.5852 280.4527
v -1359.7303 1308.9316 280.9252
f 676 677 678
v -1362.1726 1309.5933 281.5445
v -1360.0860 1306.7546 280.6435
v -1361.3369 1309.4581 281.3747
f 679 680 681
v -1361.7835 1307.3543 281.0510
v -1362.1726 1309.5933 281.5445
v -1362.6205 1309.6175 281.6264
f 682 683 684
v -1361.7835 1307.3543 281.0510
v -1360.0860 1306.7546 280.6435
v -1362.1726 1309.5933 281.5445
f 685 686 687
v -1360.0860 1306.7546 280.6435
v -1360.5195 1309.2378 281.1919
v -1361.3369 1309.4581 281.3747
f 688 689 690
v -1360.0860 1306.7546 280.6435
v -1360.1908 1309.1100 281.1110
v -1360.5195 1309.2378 281.1919
f 691 692 693
v -1360.0256 1305.3944 280.3739
v -1360.4821 1304.0996 280.2061
v -1359.8840 1302.2168 279.7436
f 694 695 696
v -1360.5949 1304.1399 280.2331
v -1359.8840 1302.2168 279.7436
v -1360.4821 1304.0996 280.2061
f 697 698 699
v -1363.2331 1307.8661 281.3536
v -1363.0175 1309.6397 281.6853
v -1363.8636 1309.5980 281.7931
f 700 701 702
v -1363.8636 1309.5980 281.7931
v -1364.6669 1309.4731 281.8780
v -1363.2331 1307.8661 281.3536
f 703 704 705
v -1363.2331 1307.8661 281.3536
v -1361.7835 1307.3543 281.0510
v -1363.0175 1309.6397 281.6853
f 706 707 708
v -1362.6205 1309.6175 281.6264
v -1363.0175 1309.6397 281.6853
v -1361.7835 1307.3543 281.0510
f 709 710 711
v -1363.3641 1307.4965 281.2967
v -1363.2331 1307.8661 281.3536
v -1364.6669 1309.4731 281.8780
f 712 713 714
v -1360.5949 1304.1399 280.2331
v -1361.3203 1304.3949 280.3848
v -1359.8840 1302.2168 279.7436
f 715 716 717
v -1359.9492 1302.1490 279.7626
v -1359.9011 1302.1719 279.7436
v -1360.3113 1302.1120 279.9275
f 718 719 720
v -1359.8840 1302.2168 279.7436
v -1360.3113 1302.1120 279.9275
v -1359.9011 1302.1719 279.7436
f 721 722 723
v -1359.9142 1302.1370 279.7436
v -1359.9492 1302.1490 279.7626
v -1360.3113 1302.1120 279.9275
f 724 725 726
v -1359.9142 1302.1370 279.7436
v -1360.3113 1302.1120 279.9275
v -1359.9686 1301.9912 279.7436
f 727 728 729
v -1359.9686 1301.9912 279.7436
v -1359.9118 1302.1342 267.5880
v -1359.9142 1302.1370 279.7436
f 730 731 732
v -1359.9686 1301.9912 279.7436
v -1359.9662 1301.9883 267.5880
v -1359.9118 1302.1342 267.5880
f 733 734 735
v -1366.7467 1304.3815 267.5861
v -1366.7497 1304.3850 282.7366
v -1366.6125 1304.8411 267.5860
f 736 737 738
v -1366.7497 1304.3850 282.7366
v -1366.6155 1304.8446 282.6825
v -1366.6125 1304.8411 267.5860
f 739 740 741
v -1366.6155 1304.8446 282.6825
v -1366.7497 1304.3850 282.7366
v -1366.3198 1304.7397 282.5536
f 742 743 744
v -1365.8552 1304.5755 282.3517
v -1366.3198 1304.7397 282.5536
v -1366.7497 1304.3850 282.7366
f 745 746 747
v -1365.8552 1304.5755 282.3517
v -1366.7497 1304.3850 282.7366
v -1360.3113 1302.1120 279.9275
f 748 749 750
v -1364.1109 1305.3806 281.6020
v -1364.6999 1309.4682 281.8920
v -1365.8552 1304.5755 282.3517
f 751 752 753
v -1360.3113 1302.1120 279.9275
v -1361.3203 1304.3949 280.3848
v -1364.1109 1305.3806 281.6020
f 754 755 756
v -1361.3203 1304.3949 280.3848
v -1360.3113 1302.1120 279.9275
v -1359.8840 1302.2168 279.7436
f 757 758 759
v -1360.3113 1302.1120 279.9275
v -1364.1109 1305.3806 281.6020
v -1365.8552 1304.5755 282.3517
f 760 761 762
v -1364.6999 1309.4682 281.8920
v -1363.3641 1307.4965 281.2967
v -1364.6669 1309.4731 281.8780
f 763 764 765
v -1364.1109 1305.3806 281.6020
v -1363.3641 1307.4965 281.2967
v -1364.6999 1309.4682 281.8920
f 766 767 768
v -1406.7296 1316.0906 267.5751
v -1406.7330 1316.0943 283.6505
v -1406.8109 1316.1224 283.3805
f 769 770 771
v -1406.8109 1316.1225 283.6505
v -1406.8109 1316.1224 283.3805
v -1406.7330 1316.0943 283.6505
f 772 773 774
v -1406.7296 1316.0906 267.5751
v -1406.8109 1316.1224 283.3805
v -1406.8075 1316.1188 267.5751
f 775 776 777
v -1406.8109 1316.1224 283.3805
v -1408.9378 1316.8781 283.3799
v -1406.8075 1316.1188 267.5751
f 778 779 780
v -1408.9378 1316.8781 283.3799
v -1408.9345 1316.8745 267.5745
v -1406.8075 1316.1188 267.5751
f 781 782 783
v -1411.8031 1324.0101 280.7779
v -1412.0692 1324.0408 267.5723
v -1412.0720 1324.0439 280.7778
f 784 785 786
v -1409.7087 1323.7514 280.3164
v -1412.0692 1324.0408 267.5723
v -1411.8031 1324.0101 280.7779
f 787 788 789
v -1412.0692 1324.0408 267.5723
v -1409.7087 1323.7514 280.3164
v -1411.8003 1324.0070 267.5724
f 790 791 792
v -1409.7060 1323.7485 267.5729
v -1411.8003 1324.0070 267.5724
v -1409.7087 1323.7514 280.3164
f 793 794 795
v -1360.1908 1309.1100 281.1110
v -1360.5184 1309.2366 276.0211
v -1360.5195 1309.2378 281.1919
f 796 797 798
v -1359.7303 1308.9316 280.9252
v -1360.5184 1309.2366 276.0211
v -1360.1908 1309.1100 281.1110
f 799 800 801
v -1360.5168 1309.2347 267.5864
v -1359.7303 1308.9316 280.9252
v -1359.7283 1308.9293 270.9216
f 802 803 804
v -1360.5184 1309.2366 276.0211
v -1359.7303 1308.9316 280.9252
v -1360.5168 1309.2347 267.5864
f 805 806 807
v -1360.5168 1309.2347 267.5864
v -1359.7283 1308.9293 270.9216
v -1360.1881 1309.1069 267.5865
f 808 809 810
v -1359.7276 1308.9286 267.5867
v -1360.1881 1309.1069 267.5865
v -1359.7283 1308.9293 270.9216
f 811 812 813
v -1362.6205 1309.6175 281.6264
v -1363.0167 1309.6388 278.1334
v -1363.0175 1309.6397 281.6853
f 814 815 816
v -1362.1726 1309.5933 281.5445
v -1363.0167 1309.6388 278.1334
v -1362.6205 1309.6175 281.6264
f 817 818 819
v -1363.0146 1309.6364 267.5858
v -1363.0167 1309.6388 278.1334
v -1362.1726 1309.5933 281.5445
f 820 821 822
v -1362.1705 1309.5909 271.0759
v -1363.0146 1309.6364 267.5858
v -1362.1726 1309.5933 281.5445
f 823 824 825
v -1363.0146 1309.6364 267.5858
v -1362.1705 1309.5909 271.0759
v -1362.6177 1309.6143 267.5859
f 826 827 828
v -1362.1697 1309.5901 267.5860
v -1362.6177 1309.6143 267.5859
v -1362.1705 1309.5909 271.0759
f 829 830 831
v -1364.6988 1309.4670 276.3552
v -1364.6669 1309.4731 281.8780
v -1363.8636 1309.5980 281.7931
f 832 833 834
v -1364.6988 1309.4670 276.3552
v -1364.6999 1309.4682 281.8920
v -1364.6669 1309.4731 281.8780
f 835 836 837
v -1363.8636 1309.5980 281.7931
v -1364.6971 1309.4649 267.5855
v -1364.6988 1309.4670 276.3552
f 838 839 840
v -1363.8636 1309.5980 281.7931
v -1363.8607 1309.5947 267.5856
v -1364.6971 1309.4649 267.5855
f 841 842 843
v -1357.0130 1306.9433 267.5876
v -1357.0153 1306.9461 279.3012
v -1356.8927 1306.7937 279.1863
f 844 845 846
v -1356.8927 1306.7937 279.1863
v -1356.4850 1306.2866 279.0555
v -1357.0130 1306.9433 267.5876
f 847 848 849
v -1357.0130 1306.9433 267.5876
v -1356.4850 1306.2866 279.0555
v -1356.4827 1306.2839 267.5879
f 850 851 852
v -1356.0837 1305.6605 278.9137
v -1356.4827 1306.2839 267.5879
v -1356.4850 1306.2866 279.0555
f 853 854 855
v -1356.0060 1305.5402 278.8627
v -1356.4827 1306.2839 267.5879
v -1356.0837 1305.6605 278.9137
f 856 857 858
v -1356.0060 1305.5402 278.8627
v -1356.0814 1305.6578 267.5881
v -1356.4827 1306.2839 267.5879
f 859 860 861
v -1356.0060 1305.5402 278.8627
v -1356.0037 1305.5376 267.5881
v -1356.0814 1305.6578 267.5881
f 862 863 864
v -1357.8483 1307.7374 280.0539
v -1358.2678 1308.0809 277.0258
v -1358.1138 1307.9552 280.2048
f 865 866 867
v -1357.6128 1307.5457 279.8450
v -1358.2678 1308.0809 277.0258
v -1357.8483 1307.7374 280.0539
f 868 869 870
v -1358.2678 1308.0809 277.0258
v -1358.2684 1308.0815 280.2797
v -1358.1138 1307.9552 280.2048
f 871 872 873
v -1358.2678 1308.0809 277.0258
v -1357.6128 1307.5457 279.8450
v -1358.2659 1308.0787 267.5871
f 874 875 876
v -1358.2659 1308.0787 267.5871
v -1357.6128 1307.5457 279.8450
v -1357.6109 1307.5436 270.6523
f 877 878 879
v -1357.6109 1307.5436 270.6523
v -1357.6103 1307.5429 267.5874
v -1357.8458 1307.7345 267.5873
f 880 881 882
v -1358.2659 1308.0787 267.5871
v -1357.6109 1307.5436 270.6523
v -1357.8458 1307.7345 267.5873
f 883 884 885
v -1356.0037 1305.5376 267.5881
v -1356.0060 1305.5402 278.8627
v -1353.7959 1305.5351 278.0442
f 886 887 888
v -1347.2839 1305.5182 267.5900
v -1356.0037 1305.5376 267.5881
v -1353.7959 1305.5351 278.0442
f 889 890 891
v -1353.7959 1305.5351 278.0442
v -1347.2854 1305.5200 275.2657
v -1347.2839 1305.5182 267.5900
f 892 893 894
v -1358.2659 1308.0787 267.5871
v -1362.6177 1309.6143 267.5859
v -1358.9746 1308.5425 267.5869
f 895 896 897
v -1358.9746 1308.5425 267.5869
v -1360.1881 1309.1069 267.5865
v -1359.7276 1308.9286 267.5867
f 898 899 900
v -1362.6177 1309.6143 267.5859
v -1360.1881 1309.1069 267.5865
v -1358.9746 1308.5425 267.5869
f 901 902 903
v -1357.8458 1307.7345 267.5873
v -1362.6177 1309.6143 267.5859
v -1358.2659 1308.0787 267.5871
f 904 905 906
v -1357.0274 1303.7824 267.5883
v -1356.0037 1305.5376 267.5881
v -1347.2839 1305.5182 267.5900
f 907 908 909
v -1365.8522 1304.5721 267.5862
v -1364.6971 1309.4649 267.5855
v -1356.4827 1306.2839 267.5879
f 910 911 912
v -1357.0274 1303.7824 267.5883
v -1347.2839 1305.5182 267.5900
v -1347.2229 1303.6791 267.5904
f 913 914 915
v -1357.6103 1307.5429 267.5874
v -1357.0130 1306.9433 267.5876
v -1363.8607 1309.5947 267.5856
f 916 917 918
v -1364.6971 1309.4649 267.5855
v -1357.0130 1306.9433 267.5876
v -1356.4827 1306.2839 267.5879
f 919 920 921
v -1357.8458 1307.7345 267.5873
v -1357.6103 1307.5429 267.5874
v -1363.8607 1309.5947 267.5856
f 922 923 924
v -1356.4827 1306.2839 267.5879
v -1356.0814 1305.6578 267.5881
v -1365.8522 1304.5721 267.5862
f 925 926 927
v -1361.3341 1309.4549 267.5862
v -1360.5168 1309.2347 267.5864
v -1360.1881 1309.1069 267.5865
f 928 929 930
v -1360.1881 1309.1069 267.5865
v -1362.1697 1309.5901 267.5860
v -1361.3341 1309.4549 267.5862
f 931 932 933
v -1362.6177 1309.6143 267.5859
v -1362.1697 1309.5901 267.5860
v -1360.1881 1309.1069 267.5865
f 934 935 936
v -1404.0687 1326.1333 267.5736
v -1404.9877 1323.5288 267.5740
v -1406.8421 1327.1127 267.5728
f 937 938 939
v -1357.8458 1307.7345 267.5873
v -1363.0146 1309.6364 267.5858
v -1362.6177 1309.6143 267.5859
f 940 941 942
v -1363.8607 1309.5947 267.5856
v -1363.0146 1309.6364 267.5858
v -1357.8458 1307.7345 267.5873
f 943 944 945
v -1364.6971 1309.4649 267.5855
v -1363.8607 1309.5947 267.5856
v -1357.0130 1306.9433 267.5876
f 946 947 948
v -1408.1479 1323.4223 267.5733
v -1404.9877 1323.5288 267.5740
v -1401.9756 1322.4637 267.5748
f 949 950 951
v -1403.7480 1317.4435 267.5755
v -1408.1479 1323.4223 267.5733
v -1401.9756 1322.4637 267.5748
f 952 953 954
v -1408.4639 1323.4561 267.5732
v -1408.4416 1323.5191 267.5732
v -1408.1479 1323.4223 267.5733
f 955 956 957
v -1408.2553 1319.5596 267.5741
v -1408.4639 1323.4561 267.5732
v -1408.1479 1323.4223 267.5733
f 958 959 960
v -1409.7060 1323.7485 267.5729
v -1408.4639 1323.4561 267.5732
v -1408.2553 1319.5596 267.5741
f 961 962 963
v -1408.1479 1323.4223 267.5733
v -1406.8421 1327.1127 267.5728
v -1404.9877 1323.5288 267.5740
f 964 965 966
v -1356.0814 1305.6578 267.5881
v -1356.0037 1305.5376 267.5881
v -1365.8522 1304.5721 267.5862
f 967 968 969
v -1365.8522 1304.5721 267.5862
v -1357.0274 1303.7824 267.5883
v -1359.8816 1302.2141 267.5880
f 970 971 972
v -1359.9468 1302.1463 267.5880
v -1359.8816 1302.2141 267.5880
v -1359.8987 1302.1691 267.5880
f 973 974 975
v -1366.7467 1304.3815 267.5861
v -1366.6125 1304.8411 267.5860
v -1365.8522 1304.5721 267.5862
f 976 977 978
v -1365.8522 1304.5721 267.5862
v -1359.8816 1302.2141 267.5880
v -1359.9468 1302.1463 267.5880
f 979 980 981
v -1359.9468 1302.1463 267.5880
v -1359.9662 1301.9883 267.5880
v -1365.8522 1304.5721 267.5862
f 982 983 984
v -1359.9468 1302.1463 267.5880
v -1359.9118 1302.1342 267.5880
v -1359.9662 1301.9883 267.5880
f 985 986 987
v -1356.0037 1305.5376 267.5881
v -1357.0274 1303.7824 267.5883
v -1365.8522 1304.5721 267.5862
f 988 989 990
v -1365.8522 1304.5721 267.5862
v -1359.9662 1301.9883 267.5880
v -1366.7467 1304.3815 267.5861
f 991 992 993
v -1353.3933 1284.8439 267.5929
v -1359.9662 1301.9883 267.5880
v -1348.7910 1298.0434 267.5912
f 994 995 996
v -1410.8986 1304.8959 267.5765
v -1407.9256 1312.7258 267.5755
v -1366.7467 1304.3815 267.5861
f 997 998 999
v -1359.9662 1301.9883 267.5880
v -1353.3933 1284.8439 267.5929
v -1366.7467 1304.3815 267.5861
f 1000 1001 1002
v -1406.8075 1316.1188 267.5751
v -1403.7480 1317.4435 267.5755
v -1406.7296 1316.0906 267.5751
f 1003 1004 1005
v -1407.9256 1312.7258 267.5755
v -1406.7296 1316.0906 267.5751
v -1403.7480 1317.4435 267.5755
f 1006 1007 1008
v -1407.9256 1312.7258 267.5755
v -1403.7480 1317.4435 267.5755
v -1366.7467 1304.3815 267.5861
f 1009 1010 1011
v -1410.8986 1304.8959 267.5765
v -1366.7467 1304.3815 267.5861
v -1353.3933 1284.8439 267.5929
f 1012 1013 1014
v -1403.7480 1317.4435 267.5755
v -1408.2553 1319.5596 267.5741
v -1408.1479 1323.4223 267.5733
f 1015 1016 1017
v -1408.0397 1319.3900 267.5741
v -1408.2845 1319.4767 267.5741
v -1408.2553 1319.5596 267.5741
f 1018 1019 1020
v -1411.8003 1324.0070 267.5724
v -1409.7060 1323.7485 267.5729
v -1408.2553 1319.5596 267.5741
f 1021 1022 1023
v -1411.8003 1324.0070 267.5724
v -1408.2553 1319.5596 267.5741
v -1411.2920 1320.3928 267.5732
f 1024 1025 1026
v -1412.0692 1324.0408 267.5723
v -1411.8003 1324.0070 267.5724
v -1411.2920 1320.3928 267.5732
f 1027 1028 1029
v -1414.9052 1323.6404 267.5717
v -1412.0692 1324.0408 267.5723
v -1411.2920 1320.3928 267.5732
f 1030 1031 1032
v -1414.9052 1323.6404 267.5717
v -1411.2920 1320.3928 267.5732
v -1414.3511 1319.9650 267.5726
f 1033 1034 1035
v -1408.0397 1319.3900 267.5741
v -1408.2553 1319.5596 267.5741
v -1403.7480 1317.4435 267.5755
f 1036 1037 1038
v -1408.1046 1312.7323 267.5755
v -1407.9256 1312.7258 267.5755
v -1410.8986 1304.8959 267.5765
f 1039 1040 1041
v -1408.0855 1312.7822 267.5755
v -1407.9256 1312.7258 267.5755
v -1408.1046 1312.7323 267.5755
f 1042 1043 1044
v -1421.5218 1317.4103 267.5716
v -1410.8986 1304.8959 267.5765
v -1426.5266 1303.3239 267.5733
f 1045 1046 1047
v -1413.0143 1298.6658 267.5773
v -1426.5266 1303.3239 267.5733
v -1410.8986 1304.8959 267.5765
f 1048 1049 1050
v -1421.5218 1317.4103 267.5716
v -1408.1046 1312.7323 267.5755
v -1410.8986 1304.8959 267.5765
f 1051 1052 1053
v -1408.0397 1319.3900 267.5741
v -1406.8075 1316.1188 267.5751
v -1408.9345 1316.8745 267.5745
f 1054 1055 1056
v -1406.8075 1316.1188 267.5751
v -1408.0397 1319.3900 267.5741
v -1403.7480 1317.4435 267.5755
f 1057 1058 1059
v -1408.0855 1312.7822 267.5755
v -1407.9290 1312.7296 283.6509
v -1407.9256 1312.7258 267.5755
f 1060 1061 1062
v -1408.1046 1312.7323 267.5755
v -1408.0888 1312.7860 283.6509
v -1408.0855 1312.7822 267.5755
f 1063 1064 1065
v -1421.5218 1317.4103 267.5716
v -1408.1080 1312.7361 283.6509
v -1408.1046 1312.7323 267.5755
f 1066 1067 1068
v -1426.5266 1303.3239 267.5733
v -1421.5253 1317.4139 283.6470
v -1421.5218 1317.4103 267.5716
f 1069 1070 1071
v -1413.0143 1298.6658 267.5773
v -1426.5300 1303.3276 283.6487
v -1426.5266 1303.3239 267.5733
f 1072 1073 1074
v -1410.8986 1304.8959 267.5765
v -1413.0176 1298.6694 283.6527
v -1413.0143 1298.6658 267.5773
f 1075 1076 1077
v -1353.3933 1284.8439 267.5929
v -1410.9019 1304.8997 283.6519
v -1410.8986 1304.8959 267.5765
f 1078 1079 1080
v -1348.7910 1298.0434 267.5912
v -1353.3965 1284.8476 283.6683
v -1353.3933 1284.8439 267.5929
f 1081 1082 1083
v -1406.8109 1316.1225 283.6505
v -1405.9992 1318.2413 283.6502
v -1405.9992 1318.2412 283.3802
f 1084 1085 1086
v -1408.1479 1323.4223 267.5733
v -1406.8453 1327.1164 283.3782
v -1406.8421 1327.1127 267.5728
f 1087 1088 1089
v -1408.4416 1323.5191 267.5732
v -1408.1512 1323.4259 283.3787
v -1408.1479 1323.4223 267.5733
f 1090 1091 1092
v -1408.4665 1323.4580 280.0477
v -1408.4450 1323.5227 283.3786
v -1408.4416 1323.5191 267.5732
f 1093 1094 1095
v -1408.0397 1319.3900 267.5741
v -1408.2879 1319.4804 283.3795
v -1408.2845 1319.4767 267.5741
f 1096 1097 1098
v -1408.9345 1316.8745 267.5745
v -1408.0431 1319.3937 283.3795
v -1408.0397 1319.3900 267.5741
f 1099 1100 1101
v -1404.9877 1323.5288 267.5740
v -1401.9789 1322.4673 283.3802
v -1401.9756 1322.4637 267.5748
f 1102 1103 1104
v -1404.0687 1326.1333 267.5736
v -1404.9910 1323.5325 283.3794
v -1404.9877 1323.5288 267.5740
f 1105 1106 1107
v -1406.8421 1327.1127 267.5728
v -1404.0720 1326.1370 283.3790
v -1404.0687 1326.1333 267.5736
f 1108 1109 1110
v -1401.9756 1322.4637 267.5748
v -1403.7513 1317.4473 283.3809
v -1403.7480 1317.4435 267.5755
f 1111 1112 1113
v -1409.7060 1323.7485 267.5729
v -1408.4665 1323.4580 280.0477
v -1408.4639 1323.4561 267.5732
f 1114 1115 1116
v -1414.9052 1323.6404 267.5717
v -1412.0720 1324.0439 280.7778
v -1412.0692 1324.0408 267.5723
f 1117 1118 1119
v -1414.3511 1319.9650 267.5726
v -1414.9080 1323.6435 280.7772
v -1414.9052 1323.6404 267.5717
f 1120 1121 1122
v -1411.2920 1320.3928 267.5732
v -1414.3539 1319.9680 280.7781
v -1414.3511 1319.9650 267.5726
f 1123 1124 1125
v -1407.0585 1322.9610 283.3790
v -1408.4671 1323.4598 283.3786
v -1408.4665 1323.4580 280.0477
f 1126 1127 1128
v -1408.2579 1319.5625 280.1236
v -1411.2948 1320.3959 280.7787
v -1411.2920 1320.3928 267.5732
f 1129 1130 1131
v -1359.7283 1308.9293 270.9216
v -1358.9772 1308.5455 280.6024
v -1359.7276 1308.9286 267.5867
f 1132 1133 1134
v -1359.7276 1308.9286 267.5867
v -1358.9772 1308.5455 280.6024
v -1358.9746 1308.5425 267.5869
f 1135 1136 1137
v -1357.0297 1303.7850 278.9139
v -1359.8840 1302.2168 279.7436
v -1359.8816 1302.2141 267.5880
f 1138 1139 1140
v -1361.3341 1309.4549 267.5862
v -1361.3369 1309.4581 281.3747
v -1360.5195 1309.2378 281.1919
f 1141 1142 1143
v -1360.5184 1309.2366 276.0211
v -1361.3341 1309.4549 267.5862
v -1360.5195 1309.2378 281.1919
f 1144 1145 1146
v -1363.0175 1309.6397 281.6853
v -1363.8607 1309.5947 267.5856
v -1363.8636 1309.5980 281.7931
f 1147 1148 1149
v -1363.0167 1309.6388 278.1334
v -1363.8607 1309.5947 267.5856
v -1363.0175 1309.6397 281.6853
f 1150 1151 1152
v -1359.9118 1302.1342 267.5880
v -1359.9468 1302.1463 267.5880
v -1359.9142 1302.1370 279.7436
f 1153 1154 1155
v -1359.9011 1302.1719 279.7436
v -1359.9492 1302.1490 279.7626
v -1359.9468 1302.1463 267.5880
f 1156 1157 1158
v -1359.8840 1302.2168 279.7436
v -1359.9011 1302.1719 279.7436
v -1359.8987 1302.1691 267.5880
f 1159 1160 1161
v -1365.8552 1304.5755 282.3517
v -1364.6999 1309.4682 281.8920
v -1364.6988 1309.4670 276.3552
f 1162 1163 1164
v -1366.3198 1304.7397 282.5536
v -1366.6125 1304.8411 267.5860
v -1366.6155 1304.8446 282.6825
f 1165 1166 1167
v -1357.0153 1306.9461 279.3012
v -1357.0130 1306.9433 267.5876
v -1357.6128 1307.5457 279.8450
f 1168 1169 1170
v -1347.2244 1303.6809 275.2661
v -1357.0297 1303.7850 278.9139
v -1357.0274 1303.7824 267.5883
f 1171 1172 1173
v -1347.2839 1305.5182 267.5900
v -1347.2244 1303.6809 275.2661
v -1347.2229 1303.6791 267.5904
f 1174 1175 1176

g building_ID_1996FE7F-E338-4111-8B89-B7D3E5987378
v -1571.7696 1297.3680 277.4091
v -1576.8841 1301.3719 278.5999
v -1577.4791 1298.6412 277.4444
f 1177 1178 1179
v -1576.8841 1301.3719 278.5999
v -1571.7696 1297.3680 277.4091
v -1570.9794 1300.1481 278.6016
f 1180 1181 1182
v -1571.7696 1297.3680 277.4091
v -1571.8253 1297.1151 277.3021
v -1571.6574 1297.0797 277.3022
f 1183 1184 1185
v -1571.6574 1297.0797 277.3022
v -1570.9794 1300.1481 278.6016
v -1571.7696 1297.3680 277.4091
f 1186 1187 1188
v -1570.9794 1300.1481 278.6016
v -1570.3172 1303.1430 277.4493
v -1572.4219 1303.5977 277.4417
f 1189 1190 1191
v -1570.9794 1300.1481 278.6016
v -1572.4219 1303.5977 277.4417
v -1576.8841 1301.3719 278.5999
f 1192 1193 1194
v -1576.2196 1304.4188 277.4286
v -1576.8841 1301.3719 278.5999
v -1572.4219 1303.5977 277.4417
f 1195 1196 1197
v -1572.0278 1295.4076 277.0174
v -1571.6574 1297.0797 277.3022
v -1571.8253 1297.1151 277.3021
f 1198 1199 1200
v -1572.1947 1295.4440 277.0174
v -1572.0278 1295.4076 277.0174
v -1571.8253 1297.1151 277.3021
f 1201 1202 1203
v -1571.7682 1297.3666 271.4493
v -1571.7691 1297.3675 275.1612
v -1577.4791 1298.6412 277.4444
f 1204 1205 1206
v -1571.7682 1297.3666 271.4493
v -1577.4791 1298.6412 277.4444
v -1577.4777 1298.6399 271.4476
f 1207 1208 1209
v -1572.4219 1303.5977 277.4417
v -1573.6947 1303.8717 271.4475
v -1576.2196 1304.4188 277.4286
f 1210 1211 1212
v -1576.2182 1304.4175 271.4468
v -1576.2196 1304.4188 277.4286
v -1573.6947 1303.8717 271.4475
f 1213 1214 1215
v -1573.6947 1303.8717 271.4475
v -1572.4219 1303.5977 277.4417
v -1570.3157 1303.1416 271.4485
f 1216 1217 1218
v -1572.1947 1295.4440 277.0174
v -1572.0265 1295.4064 271.4496
v -1572.0278 1295.4076 277.0174
f 1219 1220 1221
v -1576.8824 1301.3703 271.4472
v -1576.2182 1304.4175 271.4468
v -1573.6947 1303.8717 271.4475
f 1222 1223 1224
v -1576.8824 1301.3703 271.4472
v -1570.3157 1303.1416 271.4485
v -1577.4777 1298.6399 271.4476
f 1225 1226 1227
v -1570.3157 1303.1416 271.4485
v -1576.8824 1301.3703 271.4472
v -1573.6947 1303.8717 271.4475
f 1228 1229 1230
v -1571.7682 1297.3666 271.4493
v -1577.4777 1298.6399 271.4476
v -1570.3157 1303.1416 271.4485
f 1231 1232 1233
v -1572.0265 1295.4064 271.4496
v -1572.1934 1295.4428 271.4496
v -1571.7682 1297.3666 271.4493
f 1234 1235 1236
v -1571.7682 1297.3666 271.4493
v -1571.6560 1297.0783 271.4494
v -1572.0265 1295.4064 271.4496
f 1237 1238 1239
v -1570.3157 1303.1416 271.4485
v -1571.6560 1297.0783 271.4494
v -1571.7682 1297.3666 271.4493
f 1240 1241 1242
v -1572.1947 1295.4440 277.0174
v -1571.7691 1297.3675 275.1612
v -1572.1934 1295.4428 271.4496
f 1243 1244 1245
v -1572.1934 1295.4428 271.4496
v -1571.7691 1297.3675 275.1612
v -1571.7682 1297.3666 271.4493
f 1246 1247 1248
v -1571.7691 1297.3675 275.1612
v -1571.8253 1297.1151 277.3021
v -1571.7696 1297.3680 277.4091
f 1249 1250 1251
v -1572.1947 1295.4440 277.0174
v -1571.8253 1297.1151 277.3021
v -1571.7691 1297.3675 275.1612
f 1252 1253 1254
v -1576.2196 1304.4188 277.4286
v -1577.4777 1298.6399 271.4476
v -1577.4791 1298.6412 277.4444
f 1255 1256 1257
v -1576.2182 1304.4175 271.4468
v -1576.8824 1301.3703 271.4472
v -1576.2196 1304.4188 277.4286
f 1258 1259 1260
v -1576.2196 1304.4188 277.4286
v -1576.8824 1301.3703 271.4472
v -1577.4777 1298.6399 271.4476
f 1261 1262 1263
v -1576.2196 1304.4188 277.4286
v -1577.4791 1298.6412 277.4444
v -1576.8841 1301.3719 278.5999
f 1264 1265 1266
v -1570.3157 1303.1416 271.4485
v -1570.3172 1303.1430 277.4493
v -1570.9794 1300.1481 278.6016
f 1267 1268 1269
v -1570.3157 1303.1416 271.4485
v -1570.9794 1300.1481 278.6016
v -1571.6574 1297.0797 277.3022
f 1270 1271 1272
v -1571.6574 1297.0797 277.3022
v -1572.0278 1295.4076 277.0174
v -1571.6560 1297.0783 271.4494
f 1273 1274 1275
v -1571.6560 1297.0783 271.4494
v -1572.0278 1295.4076 277.0174
v -1572.0265 1295.4064 271.4496
f 1276 1277 1278
v -1570.3157 1303.1416 271.4485
v -1571.6574 1297.0797 277.3022
v -1571.6560 1297.0783 271.4494
f 1279 1280 1281
v -1571.7691 1297.3675 275.1612
v -1571.7696 1297.3680 277.4091
v -1577.4791 1298.6412 277.4444
f 1282 1283 1284
v -1572.4219 1303.5977 277.4417
v -1570.3172 1303.1430 277.4493
v -1570.3157 1303.1416 271.4485
f 1285 1286 1287
v -1572.0265 1295.4064 271.4496
v -1572.1947 1295.4440 277.0174
v -1572.1934 1295.4428 271.4496
f 1288 1289 1290

g building_ID_13019970-3FDD-4BC5-8FCA-4BB40CD47731
v -1547.2610 1294.4614 286.9043
v -1548.4821 1301.0203 285.6187
v -1550.4296 1295.5986 285.6264
f 1291 1292 1293
v -1548.4821 1301.0203 285.6187
v -1547.9220 1307.3115 285.0036
v -1550.7846 1301.8463 284.6900
f 1294 1295 1296
v -1548.4821 1301.0203 285.6187
v -1547.2610 1294.4614 286.9043
v -1543.1456 1305.8022 286.9030
f 1297 1298 1299
v -1547.9220 1307.3115 285.0036
v -1548.4821 1301.0203 285.6187
v -1547.8545 1307.5004 285.0026
f 1300 1301 1302
v -1547.8545 1307.5004 285.0026
v -1548.4821 1301.0203 285.6187
v -1543.1456 1305.8022 286.9030
f 1303 1304 1305
v -1550.7846 1301.8463 284.6900
v -1547.9220 1307.3115 285.0036
v -1548.6992 1307.5915 284.6893
f 1306 1307 1308
v -1542.4252 1292.7260 284.8789
v -1538.3418 1304.0699 284.8896
v -1543.1456 1305.8022 286.9030
f 1309 1310 1311
v -1547.2610 1294.4614 286.9043
v -1542.4252 1292.7260 284.8789
v -1543.1456 1305.8022 286.9030
f 1312 1313 1314
v -1550.7846 1301.8463 284.6900
v -1550.7816 1301.8433 271.7325
v -1548.4821 1301.0203 285.6187
f 1315 1316 1317
v -1550.4264 1295.5955 271.7339
v -1548.4821 1301.0203 285.6187
v -1548.4789 1301.0172 271.7332
f 1318 1319 1320
v -1547.8515 1307.4974 271.7321
v -1547.9220 1307.3115 285.0036
v -1547.8545 1307.5004 285.0026
f 1321 1322 1323
v -1547.8515 1307.4974 271.7321
v -1547.9190 1307.3085 271.7321
v -1547.9220 1307.3115 285.0036
f 1324 1325 1326
v -1547.9190 1307.3085 271.7321
v -1548.6992 1307.5915 284.6893
v -1547.9220 1307.3115 285.0036
f 1327 1328 1329
v -1547.9190 1307.3085 271.7321
v -1548.6962 1307.5887 271.7318
v -1548.6992 1307.5915 284.6893
f 1330 1331 1332
v -1550.7816 1301.8433 271.7325
v -1550.7846 1301.8463 284.6900
v -1548.6992 1307.5915 284.6893
f 1333 1334 1335
v -1538.3388 1304.0669 271.7351
v -1538.3418 1304.0699 284.8896
v -1542.4252 1292.7260 284.8789
f 1336 1337 1338
v -1538.3388 1304.0669 271.7351
v -1542.4229 1292.7237 275.0133
v -1542.4222 1292.7230 271.7364
f 1339 1340 1341
v -1542.4252 1292.7260 284.8789
v -1542.4229 1292.7237 275.0133
v -1538.3388 1304.0669 271.7351
f 1342 1343 1344
v -1548.4789 1301.0172 271.7332
v -1543.1421 1305.7988 271.7335
v -1538.3388 1304.0669 271.7351
f 1345 1346 1347
v -1550.7816 1301.8433 271.7325
v -1548.6962 1307.5887 271.7318
v -1547.9190 1307.3085 271.7321
f 1348 1349 1350
v -1543.1421 1305.7988 271.7335
v -1547.9190 1307.3085 271.7321
v -1547.8515 1307.4974 271.7321
f 1351 1352 1353
v -1547.9190 1307.3085 271.7321
v -1543.1421 1305.7988 271.7335
v -1548.4789 1301.0172 271.7332
f 1354 1355 1356
v -1548.4789 1301.0172 271.7332
v -1550.7816 1301.8433 271.7325
v -1547.9190 1307.3085 271.7321
f 1357 1358 1359
v -1548.4789 1301.0172 271.7332
v -1538.3388 1304.0669 271.7351
v -1542.4222 1292.7230 271.7364
f 1360 1361 1362
v -1547.2575 1294.4580 271.7349
v -1548.4789 1301.0172 271.7332
v -1542.4222 1292.7230 271.7364
f 1363 1364 1365
v -1547.2575 1294.4580 271.7349
v -1550.4264 1295.5955 271.7339
v -1548.4789 1301.0172 271.7332
f 1366 1367 1368
v -1547.2610 1294.4614 286.9043
v -1542.4229 1292.7237 275.0133
v -1542.4252 1292.7260 284.8789
f 1369 1370 1371
v -1542.4229 1292.7237 275.0133
v -1550.4287 1295.5978 282.1535
v -1542.4222 1292.7230 271.7364
f 1372 1373 1374
v -1550.4296 1295.5986 285.6264
v -1542.4229 1292.7237 275.0133
v -1547.2610 1294.4614 286.9043
f 1375 1376 1377
v -1547.2575 1294.4580 271.7349
v -1542.4222 1292.7230 271.7364
v -1550.4287 1295.5978 282.1535
f 1378 1379 1380
v -1550.4264 1295.5955 271.7339
v -1547.2575 1294.4580 271.7349
v -1550.4287 1295.5978 282.1535
f 1381 1382 1383
v -1550.4296 1295.5986 285.6264
v -1550.4287 1295.5978 282.1535
v -1542.4229 1292.7237 275.0133
f 1384 1385 1386
v -1543.1421 1305.7988 271.7335
v -1547.8515 1307.4974 271.7321
v -1547.8545 1307.5004 285.0026
f 1387 1388 1389
v -1543.1421 1305.7988 271.7335
v -1547.8545 1307.5004 285.0026
v -1543.1456 1305.8022 286.9030
f 1390 1391 1392
v -1538.3388 1304.0669 271.7351
v -1543.1456 1305.8022 286.9030
v -1538.3418 1304.0699 284.8896
f 1393 1394 1395
v -1543.1456 1305.8022 286.9030
v -1538.3388 1304.0669 271.7351
v -1543.1421 1305.7988 271.7335
f 1396 1397 1398
v -1550.7816 1301.8433 271.7325
v -1548.4789 1301.0172 271.7332
v -1548.4821 1301.0203 285.6187
f 1399 1400 1401
v -1550.4287 1295.5978 282.1535
v -1550.4296 1295.5986 285.6264
v -1548.4821 1301.0203 285.6187
f 1402 1403 1404
v -1548.4821 1301.0203 285.6187
v -1550.4264 1295.5955 271.7339
v -1550.4287 1295.5978 282.1535
f 1405 1406 1407
v -1550.7816 1301.8433 271.7325
v -1548.6992 1307.5915 284.6893
v -1548.6962 1307.5887 271.7318
f 1408 1409 1410

g building_ID_4496FE72-61DF-447F-BFC9-F4B1A9122188
v -1520.0608 1301.7564 283.0185
v -1520.5726 1300.3228 283.0157
v -1516.1080 1296.4518 286.7904
f 1411 1412 1413
v -1521.3042 1298.2748 283.0119
v -1516.1080 1296.4518 286.7904
v -1520.5726 1300.3228 283.0157
f 1414 1415 1416
v -1516.1080 1296.4518 286.7904
v -1514.0121 1302.3750 286.7897
v -1520.0608 1301.7564 283.0185
f 1417 1418 1419
v -1520.0608 1301.7564 283.0185
v -1514.0121 1302.3750 286.7897
v -1519.1812 1304.2211 283.0242
f 1420 1421 1422
v -1510.6848 1298.1334 283.6155
v -1514.0121 1302.3750 286.7897
v -1516.1080 1296.4518 286.7904
f 1423 1424 1425
v -1510.4984 1294.4818 282.6443
v -1510.6848 1298.1334 283.6155
v -1516.1080 1296.4518 286.7904
f 1426 1427 1428
v -1509.7195 1300.8408 283.6101
v -1514.0121 1302.3750 286.7897
v -1510.0491 1299.9167 283.6123
f 1429 1430 1431
v -1510.6848 1298.1334 283.6155
v -1510.0491 1299.9167 283.6123
v -1514.0121 1302.3750 286.7897
f 1432 1433 1434
v -1510.6848 1298.1334 283.6155
v -1510.4984 1294.4818 282.6443
v -1509.3659 1297.6577 282.6379
f 1435 1436 1437
v -1521.3035 1298.2741 280.2080
v -1521.3042 1298.2748 283.0119
v -1520.5726 1300.3228 283.0157
f 1438 1439 1440
v -1520.5726 1300.3228 283.0157
v -1520.5056 1300.5021 271.8111
v -1521.3017 1298.2723 271.8113
f 1441 1442 1443
v -1519.6220 1302.9767 271.8108
v -1520.0608 1301.7564 283.0185
v -1519.1812 1304.2211 283.0242
f 1444 1445 1446
v -1520.5726 1300.3228 283.0157
v -1519.6220 1302.9767 271.8108
v -1520.5056 1300.5021 271.8111
f 1447 1448 1449
v -1519.6220 1302.9767 271.8108
v -1519.1796 1304.2194 276.0154
v -1519.1787 1304.2184 271.8106
f 1450 1451 1452
v -1509.7189 1300.8402 280.6592
v -1509.7195 1300.8408 283.6101
v -1510.0491 1299.9167 283.6123
f 1453 1454 1455
v -1509.7169 1300.8382 271.8135
v -1509.7182 1300.8395 277.7093
v -1510.0491 1299.9167 283.6123
f 1456 1457 1458
v -1510.2318 1299.3945 271.8137
v -1509.7169 1300.8382 271.8135
v -1510.0491 1299.9167 283.6123
f 1459 1460 1461
v -1510.2318 1299.3945 271.8137
v -1510.6848 1298.1334 283.6155
v -1510.6822 1298.1308 271.8139
f 1462 1463 1464
v -1510.4960 1294.4793 271.8147
v -1509.3634 1297.6552 271.8143
v -1509.3659 1297.6577 282.6379
f 1465 1466 1467
v -1510.4978 1294.4812 279.9374
v -1510.4960 1294.4793 271.8147
v -1509.3659 1297.6577 282.6379
f 1468 1469 1470
v -1509.3634 1297.6552 271.8143
v -1510.6848 1298.1334 283.6155
v -1509.3659 1297.6577 282.6379
f 1471 1472 1473
v -1509.3634 1297.6552 271.8143
v -1510.6822 1298.1308 271.8139
v -1510.6848 1298.1334 283.6155
f 1474 1475 1476
v -1516.1046 1296.4484 271.8129
v -1521.3017 1298.2723 271.8113
v -1520.5056 1300.5021 271.8111
f 1477 1478 1479
v -1516.1046 1296.4484 271.8129
v -1510.6822 1298.1308 271.8139
v -1510.4960 1294.4793 271.8147
f 1480 1481 1482
v -1510.6822 1298.1308 271.8139
v -1516.1046 1296.4484 271.8129
v -1520.5056 1300.5021 271.8111
f 1483 1484 1485
v -1514.0088 1302.3716 271.8122
v -1519.6220 1302.9767 271.8108
v -1519.1787 1304.2184 271.8106
f 1486 1487 1488
v -1520.5056 1300.5021 271.8111
v -1514.0088 1302.3716 271.8122
v -1510.6822 1298.1308 271.8139
f 1489 1490 1491
v -1510.4960 1294.4793 271.8147
v -1510.6822 1298.1308 271.8139
v -1509.3634 1297.6552 271.8143
f 1492 1493 1494
v -1514.0088 1302.3716 271.8122
v -1510.2318 1299.3945 271.8137
v -1510.6822 1298.1308 271.8139
f 1495 1496 1497
v -1510.2318 1299.3945 271.8137
v -1514.0088 1302.3716 271.8122
v -1509.7169 1300.8382 271.8135
f 1498 1499 1500
v -1519.6220 1302.9767 271.8108
v -1514.0088 1302.3716 271.8122
v -1520.5056 1300.5021 271.8111
f 1501 1502 1503
v -1521.3017 1298.2723 271.8113
v -1510.4978 1294.4812 279.9374
v -1510.4984 1294.4818 282.6443
f 1504 1505 1506
v -1510.4960 1294.4793 271.8147
v -1510.4978 1294.4812 279.9374
v -1516.1046 1296.4484 271.8129
f 1507 1508 1509
v -1510.4984 1294.4818 282.6443
v -1516.1080 1296.4518 286.7904
v -1521.3035 1298.2741 280.2080
f 1510 1511 1512
v -1510.4984 1294.4818 282.6443
v -1521.3035 1298.2741 280.2080
v -1521.3017 1298.2723 271.8113
f 1513 1514 1515
v -1521.3017 1298.2723 271.8113
v -1516.1046 1296.4484 271.8129
v -1510.4978 1294.4812 279.9374
f 1516 1517 1518
v -1521.3042 1298.2748 283.0119
v -1521.3035 1298.2741 280.2080
v -1516.1080 1296.4518 286.7904
f 1519 1520 1521
v -1509.7182 1300.8395 277.7093
v -1514.0088 1302.3716 271.8122
v -1519.1796 1304.2194 276.0154
f 1522 1523 1524
v -1514.0088 1302.3716 271.8122
v -1519.1787 1304.2184 271.8106
v -1519.1796 1304.2194 276.0154
f 1525 1526 1527
v -1509.7182 1300.8395 277.7093
v -1519.1796 1304.2194 276.0154
v -1519.1812 1304.2211 283.0242
f 1528 1529 1530
v -1514.0121 1302.3750 286.7897
v -1509.7189 1300.8402 280.6592
v -1519.1812 1304.2211 283.0242
f 1531 1532 1533
v -1509.7195 1300.8408 283.6101
v -1509.7189 1300.8402 280.6592
v -1514.0121 1302.3750 286.7897
f 1534 1535 1536
v -1514.0088 1302.3716 271.8122
v -1509.7182 1300.8395 277.7093
v -1509.7169 1300.8382 271.8135
f 1537 1538 1539
v -1509.7182 1300.8395 277.7093
v -1519.1812 1304.2211 283.0242
v -1509.7189 1300.8402 280.6592
f 1540 1541 1542
v -1520.5726 1300.3228 283.0157
v -1521.3017 1298.2723 271.8113
v -1521.3035 1298.2741 280.2080
f 1543 1544 1545
v -1519.6220 1302.9767 271.8108
v -1520.5726 1300.3228 283.0157
v -1520.0608 1301.7564 283.0185
f 1546 1547 1548
v -1519.6220 1302.9767 271.8108
v -1519.1812 1304.2211 283.0242
v -1519.1796 1304.2194 276.0154
f 1549 1550 1551
v -1510.2318 1299.3945 271.8137
v -1510.0491 1299.9167 283.6123
v -1510.6848 1298.1334 283.6155
f 1552 1553 1554
v -1510.0491 1299.9167 283.6123
v -1509.7182 1300.8395 277.7093
v -1509.7189 1300.8402 280.6592
f 1555 1556 1557
v -1510.4978 1294.4812 279.9374
v -1509.3659 1297.6577 282.6379
v -1510.4984 1294.4818 282.6443
f 1558 1559 1560
