# Grid Center: 2614000, 1264200
# Global Anchor: 7.64977475454284, 47.53283995868075, 0.0

g building_ID_638ACF71-C430-4223-8045-D9BFEA5CCAD8
v -2129.0259 -508.2447 271.6868
v -2129.1706 -508.1243 271.5757
v -2129.1563 -508.3804 271.5757
f 1 2 3
v -2095.8963 -506.3757 271.6979
v -2129.0259 -508.2447 271.6868
v -2129.1563 -508.3804 271.5757
f 4 5 6
v -2129.1025 -509.3115 270.7636
v -2095.7526 -506.4960 271.5869
v -2129.1563 -508.3804 271.5757
f 7 8 9
v -2095.8963 -506.3757 271.6979
v -2129.1563 -508.3804 271.5757
v -2095.7526 -506.4960 271.5869
f 10 11 12
v -2095.6999 -507.4262 270.7748
v -2095.7526 -506.4960 271.5869
v -2129.1025 -509.3115 270.7636
f 13 14 15
v -2095.8963 -506.3757 271.6979
v -2095.7526 -506.4960 271.5869
v -2095.7670 -506.2400 271.5869
f 16 17 18
v -2095.8191 -505.3098 270.7750
v -2129.2931 -505.9410 269.7218
v -2129.2228 -507.1951 270.7638
f 19 20 21
v -2129.2931 -505.9410 269.7218
v -2095.8191 -505.3098 270.7750
v -2095.8894 -504.0556 269.7331
f 22 23 24
v -2129.2931 -505.9410 269.7218
v -2095.9142 -503.6175 269.5022
v -2129.3179 -505.5009 269.4899
f 25 26 27
v -2095.8894 -504.0556 269.7331
v -2095.9142 -503.6175 269.5022
v -2129.2931 -505.9410 269.7218
f 28 29 30
v -2095.6265 -508.6800 265.1760
v -2095.6279 -508.6803 269.7329
v -2129.0315 -510.5635 269.7216
f 31 32 33
v -2095.9129 -503.6173 265.1763
v -2129.3179 -505.5009 269.4899
v -2095.9142 -503.6175 269.5022
f 34 35 36
v -2095.9129 -503.6173 265.1763
v -2129.3164 -505.5006 265.1651
v -2129.3175 -505.5008 268.3800
f 37 38 39
v -2129.3175 -505.5008 268.3800
v -2129.3179 -505.5009 269.4899
v -2095.9129 -503.6173 265.1763
f 40 41 42
v -2095.9129 -503.6173 265.1763
v -2129.1514 -508.4370 265.1649
v -2129.3164 -505.5006 265.1651
f 43 44 45
v -2129.1007 -509.3112 265.1648
v -2095.6265 -508.6800 265.1760
v -2129.0301 -510.5633 265.1648
f 46 47 48
v -2129.1514 -508.4370 265.1649
v -2095.7028 -507.3378 265.1760
v -2129.1007 -509.3112 265.1648
f 49 50 51
v -2095.7028 -507.3378 265.1760
v -2129.1514 -508.4370 265.1649
v -2095.9129 -503.6173 265.1763
f 52 53 54
v -2095.7028 -507.3378 265.1760
v -2095.6265 -508.6800 265.1760
v -2129.1007 -509.3112 265.1648
f 55 56 57
v -2095.6999 -507.4262 270.7748
v -2129.1025 -509.3115 270.7636
v -2129.0315 -510.5635 269.7216
f 58 59 60
v -2129.0315 -510.5635 269.7216
v -2095.6279 -508.6803 269.7329
v -2095.6999 -507.4262 270.7748
f 61 62 63
v -2095.7670 -506.2400 271.5869
v -2129.0259 -508.2447 271.6868
v -2095.8963 -506.3757 271.6979
f 64 65 66
v -2095.8191 -505.3098 270.7750
v -2129.0259 -508.2447 271.6868
v -2095.7670 -506.2400 271.5869
f 67 68 69
v -2129.0259 -508.2447 271.6868
v -2095.8191 -505.3098 270.7750
v -2129.1706 -508.1243 271.5757
f 70 71 72
v -2129.2228 -507.1951 270.7638
v -2129.1706 -508.1243 271.5757
v -2095.8191 -505.3098 270.7750
f 73 74 75
v -2129.0315 -510.5635 269.7216
v -2129.1007 -509.3112 265.1648
v -2129.0301 -510.5633 265.1648
f 76 77 78
v -2129.1007 -509.3112 265.1648
v -2129.0315 -510.5635 269.7216
v -2129.1514 -508.4370 265.1649
f 79 80 81
v -2129.1514 -508.4370 265.1649
v -2129.3175 -505.5008 268.3800
v -2129.3164 -505.5006 265.1651
f 82 83 84
v -2129.1514 -508.4370 265.1649
v -2129.0315 -510.5635 269.7216
v -2129.3175 -505.5008 268.3800
f 85 86 87
v -2129.2228 -507.1951 270.7638
v -2129.1025 -509.3115 270.7636
v -2129.1563 -508.3804 271.5757
f 88 89 90
v -2129.1563 -508.3804 271.5757
v -2129.1706 -508.1243 271.5757
v -2129.2228 -507.1951 270.7638
f 91 92 93
v -2129.3175 -505.5008 268.3800
v -2129.1025 -509.3115 270.7636
v -2129.2228 -507.1951 270.7638
f 94 95 96
v -2129.3175 -505.5008 268.3800
v -2129.2931 -505.9410 269.7218
v -2129.3179 -505.5009 269.4899
f 97 98 99
v -2129.3175 -505.5008 268.3800
v -2129.2228 -507.1951 270.7638
v -2129.2931 -505.9410 269.7218
f 100 101 102
v -2129.1025 -509.3115 270.7636
v -2129.3175 -505.5008 268.3800
v -2129.0315 -510.5635 269.7216
f 103 104 105
v -2095.8894 -504.0556 269.7331
v -2095.7028 -507.3378 265.1760
v -2095.9142 -503.6175 269.5022
f 106 107 108
v -2095.6999 -507.4262 270.7748
v -2095.8191 -505.3098 270.7750
v -2095.7670 -506.2400 271.5869
f 109 110 111
v -2095.8191 -505.3098 270.7750
v -2095.6265 -508.6800 265.1760
v -2095.8894 -504.0556 269.7331
f 112 113 114
v -2095.7526 -506.4960 271.5869
v -2095.6999 -507.4262 270.7748
v -2095.7670 -506.2400 271.5869
f 115 116 117
v -2095.8191 -505.3098 270.7750
v -2095.6279 -508.6803 269.7329
v -2095.6265 -508.6800 265.1760
f 118 119 120
v -2095.6265 -508.6800 265.1760
v -2095.7028 -507.3378 265.1760
v -2095.8894 -504.0556 269.7331
f 121 122 123
v -2095.7028 -507.3378 265.1760
v -2095.9129 -503.6173 265.1763
v -2095.9142 -503.6175 269.5022
f 124 125 126
v -2095.6999 -507.4262 270.7748
v -2095.6279 -508.6803 269.7329
v -2095.8191 -505.3098 270.7750
f 127 128 129
v -2095.6265 -508.6800 265.1760
v -2129.0315 -510.5635 269.7216
v -2129.0301 -510.5633 265.1648
f 130 131 132

g building_ID_78D42012-F14B-44AB-804E-EAA47B88CD98
v -1859.1643 -401.9498 283.8934
v -1865.2449 -402.5715 283.8915
v -1864.9523 -405.3532 283.8915
f 133 134 135
v -1859.1043 -401.9440 283.8934
v -1859.1643 -401.9498 283.8934
v -1858.8030 -404.8187 283.8933
f 136 137 138
v -1864.9523 -405.3532 283.8915
v -1858.8030 -404.8187 283.8933
v -1859.1643 -401.9498 283.8934
f 139 140 141
v -1858.8016 -404.8186 278.7415
v -1858.8030 -404.8187 283.8933
v -1864.9523 -405.3532 283.8915
f 142 143 144
v -1865.2450 -402.5705 284.2066
v -1863.3425 -393.5997 286.1796
v -1866.1557 -393.8931 284.1908
f 145 146 147
v -1863.3425 -393.5997 286.1796
v -1865.2450 -402.5705 284.2066
v -1862.4538 -402.2851 286.1793
f 148 149 150
v -1859.1042 -401.9440 283.8514
v -1859.1643 -401.9498 283.8934
v -1859.1043 -401.9440 283.8934
f 151 152 153
v -1860.0145 -393.2524 278.7419
v -1860.0159 -393.2526 283.8667
v -1859.1042 -401.9440 283.8514
f 154 155 156
v -1858.8030 -404.8187 283.8933
v -1858.8016 -404.8186 278.7415
v -1859.1042 -401.9440 283.8514
f 157 158 159
v -1859.1043 -401.9440 283.8934
v -1858.8030 -404.8187 283.8933
v -1859.1042 -401.9440 283.8514
f 160 161 162
v -1865.2434 -402.5712 278.7398
v -1864.9509 -405.3530 278.7397
v -1865.2449 -402.5715 283.8915
f 163 164 165
v -1864.9523 -405.3532 283.8915
v -1865.2449 -402.5715 283.8915
v -1864.9509 -405.3530 278.7397
f 166 167 168
v -1865.2449 -402.5715 283.8915
v -1865.2450 -402.5705 284.2066
v -1866.1557 -393.8931 284.1908
f 169 170 171
v -1865.2434 -402.5712 278.7398
v -1865.2449 -402.5715 283.8915
v -1866.1542 -393.8929 278.7400
f 172 173 174
v -1866.1557 -393.8931 284.1908
v -1866.1542 -393.8929 278.7400
v -1865.2449 -402.5715 283.8915
f 175 176 177
v -1864.9509 -405.3530 278.7397
v -1865.2434 -402.5712 278.7398
v -1859.1028 -401.9438 278.7416
f 178 179 180
v -1866.1542 -393.8929 278.7400
v -1863.3404 -393.5995 278.7409
v -1865.2434 -402.5712 278.7398
f 181 182 183
v -1859.1028 -401.9438 278.7416
v -1863.3404 -393.5995 278.7409
v -1860.0145 -393.2524 278.7419
f 184 185 186
v -1859.1028 -401.9438 278.7416
v -1858.8016 -404.8186 278.7415
v -1864.9509 -405.3530 278.7397
f 187 188 189
v -1863.3404 -393.5995 278.7409
v -1859.1028 -401.9438 278.7416
v -1865.2434 -402.5712 278.7398
f 190 191 192
v -1862.4538 -402.2851 286.1793
v -1860.0159 -393.2526 283.8667
v -1863.3425 -393.5997 286.1796
f 193 194 195
v -1860.0159 -393.2526 283.8667
v -1859.1643 -401.9498 283.8934
v -1859.1042 -401.9440 283.8514
f 196 197 198
v -1862.4538 -402.2851 286.1793
v -1859.1643 -401.9498 283.8934
v -1860.0159 -393.2526 283.8667
f 199 200 201
v -1866.1542 -393.8929 278.7400
v -1866.1557 -393.8931 284.1908
v -1863.3425 -393.5997 286.1796
f 202 203 204
v -1860.0159 -393.2526 283.8667
v -1866.1542 -393.8929 278.7400
v -1863.3425 -393.5997 286.1796
f 205 206 207
v -1863.3404 -393.5995 278.7409
v -1860.0159 -393.2526 283.8667
v -1860.0145 -393.2524 278.7419
f 208 209 210
v -1866.1542 -393.8929 278.7400
v -1860.0159 -393.2526 283.8667
v -1863.3404 -393.5995 278.7409
f 211 212 213
v -1865.2450 -402.5705 284.2066
v -1859.1643 -401.9498 283.8934
v -1862.4538 -402.2851 286.1793
f 214 215 216
v -1859.1643 -401.9498 283.8934
v -1865.2450 -402.5705 284.2066
v -1865.2449 -402.5715 283.8915
f 217 218 219
v -1858.8016 -404.8186 278.7415
v -1864.9523 -405.3532 283.8915
v -1864.9509 -405.3530 278.7397
f 220 221 222
v -1860.0145 -393.2524 278.7419
v -1859.1042 -401.9440 283.8514
v -1859.1028 -401.9438 278.7416
f 223 224 225
v -1858.8016 -404.8186 278.7415
v -1859.1028 -401.9438 278.7416
v -1859.1042 -401.9440 283.8514
f 226 227 228
