# Grid Center: 2614600, 1263400
# Global Anchor: 7.64977475454284, 47.53283995868075, 0.0

g building_ID_3F3C57AC-498E-403E-A018-DC1C172A6D6E
v -1331.7631 -1158.9290 341.6549
v -1329.1926 -1161.3779 341.6550
v -1329.1937 -1161.3789 347.2958
f 1 2 3
v -1326.3335 -1158.3695 341.6561
v -1326.3346 -1158.3705 347.3279
v -1327.0356 -1159.1076 347.3207
f 4 5 6
v -1326.3335 -1158.3695 341.6561
v -1327.0356 -1159.1076 347.3207
v -1329.1926 -1161.3779 341.6550
f 7 8 9
v -1329.1926 -1161.3779 341.6550
v -1327.0356 -1159.1076 347.3207
v -1329.1937 -1161.3789 347.2958
f 10 11 12
v -1329.1926 -1161.3779 341.6550
v -1331.7631 -1158.9290 341.6549
v -1328.8999 -1155.9247 341.6560
f 13 14 15
v -1326.3335 -1158.3695 341.6561
v -1329.1926 -1161.3779 341.6550
v -1328.8999 -1155.9247 341.6560
f 16 17 18
v -1326.5201 -1158.1939 347.2789
v -1327.0356 -1159.1076 347.3207
v -1326.3346 -1158.3705 347.3279
f 19 20 21
v -1328.9010 -1155.9255 346.6408
v -1327.0356 -1159.1076 347.3207
v -1326.5201 -1158.1939 347.2789
f 22 23 24
v -1329.1937 -1161.3789 347.2958
v -1327.0356 -1159.1076 347.3207
v -1328.9010 -1155.9255 346.6408
f 25 26 27
v -1328.9010 -1155.9255 346.6408
v -1331.7640 -1158.9298 346.6067
v -1329.1937 -1161.3789 347.2958
f 28 29 30
v -1328.9010 -1155.9255 346.6408
v -1326.3335 -1158.3695 341.6561
v -1328.8999 -1155.9247 341.6560
f 31 32 33
v -1326.3335 -1158.3695 341.6561
v -1326.5201 -1158.1939 347.2789
v -1326.3346 -1158.3705 347.3279
f 34 35 36
v -1326.5201 -1158.1939 347.2789
v -1326.3335 -1158.3695 341.6561
v -1328.9010 -1155.9255 346.6408
f 37 38 39
v -1328.8999 -1155.9247 341.6560
v -1331.7640 -1158.9298 346.6067
v -1328.9010 -1155.9255 346.6408
f 40 41 42
v -1328.8999 -1155.9247 341.6560
v -1331.7631 -1158.9290 341.6549
v -1331.7640 -1158.9298 346.6067
f 43 44 45
v -1329.1937 -1161.3789 347.2958
v -1331.7640 -1158.9298 346.6067
v -1331.7631 -1158.9290 341.6549
f 46 47 48
