# Grid Center: 2614000, 1263600
# Global Anchor: 7.64977475454284, 47.53283995868075, 0.0

g building_ID_76693E02-6278-4F0C-9029-35DBFB6980BE
v -1701.9110 -1236.4810 348.9200
v -1705.1735 -1238.8913 349.1466
v -1705.0300 -1239.0647 348.9676
f 1 2 3
v -1705.1735 -1238.8913 349.1466
v -1701.9110 -1236.4810 348.9200
v -1702.0945 -1236.2606 349.1480
f 4 5 6
v -1706.9845 -1236.7063 348.3036
v -1702.0945 -1236.2606 349.1480
v -1703.8645 -1234.1227 348.3229
f 7 8 9
v -1702.0945 -1236.2606 349.1480
v -1706.9845 -1236.7063 348.3036
v -1705.1735 -1238.8913 349.1466
f 10 11 12
v -1701.9106 -1236.4808 347.4251
v -1705.0300 -1239.0647 348.9676
v -1705.0291 -1239.0641 345.6047
f 13 14 15
v -1705.0285 -1239.0637 342.9898
v -1701.9095 -1236.4801 342.9912
v -1701.9106 -1236.4808 347.4251
f 16 17 18
v -1705.0291 -1239.0641 345.6047
v -1705.0285 -1239.0637 342.9898
v -1701.9106 -1236.4808 347.4251
f 19 20 21
v -1703.8639 -1234.1222 345.6570
v -1706.9831 -1236.7054 342.9898
v -1706.9845 -1236.7063 348.3036
f 22 23 24
v -1703.8639 -1234.1222 345.6570
v -1706.9845 -1236.7063 348.3036
v -1703.8645 -1234.1227 348.3229
f 25 26 27
v -1703.8632 -1234.1218 342.9911
v -1706.9831 -1236.7054 342.9898
v -1703.8639 -1234.1222 345.6570
f 28 29 30
v -1705.0285 -1239.0637 342.9898
v -1706.9831 -1236.7054 342.9898
v -1703.8632 -1234.1218 342.9911
f 31 32 33
v -1705.0285 -1239.0637 342.9898
v -1702.0929 -1236.2595 342.9912
v -1701.9095 -1236.4801 342.9912
f 34 35 36
v -1705.0285 -1239.0637 342.9898
v -1703.8632 -1234.1218 342.9911
v -1702.0929 -1236.2595 342.9912
f 37 38 39
v -1701.9106 -1236.4808 347.4251
v -1703.8645 -1234.1227 348.3229
v -1702.0945 -1236.2606 349.1480
f 40 41 42
v -1703.8645 -1234.1227 348.3229
v -1701.9095 -1236.4801 342.9912
v -1703.8639 -1234.1222 345.6570
f 43 44 45
v -1702.0945 -1236.2606 349.1480
v -1701.9110 -1236.4810 348.9200
v -1701.9106 -1236.4808 347.4251
f 46 47 48
v -1703.8639 -1234.1222 345.6570
v -1701.9095 -1236.4801 342.9912
v -1702.0929 -1236.2595 342.9912
f 49 50 51
v -1702.0929 -1236.2595 342.9912
v -1703.8632 -1234.1218 342.9911
v -1703.8639 -1234.1222 345.6570
f 52 53 54
v -1701.9106 -1236.4808 347.4251
v -1701.9095 -1236.4801 342.9912
v -1703.8645 -1234.1227 348.3229
f 55 56 57
v -1705.0291 -1239.0641 345.6047
v -1706.9831 -1236.7054 342.9898
v -1705.0285 -1239.0637 342.9898
f 58 59 60
v -1705.1735 -1238.8913 349.1466
v -1705.0291 -1239.0641 345.6047
v -1705.0300 -1239.0647 348.9676
f 61 62 63
v -1706.9845 -1236.7063 348.3036
v -1705.0291 -1239.0641 345.6047
v -1705.1735 -1238.8913 349.1466
f 64 65 66
v -1706.9845 -1236.7063 348.3036
v -1706.9831 -1236.7054 342.9898
v -1705.0291 -1239.0641 345.6047
f 67 68 69
v -1701.9110 -1236.4810 348.9200
v -1705.0300 -1239.0647 348.9676
v -1701.9106 -1236.4808 347.4251
f 70 71 72

g building_ID_2F548FA4-034D-43D3-9FB1-383830D1F33A
v -1809.0818 -926.3585 319.3539
v -1809.9998 -923.3430 319.4260
v -1810.4871 -926.7818 319.9274
f 73 74 75
v -1810.4871 -926.7818 319.9274
v -1809.9998 -923.3430 319.4260
v -1810.9855 -926.9024 320.1282
f 76 77 78
v -1810.9855 -926.9024 320.1282
v -1809.9998 -923.3430 319.4260
v -1812.4631 -920.8005 320.1287
f 79 80 81
v -1809.9998 -923.3430 319.4260
v -1810.9177 -920.3295 319.4972
v -1812.4631 -920.8005 320.1287
f 82 83 84
v -1815.9737 -921.8700 319.3826
v -1814.2414 -927.6916 319.4462
v -1810.9855 -926.9024 320.1282
f 85 86 87
v -1812.4631 -920.8005 320.1287
v -1815.9737 -921.8700 319.3826
v -1810.9855 -926.9024 320.1282
f 88 89 90
v -1810.9159 -920.3289 313.2094
v -1809.9998 -923.3430 319.4260
v -1809.0818 -926.3585 319.3539
f 91 92 93
v -1810.9159 -920.3289 313.2094
v -1809.0818 -926.3585 319.3539
v -1809.0801 -926.3577 313.2091
f 94 95 96
v -1809.0801 -926.3577 313.2091
v -1809.0818 -926.3585 319.3539
v -1810.4843 -926.7809 313.2086
f 97 98 99
v -1810.4871 -926.7818 319.9274
v -1810.4843 -926.7809 313.2086
v -1809.0818 -926.3585 319.3539
f 100 101 102
v -1815.9737 -921.8700 319.3826
v -1814.2397 -927.6908 313.2074
v -1814.2414 -927.6916 319.4462
f 103 104 105
v -1815.9721 -921.8692 313.2078
v -1814.2397 -927.6908 313.2074
v -1815.9737 -921.8700 319.3826
f 106 107 108
v -1814.2397 -927.6908 313.2074
v -1815.9721 -921.8692 313.2078
v -1810.9159 -920.3289 313.2094
f 109 110 111
v -1814.2397 -927.6908 313.2074
v -1810.9159 -920.3289 313.2094
v -1810.4843 -926.7809 313.2086
f 112 113 114
v -1810.4843 -926.7809 313.2086
v -1810.9159 -920.3289 313.2094
v -1809.0801 -926.3577 313.2091
f 115 116 117
v -1815.9721 -921.8692 313.2078
v -1815.9737 -921.8700 319.3826
v -1812.4631 -920.8005 320.1287
f 118 119 120
v -1815.9721 -921.8692 313.2078
v -1812.4631 -920.8005 320.1287
v -1810.9177 -920.3295 319.4972
f 121 122 123
v -1810.9177 -920.3295 319.4972
v -1810.9159 -920.3289 313.2094
v -1815.9721 -921.8692 313.2078
f 124 125 126
v -1810.4871 -926.7818 319.9274
v -1814.2414 -927.6916 319.4462
v -1810.4843 -926.7809 313.2086
f 127 128 129
v -1814.2414 -927.6916 319.4462
v -1814.2397 -927.6908 313.2074
v -1810.4843 -926.7809 313.2086
f 130 131 132
v -1810.4871 -926.7818 319.9274
v -1810.9855 -926.9024 320.1282
v -1814.2414 -927.6916 319.4462
f 133 134 135
v -1809.9998 -923.3430 319.4260
v -1810.9159 -920.3289 313.2094
v -1810.9177 -920.3295 319.4972
f 136 137 138

g building_ID_375AE183-3A43-4B37-9BB7-11C323328FC6
v -1977.0119 -945.1329 273.2940
v -1990.5608 -938.4456 273.2908
v -1988.7139 -934.7476 273.2920
f 139 140 141
v -1979.0870 -949.2873 273.2927
v -1992.6027 -942.5321 273.2895
v -1990.5608 -938.4456 273.2908
f 142 143 144
v -1988.7139 -934.7476 273.2920
v -1975.1972 -941.5019 273.2952
v -1977.0119 -945.1329 273.2940
f 145 146 147
v -1990.5608 -938.4456 273.2908
v -1977.0119 -945.1329 273.2940
v -1979.0870 -949.2873 273.2927
f 148 149 150
v -1988.0019 -944.8337 283.0403
v -1979.0899 -949.2886 283.0104
v -1977.0157 -945.1345 285.9936
f 151 152 153
v -1992.6057 -942.5333 283.0542
v -1988.0019 -944.8337 283.0403
v -1990.5646 -938.4473 285.9903
f 154 155 156
v -1977.0157 -945.1345 285.9936
v -1990.5646 -938.4473 285.9903
v -1988.0019 -944.8337 283.0403
f 157 158 159
v -1990.5646 -938.4473 285.9903
v -1977.0157 -945.1345 285.9936
v -1975.2001 -941.5031 283.2638
f 160 161 162
v -1975.2001 -941.5031 283.2638
v -1988.7168 -934.7489 283.2116
v -1990.5646 -938.4473 285.9903
f 163 164 165
v -1990.5608 -938.4456 273.2908
v -1992.6027 -942.5321 273.2895
v -1992.6057 -942.5333 283.0542
f 166 167 168
v -1988.7168 -934.7489 283.2116
v -1990.5608 -938.4456 273.2908
v -1992.6057 -942.5333 283.0542
f 169 170 171
v -1988.7139 -934.7476 273.2920
v -1990.5608 -938.4456 273.2908
v -1988.7168 -934.7489 283.2116
f 172 173 174
v -1990.5646 -938.4473 285.9903
v -1988.7168 -934.7489 283.2116
v -1992.6057 -942.5333 283.0542
f 175 176 177
v -1988.0019 -944.8337 283.0403
v -1979.0870 -949.2873 273.2927
v -1979.0899 -949.2886 283.0104
f 178 179 180
v -1992.6027 -942.5321 273.2895
v -1988.0019 -944.8337 283.0403
v -1992.6057 -942.5333 283.0542
f 181 182 183
v -1979.0870 -949.2873 273.2927
v -1988.0019 -944.8337 283.0403
v -1992.6027 -942.5321 273.2895
f 184 185 186
v -1977.0119 -945.1329 273.2940
v -1975.1972 -941.5019 273.2952
v -1975.2001 -941.5031 283.2638
f 187 188 189
v -1977.0157 -945.1345 285.9936
v -1979.0899 -949.2886 283.0104
v -1975.2001 -941.5031 283.2638
f 190 191 192
v -1977.0119 -945.1329 273.2940
v -1979.0899 -949.2886 283.0104
v -1979.0870 -949.2873 273.2927
f 193 194 195
v -1975.2001 -941.5031 283.2638
v -1979.0899 -949.2886 283.0104
v -1977.0119 -945.1329 273.2940
f 196 197 198
v -1975.2001 -941.5031 283.2638
v -1988.7139 -934.7476 273.2920
v -1988.7168 -934.7489 283.2116
f 199 200 201
v -1988.7139 -934.7476 273.2920
v -1975.2001 -941.5031 283.2638
v -1975.1972 -941.5019 273.2952
f 202 203 204

g building_ID_472DA0D0-AC9E-4E5A-B3F9-292AFF96B441
v -1971.5399 -930.6160 283.0205
v -1971.8006 -930.5383 282.9534
v -1973.2328 -932.2482 281.5708
f 205 206 207
v -1973.2328 -932.2482 281.5708
v -1971.0197 -934.0742 281.5842
v -1971.5399 -930.6160 283.0205
f 208 209 210
v -1965.2644 -922.7317 281.5757
v -1966.5730 -924.6833 283.0229
v -1963.0443 -924.5867 281.5741
f 211 212 213
v -1966.5730 -924.6833 283.0229
v -1965.2644 -922.7317 281.5757
v -1966.6953 -924.4410 282.9559
f 214 215 216
v -1967.7266 -925.6723 282.9554
v -1966.5730 -924.6833 283.0229
v -1966.6953 -924.4410 282.9559
f 217 218 219
v -1966.5730 -924.6833 283.0229
v -1967.7266 -925.6723 282.9554
v -1969.4582 -927.7406 282.9545
f 220 221 222
v -1969.4582 -927.7406 282.9545
v -1971.1595 -929.7720 282.9537
v -1971.5399 -930.6160 283.0205
f 223 224 225
v -1971.8006 -930.5383 282.9534
v -1971.5399 -930.6160 283.0205
v -1971.1595 -929.7720 282.9537
f 226 227 228
v -1966.5730 -924.6833 283.0229
v -1969.4582 -927.7406 282.9545
v -1971.5399 -930.6160 283.0205
f 229 230 231
v -1960.1784 -926.9793 273.4569
v -1960.1802 -926.9801 279.5196
v -1968.1215 -936.4647 279.5158
f 232 233 234
v -1971.0173 -934.0732 273.4525
v -1971.7286 -930.4543 273.4529
v -1971.1568 -929.7708 273.4531
f 235 236 237
v -1971.0173 -934.0732 273.4525
v -1973.2304 -932.2472 273.4521
v -1971.7286 -930.4543 273.4529
f 238 239 240
v -1971.0173 -934.0732 273.4525
v -1971.1568 -929.7708 273.4531
v -1970.2200 -934.7313 273.4527
f 241 242 243
v -1969.4553 -927.7395 273.4539
v -1968.1197 -936.4639 273.4531
v -1970.2200 -934.7313 273.4527
f 244 245 246
v -1969.4553 -927.7395 273.4539
v -1970.2200 -934.7313 273.4527
v -1971.1568 -929.7708 273.4531
f 247 248 249
v -1967.1670 -925.0046 273.4550
v -1962.6737 -924.8926 273.4564
v -1969.4553 -927.7395 273.4539
f 250 251 252
v -1962.6737 -924.8926 273.4564
v -1960.1784 -926.9793 273.4569
v -1969.4553 -927.7395 273.4539
f 253 254 255
v -1965.2619 -922.7307 273.4560
v -1962.6737 -924.8926 273.4564
v -1967.1670 -925.0046 273.4550
f 256 257 258
v -1968.1197 -936.4639 273.4531
v -1969.4553 -927.7395 273.4539
v -1960.1784 -926.9793 273.4569
f 259 260 261
v -1969.4597 -927.7412 288.2273
v -1997.4853 -900.7839 285.6186
v -1999.2116 -902.8326 288.2217
f 262 263 264
v -1997.4853 -900.7839 285.6186
v -1969.4597 -927.7412 288.2273
v -1967.7395 -925.6865 285.6243
f 265 266 267
v -1967.7395 -925.6865 285.6243
v -1966.7651 -924.5231 284.6818
v -1990.8692 -901.3314 283.2437
f 268 269 270
v -1965.2648 -922.7319 283.2316
v -1990.8692 -901.3314 283.2437
v -1966.7651 -924.5231 284.6818
f 271 272 273
v -1997.4853 -900.7839 285.6186
v -1967.7395 -925.6865 285.6243
v -1990.8692 -901.3314 283.2437
f 274 275 276
v -1990.8692 -901.3314 283.2437
v -1988.6243 -898.6442 281.0699
v -1992.7690 -895.1811 281.0721
f 277 278 279
v -1992.7690 -895.1811 281.0721
v -1997.4853 -900.7839 285.6186
v -1990.8692 -901.3314 283.2437
f 280 281 282
v -1971.7318 -930.4557 284.4054
v -2001.0907 -904.7161 285.1170
v -2003.3401 -907.4048 282.2920
f 283 284 285
v -2001.0907 -904.7161 285.1170
v -1971.7318 -930.4557 284.4054
v -1971.1602 -929.7723 285.1226
f 286 287 288
v -1973.2331 -932.2483 282.5207
v -1971.7318 -930.4557 284.4054
v -2003.3401 -907.4048 282.2920
f 289 290 291
v -1988.6243 -898.6442 281.0699
v -1992.7664 -895.1801 272.4685
v -1992.7690 -895.1811 281.0721
f 292 293 294
v -1992.7664 -895.1801 272.4685
v -1988.6243 -898.6442 281.0699
v -1988.6217 -898.6432 272.4693
f 295 296 297
v -1990.8692 -901.3314 283.2437
v -1988.6217 -898.6432 272.4693
v -1988.6243 -898.6442 281.0699
f 298 299 300
v -1990.8692 -901.3314 283.2437
v -1990.8675 -901.3308 277.8559
v -1988.6217 -898.6432 272.4693
f 301 302 303
v -2000.6405 -904.1809 272.4646
v -2000.6445 -904.1825 285.9321
v -2000.4719 -904.3319 285.9272
f 304 305 306
v -1969.4550 -927.7393 272.4709
v -1990.8659 -901.3301 272.4682
v -1967.7356 -925.6850 272.4718
f 307 308 309
v -1969.4550 -927.7393 272.4709
v -1971.1565 -929.7707 272.4701
v -2000.4678 -904.3303 272.4647
f 310 311 312
v -1969.4550 -927.7393 272.4709
v -1999.2068 -902.8307 272.4653
v -1990.8659 -901.3301 272.4682
f 313 314 315
v -2000.4678 -904.3303 272.4647
v -1971.1565 -929.7707 272.4701
v -1971.7283 -930.4542 272.4699
f 316 317 318
v -1990.8659 -901.3301 272.4682
v -1965.2616 -922.7306 272.4730
v -1967.7356 -925.6850 272.4718
f 319 320 321
v -2003.3370 -907.4036 272.4633
v -1971.7283 -930.4542 272.4699
v -1973.2301 -932.2471 272.4691
f 322 323 324
v -1999.2068 -902.8307 272.4653
v -1997.4814 -900.7824 272.4661
v -1990.8659 -901.3301 272.4682
f 325 326 327
v -2000.4678 -904.3303 272.4647
v -2001.0869 -904.7147 272.4644
v -2000.6405 -904.1809 272.4646
f 328 329 330
v -1971.7283 -930.4542 272.4699
v -2001.0869 -904.7147 272.4644
v -2000.4678 -904.3303 272.4647
f 331 332 333
v -1999.2068 -902.8307 272.4653
v -1969.4550 -927.7393 272.4709
v -2000.4678 -904.3303 272.4647
f 334 335 336
v -1990.8659 -901.3301 272.4682
v -1992.7664 -895.1801 272.4685
v -1988.6217 -898.6432 272.4693
f 337 338 339
v -1992.7664 -895.1801 272.4685
v -1990.8659 -901.3301 272.4682
v -1997.4814 -900.7824 272.4661
f 340 341 342
v -2001.0869 -904.7147 272.4644
v -1971.7283 -930.4542 272.4699
v -2003.3370 -907.4036 272.4633
f 343 344 345
v -1970.2223 -934.7322 281.0174
v -1963.0443 -924.5867 281.5741
v -1971.0197 -934.0742 281.5842
f 346 347 348
v -1971.0197 -934.0742 281.5842
v -1966.5730 -924.6833 283.0229
v -1971.5399 -930.6160 283.0205
f 349 350 351
v -1962.2699 -925.2336 281.0212
v -1970.2223 -934.7322 281.0174
v -1968.1215 -936.4647 279.5158
f 352 353 354
v -1962.2699 -925.2336 281.0212
v -1963.0443 -924.5867 281.5741
v -1970.2223 -934.7322 281.0174
f 355 356 357
v -1963.0443 -924.5867 281.5741
v -1966.5730 -924.6833 283.0229
v -1971.0197 -934.0742 281.5842
f 358 359 360
v -1960.1802 -926.9801 279.5196
v -1962.2699 -925.2336 281.0212
v -1968.1215 -936.4647 279.5158
f 361 362 363
v -2001.0907 -904.7161 285.1170
v -2000.4719 -904.3319 285.9272
v -2000.6445 -904.1825 285.9321
f 364 365 366
v -1999.2116 -902.8326 288.2217
v -1971.1602 -929.7723 285.1226
v -1969.4597 -927.7412 288.2273
f 367 368 369
v -2001.0907 -904.7161 285.1170
v -1971.1602 -929.7723 285.1226
v -2000.4719 -904.3319 285.9272
f 370 371 372
v -2000.4719 -904.3319 285.9272
v -1971.1602 -929.7723 285.1226
v -1999.2116 -902.8326 288.2217
f 373 374 375
v -2000.4719 -904.3319 285.9272
v -1999.2116 -902.8326 288.2217
v -1997.4853 -900.7839 285.6186
f 376 377 378
v -2000.4678 -904.3303 272.4647
v -2000.4719 -904.3319 285.9272
v -1999.2068 -902.8307 272.4653
f 379 380 381
v -2000.4719 -904.3319 285.9272
v -1997.4814 -900.7824 272.4661
v -1999.2068 -902.8307 272.4653
f 382 383 384
v -1997.4814 -900.7824 272.4661
v -2000.4719 -904.3319 285.9272
v -1997.4853 -900.7839 285.6186
f 385 386 387
v -1997.4853 -900.7839 285.6186
v -1992.7690 -895.1811 281.0721
v -1997.4814 -900.7824 272.4661
f 388 389 390
v -1992.7664 -895.1801 272.4685
v -1997.4814 -900.7824 272.4661
v -1992.7690 -895.1811 281.0721
f 391 392 393
v -2000.6405 -904.1809 272.4646
v -2001.0869 -904.7147 272.4644
v -2003.3401 -907.4048 282.2920
f 394 395 396
v -2003.3370 -907.4036 272.4633
v -2003.3401 -907.4048 282.2920
v -2001.0869 -904.7147 272.4644
f 397 398 399
v -2000.6405 -904.1809 272.4646
v -2001.0907 -904.7161 285.1170
v -2000.6445 -904.1825 285.9321
f 400 401 402
v -2000.6405 -904.1809 272.4646
v -2003.3401 -907.4048 282.2920
v -2001.0907 -904.7161 285.1170
f 403 404 405
v -1965.2644 -922.7317 281.5757
v -1990.8692 -901.3314 283.2437
v -1965.2648 -922.7319 283.2316
f 406 407 408
v -1990.8675 -901.3308 277.8559
v -1990.8692 -901.3314 283.2437
v -1965.2644 -922.7317 281.5757
f 409 410 411
v -1990.8675 -901.3308 277.8559
v -1965.2619 -922.7307 273.4560
v -1990.8659 -901.3301 272.4682
f 412 413 414
v -1965.2644 -922.7317 281.5757
v -1965.2619 -922.7307 273.4560
v -1990.8675 -901.3308 277.8559
f 415 416 417
v -1965.2644 -922.7317 281.5757
v -1962.2699 -925.2336 281.0212
v -1960.1802 -926.9801 279.5196
f 418 419 420
v -1965.2644 -922.7317 281.5757
v -1960.1802 -926.9801 279.5196
v -1965.2619 -922.7307 273.4560
f 421 422 423
v -1960.1802 -926.9801 279.5196
v -1960.1784 -926.9793 273.4569
v -1962.6737 -924.8926 273.4564
f 424 425 426
v -1990.8659 -901.3301 272.4682
v -1965.2619 -922.7307 273.4560
v -1965.2616 -922.7306 272.4730
f 427 428 429
v -1960.1802 -926.9801 279.5196
v -1962.6737 -924.8926 273.4564
v -1965.2619 -922.7307 273.4560
f 430 431 432
v -1963.0443 -924.5867 281.5741
v -1962.2699 -925.2336 281.0212
v -1965.2644 -922.7317 281.5757
f 433 434 435
v -1968.1215 -936.4647 279.5158
v -1973.2304 -932.2472 273.4521
v -1971.0173 -934.0732 273.4525
f 436 437 438
v -1968.1215 -936.4647 279.5158
v -1970.2223 -934.7322 281.0174
v -1973.2328 -932.2482 281.5708
f 439 440 441
v -1968.1215 -936.4647 279.5158
v -1970.2200 -934.7313 273.4527
v -1968.1197 -936.4639 273.4531
f 442 443 444
v -1968.1215 -936.4647 279.5158
v -1971.0173 -934.0732 273.4525
v -1970.2200 -934.7313 273.4527
f 445 446 447
v -1973.2328 -932.2482 281.5708
v -1970.2223 -934.7322 281.0174
v -1971.0197 -934.0742 281.5842
f 448 449 450
v -1973.2328 -932.2482 281.5708
v -1973.2331 -932.2483 282.5207
v -2003.3401 -907.4048 282.2920
f 451 452 453
v -2003.3370 -907.4036 272.4633
v -1973.2328 -932.2482 281.5708
v -2003.3401 -907.4048 282.2920
f 454 455 456
v -1973.2301 -932.2471 272.4691
v -1973.2304 -932.2472 273.4521
v -2003.3370 -907.4036 272.4633
f 457 458 459
v -1973.2328 -932.2482 281.5708
v -2003.3370 -907.4036 272.4633
v -1973.2304 -932.2472 273.4521
f 460 461 462
v -1968.1215 -936.4647 279.5158
v -1973.2328 -932.2482 281.5708
v -1973.2304 -932.2472 273.4521
f 463 464 465
v -1969.4550 -927.7393 272.4709
v -1967.7356 -925.6850 272.4718
v -1967.1670 -925.0046 273.4550
f 466 467 468
v -1969.4553 -927.7395 273.4539
v -1969.4550 -927.7393 272.4709
v -1967.1670 -925.0046 273.4550
f 469 470 471
v -1965.2619 -922.7307 273.4560
v -1967.1670 -925.0046 273.4550
v -1965.2616 -922.7306 272.4730
f 472 473 474
v -1967.7356 -925.6850 272.4718
v -1965.2616 -922.7306 272.4730
v -1967.1670 -925.0046 273.4550
f 475 476 477
v -1973.2301 -932.2471 272.4691
v -1971.7286 -930.4543 273.4529
v -1973.2304 -932.2472 273.4521
f 478 479 480
v -1971.7283 -930.4542 272.4699
v -1971.7286 -930.4543 273.4529
v -1973.2301 -932.2471 272.4691
f 481 482 483
v -1969.4550 -927.7393 272.4709
v -1969.4553 -927.7395 273.4539
v -1971.1565 -929.7707 272.4701
f 484 485 486
v -1971.1568 -929.7708 273.4531
v -1971.1565 -929.7707 272.4701
v -1969.4553 -927.7395 273.4539
f 487 488 489
v -1971.1568 -929.7708 273.4531
v -1971.7283 -930.4542 272.4699
v -1971.1565 -929.7707 272.4701
f 490 491 492
v -1971.7283 -930.4542 272.4699
v -1971.1568 -929.7708 273.4531
v -1971.7286 -930.4543 273.4529
f 493 494 495
v -1965.2648 -922.7319 283.2316
v -1966.6953 -924.4410 282.9559
v -1965.2644 -922.7317 281.5757
f 496 497 498
v -1966.7651 -924.5231 284.6818
v -1966.6953 -924.4410 282.9559
v -1965.2648 -922.7319 283.2316
f 499 500 501
v -1967.7395 -925.6865 285.6243
v -1967.7266 -925.6723 282.9554
v -1966.7651 -924.5231 284.6818
f 502 503 504
v -1967.7266 -925.6723 282.9554
v -1966.6953 -924.4410 282.9559
v -1966.7651 -924.5231 284.6818
f 505 506 507
v -1967.7266 -925.6723 282.9554
v -1967.7395 -925.6865 285.6243
v -1969.4582 -927.7406 282.9545
f 508 509 510
v -1969.4582 -927.7406 282.9545
v -1967.7395 -925.6865 285.6243
v -1971.1602 -929.7723 285.1226
f 511 512 513
v -1971.1595 -929.7720 282.9537
v -1969.4582 -927.7406 282.9545
v -1971.1602 -929.7723 285.1226
f 514 515 516
v -1969.4597 -927.7412 288.2273
v -1971.1602 -929.7723 285.1226
v -1967.7395 -925.6865 285.6243
f 517 518 519
v -1971.1595 -929.7720 282.9537
v -1971.1602 -929.7723 285.1226
v -1971.7318 -930.4557 284.4054
f 520 521 522
v -1971.8006 -930.5383 282.9534
v -1971.1595 -929.7720 282.9537
v -1971.7318 -930.4557 284.4054
f 523 524 525
v -1971.8006 -930.5383 282.9534
v -1973.2331 -932.2483 282.5207
v -1973.2328 -932.2482 281.5708
f 526 527 528
v -1973.2331 -932.2483 282.5207
v -1971.8006 -930.5383 282.9534
v -1971.7318 -930.4557 284.4054
f 529 530 531
v -1960.1784 -926.9793 273.4569
v -1968.1215 -936.4647 279.5158
v -1968.1197 -936.4639 273.4531
f 532 533 534
v -1988.6217 -898.6432 272.4693
v -1990.8675 -901.3308 277.8559
v -1990.8659 -901.3301 272.4682
f 535 536 537
v -2000.6405 -904.1809 272.4646
v -2000.4719 -904.3319 285.9272
v -2000.4678 -904.3303 272.4647
f 538 539 540
