# Grid Center: 2614800, 1263400
# Global Anchor: 7.64977475454284, 47.53283995868075, 0.0

g building_ID_5B32E9A8-6512-4133-BA2A-55F0ECE7B3D9
v -974.0711 -1317.8149 348.1731
v -972.9743 -1316.3788 348.1725
v -973.8964 -1315.6743 348.1145
f 1 2 3
v -974.8850 -1318.8807 348.1727
v -974.0711 -1317.8149 348.1731
v -973.8964 -1315.6743 348.1145
f 4 5 6
v -974.8850 -1318.8807 348.1727
v -973.8964 -1315.6743 348.1145
v -979.1677 -1310.9580 347.7567
f 7 8 9
v -975.3152 -1309.2905 347.8616
v -976.9559 -1308.0450 347.7576
v -973.8964 -1315.6743 348.1145
f 10 11 12
v -979.1677 -1310.9580 347.7567
v -981.3986 -1313.8961 347.7567
v -974.8850 -1318.8807 348.1727
f 13 14 15
v -973.8964 -1315.6743 348.1145
v -976.9559 -1308.0450 347.7576
v -979.1677 -1310.9580 347.7567
f 16 17 18
v -972.9743 -1316.3788 348.1725
v -973.8954 -1315.6730 340.9968
v -973.8964 -1315.6743 348.1145
f 19 20 21
v -973.8954 -1315.6730 340.9968
v -972.9743 -1316.3788 348.1725
v -972.9733 -1316.3775 340.9968
f 22 23 24
v -973.8964 -1315.6743 348.1145
v -973.8954 -1315.6730 340.9968
v -975.3143 -1309.2892 340.9979
f 25 26 27
v -975.3143 -1309.2892 340.9979
v -976.9559 -1308.0450 347.7576
v -975.3152 -1309.2905 347.8616
f 28 29 30
v -975.3143 -1309.2892 340.9979
v -976.9550 -1308.0438 340.9979
v -976.9559 -1308.0450 347.7576
f 31 32 33
v -981.3986 -1313.8961 347.7567
v -976.9550 -1308.0438 340.9979
v -981.3976 -1313.8948 340.9960
f 34 35 36
v -974.8840 -1318.8793 340.9960
v -974.8850 -1318.8807 348.1727
v -981.3986 -1313.8961 347.7567
f 37 38 39
v -972.9733 -1316.3775 340.9968
v -972.9743 -1316.3788 348.1725
v -973.8564 -1317.5331 340.9964
f 40 41 42
v -974.8850 -1318.8807 348.1727
v -974.8840 -1318.8793 340.9960
v -974.0711 -1317.8149 348.1731
f 43 44 45
v -974.8840 -1318.8793 340.9960
v -973.8564 -1317.5331 340.9964
v -974.0711 -1317.8149 348.1731
f 46 47 48
v -972.9743 -1316.3788 348.1725
v -974.0711 -1317.8149 348.1731
v -973.8564 -1317.5331 340.9964
f 49 50 51
v -973.8954 -1315.6730 340.9968
v -973.8564 -1317.5331 340.9964
v -976.9550 -1308.0438 340.9979
f 52 53 54
v -972.9733 -1316.3775 340.9968
v -973.8564 -1317.5331 340.9964
v -973.8954 -1315.6730 340.9968
f 55 56 57
v -973.8564 -1317.5331 340.9964
v -974.8840 -1318.8793 340.9960
v -976.9550 -1308.0438 340.9979
f 58 59 60
v -973.8954 -1315.6730 340.9968
v -976.9550 -1308.0438 340.9979
v -975.3143 -1309.2892 340.9979
f 61 62 63
v -981.3976 -1313.8948 340.9960
v -976.9550 -1308.0438 340.9979
v -974.8840 -1318.8793 340.9960
f 64 65 66
v -973.8964 -1315.6743 348.1145
v -975.3143 -1309.2892 340.9979
v -975.3152 -1309.2905 347.8616
f 67 68 69
v -976.9550 -1308.0438 340.9979
v -979.1677 -1310.9580 347.7567
v -976.9559 -1308.0450 347.7576
f 70 71 72
v -981.3986 -1313.8961 347.7567
v -979.1677 -1310.9580 347.7567
v -976.9550 -1308.0438 340.9979
f 73 74 75
v -974.8840 -1318.8793 340.9960
v -981.3986 -1313.8961 347.7567
v -981.3976 -1313.8948 340.9960
f 76 77 78

g building_ID_3AC794A8-EAD4-4481-85E7-2D01A171ABAA
v -972.3227 -1265.4652 340.9653
v -966.7509 -1263.6681 340.9665
v -967.1558 -1262.8921 340.9666
f 79 80 81
v -966.7509 -1263.6681 340.9665
v -972.3227 -1265.4652 340.9653
v -965.0453 -1267.1957 340.9661
f 82 83 84
v -975.4549 -1272.6248 340.9634
v -972.3227 -1265.4652 340.9653
v -973.0116 -1265.8013 340.9652
f 85 86 87
v -973.0116 -1265.8013 340.9652
v -972.3227 -1265.4652 340.9653
v -972.6489 -1264.7984 340.9654
f 88 89 90
v -977.6417 -1268.0750 340.9640
v -975.4549 -1272.6248 340.9634
v -973.0116 -1265.8013 340.9652
f 91 92 93
v -965.0453 -1267.1957 340.9661
v -972.3227 -1265.4652 340.9653
v -975.4549 -1272.6248 340.9634
f 94 95 96
v -973.3428 -1265.1385 340.9652
v -973.0116 -1265.8013 340.9652
v -972.6489 -1264.7984 340.9654
f 97 98 99
v -972.3218 -1265.4640 334.6035
v -972.3227 -1265.4652 340.9653
v -967.1558 -1262.8921 340.9666
f 100 101 102
v -972.6481 -1264.7972 334.6036
v -972.6489 -1264.7984 340.9654
v -972.3227 -1265.4652 340.9653
f 103 104 105
v -973.3419 -1265.1373 334.6034
v -973.3428 -1265.1385 340.9652
v -972.6489 -1264.7984 340.9654
f 106 107 108
v -973.0107 -1265.8003 334.6034
v -973.0116 -1265.8013 340.9652
v -973.3428 -1265.1385 340.9652
f 109 110 111
v -977.6408 -1268.0738 334.6022
v -977.6417 -1268.0750 340.9640
v -973.0116 -1265.8013 340.9652
f 112 113 114
v -975.4540 -1272.6237 334.6016
v -975.4549 -1272.6248 340.9634
v -977.6417 -1268.0750 340.9640
f 115 116 117
v -965.0445 -1267.1946 334.6043
v -965.0453 -1267.1957 340.9661
v -975.4549 -1272.6248 340.9634
f 118 119 120
v -966.7500 -1263.6671 334.6047
v -966.7509 -1263.6681 340.9665
v -965.0453 -1267.1957 340.9661
f 121 122 123
v -967.1549 -1262.8909 334.6048
v -967.1558 -1262.8921 340.9666
v -966.7509 -1263.6681 340.9665
f 124 125 126
v -966.7500 -1263.6671 334.6047
v -972.3218 -1265.4640 334.6035
v -967.1549 -1262.8909 334.6048
f 127 128 129
v -975.4540 -1272.6237 334.6016
v -966.7500 -1263.6671 334.6047
v -965.0445 -1267.1946 334.6043
f 130 131 132
v -972.3218 -1265.4640 334.6035
v -966.7500 -1263.6671 334.6047
v -973.0107 -1265.8003 334.6034
f 133 134 135
v -975.4540 -1272.6237 334.6016
v -973.0107 -1265.8003 334.6034
v -966.7500 -1263.6671 334.6047
f 136 137 138
v -973.0107 -1265.8003 334.6034
v -973.3419 -1265.1373 334.6034
v -972.6481 -1264.7972 334.6036
f 139 140 141
v -975.4540 -1272.6237 334.6016
v -977.6408 -1268.0738 334.6022
v -973.0107 -1265.8003 334.6034
f 142 143 144
v -972.3218 -1265.4640 334.6035
v -973.0107 -1265.8003 334.6034
v -972.6481 -1264.7972 334.6036
f 145 146 147
v -972.3218 -1265.4640 334.6035
v -967.1558 -1262.8921 340.9666
v -967.1549 -1262.8909 334.6048
f 148 149 150
v -972.6481 -1264.7972 334.6036
v -972.3227 -1265.4652 340.9653
v -972.3218 -1265.4640 334.6035
f 151 152 153
v -973.3419 -1265.1373 334.6034
v -972.6489 -1264.7984 340.9654
v -972.6481 -1264.7972 334.6036
f 154 155 156
v -973.0107 -1265.8003 334.6034
v -973.3428 -1265.1385 340.9652
v -973.3419 -1265.1373 334.6034
f 157 158 159
v -977.6408 -1268.0738 334.6022
v -973.0116 -1265.8013 340.9652
v -973.0107 -1265.8003 334.6034
f 160 161 162
v -975.4540 -1272.6237 334.6016
v -977.6417 -1268.0750 340.9640
v -977.6408 -1268.0738 334.6022
f 163 164 165
v -965.0445 -1267.1946 334.6043
v -975.4549 -1272.6248 340.9634
v -975.4540 -1272.6237 334.6016
f 166 167 168
v -966.7500 -1263.6671 334.6047
v -965.0453 -1267.1957 340.9661
v -965.0445 -1267.1946 334.6043
f 169 170 171
v -967.1549 -1262.8909 334.6048
v -966.7509 -1263.6681 340.9665
v -966.7500 -1263.6671 334.6047
f 172 173 174

g building_ID_4986EFB1-3A6A-47BD-AD60-612B59FCDDA5
v -931.3879 -1118.8238 299.8377
v -939.8819 -1127.8050 299.8347
v -937.2728 -1129.2709 299.8349
f 175 176 177
v -939.8819 -1127.8050 299.8347
v -931.3879 -1118.8238 299.8377
v -933.9979 -1117.3537 299.8376
f 178 179 180
v -939.8811 -1127.8039 293.4660
v -939.8819 -1127.8050 299.8347
v -933.9979 -1117.3537 299.8376
f 181 182 183
v -930.1589 -1119.5141 293.4689
v -930.1589 -1119.5141 293.5999
v -936.0429 -1129.9623 293.5972
f 184 185 186
v -939.8811 -1127.8039 293.4660
v -933.9970 -1117.3528 293.4688
v -930.1589 -1119.5141 293.4689
f 187 188 189
v -930.1589 -1119.5141 293.4689
v -936.0449 -1129.9652 293.4662
v -939.8811 -1127.8039 293.4660
f 190 191 192
v -924.4766 -1136.4727 302.7264
v -931.3882 -1118.8242 302.7285
v -937.2712 -1129.2683 302.7258
f 193 194 195
v -931.3882 -1118.8242 302.7285
v -924.4766 -1136.4727 302.7264
v -918.5947 -1126.0294 302.7291
f 196 197 198
v -918.5934 -1126.0280 293.6005
v -918.5947 -1126.0294 302.7291
v -924.4754 -1136.4713 293.5978
f 199 200 201
v -937.2728 -1129.2709 299.8349
v -937.2712 -1129.2683 302.7258
v -931.3879 -1118.8238 299.8377
f 202 203 204
v -930.1589 -1119.5141 293.5999
v -918.5934 -1126.0280 293.6005
v -924.4754 -1136.4713 293.5978
f 205 206 207
v -924.4754 -1136.4713 293.5978
v -936.0429 -1129.9623 293.5972
v -930.1589 -1119.5141 293.5999
f 208 209 210
v -937.2728 -1129.2709 299.8349
v -936.0429 -1129.9623 293.5972
v -924.4754 -1136.4713 293.5978
f 211 212 213
v -939.8811 -1127.8039 293.4660
v -936.0449 -1129.9652 293.4662
v -936.0429 -1129.9623 293.5972
f 214 215 216
v -937.2728 -1129.2709 299.8349
v -924.4754 -1136.4713 293.5978
v -924.4766 -1136.4727 302.7264
f 217 218 219
v -924.4766 -1136.4727 302.7264
v -937.2712 -1129.2683 302.7258
v -937.2728 -1129.2709 299.8349
f 220 221 222
v -937.2728 -1129.2709 299.8349
v -939.8819 -1127.8050 299.8347
v -939.8811 -1127.8039 293.4660
f 223 224 225
v -936.0429 -1129.9623 293.5972
v -937.2728 -1129.2709 299.8349
v -939.8811 -1127.8039 293.4660
f 226 227 228
v -930.1589 -1119.5141 293.5999
v -933.9970 -1117.3528 293.4688
v -931.3879 -1118.8238 299.8377
f 229 230 231
v -933.9979 -1117.3537 299.8376
v -931.3879 -1118.8238 299.8377
v -933.9970 -1117.3528 293.4688
f 232 233 234
v -931.3879 -1118.8238 299.8377
v -931.3882 -1118.8242 302.7285
v -918.5947 -1126.0294 302.7291
f 235 236 237
v -930.1589 -1119.5141 293.5999
v -931.3879 -1118.8238 299.8377
v -918.5934 -1126.0280 293.6005
f 238 239 240
v -918.5947 -1126.0294 302.7291
v -918.5934 -1126.0280 293.6005
v -931.3879 -1118.8238 299.8377
f 241 242 243
v -933.9970 -1117.3528 293.4688
v -930.1589 -1119.5141 293.5999
v -930.1589 -1119.5141 293.4689
f 244 245 246
v -939.8811 -1127.8039 293.4660
v -933.9979 -1117.3537 299.8376
v -933.9970 -1117.3528 293.4688
f 247 248 249
v -930.1589 -1119.5141 293.4689
v -936.0429 -1129.9623 293.5972
v -936.0449 -1129.9652 293.4662
f 250 251 252
v -918.5947 -1126.0294 302.7291
v -924.4766 -1136.4727 302.7264
v -924.4754 -1136.4713 293.5978
f 253 254 255
v -937.2712 -1129.2683 302.7258
v -931.3882 -1118.8242 302.7285
v -931.3879 -1118.8238 299.8377
f 256 257 258

g building_ID_2FD6C06C-AD53-4642-B618-1FFA51A0AEB3
v -960.4689 -1088.7609 299.1246
v -965.5477 -1085.7082 299.1333
v -965.9978 -1086.4990 299.3571
f 259 260 261
v -960.9561 -1089.5736 299.3574
v -960.4689 -1088.7609 299.1246
v -965.9978 -1086.4990 299.3571
f 262 263 264
v -963.2341 -1098.4815 299.9365
v -959.5550 -1101.4482 299.3555
v -959.1760 -1100.6694 300.1677
f 265 266 267
v -959.1051 -1100.7116 300.1687
v -959.1760 -1100.6694 300.1677
v -959.5550 -1101.4482 299.3555
f 268 269 270
v -959.1760 -1100.6694 300.1677
v -957.2037 -1097.3793 303.7814
v -963.2341 -1098.4815 299.9365
f 271 272 273
v -970.9086 -1093.8620 299.8871
v -963.2341 -1098.4815 299.9365
v -968.7547 -1090.3323 303.7810
f 274 275 276
v -957.2037 -1097.3793 303.7814
v -968.7547 -1090.3323 303.7810
v -963.2341 -1098.4815 299.9365
f 277 278 279
v -959.5550 -1101.4482 299.3555
v -963.2341 -1098.4815 299.9365
v -963.5554 -1099.0086 299.3554
f 280 281 282
v -968.0026 -1089.1004 290.6288
v -967.6069 -1089.3282 302.4143
v -967.6060 -1089.3273 296.5145
f 283 284 285
v -968.0026 -1089.1004 290.6288
v -967.6056 -1089.3269 293.5656
v -967.6052 -1089.3264 290.6288
f 286 287 288
v -965.5473 -1085.7078 295.9445
v -965.5477 -1085.7082 299.1333
v -960.4689 -1088.7609 299.1246
f 289 290 291
v -965.5468 -1085.7073 292.7556
v -965.5473 -1085.7078 295.9445
v -960.4689 -1088.7609 299.1246
f 292 293 294
v -960.4677 -1088.7595 290.6300
v -965.5465 -1085.7070 290.6297
v -965.5468 -1085.7073 292.7556
f 295 296 297
v -965.5468 -1085.7073 292.7556
v -960.4689 -1088.7609 299.1246
v -960.4677 -1088.7595 290.6300
f 298 299 300
v -959.5538 -1101.4469 290.6278
v -959.5540 -1101.4472 292.3438
v -963.5544 -1099.0075 292.3437
f 301 302 303
v -959.1038 -1100.7102 290.6280
v -959.1040 -1100.7104 292.3440
v -959.5540 -1101.4472 292.3438
f 304 305 306
v -959.1038 -1100.7102 290.6280
v -959.5538 -1101.4469 290.6278
v -959.1747 -1100.6680 290.6280
f 307 308 309
v -963.5542 -1099.0073 290.6277
v -959.1747 -1100.6680 290.6280
v -959.5538 -1101.4469 290.6278
f 310 311 312
v -968.7529 -1090.3303 290.6285
v -961.2402 -1090.0485 290.6296
v -963.2328 -1098.4801 290.6278
f 313 314 315
v -959.1747 -1100.6680 290.6280
v -963.5542 -1099.0073 290.6277
v -963.2328 -1098.4801 290.6278
f 316 317 318
v -957.2019 -1097.3773 290.6289
v -959.1747 -1100.6680 290.6280
v -963.2328 -1098.4801 290.6278
f 319 320 321
v -957.2019 -1097.3773 290.6289
v -961.2402 -1090.0485 290.6296
v -955.0422 -1093.7761 290.6298
f 322 323 324
v -957.2019 -1097.3773 290.6289
v -963.2328 -1098.4801 290.6278
v -961.2402 -1090.0485 290.6296
f 325 326 327
v -960.4677 -1088.7595 290.6300
v -967.6052 -1089.3264 290.6288
v -965.9967 -1086.4978 290.6295
f 328 329 330
v -967.6052 -1089.3264 290.6288
v -968.7529 -1090.3303 290.6285
v -968.0026 -1089.1004 290.6288
f 331 332 333
v -961.2402 -1090.0485 290.6296
v -968.7529 -1090.3303 290.6285
v -967.6052 -1089.3264 290.6288
f 334 335 336
v -960.4677 -1088.7595 290.6300
v -961.2402 -1090.0485 290.6296
v -967.6052 -1089.3264 290.6288
f 337 338 339
v -965.5465 -1085.7070 290.6297
v -960.4677 -1088.7595 290.6300
v -965.9967 -1086.4978 290.6295
f 340 341 342
v -970.9074 -1093.8606 290.6274
v -968.7529 -1090.3303 290.6285
v -963.2328 -1098.4801 290.6278
f 343 344 345
v -971.1520 -1089.2420 298.1200
v -970.9064 -1089.3886 298.1190
v -971.1516 -1089.2416 295.7161
f 346 347 348
v -971.1511 -1089.2411 291.7082
v -971.1516 -1089.2416 295.7161
v -970.9064 -1089.3886 298.1190
f 349 350 351
v -970.9055 -1089.3878 291.7082
v -971.1511 -1089.2411 291.7082
v -970.9064 -1089.3886 298.1190
f 352 353 354
v -970.5853 -1088.9306 291.7083
v -970.9055 -1089.3878 291.7082
v -970.5861 -1088.9316 297.9171
f 355 356 357
v -970.5861 -1088.9316 297.9171
v -970.9055 -1089.3878 291.7082
v -970.9064 -1089.3886 298.1190
f 358 359 360
v -971.1520 -1089.2420 298.1200
v -972.1184 -1090.8535 298.8015
v -970.9064 -1089.3886 298.1190
f 361 362 363
v -970.9064 -1089.3886 298.1190
v -972.1184 -1090.8535 298.8015
v -969.8991 -1092.2075 298.8016
f 364 365 366
v -968.6283 -1090.1258 297.9172
v -970.5861 -1088.9316 297.9171
v -970.9064 -1089.3886 298.1190
f 367 368 369
v -969.8991 -1092.2075 298.8016
v -968.6283 -1090.1258 297.9172
v -970.9064 -1089.3886 298.1190
f 370 371 372
v -970.9084 -1093.8617 298.2412
v -972.1184 -1090.8535 298.8015
v -973.1238 -1092.5287 298.2371
f 373 374 375
v -972.1184 -1090.8535 298.8015
v -970.9084 -1093.8617 298.2412
v -969.8991 -1092.2075 298.8016
f 376 377 378
v -968.6283 -1090.1258 297.9172
v -968.6275 -1090.1249 291.7084
v -970.5861 -1088.9316 297.9171
f 379 380 381
v -970.5861 -1088.9316 297.9171
v -968.6275 -1090.1249 291.7084
v -970.5853 -1088.9306 291.7083
f 382 383 384
v -970.9055 -1089.3878 291.7082
v -970.5853 -1088.9306 291.7083
v -968.6275 -1090.1249 291.7084
f 385 386 387
v -972.1174 -1090.8524 291.7078
v -968.6275 -1090.1249 291.7084
v -970.9075 -1093.8607 291.7074
f 388 389 390
v -968.6275 -1090.1249 291.7084
v -972.1174 -1090.8524 291.7078
v -970.9055 -1089.3878 291.7082
f 391 392 393
v -972.1174 -1090.8524 291.7078
v -971.1511 -1089.2411 291.7082
v -970.9055 -1089.3878 291.7082
f 394 395 396
v -973.1229 -1092.5277 291.7073
v -972.1174 -1090.8524 291.7078
v -970.9075 -1093.8607 291.7074
f 397 398 399
v -959.9925 -1104.5920 292.3432
v -959.9932 -1104.5928 297.4630
v -965.0728 -1101.5021 297.4588
f 400 401 402
v -959.9925 -1104.5920 292.3432
v -965.0725 -1101.5017 294.5789
v -965.0721 -1101.5013 292.3430
f 403 404 405
v -959.9925 -1104.5920 292.3432
v -958.0457 -1101.3463 292.3441
v -959.9932 -1104.5928 297.4630
f 406 407 408
v -959.5549 -1101.4481 299.0035
v -959.5550 -1101.4482 299.3555
v -963.5554 -1099.0085 299.0024
f 409 410 411
v -959.5549 -1101.4481 299.0035
v -959.1050 -1100.7115 299.4597
v -959.1051 -1100.7116 300.1687
f 412 413 414
v -959.1051 -1100.7116 300.1687
v -959.5550 -1101.4482 299.3555
v -959.5549 -1101.4481 299.0035
f 415 416 417
v -965.0728 -1101.5021 297.4588
v -959.9932 -1104.5928 297.4630
v -963.5554 -1099.0085 299.0024
f 418 419 420
v -959.5549 -1101.4481 299.0035
v -963.5554 -1099.0085 299.0024
v -959.9932 -1104.5928 297.4630
f 421 422 423
v -959.5549 -1101.4481 299.0035
v -959.9932 -1104.5928 297.4630
v -958.0467 -1101.3473 299.4648
f 424 425 426
v -959.1050 -1100.7115 299.4597
v -959.5549 -1101.4481 299.0035
v -958.0467 -1101.3473 299.4648
f 427 428 429
v -958.0457 -1101.3463 292.3441
v -959.5540 -1101.4472 292.3438
v -959.1040 -1100.7104 292.3440
f 430 431 432
v -959.9925 -1104.5920 292.3432
v -959.5540 -1101.4472 292.3438
v -958.0457 -1101.3463 292.3441
f 433 434 435
v -959.5540 -1101.4472 292.3438
v -959.9925 -1104.5920 292.3432
v -965.0721 -1101.5013 292.3430
f 436 437 438
v -959.5540 -1101.4472 292.3438
v -965.0721 -1101.5013 292.3430
v -963.5544 -1099.0075 292.3437
f 439 440 441
v -961.2415 -1090.0499 299.8792
v -960.9561 -1089.5736 299.3574
v -965.9978 -1086.4990 299.3571
f 442 443 444
v -961.2415 -1090.0499 299.8792
v -965.9978 -1086.4990 299.3571
v -967.6069 -1089.3282 302.4143
f 445 446 447
v -967.6069 -1089.3282 302.4143
v -968.0043 -1089.1021 302.4273
v -968.7547 -1090.3323 303.7810
f 448 449 450
v -968.7547 -1090.3323 303.7810
v -961.2415 -1090.0499 299.8792
v -967.6069 -1089.3282 302.4143
f 451 452 453
v -968.7547 -1090.3323 303.7810
v -957.2037 -1097.3793 303.7814
v -961.2415 -1090.0499 299.8792
f 454 455 456
v -957.3907 -1092.3662 299.8524
v -957.2037 -1097.3793 303.7814
v -955.0435 -1093.7775 299.8365
f 457 458 459
v -961.2415 -1090.0499 299.8792
v -957.2037 -1097.3793 303.7814
v -957.3907 -1092.3662 299.8524
f 460 461 462
v -965.9978 -1086.4990 299.3571
v -967.6060 -1089.3273 296.5145
v -967.6069 -1089.3282 302.4143
f 463 464 465
v -967.6056 -1089.3269 293.5656
v -967.6060 -1089.3273 296.5145
v -965.5473 -1085.7078 295.9445
f 466 467 468
v -965.9967 -1086.4978 290.6295
v -967.6052 -1089.3264 290.6288
v -967.6056 -1089.3269 293.5656
f 469 470 471
v -965.5473 -1085.7078 295.9445
v -965.9978 -1086.4990 299.3571
v -965.5477 -1085.7082 299.1333
f 472 473 474
v -965.5468 -1085.7073 292.7556
v -967.6056 -1089.3269 293.5656
v -965.5473 -1085.7078 295.9445
f 475 476 477
v -965.9967 -1086.4978 290.6295
v -967.6056 -1089.3269 293.5656
v -965.5468 -1085.7073 292.7556
f 478 479 480
v -965.9967 -1086.4978 290.6295
v -965.5468 -1085.7073 292.7556
v -965.5465 -1085.7070 290.6297
f 481 482 483
v -965.5473 -1085.7078 295.9445
v -967.6060 -1089.3273 296.5145
v -965.9978 -1086.4990 299.3571
f 484 485 486
v -960.4689 -1088.7609 299.1246
v -961.2402 -1090.0485 290.6296
v -960.4677 -1088.7595 290.6300
f 487 488 489
v -961.2402 -1090.0485 290.6296
v -960.9561 -1089.5736 299.3574
v -961.2415 -1090.0499 299.8792
f 490 491 492
v -961.2402 -1090.0485 290.6296
v -960.4689 -1088.7609 299.1246
v -960.9561 -1089.5736 299.3574
f 493 494 495
v -957.3907 -1092.3662 299.8524
v -961.2402 -1090.0485 290.6296
v -961.2415 -1090.0499 299.8792
f 496 497 498
v -955.0422 -1093.7761 290.6298
v -957.3907 -1092.3662 299.8524
v -955.0435 -1093.7775 299.8365
f 499 500 501
v -961.2402 -1090.0485 290.6296
v -957.3907 -1092.3662 299.8524
v -955.0422 -1093.7761 290.6298
f 502 503 504
v -957.2019 -1097.3773 290.6289
v -955.0422 -1093.7761 290.6298
v -955.0435 -1093.7775 299.8365
f 505 506 507
v -959.1760 -1100.6694 300.1677
v -957.2019 -1097.3773 290.6289
v -955.0435 -1093.7775 299.8365
f 508 509 510
v -959.1760 -1100.6694 300.1677
v -959.1747 -1100.6680 290.6280
v -957.2019 -1097.3773 290.6289
f 511 512 513
v -957.2037 -1097.3793 303.7814
v -959.1760 -1100.6694 300.1677
v -955.0435 -1093.7775 299.8365
f 514 515 516
v -963.2340 -1098.4814 299.3295
v -963.2341 -1098.4815 299.9365
v -970.9086 -1093.8620 299.8871
f 517 518 519
v -963.2340 -1098.4814 299.3295
v -970.9084 -1093.8617 298.2412
v -963.2331 -1098.4804 292.3438
f 520 521 522
v -963.2331 -1098.4804 292.3438
v -970.9075 -1093.8607 291.7074
v -963.2328 -1098.4801 290.6278
f 523 524 525
v -970.9086 -1093.8620 299.8871
v -970.9084 -1093.8617 298.2412
v -963.2340 -1098.4814 299.3295
f 526 527 528
v -973.1229 -1092.5277 291.7073
v -970.9084 -1093.8617 298.2412
v -973.1238 -1092.5287 298.2371
f 529 530 531
v -970.9084 -1093.8617 298.2412
v -973.1229 -1092.5277 291.7073
v -970.9075 -1093.8607 291.7074
f 532 533 534
v -963.2328 -1098.4801 290.6278
v -970.9075 -1093.8607 291.7074
v -970.9074 -1093.8606 290.6274
f 535 536 537
v -963.2331 -1098.4804 292.3438
v -970.9084 -1093.8617 298.2412
v -970.9075 -1093.8607 291.7074
f 538 539 540
v -970.9075 -1093.8607 291.7074
v -968.6275 -1090.1249 291.7084
v -970.9074 -1093.8606 290.6274
f 541 542 543
v -968.6283 -1090.1258 297.9172
v -968.0026 -1089.1004 290.6288
v -968.6275 -1090.1249 291.7084
f 544 545 546
v -970.9074 -1093.8606 290.6274
v -968.6275 -1090.1249 291.7084
v -968.7529 -1090.3303 290.6285
f 547 548 549
v -968.7529 -1090.3303 290.6285
v -968.6275 -1090.1249 291.7084
v -968.0026 -1089.1004 290.6288
f 550 551 552
v -968.7547 -1090.3323 303.7810
v -969.8991 -1092.2075 298.8016
v -970.9086 -1093.8620 299.8871
f 553 554 555
v -969.8991 -1092.2075 298.8016
v -968.7547 -1090.3323 303.7810
v -968.0043 -1089.1021 302.4273
f 556 557 558
v -968.0038 -1089.1017 299.4774
v -969.8991 -1092.2075 298.8016
v -968.0043 -1089.1021 302.4273
f 559 560 561
v -968.0026 -1089.1004 290.6288
v -968.6283 -1090.1258 297.9172
v -968.0038 -1089.1017 299.4774
f 562 563 564
v -968.0038 -1089.1017 299.4774
v -968.6283 -1090.1258 297.9172
v -969.8991 -1092.2075 298.8016
f 565 566 567
v -970.9086 -1093.8620 299.8871
v -969.8991 -1092.2075 298.8016
v -970.9084 -1093.8617 298.2412
f 568 569 570
v -973.1229 -1092.5277 291.7073
v -972.1184 -1090.8535 298.8015
v -971.1520 -1089.2420 298.1200
f 571 572 573
v -972.1184 -1090.8535 298.8015
v -973.1229 -1092.5277 291.7073
v -973.1238 -1092.5287 298.2371
f 574 575 576
v -973.1229 -1092.5277 291.7073
v -971.1520 -1089.2420 298.1200
v -971.1516 -1089.2416 295.7161
f 577 578 579
v -971.1516 -1089.2416 295.7161
v -971.1511 -1089.2411 291.7082
v -972.1174 -1090.8524 291.7078
f 580 581 582
v -973.1229 -1092.5277 291.7073
v -971.1516 -1089.2416 295.7161
v -972.1174 -1090.8524 291.7078
f 583 584 585
v -959.1050 -1100.7115 299.4597
v -959.1040 -1100.7104 292.3440
v -959.1760 -1100.6694 300.1677
f 586 587 588
v -959.1040 -1100.7104 292.3440
v -959.1747 -1100.6680 290.6280
v -959.1760 -1100.6694 300.1677
f 589 590 591
v -959.1040 -1100.7104 292.3440
v -959.1038 -1100.7102 290.6280
v -959.1747 -1100.6680 290.6280
f 592 593 594
v -959.1760 -1100.6694 300.1677
v -959.1051 -1100.7116 300.1687
v -959.1050 -1100.7115 299.4597
f 595 596 597
v -958.0457 -1101.3463 292.3441
v -959.1050 -1100.7115 299.4597
v -958.0467 -1101.3473 299.4648
f 598 599 600
v -958.0457 -1101.3463 292.3441
v -959.1040 -1100.7104 292.3440
v -959.1050 -1100.7115 299.4597
f 601 602 603
v -963.5544 -1099.0075 292.3437
v -965.0721 -1101.5013 292.3430
v -965.0725 -1101.5017 294.5789
f 604 605 606
v -963.2331 -1098.4804 292.3438
v -963.2328 -1098.4801 290.6278
v -963.5542 -1099.0073 290.6277
f 607 608 609
v -963.5544 -1099.0075 292.3437
v -963.2331 -1098.4804 292.3438
v -963.5542 -1099.0073 290.6277
f 610 611 612
v -963.5544 -1099.0075 292.3437
v -965.0725 -1101.5017 294.5789
v -963.5554 -1099.0085 299.0024
f 613 614 615
v -963.2340 -1098.4814 299.3295
v -963.5554 -1099.0086 299.3554
v -963.2341 -1098.4815 299.9365
f 616 617 618
v -963.2331 -1098.4804 292.3438
v -963.5544 -1099.0075 292.3437
v -963.5554 -1099.0085 299.0024
f 619 620 621
v -963.2331 -1098.4804 292.3438
v -963.5554 -1099.0085 299.0024
v -963.2340 -1098.4814 299.3295
f 622 623 624
v -963.5554 -1099.0086 299.3554
v -963.2340 -1098.4814 299.3295
v -963.5554 -1099.0085 299.0024
f 625 626 627
v -963.5554 -1099.0085 299.0024
v -965.0725 -1101.5017 294.5789
v -965.0728 -1101.5021 297.4588
f 628 629 630
v -968.0038 -1089.1017 299.4774
v -968.0043 -1089.1021 302.4273
v -967.6069 -1089.3282 302.4143
f 631 632 633
v -967.6069 -1089.3282 302.4143
v -968.0026 -1089.1004 290.6288
v -968.0038 -1089.1017 299.4774
f 634 635 636
v -968.0026 -1089.1004 290.6288
v -967.6060 -1089.3273 296.5145
v -967.6056 -1089.3269 293.5656
f 637 638 639
v -959.5538 -1101.4469 290.6278
v -963.5544 -1099.0075 292.3437
v -963.5542 -1099.0073 290.6277
f 640 641 642
v -959.1038 -1100.7102 290.6280
v -959.5540 -1101.4472 292.3438
v -959.5538 -1101.4469 290.6278
f 643 644 645
v -965.0725 -1101.5017 294.5789
v -959.9925 -1104.5920 292.3432
v -965.0728 -1101.5021 297.4588
f 646 647 648
v -958.0457 -1101.3463 292.3441
v -958.0467 -1101.3473 299.4648
v -959.9932 -1104.5928 297.4630
f 649 650 651
v -959.5550 -1101.4482 299.3555
v -963.5554 -1099.0086 299.3554
v -963.5554 -1099.0085 299.0024
f 652 653 654

g building_ID_2E7AA265-1F13-4EB0-B22E-DF2C01D76F7E
v -936.2476 -1095.6369 299.9470
v -939.0646 -1100.6398 303.7035
v -934.6401 -1096.5422 299.9541
f 655 656 657
v -939.0646 -1100.6398 303.7035
v -935.0176 -1102.8867 303.7037
v -934.6401 -1096.5422 299.9541
f 658 659 660
v -934.6401 -1096.5422 299.9541
v -935.0176 -1102.8867 303.7037
v -932.2447 -1097.8916 299.9652
f 661 662 663
v -941.9397 -1105.7485 299.8864
v -937.8769 -1108.0394 299.8666
v -939.0646 -1100.6398 303.7035
f 664 665 666
v -935.0176 -1102.8867 303.7037
v -939.0646 -1100.6398 303.7035
v -937.8769 -1108.0394 299.8666
f 667 668 669
v -936.2473 -1095.6365 297.2921
v -936.2476 -1095.6369 299.9470
v -934.6401 -1096.5422 299.9541
f 670 671 672
v -934.8913 -1096.3979 289.3465
v -936.2462 -1095.6353 289.3464
v -934.6401 -1096.5422 299.9541
f 673 674 675
v -934.8913 -1096.3979 289.3465
v -934.6401 -1096.5422 299.9541
v -932.2433 -1097.8900 289.3466
f 676 677 678
v -932.2436 -1097.8904 292.0015
v -932.2433 -1097.8900 289.3466
v -934.6401 -1096.5422 299.9541
f 679 680 681
v -932.2433 -1097.8900 289.3466
v -935.0157 -1102.8845 289.3453
v -934.8913 -1096.3979 289.3465
f 682 683 684
v -934.8913 -1096.3979 289.3465
v -939.0626 -1100.6377 289.3451
v -936.2462 -1095.6353 289.3464
f 685 686 687
v -941.9383 -1105.7470 289.3438
v -935.0157 -1102.8845 289.3453
v -937.8755 -1108.0379 289.3440
f 688 689 690
v -935.0157 -1102.8845 289.3453
v -941.9383 -1105.7470 289.3438
v -939.0626 -1100.6377 289.3451
f 691 692 693
v -934.8913 -1096.3979 289.3465
v -935.0157 -1102.8845 289.3453
v -939.0626 -1100.6377 289.3451
f 694 695 696
v -941.2956 -1106.9139 290.7136
v -938.3341 -1108.5818 290.7137
v -940.7912 -1107.1992 297.1354
f 697 698 699
v -940.7912 -1107.1992 297.1354
v -942.2835 -1106.3587 293.9245
v -941.2956 -1106.9139 290.7136
f 700 701 702
v -942.2835 -1106.3587 293.9245
v -942.2831 -1106.3583 290.7136
v -941.2956 -1106.9139 290.7136
f 703 704 705
v -937.9914 -1107.9727 290.7139
v -938.3349 -1108.5827 297.1355
v -938.3341 -1108.5818 290.7137
f 706 707 708
v -937.9923 -1107.9737 297.1187
v -941.9393 -1105.7481 297.1175
v -940.7912 -1107.1992 297.1354
f 709 710 711
v -941.9393 -1105.7481 297.1175
v -942.2840 -1106.3592 297.1354
v -940.7912 -1107.1992 297.1354
f 712 713 714
v -937.9923 -1107.9737 297.1187
v -940.7912 -1107.1992 297.1354
v -938.3349 -1108.5827 297.1355
f 715 716 717
v -941.2956 -1106.9139 290.7136
v -942.2831 -1106.3583 290.7136
v -941.9385 -1105.7471 290.7137
f 718 719 720
v -937.9914 -1107.9727 290.7139
v -941.2956 -1106.9139 290.7136
v -941.9385 -1105.7471 290.7137
f 721 722 723
v -941.2956 -1106.9139 290.7136
v -937.9914 -1107.9727 290.7139
v -938.3341 -1108.5818 290.7137
f 724 725 726
v -935.0157 -1102.8845 289.3453
v -932.2433 -1097.8900 289.3466
v -932.2436 -1097.8904 292.0015
f 727 728 729
v -932.2436 -1097.8904 292.0015
v -937.8775 -1108.0390 297.1187
v -935.0157 -1102.8845 289.3453
f 730 731 732
v -937.8769 -1108.0394 299.8666
v -932.2436 -1097.8904 292.0015
v -932.2443 -1097.8912 297.3103
f 733 734 735
v -932.2443 -1097.8912 297.3103
v -935.0176 -1102.8867 303.7037
v -937.8769 -1108.0394 299.8666
f 736 737 738
v -932.2436 -1097.8904 292.0015
v -937.8769 -1108.0394 299.8666
v -937.8775 -1108.0390 297.1187
f 739 740 741
v -937.8756 -1108.0380 290.7139
v -937.8755 -1108.0379 289.3440
v -935.0157 -1102.8845 289.3453
f 742 743 744
v -937.8775 -1108.0390 297.1187
v -937.8756 -1108.0380 290.7139
v -935.0157 -1102.8845 289.3453
f 745 746 747
v -932.2447 -1097.8916 299.9652
v -935.0176 -1102.8867 303.7037
v -932.2443 -1097.8912 297.3103
f 748 749 750
v -939.0646 -1100.6398 303.7035
v -941.9393 -1105.7481 297.1175
v -941.9397 -1105.7485 299.8864
f 751 752 753
v -941.9393 -1105.7481 297.1175
v -942.2835 -1106.3587 293.9245
v -942.2840 -1106.3592 297.1354
f 754 755 756
v -942.2835 -1106.3587 293.9245
v -941.9385 -1105.7471 290.7137
v -942.2831 -1106.3583 290.7136
f 757 758 759
v -941.9393 -1105.7481 297.1175
v -939.0626 -1100.6377 289.3451
v -942.2835 -1106.3587 293.9245
f 760 761 762
v -936.2473 -1095.6365 297.2921
v -939.0646 -1100.6398 303.7035
v -936.2476 -1095.6369 299.9470
f 763 764 765
v -941.9393 -1105.7481 297.1175
v -936.2473 -1095.6365 297.2921
v -939.0626 -1100.6377 289.3451
f 766 767 768
v -936.2462 -1095.6353 289.3464
v -939.0626 -1100.6377 289.3451
v -936.2473 -1095.6365 297.2921
f 769 770 771
v -939.0626 -1100.6377 289.3451
v -941.9383 -1105.7470 289.3438
v -941.9385 -1105.7471 290.7137
f 772 773 774
v -939.0626 -1100.6377 289.3451
v -941.9385 -1105.7471 290.7137
v -942.2835 -1106.3587 293.9245
f 775 776 777
v -936.2473 -1095.6365 297.2921
v -941.9393 -1105.7481 297.1175
v -939.0646 -1100.6398 303.7035
f 778 779 780
v -937.9923 -1107.9737 297.1187
v -937.9914 -1107.9727 290.7139
v -937.8775 -1108.0390 297.1187
f 781 782 783
v -937.8769 -1108.0394 299.8666
v -937.9923 -1107.9737 297.1187
v -937.8775 -1108.0390 297.1187
f 784 785 786
v -937.8756 -1108.0380 290.7139
v -937.8775 -1108.0390 297.1187
v -937.9914 -1107.9727 290.7139
f 787 788 789
v -941.9383 -1105.7470 289.3438
v -937.8755 -1108.0379 289.3440
v -937.8756 -1108.0380 290.7139
f 790 791 792
v -937.8756 -1108.0380 290.7139
v -937.9914 -1107.9727 290.7139
v -941.9383 -1105.7470 289.3438
f 793 794 795
v -937.8769 -1108.0394 299.8666
v -941.9393 -1105.7481 297.1175
v -937.9923 -1107.9737 297.1187
f 796 797 798
v -941.9397 -1105.7485 299.8864
v -941.9393 -1105.7481 297.1175
v -937.8769 -1108.0394 299.8666
f 799 800 801
v -941.9383 -1105.7470 289.3438
v -937.9914 -1107.9727 290.7139
v -941.9385 -1105.7471 290.7137
f 802 803 804
v -934.6401 -1096.5422 299.9541
v -936.2462 -1095.6353 289.3464
v -936.2473 -1095.6365 297.2921
f 805 806 807
v -934.6401 -1096.5422 299.9541
v -932.2447 -1097.8916 299.9652
v -932.2443 -1097.8912 297.3103
f 808 809 810
v -934.6401 -1096.5422 299.9541
v -932.2443 -1097.8912 297.3103
v -932.2436 -1097.8904 292.0015
f 811 812 813
v -938.3341 -1108.5818 290.7137
v -938.3349 -1108.5827 297.1355
v -940.7912 -1107.1992 297.1354
f 814 815 816
v -942.2835 -1106.3587 293.9245
v -940.7912 -1107.1992 297.1354
v -942.2840 -1106.3592 297.1354
f 817 818 819
v -937.9923 -1107.9737 297.1187
v -938.3349 -1108.5827 297.1355
v -937.9914 -1107.9727 290.7139
f 820 821 822

g building_ID_AFC413E2-9387-4835-B0D1-AD3448798973
v -940.2576 -1093.3782 299.9278
v -943.0875 -1098.4071 303.7033
v -938.7278 -1094.2402 299.9349
f 823 824 825
v -937.2501 -1095.0722 299.9419
v -938.7278 -1094.2402 299.9349
v -939.0646 -1100.6398 303.7035
f 826 827 828
v -943.0875 -1098.4071 303.7033
v -939.0646 -1100.6398 303.7035
v -938.7278 -1094.2402 299.9349
f 829 830 831
v -937.2501 -1095.0722 299.9419
v -939.0646 -1100.6398 303.7035
v -936.2476 -1095.6369 299.9470
f 832 833 834
v -943.9412 -1104.4492 299.9943
v -943.0875 -1098.4071 303.7033
v -945.8823 -1103.3719 299.9942
f 835 836 837
v -943.9412 -1104.4492 299.9943
v -941.8594 -1105.6048 299.9944
v -939.0646 -1100.6398 303.7035
f 838 839 840
v -943.0875 -1098.4071 303.7033
v -943.9412 -1104.4492 299.9943
v -939.0646 -1100.6398 303.7035
f 841 842 843
v -940.2561 -1093.3766 289.3462
v -940.2576 -1093.3782 299.9278
v -938.7278 -1094.2402 299.9349
f 844 845 846
v -937.8697 -1094.7210 289.3463
v -940.2561 -1093.3766 289.3462
v -938.7278 -1094.2402 299.9349
f 847 848 849
v -937.8697 -1094.7210 289.3463
v -936.2473 -1095.6364 297.0571
v -936.2462 -1095.6353 289.3464
f 850 851 852
v -943.8300 -1104.5089 289.3437
v -943.0833 -1104.9231 290.7137
v -945.8809 -1103.3704 289.3436
f 853 854 855
v -941.8579 -1105.6031 289.3438
v -941.8581 -1105.6034 290.7137
v -943.0833 -1104.9231 290.7137
f 856 857 858
v -945.8811 -1103.3706 290.7135
v -945.8809 -1103.3704 289.3436
v -943.0833 -1104.9231 290.7137
f 859 860 861
v -945.8809 -1103.3704 289.3436
v -943.0856 -1098.4050 289.3449
v -943.8300 -1104.5089 289.3437
f 862 863 864
v -943.8300 -1104.5089 289.3437
v -939.0626 -1100.6377 289.3451
v -941.8579 -1105.6031 289.3438
f 865 866 867
v -943.8300 -1104.5089 289.3437
v -937.8697 -1094.7210 289.3463
v -939.0626 -1100.6377 289.3451
f 868 869 870
v -940.2561 -1093.3766 289.3462
v -937.8697 -1094.7210 289.3463
v -943.0856 -1098.4050 289.3449
f 871 872 873
v -939.0626 -1100.6377 289.3451
v -937.8697 -1094.7210 289.3463
v -936.2462 -1095.6353 289.3464
f 874 875 876
v -937.8697 -1094.7210 289.3463
v -943.8300 -1104.5089 289.3437
v -943.0856 -1098.4050 289.3449
f 877 878 879
v -944.3400 -1105.2007 290.7135
v -942.2831 -1106.3583 290.7136
v -944.1651 -1105.3011 297.1343
f 880 881 882
v -946.2930 -1104.1025 290.7134
v -944.3400 -1105.2007 290.7135
v -944.1651 -1105.3011 297.1343
f 883 884 885
v -942.2840 -1106.3592 297.1354
v -944.1651 -1105.3011 297.1343
v -942.2835 -1106.3587 293.6345
f 886 887 888
v -944.0667 -1104.3794 297.1134
v -941.8589 -1105.6044 297.1135
v -943.9412 -1104.4492 299.9943
f 889 890 891
v -941.8589 -1105.6044 297.1135
v -941.8594 -1105.6048 299.9944
v -943.9412 -1104.4492 299.9943
f 892 893 894
v -945.8819 -1103.3716 297.1133
v -943.9412 -1104.4492 299.9943
v -945.8823 -1103.3719 299.9942
f 895 896 897
v -944.0667 -1104.3794 297.1134
v -943.9412 -1104.4492 299.9943
v -945.8819 -1103.3716 297.1133
f 898 899 900
v -944.0667 -1104.3794 297.1134
v -944.1651 -1105.3011 297.1343
v -942.2840 -1106.3592 297.1354
f 901 902 903
v -944.0667 -1104.3794 297.1134
v -942.2840 -1106.3592 297.1354
v -941.8589 -1105.6044 297.1135
f 904 905 906
v -945.8819 -1103.3716 297.1133
v -944.1651 -1105.3011 297.1343
v -944.0667 -1104.3794 297.1134
f 907 908 909
v -944.1651 -1105.3011 297.1343
v -945.8819 -1103.3716 297.1133
v -946.2939 -1104.1034 297.1342
f 910 911 912
v -946.2930 -1104.1025 290.7134
v -943.0833 -1104.9231 290.7137
v -944.3400 -1105.2007 290.7135
f 913 914 915
v -946.2930 -1104.1025 290.7134
v -945.8811 -1103.3706 290.7135
v -943.0833 -1104.9231 290.7137
f 916 917 918
v -942.2831 -1106.3583 290.7136
v -944.3400 -1105.2007 290.7135
v -943.0833 -1104.9231 290.7137
f 919 920 921
v -943.0833 -1104.9231 290.7137
v -941.8581 -1105.6034 290.7137
v -942.2831 -1106.3583 290.7136
f 922 923 924
v -939.0646 -1100.6398 303.7035
v -936.2473 -1095.6364 297.0571
v -936.2476 -1095.6369 299.9470
f 925 926 927
v -939.0626 -1100.6377 289.3451
v -936.2473 -1095.6364 297.0571
v -941.8589 -1105.6044 297.1135
f 928 929 930
v -939.0626 -1100.6377 289.3451
v -936.2462 -1095.6353 289.3464
v -936.2473 -1095.6364 297.0571
f 931 932 933
v -941.8581 -1105.6034 290.7137
v -941.8579 -1105.6031 289.3438
v -939.0626 -1100.6377 289.3451
f 934 935 936
v -939.0646 -1100.6398 303.7035
v -941.8589 -1105.6044 297.1135
v -936.2473 -1095.6364 297.0571
f 937 938 939
v -941.8594 -1105.6048 299.9944
v -941.8589 -1105.6044 297.1135
v -939.0646 -1100.6398 303.7035
f 940 941 942
v -942.2835 -1106.3587 293.6345
v -939.0626 -1100.6377 289.3451
v -941.8589 -1105.6044 297.1135
f 943 944 945
v -942.2835 -1106.3587 293.6345
v -942.2831 -1106.3583 290.7136
v -941.8581 -1105.6034 290.7137
f 946 947 948
v -942.2835 -1106.3587 293.6345
v -941.8581 -1105.6034 290.7137
v -939.0626 -1100.6377 289.3451
f 949 950 951
v -942.2835 -1106.3587 293.6345
v -941.8589 -1105.6044 297.1135
v -942.2840 -1106.3592 297.1354
f 952 953 954
v -945.8823 -1103.3719 299.9942
v -943.0875 -1098.4071 303.7033
v -945.8819 -1103.3716 297.1133
f 955 956 957
v -945.8819 -1103.3716 297.1133
v -946.2930 -1104.1025 290.7134
v -946.2939 -1104.1034 297.1342
f 958 959 960
v -946.2930 -1104.1025 290.7134
v -945.8819 -1103.3716 297.1133
v -945.8811 -1103.3706 290.7135
f 961 962 963
v -943.0856 -1098.4050 289.3449
v -945.8811 -1103.3706 290.7135
v -945.8819 -1103.3716 297.1133
f 964 965 966
v -943.0875 -1098.4071 303.7033
v -943.0856 -1098.4050 289.3449
v -945.8819 -1103.3716 297.1133
f 967 968 969
v -943.0856 -1098.4050 289.3449
v -943.0875 -1098.4071 303.7033
v -940.2576 -1093.3782 299.9278
f 970 971 972
v -945.8811 -1103.3706 290.7135
v -943.0856 -1098.4050 289.3449
v -945.8809 -1103.3704 289.3436
f 973 974 975
v -943.0856 -1098.4050 289.3449
v -940.2576 -1093.3782 299.9278
v -940.2561 -1093.3766 289.3462
f 976 977 978
v -936.2473 -1095.6364 297.0571
v -937.8697 -1094.7210 289.3463
v -937.2501 -1095.0722 299.9419
f 979 980 981
v -937.2501 -1095.0722 299.9419
v -937.8697 -1094.7210 289.3463
v -938.7278 -1094.2402 299.9349
f 982 983 984
v -937.2501 -1095.0722 299.9419
v -936.2476 -1095.6369 299.9470
v -936.2473 -1095.6364 297.0571
f 985 986 987
v -943.0833 -1104.9231 290.7137
v -943.8300 -1104.5089 289.3437
v -941.8579 -1105.6031 289.3438
f 988 989 990
v -942.2835 -1106.3587 293.6345
v -944.1651 -1105.3011 297.1343
v -942.2831 -1106.3583 290.7136
f 991 992 993
v -944.1651 -1105.3011 297.1343
v -946.2939 -1104.1034 297.1342
v -946.2930 -1104.1025 290.7134
f 994 995 996

g building_ID_559832CE-54D0-4C5E-92FC-C1C6280F40D6
v -944.3583 -1091.0682 299.9086
v -945.3744 -1092.8776 301.2660
v -942.3074 -1092.2236 299.9177
f 997 998 999
v -940.2576 -1093.3782 299.9278
v -942.3074 -1092.2236 299.9177
v -943.0875 -1098.4071 303.7033
f 1000 1001 1002
v -943.0875 -1098.4071 303.7033
v -946.2889 -1094.5073 302.4896
v -947.1974 -1096.1260 303.7032
f 1003 1004 1005
v -942.3074 -1092.2236 299.9177
v -946.2889 -1094.5073 302.4896
v -943.0875 -1098.4071 303.7033
f 1006 1007 1008
v -945.3744 -1092.8776 301.2660
v -946.2889 -1094.5073 302.4896
v -942.3074 -1092.2236 299.9177
f 1009 1010 1011
v -947.6471 -1102.5433 299.9071
v -943.0875 -1098.4071 303.7033
v -948.4612 -1098.3784 302.0216
f 1012 1013 1014
v -943.0875 -1098.4071 303.7033
v -947.1974 -1096.1260 303.7032
v -948.4612 -1098.3784 302.0216
f 1015 1016 1017
v -943.0875 -1098.4071 303.7033
v -947.6471 -1102.5433 299.9071
v -945.9547 -1103.5008 299.8982
f 1018 1019 1020
v -950.0394 -1101.1909 299.9210
v -947.6471 -1102.5433 299.9071
v -948.4612 -1098.3784 302.0216
f 1021 1022 1023
v -941.7229 -1092.5507 289.3461
v -944.3583 -1091.0682 299.9086
v -940.2561 -1093.3766 289.3462
f 1024 1025 1026
v -945.5264 -1093.1515 289.3455
v -946.5895 -1095.0436 289.3450
v -945.3744 -1092.8776 301.2660
f 1027 1028 1029
v -947.1974 -1096.1260 303.7032
v -946.2889 -1094.5073 302.4896
v -946.5895 -1095.0436 289.3450
f 1030 1031 1032
v -945.5264 -1093.1515 289.3455
v -945.3744 -1092.8776 301.2660
v -944.3583 -1091.0682 299.9086
f 1033 1034 1035
v -943.0875 -1098.4071 303.7033
v -940.2561 -1093.3766 289.3462
v -940.2576 -1093.3782 299.9278
f 1036 1037 1038
v -943.0875 -1098.4071 303.7033
v -943.0856 -1098.4050 289.3449
v -940.2561 -1093.3766 289.3462
f 1039 1040 1041
v -949.8744 -1101.2819 290.7133
v -949.8753 -1101.2828 297.1161
v -950.0394 -1101.1909 299.9210
f 1042 1043 1044
v -949.8744 -1101.2819 290.7133
v -950.0394 -1101.1909 299.9210
v -950.0380 -1101.1893 289.3434
f 1045 1046 1047
v -945.9532 -1103.4992 289.3436
v -945.9534 -1103.4994 290.7135
v -948.6900 -1101.9509 289.3435
f 1048 1049 1050
v -948.6900 -1101.9509 289.3435
v -945.9534 -1103.4994 290.7135
v -949.8744 -1101.2819 290.7133
f 1051 1052 1053
v -950.0380 -1101.1893 289.3434
v -948.6900 -1101.9509 289.3435
v -949.8744 -1101.2819 290.7133
f 1054 1055 1056
v -948.4612 -1098.3784 302.0216
v -949.3282 -1099.9239 294.2005
v -950.0394 -1101.1909 299.9210
f 1057 1058 1059
v -949.3282 -1099.9239 294.2005
v -949.3276 -1099.9232 289.3437
v -950.0394 -1101.1909 299.9210
f 1060 1061 1062
v -947.1974 -1096.1260 303.7032
v -948.4141 -1098.2956 295.9288
v -948.7087 -1098.8200 297.0497
f 1063 1064 1065
v -947.6335 -1096.9048 289.3445
v -948.4133 -1098.2947 289.7751
v -948.4136 -1098.2950 291.8260
f 1066 1067 1068
v -947.1974 -1096.1260 303.7032
v -948.7087 -1098.8200 297.0497
v -948.4612 -1098.3784 302.0216
f 1069 1070 1071
v -948.4612 -1098.3784 302.0216
v -948.7087 -1098.8200 297.0497
v -948.9779 -1099.3002 296.6996
f 1072 1073 1074
v -948.4612 -1098.3784 302.0216
v -948.9779 -1099.3002 296.6996
v -949.3282 -1099.9239 294.2005
f 1075 1076 1077
v -949.3276 -1099.9232 289.3437
v -950.0380 -1101.1893 289.3434
v -950.0394 -1101.1909 299.9210
f 1078 1079 1080
v -949.0870 -1099.4934 293.2556
v -949.3282 -1099.9239 294.2005
v -949.0871 -1099.4936 294.5266
f 1081 1082 1083
v -948.9779 -1099.3002 296.6996
v -949.0871 -1099.4936 294.5266
v -949.3282 -1099.9239 294.2005
f 1084 1085 1086
v -949.0868 -1099.4932 291.9847
v -949.3276 -1099.9232 289.3437
v -949.3282 -1099.9239 294.2005
f 1087 1088 1089
v -949.3276 -1099.9232 289.3437
v -949.0868 -1099.4932 291.9847
v -949.0866 -1099.4931 290.7137
f 1090 1091 1092
v -949.3276 -1099.9232 289.3437
v -949.0866 -1099.4931 290.7137
v -948.9007 -1099.1586 290.7138
f 1093 1094 1095
v -949.0868 -1099.4932 291.9847
v -949.3282 -1099.9239 294.2005
v -949.0870 -1099.4934 293.2556
f 1096 1097 1098
v -948.6162 -1098.6561 289.3441
v -949.3276 -1099.9232 289.3437
v -948.9007 -1099.1586 290.7138
f 1099 1100 1101
v -948.7135 -1098.8258 295.7817
v -948.7087 -1098.8200 297.0497
v -948.4141 -1098.2956 295.9288
f 1102 1103 1104
v -948.7134 -1098.8246 294.5148
v -948.7135 -1098.8258 295.7817
v -948.4141 -1098.2956 295.9288
f 1105 1106 1107
v -948.4141 -1098.2956 295.9288
v -948.4138 -1098.2944 293.8729
v -948.7134 -1098.8246 294.5148
f 1108 1109 1110
v -948.7108 -1098.8140 290.6969
v -948.7142 -1098.8245 293.2478
v -948.4136 -1098.2950 291.8260
f 1111 1112 1113
v -948.9007 -1099.1586 290.7138
v -948.7108 -1098.8140 290.6969
v -948.6162 -1098.6561 289.3441
f 1114 1115 1116
v -948.4133 -1098.2947 289.7751
v -948.6162 -1098.6561 289.3441
v -948.7108 -1098.8140 290.6969
f 1117 1118 1119
v -947.6335 -1096.9048 289.3445
v -948.6162 -1098.6561 289.3441
v -948.4133 -1098.2947 289.7751
f 1120 1121 1122
v -948.4136 -1098.2950 291.8260
v -948.4133 -1098.2947 289.7751
v -948.7108 -1098.8140 290.6969
f 1123 1124 1125
v -947.6335 -1096.9048 289.3445
v -947.1974 -1096.1260 303.7032
v -946.5895 -1095.0436 289.3450
f 1126 1127 1128
v -941.7229 -1092.5507 289.3461
v -940.2561 -1093.3766 289.3462
v -943.0856 -1098.4050 289.3449
f 1129 1130 1131
v -943.0856 -1098.4050 289.3449
v -946.5895 -1095.0436 289.3450
v -941.7229 -1092.5507 289.3461
f 1132 1133 1134
v -945.5264 -1093.1515 289.3455
v -941.7229 -1092.5507 289.3461
v -946.5895 -1095.0436 289.3450
f 1135 1136 1137
v -941.7229 -1092.5507 289.3461
v -945.5264 -1093.1515 289.3455
v -944.3569 -1091.0666 289.3460
f 1138 1139 1140
v -947.6335 -1096.9048 289.3445
v -946.5895 -1095.0436 289.3450
v -948.6900 -1101.9509 289.3435
f 1141 1142 1143
v -948.6900 -1101.9509 289.3435
v -946.5895 -1095.0436 289.3450
v -943.0856 -1098.4050 289.3449
f 1144 1145 1146
v -948.6900 -1101.9509 289.3435
v -943.0856 -1098.4050 289.3449
v -945.9532 -1103.4992 289.3436
f 1147 1148 1149
v -948.6900 -1101.9509 289.3435
v -949.3276 -1099.9232 289.3437
v -948.6162 -1098.6561 289.3441
f 1150 1151 1152
v -950.0380 -1101.1893 289.3434
v -949.3276 -1099.9232 289.3437
v -948.6900 -1101.9509 289.3435
f 1153 1154 1155
v -948.6162 -1098.6561 289.3441
v -947.6335 -1096.9048 289.3445
v -948.6900 -1101.9509 289.3435
f 1156 1157 1158
v -950.2180 -1101.8910 290.7132
v -949.8753 -1101.2828 297.1161
v -949.8744 -1101.2819 290.7133
f 1159 1160 1161
v -946.2930 -1104.1025 290.7134
v -946.2939 -1104.1034 297.1342
v -950.2180 -1101.8910 290.7132
f 1162 1163 1164
v -950.2189 -1101.8920 297.1330
v -950.2180 -1101.8910 290.7132
v -946.2939 -1104.1034 297.1342
f 1165 1166 1167
v -945.9534 -1103.4994 290.7135
v -945.9543 -1103.5004 297.1173
v -946.2939 -1104.1034 297.1342
f 1168 1169 1170
v -945.9534 -1103.4994 290.7135
v -946.2939 -1104.1034 297.1342
v -946.2930 -1104.1025 290.7134
f 1171 1172 1173
v -947.6387 -1102.5478 297.1162
v -945.9543 -1103.5004 297.1173
v -947.6471 -1102.5433 299.9071
f 1174 1175 1176
v -947.6387 -1102.5478 297.1162
v -947.6471 -1102.5433 299.9071
v -949.8753 -1101.2828 297.1161
f 1177 1178 1179
v -943.0856 -1098.4050 289.3449
v -943.0875 -1098.4071 303.7033
v -945.9543 -1103.5004 297.1173
f 1180 1181 1182
v -945.9547 -1103.5008 299.8982
v -945.9543 -1103.5004 297.1173
v -943.0875 -1098.4071 303.7033
f 1183 1184 1185
v -943.0856 -1098.4050 289.3449
v -945.9534 -1103.4994 290.7135
v -945.9532 -1103.4992 289.3436
f 1186 1187 1188
v -947.6387 -1102.5478 297.1162
v -950.2189 -1101.8920 297.1330
v -945.9543 -1103.5004 297.1173
f 1189 1190 1191
v -950.2189 -1101.8920 297.1330
v -946.2939 -1104.1034 297.1342
v -945.9543 -1103.5004 297.1173
f 1192 1193 1194
v -949.8753 -1101.2828 297.1161
v -950.2189 -1101.8920 297.1330
v -947.6387 -1102.5478 297.1162
f 1195 1196 1197
v -949.0871 -1099.4936 294.5266
v -948.9779 -1099.3002 296.6996
v -948.7135 -1098.8258 295.7817
f 1198 1199 1200
v -949.0868 -1099.4932 291.9847
v -949.0870 -1099.4934 293.2556
v -948.7142 -1098.8245 293.2478
f 1201 1202 1203
v -949.0870 -1099.4934 293.2556
v -949.0871 -1099.4936 294.5266
v -948.7134 -1098.8246 294.5148
f 1204 1205 1206
v -948.7135 -1098.8258 295.7817
v -948.9779 -1099.3002 296.6996
v -948.7087 -1098.8200 297.0497
f 1207 1208 1209
v -949.0868 -1099.4932 291.9847
v -948.7108 -1098.8140 290.6969
v -948.9007 -1099.1586 290.7138
f 1210 1211 1212
v -949.0868 -1099.4932 291.9847
v -948.9007 -1099.1586 290.7138
v -949.0866 -1099.4931 290.7137
f 1213 1214 1215
v -945.9534 -1103.4994 290.7135
v -950.2180 -1101.8910 290.7132
v -949.8744 -1101.2819 290.7133
f 1216 1217 1218
v -946.2930 -1104.1025 290.7134
v -950.2180 -1101.8910 290.7132
v -945.9534 -1103.4994 290.7135
f 1219 1220 1221
v -941.7229 -1092.5507 289.3461
v -944.3569 -1091.0666 289.3460
v -944.3583 -1091.0682 299.9086
f 1222 1223 1224
v -944.3583 -1091.0682 299.9086
v -942.3074 -1092.2236 299.9177
v -940.2561 -1093.3766 289.3462
f 1225 1226 1227
v -942.3074 -1092.2236 299.9177
v -940.2576 -1093.3782 299.9278
v -940.2561 -1093.3766 289.3462
f 1228 1229 1230
v -946.5895 -1095.0436 289.3450
v -946.2889 -1094.5073 302.4896
v -945.3744 -1092.8776 301.2660
f 1231 1232 1233
v -945.5264 -1093.1515 289.3455
v -944.3583 -1091.0682 299.9086
v -944.3569 -1091.0666 289.3460
f 1234 1235 1236
v -948.4138 -1098.2944 293.8729
v -948.4141 -1098.2956 295.9288
v -947.1974 -1096.1260 303.7032
f 1237 1238 1239
v -947.6335 -1096.9048 289.3445
v -948.4136 -1098.2950 291.8260
v -948.4138 -1098.2944 293.8729
f 1240 1241 1242
v -947.6335 -1096.9048 289.3445
v -948.4138 -1098.2944 293.8729
v -947.1974 -1096.1260 303.7032
f 1243 1244 1245
v -948.4138 -1098.2944 293.8729
v -948.7142 -1098.8245 293.2478
v -948.7134 -1098.8246 294.5148
f 1246 1247 1248
v -948.7142 -1098.8245 293.2478
v -948.4138 -1098.2944 293.8729
v -948.4136 -1098.2950 291.8260
f 1249 1250 1251
v -950.2189 -1101.8920 297.1330
v -949.8753 -1101.2828 297.1161
v -950.2180 -1101.8910 290.7132
f 1252 1253 1254
v -947.6471 -1102.5433 299.9071
v -945.9543 -1103.5004 297.1173
v -945.9547 -1103.5008 299.8982
f 1255 1256 1257
v -947.6471 -1102.5433 299.9071
v -950.0394 -1101.1909 299.9210
v -949.8753 -1101.2828 297.1161
f 1258 1259 1260
v -943.0856 -1098.4050 289.3449
v -945.9543 -1103.5004 297.1173
v -945.9534 -1103.4994 290.7135
f 1261 1262 1263
v -949.0871 -1099.4936 294.5266
v -948.7135 -1098.8258 295.7817
v -948.7134 -1098.8246 294.5148
f 1264 1265 1266
v -949.0868 -1099.4932 291.9847
v -948.7142 -1098.8245 293.2478
v -948.7108 -1098.8140 290.6969
f 1267 1268 1269
v -949.0870 -1099.4934 293.2556
v -948.7134 -1098.8246 294.5148
v -948.7142 -1098.8245 293.2478
f 1270 1271 1272

g building_ID_51E20E1C-B42B-41CB-958D-C3AAFAB864E1
v -906.6766 -1103.7641 299.3619
v -916.6011 -1098.7615 299.3613
v -917.1484 -1111.9400 299.3589
f 1273 1274 1275
v -919.9236 -1097.1106 299.3611
v -925.2574 -1107.8462 299.3585
v -916.6011 -1098.7615 299.3613
f 1276 1277 1278
v -906.6766 -1103.7641 299.3619
v -917.1484 -1111.9400 299.3589
v -912.0063 -1114.4937 299.3592
f 1279 1280 1281
v -925.2574 -1107.8462 299.3585
v -917.1484 -1111.9400 299.3589
v -916.6011 -1098.7615 299.3613
f 1282 1283 1284
v -916.5998 -1098.7601 290.1206
v -916.6011 -1098.7615 299.3613
v -906.6766 -1103.7641 299.3619
f 1285 1286 1287
v -925.2570 -1107.8457 296.3716
v -925.2574 -1107.8462 299.3585
v -919.9236 -1097.1106 299.3611
f 1288 1289 1290
v -912.0051 -1114.4923 290.1185
v -912.0063 -1114.4937 299.3592
v -917.1484 -1111.9400 299.3589
f 1291 1292 1293
v -906.6753 -1103.7627 290.1212
v -906.6766 -1103.7641 299.3619
v -912.0063 -1114.4937 299.3592
f 1294 1295 1296
v -906.6753 -1103.7627 290.1212
v -912.0051 -1114.4923 290.1185
v -917.1472 -1111.9386 290.1182
f 1297 1298 1299
v -923.5845 -1108.6893 290.1179
v -916.5998 -1098.7601 290.1206
v -917.1472 -1111.9386 290.1182
f 1300 1301 1302
v -906.6753 -1103.7627 290.1212
v -917.1472 -1111.9386 290.1182
v -916.5998 -1098.7601 290.1206
f 1303 1304 1305
v -918.2446 -1097.9417 290.1205
v -916.5998 -1098.7601 290.1206
v -923.5845 -1108.6893 290.1179
f 1306 1307 1308
v -927.9275 -1106.4967 290.0796
v -927.9283 -1106.4976 296.3714
v -922.5178 -1095.8212 296.3741
f 1309 1310 1311
v -923.5845 -1108.6893 290.0799
v -922.5170 -1095.8202 290.0824
v -918.2446 -1097.9417 290.0826
f 1312 1313 1314
v -922.5170 -1095.8202 290.0824
v -923.5845 -1108.6893 290.0799
v -927.9275 -1106.4967 290.0796
f 1315 1316 1317
v -925.2570 -1107.8457 296.3716
v -919.9233 -1097.1101 296.3742
v -922.5178 -1095.8212 296.3741
f 1318 1319 1320
v -922.5178 -1095.8212 296.3741
v -927.9283 -1106.4976 296.3714
v -925.2570 -1107.8457 296.3716
f 1321 1322 1323
v -918.2446 -1097.9417 290.0826
v -918.2446 -1097.9417 290.1205
v -923.5845 -1108.6893 290.1179
f 1324 1325 1326
v -918.2446 -1097.9417 290.1205
v -922.5170 -1095.8202 290.0824
v -919.9233 -1097.1101 296.3742
f 1327 1328 1329
v -922.5178 -1095.8212 296.3741
v -919.9233 -1097.1101 296.3742
v -922.5170 -1095.8202 290.0824
f 1330 1331 1332
v -919.9233 -1097.1101 296.3742
v -919.9236 -1097.1106 299.3611
v -916.6011 -1098.7615 299.3613
f 1333 1334 1335
v -918.2446 -1097.9417 290.1205
v -919.9233 -1097.1101 296.3742
v -916.5998 -1098.7601 290.1206
f 1336 1337 1338
v -916.6011 -1098.7615 299.3613
v -916.5998 -1098.7601 290.1206
v -919.9233 -1097.1101 296.3742
f 1339 1340 1341
v -922.5170 -1095.8202 290.0824
v -918.2446 -1097.9417 290.1205
v -918.2446 -1097.9417 290.0826
f 1342 1343 1344
v -925.2570 -1107.8457 296.3716
v -923.5845 -1108.6893 290.1179
v -917.1472 -1111.9386 290.1182
f 1345 1346 1347
v -927.9275 -1106.4967 290.0796
v -923.5845 -1108.6893 290.0799
v -923.5845 -1108.6893 290.1179
f 1348 1349 1350
v -925.2570 -1107.8457 296.3716
v -917.1472 -1111.9386 290.1182
v -917.1484 -1111.9400 299.3589
f 1351 1352 1353
v -917.1484 -1111.9400 299.3589
v -925.2574 -1107.8462 299.3585
v -925.2570 -1107.8457 296.3716
f 1354 1355 1356
v -925.2570 -1107.8457 296.3716
v -927.9283 -1106.4976 296.3714
v -927.9275 -1106.4967 290.0796
f 1357 1358 1359
v -923.5845 -1108.6893 290.1179
v -925.2570 -1107.8457 296.3716
v -927.9275 -1106.4967 290.0796
f 1360 1361 1362
v -916.5998 -1098.7601 290.1206
v -906.6766 -1103.7641 299.3619
v -906.6753 -1103.7627 290.1212
f 1363 1364 1365
v -925.2570 -1107.8457 296.3716
v -919.9236 -1097.1106 299.3611
v -919.9233 -1097.1101 296.3742
f 1366 1367 1368
v -912.0051 -1114.4923 290.1185
v -917.1484 -1111.9400 299.3589
v -917.1472 -1111.9386 290.1182
f 1369 1370 1371
v -906.6753 -1103.7627 290.1212
v -912.0063 -1114.4937 299.3592
v -912.0051 -1114.4923 290.1185
f 1372 1373 1374
v -927.9275 -1106.4967 290.0796
v -922.5178 -1095.8212 296.3741
v -922.5170 -1095.8202 290.0824
f 1375 1376 1377
v -918.2446 -1097.9417 290.0826
v -923.5845 -1108.6893 290.1179
v -923.5845 -1108.6893 290.0799
f 1378 1379 1380

g building_ID_80558A61-D49C-42E1-BEEE-8F27971A501B
v -892.7190 -1134.3667 301.6643
v -889.4235 -1136.0295 301.6854
v -886.7250 -1130.7884 305.8366
f 1381 1382 1383
v -892.7190 -1134.3667 301.6643
v -886.7250 -1130.7884 305.8366
v -897.9849 -1131.7085 301.6311
f 1384 1385 1386
v -906.9350 -1120.3842 305.8356
v -897.9849 -1131.7085 301.6311
v -886.7250 -1130.7884 305.8366
f 1387 1388 1389
v -906.9350 -1120.3842 305.8356
v -909.6257 -1125.7153 301.6305
v -897.9849 -1131.7085 301.6311
f 1390 1391 1392
v -904.2703 -1115.1048 301.8541
v -906.9350 -1120.3842 305.8356
v -895.3604 -1119.6007 301.7996
f 1393 1394 1395
v -892.6641 -1120.9609 301.7827
v -895.2488 -1119.3809 301.6336
v -895.3604 -1119.6007 301.7996
f 1396 1397 1398
v -895.3604 -1119.6007 301.7996
v -906.9350 -1120.3842 305.8356
v -886.7250 -1130.7884 305.8366
f 1399 1400 1401
v -895.2488 -1119.3809 301.6336
v -892.6641 -1120.9609 301.7827
v -892.5645 -1120.7631 301.6338
f 1402 1403 1404
v -892.6641 -1120.9609 301.7827
v -886.7250 -1130.7884 305.8366
v -883.9330 -1125.3652 301.7292
f 1405 1406 1407
v -886.7250 -1130.7884 305.8366
v -892.6641 -1120.9609 301.7827
v -895.3604 -1119.6007 301.7996
f 1408 1409 1410
v -909.6257 -1125.7153 301.6305
v -897.9836 -1131.7072 292.3024
v -897.9849 -1131.7085 301.6311
f 1411 1412 1413
v -909.6257 -1125.7153 301.6305
v -909.6245 -1125.7139 292.3018
v -897.9836 -1131.7072 292.3024
f 1414 1415 1416
v -894.7733 -1133.3280 294.6144
v -892.2825 -1134.5844 292.3027
v -892.7190 -1134.3667 301.6643
f 1417 1418 1419
v -889.4223 -1136.0281 292.3028
v -889.4235 -1136.0295 301.6854
v -892.7190 -1134.3667 301.6643
f 1420 1421 1422
v -892.2825 -1134.5844 292.3027
v -894.7733 -1133.3280 294.6144
v -897.9836 -1131.7072 292.3024
f 1423 1424 1425
v -892.6629 -1120.9595 292.3050
v -892.5634 -1120.7617 292.3051
v -892.5645 -1120.7631 301.6338
f 1426 1427 1428
v -892.5634 -1120.7617 292.3051
v -895.2476 -1119.3796 292.3049
v -895.2488 -1119.3809 301.6336
f 1429 1430 1431
v -895.3592 -1119.5993 292.3049
v -895.3604 -1119.6007 301.7996
v -895.2488 -1119.3809 301.6336
f 1432 1433 1434
v -895.3592 -1119.5993 292.3049
v -895.2488 -1119.3809 301.6336
v -895.2476 -1119.3796 292.3049
f 1435 1436 1437
v -895.3592 -1119.5993 292.3049
v -904.2691 -1115.1033 292.3044
v -904.2694 -1115.1037 294.6913
f 1438 1439 1440
v -904.2703 -1115.1048 301.8541
v -895.3604 -1119.6007 301.7996
v -895.3592 -1119.5993 292.3049
f 1441 1442 1443
v -883.9330 -1125.3652 301.7292
v -883.9321 -1125.3642 294.6214
v -892.6629 -1120.9595 292.3050
f 1444 1445 1446
v -892.6629 -1120.9595 292.3050
v -883.9321 -1125.3642 294.6214
v -883.9318 -1125.3638 292.3055
f 1447 1448 1449
v -886.7233 -1130.7864 292.3041
v -889.4223 -1136.0281 292.3028
v -892.2825 -1134.5844 292.3027
f 1450 1451 1452
v -897.9836 -1131.7072 292.3024
v -886.7233 -1130.7864 292.3041
v -892.2825 -1134.5844 292.3027
f 1453 1454 1455
v -883.9318 -1125.3638 292.3055
v -886.7233 -1130.7864 292.3041
v -892.6629 -1120.9595 292.3050
f 1456 1457 1458
v -906.9332 -1120.3821 292.3031
v -895.3592 -1119.5993 292.3049
v -897.9836 -1131.7072 292.3024
f 1459 1460 1461
v -895.3592 -1119.5993 292.3049
v -906.9332 -1120.3821 292.3031
v -904.2691 -1115.1033 292.3044
f 1462 1463 1464
v -909.6245 -1125.7139 292.3018
v -906.9332 -1120.3821 292.3031
v -897.9836 -1131.7072 292.3024
f 1465 1466 1467
v -895.2476 -1119.3796 292.3049
v -892.5634 -1120.7617 292.3051
v -892.6629 -1120.9595 292.3050
f 1468 1469 1470
v -895.3592 -1119.5993 292.3049
v -892.6629 -1120.9595 292.3050
v -886.7233 -1130.7864 292.3041
f 1471 1472 1473
v -895.2476 -1119.3796 292.3049
v -892.6629 -1120.9595 292.3050
v -895.3592 -1119.5993 292.3049
f 1474 1475 1476
v -895.3592 -1119.5993 292.3049
v -886.7233 -1130.7864 292.3041
v -897.9836 -1131.7072 292.3024
f 1477 1478 1479
v -906.9332 -1120.3821 292.3031
v -909.6245 -1125.7139 292.3018
v -909.6257 -1125.7153 301.6305
f 1480 1481 1482
v -906.9332 -1120.3821 292.3031
v -904.2694 -1115.1037 294.6913
v -904.2691 -1115.1033 292.3044
f 1483 1484 1485
v -904.2694 -1115.1037 294.6913
v -906.9332 -1120.3821 292.3031
v -909.6257 -1125.7153 301.6305
f 1486 1487 1488
v -906.9350 -1120.3842 305.8356
v -904.2703 -1115.1048 301.8541
v -904.2694 -1115.1037 294.6913
f 1489 1490 1491
v -909.6257 -1125.7153 301.6305
v -906.9350 -1120.3842 305.8356
v -904.2694 -1115.1037 294.6913
f 1492 1493 1494
v -883.9321 -1125.3642 294.6214
v -883.9330 -1125.3652 301.7292
v -886.7250 -1130.7884 305.8366
f 1495 1496 1497
v -883.9321 -1125.3642 294.6214
v -886.7233 -1130.7864 292.3041
v -883.9318 -1125.3638 292.3055
f 1498 1499 1500
v -889.4235 -1136.0295 301.6854
v -883.9321 -1125.3642 294.6214
v -886.7250 -1130.7884 305.8366
f 1501 1502 1503
v -886.7233 -1130.7864 292.3041
v -889.4235 -1136.0295 301.6854
v -889.4223 -1136.0281 292.3028
f 1504 1505 1506
v -883.9321 -1125.3642 294.6214
v -889.4235 -1136.0295 301.6854
v -886.7233 -1130.7864 292.3041
f 1507 1508 1509
v -894.7733 -1133.3280 294.6144
v -892.7190 -1134.3667 301.6643
v -897.9849 -1131.7085 301.6311
f 1510 1511 1512
v -889.4223 -1136.0281 292.3028
v -892.7190 -1134.3667 301.6643
v -892.2825 -1134.5844 292.3027
f 1513 1514 1515
v -897.9836 -1131.7072 292.3024
v -894.7733 -1133.3280 294.6144
v -897.9849 -1131.7085 301.6311
f 1516 1517 1518
v -892.5645 -1120.7631 301.6338
v -892.6641 -1120.9609 301.7827
v -892.6629 -1120.9595 292.3050
f 1519 1520 1521
v -895.2488 -1119.3809 301.6336
v -892.5645 -1120.7631 301.6338
v -892.5634 -1120.7617 292.3051
f 1522 1523 1524
v -904.2694 -1115.1037 294.6913
v -904.2703 -1115.1048 301.8541
v -895.3592 -1119.5993 292.3049
f 1525 1526 1527
v -892.6641 -1120.9609 301.7827
v -883.9330 -1125.3652 301.7292
v -892.6629 -1120.9595 292.3050
f 1528 1529 1530

g building_ID_CF74BE25-3585-473D-8CB0-481EADA894AC
v -897.3893 -1164.4657 306.3250
v -904.7399 -1154.0767 310.3937
v -907.4307 -1159.4037 306.3305
f 1531 1532 1533
v -904.7399 -1154.0767 310.3937
v -897.3893 -1164.4657 306.3250
v -884.6272 -1164.1955 310.3947
f 1534 1535 1536
v -887.3170 -1169.5437 306.3194
v -884.6272 -1164.1955 310.3947
v -897.3893 -1164.4657 306.3250
f 1537 1538 1539
v -884.6272 -1164.1955 310.3947
v -902.0411 -1148.7343 306.1913
v -904.7399 -1154.0767 310.3937
f 1540 1541 1542
v -902.0411 -1148.7343 306.1913
v -884.6272 -1164.1955 310.3947
v -881.9373 -1158.8501 306.1921
f 1543 1544 1545
v -887.3167 -1169.5433 303.9235
v -887.3170 -1169.5437 306.3194
v -897.3893 -1164.4657 306.3250
f 1546 1547 1548
v -907.4295 -1159.4023 296.7229
v -887.3158 -1169.5421 296.7238
v -887.3167 -1169.5433 303.9235
f 1549 1550 1551
v -887.3167 -1169.5433 303.9235
v -897.3893 -1164.4657 306.3250
v -907.4307 -1159.4037 306.3305
f 1552 1553 1554
v -902.0399 -1148.7328 296.7256
v -902.0411 -1148.7343 306.1913
v -881.9373 -1158.8501 306.1921
f 1555 1556 1557
v -902.0399 -1148.7328 296.7256
v -881.9362 -1158.8486 296.7265
v -884.6255 -1164.1934 296.7252
f 1558 1559 1560
v -887.3158 -1169.5421 296.7238
v -907.4295 -1159.4023 296.7229
v -884.6255 -1164.1934 296.7252
f 1561 1562 1563
v -907.4295 -1159.4023 296.7229
v -902.0399 -1148.7328 296.7256
v -884.6255 -1164.1934 296.7252
f 1564 1565 1566
v -907.4307 -1159.4037 306.3305
v -904.7399 -1154.0767 310.3937
v -902.0411 -1148.7343 306.1913
f 1567 1568 1569
v -902.0399 -1148.7328 296.7256
v -907.4295 -1159.4023 296.7229
v -902.0411 -1148.7343 306.1913
f 1570 1571 1572
v -902.0411 -1148.7343 306.1913
v -907.4295 -1159.4023 296.7229
v -907.4307 -1159.4037 306.3305
f 1573 1574 1575
v -887.3167 -1169.5433 303.9235
v -881.9373 -1158.8501 306.1921
v -884.6272 -1164.1955 310.3947
f 1576 1577 1578
v -881.9373 -1158.8501 306.1921
v -884.6255 -1164.1934 296.7252
v -881.9362 -1158.8486 296.7265
f 1579 1580 1581
v -887.3170 -1169.5437 306.3194
v -887.3167 -1169.5433 303.9235
v -884.6272 -1164.1955 310.3947
f 1582 1583 1584
v -884.6255 -1164.1934 296.7252
v -887.3167 -1169.5433 303.9235
v -887.3158 -1169.5421 296.7238
f 1585 1586 1587
v -881.9373 -1158.8501 306.1921
v -887.3167 -1169.5433 303.9235
v -884.6255 -1164.1934 296.7252
f 1588 1589 1590
v -907.4307 -1159.4037 306.3305
v -907.4295 -1159.4023 296.7229
v -887.3167 -1169.5433 303.9235
f 1591 1592 1593
v -902.0399 -1148.7328 296.7256
v -881.9373 -1158.8501 306.1921
v -881.9362 -1158.8486 296.7265
f 1594 1595 1596
