# Grid Center: 2614400, 1263000
# Global Anchor: 7.64977475454284, 47.53283995868075, 0.0

g building_ID_85AC4885-58C0-404D-A5D1-C4B44EE76155
v -1678.9546 -1656.7174 336.4913
v -1672.0531 -1657.0059 331.5162
v -1675.9486 -1653.4363 331.5162
f 1 2 3
v -1672.0531 -1657.0059 331.5162
v -1678.9546 -1656.7174 336.4913
v -1675.0592 -1660.2870 336.4914
f 4 5 6
v -1681.7957 -1659.8177 331.6470
v -1675.0592 -1660.2870 336.4914
v -1678.9546 -1656.7174 336.4913
f 7 8 9
v -1677.9785 -1663.4729 331.5130
v -1681.7957 -1659.8177 331.6470
v -1681.8739 -1659.9035 331.5129
f 10 11 12
v -1675.0592 -1660.2870 336.4914
v -1681.7957 -1659.8177 331.6470
v -1677.9785 -1663.4729 331.5130
f 13 14 15
v -1678.8578 -1664.4312 330.4095
v -1681.8739 -1659.9035 331.5129
v -1682.7572 -1660.8678 330.4034
f 16 17 18
v -1681.8739 -1659.9035 331.5129
v -1678.8578 -1664.4312 330.4095
v -1677.9785 -1663.4729 331.5130
f 19 20 21
v -1675.3816 -1653.4758 331.2233
v -1672.0531 -1657.0059 331.5162
v -1671.8194 -1656.7503 331.2294
f 22 23 24
v -1675.8453 -1653.3226 331.3892
v -1672.0531 -1657.0059 331.5162
v -1675.3816 -1653.4758 331.2233
f 25 26 27
v -1675.3816 -1653.4758 331.2233
v -1675.6415 -1653.1011 331.1393
v -1675.8453 -1653.3226 331.3892
f 28 29 30
v -1675.8453 -1653.3226 331.3892
v -1675.9486 -1653.4363 331.5162
v -1672.0531 -1657.0059 331.5162
f 31 32 33
v -1675.6415 -1653.1011 331.1393
v -1675.3816 -1653.4758 331.2233
v -1675.3143 -1653.4019 331.1403
f 34 35 36
v -1672.0508 -1657.0036 321.9486
v -1675.0555 -1660.2835 321.9470
v -1677.5764 -1657.9737 321.9469
f 37 38 39
v -1675.0555 -1660.2835 321.9470
v -1677.9761 -1663.4706 321.9454
v -1680.3608 -1661.1302 321.9454
f 40 41 42
v -1674.4084 -1654.6342 321.9486
v -1674.2750 -1654.4886 321.9487
v -1671.8171 -1656.7482 321.9488
f 43 44 45
v -1671.8171 -1656.7482 321.9488
v -1672.0508 -1657.0036 321.9486
v -1674.4084 -1654.6342 321.9486
f 46 47 48
v -1681.3206 -1662.1767 321.9449
v -1677.9761 -1663.4706 321.9454
v -1678.8557 -1664.4292 321.9449
f 49 50 51
v -1677.9761 -1663.4706 321.9454
v -1681.3206 -1662.1767 321.9449
v -1680.3608 -1661.1302 321.9454
f 52 53 54
v -1677.5764 -1657.9737 321.9469
v -1680.3608 -1661.1302 321.9454
v -1680.4197 -1661.0761 321.9454
f 55 56 57
v -1674.4672 -1654.5800 321.9486
v -1674.4084 -1654.6342 321.9486
v -1677.5764 -1657.9737 321.9469
f 58 59 60
v -1677.5764 -1657.9737 321.9469
v -1674.4084 -1654.6342 321.9486
v -1672.0508 -1657.0036 321.9486
f 61 62 63
v -1680.3608 -1661.1302 321.9454
v -1677.5764 -1657.9737 321.9469
v -1675.0555 -1660.2835 321.9470
f 64 65 66
v -1685.9031 -1644.1052 329.8560
v -1686.9047 -1642.8794 329.3181
v -1695.2304 -1644.8047 327.7705
f 67 68 69
v -1695.2304 -1644.8047 327.7705
v -1696.8693 -1646.5943 327.8066
v -1685.9031 -1644.1052 329.8560
f 70 71 72
v -1690.4685 -1639.6025 327.6671
v -1695.2304 -1644.8047 327.7705
v -1686.9047 -1642.8794 329.3181
f 73 74 75
v -1695.2304 -1644.8047 327.7705
v -1690.4685 -1639.6025 327.6671
v -1693.4592 -1642.8708 311.9021
f 76 77 78
v -1690.4665 -1639.6007 319.7524
v -1690.4644 -1639.5988 311.8367
v -1693.4592 -1642.8708 311.9021
f 79 80 81
v -1685.8991 -1644.1016 314.0257
v -1685.9031 -1644.1052 329.8560
v -1696.8693 -1646.5943 327.8066
f 82 83 84
v -1685.8991 -1644.1016 314.0257
v -1696.8693 -1646.5943 327.8066
v -1696.8652 -1646.5906 311.9762
f 85 86 87
v -1685.8991 -1644.1016 314.0257
v -1696.8652 -1646.5906 311.9762
v -1686.9007 -1642.8758 313.4877
f 88 89 90
v -1690.4644 -1639.5988 311.8367
v -1686.9007 -1642.8758 313.4877
v -1693.4592 -1642.8708 311.9021
f 91 92 93
v -1693.4592 -1642.8708 311.9021
v -1686.9007 -1642.8758 313.4877
v -1696.8652 -1646.5906 311.9762
f 94 95 96
v -1686.1327 -1643.5896 329.6831
v -1686.9047 -1642.8794 329.3181
v -1685.9031 -1644.1052 329.8560
f 97 98 99
v -1686.1287 -1643.5859 313.8527
v -1685.8991 -1644.1016 314.0257
v -1686.9007 -1642.8758 313.4877
f 100 101 102
v -1677.5757 -1657.9731 319.5000
v -1689.0095 -1647.4955 319.4998
v -1685.8991 -1644.1016 314.0257
f 103 104 105
v -1685.8991 -1644.1016 314.0257
v -1674.4652 -1654.5782 314.0259
v -1677.5757 -1657.9731 319.5000
f 106 107 108
v -1679.0203 -1650.1209 313.8649
v -1679.0242 -1650.1247 329.6953
v -1678.9570 -1650.0509 329.6183
f 109 110 111
v -1678.9570 -1650.0509 329.6183
v -1678.9530 -1650.0471 313.7879
v -1679.0203 -1650.1209 313.8649
f 112 113 114
v -1675.3100 -1653.3979 313.7950
v -1675.3772 -1653.4717 313.8720
v -1678.9530 -1650.0471 313.7879
f 115 116 117
v -1674.4652 -1654.5782 314.0259
v -1679.0203 -1650.1209 313.8649
v -1675.3772 -1653.4717 313.8720
f 118 119 120
v -1674.4652 -1654.5782 314.0259
v -1674.2729 -1654.4867 313.8740
v -1674.4064 -1654.6324 314.0259
f 121 122 123
v -1675.3772 -1653.4717 313.8720
v -1674.2729 -1654.4867 313.8740
v -1674.4652 -1654.5782 314.0259
f 124 125 126
v -1674.4652 -1654.5782 314.0259
v -1685.8991 -1644.1016 314.0257
v -1679.0203 -1650.1209 313.8649
f 127 128 129
v -1675.3772 -1653.4717 313.8720
v -1679.0203 -1650.1209 313.8649
v -1678.9530 -1650.0471 313.7879
f 130 131 132
v -1679.0203 -1650.1209 313.8649
v -1685.8991 -1644.1016 314.0257
v -1686.1287 -1643.5859 313.8527
f 133 134 135
v -1695.4342 -1649.8694 328.4040
v -1689.0122 -1647.4979 329.8544
v -1685.9031 -1644.1052 329.8560
f 136 137 138
v -1689.0122 -1647.4979 329.8544
v -1695.4342 -1649.8694 328.4040
v -1691.8555 -1650.6013 329.8528
f 139 140 141
v -1695.4302 -1649.8656 312.5736
v -1695.4342 -1649.8694 328.4040
v -1685.8991 -1644.1016 314.0257
f 142 143 144
v -1688.8761 -1647.3498 315.3929
v -1685.8991 -1644.1016 314.0257
v -1688.8769 -1647.3506 318.1308
f 145 146 147
v -1689.0095 -1647.4955 319.4998
v -1688.8769 -1647.3506 318.1308
v -1685.8991 -1644.1016 314.0257
f 148 149 150
v -1691.8515 -1650.5976 314.0224
v -1688.8761 -1647.3498 315.3929
v -1688.8769 -1647.3506 318.1308
f 151 152 153
v -1689.0082 -1647.4942 314.0240
v -1685.8991 -1644.1016 314.0257
v -1688.8761 -1647.3498 315.3929
f 154 155 156
v -1688.8761 -1647.3498 315.3929
v -1691.8515 -1650.5976 314.0224
v -1689.0082 -1647.4942 314.0240
f 157 158 159
v -1689.0095 -1647.4955 319.4998
v -1691.8515 -1650.5976 314.0224
v -1688.8769 -1647.3506 318.1308
f 160 161 162
v -1695.4302 -1649.8656 312.5736
v -1685.8991 -1644.1016 314.0257
v -1689.0082 -1647.4942 314.0240
f 163 164 165
v -1689.0082 -1647.4942 314.0240
v -1691.8515 -1650.5976 314.0224
v -1695.4302 -1649.8656 312.5736
f 166 167 168
v -1689.0095 -1647.4955 319.4998
v -1677.5757 -1657.9731 319.5000
v -1680.4177 -1661.0742 314.0227
f 169 170 171
v -1680.4177 -1661.0742 314.0227
v -1691.8515 -1650.5976 314.0224
v -1689.0095 -1647.4955 319.4998
f 172 173 174
v -1686.0777 -1657.8305 324.7936
v -1686.0786 -1657.8316 328.7514
v -1685.9393 -1657.6802 313.0751
f 175 176 177
v -1686.0756 -1657.8287 316.8789
v -1686.0777 -1657.8305 324.7936
v -1685.9393 -1657.6802 313.0751
f 178 179 180
v -1685.9433 -1657.6839 328.9055
v -1690.4881 -1653.5307 328.8994
v -1685.9393 -1657.6802 313.0751
f 181 182 183
v -1690.4881 -1653.5307 328.8994
v -1690.4871 -1653.5298 324.9416
v -1685.9393 -1657.6802 313.0751
f 184 185 186
v -1685.9393 -1657.6802 313.0751
v -1690.4871 -1653.5298 324.9416
v -1690.4841 -1653.5270 313.0690
f 187 188 189
v -1680.4177 -1661.0742 314.0227
v -1680.3588 -1661.1284 314.0227
v -1681.3183 -1662.1755 312.9272
f 190 191 192
v -1685.9393 -1657.6802 313.0751
v -1680.4177 -1661.0742 314.0227
v -1681.3183 -1662.1755 312.9272
f 193 194 195
v -1681.3183 -1662.1755 312.9272
v -1686.0747 -1657.8278 312.9210
v -1685.9393 -1657.6802 313.0751
f 196 197 198
v -1690.4841 -1653.5270 313.0690
v -1691.8515 -1650.5976 314.0224
v -1685.9393 -1657.6802 313.0751
f 199 200 201
v -1690.4841 -1653.5270 313.0690
v -1690.9183 -1653.9987 312.5738
v -1695.4302 -1649.8656 312.5736
f 202 203 204
v -1695.4302 -1649.8656 312.5736
v -1691.8515 -1650.5976 314.0224
v -1690.4841 -1653.5270 313.0690
f 205 206 207
v -1691.8515 -1650.5976 314.0224
v -1680.4177 -1661.0742 314.0227
v -1685.9393 -1657.6802 313.0751
f 208 209 210
v -1690.9223 -1654.0025 328.4042
v -1695.4342 -1649.8694 328.4040
v -1691.0206 -1654.1082 328.3381
f 211 212 213
v -1700.4955 -1650.5563 326.5946
v -1691.0206 -1654.1082 328.3381
v -1695.4342 -1649.8694 328.4040
f 214 215 216
v -1695.4342 -1649.8694 328.4040
v -1695.4302 -1649.8656 312.5736
v -1700.4916 -1650.5526 310.7642
f 217 218 219
v -1695.4342 -1649.8694 328.4040
v -1700.4916 -1650.5526 310.7642
v -1700.4955 -1650.5563 326.5946
f 220 221 222
v -1695.4302 -1649.8656 312.5736
v -1690.9183 -1653.9987 312.5738
v -1700.4916 -1650.5526 310.7642
f 223 224 225
v -1691.0165 -1654.1044 312.5077
v -1700.4916 -1650.5526 310.7642
v -1690.9183 -1653.9987 312.5738
f 226 227 228
v -1675.9482 -1653.4360 330.0403
v -1685.9031 -1644.1052 329.8560
v -1689.0136 -1647.4992 335.3302
f 229 230 231
v -1675.8449 -1653.3223 329.8563
v -1685.9031 -1644.1052 329.8560
v -1675.9482 -1653.4360 330.0403
f 232 233 234
v -1678.9543 -1656.7172 335.3303
v -1675.9482 -1653.4360 330.0403
v -1689.0136 -1647.4992 335.3302
f 235 236 237
v -1685.9031 -1644.1052 329.8560
v -1675.8449 -1653.3223 329.8563
v -1679.0242 -1650.1247 329.6953
f 238 239 240
v -1675.6412 -1653.1007 329.6254
v -1679.0242 -1650.1247 329.6953
v -1675.8449 -1653.3223 329.8563
f 241 242 243
v -1675.6412 -1653.1007 329.6254
v -1678.9570 -1650.0509 329.6183
v -1679.0242 -1650.1247 329.6953
f 244 245 246
v -1679.0242 -1650.1247 329.6953
v -1686.1327 -1643.5896 329.6831
v -1685.9031 -1644.1052 329.8560
f 247 248 249
v -1674.4064 -1654.6324 314.0259
v -1674.4084 -1654.6342 321.9486
v -1674.4672 -1654.5800 321.9486
f 250 251 252
v -1674.2729 -1654.4867 313.8740
v -1674.2750 -1654.4886 321.9487
v -1674.4064 -1654.6324 314.0259
f 253 254 255
v -1689.0136 -1647.4992 335.3302
v -1681.7962 -1659.8182 329.8531
v -1678.9543 -1656.7172 335.3303
f 256 257 258
v -1681.7962 -1659.8182 329.8531
v -1689.0136 -1647.4992 335.3302
v -1691.8555 -1650.6013 329.8528
f 259 260 261
v -1690.4881 -1653.5307 328.8994
v -1685.9433 -1657.6839 328.9055
v -1681.8734 -1659.9030 329.7650
f 262 263 264
v -1681.7962 -1659.8182 329.8531
v -1691.8555 -1650.6013 329.8528
v -1681.8734 -1659.9030 329.7650
f 265 266 267
v -1682.7568 -1660.8675 328.7555
v -1681.8734 -1659.9030 329.7650
v -1685.9433 -1657.6839 328.9055
f 268 269 270
v -1686.0786 -1657.8316 328.7514
v -1682.7568 -1660.8675 328.7555
v -1685.9433 -1657.6839 328.9055
f 271 272 273
v -1690.4881 -1653.5307 328.8994
v -1695.4342 -1649.8694 328.4040
v -1690.9223 -1654.0025 328.4042
f 274 275 276
v -1695.4342 -1649.8694 328.4040
v -1690.4881 -1653.5307 328.8994
v -1691.8555 -1650.6013 329.8528
f 277 278 279
v -1690.4881 -1653.5307 328.8994
v -1681.8734 -1659.9030 329.7650
v -1691.8555 -1650.6013 329.8528
f 280 281 282
v -1680.3588 -1661.1284 314.0227
v -1680.3608 -1661.1302 321.9454
v -1681.3206 -1662.1767 321.9449
f 283 284 285
v -1680.4177 -1661.0742 314.0227
v -1680.4197 -1661.0761 321.9454
v -1680.3608 -1661.1302 321.9454
f 286 287 288
v -1678.8578 -1664.4312 330.4095
v -1682.7568 -1660.8675 328.7555
v -1678.8557 -1664.4292 321.9449
f 289 290 291
v -1678.8557 -1664.4292 321.9449
v -1682.7568 -1660.8675 328.7555
v -1681.3206 -1662.1767 321.9449
f 292 293 294
v -1681.3206 -1662.1767 321.9449
v -1686.0756 -1657.8287 316.8789
v -1681.3183 -1662.1755 312.9272
f 295 296 297
v -1682.7572 -1660.8678 330.4034
v -1682.7568 -1660.8675 328.7555
v -1678.8578 -1664.4312 330.4095
f 298 299 300
v -1686.0777 -1657.8305 324.7936
v -1682.7568 -1660.8675 328.7555
v -1686.0786 -1657.8316 328.7514
f 301 302 303
v -1686.0756 -1657.8287 316.8789
v -1686.0747 -1657.8278 312.9210
v -1681.3183 -1662.1755 312.9272
f 304 305 306
v -1686.0777 -1657.8305 324.7936
v -1686.0756 -1657.8287 316.8789
v -1681.3206 -1662.1767 321.9449
f 307 308 309
v -1681.3206 -1662.1767 321.9449
v -1682.7568 -1660.8675 328.7555
v -1686.0777 -1657.8305 324.7936
f 310 311 312
v -1672.0531 -1657.0059 331.5162
v -1677.9785 -1663.4729 331.5130
v -1671.8171 -1656.7482 321.9488
f 313 314 315
v -1671.8194 -1656.7503 331.2294
v -1672.0531 -1657.0059 331.5162
v -1671.8171 -1656.7482 321.9488
f 316 317 318
v -1677.9785 -1663.4729 331.5130
v -1672.0508 -1657.0036 321.9486
v -1671.8171 -1656.7482 321.9488
f 319 320 321
v -1677.9785 -1663.4729 331.5130
v -1672.0531 -1657.0059 331.5162
v -1675.0592 -1660.2870 336.4914
f 322 323 324
v -1675.0555 -1660.2835 321.9470
v -1677.9785 -1663.4729 331.5130
v -1678.8578 -1664.4312 330.4095
f 325 326 327
v -1678.8578 -1664.4312 330.4095
v -1677.9761 -1663.4706 321.9454
v -1675.0555 -1660.2835 321.9470
f 328 329 330
v -1678.8578 -1664.4312 330.4095
v -1678.8557 -1664.4292 321.9449
v -1677.9761 -1663.4706 321.9454
f 331 332 333
v -1672.0508 -1657.0036 321.9486
v -1677.9785 -1663.4729 331.5130
v -1675.0555 -1660.2835 321.9470
f 334 335 336
v -1675.3100 -1653.3979 313.7950
v -1678.9530 -1650.0471 313.7879
v -1678.9570 -1650.0509 329.6183
f 337 338 339
v -1675.6412 -1653.1007 329.6254
v -1675.6415 -1653.1011 331.1393
v -1675.3143 -1653.4019 331.1403
f 340 341 342
v -1678.9570 -1650.0509 329.6183
v -1675.6412 -1653.1007 329.6254
v -1675.3100 -1653.3979 313.7950
f 343 344 345
v -1675.3143 -1653.4019 331.1403
v -1675.3100 -1653.3979 313.7950
v -1675.6412 -1653.1007 329.6254
f 346 347 348
v -1690.4665 -1639.6007 319.7524
v -1690.4685 -1639.6025 327.6671
v -1686.9047 -1642.8794 329.3181
f 349 350 351
v -1686.9007 -1642.8758 313.4877
v -1690.4644 -1639.5988 311.8367
v -1690.4665 -1639.6007 319.7524
f 352 353 354
v -1690.4665 -1639.6007 319.7524
v -1686.1287 -1643.5859 313.8527
v -1686.9007 -1642.8758 313.4877
f 355 356 357
v -1686.1287 -1643.5859 313.8527
v -1690.4665 -1639.6007 319.7524
v -1686.9047 -1642.8794 329.3181
f 358 359 360
v -1679.0242 -1650.1247 329.6953
v -1679.0203 -1650.1209 313.8649
v -1686.1287 -1643.5859 313.8527
f 361 362 363
v -1679.0242 -1650.1247 329.6953
v -1686.1287 -1643.5859 313.8527
v -1686.1327 -1643.5896 329.6831
f 364 365 366
v -1686.9047 -1642.8794 329.3181
v -1686.1327 -1643.5896 329.6831
v -1686.1287 -1643.5859 313.8527
f 367 368 369
v -1674.2750 -1654.4886 321.9487
v -1674.2729 -1654.4867 313.8740
v -1675.3772 -1653.4717 313.8720
f 370 371 372
v -1675.3816 -1653.4758 331.2233
v -1674.2750 -1654.4886 321.9487
v -1675.3772 -1653.4717 313.8720
f 373 374 375
v -1671.8171 -1656.7482 321.9488
v -1674.2750 -1654.4886 321.9487
v -1671.8194 -1656.7503 331.2294
f 376 377 378
v -1675.3816 -1653.4758 331.2233
v -1671.8194 -1656.7503 331.2294
v -1674.2750 -1654.4886 321.9487
f 379 380 381
v -1675.3143 -1653.4019 331.1403
v -1675.3772 -1653.4717 313.8720
v -1675.3100 -1653.3979 313.7950
f 382 383 384
v -1675.3772 -1653.4717 313.8720
v -1675.3143 -1653.4019 331.1403
v -1675.3816 -1653.4758 331.2233
f 385 386 387
v -1689.0122 -1647.4979 329.8544
v -1691.8555 -1650.6013 329.8528
v -1689.0136 -1647.4992 335.3302
f 388 389 390
v -1689.0136 -1647.4992 335.3302
v -1685.9031 -1644.1052 329.8560
v -1689.0122 -1647.4979 329.8544
f 391 392 393
v -1690.4881 -1653.5307 328.8994
v -1690.9223 -1654.0025 328.4042
v -1690.4871 -1653.5298 324.9416
f 394 395 396
v -1691.0206 -1654.1082 328.3381
v -1690.4871 -1653.5298 324.9416
v -1690.9223 -1654.0025 328.4042
f 397 398 399
v -1690.4871 -1653.5298 324.9416
v -1691.0206 -1654.1082 328.3381
v -1690.4841 -1653.5270 313.0690
f 400 401 402
v -1690.9183 -1653.9987 312.5738
v -1690.4841 -1653.5270 313.0690
v -1691.0165 -1654.1044 312.5077
f 403 404 405
v -1691.0165 -1654.1044 312.5077
v -1690.4841 -1653.5270 313.0690
v -1691.0206 -1654.1082 328.3381
f 406 407 408
v -1674.4672 -1654.5800 321.9486
v -1677.5757 -1657.9731 319.5000
v -1674.4652 -1654.5782 314.0259
f 409 410 411
v -1680.4197 -1661.0761 321.9454
v -1677.5757 -1657.9731 319.5000
v -1677.5764 -1657.9737 321.9469
f 412 413 414
v -1674.4672 -1654.5800 321.9486
v -1677.5764 -1657.9737 321.9469
v -1677.5757 -1657.9731 319.5000
f 415 416 417
v -1680.4177 -1661.0742 314.0227
v -1677.5757 -1657.9731 319.5000
v -1680.4197 -1661.0761 321.9454
f 418 419 420
v -1678.9543 -1656.7172 335.3303
v -1681.7957 -1659.8177 331.6470
v -1678.9546 -1656.7174 336.4913
f 421 422 423
v -1675.9486 -1653.4363 331.5162
v -1678.9543 -1656.7172 335.3303
v -1678.9546 -1656.7174 336.4913
f 424 425 426
v -1681.7957 -1659.8177 331.6470
v -1681.7962 -1659.8182 329.8531
v -1681.8739 -1659.9035 331.5129
f 427 428 429
v -1681.7962 -1659.8182 329.8531
v -1681.8734 -1659.9030 329.7650
v -1682.7572 -1660.8678 330.4034
f 430 431 432
v -1682.7572 -1660.8678 330.4034
v -1681.8734 -1659.9030 329.7650
v -1682.7568 -1660.8675 328.7555
f 433 434 435
v -1681.8739 -1659.9035 331.5129
v -1681.7962 -1659.8182 329.8531
v -1682.7572 -1660.8678 330.4034
f 436 437 438
v -1675.9482 -1653.4360 330.0403
v -1675.8453 -1653.3226 331.3892
v -1675.6415 -1653.1011 331.1393
f 439 440 441
v -1675.9482 -1653.4360 330.0403
v -1675.9486 -1653.4363 331.5162
v -1675.8453 -1653.3226 331.3892
f 442 443 444
v -1681.7957 -1659.8177 331.6470
v -1678.9543 -1656.7172 335.3303
v -1681.7962 -1659.8182 329.8531
f 445 446 447
v -1675.9482 -1653.4360 330.0403
v -1675.6412 -1653.1007 329.6254
v -1675.8449 -1653.3223 329.8563
f 448 449 450
v -1675.6412 -1653.1007 329.6254
v -1675.9482 -1653.4360 330.0403
v -1675.6415 -1653.1011 331.1393
f 451 452 453
v -1675.9486 -1653.4363 331.5162
v -1675.9482 -1653.4360 330.0403
v -1678.9543 -1656.7172 335.3303
f 454 455 456
v -1696.8693 -1646.5943 327.8066
v -1695.2304 -1644.8047 327.7705
v -1693.4592 -1642.8708 311.9021
f 457 458 459
v -1696.8693 -1646.5943 327.8066
v -1693.4592 -1642.8708 311.9021
v -1696.8652 -1646.5906 311.9762
f 460 461 462
v -1693.4592 -1642.8708 311.9021
v -1690.4685 -1639.6025 327.6671
v -1690.4665 -1639.6007 319.7524
f 463 464 465
v -1695.4342 -1649.8694 328.4040
v -1685.9031 -1644.1052 329.8560
v -1685.8991 -1644.1016 314.0257
f 466 467 468
v -1686.0786 -1657.8316 328.7514
v -1685.9433 -1657.6839 328.9055
v -1685.9393 -1657.6802 313.0751
f 469 470 471
v -1686.0756 -1657.8287 316.8789
v -1685.9393 -1657.6802 313.0751
v -1686.0747 -1657.8278 312.9210
f 472 473 474
v -1674.4064 -1654.6324 314.0259
v -1674.4672 -1654.5800 321.9486
v -1674.4652 -1654.5782 314.0259
f 475 476 477
v -1674.2750 -1654.4886 321.9487
v -1674.4084 -1654.6342 321.9486
v -1674.4064 -1654.6324 314.0259
f 478 479 480
v -1680.3588 -1661.1284 314.0227
v -1681.3206 -1662.1767 321.9449
v -1681.3183 -1662.1755 312.9272
f 481 482 483
v -1680.4177 -1661.0742 314.0227
v -1680.3608 -1661.1302 321.9454
v -1680.3588 -1661.1284 314.0227
f 484 485 486
v -1691.0165 -1654.1044 312.5077
v -1700.4955 -1650.5563 326.5946
v -1700.4916 -1650.5526 310.7642
f 487 488 489
v -1700.4955 -1650.5563 326.5946
v -1691.0165 -1654.1044 312.5077
v -1691.0206 -1654.1082 328.3381
f 490 491 492

g building_ID_023C06B1-6526-42AE-BDBE-DA90E8D9A25A
v -1697.7407 -1647.5469 327.7121
v -1695.4342 -1649.8694 328.4040
v -1685.9031 -1644.1052 329.8560
f 493 494 495
v -1685.9031 -1644.1052 329.8560
v -1696.8693 -1646.5943 327.8066
v -1697.7407 -1647.5469 327.7121
f 496 497 498
v -1685.8991 -1644.1016 314.0257
v -1685.9031 -1644.1052 329.8560
v -1695.4342 -1649.8694 328.4040
f 499 500 501
v -1696.8652 -1646.5906 311.9762
v -1696.8693 -1646.5943 327.8066
v -1685.8991 -1644.1016 314.0257
f 502 503 504
v -1697.7368 -1647.5433 311.8817
v -1685.8991 -1644.1016 314.0257
v -1695.4302 -1649.8656 312.5736
f 505 506 507
v -1685.8991 -1644.1016 314.0257
v -1697.7368 -1647.5433 311.8817
v -1696.8652 -1646.5906 311.9762
f 508 509 510
v -1697.7407 -1647.5469 327.7121
v -1700.3281 -1650.3728 326.7067
v -1695.4342 -1649.8694 328.4040
f 511 512 513
v -1697.7368 -1647.5433 311.8817
v -1695.4302 -1649.8656 312.5736
v -1700.3241 -1650.3691 310.8763
f 514 515 516
v -1700.4955 -1650.5563 326.5946
v -1695.4342 -1649.8694 328.4040
v -1700.3281 -1650.3728 326.7067
f 517 518 519
v -1695.4342 -1649.8694 328.4040
v -1700.4955 -1650.5563 326.5946
v -1695.4302 -1649.8656 312.5736
f 520 521 522
v -1695.4302 -1649.8656 312.5736
v -1700.4955 -1650.5563 326.5946
v -1700.4916 -1650.5526 310.7642
f 523 524 525
v -1700.4916 -1650.5526 310.7642
v -1700.3241 -1650.3691 310.8763
v -1695.4302 -1649.8656 312.5736
f 526 527 528
v -1700.4955 -1650.5563 326.5946
v -1696.8652 -1646.5906 311.9762
v -1697.7368 -1647.5433 311.8817
f 529 530 531
v -1697.7368 -1647.5433 311.8817
v -1700.3241 -1650.3691 310.8763
v -1700.4955 -1650.5563 326.5946
f 532 533 534
v -1696.8652 -1646.5906 311.9762
v -1700.3281 -1650.3728 326.7067
v -1697.7407 -1647.5469 327.7121
f 535 536 537
v -1697.7407 -1647.5469 327.7121
v -1696.8693 -1646.5943 327.8066
v -1696.8652 -1646.5906 311.9762
f 538 539 540
v -1700.4916 -1650.5526 310.7632
v -1700.3241 -1650.3691 310.8763
v -1700.4916 -1650.5526 310.7642
f 541 542 543
v -1700.4916 -1650.5526 310.7642
v -1700.4955 -1650.5563 326.5946
v -1700.3241 -1650.3691 310.8763
f 544 545 546
v -1696.8652 -1646.5906 311.9762
v -1700.4955 -1650.5563 326.5946
v -1700.3281 -1650.3728 326.7067
f 547 548 549
v -1685.8991 -1644.1016 314.0257
v -1695.4342 -1649.8694 328.4040
v -1695.4302 -1649.8656 312.5736
f 550 551 552
v -1696.8693 -1646.5943 327.8066
v -1685.9031 -1644.1052 329.8560
v -1685.8991 -1644.1016 314.0257
f 553 554 555
v -1700.4916 -1650.5526 310.7642
v -1700.4916 -1650.5526 310.7632
v -1700.3241 -1650.3691 310.8763
f 556 557 558

g building_ID_2039D6AB-2643-487A-AD1B-BC89E20CA10A
v -1652.5337 -1638.8305 333.0390
v -1650.7548 -1635.6899 331.1314
v -1659.2061 -1630.9642 331.0614
f 559 560 561
v -1652.5337 -1638.8305 333.0390
v -1659.2061 -1630.9642 331.0614
v -1661.0264 -1634.2308 333.0390
f 562 563 564
v -1652.5337 -1638.8305 333.0390
v -1661.0264 -1634.2308 333.0390
v -1661.2315 -1634.5993 333.3009
f 565 566 567
v -1653.0071 -1639.6655 333.6337
v -1652.5337 -1638.8305 333.0390
v -1661.2315 -1634.5993 333.3009
f 568 569 570
v -1657.8740 -1642.3261 336.5205
v -1655.3027 -1643.7190 336.5208
v -1653.0071 -1639.6655 333.6337
f 571 572 573
v -1657.8740 -1642.3261 336.5205
v -1662.0648 -1636.1023 334.3662
v -1662.3235 -1639.9151 336.5200
f 574 575 576
v -1653.0071 -1639.6655 333.6337
v -1662.0648 -1636.1023 334.3662
v -1657.8740 -1642.3261 336.5205
f 577 578 579
v -1661.7179 -1635.4791 333.9234
v -1653.0071 -1639.6655 333.6337
v -1661.2315 -1634.5993 333.3009
f 580 581 582
v -1661.6658 -1634.3551 333.2958
v -1661.9854 -1634.9284 333.7026
v -1661.2315 -1634.5993 333.3009
f 583 584 585
v -1653.0071 -1639.6655 333.6337
v -1661.7179 -1635.4791 333.9234
v -1662.0648 -1636.1023 334.3662
f 586 587 588
v -1661.7179 -1635.4791 333.9234
v -1661.9854 -1634.9284 333.7026
v -1662.0115 -1635.3124 333.9194
f 589 590 591
v -1661.7179 -1635.4791 333.9234
v -1661.2315 -1634.5993 333.3009
v -1661.9854 -1634.9284 333.7026
f 592 593 594
v -1662.0115 -1635.3124 333.9194
v -1661.9854 -1634.9284 333.7026
v -1662.1542 -1635.2309 333.6905
f 595 596 597
v -1653.0787 -1648.5190 332.8704
v -1657.8740 -1642.3261 336.5205
v -1664.7466 -1640.9160 334.1692
f 598 599 600
v -1664.7466 -1640.9160 334.1692
v -1657.8740 -1642.3261 336.5205
v -1662.3235 -1639.9151 336.5200
f 601 602 603
v -1653.0787 -1648.5190 332.8704
v -1664.7466 -1640.9160 334.1692
v -1665.2939 -1641.9003 332.8689
f 604 605 606
v -1655.3027 -1643.7190 336.5208
v -1653.0787 -1648.5190 332.8704
v -1651.5731 -1645.7400 336.5213
f 607 608 609
v -1657.8740 -1642.3261 336.5205
v -1653.0787 -1648.5190 332.8704
v -1655.3027 -1643.7190 336.5208
f 610 611 612
v -1662.3235 -1639.9151 336.5200
v -1662.0648 -1636.1023 334.3662
v -1664.7466 -1640.9160 334.1692
f 613 614 615
v -1653.0787 -1648.5190 332.8704
v -1665.2939 -1641.9003 332.8689
v -1666.2975 -1643.7012 331.6052
f 616 617 618
v -1666.2975 -1643.7012 331.6052
v -1654.1648 -1650.5249 331.4726
v -1653.0787 -1648.5190 332.8704
f 619 620 621
v -1659.2053 -1630.9633 327.5635
v -1659.2061 -1630.9642 331.0614
v -1650.7526 -1635.6877 321.8037
f 622 623 624
v -1659.2039 -1630.9621 321.8027
v -1659.2053 -1630.9633 327.5635
v -1650.7526 -1635.6877 321.8037
f 625 626 627
v -1661.6629 -1634.3525 321.8012
v -1661.6658 -1634.3551 333.2958
v -1661.2286 -1634.5966 321.8013
f 628 629 630
v -1661.6658 -1634.3551 333.2958
v -1661.2315 -1634.5993 333.3009
v -1661.2304 -1634.5983 328.9880
f 631 632 633
v -1661.2304 -1634.5983 328.9880
v -1661.2293 -1634.5973 324.6762
v -1661.6658 -1634.3551 333.2958
f 634 635 636
v -1655.3027 -1643.7190 336.5208
v -1649.3811 -1641.6927 331.6761
v -1653.0067 -1639.6649 331.6187
f 637 638 639
v -1649.3811 -1641.6927 331.6761
v -1655.3027 -1643.7190 336.5208
v -1651.5731 -1645.7400 336.5213
f 640 641 642
v -1651.5678 -1645.7307 331.1815
v -1650.8802 -1652.3712 329.4461
v -1647.2085 -1645.7929 329.4047
f 643 644 645
v -1650.8802 -1652.3712 329.4461
v -1651.5678 -1645.7307 331.1815
v -1654.1647 -1650.5248 331.1796
f 646 647 648
v -1649.3810 -1641.6926 331.1831
v -1647.2085 -1645.7929 329.4047
v -1645.9806 -1643.5922 329.3916
f 649 650 651
v -1649.3810 -1641.6926 331.1831
v -1651.5678 -1645.7307 331.1815
v -1647.2085 -1645.7929 329.4047
f 652 653 654
v -1650.8795 -1652.3704 326.5782
v -1650.8783 -1652.3693 321.7994
v -1647.2085 -1645.7929 329.4047
f 655 656 657
v -1645.9788 -1643.5905 321.8029
v -1647.2085 -1645.7929 329.4047
v -1650.8783 -1652.3693 321.7994
f 658 659 660
v -1661.2304 -1634.5983 328.9880
v -1661.2315 -1634.5993 333.3009
v -1661.0264 -1634.2308 333.0390
f 661 662 663
v -1661.2304 -1634.5983 328.9880
v -1659.2053 -1630.9633 327.5635
v -1661.2293 -1634.5973 324.6762
f 664 665 666
v -1661.0264 -1634.2308 333.0390
v -1659.2061 -1630.9642 331.0614
v -1661.2304 -1634.5983 328.9880
f 667 668 669
v -1661.2286 -1634.5966 321.8013
v -1661.2293 -1634.5973 324.6762
v -1659.2053 -1630.9633 327.5635
f 670 671 672
v -1659.2053 -1630.9633 327.5635
v -1659.2039 -1630.9621 321.8027
v -1661.2286 -1634.5966 321.8013
f 673 674 675
v -1659.2061 -1630.9642 331.0614
v -1659.2053 -1630.9633 327.5635
v -1661.2304 -1634.5983 328.9880
f 676 677 678
v -1661.7149 -1635.4763 321.8009
v -1661.7179 -1635.4791 333.9234
v -1662.0115 -1635.3124 333.9194
f 679 680 681
v -1662.1513 -1635.2281 321.8009
v -1661.7149 -1635.4763 321.8009
v -1662.0115 -1635.3124 333.9194
f 682 683 684
v -1662.0115 -1635.3124 333.9194
v -1662.1542 -1635.2309 333.6905
v -1662.1513 -1635.2281 321.8009
f 685 686 687
v -1662.1542 -1635.2309 333.6905
v -1661.9854 -1634.9284 333.7026
v -1661.6658 -1634.3551 333.2958
f 688 689 690
v -1661.6658 -1634.3551 333.2958
v -1661.6629 -1634.3525 321.8012
v -1662.1513 -1635.2281 321.8009
f 691 692 693
v -1662.1542 -1635.2309 333.6905
v -1661.6658 -1634.3551 333.2958
v -1662.1513 -1635.2281 321.8009
f 694 695 696
v -1650.8795 -1652.3704 326.5782
v -1654.1623 -1650.5226 321.7990
v -1650.8783 -1652.3693 321.7994
f 697 698 699
v -1654.1647 -1650.5248 331.1796
v -1650.8795 -1652.3704 326.5782
v -1650.8802 -1652.3712 329.4461
f 700 701 702
v -1654.1647 -1650.5248 331.1796
v -1654.1648 -1650.5249 331.4726
v -1666.2975 -1643.7012 331.6052
f 703 704 705
v -1654.1623 -1650.5226 321.7990
v -1650.8795 -1652.3704 326.5782
v -1666.2950 -1643.6989 321.7976
f 706 707 708
v -1666.2950 -1643.6989 321.7976
v -1650.8795 -1652.3704 326.5782
v -1654.1647 -1650.5248 331.1796
f 709 710 711
v -1666.2975 -1643.7012 331.6052
v -1666.2950 -1643.6989 321.7976
v -1654.1647 -1650.5248 331.1796
f 712 713 714
v -1653.0042 -1639.6626 321.8021
v -1653.0067 -1639.6649 331.6187
v -1649.3810 -1641.6926 331.1831
f 715 716 717
v -1649.3811 -1641.6927 331.6761
v -1649.3810 -1641.6926 331.1831
v -1653.0067 -1639.6649 331.6187
f 718 719 720
v -1649.3810 -1641.6926 331.1831
v -1649.3787 -1641.6904 321.8025
v -1653.0042 -1639.6626 321.8021
f 721 722 723
v -1649.3787 -1641.6904 321.8025
v -1649.3810 -1641.6926 331.1831
v -1645.9788 -1643.5905 321.8029
f 724 725 726
v -1645.9806 -1643.5922 329.3916
v -1645.9788 -1643.5905 321.8029
v -1649.3810 -1641.6926 331.1831
f 727 728 729
v -1653.0042 -1639.6626 321.8021
v -1659.2039 -1630.9621 321.8027
v -1650.7526 -1635.6877 321.8037
f 730 731 732
v -1653.0042 -1639.6626 321.8021
v -1649.3787 -1641.6904 321.8025
v -1650.8783 -1652.3693 321.7994
f 733 734 735
v -1659.2039 -1630.9621 321.8027
v -1653.0042 -1639.6626 321.8021
v -1661.2286 -1634.5966 321.8013
f 736 737 738
v -1661.7149 -1635.4763 321.8009
v -1661.2286 -1634.5966 321.8013
v -1653.0042 -1639.6626 321.8021
f 739 740 741
v -1653.0042 -1639.6626 321.8021
v -1650.8783 -1652.3693 321.7994
v -1654.1623 -1650.5226 321.7990
f 742 743 744
v -1645.9788 -1643.5905 321.8029
v -1650.8783 -1652.3693 321.7994
v -1649.3787 -1641.6904 321.8025
f 745 746 747
v -1664.7436 -1640.9132 321.7987
v -1653.0042 -1639.6626 321.8021
v -1654.1623 -1650.5226 321.7990
f 748 749 750
v -1661.6629 -1634.3525 321.8012
v -1661.7149 -1635.4763 321.8009
v -1662.1513 -1635.2281 321.8009
f 751 752 753
v -1661.7149 -1635.4763 321.8009
v -1661.6629 -1634.3525 321.8012
v -1661.2286 -1634.5966 321.8013
f 754 755 756
v -1654.1623 -1650.5226 321.7990
v -1666.2950 -1643.6989 321.7976
v -1665.2912 -1641.8977 321.7983
f 757 758 759
v -1662.0617 -1636.0993 321.8007
v -1653.0042 -1639.6626 321.8021
v -1664.7436 -1640.9132 321.7987
f 760 761 762
v -1665.2912 -1641.8977 321.7983
v -1664.7436 -1640.9132 321.7987
v -1654.1623 -1650.5226 321.7990
f 763 764 765
v -1661.7149 -1635.4763 321.8009
v -1653.0042 -1639.6626 321.8021
v -1662.0617 -1636.0993 321.8007
f 766 767 768
v -1649.3811 -1641.6927 331.6761
v -1651.5731 -1645.7400 336.5213
v -1651.5678 -1645.7307 331.1815
f 769 770 771
v -1653.0787 -1648.5190 332.8704
v -1651.5678 -1645.7307 331.1815
v -1651.5731 -1645.7400 336.5213
f 772 773 774
v -1651.5678 -1645.7307 331.1815
v -1649.3810 -1641.6926 331.1831
v -1649.3811 -1641.6927 331.6761
f 775 776 777
v -1651.5678 -1645.7307 331.1815
v -1653.0787 -1648.5190 332.8704
v -1654.1648 -1650.5249 331.4726
f 778 779 780
v -1654.1648 -1650.5249 331.4726
v -1654.1647 -1650.5248 331.1796
v -1651.5678 -1645.7307 331.1815
f 781 782 783
v -1653.0067 -1639.6649 331.6187
v -1650.7526 -1635.6877 321.8037
v -1650.7548 -1635.6899 331.1314
f 784 785 786
v -1653.0067 -1639.6649 331.6187
v -1653.0071 -1639.6655 333.6337
v -1655.3027 -1643.7190 336.5208
f 787 788 789
v -1653.0067 -1639.6649 331.6187
v -1652.5337 -1638.8305 333.0390
v -1653.0071 -1639.6655 333.6337
f 790 791 792
v -1653.0042 -1639.6626 321.8021
v -1650.7526 -1635.6877 321.8037
v -1653.0067 -1639.6649 331.6187
f 793 794 795
v -1650.7548 -1635.6899 331.1314
v -1652.5337 -1638.8305 333.0390
v -1653.0067 -1639.6649 331.6187
f 796 797 798
v -1665.2939 -1641.9003 332.8689
v -1664.7466 -1640.9160 334.1692
v -1662.0648 -1636.1023 334.3662
f 799 800 801
v -1665.2912 -1641.8977 321.7983
v -1666.2950 -1643.6989 321.7976
v -1666.2975 -1643.7012 331.6052
f 802 803 804
v -1666.2975 -1643.7012 331.6052
v -1665.2939 -1641.9003 332.8689
v -1665.2912 -1641.8977 321.7983
f 805 806 807
v -1661.7179 -1635.4791 333.9234
v -1665.2939 -1641.9003 332.8689
v -1662.0648 -1636.1023 334.3662
f 808 809 810
v -1662.0617 -1636.0993 321.8007
v -1661.7179 -1635.4791 333.9234
v -1661.7149 -1635.4763 321.8009
f 811 812 813
v -1665.2939 -1641.9003 332.8689
v -1664.7436 -1640.9132 321.7987
v -1665.2912 -1641.8977 321.7983
f 814 815 816
v -1662.0617 -1636.0993 321.8007
v -1664.7436 -1640.9132 321.7987
v -1661.7179 -1635.4791 333.9234
f 817 818 819
v -1661.7179 -1635.4791 333.9234
v -1664.7436 -1640.9132 321.7987
v -1665.2939 -1641.9003 332.8689
f 820 821 822
v -1659.2061 -1630.9642 331.0614
v -1650.7548 -1635.6899 331.1314
v -1650.7526 -1635.6877 321.8037
f 823 824 825
v -1661.2293 -1634.5973 324.6762
v -1661.2286 -1634.5966 321.8013
v -1661.6658 -1634.3551 333.2958
f 826 827 828
v -1647.2085 -1645.7929 329.4047
v -1645.9788 -1643.5905 321.8029
v -1645.9806 -1643.5922 329.3916
f 829 830 831
v -1647.2085 -1645.7929 329.4047
v -1650.8802 -1652.3712 329.4461
v -1650.8795 -1652.3704 326.5782
f 832 833 834
