# Grid Center: 2615000, 1263200
# Global Anchor: 7.64977475454284, 47.53283995868075, 0.0

g building_ID_5B32E9A8-6512-4133-BA2A-55F0ECE7B3D9
v -974.0711 -1317.8149 348.1731
v -972.9743 -1316.3788 348.1725
v -973.8964 -1315.6743 348.1145
f 1 2 3
v -974.8850 -1318.8807 348.1727
v -974.0711 -1317.8149 348.1731
v -973.8964 -1315.6743 348.1145
f 4 5 6
v -974.8850 -1318.8807 348.1727
v -973.8964 -1315.6743 348.1145
v -979.1677 -1310.9580 347.7567
f 7 8 9
v -975.3152 -1309.2905 347.8616
v -976.9559 -1308.0450 347.7576
v -973.8964 -1315.6743 348.1145
f 10 11 12
v -979.1677 -1310.9580 347.7567
v -981.3986 -1313.8961 347.7567
v -974.8850 -1318.8807 348.1727
f 13 14 15
v -973.8964 -1315.6743 348.1145
v -976.9559 -1308.0450 347.7576
v -979.1677 -1310.9580 347.7567
f 16 17 18
v -972.9743 -1316.3788 348.1725
v -973.8954 -1315.6730 340.9968
v -973.8964 -1315.6743 348.1145
f 19 20 21
v -973.8954 -1315.6730 340.9968
v -972.9743 -1316.3788 348.1725
v -972.9733 -1316.3775 340.9968
f 22 23 24
v -973.8964 -1315.6743 348.1145
v -973.8954 -1315.6730 340.9968
v -975.3143 -1309.2892 340.9979
f 25 26 27
v -975.3143 -1309.2892 340.9979
v -976.9559 -1308.0450 347.7576
v -975.3152 -1309.2905 347.8616
f 28 29 30
v -975.3143 -1309.2892 340.9979
v -976.9550 -1308.0438 340.9979
v -976.9559 -1308.0450 347.7576
f 31 32 33
v -981.3986 -1313.8961 347.7567
v -976.9550 -1308.0438 340.9979
v -981.3976 -1313.8948 340.9960
f 34 35 36
v -974.8840 -1318.8793 340.9960
v -974.8850 -1318.8807 348.1727
v -981.3986 -1313.8961 347.7567
f 37 38 39
v -972.9733 -1316.3775 340.9968
v -972.9743 -1316.3788 348.1725
v -973.8564 -1317.5331 340.9964
f 40 41 42
v -974.8850 -1318.8807 348.1727
v -974.8840 -1318.8793 340.9960
v -974.0711 -1317.8149 348.1731
f 43 44 45
v -974.8840 -1318.8793 340.9960
v -973.8564 -1317.5331 340.9964
v -974.0711 -1317.8149 348.1731
f 46 47 48
v -972.9743 -1316.3788 348.1725
v -974.0711 -1317.8149 348.1731
v -973.8564 -1317.5331 340.9964
f 49 50 51
v -973.8954 -1315.6730 340.9968
v -973.8564 -1317.5331 340.9964
v -976.9550 -1308.0438 340.9979
f 52 53 54
v -972.9733 -1316.3775 340.9968
v -973.8564 -1317.5331 340.9964
v -973.8954 -1315.6730 340.9968
f 55 56 57
v -973.8564 -1317.5331 340.9964
v -974.8840 -1318.8793 340.9960
v -976.9550 -1308.0438 340.9979
f 58 59 60
v -973.8954 -1315.6730 340.9968
v -976.9550 -1308.0438 340.9979
v -975.3143 -1309.2892 340.9979
f 61 62 63
v -981.3976 -1313.8948 340.9960
v -976.9550 -1308.0438 340.9979
v -974.8840 -1318.8793 340.9960
f 64 65 66
v -973.8964 -1315.6743 348.1145
v -975.3143 -1309.2892 340.9979
v -975.3152 -1309.2905 347.8616
f 67 68 69
v -976.9550 -1308.0438 340.9979
v -979.1677 -1310.9580 347.7567
v -976.9559 -1308.0450 347.7576
f 70 71 72
v -981.3986 -1313.8961 347.7567
v -979.1677 -1310.9580 347.7567
v -976.9550 -1308.0438 340.9979
f 73 74 75
v -974.8840 -1318.8793 340.9960
v -981.3986 -1313.8961 347.7567
v -981.3976 -1313.8948 340.9960
f 76 77 78

g building_ID_3B14257A-45B9-446D-9DDE-9B719D582600
v -696.4022 -1335.8352 329.1892
v -701.4741 -1337.9698 330.8092
v -696.4274 -1335.8761 329.2062
f 79 80 81
v -701.4741 -1337.9698 330.8092
v -696.4022 -1335.8352 329.1892
v -707.1967 -1329.2922 329.2304
f 82 83 84
v -707.1767 -1334.4425 330.8093
v -707.1967 -1329.2922 329.2304
v -707.5001 -1329.7914 329.4412
f 85 86 87
v -701.4741 -1337.9698 330.8092
v -707.1967 -1329.2922 329.2304
v -707.1767 -1334.4425 330.8093
f 88 89 90
v -696.4274 -1335.8761 329.2062
v -701.2302 -1343.2632 329.3041
v -701.0056 -1343.3998 329.1711
f 91 92 93
v -701.2302 -1343.2632 329.3041
v -696.4274 -1335.8761 329.2062
v -701.4741 -1337.9698 330.8092
f 94 95 96
v -701.2302 -1343.2632 329.3041
v -711.4907 -1336.3526 329.4684
v -711.7889 -1336.8429 329.2713
f 97 98 99
v -707.1767 -1334.4425 330.8093
v -711.4907 -1336.3526 329.4684
v -701.4741 -1337.9698 330.8092
f 100 101 102
v -701.2302 -1343.2632 329.3041
v -701.4741 -1337.9698 330.8092
v -711.4907 -1336.3526 329.4684
f 103 104 105
v -707.1767 -1334.4425 330.8093
v -707.5001 -1329.7914 329.4412
v -711.4907 -1336.3526 329.4684
f 106 107 108
v -707.1962 -1329.2913 324.5306
v -707.1965 -1329.2917 326.8805
v -701.1242 -1332.9717 325.3885
f 109 110 111
v -707.1962 -1329.2913 324.5306
v -701.1242 -1332.9717 325.3885
v -707.1961 -1329.2910 322.9637
f 112 113 114
v -701.1242 -1332.9717 325.3885
v -696.4022 -1335.8352 329.1892
v -696.4022 -1335.8348 327.6223
f 115 116 117
v -707.1961 -1329.2910 322.9637
v -701.1242 -1332.9717 325.3885
v -696.4019 -1335.8343 325.2724
f 118 119 120
v -696.4019 -1335.8343 325.2724
v -696.4016 -1335.8340 322.9635
v -707.1961 -1329.2910 322.9637
f 121 122 123
v -711.4900 -1336.3515 322.9617
v -701.0050 -1343.3986 322.9613
v -711.7883 -1336.8417 322.9616
f 124 125 126
v -707.1961 -1329.2910 322.9637
v -696.4016 -1335.8340 322.9635
v -701.0050 -1343.3986 322.9613
f 127 128 129
v -711.4900 -1336.3515 322.9617
v -707.1961 -1329.2910 322.9637
v -701.0050 -1343.3986 322.9613
f 130 131 132
v -701.0050 -1343.3986 322.9613
v -696.4016 -1335.8340 322.9635
v -696.4019 -1335.8343 325.2724
f 133 134 135
v -696.4022 -1335.8348 327.6223
v -696.4022 -1335.8352 329.1892
v -696.4274 -1335.8761 329.2062
f 136 137 138
v -696.4019 -1335.8343 325.2724
v -701.0056 -1343.3998 329.1711
v -701.0050 -1343.3986 322.9613
f 139 140 141
v -696.4274 -1335.8761 329.2062
v -701.0056 -1343.3998 329.1711
v -696.4022 -1335.8348 327.6223
f 142 143 144
v -696.4022 -1335.8348 327.6223
v -701.0056 -1343.3998 329.1711
v -696.4019 -1335.8343 325.2724
f 145 146 147
v -701.2302 -1343.2632 329.3041
v -701.0050 -1343.3986 322.9613
v -701.0056 -1343.3998 329.1711
f 148 149 150
v -711.7883 -1336.8417 322.9616
v -701.2302 -1343.2632 329.3041
v -711.7889 -1336.8429 329.2713
f 151 152 153
v -701.0050 -1343.3986 322.9613
v -701.2302 -1343.2632 329.3041
v -711.7883 -1336.8417 322.9616
f 154 155 156
v -711.4900 -1336.3515 322.9617
v -711.7889 -1336.8429 329.2713
v -711.4907 -1336.3526 329.4684
f 157 158 159
v -711.7889 -1336.8429 329.2713
v -711.4900 -1336.3515 322.9617
v -711.7883 -1336.8417 322.9616
f 160 161 162
v -711.4900 -1336.3515 322.9617
v -707.1962 -1329.2913 324.5306
v -707.1961 -1329.2910 322.9637
f 163 164 165
v -707.1965 -1329.2917 326.8805
v -711.4900 -1336.3515 322.9617
v -711.4907 -1336.3526 329.4684
f 166 167 168
v -707.1967 -1329.2922 329.2304
v -707.1965 -1329.2917 326.8805
v -707.5001 -1329.7914 329.4412
f 169 170 171
v -707.1965 -1329.2917 326.8805
v -707.1962 -1329.2913 324.5306
v -711.4900 -1336.3515 322.9617
f 172 173 174
v -711.4907 -1336.3526 329.4684
v -707.5001 -1329.7914 329.4412
v -707.1965 -1329.2917 326.8805
f 175 176 177
v -701.1242 -1332.9717 325.3885
v -707.1967 -1329.2922 329.2304
v -696.4022 -1335.8352 329.1892
f 178 179 180
v -707.1965 -1329.2917 326.8805
v -707.1967 -1329.2922 329.2304
v -701.1242 -1332.9717 325.3885
f 181 182 183
v -701.1242 -1332.9717 325.3885
v -696.4022 -1335.8348 327.6223
v -696.4019 -1335.8343 325.2724
f 184 185 186

g building_ID_C633902F-25E0-4FA0-A9B5-9EFFB217BF84
v -724.6362 -1300.5409 326.2316
v -716.7183 -1301.6433 326.8272
v -716.6886 -1300.6453 326.2474
f 187 188 189
v -724.6571 -1301.5659 326.8263
v -716.7183 -1301.6433 326.8272
v -724.6362 -1300.5409 326.2316
f 190 191 192
v -724.6571 -1301.5659 326.8263
v -724.6881 -1303.0977 326.0230
v -716.7183 -1301.6433 326.8272
f 193 194 195
v -716.7666 -1303.2530 325.9839
v -716.7183 -1301.6433 326.8272
v -724.6881 -1303.0977 326.0230
f 196 197 198
v -724.6362 -1300.5409 326.2316
v -716.6878 -1300.6440 319.2327
v -724.6356 -1300.5397 319.2319
f 199 200 201
v -724.6881 -1303.0977 326.0230
v -724.6874 -1303.0965 319.2313
v -716.7659 -1303.2517 319.2322
f 202 203 204
v -716.6878 -1300.6440 319.2327
v -724.6874 -1303.0965 319.2313
v -724.6356 -1300.5397 319.2319
f 205 206 207
v -716.7659 -1303.2517 319.2322
v -724.6874 -1303.0965 319.2313
v -716.6878 -1300.6440 319.2327
f 208 209 210
v -724.6881 -1303.0977 326.0230
v -724.6571 -1301.5659 326.8263
v -724.6362 -1300.5409 326.2316
f 211 212 213
v -724.6356 -1300.5397 319.2319
v -724.6881 -1303.0977 326.0230
v -724.6362 -1300.5409 326.2316
f 214 215 216
v -724.6881 -1303.0977 326.0230
v -724.6356 -1300.5397 319.2319
v -724.6874 -1303.0965 319.2313
f 217 218 219
v -716.7183 -1301.6433 326.8272
v -716.7666 -1303.2530 325.9839
v -716.6886 -1300.6453 326.2474
f 220 221 222
v -716.6886 -1300.6453 326.2474
v -716.7666 -1303.2530 325.9839
v -716.7659 -1303.2517 319.2322
f 223 224 225
v -716.6878 -1300.6440 319.2327
v -716.6886 -1300.6453 326.2474
v -716.7659 -1303.2517 319.2322
f 226 227 228
v -724.6362 -1300.5409 326.2316
v -716.6886 -1300.6453 326.2474
v -716.6878 -1300.6440 319.2327
f 229 230 231
v -724.6881 -1303.0977 326.0230
v -716.7659 -1303.2517 319.2322
v -716.7666 -1303.2530 325.9839
f 232 233 234

g building_ID_8AD0474A-C62C-48C8-90CC-8AB504BF38FE
v -830.3607 -1353.7807 350.4106
v -842.1774 -1355.5091 350.4457
v -829.6648 -1358.5532 353.0626
f 235 236 237
v -829.6648 -1358.5532 353.0626
v -847.1172 -1356.2019 350.4439
v -861.2748 -1362.9954 353.0575
f 238 239 240
v -861.9368 -1358.2791 350.4385
v -861.2748 -1362.9954 353.0575
v -847.1172 -1356.2019 350.4439
f 241 242 243
v -842.1774 -1355.5091 350.4457
v -847.1172 -1356.2019 350.4439
v -829.6648 -1358.5532 353.0626
f 244 245 246
v -845.6817 -1366.0877 350.0500
v -861.2748 -1362.9954 353.0575
v -860.5473 -1368.1678 350.0525
f 247 248 249
v -861.2748 -1362.9954 353.0575
v -845.6817 -1366.0877 350.0500
v -829.6648 -1358.5532 353.0626
f 250 251 252
v -829.6648 -1358.5532 353.0626
v -840.7338 -1365.3949 350.0488
v -828.9182 -1363.6676 350.0887
f 253 254 255
v -845.6817 -1366.0877 350.0500
v -840.7338 -1365.3949 350.0488
v -829.6648 -1358.5532 353.0626
f 256 257 258
v -842.1764 -1355.5076 342.8640
v -842.1774 -1355.5091 350.4457
v -830.3607 -1353.7807 350.4106
f 259 260 261
v -830.3598 -1353.7794 342.8659
v -842.1764 -1355.5076 342.8640
v -830.3607 -1353.7807 350.4106
f 262 263 264
v -861.9359 -1358.2776 342.8608
v -861.9368 -1358.2791 350.4385
v -847.1172 -1356.2019 350.4439
f 265 266 267
v -861.9359 -1358.2776 342.8608
v -847.1172 -1356.2019 350.4439
v -842.1764 -1355.5076 342.8640
f 268 269 270
v -828.9173 -1363.6662 342.8640
v -828.9182 -1363.6676 350.0887
v -840.7330 -1365.3936 342.8621
f 271 272 273
v -840.7338 -1365.3949 350.0488
v -840.7330 -1365.3936 342.8621
v -828.9182 -1363.6676 350.0887
f 274 275 276
v -840.7330 -1365.3936 342.8621
v -840.7338 -1365.3949 350.0488
v -845.6817 -1366.0877 350.0500
f 277 278 279
v -840.7330 -1365.3936 342.8621
v -845.6817 -1366.0877 350.0500
v -860.5464 -1368.1664 342.8588
f 280 281 282
v -840.7330 -1365.3936 342.8621
v -830.3598 -1353.7794 342.8659
v -828.9173 -1363.6662 342.8640
f 283 284 285
v -830.3598 -1353.7794 342.8659
v -840.7330 -1365.3936 342.8621
v -842.1764 -1355.5076 342.8640
f 286 287 288
v -861.2735 -1362.9934 342.8599
v -840.7330 -1365.3936 342.8621
v -860.5464 -1368.1664 342.8588
f 289 290 291
v -861.2735 -1362.9934 342.8599
v -842.1764 -1355.5076 342.8640
v -840.7330 -1365.3936 342.8621
f 292 293 294
v -842.1764 -1355.5076 342.8640
v -861.2735 -1362.9934 342.8599
v -861.9359 -1358.2776 342.8608
f 295 296 297
v -861.2748 -1362.9954 353.0575
v -860.5464 -1368.1664 342.8588
v -860.5473 -1368.1678 350.0525
f 298 299 300
v -860.5464 -1368.1664 342.8588
v -861.2748 -1362.9954 353.0575
v -861.2735 -1362.9934 342.8599
f 301 302 303
v -861.9359 -1358.2776 342.8608
v -861.2735 -1362.9934 342.8599
v -861.9368 -1358.2791 350.4385
f 304 305 306
v -861.9368 -1358.2791 350.4385
v -861.2735 -1362.9934 342.8599
v -861.2748 -1362.9954 353.0575
f 307 308 309
v -830.3598 -1353.7794 342.8659
v -830.3607 -1353.7807 350.4106
v -829.6648 -1358.5532 353.0626
f 310 311 312
v -830.3598 -1353.7794 342.8659
v -828.9182 -1363.6676 350.0887
v -828.9173 -1363.6662 342.8640
f 313 314 315
v -829.6648 -1358.5532 353.0626
v -828.9182 -1363.6676 350.0887
v -830.3598 -1353.7794 342.8659
f 316 317 318
v -847.1172 -1356.2019 350.4439
v -842.1774 -1355.5091 350.4457
v -842.1764 -1355.5076 342.8640
f 319 320 321
v -845.6817 -1366.0877 350.0500
v -860.5473 -1368.1678 350.0525
v -860.5464 -1368.1664 342.8588
f 322 323 324
