# Grid Center: 2615800, 1265400
# Global Anchor: 7.64977475454284, 47.53283995868075, 0.0

g building_ID_456E6CE5-AA9E-4449-9F39-8D306F1ED1E1
v -185.2097 831.9649 270.6531
v -187.4645 832.7999 270.6529
v -184.3550 835.5935 270.6526
f 1 2 3
v -187.4645 832.7999 270.6529
v -186.1741 836.2675 270.6525
v -184.3550 835.5935 270.6526
f 4 5 6
v -185.2099 831.9659 277.0099
v -184.3551 835.5946 277.0094
v -187.4646 832.8008 276.2468
f 7 8 9
v -187.4646 832.8008 276.2468
v -184.3551 835.5946 277.0094
v -186.1743 836.2683 276.3934
f 10 11 12
v -186.1741 836.2675 270.6525
v -186.1743 836.2683 276.3934
v -184.3550 835.5935 270.6526
f 13 14 15
v -187.4646 832.8008 276.2468
v -186.1743 836.2683 276.3934
v -186.1741 836.2675 270.6525
f 16 17 18
v -186.1741 836.2675 270.6525
v -187.4645 832.7999 270.6529
v -187.4646 832.8008 276.2468
f 19 20 21
v -185.2097 831.9649 270.6531
v -185.2099 831.9659 277.0099
v -187.4646 832.8008 276.2468
f 22 23 24
v -187.4645 832.7999 270.6529
v -185.2097 831.9649 270.6531
v -187.4646 832.8008 276.2468
f 25 26 27
v -184.3550 835.5935 270.6526
v -184.3551 835.5946 277.0094
v -185.2097 831.9649 270.6531
f 28 29 30
v -184.3550 835.5935 270.6526
v -186.1743 836.2683 276.3934
v -184.3551 835.5946 277.0094
f 31 32 33
v -184.3551 835.5946 277.0094
v -185.2099 831.9659 277.0099
v -185.2097 831.9649 270.6531
f 34 35 36

g building_ID_1730D94C-8C23-4534-A44A-80C454857A43
v -121.1299 521.1665 271.0833
v -118.5030 516.6835 271.0837
v -122.4036 518.6919 271.0835
f 37 38 39
v -118.5030 516.6835 271.0837
v -121.1299 521.1665 271.0833
v -120.1086 523.1497 271.0832
f 40 41 42
v -120.1086 523.1497 271.0832
v -117.2284 519.1590 271.0836
v -118.5030 516.6835 271.0837
f 43 44 45
v -116.2081 521.1412 271.0834
v -117.2284 519.1590 271.0836
v -120.1086 523.1497 271.0832
f 46 47 48
v -117.2284 519.1598 277.9333
v -122.4036 518.6925 276.9763
v -118.5030 516.6841 276.9764
f 49 50 51
v -121.1300 521.1672 277.9330
v -122.4036 518.6925 276.9763
v -117.2284 519.1598 277.9333
f 52 53 54
v -120.1086 523.1504 277.0110
v -117.2284 519.1598 277.9333
v -116.2081 521.1419 277.0112
f 55 56 57
v -117.2284 519.1598 277.9333
v -120.1086 523.1504 277.0110
v -121.1300 521.1672 277.9330
f 58 59 60
v -120.6970 517.8137 274.1225
v -122.4036 518.6925 276.9763
v -122.4036 518.6924 275.5033
f 61 62 63
v -118.5030 516.6835 271.0837
v -120.6970 517.8137 274.1225
v -122.4036 518.6919 271.0835
f 64 65 66
v -122.4036 518.6921 273.2934
v -122.4036 518.6919 271.0835
v -120.6970 517.8137 274.1225
f 67 68 69
v -120.1087 523.1501 274.7880
v -120.1086 523.1504 277.0110
v -116.2081 521.1412 271.0834
f 70 71 72
v -120.1087 523.1501 274.7880
v -122.4036 518.6921 273.2934
v -122.4036 518.6924 275.5033
f 73 74 75
v -122.4036 518.6921 273.2934
v -121.1299 521.1665 271.0833
v -122.4036 518.6919 271.0835
f 76 77 78
v -122.4036 518.6925 276.9763
v -121.1300 521.1672 277.9330
v -122.4036 518.6924 275.5033
f 79 80 81
v -122.4036 518.6924 275.5033
v -120.1086 523.1504 277.0110
v -120.1087 523.1501 274.7880
f 82 83 84
v -120.1086 523.1497 271.0832
v -121.1299 521.1665 271.0833
v -120.1087 523.1501 274.7880
f 85 86 87
v -120.1087 523.1501 274.7880
v -121.1299 521.1665 271.0833
v -122.4036 518.6921 273.2934
f 88 89 90
v -120.1086 523.1504 277.0110
v -122.4036 518.6924 275.5033
v -121.1300 521.1672 277.9330
f 91 92 93
v -116.2081 521.1415 273.3063
v -116.2081 521.1419 277.0112
v -118.5030 516.6841 276.9764
f 94 95 96
v -117.2284 519.1598 277.9333
v -118.5030 516.6841 276.9764
v -116.2081 521.1419 277.0112
f 97 98 99
v -116.2081 521.1415 273.3063
v -118.5030 516.6837 274.0296
v -117.2284 519.1590 271.0836
f 100 101 102
v -118.5030 516.6837 274.0296
v -116.2081 521.1415 273.3063
v -118.5030 516.6841 276.9764
f 103 104 105
v -117.2284 519.1590 271.0836
v -116.2081 521.1412 271.0834
v -116.2081 521.1415 273.3063
f 106 107 108
v -118.5030 516.6837 274.0296
v -118.5030 516.6835 271.0837
v -117.2284 519.1590 271.0836
f 109 110 111
v -118.5030 516.6841 276.9764
v -122.4036 518.6925 276.9763
v -120.6970 517.8137 274.1225
f 112 113 114
v -120.6970 517.8137 274.1225
v -118.5030 516.6837 274.0296
v -118.5030 516.6841 276.9764
f 115 116 117
v -118.5030 516.6837 274.0296
v -120.6970 517.8137 274.1225
v -118.5030 516.6835 271.0837
f 118 119 120
v -120.6970 517.8137 274.1225
v -122.4036 518.6924 275.5033
v -122.4036 518.6921 273.2934
f 121 122 123
v -120.1087 523.1501 274.7880
v -116.2081 521.1412 271.0834
v -120.1086 523.1497 271.0832
f 124 125 126
v -120.1086 523.1504 277.0110
v -116.2081 521.1419 277.0112
v -116.2081 521.1415 273.3063
f 127 128 129
v -116.2081 521.1415 273.3063
v -116.2081 521.1412 271.0834
v -120.1086 523.1504 277.0110
f 130 131 132

g building_ID_4A35057C-5DC9-4423-9961-7363D755AAB5
v -112.3127 497.8341 271.1353
v -108.1277 500.4209 271.1351
v -109.5595 496.7808 271.1354
f 133 134 135
v -108.1277 500.4209 271.1351
v -106.3107 513.5188 271.1341
v -105.1538 516.4606 271.1339
f 136 137 138
v -104.4137 498.9589 271.1353
v -108.1277 500.4209 271.1351
v -98.6615 513.9763 271.1342
f 139 140 141
v -105.1538 516.4606 271.1339
v -98.6615 513.9763 271.1342
v -108.1277 500.4209 271.1351
f 142 143 144
v -112.3127 497.8341 271.1353
v -106.3107 513.5188 271.1341
v -108.1277 500.4209 271.1351
f 145 146 147
v -108.1278 500.4215 277.6329
v -98.6616 513.9771 277.6320
v -105.1538 516.4614 277.6317
f 148 149 150
v -106.3107 513.5195 277.6319
v -108.1278 500.4215 277.6329
v -105.1538 516.4614 277.6317
f 151 152 153
v -108.1278 500.4215 277.6329
v -112.3127 497.8348 277.6331
v -109.5595 496.7814 277.6332
f 154 155 156
v -98.6616 513.9771 277.6320
v -108.1278 500.4215 277.6329
v -104.4137 498.9596 277.6331
f 157 158 159
v -106.3107 513.5195 277.6319
v -112.3127 497.8348 277.6331
v -108.1278 500.4215 277.6329
f 160 161 162
v -106.3107 513.5188 271.1341
v -106.3107 513.5195 277.6319
v -105.1538 516.4614 277.6317
f 163 164 165
v -112.3127 497.8341 271.1353
v -112.3127 497.8348 277.6331
v -106.3107 513.5195 277.6319
f 166 167 168
v -109.5595 496.7808 271.1354
v -109.5595 496.7814 277.6332
v -112.3127 497.8348 277.6331
f 169 170 171
v -108.1277 500.4209 271.1351
v -108.1278 500.4215 277.6329
v -109.5595 496.7814 277.6332
f 172 173 174
v -104.4137 498.9589 271.1353
v -104.4137 498.9596 277.6331
v -108.1278 500.4215 277.6329
f 175 176 177
v -98.6615 513.9763 271.1342
v -98.6616 513.9771 277.6320
v -104.4137 498.9596 277.6331
f 178 179 180
v -105.1538 516.4606 271.1339
v -105.1538 516.4614 277.6317
v -98.6616 513.9771 277.6320
f 181 182 183
v -106.3107 513.5188 271.1341
v -105.1538 516.4614 277.6317
v -105.1538 516.4606 271.1339
f 184 185 186
v -112.3127 497.8341 271.1353
v -106.3107 513.5195 277.6319
v -106.3107 513.5188 271.1341
f 187 188 189
v -109.5595 496.7808 271.1354
v -112.3127 497.8348 277.6331
v -112.3127 497.8341 271.1353
f 190 191 192
v -108.1277 500.4209 271.1351
v -109.5595 496.7814 277.6332
v -109.5595 496.7808 271.1354
f 193 194 195
v -104.4137 498.9589 271.1353
v -108.1278 500.4215 277.6329
v -108.1277 500.4209 271.1351
f 196 197 198
v -98.6615 513.9763 271.1342
v -104.4137 498.9596 277.6331
v -104.4137 498.9589 271.1353
f 199 200 201
v -105.1538 516.4606 271.1339
v -98.6616 513.9771 277.6320
v -98.6615 513.9763 271.1342
f 202 203 204
