# Grid Center: 2615000, 1265600
# Global Anchor: 7.64977475454284, 47.53283995868075, 0.0

g building_ID_47681902-6F01-482D-8BE3-AF2C8BD9E0E9
v -1100.0626 730.3351 279.0584
v -1096.9316 729.5335 277.3341
v -1095.0651 736.8285 277.3276
f 1 2 3
v -1100.0626 730.3351 279.0584
v -1095.0651 736.8285 277.3276
v -1096.3485 744.9559 279.0574
f 4 5 6
v -1093.2005 744.1163 277.3201
v -1096.3485 744.9559 279.0574
v -1095.0651 736.8285 277.3276
f 7 8 9
v -1096.3485 744.9559 279.0574
v -1099.1093 745.6923 277.7748
v -1102.8285 731.0434 277.7769
f 10 11 12
v -1096.3485 744.9559 279.0574
v -1102.8285 731.0434 277.7769
v -1100.0626 730.3351 279.0584
f 13 14 15
v -1095.0651 736.8285 277.3276
v -1096.9306 729.5326 271.2604
v -1093.2005 744.1163 277.3201
f 16 17 18
v -1096.9306 729.5326 271.2604
v -1095.0651 736.8285 277.3276
v -1096.9312 729.5332 275.0572
f 19 20 21
v -1099.1082 745.6913 271.2581
v -1102.8275 731.0424 271.2592
v -1102.8279 731.0428 273.7031
f 22 23 24
v -1102.8279 731.0428 273.7031
v -1102.8285 731.0434 277.7769
v -1099.1082 745.6913 271.2581
f 25 26 27
v -1099.1082 745.6913 271.2581
v -1102.8285 731.0434 277.7769
v -1099.1093 745.6923 277.7748
f 28 29 30
v -1099.1082 745.6913 271.2581
v -1100.0614 730.3341 271.2597
v -1102.8275 731.0424 271.2592
f 31 32 33
v -1099.1082 745.6913 271.2581
v -1093.1995 744.1154 271.2593
v -1100.0614 730.3341 271.2597
f 34 35 36
v -1096.9306 729.5326 271.2604
v -1100.0614 730.3341 271.2597
v -1093.1995 744.1154 271.2593
f 37 38 39
v -1099.1093 745.6923 277.7748
v -1096.3485 744.9559 279.0574
v -1093.2005 744.1163 277.3201
f 40 41 42
v -1093.2005 744.1163 277.3201
v -1093.1995 744.1154 271.2593
v -1099.1093 745.6923 277.7748
f 43 44 45
v -1099.1093 745.6923 277.7748
v -1093.1995 744.1154 271.2593
v -1099.1082 745.6913 271.2581
f 46 47 48
v -1096.9312 729.5332 275.0572
v -1102.8279 731.0428 273.7031
v -1100.0614 730.3341 271.2597
f 49 50 51
v -1096.9312 729.5332 275.0572
v -1100.0614 730.3341 271.2597
v -1096.9306 729.5326 271.2604
f 52 53 54
v -1100.0626 730.3351 279.0584
v -1096.9312 729.5332 275.0572
v -1096.9316 729.5335 277.3341
f 55 56 57
v -1096.9312 729.5332 275.0572
v -1102.8285 731.0434 277.7769
v -1102.8279 731.0428 273.7031
f 58 59 60
v -1102.8279 731.0428 273.7031
v -1102.8275 731.0424 271.2592
v -1100.0614 730.3341 271.2597
f 61 62 63
v -1096.9312 729.5332 275.0572
v -1100.0626 730.3351 279.0584
v -1102.8285 731.0434 277.7769
f 64 65 66
v -1093.2005 744.1163 277.3201
v -1096.9306 729.5326 271.2604
v -1093.1995 744.1154 271.2593
f 67 68 69
v -1095.0651 736.8285 277.3276
v -1096.9316 729.5335 277.3341
v -1096.9312 729.5332 275.0572
f 70 71 72

g building_ID_457F4C59-87A3-404B-B950-94155374FA23
v -1089.6504 755.3246 277.0364
v -1091.2769 748.4440 277.0730
v -1088.8247 747.8646 278.3653
f 73 74 75
v -1087.1303 754.7291 278.3648
v -1089.6504 755.3246 277.0364
v -1088.8247 747.8646 278.3653
f 76 77 78
v -1084.7287 754.1604 277.1524
v -1088.8247 747.8646 278.3653
v -1086.3551 747.2809 277.1189
f 79 80 81
v -1088.8247 747.8646 278.3653
v -1084.7287 754.1604 277.1524
v -1087.1303 754.7291 278.3648
f 82 83 84
v -1089.6501 755.3243 274.8674
v -1091.2759 748.4432 271.2252
v -1089.6504 755.3246 277.0364
f 85 86 87
v -1089.6495 755.3238 271.2246
v -1091.2759 748.4432 271.2252
v -1089.6501 755.3243 274.8674
f 88 89 90
v -1084.7283 754.1601 274.9534
v -1084.7287 754.1604 277.1524
v -1086.3551 747.2809 277.1189
f 91 92 93
v -1084.7277 754.1596 271.2256
v -1084.7283 754.1601 274.9534
v -1086.3541 747.2801 271.2261
f 94 95 96
v -1089.6495 755.3238 271.2246
v -1087.1291 754.7280 271.2251
v -1091.2759 748.4432 271.2252
f 97 98 99
v -1084.7277 754.1596 271.2256
v -1086.3541 747.2801 271.2261
v -1087.1291 754.7280 271.2251
f 100 101 102
v -1091.2759 748.4432 271.2252
v -1087.1291 754.7280 271.2251
v -1086.3541 747.2801 271.2261
f 103 104 105
v -1089.6501 755.3243 274.8674
v -1084.7283 754.1601 274.9534
v -1087.1291 754.7280 271.2251
f 106 107 108
v -1089.6501 755.3243 274.8674
v -1087.1291 754.7280 271.2251
v -1089.6495 755.3238 271.2246
f 109 110 111
v -1087.1303 754.7291 278.3648
v -1089.6501 755.3243 274.8674
v -1089.6504 755.3246 277.0364
f 112 113 114
v -1084.7283 754.1601 274.9534
v -1087.1303 754.7291 278.3648
v -1084.7287 754.1604 277.1524
f 115 116 117
v -1084.7283 754.1601 274.9534
v -1084.7277 754.1596 271.2256
v -1087.1291 754.7280 271.2251
f 118 119 120
v -1089.6501 755.3243 274.8674
v -1087.1303 754.7291 278.3648
v -1084.7283 754.1601 274.9534
f 121 122 123
v -1086.3551 747.2809 277.1189
v -1088.8247 747.8646 278.3653
v -1091.2769 748.4440 277.0730
f 124 125 126
v -1086.3551 747.2809 277.1189
v -1091.2769 748.4440 277.0730
v -1091.2759 748.4432 271.2252
f 127 128 129
v -1086.3541 747.2801 271.2261
v -1086.3551 747.2809 277.1189
v -1091.2759 748.4432 271.2252
f 130 131 132
v -1089.6504 755.3246 277.0364
v -1091.2759 748.4432 271.2252
v -1091.2769 748.4440 277.0730
f 133 134 135
v -1084.7283 754.1601 274.9534
v -1086.3551 747.2809 277.1189
v -1086.3541 747.2801 271.2261
f 136 137 138

g building_ID_4A2AF262-2865-4A5A-977F-718FB3476AD8
v -862.3167 708.7036 278.6363
v -865.1808 719.0220 277.7909
v -867.4392 709.9693 278.6365
f 139 140 141
v -857.8677 707.6056 278.6360
v -859.7475 717.6805 277.7907
v -862.3167 708.7036 278.6363
f 142 143 144
v -862.3167 708.7036 278.6363
v -859.7475 717.6805 277.7907
v -865.1808 719.0220 277.7909
f 145 146 147
v -857.8677 707.6056 278.6360
v -854.3032 716.3349 277.7906
v -859.7475 717.6805 277.7907
f 148 149 150
v -854.3032 716.3349 277.7906
v -857.8677 707.6056 278.6360
v -846.9451 704.9074 278.6358
f 151 152 153
v -854.3032 716.3349 277.7906
v -846.9451 704.9074 278.6358
v -844.7077 713.9651 277.7901
f 154 155 156
v -859.7475 717.6805 277.7907
v -865.1800 719.0211 271.1711
v -865.1808 719.0220 277.7909
f 157 158 159
v -852.0649 715.7820 271.1732
v -857.5022 717.1246 271.1723
v -859.7475 717.6805 277.7907
f 160 161 162
v -859.7475 717.6805 277.7907
v -857.5022 717.1246 271.1723
v -865.1800 719.0211 271.1711
f 163 164 165
v -859.7475 717.6805 277.7907
v -854.3032 716.3349 277.7906
v -852.0649 715.7820 271.1732
f 166 167 168
v -852.0649 715.7820 271.1732
v -854.3032 716.3349 277.7906
v -844.7069 713.9643 271.1744
f 169 170 171
v -867.4383 709.9683 271.1718
v -867.4392 709.9693 278.6365
v -865.1808 719.0220 277.7909
f 172 173 174
v -846.9441 704.9064 271.1751
v -846.9451 704.9074 278.6358
v -857.8677 707.6056 278.6360
f 175 176 177
v -846.9441 704.9064 271.1751
v -857.8677 707.6056 278.6360
v -855.4834 707.0153 271.1737
f 178 179 180
v -857.8677 707.6056 278.6360
v -862.3167 708.7036 278.6363
v -867.4383 709.9683 271.1718
f 181 182 183
v -855.4834 707.0153 271.1737
v -857.8677 707.6056 278.6360
v -867.4383 709.9683 271.1718
f 184 185 186
v -844.7069 713.9643 271.1744
v -844.7077 713.9651 277.7901
v -846.9441 704.9064 271.1751
f 187 188 189
v -846.9441 704.9064 271.1751
v -855.4834 707.0153 271.1737
v -844.7069 713.9643 271.1744
f 190 191 192
v -852.0649 715.7820 271.1732
v -844.7069 713.9643 271.1744
v -855.4834 707.0153 271.1737
f 193 194 195
v -867.4383 709.9683 271.1718
v -865.1800 719.0211 271.1711
v -855.4834 707.0153 271.1737
f 196 197 198
v -852.0649 715.7820 271.1732
v -855.4834 707.0153 271.1737
v -857.5022 717.1246 271.1723
f 199 200 201
v -865.1800 719.0211 271.1711
v -857.5022 717.1246 271.1723
v -855.4834 707.0153 271.1737
f 202 203 204
v -854.3032 716.3349 277.7906
v -844.7077 713.9651 277.7901
v -844.7069 713.9643 271.1744
f 205 206 207
v -867.4383 709.9683 271.1718
v -865.1808 719.0220 277.7909
v -865.1800 719.0211 271.1711
f 208 209 210
v -862.3167 708.7036 278.6363
v -867.4392 709.9693 278.6365
v -867.4383 709.9683 271.1718
f 211 212 213
v -844.7077 713.9651 277.7901
v -846.9451 704.9074 278.6358
v -846.9441 704.9064 271.1751
f 214 215 216
