# Grid Center: 2615600, 1265200
# Global Anchor: 7.64977475454284, 47.53283995868075, 0.0

g building_ID_3071D0AF-16DE-4439-A3E5-CD88DAD565CC
v -450.2370 613.6648 281.1092
v -458.7599 658.0563 282.1691
v -469.4705 618.9785 282.1703
f 1 2 3
v -458.7599 658.0563 282.1691
v -450.2370 613.6648 281.1092
v -439.5273 652.7427 281.1081
f 4 5 6
v -458.7593 658.0550 272.0155
v -469.4699 618.9773 272.0186
v -469.4705 618.9785 282.1703
f 7 8 9
v -458.7599 658.0563 282.1691
v -458.7593 658.0550 272.0155
v -469.4705 618.9785 282.1703
f 10 11 12
v -450.2370 613.6648 281.1092
v -469.4705 618.9785 282.1703
v -469.4699 618.9773 272.0186
f 13 14 15
v -450.2364 613.6637 272.0205
v -439.5268 652.7415 272.0174
v -450.2370 613.6648 281.1092
f 16 17 18
v -458.7593 658.0550 272.0155
v -450.2364 613.6637 272.0205
v -469.4699 618.9773 272.0186
f 19 20 21
v -450.2364 613.6637 272.0205
v -458.7593 658.0550 272.0155
v -439.5268 652.7415 272.0174
f 22 23 24
v -458.7593 658.0550 272.0155
v -439.5273 652.7427 281.1081
v -439.5268 652.7415 272.0174
f 25 26 27
v -458.7593 658.0550 272.0155
v -458.7599 658.0563 282.1691
v -439.5273 652.7427 281.1081
f 28 29 30
v -469.4699 618.9773 272.0186
v -450.2364 613.6637 272.0205
v -450.2370 613.6648 281.1092
f 31 32 33
v -439.5273 652.7427 281.1081
v -450.2370 613.6648 281.1092
v -439.5268 652.7415 272.0174
f 34 35 36

g building_ID_1730D94C-8C23-4534-A44A-80C454857A43
v -121.1299 521.1665 271.0833
v -118.5030 516.6835 271.0837
v -122.4036 518.6919 271.0835
f 37 38 39
v -118.5030 516.6835 271.0837
v -121.1299 521.1665 271.0833
v -120.1086 523.1497 271.0832
f 40 41 42
v -120.1086 523.1497 271.0832
v -117.2284 519.1590 271.0836
v -118.5030 516.6835 271.0837
f 43 44 45
v -116.2081 521.1412 271.0834
v -117.2284 519.1590 271.0836
v -120.1086 523.1497 271.0832
f 46 47 48
v -117.2284 519.1598 277.9333
v -122.4036 518.6925 276.9763
v -118.5030 516.6841 276.9764
f 49 50 51
v -121.1300 521.1672 277.9330
v -122.4036 518.6925 276.9763
v -117.2284 519.1598 277.9333
f 52 53 54
v -120.1086 523.1504 277.0110
v -117.2284 519.1598 277.9333
v -116.2081 521.1419 277.0112
f 55 56 57
v -117.2284 519.1598 277.9333
v -120.1086 523.1504 277.0110
v -121.1300 521.1672 277.9330
f 58 59 60
v -120.6970 517.8137 274.1225
v -122.4036 518.6925 276.9763
v -122.4036 518.6924 275.5033
f 61 62 63
v -118.5030 516.6835 271.0837
v -120.6970 517.8137 274.1225
v -122.4036 518.6919 271.0835
f 64 65 66
v -122.4036 518.6921 273.2934
v -122.4036 518.6919 271.0835
v -120.6970 517.8137 274.1225
f 67 68 69
v -120.1087 523.1501 274.7880
v -120.1086 523.1504 277.0110
v -116.2081 521.1412 271.0834
f 70 71 72
v -120.1087 523.1501 274.7880
v -122.4036 518.6921 273.2934
v -122.4036 518.6924 275.5033
f 73 74 75
v -122.4036 518.6921 273.2934
v -121.1299 521.1665 271.0833
v -122.4036 518.6919 271.0835
f 76 77 78
v -122.4036 518.6925 276.9763
v -121.1300 521.1672 277.9330
v -122.4036 518.6924 275.5033
f 79 80 81
v -122.4036 518.6924 275.5033
v -120.1086 523.1504 277.0110
v -120.1087 523.1501 274.7880
f 82 83 84
v -120.1086 523.1497 271.0832
v -121.1299 521.1665 271.0833
v -120.1087 523.1501 274.7880
f 85 86 87
v -120.1087 523.1501 274.7880
v -121.1299 521.1665 271.0833
v -122.4036 518.6921 273.2934
f 88 89 90
v -120.1086 523.1504 277.0110
v -122.4036 518.6924 275.5033
v -121.1300 521.1672 277.9330
f 91 92 93
v -116.2081 521.1415 273.3063
v -116.2081 521.1419 277.0112
v -118.5030 516.6841 276.9764
f 94 95 96
v -117.2284 519.1598 277.9333
v -118.5030 516.6841 276.9764
v -116.2081 521.1419 277.0112
f 97 98 99
v -116.2081 521.1415 273.3063
v -118.5030 516.6837 274.0296
v -117.2284 519.1590 271.0836
f 100 101 102
v -118.5030 516.6837 274.0296
v -116.2081 521.1415 273.3063
v -118.5030 516.6841 276.9764
f 103 104 105
v -117.2284 519.1590 271.0836
v -116.2081 521.1412 271.0834
v -116.2081 521.1415 273.3063
f 106 107 108
v -118.5030 516.6837 274.0296
v -118.5030 516.6835 271.0837
v -117.2284 519.1590 271.0836
f 109 110 111
v -118.5030 516.6841 276.9764
v -122.4036 518.6925 276.9763
v -120.6970 517.8137 274.1225
f 112 113 114
v -120.6970 517.8137 274.1225
v -118.5030 516.6837 274.0296
v -118.5030 516.6841 276.9764
f 115 116 117
v -118.5030 516.6837 274.0296
v -120.6970 517.8137 274.1225
v -118.5030 516.6835 271.0837
f 118 119 120
v -120.6970 517.8137 274.1225
v -122.4036 518.6924 275.5033
v -122.4036 518.6921 273.2934
f 121 122 123
v -120.1087 523.1501 274.7880
v -116.2081 521.1412 271.0834
v -120.1086 523.1497 271.0832
f 124 125 126
v -120.1086 523.1504 277.0110
v -116.2081 521.1419 277.0112
v -116.2081 521.1415 273.3063
f 127 128 129
v -116.2081 521.1415 273.3063
v -116.2081 521.1412 271.0834
v -120.1086 523.1504 277.0110
f 130 131 132

g building_ID_4A35057C-5DC9-4423-9961-7363D755AAB5
v -112.3127 497.8341 271.1353
v -108.1277 500.4209 271.1351
v -109.5595 496.7808 271.1354
f 133 134 135
v -108.1277 500.4209 271.1351
v -106.3107 513.5188 271.1341
v -105.1538 516.4606 271.1339
f 136 137 138
v -104.4137 498.9589 271.1353
v -108.1277 500.4209 271.1351
v -98.6615 513.9763 271.1342
f 139 140 141
v -105.1538 516.4606 271.1339
v -98.6615 513.9763 271.1342
v -108.1277 500.4209 271.1351
f 142 143 144
v -112.3127 497.8341 271.1353
v -106.3107 513.5188 271.1341
v -108.1277 500.4209 271.1351
f 145 146 147
v -108.1278 500.4215 277.6329
v -98.6616 513.9771 277.6320
v -105.1538 516.4614 277.6317
f 148 149 150
v -106.3107 513.5195 277.6319
v -108.1278 500.4215 277.6329
v -105.1538 516.4614 277.6317
f 151 152 153
v -108.1278 500.4215 277.6329
v -112.3127 497.8348 277.6331
v -109.5595 496.7814 277.6332
f 154 155 156
v -98.6616 513.9771 277.6320
v -108.1278 500.4215 277.6329
v -104.4137 498.9596 277.6331
f 157 158 159
v -106.3107 513.5195 277.6319
v -112.3127 497.8348 277.6331
v -108.1278 500.4215 277.6329
f 160 161 162
v -106.3107 513.5188 271.1341
v -106.3107 513.5195 277.6319
v -105.1538 516.4614 277.6317
f 163 164 165
v -112.3127 497.8341 271.1353
v -112.3127 497.8348 277.6331
v -106.3107 513.5195 277.6319
f 166 167 168
v -109.5595 496.7808 271.1354
v -109.5595 496.7814 277.6332
v -112.3127 497.8348 277.6331
f 169 170 171
v -108.1277 500.4209 271.1351
v -108.1278 500.4215 277.6329
v -109.5595 496.7814 277.6332
f 172 173 174
v -104.4137 498.9589 271.1353
v -104.4137 498.9596 277.6331
v -108.1278 500.4215 277.6329
f 175 176 177
v -98.6615 513.9763 271.1342
v -98.6616 513.9771 277.6320
v -104.4137 498.9596 277.6331
f 178 179 180
v -105.1538 516.4606 271.1339
v -105.1538 516.4614 277.6317
v -98.6616 513.9771 277.6320
f 181 182 183
v -106.3107 513.5188 271.1341
v -105.1538 516.4614 277.6317
v -105.1538 516.4606 271.1339
f 184 185 186
v -112.3127 497.8341 271.1353
v -106.3107 513.5195 277.6319
v -106.3107 513.5188 271.1341
f 187 188 189
v -109.5595 496.7808 271.1354
v -112.3127 497.8348 277.6331
v -112.3127 497.8341 271.1353
f 190 191 192
v -108.1277 500.4209 271.1351
v -109.5595 496.7814 277.6332
v -109.5595 496.7808 271.1354
f 193 194 195
v -104.4137 498.9589 271.1353
v -108.1278 500.4215 277.6329
v -108.1277 500.4209 271.1351
f 196 197 198
v -98.6615 513.9763 271.1342
v -104.4137 498.9596 277.6331
v -104.4137 498.9589 271.1353
f 199 200 201
v -105.1538 516.4606 271.1339
v -98.6616 513.9771 277.6320
v -98.6615 513.9763 271.1342
f 202 203 204

g building_ID_9AF8F76C-725D-43FF-AE12-4F6D201A1F61
v -127.3884 433.7014 281.5043
v -118.0056 430.6982 281.5047
v -117.7223 431.5815 281.0006
f 205 206 207
v -117.7223 431.5815 281.0006
v -127.1061 434.5846 281.0002
v -127.3884 433.7014 281.5043
f 208 209 210
v -127.7445 432.5884 281.8263
v -118.3626 429.5853 281.8267
v -118.0056 430.6982 281.5047
f 211 212 213
v -118.0056 430.6982 281.5047
v -127.3884 433.7014 281.5043
v -127.7445 432.5884 281.8263
f 214 215 216
v -118.7569 428.3504 281.9388
v -127.7445 432.5884 281.8263
v -128.1387 431.3545 281.9384
f 217 218 219
v -127.7445 432.5884 281.8263
v -118.7569 428.3504 281.9388
v -118.3626 429.5853 281.8267
f 220 221 222
v -128.1387 431.3545 281.9384
v -119.1522 427.1174 281.8269
v -118.7569 428.3504 281.9388
f 223 224 225
v -119.1522 427.1174 281.8269
v -128.1387 431.3545 281.9384
v -128.5331 430.1205 281.8265
f 226 227 228
v -117.5407 432.1479 280.3656
v -126.9246 435.1510 280.3652
v -117.7223 431.5815 281.0006
f 229 230 231
v -119.1522 427.1174 281.8269
v -128.5331 430.1205 281.8265
v -128.8900 429.0064 281.5046
f 232 233 234
v -128.8900 429.0064 281.5046
v -119.5082 426.0043 281.5049
v -119.1522 427.1174 281.8269
f 235 236 237
v -129.1714 428.1241 281.0006
v -119.7905 425.1220 281.0010
v -119.5082 426.0043 281.5049
f 238 239 240
v -119.5082 426.0043 281.5049
v -128.8900 429.0064 281.5046
v -129.1714 428.1241 281.0006
f 241 242 243
v -117.6757 430.2727 274.3329
v -117.6757 430.2733 279.6638
v -113.7442 429.0057 279.6639
f 244 245 246
v -117.6122 430.4686 274.3329
v -117.6123 430.4691 279.6638
v -117.6757 430.2733 279.6638
f 247 248 249
v -113.7442 429.0052 274.3330
v -113.7442 429.0057 279.6639
v -115.6248 423.1778 279.6642
f 250 251 252
v -118.0358 430.6037 274.3329
v -117.6757 430.2727 274.3329
v -115.6248 423.1773 274.3334
f 253 254 255
v -115.6248 423.1773 274.3334
v -117.6757 430.2727 274.3329
v -113.7442 429.0052 274.3330
f 256 257 258
v -117.6757 430.2727 274.3329
v -118.0358 430.6037 274.3329
v -117.6122 430.4686 274.3329
f 259 260 261
v -119.9640 424.5769 274.3332
v -118.0358 430.6037 274.3329
v -115.6248 423.1773 274.3334
f 262 263 264
v -113.7442 429.0057 279.6639
v -118.7569 428.3501 279.6639
v -119.1512 427.1192 279.6640
f 265 266 267
v -117.6757 430.2733 279.6638
v -118.0359 430.6042 279.6638
v -118.3626 429.5850 279.6638
f 268 269 270
v -118.7569 428.3501 279.6639
v -113.7442 429.0057 279.6639
v -118.3626 429.5850 279.6638
f 271 272 273
v -115.6248 423.1778 279.6642
v -119.7906 425.1219 279.6640
v -119.9640 424.5775 279.6640
f 274 275 276
v -119.1512 427.1192 279.6640
v -115.6248 423.1778 279.6642
v -113.7442 429.0057 279.6639
f 277 278 279
v -113.7442 429.0057 279.6639
v -117.6757 430.2733 279.6638
v -118.3626 429.5850 279.6638
f 280 281 282
v -117.6757 430.2733 279.6638
v -117.6123 430.4691 279.6638
v -118.0359 430.6042 279.6638
f 283 284 285
v -119.1512 427.1192 279.6640
v -119.7906 425.1219 279.6640
v -115.6248 423.1778 279.6642
f 286 287 288
v -118.0358 430.6037 274.3329
v -118.0359 430.6042 279.6638
v -117.6123 430.4691 279.6638
f 289 290 291
v -127.1010 434.5999 274.3174
v -117.5367 432.1603 274.3178
v -117.5558 432.1014 274.3178
f 292 293 294
v -119.9649 424.5769 274.3182
v -127.1010 434.5999 274.3174
v -117.5558 432.1014 274.3178
f 295 296 297
v -129.1713 428.1236 274.3178
v -128.6673 427.3842 274.3179
v -129.3387 427.6010 274.3178
f 298 299 300
v -128.8900 429.0058 274.3178
v -128.5330 430.1198 274.3177
v -119.9649 424.5769 274.3182
f 301 302 303
v -129.1713 428.1236 274.3178
v -128.8900 429.0058 274.3178
v -128.6673 427.3842 274.3179
f 304 305 306
v -119.9649 424.5769 274.3182
v -128.5330 430.1198 274.3177
v -127.7444 432.5867 274.3175
f 307 308 309
v -127.7444 432.5867 274.3175
v -127.1010 434.5999 274.3174
v -119.9649 424.5769 274.3182
f 310 311 312
v -126.9114 435.1914 274.3174
v -117.5367 432.1603 274.3178
v -127.1010 434.5999 274.3174
f 313 314 315
v -128.6673 427.3842 274.3179
v -128.8900 429.0058 274.3178
v -119.9649 424.5769 274.3182
f 316 317 318
v -126.9246 435.1510 280.3652
v -117.5367 432.1609 280.3196
v -126.9115 435.1919 280.2192
f 319 320 321
v -117.5407 432.1479 280.3656
v -117.5367 432.1609 280.3196
v -126.9246 435.1510 280.3652
f 322 323 324
v -119.7905 425.1220 281.0010
v -129.3388 427.6015 280.4166
v -119.9640 424.5775 280.3920
f 325 326 327
v -129.1714 428.1241 281.0006
v -129.3388 427.6015 280.4166
v -119.7905 425.1220 281.0010
f 328 329 330
v -117.5367 432.1609 280.3196
v -117.5367 432.1603 274.3178
v -126.9114 435.1914 274.3174
f 331 332 333
v -126.9115 435.1919 280.2192
v -117.5367 432.1609 280.3196
v -126.9114 435.1914 274.3174
f 334 335 336
v -115.6248 423.1773 274.3334
v -115.6248 423.1778 279.6642
v -119.9640 424.5769 274.3332
f 337 338 339
v -119.9640 424.5775 279.6640
v -119.9640 424.5769 274.3332
v -115.6248 423.1778 279.6642
f 340 341 342
v -119.9640 424.5775 279.6640
v -128.6673 427.3842 274.3179
v -119.9640 424.5769 274.3332
f 343 344 345
v -129.3388 427.6015 280.4166
v -119.9640 424.5775 279.6640
v -119.9640 424.5775 280.3920
f 346 347 348
v -128.6673 427.3842 274.3179
v -119.9649 424.5769 274.3182
v -119.9640 424.5769 274.3332
f 349 350 351
v -129.3388 427.6015 280.4166
v -129.3387 427.6010 274.3178
v -128.6673 427.3842 274.3179
f 352 353 354
v -129.3388 427.6015 280.4166
v -128.6673 427.3842 274.3179
v -119.9640 424.5775 279.6640
f 355 356 357
v -129.3387 427.6010 274.3178
v -127.7445 432.5884 281.8263
v -129.1713 428.1236 274.3178
f 358 359 360
v -127.7445 432.5884 281.8263
v -128.8900 429.0058 274.3178
v -129.1713 428.1236 274.3178
f 361 362 363
v -129.3387 427.6010 274.3178
v -129.3388 427.6015 280.4166
v -128.5331 430.1205 281.8265
f 364 365 366
v -127.3884 433.7014 281.5043
v -128.5330 430.1198 274.3177
v -128.8900 429.0058 274.3178
f 367 368 369
v -128.5330 430.1198 274.3177
v -126.9115 435.1919 280.2192
v -127.7444 432.5867 274.3175
f 370 371 372
v -127.1010 434.5999 274.3174
v -127.7444 432.5867 274.3175
v -126.9115 435.1919 280.2192
f 373 374 375
v -129.1714 428.1241 281.0006
v -128.8900 429.0064 281.5046
v -129.3388 427.6015 280.4166
f 376 377 378
v -129.3387 427.6010 274.3178
v -128.5331 430.1205 281.8265
v -128.1387 431.3545 281.9384
f 379 380 381
v -127.7445 432.5884 281.8263
v -127.3884 433.7014 281.5043
v -128.8900 429.0058 274.3178
f 382 383 384
v -127.7445 432.5884 281.8263
v -129.3387 427.6010 274.3178
v -128.1387 431.3545 281.9384
f 385 386 387
v -127.3884 433.7014 281.5043
v -127.1061 434.5846 281.0002
v -128.5330 430.1198 274.3177
f 388 389 390
v -126.9246 435.1510 280.3652
v -126.9115 435.1919 280.2192
v -127.1061 434.5846 281.0002
f 391 392 393
v -126.9115 435.1919 280.2192
v -126.9114 435.1914 274.3174
v -127.1010 434.5999 274.3174
f 394 395 396
v -128.5330 430.1198 274.3177
v -127.1061 434.5846 281.0002
v -126.9115 435.1919 280.2192
f 397 398 399
v -129.3388 427.6015 280.4166
v -128.8900 429.0064 281.5046
v -128.5331 430.1205 281.8265
f 400 401 402
v -118.7569 428.3501 279.6639
v -118.7569 428.3504 281.9388
v -119.1522 427.1174 281.8269
f 403 404 405
v -118.3626 429.5850 279.6638
v -118.3626 429.5853 281.8267
v -118.7569 428.3501 279.6639
f 406 407 408
v -118.7569 428.3504 281.9388
v -118.7569 428.3501 279.6639
v -118.3626 429.5853 281.8267
f 409 410 411
v -118.7569 428.3501 279.6639
v -119.1522 427.1174 281.8269
v -119.1512 427.1192 279.6640
f 412 413 414
v -119.1512 427.1192 279.6640
v -119.5082 426.0043 281.5049
v -119.7905 425.1220 281.0010
f 415 416 417
v -119.1512 427.1192 279.6640
v -119.7905 425.1220 281.0010
v -119.7906 425.1219 279.6640
f 418 419 420
v -119.1522 427.1174 281.8269
v -119.5082 426.0043 281.5049
v -119.1512 427.1192 279.6640
f 421 422 423
v -117.7223 431.5815 281.0006
v -118.0359 430.6042 279.6638
v -117.5407 432.1479 280.3656
f 424 425 426
v -117.5407 432.1479 280.3656
v -118.0359 430.6042 279.6638
v -117.5367 432.1609 280.3196
f 427 428 429
v -118.0359 430.6042 279.6638
v -117.7223 431.5815 281.0006
v -118.0056 430.6982 281.5047
f 430 431 432
v -118.0056 430.6982 281.5047
v -118.3626 429.5850 279.6638
v -118.0359 430.6042 279.6638
f 433 434 435
v -118.0359 430.6042 279.6638
v -117.5558 432.1014 274.3178
v -117.5367 432.1603 274.3178
f 436 437 438
v -117.5367 432.1609 280.3196
v -118.0359 430.6042 279.6638
v -117.5367 432.1603 274.3178
f 439 440 441
v -118.3626 429.5850 279.6638
v -118.0056 430.6982 281.5047
v -118.3626 429.5853 281.8267
f 442 443 444
v -119.7906 425.1219 279.6640
v -119.9640 424.5775 280.3920
v -119.9640 424.5775 279.6640
f 445 446 447
v -119.9649 424.5769 274.3182
v -118.0358 430.6037 274.3329
v -119.9640 424.5769 274.3332
f 448 449 450
v -119.9649 424.5769 274.3182
v -117.5558 432.1014 274.3178
v -118.0358 430.6037 274.3329
f 451 452 453
v -118.0358 430.6037 274.3329
v -117.5558 432.1014 274.3178
v -118.0359 430.6042 279.6638
f 454 455 456
v -119.9640 424.5775 280.3920
v -119.7906 425.1219 279.6640
v -119.7905 425.1220 281.0010
f 457 458 459
v -126.9246 435.1510 280.3652
v -127.1061 434.5846 281.0002
v -117.7223 431.5815 281.0006
f 460 461 462
v -117.6757 430.2727 274.3329
v -113.7442 429.0057 279.6639
v -113.7442 429.0052 274.3330
f 463 464 465
v -117.6122 430.4686 274.3329
v -117.6757 430.2733 279.6638
v -117.6757 430.2727 274.3329
f 466 467 468
v -113.7442 429.0052 274.3330
v -115.6248 423.1778 279.6642
v -115.6248 423.1773 274.3334
f 469 470 471
v -118.0358 430.6037 274.3329
v -117.6123 430.4691 279.6638
v -117.6122 430.4686 274.3329
f 472 473 474

g building_ID_47D49DFB-D23F-4FBB-8670-D34F36138688
v -129.5281 345.4183 283.6384
v -121.7991 343.2386 283.6387
v -129.0305 346.7810 283.6384
f 475 476 477
v -119.6093 351.0057 283.6383
v -129.0305 346.7810 283.6384
v -121.7991 343.2386 283.6387
f 478 479 480
v -129.1354 346.8113 283.6384
v -129.5281 345.4183 283.6384
v -129.0305 346.7810 283.6384
f 481 482 483
v -119.6093 351.0057 283.6383
v -127.1453 353.2159 283.6380
v -129.0305 346.7810 283.6384
f 484 485 486
v -127.1452 353.2151 273.5834
v -127.1453 353.2159 283.6380
v -119.6093 351.0057 283.6383
f 487 488 489
v -129.5281 345.4183 282.8794
v -129.5281 345.4183 283.6384
v -129.1354 346.8113 283.6384
f 490 491 492
v -121.7991 343.2385 282.8797
v -121.7991 343.2386 283.6387
v -129.5281 345.4183 283.6384
f 493 494 495
v -132.5578 339.1667 273.5841
v -132.5578 339.1675 282.8797
v -130.2306 347.1331 282.8793
f 496 497 498
v -123.9837 336.6528 273.5844
v -123.9837 336.6535 282.8800
v -132.5578 339.1675 282.8797
f 499 500 501
v -108.8932 332.3984 273.5848
v -108.8933 332.3991 282.8805
v -123.9837 336.6535 282.8800
f 502 503 504
v -106.8741 339.5579 273.5846
v -106.8741 339.5586 282.8802
v -108.8933 332.3991 282.8805
f 505 506 507
v -114.6618 341.8417 273.5843
v -114.6619 341.8425 282.8799
v -106.8741 339.5586 282.8802
f 508 509 510
v -121.6385 343.8084 273.5841
v -121.6376 343.8091 282.8797
v -114.6618 341.8417 273.5843
f 511 512 513
v -127.1452 353.2151 273.5834
v -129.0304 346.7801 273.5838
v -127.1453 353.2159 283.6380
f 514 515 516
v -129.0305 346.7810 283.6384
v -127.1453 353.2159 283.6380
v -129.0304 346.7801 273.5838
f 517 518 519
v -119.6092 351.0049 273.5837
v -119.6093 351.0057 283.6383
v -121.3558 344.8106 273.5840
f 520 521 522
v -121.6376 343.8091 282.8797
v -121.3558 344.8106 273.5840
v -119.6093 351.0057 283.6383
f 523 524 525
v -121.6376 343.8091 282.8797
v -121.7991 343.2386 283.6387
v -121.7991 343.2385 282.8797
f 526 527 528
v -121.3558 344.8106 273.5840
v -121.6376 343.8091 282.8797
v -121.6385 343.8084 273.5841
f 529 530 531
v -119.6093 351.0057 283.6383
v -121.7991 343.2386 283.6387
v -121.6376 343.8091 282.8797
f 532 533 534
v -129.5281 345.4183 282.8794
v -132.5578 339.1675 282.8797
v -123.9837 336.6535 282.8800
f 535 536 537
v -129.1354 346.8112 282.8794
v -130.2306 347.1331 282.8793
v -129.5281 345.4183 282.8794
f 538 539 540
v -132.5578 339.1675 282.8797
v -129.5281 345.4183 282.8794
v -130.2306 347.1331 282.8793
f 541 542 543
v -121.7991 343.2385 282.8797
v -129.5281 345.4183 282.8794
v -123.9837 336.6535 282.8800
f 544 545 546
v -121.7991 343.2385 282.8797
v -123.9837 336.6535 282.8800
v -114.6619 341.8425 282.8799
f 547 548 549
v -108.8933 332.3991 282.8805
v -114.6619 341.8425 282.8799
v -123.9837 336.6535 282.8800
f 550 551 552
v -121.6376 343.8091 282.8797
v -121.7991 343.2385 282.8797
v -114.6619 341.8425 282.8799
f 553 554 555
v -106.8741 339.5586 282.8802
v -114.6619 341.8425 282.8799
v -108.8933 332.3991 282.8805
f 556 557 558
v -119.6092 351.0049 273.5837
v -129.0304 346.7801 273.5838
v -127.1452 353.2151 273.5834
f 559 560 561
v -121.3558 344.8106 273.5840
v -129.0304 346.7801 273.5838
v -119.6092 351.0049 273.5837
f 562 563 564
v -132.5578 339.1667 273.5841
v -130.2305 347.1324 273.5837
v -129.1353 346.8105 273.5838
f 565 566 567
v -108.8932 332.3984 273.5848
v -114.6618 341.8417 273.5843
v -106.8741 339.5579 273.5846
f 568 569 570
v -123.9837 336.6528 273.5844
v -114.6618 341.8417 273.5843
v -108.8932 332.3984 273.5848
f 571 572 573
v -132.5578 339.1667 273.5841
v -129.0304 346.7801 273.5838
v -121.6385 343.8084 273.5841
f 574 575 576
v -121.6385 343.8084 273.5841
v -129.0304 346.7801 273.5838
v -121.3558 344.8106 273.5840
f 577 578 579
v -121.6385 343.8084 273.5841
v -123.9837 336.6528 273.5844
v -132.5578 339.1667 273.5841
f 580 581 582
v -123.9837 336.6528 273.5844
v -121.6385 343.8084 273.5841
v -114.6618 341.8417 273.5843
f 583 584 585
v -129.1353 346.8105 273.5838
v -129.0304 346.7801 273.5838
v -132.5578 339.1667 273.5841
f 586 587 588
v -129.1354 346.8112 282.8794
v -129.1353 346.8105 273.5838
v -130.2306 347.1331 282.8793
f 589 590 591
v -130.2306 347.1331 282.8793
v -129.1353 346.8105 273.5838
v -130.2305 347.1324 273.5837
f 592 593 594
v -129.1353 346.8105 273.5838
v -129.1354 346.8112 282.8794
v -129.0304 346.7801 273.5838
f 595 596 597
v -129.0305 346.7810 283.6384
v -129.0304 346.7801 273.5838
v -129.1354 346.8112 282.8794
f 598 599 600
v -129.1354 346.8113 283.6384
v -129.0305 346.7810 283.6384
v -129.1354 346.8112 282.8794
f 601 602 603
v -127.1452 353.2151 273.5834
v -119.6093 351.0057 283.6383
v -119.6092 351.0049 273.5837
f 604 605 606
v -129.5281 345.4183 282.8794
v -129.1354 346.8113 283.6384
v -129.1354 346.8112 282.8794
f 607 608 609
v -121.7991 343.2385 282.8797
v -129.5281 345.4183 283.6384
v -129.5281 345.4183 282.8794
f 610 611 612
v -132.5578 339.1667 273.5841
v -130.2306 347.1331 282.8793
v -130.2305 347.1324 273.5837
f 613 614 615
v -123.9837 336.6528 273.5844
v -132.5578 339.1675 282.8797
v -132.5578 339.1667 273.5841
f 616 617 618
v -108.8932 332.3984 273.5848
v -123.9837 336.6535 282.8800
v -123.9837 336.6528 273.5844
f 619 620 621
v -106.8741 339.5579 273.5846
v -108.8933 332.3991 282.8805
v -108.8932 332.3984 273.5848
f 622 623 624
v -114.6618 341.8417 273.5843
v -106.8741 339.5586 282.8802
v -106.8741 339.5579 273.5846
f 625 626 627
v -121.6376 343.8091 282.8797
v -114.6619 341.8425 282.8799
v -114.6618 341.8417 273.5843
f 628 629 630

g building_ID_B8AFAEA2-9FBD-4EF0-93F4-479FCB5CB9EA
v -262.4984 378.6391 279.0098
v -270.4355 366.6325 279.0101
v -261.9942 364.1739 279.0106
f 631 632 633
v -262.4984 378.6391 279.0098
v -261.9942 364.1739 279.0106
v -258.6586 375.6299 279.0101
f 634 635 636
v -262.4984 378.6391 279.0098
v -258.6309 391.9185 279.0091
v -266.4801 380.2148 279.0095
f 637 638 639
v -262.6556 393.0974 279.0089
v -266.4801 380.2148 279.0095
v -258.6309 391.9185 279.0091
f 640 641 642
v -270.4355 366.6325 279.0101
v -262.4984 378.6391 279.0098
v -266.4801 380.2148 279.0095
f 643 644 645
v -258.6586 375.6299 279.0101
v -258.1508 377.3725 279.0100
v -262.4984 378.6391 279.0098
f 646 647 648
v -266.4799 380.2143 272.5457
v -266.4801 380.2148 279.0095
v -262.6556 393.0974 279.0089
f 649 650 651
v -270.4353 366.6320 272.5463
v -270.4355 366.6325 279.0101
v -266.4801 380.2148 279.0095
f 652 653 654
v -244.4625 384.6831 284.1299
v -247.9234 372.7985 284.1305
v -221.9639 365.2390 284.1319
f 655 656 657
v -217.6876 379.9244 284.1312
v -244.4625 384.6831 284.1299
v -221.9639 365.2390 284.1319
f 658 659 660
v -249.1468 386.0477 284.1296
v -244.4625 384.6831 284.1299
v -248.3172 388.8974 284.1295
f 661 662 663
v -217.6876 379.9244 284.1312
v -248.3172 388.8974 284.1295
v -244.4625 384.6831 284.1299
f 664 665 666
v -217.6874 379.9234 272.5476
v -217.6876 379.9244 284.1312
v -221.9639 365.2390 284.1319
f 667 668 669
v -221.9637 365.2381 272.5483
v -221.9639 365.2390 284.1319
v -247.9234 372.7985 284.1305
f 670 671 672
v -251.3385 361.0740 311.4380
v -249.0071 369.0807 311.4377
v -259.6637 372.1823 311.4371
f 673 674 675
v -259.6637 372.1823 311.4371
v -261.9951 364.1766 311.4374
v -251.3385 361.0740 311.4380
f 676 677 678
v -249.0071 369.0807 312.0057
v -244.4633 384.6855 312.0049
v -255.1199 387.7890 312.0043
f 679 680 681
v -255.1199 387.7890 312.0043
v -259.6637 372.1823 312.0051
v -249.0071 369.0807 312.0057
f 682 683 684
v -249.1475 386.0495 306.3168
v -248.3178 388.8993 306.3167
v -255.1197 387.7885 306.3165
f 685 686 687
v -258.6316 391.9209 306.3161
v -255.1197 387.7885 306.3165
v -248.3178 388.8993 306.3167
f 688 689 690
v -258.1516 377.3747 306.3170
v -255.1197 387.7885 306.3165
v -262.4992 378.6414 306.3168
f 691 692 693
v -258.6316 391.9209 306.3161
v -262.4992 378.6414 306.3168
v -255.1197 387.7885 306.3165
f 694 695 696
v -249.0071 369.0807 311.4377
v -249.0071 369.0807 312.0057
v -259.6637 372.1823 312.0051
f 697 698 699
v -255.1199 387.7890 312.0043
v -249.1475 386.0495 306.3168
v -255.1197 387.7885 306.3165
f 700 701 702
v -244.4625 384.6831 284.1299
v -249.1475 386.0495 306.3168
v -244.4633 384.6855 312.0049
f 703 704 705
v -255.1199 387.7890 312.0043
v -244.4633 384.6855 312.0049
v -249.1475 386.0495 306.3168
f 706 707 708
v -249.1468 386.0477 284.1296
v -249.1475 386.0495 306.3168
v -244.4625 384.6831 284.1299
f 709 710 711
v -262.4984 378.6391 279.0098
v -262.4992 378.6414 306.3168
v -258.6309 391.9185 279.0091
f 712 713 714
v -258.1508 377.3725 279.0100
v -258.1516 377.3747 306.3170
v -262.4992 378.6414 306.3168
f 715 716 717
v -248.3172 388.8974 284.1295
v -248.3178 388.8993 306.3167
v -249.1475 386.0495 306.3168
f 718 719 720
v -254.0033 361.8470 272.5473
v -251.3375 361.0709 272.5474
v -251.3385 361.0740 311.4380
f 721 722 723
v -261.9951 364.1766 311.4374
v -254.0033 361.8470 272.5473
v -251.3385 361.0740 311.4380
f 724 725 726
v -254.0033 361.8470 272.5473
v -261.9951 364.1766 311.4374
v -261.9942 364.1739 279.0106
f 727 728 729
v -261.9942 364.1739 279.0106
v -270.4355 366.6325 279.0101
v -270.4353 366.6320 272.5463
f 730 731 732
v -254.0033 361.8470 272.5473
v -261.9942 364.1739 279.0106
v -270.4353 366.6320 272.5463
f 733 734 735
v -247.9234 372.7985 284.1305
v -244.4625 384.6831 284.1299
v -244.4633 384.6855 312.0049
f 736 737 738
v -247.9231 372.7976 272.5469
v -247.9234 372.7985 284.1305
v -247.9997 372.5367 272.5469
f 739 740 741
v -249.0061 369.0775 272.5471
v -247.9997 372.5367 272.5469
v -247.9234 372.7985 284.1305
f 742 743 744
v -247.9234 372.7985 284.1305
v -244.4633 384.6855 312.0049
v -249.0071 369.0807 311.4377
f 745 746 747
v -244.4633 384.6855 312.0049
v -249.0071 369.0807 312.0057
v -249.0071 369.0807 311.4377
f 748 749 750
v -249.0061 369.0775 272.5471
v -247.9234 372.7985 284.1305
v -251.3375 361.0709 272.5474
f 751 752 753
v -251.3375 361.0709 272.5474
v -247.9234 372.7985 284.1305
v -251.3385 361.0740 311.4380
f 754 755 756
v -249.0071 369.0807 311.4377
v -251.3385 361.0740 311.4380
v -247.9234 372.7985 284.1305
f 757 758 759
v -248.3172 388.8974 284.1295
v -249.1113 389.1295 272.5459
v -258.6309 391.9185 279.0091
f 760 761 762
v -262.6556 393.0974 279.0089
v -258.6309 391.9185 279.0091
v -262.6554 393.0968 272.5451
f 763 764 765
v -258.6309 391.9185 279.0091
v -249.1113 389.1295 272.5459
v -262.6554 393.0968 272.5451
f 766 767 768
v -248.3172 388.8974 284.1295
v -258.6309 391.9185 279.0091
v -258.6316 391.9209 306.3161
f 769 770 771
v -258.6316 391.9209 306.3161
v -248.3178 388.8993 306.3167
v -248.3172 388.8974 284.1295
f 772 773 774
v -248.3172 388.8974 284.1295
v -217.6876 379.9244 284.1312
v -246.3005 388.3059 272.5460
f 775 776 777
v -248.3172 388.8974 284.1295
v -246.3005 388.3059 272.5460
v -249.1113 389.1295 272.5459
f 778 779 780
v -254.0033 361.8470 272.5473
v -266.4799 380.2143 272.5457
v -249.0061 369.0775 272.5471
f 781 782 783
v -249.0061 369.0775 272.5471
v -251.3375 361.0709 272.5474
v -254.0033 361.8470 272.5473
f 784 785 786
v -247.9997 372.5367 272.5469
v -249.0061 369.0775 272.5471
v -266.4799 380.2143 272.5457
f 787 788 789
v -270.4353 366.6320 272.5463
v -266.4799 380.2143 272.5457
v -254.0033 361.8470 272.5473
f 790 791 792
v -247.9231 372.7976 272.5469
v -266.4799 380.2143 272.5457
v -249.1113 389.1295 272.5459
f 793 794 795
v -262.6554 393.0968 272.5451
v -249.1113 389.1295 272.5459
v -266.4799 380.2143 272.5457
f 796 797 798
v -221.9637 365.2381 272.5483
v -247.9231 372.7976 272.5469
v -217.6874 379.9234 272.5476
f 799 800 801
v -246.3005 388.3059 272.5460
v -217.6874 379.9234 272.5476
v -247.9231 372.7976 272.5469
f 802 803 804
v -247.9231 372.7976 272.5469
v -249.1113 389.1295 272.5459
v -246.3005 388.3059 272.5460
f 805 806 807
v -247.9997 372.5367 272.5469
v -266.4799 380.2143 272.5457
v -247.9231 372.7976 272.5469
f 808 809 810
v -258.1516 377.3747 306.3170
v -258.6586 375.6299 279.0101
v -261.9942 364.1739 279.0106
f 811 812 813
v -261.9942 364.1739 279.0106
v -261.9951 364.1766 311.4374
v -258.1516 377.3747 306.3170
f 814 815 816
v -261.9951 364.1766 311.4374
v -259.6637 372.1823 311.4371
v -258.1516 377.3747 306.3170
f 817 818 819
v -259.6637 372.1823 311.4371
v -259.6637 372.1823 312.0051
v -258.1516 377.3747 306.3170
f 820 821 822
v -255.1197 387.7885 306.3165
v -258.1516 377.3747 306.3170
v -255.1199 387.7890 312.0043
f 823 824 825
v -259.6637 372.1823 312.0051
v -255.1199 387.7890 312.0043
v -258.1516 377.3747 306.3170
f 826 827 828
v -258.6586 375.6299 279.0101
v -258.1516 377.3747 306.3170
v -258.1508 377.3725 279.0100
f 829 830 831
v -266.4799 380.2143 272.5457
v -262.6556 393.0974 279.0089
v -262.6554 393.0968 272.5451
f 832 833 834
v -270.4353 366.6320 272.5463
v -266.4801 380.2148 279.0095
v -266.4799 380.2143 272.5457
f 835 836 837
v -217.6874 379.9234 272.5476
v -221.9639 365.2390 284.1319
v -221.9637 365.2381 272.5483
f 838 839 840
v -221.9637 365.2381 272.5483
v -247.9234 372.7985 284.1305
v -247.9231 372.7976 272.5469
f 841 842 843
v -249.0071 369.0807 311.4377
v -259.6637 372.1823 312.0051
v -259.6637 372.1823 311.4371
f 844 845 846
v -262.4992 378.6414 306.3168
v -258.6316 391.9209 306.3161
v -258.6309 391.9185 279.0091
f 847 848 849
v -258.1508 377.3725 279.0100
v -262.4992 378.6414 306.3168
v -262.4984 378.6391 279.0098
f 850 851 852
v -248.3172 388.8974 284.1295
v -249.1475 386.0495 306.3168
v -249.1468 386.0477 284.1296
f 853 854 855
v -217.6876 379.9244 284.1312
v -217.6874 379.9234 272.5476
v -246.3005 388.3059 272.5460
f 856 857 858

g building_ID_DA8113D9-2E9F-41FE-BDC3-11CAD58C574D
v -327.6316 395.5905 290.6343
v -352.8796 417.8571 290.6317
v -356.8657 403.9988 290.6322
f 859 860 861
v -352.8796 417.8571 290.6317
v -327.6316 395.5905 290.6343
v -323.6455 409.4487 290.6336
f 862 863 864
v -333.1601 397.1800 286.5981
v -327.6315 395.5903 287.3134
v -327.6316 395.5905 290.6343
f 865 866 867
v -333.1601 397.1800 286.5981
v -327.6315 395.5902 286.5985
v -327.6315 395.5903 287.3134
f 868 869 870
v -356.8656 403.9984 286.5964
v -333.1601 397.1800 286.5981
v -356.8657 403.9988 290.6322
f 871 872 873
v -323.6454 409.4485 287.3128
v -323.6455 409.4487 290.6336
v -327.6315 395.5903 287.3134
f 874 875 876
v -352.8795 417.8567 286.5958
v -352.8796 417.8571 290.6317
v -329.1740 411.0382 287.3025
f 877 878 879
v -323.6455 409.4487 290.6336
v -329.1740 411.0382 287.3025
v -352.8796 417.8571 290.6317
f 880 881 882
v -329.1741 411.0381 286.5975
v -352.8795 417.8567 286.5958
v -329.1740 411.0382 287.3025
f 883 884 885
v -323.6455 409.4487 290.6336
v -323.6454 409.4485 287.3128
v -329.1740 411.0382 287.3025
f 886 887 888
v -356.8656 403.9984 286.5964
v -356.8657 403.9988 290.6322
v -352.8796 417.8571 290.6317
f 889 890 891
v -344.0099 398.6961 286.5975
v -328.0574 394.1084 286.5986
v -333.1601 397.1800 286.5981
f 892 893 894
v -327.6315 395.5902 286.5985
v -333.1601 397.1800 286.5981
v -328.0574 394.1084 286.5986
f 895 896 897
v -392.9870 413.0422 286.5937
v -344.0099 398.6961 286.5975
v -356.8656 403.9984 286.5964
f 898 899 900
v -344.0099 398.6961 286.5975
v -333.1601 397.1800 286.5981
v -356.8656 403.9984 286.5964
f 901 902 903
v -352.8795 417.8567 286.5958
v -329.1741 411.0381 286.5975
v -328.8389 412.2022 286.5974
f 904 905 906
v -388.4767 428.4250 286.5930
v -386.9869 427.9960 286.5931
v -388.1709 429.4672 286.5929
f 907 908 909
v -352.8795 417.8567 286.5958
v -388.1709 429.4672 286.5929
v -386.9869 427.9960 286.5931
f 910 911 912
v -356.8656 403.9984 286.5964
v -391.0265 413.9510 286.5938
v -392.9870 413.0422 286.5937
f 913 914 915
v -391.0265 413.9510 286.5938
v -352.8795 417.8567 286.5958
v -386.9869 427.9960 286.5931
f 916 917 918
v -391.0265 413.9510 286.5938
v -392.5893 414.4002 286.5937
v -392.9870 413.0422 286.5937
f 919 920 921
v -352.8795 417.8567 286.5958
v -391.0265 413.9510 286.5938
v -356.8656 403.9984 286.5964
f 922 923 924
v -328.8389 412.2022 286.5974
v -388.1709 429.4672 286.5929
v -352.8795 417.8567 286.5958
f 925 926 927
v -344.0093 398.6949 272.6040
v -344.0099 398.6961 286.5975
v -392.9870 413.0422 286.5937
f 928 929 930
v -388.1702 429.4658 272.5994
v -388.1709 429.4672 286.5929
v -328.8389 412.2022 286.5974
f 931 932 933
v -304.8427 405.3001 287.3459
v -328.8389 412.2022 286.5974
v -328.8390 412.2023 287.3024
f 934 935 936
v -318.3795 409.1929 272.6046
v -328.8384 412.2010 272.6039
v -328.8389 412.2022 286.5974
f 937 938 939
v -304.8421 405.2987 272.6055
v -318.3795 409.1929 272.6046
v -304.8427 405.3001 287.3459
f 940 941 942
v -328.8389 412.2022 286.5974
v -304.8427 405.3001 287.3459
v -318.3795 409.1929 272.6046
f 943 944 945
v -304.8421 405.2987 272.6055
v -304.8427 405.3001 287.3459
v -309.5899 388.7970 287.3467
f 946 947 948
v -328.0574 394.1084 287.3135
v -309.5899 388.7970 287.3467
v -327.6315 395.5903 287.3134
f 949 950 951
v -304.8427 405.3001 287.3459
v -327.6315 395.5903 287.3134
v -309.5899 388.7970 287.3467
f 952 953 954
v -329.1740 411.0382 287.3025
v -323.6454 409.4485 287.3128
v -328.8390 412.2023 287.3024
f 955 956 957
v -304.8427 405.3001 287.3459
v -328.8390 412.2023 287.3024
v -323.6454 409.4485 287.3128
f 958 959 960
v -304.8427 405.3001 287.3459
v -323.6454 409.4485 287.3128
v -327.6315 395.5903 287.3134
f 961 962 963
v -329.1741 411.0381 286.5975
v -329.1740 411.0382 287.3025
v -328.8390 412.2023 287.3024
f 964 965 966
v -328.0574 394.1084 286.5986
v -328.0574 394.1084 287.3135
v -327.6315 395.5902 286.5985
f 967 968 969
v -391.0267 413.9514 290.6297
v -386.9871 427.9964 290.6290
v -388.4860 428.3933 290.6289
f 970 971 972
v -388.4769 428.4254 290.6289
v -388.4860 428.3933 290.6289
v -386.9871 427.9964 290.6290
f 973 974 975
v -388.4860 428.3933 290.6289
v -391.4107 429.2522 290.6287
v -392.5652 414.4815 290.6296
f 976 977 978
v -388.4860 428.3933 290.6289
v -392.5652 414.4815 290.6296
v -391.0267 413.9514 290.6297
f 979 980 981
v -392.5895 414.4006 290.6296
v -391.0267 413.9514 290.6297
v -392.5652 414.4815 290.6296
f 982 983 984
v -391.4107 429.2522 290.6287
v -395.4909 415.3403 290.6293
v -392.5652 414.4815 290.6296
f 985 986 987
v -395.4900 415.3387 272.5999
v -395.4909 415.3403 290.6293
v -391.4107 429.2522 290.6287
f 988 989 990
v -392.7203 414.5253 272.6001
v -392.5644 414.4799 272.6002
v -392.5652 414.4815 290.6296
f 991 992 993
v -395.4900 415.3387 272.5999
v -392.7203 414.5253 272.6001
v -395.4909 415.3403 290.6293
f 994 995 996
v -391.0265 413.9510 286.5938
v -391.0267 413.9514 290.6297
v -392.5893 414.4002 286.5937
f 997 998 999
v -386.9869 427.9960 286.5931
v -386.9871 427.9964 290.6290
v -391.0267 413.9514 290.6297
f 1000 1001 1002
v -388.4767 428.4250 286.5930
v -388.4769 428.4254 290.6289
v -386.9871 427.9964 290.6290
f 1003 1004 1005
v -388.4851 428.3918 272.5995
v -391.4098 429.2506 272.5993
v -391.4107 429.2522 290.6287
f 1006 1007 1008
v -388.4767 428.4250 286.5930
v -388.4851 428.3918 272.5995
v -388.4860 428.3933 290.6289
f 1009 1010 1011
v -388.4769 428.4254 290.6289
v -388.4767 428.4250 286.5930
v -388.4860 428.3933 290.6289
f 1012 1013 1014
v -388.4851 428.3918 272.5995
v -388.4767 428.4250 286.5930
v -388.1709 429.4672 286.5929
f 1015 1016 1017
v -388.1709 429.4672 286.5929
v -388.1702 429.4658 272.5994
v -388.4851 428.3918 272.5995
f 1018 1019 1020
v -323.1257 392.6880 272.6053
v -309.5894 388.7957 272.6062
v -309.5899 388.7970 287.3467
f 1021 1022 1023
v -323.1257 392.6880 272.6053
v -328.0574 394.1084 286.5986
v -328.0568 394.1072 272.6051
f 1024 1025 1026
v -328.0574 394.1084 286.5986
v -323.1257 392.6880 272.6053
v -309.5899 388.7970 287.3467
f 1027 1028 1029
v -309.5899 388.7970 287.3467
v -328.0574 394.1084 287.3135
v -328.0574 394.1084 286.5986
f 1030 1031 1032
v -328.0574 394.1084 286.5986
v -344.0099 398.6961 286.5975
v -344.0093 398.6949 272.6040
f 1033 1034 1035
v -328.0568 394.1072 272.6051
v -328.0574 394.1084 286.5986
v -344.0093 398.6949 272.6040
f 1036 1037 1038
v -388.4851 428.3918 272.5995
v -395.4900 415.3387 272.5999
v -391.4098 429.2506 272.5993
f 1039 1040 1041
v -388.4851 428.3918 272.5995
v -392.7203 414.5253 272.6001
v -395.4900 415.3387 272.5999
f 1042 1043 1044
v -388.4851 428.3918 272.5995
v -392.5644 414.4799 272.6002
v -392.7203 414.5253 272.6001
f 1045 1046 1047
v -392.5644 414.4799 272.6002
v -344.0093 398.6949 272.6040
v -392.9863 413.0410 272.6002
f 1048 1049 1050
v -328.0568 394.1072 272.6051
v -328.8384 412.2010 272.6039
v -318.3795 409.1929 272.6046
f 1051 1052 1053
v -304.8421 405.2987 272.6055
v -309.5894 388.7957 272.6062
v -318.3795 409.1929 272.6046
f 1054 1055 1056
v -392.5644 414.4799 272.6002
v -388.4851 428.3918 272.5995
v -344.0093 398.6949 272.6040
f 1057 1058 1059
v -344.0093 398.6949 272.6040
v -388.4851 428.3918 272.5995
v -328.8384 412.2010 272.6039
f 1060 1061 1062
v -328.8384 412.2010 272.6039
v -328.0568 394.1072 272.6051
v -344.0093 398.6949 272.6040
f 1063 1064 1065
v -328.0568 394.1072 272.6051
v -318.3795 409.1929 272.6046
v -323.1257 392.6880 272.6053
f 1066 1067 1068
v -323.1257 392.6880 272.6053
v -318.3795 409.1929 272.6046
v -309.5894 388.7957 272.6062
f 1069 1070 1071
v -388.1702 429.4658 272.5994
v -328.8384 412.2010 272.6039
v -388.4851 428.3918 272.5995
f 1072 1073 1074
v -392.9870 413.0422 286.5937
v -392.5893 414.4002 286.5937
v -392.9863 413.0410 272.6002
f 1075 1076 1077
v -392.5644 414.4799 272.6002
v -392.5893 414.4002 286.5937
v -392.5652 414.4815 290.6296
f 1078 1079 1080
v -392.5895 414.4006 290.6296
v -392.5652 414.4815 290.6296
v -392.5893 414.4002 286.5937
f 1081 1082 1083
v -333.1601 397.1800 286.5981
v -327.6316 395.5905 290.6343
v -356.8657 403.9988 290.6322
f 1084 1085 1086
v -323.6455 409.4487 290.6336
v -327.6316 395.5905 290.6343
v -327.6315 395.5903 287.3134
f 1087 1088 1089
v -356.8656 403.9984 286.5964
v -352.8796 417.8571 290.6317
v -352.8795 417.8567 286.5958
f 1090 1091 1092
v -344.0093 398.6949 272.6040
v -392.9870 413.0422 286.5937
v -392.9863 413.0410 272.6002
f 1093 1094 1095
v -388.1702 429.4658 272.5994
v -328.8389 412.2022 286.5974
v -328.8384 412.2010 272.6039
f 1096 1097 1098
v -304.8421 405.2987 272.6055
v -309.5899 388.7970 287.3467
v -309.5894 388.7957 272.6062
f 1099 1100 1101
v -329.1741 411.0381 286.5975
v -328.8390 412.2023 287.3024
v -328.8389 412.2022 286.5974
f 1102 1103 1104
v -328.0574 394.1084 287.3135
v -327.6315 395.5903 287.3134
v -327.6315 395.5902 286.5985
f 1105 1106 1107
v -395.4900 415.3387 272.5999
v -391.4107 429.2522 290.6287
v -391.4098 429.2506 272.5993
f 1108 1109 1110
v -392.7203 414.5253 272.6001
v -392.5652 414.4815 290.6296
v -395.4909 415.3403 290.6293
f 1111 1112 1113
v -391.0267 413.9514 290.6297
v -392.5895 414.4006 290.6296
v -392.5893 414.4002 286.5937
f 1114 1115 1116
v -386.9869 427.9960 286.5931
v -391.0267 413.9514 290.6297
v -391.0265 413.9510 286.5938
f 1117 1118 1119
v -388.4767 428.4250 286.5930
v -386.9871 427.9964 290.6290
v -386.9869 427.9960 286.5931
f 1120 1121 1122
v -388.4851 428.3918 272.5995
v -391.4107 429.2522 290.6287
v -388.4860 428.3933 290.6289
f 1123 1124 1125
v -392.5893 414.4002 286.5937
v -392.5644 414.4799 272.6002
v -392.9863 413.0410 272.6002
f 1126 1127 1128

g building_ID_04E9FDF5-94FB-4385-A8B3-D595381A5DA6
v -421.5932 418.6323 279.3587
v -415.8354 424.1817 279.3588
v -419.5963 425.3069 279.3585
f 1129 1130 1131
v -426.7090 414.6030 279.3587
v -421.5932 418.6323 279.3587
v -426.8757 414.6944 279.3586
f 1132 1133 1134
v -421.5932 418.6323 279.3587
v -430.3520 416.0868 279.3583
v -426.8757 414.6944 279.3586
f 1135 1136 1137
v -419.4004 412.2655 279.3593
v -415.8354 424.1817 279.3588
v -421.5932 418.6323 279.3587
f 1138 1139 1140
v -426.7090 414.6030 279.3587
v -426.7493 414.4632 279.3587
v -419.4004 412.2655 279.3593
f 1141 1142 1143
v -426.8757 414.6944 279.3586
v -426.8879 414.6555 279.3586
v -426.7090 414.6030 279.3587
f 1144 1145 1146
v -426.7090 414.6030 279.3587
v -419.4004 412.2655 279.3593
v -421.5932 418.6323 279.3587
f 1147 1148 1149
v -441.2351 420.0879 279.3574
v -441.3441 419.7132 279.3574
v -437.6020 418.6172 279.3578
f 1150 1151 1152
v -447.3912 426.3503 279.3566
v -441.2351 420.0879 279.3574
v -437.6020 418.6172 279.3578
f 1153 1154 1155
v -441.2351 420.0879 279.3574
v -447.3912 426.3503 279.3566
v -448.5942 422.2436 279.3568
f 1156 1157 1158
v -437.6020 418.6172 279.3578
v -430.3520 416.0868 279.3583
v -421.5932 418.6323 279.3587
f 1159 1160 1161
v -430.3520 416.0868 279.3583
v -430.4165 415.8679 279.3583
v -430.2909 415.7156 279.3583
f 1162 1163 1164
v -430.3520 416.0868 279.3583
v -437.6020 418.6172 279.3578
v -437.7111 418.2425 279.3578
f 1165 1166 1167
v -430.3520 416.0868 279.3583
v -430.2909 415.7156 279.3583
v -426.8757 414.6944 279.3586
f 1168 1169 1170
v -447.3912 426.3503 279.3566
v -437.6020 418.6172 279.3578
v -421.5932 418.6323 279.3587
f 1171 1172 1173
v -441.2347 420.0873 272.4836
v -441.2351 420.0879 279.3574
v -448.5942 422.2436 279.3568
f 1174 1175 1176
v -441.3437 419.7126 272.4836
v -441.3441 419.7132 279.3574
v -441.2351 420.0879 279.3574
f 1177 1178 1179
v -437.6016 418.6165 272.4840
v -437.6020 418.6172 279.3578
v -441.3437 419.7126 272.4836
f 1180 1181 1182
v -437.7107 418.2419 272.4840
v -437.7111 418.2425 279.3578
v -437.6020 418.6172 279.3578
f 1183 1184 1185
v -430.3516 416.0862 272.4846
v -430.3520 416.0868 279.3583
v -437.7111 418.2425 279.3578
f 1186 1187 1188
v -430.4161 415.8674 272.4846
v -430.4165 415.8679 279.3583
v -430.3520 416.0868 279.3583
f 1189 1190 1191
v -430.2905 415.7150 272.4846
v -430.2909 415.7156 279.3583
v -430.4165 415.8679 279.3583
f 1192 1193 1194
v -426.8753 414.6939 272.4849
v -426.8757 414.6944 279.3586
v -430.2909 415.7156 279.3583
f 1195 1196 1197
v -426.8875 414.6549 272.4849
v -426.8879 414.6555 279.3586
v -426.8757 414.6944 279.3586
f 1198 1199 1200
v -426.7086 414.6024 272.4850
v -426.7090 414.6030 279.3587
v -426.8879 414.6555 279.3586
f 1201 1202 1203
v -426.7489 414.4625 272.4850
v -426.7493 414.4632 279.3587
v -426.7090 414.6030 279.3587
f 1204 1205 1206
v -419.4000 412.2648 272.4856
v -419.4004 412.2655 279.3593
v -426.7493 414.4632 279.3587
f 1207 1208 1209
v -415.8351 424.1812 272.4850
v -415.8354 424.1817 279.3588
v -419.4004 412.2655 279.3593
f 1210 1211 1212
v -419.5960 425.3062 272.4847
v -419.5963 425.3069 279.3585
v -415.8354 424.1817 279.3588
f 1213 1214 1215
v -418.4149 429.2568 281.2272
v -447.3520 426.4864 281.2255
v -421.5934 418.6324 281.2277
f 1216 1217 1218
v -421.5934 418.6324 281.2277
v -447.3520 426.4864 281.2255
v -447.3913 426.3505 281.2255
f 1219 1220 1221
v -452.4614 449.4028 281.2235
v -418.4149 429.2568 281.2272
v -415.6265 438.7472 281.2268
f 1222 1223 1224
v -462.2774 452.3391 281.2226
v -418.4149 429.2568 281.2272
v -452.4614 449.4028 281.2235
f 1225 1226 1227
v -418.4149 429.2568 281.2272
v -468.0834 432.5459 281.2236
v -447.3520 426.4864 281.2255
f 1228 1229 1230
v -468.0834 432.5459 281.2236
v -418.4149 429.2568 281.2272
v -462.2774 452.3391 281.2226
f 1231 1232 1233
v -452.4241 449.5267 281.2235
v -452.4614 449.4028 281.2235
v -415.6265 438.7472 281.2268
f 1234 1235 1236
v -468.0829 432.5451 272.4809
v -468.0834 432.5459 281.2236
v -462.2774 452.3391 281.2226
f 1237 1238 1239
v -415.6260 438.7464 272.4841
v -415.6265 438.7472 281.2268
v -418.4149 429.2568 281.2272
f 1240 1241 1242
v -452.4236 449.5260 272.4808
v -452.4241 449.5267 281.2235
v -415.6265 438.7472 281.2268
f 1243 1244 1245
v -452.4609 449.4020 272.4808
v -452.4614 449.4028 281.2235
v -452.4241 449.5267 281.2235
f 1246 1247 1248
v -462.2769 452.3383 272.4799
v -462.2774 452.3391 281.2226
v -452.4614 449.4028 281.2235
f 1249 1250 1251
v -468.0829 432.5451 272.4809
v -447.3514 426.4856 272.4828
v -468.0834 432.5459 281.2236
f 1252 1253 1254
v -421.5932 418.6323 279.3587
v -421.5934 418.6324 281.2277
v -447.3913 426.3505 281.2255
f 1255 1256 1257
v -418.5739 428.7184 272.4846
v -418.4144 429.2560 272.4845
v -419.5963 425.3069 279.3585
f 1258 1259 1260
v -418.4149 429.2568 281.2272
v -419.5963 425.3069 279.3585
v -418.4144 429.2560 272.4845
f 1261 1262 1263
v -419.5963 425.3069 279.3585
v -421.5934 418.6324 281.2277
v -421.5932 418.6323 279.3587
f 1264 1265 1266
v -418.5739 428.7184 272.4846
v -419.5963 425.3069 279.3585
v -419.5960 425.3062 272.4847
f 1267 1268 1269
v -418.4149 429.2568 281.2272
v -421.5934 418.6324 281.2277
v -419.5963 425.3069 279.3585
f 1270 1271 1272
v -448.5938 422.2430 272.4830
v -448.5942 422.2436 279.3568
v -447.3912 426.3503 279.3566
f 1273 1274 1275
v -447.3520 426.4864 281.2255
v -447.3514 426.4856 272.4828
v -447.3912 426.3503 279.3566
f 1276 1277 1278
v -447.3913 426.3505 281.2255
v -447.3520 426.4864 281.2255
v -447.3912 426.3503 279.3566
f 1279 1280 1281
v -468.0829 432.5451 272.4809
v -462.2769 452.3383 272.4799
v -452.4609 449.4020 272.4808
f 1282 1283 1284
v -447.3514 426.4856 272.4828
v -468.0829 432.5451 272.4809
v -452.4609 449.4020 272.4808
f 1285 1286 1287
v -447.3514 426.4856 272.4828
v -452.4609 449.4020 272.4808
v -418.4144 429.2560 272.4845
f 1288 1289 1290
v -447.3514 426.4856 272.4828
v -419.5960 425.3062 272.4847
v -437.6016 418.6165 272.4840
f 1291 1292 1293
v -448.5938 422.2430 272.4830
v -447.3514 426.4856 272.4828
v -441.2347 420.0873 272.4836
f 1294 1295 1296
v -441.2347 420.0873 272.4836
v -437.6016 418.6165 272.4840
v -441.3437 419.7126 272.4836
f 1297 1298 1299
v -430.3516 416.0862 272.4846
v -437.7107 418.2419 272.4840
v -437.6016 418.6165 272.4840
f 1300 1301 1302
v -441.2347 420.0873 272.4836
v -447.3514 426.4856 272.4828
v -437.6016 418.6165 272.4840
f 1303 1304 1305
v -415.6260 438.7464 272.4841
v -452.4609 449.4020 272.4808
v -452.4236 449.5260 272.4808
f 1306 1307 1308
v -419.5960 425.3062 272.4847
v -430.3516 416.0862 272.4846
v -437.6016 418.6165 272.4840
f 1309 1310 1311
v -415.6260 438.7464 272.4841
v -418.4144 429.2560 272.4845
v -452.4609 449.4020 272.4808
f 1312 1313 1314
v -418.5739 428.7184 272.4846
v -447.3514 426.4856 272.4828
v -418.4144 429.2560 272.4845
f 1315 1316 1317
v -419.5960 425.3062 272.4847
v -426.8753 414.6939 272.4849
v -430.3516 416.0862 272.4846
f 1318 1319 1320
v -418.5739 428.7184 272.4846
v -419.5960 425.3062 272.4847
v -447.3514 426.4856 272.4828
f 1321 1322 1323
v -415.8351 424.1812 272.4850
v -419.4000 412.2648 272.4856
v -419.5960 425.3062 272.4847
f 1324 1325 1326
v -430.3516 416.0862 272.4846
v -430.2905 415.7150 272.4846
v -430.4161 415.8674 272.4846
f 1327 1328 1329
v -419.4000 412.2648 272.4856
v -426.7086 414.6024 272.4850
v -426.8753 414.6939 272.4849
f 1330 1331 1332
v -426.7086 414.6024 272.4850
v -419.4000 412.2648 272.4856
v -426.7489 414.4625 272.4850
f 1333 1334 1335
v -430.2905 415.7150 272.4846
v -430.3516 416.0862 272.4846
v -426.8753 414.6939 272.4849
f 1336 1337 1338
v -426.8753 414.6939 272.4849
v -426.7086 414.6024 272.4850
v -426.8875 414.6549 272.4849
f 1339 1340 1341
v -426.8753 414.6939 272.4849
v -419.5960 425.3062 272.4847
v -419.4000 412.2648 272.4856
f 1342 1343 1344
v -441.2347 420.0873 272.4836
v -448.5942 422.2436 279.3568
v -448.5938 422.2430 272.4830
f 1345 1346 1347
v -441.3437 419.7126 272.4836
v -441.2351 420.0879 279.3574
v -441.2347 420.0873 272.4836
f 1348 1349 1350
v -437.6020 418.6172 279.3578
v -441.3441 419.7132 279.3574
v -441.3437 419.7126 272.4836
f 1351 1352 1353
v -437.7107 418.2419 272.4840
v -437.6020 418.6172 279.3578
v -437.6016 418.6165 272.4840
f 1354 1355 1356
v -430.3516 416.0862 272.4846
v -437.7111 418.2425 279.3578
v -437.7107 418.2419 272.4840
f 1357 1358 1359
v -430.4161 415.8674 272.4846
v -430.3520 416.0868 279.3583
v -430.3516 416.0862 272.4846
f 1360 1361 1362
v -430.2905 415.7150 272.4846
v -430.4165 415.8679 279.3583
v -430.4161 415.8674 272.4846
f 1363 1364 1365
v -426.8753 414.6939 272.4849
v -430.2909 415.7156 279.3583
v -430.2905 415.7150 272.4846
f 1366 1367 1368
v -426.8875 414.6549 272.4849
v -426.8757 414.6944 279.3586
v -426.8753 414.6939 272.4849
f 1369 1370 1371
v -426.7086 414.6024 272.4850
v -426.8879 414.6555 279.3586
v -426.8875 414.6549 272.4849
f 1372 1373 1374
v -426.7489 414.4625 272.4850
v -426.7090 414.6030 279.3587
v -426.7086 414.6024 272.4850
f 1375 1376 1377
v -419.4000 412.2648 272.4856
v -426.7493 414.4632 279.3587
v -426.7489 414.4625 272.4850
f 1378 1379 1380
v -415.8351 424.1812 272.4850
v -419.4004 412.2655 279.3593
v -419.4000 412.2648 272.4856
f 1381 1382 1383
v -419.5960 425.3062 272.4847
v -415.8354 424.1817 279.3588
v -415.8351 424.1812 272.4850
f 1384 1385 1386
v -468.0829 432.5451 272.4809
v -462.2774 452.3391 281.2226
v -462.2769 452.3383 272.4799
f 1387 1388 1389
v -415.6260 438.7464 272.4841
v -418.4149 429.2568 281.2272
v -418.4144 429.2560 272.4845
f 1390 1391 1392
v -452.4236 449.5260 272.4808
v -415.6265 438.7472 281.2268
v -415.6260 438.7464 272.4841
f 1393 1394 1395
v -452.4609 449.4020 272.4808
v -452.4241 449.5267 281.2235
v -452.4236 449.5260 272.4808
f 1396 1397 1398
v -462.2769 452.3383 272.4799
v -452.4614 449.4028 281.2235
v -452.4609 449.4020 272.4808
f 1399 1400 1401
v -447.3514 426.4856 272.4828
v -447.3520 426.4864 281.2255
v -468.0834 432.5459 281.2236
f 1402 1403 1404
v -421.5932 418.6323 279.3587
v -447.3913 426.3505 281.2255
v -447.3912 426.3503 279.3566
f 1405 1406 1407
v -448.5938 422.2430 272.4830
v -447.3912 426.3503 279.3566
v -447.3514 426.4856 272.4828
f 1408 1409 1410

g building_ID_97C0F93D-9E55-4805-8EED-3EC18407F37C
v -281.8915 301.3957 287.0217
v -286.7772 303.3737 287.0533
v -280.2496 300.6582 287.0538
f 1411 1412 1413
v -286.7772 303.3737 287.0533
v -281.8915 301.3957 287.0217
v -283.8782 302.2879 286.9825
f 1414 1415 1416
v -286.6877 303.5505 286.9283
v -286.7772 303.3737 287.0533
v -283.8782 302.2879 286.9825
f 1417 1418 1419
v -286.6875 303.5499 279.9996
v -286.7770 303.3732 279.9996
v -286.7772 303.3737 287.0533
f 1420 1421 1422
v -286.6875 303.5499 279.9996
v -286.7772 303.3737 287.0533
v -286.6877 303.5505 286.9283
f 1423 1424 1425
v -280.2493 300.6577 280.0001
v -280.2496 300.6582 287.0538
v -286.7772 303.3737 287.0533
f 1426 1427 1428
v -283.8782 302.2879 286.9825
v -286.6875 303.5499 279.9996
v -286.6877 303.5505 286.9283
f 1429 1430 1431
v -282.4017 301.6245 279.9999
v -286.6875 303.5499 279.9996
v -283.8782 302.2879 286.9825
f 1432 1433 1434
v -283.8782 302.2879 286.9825
v -281.8915 301.3957 287.0217
v -282.4017 301.6245 279.9999
f 1435 1436 1437
v -280.2496 300.6582 287.0538
v -280.2493 300.6577 280.0001
v -281.8915 301.3957 287.0217
f 1438 1439 1440
v -286.7770 303.3732 279.9996
v -282.4017 301.6245 279.9999
v -280.2493 300.6577 280.0001
f 1441 1442 1443
v -286.6875 303.5499 279.9996
v -282.4017 301.6245 279.9999
v -286.7770 303.3732 279.9996
f 1444 1445 1446
v -280.2493 300.6577 280.0001
v -286.7772 303.3737 287.0533
v -286.7770 303.3732 279.9996
f 1447 1448 1449
v -280.2493 300.6577 280.0001
v -282.4017 301.6245 279.9999
v -281.8915 301.3957 287.0217
f 1450 1451 1452

g building_ID_63BAC188-B9CB-4FC9-BB69-710E967492C5
v -281.3371 298.6113 289.3467
v -279.3476 300.2528 287.0808
v -279.8850 300.4943 287.0648
f 1453 1454 1455
v -281.3371 298.6113 289.3467
v -278.7914 300.0023 287.0979
v -279.3476 300.2528 287.0808
f 1456 1457 1458
v -286.8345 303.2618 287.1773
v -280.2496 300.6582 287.0538
v -286.7772 303.3737 287.0533
f 1459 1460 1461
v -281.3371 298.6113 289.3467
v -280.2496 300.6582 287.0538
v -286.0568 300.5750 289.3464
f 1462 1463 1464
v -286.8345 303.2618 287.1773
v -286.0568 300.5750 289.3464
v -280.2496 300.6582 287.0538
f 1465 1466 1467
v -279.8850 300.4943 287.0648
v -280.2496 300.6582 287.0538
v -281.3371 298.6113 289.3467
f 1468 1469 1470
v -281.3371 298.6113 289.3467
v -286.0568 300.5750 289.3464
v -288.6303 299.2077 287.0535
f 1471 1472 1473
v -288.6303 299.2077 287.0535
v -280.4925 295.8209 287.0540
v -281.3371 298.6113 289.3467
f 1474 1475 1476
v -286.0568 300.5750 289.3464
v -287.4326 302.0865 287.0534
v -288.6303 299.2077 287.0535
f 1477 1478 1479
v -287.4326 302.0865 287.0534
v -286.0568 300.5750 289.3464
v -286.8345 303.2618 287.1773
f 1480 1481 1482
v -288.8055 299.1361 286.9685
v -288.6303 299.2077 287.0535
v -287.4326 302.0865 287.0534
f 1483 1484 1485
v -287.4326 302.0865 287.0534
v -288.9094 299.1824 286.8974
v -288.8055 299.1361 286.9685
f 1486 1487 1488
v -278.7584 299.9882 287.0539
v -280.4925 295.8209 287.0540
v -280.3047 295.3704 286.8360
f 1489 1490 1491
v -278.7584 299.9882 287.0539
v -280.3047 295.3704 286.8360
v -278.2959 299.7799 286.7349
f 1492 1493 1494
v -280.3047 295.3704 286.8360
v -280.4925 295.8209 287.0540
v -288.8055 299.1361 286.9685
f 1495 1496 1497
v -288.8055 299.1361 286.9685
v -280.4925 295.8209 287.0540
v -288.6303 299.2077 287.0535
f 1498 1499 1500
v -288.8055 299.1361 286.9685
v -280.3198 295.3385 286.8140
v -280.3047 295.3704 286.8360
f 1501 1502 1503
v -278.7914 300.0023 287.0979
v -281.3371 298.6113 289.3467
v -280.4925 295.8209 287.0540
f 1504 1505 1506
v -280.4925 295.8209 287.0540
v -278.7584 299.9882 287.0539
v -278.7914 300.0023 287.0979
f 1507 1508 1509
v -279.5332 300.3358 280.0001
v -279.8849 300.4940 282.6290
v -279.8850 300.4943 287.0648
f 1510 1511 1512
v -279.8850 300.4943 287.0648
v -279.8849 300.4940 282.6290
v -280.2496 300.6582 287.0538
f 1513 1514 1515
v -280.2493 300.6577 280.0001
v -279.8849 300.4940 282.6290
v -279.5332 300.3358 280.0001
f 1516 1517 1518
v -279.5332 300.3358 280.0001
v -279.3476 300.2528 287.0808
v -278.7901 300.0018 280.0002
f 1519 1520 1521
v -286.7770 303.3732 279.9996
v -286.7772 303.3737 287.0533
v -280.2493 300.6577 280.0001
f 1522 1523 1524
v -278.7584 299.9882 287.0539
v -278.2959 299.7799 286.7349
v -278.2957 299.7795 280.0002
f 1525 1526 1527
v -278.7612 299.9888 280.0002
v -278.7584 299.9882 287.0539
v -278.2957 299.7795 280.0002
f 1528 1529 1530
v -280.3196 295.3379 280.0003
v -278.2957 299.7795 280.0002
v -278.2959 299.7799 286.7349
f 1531 1532 1533
v -278.2959 299.7799 286.7349
v -280.3047 295.3704 286.8360
v -280.3196 295.3379 280.0003
f 1534 1535 1536
v -280.3198 295.3385 286.8140
v -280.3197 295.3382 283.3961
v -280.3047 295.3704 286.8360
f 1537 1538 1539
v -278.7584 299.9882 287.0539
v -278.7612 299.9888 280.0002
v -278.7901 300.0018 280.0002
f 1540 1541 1542
v -278.7612 299.9888 280.0002
v -278.2957 299.7795 280.0002
v -280.3196 295.3379 280.0003
f 1543 1544 1545
v -278.7612 299.9888 280.0002
v -280.3196 295.3379 280.0003
v -278.7901 300.0018 280.0002
f 1546 1547 1548
v -280.3196 295.3379 280.0003
v -286.2981 301.8219 279.9997
v -280.2493 300.6577 280.0001
f 1549 1550 1551
v -286.2981 301.8219 279.9997
v -287.3449 302.2577 279.9997
v -286.8342 303.2614 279.9996
f 1552 1553 1554
v -286.7770 303.3732 279.9996
v -286.2981 301.8219 279.9997
v -286.8342 303.2614 279.9996
f 1555 1556 1557
v -278.7901 300.0018 280.0002
v -280.3196 295.3379 280.0003
v -279.5332 300.3358 280.0001
f 1558 1559 1560
v -280.2493 300.6577 280.0001
v -279.5332 300.3358 280.0001
v -280.3196 295.3379 280.0003
f 1561 1562 1563
v -286.2981 301.8219 279.9997
v -286.7770 303.3732 279.9996
v -280.2493 300.6577 280.0001
f 1564 1565 1566
v -280.3196 295.3379 280.0003
v -287.6337 298.6115 279.9998
v -286.2981 301.8219 279.9997
f 1567 1568 1569
v -292.2626 299.7589 279.9106
v -292.2628 299.7593 285.6584
v -290.5969 303.4418 285.6583
f 1570 1571 1572
v -289.2872 298.4389 279.9108
v -289.2873 298.4394 285.6586
v -292.2628 299.7593 285.6584
f 1573 1574 1575
v -288.9092 299.1819 279.9107
v -288.9094 299.1823 285.6585
v -289.2873 298.4394 285.6586
f 1576 1577 1578
v -287.5953 302.1134 279.9107
v -287.5956 302.1138 285.6585
v -287.5000 302.3225 285.6585
f 1579 1580 1581
v -290.5968 303.4415 279.9105
v -290.5969 303.4418 285.6583
v -287.5956 302.1138 285.6585
f 1582 1583 1584
v -288.9092 299.1819 279.9107
v -289.2872 298.4389 279.9108
v -292.2626 299.7589 279.9106
f 1585 1586 1587
v -287.5953 302.1134 279.9107
v -287.6337 298.6115 279.9108
v -288.9092 299.1819 279.9107
f 1588 1589 1590
v -288.9092 299.1819 279.9107
v -292.2626 299.7589 279.9106
v -290.5968 303.4415 279.9105
f 1591 1592 1593
v -288.9092 299.1819 279.9107
v -290.5968 303.4415 279.9105
v -287.5953 302.1134 279.9107
f 1594 1595 1596
v -287.5953 302.1134 279.9107
v -287.4997 302.3221 279.9107
v -286.2981 301.8219 279.9107
f 1597 1598 1599
v -287.6337 298.6115 279.9108
v -287.5953 302.1134 279.9107
v -286.2981 301.8219 279.9107
f 1600 1601 1602
v -288.9094 299.1823 285.6585
v -292.2628 299.7593 285.6584
v -289.2873 298.4394 285.6586
f 1603 1604 1605
v -287.5956 302.1138 285.6585
v -290.5969 303.4418 285.6583
v -288.9094 299.1823 285.6585
f 1606 1607 1608
v -292.2628 299.7593 285.6584
v -288.9094 299.1823 285.6585
v -290.5969 303.4418 285.6583
f 1609 1610 1611
v -287.5000 302.3225 285.6585
v -287.5956 302.1138 285.6585
v -287.3451 302.2581 285.6585
f 1612 1613 1614
v -288.9094 299.1823 285.6585
v -287.3451 302.2581 285.6585
v -287.5956 302.1138 285.6585
f 1615 1616 1617
v -286.2981 301.8219 279.9107
v -286.2981 301.8219 279.9997
v -287.6337 298.6115 279.9108
f 1618 1619 1620
v -287.4997 302.3221 279.9107
v -287.5000 302.3225 285.6585
v -287.3449 302.2577 279.9997
f 1621 1622 1623
v -287.3451 302.2581 285.6585
v -287.3449 302.2577 279.9997
v -287.5000 302.3225 285.6585
f 1624 1625 1626
v -286.2981 301.8219 279.9107
v -287.4997 302.3221 279.9107
v -287.3449 302.2577 279.9997
f 1627 1628 1629
v -287.3451 302.2581 285.6585
v -288.9094 299.1824 286.8974
v -287.4326 302.0865 287.0534
f 1630 1631 1632
v -288.9094 299.1824 286.8974
v -287.3451 302.2581 285.6585
v -288.9094 299.1823 285.6585
f 1633 1634 1635
v -287.3451 302.2581 285.6585
v -286.8345 303.2618 287.1773
v -286.7772 303.3737 287.0533
f 1636 1637 1638
v -286.8342 303.2614 279.9996
v -287.3451 302.2581 285.6585
v -286.7770 303.3732 279.9996
f 1639 1640 1641
v -286.7772 303.3737 287.0533
v -286.7770 303.3732 279.9996
v -287.3451 302.2581 285.6585
f 1642 1643 1644
v -287.3449 302.2577 279.9997
v -287.3451 302.2581 285.6585
v -286.8342 303.2614 279.9996
f 1645 1646 1647
v -287.4326 302.0865 287.0534
v -286.8345 303.2618 287.1773
v -287.3451 302.2581 285.6585
f 1648 1649 1650
v -280.3198 295.3385 286.8140
v -288.9094 299.1823 285.6585
v -280.3197 295.3382 283.3961
f 1651 1652 1653
v -280.3197 295.3382 283.3961
v -287.6337 298.6115 279.9998
v -280.3196 295.3379 280.0003
f 1654 1655 1656
v -288.9094 299.1823 285.6585
v -288.8055 299.1361 286.9685
v -288.9094 299.1824 286.8974
f 1657 1658 1659
v -280.3197 295.3382 283.3961
v -288.9094 299.1823 285.6585
v -287.6337 298.6115 279.9998
f 1660 1661 1662
v -288.9094 299.1823 285.6585
v -288.9092 299.1819 279.9107
v -287.6337 298.6115 279.9998
f 1663 1664 1665
v -287.6337 298.6115 279.9998
v -288.9092 299.1819 279.9107
v -287.6337 298.6115 279.9108
f 1666 1667 1668
v -288.8055 299.1361 286.9685
v -288.9094 299.1823 285.6585
v -280.3198 295.3385 286.8140
f 1669 1670 1671
v -279.8850 300.4943 287.0648
v -279.3476 300.2528 287.0808
v -279.5332 300.3358 280.0001
f 1672 1673 1674
v -279.8849 300.4940 282.6290
v -280.2493 300.6577 280.0001
v -280.2496 300.6582 287.0538
f 1675 1676 1677
v -279.3476 300.2528 287.0808
v -278.7914 300.0023 287.0979
v -278.7901 300.0018 280.0002
f 1678 1679 1680
v -286.7772 303.3737 287.0533
v -280.2496 300.6582 287.0538
v -280.2493 300.6577 280.0001
f 1681 1682 1683
v -280.3047 295.3704 286.8360
v -280.3197 295.3382 283.3961
v -280.3196 295.3379 280.0003
f 1684 1685 1686
v -278.7901 300.0018 280.0002
v -278.7914 300.0023 287.0979
v -278.7584 299.9882 287.0539
f 1687 1688 1689
v -292.2626 299.7589 279.9106
v -290.5969 303.4418 285.6583
v -290.5968 303.4415 279.9105
f 1690 1691 1692
v -289.2872 298.4389 279.9108
v -292.2628 299.7593 285.6584
v -292.2626 299.7589 279.9106
f 1693 1694 1695
v -288.9092 299.1819 279.9107
v -289.2873 298.4394 285.6586
v -289.2872 298.4389 279.9108
f 1696 1697 1698
v -287.5953 302.1134 279.9107
v -287.5000 302.3225 285.6585
v -287.4997 302.3221 279.9107
f 1699 1700 1701
v -290.5968 303.4415 279.9105
v -287.5956 302.1138 285.6585
v -287.5953 302.1134 279.9107
f 1702 1703 1704
v -286.2981 301.8219 279.9997
v -287.6337 298.6115 279.9998
v -287.6337 298.6115 279.9108
f 1705 1706 1707
v -286.2981 301.8219 279.9107
v -287.3449 302.2577 279.9997
v -286.2981 301.8219 279.9997
f 1708 1709 1710

g building_ID_161F978B-3A32-4C0A-A54F-1CE95A1C4F3F
v -214.7211 298.0348 276.8227
v -215.4962 302.4548 276.8225
v -207.2588 303.7678 276.8227
f 1711 1712 1713
v -214.7211 298.0348 276.8227
v -207.2588 303.7678 276.8227
v -207.0825 302.7843 276.8227
f 1714 1715 1716
v -206.5377 299.3229 276.8229
v -214.7211 298.0348 276.8227
v -207.0825 302.7843 276.8227
f 1717 1718 1719
v -206.5378 299.3232 282.0748
v -207.0826 302.7847 282.9425
v -215.1103 300.2553 282.6324
f 1720 1721 1722
v -215.4963 302.4553 283.1853
v -215.1103 300.2553 282.6324
v -207.2589 303.7682 283.1895
f 1723 1724 1725
v -215.1103 300.2553 282.6324
v -214.7212 298.0352 282.0746
v -206.5378 299.3232 282.0748
f 1726 1727 1728
v -215.1103 300.2553 282.6324
v -207.0826 302.7847 282.9425
v -207.2589 303.7682 283.1895
f 1729 1730 1731
v -207.2588 303.7678 276.8227
v -207.2589 303.7682 283.1895
v -207.0826 302.7847 282.9425
f 1732 1733 1734
v -207.0825 302.7843 276.8227
v -207.2588 303.7678 276.8227
v -207.0826 302.7847 282.9425
f 1735 1736 1737
v -207.2589 303.7682 283.1895
v -215.4962 302.4548 276.8225
v -215.4963 302.4553 283.1853
f 1738 1739 1740
v -207.2589 303.7682 283.1895
v -207.2588 303.7678 276.8227
v -215.4962 302.4548 276.8225
f 1741 1742 1743
v -215.4962 302.4548 276.8225
v -214.7211 298.0348 276.8227
v -215.1103 300.2553 282.6324
f 1744 1745 1746
v -215.4962 302.4548 276.8225
v -215.1103 300.2553 282.6324
v -215.4963 302.4553 283.1853
f 1747 1748 1749
v -206.5377 299.3229 276.8229
v -206.5378 299.3232 282.0748
v -214.7212 298.0352 282.0746
f 1750 1751 1752
v -206.5377 299.3229 276.8229
v -214.7212 298.0352 282.0746
v -214.7211 298.0348 276.8227
f 1753 1754 1755
v -206.5378 299.3232 282.0748
v -206.5377 299.3229 276.8229
v -207.0826 302.7847 282.9425
f 1756 1757 1758
v -207.0826 302.7847 282.9425
v -206.5377 299.3229 276.8229
v -207.0825 302.7843 276.8227
f 1759 1760 1761
v -214.7212 298.0352 282.0746
v -215.1103 300.2553 282.6324
v -214.7211 298.0348 276.8227
f 1762 1763 1764
