# Grid Center: 2615400, 1265200
# Global Anchor: 7.64977475454284, 47.53283995868075, 0.0

g building_ID_3071D0AF-16DE-4439-A3E5-CD88DAD565CC
v -450.2370 613.6648 281.1092
v -458.7599 658.0563 282.1691
v -469.4705 618.9785 282.1703
f 1 2 3
v -458.7599 658.0563 282.1691
v -450.2370 613.6648 281.1092
v -439.5273 652.7427 281.1081
f 4 5 6
v -458.7593 658.0550 272.0155
v -469.4699 618.9773 272.0186
v -469.4705 618.9785 282.1703
f 7 8 9
v -458.7599 658.0563 282.1691
v -458.7593 658.0550 272.0155
v -469.4705 618.9785 282.1703
f 10 11 12
v -450.2370 613.6648 281.1092
v -469.4705 618.9785 282.1703
v -469.4699 618.9773 272.0186
f 13 14 15
v -450.2364 613.6637 272.0205
v -439.5268 652.7415 272.0174
v -450.2370 613.6648 281.1092
f 16 17 18
v -458.7593 658.0550 272.0155
v -450.2364 613.6637 272.0205
v -469.4699 618.9773 272.0186
f 19 20 21
v -450.2364 613.6637 272.0205
v -458.7593 658.0550 272.0155
v -439.5268 652.7415 272.0174
f 22 23 24
v -458.7593 658.0550 272.0155
v -439.5273 652.7427 281.1081
v -439.5268 652.7415 272.0174
f 25 26 27
v -458.7593 658.0550 272.0155
v -458.7599 658.0563 282.1691
v -439.5273 652.7427 281.1081
f 28 29 30
v -469.4699 618.9773 272.0186
v -450.2364 613.6637 272.0205
v -450.2370 613.6648 281.1092
f 31 32 33
v -439.5273 652.7427 281.1081
v -450.2370 613.6648 281.1092
v -439.5268 652.7415 272.0174
f 34 35 36

g building_ID_DA8113D9-2E9F-41FE-BDC3-11CAD58C574D
v -327.6316 395.5905 290.6343
v -352.8796 417.8571 290.6317
v -356.8657 403.9988 290.6322
f 37 38 39
v -352.8796 417.8571 290.6317
v -327.6316 395.5905 290.6343
v -323.6455 409.4487 290.6336
f 40 41 42
v -333.1601 397.1800 286.5981
v -327.6315 395.5903 287.3134
v -327.6316 395.5905 290.6343
f 43 44 45
v -333.1601 397.1800 286.5981
v -327.6315 395.5902 286.5985
v -327.6315 395.5903 287.3134
f 46 47 48
v -356.8656 403.9984 286.5964
v -333.1601 397.1800 286.5981
v -356.8657 403.9988 290.6322
f 49 50 51
v -323.6454 409.4485 287.3128
v -323.6455 409.4487 290.6336
v -327.6315 395.5903 287.3134
f 52 53 54
v -352.8795 417.8567 286.5958
v -352.8796 417.8571 290.6317
v -329.1740 411.0382 287.3025
f 55 56 57
v -323.6455 409.4487 290.6336
v -329.1740 411.0382 287.3025
v -352.8796 417.8571 290.6317
f 58 59 60
v -329.1741 411.0381 286.5975
v -352.8795 417.8567 286.5958
v -329.1740 411.0382 287.3025
f 61 62 63
v -323.6455 409.4487 290.6336
v -323.6454 409.4485 287.3128
v -329.1740 411.0382 287.3025
f 64 65 66
v -356.8656 403.9984 286.5964
v -356.8657 403.9988 290.6322
v -352.8796 417.8571 290.6317
f 67 68 69
v -344.0099 398.6961 286.5975
v -328.0574 394.1084 286.5986
v -333.1601 397.1800 286.5981
f 70 71 72
v -327.6315 395.5902 286.5985
v -333.1601 397.1800 286.5981
v -328.0574 394.1084 286.5986
f 73 74 75
v -392.9870 413.0422 286.5937
v -344.0099 398.6961 286.5975
v -356.8656 403.9984 286.5964
f 76 77 78
v -344.0099 398.6961 286.5975
v -333.1601 397.1800 286.5981
v -356.8656 403.9984 286.5964
f 79 80 81
v -352.8795 417.8567 286.5958
v -329.1741 411.0381 286.5975
v -328.8389 412.2022 286.5974
f 82 83 84
v -388.4767 428.4250 286.5930
v -386.9869 427.9960 286.5931
v -388.1709 429.4672 286.5929
f 85 86 87
v -352.8795 417.8567 286.5958
v -388.1709 429.4672 286.5929
v -386.9869 427.9960 286.5931
f 88 89 90
v -356.8656 403.9984 286.5964
v -391.0265 413.9510 286.5938
v -392.9870 413.0422 286.5937
f 91 92 93
v -391.0265 413.9510 286.5938
v -352.8795 417.8567 286.5958
v -386.9869 427.9960 286.5931
f 94 95 96
v -391.0265 413.9510 286.5938
v -392.5893 414.4002 286.5937
v -392.9870 413.0422 286.5937
f 97 98 99
v -352.8795 417.8567 286.5958
v -391.0265 413.9510 286.5938
v -356.8656 403.9984 286.5964
f 100 101 102
v -328.8389 412.2022 286.5974
v -388.1709 429.4672 286.5929
v -352.8795 417.8567 286.5958
f 103 104 105
v -344.0093 398.6949 272.6040
v -344.0099 398.6961 286.5975
v -392.9870 413.0422 286.5937
f 106 107 108
v -388.1702 429.4658 272.5994
v -388.1709 429.4672 286.5929
v -328.8389 412.2022 286.5974
f 109 110 111
v -304.8427 405.3001 287.3459
v -328.8389 412.2022 286.5974
v -328.8390 412.2023 287.3024
f 112 113 114
v -318.3795 409.1929 272.6046
v -328.8384 412.2010 272.6039
v -328.8389 412.2022 286.5974
f 115 116 117
v -304.8421 405.2987 272.6055
v -318.3795 409.1929 272.6046
v -304.8427 405.3001 287.3459
f 118 119 120
v -328.8389 412.2022 286.5974
v -304.8427 405.3001 287.3459
v -318.3795 409.1929 272.6046
f 121 122 123
v -304.8421 405.2987 272.6055
v -304.8427 405.3001 287.3459
v -309.5899 388.7970 287.3467
f 124 125 126
v -328.0574 394.1084 287.3135
v -309.5899 388.7970 287.3467
v -327.6315 395.5903 287.3134
f 127 128 129
v -304.8427 405.3001 287.3459
v -327.6315 395.5903 287.3134
v -309.5899 388.7970 287.3467
f 130 131 132
v -329.1740 411.0382 287.3025
v -323.6454 409.4485 287.3128
v -328.8390 412.2023 287.3024
f 133 134 135
v -304.8427 405.3001 287.3459
v -328.8390 412.2023 287.3024
v -323.6454 409.4485 287.3128
f 136 137 138
v -304.8427 405.3001 287.3459
v -323.6454 409.4485 287.3128
v -327.6315 395.5903 287.3134
f 139 140 141
v -329.1741 411.0381 286.5975
v -329.1740 411.0382 287.3025
v -328.8390 412.2023 287.3024
f 142 143 144
v -328.0574 394.1084 286.5986
v -328.0574 394.1084 287.3135
v -327.6315 395.5902 286.5985
f 145 146 147
v -391.0267 413.9514 290.6297
v -386.9871 427.9964 290.6290
v -388.4860 428.3933 290.6289
f 148 149 150
v -388.4769 428.4254 290.6289
v -388.4860 428.3933 290.6289
v -386.9871 427.9964 290.6290
f 151 152 153
v -388.4860 428.3933 290.6289
v -391.4107 429.2522 290.6287
v -392.5652 414.4815 290.6296
f 154 155 156
v -388.4860 428.3933 290.6289
v -392.5652 414.4815 290.6296
v -391.0267 413.9514 290.6297
f 157 158 159
v -392.5895 414.4006 290.6296
v -391.0267 413.9514 290.6297
v -392.5652 414.4815 290.6296
f 160 161 162
v -391.4107 429.2522 290.6287
v -395.4909 415.3403 290.6293
v -392.5652 414.4815 290.6296
f 163 164 165
v -395.4900 415.3387 272.5999
v -395.4909 415.3403 290.6293
v -391.4107 429.2522 290.6287
f 166 167 168
v -392.7203 414.5253 272.6001
v -392.5644 414.4799 272.6002
v -392.5652 414.4815 290.6296
f 169 170 171
v -395.4900 415.3387 272.5999
v -392.7203 414.5253 272.6001
v -395.4909 415.3403 290.6293
f 172 173 174
v -391.0265 413.9510 286.5938
v -391.0267 413.9514 290.6297
v -392.5893 414.4002 286.5937
f 175 176 177
v -386.9869 427.9960 286.5931
v -386.9871 427.9964 290.6290
v -391.0267 413.9514 290.6297
f 178 179 180
v -388.4767 428.4250 286.5930
v -388.4769 428.4254 290.6289
v -386.9871 427.9964 290.6290
f 181 182 183
v -388.4851 428.3918 272.5995
v -391.4098 429.2506 272.5993
v -391.4107 429.2522 290.6287
f 184 185 186
v -388.4767 428.4250 286.5930
v -388.4851 428.3918 272.5995
v -388.4860 428.3933 290.6289
f 187 188 189
v -388.4769 428.4254 290.6289
v -388.4767 428.4250 286.5930
v -388.4860 428.3933 290.6289
f 190 191 192
v -388.4851 428.3918 272.5995
v -388.4767 428.4250 286.5930
v -388.1709 429.4672 286.5929
f 193 194 195
v -388.1709 429.4672 286.5929
v -388.1702 429.4658 272.5994
v -388.4851 428.3918 272.5995
f 196 197 198
v -323.1257 392.6880 272.6053
v -309.5894 388.7957 272.6062
v -309.5899 388.7970 287.3467
f 199 200 201
v -323.1257 392.6880 272.6053
v -328.0574 394.1084 286.5986
v -328.0568 394.1072 272.6051
f 202 203 204
v -328.0574 394.1084 286.5986
v -323.1257 392.6880 272.6053
v -309.5899 388.7970 287.3467
f 205 206 207
v -309.5899 388.7970 287.3467
v -328.0574 394.1084 287.3135
v -328.0574 394.1084 286.5986
f 208 209 210
v -328.0574 394.1084 286.5986
v -344.0099 398.6961 286.5975
v -344.0093 398.6949 272.6040
f 211 212 213
v -328.0568 394.1072 272.6051
v -328.0574 394.1084 286.5986
v -344.0093 398.6949 272.6040
f 214 215 216
v -388.4851 428.3918 272.5995
v -395.4900 415.3387 272.5999
v -391.4098 429.2506 272.5993
f 217 218 219
v -388.4851 428.3918 272.5995
v -392.7203 414.5253 272.6001
v -395.4900 415.3387 272.5999
f 220 221 222
v -388.4851 428.3918 272.5995
v -392.5644 414.4799 272.6002
v -392.7203 414.5253 272.6001
f 223 224 225
v -392.5644 414.4799 272.6002
v -344.0093 398.6949 272.6040
v -392.9863 413.0410 272.6002
f 226 227 228
v -328.0568 394.1072 272.6051
v -328.8384 412.2010 272.6039
v -318.3795 409.1929 272.6046
f 229 230 231
v -304.8421 405.2987 272.6055
v -309.5894 388.7957 272.6062
v -318.3795 409.1929 272.6046
f 232 233 234
v -392.5644 414.4799 272.6002
v -388.4851 428.3918 272.5995
v -344.0093 398.6949 272.6040
f 235 236 237
v -344.0093 398.6949 272.6040
v -388.4851 428.3918 272.5995
v -328.8384 412.2010 272.6039
f 238 239 240
v -328.8384 412.2010 272.6039
v -328.0568 394.1072 272.6051
v -344.0093 398.6949 272.6040
f 241 242 243
v -328.0568 394.1072 272.6051
v -318.3795 409.1929 272.6046
v -323.1257 392.6880 272.6053
f 244 245 246
v -323.1257 392.6880 272.6053
v -318.3795 409.1929 272.6046
v -309.5894 388.7957 272.6062
f 247 248 249
v -388.1702 429.4658 272.5994
v -328.8384 412.2010 272.6039
v -388.4851 428.3918 272.5995
f 250 251 252
v -392.9870 413.0422 286.5937
v -392.5893 414.4002 286.5937
v -392.9863 413.0410 272.6002
f 253 254 255
v -392.5644 414.4799 272.6002
v -392.5893 414.4002 286.5937
v -392.5652 414.4815 290.6296
f 256 257 258
v -392.5895 414.4006 290.6296
v -392.5652 414.4815 290.6296
v -392.5893 414.4002 286.5937
f 259 260 261
v -333.1601 397.1800 286.5981
v -327.6316 395.5905 290.6343
v -356.8657 403.9988 290.6322
f 262 263 264
v -323.6455 409.4487 290.6336
v -327.6316 395.5905 290.6343
v -327.6315 395.5903 287.3134
f 265 266 267
v -356.8656 403.9984 286.5964
v -352.8796 417.8571 290.6317
v -352.8795 417.8567 286.5958
f 268 269 270
v -344.0093 398.6949 272.6040
v -392.9870 413.0422 286.5937
v -392.9863 413.0410 272.6002
f 271 272 273
v -388.1702 429.4658 272.5994
v -328.8389 412.2022 286.5974
v -328.8384 412.2010 272.6039
f 274 275 276
v -304.8421 405.2987 272.6055
v -309.5899 388.7970 287.3467
v -309.5894 388.7957 272.6062
f 277 278 279
v -329.1741 411.0381 286.5975
v -328.8390 412.2023 287.3024
v -328.8389 412.2022 286.5974
f 280 281 282
v -328.0574 394.1084 287.3135
v -327.6315 395.5903 287.3134
v -327.6315 395.5902 286.5985
f 283 284 285
v -395.4900 415.3387 272.5999
v -391.4107 429.2522 290.6287
v -391.4098 429.2506 272.5993
f 286 287 288
v -392.7203 414.5253 272.6001
v -392.5652 414.4815 290.6296
v -395.4909 415.3403 290.6293
f 289 290 291
v -391.0267 413.9514 290.6297
v -392.5895 414.4006 290.6296
v -392.5893 414.4002 286.5937
f 292 293 294
v -386.9869 427.9960 286.5931
v -391.0267 413.9514 290.6297
v -391.0265 413.9510 286.5938
f 295 296 297
v -388.4767 428.4250 286.5930
v -386.9871 427.9964 290.6290
v -386.9869 427.9960 286.5931
f 298 299 300
v -388.4851 428.3918 272.5995
v -391.4107 429.2522 290.6287
v -388.4860 428.3933 290.6289
f 301 302 303
v -392.5893 414.4002 286.5937
v -392.5644 414.4799 272.6002
v -392.9863 413.0410 272.6002
f 304 305 306

g building_ID_04E9FDF5-94FB-4385-A8B3-D595381A5DA6
v -421.5932 418.6323 279.3587
v -415.8354 424.1817 279.3588
v -419.5963 425.3069 279.3585
f 307 308 309
v -426.7090 414.6030 279.3587
v -421.5932 418.6323 279.3587
v -426.8757 414.6944 279.3586
f 310 311 312
v -421.5932 418.6323 279.3587
v -430.3520 416.0868 279.3583
v -426.8757 414.6944 279.3586
f 313 314 315
v -419.4004 412.2655 279.3593
v -415.8354 424.1817 279.3588
v -421.5932 418.6323 279.3587
f 316 317 318
v -426.7090 414.6030 279.3587
v -426.7493 414.4632 279.3587
v -419.4004 412.2655 279.3593
f 319 320 321
v -426.8757 414.6944 279.3586
v -426.8879 414.6555 279.3586
v -426.7090 414.6030 279.3587
f 322 323 324
v -426.7090 414.6030 279.3587
v -419.4004 412.2655 279.3593
v -421.5932 418.6323 279.3587
f 325 326 327
v -441.2351 420.0879 279.3574
v -441.3441 419.7132 279.3574
v -437.6020 418.6172 279.3578
f 328 329 330
v -447.3912 426.3503 279.3566
v -441.2351 420.0879 279.3574
v -437.6020 418.6172 279.3578
f 331 332 333
v -441.2351 420.0879 279.3574
v -447.3912 426.3503 279.3566
v -448.5942 422.2436 279.3568
f 334 335 336
v -437.6020 418.6172 279.3578
v -430.3520 416.0868 279.3583
v -421.5932 418.6323 279.3587
f 337 338 339
v -430.3520 416.0868 279.3583
v -430.4165 415.8679 279.3583
v -430.2909 415.7156 279.3583
f 340 341 342
v -430.3520 416.0868 279.3583
v -437.6020 418.6172 279.3578
v -437.7111 418.2425 279.3578
f 343 344 345
v -430.3520 416.0868 279.3583
v -430.2909 415.7156 279.3583
v -426.8757 414.6944 279.3586
f 346 347 348
v -447.3912 426.3503 279.3566
v -437.6020 418.6172 279.3578
v -421.5932 418.6323 279.3587
f 349 350 351
v -441.2347 420.0873 272.4836
v -441.2351 420.0879 279.3574
v -448.5942 422.2436 279.3568
f 352 353 354
v -441.3437 419.7126 272.4836
v -441.3441 419.7132 279.3574
v -441.2351 420.0879 279.3574
f 355 356 357
v -437.6016 418.6165 272.4840
v -437.6020 418.6172 279.3578
v -441.3437 419.7126 272.4836
f 358 359 360
v -437.7107 418.2419 272.4840
v -437.7111 418.2425 279.3578
v -437.6020 418.6172 279.3578
f 361 362 363
v -430.3516 416.0862 272.4846
v -430.3520 416.0868 279.3583
v -437.7111 418.2425 279.3578
f 364 365 366
v -430.4161 415.8674 272.4846
v -430.4165 415.8679 279.3583
v -430.3520 416.0868 279.3583
f 367 368 369
v -430.2905 415.7150 272.4846
v -430.2909 415.7156 279.3583
v -430.4165 415.8679 279.3583
f 370 371 372
v -426.8753 414.6939 272.4849
v -426.8757 414.6944 279.3586
v -430.2909 415.7156 279.3583
f 373 374 375
v -426.8875 414.6549 272.4849
v -426.8879 414.6555 279.3586
v -426.8757 414.6944 279.3586
f 376 377 378
v -426.7086 414.6024 272.4850
v -426.7090 414.6030 279.3587
v -426.8879 414.6555 279.3586
f 379 380 381
v -426.7489 414.4625 272.4850
v -426.7493 414.4632 279.3587
v -426.7090 414.6030 279.3587
f 382 383 384
v -419.4000 412.2648 272.4856
v -419.4004 412.2655 279.3593
v -426.7493 414.4632 279.3587
f 385 386 387
v -415.8351 424.1812 272.4850
v -415.8354 424.1817 279.3588
v -419.4004 412.2655 279.3593
f 388 389 390
v -419.5960 425.3062 272.4847
v -419.5963 425.3069 279.3585
v -415.8354 424.1817 279.3588
f 391 392 393
v -418.4149 429.2568 281.2272
v -447.3520 426.4864 281.2255
v -421.5934 418.6324 281.2277
f 394 395 396
v -421.5934 418.6324 281.2277
v -447.3520 426.4864 281.2255
v -447.3913 426.3505 281.2255
f 397 398 399
v -452.4614 449.4028 281.2235
v -418.4149 429.2568 281.2272
v -415.6265 438.7472 281.2268
f 400 401 402
v -462.2774 452.3391 281.2226
v -418.4149 429.2568 281.2272
v -452.4614 449.4028 281.2235
f 403 404 405
v -418.4149 429.2568 281.2272
v -468.0834 432.5459 281.2236
v -447.3520 426.4864 281.2255
f 406 407 408
v -468.0834 432.5459 281.2236
v -418.4149 429.2568 281.2272
v -462.2774 452.3391 281.2226
f 409 410 411
v -452.4241 449.5267 281.2235
v -452.4614 449.4028 281.2235
v -415.6265 438.7472 281.2268
f 412 413 414
v -468.0829 432.5451 272.4809
v -468.0834 432.5459 281.2236
v -462.2774 452.3391 281.2226
f 415 416 417
v -415.6260 438.7464 272.4841
v -415.6265 438.7472 281.2268
v -418.4149 429.2568 281.2272
f 418 419 420
v -452.4236 449.5260 272.4808
v -452.4241 449.5267 281.2235
v -415.6265 438.7472 281.2268
f 421 422 423
v -452.4609 449.4020 272.4808
v -452.4614 449.4028 281.2235
v -452.4241 449.5267 281.2235
f 424 425 426
v -462.2769 452.3383 272.4799
v -462.2774 452.3391 281.2226
v -452.4614 449.4028 281.2235
f 427 428 429
v -468.0829 432.5451 272.4809
v -447.3514 426.4856 272.4828
v -468.0834 432.5459 281.2236
f 430 431 432
v -421.5932 418.6323 279.3587
v -421.5934 418.6324 281.2277
v -447.3913 426.3505 281.2255
f 433 434 435
v -418.5739 428.7184 272.4846
v -418.4144 429.2560 272.4845
v -419.5963 425.3069 279.3585
f 436 437 438
v -418.4149 429.2568 281.2272
v -419.5963 425.3069 279.3585
v -418.4144 429.2560 272.4845
f 439 440 441
v -419.5963 425.3069 279.3585
v -421.5934 418.6324 281.2277
v -421.5932 418.6323 279.3587
f 442 443 444
v -418.5739 428.7184 272.4846
v -419.5963 425.3069 279.3585
v -419.5960 425.3062 272.4847
f 445 446 447
v -418.4149 429.2568 281.2272
v -421.5934 418.6324 281.2277
v -419.5963 425.3069 279.3585
f 448 449 450
v -448.5938 422.2430 272.4830
v -448.5942 422.2436 279.3568
v -447.3912 426.3503 279.3566
f 451 452 453
v -447.3520 426.4864 281.2255
v -447.3514 426.4856 272.4828
v -447.3912 426.3503 279.3566
f 454 455 456
v -447.3913 426.3505 281.2255
v -447.3520 426.4864 281.2255
v -447.3912 426.3503 279.3566
f 457 458 459
v -468.0829 432.5451 272.4809
v -462.2769 452.3383 272.4799
v -452.4609 449.4020 272.4808
f 460 461 462
v -447.3514 426.4856 272.4828
v -468.0829 432.5451 272.4809
v -452.4609 449.4020 272.4808
f 463 464 465
v -447.3514 426.4856 272.4828
v -452.4609 449.4020 272.4808
v -418.4144 429.2560 272.4845
f 466 467 468
v -447.3514 426.4856 272.4828
v -419.5960 425.3062 272.4847
v -437.6016 418.6165 272.4840
f 469 470 471
v -448.5938 422.2430 272.4830
v -447.3514 426.4856 272.4828
v -441.2347 420.0873 272.4836
f 472 473 474
v -441.2347 420.0873 272.4836
v -437.6016 418.6165 272.4840
v -441.3437 419.7126 272.4836
f 475 476 477
v -430.3516 416.0862 272.4846
v -437.7107 418.2419 272.4840
v -437.6016 418.6165 272.4840
f 478 479 480
v -441.2347 420.0873 272.4836
v -447.3514 426.4856 272.4828
v -437.6016 418.6165 272.4840
f 481 482 483
v -415.6260 438.7464 272.4841
v -452.4609 449.4020 272.4808
v -452.4236 449.5260 272.4808
f 484 485 486
v -419.5960 425.3062 272.4847
v -430.3516 416.0862 272.4846
v -437.6016 418.6165 272.4840
f 487 488 489
v -415.6260 438.7464 272.4841
v -418.4144 429.2560 272.4845
v -452.4609 449.4020 272.4808
f 490 491 492
v -418.5739 428.7184 272.4846
v -447.3514 426.4856 272.4828
v -418.4144 429.2560 272.4845
f 493 494 495
v -419.5960 425.3062 272.4847
v -426.8753 414.6939 272.4849
v -430.3516 416.0862 272.4846
f 496 497 498
v -418.5739 428.7184 272.4846
v -419.5960 425.3062 272.4847
v -447.3514 426.4856 272.4828
f 499 500 501
v -415.8351 424.1812 272.4850
v -419.4000 412.2648 272.4856
v -419.5960 425.3062 272.4847
f 502 503 504
v -430.3516 416.0862 272.4846
v -430.2905 415.7150 272.4846
v -430.4161 415.8674 272.4846
f 505 506 507
v -419.4000 412.2648 272.4856
v -426.7086 414.6024 272.4850
v -426.8753 414.6939 272.4849
f 508 509 510
v -426.7086 414.6024 272.4850
v -419.4000 412.2648 272.4856
v -426.7489 414.4625 272.4850
f 511 512 513
v -430.2905 415.7150 272.4846
v -430.3516 416.0862 272.4846
v -426.8753 414.6939 272.4849
f 514 515 516
v -426.8753 414.6939 272.4849
v -426.7086 414.6024 272.4850
v -426.8875 414.6549 272.4849
f 517 518 519
v -426.8753 414.6939 272.4849
v -419.5960 425.3062 272.4847
v -419.4000 412.2648 272.4856
f 520 521 522
v -441.2347 420.0873 272.4836
v -448.5942 422.2436 279.3568
v -448.5938 422.2430 272.4830
f 523 524 525
v -441.3437 419.7126 272.4836
v -441.2351 420.0879 279.3574
v -441.2347 420.0873 272.4836
f 526 527 528
v -437.6020 418.6172 279.3578
v -441.3441 419.7132 279.3574
v -441.3437 419.7126 272.4836
f 529 530 531
v -437.7107 418.2419 272.4840
v -437.6020 418.6172 279.3578
v -437.6016 418.6165 272.4840
f 532 533 534
v -430.3516 416.0862 272.4846
v -437.7111 418.2425 279.3578
v -437.7107 418.2419 272.4840
f 535 536 537
v -430.4161 415.8674 272.4846
v -430.3520 416.0868 279.3583
v -430.3516 416.0862 272.4846
f 538 539 540
v -430.2905 415.7150 272.4846
v -430.4165 415.8679 279.3583
v -430.4161 415.8674 272.4846
f 541 542 543
v -426.8753 414.6939 272.4849
v -430.2909 415.7156 279.3583
v -430.2905 415.7150 272.4846
f 544 545 546
v -426.8875 414.6549 272.4849
v -426.8757 414.6944 279.3586
v -426.8753 414.6939 272.4849
f 547 548 549
v -426.7086 414.6024 272.4850
v -426.8879 414.6555 279.3586
v -426.8875 414.6549 272.4849
f 550 551 552
v -426.7489 414.4625 272.4850
v -426.7090 414.6030 279.3587
v -426.7086 414.6024 272.4850
f 553 554 555
v -419.4000 412.2648 272.4856
v -426.7493 414.4632 279.3587
v -426.7489 414.4625 272.4850
f 556 557 558
v -415.8351 424.1812 272.4850
v -419.4004 412.2655 279.3593
v -419.4000 412.2648 272.4856
f 559 560 561
v -419.5960 425.3062 272.4847
v -415.8354 424.1817 279.3588
v -415.8351 424.1812 272.4850
f 562 563 564
v -468.0829 432.5451 272.4809
v -462.2774 452.3391 281.2226
v -462.2769 452.3383 272.4799
f 565 566 567
v -415.6260 438.7464 272.4841
v -418.4149 429.2568 281.2272
v -418.4144 429.2560 272.4845
f 568 569 570
v -452.4236 449.5260 272.4808
v -415.6265 438.7472 281.2268
v -415.6260 438.7464 272.4841
f 571 572 573
v -452.4609 449.4020 272.4808
v -452.4241 449.5267 281.2235
v -452.4236 449.5260 272.4808
f 574 575 576
v -462.2769 452.3383 272.4799
v -452.4614 449.4028 281.2235
v -452.4609 449.4020 272.4808
f 577 578 579
v -447.3514 426.4856 272.4828
v -447.3520 426.4864 281.2255
v -468.0834 432.5459 281.2236
f 580 581 582
v -421.5932 418.6323 279.3587
v -447.3913 426.3505 281.2255
v -447.3912 426.3503 279.3566
f 583 584 585
v -448.5938 422.2430 272.4830
v -447.3912 426.3503 279.3566
v -447.3514 426.4856 272.4828
f 586 587 588

g building_ID_5AD4F57E-67EF-48F4-86C9-1BAFD1DDDE86
v -565.9870 356.0841 276.8425
v -565.9870 356.0841 277.1505
v -568.4452 357.4956 277.1502
f 589 590 591
v -561.3745 364.1176 276.8424
v -561.3746 364.1176 277.1504
v -565.9870 356.0841 277.1505
f 592 593 594
v -563.8347 365.5301 276.8421
v -563.8348 365.5302 277.1501
v -561.3746 364.1176 277.1504
f 595 596 597
v -568.4452 357.4956 276.8422
v -563.8347 365.5301 276.8421
v -561.3745 364.1176 276.8424
f 598 599 600
v -561.3745 364.1176 276.8424
v -565.9870 356.0841 276.8425
v -568.4452 357.4956 276.8422
f 601 602 603
v -568.7373 356.9882 286.0409
v -551.7915 347.2578 286.0429
v -546.6074 356.2848 286.1929
f 604 605 606
v -546.6074 356.2848 286.1929
v -563.5561 366.0182 286.1908
v -568.7373 356.9882 286.0409
f 607 608 609
v -551.7908 347.2571 277.1522
v -551.7915 347.2578 286.0429
v -568.7373 356.9882 286.0409
f 610 611 612
v -546.6067 356.2841 277.1522
v -546.6074 356.2848 286.1929
v -546.9660 355.6597 285.7439
f 613 614 615
v -551.5001 347.7650 285.7439
v -546.9660 355.6597 285.7439
v -546.6074 356.2848 286.1929
f 616 617 618
v -546.9660 355.6597 285.7439
v -546.9654 355.6590 277.1522
v -546.6067 356.2841 277.1522
f 619 620 621
v -551.7908 347.2571 277.1522
v -551.5001 347.7650 285.7439
v -551.7915 347.2578 286.0429
f 622 623 624
v -546.6074 356.2848 286.1929
v -551.7915 347.2578 286.0429
v -551.5001 347.7650 285.7439
f 625 626 627
v -551.5001 347.7650 285.7439
v -551.7908 347.2571 277.1522
v -551.4996 347.7643 277.1522
f 628 629 630
v -563.5554 366.0175 277.1501
v -563.5561 366.0182 286.1908
v -546.6074 356.2848 286.1929
f 631 632 633
v -563.8348 365.5302 277.1501
v -563.5554 366.0175 277.1501
v -561.3746 364.1176 277.1504
f 634 635 636
v -550.9242 357.9327 277.1517
v -561.3746 364.1176 277.1504
v -563.5554 366.0175 277.1501
f 637 638 639
v -568.7366 356.9874 277.1502
v -568.4452 357.4956 277.1502
v -565.9870 356.0841 277.1505
f 640 641 642
v -555.4574 350.0369 277.1517
v -568.7366 356.9874 277.1502
v -565.9870 356.0841 277.1505
f 643 644 645
v -565.9870 356.0841 277.1505
v -561.3746 364.1176 277.1504
v -550.9242 357.9327 277.1517
f 646 647 648
v -546.9654 355.6590 277.1522
v -550.9242 357.9327 277.1517
v -546.6067 356.2841 277.1522
f 649 650 651
v -563.5554 366.0175 277.1501
v -546.6067 356.2841 277.1522
v -550.9242 357.9327 277.1517
f 652 653 654
v -551.7908 347.2571 277.1522
v -555.4574 350.0369 277.1517
v -551.4996 347.7643 277.1522
f 655 656 657
v -568.7366 356.9874 277.1502
v -555.4574 350.0369 277.1517
v -551.7908 347.2571 277.1522
f 658 659 660
v -565.9870 356.0841 277.1505
v -550.9242 357.9327 277.1517
v -555.4574 350.0369 277.1517
f 661 662 663
v -546.6229 355.4622 277.1072
v -546.6236 355.4629 285.7439
v -551.1597 347.5701 285.7439
f 664 665 666
v -550.9242 357.9327 277.1067
v -551.1591 347.5694 277.1072
v -555.4574 350.0369 277.1067
f 667 668 669
v -551.1591 347.5694 277.1072
v -550.9242 357.9327 277.1067
v -546.6229 355.4622 277.1072
f 670 671 672
v -551.1597 347.5701 285.7439
v -546.6236 355.4629 285.7439
v -546.9660 355.6597 285.7439
f 673 674 675
v -546.9660 355.6597 285.7439
v -551.5001 347.7650 285.7439
v -551.1597 347.5701 285.7439
f 676 677 678
v -550.9242 357.9327 277.1067
v -550.9242 357.9327 277.1517
v -546.9654 355.6590 277.1522
f 679 680 681
v -546.6229 355.4622 277.1072
v -550.9242 357.9327 277.1067
v -546.9654 355.6590 277.1522
f 682 683 684
v -546.9654 355.6590 277.1522
v -546.6236 355.4629 285.7439
v -546.6229 355.4622 277.1072
f 685 686 687
v -546.9660 355.6597 285.7439
v -546.6236 355.4629 285.7439
v -546.9654 355.6590 277.1522
f 688 689 690
v -555.4574 350.0369 277.1067
v -555.4574 350.0369 277.1517
v -550.9242 357.9327 277.1517
f 691 692 693
v -551.1591 347.5694 277.1072
v -551.1597 347.5701 285.7439
v -551.4996 347.7643 277.1522
f 694 695 696
v -551.5001 347.7650 285.7439
v -551.4996 347.7643 277.1522
v -551.1597 347.5701 285.7439
f 697 698 699
v -555.4574 350.0369 277.1067
v -551.1591 347.5694 277.1072
v -551.4996 347.7643 277.1522
f 700 701 702
v -568.4452 357.4956 277.1502
v -568.7366 356.9874 277.1502
v -568.7373 356.9882 286.0409
f 703 704 705
v -563.8347 365.5301 276.8421
v -568.4452 357.4956 276.8422
v -568.4452 357.4956 277.1502
f 706 707 708
v -568.4452 357.4956 277.1502
v -568.7373 356.9882 286.0409
v -563.8348 365.5302 277.1501
f 709 710 711
v -563.5554 366.0175 277.1501
v -563.8348 365.5302 277.1501
v -563.5561 366.0182 286.1908
f 712 713 714
v -568.7373 356.9882 286.0409
v -563.5561 366.0182 286.1908
v -563.8348 365.5302 277.1501
f 715 716 717
v -565.9870 356.0841 276.8425
v -568.4452 357.4956 277.1502
v -568.4452 357.4956 276.8422
f 718 719 720
v -561.3745 364.1176 276.8424
v -565.9870 356.0841 277.1505
v -565.9870 356.0841 276.8425
f 721 722 723
v -563.8347 365.5301 276.8421
v -561.3746 364.1176 277.1504
v -561.3745 364.1176 276.8424
f 724 725 726
v -551.7908 347.2571 277.1522
v -568.7373 356.9882 286.0409
v -568.7366 356.9874 277.1502
f 727 728 729
v -563.5554 366.0175 277.1501
v -546.6074 356.2848 286.1929
v -546.6067 356.2841 277.1522
f 730 731 732
v -546.6229 355.4622 277.1072
v -551.1597 347.5701 285.7439
v -551.1591 347.5694 277.1072
f 733 734 735
v -555.4574 350.0369 277.1067
v -550.9242 357.9327 277.1517
v -550.9242 357.9327 277.1067
f 736 737 738
v -555.4574 350.0369 277.1067
v -551.4996 347.7643 277.1522
v -555.4574 350.0369 277.1517
f 739 740 741
v -563.8347 365.5301 276.8421
v -568.4452 357.4956 277.1502
v -563.8348 365.5302 277.1501
f 742 743 744

g building_ID_558BCFD4-76BF-4076-AF9E-4B00DCED6DAD
v -622.8321 639.2292 278.9304
v -623.6738 636.3133 277.8226
v -615.8299 634.0813 277.8246
f 745 746 747
v -615.8299 634.0813 277.8246
v -610.0813 632.4459 277.8253
v -609.2507 635.3608 278.9321
f 748 749 750
v -622.8321 639.2292 278.9304
v -615.8299 634.0813 277.8246
v -609.2507 635.3608 278.9321
f 751 752 753
v -610.0808 632.4451 270.9835
v -615.8299 634.0813 277.8246
v -617.1603 634.4590 270.9826
f 754 755 756
v -615.8299 634.0813 277.8246
v -623.6732 636.3125 270.9818
v -617.1603 634.4590 270.9826
f 757 758 759
v -623.6738 636.3133 277.8226
v -623.6732 636.3125 270.9818
v -615.8299 634.0813 277.8246
f 760 761 762
v -609.2500 635.3598 270.9833
v -610.0808 632.4451 270.9835
v -617.1603 634.4590 270.9826
f 763 764 765
v -615.0414 640.3713 270.9822
v -614.4308 642.4836 270.9821
v -607.7691 640.5578 270.9829
f 766 767 768
v -607.7691 640.5578 270.9829
v -609.2500 635.3598 270.9833
v -615.0414 640.3713 270.9822
f 769 770 771
v -615.0414 640.3713 270.9822
v -609.2500 635.3598 270.9833
v -617.1603 634.4590 270.9826
f 772 773 774
v -623.6732 636.3125 270.9818
v -622.8314 639.2281 270.9816
v -617.1603 634.4590 270.9826
f 775 776 777
v -622.8314 639.2281 270.9816
v -615.0414 640.3713 270.9822
v -617.1603 634.4590 270.9826
f 778 779 780
v -615.0414 640.3713 270.9822
v -622.8314 639.2281 270.9816
v -621.9260 642.3607 270.9814
f 781 782 783
v -622.8314 639.2281 270.9816
v -623.6732 636.3125 270.9818
v -623.6738 636.3133 277.8226
f 784 785 786
v -622.8314 639.2281 270.9816
v -623.6738 636.3133 277.8226
v -622.8321 639.2292 278.9304
f 787 788 789
v -622.8314 639.2281 270.9816
v -622.8321 639.2292 278.9304
v -621.9260 642.3607 270.9814
f 790 791 792
v -621.9266 642.3615 278.0041
v -621.9260 642.3607 270.9814
v -622.8321 639.2292 278.9304
f 793 794 795
v -609.2500 635.3598 270.9833
v -607.7696 640.5586 277.3937
v -609.2507 635.3608 278.9321
f 796 797 798
v -607.7696 640.5586 277.3937
v -609.2500 635.3598 270.9833
v -607.7691 640.5578 270.9829
f 799 800 801
v -609.2500 635.3598 270.9833
v -609.2507 635.3608 278.9321
v -610.0813 632.4459 277.8253
f 802 803 804
v -609.2500 635.3598 270.9833
v -610.0813 632.4459 277.8253
v -610.0808 632.4451 270.9835
f 805 806 807
v -611.1929 641.5477 277.3903
v -614.4308 642.4836 270.9821
v -614.4313 642.4844 277.3869
f 808 809 810
v -607.7691 640.5578 270.9829
v -611.1929 641.5477 277.3903
v -607.7696 640.5586 277.3937
f 811 812 813
v -614.4308 642.4836 270.9821
v -611.1929 641.5477 277.3903
v -607.7691 640.5578 270.9829
f 814 815 816
v -618.2186 641.2896 278.0086
v -621.9260 642.3607 270.9814
v -621.9266 642.3615 278.0041
f 817 818 819
v -615.0414 640.3713 270.9822
v -621.9260 642.3607 270.9814
v -618.2186 641.2896 278.0086
f 820 821 822
v -618.2186 641.2896 278.0086
v -615.0420 640.3721 278.0120
v -615.0414 640.3713 270.9822
f 823 824 825
v -615.0414 640.3713 270.9822
v -615.0420 640.3721 278.0120
v -614.7069 641.5322 277.6689
f 826 827 828
v -614.4308 642.4836 270.9821
v -615.0414 640.3713 270.9822
v -614.4313 642.4844 277.3869
f 829 830 831
v -614.7069 641.5322 277.6689
v -614.4313 642.4844 277.3869
v -615.0414 640.3713 270.9822
f 832 833 834
v -609.2507 635.3608 278.9321
v -615.0420 640.3721 278.0120
v -622.8321 639.2292 278.9304
f 835 836 837
v -622.8321 639.2292 278.9304
v -618.2186 641.2896 278.0086
v -621.9266 642.3615 278.0041
f 838 839 840
v -622.8321 639.2292 278.9304
v -615.0420 640.3721 278.0120
v -618.2186 641.2896 278.0086
f 841 842 843
v -609.2507 635.3608 278.9321
v -607.7696 640.5586 277.3937
v -615.0420 640.3721 278.0120
f 844 845 846
v -607.7696 640.5586 277.3937
v -614.7069 641.5322 277.6689
v -615.0420 640.3721 278.0120
f 847 848 849
v -614.7069 641.5322 277.6689
v -611.1929 641.5477 277.3903
v -614.4313 642.4844 277.3869
f 850 851 852
v -614.7069 641.5322 277.6689
v -607.7696 640.5586 277.3937
v -611.1929 641.5477 277.3903
f 853 854 855
v -610.0813 632.4459 277.8253
v -615.8299 634.0813 277.8246
v -610.0808 632.4451 270.9835
f 856 857 858

g building_ID_B6190DD8-848F-4175-9F42-FF163CCF8A0B
v -647.8226 277.7835 305.7405
v -626.1705 312.5521 305.7412
v -645.6272 296.2014 305.7400
f 859 860 861
v -647.9952 297.6808 305.7397
v -645.6272 296.2014 305.7400
v -626.1705 312.5521 305.7412
f 862 863 864
v -648.0294 297.6258 305.7397
v -647.9952 297.6808 305.7397
v -661.4977 306.0368 305.7379
f 865 866 867
v -626.1705 312.5521 305.7412
v -661.4977 306.0368 305.7379
v -647.9952 297.6808 305.7397
f 868 869 870
v -661.4977 306.0368 305.7379
v -626.1705 312.5521 305.7412
v -668.0223 338.6162 305.7356
f 871 872 873
v -650.2209 288.8438 305.7399
v -661.2111 286.1223 305.7389
v -647.8226 277.7835 305.7405
f 874 875 876
v -645.6272 296.2014 305.7400
v -650.2209 288.8438 305.7399
v -647.8226 277.7835 305.7405
f 877 878 879
v -652.5889 290.3232 305.7396
v -661.2111 286.1223 305.7389
v -650.2209 288.8438 305.7399
f 880 881 882
v -666.0592 298.7322 305.7378
v -661.2111 286.1223 305.7389
v -652.5889 290.3232 305.7396
f 883 884 885
v -661.9717 305.2782 305.7379
v -661.4977 306.0368 305.7379
v -665.3860 307.4103 305.7374
f 886 887 888
v -668.0333 303.1694 305.7374
v -665.3860 307.4103 305.7374
v -669.7129 310.7959 305.7368
f 889 890 891
v -669.7129 310.7959 305.7368
v -665.3860 307.4103 305.7374
v -661.4977 306.0368 305.7379
f 892 893 894
v -669.7129 310.7959 305.7368
v -673.1989 305.2113 305.7367
v -668.0333 303.1694 305.7374
f 895 896 897
v -664.6201 301.0374 305.7378
v -668.0333 303.1694 305.7374
v -666.0592 298.7322 305.7378
f 898 899 900
v -685.4009 319.3129 305.7347
v -680.1797 316.0529 305.7355
v -677.0056 315.3494 305.7358
f 901 902 903
v -677.0056 315.3494 305.7358
v -669.7129 310.7959 305.7368
v -692.1224 344.0838 305.7327
f 904 905 906
v -683.2760 311.0932 305.7354
v -697.8184 318.3452 305.7334
v -692.3445 295.9307 305.7351
f 907 908 909
v -677.0056 315.3494 305.7358
v -680.1797 316.0529 305.7355
v -680.4926 309.7648 305.7357
f 910 911 912
v -669.7129 310.7959 305.7368
v -661.4977 306.0368 305.7379
v -668.0223 338.6162 305.7356
f 913 914 915
v -679.9404 288.1865 305.7368
v -661.2111 286.1223 305.7389
v -692.3445 295.9307 305.7351
f 916 917 918
v -668.0333 303.1694 305.7374
v -673.1989 305.2113 305.7367
v -666.0592 298.7322 305.7378
f 919 920 921
v -673.1989 305.2113 305.7367
v -683.2760 311.0932 305.7354
v -666.0592 298.7322 305.7378
f 922 923 924
v -666.0592 298.7322 305.7378
v -692.3445 295.9307 305.7351
v -661.2111 286.1223 305.7389
f 925 926 927
v -666.0592 298.7322 305.7378
v -683.2760 311.0932 305.7354
v -692.3445 295.9307 305.7351
f 928 929 930
v -680.1797 316.0529 305.7355
v -683.2760 311.0932 305.7354
v -680.4926 309.7648 305.7357
f 931 932 933
v -699.0452 285.2007 305.7349
v -692.3445 295.9307 305.7351
v -707.5006 304.8333 305.7330
f 934 935 936
v -680.4926 309.7648 305.7357
v -683.2760 311.0932 305.7354
v -673.1989 305.2113 305.7367
f 937 938 939
v -679.9404 288.1865 305.7368
v -669.1342 273.3997 305.7385
v -661.2111 286.1223 305.7389
f 940 941 942
v -662.0440 268.9836 305.7394
v -687.7017 275.7554 305.7364
v -675.2249 247.7642 305.7389
f 943 944 945
v -696.3418 260.8037 305.7361
v -691.9911 256.9430 305.7368
v -688.8552 256.1817 305.7371
f 946 947 948
v -689.0438 255.9382 305.7371
v -689.0159 255.9211 305.7371
v -688.8552 256.1817 305.7371
f 949 950 951
v -675.2249 247.7642 305.7389
v -693.7570 265.9288 305.7362
v -688.8552 256.1817 305.7371
f 952 953 954
v -691.9911 256.9430 305.7368
v -689.4094 255.3512 305.7371
v -689.0438 255.9382 305.7371
f 955 956 957
v -688.8552 256.1817 305.7371
v -691.9911 256.9430 305.7368
v -689.0438 255.9382 305.7371
f 958 959 960
v -692.4643 256.8904 305.7367
v -692.3763 256.8892 305.7367
v -694.1184 257.9257 305.7365
f 961 962 963
v -692.3763 256.8892 305.7367
v -692.1822 256.9056 305.7367
v -694.1900 258.1110 305.7365
f 964 965 966
v -691.9911 256.9430 305.7368
v -694.2574 258.3401 305.7364
v -692.1822 256.9056 305.7367
f 967 968 969
v -687.7017 275.7554 305.7364
v -662.0440 268.9836 305.7394
v -669.1342 273.3997 305.7385
f 970 971 972
v -702.7441 269.5798 305.7351
v -693.7570 265.9288 305.7362
v -687.7017 275.7554 305.7364
f 973 974 975
v -696.3418 260.8037 305.7361
v -688.8552 256.1817 305.7371
v -693.7570 265.9288 305.7362
f 976 977 978
v -699.0452 285.2007 305.7349
v -702.7441 269.5798 305.7351
v -687.7017 275.7554 305.7364
f 979 980 981
v -712.5013 274.6989 305.7339
v -707.2045 271.6717 305.7346
v -699.0452 285.2007 305.7349
f 982 983 984
v -702.7441 269.5798 305.7351
v -699.0452 285.2007 305.7349
v -707.2045 271.6717 305.7346
f 985 986 987
v -699.0452 285.2007 305.7349
v -714.1360 294.2082 305.7328
v -712.5013 274.6989 305.7339
f 988 989 990
v -687.7017 275.7554 305.7364
v -669.1342 273.3997 305.7385
v -679.9404 288.1865 305.7368
f 991 992 993
v -694.1184 257.9257 305.7365
v -692.3763 256.8892 305.7367
v -694.1900 258.1110 305.7365
f 994 995 996
v -694.1900 258.1110 305.7365
v -692.1822 256.9056 305.7367
v -694.2574 258.3401 305.7364
f 997 998 999
v -694.2574 258.3401 305.7364
v -696.3418 260.8037 305.7361
v -696.8670 259.9541 305.7361
f 1000 1001 1002
v -693.7570 265.9288 305.7362
v -696.7800 261.0739 305.7361
v -696.3418 260.8037 305.7361
f 1003 1004 1005
v -694.2574 258.3401 305.7364
v -691.9911 256.9430 305.7368
v -696.3418 260.8037 305.7361
f 1006 1007 1008
v -687.7017 275.7554 305.7364
v -693.7570 265.9288 305.7362
v -675.2249 247.7642 305.7389
f 1009 1010 1011
v -669.7129 310.7959 305.7368
v -668.0223 338.6162 305.7356
v -692.1224 344.0838 305.7327
f 1012 1013 1014
v -701.9167 323.0472 305.7328
v -701.2766 320.5045 305.7330
v -696.8034 327.6684 305.7331
f 1015 1016 1017
v -692.1224 344.0838 305.7327
v -696.8034 327.6684 305.7331
v -693.3452 325.5092 305.7336
f 1018 1019 1020
v -697.9806 347.7004 305.7319
v -704.2117 332.0393 305.7320
v -692.1224 344.0838 305.7327
f 1021 1022 1023
v -677.0056 315.3494 305.7358
v -692.1224 344.0838 305.7327
v -693.3452 325.5092 305.7336
f 1024 1025 1026
v -696.8034 327.6684 305.7331
v -692.1224 344.0838 305.7327
v -704.2117 332.0393 305.7320
f 1027 1028 1029
v -677.0056 315.3494 305.7358
v -693.3452 325.5092 305.7336
v -685.4009 319.3129 305.7347
f 1030 1031 1032
v -704.2117 332.0393 305.7320
v -698.5202 328.4871 305.7329
v -696.8034 327.6684 305.7331
f 1033 1034 1035
v -688.4971 314.3543 305.7347
v -693.3452 325.5092 305.7336
v -697.8184 318.3452 305.7334
f 1036 1037 1038
v -693.3452 325.5092 305.7336
v -688.4971 314.3543 305.7347
v -685.4009 319.3129 305.7347
f 1039 1040 1041
v -692.3445 295.9307 305.7351
v -697.8184 318.3452 305.7334
v -707.5006 304.8333 305.7330
f 1042 1043 1044
v -701.9167 323.0472 305.7328
v -707.6072 326.6004 305.7319
v -701.2766 320.5045 305.7330
f 1045 1046 1047
v -701.9167 323.0472 305.7328
v -696.8034 327.6684 305.7331
v -698.5202 328.4871 305.7329
f 1048 1049 1050
v -701.2766 320.5045 305.7330
v -707.5006 304.8333 305.7330
v -697.8184 318.3452 305.7334
f 1051 1052 1053
v -687.8992 350.8894 305.7328
v -692.1224 344.0838 305.7327
v -668.0223 338.6162 305.7356
f 1054 1055 1056
v -709.4314 334.3322 305.7313
v -704.2117 332.0393 305.7320
v -712.4083 337.3332 305.7309
f 1057 1058 1059
v -728.0899 347.1232 305.7286
v -712.4083 337.3332 305.7309
v -697.9806 347.7004 305.7319
f 1060 1061 1062
v -712.9225 336.5106 305.7308
v -709.4314 334.3322 305.7313
v -712.4083 337.3332 305.7309
f 1063 1064 1065
v -697.9806 347.7004 305.7319
v -726.4339 365.0376 305.7279
v -728.0899 347.1232 305.7286
f 1066 1067 1068
v -743.6233 337.2429 305.7273
v -732.5983 339.9033 305.7284
v -728.0899 347.1232 305.7286
f 1069 1070 1071
v -707.6072 326.6004 305.7319
v -704.2117 332.0393 305.7320
v -711.9040 330.3740 305.7313
f 1072 1073 1074
v -711.9040 330.3740 305.7313
v -704.2117 332.0393 305.7320
v -709.4314 334.3322 305.7313
f 1075 1076 1077
v -711.9040 330.3740 305.7313
v -716.9167 330.1124 305.7307
v -707.6072 326.6004 305.7319
f 1078 1079 1080
v -730.1433 328.7239 305.7293
v -730.1015 338.3446 305.7288
v -732.5983 339.9033 305.7284
f 1081 1082 1083
v -715.3932 332.5522 305.7308
v -716.9167 330.1124 305.7307
v -711.9040 330.3740 305.7313
f 1084 1085 1086
v -716.9167 330.1124 305.7307
v -701.2766 320.5045 305.7330
v -707.6072 326.6004 305.7319
f 1087 1088 1089
v -743.6233 337.2429 305.7273
v -728.0899 347.1232 305.7286
v -726.4339 365.0376 305.7279
f 1090 1091 1092
v -712.4083 337.3332 305.7309
v -704.2117 332.0393 305.7320
v -697.9806 347.7004 305.7319
f 1093 1094 1095
v -731.2364 288.4401 305.7311
v -714.1360 294.2082 305.7328
v -727.3576 300.2666 305.7310
f 1096 1097 1098
v -725.3210 283.3592 305.7320
v -714.1360 294.2082 305.7328
v -731.2364 288.4401 305.7311
f 1099 1100 1101
v -714.1360 294.2082 305.7328
v -718.2296 278.3223 305.7331
v -712.5013 274.6989 305.7339
f 1102 1103 1104
v -739.6248 286.3716 305.7303
v -733.8207 290.9070 305.7307
v -743.9815 290.2212 305.7296
f 1105 1106 1107
v -733.8207 290.9070 305.7307
v -727.3576 300.2666 305.7310
v -753.5136 305.4097 305.7278
f 1108 1109 1110
v -731.2364 288.4401 305.7311
v -727.3576 300.2666 305.7310
v -733.8207 290.9070 305.7307
f 1111 1112 1113
v -707.5006 304.8333 305.7330
v -701.2766 320.5045 305.7330
v -719.7370 312.4731 305.7313
f 1114 1115 1116
v -737.4734 285.0439 305.7306
v -733.8207 290.9070 305.7307
v -739.6248 286.3716 305.7303
f 1117 1118 1119
v -721.5837 280.4833 305.7326
v -718.2296 278.3223 305.7331
v -725.3210 283.3592 305.7320
f 1120 1121 1122
v -714.1360 294.2082 305.7328
v -725.3210 283.3592 305.7320
v -718.2296 278.3223 305.7331
f 1123 1124 1125
v -739.6248 286.3716 305.7303
v -741.8563 287.6516 305.7299
v -739.7609 286.3470 305.7302
f 1126 1127 1128
v -737.9883 316.0070 305.7290
v -727.3576 300.2666 305.7310
v -719.7370 312.4731 305.7313
f 1129 1130 1131
v -714.1360 294.2082 305.7328
v -699.0452 285.2007 305.7349
v -707.5006 304.8333 305.7330
f 1132 1133 1134
v -719.7370 312.4731 305.7313
v -730.1433 328.7239 305.7293
v -737.9883 316.0070 305.7290
f 1135 1136 1137
v -730.1433 328.7239 305.7293
v -716.9167 330.1124 305.7307
v -730.1015 338.3446 305.7288
f 1138 1139 1140
v -727.3576 300.2666 305.7310
v -737.9883 316.0070 305.7290
v -744.9442 320.1606 305.7280
f 1141 1142 1143
v -744.9442 320.1606 305.7280
v -753.8122 305.5895 305.7277
v -753.5136 305.4097 305.7278
f 1144 1145 1146
v -744.9442 320.1606 305.7280
v -753.5136 305.4097 305.7278
v -727.3576 300.2666 305.7310
f 1147 1148 1149
v -730.1433 328.7239 305.7293
v -732.5983 339.9033 305.7284
v -743.6233 337.2429 305.7273
f 1150 1151 1152
v -743.9815 290.2212 305.7296
v -733.8207 290.9070 305.7307
v -753.5136 305.4097 305.7278
f 1153 1154 1155
v -741.8980 287.7746 305.7299
v -741.8563 287.6516 305.7299
v -739.6248 286.3716 305.7303
f 1156 1157 1158
v -743.9815 290.2212 305.7296
v -744.4997 289.3806 305.7296
v -741.8980 287.7746 305.7299
f 1159 1160 1161
v -743.9815 290.2212 305.7296
v -753.5136 305.4097 305.7278
v -757.6547 298.6588 305.7276
f 1162 1163 1164
v -743.9815 290.2212 305.7296
v -741.8980 287.7746 305.7299
v -739.6248 286.3716 305.7303
f 1165 1166 1167
v -701.2766 320.5045 305.7330
v -730.1433 328.7239 305.7293
v -719.7370 312.4731 305.7313
f 1168 1169 1170
v -730.1433 328.7239 305.7293
v -701.2766 320.5045 305.7330
v -716.9167 330.1124 305.7307
f 1171 1172 1173
v -683.2760 311.0932 305.7354
v -688.4971 314.3543 305.7347
v -697.8184 318.3452 305.7334
f 1174 1175 1176
v -753.5101 305.4073 272.7520
v -753.5136 305.4097 305.7278
v -753.8122 305.5895 305.7277
f 1177 1178 1179
v -757.6512 298.6565 272.7518
v -757.6547 298.6588 305.7276
v -753.5136 305.4097 305.7278
f 1180 1181 1182
v -743.9780 290.2190 272.7538
v -743.9815 290.2212 305.7296
v -757.6547 298.6588 305.7276
f 1183 1184 1185
v -744.4962 289.3783 272.7538
v -744.4997 289.3806 305.7296
v -743.9815 290.2212 305.7296
f 1186 1187 1188
v -741.8946 287.7724 272.7540
v -741.8980 287.7746 305.7299
v -744.4997 289.3806 305.7296
f 1189 1190 1191
v -741.8529 287.6493 272.7540
v -741.8563 287.6516 305.7299
v -741.8980 287.7746 305.7299
f 1192 1193 1194
v -739.7574 286.3447 272.7543
v -739.7609 286.3470 305.7302
v -741.8563 287.6516 305.7299
f 1195 1196 1197
v -739.6214 286.3694 272.7544
v -739.6248 286.3716 305.7303
v -739.7609 286.3470 305.7302
f 1198 1199 1200
v -737.4700 285.0415 272.7547
v -737.4734 285.0439 305.7306
v -739.6248 286.3716 305.7303
f 1201 1202 1203
v -737.0512 285.7195 302.1417
v -733.8203 290.9067 302.1418
v -733.8207 290.9070 305.7307
f 1204 1205 1206
v -733.8177 290.9050 276.8297
v -737.0486 285.7177 276.8296
v -733.8173 290.9047 272.7548
f 1207 1208 1209
v -737.0486 285.7177 276.8296
v -737.0512 285.7195 302.1417
v -737.4734 285.0439 305.7306
f 1210 1211 1212
v -733.8207 290.9070 305.7307
v -737.4734 285.0439 305.7306
v -737.0512 285.7195 302.1417
f 1213 1214 1215
v -731.2330 288.4378 272.7552
v -731.2334 288.4381 276.8301
v -733.8177 290.9050 276.8297
f 1216 1217 1218
v -725.3177 283.3570 272.7561
v -725.3180 283.3573 276.8310
v -731.2334 288.4381 276.8301
f 1219 1220 1221
v -721.5804 280.4810 272.7567
v -721.5808 280.4813 276.8316
v -725.3180 283.3573 276.8310
f 1222 1223 1224
v -718.2263 278.3200 272.7572
v -718.2267 278.3203 276.8321
v -721.5808 280.4813 276.8316
f 1225 1226 1227
v -712.4980 274.6967 272.7580
v -712.4985 274.6970 276.8329
v -718.2267 278.3203 276.8321
f 1228 1229 1230
v -707.2012 271.6696 272.7587
v -707.2016 271.6698 276.8336
v -712.4985 274.6970 276.8329
f 1231 1232 1233
v -702.7409 269.5776 272.7593
v -702.7413 269.5779 276.8342
v -707.2016 271.6698 276.8336
f 1234 1235 1236
v -693.7538 265.9265 272.7604
v -693.7542 265.9268 276.8353
v -702.7413 269.5779 276.8342
f 1237 1238 1239
v -696.7768 261.0717 272.7603
v -696.7772 261.0720 276.8352
v -693.7542 265.9268 276.8353
f 1240 1241 1242
v -696.8638 259.9520 272.7603
v -696.8670 259.9541 305.7361
v -696.3386 260.8016 272.7603
f 1243 1244 1245
v -694.2542 258.3380 272.7606
v -694.2574 258.3401 305.7364
v -696.8670 259.9541 305.7361
f 1246 1247 1248
v -694.1868 258.1089 272.7607
v -694.1900 258.1110 305.7365
v -694.2574 258.3401 305.7364
f 1249 1250 1251
v -694.1152 257.9236 272.7607
v -694.1184 257.9257 305.7365
v -694.1900 258.1110 305.7365
f 1252 1253 1254
v -692.4611 256.8882 272.7609
v -692.4643 256.8904 305.7367
v -694.1184 257.9257 305.7365
f 1255 1256 1257
v -692.3731 256.8869 272.7609
v -692.3763 256.8892 305.7367
v -692.4643 256.8904 305.7367
f 1258 1259 1260
v -692.1790 256.9035 272.7609
v -692.1822 256.9056 305.7367
v -692.3763 256.8892 305.7367
f 1261 1262 1263
v -691.9879 256.9409 272.7610
v -691.9911 256.9430 305.7368
v -692.1822 256.9056 305.7367
f 1264 1265 1266
v -689.4063 255.3490 272.7613
v -689.4094 255.3512 305.7371
v -691.9911 256.9430 305.7368
f 1267 1268 1269
v -689.0406 255.9360 272.7613
v -689.0438 255.9382 305.7371
v -689.4094 255.3512 305.7371
f 1270 1271 1272
v -689.0127 255.9190 272.7613
v -689.0159 255.9211 305.7371
v -689.0438 255.9382 305.7371
f 1273 1274 1275
v -688.8520 256.1795 272.7613
v -688.8552 256.1817 305.7371
v -689.0159 255.9211 305.7371
f 1276 1277 1278
v -675.2217 247.7621 272.7631
v -675.2249 247.7642 305.7389
v -688.8552 256.1817 305.7371
f 1279 1280 1281
v -669.1325 273.3984 287.3182
v -669.1342 273.3997 305.7385
v -662.0440 268.9836 305.7394
f 1282 1283 1284
v -661.2094 286.1210 287.3185
v -661.2111 286.1223 305.7389
v -669.1342 273.3997 305.7385
f 1285 1286 1287
v -647.8209 277.7822 287.3202
v -647.8226 277.7835 305.7405
v -661.2111 286.1223 305.7389
f 1288 1289 1290
v -643.9540 283.9888 272.7648
v -626.1677 312.5497 272.7653
v -643.9553 283.9898 287.3203
f 1291 1292 1293
v -626.1705 312.5521 305.7412
v -643.9553 283.9898 287.3203
v -626.1677 312.5497 272.7653
f 1294 1295 1296
v -647.8209 277.7822 287.3202
v -643.9553 283.9898 287.3203
v -647.8226 277.7835 305.7405
f 1297 1298 1299
v -626.1705 312.5521 305.7412
v -647.8226 277.7835 305.7405
v -643.9553 283.9898 287.3203
f 1300 1301 1302
v -668.0192 338.6136 272.7598
v -668.0223 338.6162 305.7356
v -626.1705 312.5521 305.7412
f 1303 1304 1305
v -687.8960 350.8868 272.7570
v -687.8992 350.8894 305.7328
v -668.0223 338.6162 305.7356
f 1306 1307 1308
v -692.1193 344.0811 272.7569
v -692.1224 344.0838 305.7327
v -687.8992 350.8894 305.7328
f 1309 1310 1311
v -697.9775 347.6978 272.7561
v -697.9806 347.7004 305.7319
v -692.1224 344.0838 305.7327
f 1312 1313 1314
v -726.4306 365.0349 272.7520
v -726.4339 365.0376 305.7279
v -697.9806 347.7004 305.7319
f 1315 1316 1317
v -743.6199 337.2404 272.7515
v -743.6233 337.2429 305.7273
v -726.4339 365.0376 305.7279
f 1318 1319 1320
v -743.5466 337.1943 287.6240
v -730.1415 328.7225 287.6260
v -730.1433 328.7239 305.7293
f 1321 1322 1323
v -743.5451 337.1933 273.7885
v -730.1399 328.7214 272.7535
v -730.1400 328.7214 273.7905
f 1324 1325 1326
v -743.6199 337.2404 272.7515
v -743.5466 337.1943 287.6240
v -743.6233 337.2429 305.7273
f 1327 1328 1329
v -730.1399 328.7214 272.7535
v -743.5451 337.1933 273.7885
v -743.6199 337.2404 272.7515
f 1330 1331 1332
v -743.5466 337.1943 287.6240
v -743.6199 337.2404 272.7515
v -743.5451 337.1933 273.7885
f 1333 1334 1335
v -737.9849 316.0046 272.7532
v -737.9850 316.0046 273.7901
v -730.1400 328.7214 273.7905
f 1336 1337 1338
v -744.9407 320.1581 272.7522
v -744.9408 320.1582 273.7891
v -737.9850 316.0046 273.7901
f 1339 1340 1341
v -753.8087 305.5871 272.7519
v -753.8122 305.5895 305.7277
v -745.5630 319.1389 287.6247
f 1342 1343 1344
v -744.9442 320.1606 305.7280
v -745.5630 319.1389 287.6247
v -753.8122 305.5895 305.7277
f 1345 1346 1347
v -744.9407 320.1581 272.7522
v -753.8087 305.5871 272.7519
v -745.5616 319.1379 273.7891
f 1348 1349 1350
v -745.5630 319.1389 287.6247
v -745.5616 319.1379 273.7891
v -753.8087 305.5871 272.7519
f 1351 1352 1353
v -745.5630 319.1389 287.6247
v -744.9442 320.1606 305.7280
v -744.9422 320.1592 287.6247
f 1354 1355 1356
v -745.5616 319.1379 273.7891
v -744.9408 320.1582 273.7891
v -744.9407 320.1581 272.7522
f 1357 1358 1359
v -707.4973 304.8309 272.7572
v -707.4976 304.8311 275.2371
v -719.7339 312.4708 275.2354
f 1360 1361 1362
v -714.1345 294.2071 290.8993
v -714.1360 294.2082 305.7328
v -707.5006 304.8333 305.7330
f 1363 1364 1365
v -727.3543 300.2642 272.7552
v -727.3546 300.2644 275.2351
v -714.1329 294.2060 275.2369
f 1366 1367 1368
v -719.7355 312.4719 290.8978
v -719.7370 312.4731 305.7313
v -727.3576 300.2666 305.7310
f 1369 1370 1371
v -687.6986 275.7532 272.7606
v -687.6988 275.7533 275.2405
v -679.9375 288.1843 275.2408
f 1372 1373 1374
v -699.0421 285.1985 272.7590
v -699.0423 285.1987 275.2389
v -687.6988 275.7533 275.2405
f 1375 1376 1377
v -692.3414 295.9284 272.7592
v -692.3416 295.9286 275.2392
v -699.0423 285.1987 275.2389
f 1378 1379 1380
v -679.9390 288.1855 290.9033
v -679.9404 288.1865 305.7368
v -692.3445 295.9307 305.7351
f 1381 1382 1383
v -753.5101 305.4073 272.7520
v -744.9407 320.1581 272.7522
v -737.9849 316.0046 272.7532
f 1384 1385 1386
v -757.6512 298.6565 272.7518
v -753.5101 305.4073 272.7520
v -743.9780 290.2190 272.7538
f 1387 1388 1389
v -753.5101 305.4073 272.7520
v -727.3543 300.2642 272.7552
v -743.9780 290.2190 272.7538
f 1390 1391 1392
v -753.5101 305.4073 272.7520
v -753.8087 305.5871 272.7519
v -744.9407 320.1581 272.7522
f 1393 1394 1395
v -727.3543 300.2642 272.7552
v -753.5101 305.4073 272.7520
v -737.9849 316.0046 272.7532
f 1396 1397 1398
v -692.1193 344.0811 272.7569
v -707.4973 304.8309 272.7572
v -719.7336 312.4706 272.7555
f 1399 1400 1401
v -743.6199 337.2404 272.7515
v -726.4306 365.0349 272.7520
v -730.1399 328.7214 272.7535
f 1402 1403 1404
v -719.7336 312.4706 272.7555
v -730.1399 328.7214 272.7535
v -692.1193 344.0811 272.7569
f 1405 1406 1407
v -737.9849 316.0046 272.7532
v -719.7336 312.4706 272.7555
v -727.3543 300.2642 272.7552
f 1408 1409 1410
v -727.3543 300.2642 272.7552
v -731.2330 288.4378 272.7552
v -733.8173 290.9047 272.7548
f 1411 1412 1413
v -727.3543 300.2642 272.7552
v -733.8173 290.9047 272.7548
v -743.9780 290.2190 272.7538
f 1414 1415 1416
v -692.3414 295.9284 272.7592
v -699.0421 285.1985 272.7590
v -714.1327 294.2058 272.7569
f 1417 1418 1419
v -714.1327 294.2058 272.7569
v -731.2330 288.4378 272.7552
v -727.3543 300.2642 272.7552
f 1420 1421 1422
v -692.3414 295.9284 272.7592
v -714.1327 294.2058 272.7569
v -707.4973 304.8309 272.7572
f 1423 1424 1425
v -719.7336 312.4706 272.7555
v -737.9849 316.0046 272.7532
v -730.1399 328.7214 272.7535
f 1426 1427 1428
v -741.8946 287.7724 272.7540
v -743.9780 290.2190 272.7538
v -733.8173 290.9047 272.7548
f 1429 1430 1431
v -744.4962 289.3783 272.7538
v -743.9780 290.2190 272.7538
v -741.8946 287.7724 272.7540
f 1432 1433 1434
v -741.8946 287.7724 272.7540
v -733.8173 290.9047 272.7548
v -739.6214 286.3694 272.7544
f 1435 1436 1437
v -739.6214 286.3694 272.7544
v -739.7574 286.3447 272.7543
v -741.8529 287.6493 272.7540
f 1438 1439 1440
v -737.4700 285.0415 272.7547
v -739.6214 286.3694 272.7544
v -733.8173 290.9047 272.7548
f 1441 1442 1443
v -739.6214 286.3694 272.7544
v -741.8529 287.6493 272.7540
v -741.8946 287.7724 272.7540
f 1444 1445 1446
v -725.3177 283.3570 272.7561
v -714.1327 294.2058 272.7569
v -721.5804 280.4810 272.7567
f 1447 1448 1449
v -714.1327 294.2058 272.7569
v -725.3177 283.3570 272.7561
v -731.2330 288.4378 272.7552
f 1450 1451 1452
v -721.5804 280.4810 272.7567
v -714.1327 294.2058 272.7569
v -718.2263 278.3200 272.7572
f 1453 1454 1455
v -712.4980 274.6967 272.7580
v -718.2263 278.3200 272.7572
v -699.0421 285.1985 272.7590
f 1456 1457 1458
v -699.0421 285.1985 272.7590
v -707.2012 271.6696 272.7587
v -712.4980 274.6967 272.7580
f 1459 1460 1461
v -699.0421 285.1985 272.7590
v -702.7409 269.5776 272.7593
v -707.2012 271.6696 272.7587
f 1462 1463 1464
v -702.7409 269.5776 272.7593
v -699.0421 285.1985 272.7590
v -687.6986 275.7532 272.7606
f 1465 1466 1467
v -699.0421 285.1985 272.7590
v -718.2263 278.3200 272.7572
v -714.1327 294.2058 272.7569
f 1468 1469 1470
v -726.4306 365.0349 272.7520
v -697.9775 347.6978 272.7561
v -730.1399 328.7214 272.7535
f 1471 1472 1473
v -692.3414 295.9284 272.7592
v -707.4973 304.8309 272.7572
v -668.0192 338.6136 272.7598
f 1474 1475 1476
v -692.1193 344.0811 272.7569
v -668.0192 338.6136 272.7598
v -707.4973 304.8309 272.7572
f 1477 1478 1479
v -693.7538 265.9265 272.7604
v -696.3386 260.8016 272.7603
v -696.7768 261.0717 272.7603
f 1480 1481 1482
v -702.7409 269.5776 272.7593
v -687.6986 275.7532 272.7606
v -693.7538 265.9265 272.7604
f 1483 1484 1485
v -674.9432 271.0690 272.7622
v -693.7538 265.9265 272.7604
v -687.6986 275.7532 272.7606
f 1486 1487 1488
v -687.8960 350.8868 272.7570
v -668.0192 338.6136 272.7598
v -692.1193 344.0811 272.7569
f 1489 1490 1491
v -660.4482 294.2869 272.7627
v -668.0192 338.6136 272.7598
v -626.1677 312.5497 272.7653
f 1492 1493 1494
v -643.9540 283.9888 272.7648
v -660.4482 294.2869 272.7627
v -626.1677 312.5497 272.7653
f 1495 1496 1497
v -692.3414 295.9284 272.7592
v -660.4482 294.2869 272.7627
v -679.9373 288.1842 272.7609
f 1498 1499 1500
v -687.6986 275.7532 272.7606
v -679.9373 288.1842 272.7609
v -674.9432 271.0690 272.7622
f 1501 1502 1503
v -674.9432 271.0690 272.7622
v -679.9373 288.1842 272.7609
v -660.4482 294.2869 272.7627
f 1504 1505 1506
v -674.9432 271.0690 272.7622
v -688.8520 256.1795 272.7613
v -693.7538 265.9265 272.7604
f 1507 1508 1509
v -668.0192 338.6136 272.7598
v -660.4482 294.2869 272.7627
v -692.3414 295.9284 272.7592
f 1510 1511 1512
v -664.7126 264.6816 272.7635
v -688.8520 256.1795 272.7613
v -674.9432 271.0690 272.7622
f 1513 1514 1515
v -694.2542 258.3380 272.7606
v -696.8638 259.9520 272.7603
v -696.3386 260.8016 272.7603
f 1516 1517 1518
v -694.2542 258.3380 272.7606
v -691.9879 256.9409 272.7610
v -694.1868 258.1089 272.7607
f 1519 1520 1521
v -694.1152 257.9236 272.7607
v -691.9879 256.9409 272.7610
v -692.4611 256.8882 272.7609
f 1522 1523 1524
v -692.4611 256.8882 272.7609
v -692.1790 256.9035 272.7609
v -692.3731 256.8869 272.7609
f 1525 1526 1527
v -694.1868 258.1089 272.7607
v -691.9879 256.9409 272.7610
v -694.1152 257.9236 272.7607
f 1528 1529 1530
v -694.2542 258.3380 272.7606
v -696.3386 260.8016 272.7603
v -693.7538 265.9265 272.7604
f 1531 1532 1533
v -692.4611 256.8882 272.7609
v -691.9879 256.9409 272.7610
v -692.1790 256.9035 272.7609
f 1534 1535 1536
v -693.7538 265.9265 272.7604
v -691.9879 256.9409 272.7610
v -694.2542 258.3380 272.7606
f 1537 1538 1539
v -688.8520 256.1795 272.7613
v -689.0406 255.9360 272.7613
v -691.9879 256.9409 272.7610
f 1540 1541 1542
v -691.9879 256.9409 272.7610
v -689.0406 255.9360 272.7613
v -689.4063 255.3490 272.7613
f 1543 1544 1545
v -688.8520 256.1795 272.7613
v -689.0127 255.9190 272.7613
v -689.0406 255.9360 272.7613
f 1546 1547 1548
v -675.2217 247.7621 272.7631
v -688.8520 256.1795 272.7613
v -664.7126 264.6816 272.7635
f 1549 1550 1551
v -693.7538 265.9265 272.7604
v -688.8520 256.1795 272.7613
v -691.9879 256.9409 272.7610
f 1552 1553 1554
v -730.1399 328.7214 272.7535
v -697.9775 347.6978 272.7561
v -692.1193 344.0811 272.7569
f 1555 1556 1557
v -680.1799 316.0531 307.6764
v -685.4010 319.3130 307.6756
v -688.4974 314.3544 307.6756
f 1558 1559 1560
v -688.4974 314.3544 307.6756
v -683.2762 311.0934 307.6763
v -680.1799 316.0531 307.6764
f 1561 1562 1563
v -683.2760 311.0932 305.7354
v -683.2762 311.0934 307.6763
v -688.4974 314.3544 307.6756
f 1564 1565 1566
v -680.1797 316.0529 305.7355
v -680.1799 316.0531 307.6764
v -683.2762 311.0934 307.6763
f 1567 1568 1569
v -685.4009 319.3129 305.7347
v -685.4010 319.3130 307.6756
v -680.1799 316.0531 307.6764
f 1570 1571 1572
v -688.4971 314.3543 305.7347
v -688.4974 314.3544 307.6756
v -685.4010 319.3130 307.6756
f 1573 1574 1575
v -697.8185 318.3452 306.6784
v -693.3453 325.5092 306.6786
v -696.8035 327.6685 306.6781
f 1576 1577 1578
v -696.8035 327.6685 306.6781
v -701.2767 320.5046 306.6780
v -697.8185 318.3452 306.6784
f 1579 1580 1581
v -697.8184 318.3452 305.7334
v -697.8185 318.3452 306.6784
v -701.2767 320.5046 306.6780
f 1582 1583 1584
v -693.3452 325.5092 305.7336
v -693.3453 325.5092 306.6786
v -697.8185 318.3452 306.6784
f 1585 1586 1587
v -696.8034 327.6684 305.7331
v -696.8035 327.6685 306.6781
v -693.3453 325.5092 306.6786
f 1588 1589 1590
v -701.2766 320.5045 305.7330
v -701.2767 320.5046 306.6780
v -696.8035 327.6685 306.6781
f 1591 1592 1593
v -736.5009 285.6032 276.8297
v -736.5035 285.6050 302.1418
v -736.6040 285.4422 302.1417
f 1594 1595 1596
v -731.2359 288.4398 302.1422
v -731.2364 288.4401 305.7311
v -733.8207 290.9070 305.7307
f 1597 1598 1599
v -725.3206 283.3590 302.1431
v -725.3210 283.3592 305.7320
v -731.2364 288.4401 305.7311
f 1600 1601 1602
v -721.5834 280.4830 302.1437
v -721.5837 280.4833 305.7326
v -725.3210 283.3592 305.7320
f 1603 1604 1605
v -718.2292 278.3220 302.1442
v -718.2296 278.3223 305.7331
v -721.5837 280.4833 305.7326
f 1606 1607 1608
v -712.5010 274.6987 302.1450
v -712.5013 274.6989 305.7339
v -718.2296 278.3223 305.7331
f 1609 1610 1611
v -707.2041 271.6715 302.1457
v -707.2045 271.6717 305.7346
v -712.5013 274.6989 305.7339
f 1612 1613 1614
v -702.7438 269.5795 302.1463
v -702.7441 269.5798 305.7351
v -707.2045 271.6717 305.7346
f 1615 1616 1617
v -693.7567 265.9285 302.1474
v -693.7570 265.9288 305.7362
v -702.7441 269.5798 305.7351
f 1618 1619 1620
v -696.7797 261.0736 302.1473
v -696.7800 261.0739 305.7361
v -693.7570 265.9288 305.7362
f 1621 1622 1623
v -696.7797 261.0736 302.1473
v -702.7438 269.5795 302.1463
v -707.2041 271.6715 302.1457
f 1624 1625 1626
v -696.7797 261.0736 302.1473
v -693.7567 265.9285 302.1474
v -702.7438 269.5795 302.1463
f 1627 1628 1629
v -712.5010 274.6987 302.1450
v -736.5035 285.6050 302.1418
v -696.7797 261.0736 302.1473
f 1630 1631 1632
v -707.2041 271.6715 302.1457
v -712.5010 274.6987 302.1450
v -696.7797 261.0736 302.1473
f 1633 1634 1635
v -718.2292 278.3220 302.1442
v -736.5035 285.6050 302.1418
v -712.5010 274.6987 302.1450
f 1636 1637 1638
v -736.5035 285.6050 302.1418
v -731.2359 288.4398 302.1422
v -733.8203 290.9067 302.1418
f 1639 1640 1641
v -736.5035 285.6050 302.1418
v -725.3206 283.3590 302.1431
v -731.2359 288.4398 302.1422
f 1642 1643 1644
v -721.5834 280.4830 302.1437
v -736.5035 285.6050 302.1418
v -718.2292 278.3220 302.1442
f 1645 1646 1647
v -736.6040 285.4422 302.1417
v -736.5035 285.6050 302.1418
v -737.0512 285.7195 302.1417
f 1648 1649 1650
v -733.8203 290.9067 302.1418
v -737.0512 285.7195 302.1417
v -736.5035 285.6050 302.1418
f 1651 1652 1653
v -736.5035 285.6050 302.1418
v -721.5834 280.4830 302.1437
v -725.3206 283.3590 302.1431
f 1654 1655 1656
v -736.6014 285.4405 276.8297
v -736.6040 285.4422 302.1417
v -737.0512 285.7195 302.1417
f 1657 1658 1659
v -736.5009 285.6032 276.8297
v -731.2334 288.4381 276.8301
v -725.3180 283.3573 276.8310
f 1660 1661 1662
v -736.5009 285.6032 276.8297
v -733.8177 290.9050 276.8297
v -731.2334 288.4381 276.8301
f 1663 1664 1665
v -736.6014 285.4405 276.8297
v -737.0486 285.7177 276.8296
v -736.5009 285.6032 276.8297
f 1666 1667 1668
v -733.8177 290.9050 276.8297
v -736.5009 285.6032 276.8297
v -737.0486 285.7177 276.8296
f 1669 1670 1671
v -721.5808 280.4813 276.8316
v -736.5009 285.6032 276.8297
v -725.3180 283.3573 276.8310
f 1672 1673 1674
v -696.7772 261.0720 276.8352
v -702.7413 269.5779 276.8342
v -693.7542 265.9268 276.8353
f 1675 1676 1677
v -696.7772 261.0720 276.8352
v -707.2016 271.6698 276.8336
v -702.7413 269.5779 276.8342
f 1678 1679 1680
v -718.2267 278.3203 276.8321
v -712.4985 274.6970 276.8329
v -736.5009 285.6032 276.8297
f 1681 1682 1683
v -712.4985 274.6970 276.8329
v -696.7772 261.0720 276.8352
v -736.5009 285.6032 276.8297
f 1684 1685 1686
v -707.2016 271.6698 276.8336
v -696.7772 261.0720 276.8352
v -712.4985 274.6970 276.8329
f 1687 1688 1689
v -721.5808 280.4813 276.8316
v -718.2267 278.3203 276.8321
v -736.5009 285.6032 276.8297
f 1690 1691 1692
v -707.4991 304.8323 290.8995
v -707.5006 304.8333 305.7330
v -719.7370 312.4731 305.7313
f 1693 1694 1695
v -714.1327 294.2058 272.7569
v -714.1329 294.2060 275.2369
v -707.4976 304.8311 275.2371
f 1696 1697 1698
v -727.3561 300.2655 290.8975
v -727.3576 300.2666 305.7310
v -714.1360 294.2082 305.7328
f 1699 1700 1701
v -719.7336 312.4706 272.7555
v -719.7339 312.4708 275.2354
v -727.3546 300.2644 275.2351
f 1702 1703 1704
v -687.7003 275.7544 290.9030
v -687.7017 275.7554 305.7364
v -679.9404 288.1865 305.7368
f 1705 1706 1707
v -699.0439 285.1997 290.9014
v -699.0452 285.2007 305.7349
v -687.7017 275.7554 305.7364
f 1708 1709 1710
v -692.3431 295.9296 290.9016
v -692.3445 295.9307 305.7351
v -699.0452 285.2007 305.7349
f 1711 1712 1713
v -679.9373 288.1842 272.7609
v -679.9375 288.1843 275.2408
v -692.3416 295.9286 275.2392
f 1714 1715 1716
v -714.1345 294.2071 290.8993
v -719.7355 312.4719 290.8978
v -727.3561 300.2655 290.8975
f 1717 1718 1719
v -719.7355 312.4719 290.8978
v -714.1345 294.2071 290.8993
v -707.4991 304.8323 290.8995
f 1720 1721 1722
v -679.9390 288.1855 290.9033
v -692.3431 295.9296 290.9016
v -699.0439 285.1997 290.9014
f 1723 1724 1725
v -699.0439 285.1997 290.9014
v -687.7003 275.7544 290.9030
v -679.9390 288.1855 290.9033
f 1726 1727 1728
v -699.0423 285.1987 275.2389
v -679.9375 288.1843 275.2408
v -687.6988 275.7533 275.2405
f 1729 1730 1731
v -679.9375 288.1843 275.2408
v -699.0423 285.1987 275.2389
v -692.3416 295.9286 275.2392
f 1732 1733 1734
v -719.7339 312.4708 275.2354
v -707.4976 304.8311 275.2371
v -714.1329 294.2060 275.2369
f 1735 1736 1737
v -714.1329 294.2060 275.2369
v -727.3546 300.2644 275.2351
v -719.7339 312.4708 275.2354
f 1738 1739 1740
v -743.9307 336.2474 273.7885
v -743.9321 336.2484 287.6240
v -744.0819 336.3377 287.6240
f 1741 1742 1743
v -751.9865 323.2271 273.7883
v -751.9879 323.2281 287.6238
v -743.9321 336.2484 287.6240
f 1744 1745 1746
v -745.8457 319.4636 273.7891
v -745.8471 319.4646 287.6247
v -751.9879 323.2281 287.6238
f 1747 1748 1749
v -745.9119 319.3569 273.7891
v -745.9134 319.3579 287.6247
v -745.8471 319.4646 287.6247
f 1750 1751 1752
v -745.5616 319.1379 273.7891
v -745.5630 319.1389 287.6247
v -745.9134 319.3579 287.6247
f 1753 1754 1755
v -737.9865 316.0056 287.6257
v -737.9883 316.0070 305.7290
v -730.1433 328.7239 305.7293
f 1756 1757 1758
v -744.9422 320.1592 287.6247
v -744.9442 320.1606 305.7280
v -737.9883 316.0070 305.7290
f 1759 1760 1761
v -745.8471 319.4646 287.6247
v -745.5630 319.1389 287.6247
v -744.9422 320.1592 287.6247
f 1762 1763 1764
v -745.5630 319.1389 287.6247
v -745.8471 319.4646 287.6247
v -745.9134 319.3579 287.6247
f 1765 1766 1767
v -744.9422 320.1592 287.6247
v -751.9879 323.2281 287.6238
v -745.8471 319.4646 287.6247
f 1768 1769 1770
v -751.9879 323.2281 287.6238
v -744.9422 320.1592 287.6247
v -743.9321 336.2484 287.6240
f 1771 1772 1773
v -744.9422 320.1592 287.6247
v -730.1415 328.7225 287.6260
v -743.9321 336.2484 287.6240
f 1774 1775 1776
v -743.5466 337.1943 287.6240
v -744.0819 336.3377 287.6240
v -743.9321 336.2484 287.6240
f 1777 1778 1779
v -730.1415 328.7225 287.6260
v -743.5466 337.1943 287.6240
v -743.9321 336.2484 287.6240
f 1780 1781 1782
v -730.1415 328.7225 287.6260
v -744.9422 320.1592 287.6247
v -737.9865 316.0056 287.6257
f 1783 1784 1785
v -744.0804 336.3367 273.7885
v -744.0819 336.3377 287.6240
v -743.5466 337.1943 287.6240
f 1786 1787 1788
v -744.9408 320.1582 273.7891
v -743.9307 336.2474 273.7885
v -730.1400 328.7214 273.7905
f 1789 1790 1791
v -744.0804 336.3367 273.7885
v -743.5451 337.1933 273.7885
v -743.9307 336.2474 273.7885
f 1792 1793 1794
v -730.1400 328.7214 273.7905
v -743.9307 336.2474 273.7885
v -743.5451 337.1933 273.7885
f 1795 1796 1797
v -744.9408 320.1582 273.7891
v -751.9865 323.2271 273.7883
v -743.9307 336.2474 273.7885
f 1798 1799 1800
v -737.9850 316.0046 273.7901
v -744.9408 320.1582 273.7891
v -730.1400 328.7214 273.7905
f 1801 1802 1803
v -745.8457 319.4636 273.7891
v -744.9408 320.1582 273.7891
v -745.5616 319.1379 273.7891
f 1804 1805 1806
v -745.5616 319.1379 273.7891
v -745.9119 319.3569 273.7891
v -745.8457 319.4636 273.7891
f 1807 1808 1809
v -744.9408 320.1582 273.7891
v -745.8457 319.4636 273.7891
v -751.9865 323.2271 273.7883
f 1810 1811 1812
v -669.7130 310.7960 307.8777
v -677.0058 315.3496 307.8767
v -680.4927 309.7650 307.8766
f 1813 1814 1815
v -680.4927 309.7650 307.8766
v -673.1990 305.2115 307.8776
v -669.7130 310.7960 307.8777
f 1816 1817 1818
v -673.1989 305.2113 305.7367
v -673.1990 305.2115 307.8776
v -680.4927 309.7650 307.8766
f 1819 1820 1821
v -669.7129 310.7959 305.7368
v -669.7130 310.7960 307.8777
v -673.1990 305.2115 307.8776
f 1822 1823 1824
v -677.0056 315.3494 305.7358
v -677.0058 315.3496 307.8767
v -669.7130 310.7960 307.8777
f 1825 1826 1827
v -680.4926 309.7648 305.7357
v -680.4927 309.7650 307.8766
v -677.0058 315.3496 307.8767
f 1828 1829 1830
v -704.2118 332.0394 307.9729
v -701.9170 323.0473 307.9737
v -698.5204 328.4872 307.9738
f 1831 1832 1833
v -701.9170 323.0473 307.9737
v -704.2118 332.0394 307.9729
v -707.6074 326.6005 307.9728
f 1834 1835 1836
v -701.9167 323.0472 305.7328
v -701.9170 323.0473 307.9737
v -707.6074 326.6005 307.9728
f 1837 1838 1839
v -698.5202 328.4871 305.7329
v -698.5204 328.4872 307.9738
v -701.9170 323.0473 307.9737
f 1840 1841 1842
v -704.2117 332.0393 305.7320
v -704.2118 332.0394 307.9729
v -698.5204 328.4872 307.9738
f 1843 1844 1845
v -707.6072 326.6004 305.7319
v -707.6074 326.6005 307.9728
v -704.2118 332.0394 307.9729
f 1846 1847 1848
v -656.1132 264.4556 272.1214
v -656.1146 264.4566 287.3199
v -662.4106 268.3874 272.7636
f 1849 1850 1851
v -656.1132 264.4556 272.1214
v -662.4106 268.3874 272.7636
v -662.4106 268.3874 272.1206
f 1852 1853 1854
v -643.9270 283.9726 272.1218
v -643.9284 283.9736 287.3203
v -656.1146 264.4566 287.3199
f 1855 1856 1857
v -674.9432 271.0690 272.1192
v -662.4106 268.3874 272.1206
v -664.7175 264.6846 272.1205
f 1858 1859 1860
v -643.9270 283.9726 272.1218
v -662.4106 268.3874 272.1206
v -660.4481 294.2869 272.1197
f 1861 1862 1863
v -674.9432 271.0690 272.1192
v -660.4481 294.2869 272.1197
v -662.4106 268.3874 272.1206
f 1864 1865 1866
v -656.1132 264.4556 272.1214
v -662.4106 268.3874 272.1206
v -643.9270 283.9726 272.1218
f 1867 1868 1869
v -656.1146 264.4566 287.3199
v -643.9284 283.9736 287.3203
v -647.8209 277.7822 287.3202
f 1870 1871 1872
v -643.9553 283.9898 287.3203
v -647.8209 277.7822 287.3202
v -643.9284 283.9736 287.3203
f 1873 1874 1875
v -647.8209 277.7822 287.3202
v -661.2094 286.1210 287.3185
v -662.0424 268.9824 287.3191
f 1876 1877 1878
v -661.2094 286.1210 287.3185
v -669.1325 273.3984 287.3182
v -662.0424 268.9824 287.3191
f 1879 1880 1881
v -662.0424 268.9824 287.3191
v -662.4120 268.3884 287.3191
v -656.1146 264.4566 287.3199
f 1882 1883 1884
v -647.8209 277.7822 287.3202
v -662.0424 268.9824 287.3191
v -656.1146 264.4566 287.3199
f 1885 1886 1887
v -643.9540 283.9888 272.7648
v -660.4481 294.2869 272.1197
v -660.4482 294.2869 272.7627
f 1888 1889 1890
v -643.9270 283.9726 272.1218
v -643.9540 283.9888 272.7648
v -643.9284 283.9736 287.3203
f 1891 1892 1893
v -643.9553 283.9898 287.3203
v -643.9284 283.9736 287.3203
v -643.9540 283.9888 272.7648
f 1894 1895 1896
v -660.4481 294.2869 272.1197
v -643.9540 283.9888 272.7648
v -643.9270 283.9726 272.1218
f 1897 1898 1899
v -674.9432 271.0690 272.1192
v -674.9432 271.0690 272.7622
v -660.4482 294.2869 272.7627
f 1900 1901 1902
v -664.7175 264.6846 272.1205
v -664.7126 264.6816 272.7635
v -674.9432 271.0690 272.7622
f 1903 1904 1905
v -661.8231 305.1859 306.7718
v -661.4978 306.0370 306.7718
v -661.9718 305.2782 306.7718
f 1906 1907 1908
v -664.4714 300.9450 306.7717
v -664.6202 301.0374 306.7717
v -666.0594 298.7322 306.7717
f 1909 1910 1911
v -648.0295 297.6259 306.7736
v -664.4714 300.9450 306.7717
v -652.5890 290.3232 306.7735
f 1912 1913 1914
v -666.0594 298.7322 306.7717
v -652.5890 290.3232 306.7735
v -664.4714 300.9450 306.7717
f 1915 1916 1917
v -661.4978 306.0370 306.7718
v -661.8231 305.1859 306.7718
v -648.0295 297.6259 306.7736
f 1918 1919 1920
v -664.4714 300.9450 306.7717
v -648.0295 297.6259 306.7736
v -661.8231 305.1859 306.7718
f 1921 1922 1923
v -645.6276 296.2017 309.5958
v -652.5891 290.3233 308.5665
v -650.2213 288.8441 309.5957
f 1924 1925 1926
v -652.5891 290.3233 308.5665
v -645.6276 296.2017 309.5958
v -647.9955 297.6809 308.5666
f 1927 1928 1929
v -661.8232 305.1860 307.8788
v -668.0335 303.1696 307.8783
v -664.4715 300.9450 307.8787
f 1930 1931 1932
v -668.0335 303.1696 307.8783
v -661.8232 305.1860 307.8788
v -665.3862 307.4104 307.8783
f 1933 1934 1935
v -661.8231 305.1859 306.7718
v -661.8232 305.1860 307.8788
v -664.4715 300.9450 307.8787
f 1936 1937 1938
v -661.4977 306.0368 305.7379
v -661.4978 306.0370 306.7718
v -648.0295 297.6259 306.7736
f 1939 1940 1941
v -666.0592 298.7322 305.7378
v -666.0594 298.7322 306.7717
v -664.6202 301.0374 306.7717
f 1942 1943 1944
v -645.6272 296.2014 305.7400
v -645.6276 296.2017 309.5958
v -650.2213 288.8441 309.5957
f 1945 1946 1947
v -647.9952 297.6808 305.7397
v -647.9955 297.6809 308.5666
v -645.6272 296.2014 305.7400
f 1948 1949 1950
v -652.5890 290.3232 306.7735
v -652.5891 290.3233 308.5665
v -648.0295 297.6259 306.7736
f 1951 1952 1953
v -647.9955 297.6809 308.5666
v -648.0295 297.6259 306.7736
v -652.5891 290.3233 308.5665
f 1954 1955 1956
v -648.0294 297.6258 305.7397
v -648.0295 297.6259 306.7736
v -647.9952 297.6808 305.7397
f 1957 1958 1959
v -647.9955 297.6809 308.5666
v -647.9952 297.6808 305.7397
v -648.0295 297.6259 306.7736
f 1960 1961 1962
v -668.0333 303.1694 305.7374
v -668.0335 303.1696 307.8783
v -665.3862 307.4104 307.8783
f 1963 1964 1965
v -661.9717 305.2782 305.7379
v -661.9718 305.2782 306.7718
v -661.4978 306.0370 306.7718
f 1966 1967 1968
v -665.3860 307.4103 305.7374
v -665.3862 307.4104 307.8783
v -661.9718 305.2782 306.7718
f 1969 1970 1971
v -661.8232 305.1860 307.8788
v -661.9718 305.2782 306.7718
v -665.3862 307.4104 307.8783
f 1972 1973 1974
v -661.9717 305.2782 305.7379
v -665.3860 307.4103 305.7374
v -661.9718 305.2782 306.7718
f 1975 1976 1977
v -661.8232 305.1860 307.8788
v -661.8231 305.1859 306.7718
v -661.9718 305.2782 306.7718
f 1978 1979 1980
v -664.4715 300.9450 307.8787
v -664.6202 301.0374 306.7717
v -664.4714 300.9450 306.7717
f 1981 1982 1983
v -668.0333 303.1694 305.7374
v -664.6202 301.0374 306.7717
v -668.0335 303.1696 307.8783
f 1984 1985 1986
v -664.4715 300.9450 307.8787
v -668.0335 303.1696 307.8783
v -664.6202 301.0374 306.7717
f 1987 1988 1989
v -664.6201 301.0374 305.7378
v -664.6202 301.0374 306.7717
v -668.0333 303.1694 305.7374
f 1990 1991 1992
v -712.9226 336.5106 306.6758
v -712.4084 337.3332 306.6759
v -725.5933 345.5646 306.6739
f 1993 1994 1995
v -730.1016 338.3448 306.6738
v -715.3932 332.5524 306.6758
v -725.5933 345.5646 306.6739
f 1996 1997 1998
v -725.5933 345.5646 306.6739
v -715.3932 332.5524 306.6758
v -712.9226 336.5106 306.6758
f 1999 2000 2001
v -730.1016 338.3448 306.6738
v -716.9167 330.1124 306.6757
v -715.3932 332.5524 306.6758
f 2002 2003 2004
v -730.1008 338.3459 309.1647
v -725.5935 345.5648 309.1648
v -728.0903 347.1234 308.7675
f 2005 2006 2007
v -728.0903 347.1234 308.7675
v -732.5986 339.9036 308.7673
v -730.1008 338.3459 309.1647
f 2008 2009 2010
v -725.5933 345.5646 306.6739
v -725.5935 345.5648 309.1648
v -730.1008 338.3459 309.1647
f 2011 2012 2013
v -712.9228 336.5108 308.0707
v -715.3934 332.5524 308.0707
v -711.9043 330.3741 308.0712
f 2014 2015 2016
v -711.9043 330.3741 308.0712
v -709.4317 334.3325 308.0712
v -712.9228 336.5108 308.0707
f 2017 2018 2019
v -715.3932 332.5524 306.6758
v -715.3934 332.5524 308.0707
v -712.9228 336.5108 308.0707
f 2020 2021 2022
v -732.5983 339.9033 305.7284
v -732.5986 339.9036 308.7673
v -728.0903 347.1234 308.7675
f 2023 2024 2025
v -711.9040 330.3740 305.7313
v -711.9043 330.3741 308.0712
v -715.3932 332.5524 306.6758
f 2026 2027 2028
v -711.9040 330.3740 305.7313
v -715.3932 332.5524 306.6758
v -715.3932 332.5522 305.7308
f 2029 2030 2031
v -709.4314 334.3322 305.7313
v -709.4317 334.3325 308.0712
v -711.9043 330.3741 308.0712
f 2032 2033 2034
v -709.4317 334.3325 308.0712
v -712.9226 336.5106 306.6758
v -712.9228 336.5108 308.0707
f 2035 2036 2037
v -712.9225 336.5106 305.7308
v -712.9226 336.5106 306.6758
v -709.4314 334.3322 305.7313
f 2038 2039 2040
v -709.4317 334.3325 308.0712
v -709.4314 334.3322 305.7313
v -712.9226 336.5106 306.6758
f 2041 2042 2043
v -712.4083 337.3332 305.7309
v -712.4084 337.3332 306.6759
v -712.9225 336.5106 305.7308
f 2044 2045 2046
v -715.3932 332.5522 305.7308
v -715.3932 332.5524 306.6758
v -716.9167 330.1124 305.7307
f 2047 2048 2049
v -662.4120 268.3884 287.3191
v -662.0424 268.9824 287.3191
v -662.0440 268.9836 305.7394
f 2050 2051 2052
v -664.7126 264.6816 272.7635
v -662.4106 268.3874 272.7636
v -662.4120 268.3884 287.3191
f 2053 2054 2055
v -662.4120 268.3884 287.3191
v -662.0440 268.9836 305.7394
v -675.2249 247.7642 305.7389
f 2056 2057 2058
v -664.7126 264.6816 272.7635
v -662.4120 268.3884 287.3191
v -675.2217 247.7621 272.7631
f 2059 2060 2061
v -662.4106 268.3874 272.7636
v -664.7126 264.6816 272.7635
v -662.4106 268.3874 272.1206
f 2062 2063 2064
v -675.2217 247.7621 272.7631
v -662.4120 268.3884 287.3191
v -675.2249 247.7642 305.7389
f 2065 2066 2067
v -696.3386 260.8016 272.7603
v -696.3418 260.8037 305.7361
v -696.7797 261.0736 302.1473
f 2068 2069 2070
v -696.7772 261.0720 276.8352
v -696.7797 261.0736 302.1473
v -736.5035 285.6050 302.1418
f 2071 2072 2073
v -652.5889 290.3232 305.7396
v -650.2209 288.8438 305.7399
v -652.5890 290.3232 306.7735
f 2074 2075 2076
v -650.2209 288.8438 305.7399
v -650.2213 288.8441 309.5957
v -652.5890 290.3232 306.7735
f 2077 2078 2079
v -652.5889 290.3232 305.7396
v -652.5890 290.3232 306.7735
v -666.0592 298.7322 305.7378
f 2080 2081 2082
v -666.0594 298.7322 306.7717
v -666.0592 298.7322 305.7378
v -652.5890 290.3232 306.7735
f 2083 2084 2085
v -728.0903 347.1234 308.7675
v -725.5933 345.5646 306.6739
v -728.0899 347.1232 305.7286
f 2086 2087 2088
v -728.0903 347.1234 308.7675
v -725.5935 345.5648 309.1648
v -725.5933 345.5646 306.6739
f 2089 2090 2091
v -725.5933 345.5646 306.6739
v -712.4084 337.3332 306.6759
v -712.4083 337.3332 305.7309
f 2092 2093 2094
v -730.1015 338.3446 305.7288
v -716.9167 330.1124 305.7307
v -716.9167 330.1124 306.6757
f 2095 2096 2097
v -732.5983 339.9033 305.7284
v -730.1016 338.3448 306.6738
v -732.5986 339.9036 308.7673
f 2098 2099 2100
v -730.1008 338.3459 309.1647
v -732.5986 339.9036 308.7673
v -730.1016 338.3448 306.6738
f 2101 2102 2103
v -730.1016 338.3448 306.6738
v -732.5983 339.9033 305.7284
v -730.1015 338.3446 305.7288
f 2104 2105 2106
v -716.9167 330.1124 306.6757
v -730.1016 338.3448 306.6738
v -730.1015 338.3446 305.7288
f 2107 2108 2109
v -753.5101 305.4073 272.7520
v -753.8122 305.5895 305.7277
v -753.8087 305.5871 272.7519
f 2110 2111 2112
v -757.6512 298.6565 272.7518
v -753.5136 305.4097 305.7278
v -753.5101 305.4073 272.7520
f 2113 2114 2115
v -743.9780 290.2190 272.7538
v -757.6547 298.6588 305.7276
v -757.6512 298.6565 272.7518
f 2116 2117 2118
v -744.4962 289.3783 272.7538
v -743.9815 290.2212 305.7296
v -743.9780 290.2190 272.7538
f 2119 2120 2121
v -741.8946 287.7724 272.7540
v -744.4997 289.3806 305.7296
v -744.4962 289.3783 272.7538
f 2122 2123 2124
v -741.8529 287.6493 272.7540
v -741.8980 287.7746 305.7299
v -741.8946 287.7724 272.7540
f 2125 2126 2127
v -739.7574 286.3447 272.7543
v -741.8563 287.6516 305.7299
v -741.8529 287.6493 272.7540
f 2128 2129 2130
v -739.6214 286.3694 272.7544
v -739.7609 286.3470 305.7302
v -739.7574 286.3447 272.7543
f 2131 2132 2133
v -737.4700 285.0415 272.7547
v -739.6248 286.3716 305.7303
v -739.6214 286.3694 272.7544
f 2134 2135 2136
v -737.0486 285.7177 276.8296
v -737.4700 285.0415 272.7547
v -733.8173 290.9047 272.7548
f 2137 2138 2139
v -737.0486 285.7177 276.8296
v -737.4734 285.0439 305.7306
v -737.4700 285.0415 272.7547
f 2140 2141 2142
v -731.2330 288.4378 272.7552
v -733.8177 290.9050 276.8297
v -733.8173 290.9047 272.7548
f 2143 2144 2145
v -725.3177 283.3570 272.7561
v -731.2334 288.4381 276.8301
v -731.2330 288.4378 272.7552
f 2146 2147 2148
v -721.5804 280.4810 272.7567
v -725.3180 283.3573 276.8310
v -725.3177 283.3570 272.7561
f 2149 2150 2151
v -718.2263 278.3200 272.7572
v -721.5808 280.4813 276.8316
v -721.5804 280.4810 272.7567
f 2152 2153 2154
v -712.4980 274.6967 272.7580
v -718.2267 278.3203 276.8321
v -718.2263 278.3200 272.7572
f 2155 2156 2157
v -707.2012 271.6696 272.7587
v -712.4985 274.6970 276.8329
v -712.4980 274.6967 272.7580
f 2158 2159 2160
v -702.7409 269.5776 272.7593
v -707.2016 271.6698 276.8336
v -707.2012 271.6696 272.7587
f 2161 2162 2163
v -693.7538 265.9265 272.7604
v -702.7413 269.5779 276.8342
v -702.7409 269.5776 272.7593
f 2164 2165 2166
v -696.7768 261.0717 272.7603
v -693.7542 265.9268 276.8353
v -693.7538 265.9265 272.7604
f 2167 2168 2169
v -696.8670 259.9541 305.7361
v -696.3418 260.8037 305.7361
v -696.3386 260.8016 272.7603
f 2170 2171 2172
v -694.2542 258.3380 272.7606
v -696.8670 259.9541 305.7361
v -696.8638 259.9520 272.7603
f 2173 2174 2175
v -694.1868 258.1089 272.7607
v -694.2574 258.3401 305.7364
v -694.2542 258.3380 272.7606
f 2176 2177 2178
v -694.1152 257.9236 272.7607
v -694.1900 258.1110 305.7365
v -694.1868 258.1089 272.7607
f 2179 2180 2181
v -692.4611 256.8882 272.7609
v -694.1184 257.9257 305.7365
v -694.1152 257.9236 272.7607
f 2182 2183 2184
v -692.3731 256.8869 272.7609
v -692.4643 256.8904 305.7367
v -692.4611 256.8882 272.7609
f 2185 2186 2187
v -692.1790 256.9035 272.7609
v -692.3763 256.8892 305.7367
v -692.3731 256.8869 272.7609
f 2188 2189 2190
v -691.9879 256.9409 272.7610
v -692.1822 256.9056 305.7367
v -692.1790 256.9035 272.7609
f 2191 2192 2193
v -689.4063 255.3490 272.7613
v -691.9911 256.9430 305.7368
v -691.9879 256.9409 272.7610
f 2194 2195 2196
v -689.0406 255.9360 272.7613
v -689.4094 255.3512 305.7371
v -689.4063 255.3490 272.7613
f 2197 2198 2199
v -689.0127 255.9190 272.7613
v -689.0438 255.9382 305.7371
v -689.0406 255.9360 272.7613
f 2200 2201 2202
v -688.8520 256.1795 272.7613
v -689.0159 255.9211 305.7371
v -689.0127 255.9190 272.7613
f 2203 2204 2205
v -675.2217 247.7621 272.7631
v -688.8552 256.1817 305.7371
v -688.8520 256.1795 272.7613
f 2206 2207 2208
v -669.1325 273.3984 287.3182
v -662.0440 268.9836 305.7394
v -662.0424 268.9824 287.3191
f 2209 2210 2211
v -661.2094 286.1210 287.3185
v -669.1342 273.3997 305.7385
v -669.1325 273.3984 287.3182
f 2212 2213 2214
v -647.8209 277.7822 287.3202
v -661.2111 286.1223 305.7389
v -661.2094 286.1210 287.3185
f 2215 2216 2217
v -668.0192 338.6136 272.7598
v -626.1705 312.5521 305.7412
v -626.1677 312.5497 272.7653
f 2218 2219 2220
v -687.8960 350.8868 272.7570
v -668.0223 338.6162 305.7356
v -668.0192 338.6136 272.7598
f 2221 2222 2223
v -692.1193 344.0811 272.7569
v -687.8992 350.8894 305.7328
v -687.8960 350.8868 272.7570
f 2224 2225 2226
v -697.9775 347.6978 272.7561
v -692.1224 344.0838 305.7327
v -692.1193 344.0811 272.7569
f 2227 2228 2229
v -726.4306 365.0349 272.7520
v -697.9806 347.7004 305.7319
v -697.9775 347.6978 272.7561
f 2230 2231 2232
v -743.6199 337.2404 272.7515
v -726.4339 365.0376 305.7279
v -726.4306 365.0349 272.7520
f 2233 2234 2235
v -743.5466 337.1943 287.6240
v -730.1433 328.7239 305.7293
v -743.6233 337.2429 305.7273
f 2236 2237 2238
v -737.9849 316.0046 272.7532
v -730.1400 328.7214 273.7905
v -730.1399 328.7214 272.7535
f 2239 2240 2241
v -744.9407 320.1581 272.7522
v -737.9850 316.0046 273.7901
v -737.9849 316.0046 272.7532
f 2242 2243 2244
v -707.4973 304.8309 272.7572
v -719.7339 312.4708 275.2354
v -719.7336 312.4706 272.7555
f 2245 2246 2247
v -714.1345 294.2071 290.8993
v -707.5006 304.8333 305.7330
v -707.4991 304.8323 290.8995
f 2248 2249 2250
v -727.3543 300.2642 272.7552
v -714.1329 294.2060 275.2369
v -714.1327 294.2058 272.7569
f 2251 2252 2253
v -719.7355 312.4719 290.8978
v -727.3576 300.2666 305.7310
v -727.3561 300.2655 290.8975
f 2254 2255 2256
v -687.6986 275.7532 272.7606
v -679.9375 288.1843 275.2408
v -679.9373 288.1842 272.7609
f 2257 2258 2259
v -699.0421 285.1985 272.7590
v -687.6988 275.7533 275.2405
v -687.6986 275.7532 272.7606
f 2260 2261 2262
v -692.3414 295.9284 272.7592
v -699.0423 285.1987 275.2389
v -699.0421 285.1985 272.7590
f 2263 2264 2265
v -679.9390 288.1855 290.9033
v -692.3445 295.9307 305.7351
v -692.3431 295.9296 290.9016
f 2266 2267 2268
v -683.2760 311.0932 305.7354
v -688.4974 314.3544 307.6756
v -688.4971 314.3543 305.7347
f 2269 2270 2271
v -680.1797 316.0529 305.7355
v -683.2762 311.0934 307.6763
v -683.2760 311.0932 305.7354
f 2272 2273 2274
v -685.4009 319.3129 305.7347
v -680.1799 316.0531 307.6764
v -680.1797 316.0529 305.7355
f 2275 2276 2277
v -688.4971 314.3543 305.7347
v -685.4010 319.3130 307.6756
v -685.4009 319.3129 305.7347
f 2278 2279 2280
v -697.8184 318.3452 305.7334
v -701.2767 320.5046 306.6780
v -701.2766 320.5045 305.7330
f 2281 2282 2283
v -693.3452 325.5092 305.7336
v -697.8185 318.3452 306.6784
v -697.8184 318.3452 305.7334
f 2284 2285 2286
v -696.8034 327.6684 305.7331
v -693.3453 325.5092 306.6786
v -693.3452 325.5092 305.7336
f 2287 2288 2289
v -701.2766 320.5045 305.7330
v -696.8035 327.6685 306.6781
v -696.8034 327.6684 305.7331
f 2290 2291 2292
v -736.5009 285.6032 276.8297
v -736.6040 285.4422 302.1417
v -736.6014 285.4405 276.8297
f 2293 2294 2295
v -731.2359 288.4398 302.1422
v -733.8207 290.9070 305.7307
v -733.8203 290.9067 302.1418
f 2296 2297 2298
v -725.3206 283.3590 302.1431
v -731.2364 288.4401 305.7311
v -731.2359 288.4398 302.1422
f 2299 2300 2301
v -721.5834 280.4830 302.1437
v -725.3210 283.3592 305.7320
v -725.3206 283.3590 302.1431
f 2302 2303 2304
v -718.2292 278.3220 302.1442
v -721.5837 280.4833 305.7326
v -721.5834 280.4830 302.1437
f 2305 2306 2307
v -712.5010 274.6987 302.1450
v -718.2296 278.3223 305.7331
v -718.2292 278.3220 302.1442
f 2308 2309 2310
v -707.2041 271.6715 302.1457
v -712.5013 274.6989 305.7339
v -712.5010 274.6987 302.1450
f 2311 2312 2313
v -702.7438 269.5795 302.1463
v -707.2045 271.6717 305.7346
v -707.2041 271.6715 302.1457
f 2314 2315 2316
v -693.7567 265.9285 302.1474
v -702.7441 269.5798 305.7351
v -702.7438 269.5795 302.1463
f 2317 2318 2319
v -696.7797 261.0736 302.1473
v -693.7570 265.9288 305.7362
v -693.7567 265.9285 302.1474
f 2320 2321 2322
v -736.6014 285.4405 276.8297
v -737.0512 285.7195 302.1417
v -737.0486 285.7177 276.8296
f 2323 2324 2325
v -707.4991 304.8323 290.8995
v -719.7370 312.4731 305.7313
v -719.7355 312.4719 290.8978
f 2326 2327 2328
v -714.1327 294.2058 272.7569
v -707.4976 304.8311 275.2371
v -707.4973 304.8309 272.7572
f 2329 2330 2331
v -727.3561 300.2655 290.8975
v -714.1360 294.2082 305.7328
v -714.1345 294.2071 290.8993
f 2332 2333 2334
v -719.7336 312.4706 272.7555
v -727.3546 300.2644 275.2351
v -727.3543 300.2642 272.7552
f 2335 2336 2337
v -687.7003 275.7544 290.9030
v -679.9404 288.1865 305.7368
v -679.9390 288.1855 290.9033
f 2338 2339 2340
v -699.0439 285.1997 290.9014
v -687.7017 275.7554 305.7364
v -687.7003 275.7544 290.9030
f 2341 2342 2343
v -692.3431 295.9296 290.9016
v -699.0452 285.2007 305.7349
v -699.0439 285.1997 290.9014
f 2344 2345 2346
v -679.9373 288.1842 272.7609
v -692.3416 295.9286 275.2392
v -692.3414 295.9284 272.7592
f 2347 2348 2349
v -743.9307 336.2474 273.7885
v -744.0819 336.3377 287.6240
v -744.0804 336.3367 273.7885
f 2350 2351 2352
v -751.9865 323.2271 273.7883
v -743.9321 336.2484 287.6240
v -743.9307 336.2474 273.7885
f 2353 2354 2355
v -745.8457 319.4636 273.7891
v -751.9879 323.2281 287.6238
v -751.9865 323.2271 273.7883
f 2356 2357 2358
v -745.9119 319.3569 273.7891
v -745.8471 319.4646 287.6247
v -745.8457 319.4636 273.7891
f 2359 2360 2361
v -745.5616 319.1379 273.7891
v -745.9134 319.3579 287.6247
v -745.9119 319.3569 273.7891
f 2362 2363 2364
v -737.9865 316.0056 287.6257
v -730.1433 328.7239 305.7293
v -730.1415 328.7225 287.6260
f 2365 2366 2367
v -744.9422 320.1592 287.6247
v -737.9883 316.0070 305.7290
v -737.9865 316.0056 287.6257
f 2368 2369 2370
v -744.0804 336.3367 273.7885
v -743.5466 337.1943 287.6240
v -743.5451 337.1933 273.7885
f 2371 2372 2373
v -673.1989 305.2113 305.7367
v -680.4927 309.7650 307.8766
v -680.4926 309.7648 305.7357
f 2374 2375 2376
v -669.7129 310.7959 305.7368
v -673.1990 305.2115 307.8776
v -673.1989 305.2113 305.7367
f 2377 2378 2379
v -677.0056 315.3494 305.7358
v -669.7130 310.7960 307.8777
v -669.7129 310.7959 305.7368
f 2380 2381 2382
v -680.4926 309.7648 305.7357
v -677.0058 315.3496 307.8767
v -677.0056 315.3494 305.7358
f 2383 2384 2385
v -701.9167 323.0472 305.7328
v -707.6074 326.6005 307.9728
v -707.6072 326.6004 305.7319
f 2386 2387 2388
v -698.5202 328.4871 305.7329
v -701.9170 323.0473 307.9737
v -701.9167 323.0472 305.7328
f 2389 2390 2391
v -704.2117 332.0393 305.7320
v -698.5204 328.4872 307.9738
v -698.5202 328.4871 305.7329
f 2392 2393 2394
v -707.6072 326.6004 305.7319
v -704.2118 332.0394 307.9729
v -704.2117 332.0393 305.7320
f 2395 2396 2397
v -656.1146 264.4566 287.3199
v -662.4120 268.3884 287.3191
v -662.4106 268.3874 272.7636
f 2398 2399 2400
v -643.9270 283.9726 272.1218
v -656.1146 264.4566 287.3199
v -656.1132 264.4556 272.1214
f 2401 2402 2403
v -674.9432 271.0690 272.1192
v -660.4482 294.2869 272.7627
v -660.4481 294.2869 272.1197
f 2404 2405 2406
v -664.7175 264.6846 272.1205
v -674.9432 271.0690 272.7622
v -674.9432 271.0690 272.1192
f 2407 2408 2409
v -661.8231 305.1859 306.7718
v -664.4715 300.9450 307.8787
v -664.4714 300.9450 306.7717
f 2410 2411 2412
v -661.4977 306.0368 305.7379
v -648.0295 297.6259 306.7736
v -648.0294 297.6258 305.7397
f 2413 2414 2415
v -666.0592 298.7322 305.7378
v -664.6202 301.0374 306.7717
v -664.6201 301.0374 305.7378
f 2416 2417 2418
v -645.6272 296.2014 305.7400
v -650.2213 288.8441 309.5957
v -650.2209 288.8438 305.7399
f 2419 2420 2421
v -647.9955 297.6809 308.5666
v -645.6276 296.2017 309.5958
v -645.6272 296.2014 305.7400
f 2422 2423 2424
v -668.0333 303.1694 305.7374
v -665.3862 307.4104 307.8783
v -665.3860 307.4103 305.7374
f 2425 2426 2427
v -661.9717 305.2782 305.7379
v -661.4978 306.0370 306.7718
v -661.4977 306.0368 305.7379
f 2428 2429 2430
v -725.5933 345.5646 306.6739
v -730.1008 338.3459 309.1647
v -730.1016 338.3448 306.6738
f 2431 2432 2433
v -715.3932 332.5524 306.6758
v -712.9228 336.5108 308.0707
v -712.9226 336.5106 306.6758
f 2434 2435 2436
v -732.5983 339.9033 305.7284
v -728.0903 347.1234 308.7675
v -728.0899 347.1232 305.7286
f 2437 2438 2439
v -711.9043 330.3741 308.0712
v -715.3934 332.5524 308.0707
v -715.3932 332.5524 306.6758
f 2440 2441 2442
v -709.4314 334.3322 305.7313
v -711.9043 330.3741 308.0712
v -711.9040 330.3740 305.7313
f 2443 2444 2445
v -712.4084 337.3332 306.6759
v -712.9226 336.5106 306.6758
v -712.9225 336.5106 305.7308
f 2446 2447 2448
v -715.3932 332.5524 306.6758
v -716.9167 330.1124 306.6757
v -716.9167 330.1124 305.7307
f 2449 2450 2451
v -664.7126 264.6816 272.7635
v -664.7175 264.6846 272.1205
v -662.4106 268.3874 272.1206
f 2452 2453 2454
v -696.3418 260.8037 305.7361
v -696.7800 261.0739 305.7361
v -696.7797 261.0736 302.1473
f 2455 2456 2457
v -696.3386 260.8016 272.7603
v -696.7797 261.0736 302.1473
v -696.7772 261.0720 276.8352
f 2458 2459 2460
v -696.3386 260.8016 272.7603
v -696.7772 261.0720 276.8352
v -696.7768 261.0717 272.7603
f 2461 2462 2463
v -696.7772 261.0720 276.8352
v -736.5035 285.6050 302.1418
v -736.5009 285.6032 276.8297
f 2464 2465 2466
v -650.2213 288.8441 309.5957
v -652.5891 290.3233 308.5665
v -652.5890 290.3232 306.7735
f 2467 2468 2469
v -725.5933 345.5646 306.6739
v -712.4083 337.3332 305.7309
v -728.0899 347.1232 305.7286
f 2470 2471 2472
