# Grid Center: 2615400, 1265400
# Global Anchor: 7.64977475454284, 47.53283995868075, 0.0

g building_ID_3071D0AF-16DE-4439-A3E5-CD88DAD565CC
v -450.2370 613.6648 281.1092
v -458.7599 658.0563 282.1691
v -469.4705 618.9785 282.1703
f 1 2 3
v -458.7599 658.0563 282.1691
v -450.2370 613.6648 281.1092
v -439.5273 652.7427 281.1081
f 4 5 6
v -458.7593 658.0550 272.0155
v -469.4699 618.9773 272.0186
v -469.4705 618.9785 282.1703
f 7 8 9
v -458.7599 658.0563 282.1691
v -458.7593 658.0550 272.0155
v -469.4705 618.9785 282.1703
f 10 11 12
v -450.2370 613.6648 281.1092
v -469.4705 618.9785 282.1703
v -469.4699 618.9773 272.0186
f 13 14 15
v -450.2364 613.6637 272.0205
v -439.5268 652.7415 272.0174
v -450.2370 613.6648 281.1092
f 16 17 18
v -458.7593 658.0550 272.0155
v -450.2364 613.6637 272.0205
v -469.4699 618.9773 272.0186
f 19 20 21
v -450.2364 613.6637 272.0205
v -458.7593 658.0550 272.0155
v -439.5268 652.7415 272.0174
f 22 23 24
v -458.7593 658.0550 272.0155
v -439.5273 652.7427 281.1081
v -439.5268 652.7415 272.0174
f 25 26 27
v -458.7593 658.0550 272.0155
v -458.7599 658.0563 282.1691
v -439.5273 652.7427 281.1081
f 28 29 30
v -469.4699 618.9773 272.0186
v -450.2364 613.6637 272.0205
v -450.2370 613.6648 281.1092
f 31 32 33
v -439.5273 652.7427 281.1081
v -450.2370 613.6648 281.1092
v -439.5268 652.7415 272.0174
f 34 35 36

g building_ID_558BCFD4-76BF-4076-AF9E-4B00DCED6DAD
v -622.8321 639.2292 278.9304
v -623.6738 636.3133 277.8226
v -615.8299 634.0813 277.8246
f 37 38 39
v -615.8299 634.0813 277.8246
v -610.0813 632.4459 277.8253
v -609.2507 635.3608 278.9321
f 40 41 42
v -622.8321 639.2292 278.9304
v -615.8299 634.0813 277.8246
v -609.2507 635.3608 278.9321
f 43 44 45
v -610.0808 632.4451 270.9835
v -615.8299 634.0813 277.8246
v -617.1603 634.4590 270.9826
f 46 47 48
v -615.8299 634.0813 277.8246
v -623.6732 636.3125 270.9818
v -617.1603 634.4590 270.9826
f 49 50 51
v -623.6738 636.3133 277.8226
v -623.6732 636.3125 270.9818
v -615.8299 634.0813 277.8246
f 52 53 54
v -609.2500 635.3598 270.9833
v -610.0808 632.4451 270.9835
v -617.1603 634.4590 270.9826
f 55 56 57
v -615.0414 640.3713 270.9822
v -614.4308 642.4836 270.9821
v -607.7691 640.5578 270.9829
f 58 59 60
v -607.7691 640.5578 270.9829
v -609.2500 635.3598 270.9833
v -615.0414 640.3713 270.9822
f 61 62 63
v -615.0414 640.3713 270.9822
v -609.2500 635.3598 270.9833
v -617.1603 634.4590 270.9826
f 64 65 66
v -623.6732 636.3125 270.9818
v -622.8314 639.2281 270.9816
v -617.1603 634.4590 270.9826
f 67 68 69
v -622.8314 639.2281 270.9816
v -615.0414 640.3713 270.9822
v -617.1603 634.4590 270.9826
f 70 71 72
v -615.0414 640.3713 270.9822
v -622.8314 639.2281 270.9816
v -621.9260 642.3607 270.9814
f 73 74 75
v -622.8314 639.2281 270.9816
v -623.6732 636.3125 270.9818
v -623.6738 636.3133 277.8226
f 76 77 78
v -622.8314 639.2281 270.9816
v -623.6738 636.3133 277.8226
v -622.8321 639.2292 278.9304
f 79 80 81
v -622.8314 639.2281 270.9816
v -622.8321 639.2292 278.9304
v -621.9260 642.3607 270.9814
f 82 83 84
v -621.9266 642.3615 278.0041
v -621.9260 642.3607 270.9814
v -622.8321 639.2292 278.9304
f 85 86 87
v -609.2500 635.3598 270.9833
v -607.7696 640.5586 277.3937
v -609.2507 635.3608 278.9321
f 88 89 90
v -607.7696 640.5586 277.3937
v -609.2500 635.3598 270.9833
v -607.7691 640.5578 270.9829
f 91 92 93
v -609.2500 635.3598 270.9833
v -609.2507 635.3608 278.9321
v -610.0813 632.4459 277.8253
f 94 95 96
v -609.2500 635.3598 270.9833
v -610.0813 632.4459 277.8253
v -610.0808 632.4451 270.9835
f 97 98 99
v -611.1929 641.5477 277.3903
v -614.4308 642.4836 270.9821
v -614.4313 642.4844 277.3869
f 100 101 102
v -607.7691 640.5578 270.9829
v -611.1929 641.5477 277.3903
v -607.7696 640.5586 277.3937
f 103 104 105
v -614.4308 642.4836 270.9821
v -611.1929 641.5477 277.3903
v -607.7691 640.5578 270.9829
f 106 107 108
v -618.2186 641.2896 278.0086
v -621.9260 642.3607 270.9814
v -621.9266 642.3615 278.0041
f 109 110 111
v -615.0414 640.3713 270.9822
v -621.9260 642.3607 270.9814
v -618.2186 641.2896 278.0086
f 112 113 114
v -618.2186 641.2896 278.0086
v -615.0420 640.3721 278.0120
v -615.0414 640.3713 270.9822
f 115 116 117
v -615.0414 640.3713 270.9822
v -615.0420 640.3721 278.0120
v -614.7069 641.5322 277.6689
f 118 119 120
v -614.4308 642.4836 270.9821
v -615.0414 640.3713 270.9822
v -614.4313 642.4844 277.3869
f 121 122 123
v -614.7069 641.5322 277.6689
v -614.4313 642.4844 277.3869
v -615.0414 640.3713 270.9822
f 124 125 126
v -609.2507 635.3608 278.9321
v -615.0420 640.3721 278.0120
v -622.8321 639.2292 278.9304
f 127 128 129
v -622.8321 639.2292 278.9304
v -618.2186 641.2896 278.0086
v -621.9266 642.3615 278.0041
f 130 131 132
v -622.8321 639.2292 278.9304
v -615.0420 640.3721 278.0120
v -618.2186 641.2896 278.0086
f 133 134 135
v -609.2507 635.3608 278.9321
v -607.7696 640.5586 277.3937
v -615.0420 640.3721 278.0120
f 136 137 138
v -607.7696 640.5586 277.3937
v -614.7069 641.5322 277.6689
v -615.0420 640.3721 278.0120
f 139 140 141
v -614.7069 641.5322 277.6689
v -611.1929 641.5477 277.3903
v -614.4313 642.4844 277.3869
f 142 143 144
v -614.7069 641.5322 277.6689
v -607.7696 640.5586 277.3937
v -611.1929 641.5477 277.3903
f 145 146 147
v -610.0813 632.4459 277.8253
v -615.8299 634.0813 277.8246
v -610.0808 632.4451 270.9835
f 148 149 150
