# Grid Center: 2615200, 1265600
# Global Anchor: 7.64977475454284, 47.53283995868075, 0.0

g building_ID_4A2AF262-2865-4A5A-977F-718FB3476AD8
v -862.3167 708.7036 278.6363
v -865.1808 719.0220 277.7909
v -867.4392 709.9693 278.6365
f 1 2 3
v -857.8677 707.6056 278.6360
v -859.7475 717.6805 277.7907
v -862.3167 708.7036 278.6363
f 4 5 6
v -862.3167 708.7036 278.6363
v -859.7475 717.6805 277.7907
v -865.1808 719.0220 277.7909
f 7 8 9
v -857.8677 707.6056 278.6360
v -854.3032 716.3349 277.7906
v -859.7475 717.6805 277.7907
f 10 11 12
v -854.3032 716.3349 277.7906
v -857.8677 707.6056 278.6360
v -846.9451 704.9074 278.6358
f 13 14 15
v -854.3032 716.3349 277.7906
v -846.9451 704.9074 278.6358
v -844.7077 713.9651 277.7901
f 16 17 18
v -859.7475 717.6805 277.7907
v -865.1800 719.0211 271.1711
v -865.1808 719.0220 277.7909
f 19 20 21
v -852.0649 715.7820 271.1732
v -857.5022 717.1246 271.1723
v -859.7475 717.6805 277.7907
f 22 23 24
v -859.7475 717.6805 277.7907
v -857.5022 717.1246 271.1723
v -865.1800 719.0211 271.1711
f 25 26 27
v -859.7475 717.6805 277.7907
v -854.3032 716.3349 277.7906
v -852.0649 715.7820 271.1732
f 28 29 30
v -852.0649 715.7820 271.1732
v -854.3032 716.3349 277.7906
v -844.7069 713.9643 271.1744
f 31 32 33
v -867.4383 709.9683 271.1718
v -867.4392 709.9693 278.6365
v -865.1808 719.0220 277.7909
f 34 35 36
v -846.9441 704.9064 271.1751
v -846.9451 704.9074 278.6358
v -857.8677 707.6056 278.6360
f 37 38 39
v -846.9441 704.9064 271.1751
v -857.8677 707.6056 278.6360
v -855.4834 707.0153 271.1737
f 40 41 42
v -857.8677 707.6056 278.6360
v -862.3167 708.7036 278.6363
v -867.4383 709.9683 271.1718
f 43 44 45
v -855.4834 707.0153 271.1737
v -857.8677 707.6056 278.6360
v -867.4383 709.9683 271.1718
f 46 47 48
v -844.7069 713.9643 271.1744
v -844.7077 713.9651 277.7901
v -846.9441 704.9064 271.1751
f 49 50 51
v -846.9441 704.9064 271.1751
v -855.4834 707.0153 271.1737
v -844.7069 713.9643 271.1744
f 52 53 54
v -852.0649 715.7820 271.1732
v -844.7069 713.9643 271.1744
v -855.4834 707.0153 271.1737
f 55 56 57
v -867.4383 709.9683 271.1718
v -865.1800 719.0211 271.1711
v -855.4834 707.0153 271.1737
f 58 59 60
v -852.0649 715.7820 271.1732
v -855.4834 707.0153 271.1737
v -857.5022 717.1246 271.1723
f 61 62 63
v -865.1800 719.0211 271.1711
v -857.5022 717.1246 271.1723
v -855.4834 707.0153 271.1737
f 64 65 66
v -854.3032 716.3349 277.7906
v -844.7077 713.9651 277.7901
v -844.7069 713.9643 271.1744
f 67 68 69
v -867.4383 709.9683 271.1718
v -865.1808 719.0220 277.7909
v -865.1800 719.0211 271.1711
f 70 71 72
v -862.3167 708.7036 278.6363
v -867.4392 709.9693 278.6365
v -867.4383 709.9683 271.1718
f 73 74 75
v -844.7077 713.9651 277.7901
v -846.9451 704.9074 278.6358
v -846.9441 704.9064 271.1751
f 76 77 78
