# Grid Center: 2615200, 1265400
# Global Anchor: 7.64977475454284, 47.53283995868075, 0.0

g building_ID_3CD94102-4CBE-406F-B2DA-B438640C973B
v -746.1742 643.3866 276.6478
v -744.4811 638.9583 277.2775
v -742.8084 645.2017 277.3691
f 1 2 3
v -742.8084 645.2017 277.3691
v -745.6025 645.8401 276.6637
v -746.1742 643.3866 276.6478
f 4 5 6
v -744.0920 638.9932 277.3695
v -742.8084 645.2017 277.3691
v -744.1450 639.0054 277.3565
f 7 8 9
v -744.4811 638.9583 277.2775
v -744.1450 639.0054 277.3565
v -742.8084 645.2017 277.3691
f 10 11 12
v -744.1703 638.8934 277.3555
v -744.1450 639.0054 277.3565
v -744.4811 638.9583 277.2775
f 13 14 15
v -747.1493 639.2004 276.6212
v -744.4811 638.9583 277.2775
v -746.1742 643.3866 276.6478
f 16 17 18
v -745.2025 635.4722 277.2778
v -747.1493 639.2004 276.6212
v -747.8889 636.0233 276.6014
f 19 20 21
v -744.4811 638.9583 277.2775
v -747.1493 639.2004 276.6212
v -745.2025 635.4722 277.2778
f 22 23 24
v -741.5761 644.9203 277.0992
v -740.5652 638.1487 276.5960
v -739.2705 644.4141 276.5955
f 25 26 27
v -744.0920 638.9932 277.3695
v -740.5652 638.1487 276.5960
v -741.5761 644.9203 277.0992
f 28 29 30
v -744.0920 638.9932 277.3695
v -741.5761 644.9203 277.0992
v -742.8084 645.2017 277.3691
f 31 32 33
v -745.6020 645.8394 271.1639
v -747.1742 639.0909 273.0123
v -747.1493 639.2004 276.6212
f 34 35 36
v -747.8883 636.0227 271.1646
v -747.8889 636.0233 276.6014
v -747.1493 639.2004 276.6212
f 37 38 39
v -747.1493 639.2004 276.6212
v -747.1742 639.0909 273.0123
v -747.8883 636.0227 271.1646
f 40 41 42
v -747.8883 636.0227 271.1646
v -747.1742 639.0909 273.0123
v -746.5549 641.7490 271.1642
f 43 44 45
v -745.6020 645.8394 271.1639
v -746.1742 643.3866 276.6478
v -745.6024 645.8398 274.6008
f 46 47 48
v -745.6020 645.8394 271.1639
v -746.5549 641.7490 271.1642
v -747.1742 639.0909 273.0123
f 49 50 51
v -745.2018 635.4715 271.1650
v -745.2025 635.4722 277.2778
v -747.8883 636.0227 271.1646
f 52 53 54
v -747.8889 636.0233 276.6014
v -747.8883 636.0227 271.1646
v -745.2025 635.4722 277.2778
f 55 56 57
v -744.4805 638.9574 271.1647
v -744.4811 638.9583 277.2775
v -745.2025 635.4722 277.2778
f 58 59 60
v -744.1696 638.8927 271.1647
v -744.1703 638.8934 277.3555
v -744.4805 638.9574 271.1647
f 61 62 63
v -744.4811 638.9583 277.2775
v -744.4805 638.9574 271.1647
v -744.1703 638.8934 277.3555
f 64 65 66
v -744.1448 639.0051 275.8085
v -744.1450 639.0054 277.3565
v -744.1703 638.8934 277.3555
f 67 68 69
v -744.1703 638.8934 277.3555
v -744.1445 639.0048 272.7126
v -744.1448 639.0051 275.8085
f 70 71 72
v -744.1696 638.8927 271.1647
v -744.1444 639.0045 271.1647
v -744.1703 638.8934 277.3555
f 73 74 75
v -740.5652 638.1487 276.5960
v -739.2699 644.4134 271.1647
v -739.2705 644.4141 276.5955
f 76 77 78
v -740.5652 638.1487 276.5960
v -740.5647 638.1479 271.1652
v -739.2699 644.4134 271.1647
f 79 80 81
v -741.5755 644.9196 271.1644
v -741.5758 644.9199 273.7613
v -739.2699 644.4134 271.1647
f 82 83 84
v -741.5761 644.9203 277.0992
v -739.2699 644.4134 271.1647
v -741.5758 644.9199 273.7613
f 85 86 87
v -747.8883 636.0227 271.1646
v -746.5549 641.7490 271.1642
v -744.4805 638.9574 271.1647
f 88 89 90
v -742.8078 645.2009 271.1643
v -744.1444 639.0045 271.1647
v -744.4805 638.9574 271.1647
f 91 92 93
v -744.4805 638.9574 271.1647
v -745.2018 635.4715 271.1650
v -747.8883 636.0227 271.1646
f 94 95 96
v -739.2699 644.4134 271.1647
v -740.5647 638.1479 271.1652
v -744.1444 639.0045 271.1647
f 97 98 99
v -744.1696 638.8927 271.1647
v -744.4805 638.9574 271.1647
v -744.1444 639.0045 271.1647
f 100 101 102
v -744.4805 638.9574 271.1647
v -746.5549 641.7490 271.1642
v -742.8078 645.2009 271.1643
f 103 104 105
v -742.8078 645.2009 271.1643
v -746.5549 641.7490 271.1642
v -745.6020 645.8394 271.1639
f 106 107 108
v -744.1444 639.0045 271.1647
v -742.8078 645.2009 271.1643
v -741.5755 644.9196 271.1644
f 109 110 111
v -741.5755 644.9196 271.1644
v -739.2699 644.4134 271.1647
v -744.1444 639.0045 271.1647
f 112 113 114
v -741.5758 644.9199 273.7613
v -742.8078 645.2009 271.1643
v -745.6024 645.8398 274.6008
f 115 116 117
v -745.6024 645.8398 274.6008
v -742.8078 645.2009 271.1643
v -745.6020 645.8394 271.1639
f 118 119 120
v -742.8084 645.2017 277.3691
v -745.6024 645.8398 274.6008
v -745.6025 645.8401 276.6637
f 121 122 123
v -741.5758 644.9199 273.7613
v -742.8084 645.2017 277.3691
v -741.5761 644.9203 277.0992
f 124 125 126
v -741.5758 644.9199 273.7613
v -741.5755 644.9196 271.1644
v -742.8078 645.2009 271.1643
f 127 128 129
v -745.6024 645.8398 274.6008
v -742.8084 645.2017 277.3691
v -741.5758 644.9199 273.7613
f 130 131 132
v -744.1448 639.0051 275.8085
v -740.5652 638.1487 276.5960
v -744.0920 638.9932 277.3695
f 133 134 135
v -740.5652 638.1487 276.5960
v -744.1445 639.0048 272.7126
v -740.5647 638.1479 271.1652
f 136 137 138
v -744.1450 639.0054 277.3565
v -744.1448 639.0051 275.8085
v -744.0920 638.9932 277.3695
f 139 140 141
v -744.1448 639.0051 275.8085
v -744.1445 639.0048 272.7126
v -740.5652 638.1487 276.5960
f 142 143 144
v -744.1445 639.0048 272.7126
v -744.1444 639.0045 271.1647
v -740.5647 638.1479 271.1652
f 145 146 147
v -745.6020 645.8394 271.1639
v -747.1493 639.2004 276.6212
v -746.1742 643.3866 276.6478
f 148 149 150
v -746.1742 643.3866 276.6478
v -745.6025 645.8401 276.6637
v -745.6024 645.8398 274.6008
f 151 152 153
v -744.4805 638.9574 271.1647
v -745.2025 635.4722 277.2778
v -745.2018 635.4715 271.1650
f 154 155 156
v -744.1445 639.0048 272.7126
v -744.1703 638.8934 277.3555
v -744.1444 639.0045 271.1647
f 157 158 159
v -741.5761 644.9203 277.0992
v -739.2705 644.4141 276.5955
v -739.2699 644.4134 271.1647
f 160 161 162

g building_ID_558BCFD4-76BF-4076-AF9E-4B00DCED6DAD
v -622.8321 639.2292 278.9304
v -623.6738 636.3133 277.8226
v -615.8299 634.0813 277.8246
f 163 164 165
v -615.8299 634.0813 277.8246
v -610.0813 632.4459 277.8253
v -609.2507 635.3608 278.9321
f 166 167 168
v -622.8321 639.2292 278.9304
v -615.8299 634.0813 277.8246
v -609.2507 635.3608 278.9321
f 169 170 171
v -610.0808 632.4451 270.9835
v -615.8299 634.0813 277.8246
v -617.1603 634.4590 270.9826
f 172 173 174
v -615.8299 634.0813 277.8246
v -623.6732 636.3125 270.9818
v -617.1603 634.4590 270.9826
f 175 176 177
v -623.6738 636.3133 277.8226
v -623.6732 636.3125 270.9818
v -615.8299 634.0813 277.8246
f 178 179 180
v -609.2500 635.3598 270.9833
v -610.0808 632.4451 270.9835
v -617.1603 634.4590 270.9826
f 181 182 183
v -615.0414 640.3713 270.9822
v -614.4308 642.4836 270.9821
v -607.7691 640.5578 270.9829
f 184 185 186
v -607.7691 640.5578 270.9829
v -609.2500 635.3598 270.9833
v -615.0414 640.3713 270.9822
f 187 188 189
v -615.0414 640.3713 270.9822
v -609.2500 635.3598 270.9833
v -617.1603 634.4590 270.9826
f 190 191 192
v -623.6732 636.3125 270.9818
v -622.8314 639.2281 270.9816
v -617.1603 634.4590 270.9826
f 193 194 195
v -622.8314 639.2281 270.9816
v -615.0414 640.3713 270.9822
v -617.1603 634.4590 270.9826
f 196 197 198
v -615.0414 640.3713 270.9822
v -622.8314 639.2281 270.9816
v -621.9260 642.3607 270.9814
f 199 200 201
v -622.8314 639.2281 270.9816
v -623.6732 636.3125 270.9818
v -623.6738 636.3133 277.8226
f 202 203 204
v -622.8314 639.2281 270.9816
v -623.6738 636.3133 277.8226
v -622.8321 639.2292 278.9304
f 205 206 207
v -622.8314 639.2281 270.9816
v -622.8321 639.2292 278.9304
v -621.9260 642.3607 270.9814
f 208 209 210
v -621.9266 642.3615 278.0041
v -621.9260 642.3607 270.9814
v -622.8321 639.2292 278.9304
f 211 212 213
v -609.2500 635.3598 270.9833
v -607.7696 640.5586 277.3937
v -609.2507 635.3608 278.9321
f 214 215 216
v -607.7696 640.5586 277.3937
v -609.2500 635.3598 270.9833
v -607.7691 640.5578 270.9829
f 217 218 219
v -609.2500 635.3598 270.9833
v -609.2507 635.3608 278.9321
v -610.0813 632.4459 277.8253
f 220 221 222
v -609.2500 635.3598 270.9833
v -610.0813 632.4459 277.8253
v -610.0808 632.4451 270.9835
f 223 224 225
v -611.1929 641.5477 277.3903
v -614.4308 642.4836 270.9821
v -614.4313 642.4844 277.3869
f 226 227 228
v -607.7691 640.5578 270.9829
v -611.1929 641.5477 277.3903
v -607.7696 640.5586 277.3937
f 229 230 231
v -614.4308 642.4836 270.9821
v -611.1929 641.5477 277.3903
v -607.7691 640.5578 270.9829
f 232 233 234
v -618.2186 641.2896 278.0086
v -621.9260 642.3607 270.9814
v -621.9266 642.3615 278.0041
f 235 236 237
v -615.0414 640.3713 270.9822
v -621.9260 642.3607 270.9814
v -618.2186 641.2896 278.0086
f 238 239 240
v -618.2186 641.2896 278.0086
v -615.0420 640.3721 278.0120
v -615.0414 640.3713 270.9822
f 241 242 243
v -615.0414 640.3713 270.9822
v -615.0420 640.3721 278.0120
v -614.7069 641.5322 277.6689
f 244 245 246
v -614.4308 642.4836 270.9821
v -615.0414 640.3713 270.9822
v -614.4313 642.4844 277.3869
f 247 248 249
v -614.7069 641.5322 277.6689
v -614.4313 642.4844 277.3869
v -615.0414 640.3713 270.9822
f 250 251 252
v -609.2507 635.3608 278.9321
v -615.0420 640.3721 278.0120
v -622.8321 639.2292 278.9304
f 253 254 255
v -622.8321 639.2292 278.9304
v -618.2186 641.2896 278.0086
v -621.9266 642.3615 278.0041
f 256 257 258
v -622.8321 639.2292 278.9304
v -615.0420 640.3721 278.0120
v -618.2186 641.2896 278.0086
f 259 260 261
v -609.2507 635.3608 278.9321
v -607.7696 640.5586 277.3937
v -615.0420 640.3721 278.0120
f 262 263 264
v -607.7696 640.5586 277.3937
v -614.7069 641.5322 277.6689
v -615.0420 640.3721 278.0120
f 265 266 267
v -614.7069 641.5322 277.6689
v -611.1929 641.5477 277.3903
v -614.4313 642.4844 277.3869
f 268 269 270
v -614.7069 641.5322 277.6689
v -607.7696 640.5586 277.3937
v -611.1929 641.5477 277.3903
f 271 272 273
v -610.0813 632.4459 277.8253
v -615.8299 634.0813 277.8246
v -610.0808 632.4451 270.9835
f 274 275 276

g building_ID_4A2AF262-2865-4A5A-977F-718FB3476AD8
v -862.3167 708.7036 278.6363
v -865.1808 719.0220 277.7909
v -867.4392 709.9693 278.6365
f 277 278 279
v -857.8677 707.6056 278.6360
v -859.7475 717.6805 277.7907
v -862.3167 708.7036 278.6363
f 280 281 282
v -862.3167 708.7036 278.6363
v -859.7475 717.6805 277.7907
v -865.1808 719.0220 277.7909
f 283 284 285
v -857.8677 707.6056 278.6360
v -854.3032 716.3349 277.7906
v -859.7475 717.6805 277.7907
f 286 287 288
v -854.3032 716.3349 277.7906
v -857.8677 707.6056 278.6360
v -846.9451 704.9074 278.6358
f 289 290 291
v -854.3032 716.3349 277.7906
v -846.9451 704.9074 278.6358
v -844.7077 713.9651 277.7901
f 292 293 294
v -859.7475 717.6805 277.7907
v -865.1800 719.0211 271.1711
v -865.1808 719.0220 277.7909
f 295 296 297
v -852.0649 715.7820 271.1732
v -857.5022 717.1246 271.1723
v -859.7475 717.6805 277.7907
f 298 299 300
v -859.7475 717.6805 277.7907
v -857.5022 717.1246 271.1723
v -865.1800 719.0211 271.1711
f 301 302 303
v -859.7475 717.6805 277.7907
v -854.3032 716.3349 277.7906
v -852.0649 715.7820 271.1732
f 304 305 306
v -852.0649 715.7820 271.1732
v -854.3032 716.3349 277.7906
v -844.7069 713.9643 271.1744
f 307 308 309
v -867.4383 709.9683 271.1718
v -867.4392 709.9693 278.6365
v -865.1808 719.0220 277.7909
f 310 311 312
v -846.9441 704.9064 271.1751
v -846.9451 704.9074 278.6358
v -857.8677 707.6056 278.6360
f 313 314 315
v -846.9441 704.9064 271.1751
v -857.8677 707.6056 278.6360
v -855.4834 707.0153 271.1737
f 316 317 318
v -857.8677 707.6056 278.6360
v -862.3167 708.7036 278.6363
v -867.4383 709.9683 271.1718
f 319 320 321
v -855.4834 707.0153 271.1737
v -857.8677 707.6056 278.6360
v -867.4383 709.9683 271.1718
f 322 323 324
v -844.7069 713.9643 271.1744
v -844.7077 713.9651 277.7901
v -846.9441 704.9064 271.1751
f 325 326 327
v -846.9441 704.9064 271.1751
v -855.4834 707.0153 271.1737
v -844.7069 713.9643 271.1744
f 328 329 330
v -852.0649 715.7820 271.1732
v -844.7069 713.9643 271.1744
v -855.4834 707.0153 271.1737
f 331 332 333
v -867.4383 709.9683 271.1718
v -865.1800 719.0211 271.1711
v -855.4834 707.0153 271.1737
f 334 335 336
v -852.0649 715.7820 271.1732
v -855.4834 707.0153 271.1737
v -857.5022 717.1246 271.1723
f 337 338 339
v -865.1800 719.0211 271.1711
v -857.5022 717.1246 271.1723
v -855.4834 707.0153 271.1737
f 340 341 342
v -854.3032 716.3349 277.7906
v -844.7077 713.9651 277.7901
v -844.7069 713.9643 271.1744
f 343 344 345
v -867.4383 709.9683 271.1718
v -865.1808 719.0220 277.7909
v -865.1800 719.0211 271.1711
f 346 347 348
v -862.3167 708.7036 278.6363
v -867.4392 709.9693 278.6365
v -867.4383 709.9683 271.1718
f 349 350 351
v -844.7077 713.9651 277.7901
v -846.9451 704.9074 278.6358
v -846.9441 704.9064 271.1751
f 352 353 354
