# Grid Center: 2615600, 1265600
# Global Anchor: 7.64977475454284, 47.53283995868075, 0.0

g building_ID_456E6CE5-AA9E-4449-9F39-8D306F1ED1E1
v -185.2097 831.9649 270.6531
v -187.4645 832.7999 270.6529
v -184.3550 835.5935 270.6526
f 1 2 3
v -187.4645 832.7999 270.6529
v -186.1741 836.2675 270.6525
v -184.3550 835.5935 270.6526
f 4 5 6
v -185.2099 831.9659 277.0099
v -184.3551 835.5946 277.0094
v -187.4646 832.8008 276.2468
f 7 8 9
v -187.4646 832.8008 276.2468
v -184.3551 835.5946 277.0094
v -186.1743 836.2683 276.3934
f 10 11 12
v -186.1741 836.2675 270.6525
v -186.1743 836.2683 276.3934
v -184.3550 835.5935 270.6526
f 13 14 15
v -187.4646 832.8008 276.2468
v -186.1743 836.2683 276.3934
v -186.1741 836.2675 270.6525
f 16 17 18
v -186.1741 836.2675 270.6525
v -187.4645 832.7999 270.6529
v -187.4646 832.8008 276.2468
f 19 20 21
v -185.2097 831.9649 270.6531
v -185.2099 831.9659 277.0099
v -187.4646 832.8008 276.2468
f 22 23 24
v -187.4645 832.7999 270.6529
v -185.2097 831.9649 270.6531
v -187.4646 832.8008 276.2468
f 25 26 27
v -184.3550 835.5935 270.6526
v -184.3551 835.5946 277.0094
v -185.2097 831.9649 270.6531
f 28 29 30
v -184.3550 835.5935 270.6526
v -186.1743 836.2683 276.3934
v -184.3551 835.5946 277.0094
f 31 32 33
v -184.3551 835.5946 277.0094
v -185.2099 831.9659 277.0099
v -185.2097 831.9649 270.6531
f 34 35 36
