# Grid Center: 2615000, 1265400
# Global Anchor: 7.64977475454284, 47.53283995868075, 0.0

g building_ID_08399EEB-318F-4354-97E9-38E0121E1EC1
v -1031.0094 465.5295 282.5464
v -1004.3669 502.4889 284.7908
v -1011.0776 505.8276 282.5465
f 1 2 3
v -1004.3669 502.4889 284.7908
v -1031.0094 465.5295 282.5464
v -1024.2958 462.1988 284.7906
f 4 5 6
v -1014.5899 465.0305 282.5491
v -997.7015 499.1718 282.5492
v -1017.2555 466.3367 283.4435
f 7 8 9
v -1004.3669 502.4889 284.7908
v -1017.2555 466.3367 283.4435
v -997.7015 499.1718 282.5492
f 10 11 12
v -1020.2630 460.1978 283.4354
v -1017.2555 466.3367 283.4435
v -1024.2958 462.1988 284.7906
f 13 14 15
v -1004.3669 502.4889 284.7908
v -1024.2958 462.1988 284.7906
v -1017.2555 466.3367 283.4435
f 16 17 18
v -1027.3666 506.4913 282.7679
v -1018.1124 509.3297 284.7880
v -1024.4126 512.4643 282.7679
f 19 20 21
v -1038.0513 469.0236 284.7879
v -1027.3666 506.4913 282.7679
v -1044.3536 472.1502 282.7678
f 22 23 24
v -1018.1124 509.3297 284.7880
v -1027.3666 506.4913 282.7679
v -1038.0513 469.0236 284.7879
f 25 26 27
v -1038.0513 469.0236 284.7879
v -1011.0776 505.8276 282.5465
v -1018.1124 509.3297 284.7880
f 28 29 30
v -1011.0776 505.8276 282.5465
v -1038.0513 469.0236 284.7879
v -1031.0094 465.5295 282.5464
f 31 32 33
v -1027.3654 506.4905 274.7412
v -1038.0498 469.0226 274.7423
v -1044.3523 472.1495 274.7411
f 34 35 36
v -1011.0764 505.8267 274.7438
v -1031.0082 465.5288 274.7437
v -1038.0498 469.0226 274.7423
f 37 38 39
v -1018.1109 509.3286 274.7424
v -1027.3654 506.4905 274.7412
v -1024.4114 512.4634 274.7412
f 40 41 42
v -1018.1109 509.3286 274.7424
v -1011.0764 505.8267 274.7438
v -1038.0498 469.0226 274.7423
f 43 44 45
v -1027.3654 506.4905 274.7412
v -1018.1109 509.3286 274.7424
v -1038.0498 469.0226 274.7423
f 46 47 48
v -1031.0083 465.5288 274.7007
v -1031.0082 465.5288 274.7437
v -1011.0764 505.8267 274.7438
f 49 50 51
v -1024.4131 512.4646 285.9078
v -1031.1095 515.7968 288.5973
v -1034.0725 509.8089 288.5973
f 52 53 54
v -1034.0725 509.8089 288.5973
v -1027.3671 506.4917 285.9078
v -1024.4131 512.4646 285.9078
f 55 56 57
v -1039.5206 515.5941 286.6341
v -1034.0725 509.8089 288.5973
v -1031.1095 515.7968 288.5973
f 58 59 60
v -1031.1095 515.7968 288.5973
v -1037.7712 519.1114 286.6361
v -1039.5206 515.5941 286.6341
f 61 62 63
v -1034.0725 509.8089 288.5973
v -1039.5206 515.5941 286.6341
v -1040.7553 513.1136 286.6321
f 64 65 66
v -1040.7544 513.1129 280.6863
v -1040.7553 513.1136 286.6321
v -1039.6606 515.3104 274.7105
f 67 68 69
v -1040.7535 513.1123 274.7105
v -1040.7544 513.1129 280.6863
v -1039.6606 515.3104 274.7105
f 70 71 72
v -1039.5206 515.5941 286.6341
v -1037.7712 519.1114 286.6361
v -1037.7706 519.1110 282.1643
f 73 74 75
v -1037.7706 519.1110 282.1643
v -1037.7694 519.1102 274.7105
v -1039.5206 515.5941 286.6341
f 76 77 78
v -1037.7694 519.1102 274.7105
v -1039.6606 515.3104 274.7105
v -1039.5206 515.5941 286.6341
f 79 80 81
v -1024.4114 512.4634 274.7132
v -1027.3654 506.4905 274.7132
v -1034.0704 509.8074 274.7118
f 82 83 84
v -1034.0704 509.8074 274.7118
v -1031.1074 515.7954 274.7118
v -1024.4114 512.4634 274.7132
f 85 86 87
v -1031.1074 515.7954 274.7118
v -1034.0704 509.8074 274.7118
v -1039.6606 515.3104 274.7105
f 88 89 90
v -1039.6606 515.3104 274.7105
v -1037.7694 519.1102 274.7105
v -1031.1074 515.7954 274.7118
f 91 92 93
v -1039.6606 515.3104 274.7105
v -1034.0704 509.8074 274.7118
v -1040.7535 513.1123 274.7105
f 94 95 96
v -1044.3523 472.1495 274.7411
v -1044.3536 472.1502 282.7678
v -1027.3666 506.4913 282.7679
f 97 98 99
v -1024.4114 512.4634 274.7132
v -1024.4114 512.4634 274.7412
v -1027.3654 506.4905 274.7412
f 100 101 102
v -1024.4126 512.4643 282.7679
v -1024.4131 512.4646 285.9078
v -1027.3671 506.4917 285.9078
f 103 104 105
v -997.9091 464.3048 282.5518
v -984.0280 492.3662 282.5518
v -990.8801 495.7767 285.0164
f 106 107 108
v -990.8801 495.7767 285.0164
v -1004.7813 467.6724 285.0163
v -997.9091 464.3048 282.5518
f 109 110 111
v -1004.7813 467.6724 285.0163
v -990.8801 495.7767 285.0164
v -1010.3037 470.3790 283.0254
f 112 113 114
v -997.7015 499.1718 282.5492
v -1010.3037 470.3790 283.0254
v -990.8801 495.7767 285.0164
f 115 116 117
v -1013.2478 464.3720 283.0333
v -1010.3037 470.3790 283.0254
v -1014.5899 465.0305 282.5491
f 118 119 120
v -997.7015 499.1718 282.5492
v -1014.5899 465.0305 282.5491
v -1010.3037 470.3790 283.0254
f 121 122 123
v -997.8420 464.2719 274.7221
v -984.0269 492.3654 274.7061
v -984.0269 492.3654 274.7281
f 124 125 126
v -1003.8498 452.0551 274.7059
v -997.8420 464.2719 274.7221
v -1003.8498 452.0551 274.7219
f 127 128 129
v -984.0269 492.3654 274.7061
v -997.8420 464.2719 274.7221
v -1003.8498 452.0551 274.7059
f 130 131 132
v -1013.2509 464.3739 303.9025
v -1017.2586 466.3387 303.9018
v -1020.2660 460.2009 303.9017
f 133 134 135
v -1003.9479 452.1041 303.9049
v -1013.2509 464.3739 303.9025
v -1020.2660 460.2009 303.9017
f 136 137 138
v -1010.3068 470.3811 303.9026
v -1013.2509 464.3739 303.9025
v -997.9122 464.3068 303.9050
f 139 140 141
v -1003.9479 452.1041 303.9049
v -997.9122 464.3068 303.9050
v -1013.2509 464.3739 303.9025
f 142 143 144
v -1004.7813 467.6724 285.0163
v -1010.3037 470.3790 283.0254
v -1010.3068 470.3811 303.9026
f 145 146 147
v -997.9091 464.3048 282.5518
v -1004.7813 467.6724 285.0163
v -997.9122 464.3068 303.9050
f 148 149 150
v -1010.3068 470.3811 303.9026
v -997.9122 464.3068 303.9050
v -1004.7813 467.6724 285.0163
f 151 152 153
v -1013.2478 464.3720 283.0333
v -1013.2509 464.3739 303.9025
v -1010.3068 470.3811 303.9026
f 154 155 156
v -1020.2630 460.1978 283.4354
v -1020.2660 460.2009 303.9017
v -1017.2555 466.3367 283.4435
f 157 158 159
v -1014.5899 465.0305 282.5491
v -1017.2555 466.3367 283.4435
v -1017.2586 466.3387 303.9018
f 160 161 162
v -1013.2478 464.3720 283.0333
v -1014.5899 465.0305 282.5491
v -1013.2509 464.3739 303.9025
f 163 164 165
v -1017.2586 466.3387 303.9018
v -1013.2509 464.3739 303.9025
v -1014.5899 465.0305 282.5491
f 166 167 168
v -977.0434 486.8219 306.9674
v -979.3972 482.0643 306.9674
v -974.8912 479.8343 306.9683
f 169 170 171
v -974.8912 479.8343 306.9683
v -972.5384 484.5929 306.9683
v -977.0434 486.8219 306.9674
f 172 173 174
v -974.8907 479.8339 304.0534
v -974.8912 479.8343 306.9683
v -979.3972 482.0643 306.9674
f 175 176 177
v -972.5339 484.5896 274.7025
v -972.5339 484.5896 274.7305
v -974.8866 479.8310 274.7305
f 178 179 180
v -977.0389 486.8187 274.7016
v -977.0389 486.8187 274.7296
v -972.5339 484.5896 274.7305
f 181 182 183
v -979.3967 482.0640 304.0525
v -979.3972 482.0643 306.9674
v -977.0434 486.8219 306.9674
f 184 185 186
v -979.3926 482.0611 274.7016
v -977.0389 486.8187 274.7016
v -972.5339 484.5896 274.7025
f 187 188 189
v -972.5339 484.5896 274.7025
v -974.8866 479.8310 274.7025
v -979.3926 482.0611 274.7016
f 190 191 192
v -984.6897 490.6291 304.0510
v -983.8662 492.2869 304.0510
v -984.0320 492.3694 304.0510
f 193 194 195
v -981.4006 476.8784 304.0526
v -979.3967 482.0640 304.0525
v -984.4391 490.5044 304.0511
f 196 197 198
v -984.6897 490.6291 304.0510
v -984.0320 492.3694 304.0510
v -1003.9479 452.1041 304.0509
f 199 200 201
v -977.0430 486.8217 304.0525
v -969.1902 487.4926 304.0536
v -982.6152 494.1765 304.0511
f 202 203 204
v -984.4391 490.5044 304.0511
v -977.0430 486.8217 304.0525
v -982.6152 494.1765 304.0511
f 205 206 207
v -969.1902 487.4926 304.0536
v -977.0430 486.8217 304.0525
v -972.5380 484.5927 304.0534
f 208 209 210
v -977.0430 486.8217 304.0525
v -984.4391 490.5044 304.0511
v -979.3967 482.0640 304.0525
f 211 212 213
v -974.8907 479.8339 304.0534
v -969.1902 487.4926 304.0536
v -972.5380 484.5927 304.0534
f 214 215 216
v -981.4006 476.8784 304.0526
v -984.4391 490.5044 304.0511
v -984.6897 490.6291 304.0510
f 217 218 219
v -981.4006 476.8784 304.0526
v -986.5563 467.2693 304.0525
v -986.2328 467.1095 304.0526
f 220 221 222
v -986.5563 467.2693 304.0525
v -1003.9479 452.1041 304.0509
v -995.9866 448.1549 304.0524
f 223 224 225
v -986.5563 467.2693 304.0525
v -981.4006 476.8784 304.0526
v -984.6897 490.6291 304.0510
f 226 227 228
v -975.7759 474.1763 304.0537
v -974.8907 479.8339 304.0534
v -981.0109 476.7764 304.0527
f 229 230 231
v -981.0109 476.7764 304.0527
v -974.8907 479.8339 304.0534
v -979.3967 482.0640 304.0525
f 232 233 234
v -981.4006 476.8784 304.0526
v -981.0471 476.7035 304.0527
v -981.0109 476.7764 304.0527
f 235 236 237
v -981.0109 476.7764 304.0527
v -979.3967 482.0640 304.0525
v -981.4006 476.8784 304.0526
f 238 239 240
v -969.1902 487.4926 304.0536
v -974.8907 479.8339 304.0534
v -975.7759 474.1763 304.0537
f 241 242 243
v -1003.9479 452.1041 304.0509
v -986.5563 467.2693 304.0525
v -984.6897 490.6291 304.0510
f 244 245 246
v -984.4349 490.5015 274.7282
v -984.4391 490.5044 304.0511
v -982.6152 494.1765 304.0511
f 247 248 249
v -984.6856 490.6262 274.7281
v -984.6897 490.6291 304.0510
v -984.4391 490.5044 304.0511
f 250 251 252
v -983.8621 492.2839 274.7281
v -983.8662 492.2869 304.0510
v -984.6897 490.6291 304.0510
f 253 254 255
v -986.5522 467.2665 274.7296
v -986.5563 467.2693 304.0525
v -995.9866 448.1549 304.0524
f 256 257 258
v -986.2286 467.1066 274.7297
v -986.2328 467.1095 304.0526
v -986.5563 467.2693 304.0525
f 259 260 261
v -981.3965 476.8756 274.7297
v -981.4006 476.8784 304.0526
v -986.2328 467.1095 304.0526
f 262 263 264
v -981.0429 476.7006 274.7298
v -981.0471 476.7035 304.0527
v -981.4006 476.8784 304.0526
f 265 266 267
v -981.0067 476.7735 274.7298
v -981.0109 476.7764 304.0527
v -981.0471 476.7035 304.0527
f 268 269 270
v -975.7718 474.1735 274.7308
v -975.7759 474.1763 304.0537
v -981.0109 476.7764 304.0527
f 271 272 273
v -969.1862 487.4896 274.7307
v -969.1902 487.4926 304.0536
v -975.7759 474.1763 304.0537
f 274 275 276
v -982.6110 494.1736 274.7282
v -982.6152 494.1765 304.0511
v -969.1902 487.4926 304.0536
f 277 278 279
v -974.8866 479.8310 274.7025
v -974.8866 479.8310 274.7305
v -979.3926 482.0611 274.7296
f 280 281 282
v -972.5380 484.5927 304.0534
v -972.5384 484.5929 306.9683
v -974.8912 479.8343 306.9683
f 283 284 285
v -977.0430 486.8217 304.0525
v -977.0434 486.8219 306.9674
v -972.5384 484.5929 306.9683
f 286 287 288
v -979.3926 482.0611 274.7016
v -979.3926 482.0611 274.7296
v -977.0389 486.8187 274.7296
f 289 290 291
v -1003.9479 452.1041 304.0509
v -997.9122 464.3068 303.9050
v -1003.9479 452.1041 303.9049
f 292 293 294
v -984.0280 492.3662 282.5518
v -997.9122 464.3068 303.9050
v -984.0320 492.3694 304.0510
f 295 296 297
v -1003.9479 452.1041 304.0509
v -984.0320 492.3694 304.0510
v -997.9122 464.3068 303.9050
f 298 299 300
v -997.9091 464.3048 282.5518
v -997.9122 464.3068 303.9050
v -984.0280 492.3662 282.5518
f 301 302 303
v -997.8420 464.2719 274.7221
v -995.9823 448.1520 274.7294
v -1003.5961 451.9294 274.7220
f 304 305 306
v -995.9823 448.1520 274.7294
v -997.8420 464.2719 274.7221
v -986.5522 467.2665 274.7296
f 307 308 309
v -981.3965 476.8756 274.7297
v -986.5522 467.2665 274.7296
v -997.8420 464.2719 274.7221
f 310 311 312
v -1003.8498 452.0551 274.7219
v -997.8420 464.2719 274.7221
v -1003.5961 451.9294 274.7220
f 313 314 315
v -979.3926 482.0611 274.7296
v -981.0067 476.7735 274.7298
v -981.3965 476.8756 274.7297
f 316 317 318
v -974.8866 479.8310 274.7305
v -975.7718 474.1735 274.7308
v -981.0067 476.7735 274.7298
f 319 320 321
v -981.3965 476.8756 274.7297
v -981.0067 476.7735 274.7298
v -981.0429 476.7006 274.7298
f 322 323 324
v -981.3965 476.8756 274.7297
v -986.2286 467.1066 274.7297
v -986.5522 467.2665 274.7296
f 325 326 327
v -981.3965 476.8756 274.7297
v -997.8420 464.2719 274.7221
v -984.6856 490.6262 274.7281
f 328 329 330
v -981.3965 476.8756 274.7297
v -984.4349 490.5015 274.7282
v -979.3926 482.0611 274.7296
f 331 332 333
v -984.6856 490.6262 274.7281
v -984.0269 492.3654 274.7281
v -983.8621 492.2839 274.7281
f 334 335 336
v -984.0269 492.3654 274.7281
v -984.6856 490.6262 274.7281
v -997.8420 464.2719 274.7221
f 337 338 339
v -977.0389 486.8187 274.7296
v -984.4349 490.5015 274.7282
v -982.6110 494.1736 274.7282
f 340 341 342
v -981.0067 476.7735 274.7298
v -979.3926 482.0611 274.7296
v -974.8866 479.8310 274.7305
f 343 344 345
v -969.1862 487.4896 274.7307
v -972.5339 484.5896 274.7305
v -977.0389 486.8187 274.7296
f 346 347 348
v -982.6110 494.1736 274.7282
v -969.1862 487.4896 274.7307
v -977.0389 486.8187 274.7296
f 349 350 351
v -974.8866 479.8310 274.7305
v -972.5339 484.5896 274.7305
v -969.1862 487.4896 274.7307
f 352 353 354
v -977.0389 486.8187 274.7296
v -979.3926 482.0611 274.7296
v -984.4349 490.5015 274.7282
f 355 356 357
v -975.7718 474.1735 274.7308
v -974.8866 479.8310 274.7305
v -969.1862 487.4896 274.7307
f 358 359 360
v -984.6856 490.6262 274.7281
v -984.4349 490.5015 274.7282
v -981.3965 476.8756 274.7297
f 361 362 363
v -997.7005 499.1709 274.7035
v -1017.6263 458.8900 274.7033
v -1024.2942 462.1978 274.7020
f 364 365 366
v -1010.7994 455.5027 274.7046
v -984.0269 492.3654 274.7061
v -1003.8498 452.0551 274.7059
f 367 368 369
v -1017.6263 458.8900 274.7033
v -990.8786 495.7757 274.7048
v -1010.7994 455.5027 274.7046
f 370 371 372
v -1004.3655 502.4879 274.7022
v -1024.2942 462.1978 274.7020
v -1031.0083 465.5288 274.7007
f 373 374 375
v -1024.2942 462.1978 274.7020
v -1004.3655 502.4879 274.7022
v -997.7005 499.1709 274.7035
f 376 377 378
v -1010.7994 455.5027 274.7046
v -990.8786 495.7757 274.7048
v -984.0269 492.3654 274.7061
f 379 380 381
v -990.8786 495.7757 274.7048
v -1017.6263 458.8900 274.7033
v -997.7005 499.1709 274.7035
f 382 383 384
v -1031.0083 465.5288 274.7007
v -1011.0764 505.8267 274.7008
v -1004.3655 502.4879 274.7022
f 385 386 387
v -1027.3666 506.4913 282.7679
v -1040.7544 513.1129 280.6863
v -1027.3654 506.4905 274.7412
f 388 389 390
v -1034.0704 509.8074 274.7118
v -1027.3654 506.4905 274.7132
v -1027.3654 506.4905 274.7412
f 391 392 393
v -1027.3654 506.4905 274.7412
v -1040.7544 513.1129 280.6863
v -1034.0704 509.8074 274.7118
f 394 395 396
v -1034.0725 509.8089 288.5973
v -1027.3666 506.4913 282.7679
v -1027.3671 506.4917 285.9078
f 397 398 399
v -1027.3666 506.4913 282.7679
v -1040.7553 513.1136 286.6321
v -1040.7544 513.1129 280.6863
f 400 401 402
v -1040.7544 513.1129 280.6863
v -1040.7535 513.1123 274.7105
v -1034.0704 509.8074 274.7118
f 403 404 405
v -1027.3666 506.4913 282.7679
v -1034.0725 509.8089 288.5973
v -1040.7553 513.1136 286.6321
f 406 407 408
v -1031.1095 515.7968 288.5973
v -1037.7706 519.1110 282.1643
v -1037.7712 519.1114 286.6361
f 409 410 411
v -1037.7706 519.1110 282.1643
v -1024.4131 512.4646 285.9078
v -1024.4126 512.4643 282.7679
f 412 413 414
v -1011.0776 505.8276 282.5465
v -1024.4114 512.4634 274.7412
v -1024.4126 512.4643 282.7679
f 415 416 417
v -1031.1095 515.7968 288.5973
v -1024.4131 512.4646 285.9078
v -1037.7706 519.1110 282.1643
f 418 419 420
v -1037.7694 519.1102 274.7105
v -1037.7706 519.1110 282.1643
v -1024.4126 512.4643 282.7679
f 421 422 423
v -1031.1074 515.7954 274.7118
v -1037.7694 519.1102 274.7105
v -1024.4126 512.4643 282.7679
f 424 425 426
v -1031.1074 515.7954 274.7118
v -1024.4114 512.4634 274.7412
v -1024.4114 512.4634 274.7132
f 427 428 429
v -1011.0776 505.8276 282.5465
v -1018.1109 509.3286 274.7424
v -1024.4114 512.4634 274.7412
f 430 431 432
v -1031.1074 515.7954 274.7118
v -1024.4126 512.4643 282.7679
v -1024.4114 512.4634 274.7412
f 433 434 435
v -1024.4126 512.4643 282.7679
v -1018.1124 509.3297 284.7880
v -1011.0776 505.8276 282.5465
f 436 437 438
v -1011.0776 505.8276 282.5465
v -997.7015 499.1718 282.5492
v -1011.0764 505.8267 274.7438
f 439 440 441
v -1018.1109 509.3286 274.7424
v -1011.0776 505.8276 282.5465
v -1011.0764 505.8267 274.7438
f 442 443 444
v -1004.3669 502.4889 284.7908
v -997.7015 499.1718 282.5492
v -1011.0776 505.8276 282.5465
f 445 446 447
v -1004.3655 502.4879 274.7022
v -1011.0764 505.8267 274.7438
v -997.7015 499.1718 282.5492
f 448 449 450
v -984.0280 492.3662 282.5518
v -984.0320 492.3694 304.0510
v -983.8662 492.2869 304.0510
f 451 452 453
v -990.8801 495.7767 285.0164
v -984.0280 492.3662 282.5518
v -997.7015 499.1718 282.5492
f 454 455 456
v -997.7005 499.1709 274.7035
v -1004.3655 502.4879 274.7022
v -997.7015 499.1718 282.5492
f 457 458 459
v -984.0280 492.3662 282.5518
v -990.8786 495.7757 274.7048
v -997.7005 499.1709 274.7035
f 460 461 462
v -983.8621 492.2839 274.7281
v -984.0269 492.3654 274.7281
v -984.0280 492.3662 282.5518
f 463 464 465
v -990.8786 495.7757 274.7048
v -984.0280 492.3662 282.5518
v -984.0269 492.3654 274.7281
f 466 467 468
v -983.8621 492.2839 274.7281
v -984.0280 492.3662 282.5518
v -983.8662 492.2869 304.0510
f 469 470 471
v -990.8786 495.7757 274.7048
v -984.0269 492.3654 274.7281
v -984.0269 492.3654 274.7061
f 472 473 474
v -997.7005 499.1709 274.7035
v -997.7015 499.1718 282.5492
v -984.0280 492.3662 282.5518
f 475 476 477
v -1011.0764 505.8267 274.7008
v -1011.0764 505.8267 274.7438
v -1004.3655 502.4879 274.7022
f 478 479 480
v -1003.9479 452.1041 303.9049
v -995.9866 448.1549 304.0524
v -1003.9479 452.1041 304.0509
f 481 482 483
v -995.9866 448.1549 304.0524
v -1003.9479 452.1041 303.9049
v -1020.2630 460.1978 283.4354
f 484 485 486
v -995.9866 448.1549 304.0524
v -1020.2630 460.1978 283.4354
v -1003.8498 452.0551 274.7219
f 487 488 489
v -1020.2630 460.1978 283.4354
v -1017.6263 458.8900 274.7033
v -1010.7994 455.5027 274.7046
f 490 491 492
v -1003.5961 451.9294 274.7220
v -995.9823 448.1520 274.7294
v -995.9866 448.1549 304.0524
f 493 494 495
v -1003.8498 452.0551 274.7059
v -1003.8498 452.0551 274.7219
v -1010.7994 455.5027 274.7046
f 496 497 498
v -1003.8498 452.0551 274.7219
v -1020.2630 460.1978 283.4354
v -1010.7994 455.5027 274.7046
f 499 500 501
v -1003.5961 451.9294 274.7220
v -995.9866 448.1549 304.0524
v -1003.8498 452.0551 274.7219
f 502 503 504
v -1024.2958 462.1988 284.7906
v -1031.0082 465.5288 274.7437
v -1020.2630 460.1978 283.4354
f 505 506 507
v -1020.2660 460.2009 303.9017
v -1020.2630 460.1978 283.4354
v -1003.9479 452.1041 303.9049
f 508 509 510
v -1038.0513 469.0236 284.7879
v -1038.0498 469.0226 274.7423
v -1031.0094 465.5295 282.5464
f 511 512 513
v -1044.3536 472.1502 282.7678
v -1044.3523 472.1495 274.7411
v -1038.0513 469.0236 284.7879
f 514 515 516
v -1031.0094 465.5295 282.5464
v -1031.0082 465.5288 274.7437
v -1024.2958 462.1988 284.7906
f 517 518 519
v -1031.0083 465.5288 274.7007
v -1024.2942 462.1978 274.7020
v -1031.0082 465.5288 274.7437
f 520 521 522
v -1020.2630 460.1978 283.4354
v -1031.0082 465.5288 274.7437
v -1024.2942 462.1978 274.7020
f 523 524 525
v -1031.0094 465.5295 282.5464
v -1038.0498 469.0226 274.7423
v -1031.0082 465.5288 274.7437
f 526 527 528
v -1038.0498 469.0226 274.7423
v -1038.0513 469.0236 284.7879
v -1044.3523 472.1495 274.7411
f 529 530 531
v -1017.6263 458.8900 274.7033
v -1020.2630 460.1978 283.4354
v -1024.2942 462.1978 274.7020
f 532 533 534
v -1031.0083 465.5288 274.7007
v -1011.0764 505.8267 274.7438
v -1011.0764 505.8267 274.7008
f 535 536 537
v -1040.7553 513.1136 286.6321
v -1039.5206 515.5941 286.6341
v -1039.6606 515.3104 274.7105
f 538 539 540
v -1044.3523 472.1495 274.7411
v -1027.3666 506.4913 282.7679
v -1027.3654 506.4905 274.7412
f 541 542 543
v -1024.4114 512.4634 274.7132
v -1027.3654 506.4905 274.7412
v -1027.3654 506.4905 274.7132
f 544 545 546
v -1024.4126 512.4643 282.7679
v -1027.3671 506.4917 285.9078
v -1027.3666 506.4913 282.7679
f 547 548 549
v -1013.2478 464.3720 283.0333
v -1010.3068 470.3811 303.9026
v -1010.3037 470.3790 283.0254
f 550 551 552
v -1020.2660 460.2009 303.9017
v -1017.2586 466.3387 303.9018
v -1017.2555 466.3367 283.4435
f 553 554 555
v -974.8907 479.8339 304.0534
v -979.3972 482.0643 306.9674
v -979.3967 482.0640 304.0525
f 556 557 558
v -972.5339 484.5896 274.7025
v -974.8866 479.8310 274.7305
v -974.8866 479.8310 274.7025
f 559 560 561
v -977.0389 486.8187 274.7016
v -972.5339 484.5896 274.7305
v -972.5339 484.5896 274.7025
f 562 563 564
v -979.3967 482.0640 304.0525
v -977.0434 486.8219 306.9674
v -977.0430 486.8217 304.0525
f 565 566 567
v -984.4349 490.5015 274.7282
v -982.6152 494.1765 304.0511
v -982.6110 494.1736 274.7282
f 568 569 570
v -984.6856 490.6262 274.7281
v -984.4391 490.5044 304.0511
v -984.4349 490.5015 274.7282
f 571 572 573
v -983.8621 492.2839 274.7281
v -984.6897 490.6291 304.0510
v -984.6856 490.6262 274.7281
f 574 575 576
v -986.5522 467.2665 274.7296
v -995.9866 448.1549 304.0524
v -995.9823 448.1520 274.7294
f 577 578 579
v -986.2286 467.1066 274.7297
v -986.5563 467.2693 304.0525
v -986.5522 467.2665 274.7296
f 580 581 582
v -981.3965 476.8756 274.7297
v -986.2328 467.1095 304.0526
v -986.2286 467.1066 274.7297
f 583 584 585
v -981.0429 476.7006 274.7298
v -981.4006 476.8784 304.0526
v -981.3965 476.8756 274.7297
f 586 587 588
v -981.0067 476.7735 274.7298
v -981.0471 476.7035 304.0527
v -981.0429 476.7006 274.7298
f 589 590 591
v -975.7718 474.1735 274.7308
v -981.0109 476.7764 304.0527
v -981.0067 476.7735 274.7298
f 592 593 594
v -969.1862 487.4896 274.7307
v -975.7759 474.1763 304.0537
v -975.7718 474.1735 274.7308
f 595 596 597
v -982.6110 494.1736 274.7282
v -969.1902 487.4926 304.0536
v -969.1862 487.4896 274.7307
f 598 599 600
v -974.8866 479.8310 274.7025
v -979.3926 482.0611 274.7296
v -979.3926 482.0611 274.7016
f 601 602 603
v -972.5380 484.5927 304.0534
v -974.8912 479.8343 306.9683
v -974.8907 479.8339 304.0534
f 604 605 606
v -977.0430 486.8217 304.0525
v -972.5384 484.5929 306.9683
v -972.5380 484.5927 304.0534
f 607 608 609
v -979.3926 482.0611 274.7016
v -977.0389 486.8187 274.7296
v -977.0389 486.8187 274.7016
f 610 611 612

g building_ID_7630DBF1-3276-4602-8646-C0EEDE42E7A2
v -1044.3310 505.9238 283.0372
v -1031.4265 515.9543 284.7855
v -1037.7707 519.1110 283.0452
f 613 614 615
v -1044.4832 489.5606 284.7853
v -1044.3310 505.9238 283.0372
v -1050.8872 492.7446 283.0291
f 616 617 618
v -1031.4265 515.9543 284.7855
v -1044.3310 505.9238 283.0372
v -1044.4832 489.5606 284.7853
f 619 620 621
v -1038.3991 486.5351 283.0356
v -1031.4265 515.9543 284.7855
v -1044.4832 489.5606 284.7853
f 622 623 624
v -1044.3536 472.1502 282.7678
v -1024.4126 512.4643 282.7679
v -1038.3991 486.5351 283.0356
f 625 626 627
v -1031.4265 515.9543 284.7855
v -1038.3991 486.5351 283.0356
v -1024.4126 512.4643 282.7679
f 628 629 630
v -1038.3991 486.5351 283.0356
v -1045.3463 472.6430 283.0526
v -1044.3536 472.1502 282.7678
f 631 632 633
v -1044.3280 505.9272 276.7224
v -1047.6076 499.3360 276.7184
v -1050.8866 492.7441 278.8292
f 634 635 636
v -1047.6076 499.3360 276.7184
v -1048.7002 497.1388 274.6284
v -1050.8860 492.7437 274.6294
f 637 638 639
v -1047.6076 499.3360 276.7184
v -1050.8860 492.7437 274.6294
v -1050.8866 492.7441 278.8292
f 640 641 642
v -1046.5145 501.5309 274.6285
v -1047.6076 499.3360 276.7184
v -1044.3280 505.9272 276.7224
f 643 644 645
v -1048.7002 497.1388 274.6284
v -1047.6076 499.3360 276.7184
v -1046.5145 501.5309 274.6285
f 646 647 648
v -1044.3310 505.9238 283.0372
v -1037.7707 519.1110 283.0452
v -1037.7698 519.1104 276.7284
f 649 650 651
v -1041.0484 512.5193 276.7264
v -1044.3310 505.9238 283.0372
v -1037.7698 519.1104 276.7284
f 652 653 654
v -1046.5145 501.5309 274.6285
v -1044.3280 505.9272 276.7224
v -1042.1419 510.3211 274.6265
f 655 656 657
v -1042.1419 510.3211 274.6265
v -1044.3280 505.9272 276.7224
v -1041.0484 512.5193 276.7264
f 658 659 660
v -1039.9552 514.7161 274.6265
v -1042.1419 510.3211 274.6265
v -1041.0484 512.5193 276.7264
f 661 662 663
v -1037.7694 519.1102 274.6255
v -1039.9552 514.7161 274.6265
v -1037.7698 519.1104 276.7284
f 664 665 666
v -1041.0484 512.5193 276.7264
v -1037.7698 519.1104 276.7284
v -1039.9552 514.7161 274.6265
f 667 668 669
v -1044.8489 472.3960 276.5919
v -1044.3523 472.1495 274.6281
v -1044.3536 472.1502 282.7678
f 670 671 672
v -1045.3450 472.6421 274.6319
v -1044.3523 472.1495 274.6281
v -1044.8489 472.3960 276.5919
f 673 674 675
v -1045.0966 472.5187 276.6628
v -1044.8489 472.3960 276.5919
v -1045.3463 472.6430 283.0526
f 676 677 678
v -1045.0966 472.5187 276.6628
v -1045.3463 472.6430 283.0526
v -1045.3452 472.6422 276.0358
f 679 680 681
v -1045.0966 472.5187 276.6628
v -1045.3452 472.6422 276.0358
v -1045.3450 472.6421 274.6319
f 682 683 684
v -1044.8489 472.3960 276.5919
v -1045.0966 472.5187 276.6628
v -1045.3450 472.6421 274.6319
f 685 686 687
v -1024.4114 512.4634 274.6282
v -1024.4126 512.4643 282.7679
v -1044.3523 472.1495 274.6281
f 688 689 690
v -1044.3536 472.1502 282.7678
v -1044.3523 472.1495 274.6281
v -1024.4126 512.4643 282.7679
f 691 692 693
v -1055.5469 484.9333 294.2096
v -1058.6669 478.5668 294.2095
v -1045.5903 472.1587 294.2122
f 694 695 696
v -1051.4991 493.0494 294.2096
v -1055.5469 484.9333 294.2096
v -1038.4008 486.5363 294.2122
f 697 698 699
v -1045.5903 472.1587 294.2122
v -1038.4008 486.5363 294.2122
v -1055.5469 484.9333 294.2096
f 700 701 702
v -1055.5439 484.9314 274.6333
v -1055.5469 484.9333 294.2096
v -1051.4991 493.0494 294.2096
f 703 704 705
v -1058.6639 478.5647 274.6332
v -1058.6669 478.5668 294.2095
v -1055.5469 484.9333 294.2096
f 706 707 708
v -1045.5873 472.1567 274.6359
v -1045.5903 472.1587 294.2122
v -1058.6669 478.5668 294.2095
f 709 710 711
v -1050.8866 492.7441 278.8292
v -1051.4961 493.0473 274.6333
v -1050.8872 492.7446 283.0291
f 712 713 714
v -1051.4991 493.0494 294.2096
v -1050.8872 492.7446 283.0291
v -1051.4961 493.0473 274.6333
f 715 716 717
v -1050.8866 492.7441 278.8292
v -1050.8860 492.7437 274.6294
v -1051.4961 493.0473 274.6333
f 718 719 720
v -1038.3991 486.5351 283.0356
v -1044.4832 489.5606 284.7853
v -1038.4008 486.5363 294.2122
f 721 722 723
v -1051.4991 493.0494 294.2096
v -1044.4832 489.5606 284.7853
v -1050.8872 492.7446 283.0291
f 724 725 726
v -1038.4008 486.5363 294.2122
v -1044.4832 489.5606 284.7853
v -1051.4991 493.0494 294.2096
f 727 728 729
v -1045.3452 472.6422 276.0358
v -1045.5873 472.1567 274.6359
v -1045.3450 472.6421 274.6319
f 730 731 732
v -1045.3463 472.6430 283.0526
v -1045.5873 472.1567 274.6359
v -1045.3452 472.6422 276.0358
f 733 734 735
v -1045.3463 472.6430 283.0526
v -1038.3991 486.5351 283.0356
v -1038.4008 486.5363 294.2122
f 736 737 738
v -1038.4008 486.5363 294.2122
v -1045.5903 472.1587 294.2122
v -1045.3463 472.6430 283.0526
f 739 740 741
v -1045.5903 472.1587 294.2122
v -1045.5873 472.1567 274.6359
v -1045.3463 472.6430 283.0526
f 742 743 744
v -1031.4249 515.9532 274.6268
v -1037.7694 519.1102 274.6255
v -1037.7698 519.1104 276.7284
f 745 746 747
v -1037.7698 519.1104 276.7284
v -1031.4265 515.9543 284.7855
v -1031.4249 515.9532 274.6268
f 748 749 750
v -1024.4114 512.4634 274.6282
v -1031.4249 515.9532 274.6268
v -1024.4126 512.4643 282.7679
f 751 752 753
v -1031.4265 515.9543 284.7855
v -1024.4126 512.4643 282.7679
v -1031.4249 515.9532 274.6268
f 754 755 756
v -1037.7707 519.1110 283.0452
v -1031.4265 515.9543 284.7855
v -1037.7698 519.1104 276.7284
f 757 758 759
v -1055.5439 484.9314 274.6333
v -1045.3450 472.6421 274.6319
v -1058.6639 478.5647 274.6332
f 760 761 762
v -1051.4961 493.0473 274.6333
v -1050.8860 492.7437 274.6294
v -1055.5439 484.9314 274.6333
f 763 764 765
v -1045.3450 472.6421 274.6319
v -1045.5873 472.1567 274.6359
v -1058.6639 478.5647 274.6332
f 766 767 768
v -1050.8860 492.7437 274.6294
v -1048.7002 497.1388 274.6284
v -1045.3450 472.6421 274.6319
f 769 770 771
v -1044.3523 472.1495 274.6281
v -1045.3450 472.6421 274.6319
v -1024.4114 512.4634 274.6282
f 772 773 774
v -1045.3450 472.6421 274.6319
v -1055.5439 484.9314 274.6333
v -1050.8860 492.7437 274.6294
f 775 776 777
v -1046.5145 501.5309 274.6285
v -1031.4249 515.9532 274.6268
v -1048.7002 497.1388 274.6284
f 778 779 780
v -1046.5145 501.5309 274.6285
v -1042.1419 510.3211 274.6265
v -1031.4249 515.9532 274.6268
f 781 782 783
v -1039.9552 514.7161 274.6265
v -1031.4249 515.9532 274.6268
v -1042.1419 510.3211 274.6265
f 784 785 786
v -1045.3450 472.6421 274.6319
v -1031.4249 515.9532 274.6268
v -1024.4114 512.4634 274.6282
f 787 788 789
v -1039.9552 514.7161 274.6265
v -1037.7694 519.1102 274.6255
v -1031.4249 515.9532 274.6268
f 790 791 792
v -1048.7002 497.1388 274.6284
v -1031.4249 515.9532 274.6268
v -1045.3450 472.6421 274.6319
f 793 794 795
v -1044.3280 505.9272 276.7224
v -1050.8866 492.7441 278.8292
v -1041.0484 512.5193 276.7264
f 796 797 798
v -1050.8872 492.7446 283.0291
v -1044.3310 505.9238 283.0372
v -1050.8866 492.7441 278.8292
f 799 800 801
v -1041.0484 512.5193 276.7264
v -1050.8866 492.7441 278.8292
v -1044.3310 505.9238 283.0372
f 802 803 804
v -1044.3536 472.1502 282.7678
v -1045.3463 472.6430 283.0526
v -1044.8489 472.3960 276.5919
f 805 806 807
v -1055.5439 484.9314 274.6333
v -1051.4991 493.0494 294.2096
v -1051.4961 493.0473 274.6333
f 808 809 810
v -1058.6639 478.5647 274.6332
v -1055.5469 484.9333 294.2096
v -1055.5439 484.9314 274.6333
f 811 812 813
v -1045.5873 472.1567 274.6359
v -1058.6669 478.5668 294.2095
v -1058.6639 478.5647 274.6332
f 814 815 816

g building_ID_F8F526A6-476A-4246-AAEE-2D452AC8BF7B
v -1082.6056 488.7721 296.5966
v -1040.4177 522.1016 296.6010
v -1061.4021 532.3198 296.5968
f 817 818 819
v -1040.4177 522.1016 296.6010
v -1082.6056 488.7721 296.5966
v -1061.6213 478.5539 296.6009
f 820 821 822
v -1082.6022 488.7699 274.5614
v -1082.6056 488.7721 296.5966
v -1061.4021 532.3198 296.5968
f 823 824 825
v -1061.6179 478.5517 274.5657
v -1061.6213 478.5539 296.6009
v -1082.6056 488.7721 296.5966
f 826 827 828
v -1040.4144 522.0993 274.5658
v -1040.4177 522.1016 296.6010
v -1061.6213 478.5539 296.6009
f 829 830 831
v -1061.3987 532.3174 274.5615
v -1061.4021 532.3198 296.5968
v -1040.4177 522.1016 296.6010
f 832 833 834
v -1082.6022 488.7699 274.5614
v -1061.3987 532.3174 274.5615
v -1040.4144 522.0993 274.5658
f 835 836 837
v -1040.4144 522.0993 274.5658
v -1061.6179 478.5517 274.5657
v -1082.6022 488.7699 274.5614
f 838 839 840
v -1082.6022 488.7699 274.5614
v -1061.4021 532.3198 296.5968
v -1061.3987 532.3174 274.5615
f 841 842 843
v -1061.6179 478.5517 274.5657
v -1082.6056 488.7721 296.5966
v -1082.6022 488.7699 274.5614
f 844 845 846
v -1040.4144 522.0993 274.5658
v -1061.6213 478.5539 296.6009
v -1061.6179 478.5517 274.5657
f 847 848 849
v -1061.3987 532.3174 274.5615
v -1040.4177 522.1016 296.6010
v -1040.4144 522.0993 274.5658
f 850 851 852

g building_ID_BF1FD200-E688-4F89-9056-AECF21FC532A
v -1079.5885 537.8920 300.3061
v -1095.8943 547.5996 300.3026
v -1096.0562 547.6460 300.3026
f 853 854 855
v -1098.8879 537.6826 300.3028
v -1079.5885 537.8920 300.3061
v -1096.0562 547.6460 300.3026
f 856 857 858
v -1079.5885 537.8920 300.3061
v -1066.4765 521.9009 300.3096
v -1062.7339 529.5858 300.3096
f 859 860 861
v -1095.8943 547.5996 300.3026
v -1079.5885 537.8920 300.3061
v -1078.8857 539.3170 300.3061
f 862 863 864
v -1098.8879 537.6826 300.3028
v -1066.4765 521.9009 300.3096
v -1079.5885 537.8920 300.3061
f 865 866 867
v -1079.5845 537.8891 274.4251
v -1079.5885 537.8920 300.3061
v -1062.7339 529.5858 300.3096
f 868 869 870
v -1078.8817 539.3142 274.4251
v -1078.8857 539.3170 300.3061
v -1079.5885 537.8920 300.3061
f 871 872 873
v -1095.8902 547.5967 274.4215
v -1095.8943 547.5996 300.3026
v -1078.8857 539.3170 300.3061
f 874 875 876
v -1101.4568 536.5428 274.4215
v -1101.4568 536.5429 274.4925
v -1096.0521 547.6432 274.4925
f 877 878 879
v -1101.2680 536.4513 274.4215
v -1101.2681 536.4513 274.4925
v -1101.4568 536.5429 274.4925
f 880 881 882
v -1074.0779 506.2908 303.5265
v -1066.4761 521.9012 303.5265
v -1098.4538 518.1590 303.5214
f 883 884 885
v -1098.8884 537.6830 303.5197
v -1098.4538 518.1590 303.5214
v -1066.4761 521.9012 303.5265
f 886 887 888
v -1103.7189 520.7232 303.5203
v -1103.2664 520.5270 303.5204
v -1098.8884 537.6830 303.5197
f 889 890 891
v -1098.4538 518.1590 303.5214
v -1098.8884 537.6830 303.5197
v -1103.2664 520.5270 303.5204
f 892 893 894
v -1103.2664 520.5270 303.5204
v -1103.7189 520.7232 303.5203
v -1103.2725 520.5060 303.5204
f 895 896 897
v -1103.2617 520.5238 274.4224
v -1103.2664 520.5270 303.5204
v -1103.2725 520.5060 303.5204
f 898 899 900
v -1098.4491 518.1560 274.4234
v -1098.4538 518.1590 303.5214
v -1103.2664 520.5270 303.5204
f 901 902 903
v -1074.0733 506.2878 274.4285
v -1074.0779 506.2908 303.5265
v -1098.4538 518.1590 303.5214
f 904 905 906
v -1103.7142 520.7200 274.4933
v -1103.2678 520.5029 274.4224
v -1103.2725 520.5060 303.5204
f 907 908 909
v -1103.7189 520.7232 303.5203
v -1103.7142 520.7200 274.4933
v -1103.2725 520.5060 303.5204
f 910 911 912
v -1107.9286 522.7723 274.4215
v -1103.7142 520.7200 274.4933
v -1107.9286 522.7723 274.4924
f 913 914 915
v -1103.2678 520.5029 274.4224
v -1103.7142 520.7200 274.4933
v -1107.9286 522.7723 274.4215
f 916 917 918
v -1098.8879 537.6826 300.3028
v -1098.8884 537.6830 303.5197
v -1066.4765 521.9009 300.3096
f 919 920 921
v -1107.9286 522.7723 274.4215
v -1107.9286 522.7723 274.4924
v -1101.2681 536.4513 274.4925
f 922 923 924
v -1129.8099 500.0570 290.3979
v -1125.0746 498.7083 290.3988
v -1125.9673 513.3475 290.3975
f 925 926 927
v -1110.0007 551.6463 290.3971
v -1125.9673 513.3475 290.3975
v -1125.0746 498.7083 290.3988
f 928 929 930
v -1126.2681 513.4344 290.3975
v -1125.9673 513.3475 290.3975
v -1126.2469 513.5073 290.3975
f 931 932 933
v -1124.6172 536.8757 290.3958
v -1126.2469 513.5073 290.3975
v -1110.0007 551.6463 290.3971
f 934 935 936
v -1125.9673 513.3475 290.3975
v -1110.0007 551.6463 290.3971
v -1126.2469 513.5073 290.3975
f 937 938 939
v -1126.2469 513.5073 290.3975
v -1124.6172 536.8757 290.3958
v -1130.9712 514.8529 290.3965
f 940 941 942
v -1110.0007 551.6463 290.3971
v -1119.6392 554.3902 290.3952
v -1124.6172 536.8757 290.3958
f 943 944 945
v -1124.6146 536.8739 274.4884
v -1124.6172 536.8757 290.3958
v -1119.6392 554.3902 290.3952
f 946 947 948
v -1130.9686 514.8513 274.4890
v -1130.9712 514.8529 290.3965
v -1124.6172 536.8757 290.3958
f 949 950 951
v -1126.2443 513.5056 274.4900
v -1126.2469 513.5073 290.3975
v -1130.9712 514.8529 290.3965
f 952 953 954
v -1126.2654 513.4327 274.4900
v -1126.2681 513.4344 290.3975
v -1126.2469 513.5073 290.3975
f 955 956 957
v -1125.9647 513.3459 274.4900
v -1125.9673 513.3475 290.3975
v -1126.2681 513.4344 290.3975
f 958 959 960
v -1129.8073 500.0553 274.4904
v -1129.8099 500.0570 290.3979
v -1125.9673 513.3475 290.3975
f 961 962 963
v -1125.0768 498.7097 303.7103
v -1096.0517 547.6444 303.7114
v -1110.0029 551.6477 303.7086
f 964 965 966
v -1096.0517 547.6444 303.7114
v -1125.0768 498.7097 303.7103
v -1111.1196 494.7343 303.7131
f 967 968 969
v -1119.6367 554.3883 274.4878
v -1119.6392 554.3902 290.3952
v -1110.0007 551.6463 290.3971
f 970 971 972
v -1125.0746 498.7083 290.3988
v -1125.0768 498.7097 303.7103
v -1110.0007 551.6463 290.3971
f 973 974 975
v -1096.0562 547.6460 300.3026
v -1096.0517 547.6444 303.7114
v -1098.8884 537.6830 303.5197
f 976 977 978
v -1103.7189 520.7232 303.5203
v -1098.8884 537.6830 303.5197
v -1096.0517 547.6444 303.7114
f 979 980 981
v -1098.8884 537.6830 303.5197
v -1098.8879 537.6826 300.3028
v -1096.0562 547.6460 300.3026
f 982 983 984
v -1111.1196 494.7343 303.7131
v -1111.1148 494.7313 274.4941
v -1103.7189 520.7232 303.5203
f 985 986 987
v -1096.0517 547.6444 303.7114
v -1111.1196 494.7343 303.7131
v -1103.7189 520.7232 303.5203
f 988 989 990
v -1096.0562 547.6460 300.3026
v -1096.0521 547.6432 274.4925
v -1110.0007 551.6463 290.3971
f 991 992 993
v -1110.0007 551.6463 290.3971
v -1096.0521 547.6432 274.4925
v -1108.2296 551.1408 274.4901
f 994 995 996
v -1096.0562 547.6460 300.3026
v -1110.0007 551.6463 290.3971
v -1110.0029 551.6477 303.7086
f 997 998 999
v -1110.0029 551.6477 303.7086
v -1096.0517 547.6444 303.7114
v -1096.0562 547.6460 300.3026
f 1000 1001 1002
v -1096.0521 547.6432 274.4925
v -1095.8902 547.5967 274.4215
v -1096.0521 547.6432 274.4215
f 1003 1004 1005
v -1095.8902 547.5967 274.4215
v -1096.0521 547.6432 274.4925
v -1095.8943 547.5996 300.3026
f 1006 1007 1008
v -1095.8943 547.5996 300.3026
v -1096.0521 547.6432 274.4925
v -1096.0562 547.6460 300.3026
f 1009 1010 1011
v -1062.7339 529.5858 300.3096
v -1066.4765 521.9009 300.3096
v -1062.7299 529.5830 274.4285
f 1012 1013 1014
v -1074.0733 506.2878 274.4285
v -1066.4765 521.9009 300.3096
v -1074.0779 506.2908 303.5265
f 1015 1016 1017
v -1066.4761 521.9012 303.5265
v -1074.0779 506.2908 303.5265
v -1066.4765 521.9009 300.3096
f 1018 1019 1020
v -1066.4765 521.9009 300.3096
v -1074.0733 506.2878 274.4285
v -1067.4127 519.9667 274.4285
f 1021 1022 1023
v -1098.4491 518.1560 274.4234
v -1067.4127 519.9667 274.4285
v -1074.0733 506.2878 274.4285
f 1024 1025 1026
v -1101.2680 536.4513 274.4215
v -1079.5845 537.8891 274.4251
v -1067.4127 519.9667 274.4285
f 1027 1028 1029
v -1067.4127 519.9667 274.4285
v -1079.5845 537.8891 274.4251
v -1062.7299 529.5830 274.4285
f 1030 1031 1032
v -1079.5845 537.8891 274.4251
v -1095.8902 547.5967 274.4215
v -1078.8817 539.3142 274.4251
f 1033 1034 1035
v -1098.4491 518.1560 274.4234
v -1101.2680 536.4513 274.4215
v -1067.4127 519.9667 274.4285
f 1036 1037 1038
v -1103.2617 520.5238 274.4224
v -1103.2678 520.5029 274.4224
v -1107.9286 522.7723 274.4215
f 1039 1040 1041
v -1101.2680 536.4513 274.4215
v -1103.2617 520.5238 274.4224
v -1107.9286 522.7723 274.4215
f 1042 1043 1044
v -1096.0521 547.6432 274.4215
v -1079.5845 537.8891 274.4251
v -1101.2680 536.4513 274.4215
f 1045 1046 1047
v -1095.8902 547.5967 274.4215
v -1079.5845 537.8891 274.4251
v -1096.0521 547.6432 274.4215
f 1048 1049 1050
v -1101.2680 536.4513 274.4215
v -1101.4568 536.5428 274.4215
v -1096.0521 547.6432 274.4215
f 1051 1052 1053
v -1103.2617 520.5238 274.4224
v -1101.2680 536.4513 274.4215
v -1098.4491 518.1560 274.4234
f 1054 1055 1056
v -1111.1196 494.7343 303.7131
v -1125.0746 498.7083 290.3988
v -1111.1148 494.7313 274.4941
f 1057 1058 1059
v -1111.1148 494.7313 274.4941
v -1125.0746 498.7083 290.3988
v -1124.1877 498.4543 274.4915
f 1060 1061 1062
v -1125.0746 498.7083 290.3988
v -1111.1196 494.7343 303.7131
v -1125.0768 498.7097 303.7103
f 1063 1064 1065
v -1129.8099 500.0570 290.3979
v -1129.8073 500.0553 274.4904
v -1124.1877 498.4543 274.4915
f 1066 1067 1068
v -1108.2296 551.1408 274.4901
v -1096.0521 547.6432 274.4925
v -1101.4568 536.5429 274.4925
f 1069 1070 1071
v -1101.4568 536.5429 274.4925
v -1101.2681 536.4513 274.4925
v -1107.9286 522.7723 274.4924
f 1072 1073 1074
v -1108.2296 551.1408 274.4901
v -1101.4568 536.5429 274.4925
v -1107.9286 522.7723 274.4924
f 1075 1076 1077
v -1108.2296 551.1408 274.4901
v -1124.6146 536.8739 274.4884
v -1119.6367 554.3883 274.4878
f 1078 1079 1080
v -1124.6146 536.8739 274.4884
v -1108.2296 551.1408 274.4901
v -1125.9647 513.3459 274.4900
f 1081 1082 1083
v -1125.9647 513.3459 274.4900
v -1108.2296 551.1408 274.4901
v -1107.9286 522.7723 274.4924
f 1084 1085 1086
v -1124.1877 498.4543 274.4915
v -1125.9647 513.3459 274.4900
v -1107.9286 522.7723 274.4924
f 1087 1088 1089
v -1111.1148 494.7313 274.4941
v -1124.1877 498.4543 274.4915
v -1107.9286 522.7723 274.4924
f 1090 1091 1092
v -1126.2443 513.5056 274.4900
v -1130.9686 514.8513 274.4890
v -1124.6146 536.8739 274.4884
f 1093 1094 1095
v -1126.2443 513.5056 274.4900
v -1125.9647 513.3459 274.4900
v -1126.2654 513.4327 274.4900
f 1096 1097 1098
v -1124.1877 498.4543 274.4915
v -1129.8073 500.0553 274.4904
v -1125.9647 513.3459 274.4900
f 1099 1100 1101
v -1126.2443 513.5056 274.4900
v -1124.6146 536.8739 274.4884
v -1125.9647 513.3459 274.4900
f 1102 1103 1104
v -1103.7142 520.7200 274.4933
v -1111.1148 494.7313 274.4941
v -1107.9286 522.7723 274.4924
f 1105 1106 1107
v -1079.5845 537.8891 274.4251
v -1062.7339 529.5858 300.3096
v -1062.7299 529.5830 274.4285
f 1108 1109 1110
v -1078.8817 539.3142 274.4251
v -1079.5885 537.8920 300.3061
v -1079.5845 537.8891 274.4251
f 1111 1112 1113
v -1095.8902 547.5967 274.4215
v -1078.8857 539.3170 300.3061
v -1078.8817 539.3142 274.4251
f 1114 1115 1116
v -1101.4568 536.5428 274.4215
v -1096.0521 547.6432 274.4925
v -1096.0521 547.6432 274.4215
f 1117 1118 1119
v -1101.2680 536.4513 274.4215
v -1101.4568 536.5429 274.4925
v -1101.4568 536.5428 274.4215
f 1120 1121 1122
v -1103.2617 520.5238 274.4224
v -1103.2725 520.5060 303.5204
v -1103.2678 520.5029 274.4224
f 1123 1124 1125
v -1098.4491 518.1560 274.4234
v -1103.2664 520.5270 303.5204
v -1103.2617 520.5238 274.4224
f 1126 1127 1128
v -1074.0733 506.2878 274.4285
v -1098.4538 518.1590 303.5214
v -1098.4491 518.1560 274.4234
f 1129 1130 1131
v -1098.8884 537.6830 303.5197
v -1066.4761 521.9012 303.5265
v -1066.4765 521.9009 300.3096
f 1132 1133 1134
v -1107.9286 522.7723 274.4215
v -1101.2681 536.4513 274.4925
v -1101.2680 536.4513 274.4215
f 1135 1136 1137
v -1124.6146 536.8739 274.4884
v -1119.6392 554.3902 290.3952
v -1119.6367 554.3883 274.4878
f 1138 1139 1140
v -1130.9686 514.8513 274.4890
v -1124.6172 536.8757 290.3958
v -1124.6146 536.8739 274.4884
f 1141 1142 1143
v -1126.2443 513.5056 274.4900
v -1130.9712 514.8529 290.3965
v -1130.9686 514.8513 274.4890
f 1144 1145 1146
v -1126.2654 513.4327 274.4900
v -1126.2469 513.5073 290.3975
v -1126.2443 513.5056 274.4900
f 1147 1148 1149
v -1125.9647 513.3459 274.4900
v -1126.2681 513.4344 290.3975
v -1126.2654 513.4327 274.4900
f 1150 1151 1152
v -1129.8073 500.0553 274.4904
v -1125.9673 513.3475 290.3975
v -1125.9647 513.3459 274.4900
f 1153 1154 1155
v -1119.6367 554.3883 274.4878
v -1110.0007 551.6463 290.3971
v -1108.2296 551.1408 274.4901
f 1156 1157 1158
v -1125.0768 498.7097 303.7103
v -1110.0029 551.6477 303.7086
v -1110.0007 551.6463 290.3971
f 1159 1160 1161
v -1111.1148 494.7313 274.4941
v -1103.7142 520.7200 274.4933
v -1103.7189 520.7232 303.5203
f 1162 1163 1164
v -1066.4765 521.9009 300.3096
v -1067.4127 519.9667 274.4285
v -1062.7299 529.5830 274.4285
f 1165 1166 1167
v -1129.8099 500.0570 290.3979
v -1124.1877 498.4543 274.4915
v -1125.0746 498.7083 290.3988
f 1168 1169 1170

g building_ID_3CD94102-4CBE-406F-B2DA-B438640C973B
v -746.1742 643.3866 276.6478
v -744.4811 638.9583 277.2775
v -742.8084 645.2017 277.3691
f 1171 1172 1173
v -742.8084 645.2017 277.3691
v -745.6025 645.8401 276.6637
v -746.1742 643.3866 276.6478
f 1174 1175 1176
v -744.0920 638.9932 277.3695
v -742.8084 645.2017 277.3691
v -744.1450 639.0054 277.3565
f 1177 1178 1179
v -744.4811 638.9583 277.2775
v -744.1450 639.0054 277.3565
v -742.8084 645.2017 277.3691
f 1180 1181 1182
v -744.1703 638.8934 277.3555
v -744.1450 639.0054 277.3565
v -744.4811 638.9583 277.2775
f 1183 1184 1185
v -747.1493 639.2004 276.6212
v -744.4811 638.9583 277.2775
v -746.1742 643.3866 276.6478
f 1186 1187 1188
v -745.2025 635.4722 277.2778
v -747.1493 639.2004 276.6212
v -747.8889 636.0233 276.6014
f 1189 1190 1191
v -744.4811 638.9583 277.2775
v -747.1493 639.2004 276.6212
v -745.2025 635.4722 277.2778
f 1192 1193 1194
v -741.5761 644.9203 277.0992
v -740.5652 638.1487 276.5960
v -739.2705 644.4141 276.5955
f 1195 1196 1197
v -744.0920 638.9932 277.3695
v -740.5652 638.1487 276.5960
v -741.5761 644.9203 277.0992
f 1198 1199 1200
v -744.0920 638.9932 277.3695
v -741.5761 644.9203 277.0992
v -742.8084 645.2017 277.3691
f 1201 1202 1203
v -745.6020 645.8394 271.1639
v -747.1742 639.0909 273.0123
v -747.1493 639.2004 276.6212
f 1204 1205 1206
v -747.8883 636.0227 271.1646
v -747.8889 636.0233 276.6014
v -747.1493 639.2004 276.6212
f 1207 1208 1209
v -747.1493 639.2004 276.6212
v -747.1742 639.0909 273.0123
v -747.8883 636.0227 271.1646
f 1210 1211 1212
v -747.8883 636.0227 271.1646
v -747.1742 639.0909 273.0123
v -746.5549 641.7490 271.1642
f 1213 1214 1215
v -745.6020 645.8394 271.1639
v -746.1742 643.3866 276.6478
v -745.6024 645.8398 274.6008
f 1216 1217 1218
v -745.6020 645.8394 271.1639
v -746.5549 641.7490 271.1642
v -747.1742 639.0909 273.0123
f 1219 1220 1221
v -745.2018 635.4715 271.1650
v -745.2025 635.4722 277.2778
v -747.8883 636.0227 271.1646
f 1222 1223 1224
v -747.8889 636.0233 276.6014
v -747.8883 636.0227 271.1646
v -745.2025 635.4722 277.2778
f 1225 1226 1227
v -744.4805 638.9574 271.1647
v -744.4811 638.9583 277.2775
v -745.2025 635.4722 277.2778
f 1228 1229 1230
v -744.1696 638.8927 271.1647
v -744.1703 638.8934 277.3555
v -744.4805 638.9574 271.1647
f 1231 1232 1233
v -744.4811 638.9583 277.2775
v -744.4805 638.9574 271.1647
v -744.1703 638.8934 277.3555
f 1234 1235 1236
v -744.1448 639.0051 275.8085
v -744.1450 639.0054 277.3565
v -744.1703 638.8934 277.3555
f 1237 1238 1239
v -744.1703 638.8934 277.3555
v -744.1445 639.0048 272.7126
v -744.1448 639.0051 275.8085
f 1240 1241 1242
v -744.1696 638.8927 271.1647
v -744.1444 639.0045 271.1647
v -744.1703 638.8934 277.3555
f 1243 1244 1245
v -740.5652 638.1487 276.5960
v -739.2699 644.4134 271.1647
v -739.2705 644.4141 276.5955
f 1246 1247 1248
v -740.5652 638.1487 276.5960
v -740.5647 638.1479 271.1652
v -739.2699 644.4134 271.1647
f 1249 1250 1251
v -741.5755 644.9196 271.1644
v -741.5758 644.9199 273.7613
v -739.2699 644.4134 271.1647
f 1252 1253 1254
v -741.5761 644.9203 277.0992
v -739.2699 644.4134 271.1647
v -741.5758 644.9199 273.7613
f 1255 1256 1257
v -747.8883 636.0227 271.1646
v -746.5549 641.7490 271.1642
v -744.4805 638.9574 271.1647
f 1258 1259 1260
v -742.8078 645.2009 271.1643
v -744.1444 639.0045 271.1647
v -744.4805 638.9574 271.1647
f 1261 1262 1263
v -744.4805 638.9574 271.1647
v -745.2018 635.4715 271.1650
v -747.8883 636.0227 271.1646
f 1264 1265 1266
v -739.2699 644.4134 271.1647
v -740.5647 638.1479 271.1652
v -744.1444 639.0045 271.1647
f 1267 1268 1269
v -744.1696 638.8927 271.1647
v -744.4805 638.9574 271.1647
v -744.1444 639.0045 271.1647
f 1270 1271 1272
v -744.4805 638.9574 271.1647
v -746.5549 641.7490 271.1642
v -742.8078 645.2009 271.1643
f 1273 1274 1275
v -742.8078 645.2009 271.1643
v -746.5549 641.7490 271.1642
v -745.6020 645.8394 271.1639
f 1276 1277 1278
v -744.1444 639.0045 271.1647
v -742.8078 645.2009 271.1643
v -741.5755 644.9196 271.1644
f 1279 1280 1281
v -741.5755 644.9196 271.1644
v -739.2699 644.4134 271.1647
v -744.1444 639.0045 271.1647
f 1282 1283 1284
v -741.5758 644.9199 273.7613
v -742.8078 645.2009 271.1643
v -745.6024 645.8398 274.6008
f 1285 1286 1287
v -745.6024 645.8398 274.6008
v -742.8078 645.2009 271.1643
v -745.6020 645.8394 271.1639
f 1288 1289 1290
v -742.8084 645.2017 277.3691
v -745.6024 645.8398 274.6008
v -745.6025 645.8401 276.6637
f 1291 1292 1293
v -741.5758 644.9199 273.7613
v -742.8084 645.2017 277.3691
v -741.5761 644.9203 277.0992
f 1294 1295 1296
v -741.5758 644.9199 273.7613
v -741.5755 644.9196 271.1644
v -742.8078 645.2009 271.1643
f 1297 1298 1299
v -745.6024 645.8398 274.6008
v -742.8084 645.2017 277.3691
v -741.5758 644.9199 273.7613
f 1300 1301 1302
v -744.1448 639.0051 275.8085
v -740.5652 638.1487 276.5960
v -744.0920 638.9932 277.3695
f 1303 1304 1305
v -740.5652 638.1487 276.5960
v -744.1445 639.0048 272.7126
v -740.5647 638.1479 271.1652
f 1306 1307 1308
v -744.1450 639.0054 277.3565
v -744.1448 639.0051 275.8085
v -744.0920 638.9932 277.3695
f 1309 1310 1311
v -744.1448 639.0051 275.8085
v -744.1445 639.0048 272.7126
v -740.5652 638.1487 276.5960
f 1312 1313 1314
v -744.1445 639.0048 272.7126
v -744.1444 639.0045 271.1647
v -740.5647 638.1479 271.1652
f 1315 1316 1317
v -745.6020 645.8394 271.1639
v -747.1493 639.2004 276.6212
v -746.1742 643.3866 276.6478
f 1318 1319 1320
v -746.1742 643.3866 276.6478
v -745.6025 645.8401 276.6637
v -745.6024 645.8398 274.6008
f 1321 1322 1323
v -744.4805 638.9574 271.1647
v -745.2025 635.4722 277.2778
v -745.2018 635.4715 271.1650
f 1324 1325 1326
v -744.1445 639.0048 272.7126
v -744.1703 638.8934 277.3555
v -744.1444 639.0045 271.1647
f 1327 1328 1329
v -741.5761 644.9203 277.0992
v -739.2705 644.4141 276.5955
v -739.2699 644.4134 271.1647
f 1330 1331 1332

g building_ID_48A34B48-8196-4482-88F6-197A4875A03C
v -1003.9846 635.7526 279.3273
v -1018.3490 637.0581 279.3249
v -983.1222 627.0478 279.3313
f 1333 1334 1335
v -964.2461 614.8913 279.3354
v -983.1222 627.0478 279.3313
v -1018.3490 637.0581 279.3249
f 1336 1337 1338
v -1003.3747 637.2159 279.3273
v -1016.1046 642.4320 279.3247
v -1003.9846 635.7526 279.3273
f 1339 1340 1341
v -1018.3490 637.0581 279.3249
v -1003.9846 635.7526 279.3273
v -1016.1046 642.4320 279.3247
f 1342 1343 1344
v -962.0377 620.2792 279.3352
v -962.0736 620.2934 279.3352
v -962.1119 620.2005 279.3352
f 1345 1346 1347
v -983.1222 627.0478 279.3313
v -962.1119 620.2005 279.3352
v -976.6484 626.2654 279.3324
f 1348 1349 1350
v -964.2461 614.8913 279.3354
v -962.0377 620.2792 279.3352
v -962.1119 620.2005 279.3352
f 1351 1352 1353
v -976.6484 626.2654 279.3324
v -982.4550 628.6449 279.3313
v -983.1222 627.0478 279.3313
f 1354 1355 1356
v -962.1119 620.2005 279.3352
v -983.1222 627.0478 279.3313
v -964.2461 614.8913 279.3354
f 1357 1358 1359
v -1003.3737 637.2152 272.5445
v -1003.3747 637.2159 279.3273
v -1003.9846 635.7526 279.3273
f 1360 1361 1362
v -1016.1036 642.4312 272.5419
v -1016.1046 642.4320 279.3247
v -1003.3747 637.2159 279.3273
f 1363 1364 1365
v -1018.3480 637.0573 272.5421
v -1018.3490 637.0581 279.3249
v -1016.1046 642.4320 279.3247
f 1366 1367 1368
v -964.2452 614.8904 272.5527
v -964.2461 614.8913 279.3354
v -1018.3490 637.0581 279.3249
f 1369 1370 1371
v -962.0367 620.2785 272.5525
v -962.0377 620.2792 279.3352
v -964.2461 614.8913 279.3354
f 1372 1373 1374
v -962.0727 620.2926 272.5525
v -962.0736 620.2934 279.3352
v -962.0377 620.2792 279.3352
f 1375 1376 1377
v -962.1110 620.1996 272.5525
v -962.1119 620.2005 279.3352
v -962.0736 620.2934 279.3352
f 1378 1379 1380
v -976.6475 626.2646 272.5497
v -976.6484 626.2654 279.3324
v -962.1119 620.2005 279.3352
f 1381 1382 1383
v -982.4540 628.6442 272.5486
v -982.4550 628.6449 279.3313
v -976.6484 626.2654 279.3324
f 1384 1385 1386
v -983.1213 627.0470 272.5486
v -983.1222 627.0478 279.3313
v -982.4550 628.6449 279.3313
f 1387 1388 1389
v -1003.9836 635.7517 272.5445
v -1003.9846 635.7526 279.3273
v -983.1213 627.0470 272.5486
f 1390 1391 1392
v -962.0367 620.2785 272.5525
v -964.2452 614.8904 272.5527
v -962.1110 620.1996 272.5525
f 1393 1394 1395
v -983.1213 627.0470 272.5486
v -976.6475 626.2646 272.5497
v -962.1110 620.1996 272.5525
f 1396 1397 1398
v -962.1110 620.1996 272.5525
v -962.0727 620.2926 272.5525
v -962.0367 620.2785 272.5525
f 1399 1400 1401
v -983.1213 627.0470 272.5486
v -962.1110 620.1996 272.5525
v -964.2452 614.8904 272.5527
f 1402 1403 1404
v -1003.9836 635.7517 272.5445
v -983.1213 627.0470 272.5486
v -1018.3480 637.0573 272.5421
f 1405 1406 1407
v -964.2452 614.8904 272.5527
v -1018.3480 637.0573 272.5421
v -983.1213 627.0470 272.5486
f 1408 1409 1410
v -1016.1036 642.4312 272.5419
v -1003.9836 635.7517 272.5445
v -1018.3480 637.0573 272.5421
f 1411 1412 1413
v -1003.9836 635.7517 272.5445
v -1016.1036 642.4312 272.5419
v -1003.3737 637.2152 272.5445
f 1414 1415 1416
v -976.6475 626.2646 272.5497
v -983.1213 627.0470 272.5486
v -982.4540 628.6442 272.5486
f 1417 1418 1419
v -1003.3737 637.2152 272.5445
v -1003.9846 635.7526 279.3273
v -1003.9836 635.7517 272.5445
f 1420 1421 1422
v -1016.1036 642.4312 272.5419
v -1003.3747 637.2159 279.3273
v -1003.3737 637.2152 272.5445
f 1423 1424 1425
v -1018.3480 637.0573 272.5421
v -1016.1046 642.4320 279.3247
v -1016.1036 642.4312 272.5419
f 1426 1427 1428
v -964.2452 614.8904 272.5527
v -1018.3490 637.0581 279.3249
v -1018.3480 637.0573 272.5421
f 1429 1430 1431
v -962.0367 620.2785 272.5525
v -964.2461 614.8913 279.3354
v -964.2452 614.8904 272.5527
f 1432 1433 1434
v -962.0727 620.2926 272.5525
v -962.0377 620.2792 279.3352
v -962.0367 620.2785 272.5525
f 1435 1436 1437
v -962.1110 620.1996 272.5525
v -962.0736 620.2934 279.3352
v -962.0727 620.2926 272.5525
f 1438 1439 1440
v -976.6475 626.2646 272.5497
v -962.1119 620.2005 279.3352
v -962.1110 620.1996 272.5525
f 1441 1442 1443
v -982.4540 628.6442 272.5486
v -976.6484 626.2654 279.3324
v -976.6475 626.2646 272.5497
f 1444 1445 1446
v -983.1213 627.0470 272.5486
v -982.4550 628.6449 279.3313
v -982.4540 628.6442 272.5486
f 1447 1448 1449
v -1003.9846 635.7526 279.3273
v -983.1222 627.0478 279.3313
v -983.1213 627.0470 272.5486
f 1450 1451 1452

g building_ID_47681902-6F01-482D-8BE3-AF2C8BD9E0E9
v -1100.0626 730.3351 279.0584
v -1096.9316 729.5335 277.3341
v -1095.0651 736.8285 277.3276
f 1453 1454 1455
v -1100.0626 730.3351 279.0584
v -1095.0651 736.8285 277.3276
v -1096.3485 744.9559 279.0574
f 1456 1457 1458
v -1093.2005 744.1163 277.3201
v -1096.3485 744.9559 279.0574
v -1095.0651 736.8285 277.3276
f 1459 1460 1461
v -1096.3485 744.9559 279.0574
v -1099.1093 745.6923 277.7748
v -1102.8285 731.0434 277.7769
f 1462 1463 1464
v -1096.3485 744.9559 279.0574
v -1102.8285 731.0434 277.7769
v -1100.0626 730.3351 279.0584
f 1465 1466 1467
v -1095.0651 736.8285 277.3276
v -1096.9306 729.5326 271.2604
v -1093.2005 744.1163 277.3201
f 1468 1469 1470
v -1096.9306 729.5326 271.2604
v -1095.0651 736.8285 277.3276
v -1096.9312 729.5332 275.0572
f 1471 1472 1473
v -1099.1082 745.6913 271.2581
v -1102.8275 731.0424 271.2592
v -1102.8279 731.0428 273.7031
f 1474 1475 1476
v -1102.8279 731.0428 273.7031
v -1102.8285 731.0434 277.7769
v -1099.1082 745.6913 271.2581
f 1477 1478 1479
v -1099.1082 745.6913 271.2581
v -1102.8285 731.0434 277.7769
v -1099.1093 745.6923 277.7748
f 1480 1481 1482
v -1099.1082 745.6913 271.2581
v -1100.0614 730.3341 271.2597
v -1102.8275 731.0424 271.2592
f 1483 1484 1485
v -1099.1082 745.6913 271.2581
v -1093.1995 744.1154 271.2593
v -1100.0614 730.3341 271.2597
f 1486 1487 1488
v -1096.9306 729.5326 271.2604
v -1100.0614 730.3341 271.2597
v -1093.1995 744.1154 271.2593
f 1489 1490 1491
v -1099.1093 745.6923 277.7748
v -1096.3485 744.9559 279.0574
v -1093.2005 744.1163 277.3201
f 1492 1493 1494
v -1093.2005 744.1163 277.3201
v -1093.1995 744.1154 271.2593
v -1099.1093 745.6923 277.7748
f 1495 1496 1497
v -1099.1093 745.6923 277.7748
v -1093.1995 744.1154 271.2593
v -1099.1082 745.6913 271.2581
f 1498 1499 1500
v -1096.9312 729.5332 275.0572
v -1102.8279 731.0428 273.7031
v -1100.0614 730.3341 271.2597
f 1501 1502 1503
v -1096.9312 729.5332 275.0572
v -1100.0614 730.3341 271.2597
v -1096.9306 729.5326 271.2604
f 1504 1505 1506
v -1100.0626 730.3351 279.0584
v -1096.9312 729.5332 275.0572
v -1096.9316 729.5335 277.3341
f 1507 1508 1509
v -1096.9312 729.5332 275.0572
v -1102.8285 731.0434 277.7769
v -1102.8279 731.0428 273.7031
f 1510 1511 1512
v -1102.8279 731.0428 273.7031
v -1102.8275 731.0424 271.2592
v -1100.0614 730.3341 271.2597
f 1513 1514 1515
v -1096.9312 729.5332 275.0572
v -1100.0626 730.3351 279.0584
v -1102.8285 731.0434 277.7769
f 1516 1517 1518
v -1093.2005 744.1163 277.3201
v -1096.9306 729.5326 271.2604
v -1093.1995 744.1154 271.2593
f 1519 1520 1521
v -1095.0651 736.8285 277.3276
v -1096.9316 729.5335 277.3341
v -1096.9312 729.5332 275.0572
f 1522 1523 1524

g building_ID_457F4C59-87A3-404B-B950-94155374FA23
v -1089.6504 755.3246 277.0364
v -1091.2769 748.4440 277.0730
v -1088.8247 747.8646 278.3653
f 1525 1526 1527
v -1087.1303 754.7291 278.3648
v -1089.6504 755.3246 277.0364
v -1088.8247 747.8646 278.3653
f 1528 1529 1530
v -1084.7287 754.1604 277.1524
v -1088.8247 747.8646 278.3653
v -1086.3551 747.2809 277.1189
f 1531 1532 1533
v -1088.8247 747.8646 278.3653
v -1084.7287 754.1604 277.1524
v -1087.1303 754.7291 278.3648
f 1534 1535 1536
v -1089.6501 755.3243 274.8674
v -1091.2759 748.4432 271.2252
v -1089.6504 755.3246 277.0364
f 1537 1538 1539
v -1089.6495 755.3238 271.2246
v -1091.2759 748.4432 271.2252
v -1089.6501 755.3243 274.8674
f 1540 1541 1542
v -1084.7283 754.1601 274.9534
v -1084.7287 754.1604 277.1524
v -1086.3551 747.2809 277.1189
f 1543 1544 1545
v -1084.7277 754.1596 271.2256
v -1084.7283 754.1601 274.9534
v -1086.3541 747.2801 271.2261
f 1546 1547 1548
v -1089.6495 755.3238 271.2246
v -1087.1291 754.7280 271.2251
v -1091.2759 748.4432 271.2252
f 1549 1550 1551
v -1084.7277 754.1596 271.2256
v -1086.3541 747.2801 271.2261
v -1087.1291 754.7280 271.2251
f 1552 1553 1554
v -1091.2759 748.4432 271.2252
v -1087.1291 754.7280 271.2251
v -1086.3541 747.2801 271.2261
f 1555 1556 1557
v -1089.6501 755.3243 274.8674
v -1084.7283 754.1601 274.9534
v -1087.1291 754.7280 271.2251
f 1558 1559 1560
v -1089.6501 755.3243 274.8674
v -1087.1291 754.7280 271.2251
v -1089.6495 755.3238 271.2246
f 1561 1562 1563
v -1087.1303 754.7291 278.3648
v -1089.6501 755.3243 274.8674
v -1089.6504 755.3246 277.0364
f 1564 1565 1566
v -1084.7283 754.1601 274.9534
v -1087.1303 754.7291 278.3648
v -1084.7287 754.1604 277.1524
f 1567 1568 1569
v -1084.7283 754.1601 274.9534
v -1084.7277 754.1596 271.2256
v -1087.1291 754.7280 271.2251
f 1570 1571 1572
v -1089.6501 755.3243 274.8674
v -1087.1303 754.7291 278.3648
v -1084.7283 754.1601 274.9534
f 1573 1574 1575
v -1086.3551 747.2809 277.1189
v -1088.8247 747.8646 278.3653
v -1091.2769 748.4440 277.0730
f 1576 1577 1578
v -1086.3551 747.2809 277.1189
v -1091.2769 748.4440 277.0730
v -1091.2759 748.4432 271.2252
f 1579 1580 1581
v -1086.3541 747.2801 271.2261
v -1086.3551 747.2809 277.1189
v -1091.2759 748.4432 271.2252
f 1582 1583 1584
v -1089.6504 755.3246 277.0364
v -1091.2759 748.4432 271.2252
v -1091.2769 748.4440 277.0730
f 1585 1586 1587
v -1084.7283 754.1601 274.9534
v -1086.3551 747.2809 277.1189
v -1086.3541 747.2801 271.2261
f 1588 1589 1590

g building_ID_4A2AF262-2865-4A5A-977F-718FB3476AD8
v -862.3167 708.7036 278.6363
v -865.1808 719.0220 277.7909
v -867.4392 709.9693 278.6365
f 1591 1592 1593
v -857.8677 707.6056 278.6360
v -859.7475 717.6805 277.7907
v -862.3167 708.7036 278.6363
f 1594 1595 1596
v -862.3167 708.7036 278.6363
v -859.7475 717.6805 277.7907
v -865.1808 719.0220 277.7909
f 1597 1598 1599
v -857.8677 707.6056 278.6360
v -854.3032 716.3349 277.7906
v -859.7475 717.6805 277.7907
f 1600 1601 1602
v -854.3032 716.3349 277.7906
v -857.8677 707.6056 278.6360
v -846.9451 704.9074 278.6358
f 1603 1604 1605
v -854.3032 716.3349 277.7906
v -846.9451 704.9074 278.6358
v -844.7077 713.9651 277.7901
f 1606 1607 1608
v -859.7475 717.6805 277.7907
v -865.1800 719.0211 271.1711
v -865.1808 719.0220 277.7909
f 1609 1610 1611
v -852.0649 715.7820 271.1732
v -857.5022 717.1246 271.1723
v -859.7475 717.6805 277.7907
f 1612 1613 1614
v -859.7475 717.6805 277.7907
v -857.5022 717.1246 271.1723
v -865.1800 719.0211 271.1711
f 1615 1616 1617
v -859.7475 717.6805 277.7907
v -854.3032 716.3349 277.7906
v -852.0649 715.7820 271.1732
f 1618 1619 1620
v -852.0649 715.7820 271.1732
v -854.3032 716.3349 277.7906
v -844.7069 713.9643 271.1744
f 1621 1622 1623
v -867.4383 709.9683 271.1718
v -867.4392 709.9693 278.6365
v -865.1808 719.0220 277.7909
f 1624 1625 1626
v -846.9441 704.9064 271.1751
v -846.9451 704.9074 278.6358
v -857.8677 707.6056 278.6360
f 1627 1628 1629
v -846.9441 704.9064 271.1751
v -857.8677 707.6056 278.6360
v -855.4834 707.0153 271.1737
f 1630 1631 1632
v -857.8677 707.6056 278.6360
v -862.3167 708.7036 278.6363
v -867.4383 709.9683 271.1718
f 1633 1634 1635
v -855.4834 707.0153 271.1737
v -857.8677 707.6056 278.6360
v -867.4383 709.9683 271.1718
f 1636 1637 1638
v -844.7069 713.9643 271.1744
v -844.7077 713.9651 277.7901
v -846.9441 704.9064 271.1751
f 1639 1640 1641
v -846.9441 704.9064 271.1751
v -855.4834 707.0153 271.1737
v -844.7069 713.9643 271.1744
f 1642 1643 1644
v -852.0649 715.7820 271.1732
v -844.7069 713.9643 271.1744
v -855.4834 707.0153 271.1737
f 1645 1646 1647
v -867.4383 709.9683 271.1718
v -865.1800 719.0211 271.1711
v -855.4834 707.0153 271.1737
f 1648 1649 1650
v -852.0649 715.7820 271.1732
v -855.4834 707.0153 271.1737
v -857.5022 717.1246 271.1723
f 1651 1652 1653
v -865.1800 719.0211 271.1711
v -857.5022 717.1246 271.1723
v -855.4834 707.0153 271.1737
f 1654 1655 1656
v -854.3032 716.3349 277.7906
v -844.7077 713.9651 277.7901
v -844.7069 713.9643 271.1744
f 1657 1658 1659
v -867.4383 709.9683 271.1718
v -865.1808 719.0220 277.7909
v -865.1800 719.0211 271.1711
f 1660 1661 1662
v -862.3167 708.7036 278.6363
v -867.4392 709.9693 278.6365
v -867.4383 709.9683 271.1718
f 1663 1664 1665
v -844.7077 713.9651 277.7901
v -846.9451 704.9074 278.6358
v -846.9441 704.9064 271.1751
f 1666 1667 1668
