# Grid Center: 2615200, 1263000
# Global Anchor: 7.64977475454284, 47.53283995868075, 0.0

g building_ID_549C595F-7976-4CC6-BEDD-A116DBBEBC97
v -556.9300 -1502.4911 362.9172
v -562.0720 -1502.4833 362.9167
v -562.1500 -1506.2181 362.9158
f 1 2 3
v -562.1500 -1506.2181 362.9158
v -556.9363 -1506.3241 362.9162
v -556.9300 -1502.4911 362.9172
f 4 5 6
v -562.1496 -1506.2170 357.6630
v -562.1500 -1506.2181 362.9158
v -562.0720 -1502.4833 362.9167
f 7 8 9
v -556.9358 -1506.3230 357.6634
v -556.9363 -1506.3241 362.9162
v -562.1500 -1506.2181 362.9158
f 10 11 12
v -556.9296 -1502.4899 357.6644
v -556.9300 -1502.4911 362.9172
v -556.9363 -1506.3241 362.9162
f 13 14 15
v -562.0715 -1502.4822 357.6639
v -562.0720 -1502.4833 362.9167
v -556.9300 -1502.4911 362.9172
f 16 17 18
v -556.9296 -1502.4899 357.6644
v -562.1496 -1506.2170 357.6630
v -562.0715 -1502.4822 357.6639
f 19 20 21
v -562.1496 -1506.2170 357.6630
v -556.9296 -1502.4899 357.6644
v -556.9358 -1506.3230 357.6634
f 22 23 24
v -562.1496 -1506.2170 357.6630
v -562.0720 -1502.4833 362.9167
v -562.0715 -1502.4822 357.6639
f 25 26 27
v -556.9358 -1506.3230 357.6634
v -562.1500 -1506.2181 362.9158
v -562.1496 -1506.2170 357.6630
f 28 29 30
v -556.9296 -1502.4899 357.6644
v -556.9363 -1506.3241 362.9162
v -556.9358 -1506.3230 357.6634
f 31 32 33
v -562.0715 -1502.4822 357.6639
v -556.9300 -1502.4911 362.9172
v -556.9296 -1502.4899 357.6644
f 34 35 36
