# Grid Center: 2615800, 1265200
# Global Anchor: 7.64977475454284, 47.53283995868075, 0.0

g building_ID_1730D94C-8C23-4534-A44A-80C454857A43
v -121.1299 521.1665 271.0833
v -118.5030 516.6835 271.0837
v -122.4036 518.6919 271.0835
f 1 2 3
v -118.5030 516.6835 271.0837
v -121.1299 521.1665 271.0833
v -120.1086 523.1497 271.0832
f 4 5 6
v -120.1086 523.1497 271.0832
v -117.2284 519.1590 271.0836
v -118.5030 516.6835 271.0837
f 7 8 9
v -116.2081 521.1412 271.0834
v -117.2284 519.1590 271.0836
v -120.1086 523.1497 271.0832
f 10 11 12
v -117.2284 519.1598 277.9333
v -122.4036 518.6925 276.9763
v -118.5030 516.6841 276.9764
f 13 14 15
v -121.1300 521.1672 277.9330
v -122.4036 518.6925 276.9763
v -117.2284 519.1598 277.9333
f 16 17 18
v -120.1086 523.1504 277.0110
v -117.2284 519.1598 277.9333
v -116.2081 521.1419 277.0112
f 19 20 21
v -117.2284 519.1598 277.9333
v -120.1086 523.1504 277.0110
v -121.1300 521.1672 277.9330
f 22 23 24
v -120.6970 517.8137 274.1225
v -122.4036 518.6925 276.9763
v -122.4036 518.6924 275.5033
f 25 26 27
v -118.5030 516.6835 271.0837
v -120.6970 517.8137 274.1225
v -122.4036 518.6919 271.0835
f 28 29 30
v -122.4036 518.6921 273.2934
v -122.4036 518.6919 271.0835
v -120.6970 517.8137 274.1225
f 31 32 33
v -120.1087 523.1501 274.7880
v -120.1086 523.1504 277.0110
v -116.2081 521.1412 271.0834
f 34 35 36
v -120.1087 523.1501 274.7880
v -122.4036 518.6921 273.2934
v -122.4036 518.6924 275.5033
f 37 38 39
v -122.4036 518.6921 273.2934
v -121.1299 521.1665 271.0833
v -122.4036 518.6919 271.0835
f 40 41 42
v -122.4036 518.6925 276.9763
v -121.1300 521.1672 277.9330
v -122.4036 518.6924 275.5033
f 43 44 45
v -122.4036 518.6924 275.5033
v -120.1086 523.1504 277.0110
v -120.1087 523.1501 274.7880
f 46 47 48
v -120.1086 523.1497 271.0832
v -121.1299 521.1665 271.0833
v -120.1087 523.1501 274.7880
f 49 50 51
v -120.1087 523.1501 274.7880
v -121.1299 521.1665 271.0833
v -122.4036 518.6921 273.2934
f 52 53 54
v -120.1086 523.1504 277.0110
v -122.4036 518.6924 275.5033
v -121.1300 521.1672 277.9330
f 55 56 57
v -116.2081 521.1415 273.3063
v -116.2081 521.1419 277.0112
v -118.5030 516.6841 276.9764
f 58 59 60
v -117.2284 519.1598 277.9333
v -118.5030 516.6841 276.9764
v -116.2081 521.1419 277.0112
f 61 62 63
v -116.2081 521.1415 273.3063
v -118.5030 516.6837 274.0296
v -117.2284 519.1590 271.0836
f 64 65 66
v -118.5030 516.6837 274.0296
v -116.2081 521.1415 273.3063
v -118.5030 516.6841 276.9764
f 67 68 69
v -117.2284 519.1590 271.0836
v -116.2081 521.1412 271.0834
v -116.2081 521.1415 273.3063
f 70 71 72
v -118.5030 516.6837 274.0296
v -118.5030 516.6835 271.0837
v -117.2284 519.1590 271.0836
f 73 74 75
v -118.5030 516.6841 276.9764
v -122.4036 518.6925 276.9763
v -120.6970 517.8137 274.1225
f 76 77 78
v -120.6970 517.8137 274.1225
v -118.5030 516.6837 274.0296
v -118.5030 516.6841 276.9764
f 79 80 81
v -118.5030 516.6837 274.0296
v -120.6970 517.8137 274.1225
v -118.5030 516.6835 271.0837
f 82 83 84
v -120.6970 517.8137 274.1225
v -122.4036 518.6924 275.5033
v -122.4036 518.6921 273.2934
f 85 86 87
v -120.1087 523.1501 274.7880
v -116.2081 521.1412 271.0834
v -120.1086 523.1497 271.0832
f 88 89 90
v -120.1086 523.1504 277.0110
v -116.2081 521.1419 277.0112
v -116.2081 521.1415 273.3063
f 91 92 93
v -116.2081 521.1415 273.3063
v -116.2081 521.1412 271.0834
v -120.1086 523.1504 277.0110
f 94 95 96

g building_ID_4A35057C-5DC9-4423-9961-7363D755AAB5
v -112.3127 497.8341 271.1353
v -108.1277 500.4209 271.1351
v -109.5595 496.7808 271.1354
f 97 98 99
v -108.1277 500.4209 271.1351
v -106.3107 513.5188 271.1341
v -105.1538 516.4606 271.1339
f 100 101 102
v -104.4137 498.9589 271.1353
v -108.1277 500.4209 271.1351
v -98.6615 513.9763 271.1342
f 103 104 105
v -105.1538 516.4606 271.1339
v -98.6615 513.9763 271.1342
v -108.1277 500.4209 271.1351
f 106 107 108
v -112.3127 497.8341 271.1353
v -106.3107 513.5188 271.1341
v -108.1277 500.4209 271.1351
f 109 110 111
v -108.1278 500.4215 277.6329
v -98.6616 513.9771 277.6320
v -105.1538 516.4614 277.6317
f 112 113 114
v -106.3107 513.5195 277.6319
v -108.1278 500.4215 277.6329
v -105.1538 516.4614 277.6317
f 115 116 117
v -108.1278 500.4215 277.6329
v -112.3127 497.8348 277.6331
v -109.5595 496.7814 277.6332
f 118 119 120
v -98.6616 513.9771 277.6320
v -108.1278 500.4215 277.6329
v -104.4137 498.9596 277.6331
f 121 122 123
v -106.3107 513.5195 277.6319
v -112.3127 497.8348 277.6331
v -108.1278 500.4215 277.6329
f 124 125 126
v -106.3107 513.5188 271.1341
v -106.3107 513.5195 277.6319
v -105.1538 516.4614 277.6317
f 127 128 129
v -112.3127 497.8341 271.1353
v -112.3127 497.8348 277.6331
v -106.3107 513.5195 277.6319
f 130 131 132
v -109.5595 496.7808 271.1354
v -109.5595 496.7814 277.6332
v -112.3127 497.8348 277.6331
f 133 134 135
v -108.1277 500.4209 271.1351
v -108.1278 500.4215 277.6329
v -109.5595 496.7814 277.6332
f 136 137 138
v -104.4137 498.9589 271.1353
v -104.4137 498.9596 277.6331
v -108.1278 500.4215 277.6329
f 139 140 141
v -98.6615 513.9763 271.1342
v -98.6616 513.9771 277.6320
v -104.4137 498.9596 277.6331
f 142 143 144
v -105.1538 516.4606 271.1339
v -105.1538 516.4614 277.6317
v -98.6616 513.9771 277.6320
f 145 146 147
v -106.3107 513.5188 271.1341
v -105.1538 516.4614 277.6317
v -105.1538 516.4606 271.1339
f 148 149 150
v -112.3127 497.8341 271.1353
v -106.3107 513.5195 277.6319
v -106.3107 513.5188 271.1341
f 151 152 153
v -109.5595 496.7808 271.1354
v -112.3127 497.8348 277.6331
v -112.3127 497.8341 271.1353
f 154 155 156
v -108.1277 500.4209 271.1351
v -109.5595 496.7814 277.6332
v -109.5595 496.7808 271.1354
f 157 158 159
v -104.4137 498.9589 271.1353
v -108.1278 500.4215 277.6329
v -108.1277 500.4209 271.1351
f 160 161 162
v -98.6615 513.9763 271.1342
v -104.4137 498.9596 277.6331
v -104.4137 498.9589 271.1353
f 163 164 165
v -105.1538 516.4606 271.1339
v -98.6616 513.9771 277.6320
v -98.6615 513.9763 271.1342
f 166 167 168

g building_ID_9AF8F76C-725D-43FF-AE12-4F6D201A1F61
v -127.3884 433.7014 281.5043
v -118.0056 430.6982 281.5047
v -117.7223 431.5815 281.0006
f 169 170 171
v -117.7223 431.5815 281.0006
v -127.1061 434.5846 281.0002
v -127.3884 433.7014 281.5043
f 172 173 174
v -127.7445 432.5884 281.8263
v -118.3626 429.5853 281.8267
v -118.0056 430.6982 281.5047
f 175 176 177
v -118.0056 430.6982 281.5047
v -127.3884 433.7014 281.5043
v -127.7445 432.5884 281.8263
f 178 179 180
v -118.7569 428.3504 281.9388
v -127.7445 432.5884 281.8263
v -128.1387 431.3545 281.9384
f 181 182 183
v -127.7445 432.5884 281.8263
v -118.7569 428.3504 281.9388
v -118.3626 429.5853 281.8267
f 184 185 186
v -128.1387 431.3545 281.9384
v -119.1522 427.1174 281.8269
v -118.7569 428.3504 281.9388
f 187 188 189
v -119.1522 427.1174 281.8269
v -128.1387 431.3545 281.9384
v -128.5331 430.1205 281.8265
f 190 191 192
v -117.5407 432.1479 280.3656
v -126.9246 435.1510 280.3652
v -117.7223 431.5815 281.0006
f 193 194 195
v -119.1522 427.1174 281.8269
v -128.5331 430.1205 281.8265
v -128.8900 429.0064 281.5046
f 196 197 198
v -128.8900 429.0064 281.5046
v -119.5082 426.0043 281.5049
v -119.1522 427.1174 281.8269
f 199 200 201
v -129.1714 428.1241 281.0006
v -119.7905 425.1220 281.0010
v -119.5082 426.0043 281.5049
f 202 203 204
v -119.5082 426.0043 281.5049
v -128.8900 429.0064 281.5046
v -129.1714 428.1241 281.0006
f 205 206 207
v -117.6757 430.2727 274.3329
v -117.6757 430.2733 279.6638
v -113.7442 429.0057 279.6639
f 208 209 210
v -117.6122 430.4686 274.3329
v -117.6123 430.4691 279.6638
v -117.6757 430.2733 279.6638
f 211 212 213
v -113.7442 429.0052 274.3330
v -113.7442 429.0057 279.6639
v -115.6248 423.1778 279.6642
f 214 215 216
v -118.0358 430.6037 274.3329
v -117.6757 430.2727 274.3329
v -115.6248 423.1773 274.3334
f 217 218 219
v -115.6248 423.1773 274.3334
v -117.6757 430.2727 274.3329
v -113.7442 429.0052 274.3330
f 220 221 222
v -117.6757 430.2727 274.3329
v -118.0358 430.6037 274.3329
v -117.6122 430.4686 274.3329
f 223 224 225
v -119.9640 424.5769 274.3332
v -118.0358 430.6037 274.3329
v -115.6248 423.1773 274.3334
f 226 227 228
v -113.7442 429.0057 279.6639
v -118.7569 428.3501 279.6639
v -119.1512 427.1192 279.6640
f 229 230 231
v -117.6757 430.2733 279.6638
v -118.0359 430.6042 279.6638
v -118.3626 429.5850 279.6638
f 232 233 234
v -118.7569 428.3501 279.6639
v -113.7442 429.0057 279.6639
v -118.3626 429.5850 279.6638
f 235 236 237
v -115.6248 423.1778 279.6642
v -119.7906 425.1219 279.6640
v -119.9640 424.5775 279.6640
f 238 239 240
v -119.1512 427.1192 279.6640
v -115.6248 423.1778 279.6642
v -113.7442 429.0057 279.6639
f 241 242 243
v -113.7442 429.0057 279.6639
v -117.6757 430.2733 279.6638
v -118.3626 429.5850 279.6638
f 244 245 246
v -117.6757 430.2733 279.6638
v -117.6123 430.4691 279.6638
v -118.0359 430.6042 279.6638
f 247 248 249
v -119.1512 427.1192 279.6640
v -119.7906 425.1219 279.6640
v -115.6248 423.1778 279.6642
f 250 251 252
v -118.0358 430.6037 274.3329
v -118.0359 430.6042 279.6638
v -117.6123 430.4691 279.6638
f 253 254 255
v -127.1010 434.5999 274.3174
v -117.5367 432.1603 274.3178
v -117.5558 432.1014 274.3178
f 256 257 258
v -119.9649 424.5769 274.3182
v -127.1010 434.5999 274.3174
v -117.5558 432.1014 274.3178
f 259 260 261
v -129.1713 428.1236 274.3178
v -128.6673 427.3842 274.3179
v -129.3387 427.6010 274.3178
f 262 263 264
v -128.8900 429.0058 274.3178
v -128.5330 430.1198 274.3177
v -119.9649 424.5769 274.3182
f 265 266 267
v -129.1713 428.1236 274.3178
v -128.8900 429.0058 274.3178
v -128.6673 427.3842 274.3179
f 268 269 270
v -119.9649 424.5769 274.3182
v -128.5330 430.1198 274.3177
v -127.7444 432.5867 274.3175
f 271 272 273
v -127.7444 432.5867 274.3175
v -127.1010 434.5999 274.3174
v -119.9649 424.5769 274.3182
f 274 275 276
v -126.9114 435.1914 274.3174
v -117.5367 432.1603 274.3178
v -127.1010 434.5999 274.3174
f 277 278 279
v -128.6673 427.3842 274.3179
v -128.8900 429.0058 274.3178
v -119.9649 424.5769 274.3182
f 280 281 282
v -126.9246 435.1510 280.3652
v -117.5367 432.1609 280.3196
v -126.9115 435.1919 280.2192
f 283 284 285
v -117.5407 432.1479 280.3656
v -117.5367 432.1609 280.3196
v -126.9246 435.1510 280.3652
f 286 287 288
v -119.7905 425.1220 281.0010
v -129.3388 427.6015 280.4166
v -119.9640 424.5775 280.3920
f 289 290 291
v -129.1714 428.1241 281.0006
v -129.3388 427.6015 280.4166
v -119.7905 425.1220 281.0010
f 292 293 294
v -117.5367 432.1609 280.3196
v -117.5367 432.1603 274.3178
v -126.9114 435.1914 274.3174
f 295 296 297
v -126.9115 435.1919 280.2192
v -117.5367 432.1609 280.3196
v -126.9114 435.1914 274.3174
f 298 299 300
v -115.6248 423.1773 274.3334
v -115.6248 423.1778 279.6642
v -119.9640 424.5769 274.3332
f 301 302 303
v -119.9640 424.5775 279.6640
v -119.9640 424.5769 274.3332
v -115.6248 423.1778 279.6642
f 304 305 306
v -119.9640 424.5775 279.6640
v -128.6673 427.3842 274.3179
v -119.9640 424.5769 274.3332
f 307 308 309
v -129.3388 427.6015 280.4166
v -119.9640 424.5775 279.6640
v -119.9640 424.5775 280.3920
f 310 311 312
v -128.6673 427.3842 274.3179
v -119.9649 424.5769 274.3182
v -119.9640 424.5769 274.3332
f 313 314 315
v -129.3388 427.6015 280.4166
v -129.3387 427.6010 274.3178
v -128.6673 427.3842 274.3179
f 316 317 318
v -129.3388 427.6015 280.4166
v -128.6673 427.3842 274.3179
v -119.9640 424.5775 279.6640
f 319 320 321
v -129.3387 427.6010 274.3178
v -127.7445 432.5884 281.8263
v -129.1713 428.1236 274.3178
f 322 323 324
v -127.7445 432.5884 281.8263
v -128.8900 429.0058 274.3178
v -129.1713 428.1236 274.3178
f 325 326 327
v -129.3387 427.6010 274.3178
v -129.3388 427.6015 280.4166
v -128.5331 430.1205 281.8265
f 328 329 330
v -127.3884 433.7014 281.5043
v -128.5330 430.1198 274.3177
v -128.8900 429.0058 274.3178
f 331 332 333
v -128.5330 430.1198 274.3177
v -126.9115 435.1919 280.2192
v -127.7444 432.5867 274.3175
f 334 335 336
v -127.1010 434.5999 274.3174
v -127.7444 432.5867 274.3175
v -126.9115 435.1919 280.2192
f 337 338 339
v -129.1714 428.1241 281.0006
v -128.8900 429.0064 281.5046
v -129.3388 427.6015 280.4166
f 340 341 342
v -129.3387 427.6010 274.3178
v -128.5331 430.1205 281.8265
v -128.1387 431.3545 281.9384
f 343 344 345
v -127.7445 432.5884 281.8263
v -127.3884 433.7014 281.5043
v -128.8900 429.0058 274.3178
f 346 347 348
v -127.7445 432.5884 281.8263
v -129.3387 427.6010 274.3178
v -128.1387 431.3545 281.9384
f 349 350 351
v -127.3884 433.7014 281.5043
v -127.1061 434.5846 281.0002
v -128.5330 430.1198 274.3177
f 352 353 354
v -126.9246 435.1510 280.3652
v -126.9115 435.1919 280.2192
v -127.1061 434.5846 281.0002
f 355 356 357
v -126.9115 435.1919 280.2192
v -126.9114 435.1914 274.3174
v -127.1010 434.5999 274.3174
f 358 359 360
v -128.5330 430.1198 274.3177
v -127.1061 434.5846 281.0002
v -126.9115 435.1919 280.2192
f 361 362 363
v -129.3388 427.6015 280.4166
v -128.8900 429.0064 281.5046
v -128.5331 430.1205 281.8265
f 364 365 366
v -118.7569 428.3501 279.6639
v -118.7569 428.3504 281.9388
v -119.1522 427.1174 281.8269
f 367 368 369
v -118.3626 429.5850 279.6638
v -118.3626 429.5853 281.8267
v -118.7569 428.3501 279.6639
f 370 371 372
v -118.7569 428.3504 281.9388
v -118.7569 428.3501 279.6639
v -118.3626 429.5853 281.8267
f 373 374 375
v -118.7569 428.3501 279.6639
v -119.1522 427.1174 281.8269
v -119.1512 427.1192 279.6640
f 376 377 378
v -119.1512 427.1192 279.6640
v -119.5082 426.0043 281.5049
v -119.7905 425.1220 281.0010
f 379 380 381
v -119.1512 427.1192 279.6640
v -119.7905 425.1220 281.0010
v -119.7906 425.1219 279.6640
f 382 383 384
v -119.1522 427.1174 281.8269
v -119.5082 426.0043 281.5049
v -119.1512 427.1192 279.6640
f 385 386 387
v -117.7223 431.5815 281.0006
v -118.0359 430.6042 279.6638
v -117.5407 432.1479 280.3656
f 388 389 390
v -117.5407 432.1479 280.3656
v -118.0359 430.6042 279.6638
v -117.5367 432.1609 280.3196
f 391 392 393
v -118.0359 430.6042 279.6638
v -117.7223 431.5815 281.0006
v -118.0056 430.6982 281.5047
f 394 395 396
v -118.0056 430.6982 281.5047
v -118.3626 429.5850 279.6638
v -118.0359 430.6042 279.6638
f 397 398 399
v -118.0359 430.6042 279.6638
v -117.5558 432.1014 274.3178
v -117.5367 432.1603 274.3178
f 400 401 402
v -117.5367 432.1609 280.3196
v -118.0359 430.6042 279.6638
v -117.5367 432.1603 274.3178
f 403 404 405
v -118.3626 429.5850 279.6638
v -118.0056 430.6982 281.5047
v -118.3626 429.5853 281.8267
f 406 407 408
v -119.7906 425.1219 279.6640
v -119.9640 424.5775 280.3920
v -119.9640 424.5775 279.6640
f 409 410 411
v -119.9649 424.5769 274.3182
v -118.0358 430.6037 274.3329
v -119.9640 424.5769 274.3332
f 412 413 414
v -119.9649 424.5769 274.3182
v -117.5558 432.1014 274.3178
v -118.0358 430.6037 274.3329
f 415 416 417
v -118.0358 430.6037 274.3329
v -117.5558 432.1014 274.3178
v -118.0359 430.6042 279.6638
f 418 419 420
v -119.9640 424.5775 280.3920
v -119.7906 425.1219 279.6640
v -119.7905 425.1220 281.0010
f 421 422 423
v -126.9246 435.1510 280.3652
v -127.1061 434.5846 281.0002
v -117.7223 431.5815 281.0006
f 424 425 426
v -117.6757 430.2727 274.3329
v -113.7442 429.0057 279.6639
v -113.7442 429.0052 274.3330
f 427 428 429
v -117.6122 430.4686 274.3329
v -117.6757 430.2733 279.6638
v -117.6757 430.2727 274.3329
f 430 431 432
v -113.7442 429.0052 274.3330
v -115.6248 423.1778 279.6642
v -115.6248 423.1773 274.3334
f 433 434 435
v -118.0358 430.6037 274.3329
v -117.6123 430.4691 279.6638
v -117.6122 430.4686 274.3329
f 436 437 438

g building_ID_47D49DFB-D23F-4FBB-8670-D34F36138688
v -129.5281 345.4183 283.6384
v -121.7991 343.2386 283.6387
v -129.0305 346.7810 283.6384
f 439 440 441
v -119.6093 351.0057 283.6383
v -129.0305 346.7810 283.6384
v -121.7991 343.2386 283.6387
f 442 443 444
v -129.1354 346.8113 283.6384
v -129.5281 345.4183 283.6384
v -129.0305 346.7810 283.6384
f 445 446 447
v -119.6093 351.0057 283.6383
v -127.1453 353.2159 283.6380
v -129.0305 346.7810 283.6384
f 448 449 450
v -127.1452 353.2151 273.5834
v -127.1453 353.2159 283.6380
v -119.6093 351.0057 283.6383
f 451 452 453
v -129.5281 345.4183 282.8794
v -129.5281 345.4183 283.6384
v -129.1354 346.8113 283.6384
f 454 455 456
v -121.7991 343.2385 282.8797
v -121.7991 343.2386 283.6387
v -129.5281 345.4183 283.6384
f 457 458 459
v -132.5578 339.1667 273.5841
v -132.5578 339.1675 282.8797
v -130.2306 347.1331 282.8793
f 460 461 462
v -123.9837 336.6528 273.5844
v -123.9837 336.6535 282.8800
v -132.5578 339.1675 282.8797
f 463 464 465
v -108.8932 332.3984 273.5848
v -108.8933 332.3991 282.8805
v -123.9837 336.6535 282.8800
f 466 467 468
v -106.8741 339.5579 273.5846
v -106.8741 339.5586 282.8802
v -108.8933 332.3991 282.8805
f 469 470 471
v -114.6618 341.8417 273.5843
v -114.6619 341.8425 282.8799
v -106.8741 339.5586 282.8802
f 472 473 474
v -121.6385 343.8084 273.5841
v -121.6376 343.8091 282.8797
v -114.6618 341.8417 273.5843
f 475 476 477
v -127.1452 353.2151 273.5834
v -129.0304 346.7801 273.5838
v -127.1453 353.2159 283.6380
f 478 479 480
v -129.0305 346.7810 283.6384
v -127.1453 353.2159 283.6380
v -129.0304 346.7801 273.5838
f 481 482 483
v -119.6092 351.0049 273.5837
v -119.6093 351.0057 283.6383
v -121.3558 344.8106 273.5840
f 484 485 486
v -121.6376 343.8091 282.8797
v -121.3558 344.8106 273.5840
v -119.6093 351.0057 283.6383
f 487 488 489
v -121.6376 343.8091 282.8797
v -121.7991 343.2386 283.6387
v -121.7991 343.2385 282.8797
f 490 491 492
v -121.3558 344.8106 273.5840
v -121.6376 343.8091 282.8797
v -121.6385 343.8084 273.5841
f 493 494 495
v -119.6093 351.0057 283.6383
v -121.7991 343.2386 283.6387
v -121.6376 343.8091 282.8797
f 496 497 498
v -129.5281 345.4183 282.8794
v -132.5578 339.1675 282.8797
v -123.9837 336.6535 282.8800
f 499 500 501
v -129.1354 346.8112 282.8794
v -130.2306 347.1331 282.8793
v -129.5281 345.4183 282.8794
f 502 503 504
v -132.5578 339.1675 282.8797
v -129.5281 345.4183 282.8794
v -130.2306 347.1331 282.8793
f 505 506 507
v -121.7991 343.2385 282.8797
v -129.5281 345.4183 282.8794
v -123.9837 336.6535 282.8800
f 508 509 510
v -121.7991 343.2385 282.8797
v -123.9837 336.6535 282.8800
v -114.6619 341.8425 282.8799
f 511 512 513
v -108.8933 332.3991 282.8805
v -114.6619 341.8425 282.8799
v -123.9837 336.6535 282.8800
f 514 515 516
v -121.6376 343.8091 282.8797
v -121.7991 343.2385 282.8797
v -114.6619 341.8425 282.8799
f 517 518 519
v -106.8741 339.5586 282.8802
v -114.6619 341.8425 282.8799
v -108.8933 332.3991 282.8805
f 520 521 522
v -119.6092 351.0049 273.5837
v -129.0304 346.7801 273.5838
v -127.1452 353.2151 273.5834
f 523 524 525
v -121.3558 344.8106 273.5840
v -129.0304 346.7801 273.5838
v -119.6092 351.0049 273.5837
f 526 527 528
v -132.5578 339.1667 273.5841
v -130.2305 347.1324 273.5837
v -129.1353 346.8105 273.5838
f 529 530 531
v -108.8932 332.3984 273.5848
v -114.6618 341.8417 273.5843
v -106.8741 339.5579 273.5846
f 532 533 534
v -123.9837 336.6528 273.5844
v -114.6618 341.8417 273.5843
v -108.8932 332.3984 273.5848
f 535 536 537
v -132.5578 339.1667 273.5841
v -129.0304 346.7801 273.5838
v -121.6385 343.8084 273.5841
f 538 539 540
v -121.6385 343.8084 273.5841
v -129.0304 346.7801 273.5838
v -121.3558 344.8106 273.5840
f 541 542 543
v -121.6385 343.8084 273.5841
v -123.9837 336.6528 273.5844
v -132.5578 339.1667 273.5841
f 544 545 546
v -123.9837 336.6528 273.5844
v -121.6385 343.8084 273.5841
v -114.6618 341.8417 273.5843
f 547 548 549
v -129.1353 346.8105 273.5838
v -129.0304 346.7801 273.5838
v -132.5578 339.1667 273.5841
f 550 551 552
v -129.1354 346.8112 282.8794
v -129.1353 346.8105 273.5838
v -130.2306 347.1331 282.8793
f 553 554 555
v -130.2306 347.1331 282.8793
v -129.1353 346.8105 273.5838
v -130.2305 347.1324 273.5837
f 556 557 558
v -129.1353 346.8105 273.5838
v -129.1354 346.8112 282.8794
v -129.0304 346.7801 273.5838
f 559 560 561
v -129.0305 346.7810 283.6384
v -129.0304 346.7801 273.5838
v -129.1354 346.8112 282.8794
f 562 563 564
v -129.1354 346.8113 283.6384
v -129.0305 346.7810 283.6384
v -129.1354 346.8112 282.8794
f 565 566 567
v -127.1452 353.2151 273.5834
v -119.6093 351.0057 283.6383
v -119.6092 351.0049 273.5837
f 568 569 570
v -129.5281 345.4183 282.8794
v -129.1354 346.8113 283.6384
v -129.1354 346.8112 282.8794
f 571 572 573
v -121.7991 343.2385 282.8797
v -129.5281 345.4183 283.6384
v -129.5281 345.4183 282.8794
f 574 575 576
v -132.5578 339.1667 273.5841
v -130.2306 347.1331 282.8793
v -130.2305 347.1324 273.5837
f 577 578 579
v -123.9837 336.6528 273.5844
v -132.5578 339.1675 282.8797
v -132.5578 339.1667 273.5841
f 580 581 582
v -108.8932 332.3984 273.5848
v -123.9837 336.6535 282.8800
v -123.9837 336.6528 273.5844
f 583 584 585
v -106.8741 339.5579 273.5846
v -108.8933 332.3991 282.8805
v -108.8932 332.3984 273.5848
f 586 587 588
v -114.6618 341.8417 273.5843
v -106.8741 339.5586 282.8802
v -106.8741 339.5579 273.5846
f 589 590 591
v -121.6376 343.8091 282.8797
v -114.6619 341.8425 282.8799
v -114.6618 341.8417 273.5843
f 592 593 594

g building_ID_B8AFAEA2-9FBD-4EF0-93F4-479FCB5CB9EA
v -262.4984 378.6391 279.0098
v -270.4355 366.6325 279.0101
v -261.9942 364.1739 279.0106
f 595 596 597
v -262.4984 378.6391 279.0098
v -261.9942 364.1739 279.0106
v -258.6586 375.6299 279.0101
f 598 599 600
v -262.4984 378.6391 279.0098
v -258.6309 391.9185 279.0091
v -266.4801 380.2148 279.0095
f 601 602 603
v -262.6556 393.0974 279.0089
v -266.4801 380.2148 279.0095
v -258.6309 391.9185 279.0091
f 604 605 606
v -270.4355 366.6325 279.0101
v -262.4984 378.6391 279.0098
v -266.4801 380.2148 279.0095
f 607 608 609
v -258.6586 375.6299 279.0101
v -258.1508 377.3725 279.0100
v -262.4984 378.6391 279.0098
f 610 611 612
v -266.4799 380.2143 272.5457
v -266.4801 380.2148 279.0095
v -262.6556 393.0974 279.0089
f 613 614 615
v -270.4353 366.6320 272.5463
v -270.4355 366.6325 279.0101
v -266.4801 380.2148 279.0095
f 616 617 618
v -244.4625 384.6831 284.1299
v -247.9234 372.7985 284.1305
v -221.9639 365.2390 284.1319
f 619 620 621
v -217.6876 379.9244 284.1312
v -244.4625 384.6831 284.1299
v -221.9639 365.2390 284.1319
f 622 623 624
v -249.1468 386.0477 284.1296
v -244.4625 384.6831 284.1299
v -248.3172 388.8974 284.1295
f 625 626 627
v -217.6876 379.9244 284.1312
v -248.3172 388.8974 284.1295
v -244.4625 384.6831 284.1299
f 628 629 630
v -217.6874 379.9234 272.5476
v -217.6876 379.9244 284.1312
v -221.9639 365.2390 284.1319
f 631 632 633
v -221.9637 365.2381 272.5483
v -221.9639 365.2390 284.1319
v -247.9234 372.7985 284.1305
f 634 635 636
v -251.3385 361.0740 311.4380
v -249.0071 369.0807 311.4377
v -259.6637 372.1823 311.4371
f 637 638 639
v -259.6637 372.1823 311.4371
v -261.9951 364.1766 311.4374
v -251.3385 361.0740 311.4380
f 640 641 642
v -249.0071 369.0807 312.0057
v -244.4633 384.6855 312.0049
v -255.1199 387.7890 312.0043
f 643 644 645
v -255.1199 387.7890 312.0043
v -259.6637 372.1823 312.0051
v -249.0071 369.0807 312.0057
f 646 647 648
v -249.1475 386.0495 306.3168
v -248.3178 388.8993 306.3167
v -255.1197 387.7885 306.3165
f 649 650 651
v -258.6316 391.9209 306.3161
v -255.1197 387.7885 306.3165
v -248.3178 388.8993 306.3167
f 652 653 654
v -258.1516 377.3747 306.3170
v -255.1197 387.7885 306.3165
v -262.4992 378.6414 306.3168
f 655 656 657
v -258.6316 391.9209 306.3161
v -262.4992 378.6414 306.3168
v -255.1197 387.7885 306.3165
f 658 659 660
v -249.0071 369.0807 311.4377
v -249.0071 369.0807 312.0057
v -259.6637 372.1823 312.0051
f 661 662 663
v -255.1199 387.7890 312.0043
v -249.1475 386.0495 306.3168
v -255.1197 387.7885 306.3165
f 664 665 666
v -244.4625 384.6831 284.1299
v -249.1475 386.0495 306.3168
v -244.4633 384.6855 312.0049
f 667 668 669
v -255.1199 387.7890 312.0043
v -244.4633 384.6855 312.0049
v -249.1475 386.0495 306.3168
f 670 671 672
v -249.1468 386.0477 284.1296
v -249.1475 386.0495 306.3168
v -244.4625 384.6831 284.1299
f 673 674 675
v -262.4984 378.6391 279.0098
v -262.4992 378.6414 306.3168
v -258.6309 391.9185 279.0091
f 676 677 678
v -258.1508 377.3725 279.0100
v -258.1516 377.3747 306.3170
v -262.4992 378.6414 306.3168
f 679 680 681
v -248.3172 388.8974 284.1295
v -248.3178 388.8993 306.3167
v -249.1475 386.0495 306.3168
f 682 683 684
v -254.0033 361.8470 272.5473
v -251.3375 361.0709 272.5474
v -251.3385 361.0740 311.4380
f 685 686 687
v -261.9951 364.1766 311.4374
v -254.0033 361.8470 272.5473
v -251.3385 361.0740 311.4380
f 688 689 690
v -254.0033 361.8470 272.5473
v -261.9951 364.1766 311.4374
v -261.9942 364.1739 279.0106
f 691 692 693
v -261.9942 364.1739 279.0106
v -270.4355 366.6325 279.0101
v -270.4353 366.6320 272.5463
f 694 695 696
v -254.0033 361.8470 272.5473
v -261.9942 364.1739 279.0106
v -270.4353 366.6320 272.5463
f 697 698 699
v -247.9234 372.7985 284.1305
v -244.4625 384.6831 284.1299
v -244.4633 384.6855 312.0049
f 700 701 702
v -247.9231 372.7976 272.5469
v -247.9234 372.7985 284.1305
v -247.9997 372.5367 272.5469
f 703 704 705
v -249.0061 369.0775 272.5471
v -247.9997 372.5367 272.5469
v -247.9234 372.7985 284.1305
f 706 707 708
v -247.9234 372.7985 284.1305
v -244.4633 384.6855 312.0049
v -249.0071 369.0807 311.4377
f 709 710 711
v -244.4633 384.6855 312.0049
v -249.0071 369.0807 312.0057
v -249.0071 369.0807 311.4377
f 712 713 714
v -249.0061 369.0775 272.5471
v -247.9234 372.7985 284.1305
v -251.3375 361.0709 272.5474
f 715 716 717
v -251.3375 361.0709 272.5474
v -247.9234 372.7985 284.1305
v -251.3385 361.0740 311.4380
f 718 719 720
v -249.0071 369.0807 311.4377
v -251.3385 361.0740 311.4380
v -247.9234 372.7985 284.1305
f 721 722 723
v -248.3172 388.8974 284.1295
v -249.1113 389.1295 272.5459
v -258.6309 391.9185 279.0091
f 724 725 726
v -262.6556 393.0974 279.0089
v -258.6309 391.9185 279.0091
v -262.6554 393.0968 272.5451
f 727 728 729
v -258.6309 391.9185 279.0091
v -249.1113 389.1295 272.5459
v -262.6554 393.0968 272.5451
f 730 731 732
v -248.3172 388.8974 284.1295
v -258.6309 391.9185 279.0091
v -258.6316 391.9209 306.3161
f 733 734 735
v -258.6316 391.9209 306.3161
v -248.3178 388.8993 306.3167
v -248.3172 388.8974 284.1295
f 736 737 738
v -248.3172 388.8974 284.1295
v -217.6876 379.9244 284.1312
v -246.3005 388.3059 272.5460
f 739 740 741
v -248.3172 388.8974 284.1295
v -246.3005 388.3059 272.5460
v -249.1113 389.1295 272.5459
f 742 743 744
v -254.0033 361.8470 272.5473
v -266.4799 380.2143 272.5457
v -249.0061 369.0775 272.5471
f 745 746 747
v -249.0061 369.0775 272.5471
v -251.3375 361.0709 272.5474
v -254.0033 361.8470 272.5473
f 748 749 750
v -247.9997 372.5367 272.5469
v -249.0061 369.0775 272.5471
v -266.4799 380.2143 272.5457
f 751 752 753
v -270.4353 366.6320 272.5463
v -266.4799 380.2143 272.5457
v -254.0033 361.8470 272.5473
f 754 755 756
v -247.9231 372.7976 272.5469
v -266.4799 380.2143 272.5457
v -249.1113 389.1295 272.5459
f 757 758 759
v -262.6554 393.0968 272.5451
v -249.1113 389.1295 272.5459
v -266.4799 380.2143 272.5457
f 760 761 762
v -221.9637 365.2381 272.5483
v -247.9231 372.7976 272.5469
v -217.6874 379.9234 272.5476
f 763 764 765
v -246.3005 388.3059 272.5460
v -217.6874 379.9234 272.5476
v -247.9231 372.7976 272.5469
f 766 767 768
v -247.9231 372.7976 272.5469
v -249.1113 389.1295 272.5459
v -246.3005 388.3059 272.5460
f 769 770 771
v -247.9997 372.5367 272.5469
v -266.4799 380.2143 272.5457
v -247.9231 372.7976 272.5469
f 772 773 774
v -258.1516 377.3747 306.3170
v -258.6586 375.6299 279.0101
v -261.9942 364.1739 279.0106
f 775 776 777
v -261.9942 364.1739 279.0106
v -261.9951 364.1766 311.4374
v -258.1516 377.3747 306.3170
f 778 779 780
v -261.9951 364.1766 311.4374
v -259.6637 372.1823 311.4371
v -258.1516 377.3747 306.3170
f 781 782 783
v -259.6637 372.1823 311.4371
v -259.6637 372.1823 312.0051
v -258.1516 377.3747 306.3170
f 784 785 786
v -255.1197 387.7885 306.3165
v -258.1516 377.3747 306.3170
v -255.1199 387.7890 312.0043
f 787 788 789
v -259.6637 372.1823 312.0051
v -255.1199 387.7890 312.0043
v -258.1516 377.3747 306.3170
f 790 791 792
v -258.6586 375.6299 279.0101
v -258.1516 377.3747 306.3170
v -258.1508 377.3725 279.0100
f 793 794 795
v -266.4799 380.2143 272.5457
v -262.6556 393.0974 279.0089
v -262.6554 393.0968 272.5451
f 796 797 798
v -270.4353 366.6320 272.5463
v -266.4801 380.2148 279.0095
v -266.4799 380.2143 272.5457
f 799 800 801
v -217.6874 379.9234 272.5476
v -221.9639 365.2390 284.1319
v -221.9637 365.2381 272.5483
f 802 803 804
v -221.9637 365.2381 272.5483
v -247.9234 372.7985 284.1305
v -247.9231 372.7976 272.5469
f 805 806 807
v -249.0071 369.0807 311.4377
v -259.6637 372.1823 312.0051
v -259.6637 372.1823 311.4371
f 808 809 810
v -262.4992 378.6414 306.3168
v -258.6316 391.9209 306.3161
v -258.6309 391.9185 279.0091
f 811 812 813
v -258.1508 377.3725 279.0100
v -262.4992 378.6414 306.3168
v -262.4984 378.6391 279.0098
f 814 815 816
v -248.3172 388.8974 284.1295
v -249.1475 386.0495 306.3168
v -249.1468 386.0477 284.1296
f 817 818 819
v -217.6876 379.9244 284.1312
v -217.6874 379.9234 272.5476
v -246.3005 388.3059 272.5460
f 820 821 822

g building_ID_97C0F93D-9E55-4805-8EED-3EC18407F37C
v -281.8915 301.3957 287.0217
v -286.7772 303.3737 287.0533
v -280.2496 300.6582 287.0538
f 823 824 825
v -286.7772 303.3737 287.0533
v -281.8915 301.3957 287.0217
v -283.8782 302.2879 286.9825
f 826 827 828
v -286.6877 303.5505 286.9283
v -286.7772 303.3737 287.0533
v -283.8782 302.2879 286.9825
f 829 830 831
v -286.6875 303.5499 279.9996
v -286.7770 303.3732 279.9996
v -286.7772 303.3737 287.0533
f 832 833 834
v -286.6875 303.5499 279.9996
v -286.7772 303.3737 287.0533
v -286.6877 303.5505 286.9283
f 835 836 837
v -280.2493 300.6577 280.0001
v -280.2496 300.6582 287.0538
v -286.7772 303.3737 287.0533
f 838 839 840
v -283.8782 302.2879 286.9825
v -286.6875 303.5499 279.9996
v -286.6877 303.5505 286.9283
f 841 842 843
v -282.4017 301.6245 279.9999
v -286.6875 303.5499 279.9996
v -283.8782 302.2879 286.9825
f 844 845 846
v -283.8782 302.2879 286.9825
v -281.8915 301.3957 287.0217
v -282.4017 301.6245 279.9999
f 847 848 849
v -280.2496 300.6582 287.0538
v -280.2493 300.6577 280.0001
v -281.8915 301.3957 287.0217
f 850 851 852
v -286.7770 303.3732 279.9996
v -282.4017 301.6245 279.9999
v -280.2493 300.6577 280.0001
f 853 854 855
v -286.6875 303.5499 279.9996
v -282.4017 301.6245 279.9999
v -286.7770 303.3732 279.9996
f 856 857 858
v -280.2493 300.6577 280.0001
v -286.7772 303.3737 287.0533
v -286.7770 303.3732 279.9996
f 859 860 861
v -280.2493 300.6577 280.0001
v -282.4017 301.6245 279.9999
v -281.8915 301.3957 287.0217
f 862 863 864

g building_ID_63BAC188-B9CB-4FC9-BB69-710E967492C5
v -281.3371 298.6113 289.3467
v -279.3476 300.2528 287.0808
v -279.8850 300.4943 287.0648
f 865 866 867
v -281.3371 298.6113 289.3467
v -278.7914 300.0023 287.0979
v -279.3476 300.2528 287.0808
f 868 869 870
v -286.8345 303.2618 287.1773
v -280.2496 300.6582 287.0538
v -286.7772 303.3737 287.0533
f 871 872 873
v -281.3371 298.6113 289.3467
v -280.2496 300.6582 287.0538
v -286.0568 300.5750 289.3464
f 874 875 876
v -286.8345 303.2618 287.1773
v -286.0568 300.5750 289.3464
v -280.2496 300.6582 287.0538
f 877 878 879
v -279.8850 300.4943 287.0648
v -280.2496 300.6582 287.0538
v -281.3371 298.6113 289.3467
f 880 881 882
v -281.3371 298.6113 289.3467
v -286.0568 300.5750 289.3464
v -288.6303 299.2077 287.0535
f 883 884 885
v -288.6303 299.2077 287.0535
v -280.4925 295.8209 287.0540
v -281.3371 298.6113 289.3467
f 886 887 888
v -286.0568 300.5750 289.3464
v -287.4326 302.0865 287.0534
v -288.6303 299.2077 287.0535
f 889 890 891
v -287.4326 302.0865 287.0534
v -286.0568 300.5750 289.3464
v -286.8345 303.2618 287.1773
f 892 893 894
v -288.8055 299.1361 286.9685
v -288.6303 299.2077 287.0535
v -287.4326 302.0865 287.0534
f 895 896 897
v -287.4326 302.0865 287.0534
v -288.9094 299.1824 286.8974
v -288.8055 299.1361 286.9685
f 898 899 900
v -278.7584 299.9882 287.0539
v -280.4925 295.8209 287.0540
v -280.3047 295.3704 286.8360
f 901 902 903
v -278.7584 299.9882 287.0539
v -280.3047 295.3704 286.8360
v -278.2959 299.7799 286.7349
f 904 905 906
v -280.3047 295.3704 286.8360
v -280.4925 295.8209 287.0540
v -288.8055 299.1361 286.9685
f 907 908 909
v -288.8055 299.1361 286.9685
v -280.4925 295.8209 287.0540
v -288.6303 299.2077 287.0535
f 910 911 912
v -288.8055 299.1361 286.9685
v -280.3198 295.3385 286.8140
v -280.3047 295.3704 286.8360
f 913 914 915
v -278.7914 300.0023 287.0979
v -281.3371 298.6113 289.3467
v -280.4925 295.8209 287.0540
f 916 917 918
v -280.4925 295.8209 287.0540
v -278.7584 299.9882 287.0539
v -278.7914 300.0023 287.0979
f 919 920 921
v -279.5332 300.3358 280.0001
v -279.8849 300.4940 282.6290
v -279.8850 300.4943 287.0648
f 922 923 924
v -279.8850 300.4943 287.0648
v -279.8849 300.4940 282.6290
v -280.2496 300.6582 287.0538
f 925 926 927
v -280.2493 300.6577 280.0001
v -279.8849 300.4940 282.6290
v -279.5332 300.3358 280.0001
f 928 929 930
v -279.5332 300.3358 280.0001
v -279.3476 300.2528 287.0808
v -278.7901 300.0018 280.0002
f 931 932 933
v -286.7770 303.3732 279.9996
v -286.7772 303.3737 287.0533
v -280.2493 300.6577 280.0001
f 934 935 936
v -278.7584 299.9882 287.0539
v -278.2959 299.7799 286.7349
v -278.2957 299.7795 280.0002
f 937 938 939
v -278.7612 299.9888 280.0002
v -278.7584 299.9882 287.0539
v -278.2957 299.7795 280.0002
f 940 941 942
v -280.3196 295.3379 280.0003
v -278.2957 299.7795 280.0002
v -278.2959 299.7799 286.7349
f 943 944 945
v -278.2959 299.7799 286.7349
v -280.3047 295.3704 286.8360
v -280.3196 295.3379 280.0003
f 946 947 948
v -280.3198 295.3385 286.8140
v -280.3197 295.3382 283.3961
v -280.3047 295.3704 286.8360
f 949 950 951
v -278.7584 299.9882 287.0539
v -278.7612 299.9888 280.0002
v -278.7901 300.0018 280.0002
f 952 953 954
v -278.7612 299.9888 280.0002
v -278.2957 299.7795 280.0002
v -280.3196 295.3379 280.0003
f 955 956 957
v -278.7612 299.9888 280.0002
v -280.3196 295.3379 280.0003
v -278.7901 300.0018 280.0002
f 958 959 960
v -280.3196 295.3379 280.0003
v -286.2981 301.8219 279.9997
v -280.2493 300.6577 280.0001
f 961 962 963
v -286.2981 301.8219 279.9997
v -287.3449 302.2577 279.9997
v -286.8342 303.2614 279.9996
f 964 965 966
v -286.7770 303.3732 279.9996
v -286.2981 301.8219 279.9997
v -286.8342 303.2614 279.9996
f 967 968 969
v -278.7901 300.0018 280.0002
v -280.3196 295.3379 280.0003
v -279.5332 300.3358 280.0001
f 970 971 972
v -280.2493 300.6577 280.0001
v -279.5332 300.3358 280.0001
v -280.3196 295.3379 280.0003
f 973 974 975
v -286.2981 301.8219 279.9997
v -286.7770 303.3732 279.9996
v -280.2493 300.6577 280.0001
f 976 977 978
v -280.3196 295.3379 280.0003
v -287.6337 298.6115 279.9998
v -286.2981 301.8219 279.9997
f 979 980 981
v -292.2626 299.7589 279.9106
v -292.2628 299.7593 285.6584
v -290.5969 303.4418 285.6583
f 982 983 984
v -289.2872 298.4389 279.9108
v -289.2873 298.4394 285.6586
v -292.2628 299.7593 285.6584
f 985 986 987
v -288.9092 299.1819 279.9107
v -288.9094 299.1823 285.6585
v -289.2873 298.4394 285.6586
f 988 989 990
v -287.5953 302.1134 279.9107
v -287.5956 302.1138 285.6585
v -287.5000 302.3225 285.6585
f 991 992 993
v -290.5968 303.4415 279.9105
v -290.5969 303.4418 285.6583
v -287.5956 302.1138 285.6585
f 994 995 996
v -288.9092 299.1819 279.9107
v -289.2872 298.4389 279.9108
v -292.2626 299.7589 279.9106
f 997 998 999
v -287.5953 302.1134 279.9107
v -287.6337 298.6115 279.9108
v -288.9092 299.1819 279.9107
f 1000 1001 1002
v -288.9092 299.1819 279.9107
v -292.2626 299.7589 279.9106
v -290.5968 303.4415 279.9105
f 1003 1004 1005
v -288.9092 299.1819 279.9107
v -290.5968 303.4415 279.9105
v -287.5953 302.1134 279.9107
f 1006 1007 1008
v -287.5953 302.1134 279.9107
v -287.4997 302.3221 279.9107
v -286.2981 301.8219 279.9107
f 1009 1010 1011
v -287.6337 298.6115 279.9108
v -287.5953 302.1134 279.9107
v -286.2981 301.8219 279.9107
f 1012 1013 1014
v -288.9094 299.1823 285.6585
v -292.2628 299.7593 285.6584
v -289.2873 298.4394 285.6586
f 1015 1016 1017
v -287.5956 302.1138 285.6585
v -290.5969 303.4418 285.6583
v -288.9094 299.1823 285.6585
f 1018 1019 1020
v -292.2628 299.7593 285.6584
v -288.9094 299.1823 285.6585
v -290.5969 303.4418 285.6583
f 1021 1022 1023
v -287.5000 302.3225 285.6585
v -287.5956 302.1138 285.6585
v -287.3451 302.2581 285.6585
f 1024 1025 1026
v -288.9094 299.1823 285.6585
v -287.3451 302.2581 285.6585
v -287.5956 302.1138 285.6585
f 1027 1028 1029
v -286.2981 301.8219 279.9107
v -286.2981 301.8219 279.9997
v -287.6337 298.6115 279.9108
f 1030 1031 1032
v -287.4997 302.3221 279.9107
v -287.5000 302.3225 285.6585
v -287.3449 302.2577 279.9997
f 1033 1034 1035
v -287.3451 302.2581 285.6585
v -287.3449 302.2577 279.9997
v -287.5000 302.3225 285.6585
f 1036 1037 1038
v -286.2981 301.8219 279.9107
v -287.4997 302.3221 279.9107
v -287.3449 302.2577 279.9997
f 1039 1040 1041
v -287.3451 302.2581 285.6585
v -288.9094 299.1824 286.8974
v -287.4326 302.0865 287.0534
f 1042 1043 1044
v -288.9094 299.1824 286.8974
v -287.3451 302.2581 285.6585
v -288.9094 299.1823 285.6585
f 1045 1046 1047
v -287.3451 302.2581 285.6585
v -286.8345 303.2618 287.1773
v -286.7772 303.3737 287.0533
f 1048 1049 1050
v -286.8342 303.2614 279.9996
v -287.3451 302.2581 285.6585
v -286.7770 303.3732 279.9996
f 1051 1052 1053
v -286.7772 303.3737 287.0533
v -286.7770 303.3732 279.9996
v -287.3451 302.2581 285.6585
f 1054 1055 1056
v -287.3449 302.2577 279.9997
v -287.3451 302.2581 285.6585
v -286.8342 303.2614 279.9996
f 1057 1058 1059
v -287.4326 302.0865 287.0534
v -286.8345 303.2618 287.1773
v -287.3451 302.2581 285.6585
f 1060 1061 1062
v -280.3198 295.3385 286.8140
v -288.9094 299.1823 285.6585
v -280.3197 295.3382 283.3961
f 1063 1064 1065
v -280.3197 295.3382 283.3961
v -287.6337 298.6115 279.9998
v -280.3196 295.3379 280.0003
f 1066 1067 1068
v -288.9094 299.1823 285.6585
v -288.8055 299.1361 286.9685
v -288.9094 299.1824 286.8974
f 1069 1070 1071
v -280.3197 295.3382 283.3961
v -288.9094 299.1823 285.6585
v -287.6337 298.6115 279.9998
f 1072 1073 1074
v -288.9094 299.1823 285.6585
v -288.9092 299.1819 279.9107
v -287.6337 298.6115 279.9998
f 1075 1076 1077
v -287.6337 298.6115 279.9998
v -288.9092 299.1819 279.9107
v -287.6337 298.6115 279.9108
f 1078 1079 1080
v -288.8055 299.1361 286.9685
v -288.9094 299.1823 285.6585
v -280.3198 295.3385 286.8140
f 1081 1082 1083
v -279.8850 300.4943 287.0648
v -279.3476 300.2528 287.0808
v -279.5332 300.3358 280.0001
f 1084 1085 1086
v -279.8849 300.4940 282.6290
v -280.2493 300.6577 280.0001
v -280.2496 300.6582 287.0538
f 1087 1088 1089
v -279.3476 300.2528 287.0808
v -278.7914 300.0023 287.0979
v -278.7901 300.0018 280.0002
f 1090 1091 1092
v -286.7772 303.3737 287.0533
v -280.2496 300.6582 287.0538
v -280.2493 300.6577 280.0001
f 1093 1094 1095
v -280.3047 295.3704 286.8360
v -280.3197 295.3382 283.3961
v -280.3196 295.3379 280.0003
f 1096 1097 1098
v -278.7901 300.0018 280.0002
v -278.7914 300.0023 287.0979
v -278.7584 299.9882 287.0539
f 1099 1100 1101
v -292.2626 299.7589 279.9106
v -290.5969 303.4418 285.6583
v -290.5968 303.4415 279.9105
f 1102 1103 1104
v -289.2872 298.4389 279.9108
v -292.2628 299.7593 285.6584
v -292.2626 299.7589 279.9106
f 1105 1106 1107
v -288.9092 299.1819 279.9107
v -289.2873 298.4394 285.6586
v -289.2872 298.4389 279.9108
f 1108 1109 1110
v -287.5953 302.1134 279.9107
v -287.5000 302.3225 285.6585
v -287.4997 302.3221 279.9107
f 1111 1112 1113
v -290.5968 303.4415 279.9105
v -287.5956 302.1138 285.6585
v -287.5953 302.1134 279.9107
f 1114 1115 1116
v -286.2981 301.8219 279.9997
v -287.6337 298.6115 279.9998
v -287.6337 298.6115 279.9108
f 1117 1118 1119
v -286.2981 301.8219 279.9107
v -287.3449 302.2577 279.9997
v -286.2981 301.8219 279.9997
f 1120 1121 1122

g building_ID_161F978B-3A32-4C0A-A54F-1CE95A1C4F3F
v -214.7211 298.0348 276.8227
v -215.4962 302.4548 276.8225
v -207.2588 303.7678 276.8227
f 1123 1124 1125
v -214.7211 298.0348 276.8227
v -207.2588 303.7678 276.8227
v -207.0825 302.7843 276.8227
f 1126 1127 1128
v -206.5377 299.3229 276.8229
v -214.7211 298.0348 276.8227
v -207.0825 302.7843 276.8227
f 1129 1130 1131
v -206.5378 299.3232 282.0748
v -207.0826 302.7847 282.9425
v -215.1103 300.2553 282.6324
f 1132 1133 1134
v -215.4963 302.4553 283.1853
v -215.1103 300.2553 282.6324
v -207.2589 303.7682 283.1895
f 1135 1136 1137
v -215.1103 300.2553 282.6324
v -214.7212 298.0352 282.0746
v -206.5378 299.3232 282.0748
f 1138 1139 1140
v -215.1103 300.2553 282.6324
v -207.0826 302.7847 282.9425
v -207.2589 303.7682 283.1895
f 1141 1142 1143
v -207.2588 303.7678 276.8227
v -207.2589 303.7682 283.1895
v -207.0826 302.7847 282.9425
f 1144 1145 1146
v -207.0825 302.7843 276.8227
v -207.2588 303.7678 276.8227
v -207.0826 302.7847 282.9425
f 1147 1148 1149
v -207.2589 303.7682 283.1895
v -215.4962 302.4548 276.8225
v -215.4963 302.4553 283.1853
f 1150 1151 1152
v -207.2589 303.7682 283.1895
v -207.2588 303.7678 276.8227
v -215.4962 302.4548 276.8225
f 1153 1154 1155
v -215.4962 302.4548 276.8225
v -214.7211 298.0348 276.8227
v -215.1103 300.2553 282.6324
f 1156 1157 1158
v -215.4962 302.4548 276.8225
v -215.1103 300.2553 282.6324
v -215.4963 302.4553 283.1853
f 1159 1160 1161
v -206.5377 299.3229 276.8229
v -206.5378 299.3232 282.0748
v -214.7212 298.0352 282.0746
f 1162 1163 1164
v -206.5377 299.3229 276.8229
v -214.7212 298.0352 282.0746
v -214.7211 298.0348 276.8227
f 1165 1166 1167
v -206.5378 299.3232 282.0748
v -206.5377 299.3229 276.8229
v -207.0826 302.7847 282.9425
f 1168 1169 1170
v -207.0826 302.7847 282.9425
v -206.5377 299.3229 276.8229
v -207.0825 302.7843 276.8227
f 1171 1172 1173
v -214.7212 298.0352 282.0746
v -215.1103 300.2553 282.6324
v -214.7211 298.0348 276.8227
f 1174 1175 1176
