# Grid Center: 2616000, 1265200
# Global Anchor: 7.64977475454284, 47.53283995868075, 0.0

g building_ID_0381BCA8-5125-4FC2-BA5A-74F4DAFD2F0B
v 293.3826 332.8438 272.0089
v 311.9951 322.3171 272.0084
v 309.4823 317.8789 272.0088
f 1 2 3
v 309.4823 317.8789 272.0088
v 290.8698 328.4056 272.0092
v 293.3826 332.8438 272.0089
f 4 5 6
v 290.8701 328.4062 279.0159
v 309.4827 317.8794 279.0156
v 311.9956 322.3176 279.0152
f 7 8 9
v 311.9956 322.3176 279.0152
v 293.3830 332.8444 279.0156
v 290.8701 328.4062 279.0159
f 10 11 12
v 293.3826 332.8438 272.0089
v 293.3830 332.8444 279.0156
v 311.9956 322.3176 279.0152
f 13 14 15
v 290.8698 328.4056 272.0092
v 290.8701 328.4062 279.0159
v 293.3830 332.8444 279.0156
f 16 17 18
v 309.4823 317.8789 272.0088
v 309.4827 317.8794 279.0156
v 290.8701 328.4062 279.0159
f 19 20 21
v 311.9951 322.3171 272.0084
v 311.9956 322.3176 279.0152
v 309.4827 317.8794 279.0156
f 22 23 24
v 293.3826 332.8438 272.0089
v 311.9956 322.3176 279.0152
v 311.9951 322.3171 272.0084
f 25 26 27
v 290.8698 328.4056 272.0092
v 293.3830 332.8444 279.0156
v 293.3826 332.8438 272.0089
f 28 29 30
v 309.4823 317.8789 272.0088
v 290.8701 328.4062 279.0159
v 290.8698 328.4056 272.0092
f 31 32 33
v 311.9951 322.3171 272.0084
v 309.4827 317.8794 279.0156
v 309.4823 317.8789 272.0088
f 34 35 36
