# Grid Center: 2616400, 1264800
# Global Anchor: 7.64977475454284, 47.53283995868075, 0.0

g building_ID_B7ECF2DD-C924-4C36-81A9-8050B4EB844E
v 608.0011 174.0901 282.4341
v 600.0044 180.5296 282.4348
v 597.8683 177.8773 282.4350
f 1 2 3
v 597.8683 177.8773 282.4350
v 606.5763 172.3070 282.4343
v 608.0011 174.0901 282.4341
f 4 5 6
v 600.0042 180.5294 279.7799
v 600.0044 180.5296 282.4348
v 608.0011 174.0901 282.4341
f 7 8 9
v 597.8681 177.8771 279.7801
v 597.8683 177.8773 282.4350
v 600.0044 180.5296 282.4348
f 10 11 12
v 594.2440 189.8292 268.7225
v 594.2451 189.8297 279.7801
v 610.3165 176.9868 279.7789
f 13 14 15
v 589.2463 183.5746 268.7232
v 589.2474 183.5752 279.7808
v 594.2451 189.8297 279.7801
f 16 17 18
v 597.8669 177.8766 268.7224
v 597.8681 177.8771 279.7801
v 589.2474 183.5752 279.7808
f 19 20 21
v 606.5749 172.3063 268.7218
v 606.5763 172.3070 282.4343
v 597.8681 177.8771 279.7801
f 22 23 24
v 589.2463 183.5746 268.7232
v 594.2440 189.8292 268.7225
v 597.8669 177.8766 268.7224
f 25 26 27
v 610.3153 176.9862 268.7213
v 597.8669 177.8766 268.7224
v 594.2440 189.8292 268.7225
f 28 29 30
v 597.8669 177.8766 268.7224
v 607.9996 174.0894 268.7216
v 606.5749 172.3063 268.7218
f 31 32 33
v 597.8669 177.8766 268.7224
v 610.3153 176.9862 268.7213
v 607.9996 174.0894 268.7216
f 34 35 36
v 600.0042 180.5294 279.7799
v 608.0008 174.0901 279.7792
v 610.3165 176.9868 279.7789
f 37 38 39
v 594.2451 189.8297 279.7801
v 600.0042 180.5294 279.7799
v 610.3165 176.9868 279.7789
f 40 41 42
v 597.8681 177.8771 279.7801
v 600.0042 180.5294 279.7799
v 589.2474 183.5752 279.7808
f 43 44 45
v 594.2451 189.8297 279.7801
v 589.2474 183.5752 279.7808
v 600.0042 180.5294 279.7799
f 46 47 48
v 610.3165 176.9868 279.7789
v 608.0008 174.0901 279.7792
v 607.9996 174.0894 268.7216
f 49 50 51
v 608.0008 174.0901 279.7792
v 606.5763 172.3070 282.4343
v 606.5749 172.3063 268.7218
f 52 53 54
v 600.0042 180.5294 279.7799
v 608.0011 174.0901 282.4341
v 608.0008 174.0901 279.7792
f 55 56 57
v 597.8681 177.8771 279.7801
v 600.0044 180.5296 282.4348
v 600.0042 180.5294 279.7799
f 58 59 60
v 594.2440 189.8292 268.7225
v 610.3165 176.9868 279.7789
v 610.3153 176.9862 268.7213
f 61 62 63
v 589.2463 183.5746 268.7232
v 594.2451 189.8297 279.7801
v 594.2440 189.8292 268.7225
f 64 65 66
v 597.8669 177.8766 268.7224
v 589.2474 183.5752 279.7808
v 589.2463 183.5746 268.7232
f 67 68 69
v 606.5763 172.3070 282.4343
v 597.8683 177.8773 282.4350
v 597.8681 177.8771 279.7801
f 70 71 72
v 606.5749 172.3063 268.7218
v 597.8681 177.8771 279.7801
v 597.8669 177.8766 268.7224
f 73 74 75
v 610.3165 176.9868 279.7789
v 607.9996 174.0894 268.7216
v 610.3153 176.9862 268.7213
f 76 77 78
v 608.0008 174.0901 279.7792
v 608.0011 174.0901 282.4341
v 606.5763 172.3070 282.4343
f 79 80 81
v 608.0008 174.0901 279.7792
v 606.5749 172.3063 268.7218
v 607.9996 174.0894 268.7216
f 82 83 84
