# Grid Center: 2616200, 1266200
# Global Anchor: 7.64977475454284, 47.53283995868075, 0.0

g building_ID_8DB19635-94C0-4805-8D5E-EBD6B8B14F98
v 342.6163 1299.1324 276.6095
v 343.2864 1299.8947 276.6094
v 342.6882 1300.5621 276.2703
f 1 2 3
v 342.6882 1300.5621 276.2703
v 341.8676 1299.6313 276.2705
v 342.6163 1299.1324 276.6095
f 4 5 6
v 343.2864 1299.8947 276.6094
v 344.1239 1300.4684 276.6092
v 343.7130 1301.2664 276.2701
f 7 8 9
v 343.7130 1301.2664 276.2701
v 342.6882 1300.5621 276.2703
v 343.2864 1299.8947 276.6094
f 10 11 12
v 343.7130 1301.2664 276.2701
v 345.0758 1300.8198 276.6091
v 344.8782 1301.6952 276.2699
f 13 14 15
v 345.0758 1300.8198 276.6091
v 343.7130 1301.2664 276.2701
v 344.1239 1300.4684 276.6092
f 16 17 18
v 344.8782 1301.6952 276.2699
v 346.0821 1300.9251 276.6090
v 346.1125 1301.8259 276.2698
f 19 20 21
v 346.0821 1300.9251 276.6090
v 344.8782 1301.6952 276.2699
v 345.0758 1300.8198 276.6091
f 22 23 24
v 346.1125 1301.8259 276.2698
v 347.0807 1300.7795 276.6090
v 347.3340 1301.6477 276.2698
f 25 26 27
v 347.0807 1300.7795 276.6090
v 346.1125 1301.8259 276.2698
v 346.0821 1300.9251 276.6090
f 28 29 30
v 347.3340 1301.6477 276.2698
v 348.0086 1300.3909 276.6090
v 348.4707 1301.1716 276.2698
f 31 32 33
v 348.0086 1300.3909 276.6090
v 347.3340 1301.6477 276.2698
v 347.0807 1300.7795 276.6090
f 34 35 36
v 348.4707 1301.1716 276.2698
v 348.8070 1299.7848 276.6091
v 349.4487 1300.4290 276.2699
f 37 38 39
v 348.8070 1299.7848 276.6091
v 348.4707 1301.1716 276.2698
v 348.0086 1300.3909 276.6090
f 40 41 42
v 349.4487 1300.4290 276.2699
v 349.4248 1298.9982 276.6092
v 350.2061 1299.4660 276.2701
f 43 44 45
v 349.4248 1298.9982 276.6092
v 349.4487 1300.4290 276.2699
v 348.8070 1299.7848 276.6091
f 46 47 48
v 343.4543 1301.7670 275.8760
v 344.8782 1301.6952 276.2699
v 344.7546 1302.2465 275.8758
f 49 50 51
v 344.8782 1301.6952 276.2699
v 343.4543 1301.7670 275.8760
v 343.7130 1301.2664 276.2701
f 52 53 54
v 344.7546 1302.2465 275.8758
v 346.1125 1301.8259 276.2698
v 346.1300 1302.3918 275.8757
f 55 56 57
v 346.1125 1301.8259 276.2698
v 344.7546 1302.2465 275.8758
v 344.8782 1301.6952 276.2699
f 58 59 60
v 346.1300 1302.3918 275.8757
v 347.3340 1301.6477 276.2698
v 347.4944 1302.1922 275.8757
f 61 62 63
v 347.3340 1301.6477 276.2698
v 346.1300 1302.3918 275.8757
v 346.1125 1301.8259 276.2698
f 64 65 66
v 347.4944 1302.1922 275.8757
v 348.4707 1301.1716 276.2698
v 348.7620 1301.6628 275.8757
f 67 68 69
v 348.4707 1301.1716 276.2698
v 347.4944 1302.1922 275.8757
v 347.3340 1301.6477 276.2698
f 70 71 72
v 348.7620 1301.6628 275.8757
v 349.4487 1300.4290 276.2699
v 349.8517 1300.8329 275.8758
f 73 74 75
v 349.4487 1300.4290 276.2699
v 348.7620 1301.6628 275.8757
v 348.4707 1301.1716 276.2698
f 76 77 78
v 349.8517 1300.8329 275.8758
v 350.2061 1299.4660 276.2701
v 350.6968 1299.7596 275.8760
f 79 80 81
v 350.2061 1299.4660 276.2701
v 349.8517 1300.8329 275.8758
v 349.4487 1300.4290 276.2699
f 82 83 84
v 350.2061 1299.4660 276.2701
v 350.6971 1298.3428 276.2703
v 351.2445 1298.5071 275.8762
f 85 86 87
v 351.2445 1298.5071 275.8762
v 350.6968 1299.7596 275.8760
v 350.2061 1299.4660 276.2701
f 88 89 90
v 350.6968 1299.7596 275.8760
v 351.2445 1298.5071 275.8762
v 351.4306 1298.5626 275.4542
f 91 92 93
v 351.4306 1298.5626 275.4542
v 350.8641 1299.8591 275.4540
v 350.6968 1299.7596 275.8760
f 94 95 96
v 350.8626 1299.8538 252.4498
v 350.8641 1299.8591 275.4540
v 351.4306 1298.5626 275.4542
f 97 98 99
v 341.5912 1293.5151 275.8777
v 340.8894 1294.6890 275.8775
v 340.7121 1294.6104 275.4556
f 100 101 102
v 340.7121 1294.6104 275.4556
v 341.4389 1293.3954 275.4558
v 341.5912 1293.5151 275.8777
f 103 104 105
v 341.4374 1293.3901 252.4516
v 341.4389 1293.3954 275.4558
v 340.7121 1294.6104 275.4556
f 106 107 108
v 340.7107 1294.6051 252.4514
v 340.7121 1294.6104 275.4556
v 340.3138 1295.9684 275.4553
f 109 110 111
v 340.5069 1296.0009 275.8773
v 340.4656 1297.3721 275.8770
v 340.2716 1297.3874 275.4550
f 112 113 114
v 340.2716 1297.3874 275.4550
v 340.3138 1295.9684 275.4553
v 340.5069 1296.0009 275.8773
f 115 116 117
v 340.3123 1295.9631 252.4511
v 340.3138 1295.9684 275.4553
v 340.2716 1297.3874 275.4550
f 118 119 120
v 340.4656 1297.3721 275.8770
v 340.7682 1298.7142 275.8767
v 340.5854 1298.7766 275.4547
f 121 122 123
v 340.5854 1298.7766 275.4547
v 340.2716 1297.3874 275.4550
v 340.4656 1297.3721 275.8770
f 124 125 126
v 340.2701 1297.3822 252.4508
v 340.2716 1297.3874 275.4550
v 340.5854 1298.7766 275.4547
f 127 128 129
v 340.7682 1298.7142 275.8767
v 341.3965 1299.9435 275.8764
v 341.2367 1300.0498 275.4544
f 130 131 132
v 341.2367 1300.0498 275.4544
v 340.5854 1298.7766 275.4547
v 340.7682 1298.7142 275.8767
f 133 134 135
v 340.5838 1298.7714 252.4505
v 340.5854 1298.7766 275.4547
v 341.2367 1300.0498 275.4544
f 136 137 138
v 341.3965 1299.9435 275.8764
v 342.3113 1300.9831 275.8762
v 342.1826 1301.1263 275.4542
f 139 140 141
v 342.1826 1301.1263 275.4542
v 341.2367 1300.0498 275.4544
v 341.3965 1299.9435 275.8764
f 142 143 144
v 341.2353 1300.0446 252.4502
v 341.2367 1300.0498 275.4544
v 342.1826 1301.1263 275.4542
f 145 146 147
v 342.1826 1301.1263 275.4542
v 343.4543 1301.7670 275.8760
v 343.3667 1301.9381 275.4539
f 148 149 150
v 343.4543 1301.7670 275.8760
v 342.1826 1301.1263 275.4542
v 342.3113 1300.9831 275.8762
f 151 152 153
v 342.1811 1301.1210 252.4500
v 342.1826 1301.1263 275.4542
v 343.3667 1301.9381 275.4539
f 154 155 156
v 343.3667 1301.9381 275.4539
v 344.7546 1302.2465 275.8758
v 344.7131 1302.4346 275.4538
f 157 158 159
v 344.7546 1302.2465 275.8758
v 343.3667 1301.9381 275.4539
v 343.4543 1301.7670 275.8760
f 160 161 162
v 343.3653 1301.9329 252.4497
v 343.3667 1301.9381 275.4539
v 344.7131 1302.4346 275.4538
f 163 164 165
v 344.7131 1302.4346 275.4538
v 346.1300 1302.3918 275.8757
v 346.1364 1302.5847 275.4537
f 166 167 168
v 346.1300 1302.3918 275.8757
v 344.7131 1302.4346 275.4538
v 344.7546 1302.2465 275.8758
f 169 170 171
v 344.7116 1302.4293 252.4496
v 344.7131 1302.4346 275.4538
v 346.1364 1302.5847 275.4537
f 172 173 174
v 346.1364 1302.5847 275.4537
v 347.4944 1302.1922 275.8757
v 347.5489 1302.3779 275.4536
f 175 176 177
v 347.4944 1302.1922 275.8757
v 346.1364 1302.5847 275.4537
v 346.1300 1302.3918 275.8757
f 178 179 180
v 346.1350 1302.5795 252.4495
v 346.1364 1302.5847 275.4537
v 347.5489 1302.3779 275.4536
f 181 182 183
v 347.5489 1302.3779 275.4536
v 348.7620 1301.6628 275.8757
v 348.8614 1301.8294 275.4537
f 184 185 186
v 348.7620 1301.6628 275.8757
v 347.5489 1302.3779 275.4536
v 347.4944 1302.1922 275.8757
f 187 188 189
v 347.5474 1302.3726 252.4494
v 347.5489 1302.3779 275.4536
v 348.8614 1301.8294 275.4537
f 190 191 192
v 348.8599 1301.8241 252.4495
v 348.8614 1301.8294 275.4537
v 349.9901 1300.9714 275.4538
f 193 194 195
v 349.9886 1300.9662 252.4496
v 349.9901 1300.9714 275.4538
v 350.8641 1299.8591 275.4540
f 196 197 198
v 342.5676 1292.5565 275.8779
v 342.0422 1293.8680 276.2717
v 341.5912 1293.5151 275.8777
f 199 200 201
v 342.0422 1293.8680 276.2717
v 342.5676 1292.5565 275.8779
v 342.9179 1293.0087 276.2718
f 202 203 204
v 342.0422 1293.8680 276.2717
v 341.4140 1294.9197 276.2715
v 340.8894 1294.6890 275.8775
f 205 206 207
v 340.8894 1294.6890 275.8775
v 341.5912 1293.5151 275.8777
v 342.0422 1293.8680 276.2717
f 208 209 210
v 341.4140 1294.9197 276.2715
v 341.0692 1296.0966 276.2713
v 340.5069 1296.0009 275.8773
f 211 212 213
v 340.5069 1296.0009 275.8773
v 340.8894 1294.6890 275.8775
v 341.4140 1294.9197 276.2715
f 214 215 216
v 341.0692 1296.0966 276.2713
v 341.0325 1297.3256 276.2710
v 340.4656 1297.3721 275.8770
f 217 218 219
v 340.4656 1297.3721 275.8770
v 340.5069 1296.0009 275.8773
v 341.0692 1296.0966 276.2713
f 220 221 222
v 341.0325 1297.3256 276.2710
v 341.3037 1298.5289 276.2707
v 340.7682 1298.7142 275.8767
f 223 224 225
v 340.7682 1298.7142 275.8767
v 340.4656 1297.3721 275.8770
v 341.0325 1297.3256 276.2710
f 226 227 228
v 341.3037 1298.5289 276.2707
v 341.8676 1299.6313 276.2705
v 341.3965 1299.9435 275.8764
f 229 230 231
v 341.3965 1299.9435 275.8764
v 340.7682 1298.7142 275.8767
v 341.3037 1298.5289 276.2707
f 232 233 234
v 341.8676 1299.6313 276.2705
v 342.6882 1300.5621 276.2703
v 342.3113 1300.9831 275.8762
f 235 236 237
v 342.3113 1300.9831 275.8762
v 341.3965 1299.9435 275.8764
v 341.8676 1299.6313 276.2705
f 238 239 240
v 342.6882 1300.5621 276.2703
v 343.7130 1301.2664 276.2701
v 343.4543 1301.7670 275.8760
f 241 242 243
v 343.4543 1301.7670 275.8760
v 342.3113 1300.9831 275.8762
v 342.6882 1300.5621 276.2703
f 244 245 246
v 349.1508 1292.2697 275.4556
v 347.8106 1291.7924 275.8778
v 347.8760 1291.6112 275.4558
f 247 248 249
v 347.8106 1291.7924 275.8778
v 349.1508 1292.2697 275.4556
v 349.0422 1292.4291 275.8776
f 250 251 252
v 349.1492 1292.2645 252.4514
v 349.1508 1292.2697 275.4556
v 347.8760 1291.6112 275.4558
f 253 254 255
v 347.8760 1291.6112 275.4558
v 346.4617 1291.4771 275.8779
v 346.4802 1291.2849 275.4559
f 256 257 258
v 346.4617 1291.4771 275.8779
v 347.8760 1291.6112 275.4558
v 347.8106 1291.7924 275.8778
f 259 260 261
v 347.8745 1291.6060 252.4516
v 347.8760 1291.6112 275.4558
v 346.4802 1291.2849 275.4559
f 262 263 264
v 346.4617 1291.4771 275.8779
v 345.0808 1291.5048 275.8780
v 345.0502 1291.3137 275.4560
f 265 266 267
v 345.0502 1291.3137 275.4560
v 346.4802 1291.2849 275.4559
v 346.4617 1291.4771 275.8779
f 268 269 270
v 346.4786 1291.2797 252.4517
v 346.4802 1291.2849 275.4559
v 345.0502 1291.3137 275.4560
f 271 272 273
v 345.0502 1291.3137 275.4560
v 343.7558 1291.8723 275.8780
v 343.6773 1291.6935 275.4560
f 274 275 276
v 343.7558 1291.8723 275.8780
v 345.0502 1291.3137 275.4560
v 345.0808 1291.5048 275.8780
f 277 278 279
v 345.0488 1291.3085 252.4518
v 345.0502 1291.3137 275.4560
v 343.6773 1291.6935 275.4560
f 280 281 282
v 343.6758 1291.6882 252.4518
v 343.6773 1291.6935 275.4560
v 342.4482 1292.4027 275.4559
f 283 284 285
v 342.4467 1292.3975 252.4517
v 342.4482 1292.4027 275.4559
v 341.4389 1293.3954 275.4558
f 286 287 288
v 351.2445 1298.5071 275.8762
v 351.4588 1297.1536 275.8765
v 351.6518 1297.1620 275.4545
f 289 290 291
v 351.6518 1297.1620 275.4545
v 351.4306 1298.5626 275.4542
v 351.2445 1298.5071 275.8762
f 292 293 294
v 351.4291 1298.5573 252.4500
v 351.4306 1298.5626 275.4542
v 351.6518 1297.1620 275.4545
f 295 296 297
v 351.6503 1297.1567 252.4503
v 351.6518 1297.1620 275.4545
v 351.5160 1295.7473 275.4548
f 298 299 300
v 351.3262 1295.7870 275.8768
v 350.8567 1294.4923 275.8770
v 351.0295 1294.4047 275.4551
f 301 302 303
v 351.0295 1294.4047 275.4551
v 351.5160 1295.7473 275.4548
v 351.3262 1295.7870 275.8768
f 304 305 306
v 351.5146 1295.7421 252.4506
v 351.5160 1295.7473 275.4548
v 351.0295 1294.4047 275.4551
f 307 308 309
v 351.0279 1294.3995 252.4509
v 351.0295 1294.4047 275.4551
v 350.2243 1293.2219 275.4553
f 310 311 312
v 350.2228 1293.2166 252.4511
v 350.2243 1293.2219 275.4553
v 349.1508 1292.2697 275.4556
f 313 314 315
v 349.8264 1298.0821 276.6094
v 349.9818 1297.0917 276.6096
v 350.8888 1297.1302 276.2705
f 316 317 318
v 350.8888 1297.1302 276.2705
v 350.6971 1298.3428 276.2703
v 349.8264 1298.0821 276.6094
f 319 320 321
v 350.6971 1298.3428 276.2703
v 350.8888 1297.1302 276.2705
v 351.4588 1297.1536 275.8765
f 322 323 324
v 351.4588 1297.1536 275.8765
v 351.2445 1298.5071 275.8762
v 350.6971 1298.3428 276.2703
f 325 326 327
v 350.8888 1297.1302 276.2705
v 350.7705 1295.9046 276.2708
v 351.3262 1295.7870 275.8768
f 328 329 330
v 351.3262 1295.7870 275.8768
v 351.4588 1297.1536 275.8765
v 350.8888 1297.1302 276.2705
f 331 332 333
v 350.7705 1295.9046 276.2708
v 350.3494 1294.7417 276.2710
v 350.8567 1294.4923 275.8770
f 334 335 336
v 350.8567 1294.4923 275.8770
v 351.3262 1295.7870 275.8768
v 350.7705 1295.9046 276.2708
f 337 338 339
v 347.3695 1297.3448 277.0317
v 348.8016 1297.0410 276.8686
v 348.6905 1297.7412 276.8685
f 340 341 342
v 348.8016 1297.0410 276.8686
v 347.3695 1297.3448 277.0317
v 347.4255 1296.9827 277.0317
f 343 344 345
v 348.8016 1297.0410 276.8686
v 349.9818 1297.0917 276.6096
v 349.8264 1298.0821 276.6094
f 346 347 348
v 349.8264 1298.0821 276.6094
v 348.6905 1297.7412 276.8685
v 348.8016 1297.0410 276.8686
f 349 350 351
v 347.3695 1297.3448 277.0317
v 348.6905 1297.7412 276.8685
v 348.4073 1298.3900 276.8684
f 352 353 354
v 348.4073 1298.3900 276.8684
v 347.2224 1297.6803 277.0316
v 347.3695 1297.3448 277.0317
f 355 356 357
v 347.3906 1296.6168 277.0318
v 348.7338 1296.3342 276.8688
v 348.8016 1297.0410 276.8686
f 358 359 360
v 348.8016 1297.0410 276.8686
v 347.4255 1296.9827 277.0317
v 347.3906 1296.6168 277.0318
f 361 362 363
v 347.2646 1296.2691 277.0319
v 348.4909 1295.6638 276.8689
v 348.7338 1296.3342 276.8688
f 364 365 366
v 348.7338 1296.3342 276.8688
v 347.3906 1296.6168 277.0318
v 347.2646 1296.2691 277.0319
f 367 368 369
v 347.0568 1295.9626 277.0320
v 348.0884 1295.0708 276.8691
v 348.4909 1295.6638 276.8689
f 370 371 372
v 348.4909 1295.6638 276.8689
v 347.2646 1296.2691 277.0319
v 347.0568 1295.9626 277.0320
f 373 374 375
v 346.7781 1295.7165 277.0320
v 347.5501 1294.5944 276.8692
v 348.0884 1295.0708 276.8691
f 376 377 378
v 348.0884 1295.0708 276.8691
v 347.0568 1295.9626 277.0320
v 346.7781 1295.7165 277.0320
f 379 380 381
v 347.5501 1294.5944 276.8692
v 346.7781 1295.7165 277.0320
v 346.4497 1295.5463 277.0321
f 382 383 384
v 346.4497 1295.5463 277.0321
v 346.9132 1294.2650 276.8693
v 347.5501 1294.5944 276.8692
f 385 386 387
v 346.2158 1294.1030 276.8694
v 346.4497 1295.5463 277.0321
v 346.0875 1295.4612 277.0321
f 388 389 390
v 346.4497 1295.5463 277.0321
v 346.2158 1294.1030 276.8694
v 346.9132 1294.2650 276.8693
f 391 392 393
v 346.2158 1294.1030 276.8694
v 345.7175 1295.4682 277.0321
v 345.5009 1294.1168 276.8694
f 394 395 396
v 345.7175 1295.4682 277.0321
v 346.2158 1294.1030 276.8694
v 346.0875 1295.4612 277.0321
f 397 398 399
v 344.8134 1294.3067 276.8694
v 345.7175 1295.4682 277.0321
v 345.3617 1295.5673 277.0321
f 400 401 402
v 345.7175 1295.4682 277.0321
v 344.8134 1294.3067 276.8694
v 345.5009 1294.1168 276.8694
f 403 404 405
v 344.1993 1294.6613 276.8694
v 345.3617 1295.5673 277.0321
v 345.0433 1295.7510 277.0321
f 406 407 408
v 345.3617 1295.5673 277.0321
v 344.1993 1294.6613 276.8694
v 344.8134 1294.3067 276.8694
f 409 410 411
v 343.6947 1295.1576 276.8693
v 345.0433 1295.7510 277.0321
v 344.7829 1296.0088 277.0321
f 412 413 414
v 345.0433 1295.7510 277.0321
v 343.6947 1295.1576 276.8693
v 344.1993 1294.6613 276.8694
f 415 416 417
v 344.5938 1296.3223 277.0320
v 343.3313 1295.7646 276.8692
v 343.6947 1295.1576 276.8693
f 418 419 420
v 343.6947 1295.1576 276.8693
v 344.7829 1296.0088 277.0321
v 344.5938 1296.3223 277.0320
f 421 422 423
v 344.4907 1296.6745 277.0319
v 343.1331 1296.4441 276.8691
v 343.3313 1295.7646 276.8692
f 424 425 426
v 343.3313 1295.7646 276.8692
v 344.5938 1296.3223 277.0320
v 344.4907 1296.6745 277.0319
f 427 428 429
v 344.4807 1297.0415 277.0319
v 343.1110 1297.1542 276.8689
v 343.1331 1296.4441 276.8691
f 430 431 432
v 343.1331 1296.4441 276.8691
v 344.4907 1296.6745 277.0319
v 344.4807 1297.0415 277.0319
f 433 434 435
v 344.4807 1297.0415 277.0319
v 343.2679 1297.8488 276.8688
v 343.1110 1297.1542 276.8689
f 436 437 438
v 343.2679 1297.8488 276.8688
v 344.4807 1297.0415 277.0319
v 344.5617 1297.4003 277.0318
f 439 440 441
v 344.7306 1297.7299 277.0317
v 343.5936 1298.4849 276.8686
v 343.2679 1297.8488 276.8688
f 442 443 444
v 343.2679 1297.8488 276.8688
v 344.5617 1297.4003 277.0318
v 344.7306 1297.7299 277.0317
f 445 446 447
v 344.9763 1298.0092 277.0317
v 344.0661 1299.0226 276.8685
v 343.5936 1298.4849 276.8686
f 448 449 450
v 343.5936 1298.4849 276.8686
v 344.7306 1297.7299 277.0317
v 344.9763 1298.0092 277.0317
f 451 452 453
v 345.2819 1298.2184 277.0316
v 344.6581 1299.4290 276.8684
v 344.0661 1299.0226 276.8685
f 454 455 456
v 344.0661 1299.0226 276.8685
v 344.9763 1298.0092 277.0317
v 345.2819 1298.2184 277.0316
f 457 458 459
v 344.6581 1299.4290 276.8684
v 345.2819 1298.2184 277.0316
v 345.6302 1298.3475 277.0315
f 460 461 462
v 345.6302 1298.3475 277.0315
v 345.3318 1299.6772 276.8683
v 344.6581 1299.4290 276.8684
f 463 464 465
v 345.3318 1299.6772 276.8683
v 345.6302 1298.3475 277.0315
v 345.9983 1298.3864 277.0315
f 466 467 468
v 345.9983 1298.3864 277.0315
v 346.0429 1299.7523 276.8682
v 345.3318 1299.6772 276.8683
f 469 470 471
v 346.7507 1299.6494 276.8682
v 345.9983 1298.3864 277.0315
v 346.3642 1298.3325 277.0315
f 472 473 474
v 345.9983 1298.3864 277.0315
v 346.7507 1299.6494 276.8682
v 346.0429 1299.7523 276.8682
f 475 476 477
v 347.4059 1299.3747 276.8682
v 346.3642 1298.3325 277.0315
v 346.7038 1298.1906 277.0315
f 478 479 480
v 346.3642 1298.3325 277.0315
v 347.4059 1299.3747 276.8682
v 346.7507 1299.6494 276.8682
f 481 482 483
v 347.9698 1298.9461 276.8683
v 346.7038 1298.1906 277.0315
v 346.9961 1297.9688 277.0316
f 484 485 486
v 346.7038 1298.1906 277.0315
v 347.9698 1298.9461 276.8683
v 347.4059 1299.3747 276.8682
f 487 488 489
v 348.4073 1298.3900 276.8684
v 346.9961 1297.9688 277.0316
v 347.2224 1297.6803 277.0316
f 490 491 492
v 346.9961 1297.9688 277.0316
v 348.4073 1298.3900 276.8684
v 347.9698 1298.9461 276.8683
f 493 494 495
v 343.4728 1293.7253 276.6106
v 344.1993 1294.6613 276.8694
v 343.6947 1295.1576 276.8693
f 496 497 498
v 343.6947 1295.1576 276.8693
v 342.7597 1294.4271 276.6105
v 343.4728 1293.7253 276.6106
f 499 500 501
v 343.6947 1295.1576 276.8693
v 342.2460 1295.2865 276.6104
v 342.7597 1294.4271 276.6105
f 502 503 504
v 342.2460 1295.2865 276.6104
v 343.6947 1295.1576 276.8693
v 343.3313 1295.7646 276.8692
f 505 506 507
v 343.3313 1295.7646 276.8692
v 341.9646 1296.2472 276.6102
v 342.2460 1295.2865 276.6104
f 508 509 510
v 341.9646 1296.2472 276.6102
v 343.3313 1295.7646 276.8692
v 343.1331 1296.4441 276.8691
f 511 512 513
v 343.1331 1296.4441 276.8691
v 341.9353 1297.2513 276.6100
v 341.9646 1296.2472 276.6102
f 514 515 516
v 341.9353 1297.2513 276.6100
v 343.1331 1296.4441 276.8691
v 343.1110 1297.1542 276.8689
f 517 518 519
v 343.2679 1297.8488 276.8688
v 342.1569 1298.2337 276.6098
v 341.9353 1297.2513 276.6100
f 520 521 522
v 341.9353 1297.2513 276.6100
v 343.1110 1297.1542 276.8689
v 343.2679 1297.8488 276.8688
f 523 524 525
v 343.5936 1298.4849 276.8686
v 342.6163 1299.1324 276.6095
v 342.1569 1298.2337 276.6098
f 526 527 528
v 342.1569 1298.2337 276.6098
v 343.2679 1297.8488 276.8688
v 343.5936 1298.4849 276.8686
f 529 530 531
v 344.0661 1299.0226 276.8685
v 343.2864 1299.8947 276.6094
v 342.6163 1299.1324 276.6095
f 532 533 534
v 342.6163 1299.1324 276.6095
v 343.5936 1298.4849 276.8686
v 344.0661 1299.0226 276.8685
f 535 536 537
v 344.0661 1299.0226 276.8685
v 344.1239 1300.4684 276.6092
v 343.2864 1299.8947 276.6094
f 538 539 540
v 344.1239 1300.4684 276.6092
v 344.0661 1299.0226 276.8685
v 344.6581 1299.4290 276.8684
f 541 542 543
v 345.0758 1300.8198 276.6091
v 344.6581 1299.4290 276.8684
v 345.3318 1299.6772 276.8683
f 544 545 546
v 344.6581 1299.4290 276.8684
v 345.0758 1300.8198 276.6091
v 344.1239 1300.4684 276.6092
f 547 548 549
v 345.0758 1300.8198 276.6091
v 345.3318 1299.6772 276.8683
v 346.0429 1299.7523 276.8682
f 550 551 552
v 346.0429 1299.7523 276.8682
v 346.0821 1300.9251 276.6090
v 345.0758 1300.8198 276.6091
f 553 554 555
v 347.0807 1300.7795 276.6090
v 346.0429 1299.7523 276.8682
v 346.7507 1299.6494 276.8682
f 556 557 558
v 346.0429 1299.7523 276.8682
v 347.0807 1300.7795 276.6090
v 346.0821 1300.9251 276.6090
f 559 560 561
v 348.0086 1300.3909 276.6090
v 346.7507 1299.6494 276.8682
v 347.4059 1299.3747 276.8682
f 562 563 564
v 346.7507 1299.6494 276.8682
v 348.0086 1300.3909 276.6090
v 347.0807 1300.7795 276.6090
f 565 566 567
v 348.8070 1299.7848 276.6091
v 347.4059 1299.3747 276.8682
v 347.9698 1298.9461 276.8683
f 568 569 570
v 347.4059 1299.3747 276.8682
v 348.8070 1299.7848 276.6091
v 348.0086 1300.3909 276.6090
f 571 572 573
v 348.8070 1299.7848 276.6091
v 347.9698 1298.9461 276.8683
v 348.4073 1298.3900 276.8684
f 574 575 576
v 348.4073 1298.3900 276.8684
v 349.4248 1298.9982 276.6092
v 348.8070 1299.7848 276.6091
f 577 578 579
v 349.8264 1298.0821 276.6094
v 348.4073 1298.3900 276.8684
v 348.6905 1297.7412 276.8685
f 580 581 582
v 348.4073 1298.3900 276.8684
v 349.8264 1298.0821 276.6094
v 349.4248 1298.9982 276.6092
f 583 584 585
v 349.4248 1298.9982 276.6092
v 349.8264 1298.0821 276.6094
v 350.6971 1298.3428 276.2703
f 586 587 588
v 350.6971 1298.3428 276.2703
v 350.2061 1299.4660 276.2701
v 349.4248 1298.9982 276.6092
f 589 590 591
v 348.4909 1295.6638 276.8689
v 349.5415 1295.1419 276.6100
v 349.8861 1296.0910 276.6098
f 592 593 594
v 349.8861 1296.0910 276.6098
v 348.7338 1296.3342 276.8688
v 348.4909 1295.6638 276.8689
f 595 596 597
v 348.0884 1295.0708 276.8691
v 348.9723 1294.3044 276.6102
v 349.5415 1295.1419 276.6100
f 598 599 600
v 349.5415 1295.1419 276.6100
v 348.4909 1295.6638 276.8689
v 348.0884 1295.0708 276.8691
f 601 602 603
v 347.5501 1294.5944 276.8692
v 348.2125 1293.6325 276.6104
v 348.9723 1294.3044 276.6102
f 604 605 606
v 348.9723 1294.3044 276.6102
v 348.0884 1295.0708 276.8691
v 347.5501 1294.5944 276.8692
f 607 608 609
v 347.3112 1293.1669 276.6105
v 347.5501 1294.5944 276.8692
v 346.9132 1294.2650 276.8693
f 610 611 612
v 347.5501 1294.5944 276.8692
v 347.3112 1293.1669 276.6105
v 348.2125 1293.6325 276.6104
f 613 614 615
v 346.3247 1292.9356 276.6106
v 346.9132 1294.2650 276.8693
v 346.2158 1294.1030 276.8694
f 616 617 618
v 346.9132 1294.2650 276.8693
v 346.3247 1292.9356 276.6106
v 347.3112 1293.1669 276.6105
f 619 620 621
v 346.2158 1294.1030 276.8694
v 345.5009 1294.1168 276.8694
v 345.3138 1292.9553 276.6107
f 622 623 624
v 345.3138 1292.9553 276.6107
v 346.3247 1292.9356 276.6106
v 346.2158 1294.1030 276.8694
f 625 626 627
v 344.3435 1293.2249 276.6107
v 345.5009 1294.1168 276.8694
v 344.8134 1294.3067 276.8694
f 628 629 630
v 345.5009 1294.1168 276.8694
v 344.3435 1293.2249 276.6107
v 345.3138 1292.9553 276.6107
f 631 632 633
v 343.4728 1293.7253 276.6106
v 344.8134 1294.3067 276.8694
v 344.1993 1294.6613 276.8694
f 634 635 636
v 344.8134 1294.3067 276.8694
v 343.4728 1293.7253 276.6106
v 344.3435 1293.2249 276.6107
f 637 638 639
v 348.7338 1296.3342 276.8688
v 349.8861 1296.0910 276.6098
v 349.9818 1297.0917 276.6096
f 640 641 642
v 349.9818 1297.0917 276.6096
v 348.8016 1297.0410 276.8686
v 348.7338 1296.3342 276.8688
f 643 644 645
v 349.9818 1297.0917 276.6096
v 349.8861 1296.0910 276.6098
v 350.7705 1295.9046 276.2708
f 646 647 648
v 350.7705 1295.9046 276.2708
v 350.8888 1297.1302 276.2705
v 349.9818 1297.0917 276.6096
f 649 650 651
v 349.8861 1296.0910 276.6098
v 349.5415 1295.1419 276.6100
v 350.3494 1294.7417 276.2710
f 652 653 654
v 350.3494 1294.7417 276.2710
v 350.7705 1295.9046 276.2708
v 349.8861 1296.0910 276.6098
f 655 656 657
v 349.5415 1295.1419 276.6100
v 348.9723 1294.3044 276.6102
v 349.6517 1293.7176 276.2713
f 658 659 660
v 349.6517 1293.7176 276.2713
v 350.3494 1294.7417 276.2710
v 349.5415 1295.1419 276.6100
f 661 662 663
v 348.9723 1294.3044 276.6102
v 348.2125 1293.6325 276.6104
v 348.7225 1292.8941 276.2715
f 664 665 666
v 348.7225 1292.8941 276.2715
v 349.6517 1293.7176 276.2713
v 348.9723 1294.3044 276.6102
f 667 668 669
v 348.2125 1293.6325 276.6104
v 347.3112 1293.1669 276.6105
v 347.6180 1292.3221 276.2717
f 670 671 672
v 347.6180 1292.3221 276.2717
v 348.7225 1292.8941 276.2715
v 348.2125 1293.6325 276.6104
f 673 674 675
v 347.6180 1292.3221 276.2717
v 346.3247 1292.9356 276.6106
v 346.4083 1292.0403 276.2718
f 676 677 678
v 346.3247 1292.9356 276.6106
v 347.6180 1292.3221 276.2717
v 347.3112 1293.1669 276.6105
f 679 680 681
v 346.4083 1292.0403 276.2718
v 345.3138 1292.9553 276.6107
v 345.1714 1292.0646 276.2718
f 682 683 684
v 345.3138 1292.9553 276.6107
v 346.4083 1292.0403 276.2718
v 346.3247 1292.9356 276.6106
f 685 686 687
v 345.1714 1292.0646 276.2718
v 344.3435 1293.2249 276.6107
v 343.9822 1292.3938 276.2718
f 688 689 690
v 344.3435 1293.2249 276.6107
v 345.1714 1292.0646 276.2718
v 345.3138 1292.9553 276.6107
f 691 692 693
v 343.9822 1292.3938 276.2718
v 343.4728 1293.7253 276.6106
v 342.9179 1293.0087 276.2718
f 694 695 696
v 343.4728 1293.7253 276.6106
v 343.9822 1292.3938 276.2718
v 344.3435 1293.2249 276.6107
f 697 698 699
v 342.9179 1293.0087 276.2718
v 342.7597 1294.4271 276.6105
v 342.0422 1293.8680 276.2717
f 700 701 702
v 342.7597 1294.4271 276.6105
v 342.9179 1293.0087 276.2718
v 343.4728 1293.7253 276.6106
f 703 704 705
v 342.0422 1293.8680 276.2717
v 342.2460 1295.2865 276.6104
v 341.4140 1294.9197 276.2715
f 706 707 708
v 342.2460 1295.2865 276.6104
v 342.0422 1293.8680 276.2717
v 342.7597 1294.4271 276.6105
f 709 710 711
v 342.2460 1295.2865 276.6104
v 341.9646 1296.2472 276.6102
v 341.0692 1296.0966 276.2713
f 712 713 714
v 341.0692 1296.0966 276.2713
v 341.4140 1294.9197 276.2715
v 342.2460 1295.2865 276.6104
f 715 716 717
v 341.9646 1296.2472 276.6102
v 341.9353 1297.2513 276.6100
v 341.0325 1297.3256 276.2710
f 718 719 720
v 341.0325 1297.3256 276.2710
v 341.0692 1296.0966 276.2713
v 341.9646 1296.2472 276.6102
f 721 722 723
v 341.9353 1297.2513 276.6100
v 342.1569 1298.2337 276.6098
v 341.3037 1298.5289 276.2707
f 724 725 726
v 341.3037 1298.5289 276.2707
v 341.0325 1297.3256 276.2710
v 341.9353 1297.2513 276.6100
f 727 728 729
v 342.1569 1298.2337 276.6098
v 342.6163 1299.1324 276.6095
v 341.8676 1299.6313 276.2705
f 730 731 732
v 341.8676 1299.6313 276.2705
v 341.3037 1298.5289 276.2707
v 342.1569 1298.2337 276.6098
f 733 734 735
v 349.6517 1293.7176 276.2713
v 348.7225 1292.8941 276.2715
v 349.0422 1292.4291 275.8776
f 736 737 738
v 349.0422 1292.4291 275.8776
v 350.0797 1293.3474 275.8773
v 349.6517 1293.7176 276.2713
f 739 740 741
v 349.0422 1292.4291 275.8776
v 347.6180 1292.3221 276.2717
v 347.8106 1291.7924 275.8778
f 742 743 744
v 347.6180 1292.3221 276.2717
v 349.0422 1292.4291 275.8776
v 348.7225 1292.8941 276.2715
f 745 746 747
v 347.8106 1291.7924 275.8778
v 346.4083 1292.0403 276.2718
v 346.4617 1291.4771 275.8779
f 748 749 750
v 346.4083 1292.0403 276.2718
v 347.8106 1291.7924 275.8778
v 347.6180 1292.3221 276.2717
f 751 752 753
v 346.4083 1292.0403 276.2718
v 345.1714 1292.0646 276.2718
v 345.0808 1291.5048 275.8780
f 754 755 756
v 345.0808 1291.5048 275.8780
v 346.4617 1291.4771 275.8779
v 346.4083 1292.0403 276.2718
f 757 758 759
v 345.0808 1291.5048 275.8780
v 343.9822 1292.3938 276.2718
v 343.7558 1291.8723 275.8780
f 760 761 762
v 343.9822 1292.3938 276.2718
v 345.0808 1291.5048 275.8780
v 345.1714 1292.0646 276.2718
f 763 764 765
v 343.7558 1291.8723 275.8780
v 342.9179 1293.0087 276.2718
v 342.5676 1292.5565 275.8779
f 766 767 768
v 342.9179 1293.0087 276.2718
v 343.7558 1291.8723 275.8780
v 343.9822 1292.3938 276.2718
f 769 770 771
v 340.3138 1295.9684 275.4553
v 340.7121 1294.6104 275.4556
v 340.8894 1294.6890 275.8775
f 772 773 774
v 340.8894 1294.6890 275.8775
v 340.5069 1296.0009 275.8773
v 340.3138 1295.9684 275.4553
f 775 776 777
v 348.7620 1301.6628 275.8757
v 349.8517 1300.8329 275.8758
v 349.9901 1300.9714 275.4538
f 778 779 780
v 349.9901 1300.9714 275.4538
v 348.8614 1301.8294 275.4537
v 348.7620 1301.6628 275.8757
f 781 782 783
v 350.8641 1299.8591 275.4540
v 349.9901 1300.9714 275.4538
v 349.8517 1300.8329 275.8758
f 784 785 786
v 349.8517 1300.8329 275.8758
v 350.6968 1299.7596 275.8760
v 350.8641 1299.8591 275.4540
f 787 788 789
v 342.5676 1292.5565 275.8779
v 343.6773 1291.6935 275.4560
v 343.7558 1291.8723 275.8780
f 790 791 792
v 343.6773 1291.6935 275.4560
v 342.5676 1292.5565 275.8779
v 342.4482 1292.4027 275.4559
f 793 794 795
v 341.5912 1293.5151 275.8777
v 342.4482 1292.4027 275.4559
v 342.5676 1292.5565 275.8779
f 796 797 798
v 342.4482 1292.4027 275.4559
v 341.5912 1293.5151 275.8777
v 341.4389 1293.3954 275.4558
f 799 800 801
v 351.3262 1295.7870 275.8768
v 351.6518 1297.1620 275.4545
v 351.4588 1297.1536 275.8765
f 802 803 804
v 351.6518 1297.1620 275.4545
v 351.3262 1295.7870 275.8768
v 351.5160 1295.7473 275.4548
f 805 806 807
v 350.0797 1293.3474 275.8773
v 351.0295 1294.4047 275.4551
v 350.8567 1294.4923 275.8770
f 808 809 810
v 351.0295 1294.4047 275.4551
v 350.0797 1293.3474 275.8773
v 350.2243 1293.2219 275.4553
f 811 812 813
v 350.2243 1293.2219 275.4553
v 349.0422 1292.4291 275.8776
v 349.1508 1292.2697 275.4556
f 814 815 816
v 349.0422 1292.4291 275.8776
v 350.2243 1293.2219 275.4553
v 350.0797 1293.3474 275.8773
f 817 818 819
v 344.7829 1296.0088 277.0321
v 345.0433 1295.7510 277.0321
v 345.9504 1296.9207 277.0868
f 820 821 822
v 345.9504 1296.9207 277.0868
v 344.5938 1296.3223 277.0320
v 344.7829 1296.0088 277.0321
f 823 824 825
v 345.9504 1296.9207 277.0868
v 344.4907 1296.6745 277.0319
v 344.5938 1296.3223 277.0320
f 826 827 828
v 344.4907 1296.6745 277.0319
v 345.9504 1296.9207 277.0868
v 344.4807 1297.0415 277.0319
f 829 830 831
v 345.9504 1296.9207 277.0868
v 344.5617 1297.4003 277.0318
v 344.4807 1297.0415 277.0319
f 832 833 834
v 344.5617 1297.4003 277.0318
v 345.9504 1296.9207 277.0868
v 344.7306 1297.7299 277.0317
f 835 836 837
v 345.9504 1296.9207 277.0868
v 344.9763 1298.0092 277.0317
v 344.7306 1297.7299 277.0317
f 838 839 840
v 344.9763 1298.0092 277.0317
v 345.9504 1296.9207 277.0868
v 345.2819 1298.2184 277.0316
f 841 842 843
v 345.6302 1298.3475 277.0315
v 345.2819 1298.2184 277.0316
v 345.9504 1296.9207 277.0868
f 844 845 846
v 345.9504 1296.9207 277.0868
v 345.9983 1298.3864 277.0315
v 345.6302 1298.3475 277.0315
f 847 848 849
v 346.3642 1298.3325 277.0315
v 345.9983 1298.3864 277.0315
v 345.9504 1296.9207 277.0868
f 850 851 852
v 345.9504 1296.9207 277.0868
v 346.7038 1298.1906 277.0315
v 346.3642 1298.3325 277.0315
f 853 854 855
v 346.9961 1297.9688 277.0316
v 346.7038 1298.1906 277.0315
v 345.9504 1296.9207 277.0868
f 856 857 858
v 345.9504 1296.9207 277.0868
v 347.2224 1297.6803 277.0316
v 346.9961 1297.9688 277.0316
f 859 860 861
v 345.9504 1296.9207 277.0868
v 347.3695 1297.3448 277.0317
v 347.2224 1297.6803 277.0316
f 862 863 864
v 347.3906 1296.6168 277.0318
v 347.4255 1296.9827 277.0317
v 345.9504 1296.9207 277.0868
f 865 866 867
v 347.3695 1297.3448 277.0317
v 345.9504 1296.9207 277.0868
v 347.4255 1296.9827 277.0317
f 868 869 870
v 345.9504 1296.9207 277.0868
v 347.2646 1296.2691 277.0319
v 347.3906 1296.6168 277.0318
f 871 872 873
v 347.2646 1296.2691 277.0319
v 345.9504 1296.9207 277.0868
v 347.0568 1295.9626 277.0320
f 874 875 876
v 345.9504 1296.9207 277.0868
v 346.7781 1295.7165 277.0320
v 347.0568 1295.9626 277.0320
f 877 878 879
v 346.7781 1295.7165 277.0320
v 345.9504 1296.9207 277.0868
v 346.4497 1295.5463 277.0321
f 880 881 882
v 346.0875 1295.4612 277.0321
v 346.4497 1295.5463 277.0321
v 345.9504 1296.9207 277.0868
f 883 884 885
v 345.9504 1296.9207 277.0868
v 345.7175 1295.4682 277.0321
v 346.0875 1295.4612 277.0321
f 886 887 888
v 345.3617 1295.5673 277.0321
v 345.7175 1295.4682 277.0321
v 345.9504 1296.9207 277.0868
f 889 890 891
v 345.9504 1296.9207 277.0868
v 345.0433 1295.7510 277.0321
v 345.3617 1295.5673 277.0321
f 892 893 894
v 350.3494 1294.7417 276.2710
v 349.6517 1293.7176 276.2713
v 350.0797 1293.3474 275.8773
f 895 896 897
v 350.0797 1293.3474 275.8773
v 350.8567 1294.4923 275.8770
v 350.3494 1294.7417 276.2710
f 898 899 900
v 349.9886 1300.9662 252.4496
v 350.8626 1299.8538 252.4498
v 348.8599 1301.8241 252.4495
f 901 902 903
v 351.4291 1298.5573 252.4500
v 351.6503 1297.1567 252.4503
v 350.8626 1299.8538 252.4498
f 904 905 906
v 351.5146 1295.7421 252.4506
v 347.5474 1302.3726 252.4494
v 351.6503 1297.1567 252.4503
f 907 908 909
v 348.8599 1301.8241 252.4495
v 350.8626 1299.8538 252.4498
v 351.6503 1297.1567 252.4503
f 910 911 912
v 351.0279 1294.3995 252.4509
v 347.5474 1302.3726 252.4494
v 351.5146 1295.7421 252.4506
f 913 914 915
v 348.8599 1301.8241 252.4495
v 351.6503 1297.1567 252.4503
v 347.5474 1302.3726 252.4494
f 916 917 918
v 347.5474 1302.3726 252.4494
v 351.0279 1294.3995 252.4509
v 346.1350 1302.5795 252.4495
f 919 920 921
v 351.0279 1294.3995 252.4509
v 344.7116 1302.4293 252.4496
v 346.1350 1302.5795 252.4495
f 922 923 924
v 343.3653 1301.9329 252.4497
v 344.7116 1302.4293 252.4496
v 350.2228 1293.2166 252.4511
f 925 926 927
v 342.1811 1301.1210 252.4500
v 343.3653 1301.9329 252.4497
v 347.8745 1291.6060 252.4516
f 928 929 930
v 351.0279 1294.3995 252.4509
v 350.2228 1293.2166 252.4511
v 344.7116 1302.4293 252.4496
f 931 932 933
v 347.8745 1291.6060 252.4516
v 343.3653 1301.9329 252.4497
v 349.1492 1292.2645 252.4514
f 934 935 936
v 347.8745 1291.6060 252.4516
v 341.2353 1300.0446 252.4502
v 342.1811 1301.1210 252.4500
f 937 938 939
v 345.0488 1291.3085 252.4518
v 341.2353 1300.0446 252.4502
v 346.4786 1291.2797 252.4517
f 940 941 942
v 341.2353 1300.0446 252.4502
v 347.8745 1291.6060 252.4516
v 346.4786 1291.2797 252.4517
f 943 944 945
v 343.6758 1291.6882 252.4518
v 340.2701 1297.3822 252.4508
v 345.0488 1291.3085 252.4518
f 946 947 948
v 340.5838 1298.7714 252.4505
v 345.0488 1291.3085 252.4518
v 340.2701 1297.3822 252.4508
f 949 950 951
v 345.0488 1291.3085 252.4518
v 340.5838 1298.7714 252.4505
v 341.2353 1300.0446 252.4502
f 952 953 954
v 340.7107 1294.6051 252.4514
v 342.4467 1292.3975 252.4517
v 341.4374 1293.3901 252.4516
f 955 956 957
v 340.7107 1294.6051 252.4514
v 340.3123 1295.9631 252.4511
v 340.2701 1297.3822 252.4508
f 958 959 960
v 342.4467 1292.3975 252.4517
v 340.7107 1294.6051 252.4514
v 340.2701 1297.3822 252.4508
f 961 962 963
v 343.6758 1291.6882 252.4518
v 342.4467 1292.3975 252.4517
v 340.2701 1297.3822 252.4508
f 964 965 966
v 350.2228 1293.2166 252.4511
v 349.1492 1292.2645 252.4514
v 343.3653 1301.9329 252.4497
f 967 968 969
v 350.8626 1299.8538 252.4498
v 351.4306 1298.5626 275.4542
v 351.4291 1298.5573 252.4500
f 970 971 972
v 341.4374 1293.3901 252.4516
v 340.7121 1294.6104 275.4556
v 340.7107 1294.6051 252.4514
f 973 974 975
v 340.7107 1294.6051 252.4514
v 340.3138 1295.9684 275.4553
v 340.3123 1295.9631 252.4511
f 976 977 978
v 340.3123 1295.9631 252.4511
v 340.2716 1297.3874 275.4550
v 340.2701 1297.3822 252.4508
f 979 980 981
v 340.2701 1297.3822 252.4508
v 340.5854 1298.7766 275.4547
v 340.5838 1298.7714 252.4505
f 982 983 984
v 340.5838 1298.7714 252.4505
v 341.2367 1300.0498 275.4544
v 341.2353 1300.0446 252.4502
f 985 986 987
v 341.2353 1300.0446 252.4502
v 342.1826 1301.1263 275.4542
v 342.1811 1301.1210 252.4500
f 988 989 990
v 342.1811 1301.1210 252.4500
v 343.3667 1301.9381 275.4539
v 343.3653 1301.9329 252.4497
f 991 992 993
v 343.3653 1301.9329 252.4497
v 344.7131 1302.4346 275.4538
v 344.7116 1302.4293 252.4496
f 994 995 996
v 344.7116 1302.4293 252.4496
v 346.1364 1302.5847 275.4537
v 346.1350 1302.5795 252.4495
f 997 998 999
v 346.1350 1302.5795 252.4495
v 347.5489 1302.3779 275.4536
v 347.5474 1302.3726 252.4494
f 1000 1001 1002
v 347.5474 1302.3726 252.4494
v 348.8614 1301.8294 275.4537
v 348.8599 1301.8241 252.4495
f 1003 1004 1005
v 348.8599 1301.8241 252.4495
v 349.9901 1300.9714 275.4538
v 349.9886 1300.9662 252.4496
f 1006 1007 1008
v 349.9886 1300.9662 252.4496
v 350.8641 1299.8591 275.4540
v 350.8626 1299.8538 252.4498
f 1009 1010 1011
v 349.1492 1292.2645 252.4514
v 347.8760 1291.6112 275.4558
v 347.8745 1291.6060 252.4516
f 1012 1013 1014
v 347.8745 1291.6060 252.4516
v 346.4802 1291.2849 275.4559
v 346.4786 1291.2797 252.4517
f 1015 1016 1017
v 346.4786 1291.2797 252.4517
v 345.0502 1291.3137 275.4560
v 345.0488 1291.3085 252.4518
f 1018 1019 1020
v 345.0488 1291.3085 252.4518
v 343.6773 1291.6935 275.4560
v 343.6758 1291.6882 252.4518
f 1021 1022 1023
v 343.6758 1291.6882 252.4518
v 342.4482 1292.4027 275.4559
v 342.4467 1292.3975 252.4517
f 1024 1025 1026
v 342.4467 1292.3975 252.4517
v 341.4389 1293.3954 275.4558
v 341.4374 1293.3901 252.4516
f 1027 1028 1029
v 351.4291 1298.5573 252.4500
v 351.6518 1297.1620 275.4545
v 351.6503 1297.1567 252.4503
f 1030 1031 1032
v 351.6503 1297.1567 252.4503
v 351.5160 1295.7473 275.4548
v 351.5146 1295.7421 252.4506
f 1033 1034 1035
v 351.5146 1295.7421 252.4506
v 351.0295 1294.4047 275.4551
v 351.0279 1294.3995 252.4509
f 1036 1037 1038
v 351.0279 1294.3995 252.4509
v 350.2243 1293.2219 275.4553
v 350.2228 1293.2166 252.4511
f 1039 1040 1041
v 350.2228 1293.2166 252.4511
v 349.1508 1292.2697 275.4556
v 349.1492 1292.2645 252.4514
f 1042 1043 1044
