# Grid Center: 2616400, 1265200
# Global Anchor: 7.64977475454284, 47.53283995868075, 0.0

g building_ID_FCE77BC3-0883-49E3-BEEA-4C2AA6FD3452
v 713.3224 598.3667 262.7967
v 716.3688 602.5955 262.7959
v 727.7494 587.9602 262.7959
f 1 2 3
v 716.3688 602.5955 262.7959
v 730.8137 592.2128 262.7952
v 727.7494 587.9602 262.7959
f 4 5 6
v 716.3703 602.5969 275.1185
v 713.3238 598.3680 273.8133
v 720.5408 593.1617 273.8090
f 7 8 9
v 730.8152 592.2143 275.1178
v 720.5408 593.1617 273.8090
v 727.7507 587.9614 273.8056
f 10 11 12
v 716.3703 602.5969 275.1185
v 720.5408 593.1617 273.8090
v 730.8152 592.2143 275.1178
f 13 14 15
v 727.7494 587.9602 262.7959
v 727.7507 587.9614 273.8056
v 720.5408 593.1617 273.8090
f 16 17 18
v 727.7494 587.9602 262.7959
v 720.5408 593.1617 273.8090
v 713.3224 598.3667 262.7967
f 19 20 21
v 736.3106 599.8407 259.6570
v 698.2570 615.8114 259.6598
v 703.6290 623.2869 259.6585
f 22 23 24
v 736.3106 599.8407 259.6570
v 716.4496 602.7078 259.6590
v 698.2570 615.8114 259.6598
f 25 26 27
v 730.8133 592.2126 259.6584
v 716.3683 602.5951 259.6590
v 716.4496 602.7078 259.6590
f 28 29 30
v 736.3106 599.8407 259.6570
v 730.8133 592.2126 259.6584
v 716.4496 602.7078 259.6590
f 31 32 33
v 728.0323 605.7832 280.2637
v 730.8160 592.2150 281.3286
v 736.3133 599.8431 280.2623
f 34 35 36
v 719.8761 611.6350 280.2651
v 716.4524 602.7104 281.3132
v 728.0323 605.7832 280.2637
f 37 38 39
v 716.3711 602.5977 281.3292
v 730.8160 592.2150 281.3286
v 716.4524 602.7104 281.3132
f 40 41 42
v 728.0323 605.7832 280.2637
v 716.4524 602.7104 281.3132
v 730.8160 592.2150 281.3286
f 43 44 45
v 711.9042 605.9865 281.3135
v 716.4524 602.7104 281.3132
v 719.8761 611.6350 280.2651
f 46 47 48
v 703.6315 623.2894 280.2688
v 703.4576 612.0701 281.3129
v 711.8017 617.4276 280.2674
f 49 50 51
v 698.2597 615.8140 281.3121
v 703.4576 612.0701 281.3129
v 703.6315 623.2894 280.2688
f 52 53 54
v 711.8017 617.4276 280.2674
v 703.4576 612.0701 281.3129
v 711.9042 605.9865 281.3135
f 55 56 57
v 719.8761 611.6350 280.2651
v 711.8017 617.4276 280.2674
v 711.9042 605.9865 281.3135
f 58 59 60
v 703.6290 623.2869 259.6585
v 703.6315 623.2894 280.2688
v 711.8017 617.4276 280.2674
f 61 62 63
v 711.8017 617.4276 280.2674
v 719.8761 611.6350 280.2651
v 703.6290 623.2869 259.6585
f 64 65 66
v 736.3120 599.8419 269.9576
v 736.3106 599.8407 259.6570
v 728.0323 605.7832 280.2637
f 67 68 69
v 698.2570 615.8114 259.6598
v 698.2597 615.8140 281.3121
v 703.6315 623.2894 280.2688
f 70 71 72
v 716.4509 602.7090 269.1327
v 716.4524 602.7104 281.3132
v 711.9042 605.9865 281.3135
f 73 74 75
v 703.4576 612.0701 281.3129
v 716.4496 602.7078 259.6590
v 711.9042 605.9865 281.3135
f 76 77 78
v 711.9042 605.9865 281.3135
v 716.4496 602.7078 259.6590
v 716.4509 602.7090 269.1327
f 79 80 81
v 716.4496 602.7078 259.6590
v 703.4576 612.0701 281.3129
v 698.2570 615.8114 259.6598
f 82 83 84
v 730.8152 592.2143 275.1178
v 730.8160 592.2150 281.3286
v 716.3703 602.5969 275.1185
f 85 86 87
v 730.8133 592.2126 259.6584
v 730.8137 592.2128 262.7952
v 716.3688 602.5955 262.7959
f 88 89 90
v 736.3120 599.8419 269.9576
v 736.3133 599.8431 280.2623
v 730.8160 592.2150 281.3286
f 91 92 93
v 736.3120 599.8419 269.9576
v 730.8152 592.2143 275.1178
v 736.3106 599.8407 259.6570
f 94 95 96
v 730.8160 592.2150 281.3286
v 730.8152 592.2143 275.1178
v 736.3120 599.8419 269.9576
f 97 98 99
v 727.7507 587.9614 273.8056
v 730.8137 592.2128 262.7952
v 730.8152 592.2143 275.1178
f 100 101 102
v 736.3106 599.8407 259.6570
v 730.8137 592.2128 262.7952
v 730.8133 592.2126 259.6584
f 103 104 105
v 727.7494 587.9602 262.7959
v 730.8137 592.2128 262.7952
v 727.7507 587.9614 273.8056
f 106 107 108
v 736.3106 599.8407 259.6570
v 730.8152 592.2143 275.1178
v 730.8137 592.2128 262.7952
f 109 110 111
v 713.3238 598.3680 273.8133
v 716.4509 602.7090 269.1327
v 713.3224 598.3667 262.7967
f 112 113 114
v 716.3683 602.5951 259.6590
v 716.3688 602.5955 262.7959
v 716.4496 602.7078 259.6590
f 115 116 117
v 716.4524 602.7104 281.3132
v 716.4509 602.7090 269.1327
v 716.3711 602.5977 281.3292
f 118 119 120
v 716.4496 602.7078 259.6590
v 716.3688 602.5955 262.7959
v 716.4509 602.7090 269.1327
f 121 122 123
v 716.4509 602.7090 269.1327
v 716.3688 602.5955 262.7959
v 713.3224 598.3667 262.7967
f 124 125 126
v 713.3238 598.3680 273.8133
v 716.3703 602.5969 275.1185
v 716.4509 602.7090 269.1327
f 127 128 129
v 716.3703 602.5969 275.1185
v 716.3711 602.5977 281.3292
v 716.4509 602.7090 269.1327
f 130 131 132
v 720.5408 593.1617 273.8090
v 713.3238 598.3680 273.8133
v 713.3224 598.3667 262.7967
f 133 134 135
v 736.3106 599.8407 259.6570
v 719.8761 611.6350 280.2651
v 728.0323 605.7832 280.2637
f 136 137 138
v 703.6290 623.2869 259.6585
v 719.8761 611.6350 280.2651
v 736.3106 599.8407 259.6570
f 139 140 141
v 728.0323 605.7832 280.2637
v 736.3133 599.8431 280.2623
v 736.3120 599.8419 269.9576
f 142 143 144
v 698.2570 615.8114 259.6598
v 703.6315 623.2894 280.2688
v 703.6290 623.2869 259.6585
f 145 146 147
v 703.4576 612.0701 281.3129
v 698.2597 615.8140 281.3121
v 698.2570 615.8114 259.6598
f 148 149 150
v 730.8160 592.2150 281.3286
v 716.3711 602.5977 281.3292
v 716.3703 602.5969 275.1185
f 151 152 153
v 730.8133 592.2126 259.6584
v 716.3688 602.5955 262.7959
v 716.3683 602.5951 259.6590
f 154 155 156

g building_ID_F648B1CF-B65D-4A72-81F0-FBC852E2517F
v 710.2680 514.5163 264.4721
v 693.0056 505.3427 264.4748
v 703.8563 519.4384 264.4725
f 157 158 159
v 686.4407 500.0844 264.4759
v 693.0056 505.3427 264.4748
v 694.4431 493.9320 264.4755
f 160 161 162
v 710.2680 514.5163 264.4721
v 694.4431 493.9320 264.4755
v 693.0056 505.3427 264.4748
f 163 164 165
v 691.4249 506.5599 264.4749
v 693.0056 505.3427 264.4748
v 686.4407 500.0844 264.4759
f 166 167 168
v 686.4421 500.0855 275.8755
v 694.4445 493.9332 275.8751
v 693.0070 505.3438 275.8744
f 169 170 171
v 710.2694 514.5174 275.8717
v 693.0070 505.3438 275.8744
v 694.4445 493.9332 275.8751
f 172 173 174
v 691.4263 506.5610 275.8745
v 686.4421 500.0855 275.8755
v 693.0070 505.3438 275.8744
f 175 176 177
v 710.2694 514.5174 275.8717
v 703.8577 519.4396 275.8721
v 693.0070 505.3438 275.8744
f 178 179 180
v 703.8563 519.4384 264.4725
v 703.8577 519.4396 275.8721
v 710.2694 514.5174 275.8717
f 181 182 183
v 693.0056 505.3427 264.4748
v 693.0070 505.3438 275.8744
v 703.8577 519.4396 275.8721
f 184 185 186
v 691.4249 506.5599 264.4749
v 691.4263 506.5610 275.8745
v 693.0070 505.3438 275.8744
f 187 188 189
v 686.4407 500.0844 264.4759
v 686.4421 500.0855 275.8755
v 691.4263 506.5610 275.8745
f 190 191 192
v 694.4431 493.9320 264.4755
v 694.4445 493.9332 275.8751
v 686.4421 500.0855 275.8755
f 193 194 195
v 710.2680 514.5163 264.4721
v 710.2694 514.5174 275.8717
v 694.4445 493.9332 275.8751
f 196 197 198
v 703.8563 519.4384 264.4725
v 710.2694 514.5174 275.8717
v 710.2680 514.5163 264.4721
f 199 200 201
v 693.0056 505.3427 264.4748
v 703.8577 519.4396 275.8721
v 703.8563 519.4384 264.4725
f 202 203 204
v 691.4249 506.5599 264.4749
v 693.0070 505.3438 275.8744
v 693.0056 505.3427 264.4748
f 205 206 207
v 686.4407 500.0844 264.4759
v 691.4263 506.5610 275.8745
v 691.4249 506.5599 264.4749
f 208 209 210
v 694.4431 493.9320 264.4755
v 686.4421 500.0855 275.8755
v 686.4407 500.0844 264.4759
f 211 212 213
v 710.2680 514.5163 264.4721
v 694.4445 493.9332 275.8751
v 694.4431 493.9320 264.4755
f 214 215 216

g building_ID_DF509EAC-4041-4965-9621-2A13E703D61F
v 603.4475 594.6648 284.6327
v 603.0972 594.9207 284.7577
v 594.4648 581.7328 283.7617
f 217 218 219
v 603.4475 594.6648 284.6327
v 594.4648 581.7328 283.7617
v 603.4685 594.6487 284.6267
f 220 221 222
v 594.4648 581.7328 283.7617
v 598.2489 579.9297 282.8586
v 603.4685 594.6487 284.6267
f 223 224 225
v 598.2489 579.9297 282.8586
v 608.4693 590.9870 281.8176
v 603.4685 594.6487 284.6267
f 226 227 228
v 608.4693 590.9870 281.8176
v 598.2489 579.9297 282.8586
v 608.8854 590.6768 281.5826
f 229 230 231
v 602.9495 595.0301 284.7997
v 602.5693 595.3082 284.9017
v 594.4648 581.7328 283.7617
f 232 233 234
v 603.8149 597.7487 285.0593
v 599.9097 598.4852 284.1546
v 602.2799 595.5199 284.8267
f 235 236 237
v 602.5693 595.3082 284.9017
v 602.2799 595.5199 284.8267
v 594.4648 581.7328 283.7617
f 238 239 240
v 599.9097 598.4852 284.1546
v 594.4648 581.7328 283.7617
v 602.2799 595.5199 284.8267
f 241 242 243
v 603.0972 594.9207 284.7577
v 602.9495 595.0301 284.7997
v 594.4648 581.7328 283.7617
f 244 245 246
v 587.4140 588.5106 282.9708
v 595.8636 600.3148 283.2849
v 578.4337 595.0516 282.8920
f 247 248 249
v 595.8636 600.3148 283.2849
v 587.4140 588.5106 282.9708
v 599.9097 598.4852 284.1546
f 250 251 252
v 599.9097 598.4852 284.1546
v 593.2282 582.9542 283.6228
v 593.4993 582.6615 283.6537
f 253 254 255
v 592.9789 583.2228 283.5948
v 593.2282 582.9542 283.6228
v 599.9097 598.4852 284.1546
f 256 257 258
v 591.5247 584.6677 283.4308
v 592.9789 583.2228 283.5948
v 599.9097 598.4852 284.1546
f 259 260 261
v 599.9097 598.4852 284.1546
v 593.4993 582.6615 283.6537
v 594.4648 581.7328 283.7617
f 262 263 264
v 599.9097 598.4852 284.1546
v 590.0134 586.0527 283.2618
v 591.5247 584.6677 283.4308
f 265 266 267
v 589.8178 586.2002 283.2408
v 590.0134 586.0527 283.2618
v 599.9097 598.4852 284.1546
f 268 269 270
v 587.4140 588.5106 282.9708
v 589.8178 586.2002 283.2408
v 599.9097 598.4852 284.1546
f 271 272 273
v 569.4068 602.5038 283.6831
v 572.9783 598.9952 282.8132
v 580.3471 612.0002 283.0482
f 274 275 276
v 577.3835 613.2523 283.6814
v 569.4068 602.5038 283.6831
v 580.3471 612.0002 283.0482
f 277 278 279
v 608.8854 590.6768 281.5826
v 598.2489 579.9297 282.8586
v 610.9365 589.2363 280.7745
f 280 281 282
v 609.2635 591.0798 281.5825
v 608.8854 590.6768 281.5826
v 610.9365 589.2363 280.7745
f 283 284 285
v 598.2489 579.9297 282.8586
v 607.1854 573.1834 279.7224
v 610.9365 589.2363 280.7745
f 286 287 288
v 609.1376 591.1231 281.5825
v 608.9074 591.0178 281.5826
v 608.8854 590.6768 281.5826
f 289 290 291
v 608.8854 590.6768 281.5826
v 609.2635 591.0798 281.5825
v 609.1376 591.1231 281.5825
f 292 293 294
v 607.1854 573.1834 279.7224
v 613.9366 586.7302 279.4876
v 613.2579 587.2330 279.7556
f 295 296 297
v 613.9366 586.7302 279.4876
v 607.1854 573.1834 279.7224
v 614.6722 586.2311 279.2026
f 298 299 300
v 614.8588 586.1136 279.1316
v 614.6722 586.2311 279.2026
v 607.1854 573.1834 279.7224
f 301 302 303
v 616.1263 585.1761 278.6315
v 614.8588 586.1136 279.1316
v 607.1854 573.1834 279.7224
f 304 305 306
v 607.1854 573.1834 279.7224
v 611.3733 588.8351 280.5795
v 611.2428 588.9815 280.6415
f 307 308 309
v 611.3733 588.8351 280.5795
v 607.1854 573.1834 279.7224
v 611.7403 588.4741 280.4125
f 310 311 312
v 610.9365 589.2363 280.7745
v 607.1854 573.1834 279.7224
v 611.2428 588.9815 280.6415
f 313 314 315
v 612.1265 588.1351 280.2415
v 611.7403 588.4741 280.4125
v 607.1854 573.1834 279.7224
f 316 317 318
v 607.1854 573.1834 279.7224
v 613.2231 587.2591 279.7706
v 612.1265 588.1351 280.2415
f 319 320 321
v 607.1854 573.1834 279.7224
v 613.2579 587.2330 279.7556
v 613.2231 587.2591 279.7706
f 322 323 324
v 603.4475 594.6648 284.6327
v 603.4647 594.6499 277.4510
v 603.4434 594.6655 273.8741
f 325 326 327
v 603.4430 594.6651 270.2872
v 603.4434 594.6655 273.8741
v 603.4647 594.6499 277.4510
f 328 329 330
v 603.4659 594.6480 270.2872
v 603.4430 594.6651 270.2872
v 603.4647 594.6499 277.4510
f 331 332 333
v 598.2476 579.9282 270.2890
v 598.2489 579.9297 282.8586
v 594.4634 581.7314 270.2892
f 334 335 336
v 602.2783 595.5181 270.2872
v 603.8132 597.7470 270.2868
v 603.8149 597.7487 285.0593
f 337 338 339
v 602.2799 595.5199 284.8267
v 602.2794 595.5195 281.1338
v 603.8149 597.7487 285.0593
f 340 341 342
v 599.9083 598.4834 270.2871
v 599.9097 598.4852 284.1546
v 603.8132 597.7470 270.2868
f 343 344 345
v 603.8149 597.7487 285.0593
v 603.8132 597.7470 270.2868
v 599.9097 598.4852 284.1546
f 346 347 348
v 587.4127 588.5091 270.2892
v 587.4140 588.5106 282.9708
v 578.4337 595.0516 282.8920
f 349 350 351
v 595.2475 600.7760 270.2873
v 595.2488 600.7775 283.2759
v 595.8622 600.3133 270.2873
f 352 353 354
v 595.1896 600.8121 270.2873
v 595.1909 600.8136 283.2749
v 595.2475 600.7760 270.2873
f 355 356 357
v 580.3458 611.9987 270.2876
v 580.3471 612.0002 283.0482
v 595.1896 600.8121 270.2873
f 358 359 360
v 595.8622 600.3133 270.2873
v 595.8636 600.3148 283.2849
v 599.9083 598.4834 270.2871
f 361 362 363
v 593.2282 582.9542 283.6228
v 593.4979 582.6599 270.2892
v 593.4993 582.6615 283.6537
f 364 365 366
v 593.2282 582.9542 283.6228
v 592.9789 583.2228 283.5948
v 592.9775 583.2213 270.2892
f 367 368 369
v 593.4979 582.6599 270.2892
v 593.2282 582.9542 283.6228
v 592.9775 583.2213 270.2892
f 370 371 372
v 594.4634 581.7314 270.2892
v 594.4648 581.7328 283.7617
v 593.4993 582.6615 283.6537
f 373 374 375
v 594.4634 581.7314 270.2892
v 593.4993 582.6615 283.6537
v 593.4979 582.6599 270.2892
f 376 377 378
v 589.8165 586.1987 270.2892
v 589.8178 586.2002 283.2408
v 587.4127 588.5091 270.2892
f 379 380 381
v 587.4140 588.5106 282.9708
v 587.4127 588.5091 270.2892
v 589.8178 586.2002 283.2408
f 382 383 384
v 590.0134 586.0527 283.2618
v 589.8178 586.2002 283.2408
v 590.0121 586.0512 270.2892
f 385 386 387
v 591.5234 584.6662 270.2892
v 591.5247 584.6677 283.4308
v 590.0134 586.0527 283.2618
f 388 389 390
v 591.5234 584.6662 270.2892
v 590.0134 586.0527 283.2618
v 590.0121 586.0512 270.2892
f 391 392 393
v 591.5234 584.6662 270.2892
v 592.9775 583.2213 270.2892
v 591.5247 584.6677 283.4308
f 394 395 396
v 572.9770 598.9936 270.2896
v 572.9783 598.9952 282.8132
v 569.4055 602.5022 270.2895
f 397 398 399
v 569.4055 602.5022 270.2895
v 569.4068 602.5038 283.6831
v 577.3835 613.2523 283.6814
f 400 401 402
v 577.3822 613.2507 270.2879
v 577.3835 613.2523 283.6814
v 580.3471 612.0002 283.0482
f 403 404 405
v 578.4324 595.0501 270.2894
v 578.4337 595.0516 282.8920
v 572.9783 598.9952 282.8132
f 406 407 408
v 609.2623 591.0785 270.2869
v 609.2635 591.0798 281.5825
v 610.9365 589.2363 280.7745
f 409 410 411
v 607.1843 573.1824 270.2888
v 607.1854 573.1834 279.7224
v 598.2476 579.9282 270.2890
f 412 413 414
v 608.8842 590.6756 270.2870
v 608.8854 590.6768 281.5826
v 608.9074 591.0178 281.5826
f 415 416 417
v 609.1364 591.1219 270.2869
v 609.1376 591.1231 281.5825
v 609.2635 591.0798 281.5825
f 418 419 420
v 608.9062 591.0164 270.2870
v 608.9074 591.0178 281.5826
v 609.1376 591.1231 281.5825
f 421 422 423
v 613.9356 586.7291 270.2869
v 614.6722 586.2311 279.2026
v 614.6713 586.2300 270.2869
f 424 425 426
v 616.1254 585.1753 270.2868
v 616.1263 585.1761 278.6315
v 607.1843 573.1824 270.2888
f 427 428 429
v 616.1263 585.1761 278.6315
v 614.8579 586.1127 270.2869
v 614.8588 586.1136 279.1316
f 430 431 432
v 616.1263 585.1761 278.6315
v 616.1254 585.1753 270.2868
v 614.8579 586.1127 270.2869
f 433 434 435
v 613.2220 587.2579 270.2869
v 612.1254 588.1338 270.2869
v 613.2231 587.2591 279.7706
f 436 437 438
v 612.1254 588.1338 270.2869
v 612.1265 588.1351 280.2415
v 613.2231 587.2591 279.7706
f 439 440 441
v 611.7393 588.4729 270.2869
v 611.7403 588.4741 280.4125
v 612.1254 588.1338 270.2869
f 442 443 444
v 611.7393 588.4729 270.2869
v 611.3723 588.8339 270.2869
v 611.7403 588.4741 280.4125
f 445 446 447
v 611.3723 588.8339 270.2869
v 611.2416 588.9802 270.2869
v 611.3733 588.8351 280.5795
f 448 449 450
v 610.9353 589.2350 270.2869
v 610.9365 589.2363 280.7745
v 611.2416 588.9802 270.2869
f 451 452 453
v 610.9365 589.2363 280.7745
v 611.2428 588.9815 280.6415
v 611.2416 588.9802 270.2869
f 454 455 456
v 602.2783 595.5181 270.2872
v 595.8622 600.3133 270.2873
v 599.9083 598.4834 270.2871
f 457 458 459
v 595.8622 600.3133 270.2873
v 595.1896 600.8121 270.2873
v 595.2475 600.7760 270.2873
f 460 461 462
v 577.3822 613.2507 270.2879
v 580.3458 611.9987 270.2876
v 595.1896 600.8121 270.2873
f 463 464 465
v 587.4127 588.5091 270.2892
v 595.1896 600.8121 270.2873
v 595.8622 600.3133 270.2873
f 466 467 468
v 603.8132 597.7470 270.2868
v 602.2783 595.5181 270.2872
v 599.9083 598.4834 270.2871
f 469 470 471
v 603.0957 594.9190 270.2872
v 602.2783 595.5181 270.2872
v 602.9480 595.0284 270.2872
f 472 473 474
v 587.4127 588.5091 270.2892
v 602.2783 595.5181 270.2872
v 603.0957 594.9190 270.2872
f 475 476 477
v 602.2783 595.5181 270.2872
v 587.4127 588.5091 270.2892
v 595.8622 600.3133 270.2873
f 478 479 480
v 587.4127 588.5091 270.2892
v 569.4055 602.5022 270.2895
v 577.3822 613.2507 270.2879
f 481 482 483
v 569.4055 602.5022 270.2895
v 578.4324 595.0501 270.2894
v 572.9770 598.9936 270.2896
f 484 485 486
v 569.4055 602.5022 270.2895
v 587.4127 588.5091 270.2892
v 578.4324 595.0501 270.2894
f 487 488 489
v 577.3822 613.2507 270.2879
v 595.1896 600.8121 270.2873
v 587.4127 588.5091 270.2892
f 490 491 492
v 587.4127 588.5091 270.2892
v 590.0121 586.0512 270.2892
v 589.8165 586.1987 270.2892
f 493 494 495
v 591.5234 584.6662 270.2892
v 590.0121 586.0512 270.2892
v 598.2476 579.9282 270.2890
f 496 497 498
v 598.2476 579.9282 270.2890
v 592.9775 583.2213 270.2892
v 591.5234 584.6662 270.2892
f 499 500 501
v 598.2476 579.9282 270.2890
v 590.0121 586.0512 270.2892
v 587.4127 588.5091 270.2892
f 502 503 504
v 593.4979 582.6599 270.2892
v 592.9775 583.2213 270.2892
v 598.2476 579.9282 270.2890
f 505 506 507
v 603.4659 594.6480 270.2872
v 587.4127 588.5091 270.2892
v 603.0957 594.9190 270.2872
f 508 509 510
v 608.9062 591.0164 270.2870
v 609.1364 591.1219 270.2869
v 609.2623 591.0785 270.2869
f 511 512 513
v 608.9062 591.0164 270.2870
v 610.9353 589.2350 270.2869
v 608.8842 590.6756 270.2870
f 514 515 516
v 608.8842 590.6756 270.2870
v 612.1254 588.1338 270.2869
v 608.4680 590.9856 270.2870
f 517 518 519
v 610.9353 589.2350 270.2869
v 608.9062 591.0164 270.2870
v 609.2623 591.0785 270.2869
f 520 521 522
v 611.3723 588.8339 270.2869
v 610.9353 589.2350 270.2869
v 611.2416 588.9802 270.2869
f 523 524 525
v 611.3723 588.8339 270.2869
v 611.7393 588.4729 270.2869
v 608.8842 590.6756 270.2870
f 526 527 528
v 610.9353 589.2350 270.2869
v 611.3723 588.8339 270.2869
v 608.8842 590.6756 270.2870
f 529 530 531
v 611.7393 588.4729 270.2869
v 612.1254 588.1338 270.2869
v 608.8842 590.6756 270.2870
f 532 533 534
v 603.4659 594.6480 270.2872
v 608.4680 590.9856 270.2870
v 612.1254 588.1338 270.2869
f 535 536 537
v 598.2476 579.9282 270.2890
v 594.4634 581.7314 270.2892
v 593.4979 582.6599 270.2892
f 538 539 540
v 612.1254 588.1338 270.2869
v 598.2476 579.9282 270.2890
v 603.4659 594.6480 270.2872
f 541 542 543
v 598.2476 579.9282 270.2890
v 587.4127 588.5091 270.2892
v 603.4659 594.6480 270.2872
f 544 545 546
v 598.2476 579.9282 270.2890
v 612.1254 588.1338 270.2869
v 613.2220 587.2579 270.2869
f 547 548 549
v 603.4659 594.6480 270.2872
v 603.0957 594.9190 270.2872
v 603.4430 594.6651 270.2872
f 550 551 552
v 614.6713 586.2300 270.2869
v 614.8579 586.1127 270.2869
v 616.1254 585.1753 270.2868
f 553 554 555
v 613.9356 586.7291 270.2869
v 614.6713 586.2300 270.2869
v 616.1254 585.1753 270.2868
f 556 557 558
v 613.9356 586.7291 270.2869
v 607.1843 573.1824 270.2888
v 613.2220 587.2579 270.2869
f 559 560 561
v 598.2476 579.9282 270.2890
v 613.2220 587.2579 270.2869
v 607.1843 573.1824 270.2888
f 562 563 564
v 616.1254 585.1753 270.2868
v 607.1843 573.1824 270.2888
v 613.9356 586.7291 270.2869
f 565 566 567
v 595.1909 600.8136 283.2749
v 595.8636 600.3148 283.2849
v 595.2488 600.7775 283.2759
f 568 569 570
v 578.4337 595.0516 282.8920
v 595.8636 600.3148 283.2849
v 595.1909 600.8136 283.2749
f 571 572 573
v 572.9783 598.9952 282.8132
v 578.4337 595.0516 282.8920
v 580.3471 612.0002 283.0482
f 574 575 576
v 595.1909 600.8136 283.2749
v 580.3471 612.0002 283.0482
v 578.4337 595.0516 282.8920
f 577 578 579
v 608.8854 590.6768 281.5826
v 603.4673 594.6474 273.8671
v 603.4647 594.6499 277.4510
f 580 581 582
v 608.4693 590.9870 281.8176
v 603.4647 594.6499 277.4510
v 603.4685 594.6487 284.6267
f 583 584 585
v 603.4673 594.6474 273.8671
v 608.8854 590.6768 281.5826
v 608.4680 590.9856 270.2870
f 586 587 588
v 608.4680 590.9856 270.2870
v 603.4659 594.6480 270.2872
v 603.4673 594.6474 273.8671
f 589 590 591
v 608.8854 590.6768 281.5826
v 608.8842 590.6756 270.2870
v 608.4680 590.9856 270.2870
f 592 593 594
v 608.8854 590.6768 281.5826
v 603.4647 594.6499 277.4510
v 608.4693 590.9870 281.8176
f 595 596 597
v 613.2220 587.2579 270.2869
v 613.2579 587.2330 279.7556
v 613.9366 586.7302 279.4876
f 598 599 600
v 613.2220 587.2579 270.2869
v 613.2231 587.2591 279.7706
v 613.2579 587.2330 279.7556
f 601 602 603
v 613.9366 586.7302 279.4876
v 613.9356 586.7291 270.2869
v 613.2220 587.2579 270.2869
f 604 605 606
v 602.9495 595.0301 284.7997
v 602.2794 595.5195 281.1338
v 602.5693 595.3082 284.9017
f 607 608 609
v 602.2794 595.5195 281.1338
v 602.9495 595.0301 284.7997
v 603.0972 594.9207 284.7577
f 610 611 612
v 603.0972 594.9207 284.7577
v 603.4475 594.6648 284.6327
v 602.2794 595.5195 281.1338
f 613 614 615
v 602.2794 595.5195 281.1338
v 602.2799 595.5199 284.8267
v 602.5693 595.3082 284.9017
f 616 617 618
v 602.2794 595.5195 281.1338
v 603.4475 594.6648 284.6327
v 603.4434 594.6655 273.8741
f 619 620 621
v 602.2783 595.5181 270.2872
v 602.2794 595.5195 281.1338
v 603.4434 594.6655 273.8741
f 622 623 624
v 603.4430 594.6651 270.2872
v 603.0957 594.9190 270.2872
v 603.4434 594.6655 273.8741
f 625 626 627
v 603.4434 594.6655 273.8741
v 603.0957 594.9190 270.2872
v 602.9480 595.0284 270.2872
f 628 629 630
v 602.9480 595.0284 270.2872
v 602.2783 595.5181 270.2872
v 603.4434 594.6655 273.8741
f 631 632 633
v 603.4685 594.6487 284.6267
v 603.4647 594.6499 277.4510
v 603.4475 594.6648 284.6327
f 634 635 636
v 603.4659 594.6480 270.2872
v 603.4647 594.6499 277.4510
v 603.4673 594.6474 273.8671
f 637 638 639
v 598.2489 579.9297 282.8586
v 594.4648 581.7328 283.7617
v 594.4634 581.7314 270.2892
f 640 641 642
v 602.2783 595.5181 270.2872
v 603.8149 597.7487 285.0593
v 602.2794 595.5195 281.1338
f 643 644 645
v 587.4127 588.5091 270.2892
v 578.4337 595.0516 282.8920
v 578.4324 595.0501 270.2894
f 646 647 648
v 595.2488 600.7775 283.2759
v 595.8636 600.3148 283.2849
v 595.8622 600.3133 270.2873
f 649 650 651
v 595.1909 600.8136 283.2749
v 595.2488 600.7775 283.2759
v 595.2475 600.7760 270.2873
f 652 653 654
v 580.3471 612.0002 283.0482
v 595.1909 600.8136 283.2749
v 595.1896 600.8121 270.2873
f 655 656 657
v 595.8636 600.3148 283.2849
v 599.9097 598.4852 284.1546
v 599.9083 598.4834 270.2871
f 658 659 660
v 590.0121 586.0512 270.2892
v 589.8178 586.2002 283.2408
v 589.8165 586.1987 270.2892
f 661 662 663
v 591.5247 584.6677 283.4308
v 592.9775 583.2213 270.2892
v 592.9789 583.2228 283.5948
f 664 665 666
v 572.9783 598.9952 282.8132
v 569.4068 602.5038 283.6831
v 569.4055 602.5022 270.2895
f 667 668 669
v 569.4055 602.5022 270.2895
v 577.3835 613.2523 283.6814
v 577.3822 613.2507 270.2879
f 670 671 672
v 577.3822 613.2507 270.2879
v 580.3471 612.0002 283.0482
v 580.3458 611.9987 270.2876
f 673 674 675
v 578.4324 595.0501 270.2894
v 572.9783 598.9952 282.8132
v 572.9770 598.9936 270.2896
f 676 677 678
v 609.2623 591.0785 270.2869
v 610.9365 589.2363 280.7745
v 610.9353 589.2350 270.2869
f 679 680 681
v 607.1854 573.1834 279.7224
v 598.2489 579.9297 282.8586
v 598.2476 579.9282 270.2890
f 682 683 684
v 608.8842 590.6756 270.2870
v 608.9074 591.0178 281.5826
v 608.9062 591.0164 270.2870
f 685 686 687
v 609.1364 591.1219 270.2869
v 609.2635 591.0798 281.5825
v 609.2623 591.0785 270.2869
f 688 689 690
v 608.9062 591.0164 270.2870
v 609.1376 591.1231 281.5825
v 609.1364 591.1219 270.2869
f 691 692 693
v 614.6713 586.2300 270.2869
v 614.6722 586.2311 279.2026
v 614.8588 586.1136 279.1316
f 694 695 696
v 614.8579 586.1127 270.2869
v 614.6713 586.2300 270.2869
v 614.8588 586.1136 279.1316
f 697 698 699
v 613.9356 586.7291 270.2869
v 613.9366 586.7302 279.4876
v 614.6722 586.2311 279.2026
f 700 701 702
v 616.1263 585.1761 278.6315
v 607.1854 573.1834 279.7224
v 607.1843 573.1824 270.2888
f 703 704 705
v 611.7403 588.4741 280.4125
v 612.1265 588.1351 280.2415
v 612.1254 588.1338 270.2869
f 706 707 708
v 611.7403 588.4741 280.4125
v 611.3723 588.8339 270.2869
v 611.3733 588.8351 280.5795
f 709 710 711
v 611.3733 588.8351 280.5795
v 611.2416 588.9802 270.2869
v 611.2428 588.9815 280.6415
f 712 713 714

g building_ID_0381BCA8-5125-4FC2-BA5A-74F4DAFD2F0B
v 293.3826 332.8438 272.0089
v 311.9951 322.3171 272.0084
v 309.4823 317.8789 272.0088
f 715 716 717
v 309.4823 317.8789 272.0088
v 290.8698 328.4056 272.0092
v 293.3826 332.8438 272.0089
f 718 719 720
v 290.8701 328.4062 279.0159
v 309.4827 317.8794 279.0156
v 311.9956 322.3176 279.0152
f 721 722 723
v 311.9956 322.3176 279.0152
v 293.3830 332.8444 279.0156
v 290.8701 328.4062 279.0159
f 724 725 726
v 293.3826 332.8438 272.0089
v 293.3830 332.8444 279.0156
v 311.9956 322.3176 279.0152
f 727 728 729
v 290.8698 328.4056 272.0092
v 290.8701 328.4062 279.0159
v 293.3830 332.8444 279.0156
f 730 731 732
v 309.4823 317.8789 272.0088
v 309.4827 317.8794 279.0156
v 290.8701 328.4062 279.0159
f 733 734 735
v 311.9951 322.3171 272.0084
v 311.9956 322.3176 279.0152
v 309.4827 317.8794 279.0156
f 736 737 738
v 293.3826 332.8438 272.0089
v 311.9956 322.3176 279.0152
v 311.9951 322.3171 272.0084
f 739 740 741
v 290.8698 328.4056 272.0092
v 293.3830 332.8444 279.0156
v 293.3826 332.8438 272.0089
f 742 743 744
v 309.4823 317.8789 272.0088
v 290.8701 328.4062 279.0159
v 290.8698 328.4056 272.0092
f 745 746 747
v 311.9951 322.3171 272.0084
v 309.4827 317.8794 279.0156
v 309.4823 317.8789 272.0088
f 748 749 750

g building_ID_E88524CC-1D20-490F-8896-D7DDDFDB8F8D
v 559.1117 390.9209 271.9176
v 550.4554 383.3071 271.9189
v 546.5174 387.7276 271.9189
f 751 752 753
v 546.5174 387.7276 271.9189
v 555.2844 395.2730 271.9177
v 559.1117 390.9209 271.9176
f 754 755 756
v 549.7519 388.8704 277.5164
v 548.5616 389.4866 277.5164
v 546.5178 387.7281 277.5167
f 757 758 759
v 550.4560 383.3076 277.5167
v 549.7519 388.8704 277.5164
v 546.5178 387.7281 277.5167
f 760 761 762
v 549.7519 388.8704 277.5164
v 559.1123 390.9213 277.5154
v 556.1045 394.3413 277.5155
f 763 764 765
v 548.5616 389.4866 277.5164
v 549.7519 388.8704 277.5164
v 548.9404 389.8126 277.5164
f 766 767 768
v 550.4560 383.3076 277.5167
v 559.1123 390.9213 277.5154
v 549.7519 388.8704 277.5164
f 769 770 771
v 546.5174 387.7276 271.9189
v 546.5178 387.7281 277.5167
v 548.5610 389.4861 271.9356
f 772 773 774
v 548.5616 389.4866 277.5164
v 548.5610 389.4861 271.9356
v 546.5178 387.7281 277.5167
f 775 776 777
v 555.2844 395.2730 271.9347
v 546.5174 387.7276 271.9189
v 548.5610 389.4861 271.9356
f 778 779 780
v 546.5174 387.7276 271.9189
v 555.2844 395.2730 271.9347
v 555.2844 395.2730 271.9177
f 781 782 783
v 550.4554 383.3071 271.9189
v 550.4560 383.3076 277.5167
v 546.5178 387.7281 277.5167
f 784 785 786
v 559.1117 390.9209 271.9176
v 559.1123 390.9213 277.5154
v 550.4560 383.3076 277.5167
f 787 788 789
v 549.0199 389.9534 278.7334
v 551.8945 399.1287 278.7326
v 545.7130 393.6923 278.7334
f 790 791 792
v 549.7521 388.8706 278.7334
v 556.1046 394.3414 278.7325
v 549.0199 389.9534 278.7334
f 793 794 795
v 551.8945 399.1287 278.7326
v 549.0199 389.9534 278.7334
v 556.1046 394.3414 278.7325
f 796 797 798
v 548.9406 389.8127 278.7334
v 548.9057 389.8528 278.7334
v 548.5318 389.5208 278.7334
f 799 800 801
v 549.0199 389.9534 278.7334
v 548.9406 389.8127 278.7334
v 549.7521 388.8706 278.7334
f 802 803 804
v 548.5318 389.5208 278.7334
v 548.5617 389.4866 278.7334
v 548.9406 389.8127 278.7334
f 805 806 807
v 549.0199 389.9534 278.7334
v 548.9057 389.8528 278.7334
v 548.9406 389.8127 278.7334
f 808 809 810
v 545.7124 393.6917 271.9356
v 545.7130 393.6923 278.7334
v 551.8945 399.1287 278.7326
f 811 812 813
v 549.0193 389.9529 271.9356
v 549.0199 389.9534 278.7334
v 545.7130 393.6923 278.7334
f 814 815 816
v 548.5318 389.5208 278.7334
v 548.5616 389.4866 277.5164
v 548.5617 389.4866 278.7334
f 817 818 819
v 548.5610 389.4861 271.9356
v 548.5616 389.4866 277.5164
v 548.5311 389.5202 271.9356
f 820 821 822
v 551.8938 399.1280 271.9348
v 555.2844 395.2730 271.9347
v 549.0193 389.9529 271.9356
f 823 824 825
v 549.0193 389.9529 271.9356
v 545.7124 393.6917 271.9356
v 551.8938 399.1280 271.9348
f 826 827 828
v 548.9050 389.8522 271.9356
v 555.2844 395.2730 271.9347
v 548.5610 389.4861 271.9356
f 829 830 831
v 548.5610 389.4861 271.9356
v 548.5311 389.5202 271.9356
v 548.9050 389.8522 271.9356
f 832 833 834
v 549.0193 389.9529 271.9356
v 555.2844 395.2730 271.9347
v 548.9050 389.8522 271.9356
f 835 836 837
v 548.9404 389.8126 277.5164
v 548.9406 389.8127 278.7334
v 548.5616 389.4866 277.5164
f 838 839 840
v 549.7519 388.8704 277.5164
v 549.7521 388.8706 278.7334
v 548.9406 389.8127 278.7334
f 841 842 843
v 556.1045 394.3413 277.5155
v 556.1046 394.3414 278.7325
v 549.7519 388.8704 277.5164
f 844 845 846
v 556.1045 394.3413 277.5155
v 555.2844 395.2730 271.9347
v 551.8938 399.1280 271.9348
f 847 848 849
v 559.1117 390.9209 271.9176
v 555.2844 395.2730 271.9177
v 555.2844 395.2730 271.9347
f 850 851 852
v 556.1045 394.3413 277.5155
v 551.8938 399.1280 271.9348
v 551.8945 399.1287 278.7326
f 853 854 855
v 551.8945 399.1287 278.7326
v 556.1046 394.3414 278.7325
v 556.1045 394.3413 277.5155
f 856 857 858
v 556.1045 394.3413 277.5155
v 559.1123 390.9213 277.5154
v 559.1117 390.9209 271.9176
f 859 860 861
v 555.2844 395.2730 271.9347
v 556.1045 394.3413 277.5155
v 559.1117 390.9209 271.9176
f 862 863 864
v 548.5318 389.5208 278.7334
v 548.9057 389.8528 278.7334
v 548.9050 389.8522 271.9356
f 865 866 867
v 549.0193 389.9529 271.9356
v 548.9050 389.8522 271.9356
v 548.9057 389.8528 278.7334
f 868 869 870
v 550.4554 383.3071 271.9189
v 546.5178 387.7281 277.5167
v 546.5174 387.7276 271.9189
f 871 872 873
v 559.1117 390.9209 271.9176
v 550.4560 383.3076 277.5167
v 550.4554 383.3071 271.9189
f 874 875 876
v 545.7124 393.6917 271.9356
v 551.8945 399.1287 278.7326
v 551.8938 399.1280 271.9348
f 877 878 879
v 549.0193 389.9529 271.9356
v 545.7130 393.6923 278.7334
v 545.7124 393.6917 271.9356
f 880 881 882
v 548.5616 389.4866 277.5164
v 548.5318 389.5208 278.7334
v 548.5311 389.5202 271.9356
f 883 884 885
v 548.9406 389.8127 278.7334
v 548.5617 389.4866 278.7334
v 548.5616 389.4866 277.5164
f 886 887 888
v 549.7519 388.8704 277.5164
v 548.9406 389.8127 278.7334
v 548.9404 389.8126 277.5164
f 889 890 891
v 556.1046 394.3414 278.7325
v 549.7521 388.8706 278.7334
v 549.7519 388.8704 277.5164
f 892 893 894
v 548.5318 389.5208 278.7334
v 548.9050 389.8522 271.9356
v 548.5311 389.5202 271.9356
f 895 896 897
v 549.0193 389.9529 271.9356
v 548.9057 389.8528 278.7334
v 549.0199 389.9534 278.7334
f 898 899 900
