# Grid Center: 2616600, 1263000
# Global Anchor: 7.64977475454284, 47.53283995868075, 0.0

g building_ID_60E2F143-F721-4622-B0DB-4BBA1B7D2A19
v 601.2238 -1501.9538 399.8342
v 626.7273 -1510.4562 399.8296
v 620.8377 -1517.7634 399.8284
f 1 2 3
v 601.2238 -1501.9538 399.8342
v 615.0523 -1524.9420 399.8273
v 595.4165 -1509.1442 399.8329
f 4 5 6
v 607.1205 -1494.6535 399.8353
v 626.7273 -1510.4562 399.8296
v 601.2238 -1501.9538 399.8342
f 7 8 9
v 615.0523 -1524.9420 399.8273
v 601.2238 -1501.9538 399.8342
v 620.8377 -1517.7634 399.8284
f 10 11 12
v 607.1217 -1494.6559 411.2379
v 620.8395 -1517.7670 416.2348
v 626.7285 -1510.4586 411.2322
f 13 14 15
v 620.8395 -1517.7670 416.2348
v 607.1217 -1494.6559 411.2379
v 601.2255 -1501.9572 416.2406
f 16 17 18
v 595.4177 -1509.1467 411.3205
v 615.0536 -1524.9445 411.3279
v 620.8395 -1517.7670 416.2348
f 19 20 21
v 601.2255 -1501.9572 416.2406
v 595.4177 -1509.1467 411.3205
v 620.8395 -1517.7670 416.2348
f 22 23 24
v 607.1217 -1494.6559 411.2379
v 626.7273 -1510.4562 399.8296
v 607.1205 -1494.6535 399.8353
f 25 26 27
v 595.4165 -1509.1442 399.8329
v 615.0536 -1524.9445 411.3279
v 595.4177 -1509.1467 411.3205
f 28 29 30
v 595.4165 -1509.1442 399.8329
v 595.4177 -1509.1467 411.3205
v 601.2255 -1501.9572 416.2406
f 31 32 33
v 601.2238 -1501.9538 399.8342
v 595.4165 -1509.1442 399.8329
v 601.2255 -1501.9572 416.2406
f 34 35 36
v 607.1217 -1494.6559 411.2379
v 607.1205 -1494.6535 399.8353
v 601.2238 -1501.9538 399.8342
f 37 38 39
v 601.2255 -1501.9572 416.2406
v 607.1217 -1494.6559 411.2379
v 601.2238 -1501.9538 399.8342
f 40 41 42
v 626.7285 -1510.4586 411.2322
v 620.8395 -1517.7670 416.2348
v 620.8377 -1517.7634 399.8284
f 43 44 45
v 626.7285 -1510.4586 411.2322
v 620.8377 -1517.7634 399.8284
v 626.7273 -1510.4562 399.8296
f 46 47 48
v 615.0536 -1524.9445 411.3279
v 615.0523 -1524.9420 399.8273
v 620.8377 -1517.7634 399.8284
f 49 50 51
v 620.8377 -1517.7634 399.8284
v 620.8395 -1517.7670 416.2348
v 615.0536 -1524.9445 411.3279
f 52 53 54
v 626.7273 -1510.4562 399.8296
v 607.1217 -1494.6559 411.2379
v 626.7285 -1510.4586 411.2322
f 55 56 57
v 615.0523 -1524.9420 399.8273
v 615.0536 -1524.9445 411.3279
v 595.4165 -1509.1442 399.8329
f 58 59 60
