# Grid Center: 2616800, 1264200
# Global Anchor: 7.64977475454284, 47.53283995868075, 0.0

g building_ID_9CA63FD3-088F-44F3-AECA-CB79F09510D4
v 703.1688 -555.6577 277.9346
v 732.8115 -551.9502 277.9316
v 735.3120 -571.8897 277.9295
f 1 2 3
v 703.1688 -555.6577 277.9346
v 735.3120 -571.8897 277.9295
v 705.6464 -575.5912 277.9325
f 4 5 6
v 732.8128 -551.9510 288.8932
v 703.1702 -555.6584 288.8972
v 735.3132 -571.8903 287.5241
f 7 8 9
v 705.6476 -575.5918 287.5291
v 735.3132 -571.8903 287.5241
v 703.1702 -555.6584 288.8972
f 10 11 12
v 732.8115 -551.9502 277.9316
v 732.8128 -551.9510 288.8932
v 735.3120 -571.8897 277.9295
f 13 14 15
v 703.1688 -555.6577 277.9346
v 703.1702 -555.6584 288.8972
v 732.8115 -551.9502 277.9316
f 16 17 18
v 705.6464 -575.5912 277.9325
v 705.6476 -575.5918 287.5291
v 703.1688 -555.6577 277.9346
f 19 20 21
v 735.3132 -571.8903 287.5241
v 705.6464 -575.5912 277.9325
v 735.3120 -571.8897 277.9295
f 22 23 24
v 735.3132 -571.8903 287.5241
v 735.3120 -571.8897 277.9295
v 732.8128 -551.9510 288.8932
f 25 26 27
v 703.1702 -555.6584 288.8972
v 732.8128 -551.9510 288.8932
v 732.8115 -551.9502 277.9316
f 28 29 30
v 703.1688 -555.6577 277.9346
v 705.6476 -575.5918 287.5291
v 703.1702 -555.6584 288.8972
f 31 32 33
v 735.3132 -571.8903 287.5241
v 705.6476 -575.5918 287.5291
v 705.6464 -575.5912 277.9325
f 34 35 36

g building_ID_0A87129A-70B6-4D02-973E-A29E2332CC17
v 1077.1851 -370.7730 278.1838
v 1096.2498 -371.5851 278.1805
v 1095.3258 -375.3045 278.1805
f 37 38 39
v 1096.2498 -371.5851 278.1805
v 1077.1851 -370.7730 278.1838
v 1078.1191 -367.0425 278.1839
f 40 41 42
v 1096.2510 -371.5853 285.0842
v 1078.1203 -367.0428 285.0877
v 1077.1864 -370.7733 285.0876
f 43 44 45
v 1077.1864 -370.7733 285.0876
v 1095.3270 -375.3047 285.0842
v 1096.2510 -371.5853 285.0842
f 46 47 48
v 1078.1191 -367.0425 278.1839
v 1078.1203 -367.0428 285.0877
v 1096.2510 -371.5853 285.0842
f 49 50 51
v 1077.1851 -370.7730 278.1838
v 1077.1864 -370.7733 285.0876
v 1078.1203 -367.0428 285.0877
f 52 53 54
v 1095.3258 -375.3045 278.1805
v 1095.3270 -375.3047 285.0842
v 1077.1864 -370.7733 285.0876
f 55 56 57
v 1096.2498 -371.5851 278.1805
v 1096.2510 -371.5853 285.0842
v 1095.3270 -375.3047 285.0842
f 58 59 60
v 1078.1191 -367.0425 278.1839
v 1096.2510 -371.5853 285.0842
v 1096.2498 -371.5851 278.1805
f 61 62 63
v 1077.1851 -370.7730 278.1838
v 1078.1203 -367.0428 285.0877
v 1078.1191 -367.0425 278.1839
f 64 65 66
v 1095.3258 -375.3045 278.1805
v 1077.1864 -370.7733 285.0876
v 1077.1851 -370.7730 278.1838
f 67 68 69
v 1096.2498 -371.5851 278.1805
v 1095.3270 -375.3047 285.0842
v 1095.3258 -375.3045 278.1805
f 70 71 72

g building_ID_7A231029-2116-4D98-9499-27A03913A6F4
v 806.0246 -708.3228 278.0300
v 809.1280 -704.0452 278.0301
v 806.1484 -708.4051 278.0300
f 73 74 75
v 799.6662 -697.7039 278.0320
v 809.1280 -704.0452 278.0301
v 806.0246 -708.3228 278.0300
f 76 77 78
v 806.0246 -708.3228 278.0300
v 794.0471 -705.9567 278.0317
v 799.6662 -697.7039 278.0320
f 79 80 81
v 803.3530 -712.3085 278.0299
v 794.0471 -705.9567 278.0317
v 806.0246 -708.3228 278.0300
f 82 83 84
v 806.0254 -708.3232 283.3938
v 799.6669 -697.7043 283.3958
v 794.0478 -705.9571 283.3955
f 85 86 87
v 803.3537 -712.3090 283.3937
v 806.0254 -708.3232 283.3938
v 794.0478 -705.9571 283.3955
f 88 89 90
v 809.1288 -704.0456 283.3939
v 806.0254 -708.3232 283.3938
v 806.1491 -708.4055 283.3938
f 91 92 93
v 799.6669 -697.7043 283.3958
v 806.0254 -708.3232 283.3938
v 809.1288 -704.0456 283.3939
f 94 95 96
v 806.0246 -708.3228 278.0300
v 806.0254 -708.3232 283.3938
v 803.3537 -712.3090 283.3937
f 97 98 99
v 806.1484 -708.4051 278.0300
v 806.1491 -708.4055 283.3938
v 806.0254 -708.3232 283.3938
f 100 101 102
v 793.6958 -714.2936 277.8789
v 803.4398 -712.3677 277.8779
v 805.2226 -722.1444 277.8765
f 103 104 105
v 805.2226 -722.1444 277.8765
v 803.4398 -712.3677 277.8779
v 809.1533 -716.2790 277.8767
f 106 107 108
v 790.7212 -703.6907 277.8804
v 793.6958 -714.2936 277.8789
v 780.4887 -706.1443 277.8814
f 109 110 111
v 793.3032 -714.8716 277.8788
v 780.4887 -706.1443 277.8814
v 793.6958 -714.2936 277.8789
f 112 113 114
v 794.0471 -705.9567 277.8797
v 793.6958 -714.2936 277.8789
v 790.7212 -703.6907 277.8804
f 115 116 117
v 784.8729 -699.7082 277.8816
v 790.7212 -703.6907 277.8804
v 780.4887 -706.1443 277.8814
f 118 119 120
v 803.4398 -712.3677 277.8779
v 793.6958 -714.2936 277.8789
v 794.0471 -705.9567 277.8797
f 121 122 123
v 794.0480 -705.9572 284.5565
v 790.7221 -703.6914 284.5572
v 793.6967 -714.2942 284.5557
f 124 125 126
v 784.8738 -699.7087 284.5584
v 780.4896 -706.1450 284.5582
v 793.6967 -714.2942 284.5557
f 127 128 129
v 784.8738 -699.7087 284.5584
v 793.6967 -714.2942 284.5557
v 790.7221 -703.6914 284.5572
f 130 131 132
v 793.6967 -714.2942 284.5557
v 805.2235 -722.1451 284.5532
v 803.4407 -712.3684 284.5547
f 133 134 135
v 809.1542 -716.2797 284.5534
v 803.4407 -712.3684 284.5547
v 805.2235 -722.1451 284.5532
f 136 137 138
v 794.0480 -705.9572 284.5565
v 793.6967 -714.2942 284.5557
v 803.4407 -712.3684 284.5547
f 139 140 141
v 780.4896 -706.1450 284.5582
v 793.3041 -714.8721 284.5556
v 793.6967 -714.2942 284.5557
f 142 143 144
v 780.4887 -706.1443 277.8814
v 780.4896 -706.1450 284.5582
v 784.8738 -699.7087 284.5584
f 145 146 147
v 793.3032 -714.8716 277.8788
v 793.3041 -714.8721 284.5556
v 780.4896 -706.1450 284.5582
f 148 149 150
v 793.6958 -714.2936 277.8789
v 793.6967 -714.2942 284.5557
v 793.3041 -714.8721 284.5556
f 151 152 153
v 805.2226 -722.1444 277.8765
v 805.2235 -722.1451 284.5532
v 793.6967 -714.2942 284.5557
f 154 155 156
v 809.1533 -716.2790 277.8767
v 809.1542 -716.2797 284.5534
v 805.2235 -722.1451 284.5532
f 157 158 159
v 806.5491 -687.5954 277.9452
v 809.1280 -704.0451 277.9431
v 799.6662 -697.7038 277.9450
f 160 161 162
v 809.1280 -704.0451 277.9431
v 806.5491 -687.5954 277.9452
v 815.9809 -694.0196 277.9433
f 163 164 165
v 806.5513 -687.5966 293.1847
v 809.1302 -704.0464 293.1825
v 815.9830 -694.0209 293.1828
f 166 167 168
v 809.1302 -704.0464 293.1825
v 806.5513 -687.5966 293.1847
v 799.6682 -697.7051 293.1845
f 169 170 171
v 806.5491 -687.5954 277.9452
v 806.5513 -687.5966 293.1847
v 815.9830 -694.0209 293.1828
f 172 173 174
v 809.1288 -704.0456 283.3939
v 809.1302 -704.0464 293.1825
v 799.6669 -697.7043 283.3958
f 175 176 177
v 809.1280 -704.0451 277.9431
v 809.1280 -704.0452 278.0301
v 799.6662 -697.7039 278.0320
f 178 179 180
v 809.1288 -704.0456 283.3939
v 815.9830 -694.0209 293.1828
v 809.1302 -704.0464 293.1825
f 181 182 183
v 809.1280 -704.0452 278.0301
v 815.9809 -694.0196 277.9433
v 809.1288 -704.0456 283.3939
f 184 185 186
v 815.9830 -694.0209 293.1828
v 809.1288 -704.0456 283.3939
v 815.9809 -694.0196 277.9433
f 187 188 189
v 806.1484 -708.4051 278.0300
v 809.1280 -704.0452 278.0301
v 809.1288 -704.0456 283.3939
f 190 191 192
v 815.9809 -694.0196 277.9433
v 809.1280 -704.0452 278.0301
v 809.1280 -704.0451 277.9431
f 193 194 195
v 799.6662 -697.7039 278.0320
v 794.0471 -705.9567 278.0317
v 799.6669 -697.7043 283.3958
f 196 197 198
v 794.0478 -705.9571 283.3955
v 799.6669 -697.7043 283.3958
v 794.0471 -705.9567 278.0317
f 199 200 201
v 799.6669 -697.7043 283.3958
v 799.6682 -697.7051 293.1845
v 806.5513 -687.5966 293.1847
f 202 203 204
v 799.6662 -697.7039 278.0320
v 799.6669 -697.7043 283.3958
v 806.5491 -687.5954 277.9452
f 205 206 207
v 806.5513 -687.5966 293.1847
v 806.5491 -687.5954 277.9452
v 799.6669 -697.7043 283.3958
f 208 209 210
v 799.6662 -697.7039 278.0320
v 806.5491 -687.5954 277.9452
v 799.6662 -697.7038 277.9450
f 211 212 213
v 794.0478 -705.9571 283.3955
v 784.8729 -699.7082 277.8816
v 784.8738 -699.7087 284.5584
f 214 215 216
v 794.0478 -705.9571 283.3955
v 784.8738 -699.7087 284.5584
v 790.7221 -703.6914 284.5572
f 217 218 219
v 794.0478 -705.9571 283.3955
v 790.7212 -703.6907 277.8804
v 784.8729 -699.7082 277.8816
f 220 221 222
v 794.0471 -705.9567 278.0317
v 803.3530 -712.3085 278.0299
v 794.0471 -705.9567 277.8797
f 223 224 225
v 790.7212 -703.6907 277.8804
v 794.0471 -705.9567 278.0317
v 794.0471 -705.9567 277.8797
f 226 227 228
v 794.0471 -705.9567 278.0317
v 790.7212 -703.6907 277.8804
v 794.0478 -705.9571 283.3955
f 229 230 231
v 794.0478 -705.9571 283.3955
v 790.7221 -703.6914 284.5572
v 794.0480 -705.9572 284.5565
f 232 233 234
v 803.3537 -712.3090 283.3937
v 794.0478 -705.9571 283.3955
v 794.0480 -705.9572 284.5565
f 235 236 237
v 803.4407 -712.3684 284.5547
v 803.3537 -712.3090 283.3937
v 794.0480 -705.9572 284.5565
f 238 239 240
v 809.1542 -716.2797 284.5534
v 803.3537 -712.3090 283.3937
v 803.4407 -712.3684 284.5547
f 241 242 243
v 803.3530 -712.3085 278.0299
v 803.3537 -712.3090 283.3937
v 809.1533 -716.2790 277.8767
f 244 245 246
v 803.3530 -712.3085 278.0299
v 809.1533 -716.2790 277.8767
v 803.4398 -712.3677 277.8779
f 247 248 249
v 806.0246 -708.3228 278.0300
v 803.3537 -712.3090 283.3937
v 803.3530 -712.3085 278.0299
f 250 251 252
v 806.1484 -708.4051 278.0300
v 806.0254 -708.3232 283.3938
v 806.0246 -708.3228 278.0300
f 253 254 255
v 780.4887 -706.1443 277.8814
v 784.8738 -699.7087 284.5584
v 784.8729 -699.7082 277.8816
f 256 257 258
v 793.3032 -714.8716 277.8788
v 780.4896 -706.1450 284.5582
v 780.4887 -706.1443 277.8814
f 259 260 261
v 793.6958 -714.2936 277.8789
v 793.3041 -714.8721 284.5556
v 793.3032 -714.8716 277.8788
f 262 263 264
v 805.2226 -722.1444 277.8765
v 793.6967 -714.2942 284.5557
v 793.6958 -714.2936 277.8789
f 265 266 267
v 809.1533 -716.2790 277.8767
v 805.2235 -722.1451 284.5532
v 805.2226 -722.1444 277.8765
f 268 269 270
v 806.5491 -687.5954 277.9452
v 815.9830 -694.0209 293.1828
v 815.9809 -694.0196 277.9433
f 271 272 273
v 809.1302 -704.0464 293.1825
v 799.6682 -697.7051 293.1845
v 799.6669 -697.7043 283.3958
f 274 275 276
v 809.1280 -704.0451 277.9431
v 799.6662 -697.7039 278.0320
v 799.6662 -697.7038 277.9450
f 277 278 279
v 806.1484 -708.4051 278.0300
v 809.1288 -704.0456 283.3939
v 806.1491 -708.4055 283.3938
f 280 281 282
v 803.3530 -712.3085 278.0299
v 803.4398 -712.3677 277.8779
v 794.0471 -705.9567 277.8797
f 283 284 285
v 803.3537 -712.3090 283.3937
v 809.1542 -716.2797 284.5534
v 809.1533 -716.2790 277.8767
f 286 287 288

g building_ID_3008903E-CE13-4CAF-8EED-61FF0219505C
v 699.3345 -642.3956 278.3287
v 701.8562 -636.8804 278.3290
v 712.3047 -641.5093 278.3274
f 289 290 291
v 706.6686 -654.2381 278.3267
v 699.3345 -642.3956 278.3287
v 712.3047 -641.5093 278.3274
f 292 293 294
v 696.1583 -649.5680 278.3284
v 699.3345 -642.3956 278.3287
v 697.6095 -650.2249 278.3281
f 295 296 297
v 706.6686 -654.2381 278.3267
v 697.6095 -650.2249 278.3281
v 699.3345 -642.3956 278.3287
f 298 299 300
v 697.6102 -650.2254 284.2219
v 699.3352 -642.3960 284.2225
v 696.1590 -649.5684 284.2222
f 301 302 303
v 706.6694 -654.2385 284.2204
v 712.3055 -641.5098 284.2212
v 697.6102 -650.2254 284.2219
f 304 305 306
v 701.8570 -636.8808 284.2228
v 699.3352 -642.3960 284.2225
v 712.3055 -641.5098 284.2212
f 307 308 309
v 697.6102 -650.2254 284.2219
v 712.3055 -641.5098 284.2212
v 699.3352 -642.3960 284.2225
f 310 311 312
v 701.8562 -636.8804 278.3290
v 701.8570 -636.8808 284.2228
v 712.3055 -641.5098 284.2212
f 313 314 315
v 699.3345 -642.3956 278.3287
v 699.3352 -642.3960 284.2225
v 701.8570 -636.8808 284.2228
f 316 317 318
v 696.1583 -649.5680 278.3284
v 696.1590 -649.5684 284.2222
v 699.3352 -642.3960 284.2225
f 319 320 321
v 697.6095 -650.2249 278.3281
v 697.6102 -650.2254 284.2219
v 696.1590 -649.5684 284.2222
f 322 323 324
v 706.6686 -654.2381 278.3267
v 706.6694 -654.2385 284.2204
v 697.6102 -650.2254 284.2219
f 325 326 327
v 712.3047 -641.5093 278.3274
v 712.3055 -641.5098 284.2212
v 706.6694 -654.2385 284.2204
f 328 329 330
v 701.8562 -636.8804 278.3290
v 712.3055 -641.5098 284.2212
v 712.3047 -641.5093 278.3274
f 331 332 333
v 699.3345 -642.3956 278.3287
v 701.8570 -636.8808 284.2228
v 701.8562 -636.8804 278.3290
f 334 335 336
v 696.1583 -649.5680 278.3284
v 699.3352 -642.3960 284.2225
v 699.3345 -642.3956 278.3287
f 337 338 339
v 697.6095 -650.2249 278.3281
v 696.1590 -649.5684 284.2222
v 696.1583 -649.5680 278.3284
f 340 341 342
v 706.6686 -654.2381 278.3267
v 697.6102 -650.2254 284.2219
v 697.6095 -650.2249 278.3281
f 343 344 345
v 712.3047 -641.5093 278.3274
v 706.6694 -654.2385 284.2204
v 706.6686 -654.2381 278.3267
f 346 347 348

g building_ID_E37BF5D6-FD4E-4D92-9805-E5C711115BDD
v 725.4389 -651.4375 317.6514
v 727.3677 -652.2826 317.6511
v 729.5127 -647.3844 317.6514
f 349 350 351
v 718.6376 -642.6213 317.6531
v 725.4389 -651.4375 317.6514
v 729.5127 -647.3844 317.6514
f 352 353 354
v 722.7927 -662.7283 317.6506
v 724.8865 -657.9480 317.6508
v 722.9577 -657.1028 317.6511
f 355 356 357
v 711.9175 -657.9672 317.6523
v 722.7927 -662.7283 317.6506
v 722.9577 -657.1028 317.6511
f 358 359 360
v 722.9577 -657.1028 317.6511
v 725.4389 -651.4375 317.6514
v 718.1485 -648.2449 317.6526
f 361 362 363
v 716.4934 -647.5205 317.6528
v 718.1485 -648.2449 317.6526
v 718.6376 -642.6213 317.6531
f 364 365 366
v 725.4389 -651.4375 317.6514
v 718.6376 -642.6213 317.6531
v 718.1485 -648.2449 317.6526
f 367 368 369
v 711.9175 -657.9672 317.6523
v 715.6673 -653.9113 317.6523
v 714.0123 -653.1869 317.6525
f 370 371 372
v 722.9577 -657.1028 317.6511
v 715.6673 -653.9113 317.6523
v 711.9175 -657.9672 317.6523
f 373 374 375
v 722.9577 -657.1028 317.6511
v 718.1485 -648.2449 317.6526
v 715.6673 -653.9113 317.6523
f 376 377 378
v 722.7923 -662.7281 314.6637
v 722.7927 -662.7283 317.6506
v 711.9175 -657.9672 317.6523
f 379 380 381
v 724.8861 -657.9477 314.6639
v 724.8865 -657.9480 317.6508
v 722.7927 -662.7283 317.6506
f 382 383 384
v 722.9574 -657.1026 314.6642
v 722.9577 -657.1028 317.6511
v 724.8865 -657.9480 317.6508
f 385 386 387
v 725.4386 -651.4372 314.6645
v 725.4389 -651.4375 317.6514
v 722.9577 -657.1028 317.6511
f 388 389 390
v 727.3672 -652.2825 314.6642
v 727.3677 -652.2826 317.6511
v 725.4389 -651.4375 317.6514
f 391 392 393
v 729.5123 -647.3842 314.6645
v 729.5127 -647.3844 317.6514
v 727.3677 -652.2826 317.6511
f 394 395 396
v 718.6372 -642.6211 314.6662
v 718.6376 -642.6213 317.6531
v 729.5127 -647.3844 317.6514
f 397 398 399
v 716.4931 -647.5203 314.6659
v 716.4934 -647.5205 317.6528
v 718.6376 -642.6213 317.6531
f 400 401 402
v 718.1481 -648.2447 314.6657
v 718.1485 -648.2449 317.6526
v 716.4934 -647.5205 317.6528
f 403 404 405
v 715.6670 -653.9111 314.6654
v 715.6673 -653.9113 317.6523
v 718.1485 -648.2449 317.6526
f 406 407 408
v 714.0119 -653.1866 314.6656
v 714.0123 -653.1869 317.6525
v 715.6673 -653.9113 317.6523
f 409 410 411
v 711.9171 -657.9670 314.6654
v 711.9175 -657.9672 317.6523
v 714.0123 -653.1869 317.6525
f 412 413 414
v 710.2465 -655.7756 278.2232
v 709.0284 -658.7874 278.2230
v 708.9385 -658.7481 278.2230
f 415 416 417
v 708.7869 -659.3408 278.2230
v 714.2892 -661.0915 278.2221
v 714.0477 -661.6448 278.2220
f 418 419 420
v 714.2892 -661.0915 278.2221
v 708.7869 -659.3408 278.2230
v 709.0284 -658.7874 278.2230
f 421 422 423
v 710.2465 -655.7756 278.2232
v 715.8446 -643.0318 278.2239
v 714.2892 -661.0915 278.2221
f 424 425 426
v 709.0284 -658.7874 278.2230
v 710.2465 -655.7756 278.2232
v 714.2892 -661.0915 278.2221
f 427 428 429
v 725.8809 -662.6504 278.2206
v 718.5022 -662.9368 278.2214
v 731.4820 -649.9086 278.2213
f 430 431 432
v 714.2892 -661.0915 278.2221
v 723.2937 -642.6008 278.2231
v 718.5022 -662.9368 278.2214
f 433 434 435
v 723.7642 -665.8998 278.2205
v 718.2597 -663.4901 278.2214
v 724.0057 -665.3475 278.2205
f 436 437 438
v 724.0057 -665.3475 278.2205
v 718.2597 -663.4901 278.2214
v 718.5022 -662.9368 278.2214
f 439 440 441
v 724.5840 -665.6010 278.2204
v 724.0057 -665.3475 278.2205
v 725.8809 -662.6504 278.2206
f 442 443 444
v 726.6839 -663.0037 278.2205
v 725.8809 -662.6504 278.2206
v 726.5994 -662.8394 278.2205
f 445 446 447
v 726.6839 -663.0037 278.2205
v 726.5994 -662.8394 278.2205
v 726.7312 -662.8967 278.2205
f 448 449 450
v 724.0057 -665.3475 278.2205
v 718.5022 -662.9368 278.2214
v 725.8809 -662.6504 278.2206
f 451 452 453
v 732.0054 -650.4951 278.2212
v 726.5994 -662.8394 278.2205
v 725.8809 -662.6504 278.2206
f 454 455 456
v 715.8446 -643.0318 278.2239
v 710.2465 -655.7756 278.2232
v 709.4425 -655.4215 278.2233
f 457 458 459
v 714.2892 -661.0915 278.2221
v 715.8446 -643.0318 278.2239
v 723.2937 -642.6008 278.2231
f 460 461 462
v 717.2360 -639.8696 278.2240
v 717.3010 -639.8977 278.2240
v 715.8446 -643.0318 278.2239
f 463 464 465
v 723.2937 -642.6008 278.2231
v 715.8446 -643.0318 278.2239
v 722.5628 -642.2019 278.2232
f 466 467 468
v 718.5022 -662.9368 278.2214
v 723.2937 -642.6008 278.2231
v 726.7546 -644.1241 278.2225
f 469 470 471
v 722.7358 -641.8042 278.2232
v 717.3010 -639.8977 278.2240
v 717.4751 -639.5002 278.2240
f 472 473 474
v 717.3010 -639.8977 278.2240
v 722.7358 -641.8042 278.2232
v 722.5628 -642.2019 278.2232
f 475 476 477
v 722.5628 -642.2019 278.2232
v 723.3228 -642.5349 278.2231
v 723.2937 -642.6008 278.2231
f 478 479 480
v 717.3010 -639.8977 278.2240
v 722.5628 -642.2019 278.2232
v 715.8446 -643.0318 278.2239
f 481 482 483
v 726.7546 -644.1241 278.2225
v 731.4820 -649.9086 278.2213
v 718.5022 -662.9368 278.2214
f 484 485 486
v 732.1542 -650.5604 278.2211
v 732.0054 -650.4951 278.2212
v 732.2850 -650.2618 278.2212
f 487 488 489
v 731.4820 -649.9086 278.2213
v 732.2850 -650.2618 278.2212
v 732.0054 -650.4951 278.2212
f 490 491 492
v 732.2782 -646.4559 278.2216
v 731.4820 -649.9086 278.2213
v 726.7546 -644.1241 278.2225
f 493 494 495
v 731.4820 -649.9086 278.2213
v 732.0054 -650.4951 278.2212
v 725.8809 -662.6504 278.2206
f 496 497 498
v 726.7546 -644.1241 278.2225
v 726.9568 -643.6526 278.2225
v 732.2782 -646.4559 278.2216
f 499 500 501
v 726.9568 -643.6526 278.2225
v 732.4523 -646.0602 278.2217
v 732.2782 -646.4559 278.2216
f 502 503 504
v 731.4820 -649.9086 278.2213
v 732.2782 -646.4559 278.2216
v 732.8825 -646.7204 278.2214
f 505 506 507
v 726.7808 -644.0481 278.2225
v 726.9568 -643.6526 278.2225
v 726.7546 -644.1241 278.2225
f 508 509 510
v 715.0416 -642.6787 278.2240
v 715.8446 -643.0318 278.2239
v 709.4425 -655.4215 278.2233
f 511 512 513
v 718.6372 -642.6211 314.6662
v 722.5673 -642.2046 314.6658
v 722.7403 -641.8070 314.6658
f 514 515 516
v 723.2982 -642.6036 314.6657
v 723.3274 -642.5377 314.6657
v 722.5673 -642.2046 314.6658
f 517 518 519
v 718.6372 -642.6211 314.6662
v 722.7403 -641.8070 314.6658
v 717.4795 -639.5030 314.6667
f 520 521 522
v 715.8491 -643.0346 314.6665
v 716.4931 -647.5203 314.6659
v 718.6372 -642.6211 314.6662
f 523 524 525
v 717.3055 -639.9005 314.6667
v 717.2406 -639.8724 314.6667
v 715.8491 -643.0346 314.6665
f 526 527 528
v 722.5673 -642.2046 314.6658
v 718.6372 -642.6211 314.6662
v 723.2982 -642.6036 314.6657
f 529 530 531
v 715.8491 -643.0346 314.6665
v 718.6372 -642.6211 314.6662
v 717.3055 -639.9005 314.6667
f 532 533 534
v 717.3055 -639.9005 314.6667
v 718.6372 -642.6211 314.6662
v 717.4795 -639.5030 314.6667
f 535 536 537
v 729.5123 -647.3842 314.6645
v 726.9614 -643.6554 314.6651
v 726.7591 -644.1269 314.6651
f 538 539 540
v 726.7853 -644.0509 314.6651
v 726.7591 -644.1269 314.6651
v 726.9614 -643.6554 314.6651
f 541 542 543
v 726.7591 -644.1269 314.6651
v 723.2982 -642.6036 314.6657
v 729.5123 -647.3842 314.6645
f 544 545 546
v 732.4569 -646.0630 314.6643
v 726.9614 -643.6554 314.6651
v 729.5123 -647.3842 314.6645
f 547 548 549
v 729.5123 -647.3842 314.6645
v 732.2828 -646.4587 314.6642
v 732.4569 -646.0630 314.6643
f 550 551 552
v 732.2828 -646.4587 314.6642
v 731.4866 -649.9114 314.6640
v 732.8871 -646.7232 314.6641
f 553 554 555
v 731.4866 -649.9114 314.6640
v 732.2828 -646.4587 314.6642
v 729.5123 -647.3842 314.6645
f 556 557 558
v 731.4866 -649.9114 314.6640
v 729.5123 -647.3842 314.6645
v 727.3672 -652.2825 314.6642
f 559 560 561
v 722.9574 -657.1026 314.6642
v 727.3672 -652.2825 314.6642
v 725.4386 -651.4372 314.6645
f 562 563 564
v 732.0100 -650.4979 314.6639
v 731.4866 -649.9114 314.6640
v 727.3672 -652.2825 314.6642
f 565 566 567
v 732.1589 -650.5632 314.6638
v 732.2896 -650.2646 314.6639
v 732.0100 -650.4979 314.6639
f 568 569 570
v 731.4866 -649.9114 314.6640
v 732.0100 -650.4979 314.6639
v 732.2896 -650.2646 314.6639
f 571 572 573
v 732.0100 -650.4979 314.6639
v 727.3672 -652.2825 314.6642
v 724.8861 -657.9477 314.6639
f 574 575 576
v 724.8861 -657.9477 314.6639
v 726.6040 -662.8423 314.6632
v 732.0100 -650.4979 314.6639
f 577 578 579
v 723.2982 -642.6036 314.6657
v 718.6372 -642.6211 314.6662
v 729.5123 -647.3842 314.6645
f 580 581 582
v 716.4931 -647.5203 314.6659
v 715.8491 -643.0346 314.6665
v 715.0460 -642.6815 314.6667
f 583 584 585
v 714.0119 -653.1866 314.6656
v 716.4931 -647.5203 314.6659
v 715.0460 -642.6815 314.6667
f 586 587 588
v 709.4470 -655.4243 314.6659
v 714.0119 -653.1866 314.6656
v 715.0460 -642.6815 314.6667
f 589 590 591
v 710.2510 -655.7785 314.6658
v 714.0119 -653.1866 314.6656
v 709.4470 -655.4243 314.6659
f 592 593 594
v 718.1481 -648.2447 314.6657
v 716.4931 -647.5203 314.6659
v 715.6670 -653.9111 314.6654
f 595 596 597
v 714.0119 -653.1866 314.6656
v 715.6670 -653.9111 314.6654
v 716.4931 -647.5203 314.6659
f 598 599 600
v 711.9171 -657.9670 314.6654
v 714.0119 -653.1866 314.6656
v 710.2510 -655.7785 314.6658
f 601 602 603
v 710.2510 -655.7785 314.6658
v 709.0329 -658.7902 314.6656
v 711.9171 -657.9670 314.6654
f 604 605 606
v 711.9171 -657.9670 314.6654
v 709.0329 -658.7902 314.6656
v 708.7914 -659.3436 314.6656
f 607 608 609
v 714.2937 -661.0944 314.6648
v 711.9171 -657.9670 314.6654
v 714.0522 -661.6477 314.6647
f 610 611 612
v 708.7914 -659.3436 314.6656
v 714.0522 -661.6477 314.6647
v 711.9171 -657.9670 314.6654
f 613 614 615
v 714.2937 -661.0944 314.6648
v 718.5068 -662.9397 314.6641
v 711.9171 -657.9670 314.6654
f 616 617 618
v 708.9430 -658.7510 314.6656
v 709.0329 -658.7902 314.6656
v 710.2510 -655.7785 314.6658
f 619 620 621
v 722.7923 -662.7281 314.6637
v 711.9171 -657.9670 314.6654
v 718.5068 -662.9397 314.6641
f 622 623 624
v 725.8855 -662.6533 314.6633
v 724.8861 -657.9477 314.6639
v 722.7923 -662.7281 314.6637
f 625 626 627
v 726.6040 -662.8423 314.6632
v 724.8861 -657.9477 314.6639
v 725.8855 -662.6533 314.6633
f 628 629 630
v 722.9574 -657.1026 314.6642
v 724.8861 -657.9477 314.6639
v 727.3672 -652.2825 314.6642
f 631 632 633
v 726.6885 -663.0066 314.6632
v 726.7358 -662.8996 314.6632
v 726.6040 -662.8423 314.6632
f 634 635 636
v 725.8855 -662.6533 314.6633
v 726.6885 -663.0066 314.6632
v 726.6040 -662.8423 314.6632
f 637 638 639
v 718.2643 -663.4930 314.6641
v 722.7923 -662.7281 314.6637
v 718.5068 -662.9397 314.6641
f 640 641 642
v 723.7688 -665.9027 314.6632
v 722.7923 -662.7281 314.6637
v 718.2643 -663.4930 314.6641
f 643 644 645
v 722.7923 -662.7281 314.6637
v 723.7688 -665.9027 314.6632
v 724.0103 -665.3504 314.6632
f 646 647 648
v 724.0103 -665.3504 314.6632
v 724.5886 -665.6040 314.6631
v 725.8855 -662.6533 314.6633
f 649 650 651
v 722.7923 -662.7281 314.6637
v 724.0103 -665.3504 314.6632
v 725.8855 -662.6533 314.6633
f 652 653 654
v 715.8446 -643.0318 278.2239
v 715.8491 -643.0346 314.6665
v 717.2406 -639.8724 314.6667
f 655 656 657
v 715.0416 -642.6787 278.2240
v 715.0460 -642.6815 314.6667
v 715.8491 -643.0346 314.6665
f 658 659 660
v 709.4425 -655.4215 278.2233
v 709.4470 -655.4243 314.6659
v 715.0460 -642.6815 314.6667
f 661 662 663
v 710.2465 -655.7756 278.2232
v 710.2510 -655.7785 314.6658
v 709.4470 -655.4243 314.6659
f 664 665 666
v 708.9385 -658.7481 278.2230
v 708.9430 -658.7510 314.6656
v 710.2510 -655.7785 314.6658
f 667 668 669
v 709.0284 -658.7874 278.2230
v 709.0329 -658.7902 314.6656
v 708.9430 -658.7510 314.6656
f 670 671 672
v 708.7869 -659.3408 278.2230
v 708.7914 -659.3436 314.6656
v 709.0329 -658.7902 314.6656
f 673 674 675
v 714.0477 -661.6448 278.2220
v 714.0522 -661.6477 314.6647
v 708.7914 -659.3436 314.6656
f 676 677 678
v 714.2892 -661.0915 278.2221
v 714.2937 -661.0944 314.6648
v 714.0522 -661.6477 314.6647
f 679 680 681
v 718.5022 -662.9368 278.2214
v 718.5068 -662.9397 314.6641
v 714.2937 -661.0944 314.6648
f 682 683 684
v 718.2597 -663.4901 278.2214
v 718.2643 -663.4930 314.6641
v 718.5068 -662.9397 314.6641
f 685 686 687
v 723.7642 -665.8998 278.2205
v 723.7688 -665.9027 314.6632
v 718.2643 -663.4930 314.6641
f 688 689 690
v 724.0057 -665.3475 278.2205
v 724.0103 -665.3504 314.6632
v 723.7688 -665.9027 314.6632
f 691 692 693
v 724.5840 -665.6010 278.2204
v 724.5886 -665.6040 314.6631
v 724.0103 -665.3504 314.6632
f 694 695 696
v 725.8809 -662.6504 278.2206
v 725.8855 -662.6533 314.6633
v 724.5886 -665.6040 314.6631
f 697 698 699
v 726.6839 -663.0037 278.2205
v 726.6885 -663.0066 314.6632
v 725.8855 -662.6533 314.6633
f 700 701 702
v 726.7312 -662.8967 278.2205
v 726.7358 -662.8996 314.6632
v 726.6885 -663.0066 314.6632
f 703 704 705
v 726.5994 -662.8394 278.2205
v 726.6040 -662.8423 314.6632
v 726.7358 -662.8996 314.6632
f 706 707 708
v 732.0054 -650.4951 278.2212
v 732.0100 -650.4979 314.6639
v 726.6040 -662.8423 314.6632
f 709 710 711
v 732.1542 -650.5604 278.2211
v 732.1589 -650.5632 314.6638
v 732.0100 -650.4979 314.6639
f 712 713 714
v 732.2850 -650.2618 278.2212
v 732.2896 -650.2646 314.6639
v 732.1589 -650.5632 314.6638
f 715 716 717
v 731.4820 -649.9086 278.2213
v 731.4866 -649.9114 314.6640
v 732.2896 -650.2646 314.6639
f 718 719 720
v 732.8825 -646.7204 278.2214
v 732.8871 -646.7232 314.6641
v 731.4866 -649.9114 314.6640
f 721 722 723
v 732.2782 -646.4559 278.2216
v 732.2828 -646.4587 314.6642
v 732.8871 -646.7232 314.6641
f 724 725 726
v 732.4523 -646.0602 278.2217
v 732.4569 -646.0630 314.6643
v 732.2828 -646.4587 314.6642
f 727 728 729
v 726.9568 -643.6526 278.2225
v 726.9614 -643.6554 314.6651
v 732.4569 -646.0630 314.6643
f 730 731 732
v 726.7808 -644.0481 278.2225
v 726.7853 -644.0509 314.6651
v 726.9614 -643.6554 314.6651
f 733 734 735
v 726.7546 -644.1241 278.2225
v 726.7591 -644.1269 314.6651
v 726.7853 -644.0509 314.6651
f 736 737 738
v 723.2937 -642.6008 278.2231
v 723.2982 -642.6036 314.6657
v 726.7591 -644.1269 314.6651
f 739 740 741
v 723.3228 -642.5349 278.2231
v 723.3274 -642.5377 314.6657
v 723.2982 -642.6036 314.6657
f 742 743 744
v 722.5628 -642.2019 278.2232
v 722.5673 -642.2046 314.6658
v 723.3274 -642.5377 314.6657
f 745 746 747
v 722.7358 -641.8042 278.2232
v 722.7403 -641.8070 314.6658
v 722.5673 -642.2046 314.6658
f 748 749 750
v 717.4751 -639.5002 278.2240
v 717.4795 -639.5030 314.6667
v 722.7403 -641.8070 314.6658
f 751 752 753
v 717.3010 -639.8977 278.2240
v 717.3055 -639.9005 314.6667
v 717.4795 -639.5030 314.6667
f 754 755 756
v 717.2360 -639.8696 278.2240
v 717.2406 -639.8724 314.6667
v 717.3055 -639.9005 314.6667
f 757 758 759
v 722.7923 -662.7281 314.6637
v 711.9175 -657.9672 317.6523
v 711.9171 -657.9670 314.6654
f 760 761 762
v 724.8861 -657.9477 314.6639
v 722.7927 -662.7283 317.6506
v 722.7923 -662.7281 314.6637
f 763 764 765
v 722.9574 -657.1026 314.6642
v 724.8865 -657.9480 317.6508
v 724.8861 -657.9477 314.6639
f 766 767 768
v 725.4386 -651.4372 314.6645
v 722.9577 -657.1028 317.6511
v 722.9574 -657.1026 314.6642
f 769 770 771
v 727.3672 -652.2825 314.6642
v 725.4389 -651.4375 317.6514
v 725.4386 -651.4372 314.6645
f 772 773 774
v 729.5123 -647.3842 314.6645
v 727.3677 -652.2826 317.6511
v 727.3672 -652.2825 314.6642
f 775 776 777
v 718.6372 -642.6211 314.6662
v 729.5127 -647.3844 317.6514
v 729.5123 -647.3842 314.6645
f 778 779 780
v 716.4931 -647.5203 314.6659
v 718.6376 -642.6213 317.6531
v 718.6372 -642.6211 314.6662
f 781 782 783
v 718.1481 -648.2447 314.6657
v 716.4934 -647.5205 317.6528
v 716.4931 -647.5203 314.6659
f 784 785 786
v 715.6670 -653.9111 314.6654
v 718.1485 -648.2449 317.6526
v 718.1481 -648.2447 314.6657
f 787 788 789
v 714.0119 -653.1866 314.6656
v 715.6673 -653.9113 317.6523
v 715.6670 -653.9111 314.6654
f 790 791 792
v 711.9171 -657.9670 314.6654
v 714.0123 -653.1869 317.6525
v 714.0119 -653.1866 314.6656
f 793 794 795
v 715.8446 -643.0318 278.2239
v 717.2406 -639.8724 314.6667
v 717.2360 -639.8696 278.2240
f 796 797 798
v 715.0416 -642.6787 278.2240
v 715.8491 -643.0346 314.6665
v 715.8446 -643.0318 278.2239
f 799 800 801
v 709.4425 -655.4215 278.2233
v 715.0460 -642.6815 314.6667
v 715.0416 -642.6787 278.2240
f 802 803 804
v 710.2465 -655.7756 278.2232
v 709.4470 -655.4243 314.6659
v 709.4425 -655.4215 278.2233
f 805 806 807
v 708.9385 -658.7481 278.2230
v 710.2510 -655.7785 314.6658
v 710.2465 -655.7756 278.2232
f 808 809 810
v 709.0284 -658.7874 278.2230
v 708.9430 -658.7510 314.6656
v 708.9385 -658.7481 278.2230
f 811 812 813
v 708.7869 -659.3408 278.2230
v 709.0329 -658.7902 314.6656
v 709.0284 -658.7874 278.2230
f 814 815 816
v 714.0477 -661.6448 278.2220
v 708.7914 -659.3436 314.6656
v 708.7869 -659.3408 278.2230
f 817 818 819
v 714.2892 -661.0915 278.2221
v 714.0522 -661.6477 314.6647
v 714.0477 -661.6448 278.2220
f 820 821 822
v 718.5022 -662.9368 278.2214
v 714.2937 -661.0944 314.6648
v 714.2892 -661.0915 278.2221
f 823 824 825
v 718.2597 -663.4901 278.2214
v 718.5068 -662.9397 314.6641
v 718.5022 -662.9368 278.2214
f 826 827 828
v 723.7642 -665.8998 278.2205
v 718.2643 -663.4930 314.6641
v 718.2597 -663.4901 278.2214
f 829 830 831
v 724.0057 -665.3475 278.2205
v 723.7688 -665.9027 314.6632
v 723.7642 -665.8998 278.2205
f 832 833 834
v 724.5840 -665.6010 278.2204
v 724.0103 -665.3504 314.6632
v 724.0057 -665.3475 278.2205
f 835 836 837
v 725.8809 -662.6504 278.2206
v 724.5886 -665.6040 314.6631
v 724.5840 -665.6010 278.2204
f 838 839 840
v 726.6839 -663.0037 278.2205
v 725.8855 -662.6533 314.6633
v 725.8809 -662.6504 278.2206
f 841 842 843
v 726.7312 -662.8967 278.2205
v 726.6885 -663.0066 314.6632
v 726.6839 -663.0037 278.2205
f 844 845 846
v 726.5994 -662.8394 278.2205
v 726.7358 -662.8996 314.6632
v 726.7312 -662.8967 278.2205
f 847 848 849
v 732.0054 -650.4951 278.2212
v 726.6040 -662.8423 314.6632
v 726.5994 -662.8394 278.2205
f 850 851 852
v 732.1542 -650.5604 278.2211
v 732.0100 -650.4979 314.6639
v 732.0054 -650.4951 278.2212
f 853 854 855
v 732.2850 -650.2618 278.2212
v 732.1589 -650.5632 314.6638
v 732.1542 -650.5604 278.2211
f 856 857 858
v 731.4820 -649.9086 278.2213
v 732.2896 -650.2646 314.6639
v 732.2850 -650.2618 278.2212
f 859 860 861
v 732.8825 -646.7204 278.2214
v 731.4866 -649.9114 314.6640
v 731.4820 -649.9086 278.2213
f 862 863 864
v 732.2782 -646.4559 278.2216
v 732.8871 -646.7232 314.6641
v 732.8825 -646.7204 278.2214
f 865 866 867
v 732.4523 -646.0602 278.2217
v 732.2828 -646.4587 314.6642
v 732.2782 -646.4559 278.2216
f 868 869 870
v 726.9568 -643.6526 278.2225
v 732.4569 -646.0630 314.6643
v 732.4523 -646.0602 278.2217
f 871 872 873
v 726.7808 -644.0481 278.2225
v 726.9614 -643.6554 314.6651
v 726.9568 -643.6526 278.2225
f 874 875 876
v 726.7546 -644.1241 278.2225
v 726.7853 -644.0509 314.6651
v 726.7808 -644.0481 278.2225
f 877 878 879
v 723.2937 -642.6008 278.2231
v 726.7591 -644.1269 314.6651
v 726.7546 -644.1241 278.2225
f 880 881 882
v 723.3228 -642.5349 278.2231
v 723.2982 -642.6036 314.6657
v 723.2937 -642.6008 278.2231
f 883 884 885
v 722.5628 -642.2019 278.2232
v 723.3274 -642.5377 314.6657
v 723.3228 -642.5349 278.2231
f 886 887 888
v 722.7358 -641.8042 278.2232
v 722.5673 -642.2046 314.6658
v 722.5628 -642.2019 278.2232
f 889 890 891
v 717.4751 -639.5002 278.2240
v 722.7403 -641.8070 314.6658
v 722.7358 -641.8042 278.2232
f 892 893 894
v 717.3010 -639.8977 278.2240
v 717.4795 -639.5030 314.6667
v 717.4751 -639.5002 278.2240
f 895 896 897
v 717.2360 -639.8696 278.2240
v 717.3055 -639.9005 314.6667
v 717.3010 -639.8977 278.2240
f 898 899 900

g building_ID_97D00CCA-FD16-49DD-846D-7F4FC7F526F1
v 774.3428 -667.7143 278.3654
v 779.1164 -678.3060 278.3637
v 770.8670 -666.1860 278.3660
f 901 902 903
v 767.3012 -664.6175 278.3666
v 770.8670 -666.1860 278.3660
v 779.1164 -678.3060 278.3637
f 904 905 906
v 782.7782 -669.7879 278.3641
v 779.1164 -678.3060 278.3637
v 774.3428 -667.7143 278.3654
f 907 908 909
v 774.3428 -667.7143 278.3654
v 774.9455 -666.3430 278.3655
v 782.7782 -669.7879 278.3641
f 910 911 912
v 771.6749 -664.3482 278.3661
v 770.8670 -666.1860 278.3660
v 768.0960 -662.8096 278.3667
f 913 914 915
v 763.8253 -663.0871 278.3671
v 767.3012 -664.6175 278.3666
v 752.5101 -666.5799 278.3681
f 916 917 918
v 779.1164 -678.3060 278.3637
v 752.5101 -666.5799 278.3681
v 767.3012 -664.6175 278.3666
f 919 920 921
v 756.2348 -658.1099 278.3686
v 763.8253 -663.0871 278.3671
v 752.5101 -666.5799 278.3681
f 922 923 924
v 763.8253 -663.0871 278.3671
v 756.2348 -658.1099 278.3686
v 764.4290 -661.7158 278.3672
f 925 926 927
v 770.8670 -666.1860 278.3660
v 767.3012 -664.6175 278.3666
v 768.0960 -662.8096 278.3667
f 928 929 930
v 763.8262 -663.0877 284.8969
v 752.5109 -666.5803 284.8979
v 767.3021 -664.6180 284.8963
f 931 932 933
v 779.1173 -678.3065 284.8934
v 767.3021 -664.6180 284.8963
v 752.5109 -666.5803 284.8979
f 934 935 936
v 756.2356 -658.1105 284.8984
v 752.5109 -666.5803 284.8979
v 763.8262 -663.0877 284.8969
f 937 938 939
v 763.8262 -663.0877 284.8969
v 764.4299 -661.7164 284.8970
v 756.2356 -658.1105 284.8984
f 940 941 942
v 768.0969 -662.8102 284.8965
v 767.3021 -664.6180 284.8963
v 771.6757 -664.3488 284.8958
f 943 944 945
v 774.3437 -667.7149 284.8951
v 770.8679 -666.1865 284.8957
v 779.1173 -678.3065 284.8934
f 946 947 948
v 767.3021 -664.6180 284.8963
v 779.1173 -678.3065 284.8934
v 770.8679 -666.1865 284.8957
f 949 950 951
v 782.7791 -669.7884 284.8938
v 774.3437 -667.7149 284.8951
v 779.1173 -678.3065 284.8934
f 952 953 954
v 774.3437 -667.7149 284.8951
v 782.7791 -669.7884 284.8938
v 774.9464 -666.3435 284.8952
f 955 956 957
v 767.3021 -664.6180 284.8963
v 770.8679 -666.1865 284.8957
v 771.6757 -664.3488 284.8958
f 958 959 960
v 764.4290 -661.7158 278.3672
v 764.4299 -661.7164 284.8970
v 763.8262 -663.0877 284.8969
f 961 962 963
v 756.2348 -658.1099 278.3686
v 756.2356 -658.1105 284.8984
v 764.4299 -661.7164 284.8970
f 964 965 966
v 752.5101 -666.5799 278.3681
v 752.5109 -666.5803 284.8979
v 756.2356 -658.1105 284.8984
f 967 968 969
v 779.1164 -678.3060 278.3637
v 779.1173 -678.3065 284.8934
v 752.5109 -666.5803 284.8979
f 970 971 972
v 782.7782 -669.7879 278.3641
v 782.7791 -669.7884 284.8938
v 779.1173 -678.3065 284.8934
f 973 974 975
v 774.9455 -666.3430 278.3655
v 774.9464 -666.3435 284.8952
v 782.7791 -669.7884 284.8938
f 976 977 978
v 774.3428 -667.7143 278.3654
v 774.3437 -667.7149 284.8951
v 774.9464 -666.3435 284.8952
f 979 980 981
v 770.8670 -666.1860 278.3660
v 770.8679 -666.1865 284.8957
v 774.3437 -667.7149 284.8951
f 982 983 984
v 771.6749 -664.3482 278.3661
v 771.6757 -664.3488 284.8958
v 770.8670 -666.1860 278.3660
f 985 986 987
v 768.0960 -662.8096 278.3667
v 768.0969 -662.8102 284.8965
v 771.6749 -664.3482 278.3661
f 988 989 990
v 767.3012 -664.6175 278.3666
v 767.3021 -664.6180 284.8963
v 768.0969 -662.8102 284.8965
f 991 992 993
v 763.8253 -663.0871 278.3671
v 763.8262 -663.0877 284.8969
v 767.3021 -664.6180 284.8963
f 994 995 996
v 764.4290 -661.7158 278.3672
v 763.8262 -663.0877 284.8969
v 763.8253 -663.0871 278.3671
f 997 998 999
v 756.2348 -658.1099 278.3686
v 764.4299 -661.7164 284.8970
v 764.4290 -661.7158 278.3672
f 1000 1001 1002
v 752.5101 -666.5799 278.3681
v 756.2356 -658.1105 284.8984
v 756.2348 -658.1099 278.3686
f 1003 1004 1005
v 779.1164 -678.3060 278.3637
v 752.5109 -666.5803 284.8979
v 752.5101 -666.5799 278.3681
f 1006 1007 1008
v 782.7782 -669.7879 278.3641
v 779.1173 -678.3065 284.8934
v 779.1164 -678.3060 278.3637
f 1009 1010 1011
v 774.9455 -666.3430 278.3655
v 782.7791 -669.7884 284.8938
v 782.7782 -669.7879 278.3641
f 1012 1013 1014
v 774.3428 -667.7143 278.3654
v 774.9464 -666.3435 284.8952
v 774.9455 -666.3430 278.3655
f 1015 1016 1017
v 770.8670 -666.1860 278.3660
v 774.3437 -667.7149 284.8951
v 774.3428 -667.7143 278.3654
f 1018 1019 1020
v 771.6757 -664.3488 284.8958
v 770.8679 -666.1865 284.8957
v 770.8670 -666.1860 278.3660
f 1021 1022 1023
v 768.0969 -662.8102 284.8965
v 771.6757 -664.3488 284.8958
v 771.6749 -664.3482 278.3661
f 1024 1025 1026
v 767.3012 -664.6175 278.3666
v 768.0969 -662.8102 284.8965
v 768.0960 -662.8096 278.3667
f 1027 1028 1029
v 763.8253 -663.0871 278.3671
v 767.3021 -664.6180 284.8963
v 767.3012 -664.6175 278.3666
f 1030 1031 1032

g building_ID_7F15927D-9AAF-4E9E-A944-3C5ED27C2A4C
v 755.1101 -702.7284 278.1228
v 753.0477 -707.4108 278.1226
v 741.2187 -702.2222 278.1246
f 1033 1034 1035
v 748.7054 -685.1584 278.1256
v 755.5263 -699.6995 278.1232
v 741.2187 -702.2222 278.1246
f 1036 1037 1038
v 755.5263 -699.6995 278.1232
v 755.1101 -702.7284 278.1228
v 741.2187 -702.2222 278.1246
f 1039 1040 1041
v 757.9973 -700.7872 278.1227
v 756.8131 -703.4789 278.1225
v 755.1101 -702.7284 278.1228
f 1042 1043 1044
v 755.5263 -699.6995 278.1232
v 757.9973 -700.7872 278.1227
v 755.1101 -702.7284 278.1228
f 1045 1046 1047
v 758.4987 -695.0335 278.1234
v 756.5344 -697.4123 278.1233
v 748.7054 -685.1584 278.1256
f 1048 1049 1050
v 755.5263 -699.6995 278.1232
v 748.7054 -685.1584 278.1256
v 756.5344 -697.4123 278.1233
f 1051 1052 1053
v 760.5532 -690.3691 278.1236
v 758.4987 -695.0335 278.1234
v 748.7054 -685.1584 278.1256
f 1054 1055 1056
v 759.0044 -698.5008 278.1229
v 756.5344 -697.4123 278.1233
v 758.4987 -695.0335 278.1234
f 1057 1058 1059
v 759.0044 -698.5008 278.1229
v 758.4987 -695.0335 278.1234
v 760.2017 -695.7831 278.1231
f 1060 1061 1062
v 755.1115 -702.7292 287.8805
v 756.8144 -703.4797 287.8802
v 757.9986 -700.7880 287.8804
f 1063 1064 1065
v 755.5275 -699.7004 287.8808
v 755.1115 -702.7292 287.8805
v 757.9986 -700.7880 287.8804
f 1066 1067 1068
v 753.0489 -707.4117 287.8803
v 755.1115 -702.7292 287.8805
v 741.2200 -702.2230 287.8822
f 1069 1070 1071
v 755.5275 -699.7004 287.8808
v 741.2200 -702.2230 287.8822
v 755.1115 -702.7292 287.8805
f 1072 1073 1074
v 756.5357 -697.4131 287.8809
v 741.2200 -702.2230 287.8822
v 755.5275 -699.7004 287.8808
f 1075 1076 1077
v 760.2030 -695.7839 287.8807
v 758.5000 -695.0344 287.8810
v 759.0057 -698.5017 287.8805
f 1078 1079 1080
v 748.7066 -685.1592 287.8832
v 756.5357 -697.4131 287.8809
v 758.5000 -695.0344 287.8810
f 1081 1082 1083
v 759.0057 -698.5017 287.8805
v 758.5000 -695.0344 287.8810
v 756.5357 -697.4131 287.8809
f 1084 1085 1086
v 760.5545 -690.3700 287.8812
v 748.7066 -685.1592 287.8832
v 758.5000 -695.0344 287.8810
f 1087 1088 1089
v 741.2200 -702.2230 287.8822
v 756.5357 -697.4131 287.8809
v 748.7066 -685.1592 287.8832
f 1090 1091 1092
v 758.4987 -695.0335 278.1234
v 758.5000 -695.0344 287.8810
v 760.2030 -695.7839 287.8807
f 1093 1094 1095
v 760.5532 -690.3691 278.1236
v 760.5545 -690.3700 287.8812
v 758.5000 -695.0344 287.8810
f 1096 1097 1098
v 748.7054 -685.1584 278.1256
v 748.7066 -685.1592 287.8832
v 760.5545 -690.3700 287.8812
f 1099 1100 1101
v 741.2187 -702.2222 278.1246
v 741.2200 -702.2230 287.8822
v 748.7066 -685.1592 287.8832
f 1102 1103 1104
v 753.0477 -707.4108 278.1226
v 753.0489 -707.4117 287.8803
v 741.2200 -702.2230 287.8822
f 1105 1106 1107
v 755.1101 -702.7284 278.1228
v 755.1115 -702.7292 287.8805
v 753.0489 -707.4117 287.8803
f 1108 1109 1110
v 756.8131 -703.4789 278.1225
v 756.8144 -703.4797 287.8802
v 755.1115 -702.7292 287.8805
f 1111 1112 1113
v 757.9973 -700.7872 278.1227
v 757.9986 -700.7880 287.8804
v 756.8144 -703.4797 287.8802
f 1114 1115 1116
v 755.5263 -699.6995 278.1232
v 755.5275 -699.7004 287.8808
v 757.9986 -700.7880 287.8804
f 1117 1118 1119
v 756.5344 -697.4123 278.1233
v 756.5357 -697.4131 287.8809
v 755.5275 -699.7004 287.8808
f 1120 1121 1122
v 759.0044 -698.5008 278.1229
v 759.0057 -698.5017 287.8805
v 756.5357 -697.4131 287.8809
f 1123 1124 1125
v 760.2017 -695.7831 278.1231
v 760.2030 -695.7839 287.8807
v 759.0057 -698.5017 287.8805
f 1126 1127 1128
v 758.4987 -695.0335 278.1234
v 760.2030 -695.7839 287.8807
v 760.2017 -695.7831 278.1231
f 1129 1130 1131
v 760.5532 -690.3691 278.1236
v 758.5000 -695.0344 287.8810
v 758.4987 -695.0335 278.1234
f 1132 1133 1134
v 748.7054 -685.1584 278.1256
v 760.5545 -690.3700 287.8812
v 760.5532 -690.3691 278.1236
f 1135 1136 1137
v 741.2187 -702.2222 278.1246
v 748.7066 -685.1592 287.8832
v 748.7054 -685.1584 278.1256
f 1138 1139 1140
v 753.0477 -707.4108 278.1226
v 741.2200 -702.2230 287.8822
v 741.2187 -702.2222 278.1246
f 1141 1142 1143
v 755.1101 -702.7284 278.1228
v 753.0489 -707.4117 287.8803
v 753.0477 -707.4108 278.1226
f 1144 1145 1146
v 756.8131 -703.4789 278.1225
v 755.1115 -702.7292 287.8805
v 755.1101 -702.7284 278.1228
f 1147 1148 1149
v 757.9973 -700.7872 278.1227
v 756.8144 -703.4797 287.8802
v 756.8131 -703.4789 278.1225
f 1150 1151 1152
v 755.5263 -699.6995 278.1232
v 757.9986 -700.7880 287.8804
v 757.9973 -700.7872 278.1227
f 1153 1154 1155
v 756.5344 -697.4123 278.1233
v 755.5275 -699.7004 287.8808
v 755.5263 -699.6995 278.1232
f 1156 1157 1158
v 759.0044 -698.5008 278.1229
v 756.5357 -697.4131 287.8809
v 756.5344 -697.4123 278.1233
f 1159 1160 1161
v 760.2017 -695.7831 278.1231
v 759.0057 -698.5017 287.8805
v 759.0044 -698.5008 278.1229
f 1162 1163 1164

g building_ID_3AAF3F94-293D-4ABF-9C7D-27DEF3E9CE39
v 860.2334 -610.8711 306.6311
v 859.8225 -616.0480 306.7886
v 862.5660 -614.0113 306.7884
f 1165 1166 1167
v 859.8225 -616.0480 306.7886
v 860.2334 -610.8711 306.6311
v 857.4909 -612.9078 306.6313
f 1168 1169 1170
v 857.4907 -612.9076 304.6403
v 857.4909 -612.9078 306.6313
v 860.2334 -610.8711 306.6311
f 1171 1172 1173
v 859.8222 -616.0478 304.6397
v 859.8225 -616.0480 306.7886
v 859.7079 -615.8937 306.6306
f 1174 1175 1176
v 857.4909 -612.9078 306.6313
v 859.7079 -615.8937 306.6306
v 859.8225 -616.0480 306.7886
f 1177 1178 1179
v 859.7079 -615.8937 306.6306
v 859.7077 -615.8935 304.6397
v 859.8222 -616.0478 304.6397
f 1180 1181 1182
v 857.4907 -612.9076 304.6403
v 857.6154 -613.0751 306.4652
v 857.4909 -612.9078 306.6313
f 1183 1184 1185
v 859.7079 -615.8937 306.6306
v 857.4909 -612.9078 306.6313
v 857.6154 -613.0751 306.4652
f 1186 1187 1188
v 857.6154 -613.0751 306.4652
v 857.4907 -612.9076 304.6403
v 857.6152 -613.0749 304.6402
f 1189 1190 1191
v 862.5656 -614.0111 304.6395
v 862.5660 -614.0113 306.7884
v 859.8225 -616.0480 306.7886
f 1192 1193 1194
v 860.2331 -610.8709 304.6401
v 860.2334 -610.8711 306.6311
v 862.5656 -614.0111 304.6395
f 1195 1196 1197
v 854.8586 -614.8617 278.7724
v 861.4772 -609.3915 278.7721
v 864.4625 -613.0115 278.7713
f 1198 1199 1200
v 864.4625 -613.0115 278.7713
v 857.5649 -618.1359 278.7718
v 854.8586 -614.8617 278.7724
f 1201 1202 1203
v 860.2331 -610.8709 304.6401
v 861.4810 -609.3933 304.6401
v 857.4907 -612.9076 304.6403
f 1204 1205 1206
v 854.8624 -614.8635 304.6404
v 857.4907 -612.9076 304.6403
v 861.4810 -609.3933 304.6401
f 1207 1208 1209
v 864.4663 -613.0133 304.6393
v 861.4810 -609.3933 304.6401
v 860.2331 -610.8709 304.6401
f 1210 1211 1212
v 864.4663 -613.0133 304.6393
v 860.2331 -610.8709 304.6401
v 862.5656 -614.0111 304.6395
f 1213 1214 1215
v 859.8222 -616.0478 304.6397
v 864.4663 -613.0133 304.6393
v 862.5656 -614.0111 304.6395
f 1216 1217 1218
v 857.6152 -613.0749 304.6402
v 857.4907 -612.9076 304.6403
v 855.5761 -614.5884 304.6404
f 1219 1220 1221
v 857.4907 -612.9076 304.6403
v 854.8624 -614.8635 304.6404
v 855.5761 -614.5884 304.6404
f 1222 1223 1224
v 854.8624 -614.8635 304.6404
v 857.6706 -617.4070 304.6398
v 855.5761 -614.5884 304.6404
f 1225 1226 1227
v 857.5686 -618.1378 304.6398
v 859.8222 -616.0478 304.6397
v 857.6706 -617.4070 304.6398
f 1228 1229 1230
v 859.7077 -615.8935 304.6397
v 857.6706 -617.4070 304.6398
v 859.8222 -616.0478 304.6397
f 1231 1232 1233
v 854.8624 -614.8635 304.6404
v 857.5686 -618.1378 304.6398
v 857.6706 -617.4070 304.6398
f 1234 1235 1236
v 864.4663 -613.0133 304.6393
v 859.8222 -616.0478 304.6397
v 857.5686 -618.1378 304.6398
f 1237 1238 1239
v 861.4772 -609.3915 278.7721
v 861.4810 -609.3933 304.6401
v 864.4663 -613.0133 304.6393
f 1240 1241 1242
v 854.8586 -614.8617 278.7724
v 854.8624 -614.8635 304.6404
v 861.4810 -609.3933 304.6401
f 1243 1244 1245
v 857.5649 -618.1359 278.7718
v 857.5686 -618.1378 304.6398
v 854.8624 -614.8635 304.6404
f 1246 1247 1248
v 864.4625 -613.0115 278.7713
v 864.4663 -613.0133 304.6393
v 857.5686 -618.1378 304.6398
f 1249 1250 1251
v 855.5764 -614.5886 306.4654
v 859.7079 -615.8937 306.6306
v 857.6154 -613.0751 306.4652
f 1252 1253 1254
v 859.7079 -615.8937 306.6306
v 855.5764 -614.5886 306.4654
v 857.6709 -617.4072 306.6307
f 1255 1256 1257
v 859.7077 -615.8935 304.6397
v 859.7079 -615.8937 306.6306
v 857.6709 -617.4072 306.6307
f 1258 1259 1260
v 855.5761 -614.5884 304.6404
v 855.5764 -614.5886 306.4654
v 857.6154 -613.0751 306.4652
f 1261 1262 1263
v 857.6706 -617.4070 304.6398
v 857.6709 -617.4072 306.6307
v 855.5764 -614.5886 306.4654
f 1264 1265 1266
v 857.4907 -612.9076 304.6403
v 860.2334 -610.8711 306.6311
v 860.2331 -610.8709 304.6401
f 1267 1268 1269
v 862.5656 -614.0111 304.6395
v 859.8225 -616.0480 306.7886
v 859.8222 -616.0478 304.6397
f 1270 1271 1272
v 860.2334 -610.8711 306.6311
v 862.5660 -614.0113 306.7884
v 862.5656 -614.0111 304.6395
f 1273 1274 1275
v 861.4772 -609.3915 278.7721
v 864.4663 -613.0133 304.6393
v 864.4625 -613.0115 278.7713
f 1276 1277 1278
v 854.8586 -614.8617 278.7724
v 861.4810 -609.3933 304.6401
v 861.4772 -609.3915 278.7721
f 1279 1280 1281
v 857.5649 -618.1359 278.7718
v 854.8624 -614.8635 304.6404
v 854.8586 -614.8617 278.7724
f 1282 1283 1284
v 864.4625 -613.0115 278.7713
v 857.5686 -618.1378 304.6398
v 857.5649 -618.1359 278.7718
f 1285 1286 1287
v 859.7077 -615.8935 304.6397
v 857.6709 -617.4072 306.6307
v 857.6706 -617.4070 304.6398
f 1288 1289 1290
v 855.5761 -614.5884 304.6404
v 857.6154 -613.0751 306.4652
v 857.6152 -613.0749 304.6402
f 1291 1292 1293
v 857.6706 -617.4070 304.6398
v 855.5764 -614.5886 306.4654
v 855.5761 -614.5884 304.6404
f 1294 1295 1296

g building_ID_5B189B4B-6221-49FC-891F-3ADC9EBB2E68
v 775.7967 -269.0538 290.2126
v 755.4321 -266.3673 290.2153
v 777.3097 -269.8018 290.2124
f 1297 1298 1299
v 787.1566 -274.6661 290.2110
v 777.3097 -269.8018 290.2124
v 755.4321 -266.3673 290.2153
f 1300 1301 1302
v 787.1566 -274.6661 290.2110
v 755.4321 -266.3673 290.2153
v 798.8969 -280.4666 290.2093
f 1303 1304 1305
v 755.4321 -266.3673 290.2153
v 764.2461 -263.3479 290.2143
v 758.3510 -260.4351 290.2152
f 1306 1307 1308
v 755.4321 -266.3673 290.2153
v 765.7601 -264.0950 290.2140
v 764.2461 -263.3479 290.2143
f 1309 1310 1311
v 765.7601 -264.0950 290.2140
v 755.4321 -266.3673 290.2153
v 775.7967 -269.0538 290.2126
f 1312 1313 1314
v 825.7068 -300.9423 290.2048
v 823.5101 -292.6264 290.2055
v 821.9971 -291.8793 290.2058
f 1315 1316 1317
v 823.5101 -292.6264 290.2055
v 825.7068 -300.9423 290.2048
v 828.5683 -295.1259 290.2047
f 1318 1319 1320
v 825.7068 -300.9423 290.2048
v 821.9971 -291.8793 290.2058
v 811.9595 -286.9205 290.2074
f 1321 1322 1323
v 800.4099 -281.2137 290.2091
v 798.8969 -280.4666 290.2093
v 825.7068 -300.9423 290.2048
f 1324 1325 1326
v 825.7068 -300.9423 290.2048
v 810.4465 -286.1725 290.2076
v 800.4099 -281.2137 290.2091
f 1327 1328 1329
v 825.7068 -300.9423 290.2048
v 811.9595 -286.9205 290.2074
v 810.4465 -286.1725 290.2076
f 1330 1331 1332
v 755.4321 -266.3673 290.2153
v 825.7068 -300.9423 290.2048
v 798.8969 -280.4666 290.2093
f 1333 1334 1335
v 825.7064 -300.9422 287.9649
v 825.7068 -300.9423 290.2048
v 755.4321 -266.3673 290.2153
f 1336 1337 1338
v 828.5680 -295.1259 287.9648
v 828.5683 -295.1259 290.2047
v 825.7068 -300.9423 290.2048
f 1339 1340 1341
v 755.4318 -266.3672 287.9753
v 755.4321 -266.3673 290.2153
v 758.3510 -260.4351 290.2152
f 1342 1343 1344
v 735.7407 -263.5672 274.2132
v 735.7425 -263.5675 287.9778
v 741.4504 -252.0278 287.9776
f 1345 1346 1347
v 839.5308 -314.9457 274.1980
v 839.5328 -314.9461 287.9625
v 735.7425 -263.5675 287.9778
f 1348 1349 1350
v 845.2469 -303.3661 274.7768
v 845.8430 -302.1578 274.1978
v 845.8431 -302.1578 274.7768
f 1351 1352 1353
v 839.5308 -314.9457 274.1980
v 845.2469 -303.3661 274.7768
v 839.5328 -314.9461 287.9625
f 1354 1355 1356
v 845.2488 -303.3666 287.9623
v 839.5328 -314.9461 287.9625
v 845.2469 -303.3661 274.7768
f 1357 1358 1359
v 845.8430 -302.1578 274.1978
v 845.2469 -303.3661 274.7768
v 839.5308 -314.9457 274.1980
f 1360 1361 1362
v 829.1443 -293.9501 274.7743
v 827.5963 -293.1890 274.2006
v 827.5964 -293.1890 274.7746
f 1363 1364 1365
v 845.8430 -302.1578 274.1978
v 829.1443 -293.9501 274.7743
v 845.8431 -302.1578 274.7768
f 1366 1367 1368
v 827.5963 -293.1890 274.2006
v 829.1443 -293.9501 274.7743
v 845.8430 -302.1578 274.1978
f 1369 1370 1371
v 758.8577 -259.4023 274.7847
v 753.4908 -256.7638 274.2114
v 753.4909 -256.7639 274.7904
f 1372 1373 1374
v 760.2598 -260.0910 274.2105
v 758.8577 -259.4023 274.7847
v 760.2598 -260.0910 274.7845
f 1375 1376 1377
v 753.4908 -256.7638 274.2114
v 758.8577 -259.4023 274.7847
v 760.2598 -260.0910 274.2105
f 1378 1379 1380
v 752.5838 -257.5075 274.2115
v 752.5855 -257.5077 287.9760
v 752.6308 -257.4157 287.9760
f 1381 1382 1383
v 741.4486 -252.0276 274.2131
v 741.4504 -252.0278 287.9776
v 752.5855 -257.5077 287.9760
f 1384 1385 1386
v 824.6798 -298.9811 274.2007
v 839.5308 -314.9457 274.1980
v 757.4821 -265.9545 274.2106
f 1387 1388 1389
v 735.7407 -263.5672 274.2132
v 757.4821 -265.9545 274.2106
v 839.5308 -314.9457 274.1980
f 1390 1391 1392
v 845.8430 -302.1578 274.1978
v 839.5308 -314.9457 274.1980
v 824.6798 -298.9811 274.2007
f 1393 1394 1395
v 824.6798 -298.9811 274.2007
v 827.5963 -293.1890 274.2006
v 845.8430 -302.1578 274.1978
f 1396 1397 1398
v 760.2598 -260.0910 274.2105
v 757.4821 -265.9545 274.2106
v 752.5838 -257.5075 274.2115
f 1399 1400 1401
v 752.5838 -257.5075 274.2115
v 757.4821 -265.9545 274.2106
v 741.4486 -252.0276 274.2131
f 1402 1403 1404
v 752.5838 -257.5075 274.2115
v 753.0624 -257.6297 274.2114
v 760.2598 -260.0910 274.2105
f 1405 1406 1407
v 752.5838 -257.5075 274.2115
v 752.6290 -257.4155 274.2115
v 753.0624 -257.6297 274.2114
f 1408 1409 1410
v 760.2598 -260.0910 274.2105
v 753.0624 -257.6297 274.2114
v 753.4908 -256.7638 274.2114
f 1411 1412 1413
v 741.4486 -252.0276 274.2131
v 757.4821 -265.9545 274.2106
v 735.7407 -263.5672 274.2132
f 1414 1415 1416
v 752.6962 -257.6410 287.9760
v 741.4504 -252.0278 287.9776
v 755.4318 -266.3672 287.9753
f 1417 1418 1419
v 735.7425 -263.5675 287.9778
v 755.4318 -266.3672 287.9753
v 741.4504 -252.0278 287.9776
f 1420 1421 1422
v 758.3507 -260.4350 287.9752
v 754.2092 -258.3889 287.9758
v 755.4318 -266.3672 287.9753
f 1423 1424 1425
v 752.6962 -257.6410 287.9760
v 755.4318 -266.3672 287.9753
v 754.2092 -258.3889 287.9758
f 1426 1427 1428
v 755.4318 -266.3672 287.9753
v 735.7425 -263.5675 287.9778
v 825.7064 -300.9422 287.9649
f 1429 1430 1431
v 752.6308 -257.4157 287.9760
v 752.5855 -257.5077 287.9760
v 752.7726 -257.4862 287.9760
f 1432 1433 1434
v 752.7726 -257.4862 287.9760
v 752.5855 -257.5077 287.9760
v 752.6962 -257.6410 287.9760
f 1435 1436 1437
v 752.5855 -257.5077 287.9760
v 741.4504 -252.0278 287.9776
v 752.6962 -257.6410 287.9760
f 1438 1439 1440
v 835.0594 -298.3333 287.9639
v 825.7064 -300.9422 287.9649
v 845.2488 -303.3666 287.9623
f 1441 1442 1443
v 825.7064 -300.9422 287.9649
v 839.5328 -314.9461 287.9625
v 845.2488 -303.3666 287.9623
f 1444 1445 1446
v 825.7064 -300.9422 287.9649
v 833.5464 -297.5852 287.9641
v 828.5680 -295.1259 287.9648
f 1447 1448 1449
v 825.7064 -300.9422 287.9649
v 835.0594 -298.3333 287.9639
v 833.5464 -297.5852 287.9641
f 1450 1451 1452
v 839.5328 -314.9461 287.9625
v 825.7064 -300.9422 287.9649
v 735.7425 -263.5675 287.9778
f 1453 1454 1455
v 824.6799 -298.9811 274.7747
v 827.0093 -294.3555 274.7776
v 824.6798 -298.9811 274.2007
f 1456 1457 1458
v 827.5963 -293.1890 274.2006
v 827.0093 -294.3555 274.7776
v 827.5964 -293.1890 274.7746
f 1459 1460 1461
v 757.4821 -265.9545 274.2106
v 757.4822 -265.9544 274.7846
v 824.6799 -298.9811 274.7747
f 1462 1463 1464
v 759.7651 -261.1347 274.7875
v 760.2598 -260.0910 274.2105
v 760.2598 -260.0910 274.7845
f 1465 1466 1467
v 759.7651 -261.1347 274.7875
v 757.4822 -265.9544 274.7846
v 757.4821 -265.9545 274.2106
f 1468 1469 1470
v 845.0977 -303.2912 292.6291
v 858.7315 -275.6960 292.6286
v 848.6885 -270.7482 297.0460
f 1471 1472 1473
v 848.6885 -270.7482 297.0460
v 835.0607 -298.3335 297.0466
v 845.0977 -303.2912 292.6291
f 1474 1475 1476
v 847.1748 -270.0020 292.6304
v 833.5470 -297.5853 292.6309
v 835.0607 -298.3335 297.0466
f 1477 1478 1479
v 835.0607 -298.3335 297.0466
v 848.6885 -270.7482 297.0460
v 847.1748 -270.0020 292.6304
f 1480 1481 1482
v 833.5470 -297.5853 292.6309
v 847.1748 -270.0020 292.6304
v 837.1328 -265.0553 297.0478
f 1483 1484 1485
v 835.6182 -264.3102 292.6322
v 821.9974 -291.8794 292.6327
v 823.5110 -292.6266 297.0483
f 1486 1487 1488
v 823.5110 -292.6266 297.0483
v 837.1328 -265.0553 297.0478
v 835.6182 -264.3102 292.6322
f 1489 1490 1491
v 821.9974 -291.8794 292.6327
v 835.6182 -264.3102 292.6322
v 825.5762 -259.3623 297.0496
f 1492 1493 1494
v 825.5762 -259.3623 297.0496
v 811.9604 -286.9207 297.0501
v 821.9974 -291.8794 292.6327
f 1495 1496 1497
v 824.0606 -258.6162 292.6339
v 810.4468 -286.1725 292.6345
v 811.9604 -286.9207 297.0501
f 1498 1499 1500
v 814.0195 -253.6694 297.0513
v 800.4108 -281.2137 297.0518
v 810.4468 -286.1725 292.6345
f 1501 1502 1503
v 810.4468 -286.1725 292.6345
v 824.0606 -258.6162 292.6339
v 814.0195 -253.6694 297.0513
f 1504 1505 1506
v 812.5049 -252.9233 292.6356
v 798.8972 -280.4666 292.6362
v 800.4108 -281.2137 297.0518
f 1507 1508 1509
v 871.8017 -282.1351 297.0424
v 858.1609 -309.7453 297.0428
v 868.1979 -314.7040 292.6254
f 1510 1511 1512
v 868.1979 -314.7040 292.6254
v 881.8387 -287.0938 292.6249
v 871.8017 -282.1351 297.0424
f 1513 1514 1515
v 870.2881 -281.3879 292.6267
v 856.6473 -308.9981 292.6273
v 858.1609 -309.7453 297.0428
f 1516 1517 1518
v 858.1609 -309.7453 297.0428
v 871.8017 -282.1351 297.0424
v 870.2881 -281.3879 292.6267
f 1519 1520 1521
v 846.6464 -303.9684 297.0448
v 870.2881 -281.3879 292.6267
v 860.2461 -276.4421 297.0442
f 1522 1523 1524
v 870.2881 -281.3879 292.6267
v 846.6464 -303.9684 297.0448
v 856.6473 -308.9981 292.6273
f 1525 1526 1527
v 845.5315 -303.4094 293.7830
v 846.6464 -303.9684 297.0448
v 860.2461 -276.4421 297.0442
f 1528 1529 1530
v 845.0977 -303.2912 292.6291
v 845.5315 -303.4094 293.7830
v 858.7315 -275.6960 292.6286
f 1531 1532 1533
v 860.2461 -276.4421 297.0442
v 858.7315 -275.6960 292.6286
v 845.5315 -303.4094 293.7830
f 1534 1535 1536
v 845.4933 -303.4863 293.7830
v 845.5315 -303.4094 293.7830
v 845.0977 -303.2912 292.6291
f 1537 1538 1539
v 798.8972 -280.4666 292.6362
v 812.5049 -252.9233 292.6356
v 802.4629 -247.9765 297.0530
f 1540 1541 1542
v 802.4629 -247.9765 297.0530
v 788.8612 -275.5079 297.0535
v 798.8972 -280.4666 292.6362
f 1543 1544 1545
v 788.8612 -275.5079 297.0535
v 802.4629 -247.9765 297.0530
v 800.9473 -247.2304 292.6373
f 1546 1547 1548
v 800.9473 -247.2304 292.6373
v 787.3466 -274.7597 292.6379
v 788.8612 -275.5079 297.0535
f 1549 1550 1551
v 787.3466 -274.7597 292.6379
v 800.9473 -247.2304 292.6373
v 790.9062 -242.2826 297.0546
f 1552 1553 1554
v 790.9062 -242.2826 297.0546
v 777.3106 -269.8019 297.0552
v 787.3466 -274.7597 292.6379
f 1555 1556 1557
v 789.3916 -241.5375 292.6391
v 775.7970 -269.0539 292.6395
v 777.3106 -269.8019 297.0552
f 1558 1559 1560
v 777.3106 -269.8019 297.0552
v 790.9062 -242.2826 297.0546
v 789.3916 -241.5375 292.6391
f 1561 1562 1563
v 775.7970 -269.0539 292.6395
v 789.3916 -241.5375 292.6391
v 779.3496 -236.5897 297.0563
f 1564 1565 1566
v 779.3496 -236.5897 297.0563
v 765.7610 -264.0950 297.0568
v 775.7970 -269.0539 292.6395
f 1567 1568 1569
v 764.2465 -263.3480 292.6413
v 779.3496 -236.5897 297.0563
v 777.8350 -235.8446 292.6407
f 1570 1571 1572
v 779.3496 -236.5897 297.0563
v 764.2465 -263.3480 292.6413
v 765.7610 -264.0950 297.0568
f 1573 1574 1575
v 767.7929 -230.8967 297.0579
v 754.2103 -258.3891 297.0585
v 764.2465 -263.3480 292.6413
f 1576 1577 1578
v 764.2465 -263.3480 292.6413
v 777.8350 -235.8446 292.6407
v 767.7929 -230.8967 297.0579
f 1579 1580 1581
v 752.7732 -257.4863 292.6429
v 752.6968 -257.6410 292.6429
v 753.0649 -257.6300 293.4937
f 1582 1583 1584
v 754.2103 -258.3891 297.0585
v 753.0649 -257.6300 293.4937
v 752.6968 -257.6410 292.6429
f 1585 1586 1587
v 753.0649 -257.6300 293.4937
v 754.2103 -258.3891 297.0585
v 766.5881 -230.3035 293.5453
f 1588 1589 1590
v 767.7929 -230.8967 297.0579
v 766.5881 -230.3035 293.5453
v 754.2103 -258.3891 297.0585
f 1591 1592 1593
v 881.8360 -287.0935 274.7725
v 881.8387 -287.0938 292.6249
v 868.1979 -314.7040 292.6254
f 1594 1595 1596
v 845.5295 -303.4090 279.5285
v 845.5315 -303.4094 293.7830
v 845.4933 -303.4863 293.7830
f 1597 1598 1599
v 845.4905 -303.4859 274.7767
v 845.5295 -303.4090 279.5285
v 845.4933 -303.4863 293.7830
f 1600 1601 1602
v 845.5288 -303.4089 274.7767
v 845.5295 -303.4090 279.5285
v 845.4905 -303.4859 274.7767
f 1603 1604 1605
v 752.6962 -257.6410 287.9760
v 752.6968 -257.6410 292.6429
v 752.7732 -257.4863 292.6429
f 1606 1607 1608
v 856.6446 -308.9977 274.7749
v 845.8431 -302.1578 274.7768
v 858.1576 -309.7447 274.7746
f 1609 1610 1611
v 858.1576 -309.7447 274.7746
v 845.8431 -302.1578 274.7768
v 868.1952 -314.7035 274.7730
f 1612 1613 1614
v 845.5288 -303.4089 274.7767
v 845.4905 -303.4859 274.7767
v 845.2469 -303.3661 274.7768
f 1615 1616 1617
v 856.6446 -308.9977 274.7749
v 846.6433 -303.9679 274.7766
v 845.8431 -302.1578 274.7768
f 1618 1619 1620
v 845.5288 -303.4089 274.7767
v 845.2469 -303.3661 274.7768
v 845.8431 -302.1578 274.7768
f 1621 1622 1623
v 845.5288 -303.4089 274.7767
v 845.8431 -302.1578 274.7768
v 846.6433 -303.9679 274.7766
f 1624 1625 1626
v 871.7985 -282.1346 274.7742
v 845.8431 -302.1578 274.7768
v 870.2854 -281.3876 274.7744
f 1627 1628 1629
v 870.2854 -281.3876 274.7744
v 845.8431 -302.1578 274.7768
v 860.2489 -276.4447 274.7760
f 1630 1631 1632
v 845.8431 -302.1578 274.7768
v 871.7985 -282.1346 274.7742
v 881.8360 -287.0935 274.7725
f 1633 1634 1635
v 847.1643 -269.9987 274.7780
v 845.8431 -302.1578 274.7768
v 829.1443 -293.9501 274.7743
f 1636 1637 1638
v 845.8431 -302.1578 274.7768
v 847.1643 -269.9987 274.7780
v 860.2489 -276.4447 274.7760
f 1639 1640 1641
v 845.8431 -302.1578 274.7768
v 881.8360 -287.0935 274.7725
v 868.1952 -314.7035 274.7730
f 1642 1643 1644
v 757.4822 -265.9544 274.7846
v 827.0093 -294.3555 274.7776
v 824.6799 -298.9811 274.7747
f 1645 1646 1647
v 759.7651 -261.1347 274.7875
v 827.0093 -294.3555 274.7776
v 757.4822 -265.9544 274.7846
f 1648 1649 1650
v 758.8577 -259.4023 274.7847
v 766.5856 -230.3032 274.7899
v 760.2598 -260.0910 274.7845
f 1651 1652 1653
v 766.5856 -230.3032 274.7899
v 758.8577 -259.4023 274.7847
v 753.4909 -256.7639 274.7904
f 1654 1655 1656
v 827.5964 -293.1890 274.7746
v 827.0093 -294.3555 274.7776
v 759.7651 -261.1347 274.7875
f 1657 1658 1659
v 760.2598 -260.0910 274.7845
v 827.5964 -293.1890 274.7746
v 759.7651 -261.1347 274.7875
f 1660 1661 1662
v 829.1443 -293.9501 274.7743
v 827.5964 -293.1890 274.7746
v 847.1643 -269.9987 274.7780
f 1663 1664 1665
v 827.5964 -293.1890 274.7746
v 760.2598 -260.0910 274.7845
v 847.1643 -269.9987 274.7780
f 1666 1667 1668
v 847.1643 -269.9987 274.7780
v 760.2598 -260.0910 274.7845
v 766.5856 -230.3032 274.7899
f 1669 1670 1671
v 753.0624 -257.6297 274.2114
v 753.0649 -257.6300 293.4937
v 753.4909 -256.7639 274.7904
f 1672 1673 1674
v 766.5881 -230.3035 293.5453
v 753.4909 -256.7639 274.7904
v 753.0649 -257.6300 293.4937
f 1675 1676 1677
v 753.4908 -256.7638 274.2114
v 753.0624 -257.6297 274.2114
v 753.4909 -256.7639 274.7904
f 1678 1679 1680
v 766.5881 -230.3035 293.5453
v 766.5856 -230.3032 274.7899
v 753.4909 -256.7639 274.7904
f 1681 1682 1683
v 752.6290 -257.4155 274.2115
v 752.6308 -257.4157 287.9760
v 752.7726 -257.4862 287.9760
f 1684 1685 1686
v 753.0624 -257.6297 274.2114
v 752.6290 -257.4155 274.2115
v 752.7726 -257.4862 287.9760
f 1687 1688 1689
v 752.7726 -257.4862 287.9760
v 753.0649 -257.6300 293.4937
v 753.0624 -257.6297 274.2114
f 1690 1691 1692
v 752.7732 -257.4863 292.6429
v 753.0649 -257.6300 293.4937
v 752.7726 -257.4862 287.9760
f 1693 1694 1695
v 856.6473 -308.9981 292.6273
v 858.1576 -309.7447 274.7746
v 868.1952 -314.7035 274.7730
f 1696 1697 1698
v 868.1979 -314.7040 292.6254
v 856.6473 -308.9981 292.6273
v 868.1952 -314.7035 274.7730
f 1699 1700 1701
v 856.6446 -308.9977 274.7749
v 858.1576 -309.7447 274.7746
v 856.6473 -308.9981 292.6273
f 1702 1703 1704
v 858.1609 -309.7453 297.0428
v 856.6473 -308.9981 292.6273
v 868.1979 -314.7040 292.6254
f 1705 1706 1707
v 870.2854 -281.3876 274.7744
v 870.2881 -281.3879 292.6267
v 871.7985 -282.1346 274.7742
f 1708 1709 1710
v 871.8017 -282.1351 297.0424
v 881.8387 -287.0938 292.6249
v 870.2881 -281.3879 292.6267
f 1711 1712 1713
v 881.8360 -287.0935 274.7725
v 871.7985 -282.1346 274.7742
v 881.8387 -287.0938 292.6249
f 1714 1715 1716
v 870.2881 -281.3879 292.6267
v 881.8387 -287.0938 292.6249
v 871.7985 -282.1346 274.7742
f 1717 1718 1719
v 845.5295 -303.4090 279.5285
v 846.6433 -303.9679 274.7766
v 856.6446 -308.9977 274.7749
f 1720 1721 1722
v 846.6433 -303.9679 274.7766
v 845.5295 -303.4090 279.5285
v 845.5288 -303.4089 274.7767
f 1723 1724 1725
v 856.6473 -308.9981 292.6273
v 845.5295 -303.4090 279.5285
v 856.6446 -308.9977 274.7749
f 1726 1727 1728
v 856.6473 -308.9981 292.6273
v 845.5315 -303.4094 293.7830
v 845.5295 -303.4090 279.5285
f 1729 1730 1731
v 856.6473 -308.9981 292.6273
v 846.6464 -303.9684 297.0448
v 845.5315 -303.4094 293.7830
f 1732 1733 1734
v 823.5101 -292.6264 290.2055
v 828.5683 -295.1259 290.2047
v 821.9974 -291.8794 292.6327
f 1735 1736 1737
v 823.5110 -292.6266 297.0483
v 821.9974 -291.8794 292.6327
v 828.5683 -295.1259 290.2047
f 1738 1739 1740
v 821.9974 -291.8794 292.6327
v 821.9971 -291.8793 290.2058
v 823.5101 -292.6264 290.2055
f 1741 1742 1743
v 811.9595 -286.9205 290.2074
v 821.9974 -291.8794 292.6327
v 811.9604 -286.9207 297.0501
f 1744 1745 1746
v 833.5470 -297.5853 292.6309
v 823.5110 -292.6266 297.0483
v 828.5683 -295.1259 290.2047
f 1747 1748 1749
v 810.4465 -286.1725 290.2076
v 810.4468 -286.1725 292.6345
v 800.4099 -281.2137 290.2091
f 1750 1751 1752
v 800.4108 -281.2137 297.0518
v 800.4099 -281.2137 290.2091
v 810.4468 -286.1725 292.6345
f 1753 1754 1755
v 811.9595 -286.9205 290.2074
v 810.4468 -286.1725 292.6345
v 810.4465 -286.1725 290.2076
f 1756 1757 1758
v 810.4468 -286.1725 292.6345
v 811.9595 -286.9205 290.2074
v 811.9604 -286.9207 297.0501
f 1759 1760 1761
v 811.9595 -286.9205 290.2074
v 821.9971 -291.8793 290.2058
v 821.9974 -291.8794 292.6327
f 1762 1763 1764
v 833.5464 -297.5852 287.9641
v 828.5683 -295.1259 290.2047
v 828.5680 -295.1259 287.9648
f 1765 1766 1767
v 845.2488 -303.3666 287.9623
v 845.4933 -303.4863 293.7830
v 845.0977 -303.2912 292.6291
f 1768 1769 1770
v 835.0607 -298.3335 297.0466
v 833.5470 -297.5853 292.6309
v 845.0977 -303.2912 292.6291
f 1771 1772 1773
v 835.0594 -298.3333 287.9639
v 833.5470 -297.5853 292.6309
v 833.5464 -297.5852 287.9641
f 1774 1775 1776
v 828.5683 -295.1259 290.2047
v 833.5464 -297.5852 287.9641
v 833.5470 -297.5853 292.6309
f 1777 1778 1779
v 845.4933 -303.4863 293.7830
v 845.2488 -303.3666 287.9623
v 845.2469 -303.3661 274.7768
f 1780 1781 1782
v 845.0977 -303.2912 292.6291
v 835.0594 -298.3333 287.9639
v 845.2488 -303.3666 287.9623
f 1783 1784 1785
v 833.5470 -297.5853 292.6309
v 835.0594 -298.3333 287.9639
v 845.0977 -303.2912 292.6291
f 1786 1787 1788
v 764.2461 -263.3479 290.2143
v 765.7601 -264.0950 290.2140
v 764.2465 -263.3480 292.6413
f 1789 1790 1791
v 764.2465 -263.3480 292.6413
v 765.7601 -264.0950 290.2140
v 765.7610 -264.0950 297.0568
f 1792 1793 1794
v 765.7601 -264.0950 290.2140
v 775.7970 -269.0539 292.6395
v 765.7610 -264.0950 297.0568
f 1795 1796 1797
v 758.3510 -260.4351 290.2152
v 764.2465 -263.3480 292.6413
v 754.2103 -258.3891 297.0585
f 1798 1799 1800
v 754.2092 -258.3889 287.9758
v 752.6968 -257.6410 292.6429
v 752.6962 -257.6410 287.9760
f 1801 1802 1803
v 758.3510 -260.4351 290.2152
v 752.6968 -257.6410 292.6429
v 754.2092 -258.3889 287.9758
f 1804 1805 1806
v 758.3510 -260.4351 290.2152
v 764.2461 -263.3479 290.2143
v 764.2465 -263.3480 292.6413
f 1807 1808 1809
v 754.2092 -258.3889 287.9758
v 758.3507 -260.4350 287.9752
v 758.3510 -260.4351 290.2152
f 1810 1811 1812
v 752.6968 -257.6410 292.6429
v 758.3510 -260.4351 290.2152
v 754.2103 -258.3891 297.0585
f 1813 1814 1815
v 798.8969 -280.4666 290.2093
v 798.8972 -280.4666 292.6362
v 787.1566 -274.6661 290.2110
f 1816 1817 1818
v 788.8612 -275.5079 297.0535
v 787.1566 -274.6661 290.2110
v 798.8972 -280.4666 292.6362
f 1819 1820 1821
v 800.4099 -281.2137 290.2091
v 798.8972 -280.4666 292.6362
v 798.8969 -280.4666 290.2093
f 1822 1823 1824
v 800.4099 -281.2137 290.2091
v 800.4108 -281.2137 297.0518
v 798.8972 -280.4666 292.6362
f 1825 1826 1827
v 845.4933 -303.4863 293.7830
v 845.2469 -303.3661 274.7768
v 845.4905 -303.4859 274.7767
f 1828 1829 1830
v 777.3097 -269.8018 290.2124
v 775.7970 -269.0539 292.6395
v 775.7967 -269.0538 290.2126
f 1831 1832 1833
v 765.7601 -264.0950 290.2140
v 775.7967 -269.0538 290.2126
v 775.7970 -269.0539 292.6395
f 1834 1835 1836
v 777.3106 -269.8019 297.0552
v 777.3097 -269.8018 290.2124
v 787.3466 -274.7597 292.6379
f 1837 1838 1839
v 777.3097 -269.8018 290.2124
v 787.1566 -274.6661 290.2110
v 787.3466 -274.7597 292.6379
f 1840 1841 1842
v 788.8612 -275.5079 297.0535
v 787.3466 -274.7597 292.6379
v 787.1566 -274.6661 290.2110
f 1843 1844 1845
v 777.3106 -269.8019 297.0552
v 775.7970 -269.0539 292.6395
v 777.3097 -269.8018 290.2124
f 1846 1847 1848
v 800.9473 -247.2304 292.6373
v 789.3916 -241.5375 292.6391
v 790.9062 -242.2826 297.0546
f 1849 1850 1851
v 777.8350 -235.8446 292.6407
v 779.3496 -236.5897 297.0563
v 789.3916 -241.5375 292.6391
f 1852 1853 1854
v 802.4629 -247.9765 297.0530
v 812.5049 -252.9233 292.6356
v 800.9473 -247.2304 292.6373
f 1855 1856 1857
v 847.1643 -269.9987 274.7780
v 800.9473 -247.2304 292.6373
v 812.5049 -252.9233 292.6356
f 1858 1859 1860
v 789.3916 -241.5375 292.6391
v 800.9473 -247.2304 292.6373
v 847.1643 -269.9987 274.7780
f 1861 1862 1863
v 766.5881 -230.3035 293.5453
v 767.7929 -230.8967 297.0579
v 777.8350 -235.8446 292.6407
f 1864 1865 1866
v 847.1643 -269.9987 274.7780
v 766.5881 -230.3035 293.5453
v 777.8350 -235.8446 292.6407
f 1867 1868 1869
v 766.5881 -230.3035 293.5453
v 847.1643 -269.9987 274.7780
v 766.5856 -230.3032 274.7899
f 1870 1871 1872
v 847.1643 -269.9987 274.7780
v 777.8350 -235.8446 292.6407
v 789.3916 -241.5375 292.6391
f 1873 1874 1875
v 824.0606 -258.6162 292.6339
v 812.5049 -252.9233 292.6356
v 814.0195 -253.6694 297.0513
f 1876 1877 1878
v 847.1748 -270.0020 292.6304
v 835.6182 -264.3102 292.6322
v 837.1328 -265.0553 297.0478
f 1879 1880 1881
v 858.7315 -275.6960 292.6286
v 860.2461 -276.4421 297.0442
v 870.2881 -281.3879 292.6267
f 1882 1883 1884
v 858.7315 -275.6960 292.6286
v 870.2854 -281.3876 274.7744
v 847.1748 -270.0020 292.6304
f 1885 1886 1887
v 858.7315 -275.6960 292.6286
v 847.1748 -270.0020 292.6304
v 848.6885 -270.7482 297.0460
f 1888 1889 1890
v 847.1748 -270.0020 292.6304
v 870.2854 -281.3876 274.7744
v 835.6182 -264.3102 292.6322
f 1891 1892 1893
v 870.2881 -281.3879 292.6267
v 870.2854 -281.3876 274.7744
v 858.7315 -275.6960 292.6286
f 1894 1895 1896
v 824.0606 -258.6162 292.6339
v 825.5762 -259.3623 297.0496
v 835.6182 -264.3102 292.6322
f 1897 1898 1899
v 847.1643 -269.9987 274.7780
v 812.5049 -252.9233 292.6356
v 824.0606 -258.6162 292.6339
f 1900 1901 1902
v 835.6182 -264.3102 292.6322
v 860.2489 -276.4447 274.7760
v 824.0606 -258.6162 292.6339
f 1903 1904 1905
v 824.0606 -258.6162 292.6339
v 860.2489 -276.4447 274.7760
v 847.1643 -269.9987 274.7780
f 1906 1907 1908
v 860.2489 -276.4447 274.7760
v 835.6182 -264.3102 292.6322
v 870.2854 -281.3876 274.7744
f 1909 1910 1911
v 825.7064 -300.9422 287.9649
v 755.4321 -266.3673 290.2153
v 755.4318 -266.3672 287.9753
f 1912 1913 1914
v 828.5680 -295.1259 287.9648
v 825.7068 -300.9423 290.2048
v 825.7064 -300.9422 287.9649
f 1915 1916 1917
v 755.4318 -266.3672 287.9753
v 758.3510 -260.4351 290.2152
v 758.3507 -260.4350 287.9752
f 1918 1919 1920
v 735.7407 -263.5672 274.2132
v 741.4504 -252.0278 287.9776
v 741.4486 -252.0276 274.2131
f 1921 1922 1923
v 839.5308 -314.9457 274.1980
v 735.7425 -263.5675 287.9778
v 735.7407 -263.5672 274.2132
f 1924 1925 1926
v 752.5838 -257.5075 274.2115
v 752.6308 -257.4157 287.9760
v 752.6290 -257.4155 274.2115
f 1927 1928 1929
v 741.4486 -252.0276 274.2131
v 752.5855 -257.5077 287.9760
v 752.5838 -257.5075 274.2115
f 1930 1931 1932
v 827.0093 -294.3555 274.7776
v 827.5963 -293.1890 274.2006
v 824.6798 -298.9811 274.2007
f 1933 1934 1935
v 757.4821 -265.9545 274.2106
v 824.6799 -298.9811 274.7747
v 824.6798 -298.9811 274.2007
f 1936 1937 1938
v 759.7651 -261.1347 274.7875
v 757.4821 -265.9545 274.2106
v 760.2598 -260.0910 274.2105
f 1939 1940 1941
v 833.5470 -297.5853 292.6309
v 837.1328 -265.0553 297.0478
v 823.5110 -292.6266 297.0483
f 1942 1943 1944
v 824.0606 -258.6162 292.6339
v 811.9604 -286.9207 297.0501
v 825.5762 -259.3623 297.0496
f 1945 1946 1947
v 812.5049 -252.9233 292.6356
v 800.4108 -281.2137 297.0518
v 814.0195 -253.6694 297.0513
f 1948 1949 1950
v 881.8360 -287.0935 274.7725
v 868.1979 -314.7040 292.6254
v 868.1952 -314.7035 274.7730
f 1951 1952 1953
v 752.6962 -257.6410 287.9760
v 752.7732 -257.4863 292.6429
v 752.7726 -257.4862 287.9760
f 1954 1955 1956

g building_ID_DD988D5E-A477-434A-9958-E36A49CC956D
v 845.5275 -302.7903 288.8403
v 839.5326 -314.9460 286.8675
v 839.7623 -315.0596 286.8674
f 1957 1958 1959
v 868.5986 -314.9690 288.7315
v 845.5275 -302.7903 288.8403
v 839.7623 -315.0596 286.8674
f 1960 1961 1962
v 845.5275 -302.7903 288.8403
v 868.5986 -314.9690 288.7315
v 868.9163 -314.3249 288.8365
f 1963 1964 1965
v 862.8433 -326.5544 286.8488
v 868.5986 -314.9690 288.7315
v 839.7623 -315.0596 286.8674
f 1966 1967 1968
v 845.5253 -302.7899 274.2058
v 845.5275 -302.7903 288.8403
v 868.9163 -314.3249 288.8365
f 1969 1970 1971
v 839.5308 -314.9457 274.2060
v 839.5326 -314.9460 286.8675
v 845.5253 -302.7899 274.2058
f 1972 1973 1974
v 839.7605 -315.0593 274.2059
v 839.5308 -314.9457 274.2060
v 845.5253 -302.7899 274.2058
f 1975 1976 1977
v 868.5964 -314.9686 274.2020
v 839.7605 -315.0593 274.2059
v 845.5253 -302.7899 274.2058
f 1978 1979 1980
v 862.8414 -326.5541 274.2022
v 839.7605 -315.0593 274.2059
v 868.5964 -314.9686 274.2020
f 1981 1982 1983
v 868.9142 -314.3245 274.2020
v 868.5964 -314.9686 274.2020
v 845.5253 -302.7899 274.2058
f 1984 1985 1986
v 839.7605 -315.0593 274.2059
v 862.8414 -326.5541 274.2022
v 862.8433 -326.5544 286.8488
f 1987 1988 1989
v 839.7623 -315.0596 286.8674
v 839.7605 -315.0593 274.2059
v 862.8433 -326.5544 286.8488
f 1990 1991 1992
v 839.5308 -314.9457 274.2060
v 839.7623 -315.0596 286.8674
v 839.5326 -314.9460 286.8675
f 1993 1994 1995
v 839.7605 -315.0593 274.2059
v 839.7623 -315.0596 286.8674
v 839.5308 -314.9457 274.2060
f 1996 1997 1998
v 868.5964 -314.9686 274.2020
v 868.9142 -314.3245 274.2020
v 868.9163 -314.3249 288.8365
f 1999 2000 2001
v 868.5986 -314.9690 288.7315
v 868.5964 -314.9686 274.2020
v 868.9163 -314.3249 288.8365
f 2002 2003 2004
v 868.5964 -314.9686 274.2020
v 868.5986 -314.9690 288.7315
v 862.8414 -326.5541 274.2022
f 2005 2006 2007
v 862.8433 -326.5544 286.8488
v 862.8414 -326.5541 274.2022
v 868.5986 -314.9690 288.7315
f 2008 2009 2010
v 845.5253 -302.7899 274.2058
v 868.9163 -314.3249 288.8365
v 868.9142 -314.3245 274.2020
f 2011 2012 2013
v 839.5326 -314.9460 286.8675
v 845.5275 -302.7903 288.8403
v 845.5253 -302.7899 274.2058
f 2014 2015 2016
