# Grid Center: 2616600, 1263200
# Global Anchor: 7.64977475454284, 47.53283995868075, 0.0

g building_ID_60E2F143-F721-4622-B0DB-4BBA1B7D2A19
v 601.2238 -1501.9538 399.8342
v 626.7273 -1510.4562 399.8296
v 620.8377 -1517.7634 399.8284
f 1 2 3
v 601.2238 -1501.9538 399.8342
v 615.0523 -1524.9420 399.8273
v 595.4165 -1509.1442 399.8329
f 4 5 6
v 607.1205 -1494.6535 399.8353
v 626.7273 -1510.4562 399.8296
v 601.2238 -1501.9538 399.8342
f 7 8 9
v 615.0523 -1524.9420 399.8273
v 601.2238 -1501.9538 399.8342
v 620.8377 -1517.7634 399.8284
f 10 11 12
v 607.1217 -1494.6559 411.2379
v 620.8395 -1517.7670 416.2348
v 626.7285 -1510.4586 411.2322
f 13 14 15
v 620.8395 -1517.7670 416.2348
v 607.1217 -1494.6559 411.2379
v 601.2255 -1501.9572 416.2406
f 16 17 18
v 595.4177 -1509.1467 411.3205
v 615.0536 -1524.9445 411.3279
v 620.8395 -1517.7670 416.2348
f 19 20 21
v 601.2255 -1501.9572 416.2406
v 595.4177 -1509.1467 411.3205
v 620.8395 -1517.7670 416.2348
f 22 23 24
v 607.1217 -1494.6559 411.2379
v 626.7273 -1510.4562 399.8296
v 607.1205 -1494.6535 399.8353
f 25 26 27
v 595.4165 -1509.1442 399.8329
v 615.0536 -1524.9445 411.3279
v 595.4177 -1509.1467 411.3205
f 28 29 30
v 595.4165 -1509.1442 399.8329
v 595.4177 -1509.1467 411.3205
v 601.2255 -1501.9572 416.2406
f 31 32 33
v 601.2238 -1501.9538 399.8342
v 595.4165 -1509.1442 399.8329
v 601.2255 -1501.9572 416.2406
f 34 35 36
v 607.1217 -1494.6559 411.2379
v 607.1205 -1494.6535 399.8353
v 601.2238 -1501.9538 399.8342
f 37 38 39
v 601.2255 -1501.9572 416.2406
v 607.1217 -1494.6559 411.2379
v 601.2238 -1501.9538 399.8342
f 40 41 42
v 626.7285 -1510.4586 411.2322
v 620.8395 -1517.7670 416.2348
v 620.8377 -1517.7634 399.8284
f 43 44 45
v 626.7285 -1510.4586 411.2322
v 620.8377 -1517.7634 399.8284
v 626.7273 -1510.4562 399.8296
f 46 47 48
v 615.0536 -1524.9445 411.3279
v 615.0523 -1524.9420 399.8273
v 620.8377 -1517.7634 399.8284
f 49 50 51
v 620.8377 -1517.7634 399.8284
v 620.8395 -1517.7670 416.2348
v 615.0536 -1524.9445 411.3279
f 52 53 54
v 626.7273 -1510.4562 399.8296
v 607.1217 -1494.6559 411.2379
v 626.7285 -1510.4586 411.2322
f 55 56 57
v 615.0523 -1524.9420 399.8273
v 615.0536 -1524.9445 411.3279
v 595.4165 -1509.1442 399.8329
f 58 59 60

g building_ID_08A4D90A-F568-47D0-A1F2-291B20D35B63
v 784.0252 -1457.3383 356.0243
v 787.9217 -1453.0536 356.0248
v 787.9695 -1455.0078 356.0244
f 61 62 63
v 784.0252 -1457.3383 356.0243
v 787.9695 -1455.0078 356.0244
v 788.0245 -1457.2399 356.0238
f 64 65 66
v 783.9224 -1453.1520 356.0253
v 787.9217 -1453.0536 356.0248
v 784.0252 -1457.3383 356.0243
f 67 68 69
v 784.0259 -1457.3393 361.3621
v 788.0252 -1457.2410 361.3726
v 787.9703 -1455.0090 361.8951
f 70 71 72
v 783.9701 -1455.0613 361.8956
v 784.0259 -1457.3393 361.3621
v 787.9703 -1455.0090 361.8951
f 73 74 75
v 787.9703 -1455.0090 361.8951
v 783.9232 -1453.1530 361.4651
v 783.9701 -1455.0613 361.8956
f 76 77 78
v 783.9232 -1453.1530 361.4651
v 787.9703 -1455.0090 361.8951
v 787.9225 -1453.0548 361.4546
f 79 80 81
v 788.0250 -1457.2407 359.3666
v 788.0252 -1457.2410 361.3726
v 784.0259 -1457.3393 361.3621
f 82 83 84
v 788.0245 -1457.2399 356.0238
v 784.0259 -1457.3393 361.3621
v 784.0252 -1457.3383 356.0243
f 85 86 87
v 788.0250 -1457.2407 359.3666
v 787.9220 -1453.0541 358.0547
v 787.9225 -1453.0548 361.4546
f 88 89 90
v 787.9695 -1455.0078 356.0244
v 787.9217 -1453.0536 356.0248
v 787.9220 -1453.0541 358.0547
f 91 92 93
v 788.0250 -1457.2407 359.3666
v 787.9225 -1453.0548 361.4546
v 787.9703 -1455.0090 361.8951
f 94 95 96
v 787.9220 -1453.0541 358.0547
v 788.0250 -1457.2407 359.3666
v 788.0245 -1457.2399 356.0238
f 97 98 99
v 788.0245 -1457.2399 356.0238
v 787.9695 -1455.0078 356.0244
v 787.9220 -1453.0541 358.0547
f 100 101 102
v 788.0252 -1457.2410 361.3726
v 788.0250 -1457.2407 359.3666
v 787.9703 -1455.0090 361.8951
f 103 104 105
v 783.9232 -1453.1530 361.4651
v 784.0252 -1457.3383 356.0243
v 784.0259 -1457.3393 361.3621
f 106 107 108
v 783.9232 -1453.1530 361.4651
v 783.9224 -1453.1520 356.0253
v 784.0252 -1457.3383 356.0243
f 109 110 111
v 783.9232 -1453.1530 361.4651
v 784.0259 -1457.3393 361.3621
v 783.9701 -1455.0613 361.8956
f 112 113 114
v 788.0250 -1457.2407 359.3666
v 784.0259 -1457.3393 361.3621
v 788.0245 -1457.2399 356.0238
f 115 116 117
v 787.9225 -1453.0548 361.4546
v 783.9224 -1453.1520 356.0253
v 783.9232 -1453.1530 361.4651
f 118 119 120
v 783.9224 -1453.1520 356.0253
v 787.9225 -1453.0548 361.4546
v 787.9220 -1453.0541 358.0547
f 121 122 123
v 787.9220 -1453.0541 358.0547
v 787.9217 -1453.0536 356.0248
v 783.9224 -1453.1520 356.0253
f 124 125 126

g building_ID_516E7667-4835-4963-BF04-9DFF0723F2A6
v 831.6341 -1466.9266 345.2824
v 832.1003 -1466.8569 345.2823
v 831.7008 -1467.0578 345.2824
f 127 128 129
v 832.1003 -1466.8569 345.2823
v 831.6341 -1466.9266 345.2824
v 832.0337 -1466.7237 345.2824
f 130 131 132
v 840.4704 -1472.4042 359.0775
v 842.1038 -1472.9983 358.0721
v 837.0206 -1465.6169 359.0795
f 133 134 135
v 842.7285 -1472.6809 357.4781
v 838.1258 -1463.6296 357.4809
v 842.1038 -1472.9983 358.0721
f 136 137 138
v 837.0206 -1465.6169 359.0795
v 842.1038 -1472.9983 358.0721
v 837.5010 -1463.9470 358.0748
f 139 140 141
v 838.1258 -1463.6296 357.4809
v 837.5010 -1463.9470 358.0748
v 842.1038 -1472.9983 358.0721
f 142 143 144
v 837.0206 -1465.6169 359.0795
v 837.5010 -1463.9470 358.0748
v 835.3881 -1465.0224 358.0748
f 145 146 147
v 837.0206 -1465.6169 359.0795
v 835.3881 -1465.0224 358.0748
v 840.4704 -1472.4042 359.0775
f 148 149 150
v 834.7631 -1465.3395 357.4809
v 839.9889 -1474.0737 358.0721
v 835.3881 -1465.0224 358.0748
f 151 152 153
v 840.4704 -1472.4042 359.0775
v 835.3881 -1465.0224 358.0748
v 839.9889 -1474.0737 358.0721
f 154 155 156
v 839.3649 -1474.3909 357.4782
v 839.9889 -1474.0737 358.0721
v 834.7631 -1465.3395 357.4809
f 157 158 159
v 840.4704 -1472.4042 359.0775
v 839.9889 -1474.0737 358.0721
v 842.1038 -1472.9983 358.0721
f 160 161 162
v 832.5103 -1466.6541 355.4309
v 834.7631 -1465.3395 357.4809
v 831.6355 -1466.9286 354.7201
f 163 164 165
v 831.7021 -1467.0597 354.7201
v 832.5103 -1466.6541 355.4309
v 831.6355 -1466.9286 354.7201
f 166 167 168
v 839.3649 -1474.3909 357.4782
v 832.5103 -1466.6541 355.4309
v 836.9984 -1475.5941 355.3893
f 169 170 171
v 834.7631 -1465.3395 357.4809
v 832.5103 -1466.6541 355.4309
v 839.3649 -1474.3909 357.4782
f 172 173 174
v 831.7008 -1467.0578 345.2824
v 831.7021 -1467.0597 354.7201
v 831.6355 -1466.9286 354.7201
f 175 176 177
v 846.0865 -1458.8401 343.5585
v 848.7339 -1458.3291 343.5582
v 856.9046 -1474.5100 343.5533
f 178 179 180
v 856.9046 -1474.5100 343.5533
v 837.0305 -1475.6587 343.5558
v 846.0865 -1458.8401 343.5585
f 181 182 183
v 837.0305 -1475.6587 343.5558
v 832.5086 -1466.6517 343.5584
v 846.0865 -1458.8401 343.5585
f 184 185 186
v 848.5679 -1457.5916 343.5584
v 848.8972 -1458.2466 343.5582
v 848.7339 -1458.3291 343.5582
f 187 188 189
v 846.0865 -1458.8401 343.5585
v 831.3338 -1464.3555 343.5591
v 842.5942 -1451.9016 343.5605
f 190 191 192
v 848.5679 -1457.5916 343.5584
v 848.7339 -1458.3291 343.5582
v 846.0865 -1458.8401 343.5585
f 193 194 195
v 831.3338 -1464.3555 343.5591
v 846.0865 -1458.8401 343.5585
v 832.5086 -1466.6517 343.5584
f 196 197 198
v 836.6310 -1475.8587 343.5558
v 837.0305 -1475.6587 343.5558
v 840.1871 -1482.9242 343.5536
f 199 200 201
v 856.9046 -1474.5100 343.5533
v 840.1871 -1482.9242 343.5536
v 837.0305 -1475.6587 343.5558
f 202 203 204
v 831.3338 -1464.3555 343.5591
v 828.5984 -1458.9052 343.5607
v 842.5942 -1451.9016 343.5605
f 205 206 207
v 831.3338 -1464.3555 343.5591
v 832.1001 -1466.8565 343.5584
v 830.9412 -1464.5525 343.5591
f 208 209 210
v 831.3338 -1464.3555 343.5591
v 832.5086 -1466.6517 343.5584
v 832.1001 -1466.8565 343.5584
f 211 212 213
v 828.5984 -1458.9052 343.5607
v 828.5997 -1458.9070 352.4004
v 842.5954 -1451.9034 352.4002
f 214 215 216
v 831.3338 -1464.3555 343.5591
v 831.3351 -1464.3573 352.3988
v 828.5997 -1458.9070 352.4004
f 217 218 219
v 830.9412 -1464.5525 343.5591
v 830.9425 -1464.5543 352.3988
v 831.3351 -1464.3573 352.3988
f 220 221 222
v 836.6310 -1475.8587 343.5558
v 836.6322 -1475.8605 352.3954
v 837.0317 -1475.6606 352.3954
f 223 224 225
v 840.1871 -1482.9242 343.5536
v 840.1883 -1482.9261 352.3933
v 836.6322 -1475.8605 352.3954
f 226 227 228
v 856.9046 -1474.5100 343.5533
v 856.9059 -1474.5119 352.3930
v 840.1883 -1482.9261 352.3933
f 229 230 231
v 848.7339 -1458.3291 343.5582
v 848.7352 -1458.3309 352.3979
v 856.9059 -1474.5119 352.3930
f 232 233 234
v 848.8972 -1458.2466 343.5582
v 848.8985 -1458.2484 352.3979
v 848.7352 -1458.3309 352.3979
f 235 236 237
v 848.5679 -1457.5916 343.5584
v 848.5692 -1457.5934 352.3981
v 848.8985 -1458.2484 352.3979
f 238 239 240
v 846.0865 -1458.8401 343.5585
v 846.0879 -1458.8419 352.3982
v 848.5692 -1457.5934 352.3981
f 241 242 243
v 842.5942 -1451.9016 343.5605
v 842.5954 -1451.9034 352.4002
v 846.0879 -1458.8419 352.3982
f 244 245 246
v 836.6322 -1475.8605 352.3954
v 840.1883 -1482.9261 352.3933
v 837.0317 -1475.6606 352.3954
f 247 248 249
v 839.9349 -1474.0994 352.3954
v 837.0317 -1475.6606 352.3954
v 840.1883 -1482.9261 352.3933
f 250 251 252
v 836.9979 -1475.5935 352.3954
v 837.0317 -1475.6606 352.3954
v 839.9349 -1474.0994 352.3954
f 253 254 255
v 839.9349 -1474.0994 352.3954
v 840.1883 -1482.9261 352.3933
v 842.1160 -1472.9902 352.3953
f 256 257 258
v 830.9425 -1464.5543 352.3988
v 832.0347 -1466.7252 352.3981
v 831.3351 -1464.3573 352.3988
f 259 260 261
v 834.7624 -1465.3385 352.3980
v 831.3351 -1464.3573 352.3988
v 832.0347 -1466.7252 352.3981
f 262 263 264
v 835.3873 -1465.0212 352.3980
v 828.5997 -1458.9070 352.4004
v 834.7624 -1465.3385 352.3980
f 265 266 267
v 831.3351 -1464.3573 352.3988
v 834.7624 -1465.3385 352.3980
v 828.5997 -1458.9070 352.4004
f 268 269 270
v 837.5001 -1463.9458 352.3980
v 828.5997 -1458.9070 352.4004
v 835.3873 -1465.0212 352.3980
f 271 272 273
v 856.9059 -1474.5119 352.3930
v 846.0879 -1458.8419 352.3982
v 845.1862 -1471.4314 352.3953
f 274 275 276
v 840.1883 -1482.9261 352.3933
v 845.1862 -1471.4314 352.3953
v 842.1160 -1472.9902 352.3953
f 277 278 279
v 846.0879 -1458.8419 352.3982
v 840.5833 -1462.3771 352.3980
v 845.1862 -1471.4314 352.3953
f 280 281 282
v 840.1883 -1482.9261 352.3933
v 856.9059 -1474.5119 352.3930
v 845.1862 -1471.4314 352.3953
f 283 284 285
v 856.9059 -1474.5119 352.3930
v 848.7352 -1458.3309 352.3979
v 846.0879 -1458.8419 352.3982
f 286 287 288
v 828.5997 -1458.9070 352.4004
v 838.1250 -1463.6285 352.3980
v 840.5833 -1462.3771 352.3980
f 289 290 291
v 842.5954 -1451.9034 352.4002
v 828.5997 -1458.9070 352.4004
v 840.5833 -1462.3771 352.3980
f 292 293 294
v 848.7352 -1458.3309 352.3979
v 848.5692 -1457.5934 352.3981
v 846.0879 -1458.8419 352.3982
f 295 296 297
v 840.5833 -1462.3771 352.3980
v 846.0879 -1458.8419 352.3982
v 842.5954 -1451.9034 352.4002
f 298 299 300
v 848.5692 -1457.5934 352.3981
v 848.7352 -1458.3309 352.3979
v 848.8985 -1458.2484 352.3979
f 301 302 303
v 837.5001 -1463.9458 352.3980
v 838.1250 -1463.6285 352.3980
v 828.5997 -1458.9070 352.4004
f 304 305 306
v 832.0337 -1466.7237 345.2824
v 832.1001 -1466.8565 343.5584
v 832.1003 -1466.8569 345.2823
f 307 308 309
v 830.9412 -1464.5525 343.5591
v 832.0337 -1466.7237 345.2824
v 830.9425 -1464.5543 352.3988
f 310 311 312
v 832.0347 -1466.7252 352.3981
v 830.9425 -1464.5543 352.3988
v 832.0337 -1466.7237 345.2824
f 313 314 315
v 832.1001 -1466.8565 343.5584
v 832.0337 -1466.7237 345.2824
v 830.9412 -1464.5525 343.5591
f 316 317 318
v 841.3010 -1463.7876 355.3094
v 840.5838 -1462.3776 355.3099
v 838.1258 -1463.6296 357.4809
f 319 320 321
v 845.1865 -1471.4321 355.3072
v 841.3010 -1463.7876 355.3094
v 842.7285 -1472.6809 357.4781
f 322 323 324
v 838.1258 -1463.6296 357.4809
v 842.7285 -1472.6809 357.4781
v 841.3010 -1463.7876 355.3094
f 325 326 327
v 841.3010 -1463.7876 355.3094
v 840.5833 -1462.3771 352.3980
v 840.5838 -1462.3776 355.3099
f 328 329 330
v 840.5833 -1462.3771 352.3980
v 841.3010 -1463.7876 355.3094
v 845.1862 -1471.4314 352.3953
f 331 332 333
v 845.1865 -1471.4321 355.3072
v 845.1862 -1471.4314 352.3953
v 841.3010 -1463.7876 355.3094
f 334 335 336
v 832.5103 -1466.6541 355.4309
v 832.1003 -1466.8569 345.2823
v 832.5086 -1466.6517 343.5584
f 337 338 339
v 831.7008 -1467.0578 345.2824
v 832.5103 -1466.6541 355.4309
v 831.7021 -1467.0597 354.7201
f 340 341 342
v 832.5103 -1466.6541 355.4309
v 831.7008 -1467.0578 345.2824
v 832.1003 -1466.8569 345.2823
f 343 344 345
v 832.1001 -1466.8565 343.5584
v 832.5086 -1466.6517 343.5584
v 832.1003 -1466.8569 345.2823
f 346 347 348
v 832.5086 -1466.6517 343.5584
v 837.0305 -1475.6587 343.5558
v 836.9979 -1475.5935 352.3954
f 349 350 351
v 837.0317 -1475.6606 352.3954
v 836.9979 -1475.5935 352.3954
v 837.0305 -1475.6587 343.5558
f 352 353 354
v 836.9979 -1475.5935 352.3954
v 836.9984 -1475.5941 355.3893
v 832.5103 -1466.6541 355.4309
f 355 356 357
v 836.9979 -1475.5935 352.3954
v 832.5103 -1466.6541 355.4309
v 832.5086 -1466.6517 343.5584
f 358 359 360
v 842.1160 -1472.9902 352.3953
v 845.1862 -1471.4314 352.3953
v 845.1865 -1471.4321 355.3072
f 361 362 363
v 842.1160 -1472.9902 352.3953
v 839.3649 -1474.3909 357.4782
v 839.9349 -1474.0994 352.3954
f 364 365 366
v 842.1160 -1472.9902 352.3953
v 845.1865 -1471.4321 355.3072
v 842.7285 -1472.6809 357.4781
f 367 368 369
v 839.9889 -1474.0737 358.0721
v 842.7285 -1472.6809 357.4781
v 842.1038 -1472.9983 358.0721
f 370 371 372
v 839.3649 -1474.3909 357.4782
v 842.7285 -1472.6809 357.4781
v 839.9889 -1474.0737 358.0721
f 373 374 375
v 836.9979 -1475.5935 352.3954
v 839.9349 -1474.0994 352.3954
v 836.9984 -1475.5941 355.3893
f 376 377 378
v 836.9984 -1475.5941 355.3893
v 839.9349 -1474.0994 352.3954
v 839.3649 -1474.3909 357.4782
f 379 380 381
v 842.7285 -1472.6809 357.4781
v 839.3649 -1474.3909 357.4782
v 842.1160 -1472.9902 352.3953
f 382 383 384
v 837.5010 -1463.9470 358.0748
v 834.7631 -1465.3395 357.4809
v 835.3881 -1465.0224 358.0748
f 385 386 387
v 837.5010 -1463.9470 358.0748
v 835.3873 -1465.0212 352.3980
v 834.7624 -1465.3385 352.3980
f 388 389 390
v 832.0347 -1466.7252 352.3981
v 831.6355 -1466.9286 354.7201
v 834.7631 -1465.3395 357.4809
f 391 392 393
v 834.7631 -1465.3395 357.4809
v 834.7624 -1465.3385 352.3980
v 832.0347 -1466.7252 352.3981
f 394 395 396
v 834.7624 -1465.3385 352.3980
v 834.7631 -1465.3395 357.4809
v 837.5010 -1463.9470 358.0748
f 397 398 399
v 831.6341 -1466.9266 345.2824
v 831.6355 -1466.9286 354.7201
v 832.0347 -1466.7252 352.3981
f 400 401 402
v 835.3873 -1465.0212 352.3980
v 837.5010 -1463.9470 358.0748
v 838.1258 -1463.6296 357.4809
f 403 404 405
v 840.5833 -1462.3771 352.3980
v 838.1250 -1463.6285 352.3980
v 840.5838 -1462.3776 355.3099
f 406 407 408
v 837.5001 -1463.9458 352.3980
v 840.5838 -1462.3776 355.3099
v 838.1250 -1463.6285 352.3980
f 409 410 411
v 832.0347 -1466.7252 352.3981
v 832.0337 -1466.7237 345.2824
v 831.6341 -1466.9266 345.2824
f 412 413 414
v 835.3873 -1465.0212 352.3980
v 838.1258 -1463.6296 357.4809
v 837.5001 -1463.9458 352.3980
f 415 416 417
v 840.5838 -1462.3776 355.3099
v 837.5001 -1463.9458 352.3980
v 838.1258 -1463.6296 357.4809
f 418 419 420
v 831.7008 -1467.0578 345.2824
v 831.6355 -1466.9286 354.7201
v 831.6341 -1466.9266 345.2824
f 421 422 423
v 828.5984 -1458.9052 343.5607
v 842.5954 -1451.9034 352.4002
v 842.5942 -1451.9016 343.5605
f 424 425 426
v 831.3338 -1464.3555 343.5591
v 828.5997 -1458.9070 352.4004
v 828.5984 -1458.9052 343.5607
f 427 428 429
v 830.9412 -1464.5525 343.5591
v 831.3351 -1464.3573 352.3988
v 831.3338 -1464.3555 343.5591
f 430 431 432
v 836.6310 -1475.8587 343.5558
v 837.0317 -1475.6606 352.3954
v 837.0305 -1475.6587 343.5558
f 433 434 435
v 840.1871 -1482.9242 343.5536
v 836.6322 -1475.8605 352.3954
v 836.6310 -1475.8587 343.5558
f 436 437 438
v 856.9046 -1474.5100 343.5533
v 840.1883 -1482.9261 352.3933
v 840.1871 -1482.9242 343.5536
f 439 440 441
v 848.7339 -1458.3291 343.5582
v 856.9059 -1474.5119 352.3930
v 856.9046 -1474.5100 343.5533
f 442 443 444
v 848.8972 -1458.2466 343.5582
v 848.7352 -1458.3309 352.3979
v 848.7339 -1458.3291 343.5582
f 445 446 447
v 848.5679 -1457.5916 343.5584
v 848.8985 -1458.2484 352.3979
v 848.8972 -1458.2466 343.5582
f 448 449 450
v 846.0865 -1458.8401 343.5585
v 848.5692 -1457.5934 352.3981
v 848.5679 -1457.5916 343.5584
f 451 452 453
v 842.5942 -1451.9016 343.5605
v 846.0879 -1458.8419 352.3982
v 846.0865 -1458.8401 343.5585
f 454 455 456

g building_ID_9800F9D9-66A5-4521-A20F-DEA8BF181E00
v 805.4029 -1401.5908 343.0177
v 810.6190 -1400.7828 343.0172
v 814.0323 -1423.0760 343.0118
f 457 458 459
v 800.6909 -1402.3212 343.0181
v 805.4029 -1401.5908 343.0177
v 814.0323 -1423.0760 343.0118
f 460 461 462
v 800.6909 -1402.3212 343.0181
v 814.0323 -1423.0760 343.0118
v 808.9632 -1423.8584 343.0123
f 463 464 465
v 804.1422 -1424.6035 343.0127
v 800.6909 -1402.3212 343.0181
v 808.9632 -1423.8584 343.0123
f 466 467 468
v 805.4046 -1401.5933 355.7843
v 800.6922 -1402.3231 352.5098
v 802.4173 -1413.4627 352.4691
f 469 470 471
v 805.4046 -1401.5933 355.7843
v 802.4173 -1413.4627 352.4691
v 808.9649 -1423.8609 355.7788
f 472 473 474
v 804.1435 -1424.6054 352.4283
v 808.9649 -1423.8609 355.7788
v 802.4173 -1413.4627 352.4691
f 475 476 477
v 808.9649 -1423.8609 355.7788
v 814.0335 -1423.0777 351.9195
v 812.3274 -1411.9331 351.8662
f 478 479 480
v 808.9649 -1423.8609 355.7788
v 812.3274 -1411.9331 351.8662
v 805.4046 -1401.5933 355.7843
f 481 482 483
v 810.6203 -1400.7845 351.8119
v 805.4046 -1401.5933 355.7843
v 812.3274 -1411.9331 351.8662
f 484 485 486
v 810.6198 -1400.7839 348.4720
v 810.6203 -1400.7845 351.8119
v 812.3274 -1411.9331 351.8662
f 487 488 489
v 810.6190 -1400.7828 343.0172
v 810.6198 -1400.7839 348.4720
v 812.3274 -1411.9331 351.8662
f 490 491 492
v 810.6190 -1400.7828 343.0172
v 812.3274 -1411.9331 351.8662
v 814.0323 -1423.0760 343.0118
f 493 494 495
v 814.0329 -1423.0769 347.4656
v 814.0326 -1423.0765 345.2387
v 812.3274 -1411.9331 351.8662
f 496 497 498
v 814.0323 -1423.0760 343.0118
v 812.3274 -1411.9331 351.8662
v 814.0326 -1423.0765 345.2387
f 499 500 501
v 805.4029 -1401.5908 343.0177
v 800.6909 -1402.3212 343.0181
v 800.6922 -1402.3231 352.5098
f 502 503 504
v 805.4046 -1401.5933 355.7843
v 810.6198 -1400.7839 348.4720
v 800.6922 -1402.3231 352.5098
f 505 506 507
v 810.6203 -1400.7845 351.8119
v 810.6198 -1400.7839 348.4720
v 805.4046 -1401.5933 355.7843
f 508 509 510
v 800.6922 -1402.3231 352.5098
v 810.6198 -1400.7839 348.4720
v 810.6190 -1400.7828 343.0172
f 511 512 513
v 805.4029 -1401.5908 343.0177
v 800.6922 -1402.3231 352.5098
v 810.6190 -1400.7828 343.0172
f 514 515 516
v 814.0329 -1423.0769 347.4656
v 814.0335 -1423.0777 351.9195
v 808.9649 -1423.8609 355.7788
f 517 518 519
v 814.0329 -1423.0769 347.4656
v 804.1435 -1424.6054 352.4283
v 814.0326 -1423.0765 345.2387
f 520 521 522
v 804.1435 -1424.6054 352.4283
v 814.0329 -1423.0769 347.4656
v 808.9649 -1423.8609 355.7788
f 523 524 525
v 808.9632 -1423.8584 343.0123
v 814.0323 -1423.0760 343.0118
v 814.0326 -1423.0765 345.2387
f 526 527 528
v 804.1435 -1424.6054 352.4283
v 804.1422 -1424.6035 343.0127
v 808.9632 -1423.8584 343.0123
f 529 530 531
v 804.1435 -1424.6054 352.4283
v 808.9632 -1423.8584 343.0123
v 814.0326 -1423.0765 345.2387
f 532 533 534
v 804.1435 -1424.6054 352.4283
v 802.4173 -1413.4627 352.4691
v 804.1422 -1424.6035 343.0127
f 535 536 537
v 802.4173 -1413.4627 352.4691
v 800.6922 -1402.3231 352.5098
v 800.6909 -1402.3212 343.0181
f 538 539 540
v 800.6909 -1402.3212 343.0181
v 804.1422 -1424.6035 343.0127
v 802.4173 -1413.4627 352.4691
f 541 542 543
v 812.3274 -1411.9331 351.8662
v 814.0335 -1423.0777 351.9195
v 814.0329 -1423.0769 347.4656
f 544 545 546

g building_ID_28981A01-52AD-4337-B5F1-BBFE1B63924D
v 886.3013 -1359.9794 315.7461
v 888.6102 -1358.9176 315.7460
v 889.3916 -1360.6177 315.7455
f 547 548 549
v 887.9296 -1363.5978 315.7451
v 889.3916 -1360.6177 315.7455
v 890.2685 -1362.5261 315.7450
f 550 551 552
v 889.3916 -1360.6177 315.7455
v 887.9296 -1363.5978 315.7451
v 886.3013 -1359.9794 315.7461
f 553 554 555
v 890.2692 -1362.5270 320.8128
v 887.0686 -1361.6835 321.4773
v 887.9304 -1363.5988 320.8129
f 556 557 558
v 887.0686 -1361.6835 321.4773
v 890.2692 -1362.5270 320.8128
v 889.3925 -1360.6188 321.4772
f 559 560 561
v 887.0686 -1361.6835 321.4773
v 888.6110 -1358.9187 321.0208
v 886.3021 -1359.9804 321.0219
f 562 563 564
v 889.3925 -1360.6188 321.4772
v 888.6110 -1358.9187 321.0208
v 887.0686 -1361.6835 321.4773
f 565 566 567
v 890.2685 -1362.5261 315.7450
v 890.2692 -1362.5270 320.8128
v 887.9304 -1363.5988 320.8129
f 568 569 570
v 889.3925 -1360.6188 321.4772
v 888.6102 -1358.9176 315.7460
v 888.6110 -1358.9187 321.0208
f 571 572 573
v 888.6102 -1358.9176 315.7460
v 890.2692 -1362.5270 320.8128
v 889.3916 -1360.6177 315.7455
f 574 575 576
v 890.2685 -1362.5261 315.7450
v 889.3916 -1360.6177 315.7455
v 890.2692 -1362.5270 320.8128
f 577 578 579
v 890.2692 -1362.5270 320.8128
v 888.6102 -1358.9176 315.7460
v 889.3925 -1360.6188 321.4772
f 580 581 582
v 886.3013 -1359.9794 315.7461
v 887.9296 -1363.5978 315.7451
v 887.9304 -1363.5988 320.8129
f 583 584 585
v 886.3013 -1359.9794 315.7461
v 887.9304 -1363.5988 320.8129
v 887.0686 -1361.6835 321.4773
f 586 587 588
v 886.3021 -1359.9804 321.0219
v 886.3013 -1359.9794 315.7461
v 887.0686 -1361.6835 321.4773
f 589 590 591
v 890.2685 -1362.5261 315.7450
v 887.9304 -1363.5988 320.8129
v 887.9296 -1363.5978 315.7451
f 592 593 594
v 886.3013 -1359.9794 315.7461
v 886.3021 -1359.9804 321.0219
v 888.6110 -1358.9187 321.0208
f 595 596 597
v 888.6102 -1358.9176 315.7460
v 886.3013 -1359.9794 315.7461
v 888.6110 -1358.9187 321.0208
f 598 599 600

g building_ID_30A36458-1B20-4E29-89E0-900B5F3DDFA5
v 794.6840 -1386.9509 342.1003
v 790.2089 -1382.8799 342.1017
v 794.2214 -1385.3087 342.1007
f 601 602 603
v 790.2089 -1382.8799 342.1017
v 793.2922 -1382.0112 342.1016
v 794.2214 -1385.3087 342.1007
f 604 605 606
v 788.7645 -1388.6191 342.1007
v 788.3128 -1387.0159 342.1011
v 794.6840 -1386.9509 342.1003
f 607 608 609
v 787.3728 -1383.6793 342.1019
v 790.2089 -1382.8799 342.1017
v 787.7868 -1385.1505 342.1016
f 610 611 612
v 790.2089 -1382.8799 342.1017
v 788.3128 -1387.0159 342.1011
v 787.7868 -1385.1505 342.1016
f 613 614 615
v 794.6840 -1386.9509 342.1003
v 788.3128 -1387.0159 342.1011
v 790.2089 -1382.8799 342.1017
f 616 617 618
v 787.7876 -1385.1516 348.0574
v 794.2221 -1385.3097 347.0345
v 793.6962 -1383.4434 348.0570
f 619 620 621
v 794.2221 -1385.3097 347.0345
v 787.7876 -1385.1516 348.0574
v 788.3135 -1387.0168 347.0349
f 622 623 624
v 793.6962 -1383.4434 348.0570
v 793.2929 -1382.0122 347.2614
v 787.7876 -1385.1516 348.0574
f 625 626 627
v 787.3735 -1383.6803 347.2397
v 787.7876 -1385.1516 348.0574
v 793.2929 -1382.0122 347.2614
f 628 629 630
v 794.2221 -1385.3097 347.0345
v 788.7652 -1388.6200 346.9395
v 794.6847 -1386.9518 346.9371
f 631 632 633
v 788.3135 -1387.0168 347.0349
v 788.7652 -1388.6200 346.9395
v 794.2221 -1385.3097 347.0345
f 634 635 636
v 787.3731 -1383.6799 344.6598
v 787.3732 -1383.6800 345.9498
v 790.3322 -1382.8456 343.8647
f 637 638 639
v 790.3322 -1382.8456 343.8647
v 790.2089 -1382.8799 342.1017
v 787.3728 -1383.6793 342.1019
f 640 641 642
v 790.3322 -1382.8456 343.8647
v 787.3728 -1383.6793 342.1019
v 787.3731 -1383.6799 344.6598
f 643 644 645
v 793.2922 -1382.0112 342.1016
v 790.2089 -1382.8799 342.1017
v 790.3322 -1382.8456 343.8647
f 646 647 648
v 788.7645 -1388.6191 342.1007
v 788.7652 -1388.6200 346.9395
v 788.3135 -1387.0168 347.0349
f 649 650 651
v 788.3135 -1387.0168 347.0349
v 787.3731 -1383.6799 344.6598
v 788.7645 -1388.6191 342.1007
f 652 653 654
v 787.3732 -1383.6800 345.9498
v 787.7876 -1385.1516 348.0574
v 787.3735 -1383.6803 347.2397
f 655 656 657
v 788.3135 -1387.0168 347.0349
v 787.3732 -1383.6800 345.9498
v 787.3731 -1383.6799 344.6598
f 658 659 660
v 787.3731 -1383.6799 344.6598
v 787.7868 -1385.1505 342.1016
v 788.3128 -1387.0159 342.1011
f 661 662 663
v 787.7868 -1385.1505 342.1016
v 787.3731 -1383.6799 344.6598
v 787.3728 -1383.6793 342.1019
f 664 665 666
v 788.3128 -1387.0159 342.1011
v 788.7645 -1388.6191 342.1007
v 787.3731 -1383.6799 344.6598
f 667 668 669
v 787.3732 -1383.6800 345.9498
v 788.3135 -1387.0168 347.0349
v 787.7876 -1385.1516 348.0574
f 670 671 672
v 794.2221 -1385.3097 347.0345
v 793.2922 -1382.0112 342.1016
v 793.2929 -1382.0122 347.2614
f 673 674 675
v 793.2929 -1382.0122 347.2614
v 793.6962 -1383.4434 348.0570
v 794.2221 -1385.3097 347.0345
f 676 677 678
v 794.2214 -1385.3087 342.1007
v 793.2922 -1382.0112 342.1016
v 794.2221 -1385.3097 347.0345
f 679 680 681
v 794.2214 -1385.3087 342.1007
v 794.6847 -1386.9518 346.9371
v 794.6840 -1386.9509 342.1003
f 682 683 684
v 794.2214 -1385.3087 342.1007
v 794.2221 -1385.3097 347.0345
v 794.6847 -1386.9518 346.9371
f 685 686 687
v 787.3732 -1383.6800 345.9498
v 787.3735 -1383.6803 347.2397
v 790.3322 -1382.8456 343.8647
f 688 689 690
v 787.3735 -1383.6803 347.2397
v 793.2929 -1382.0122 347.2614
v 793.2922 -1382.0112 342.1016
f 691 692 693
v 793.2922 -1382.0112 342.1016
v 790.3322 -1382.8456 343.8647
v 787.3735 -1383.6803 347.2397
f 694 695 696
v 794.6847 -1386.9518 346.9371
v 788.7652 -1388.6200 346.9395
v 788.7645 -1388.6191 342.1007
f 697 698 699
v 794.6847 -1386.9518 346.9371
v 788.7645 -1388.6191 342.1007
v 794.6840 -1386.9509 342.1003
f 700 701 702

g building_ID_667E6200-C650-4C13-A92D-9B15F3C88D6D
v 783.8668 -1393.4824 344.2361
v 782.4194 -1389.5164 344.2372
v 782.8386 -1389.4306 344.2371
f 703 704 705
v 778.3588 -1390.8427 344.2374
v 783.8668 -1393.4824 344.2361
v 779.3217 -1394.6362 344.2364
f 706 707 708
v 783.8668 -1393.4824 344.2361
v 778.3588 -1390.8427 344.2374
v 782.4194 -1389.5164 344.2372
f 709 710 711
v 778.4407 -1390.5269 344.2374
v 782.4194 -1389.5164 344.2372
v 778.3588 -1390.8427 344.2374
f 712 713 714
v 783.8674 -1393.4833 349.0279
v 778.7742 -1392.4788 349.7478
v 779.3224 -1394.6372 349.7212
f 715 716 717
v 783.8674 -1393.4833 349.0279
v 780.8380 -1389.9193 349.3811
v 778.7742 -1392.4788 349.7478
f 718 719 720
v 780.8380 -1389.9193 349.3811
v 778.3596 -1390.8436 349.7672
v 778.7742 -1392.4788 349.7478
f 721 722 723
v 778.3596 -1390.8436 349.7672
v 780.8380 -1389.9193 349.3811
v 778.4414 -1390.5278 349.7472
f 724 725 726
v 783.0847 -1390.3992 349.0647
v 782.4200 -1389.5174 349.1390
v 780.8380 -1389.9193 349.3811
f 727 728 729
v 782.8392 -1389.4316 349.0759
v 782.4200 -1389.5174 349.1390
v 783.0847 -1390.3992 349.0647
f 730 731 732
v 783.8674 -1393.4833 349.0279
v 783.0847 -1390.3992 349.0647
v 780.8380 -1389.9193 349.3811
f 733 734 735
v 782.8386 -1389.4306 344.2371
v 782.8392 -1389.4316 349.0759
v 783.0847 -1390.3992 349.0647
f 736 737 738
v 783.0847 -1390.3992 349.0647
v 783.8668 -1393.4824 344.2361
v 782.8386 -1389.4306 344.2371
f 739 740 741
v 782.8386 -1389.4306 344.2371
v 782.4194 -1389.5164 344.2372
v 782.4200 -1389.5174 349.1390
f 742 743 744
v 782.4194 -1389.5164 344.2372
v 778.4407 -1390.5269 344.2374
v 778.4414 -1390.5278 349.7472
f 745 746 747
v 782.4194 -1389.5164 344.2372
v 780.8380 -1389.9193 349.3811
v 782.4200 -1389.5174 349.1390
f 748 749 750
v 778.3588 -1390.8427 344.2374
v 778.3596 -1390.8436 349.7672
v 778.4414 -1390.5278 349.7472
f 751 752 753
v 779.3217 -1394.6362 344.2364
v 779.3224 -1394.6372 349.7212
v 778.7742 -1392.4788 349.7478
f 754 755 756
v 779.3217 -1394.6362 344.2364
v 778.7742 -1392.4788 349.7478
v 778.3588 -1390.8427 344.2374
f 757 758 759
v 779.3217 -1394.6362 344.2364
v 783.8668 -1393.4824 344.2361
v 783.8674 -1393.4833 349.0279
f 760 761 762
v 783.0847 -1390.3992 349.0647
v 783.8674 -1393.4833 349.0279
v 783.8668 -1393.4824 344.2361
f 763 764 765
v 782.4200 -1389.5174 349.1390
v 782.8392 -1389.4316 349.0759
v 782.8386 -1389.4306 344.2371
f 766 767 768
v 778.4414 -1390.5278 349.7472
v 780.8380 -1389.9193 349.3811
v 782.4194 -1389.5164 344.2372
f 769 770 771
v 778.3588 -1390.8427 344.2374
v 778.4414 -1390.5278 349.7472
v 778.4407 -1390.5269 344.2374
f 772 773 774
v 778.3588 -1390.8427 344.2374
v 778.7742 -1392.4788 349.7478
v 778.3596 -1390.8436 349.7672
f 775 776 777
v 783.8674 -1393.4833 349.0279
v 779.3224 -1394.6372 349.7212
v 779.3217 -1394.6362 344.2364
f 778 779 780

g building_ID_C112BE46-68BC-44DE-AB13-5064CFC0EC79
v 576.7869 -1445.4746 409.0222
v 573.1139 -1445.4507 409.0225
v 573.1723 -1440.4658 409.0236
f 781 782 783
v 573.1723 -1440.4658 409.0236
v 576.8193 -1440.5016 409.0233
v 576.7869 -1445.4746 409.0222
f 784 785 786
v 573.0542 -1450.5796 409.0214
v 573.1139 -1445.4507 409.0225
v 576.7869 -1445.4746 409.0222
f 787 788 789
v 579.6689 -1445.4923 409.0219
v 579.6362 -1450.6172 409.0208
v 578.7501 -1450.6459 409.0208
f 790 791 792
v 576.7869 -1445.4746 409.0222
v 578.7501 -1450.6459 409.0208
v 573.0542 -1450.5796 409.0214
f 793 794 795
v 578.7501 -1450.6459 409.0208
v 576.7869 -1445.4746 409.0222
v 579.6689 -1445.4923 409.0219
f 796 797 798
v 582.1680 -1450.6860 409.0205
v 578.7501 -1450.6459 409.0208
v 582.7302 -1450.6406 409.0205
f 799 800 801
v 582.7302 -1450.6406 409.0205
v 578.7501 -1450.6459 409.0208
v 579.6362 -1450.6172 409.0208
f 802 803 804
v 582.7300 -1450.6845 409.0205
v 582.1680 -1450.6860 409.0205
v 582.7302 -1450.6406 409.0205
f 805 806 807
v 573.1732 -1440.4677 418.0263
v 573.1152 -1445.4533 421.8140
v 579.7007 -1440.6922 418.1647
f 808 809 810
v 582.7652 -1445.5152 421.8131
v 579.7007 -1440.6922 418.1647
v 573.1152 -1445.4533 421.8140
f 811 812 813
v 579.7007 -1440.6922 418.1647
v 579.4361 -1440.5294 418.0428
v 573.1732 -1440.4677 418.0263
f 814 815 816
v 582.2931 -1440.5580 418.0495
v 582.7652 -1445.5152 421.8131
v 582.7960 -1440.5654 418.0524
f 817 818 819
v 582.2931 -1440.5580 418.0495
v 579.9841 -1440.5349 418.0437
v 579.7007 -1440.6922 418.1647
f 820 821 822
v 582.7652 -1445.5152 421.8131
v 582.2931 -1440.5580 418.0495
v 579.7007 -1440.6922 418.1647
f 823 824 825
v 577.6150 -1450.6347 418.0886
v 573.0542 -1450.5796 409.0214
v 582.1690 -1450.6879 418.0702
f 826 827 828
v 573.0542 -1450.5796 409.0214
v 578.7501 -1450.6459 409.0208
v 582.1690 -1450.6879 418.0702
f 829 830 831
v 582.1690 -1450.6879 418.0702
v 578.7501 -1450.6459 409.0208
v 582.1680 -1450.6860 409.0205
f 832 833 834
v 577.6150 -1450.6347 418.0886
v 573.0551 -1450.5815 418.1071
v 573.0548 -1450.5808 414.7002
f 835 836 837
v 573.0542 -1450.5796 409.0214
v 577.6150 -1450.6347 418.0886
v 573.0548 -1450.5808 414.7002
f 838 839 840
v 582.1680 -1450.6860 409.0205
v 582.7300 -1450.6845 409.0205
v 582.7309 -1450.6864 418.0742
f 841 842 843
v 582.1680 -1450.6860 409.0205
v 582.7309 -1450.6864 418.0742
v 582.1690 -1450.6879 418.0702
f 844 845 846
v 582.2901 -1440.5562 408.3339
v 579.6361 -1450.6171 408.3318
v 579.7011 -1440.5302 408.3341
f 847 848 849
v 586.1710 -1450.6657 408.3311
v 582.2901 -1440.5562 408.3339
v 586.2859 -1440.6148 408.3335
f 850 851 852
v 579.6361 -1450.6171 408.3318
v 582.2901 -1440.5562 408.3339
v 586.1710 -1450.6657 408.3311
f 853 854 855
v 586.2859 -1440.6148 408.3335
v 586.2866 -1440.6160 414.1822
v 586.1716 -1450.6668 414.1799
f 856 857 858
v 586.1716 -1450.6668 414.1799
v 582.7644 -1445.5137 414.1814
v 582.7306 -1450.6416 414.1803
f 859 860 861
v 582.7957 -1440.5647 414.1825
v 582.7644 -1445.5137 414.1814
v 586.2866 -1440.6160 414.1822
f 862 863 864
v 586.1716 -1450.6668 414.1799
v 586.2866 -1440.6160 414.1822
v 582.7644 -1445.5137 414.1814
f 865 866 867
v 579.6361 -1450.6171 408.3318
v 579.6362 -1450.6172 409.0208
v 579.6689 -1445.4923 409.0059
f 868 869 870
v 579.6689 -1445.4923 409.0219
v 579.6689 -1445.4923 409.0059
v 579.6362 -1450.6172 409.0208
f 871 872 873
v 579.7011 -1440.5302 408.3341
v 579.6361 -1450.6171 408.3318
v 579.6689 -1445.4923 409.0059
f 874 875 876
v 579.6689 -1445.4923 409.0059
v 579.7012 -1440.5303 409.0070
v 579.7011 -1440.5302 408.3341
f 877 878 879
v 582.7302 -1450.6406 409.0205
v 586.1710 -1450.6657 408.3311
v 586.1716 -1450.6668 414.1799
f 880 881 882
v 582.7306 -1450.6416 414.1803
v 582.7302 -1450.6406 409.0205
v 586.1716 -1450.6668 414.1799
f 883 884 885
v 579.6361 -1450.6171 408.3318
v 582.7302 -1450.6406 409.0205
v 579.6362 -1450.6172 409.0208
f 886 887 888
v 586.1710 -1450.6657 408.3311
v 582.7302 -1450.6406 409.0205
v 579.6361 -1450.6171 408.3318
f 889 890 891
v 579.6689 -1445.4923 409.0059
v 576.7869 -1445.4746 409.0062
v 576.8193 -1440.5016 409.0073
f 892 893 894
v 576.8193 -1440.5016 409.0073
v 579.7012 -1440.5303 409.0070
v 579.6689 -1445.4923 409.0059
f 895 896 897
v 579.7021 -1440.5322 418.1647
v 579.4361 -1440.5294 418.0428
v 579.7007 -1440.6922 418.1647
f 898 899 900
v 579.7021 -1440.5322 418.1647
v 579.7007 -1440.6922 418.1647
v 579.9841 -1440.5349 418.0437
f 901 902 903
v 576.7869 -1445.4746 409.0062
v 576.7869 -1445.4746 409.0222
v 576.8193 -1440.5016 409.0233
f 904 905 906
v 576.7869 -1445.4746 409.0062
v 579.6689 -1445.4923 409.0059
v 579.6689 -1445.4923 409.0219
f 907 908 909
v 579.6689 -1445.4923 409.0219
v 576.7869 -1445.4746 409.0222
v 576.7869 -1445.4746 409.0062
f 910 911 912
v 582.7652 -1445.5152 421.8131
v 582.1690 -1450.6879 418.0702
v 582.7309 -1450.6864 418.0742
f 913 914 915
v 582.1690 -1450.6879 418.0702
v 582.7652 -1445.5152 421.8131
v 577.6150 -1450.6347 418.0886
f 916 917 918
v 573.1152 -1445.4533 421.8140
v 577.6150 -1450.6347 418.0886
v 582.7652 -1445.5152 421.8131
f 919 920 921
v 577.6150 -1450.6347 418.0886
v 573.1152 -1445.4533 421.8140
v 573.0551 -1450.5815 418.1071
f 922 923 924
v 573.1139 -1445.4507 409.0225
v 573.0542 -1450.5796 409.0214
v 573.0548 -1450.5808 414.7002
f 925 926 927
v 573.0548 -1450.5808 414.7002
v 573.1152 -1445.4533 421.8140
v 573.1732 -1440.4677 418.0263
f 928 929 930
v 573.1723 -1440.4658 409.0236
v 573.1139 -1445.4507 409.0225
v 573.1732 -1440.4677 418.0263
f 931 932 933
v 573.1732 -1440.4677 418.0263
v 573.1139 -1445.4507 409.0225
v 573.0548 -1450.5808 414.7002
f 934 935 936
v 573.1152 -1445.4533 421.8140
v 573.0548 -1450.5808 414.7002
v 573.0551 -1450.5815 418.1071
f 937 938 939
v 582.7652 -1445.5152 421.8131
v 582.7644 -1445.5137 414.1814
v 582.7960 -1440.5654 418.0524
f 940 941 942
v 582.7652 -1445.5152 421.8131
v 582.7309 -1450.6864 418.0742
v 582.7644 -1445.5137 414.1814
f 943 944 945
v 582.7960 -1440.5654 418.0524
v 582.7644 -1445.5137 414.1814
v 582.7957 -1440.5647 414.1825
f 946 947 948
v 582.7306 -1450.6416 414.1803
v 582.7309 -1450.6864 418.0742
v 582.7300 -1450.6845 409.0205
f 949 950 951
v 582.7300 -1450.6845 409.0205
v 582.7302 -1450.6406 409.0205
v 582.7306 -1450.6416 414.1803
f 952 953 954
v 582.7644 -1445.5137 414.1814
v 582.7309 -1450.6864 418.0742
v 582.7306 -1450.6416 414.1803
f 955 956 957
v 582.7957 -1440.5647 414.1825
v 582.2907 -1440.5573 414.1826
v 582.2931 -1440.5580 418.0495
f 958 959 960
v 582.2901 -1440.5562 408.3339
v 582.2907 -1440.5573 414.1826
v 582.7957 -1440.5647 414.1825
f 961 962 963
v 582.2931 -1440.5580 418.0495
v 582.7960 -1440.5654 418.0524
v 582.7957 -1440.5647 414.1825
f 964 965 966
v 586.2859 -1440.6148 408.3335
v 582.7957 -1440.5647 414.1825
v 586.2866 -1440.6160 414.1822
f 967 968 969
v 582.2901 -1440.5562 408.3339
v 582.7957 -1440.5647 414.1825
v 586.2859 -1440.6148 408.3335
f 970 971 972
v 579.4361 -1440.5294 418.0428
v 582.2907 -1440.5573 414.1826
v 576.8193 -1440.5016 409.0233
f 973 974 975
v 576.8193 -1440.5016 409.0233
v 573.1732 -1440.4677 418.0263
v 579.4361 -1440.5294 418.0428
f 976 977 978
v 576.8193 -1440.5016 409.0073
v 576.8193 -1440.5016 409.0233
v 579.7012 -1440.5303 409.0070
f 979 980 981
v 576.8193 -1440.5016 409.0233
v 573.1723 -1440.4658 409.0236
v 573.1732 -1440.4677 418.0263
f 982 983 984
v 579.9841 -1440.5349 418.0437
v 579.4361 -1440.5294 418.0428
v 579.7021 -1440.5322 418.1647
f 985 986 987
v 579.9841 -1440.5349 418.0437
v 582.2931 -1440.5580 418.0495
v 582.2907 -1440.5573 414.1826
f 988 989 990
v 576.8193 -1440.5016 409.0233
v 582.2907 -1440.5573 414.1826
v 579.7012 -1440.5303 409.0070
f 991 992 993
v 582.2907 -1440.5573 414.1826
v 582.2901 -1440.5562 408.3339
v 579.7012 -1440.5303 409.0070
f 994 995 996
v 579.7011 -1440.5302 408.3341
v 579.7012 -1440.5303 409.0070
v 582.2901 -1440.5562 408.3339
f 997 998 999
v 579.9841 -1440.5349 418.0437
v 582.2907 -1440.5573 414.1826
v 579.4361 -1440.5294 418.0428
f 1000 1001 1002
v 586.2859 -1440.6148 408.3335
v 586.1716 -1450.6668 414.1799
v 586.1710 -1450.6657 408.3311
f 1003 1004 1005
v 576.7869 -1445.4746 409.0062
v 576.8193 -1440.5016 409.0233
v 576.8193 -1440.5016 409.0073
f 1006 1007 1008

g building_ID_0798065B-6D3A-4F96-9007-2A8EE3FA0148
v 577.8608 -1432.8253 409.0089
v 579.7498 -1432.8424 409.0088
v 577.8053 -1439.3533 409.0075
f 1009 1010 1011
v 582.3448 -1432.8663 409.0085
v 582.2883 -1439.3912 409.0071
v 579.7498 -1432.8424 409.0088
f 1012 1013 1014
v 579.7498 -1432.8424 409.0088
v 582.2883 -1439.3912 409.0071
v 577.8053 -1439.3533 409.0075
f 1015 1016 1017
v 579.7092 -1439.3712 418.1650
v 579.7507 -1432.8442 418.1665
v 577.8062 -1439.3549 417.2892
f 1018 1019 1020
v 577.8062 -1439.3549 417.2892
v 579.7507 -1432.8442 418.1665
v 577.8617 -1432.8269 417.2966
f 1021 1022 1023
v 582.3456 -1432.8679 417.0532
v 579.7507 -1432.8442 418.1665
v 579.7092 -1439.3712 418.1650
f 1024 1025 1026
v 582.2891 -1439.3929 417.0588
v 582.3456 -1432.8679 417.0532
v 579.7092 -1439.3712 418.1650
f 1027 1028 1029
v 577.8053 -1439.3533 409.0075
v 577.8062 -1439.3549 417.2892
v 577.8608 -1432.8253 409.0089
f 1030 1031 1032
v 577.8611 -1432.8259 412.1168
v 577.8608 -1432.8253 409.0089
v 577.8062 -1439.3549 417.2892
f 1033 1034 1035
v 582.3448 -1432.8663 409.0085
v 582.3452 -1432.8671 413.0274
v 582.2883 -1439.3912 409.0071
f 1036 1037 1038
v 582.2883 -1439.3912 409.0071
v 582.3456 -1432.8679 417.0532
v 582.2891 -1439.3929 417.0588
f 1039 1040 1041
v 579.7498 -1432.8424 409.0088
v 577.8608 -1432.8253 409.0089
v 577.8611 -1432.8259 412.1168
f 1042 1043 1044
v 577.8611 -1432.8259 412.1168
v 582.3452 -1432.8671 413.0274
v 579.7498 -1432.8424 409.0088
f 1045 1046 1047
v 582.3456 -1432.8679 417.0532
v 577.8611 -1432.8259 412.1168
v 577.8615 -1432.8266 415.2247
f 1048 1049 1050
v 577.8615 -1432.8266 415.2247
v 579.7507 -1432.8442 418.1665
v 582.3456 -1432.8679 417.0532
f 1051 1052 1053
v 582.3452 -1432.8671 413.0274
v 582.3448 -1432.8663 409.0085
v 579.7498 -1432.8424 409.0088
f 1054 1055 1056
v 582.3456 -1432.8679 417.0532
v 582.3452 -1432.8671 413.0274
v 577.8611 -1432.8259 412.1168
f 1057 1058 1059
v 577.8617 -1432.8269 417.2966
v 579.7507 -1432.8442 418.1665
v 577.8615 -1432.8266 415.2247
f 1060 1061 1062
v 577.8053 -1439.3533 409.0075
v 582.2883 -1439.3912 409.0071
v 582.2891 -1439.3929 417.0588
f 1063 1064 1065
v 582.2891 -1439.3929 417.0588
v 579.7092 -1439.3712 418.1650
v 577.8062 -1439.3549 417.2892
f 1066 1067 1068
v 582.2891 -1439.3929 417.0588
v 577.8062 -1439.3549 417.2892
v 577.8053 -1439.3533 409.0075
f 1069 1070 1071
v 577.8062 -1439.3549 417.2892
v 577.8617 -1432.8269 417.2966
v 577.8615 -1432.8266 415.2247
f 1072 1073 1074
v 577.8062 -1439.3549 417.2892
v 577.8615 -1432.8266 415.2247
v 577.8611 -1432.8259 412.1168
f 1075 1076 1077
v 582.2883 -1439.3912 409.0071
v 582.3452 -1432.8671 413.0274
v 582.3456 -1432.8679 417.0532
f 1078 1079 1080

g building_ID_92D67730-EAA9-4AE7-8693-23A90B1C7DC3
v 627.2019 -1334.2431 412.3738
v 625.6446 -1331.3628 412.3746
v 628.0706 -1332.8864 412.3740
f 1081 1082 1083
v 624.7590 -1332.7075 412.3744
v 627.2019 -1334.2431 412.3738
v 626.1887 -1335.8264 412.3736
f 1084 1085 1086
v 624.7590 -1332.7075 412.3744
v 625.6446 -1331.3628 412.3746
v 627.2019 -1334.2431 412.3738
f 1087 1088 1089
v 623.7800 -1334.1919 412.3741
v 624.7590 -1332.7075 412.3744
v 626.1887 -1335.8264 412.3736
f 1090 1091 1092
v 627.2026 -1334.2442 418.7436
v 625.6453 -1331.3639 418.2284
v 624.7597 -1332.7087 418.7442
f 1093 1094 1095
v 625.6453 -1331.3639 418.2284
v 627.2026 -1334.2442 418.7436
v 628.0712 -1332.8875 418.2278
f 1096 1097 1098
v 624.7597 -1332.7087 418.7442
v 623.7807 -1334.1930 418.2639
v 626.1893 -1335.8274 418.2354
f 1099 1100 1101
v 624.7597 -1332.7087 418.7442
v 626.1893 -1335.8274 418.2354
v 627.2026 -1334.2442 418.7436
f 1102 1103 1104
v 625.6446 -1331.3628 412.3746
v 625.6453 -1331.3639 418.2284
v 628.0712 -1332.8875 418.2278
f 1105 1106 1107
v 623.7802 -1334.1922 413.8460
v 623.7800 -1334.1919 412.3741
v 626.1893 -1335.8274 418.2354
f 1108 1109 1110
v 626.1887 -1335.8264 412.3736
v 626.1890 -1335.8269 415.2905
v 623.7800 -1334.1919 412.3741
f 1111 1112 1113
v 623.7802 -1334.1922 413.8460
v 626.1893 -1335.8274 418.2354
v 623.7807 -1334.1930 418.2639
f 1114 1115 1116
v 624.7597 -1332.7087 418.7442
v 623.7802 -1334.1922 413.8460
v 623.7807 -1334.1930 418.2639
f 1117 1118 1119
v 625.6453 -1331.3639 418.2284
v 624.7590 -1332.7075 412.3744
v 623.7802 -1334.1922 413.8460
f 1120 1121 1122
v 624.7590 -1332.7075 412.3744
v 623.7800 -1334.1919 412.3741
v 623.7802 -1334.1922 413.8460
f 1123 1124 1125
v 625.6453 -1331.3639 418.2284
v 625.6446 -1331.3628 412.3746
v 624.7590 -1332.7075 412.3744
f 1126 1127 1128
v 624.7597 -1332.7087 418.7442
v 625.6453 -1331.3639 418.2284
v 623.7802 -1334.1922 413.8460
f 1129 1130 1131
v 627.2019 -1334.2431 412.3738
v 628.0706 -1332.8864 412.3740
v 628.0712 -1332.8875 418.2278
f 1132 1133 1134
v 627.2019 -1334.2431 412.3738
v 626.1890 -1335.8269 415.2905
v 626.1887 -1335.8264 412.3736
f 1135 1136 1137
v 626.1890 -1335.8269 415.2905
v 627.2019 -1334.2431 412.3738
v 628.0712 -1332.8875 418.2278
f 1138 1139 1140
v 627.2026 -1334.2442 418.7436
v 626.1893 -1335.8274 418.2354
v 626.1890 -1335.8269 415.2905
f 1141 1142 1143
v 628.0712 -1332.8875 418.2278
v 627.2026 -1334.2442 418.7436
v 626.1890 -1335.8269 415.2905
f 1144 1145 1146
v 625.6446 -1331.3628 412.3746
v 628.0712 -1332.8875 418.2278
v 628.0706 -1332.8864 412.3740
f 1147 1148 1149
v 623.7800 -1334.1919 412.3741
v 626.1890 -1335.8269 415.2905
v 626.1893 -1335.8274 418.2354
f 1150 1151 1152

g building_ID_8E5B7668-52EC-4C03-B315-4CDF6392C9A7
v 664.7845 -1338.8103 398.4015
v 665.5172 -1341.9162 398.4008
v 663.5269 -1340.4949 398.4013
f 1153 1154 1155
v 665.5172 -1341.9162 398.4008
v 664.7845 -1338.8103 398.4015
v 666.7167 -1340.2514 398.4010
f 1156 1157 1158
v 665.5175 -1341.9169 401.8706
v 666.7170 -1340.2521 401.8708
v 664.7849 -1338.8109 401.8714
f 1159 1160 1161
v 664.7849 -1338.8109 401.8714
v 663.5274 -1340.4955 401.8712
v 665.5175 -1341.9169 401.8706
f 1162 1163 1164
v 666.7167 -1340.2514 398.4010
v 666.7170 -1340.2521 401.8708
v 665.5172 -1341.9162 398.4008
f 1165 1166 1167
v 664.7845 -1338.8103 398.4015
v 664.7849 -1338.8109 401.8714
v 666.7167 -1340.2514 398.4010
f 1168 1169 1170
v 663.5269 -1340.4949 398.4013
v 663.5274 -1340.4955 401.8712
v 664.7849 -1338.8109 401.8714
f 1171 1172 1173
v 663.7202 -1344.8211 396.8884
v 665.6128 -1341.9842 396.8888
v 664.6507 -1343.5287 396.8886
f 1174 1175 1176
v 665.7117 -1342.0554 396.8888
v 664.6507 -1343.5287 396.8886
v 665.6128 -1341.9842 396.8888
f 1177 1178 1179
v 665.6128 -1341.9842 396.8888
v 663.7202 -1344.8211 396.8884
v 662.9399 -1340.0761 396.8895
f 1180 1181 1182
v 662.9399 -1340.0761 396.8895
v 663.7202 -1344.8211 396.8884
v 661.9191 -1341.4914 396.8893
f 1183 1184 1185
v 660.9545 -1342.8307 396.8891
v 661.9191 -1341.4914 396.8893
v 663.7202 -1344.8211 396.8884
f 1186 1187 1188
v 664.6514 -1343.5297 402.8824
v 660.9551 -1342.8317 402.1859
v 663.7208 -1344.8221 402.2092
f 1189 1190 1191
v 661.9198 -1341.4924 402.8831
v 660.9551 -1342.8317 402.1859
v 664.6514 -1343.5297 402.8824
f 1192 1193 1194
v 664.6514 -1343.5297 402.8824
v 662.9405 -1340.0770 402.1593
v 661.9198 -1341.4924 402.8831
f 1195 1196 1197
v 665.7122 -1342.0564 402.1296
v 662.9405 -1340.0770 402.1593
v 664.6514 -1343.5297 402.8824
f 1198 1199 1200
v 663.7202 -1344.8211 396.8884
v 663.7208 -1344.8221 402.2092
v 660.9551 -1342.8317 402.1859
f 1201 1202 1203
v 660.9551 -1342.8317 402.1859
v 660.9550 -1342.8315 400.8550
v 663.7202 -1344.8211 396.8884
f 1204 1205 1206
v 663.7202 -1344.8211 396.8884
v 660.9550 -1342.8315 400.8550
v 660.9545 -1342.8307 396.8891
f 1207 1208 1209
v 665.7117 -1342.0554 396.8888
v 664.6514 -1343.5297 402.8824
v 663.7208 -1344.8221 402.2092
f 1210 1211 1212
v 664.6514 -1343.5297 402.8824
v 665.7117 -1342.0554 396.8888
v 665.7122 -1342.0564 402.1296
f 1213 1214 1215
v 664.6507 -1343.5287 396.8886
v 663.7208 -1344.8221 402.2092
v 663.7202 -1344.8211 396.8884
f 1216 1217 1218
v 665.7117 -1342.0554 396.8888
v 663.7208 -1344.8221 402.2092
v 664.6507 -1343.5287 396.8886
f 1219 1220 1221
v 660.9550 -1342.8315 400.8550
v 661.9191 -1341.4914 396.8893
v 660.9545 -1342.8307 396.8891
f 1222 1223 1224
v 662.9399 -1340.0761 396.8895
v 660.9551 -1342.8317 402.1859
v 661.9198 -1341.4924 402.8831
f 1225 1226 1227
v 660.9550 -1342.8315 400.8550
v 660.9551 -1342.8317 402.1859
v 662.9399 -1340.0761 396.8895
f 1228 1229 1230
v 662.9405 -1340.0770 402.1593
v 662.9399 -1340.0761 396.8895
v 661.9198 -1341.4924 402.8831
f 1231 1232 1233
v 661.9191 -1341.4914 396.8893
v 660.9550 -1342.8315 400.8550
v 662.9399 -1340.0761 396.8895
f 1234 1235 1236
v 665.7122 -1342.0564 402.1296
v 663.5274 -1340.4955 401.8712
v 662.9405 -1340.0770 402.1593
f 1237 1238 1239
v 665.5175 -1341.9169 401.8706
v 663.5274 -1340.4955 401.8712
v 665.7122 -1342.0564 402.1296
f 1240 1241 1242
v 662.9399 -1340.0761 396.8895
v 662.9405 -1340.0770 402.1593
v 663.5269 -1340.4949 398.4013
f 1243 1244 1245
v 663.5274 -1340.4955 401.8712
v 663.5269 -1340.4949 398.4013
v 662.9405 -1340.0770 402.1593
f 1246 1247 1248
v 663.5269 -1340.4949 398.4013
v 665.6128 -1341.9842 396.8888
v 662.9399 -1340.0761 396.8895
f 1249 1250 1251
v 665.5172 -1341.9162 398.4008
v 665.5175 -1341.9169 401.8706
v 665.7122 -1342.0564 402.1296
f 1252 1253 1254
v 665.7117 -1342.0554 396.8888
v 665.5172 -1341.9162 398.4008
v 665.7122 -1342.0564 402.1296
f 1255 1256 1257
v 665.5172 -1341.9162 398.4008
v 665.7117 -1342.0554 396.8888
v 665.6128 -1341.9842 396.8888
f 1258 1259 1260
v 663.5269 -1340.4949 398.4013
v 665.5172 -1341.9162 398.4008
v 665.6128 -1341.9842 396.8888
f 1261 1262 1263
v 666.7170 -1340.2521 401.8708
v 665.5175 -1341.9169 401.8706
v 665.5172 -1341.9162 398.4008
f 1264 1265 1266
v 664.7849 -1338.8109 401.8714
v 666.7170 -1340.2521 401.8708
v 666.7167 -1340.2514 398.4010
f 1267 1268 1269
v 663.5269 -1340.4949 398.4013
v 664.7849 -1338.8109 401.8714
v 664.7845 -1338.8103 398.4015
f 1270 1271 1272

g building_ID_617D5DF9-5881-49BA-9C3A-E23C42BA674E
v 671.8426 -1333.5460 397.6659
v 668.1204 -1332.8460 397.6664
v 669.0369 -1331.5414 397.6666
f 1273 1274 1275
v 668.1204 -1332.8460 397.6664
v 670.9322 -1334.8096 397.6657
v 667.2872 -1334.0388 397.6663
f 1276 1277 1278
v 670.0599 -1336.0213 397.6656
v 667.2872 -1334.0388 397.6663
v 670.9322 -1334.8096 397.6657
f 1279 1280 1281
v 671.8426 -1333.5460 397.6659
v 670.9322 -1334.8096 397.6657
v 668.1204 -1332.8460 397.6664
f 1282 1283 1284
v 670.0603 -1336.0220 401.5775
v 668.1210 -1332.8468 402.3302
v 667.2877 -1334.0395 401.5972
f 1285 1286 1287
v 668.1210 -1332.8468 402.3302
v 670.0603 -1336.0220 401.5775
v 670.9327 -1334.8104 402.3295
f 1288 1289 1290
v 670.1593 -1332.3432 401.5352
v 670.9327 -1334.8104 402.3295
v 671.8430 -1333.5467 401.5458
f 1291 1292 1293
v 668.1210 -1332.8468 402.3302
v 670.1593 -1332.3432 401.5352
v 669.0374 -1331.5422 401.5275
f 1294 1295 1296
v 670.9327 -1334.8104 402.3295
v 670.1593 -1332.3432 401.5352
v 668.1210 -1332.8468 402.3302
f 1297 1298 1299
v 670.0603 -1336.0220 401.5775
v 667.2872 -1334.0388 397.6663
v 670.0602 -1336.0217 400.1035
f 1300 1301 1302
v 670.0599 -1336.0213 397.6656
v 670.0602 -1336.0217 400.1035
v 667.2872 -1334.0388 397.6663
f 1303 1304 1305
v 670.0603 -1336.0220 401.5775
v 667.2877 -1334.0395 401.5972
v 667.2875 -1334.0393 400.6142
f 1306 1307 1308
v 667.2872 -1334.0388 397.6663
v 670.0603 -1336.0220 401.5775
v 667.2874 -1334.0392 399.6322
f 1309 1310 1311
v 669.0373 -1331.5420 400.5575
v 669.0374 -1331.5422 401.5275
v 670.1593 -1332.3432 401.5352
f 1312 1313 1314
v 669.0369 -1331.5414 397.6666
v 669.0371 -1331.5418 399.5875
v 670.1593 -1332.3432 401.5352
f 1315 1316 1317
v 671.8428 -1333.5463 399.6058
v 671.8426 -1333.5460 397.6659
v 670.1593 -1332.3432 401.5352
f 1318 1319 1320
v 669.0369 -1331.5414 397.6666
v 670.1593 -1332.3432 401.5352
v 671.8426 -1333.5460 397.6659
f 1321 1322 1323
v 670.0602 -1336.0217 400.1035
v 671.8428 -1333.5463 399.6058
v 671.8430 -1333.5467 401.5458
f 1324 1325 1326
v 671.8428 -1333.5463 399.6058
v 670.9322 -1334.8096 397.6657
v 671.8426 -1333.5460 397.6659
f 1327 1328 1329
v 671.8430 -1333.5467 401.5458
v 670.9327 -1334.8104 402.3295
v 670.0602 -1336.0217 400.1035
f 1330 1331 1332
v 670.0599 -1336.0213 397.6656
v 671.8428 -1333.5463 399.6058
v 670.0602 -1336.0217 400.1035
f 1333 1334 1335
v 670.9322 -1334.8096 397.6657
v 671.8428 -1333.5463 399.6058
v 670.0599 -1336.0213 397.6656
f 1336 1337 1338
v 670.0603 -1336.0220 401.5775
v 670.0602 -1336.0217 400.1035
v 670.9327 -1334.8104 402.3295
f 1339 1340 1341
v 669.0371 -1331.5418 399.5875
v 668.1204 -1332.8460 397.6664
v 667.2874 -1334.0392 399.6322
f 1342 1343 1344
v 667.2874 -1334.0392 399.6322
v 668.1204 -1332.8460 397.6664
v 667.2872 -1334.0388 397.6663
f 1345 1346 1347
v 669.0371 -1331.5418 399.5875
v 667.2874 -1334.0392 399.6322
v 667.2875 -1334.0393 400.6142
f 1348 1349 1350
v 669.0373 -1331.5420 400.5575
v 667.2875 -1334.0393 400.6142
v 668.1210 -1332.8468 402.3302
f 1351 1352 1353
v 669.0374 -1331.5422 401.5275
v 669.0373 -1331.5420 400.5575
v 668.1210 -1332.8468 402.3302
f 1354 1355 1356
v 669.0371 -1331.5418 399.5875
v 669.0369 -1331.5414 397.6666
v 668.1204 -1332.8460 397.6664
f 1357 1358 1359
v 669.0373 -1331.5420 400.5575
v 669.0371 -1331.5418 399.5875
v 667.2875 -1334.0393 400.6142
f 1360 1361 1362
v 667.2875 -1334.0393 400.6142
v 667.2877 -1334.0395 401.5972
v 668.1210 -1332.8468 402.3302
f 1363 1364 1365
v 670.0603 -1336.0220 401.5775
v 667.2875 -1334.0393 400.6142
v 667.2874 -1334.0392 399.6322
f 1366 1367 1368
v 670.1593 -1332.3432 401.5352
v 671.8430 -1333.5467 401.5458
v 671.8428 -1333.5463 399.6058
f 1369 1370 1371
v 670.1593 -1332.3432 401.5352
v 669.0371 -1331.5418 399.5875
v 669.0373 -1331.5420 400.5575
f 1372 1373 1374

g building_ID_7884D125-AF23-4AEB-A012-EB2F1B78DC3F
v 646.1719 -1301.5939 414.5227
v 646.9141 -1306.3860 414.5216
v 644.2751 -1304.8539 414.5222
f 1375 1376 1377
v 646.9141 -1306.3860 414.5216
v 646.1719 -1301.5939 414.5227
v 648.8098 -1303.1280 414.5221
f 1378 1379 1380
v 644.2757 -1304.8548 419.7050
v 646.9147 -1306.3869 419.7814
v 648.8104 -1303.1290 419.7789
f 1381 1382 1383
v 644.2757 -1304.8548 419.7050
v 648.8104 -1303.1290 419.7789
v 646.1725 -1301.5949 419.7035
f 1384 1385 1386
v 646.1719 -1301.5939 414.5227
v 646.1725 -1301.5949 419.7035
v 648.8104 -1303.1290 419.7789
f 1387 1388 1389
v 648.8104 -1303.1290 419.7789
v 648.8098 -1303.1280 414.5221
v 646.1719 -1301.5939 414.5227
f 1390 1391 1392
v 644.2757 -1304.8548 419.7050
v 646.1719 -1301.5939 414.5227
v 644.2751 -1304.8539 414.5222
f 1393 1394 1395
v 644.2757 -1304.8548 419.7050
v 646.1725 -1301.5949 419.7035
v 646.1719 -1301.5939 414.5227
f 1396 1397 1398
v 646.9147 -1306.3869 419.7814
v 644.2757 -1304.8548 419.7050
v 644.2751 -1304.8539 414.5222
f 1399 1400 1401
v 646.9147 -1306.3869 419.7814
v 646.9141 -1306.3860 414.5216
v 648.8104 -1303.1290 419.7789
f 1402 1403 1404
v 646.9141 -1306.3860 414.5216
v 648.8098 -1303.1280 414.5221
v 648.8104 -1303.1290 419.7789
f 1405 1406 1407
v 644.2751 -1304.8539 414.5222
v 646.9141 -1306.3860 414.5216
v 646.9147 -1306.3869 419.7814
f 1408 1409 1410

g building_ID_2BF396EB-86FA-48FC-983E-934F0D5161DB
v 688.7498 -1301.1443 399.8608
v 691.3074 -1302.8173 399.8602
v 690.6277 -1303.8274 399.8601
f 1411 1412 1413
v 691.3074 -1302.8173 399.8602
v 688.7498 -1301.1443 399.8608
v 692.1979 -1301.4926 399.8604
f 1414 1415 1416
v 688.7498 -1301.1443 399.8608
v 689.6624 -1299.7888 399.8610
v 692.1979 -1301.4926 399.8604
f 1417 1418 1419
v 688.0701 -1302.1556 399.8607
v 688.7498 -1301.1443 399.8608
v 690.6277 -1303.8274 399.8601
f 1420 1421 1422
v 688.7506 -1301.1456 406.5365
v 690.6282 -1303.8282 404.4499
v 691.3082 -1302.8184 406.5359
f 1423 1424 1425
v 690.6282 -1303.8282 404.4499
v 688.7506 -1301.1456 406.5365
v 688.0707 -1302.1564 404.4505
f 1426 1427 1428
v 688.7506 -1301.1456 406.5365
v 692.1986 -1301.4936 405.0942
v 689.6631 -1299.7898 405.0608
f 1429 1430 1431
v 691.3082 -1302.8184 406.5359
v 692.1986 -1301.4936 405.0942
v 688.7506 -1301.1456 406.5365
f 1432 1433 1434
v 690.6277 -1303.8274 399.8601
v 690.6282 -1303.8282 404.4499
v 688.0707 -1302.1564 404.4505
f 1435 1436 1437
v 689.6624 -1299.7888 399.8610
v 689.6628 -1299.7893 402.4439
v 692.1979 -1301.4926 399.8604
f 1438 1439 1440
v 689.6631 -1299.7898 405.0608
v 692.1986 -1301.4936 405.0942
v 692.1983 -1301.4932 403.1313
f 1441 1442 1443
v 692.1983 -1301.4932 403.1313
v 692.1979 -1301.4926 399.8604
v 689.6631 -1299.7898 405.0608
f 1444 1445 1446
v 688.0707 -1302.1564 404.4505
v 689.6628 -1299.7893 402.4439
v 688.7498 -1301.1443 399.8608
f 1447 1448 1449
v 688.7498 -1301.1443 399.8608
v 689.6628 -1299.7893 402.4439
v 689.6624 -1299.7888 399.8610
f 1450 1451 1452
v 688.0707 -1302.1564 404.4505
v 688.7498 -1301.1443 399.8608
v 688.0701 -1302.1556 399.8607
f 1453 1454 1455
v 689.6631 -1299.7898 405.0608
v 688.0707 -1302.1564 404.4505
v 688.7506 -1301.1456 406.5365
f 1456 1457 1458
v 689.6628 -1299.7893 402.4439
v 688.0707 -1302.1564 404.4505
v 689.6631 -1299.7898 405.0608
f 1459 1460 1461
v 692.1986 -1301.4936 405.0942
v 691.3082 -1302.8184 406.5359
v 690.6282 -1303.8282 404.4499
f 1462 1463 1464
v 690.6282 -1303.8282 404.4499
v 692.1983 -1301.4932 403.1313
v 692.1986 -1301.4936 405.0942
f 1465 1466 1467
v 692.1983 -1301.4932 403.1313
v 690.6277 -1303.8274 399.8601
v 691.3074 -1302.8173 399.8602
f 1468 1469 1470
v 691.3074 -1302.8173 399.8602
v 692.1979 -1301.4926 399.8604
v 692.1983 -1301.4932 403.1313
f 1471 1472 1473
v 690.6282 -1303.8282 404.4499
v 690.6277 -1303.8274 399.8601
v 692.1983 -1301.4932 403.1313
f 1474 1475 1476
v 690.6277 -1303.8274 399.8601
v 688.0707 -1302.1564 404.4505
v 688.0701 -1302.1556 399.8607
f 1477 1478 1479
v 689.6628 -1299.7893 402.4439
v 689.6631 -1299.7898 405.0608
v 692.1979 -1301.4926 399.8604
f 1480 1481 1482
