# Grid Center: 2616000, 1265000
# Global Anchor: 7.64977475454284, 47.53283995868075, 0.0

g building_ID_0381BCA8-5125-4FC2-BA5A-74F4DAFD2F0B
v 293.3826 332.8438 272.0089
v 311.9951 322.3171 272.0084
v 309.4823 317.8789 272.0088
f 1 2 3
v 309.4823 317.8789 272.0088
v 290.8698 328.4056 272.0092
v 293.3826 332.8438 272.0089
f 4 5 6
v 290.8701 328.4062 279.0159
v 309.4827 317.8794 279.0156
v 311.9956 322.3176 279.0152
f 7 8 9
v 311.9956 322.3176 279.0152
v 293.3830 332.8444 279.0156
v 290.8701 328.4062 279.0159
f 10 11 12
v 293.3826 332.8438 272.0089
v 293.3830 332.8444 279.0156
v 311.9956 322.3176 279.0152
f 13 14 15
v 290.8698 328.4056 272.0092
v 290.8701 328.4062 279.0159
v 293.3830 332.8444 279.0156
f 16 17 18
v 309.4823 317.8789 272.0088
v 309.4827 317.8794 279.0156
v 290.8701 328.4062 279.0159
f 19 20 21
v 311.9951 322.3171 272.0084
v 311.9956 322.3176 279.0152
v 309.4827 317.8794 279.0156
f 22 23 24
v 293.3826 332.8438 272.0089
v 311.9956 322.3176 279.0152
v 311.9951 322.3171 272.0084
f 25 26 27
v 290.8698 328.4056 272.0092
v 293.3830 332.8444 279.0156
v 293.3826 332.8438 272.0089
f 28 29 30
v 309.4823 317.8789 272.0088
v 290.8701 328.4062 279.0159
v 290.8698 328.4056 272.0092
f 31 32 33
v 311.9951 322.3171 272.0084
v 309.4827 317.8794 279.0156
v 309.4823 317.8789 272.0088
f 34 35 36

g building_ID_4BEFD247-9AF3-4127-A223-C5D9E13F5939
v -67.0846 193.3312 276.4079
v -98.1747 198.0176 276.4074
v -94.8184 205.6034 276.4072
f 37 38 39
v -98.1747 198.0176 276.4074
v -67.0846 193.3312 276.4079
v -70.4440 185.7413 276.4080
f 40 41 42
v -94.8184 205.6039 283.4419
v -70.4440 185.7417 283.4428
v -67.0846 193.3316 283.4426
f 43 44 45
v -70.4440 185.7417 283.4428
v -94.8184 205.6039 283.4419
v -98.1747 198.0179 283.4421
f 46 47 48
v -94.8184 205.6034 276.4072
v -94.8184 205.6039 283.4419
v -67.0846 193.3316 283.4426
f 49 50 51
v -98.1747 198.0176 276.4074
v -98.1747 198.0179 283.4421
v -94.8184 205.6039 283.4419
f 52 53 54
v -70.4440 185.7413 276.4080
v -70.4440 185.7417 283.4428
v -98.1747 198.0179 283.4421
f 55 56 57
v -67.0846 193.3312 276.4079
v -67.0846 193.3316 283.4426
v -70.4440 185.7417 283.4428
f 58 59 60
v -94.8184 205.6034 276.4072
v -67.0846 193.3316 283.4426
v -67.0846 193.3312 276.4079
f 61 62 63
v -98.1747 198.0176 276.4074
v -94.8184 205.6039 283.4419
v -94.8184 205.6034 276.4072
f 64 65 66
v -70.4440 185.7413 276.4080
v -98.1747 198.0179 283.4421
v -98.1747 198.0176 276.4074
f 67 68 69
v -67.0846 193.3312 276.4079
v -70.4440 185.7417 283.4428
v -70.4440 185.7413 276.4080
f 70 71 72
