# Grid Center: 2616800, 1263600
# Global Anchor: 7.64977475454284, 47.53283995868075, 0.0

g building_ID_0B231FD1-0985-49B6-A5D0-6E9A5F10A238
v 738.2426 -1270.4002 390.9218
v 734.4178 -1269.9229 390.9223
v 734.9136 -1268.8552 390.9225
f 1 2 3
v 738.2426 -1270.4002 390.9218
v 733.6413 -1271.5969 390.9221
v 734.4178 -1269.9229 390.9223
f 4 5 6
v 736.9702 -1273.1408 390.9214
v 733.6413 -1271.5969 390.9221
v 737.7085 -1271.5497 390.9216
f 7 8 9
v 738.2426 -1270.4002 390.9218
v 737.7085 -1271.5497 390.9216
v 733.6413 -1271.5969 390.9221
f 10 11 12
v 736.9709 -1273.1417 396.3682
v 734.4187 -1269.9241 397.7681
v 733.6419 -1271.5977 396.2969
f 13 14 15
v 734.4187 -1269.9241 397.7681
v 736.9709 -1273.1417 396.3682
v 737.7093 -1271.5509 397.7674
f 16 17 18
v 734.4187 -1269.9241 397.7681
v 738.2432 -1270.4012 396.6466
v 734.9144 -1268.8562 396.7263
f 19 20 21
v 737.7093 -1271.5509 397.7674
v 738.2432 -1270.4012 396.6466
v 734.4187 -1269.9241 397.7681
f 22 23 24
v 733.6413 -1271.5969 390.9221
v 736.9702 -1273.1408 390.9214
v 736.9703 -1273.1410 392.2834
f 25 26 27
v 736.9703 -1273.1410 392.2834
v 736.9709 -1273.1417 396.3682
v 733.6413 -1271.5969 390.9221
f 28 29 30
v 733.6419 -1271.5977 396.2969
v 733.6415 -1271.5970 392.2111
v 736.9709 -1273.1417 396.3682
f 31 32 33
v 733.6415 -1271.5970 392.2111
v 733.6413 -1271.5969 390.9221
v 736.9709 -1273.1417 396.3682
f 34 35 36
v 734.9136 -1268.8552 390.9225
v 734.9138 -1268.8555 392.3735
v 738.2426 -1270.4002 390.9218
f 37 38 39
v 734.9144 -1268.8562 396.7263
v 738.2426 -1270.4002 390.9218
v 734.9138 -1268.8555 392.3735
f 40 41 42
v 734.9144 -1268.8562 396.7263
v 738.2427 -1270.4004 392.2928
v 738.2426 -1270.4002 390.9218
f 43 44 45
v 733.6415 -1271.5970 392.2111
v 734.9138 -1268.8555 392.3735
v 734.4178 -1269.9229 390.9223
f 46 47 48
v 734.9138 -1268.8555 392.3735
v 733.6415 -1271.5970 392.2111
v 733.6419 -1271.5977 396.2969
f 49 50 51
v 733.6413 -1271.5969 390.9221
v 733.6415 -1271.5970 392.2111
v 734.4178 -1269.9229 390.9223
f 52 53 54
v 734.9138 -1268.8555 392.3735
v 734.9136 -1268.8552 390.9225
v 734.4178 -1269.9229 390.9223
f 55 56 57
v 734.9144 -1268.8562 396.7263
v 733.6419 -1271.5977 396.2969
v 734.4187 -1269.9241 397.7681
f 58 59 60
v 733.6419 -1271.5977 396.2969
v 734.9144 -1268.8562 396.7263
v 734.9138 -1268.8555 392.3735
f 61 62 63
v 736.9709 -1273.1417 396.3682
v 738.2432 -1270.4012 396.6466
v 737.7093 -1271.5509 397.7674
f 64 65 66
v 738.2427 -1270.4004 392.2928
v 738.2432 -1270.4012 396.6466
v 736.9709 -1273.1417 396.3682
f 67 68 69
v 737.7085 -1271.5497 390.9216
v 738.2427 -1270.4004 392.2928
v 736.9703 -1273.1410 392.2834
f 70 71 72
v 738.2427 -1270.4004 392.2928
v 737.7085 -1271.5497 390.9216
v 738.2426 -1270.4002 390.9218
f 73 74 75
v 736.9702 -1273.1408 390.9214
v 737.7085 -1271.5497 390.9216
v 736.9703 -1273.1410 392.2834
f 76 77 78
v 736.9709 -1273.1417 396.3682
v 736.9703 -1273.1410 392.2834
v 738.2427 -1270.4004 392.2928
f 79 80 81
v 734.9144 -1268.8562 396.7263
v 738.2432 -1270.4012 396.6466
v 738.2427 -1270.4004 392.2928
f 82 83 84

g building_ID_156F034D-88EE-40AC-943F-4914B3D9DBFF
v 737.3868 -1267.2938 390.3556
v 740.0600 -1267.5769 390.3552
v 739.2152 -1269.3737 390.3550
f 85 86 87
v 740.0600 -1267.5769 390.3552
v 737.3868 -1267.2938 390.3556
v 737.7357 -1266.5787 390.3557
f 88 89 90
v 736.8820 -1268.3264 390.3555
v 737.3868 -1267.2938 390.3556
v 739.2152 -1269.3737 390.3550
f 91 92 93
v 739.7058 -1268.3330 396.7248
v 740.0607 -1267.5779 396.1849
v 738.8991 -1267.0788 396.1982
f 94 95 96
v 737.3876 -1267.2948 396.7253
v 738.8991 -1267.0788 396.1982
v 737.7364 -1266.5797 396.2114
f 97 98 99
v 739.7058 -1268.3330 396.7248
v 738.8991 -1267.0788 396.1982
v 737.3876 -1267.2948 396.7253
f 100 101 102
v 739.2159 -1269.3746 395.8238
v 737.3876 -1267.2948 396.7253
v 736.8827 -1268.3273 395.8243
f 103 104 105
v 737.3876 -1267.2948 396.7253
v 739.2159 -1269.3746 395.8238
v 739.7058 -1268.3330 396.7248
f 106 107 108
v 738.8991 -1267.0788 396.1982
v 740.0607 -1267.5779 396.1849
v 737.7359 -1266.5790 391.8196
f 109 110 111
v 740.0600 -1267.5769 390.3552
v 737.7357 -1266.5787 390.3557
v 740.0607 -1267.5779 396.1849
f 112 113 114
v 737.7359 -1266.5790 391.8196
v 740.0607 -1267.5779 396.1849
v 737.7357 -1266.5787 390.3557
f 115 116 117
v 739.2152 -1269.3737 390.3550
v 739.2159 -1269.3746 395.8238
v 736.8827 -1268.3273 395.8243
f 118 119 120
v 736.8827 -1268.3273 395.8243
v 737.3876 -1267.2948 396.7253
v 737.7364 -1266.5797 396.2114
f 121 122 123
v 736.8820 -1268.3264 390.3555
v 736.8827 -1268.3273 395.8243
v 737.7359 -1266.5790 391.8196
f 124 125 126
v 737.7364 -1266.5797 396.2114
v 737.7359 -1266.5790 391.8196
v 736.8827 -1268.3273 395.8243
f 127 128 129
v 737.7359 -1266.5790 391.8196
v 737.3868 -1267.2938 390.3556
v 736.8820 -1268.3264 390.3555
f 130 131 132
v 737.7359 -1266.5790 391.8196
v 737.7357 -1266.5787 390.3557
v 737.3868 -1267.2938 390.3556
f 133 134 135
v 739.2152 -1269.3737 390.3550
v 740.0600 -1267.5769 390.3552
v 740.0607 -1267.5779 396.1849
f 136 137 138
v 739.2159 -1269.3746 395.8238
v 740.0607 -1267.5779 396.1849
v 739.7058 -1268.3330 396.7248
f 139 140 141
v 739.2152 -1269.3737 390.3550
v 740.0607 -1267.5779 396.1849
v 739.2159 -1269.3746 395.8238
f 142 143 144
v 738.8991 -1267.0788 396.1982
v 737.7359 -1266.5790 391.8196
v 737.7364 -1266.5797 396.2114
f 145 146 147
v 739.2152 -1269.3737 390.3550
v 736.8827 -1268.3273 395.8243
v 736.8820 -1268.3264 390.3555
f 148 149 150

g building_ID_167C263A-F262-4605-9400-DF82A94179D2
v 1069.3535 -992.4390 282.9255
v 1079.8176 -992.3510 282.9238
v 1078.9739 -995.2328 282.9235
f 151 152 153
v 1079.8176 -992.3510 282.9238
v 1069.3535 -992.4390 282.9255
v 1070.2112 -989.5494 282.9258
f 154 155 156
v 1069.3545 -992.4398 288.3213
v 1078.9749 -995.2335 288.3193
v 1079.8186 -992.3518 288.3196
f 157 158 159
v 1079.8186 -992.3518 288.3196
v 1070.2122 -989.5501 288.3216
v 1069.3545 -992.4398 288.3213
f 160 161 162
v 1070.2112 -989.5494 282.9258
v 1070.2122 -989.5501 288.3216
v 1079.8186 -992.3518 288.3196
f 163 164 165
v 1069.3535 -992.4390 282.9255
v 1069.3545 -992.4398 288.3213
v 1070.2122 -989.5501 288.3216
f 166 167 168
v 1078.9739 -995.2328 282.9235
v 1078.9749 -995.2335 288.3193
v 1069.3545 -992.4398 288.3213
f 169 170 171
v 1079.8176 -992.3510 282.9238
v 1079.8186 -992.3518 288.3196
v 1078.9749 -995.2335 288.3193
f 172 173 174
v 1070.2112 -989.5494 282.9258
v 1079.8186 -992.3518 288.3196
v 1079.8176 -992.3510 282.9238
f 175 176 177
v 1069.3535 -992.4390 282.9255
v 1070.2122 -989.5501 288.3216
v 1070.2112 -989.5494 282.9258
f 178 179 180
v 1078.9739 -995.2328 282.9235
v 1069.3545 -992.4398 288.3213
v 1069.3535 -992.4390 282.9255
f 181 182 183
v 1079.8176 -992.3510 282.9238
v 1078.9749 -995.2335 288.3193
v 1078.9739 -995.2328 282.9235
f 184 185 186

g building_ID_E9121B91-1878-4A09-B5E0-6E597B93F8FD
v 1028.8368 -1011.0731 282.0133
v 1031.7420 -1002.3910 282.0142
v 1037.9104 -1004.4565 282.0129
f 187 188 189
v 1037.9104 -1004.4565 282.0129
v 1034.8074 -1013.0722 282.0121
v 1028.8368 -1011.0731 282.0133
f 190 191 192
v 1030.2884 -1006.7389 287.7826
v 1036.5270 -1003.9939 289.4639
v 1031.7430 -1002.3918 287.7470
f 193 194 195
v 1033.4239 -1012.6094 289.4631
v 1030.2884 -1006.7389 287.7826
v 1028.8378 -1011.0739 287.8171
f 196 197 198
v 1036.5270 -1003.9939 289.4639
v 1030.2884 -1006.7389 287.7826
v 1033.4239 -1012.6094 289.4631
f 199 200 201
v 1034.8086 -1013.0731 289.0828
v 1037.9117 -1004.4575 289.0836
v 1036.5270 -1003.9939 289.4639
f 202 203 204
v 1036.5270 -1003.9939 289.4639
v 1033.4239 -1012.6094 289.4631
v 1034.8086 -1013.0731 289.0828
f 205 206 207
v 1030.2884 -1006.7389 287.7826
v 1028.8368 -1011.0731 282.0133
v 1028.8373 -1011.0737 285.2781
f 208 209 210
v 1028.8368 -1011.0731 282.0133
v 1030.2884 -1006.7389 287.7826
v 1031.7430 -1002.3918 287.7470
f 211 212 213
v 1031.7420 -1002.3910 282.0142
v 1028.8368 -1011.0731 282.0133
v 1031.7430 -1002.3918 287.7470
f 214 215 216
v 1037.9104 -1004.4565 282.0129
v 1037.9117 -1004.4575 289.0836
v 1034.8086 -1013.0731 289.0828
f 217 218 219
v 1028.8373 -1011.0737 285.2781
v 1034.8074 -1013.0722 282.0121
v 1034.8086 -1013.0731 289.0828
f 220 221 222
v 1028.8373 -1011.0737 285.2781
v 1034.8086 -1013.0731 289.0828
v 1033.4239 -1012.6094 289.4631
f 223 224 225
v 1034.8074 -1013.0722 282.0121
v 1028.8373 -1011.0737 285.2781
v 1028.8368 -1011.0731 282.0133
f 226 227 228
v 1028.8378 -1011.0739 287.8171
v 1028.8373 -1011.0737 285.2781
v 1033.4239 -1012.6094 289.4631
f 229 230 231
v 1031.7420 -1002.3910 282.0142
v 1036.5270 -1003.9939 289.4639
v 1037.9104 -1004.4565 282.0129
f 232 233 234
v 1036.5270 -1003.9939 289.4639
v 1037.9117 -1004.4575 289.0836
v 1037.9104 -1004.4565 282.0129
f 235 236 237
v 1031.7430 -1002.3918 287.7470
v 1036.5270 -1003.9939 289.4639
v 1031.7420 -1002.3910 282.0142
f 238 239 240
v 1028.8373 -1011.0737 285.2781
v 1028.8378 -1011.0739 287.8171
v 1030.2884 -1006.7389 287.7826
f 241 242 243
v 1037.9104 -1004.4565 282.0129
v 1034.8086 -1013.0731 289.0828
v 1034.8074 -1013.0722 282.0121
f 244 245 246

g building_ID_E612050D-025E-407E-B290-E692C5CB56F6
v 1055.7455 -988.7036 282.4305
v 1045.1584 -980.1873 282.4335
v 1057.1677 -983.4204 282.4310
f 247 248 249
v 1043.7213 -985.4663 282.4329
v 1045.1584 -980.1873 282.4335
v 1055.7455 -988.7036 282.4305
f 250 251 252
v 1055.7466 -988.7043 288.6882
v 1057.1686 -983.4212 287.8598
v 1043.7224 -985.4672 288.6906
f 253 254 255
v 1043.7224 -985.4672 288.6906
v 1057.1686 -983.4212 287.8598
v 1045.1594 -980.1880 287.8623
f 256 257 258
v 1043.7213 -985.4663 282.4329
v 1043.7224 -985.4672 288.6906
v 1045.1584 -980.1873 282.4335
f 259 260 261
v 1055.7455 -988.7036 282.4305
v 1055.7466 -988.7043 288.6882
v 1043.7213 -985.4663 282.4329
f 262 263 264
v 1043.7224 -985.4672 288.6906
v 1043.7213 -985.4663 282.4329
v 1055.7466 -988.7043 288.6882
f 265 266 267
v 1057.1677 -983.4204 282.4310
v 1057.1686 -983.4212 287.8598
v 1055.7455 -988.7036 282.4305
f 268 269 270
v 1057.1686 -983.4212 287.8598
v 1045.1584 -980.1873 282.4335
v 1045.1594 -980.1880 287.8623
f 271 272 273
v 1057.1686 -983.4212 287.8598
v 1057.1677 -983.4204 282.4310
v 1045.1584 -980.1873 282.4335
f 274 275 276
v 1043.7224 -985.4672 288.6906
v 1045.1594 -980.1880 287.8623
v 1045.1584 -980.1873 282.4335
f 277 278 279
v 1057.1686 -983.4212 287.8598
v 1055.7466 -988.7043 288.6882
v 1055.7455 -988.7036 282.4305
f 280 281 282

g building_ID_7225E091-8DC6-4A59-ABB6-E8205611FD71
v 708.8573 -919.4636 281.7221
v 707.3773 -918.6947 281.7224
v 713.5383 -906.7653 281.7234
f 283 284 285
v 724.9503 -912.6918 281.7213
v 708.8573 -919.4636 281.7221
v 713.5383 -906.7653 281.7234
f 286 287 288
v 708.8362 -919.5036 281.7221
v 708.8573 -919.4636 281.7221
v 718.7373 -924.6561 281.7203
f 289 290 291
v 724.9503 -912.6918 281.7213
v 718.7373 -924.6561 281.7203
v 708.8573 -919.4636 281.7221
f 292 293 294
v 708.8384 -919.5058 299.9855
v 718.7395 -924.6583 299.9836
v 708.8596 -919.4659 299.9855
f 295 296 297
v 724.9526 -912.6940 299.9847
v 708.8596 -919.4659 299.9855
v 718.7395 -924.6583 299.9836
f 298 299 300
v 707.3796 -918.6969 299.9858
v 708.8596 -919.4659 299.9855
v 713.5405 -906.7675 299.9868
f 301 302 303
v 724.9526 -912.6940 299.9847
v 713.5405 -906.7675 299.9868
v 708.8596 -919.4659 299.9855
f 304 305 306
v 707.3773 -918.6947 281.7224
v 707.3796 -918.6969 299.9858
v 713.5405 -906.7675 299.9868
f 307 308 309
v 708.8573 -919.4636 281.7221
v 708.8596 -919.4659 299.9855
v 707.3796 -918.6969 299.9858
f 310 311 312
v 708.8362 -919.5036 281.7221
v 708.8384 -919.5058 299.9855
v 708.8596 -919.4659 299.9855
f 313 314 315
v 718.7373 -924.6561 281.7203
v 718.7395 -924.6583 299.9836
v 708.8384 -919.5058 299.9855
f 316 317 318
v 724.9503 -912.6918 281.7213
v 724.9526 -912.6940 299.9847
v 718.7395 -924.6583 299.9836
f 319 320 321
v 713.5383 -906.7653 281.7234
v 713.5405 -906.7675 299.9868
v 724.9526 -912.6940 299.9847
f 322 323 324
v 707.3773 -918.6947 281.7224
v 713.5405 -906.7675 299.9868
v 713.5383 -906.7653 281.7234
f 325 326 327
v 708.8573 -919.4636 281.7221
v 707.3796 -918.6969 299.9858
v 707.3773 -918.6947 281.7224
f 328 329 330
v 708.8362 -919.5036 281.7221
v 708.8596 -919.4659 299.9855
v 708.8573 -919.4636 281.7221
f 331 332 333
v 718.7373 -924.6561 281.7203
v 708.8384 -919.5058 299.9855
v 708.8362 -919.5036 281.7221
f 334 335 336
v 724.9503 -912.6918 281.7213
v 718.7395 -924.6583 299.9836
v 718.7373 -924.6561 281.7203
f 337 338 339
v 713.5383 -906.7653 281.7234
v 724.9526 -912.6940 299.9847
v 724.9503 -912.6918 281.7213
f 340 341 342

g building_ID_7315819B-93EB-4591-AFA7-1E70A841C0CA
v 698.0499 -944.2574 281.7197
v 715.6878 -938.2887 281.7186
v 709.4507 -950.2979 281.7175
f 343 344 345
v 696.3680 -943.5169 281.7200
v 698.0499 -944.2574 281.7197
v 709.4507 -950.2979 281.7175
f 346 347 348
v 704.2159 -932.3180 281.7208
v 715.6878 -938.2887 281.7186
v 698.0499 -944.2574 281.7197
f 349 350 351
v 696.3680 -943.5169 281.7200
v 696.4253 -943.4071 281.7200
v 698.0499 -944.2574 281.7197
f 352 353 354
v 696.3705 -943.5195 302.8262
v 698.0525 -944.2600 302.8259
v 696.4278 -943.4096 302.8262
f 355 356 357
v 715.6904 -938.2913 302.8248
v 698.0525 -944.2600 302.8259
v 709.4532 -950.3005 302.8237
f 358 359 360
v 696.3705 -943.5195 302.8262
v 709.4532 -950.3005 302.8237
v 698.0525 -944.2600 302.8259
f 361 362 363
v 704.2184 -932.3206 302.8270
v 698.0525 -944.2600 302.8259
v 715.6904 -938.2913 302.8248
f 364 365 366
v 698.0499 -944.2574 281.7197
v 698.0525 -944.2600 302.8259
v 704.2184 -932.3206 302.8270
f 367 368 369
v 696.4253 -943.4071 281.7200
v 696.4278 -943.4096 302.8262
v 698.0525 -944.2600 302.8259
f 370 371 372
v 696.3680 -943.5169 281.7200
v 696.3705 -943.5195 302.8262
v 696.4278 -943.4096 302.8262
f 373 374 375
v 709.4507 -950.2979 281.7175
v 709.4532 -950.3005 302.8237
v 696.3705 -943.5195 302.8262
f 376 377 378
v 715.6878 -938.2887 281.7186
v 715.6904 -938.2913 302.8248
v 709.4532 -950.3005 302.8237
f 379 380 381
v 704.2159 -932.3180 281.7208
v 704.2184 -932.3206 302.8270
v 715.6904 -938.2913 302.8248
f 382 383 384
v 698.0499 -944.2574 281.7197
v 704.2184 -932.3206 302.8270
v 704.2159 -932.3180 281.7208
f 385 386 387
v 696.4253 -943.4071 281.7200
v 698.0525 -944.2600 302.8259
v 698.0499 -944.2574 281.7197
f 388 389 390
v 696.3680 -943.5169 281.7200
v 696.4278 -943.4096 302.8262
v 696.4253 -943.4071 281.7200
f 391 392 393
v 709.4507 -950.2979 281.7175
v 696.3705 -943.5195 302.8262
v 696.3680 -943.5169 281.7200
f 394 395 396
v 715.6878 -938.2887 281.7186
v 709.4532 -950.3005 302.8237
v 709.4507 -950.2979 281.7175
f 397 398 399
v 704.2159 -932.3180 281.7208
v 715.6904 -938.2913 302.8248
v 715.6878 -938.2887 281.7186
f 400 401 402

g building_ID_FFE01EBC-B036-43CF-B7CF-09F69E94D2EA
v 718.7373 -924.6561 281.7203
v 718.7624 -924.6082 281.7203
v 721.9360 -926.2556 281.7197
f 403 404 405
v 710.3276 -920.4785 281.7218
v 708.8372 -919.5036 281.7221
v 718.7373 -924.6561 281.7203
f 406 407 408
v 718.7373 -924.6561 281.7203
v 721.9360 -926.2556 281.7197
v 721.9098 -926.3066 281.7197
f 409 410 411
v 715.6878 -938.2887 281.7186
v 704.2159 -932.3180 281.7208
v 718.7373 -924.6561 281.7203
f 412 413 414
v 710.3276 -920.4785 281.7218
v 708.7568 -919.6574 281.7221
v 708.8372 -919.5036 281.7221
f 415 416 417
v 704.2159 -932.3180 281.7208
v 710.3276 -920.4785 281.7218
v 718.7373 -924.6561 281.7203
f 418 419 420
v 715.6878 -938.2887 281.7186
v 718.7373 -924.6561 281.7203
v 721.9098 -926.3066 281.7197
f 421 422 423
v 718.7399 -924.6586 302.8265
v 710.3302 -920.4811 302.8280
v 704.2184 -932.3206 302.8270
f 424 425 426
v 708.8398 -919.5061 302.8284
v 708.7594 -919.6599 302.8284
v 710.3302 -920.4811 302.8280
f 427 428 429
v 718.7399 -924.6586 302.8265
v 704.2184 -932.3206 302.8270
v 715.6904 -938.2913 302.8248
f 430 431 432
v 718.7399 -924.6586 302.8265
v 721.9124 -926.3091 302.8259
v 721.9386 -926.2582 302.8259
f 433 434 435
v 718.7399 -924.6586 302.8265
v 708.8398 -919.5061 302.8284
v 710.3302 -920.4811 302.8280
f 436 437 438
v 721.9386 -926.2582 302.8259
v 718.7650 -924.6107 302.8265
v 718.7399 -924.6586 302.8265
f 439 440 441
v 715.6904 -938.2913 302.8248
v 721.9124 -926.3091 302.8259
v 718.7399 -924.6586 302.8265
f 442 443 444
v 710.3276 -920.4785 281.7218
v 710.3302 -920.4811 302.8280
v 708.7594 -919.6599 302.8284
f 445 446 447
v 704.2159 -932.3180 281.7208
v 704.2184 -932.3206 302.8270
v 710.3302 -920.4811 302.8280
f 448 449 450
v 715.6878 -938.2887 281.7186
v 715.6904 -938.2913 302.8248
v 704.2184 -932.3206 302.8270
f 451 452 453
v 718.7624 -924.6082 281.7203
v 718.7650 -924.6107 302.8265
v 721.9386 -926.2582 302.8259
f 454 455 456
v 718.7373 -924.6561 281.7203
v 718.7399 -924.6586 302.8265
v 718.7650 -924.6107 302.8265
f 457 458 459
v 708.8372 -919.5036 281.7221
v 708.8398 -919.5061 302.8284
v 718.7399 -924.6586 302.8265
f 460 461 462
v 708.7568 -919.6574 281.7221
v 708.7594 -919.6599 302.8284
v 708.8398 -919.5061 302.8284
f 463 464 465
v 721.9386 -926.2582 302.8259
v 721.9124 -926.3091 302.8259
v 721.9098 -926.3066 281.7197
f 466 467 468
v 715.6878 -938.2887 281.7186
v 721.9098 -926.3066 281.7197
v 721.9124 -926.3091 302.8259
f 469 470 471
v 710.3276 -920.4785 281.7218
v 708.7594 -919.6599 302.8284
v 708.7568 -919.6574 281.7221
f 472 473 474
v 704.2159 -932.3180 281.7208
v 710.3302 -920.4811 302.8280
v 710.3276 -920.4785 281.7218
f 475 476 477
v 715.6878 -938.2887 281.7186
v 704.2184 -932.3206 302.8270
v 704.2159 -932.3180 281.7208
f 478 479 480
v 718.7624 -924.6082 281.7203
v 721.9386 -926.2582 302.8259
v 721.9360 -926.2556 281.7197
f 481 482 483
v 718.7373 -924.6561 281.7203
v 718.7650 -924.6107 302.8265
v 718.7624 -924.6082 281.7203
f 484 485 486
v 708.8372 -919.5036 281.7221
v 718.7399 -924.6586 302.8265
v 718.7373 -924.6561 281.7203
f 487 488 489
v 708.7568 -919.6574 281.7221
v 708.8398 -919.5061 302.8284
v 708.8372 -919.5036 281.7221
f 490 491 492
v 721.9386 -926.2582 302.8259
v 721.9098 -926.3066 281.7197
v 721.9360 -926.2556 281.7197
f 493 494 495
v 715.6878 -938.2887 281.7186
v 721.9124 -926.3091 302.8259
v 715.6904 -938.2913 302.8248
f 496 497 498

g building_ID_D2CE7C39-7AB9-4303-9452-B7E3039B6AD7
v 696.3066 -943.6358 281.7200
v 696.3680 -943.5169 281.7200
v 707.7790 -949.4314 281.7179
f 499 500 501
v 707.7207 -949.5453 281.7178
v 696.3066 -943.6358 281.7200
v 707.7790 -949.4314 281.7179
f 502 503 504
v 689.8868 -955.5445 281.7189
v 696.3066 -943.6358 281.7200
v 701.4775 -961.5675 281.7167
f 505 506 507
v 707.7207 -949.5453 281.7178
v 701.4775 -961.5675 281.7167
v 696.3066 -943.6358 281.7200
f 508 509 510
v 696.3066 -943.6358 281.7200
v 689.8868 -955.5445 281.7189
v 696.1579 -943.5583 281.7200
f 511 512 513
v 689.8887 -955.5464 297.3273
v 696.3086 -943.6377 297.3284
v 696.1597 -943.5603 297.3284
f 514 515 516
v 707.7226 -949.5473 297.3262
v 696.3086 -943.6377 297.3284
v 701.4795 -961.5694 297.3251
f 517 518 519
v 689.8887 -955.5464 297.3273
v 701.4795 -961.5694 297.3251
v 696.3086 -943.6377 297.3284
f 520 521 522
v 696.3086 -943.6377 297.3284
v 707.7226 -949.5473 297.3262
v 707.7809 -949.4334 297.3263
f 523 524 525
v 696.3698 -943.5188 297.3284
v 696.3086 -943.6377 297.3284
v 707.7809 -949.4334 297.3263
f 526 527 528
v 689.8868 -955.5445 281.7189
v 689.8887 -955.5464 297.3273
v 696.1597 -943.5603 297.3284
f 529 530 531
v 701.4775 -961.5675 281.7167
v 701.4795 -961.5694 297.3251
v 689.8887 -955.5464 297.3273
f 532 533 534
v 696.3680 -943.5169 281.7200
v 696.3698 -943.5188 297.3284
v 707.7809 -949.4334 297.3263
f 535 536 537
v 696.3066 -943.6358 281.7200
v 696.3086 -943.6377 297.3284
v 696.3698 -943.5188 297.3284
f 538 539 540
v 696.1579 -943.5583 281.7200
v 696.1597 -943.5603 297.3284
v 696.3086 -943.6377 297.3284
f 541 542 543
v 707.7809 -949.4334 297.3263
v 707.7226 -949.5473 297.3262
v 707.7207 -949.5453 281.7178
f 544 545 546
v 701.4775 -961.5675 281.7167
v 707.7207 -949.5453 281.7178
v 707.7226 -949.5473 297.3262
f 547 548 549
v 689.8868 -955.5445 281.7189
v 696.1597 -943.5603 297.3284
v 696.1579 -943.5583 281.7200
f 550 551 552
v 701.4775 -961.5675 281.7167
v 689.8887 -955.5464 297.3273
v 689.8868 -955.5445 281.7189
f 553 554 555
v 696.3680 -943.5169 281.7200
v 707.7809 -949.4334 297.3263
v 707.7790 -949.4314 281.7179
f 556 557 558
v 696.3066 -943.6358 281.7200
v 696.3698 -943.5188 297.3284
v 696.3680 -943.5169 281.7200
f 559 560 561
v 696.1579 -943.5583 281.7200
v 696.3086 -943.6377 297.3284
v 696.3066 -943.6358 281.7200
f 562 563 564
v 707.7809 -949.4334 297.3263
v 707.7207 -949.5453 281.7178
v 707.7790 -949.4314 281.7179
f 565 566 567
v 701.4775 -961.5675 281.7167
v 707.7226 -949.5473 297.3262
v 701.4795 -961.5694 297.3251
f 568 569 570

g building_ID_13572743-3ADD-441D-AC35-BCE23C2CD4F4
v 824.3848 -953.9679 281.9521
v 822.9673 -953.0081 281.9524
v 827.2713 -946.6417 281.9528
f 571 572 573
v 831.5430 -958.6990 281.9504
v 824.3848 -953.9679 281.9521
v 835.8610 -952.3186 281.9508
f 574 575 576
v 827.2713 -946.6417 281.9528
v 835.8610 -952.3186 281.9508
v 824.3848 -953.9679 281.9521
f 577 578 579
v 824.3861 -953.9691 291.4487
v 831.5443 -958.7002 291.4471
v 835.8624 -952.3198 291.4475
f 580 581 582
v 822.9687 -953.0093 291.4490
v 824.3861 -953.9691 291.4487
v 827.2727 -946.6429 291.4494
f 583 584 585
v 835.8624 -952.3198 291.4475
v 827.2727 -946.6429 291.4494
v 824.3861 -953.9691 291.4487
f 586 587 588
v 822.9673 -953.0081 281.9524
v 822.9687 -953.0093 291.4490
v 827.2727 -946.6429 291.4494
f 589 590 591
v 824.3848 -953.9679 281.9521
v 824.3861 -953.9691 291.4487
v 822.9687 -953.0093 291.4490
f 592 593 594
v 831.5430 -958.6990 281.9504
v 831.5443 -958.7002 291.4471
v 824.3861 -953.9691 291.4487
f 595 596 597
v 835.8610 -952.3186 281.9508
v 835.8624 -952.3198 291.4475
v 831.5443 -958.7002 291.4471
f 598 599 600
v 827.2713 -946.6417 281.9528
v 827.2727 -946.6429 291.4494
v 835.8624 -952.3198 291.4475
f 601 602 603
v 822.9673 -953.0081 281.9524
v 827.2727 -946.6429 291.4494
v 827.2713 -946.6417 281.9528
f 604 605 606
v 824.3848 -953.9679 281.9521
v 822.9687 -953.0093 291.4490
v 822.9673 -953.0081 281.9524
f 607 608 609
v 831.5430 -958.6990 281.9504
v 824.3861 -953.9691 291.4487
v 824.3848 -953.9679 281.9521
f 610 611 612
v 835.8610 -952.3186 281.9508
v 831.5443 -958.7002 291.4471
v 831.5430 -958.6990 281.9504
f 613 614 615
v 827.2713 -946.6417 281.9528
v 835.8624 -952.3198 291.4475
v 835.8610 -952.3186 281.9508
f 616 617 618

g building_ID_50932D24-3CD5-4A09-AD6E-283E8EDA07E3
v 814.3823 -911.5312 287.7904
v 806.5204 -923.1000 287.7897
v 809.5592 -923.5441 287.7893
f 619 620 621
v 814.3823 -911.5312 287.7904
v 809.5592 -923.5441 287.7893
v 816.6672 -913.0843 287.7899
f 622 623 624
v 831.8325 -938.6798 287.7842
v 809.5592 -923.5441 287.7893
v 806.5204 -923.1000 287.7897
f 625 626 627
v 837.2306 -942.3491 287.7829
v 836.6573 -943.5806 287.7827
v 837.4112 -942.4716 287.7828
f 628 629 630
v 836.6573 -943.5806 287.7827
v 837.2306 -942.3491 287.7829
v 831.8325 -938.6798 287.7842
f 631 632 633
v 832.8264 -937.2164 287.7843
v 837.2306 -942.3491 287.7829
v 838.9734 -939.7838 287.7831
f 634 635 636
v 831.8325 -938.6798 287.7842
v 837.2306 -942.3491 287.7829
v 832.8264 -937.2164 287.7843
f 637 638 639
v 806.5204 -923.1000 287.7897
v 836.6573 -943.5806 287.7827
v 831.8325 -938.6798 287.7842
f 640 641 642
v 814.3813 -911.5303 280.2557
v 814.3823 -911.5312 287.7904
v 816.6672 -913.0843 287.7899
f 643 644 645
v 836.6562 -943.5797 280.2480
v 836.6573 -943.5806 287.7827
v 806.5204 -923.1000 287.7897
f 646 647 648
v 837.4102 -942.4707 280.2481
v 837.4112 -942.4716 287.7828
v 836.6573 -943.5806 287.7827
f 649 650 651
v 831.8332 -938.6803 292.8400
v 840.3969 -926.0783 292.8407
v 817.2368 -912.7354 292.8457
f 652 653 654
v 818.3251 -911.1304 292.8457
v 817.2368 -912.7354 292.8457
v 840.3969 -926.0783 292.8407
f 655 656 657
v 809.5600 -923.5447 292.8451
v 831.8332 -938.6803 292.8400
v 817.2368 -912.7354 292.8457
f 658 659 660
v 817.2368 -912.7354 292.8457
v 817.0102 -912.5819 292.8457
v 809.5600 -923.5447 292.8451
f 661 662 663
v 817.2350 -912.7339 280.2552
v 817.2368 -912.7354 292.8457
v 818.3251 -911.1304 292.8457
f 664 665 666
v 817.0085 -912.5803 280.2552
v 817.0102 -912.5819 292.8457
v 817.2368 -912.7354 292.8457
f 667 668 669
v 818.3234 -911.1289 280.2552
v 818.3251 -911.1304 292.8457
v 840.3969 -926.0783 292.8407
f 670 671 672
v 816.6672 -913.0843 287.7899
v 809.5592 -923.5441 287.7893
v 809.5600 -923.5447 292.8451
f 673 674 675
v 816.6661 -913.0835 280.2552
v 816.6672 -913.0843 287.7899
v 817.0085 -912.5803 280.2552
f 676 677 678
v 817.0102 -912.5819 292.8457
v 817.0085 -912.5803 280.2552
v 816.6672 -913.0843 287.7899
f 679 680 681
v 831.8325 -938.6798 287.7842
v 831.8332 -938.6803 292.8400
v 809.5592 -923.5441 287.7893
f 682 683 684
v 840.3951 -926.0768 280.2501
v 840.3969 -926.0783 292.8407
v 838.8823 -928.3067 288.2898
f 685 686 687
v 840.3969 -926.0783 292.8407
v 831.8332 -938.6803 292.8400
v 838.8823 -928.3067 288.2898
f 688 689 690
v 838.8823 -928.3067 288.2898
v 838.8812 -928.3058 280.2500
v 840.3951 -926.0768 280.2501
f 691 692 693
v 831.8325 -938.6798 287.7842
v 832.8264 -937.2165 288.2892
v 831.8332 -938.6803 292.8400
f 694 695 696
v 832.8264 -937.2165 288.2892
v 831.8325 -938.6798 287.7842
v 832.8264 -937.2164 287.7843
f 697 698 699
v 799.3955 -933.5839 288.4201
v 815.0029 -910.6180 288.4214
v 797.8393 -932.5388 288.4204
f 700 701 702
v 807.6573 -905.6253 288.4231
v 797.8393 -932.5388 288.4204
v 815.0029 -910.6180 288.4214
f 703 704 705
v 797.8222 -932.5647 288.4204
v 797.8393 -932.5388 288.4204
v 792.0478 -928.6463 288.4217
f 706 707 708
v 807.6573 -905.6253 288.4231
v 792.0478 -928.6463 288.4217
v 797.8393 -932.5388 288.4204
f 709 710 711
v 792.0467 -928.6453 280.2560
v 792.0478 -928.6463 288.4217
v 807.6573 -905.6253 288.4231
f 712 713 714
v 797.8211 -932.5637 280.2547
v 797.8222 -932.5647 288.4204
v 792.0478 -928.6463 288.4217
f 715 716 717
v 797.8382 -932.5378 280.2547
v 797.8393 -932.5388 288.4204
v 797.8222 -932.5647 288.4204
f 718 719 720
v 799.3944 -933.5830 280.2544
v 799.3955 -933.5839 288.4201
v 797.8393 -932.5388 288.4204
f 721 722 723
v 807.6562 -905.6243 280.2574
v 807.6573 -905.6253 288.4231
v 815.0029 -910.6180 288.4214
f 724 725 726
v 815.0018 -910.6170 280.2557
v 815.0029 -910.6180 288.4214
v 814.3823 -911.5312 287.7904
f 727 728 729
v 806.5204 -923.1000 287.7897
v 814.3823 -911.5312 287.7904
v 815.0029 -910.6180 288.4214
f 730 731 732
v 799.3944 -933.5830 280.2544
v 806.5204 -923.1000 287.7897
v 799.3955 -933.5839 288.4201
f 733 734 735
v 815.0029 -910.6180 288.4214
v 799.3955 -933.5839 288.4201
v 806.5204 -923.1000 287.7897
f 736 737 738
v 806.5204 -923.1000 287.7897
v 799.3944 -933.5830 280.2544
v 806.5194 -923.0992 280.2550
f 739 740 741
v 844.4572 -931.8952 292.8393
v 837.7399 -942.4741 292.8387
v 860.9857 -958.1884 292.8331
f 742 743 744
v 837.2313 -942.3498 292.8388
v 837.6375 -942.6259 292.8387
v 837.7399 -942.4741 292.8387
f 745 746 747
v 844.4572 -931.8952 292.8393
v 860.9857 -958.1884 292.8331
v 870.3997 -944.3336 292.8339
f 748 749 750
v 870.3997 -944.3336 292.8339
v 846.8387 -928.3756 292.8395
v 844.4572 -931.8952 292.8393
f 751 752 753
v 844.3734 -931.8390 292.8394
v 837.2313 -942.3498 292.8388
v 837.7399 -942.4741 292.8387
f 754 755 756
v 844.4572 -931.8952 292.8393
v 844.3734 -931.8390 292.8394
v 837.7399 -942.4741 292.8387
f 757 758 759
v 844.4554 -931.8937 280.2487
v 844.4572 -931.8952 292.8393
v 846.8387 -928.3756 292.8395
f 760 761 762
v 844.3716 -931.8375 280.2488
v 844.3734 -931.8390 292.8394
v 844.4554 -931.8937 280.2487
f 763 764 765
v 837.7381 -942.4726 280.2481
v 837.7399 -942.4741 292.8387
v 837.6375 -942.6259 292.8387
f 766 767 768
v 860.9838 -958.1867 280.2426
v 860.9857 -958.1884 292.8331
v 837.7399 -942.4741 292.8387
f 769 770 771
v 870.3978 -944.3321 280.2434
v 870.3997 -944.3336 292.8339
v 860.9857 -958.1884 292.8331
f 772 773 774
v 846.8369 -928.3741 280.2489
v 846.8387 -928.3756 292.8395
v 870.3997 -944.3336 292.8339
f 775 776 777
v 837.2306 -942.3491 287.7829
v 837.2313 -942.3498 292.8388
v 838.9736 -939.7839 288.2880
f 778 779 780
v 837.2313 -942.3498 292.8388
v 844.3734 -931.8390 292.8394
v 838.9736 -939.7839 288.2880
f 781 782 783
v 838.9736 -939.7839 288.2880
v 838.9734 -939.7838 287.7831
v 837.2306 -942.3491 287.7829
f 784 785 786
v 844.3716 -931.8375 280.2488
v 844.2794 -931.9752 288.2885
v 844.3734 -931.8390 292.8394
f 787 788 789
v 844.2794 -931.9752 288.2885
v 844.3716 -931.8375 280.2488
v 844.2782 -931.9743 280.2488
f 790 791 792
v 837.6357 -942.6243 280.2481
v 837.6375 -942.6259 292.8387
v 837.4112 -942.4716 287.7828
f 793 794 795
v 837.2313 -942.3498 292.8388
v 837.4112 -942.4716 287.7828
v 837.6375 -942.6259 292.8387
f 796 797 798
v 837.4102 -942.4707 280.2481
v 837.6357 -942.6243 280.2481
v 837.4112 -942.4716 287.7828
f 799 800 801
v 837.2313 -942.3498 292.8388
v 837.2306 -942.3491 287.7829
v 837.4112 -942.4716 287.7828
f 802 803 804
v 838.9736 -939.7839 288.2880
v 838.8823 -928.3067 288.2898
v 832.8264 -937.2165 288.2892
f 805 806 807
v 838.8823 -928.3067 288.2898
v 838.9736 -939.7839 288.2880
v 844.2794 -931.9752 288.2885
f 808 809 810
v 838.8812 -928.3058 280.2500
v 838.8823 -928.3067 288.2898
v 844.2794 -931.9752 288.2885
f 811 812 813
v 838.9734 -939.7838 287.7831
v 838.9736 -939.7839 288.2880
v 832.8264 -937.2165 288.2892
f 814 815 816
v 837.4102 -942.4707 280.2481
v 837.7381 -942.4726 280.2481
v 837.6357 -942.6243 280.2481
f 817 818 819
v 837.7381 -942.4726 280.2481
v 844.4554 -931.8937 280.2487
v 860.9838 -958.1867 280.2426
f 820 821 822
v 837.4102 -942.4707 280.2481
v 838.8812 -928.3058 280.2500
v 837.7381 -942.4726 280.2481
f 823 824 825
v 837.4102 -942.4707 280.2481
v 806.5194 -923.0992 280.2550
v 838.8812 -928.3058 280.2500
f 826 827 828
v 844.2782 -931.9743 280.2488
v 837.7381 -942.4726 280.2481
v 838.8812 -928.3058 280.2500
f 829 830 831
v 844.2782 -931.9743 280.2488
v 844.4554 -931.8937 280.2487
v 837.7381 -942.4726 280.2481
f 832 833 834
v 846.8369 -928.3741 280.2489
v 870.3978 -944.3321 280.2434
v 844.4554 -931.8937 280.2487
f 835 836 837
v 860.9838 -958.1867 280.2426
v 844.4554 -931.8937 280.2487
v 870.3978 -944.3321 280.2434
f 838 839 840
v 844.2782 -931.9743 280.2488
v 844.3716 -931.8375 280.2488
v 844.4554 -931.8937 280.2487
f 841 842 843
v 817.2350 -912.7339 280.2552
v 840.3951 -926.0768 280.2501
v 838.8812 -928.3058 280.2500
f 844 845 846
v 806.5194 -923.0992 280.2550
v 837.4102 -942.4707 280.2481
v 836.6562 -943.5797 280.2480
f 847 848 849
v 816.6661 -913.0835 280.2552
v 838.8812 -928.3058 280.2500
v 806.5194 -923.0992 280.2550
f 850 851 852
v 817.2350 -912.7339 280.2552
v 838.8812 -928.3058 280.2500
v 816.6661 -913.0835 280.2552
f 853 854 855
v 797.8382 -932.5378 280.2547
v 806.5194 -923.0992 280.2550
v 799.3944 -933.5830 280.2544
f 856 857 858
v 806.5194 -923.0992 280.2550
v 814.3813 -911.5303 280.2557
v 816.6661 -913.0835 280.2552
f 859 860 861
v 797.8382 -932.5378 280.2547
v 797.8211 -932.5637 280.2547
v 792.0467 -928.6453 280.2560
f 862 863 864
v 806.5194 -923.0992 280.2550
v 797.8382 -932.5378 280.2547
v 792.0467 -928.6453 280.2560
f 865 866 867
v 792.0467 -928.6453 280.2560
v 807.6562 -905.6243 280.2574
v 806.5194 -923.0992 280.2550
f 868 869 870
v 817.0085 -912.5803 280.2552
v 817.2350 -912.7339 280.2552
v 816.6661 -913.0835 280.2552
f 871 872 873
v 840.3951 -926.0768 280.2501
v 817.2350 -912.7339 280.2552
v 818.3234 -911.1289 280.2552
f 874 875 876
v 807.6562 -905.6243 280.2574
v 815.0018 -910.6170 280.2557
v 814.3813 -911.5303 280.2557
f 877 878 879
v 806.5194 -923.0992 280.2550
v 807.6562 -905.6243 280.2574
v 814.3813 -911.5303 280.2557
f 880 881 882
v 814.3813 -911.5303 280.2557
v 816.6672 -913.0843 287.7899
v 816.6661 -913.0835 280.2552
f 883 884 885
v 836.6562 -943.5797 280.2480
v 806.5204 -923.1000 287.7897
v 806.5194 -923.0992 280.2550
f 886 887 888
v 837.4102 -942.4707 280.2481
v 836.6573 -943.5806 287.7827
v 836.6562 -943.5797 280.2480
f 889 890 891
v 817.2350 -912.7339 280.2552
v 818.3251 -911.1304 292.8457
v 818.3234 -911.1289 280.2552
f 892 893 894
v 817.0085 -912.5803 280.2552
v 817.2368 -912.7354 292.8457
v 817.2350 -912.7339 280.2552
f 895 896 897
v 818.3234 -911.1289 280.2552
v 840.3969 -926.0783 292.8407
v 840.3951 -926.0768 280.2501
f 898 899 900
v 816.6672 -913.0843 287.7899
v 809.5600 -923.5447 292.8451
v 817.0102 -912.5819 292.8457
f 901 902 903
v 831.8332 -938.6803 292.8400
v 809.5600 -923.5447 292.8451
v 809.5592 -923.5441 287.7893
f 904 905 906
v 831.8332 -938.6803 292.8400
v 832.8264 -937.2165 288.2892
v 838.8823 -928.3067 288.2898
f 907 908 909
v 792.0467 -928.6453 280.2560
v 807.6573 -905.6253 288.4231
v 807.6562 -905.6243 280.2574
f 910 911 912
v 797.8211 -932.5637 280.2547
v 792.0478 -928.6463 288.4217
v 792.0467 -928.6453 280.2560
f 913 914 915
v 797.8382 -932.5378 280.2547
v 797.8222 -932.5647 288.4204
v 797.8211 -932.5637 280.2547
f 916 917 918
v 799.3944 -933.5830 280.2544
v 797.8393 -932.5388 288.4204
v 797.8382 -932.5378 280.2547
f 919 920 921
v 807.6562 -905.6243 280.2574
v 815.0029 -910.6180 288.4214
v 815.0018 -910.6170 280.2557
f 922 923 924
v 815.0018 -910.6170 280.2557
v 814.3823 -911.5312 287.7904
v 814.3813 -911.5303 280.2557
f 925 926 927
v 844.4554 -931.8937 280.2487
v 846.8387 -928.3756 292.8395
v 846.8369 -928.3741 280.2489
f 928 929 930
v 844.3734 -931.8390 292.8394
v 844.4572 -931.8952 292.8393
v 844.4554 -931.8937 280.2487
f 931 932 933
v 837.7381 -942.4726 280.2481
v 837.6375 -942.6259 292.8387
v 837.6357 -942.6243 280.2481
f 934 935 936
v 860.9838 -958.1867 280.2426
v 837.7399 -942.4741 292.8387
v 837.7381 -942.4726 280.2481
f 937 938 939
v 870.3978 -944.3321 280.2434
v 860.9857 -958.1884 292.8331
v 860.9838 -958.1867 280.2426
f 940 941 942
v 846.8369 -928.3741 280.2489
v 870.3997 -944.3336 292.8339
v 870.3978 -944.3321 280.2434
f 943 944 945
v 844.3734 -931.8390 292.8394
v 844.2794 -931.9752 288.2885
v 838.9736 -939.7839 288.2880
f 946 947 948
v 838.8812 -928.3058 280.2500
v 844.2794 -931.9752 288.2885
v 844.2782 -931.9743 280.2488
f 949 950 951
v 838.9734 -939.7838 287.7831
v 832.8264 -937.2165 288.2892
v 832.8264 -937.2164 287.7843
f 952 953 954

g building_ID_42EAD62A-98FA-4035-894B-3D69CD505151
v 861.1018 -973.2231 282.1302
v 871.2592 -965.6004 282.1300
v 864.5655 -975.5524 282.1294
f 955 956 957
v 864.2558 -960.8906 282.1317
v 867.7934 -963.2712 282.1308
v 857.5193 -970.8145 282.1311
f 958 959 960
v 861.1018 -973.2231 282.1302
v 867.7934 -963.2712 282.1308
v 871.2592 -965.6004 282.1300
f 961 962 963
v 857.5193 -970.8145 282.1311
v 867.7934 -963.2712 282.1308
v 861.1018 -973.2231 282.1302
f 964 965 966
v 867.7947 -963.2722 290.5545
v 864.2568 -960.8915 288.5505
v 861.1031 -973.2243 290.5539
f 967 968 969
v 857.5203 -970.8154 288.5249
v 861.1031 -973.2243 290.5539
v 864.2568 -960.8915 288.5505
f 970 971 972
v 871.2601 -965.6012 288.4258
v 861.1031 -973.2243 290.5539
v 864.5664 -975.5532 288.4251
f 973 974 975
v 861.1031 -973.2243 290.5539
v 871.2601 -965.6012 288.4258
v 867.7947 -963.2722 290.5545
f 976 977 978
v 864.2568 -960.8915 288.5505
v 857.5198 -970.8149 285.3140
v 857.5203 -970.8154 288.5249
f 979 980 981
v 857.5198 -970.8149 285.3140
v 864.2568 -960.8915 288.5505
v 864.2558 -960.8906 282.1317
f 982 983 984
v 857.5193 -970.8145 282.1311
v 857.5198 -970.8149 285.3140
v 864.2558 -960.8906 282.1317
f 985 986 987
v 871.2592 -965.6004 282.1300
v 871.2601 -965.6012 288.4258
v 864.5664 -975.5532 288.4251
f 988 989 990
v 857.5198 -970.8149 285.3140
v 861.1018 -973.2231 282.1302
v 864.5664 -975.5532 288.4251
f 991 992 993
v 864.5664 -975.5532 288.4251
v 861.1018 -973.2231 282.1302
v 864.5655 -975.5524 282.1294
f 994 995 996
v 857.5198 -970.8149 285.3140
v 864.5664 -975.5532 288.4251
v 861.1031 -973.2243 290.5539
f 997 998 999
v 857.5203 -970.8154 288.5249
v 857.5198 -970.8149 285.3140
v 861.1031 -973.2243 290.5539
f 1000 1001 1002
v 857.5198 -970.8149 285.3140
v 857.5193 -970.8145 282.1311
v 861.1018 -973.2231 282.1302
f 1003 1004 1005
v 864.2568 -960.8915 288.5505
v 867.7934 -963.2712 282.1308
v 864.2558 -960.8906 282.1317
f 1006 1007 1008
v 867.7934 -963.2712 282.1308
v 864.2568 -960.8915 288.5505
v 867.7947 -963.2722 290.5545
f 1009 1010 1011
v 867.7934 -963.2712 282.1308
v 867.7947 -963.2722 290.5545
v 871.2592 -965.6004 282.1300
f 1012 1013 1014
v 871.2601 -965.6012 288.4258
v 871.2592 -965.6004 282.1300
v 867.7947 -963.2722 290.5545
f 1015 1016 1017
v 871.2592 -965.6004 282.1300
v 864.5664 -975.5532 288.4251
v 864.5655 -975.5524 282.1294
f 1018 1019 1020

g building_ID_16864317-4DF5-472B-A57F-7AFA1AA6EADF
v 831.1711 -979.9308 281.4062
v 833.9510 -981.7972 281.4055
v 832.7060 -983.6519 281.4054
f 1021 1022 1023
v 832.7060 -983.6519 281.4054
v 829.9261 -981.7845 281.4061
v 831.1711 -979.9308 281.4062
f 1024 1025 1026
v 833.9543 -981.8003 304.7717
v 831.1743 -979.9337 304.7724
v 829.9294 -981.7874 304.7723
f 1027 1028 1029
v 829.9294 -981.7874 304.7723
v 832.7094 -983.6549 304.7716
v 833.9543 -981.8003 304.7717
f 1030 1031 1032
v 832.7060 -983.6519 281.4054
v 832.7094 -983.6549 304.7716
v 829.9294 -981.7874 304.7723
f 1033 1034 1035
v 833.9510 -981.7972 281.4055
v 833.9543 -981.8003 304.7717
v 832.7094 -983.6549 304.7716
f 1036 1037 1038
v 831.1711 -979.9308 281.4062
v 831.1743 -979.9337 304.7724
v 833.9543 -981.8003 304.7717
f 1039 1040 1041
v 829.9261 -981.7845 281.4061
v 829.9294 -981.7874 304.7723
v 831.1743 -979.9337 304.7724
f 1042 1043 1044
v 832.7060 -983.6519 281.4054
v 829.9294 -981.7874 304.7723
v 829.9261 -981.7845 281.4061
f 1045 1046 1047
v 833.9510 -981.7972 281.4055
v 832.7094 -983.6549 304.7716
v 832.7060 -983.6519 281.4054
f 1048 1049 1050
v 831.1711 -979.9308 281.4062
v 833.9543 -981.8003 304.7717
v 833.9510 -981.7972 281.4055
f 1051 1052 1053
v 829.9261 -981.7845 281.4061
v 831.1743 -979.9337 304.7724
v 831.1711 -979.9308 281.4062
f 1054 1055 1056

g building_ID_226157D9-E006-40AC-9439-A254C998F478
v 856.9664 -1018.4241 300.6629
v 872.9429 -1029.4138 300.6590
v 867.2892 -1003.1889 300.6641
f 1057 1058 1059
v 883.4653 -1013.9291 300.6600
v 867.2892 -1003.1889 300.6641
v 872.9429 -1029.4138 300.6590
f 1060 1061 1062
v 856.9664 -1018.4241 300.6629
v 856.8821 -1018.5488 300.6629
v 872.9429 -1029.4138 300.6590
f 1063 1064 1065
v 883.4653 -1013.9291 300.6600
v 867.3725 -1003.0651 300.6641
v 867.2892 -1003.1889 300.6641
f 1066 1067 1068
v 835.3474 -981.5514 300.6717
v 825.0166 -996.7826 300.6707
v 856.9664 -1018.4241 300.6629
f 1069 1070 1071
v 867.2892 -1003.1889 300.6641
v 835.3474 -981.5514 300.6717
v 856.9664 -1018.4241 300.6629
f 1072 1073 1074
v 825.0137 -996.7798 279.4045
v 825.0166 -996.7826 300.6707
v 835.3474 -981.5514 300.6717
f 1075 1076 1077
v 856.9634 -1018.4212 279.3967
v 856.9664 -1018.4241 300.6629
v 825.0166 -996.7826 300.6707
f 1078 1079 1080
v 856.8790 -1018.5460 279.3967
v 856.8821 -1018.5488 300.6629
v 856.9664 -1018.4241 300.6629
f 1081 1082 1083
v 872.9397 -1029.4109 279.3928
v 872.9429 -1029.4138 300.6590
v 856.8821 -1018.5488 300.6629
f 1084 1085 1086
v 883.4622 -1013.9263 279.3938
v 883.4653 -1013.9291 300.6600
v 880.3791 -1018.4708 300.2797
f 1087 1088 1089
v 883.4653 -1013.9291 300.6600
v 872.9429 -1029.4138 300.6590
v 880.3791 -1018.4708 300.2797
f 1090 1091 1092
v 880.3791 -1018.4708 300.2797
v 880.3760 -1018.4680 279.3935
v 883.4622 -1013.9263 279.3938
f 1093 1094 1095
v 872.9397 -1029.4109 279.3928
v 874.8765 -1026.5680 300.2792
v 872.9429 -1029.4138 300.6590
f 1096 1097 1098
v 874.8765 -1026.5680 300.2792
v 872.9397 -1029.4109 279.3928
v 874.8733 -1026.5652 279.3930
f 1099 1100 1101
v 867.3694 -1003.0623 279.3978
v 867.3725 -1003.0651 300.6641
v 883.4653 -1013.9291 300.6600
f 1102 1103 1104
v 867.2861 -1003.1860 279.3978
v 867.2892 -1003.1889 300.6641
v 867.3725 -1003.0651 300.6641
f 1105 1106 1107
v 835.3444 -981.5487 279.4055
v 835.3474 -981.5514 300.6717
v 867.2892 -1003.1889 300.6641
f 1108 1109 1110
v 878.2039 -1028.1960 279.3923
v 878.2071 -1028.1989 300.2785
v 876.4266 -1027.6221 300.2788
f 1111 1112 1113
v 879.0405 -1028.3453 279.3921
v 879.0436 -1028.3481 300.2783
v 878.2071 -1028.1989 300.2785
f 1114 1115 1116
v 881.7156 -1019.3775 279.3932
v 881.7187 -1019.3804 300.2794
v 879.0436 -1028.3481 300.2783
f 1117 1118 1119
v 878.2071 -1028.1989 300.2785
v 879.0436 -1028.3481 300.2783
v 881.7187 -1019.3804 300.2794
f 1120 1121 1122
v 880.3791 -1018.4708 300.2797
v 874.8765 -1026.5680 300.2792
v 881.7187 -1019.3804 300.2794
f 1123 1124 1125
v 878.2071 -1028.1989 300.2785
v 881.7187 -1019.3804 300.2794
v 876.4266 -1027.6221 300.2788
f 1126 1127 1128
v 874.8765 -1026.5680 300.2792
v 876.4266 -1027.6221 300.2788
v 881.7187 -1019.3804 300.2794
f 1129 1130 1131
v 880.3760 -1018.4680 279.3935
v 880.3791 -1018.4708 300.2797
v 881.7187 -1019.3804 300.2794
f 1132 1133 1134
v 876.4235 -1027.6193 279.3926
v 876.4266 -1027.6221 300.2788
v 874.8765 -1026.5680 300.2792
f 1135 1136 1137
v 874.8733 -1026.5652 279.3930
v 878.2039 -1028.1960 279.3923
v 876.4235 -1027.6193 279.3926
f 1138 1139 1140
v 879.0405 -1028.3453 279.3921
v 878.2039 -1028.1960 279.3923
v 874.8733 -1026.5652 279.3930
f 1141 1142 1143
v 880.3760 -1018.4680 279.3935
v 881.7156 -1019.3775 279.3932
v 879.0405 -1028.3453 279.3921
f 1144 1145 1146
v 880.3760 -1018.4680 279.3935
v 867.2861 -1003.1860 279.3978
v 883.4622 -1013.9263 279.3938
f 1147 1148 1149
v 880.3760 -1018.4680 279.3935
v 879.0405 -1028.3453 279.3921
v 874.8733 -1026.5652 279.3930
f 1150 1151 1152
v 825.0137 -996.7798 279.4045
v 880.3760 -1018.4680 279.3935
v 874.8733 -1026.5652 279.3930
f 1153 1154 1155
v 856.9634 -1018.4212 279.3967
v 872.9397 -1029.4109 279.3928
v 856.8790 -1018.5460 279.3967
f 1156 1157 1158
v 856.9634 -1018.4212 279.3967
v 825.0137 -996.7798 279.4045
v 874.8733 -1026.5652 279.3930
f 1159 1160 1161
v 867.2861 -1003.1860 279.3978
v 867.3694 -1003.0623 279.3978
v 883.4622 -1013.9263 279.3938
f 1162 1163 1164
v 880.3760 -1018.4680 279.3935
v 835.3444 -981.5487 279.4055
v 867.2861 -1003.1860 279.3978
f 1165 1166 1167
v 880.3760 -1018.4680 279.3935
v 825.0137 -996.7798 279.4045
v 835.3444 -981.5487 279.4055
f 1168 1169 1170
v 856.9634 -1018.4212 279.3967
v 874.8733 -1026.5652 279.3930
v 872.9397 -1029.4109 279.3928
f 1171 1172 1173
v 825.0137 -996.7798 279.4045
v 835.3474 -981.5514 300.6717
v 835.3444 -981.5487 279.4055
f 1174 1175 1176
v 856.9634 -1018.4212 279.3967
v 825.0166 -996.7826 300.6707
v 825.0137 -996.7798 279.4045
f 1177 1178 1179
v 856.8790 -1018.5460 279.3967
v 856.9664 -1018.4241 300.6629
v 856.9634 -1018.4212 279.3967
f 1180 1181 1182
v 872.9397 -1029.4109 279.3928
v 856.8821 -1018.5488 300.6629
v 856.8790 -1018.5460 279.3967
f 1183 1184 1185
v 872.9429 -1029.4138 300.6590
v 874.8765 -1026.5680 300.2792
v 880.3791 -1018.4708 300.2797
f 1186 1187 1188
v 867.3694 -1003.0623 279.3978
v 883.4653 -1013.9291 300.6600
v 883.4622 -1013.9263 279.3938
f 1189 1190 1191
v 867.2861 -1003.1860 279.3978
v 867.3725 -1003.0651 300.6641
v 867.3694 -1003.0623 279.3978
f 1192 1193 1194
v 835.3444 -981.5487 279.4055
v 867.2892 -1003.1889 300.6641
v 867.2861 -1003.1860 279.3978
f 1195 1196 1197
v 878.2039 -1028.1960 279.3923
v 876.4266 -1027.6221 300.2788
v 876.4235 -1027.6193 279.3926
f 1198 1199 1200
v 879.0405 -1028.3453 279.3921
v 878.2071 -1028.1989 300.2785
v 878.2039 -1028.1960 279.3923
f 1201 1202 1203
v 881.7156 -1019.3775 279.3932
v 879.0436 -1028.3481 300.2783
v 879.0405 -1028.3453 279.3921
f 1204 1205 1206
v 880.3760 -1018.4680 279.3935
v 881.7187 -1019.3804 300.2794
v 881.7156 -1019.3775 279.3932
f 1207 1208 1209
v 876.4235 -1027.6193 279.3926
v 874.8765 -1026.5680 300.2792
v 874.8733 -1026.5652 279.3930
f 1210 1211 1212

g building_ID_F7D47D86-1333-4155-B7F0-C5D441A7BB00
v 779.4882 -973.6261 294.8013
v 767.0060 -978.9765 294.8019
v 788.2676 -977.5675 294.7996
f 1213 1214 1215
v 818.1479 -1002.0144 294.7919
v 788.2676 -977.5675 294.7996
v 767.0060 -978.9765 294.8019
f 1216 1217 1218
v 771.3711 -969.2134 294.8029
v 767.0060 -978.9765 294.8019
v 779.4882 -973.6261 294.8013
f 1219 1220 1221
v 779.4882 -973.6261 294.8013
v 779.8848 -973.0492 294.8013
v 771.3711 -969.2134 294.8029
f 1222 1223 1224
v 788.8460 -977.0381 294.7996
v 788.5453 -976.9023 294.7996
v 788.8279 -977.0780 294.7996
f 1225 1226 1227
v 788.5453 -976.9023 294.7996
v 788.2676 -977.5675 294.7996
v 788.8279 -977.0780 294.7996
f 1228 1229 1230
v 788.8279 -977.0780 294.7996
v 788.2676 -977.5675 294.7996
v 810.0788 -987.5129 294.7952
f 1231 1232 1233
v 822.1204 -993.2011 294.7928
v 813.9529 -989.6983 294.7944
v 818.1479 -1002.0144 294.7919
f 1234 1235 1236
v 810.0788 -987.5129 294.7952
v 818.1479 -1002.0144 294.7919
v 813.9529 -989.6983 294.7944
f 1237 1238 1239
v 810.4387 -986.8139 294.7953
v 788.8279 -977.0780 294.7996
v 810.0788 -987.5129 294.7952
f 1240 1241 1242
v 814.2183 -989.1580 294.7944
v 810.0788 -987.5129 294.7952
v 813.9529 -989.6983 294.7944
f 1243 1244 1245
v 818.1479 -1002.0144 294.7919
v 810.0788 -987.5129 294.7952
v 788.2676 -977.5675 294.7996
f 1246 1247 1248
v 767.0039 -978.9746 279.4145
v 767.0060 -978.9765 294.8019
v 771.3711 -969.2134 294.8029
f 1249 1250 1251
v 818.1457 -1002.0124 279.4045
v 818.1479 -1002.0144 294.7919
v 767.0060 -978.9765 294.8019
f 1252 1253 1254
v 822.1183 -993.1992 279.4054
v 822.1204 -993.2011 294.7928
v 818.1479 -1002.0144 294.7919
f 1255 1256 1257
v 810.6822 -986.9225 279.4078
v 788.8258 -977.0761 279.4121
v 788.8279 -977.0780 294.7996
f 1258 1259 1260
v 810.6822 -986.9225 279.4078
v 810.4387 -986.8139 294.7953
v 810.6848 -986.9251 298.5881
f 1261 1262 1263
v 788.8439 -977.0361 279.4121
v 788.8460 -977.0381 294.7996
v 788.8279 -977.0780 294.7996
f 1264 1265 1266
v 788.5433 -976.9004 279.4121
v 788.5453 -976.9023 294.7996
v 788.8460 -977.0381 294.7996
f 1267 1268 1269
v 779.8850 -973.0493 296.6972
v 779.4885 -973.6263 296.6972
v 779.9410 -973.0745 296.6972
f 1270 1271 1272
v 788.2678 -977.5678 296.6955
v 779.9410 -973.0745 296.6972
v 779.4885 -973.6263 296.6972
f 1273 1274 1275
v 779.9410 -973.0745 296.6972
v 790.5112 -972.2048 296.6960
v 783.3455 -968.0197 296.6975
f 1276 1277 1278
v 790.5112 -972.2048 296.6960
v 783.6868 -967.5165 296.6976
v 783.3455 -968.0197 296.6975
f 1279 1280 1281
v 788.2678 -977.5678 296.6955
v 790.5112 -972.2048 296.6960
v 779.9410 -973.0745 296.6972
f 1282 1283 1284
v 783.6868 -967.5165 296.3176
v 783.6868 -967.5165 296.6976
v 790.5112 -972.2048 296.6960
f 1285 1286 1287
v 779.4882 -973.6261 294.8013
v 779.4885 -973.6263 296.6972
v 779.8850 -973.0493 296.6972
f 1288 1289 1290
v 788.2676 -977.5675 294.7996
v 788.2678 -977.5678 296.6955
v 779.4882 -973.6261 294.8013
f 1291 1292 1293
v 790.2515 -972.8251 296.3160
v 790.5112 -972.2047 296.3160
v 790.5112 -972.2048 296.6960
f 1294 1295 1296
v 788.5453 -976.9023 294.7996
v 790.2492 -972.8229 279.4127
v 790.2515 -972.8251 296.3160
f 1297 1298 1299
v 790.2515 -972.8251 296.3160
v 790.5112 -972.2048 296.6960
v 788.2678 -977.5678 296.6955
f 1300 1301 1302
v 788.5453 -976.9023 294.7996
v 788.2678 -977.5678 296.6955
v 788.2676 -977.5675 294.7996
f 1303 1304 1305
v 790.2492 -972.8229 279.4127
v 788.5453 -976.9023 294.7996
v 788.5433 -976.9004 279.4121
f 1306 1307 1308
v 790.2515 -972.8251 296.3160
v 788.2678 -977.5678 296.6955
v 788.5453 -976.9023 294.7996
f 1309 1310 1311
v 779.8848 -973.0492 294.8013
v 771.3691 -969.2114 279.4155
v 771.3711 -969.2134 294.8029
f 1312 1313 1314
v 779.8850 -973.0493 296.6972
v 779.9410 -973.0745 296.6972
v 779.8848 -973.0492 294.8013
f 1315 1316 1317
v 779.8848 -973.0492 294.8013
v 779.9410 -973.0745 296.6972
v 779.9386 -973.0723 279.4139
f 1318 1319 1320
v 771.3691 -969.2114 279.4155
v 779.8848 -973.0492 294.8013
v 779.9386 -973.0723 279.4139
f 1321 1322 1323
v 783.3494 -968.0226 296.3175
v 783.3471 -968.0204 279.4142
v 779.9410 -973.0745 296.6972
f 1324 1325 1326
v 779.9410 -973.0745 296.6972
v 783.3471 -968.0204 279.4142
v 779.9386 -973.0723 279.4139
f 1327 1328 1329
v 783.6868 -967.5165 296.3176
v 783.3455 -968.0197 296.6975
v 783.6868 -967.5165 296.6976
f 1330 1331 1332
v 783.3455 -968.0197 296.6975
v 783.6868 -967.5165 296.3176
v 783.3494 -968.0226 296.3175
f 1333 1334 1335
v 779.9410 -973.0745 296.6972
v 783.3455 -968.0197 296.6975
v 783.3494 -968.0226 296.3175
f 1336 1337 1338
v 805.5677 -956.5361 279.4132
v 789.6446 -945.4176 279.4169
v 805.8587 -956.5549 279.4132
f 1339 1340 1341
v 805.7753 -956.6767 279.4132
v 805.5677 -956.5361 279.4132
v 805.8587 -956.5549 279.4132
f 1342 1343 1344
v 777.8499 -963.6548 279.4156
v 789.8533 -945.9111 279.4168
v 783.3471 -968.0204 279.4142
f 1345 1346 1347
v 789.8533 -945.9111 279.4168
v 805.5677 -956.5361 279.4132
v 783.3471 -968.0204 279.4142
f 1348 1349 1350
v 789.8533 -945.9111 279.4168
v 789.6446 -945.4176 279.4169
v 805.5677 -956.5361 279.4132
f 1351 1352 1353
v 789.4810 -945.6591 279.4168
v 789.6446 -945.4176 279.4169
v 789.8533 -945.9111 279.4168
f 1354 1355 1356
v 777.1704 -963.8380 279.4156
v 777.4686 -963.3968 279.4157
v 777.8499 -963.6548 279.4156
f 1357 1358 1359
v 793.3339 -974.7882 279.4119
v 793.5552 -974.2987 279.4119
v 793.6341 -974.3520 279.4119
f 1360 1361 1362
v 793.5552 -974.2987 279.4119
v 793.3339 -974.7882 279.4119
v 790.6917 -972.9971 279.4126
f 1363 1364 1365
v 777.8499 -963.6548 279.4156
v 783.3471 -968.0204 279.4142
v 777.1704 -963.8380 279.4156
f 1366 1367 1368
v 790.6465 -973.0960 279.4126
v 790.2492 -972.8229 279.4127
v 790.6917 -972.9971 279.4126
f 1369 1370 1371
v 790.2492 -972.8229 279.4127
v 783.3471 -968.0204 279.4142
v 805.5677 -956.5361 279.4132
f 1372 1373 1374
v 805.5677 -956.5361 279.4132
v 790.6917 -972.9971 279.4126
v 790.2492 -972.8229 279.4127
f 1375 1376 1377
v 790.6917 -972.9971 279.4126
v 805.5677 -956.5361 279.4132
v 793.5552 -974.2987 279.4119
f 1378 1379 1380
v 789.4810 -945.6591 279.4168
v 789.4833 -945.6613 296.3202
v 789.6470 -945.4196 296.3203
f 1381 1382 1383
v 789.8533 -945.9111 279.4168
v 789.8556 -945.9132 296.3202
v 789.4833 -945.6613 296.3202
f 1384 1385 1386
v 777.8499 -963.6548 279.4156
v 777.8522 -963.6569 296.3190
v 789.8556 -945.9132 296.3202
f 1387 1388 1389
v 777.4686 -963.3968 279.4157
v 777.4708 -963.3989 296.3191
v 777.8522 -963.6569 296.3190
f 1390 1391 1392
v 777.1704 -963.8380 279.4156
v 777.1726 -963.8401 296.3190
v 777.4708 -963.3989 296.3191
f 1393 1394 1395
v 783.3471 -968.0204 279.4142
v 783.3494 -968.0226 296.3175
v 777.1726 -963.8401 296.3190
f 1396 1397 1398
v 790.6917 -972.9971 279.4126
v 790.6941 -972.9992 296.3159
v 790.6487 -973.0981 296.3159
f 1399 1400 1401
v 793.3339 -974.7882 279.4119
v 793.3362 -974.7903 296.3153
v 790.6941 -972.9992 296.3159
f 1402 1403 1404
v 793.6341 -974.3520 279.4119
v 793.6364 -974.3541 296.3153
v 793.3362 -974.7903 296.3153
f 1405 1406 1407
v 793.5552 -974.2987 279.4119
v 793.5575 -974.3010 296.3153
v 793.6364 -974.3541 296.3153
f 1408 1409 1410
v 805.5677 -956.5361 279.4132
v 805.5700 -956.5382 296.3165
v 793.5575 -974.3010 296.3153
f 1411 1412 1413
v 805.7753 -956.6767 279.4132
v 805.7777 -956.6788 296.3165
v 805.5700 -956.5382 296.3165
f 1414 1415 1416
v 805.8587 -956.5549 279.4132
v 805.8610 -956.5571 296.3165
v 805.7777 -956.6788 296.3165
f 1417 1418 1419
v 789.6446 -945.4176 279.4169
v 789.6470 -945.4196 296.3203
v 805.8610 -956.5571 296.3165
f 1420 1421 1422
v 805.5700 -956.5382 296.3165
v 789.6470 -945.4196 296.3203
v 789.8556 -945.9132 296.3202
f 1423 1424 1425
v 789.4833 -945.6613 296.3202
v 789.8556 -945.9132 296.3202
v 789.6470 -945.4196 296.3203
f 1426 1427 1428
v 783.6868 -967.5165 296.3176
v 789.8556 -945.9132 296.3202
v 777.8522 -963.6569 296.3190
f 1429 1430 1431
v 805.5700 -956.5382 296.3165
v 789.8556 -945.9132 296.3202
v 783.6868 -967.5165 296.3176
f 1432 1433 1434
v 805.5700 -956.5382 296.3165
v 805.7777 -956.6788 296.3165
v 805.8610 -956.5571 296.3165
f 1435 1436 1437
v 783.6868 -967.5165 296.3176
v 790.5112 -972.2047 296.3160
v 805.5700 -956.5382 296.3165
f 1438 1439 1440
v 805.5700 -956.5382 296.3165
v 790.5112 -972.2047 296.3160
v 793.5575 -974.3010 296.3153
f 1441 1442 1443
v 805.5700 -956.5382 296.3165
v 805.8610 -956.5571 296.3165
v 789.6470 -945.4196 296.3203
f 1444 1445 1446
v 777.1726 -963.8401 296.3190
v 777.8522 -963.6569 296.3190
v 777.4708 -963.3989 296.3191
f 1447 1448 1449
v 777.8522 -963.6569 296.3190
v 777.1726 -963.8401 296.3190
v 783.3494 -968.0226 296.3175
f 1450 1451 1452
v 793.6364 -974.3541 296.3153
v 793.5575 -974.3010 296.3153
v 793.3362 -974.7903 296.3153
f 1453 1454 1455
v 793.3362 -974.7903 296.3153
v 793.5575 -974.3010 296.3153
v 790.6941 -972.9992 296.3159
f 1456 1457 1458
v 790.6487 -973.0981 296.3159
v 790.6941 -972.9992 296.3159
v 790.2515 -972.8251 296.3160
f 1459 1460 1461
v 790.2515 -972.8251 296.3160
v 790.6941 -972.9992 296.3159
v 790.5112 -972.2047 296.3160
f 1462 1463 1464
v 793.5575 -974.3010 296.3153
v 790.5112 -972.2047 296.3160
v 790.6941 -972.9992 296.3159
f 1465 1466 1467
v 777.8522 -963.6569 296.3190
v 783.3494 -968.0226 296.3175
v 783.6868 -967.5165 296.3176
f 1468 1469 1470
v 790.6465 -973.0960 279.4126
v 790.6487 -973.0981 296.3159
v 790.2515 -972.8251 296.3160
f 1471 1472 1473
v 817.5429 -982.3905 298.5880
v 812.4303 -983.4028 298.5885
v 810.6848 -986.9251 298.5881
f 1474 1475 1476
v 810.0793 -987.5134 298.5881
v 814.2188 -989.1585 298.5873
v 810.6848 -986.9251 298.5881
f 1477 1478 1479
v 810.0793 -987.5134 298.5881
v 810.6848 -986.9251 298.5881
v 810.4392 -986.8143 298.5882
f 1480 1481 1482
v 817.5429 -982.3905 298.5880
v 810.6848 -986.9251 298.5881
v 814.2188 -989.1585 298.5873
f 1483 1484 1485
v 816.7639 -976.0974 298.5890
v 814.5745 -979.5655 298.5888
v 817.5429 -982.3905 298.5880
f 1486 1487 1488
v 823.0151 -974.4972 298.5885
v 816.7639 -976.0974 298.5890
v 817.5429 -982.3905 298.5880
f 1489 1490 1491
v 812.4303 -983.4028 298.5885
v 817.5429 -982.3905 298.5880
v 814.5745 -979.5655 298.5888
f 1492 1493 1494
v 819.3717 -972.0224 298.5893
v 816.6540 -976.0221 298.5890
v 816.7639 -976.0974 298.5890
f 1495 1496 1497
v 823.0151 -974.4972 298.5885
v 819.3717 -972.0224 298.5893
v 816.7639 -976.0974 298.5890
f 1498 1499 1500
v 814.5719 -979.5630 279.4085
v 814.5745 -979.5655 298.5888
v 816.7639 -976.0974 298.5890
f 1501 1502 1503
v 812.4277 -983.4002 279.4082
v 812.4303 -983.4028 298.5885
v 814.5719 -979.5630 279.4085
f 1504 1505 1506
v 817.5429 -982.3904 298.0190
v 817.5429 -982.3905 298.5880
v 814.2188 -989.1585 298.5873
f 1507 1508 1509
v 823.0145 -974.4967 294.6057
v 823.0151 -974.4972 298.5885
v 822.7861 -974.8264 298.0194
f 1510 1511 1512
v 823.0151 -974.4972 298.5885
v 817.5429 -982.3905 298.5880
v 822.7861 -974.8264 298.0194
f 1513 1514 1515
v 819.3712 -972.0219 294.6065
v 819.3717 -972.0224 298.5893
v 823.0151 -974.4972 298.5885
f 1516 1517 1518
v 816.6535 -976.0216 294.6062
v 816.6540 -976.0221 298.5890
v 819.3712 -972.0219 294.6065
f 1519 1520 1521
v 820.2609 -966.8405 279.4097
v 820.2630 -966.8423 294.6072
v 823.3461 -963.4566 294.6073
f 1522 1523 1524
v 817.0915 -970.7328 279.4095
v 817.0937 -970.7348 294.6070
v 820.2630 -966.8423 294.6072
f 1525 1526 1527
v 814.5882 -974.2121 279.4093
v 814.5903 -974.2141 294.6068
v 817.0937 -970.7348 294.6070
f 1528 1529 1530
v 816.6970 -975.7557 279.4088
v 816.6992 -975.7577 294.6063
v 814.5903 -974.2141 294.6068
f 1531 1532 1533
v 816.5725 -975.9664 279.4088
v 816.5746 -975.9684 294.6063
v 816.6992 -975.7577 294.6063
f 1534 1535 1536
v 829.1688 -979.1612 279.4067
v 829.1710 -979.1632 294.6041
v 828.6140 -978.7856 294.6042
f 1537 1538 1539
v 833.4632 -973.4137 279.4070
v 833.4653 -973.4157 294.6045
v 829.1710 -979.1632 294.6041
f 1540 1541 1542
v 823.3440 -963.4547 279.4098
v 823.3461 -963.4566 294.6073
v 833.4653 -973.4157 294.6045
f 1543 1544 1545
v 828.6140 -978.7856 294.6042
v 829.1710 -979.1632 294.6041
v 833.4653 -973.4157 294.6045
f 1546 1547 1548
v 823.0145 -974.4967 294.6057
v 828.6140 -978.7856 294.6042
v 833.4653 -973.4157 294.6045
f 1549 1550 1551
v 828.6140 -978.7856 294.6042
v 823.0145 -974.4967 294.6057
v 822.7856 -974.8260 294.6056
f 1552 1553 1554
v 823.0145 -974.4967 294.6057
v 833.4653 -973.4157 294.6045
v 823.3461 -963.4566 294.6073
f 1555 1556 1557
v 819.3712 -972.0219 294.6065
v 823.0145 -974.4967 294.6057
v 820.2630 -966.8423 294.6072
f 1558 1559 1560
v 823.3461 -963.4566 294.6073
v 820.2630 -966.8423 294.6072
v 823.0145 -974.4967 294.6057
f 1561 1562 1563
v 817.0937 -970.7348 294.6070
v 819.3712 -972.0219 294.6065
v 820.2630 -966.8423 294.6072
f 1564 1565 1566
v 816.6992 -975.7577 294.6063
v 816.5746 -975.9684 294.6063
v 816.6535 -976.0216 294.6062
f 1567 1568 1569
v 816.6992 -975.7577 294.6063
v 817.0937 -970.7348 294.6070
v 814.5903 -974.2141 294.6068
f 1570 1571 1572
v 817.0937 -970.7348 294.6070
v 816.6992 -975.7577 294.6063
v 819.3712 -972.0219 294.6065
f 1573 1574 1575
v 816.6992 -975.7577 294.6063
v 816.6535 -976.0216 294.6062
v 819.3712 -972.0219 294.6065
f 1576 1577 1578
v 827.6460 -982.8351 279.4063
v 827.6486 -982.8375 298.0176
v 832.3582 -985.9580 298.0165
f 1579 1580 1581
v 827.6851 -982.7771 279.4063
v 827.6878 -982.7796 298.0176
v 827.6486 -982.8375 298.0176
f 1582 1583 1584
v 828.6140 -978.7856 294.6042
v 828.6145 -978.7861 298.0181
v 826.4650 -981.9493 298.0179
f 1585 1586 1587
v 828.6118 -978.7836 279.4068
v 828.6140 -978.7856 294.6042
v 826.4624 -981.9469 279.4066
f 1588 1589 1590
v 832.3556 -985.9556 279.4052
v 832.3582 -985.9580 298.0165
v 826.2381 -994.9676 298.0159
f 1591 1592 1593
v 828.6145 -978.7861 298.0181
v 822.7861 -974.8264 298.0194
v 826.4650 -981.9493 298.0179
f 1594 1595 1596
v 817.5429 -982.3904 298.0190
v 826.4650 -981.9493 298.0179
v 822.7861 -974.8264 298.0194
f 1597 1598 1599
v 827.6486 -982.8375 298.0176
v 827.6878 -982.7796 298.0176
v 826.4650 -981.9493 298.0179
f 1600 1601 1602
v 826.2381 -994.9676 298.0159
v 817.5429 -982.3904 298.0190
v 814.2188 -989.1584 298.0183
f 1603 1604 1605
v 827.6486 -982.8375 298.0176
v 817.5429 -982.3904 298.0190
v 826.2381 -994.9676 298.0159
f 1606 1607 1608
v 813.9534 -989.6987 298.0183
v 826.2381 -994.9676 298.0159
v 814.2188 -989.1584 298.0183
f 1609 1610 1611
v 832.3582 -985.9580 298.0165
v 827.6486 -982.8375 298.0176
v 826.2381 -994.9676 298.0159
f 1612 1613 1614
v 826.4650 -981.9493 298.0179
v 817.5429 -982.3904 298.0190
v 827.6486 -982.8375 298.0176
f 1615 1616 1617
v 827.6878 -982.7796 298.0176
v 826.4624 -981.9469 279.4066
v 826.4650 -981.9493 298.0179
f 1618 1619 1620
v 827.6851 -982.7771 279.4063
v 826.8776 -982.2290 279.4065
v 827.6878 -982.7796 298.0176
f 1621 1622 1623
v 826.4624 -981.9469 279.4066
v 827.6878 -982.7796 298.0176
v 826.8776 -982.2290 279.4065
f 1624 1625 1626
v 822.7856 -974.8260 294.6056
v 822.7861 -974.8264 298.0194
v 828.6145 -978.7861 298.0181
f 1627 1628 1629
v 816.6535 -976.0216 294.6062
v 816.7612 -976.0949 279.4087
v 816.7639 -976.0974 298.5890
f 1630 1631 1632
v 816.6514 -976.0197 279.4087
v 816.7612 -976.0949 279.4087
v 816.6535 -976.0216 294.6062
f 1633 1634 1635
v 816.6535 -976.0216 294.6062
v 816.7639 -976.0974 298.5890
v 816.6540 -976.0221 298.5890
f 1636 1637 1638
v 816.6535 -976.0216 294.6062
v 816.5746 -975.9684 294.6063
v 816.6514 -976.0197 279.4087
f 1639 1640 1641
v 816.5746 -975.9684 294.6063
v 816.5725 -975.9664 279.4088
v 816.6514 -976.0197 279.4087
f 1642 1643 1644
v 810.4387 -986.8139 294.7953
v 810.4392 -986.8143 298.5882
v 810.6848 -986.9251 298.5881
f 1645 1646 1647
v 810.6822 -986.9225 279.4078
v 822.1183 -993.1992 279.4054
v 818.1457 -1002.0124 279.4045
f 1648 1649 1650
v 810.6822 -986.9225 279.4078
v 818.1457 -1002.0124 279.4045
v 788.8258 -977.0761 279.4121
f 1651 1652 1653
v 788.5433 -976.9004 279.4121
v 788.8439 -977.0361 279.4121
v 788.8258 -977.0761 279.4121
f 1654 1655 1656
v 788.8258 -977.0761 279.4121
v 818.1457 -1002.0124 279.4045
v 767.0039 -978.9746 279.4145
f 1657 1658 1659
v 767.0039 -978.9746 279.4145
v 771.3691 -969.2114 279.4155
v 779.9386 -973.0723 279.4139
f 1660 1661 1662
v 779.9386 -973.0723 279.4139
v 788.5433 -976.9004 279.4121
v 788.8258 -977.0761 279.4121
f 1663 1664 1665
v 779.9386 -973.0723 279.4139
v 790.2492 -972.8229 279.4127
v 788.5433 -976.9004 279.4121
f 1666 1667 1668
v 790.2492 -972.8229 279.4127
v 779.9386 -973.0723 279.4139
v 783.3471 -968.0204 279.4142
f 1669 1670 1671
v 767.0039 -978.9746 279.4145
v 779.9386 -973.0723 279.4139
v 788.8258 -977.0761 279.4121
f 1672 1673 1674
v 810.0788 -987.5129 294.7952
v 810.0793 -987.5134 298.5881
v 810.4392 -986.8143 298.5882
f 1675 1676 1677
v 810.6848 -986.9251 298.5881
v 812.4303 -983.4028 298.5885
v 810.6822 -986.9225 279.4078
f 1678 1679 1680
v 812.4303 -983.4028 298.5885
v 812.4277 -983.4002 279.4082
v 810.6822 -986.9225 279.4078
f 1681 1682 1683
v 813.9529 -989.6983 294.7944
v 813.9534 -989.6987 298.0183
v 814.2188 -989.1584 298.0183
f 1684 1685 1686
v 826.2355 -994.9651 279.4046
v 826.2381 -994.9676 298.0159
v 822.1204 -993.2011 294.7928
f 1687 1688 1689
v 826.2381 -994.9676 298.0159
v 813.9534 -989.6987 298.0183
v 822.1204 -993.2011 294.7928
f 1690 1691 1692
v 822.1183 -993.1992 279.4054
v 826.2355 -994.9651 279.4046
v 822.1204 -993.2011 294.7928
f 1693 1694 1695
v 810.0793 -987.5134 298.5881
v 814.2188 -989.1584 298.0183
v 814.2188 -989.1585 298.5873
f 1696 1697 1698
v 814.2183 -989.1580 294.7944
v 814.2188 -989.1584 298.0183
v 810.0788 -987.5129 294.7952
f 1699 1700 1701
v 817.0915 -970.7328 279.4095
v 820.2609 -966.8405 279.4097
v 828.6118 -978.7836 279.4068
f 1702 1703 1704
v 816.6970 -975.7557 279.4088
v 817.0915 -970.7328 279.4095
v 828.6118 -978.7836 279.4068
f 1705 1706 1707
v 828.6118 -978.7836 279.4068
v 816.7612 -976.0949 279.4087
v 816.6970 -975.7557 279.4088
f 1708 1709 1710
v 816.6514 -976.0197 279.4087
v 816.6970 -975.7557 279.4088
v 816.7612 -976.0949 279.4087
f 1711 1712 1713
v 814.5882 -974.2121 279.4093
v 817.0915 -970.7328 279.4095
v 816.6970 -975.7557 279.4088
f 1714 1715 1716
v 833.4632 -973.4137 279.4070
v 820.2609 -966.8405 279.4097
v 823.3440 -963.4547 279.4098
f 1717 1718 1719
v 816.6514 -976.0197 279.4087
v 816.5725 -975.9664 279.4088
v 816.6970 -975.7557 279.4088
f 1720 1721 1722
v 812.4277 -983.4002 279.4082
v 814.5719 -979.5630 279.4085
v 826.4624 -981.9469 279.4066
f 1723 1724 1725
v 812.4277 -983.4002 279.4082
v 822.1183 -993.1992 279.4054
v 810.6822 -986.9225 279.4078
f 1726 1727 1728
v 816.7612 -976.0949 279.4087
v 826.4624 -981.9469 279.4066
v 814.5719 -979.5630 279.4085
f 1729 1730 1731
v 820.2609 -966.8405 279.4097
v 833.4632 -973.4137 279.4070
v 828.6118 -978.7836 279.4068
f 1732 1733 1734
v 829.1688 -979.1612 279.4067
v 828.6118 -978.7836 279.4068
v 833.4632 -973.4137 279.4070
f 1735 1736 1737
v 826.8776 -982.2290 279.4065
v 822.1183 -993.1992 279.4054
v 826.4624 -981.9469 279.4066
f 1738 1739 1740
v 827.6851 -982.7771 279.4063
v 827.6460 -982.8351 279.4063
v 826.8776 -982.2290 279.4065
f 1741 1742 1743
v 827.6460 -982.8351 279.4063
v 822.1183 -993.1992 279.4054
v 826.8776 -982.2290 279.4065
f 1744 1745 1746
v 832.3556 -985.9556 279.4052
v 822.1183 -993.1992 279.4054
v 827.6460 -982.8351 279.4063
f 1747 1748 1749
v 822.1183 -993.1992 279.4054
v 832.3556 -985.9556 279.4052
v 826.2355 -994.9651 279.4046
f 1750 1751 1752
v 826.4624 -981.9469 279.4066
v 822.1183 -993.1992 279.4054
v 812.4277 -983.4002 279.4082
f 1753 1754 1755
v 816.7612 -976.0949 279.4087
v 828.6118 -978.7836 279.4068
v 826.4624 -981.9469 279.4066
f 1756 1757 1758
v 767.0039 -978.9746 279.4145
v 771.3711 -969.2134 294.8029
v 771.3691 -969.2114 279.4155
f 1759 1760 1761
v 818.1457 -1002.0124 279.4045
v 767.0060 -978.9765 294.8019
v 767.0039 -978.9746 279.4145
f 1762 1763 1764
v 822.1183 -993.1992 279.4054
v 818.1479 -1002.0144 294.7919
v 818.1457 -1002.0124 279.4045
f 1765 1766 1767
v 810.6822 -986.9225 279.4078
v 788.8279 -977.0780 294.7996
v 810.4387 -986.8139 294.7953
f 1768 1769 1770
v 788.8439 -977.0361 279.4121
v 788.8279 -977.0780 294.7996
v 788.8258 -977.0761 279.4121
f 1771 1772 1773
v 788.5433 -976.9004 279.4121
v 788.8460 -977.0381 294.7996
v 788.8439 -977.0361 279.4121
f 1774 1775 1776
v 783.6868 -967.5165 296.3176
v 790.5112 -972.2048 296.6960
v 790.5112 -972.2047 296.3160
f 1777 1778 1779
v 779.4882 -973.6261 294.8013
v 779.8850 -973.0493 296.6972
v 779.8848 -973.0492 294.8013
f 1780 1781 1782
v 788.2678 -977.5678 296.6955
v 779.4885 -973.6263 296.6972
v 779.4882 -973.6261 294.8013
f 1783 1784 1785
v 789.4810 -945.6591 279.4168
v 789.6470 -945.4196 296.3203
v 789.6446 -945.4176 279.4169
f 1786 1787 1788
v 789.8533 -945.9111 279.4168
v 789.4833 -945.6613 296.3202
v 789.4810 -945.6591 279.4168
f 1789 1790 1791
v 777.8499 -963.6548 279.4156
v 789.8556 -945.9132 296.3202
v 789.8533 -945.9111 279.4168
f 1792 1793 1794
v 777.4686 -963.3968 279.4157
v 777.8522 -963.6569 296.3190
v 777.8499 -963.6548 279.4156
f 1795 1796 1797
v 777.1704 -963.8380 279.4156
v 777.4708 -963.3989 296.3191
v 777.4686 -963.3968 279.4157
f 1798 1799 1800
v 783.3471 -968.0204 279.4142
v 777.1726 -963.8401 296.3190
v 777.1704 -963.8380 279.4156
f 1801 1802 1803
v 790.6917 -972.9971 279.4126
v 790.6487 -973.0981 296.3159
v 790.6465 -973.0960 279.4126
f 1804 1805 1806
v 793.3339 -974.7882 279.4119
v 790.6941 -972.9992 296.3159
v 790.6917 -972.9971 279.4126
f 1807 1808 1809
v 793.6341 -974.3520 279.4119
v 793.3362 -974.7903 296.3153
v 793.3339 -974.7882 279.4119
f 1810 1811 1812
v 793.5552 -974.2987 279.4119
v 793.6364 -974.3541 296.3153
v 793.6341 -974.3520 279.4119
f 1813 1814 1815
v 805.5677 -956.5361 279.4132
v 793.5575 -974.3010 296.3153
v 793.5552 -974.2987 279.4119
f 1816 1817 1818
v 805.7753 -956.6767 279.4132
v 805.5700 -956.5382 296.3165
v 805.5677 -956.5361 279.4132
f 1819 1820 1821
v 805.8587 -956.5549 279.4132
v 805.7777 -956.6788 296.3165
v 805.7753 -956.6767 279.4132
f 1822 1823 1824
v 789.6446 -945.4176 279.4169
v 805.8610 -956.5571 296.3165
v 805.8587 -956.5549 279.4132
f 1825 1826 1827
v 790.6465 -973.0960 279.4126
v 790.2515 -972.8251 296.3160
v 790.2492 -972.8229 279.4127
f 1828 1829 1830
v 814.5719 -979.5630 279.4085
v 816.7639 -976.0974 298.5890
v 816.7612 -976.0949 279.4087
f 1831 1832 1833
v 812.4303 -983.4028 298.5885
v 814.5745 -979.5655 298.5888
v 814.5719 -979.5630 279.4085
f 1834 1835 1836
v 817.5429 -982.3904 298.0190
v 814.2188 -989.1585 298.5873
v 814.2188 -989.1584 298.0183
f 1837 1838 1839
v 823.0145 -974.4967 294.6057
v 822.7861 -974.8264 298.0194
v 822.7856 -974.8260 294.6056
f 1840 1841 1842
v 817.5429 -982.3905 298.5880
v 817.5429 -982.3904 298.0190
v 822.7861 -974.8264 298.0194
f 1843 1844 1845
v 819.3712 -972.0219 294.6065
v 823.0151 -974.4972 298.5885
v 823.0145 -974.4967 294.6057
f 1846 1847 1848
v 816.6540 -976.0221 298.5890
v 819.3717 -972.0224 298.5893
v 819.3712 -972.0219 294.6065
f 1849 1850 1851
v 820.2609 -966.8405 279.4097
v 823.3461 -963.4566 294.6073
v 823.3440 -963.4547 279.4098
f 1852 1853 1854
v 817.0915 -970.7328 279.4095
v 820.2630 -966.8423 294.6072
v 820.2609 -966.8405 279.4097
f 1855 1856 1857
v 814.5882 -974.2121 279.4093
v 817.0937 -970.7348 294.6070
v 817.0915 -970.7328 279.4095
f 1858 1859 1860
v 816.6970 -975.7557 279.4088
v 814.5903 -974.2141 294.6068
v 814.5882 -974.2121 279.4093
f 1861 1862 1863
v 816.5725 -975.9664 279.4088
v 816.6992 -975.7577 294.6063
v 816.6970 -975.7557 279.4088
f 1864 1865 1866
v 829.1688 -979.1612 279.4067
v 828.6140 -978.7856 294.6042
v 828.6118 -978.7836 279.4068
f 1867 1868 1869
v 833.4632 -973.4137 279.4070
v 829.1710 -979.1632 294.6041
v 829.1688 -979.1612 279.4067
f 1870 1871 1872
v 823.3440 -963.4547 279.4098
v 833.4653 -973.4157 294.6045
v 833.4632 -973.4137 279.4070
f 1873 1874 1875
v 827.6460 -982.8351 279.4063
v 832.3582 -985.9580 298.0165
v 832.3556 -985.9556 279.4052
f 1876 1877 1878
v 827.6851 -982.7771 279.4063
v 827.6486 -982.8375 298.0176
v 827.6460 -982.8351 279.4063
f 1879 1880 1881
v 828.6140 -978.7856 294.6042
v 826.4650 -981.9493 298.0179
v 826.4624 -981.9469 279.4066
f 1882 1883 1884
v 832.3556 -985.9556 279.4052
v 826.2381 -994.9676 298.0159
v 826.2355 -994.9651 279.4046
f 1885 1886 1887
v 822.7856 -974.8260 294.6056
v 828.6145 -978.7861 298.0181
v 828.6140 -978.7856 294.6042
f 1888 1889 1890
v 810.0788 -987.5129 294.7952
v 810.4392 -986.8143 298.5882
v 810.4387 -986.8139 294.7953
f 1891 1892 1893
v 813.9529 -989.6983 294.7944
v 814.2188 -989.1584 298.0183
v 814.2183 -989.1580 294.7944
f 1894 1895 1896
v 813.9534 -989.6987 298.0183
v 813.9529 -989.6983 294.7944
v 822.1204 -993.2011 294.7928
f 1897 1898 1899
v 814.2188 -989.1584 298.0183
v 810.0793 -987.5134 298.5881
v 810.0788 -987.5129 294.7952
f 1900 1901 1902
