# Grid Center: 2616200, 1264800
# Global Anchor: 7.64977475454284, 47.53283995868075, 0.0

g building_ID_96C3AA81-E8BF-42DE-AA2F-84C92E2705D7
v 249.0677 -123.9254 288.5550
v 260.8471 -129.6760 288.5545
v 262.7597 -125.7571 290.2134
f 1 2 3
v 262.7597 -125.7571 290.2134
v 250.9802 -120.0066 290.2140
v 249.0677 -123.9254 288.5550
f 4 5 6
v 260.8471 -129.6760 287.5895
v 260.8471 -129.6760 288.5545
v 249.0677 -123.9254 288.5550
f 7 8 9
v 264.1442 -122.9209 288.5545
v 252.3647 -117.1704 288.5550
v 250.9802 -120.0066 290.2140
f 10 11 12
v 250.9802 -120.0066 290.2140
v 262.7597 -125.7571 290.2134
v 264.1442 -122.9209 288.5545
f 13 14 15
v 252.3646 -117.1704 287.4061
v 252.3647 -117.1704 288.5550
v 264.1442 -122.9209 288.5545
f 16 17 18
v 262.4446 -130.6052 287.5594
v 228.5442 -114.0546 287.5611
v 224.9867 -121.3409 286.7451
f 19 20 21
v 224.9867 -121.3409 286.7451
v 258.8327 -138.0035 286.7304
v 262.4446 -130.6052 287.5594
f 22 23 24
v 262.5716 -117.4987 286.4987
v 266.8154 -121.6521 286.5635
v 267.6209 -120.0022 286.4995
f 25 26 27
v 266.8154 -121.6521 286.5635
v 262.5716 -117.4987 286.4987
v 261.7402 -119.1745 286.5637
f 28 29 30
v 244.0583 -106.5002 286.4376
v 261.0878 -116.3267 286.4848
v 248.5603 -108.7262 286.4384
f 31 32 33
v 261.0878 -116.3267 286.4848
v 234.2484 -105.7519 286.5650
v 260.0773 -118.3620 286.5638
f 34 35 36
v 244.0583 -106.5002 286.4376
v 244.2685 -106.0757 286.4216
v 236.0593 -102.0428 286.4210
f 37 38 39
v 244.0583 -106.5002 286.4376
v 234.2484 -105.7519 286.5650
v 261.0878 -116.3267 286.4848
f 40 41 42
v 244.0583 -106.5002 286.4376
v 236.0593 -102.0428 286.4210
v 234.2484 -105.7519 286.5650
f 43 44 45
v 260.0340 -118.4499 284.4429
v 260.0341 -118.4499 286.5998
v 260.9407 -118.8993 283.9069
f 46 47 48
v 260.0337 -118.4499 277.9791
v 260.0338 -118.4499 282.2869
v 261.6914 -119.2724 277.9790
f 49 50 51
v 261.6919 -119.2724 286.6037
v 261.6917 -119.2724 283.3698
v 260.0341 -118.4499 286.5998
f 52 53 54
v 261.6914 -119.2724 277.9790
v 260.9407 -118.8993 283.9069
v 261.6916 -119.2723 280.1349
f 55 56 57
v 262.5714 -117.4987 283.3028
v 262.5716 -117.4987 286.4987
v 265.4506 -118.9264 283.0377
f 58 59 60
v 262.5711 -117.4987 277.9790
v 262.5714 -117.4987 283.3028
v 265.4506 -118.9264 283.0377
f 61 62 63
v 267.6204 -120.0023 277.9788
v 262.5711 -117.4987 277.9790
v 265.4506 -118.9264 283.0377
f 64 65 66
v 267.6209 -120.0022 286.4995
v 265.4506 -118.9264 283.0377
v 262.5716 -117.4987 286.4987
f 67 68 69
v 265.4506 -118.9264 283.0377
v 267.6209 -120.0022 286.4995
v 267.6206 -120.0023 282.7716
f 70 71 72
v 267.6206 -120.0023 282.7716
v 267.6204 -120.0023 277.9788
v 265.4506 -118.9264 283.0377
f 73 74 75
v 248.5603 -108.7262 286.4384
v 261.0873 -116.3268 277.9791
v 248.5598 -108.7263 277.9797
f 76 77 78
v 261.0878 -116.3267 286.4848
v 261.0875 -116.3267 281.1690
v 248.5603 -108.7262 286.4384
f 79 80 81
v 248.5603 -108.7262 286.4384
v 261.0875 -116.3267 281.1690
v 261.0873 -116.3268 277.9791
f 82 83 84
v 248.5603 -108.7262 286.4384
v 244.0578 -106.5002 277.9799
v 244.0583 -106.5002 286.4376
f 85 86 87
v 248.5598 -108.7263 277.9797
v 244.0578 -106.5002 277.9799
v 248.5603 -108.7262 286.4384
f 88 89 90
v 244.2680 -106.0758 277.9799
v 244.2685 -106.0757 286.4216
v 244.0578 -106.5002 277.9799
f 91 92 93
v 244.2685 -106.0757 286.4216
v 244.0583 -106.5002 286.4376
v 244.0578 -106.5002 277.9799
f 94 95 96
v 260.8471 -129.6760 287.5895
v 264.4164 -126.5665 288.5544
v 262.7596 -125.7572 288.5545
f 97 98 99
v 249.0676 -123.9254 287.5900
v 262.4446 -130.6052 287.5594
v 260.8471 -129.6760 287.5895
f 100 101 102
v 264.4164 -126.5665 288.5544
v 260.8471 -129.6760 287.5895
v 262.4446 -130.6052 287.5594
f 103 104 105
v 249.0676 -123.9254 287.5900
v 250.9801 -120.0066 288.5550
v 230.5161 -110.0159 288.5560
f 106 107 108
v 262.4446 -130.6052 287.5594
v 249.0676 -123.9254 287.5900
v 228.5442 -114.0546 287.5611
f 109 110 111
v 230.5161 -110.0159 288.5560
v 228.5442 -114.0546 287.5611
v 249.0676 -123.9254 287.5900
f 112 113 114
v 230.5161 -110.0159 288.5560
v 234.1297 -105.9956 286.6630
v 232.7965 -105.3451 286.6641
f 115 116 117
v 264.1441 -122.9208 287.4055
v 260.0341 -118.4499 286.5998
v 252.3646 -117.1704 287.4061
f 118 119 120
v 230.5161 -110.0159 288.5560
v 250.9801 -120.0066 288.5550
v 252.3646 -117.1704 287.4061
f 121 122 123
v 252.3646 -117.1704 287.4061
v 234.1297 -105.9956 286.6630
v 230.5161 -110.0159 288.5560
f 124 125 126
v 260.0341 -118.4499 286.5998
v 234.2484 -105.7519 286.5650
v 234.1297 -105.9956 286.6630
f 127 128 129
v 234.2484 -105.7519 286.5650
v 260.0341 -118.4499 286.5998
v 260.0773 -118.3620 286.5638
f 130 131 132
v 260.0341 -118.4499 286.5998
v 234.1297 -105.9956 286.6630
v 252.3646 -117.1704 287.4061
f 133 134 135
v 266.8154 -121.6521 286.5635
v 261.6919 -119.2724 286.6037
v 264.1441 -122.9208 287.4055
f 136 137 138
v 264.1441 -122.9208 287.4055
v 262.7596 -125.7572 288.5545
v 264.4164 -126.5665 288.5544
f 139 140 141
v 260.0341 -118.4499 286.5998
v 264.1441 -122.9208 287.4055
v 261.6919 -119.2724 286.6037
f 142 143 144
v 266.8154 -121.6521 286.5635
v 264.1441 -122.9208 287.4055
v 264.4164 -126.5665 288.5544
f 145 146 147
v 266.8154 -121.6521 286.5635
v 261.7402 -119.1745 286.5637
v 261.6919 -119.2724 286.6037
f 148 149 150
v 232.9153 -105.1013 290.3810
v 220.0744 -118.9238 290.3812
v 224.9869 -121.3409 290.3810
f 151 152 153
v 220.0744 -118.9238 290.3812
v 232.9153 -105.1013 290.3810
v 227.9959 -102.6992 290.3812
f 154 155 156
v 227.9956 -102.6992 286.6493
v 227.9959 -102.6992 290.3812
v 232.9152 -105.1013 286.6491
f 157 158 159
v 224.5468 -109.7638 287.0633
v 220.0743 -118.9238 286.5723
v 220.0744 -118.9238 290.3812
f 160 161 162
v 227.9956 -102.6992 286.6493
v 224.5468 -109.7638 287.0633
v 227.9959 -102.6992 290.3812
f 163 164 165
v 220.0744 -118.9238 290.3812
v 227.9959 -102.6992 290.3812
v 224.5468 -109.7638 287.0633
f 166 167 168
v 220.0743 -118.9238 286.5723
v 216.1958 -105.6865 287.0637
v 211.6894 -114.7974 286.5747
f 169 170 171
v 216.1958 -105.6865 287.0637
v 220.0743 -118.9238 286.5723
v 224.5468 -109.7638 287.0633
f 172 173 174
v 232.7965 -105.3451 286.6641
v 232.9152 -105.1013 286.6491
v 230.5161 -110.0159 288.5560
f 175 176 177
v 232.9153 -105.1013 290.3810
v 230.5161 -110.0159 288.5560
v 232.9152 -105.1013 286.6491
f 178 179 180
v 228.5442 -114.0546 287.5611
v 230.5161 -110.0159 288.5560
v 224.9869 -121.3409 290.3810
f 181 182 183
v 232.9153 -105.1013 290.3810
v 224.9869 -121.3409 290.3810
v 230.5161 -110.0159 288.5560
f 184 185 186
v 224.9869 -121.3409 290.3810
v 224.9867 -121.3409 286.7451
v 228.5442 -114.0546 287.5611
f 187 188 189
v 234.1297 -105.9956 286.6630
v 236.0593 -102.0428 286.4210
v 236.0593 -102.0428 286.4320
f 190 191 192
v 236.0593 -102.0428 286.4210
v 234.1297 -105.9956 286.6630
v 234.2484 -105.7519 286.5650
f 193 194 195
v 234.1297 -105.9956 286.6630
v 236.0593 -102.0428 286.4320
v 232.9152 -105.1013 286.6491
f 196 197 198
v 227.9956 -102.6992 286.6493
v 232.9152 -105.1013 286.6491
v 236.0593 -102.0428 286.4320
f 199 200 201
v 232.9152 -105.1013 286.6491
v 232.7965 -105.3451 286.6641
v 234.1297 -105.9956 286.6630
f 202 203 204
v 216.1958 -105.6865 287.0637
v 227.9956 -102.6992 286.6493
v 221.5286 -94.9049 286.4307
f 205 206 207
v 236.0593 -102.0428 286.4320
v 221.5286 -94.9049 286.4307
v 227.9956 -102.6992 286.6493
f 208 209 210
v 227.9956 -102.6992 286.6493
v 216.1958 -105.6865 287.0637
v 224.5468 -109.7638 287.0633
f 211 212 213
v 250.9801 -120.0066 288.5550
v 249.0676 -123.9254 287.5900
v 249.0677 -123.9254 288.5550
f 214 215 216
v 250.9802 -120.0066 290.2140
v 250.9801 -120.0066 288.5550
v 249.0677 -123.9254 288.5550
f 217 218 219
v 250.9801 -120.0066 288.5550
v 252.3647 -117.1704 288.5550
v 252.3646 -117.1704 287.4061
f 220 221 222
v 250.9802 -120.0066 290.2140
v 252.3647 -117.1704 288.5550
v 250.9801 -120.0066 288.5550
f 223 224 225
v 262.7596 -125.7572 288.5545
v 264.1441 -122.9208 287.4055
v 264.1442 -122.9209 288.5545
f 226 227 228
v 262.7597 -125.7571 290.2134
v 262.7596 -125.7572 288.5545
v 264.1442 -122.9209 288.5545
f 229 230 231
v 260.8471 -129.6760 287.5895
v 262.7596 -125.7572 288.5545
v 260.8471 -129.6760 288.5545
f 232 233 234
v 262.7597 -125.7571 290.2134
v 260.8471 -129.6760 288.5545
v 262.7596 -125.7572 288.5545
f 235 236 237
v 261.6917 -119.2724 283.3698
v 261.7402 -119.1745 286.5637
v 262.5714 -117.4987 283.3028
f 238 239 240
v 261.6919 -119.2724 286.6037
v 261.7402 -119.1745 286.5637
v 261.6917 -119.2724 283.3698
f 241 242 243
v 262.5716 -117.4987 286.4987
v 262.5714 -117.4987 283.3028
v 261.7402 -119.1745 286.5637
f 244 245 246
v 261.6916 -119.2723 280.1349
v 261.6917 -119.2724 283.3698
v 262.5714 -117.4987 283.3028
f 247 248 249
v 262.5711 -117.4987 277.9790
v 261.6916 -119.2723 280.1349
v 262.5714 -117.4987 283.3028
f 250 251 252
v 262.5711 -117.4987 277.9790
v 261.6914 -119.2724 277.9790
v 261.6916 -119.2723 280.1349
f 253 254 255
v 260.0338 -118.4499 282.2869
v 260.0337 -118.4499 277.9791
v 261.0875 -116.3267 281.1690
f 256 257 258
v 260.0337 -118.4499 277.9791
v 261.0873 -116.3268 277.9791
v 261.0875 -116.3267 281.1690
f 259 260 261
v 260.0338 -118.4499 282.2869
v 261.0875 -116.3267 281.1690
v 261.0878 -116.3267 286.4848
f 262 263 264
v 260.0340 -118.4499 284.4429
v 260.0773 -118.3620 286.5638
v 260.0341 -118.4499 286.5998
f 265 266 267
v 260.0340 -118.4499 284.4429
v 261.0878 -116.3267 286.4848
v 260.0773 -118.3620 286.5638
f 268 269 270
v 260.0338 -118.4499 282.2869
v 261.0878 -116.3267 286.4848
v 260.0340 -118.4499 284.4429
f 271 272 273
v 267.6206 -120.0023 282.7716
v 264.4158 -126.5667 277.9788
v 267.6204 -120.0023 277.9788
f 274 275 276
v 266.8154 -121.6521 286.5635
v 267.6206 -120.0023 282.7716
v 267.6209 -120.0022 286.4995
f 277 278 279
v 262.4446 -130.6052 287.5594
v 266.8154 -121.6521 286.5635
v 264.4164 -126.5665 288.5544
f 280 281 282
v 267.6206 -120.0023 282.7716
v 262.4446 -130.6052 287.5594
v 264.4158 -126.5667 277.9788
f 283 284 285
v 262.4440 -130.6052 277.9788
v 264.4158 -126.5667 277.9788
v 262.4446 -130.6052 287.5594
f 286 287 288
v 262.4440 -130.6052 277.9788
v 258.8327 -138.0035 286.7304
v 258.8323 -138.0035 277.9788
f 289 290 291
v 262.4440 -130.6052 277.9788
v 262.4446 -130.6052 287.5594
v 258.8327 -138.0035 286.7304
f 292 293 294
v 266.8154 -121.6521 286.5635
v 262.4446 -130.6052 287.5594
v 267.6206 -120.0023 282.7716
f 295 296 297
v 234.7267 -101.3883 277.9804
v 221.5286 -94.9049 286.4307
v 236.0593 -102.0428 286.4210
f 298 299 300
v 236.0593 -102.0428 286.4320
v 236.0593 -102.0428 286.4210
v 221.5286 -94.9049 286.4307
f 301 302 303
v 221.5283 -94.9050 277.9810
v 221.5286 -94.9049 286.4307
v 234.7267 -101.3883 277.9804
f 304 305 306
v 244.2685 -106.0757 286.4216
v 234.7267 -101.3883 277.9804
v 236.0593 -102.0428 286.4210
f 307 308 309
v 244.2685 -106.0757 286.4216
v 244.2680 -106.0758 277.9799
v 234.7267 -101.3883 277.9804
f 310 311 312
v 264.4158 -126.5667 277.9788
v 261.6914 -119.2724 277.9790
v 267.6204 -120.0023 277.9788
f 313 314 315
v 216.1954 -105.6866 277.9810
v 260.0337 -118.4499 277.9791
v 264.4158 -126.5667 277.9788
f 316 317 318
v 260.0337 -118.4499 277.9791
v 261.6914 -119.2724 277.9790
v 264.4158 -126.5667 277.9788
f 319 320 321
v 264.4158 -126.5667 277.9788
v 262.4440 -130.6052 277.9788
v 216.1954 -105.6866 277.9810
f 322 323 324
v 262.5711 -117.4987 277.9790
v 267.6204 -120.0023 277.9788
v 261.6914 -119.2724 277.9790
f 325 326 327
v 222.8452 -120.2873 277.9805
v 220.0738 -118.9238 277.9806
v 216.1954 -105.6866 277.9810
f 328 329 330
v 211.6890 -114.7974 277.9810
v 216.1954 -105.6866 277.9810
v 220.0738 -118.9238 277.9806
f 331 332 333
v 258.8323 -138.0035 277.9788
v 222.8452 -120.2873 277.9805
v 216.1954 -105.6866 277.9810
f 334 335 336
v 244.0578 -106.5002 277.9799
v 260.0337 -118.4499 277.9791
v 216.1954 -105.6866 277.9810
f 337 338 339
v 216.1954 -105.6866 277.9810
v 262.4440 -130.6052 277.9788
v 258.8323 -138.0035 277.9788
f 340 341 342
v 261.0873 -116.3268 277.9791
v 244.0578 -106.5002 277.9799
v 248.5598 -108.7263 277.9797
f 343 344 345
v 244.0578 -106.5002 277.9799
v 216.1954 -105.6866 277.9810
v 234.7267 -101.3883 277.9804
f 346 347 348
v 221.5283 -94.9050 277.9810
v 234.7267 -101.3883 277.9804
v 216.1954 -105.6866 277.9810
f 349 350 351
v 244.2680 -106.0758 277.9799
v 244.0578 -106.5002 277.9799
v 234.7267 -101.3883 277.9804
f 352 353 354
v 244.0578 -106.5002 277.9799
v 261.0873 -116.3268 277.9791
v 260.0337 -118.4499 277.9791
f 355 356 357
v 221.5286 -94.9049 286.4307
v 216.1954 -105.6866 277.9810
v 211.6890 -114.7974 277.9810
f 358 359 360
v 211.6894 -114.7974 286.5747
v 216.1958 -105.6865 287.0637
v 211.6890 -114.7974 277.9810
f 361 362 363
v 216.1954 -105.6866 277.9810
v 221.5286 -94.9049 286.4307
v 221.5283 -94.9050 277.9810
f 364 365 366
v 216.1958 -105.6865 287.0637
v 221.5286 -94.9049 286.4307
v 211.6890 -114.7974 277.9810
f 367 368 369
v 220.0744 -118.9238 290.3812
v 224.9867 -121.3409 286.7451
v 224.9869 -121.3409 290.3810
f 370 371 372
v 224.9867 -121.3409 286.7451
v 258.8323 -138.0035 277.9788
v 258.8327 -138.0035 286.7304
f 373 374 375
v 258.8323 -138.0035 277.9788
v 224.9867 -121.3409 286.7451
v 222.8452 -120.2873 277.9805
f 376 377 378
v 224.9867 -121.3409 286.7451
v 220.0743 -118.9238 286.5723
v 222.8452 -120.2873 277.9805
f 379 380 381
v 211.6890 -114.7974 277.9810
v 220.0743 -118.9238 286.5723
v 211.6894 -114.7974 286.5747
f 382 383 384
v 220.0743 -118.9238 286.5723
v 220.0738 -118.9238 277.9806
v 222.8452 -120.2873 277.9805
f 385 386 387
v 220.0743 -118.9238 286.5723
v 211.6890 -114.7974 277.9810
v 220.0738 -118.9238 277.9806
f 388 389 390
v 220.0744 -118.9238 290.3812
v 220.0743 -118.9238 286.5723
v 224.9867 -121.3409 286.7451
f 391 392 393
v 260.8471 -129.6760 287.5895
v 249.0677 -123.9254 288.5550
v 249.0676 -123.9254 287.5900
f 394 395 396
v 252.3646 -117.1704 287.4061
v 264.1442 -122.9209 288.5545
v 264.1441 -122.9208 287.4055
f 397 398 399
v 260.9407 -118.8993 283.9069
v 260.0338 -118.4499 282.2869
v 260.0340 -118.4499 284.4429
f 400 401 402
v 260.0338 -118.4499 282.2869
v 260.9407 -118.8993 283.9069
v 261.6914 -119.2724 277.9790
f 403 404 405
v 261.6917 -119.2724 283.3698
v 260.9407 -118.8993 283.9069
v 260.0341 -118.4499 286.5998
f 406 407 408
v 260.9407 -118.8993 283.9069
v 261.6917 -119.2724 283.3698
v 261.6916 -119.2723 280.1349
f 409 410 411
v 227.9959 -102.6992 290.3812
v 232.9153 -105.1013 290.3810
v 232.9152 -105.1013 286.6491
f 412 413 414

g building_ID_9B51DB5B-8080-4A89-B0F0-0C19C1A648F6
v 196.6169 -95.4763 278.0399
v 200.0284 -97.1664 278.0397
v 193.6668 -109.7102 278.0396
f 415 416 417
v 196.6169 -95.4763 278.0399
v 186.9181 -106.2881 278.0399
v 193.1296 -93.7489 278.0400
f 418 419 420
v 186.9181 -106.2881 278.0399
v 196.6169 -95.4763 278.0399
v 193.6668 -109.7102 278.0396
f 421 422 423
v 196.8480 -103.4377 287.7263
v 190.2739 -107.9890 289.1115
v 190.3249 -108.0151 289.0904
f 424 425 426
v 200.0288 -97.1663 287.7263
v 196.6174 -95.4761 289.1115
v 196.8480 -103.4377 287.7263
f 427 428 429
v 190.2739 -107.9890 289.1115
v 196.8480 -103.4377 287.7263
v 196.6174 -95.4761 289.1115
f 430 431 432
v 196.8480 -103.4377 287.7263
v 190.3249 -108.0151 289.0904
v 193.6673 -109.7101 287.7263
f 433 434 435
v 188.8639 -107.2742 288.5985
v 190.2739 -107.9890 289.1115
v 196.6174 -95.4761 289.1115
f 436 437 438
v 193.1301 -93.7488 287.8476
v 188.8639 -107.2742 288.5985
v 196.6174 -95.4761 289.1115
f 439 440 441
v 186.9185 -106.2880 287.8896
v 188.8639 -107.2742 288.5985
v 193.1301 -93.7488 287.8476
f 442 443 444
v 190.3249 -108.0151 289.0904
v 190.3257 -108.0162 286.3165
v 193.6673 -109.7101 287.7263
f 445 446 447
v 193.6672 -109.7101 285.1164
v 193.6673 -109.7101 287.7263
v 190.7712 -108.2413 286.1565
f 448 449 450
v 193.6672 -109.7101 285.1164
v 200.0287 -97.1663 285.1164
v 196.8480 -103.4377 287.7263
f 451 452 453
v 193.6673 -109.7101 287.7263
v 193.6672 -109.7101 285.1164
v 196.8480 -103.4377 287.7263
f 454 455 456
v 186.9185 -106.2880 287.6506
v 190.2748 -107.9890 286.3016
v 190.2739 -107.9890 289.1115
f 457 458 459
v 186.9185 -106.2880 287.6506
v 187.3558 -106.5092 285.4497
v 190.2748 -107.9890 286.3016
f 460 461 462
v 186.9184 -106.2881 285.3217
v 187.3558 -106.5092 285.4497
v 186.9185 -106.2880 287.6506
f 463 464 465
v 200.3450 -97.3232 278.1296
v 200.3453 -97.3231 285.0034
v 188.1192 -122.0011 284.9204
f 466 467 468
v 190.3249 -108.0151 289.0904
v 190.2739 -107.9890 289.1115
v 190.2748 -107.9890 286.3016
f 469 470 471
v 190.2748 -107.9890 286.3016
v 190.3257 -108.0162 286.3165
v 190.3249 -108.0151 289.0904
f 472 473 474
v 186.9181 -106.2881 278.1299
v 193.6668 -109.7102 278.0396
v 193.6668 -109.7102 278.1296
f 475 476 477
v 193.6668 -109.7102 278.0396
v 186.9181 -106.2881 278.1299
v 186.9181 -106.2881 278.0399
f 478 479 480
v 200.0284 -97.1664 278.1296
v 193.6668 -109.7102 278.1296
v 200.0284 -97.1664 278.0397
f 481 482 483
v 200.0284 -97.1664 278.0397
v 193.6668 -109.7102 278.1296
v 193.6668 -109.7102 278.0396
f 484 485 486
v 200.0284 -97.1664 278.1296
v 200.3450 -97.3232 278.1296
v 188.1189 -122.0012 278.1296
f 487 488 489
v 186.9181 -106.2881 278.1299
v 193.6668 -109.7102 278.1296
v 188.1189 -122.0012 278.1296
f 490 491 492
v 200.0284 -97.1664 278.1296
v 188.1189 -122.0012 278.1296
v 193.6668 -109.7102 278.1296
f 493 494 495
v 186.9181 -106.2881 278.1299
v 188.1189 -122.0012 278.1296
v 183.8704 -120.7448 278.1297
f 496 497 498
v 183.8704 -120.7448 278.1297
v 184.8177 -110.5275 278.1299
v 186.9181 -106.2881 278.1299
f 499 500 501
v 183.8704 -120.7448 278.1297
v 180.2813 -119.6851 278.1298
v 184.8177 -110.5275 278.1299
f 502 503 504
v 183.8707 -120.7447 286.3164
v 187.3558 -106.5092 285.4497
v 184.8180 -110.5274 285.3337
f 505 506 507
v 183.8707 -120.7447 286.3164
v 190.3257 -108.0162 286.3165
v 190.2748 -107.9890 286.3016
f 508 509 510
v 180.2816 -119.6851 285.3586
v 183.8707 -120.7447 286.3164
v 184.8180 -110.5274 285.3337
f 511 512 513
v 186.9184 -106.2881 285.3217
v 184.8180 -110.5274 285.3337
v 187.3558 -106.5092 285.4497
f 514 515 516
v 183.8707 -120.7447 286.3164
v 190.2748 -107.9890 286.3016
v 187.3558 -106.5092 285.4497
f 517 518 519
v 200.3453 -97.3231 285.0034
v 200.0287 -97.1663 285.1164
v 193.6672 -109.7101 285.1164
f 520 521 522
v 188.1192 -122.0011 284.9204
v 200.3453 -97.3231 285.0034
v 193.6672 -109.7101 285.1164
f 523 524 525
v 183.8707 -120.7447 286.3164
v 190.7712 -108.2413 286.1565
v 190.3257 -108.0162 286.3165
f 526 527 528
v 188.1192 -122.0011 284.9204
v 193.6672 -109.7101 285.1164
v 190.7712 -108.2413 286.1565
f 529 530 531
v 183.8707 -120.7447 286.3164
v 188.1192 -122.0011 284.9204
v 190.7712 -108.2413 286.1565
f 532 533 534
v 188.1189 -122.0012 278.1296
v 188.1192 -122.0011 284.9204
v 183.8707 -120.7447 286.3164
f 535 536 537
v 183.8704 -120.7448 278.1297
v 188.1189 -122.0012 278.1296
v 183.8707 -120.7447 286.3164
f 538 539 540
v 180.2813 -119.6851 278.1298
v 183.8704 -120.7448 278.1297
v 180.2816 -119.6851 285.3586
f 541 542 543
v 183.8707 -120.7447 286.3164
v 180.2816 -119.6851 285.3586
v 183.8704 -120.7448 278.1297
f 544 545 546
v 196.6174 -95.4761 289.1115
v 200.0287 -97.1663 285.1164
v 193.1301 -93.7488 287.8476
f 547 548 549
v 200.0287 -97.1663 285.1164
v 193.1299 -93.7489 285.2877
v 193.1301 -93.7488 287.8476
f 550 551 552
v 196.6169 -95.4763 278.0399
v 193.1296 -93.7489 278.0400
v 193.1299 -93.7489 285.2877
f 553 554 555
v 200.0284 -97.1664 278.1296
v 196.6169 -95.4763 278.0399
v 193.1299 -93.7489 285.2877
f 556 557 558
v 196.6174 -95.4761 289.1115
v 200.0288 -97.1663 287.7263
v 200.0287 -97.1663 285.1164
f 559 560 561
v 200.0287 -97.1663 285.1164
v 200.0284 -97.1664 278.1296
v 193.1299 -93.7489 285.2877
f 562 563 564
v 200.0287 -97.1663 285.1164
v 200.3453 -97.3231 285.0034
v 200.3450 -97.3232 278.1296
f 565 566 567
v 200.0284 -97.1664 278.1296
v 200.0287 -97.1663 285.1164
v 200.3450 -97.3232 278.1296
f 568 569 570
v 200.0284 -97.1664 278.1296
v 200.0284 -97.1664 278.0397
v 196.6169 -95.4763 278.0399
f 571 572 573
v 186.9185 -106.2880 287.6506
v 186.9185 -106.2880 287.8896
v 193.1301 -93.7488 287.8476
f 574 575 576
v 184.8177 -110.5275 278.1299
v 180.2813 -119.6851 278.1298
v 180.2816 -119.6851 285.3586
f 577 578 579
v 180.2816 -119.6851 285.3586
v 184.8180 -110.5274 285.3337
v 184.8177 -110.5275 278.1299
f 580 581 582
v 184.8180 -110.5274 285.3337
v 186.9181 -106.2881 278.1299
v 184.8177 -110.5275 278.1299
f 583 584 585
v 186.9184 -106.2881 285.3217
v 186.9181 -106.2881 278.1299
v 184.8180 -110.5274 285.3337
f 586 587 588
v 186.9185 -106.2880 287.6506
v 193.1299 -93.7489 285.2877
v 186.9184 -106.2881 285.3217
f 589 590 591
v 193.1299 -93.7489 285.2877
v 186.9185 -106.2880 287.6506
v 193.1301 -93.7488 287.8476
f 592 593 594
v 193.1296 -93.7489 278.0400
v 186.9184 -106.2881 285.3217
v 193.1299 -93.7489 285.2877
f 595 596 597
v 193.1296 -93.7489 278.0400
v 186.9181 -106.2881 278.0399
v 186.9181 -106.2881 278.1299
f 598 599 600
v 193.1296 -93.7489 278.0400
v 186.9181 -106.2881 278.1299
v 186.9184 -106.2881 285.3217
f 601 602 603
v 190.7712 -108.2413 286.1565
v 193.6673 -109.7101 287.7263
v 190.3257 -108.0162 286.3165
f 604 605 606
v 200.0288 -97.1663 287.7263
v 196.8480 -103.4377 287.7263
v 200.0287 -97.1663 285.1164
f 607 608 609
v 190.2739 -107.9890 289.1115
v 188.8639 -107.2742 288.5985
v 186.9185 -106.2880 287.6506
f 610 611 612
v 186.9185 -106.2880 287.6506
v 188.8639 -107.2742 288.5985
v 186.9185 -106.2880 287.8896
f 613 614 615
v 200.3450 -97.3232 278.1296
v 188.1192 -122.0011 284.9204
v 188.1189 -122.0012 278.1296
f 616 617 618

g building_ID_F57BFE42-A238-4061-BA82-416A11864DFE
v 167.1086 -113.0988 290.0399
v 91.3464 -79.4791 290.0421
v 87.8758 -93.5276 290.0419
f 619 620 621
v 91.3464 -79.4791 290.0421
v 167.1086 -113.0988 290.0399
v 170.5792 -99.0493 290.0401
f 622 623 624
v 175.9485 -77.3098 292.5702
v 96.7167 -57.7377 292.5722
v 91.3464 -79.4790 292.5720
f 625 626 627
v 91.3464 -79.4790 292.5720
v 170.5792 -99.0493 292.5701
v 175.9485 -77.3098 292.5702
f 628 629 630
v 170.5792 -99.0493 290.0401
v 170.5792 -99.0493 292.5701
v 91.3464 -79.4790 292.5720
f 631 632 633
v 96.7168 -57.7376 295.5221
v 72.1964 -89.6525 295.5220
v 87.8759 -93.5286 295.5217
f 634 635 636
v 72.1964 -89.6525 295.5220
v 96.7168 -57.7376 295.5221
v 81.0383 -53.8646 295.5224
f 637 638 639
v 72.1961 -89.6527 277.8877
v 72.1964 -89.6525 295.5220
v 81.0383 -53.8646 295.5224
f 640 641 642
v 96.7167 -57.7377 292.5722
v 96.7168 -57.7376 295.5221
v 91.3464 -79.4790 292.5720
f 643 644 645
v 87.8759 -93.5286 295.5217
v 91.3464 -79.4790 292.5720
v 96.7168 -57.7376 295.5221
f 646 647 648
v 91.3464 -79.4791 290.0421
v 91.3464 -79.4790 292.5720
v 87.8758 -93.5276 290.0419
f 649 650 651
v 87.8759 -93.5286 295.5217
v 87.8758 -93.5276 290.0419
v 91.3464 -79.4790 292.5720
f 652 653 654
v 170.5792 -99.0493 290.0401
v 171.3480 -95.9315 277.8856
v 175.9479 -77.3100 277.8857
f 655 656 657
v 171.3480 -95.9315 277.8856
v 170.5792 -99.0493 290.0401
v 167.1081 -113.0989 277.8854
f 658 659 660
v 175.9485 -77.3098 292.5702
v 170.5792 -99.0493 290.0401
v 175.9479 -77.3100 277.8857
f 661 662 663
v 167.1086 -113.0988 290.0399
v 167.1081 -113.0989 277.8854
v 170.5792 -99.0493 290.0401
f 664 665 666
v 175.9485 -77.3098 292.5702
v 170.5792 -99.0493 292.5701
v 170.5792 -99.0493 290.0401
f 667 668 669
v 96.7167 -57.7377 292.5722
v 94.1680 -57.1090 277.8878
v 81.0379 -53.8648 277.8880
f 670 671 672
v 94.1680 -57.1090 277.8878
v 96.7167 -57.7377 292.5722
v 175.9479 -77.3100 277.8857
f 673 674 675
v 81.0383 -53.8646 295.5224
v 96.7167 -57.7377 292.5722
v 81.0379 -53.8648 277.8880
f 676 677 678
v 81.0383 -53.8646 295.5224
v 96.7168 -57.7376 295.5221
v 96.7167 -57.7377 292.5722
f 679 680 681
v 96.7167 -57.7377 292.5722
v 175.9485 -77.3098 292.5702
v 175.9479 -77.3100 277.8857
f 682 683 684
v 167.1086 -113.0988 290.0399
v 87.8758 -93.5276 290.0419
v 85.3282 -92.8980 277.8874
f 685 686 687
v 72.1961 -89.6527 277.8877
v 87.8758 -93.5276 290.0419
v 72.1964 -89.6525 295.5220
f 688 689 690
v 87.8759 -93.5286 295.5217
v 72.1964 -89.6525 295.5220
v 87.8758 -93.5276 290.0419
f 691 692 693
v 87.8758 -93.5276 290.0419
v 72.1961 -89.6527 277.8877
v 85.3282 -92.8980 277.8874
f 694 695 696
v 175.9479 -77.3100 277.8857
v 85.3282 -92.8980 277.8874
v 94.1680 -57.1090 277.8878
f 697 698 699
v 94.1680 -57.1090 277.8878
v 72.1961 -89.6527 277.8877
v 81.0379 -53.8648 277.8880
f 700 701 702
v 171.3480 -95.9315 277.8856
v 85.3282 -92.8980 277.8874
v 175.9479 -77.3100 277.8857
f 703 704 705
v 94.1680 -57.1090 277.8878
v 85.3282 -92.8980 277.8874
v 72.1961 -89.6527 277.8877
f 706 707 708
v 85.3282 -92.8980 277.8874
v 171.3480 -95.9315 277.8856
v 167.1081 -113.0989 277.8854
f 709 710 711
v 170.5792 -99.0493 290.0401
v 91.3464 -79.4790 292.5720
v 91.3464 -79.4791 290.0421
f 712 713 714
v 72.1961 -89.6527 277.8877
v 81.0383 -53.8646 295.5224
v 81.0379 -53.8648 277.8880
f 715 716 717
v 167.1086 -113.0988 290.0399
v 85.3282 -92.8980 277.8874
v 167.1081 -113.0989 277.8854
f 718 719 720
