# Grid Center: 2616400, 1265000
# Global Anchor: 7.64977475454284, 47.53283995868075, 0.0

g building_ID_F648B1CF-B65D-4A72-81F0-FBC852E2517F
v 710.2680 514.5163 264.4721
v 693.0056 505.3427 264.4748
v 703.8563 519.4384 264.4725
f 1 2 3
v 686.4407 500.0844 264.4759
v 693.0056 505.3427 264.4748
v 694.4431 493.9320 264.4755
f 4 5 6
v 710.2680 514.5163 264.4721
v 694.4431 493.9320 264.4755
v 693.0056 505.3427 264.4748
f 7 8 9
v 691.4249 506.5599 264.4749
v 693.0056 505.3427 264.4748
v 686.4407 500.0844 264.4759
f 10 11 12
v 686.4421 500.0855 275.8755
v 694.4445 493.9332 275.8751
v 693.0070 505.3438 275.8744
f 13 14 15
v 710.2694 514.5174 275.8717
v 693.0070 505.3438 275.8744
v 694.4445 493.9332 275.8751
f 16 17 18
v 691.4263 506.5610 275.8745
v 686.4421 500.0855 275.8755
v 693.0070 505.3438 275.8744
f 19 20 21
v 710.2694 514.5174 275.8717
v 703.8577 519.4396 275.8721
v 693.0070 505.3438 275.8744
f 22 23 24
v 703.8563 519.4384 264.4725
v 703.8577 519.4396 275.8721
v 710.2694 514.5174 275.8717
f 25 26 27
v 693.0056 505.3427 264.4748
v 693.0070 505.3438 275.8744
v 703.8577 519.4396 275.8721
f 28 29 30
v 691.4249 506.5599 264.4749
v 691.4263 506.5610 275.8745
v 693.0070 505.3438 275.8744
f 31 32 33
v 686.4407 500.0844 264.4759
v 686.4421 500.0855 275.8755
v 691.4263 506.5610 275.8745
f 34 35 36
v 694.4431 493.9320 264.4755
v 694.4445 493.9332 275.8751
v 686.4421 500.0855 275.8755
f 37 38 39
v 710.2680 514.5163 264.4721
v 710.2694 514.5174 275.8717
v 694.4445 493.9332 275.8751
f 40 41 42
v 703.8563 519.4384 264.4725
v 710.2694 514.5174 275.8717
v 710.2680 514.5163 264.4721
f 43 44 45
v 693.0056 505.3427 264.4748
v 703.8577 519.4396 275.8721
v 703.8563 519.4384 264.4725
f 46 47 48
v 691.4249 506.5599 264.4749
v 693.0070 505.3438 275.8744
v 693.0056 505.3427 264.4748
f 49 50 51
v 686.4407 500.0844 264.4759
v 691.4263 506.5610 275.8745
v 691.4249 506.5599 264.4749
f 52 53 54
v 694.4431 493.9320 264.4755
v 686.4421 500.0855 275.8755
v 686.4407 500.0844 264.4759
f 55 56 57
v 710.2680 514.5163 264.4721
v 694.4445 493.9332 275.8751
v 694.4431 493.9320 264.4755
f 58 59 60

g building_ID_0381BCA8-5125-4FC2-BA5A-74F4DAFD2F0B
v 293.3826 332.8438 272.0089
v 311.9951 322.3171 272.0084
v 309.4823 317.8789 272.0088
f 61 62 63
v 309.4823 317.8789 272.0088
v 290.8698 328.4056 272.0092
v 293.3826 332.8438 272.0089
f 64 65 66
v 290.8701 328.4062 279.0159
v 309.4827 317.8794 279.0156
v 311.9956 322.3176 279.0152
f 67 68 69
v 311.9956 322.3176 279.0152
v 293.3830 332.8444 279.0156
v 290.8701 328.4062 279.0159
f 70 71 72
v 293.3826 332.8438 272.0089
v 293.3830 332.8444 279.0156
v 311.9956 322.3176 279.0152
f 73 74 75
v 290.8698 328.4056 272.0092
v 290.8701 328.4062 279.0159
v 293.3830 332.8444 279.0156
f 76 77 78
v 309.4823 317.8789 272.0088
v 309.4827 317.8794 279.0156
v 290.8701 328.4062 279.0159
f 79 80 81
v 311.9951 322.3171 272.0084
v 311.9956 322.3176 279.0152
v 309.4827 317.8794 279.0156
f 82 83 84
v 293.3826 332.8438 272.0089
v 311.9956 322.3176 279.0152
v 311.9951 322.3171 272.0084
f 85 86 87
v 290.8698 328.4056 272.0092
v 293.3830 332.8444 279.0156
v 293.3826 332.8438 272.0089
f 88 89 90
v 309.4823 317.8789 272.0088
v 290.8701 328.4062 279.0159
v 290.8698 328.4056 272.0092
f 91 92 93
v 311.9951 322.3171 272.0084
v 309.4827 317.8794 279.0156
v 309.4823 317.8789 272.0088
f 94 95 96

g building_ID_B7ECF2DD-C924-4C36-81A9-8050B4EB844E
v 608.0011 174.0901 282.4341
v 600.0044 180.5296 282.4348
v 597.8683 177.8773 282.4350
f 97 98 99
v 597.8683 177.8773 282.4350
v 606.5763 172.3070 282.4343
v 608.0011 174.0901 282.4341
f 100 101 102
v 600.0042 180.5294 279.7799
v 600.0044 180.5296 282.4348
v 608.0011 174.0901 282.4341
f 103 104 105
v 597.8681 177.8771 279.7801
v 597.8683 177.8773 282.4350
v 600.0044 180.5296 282.4348
f 106 107 108
v 594.2440 189.8292 268.7225
v 594.2451 189.8297 279.7801
v 610.3165 176.9868 279.7789
f 109 110 111
v 589.2463 183.5746 268.7232
v 589.2474 183.5752 279.7808
v 594.2451 189.8297 279.7801
f 112 113 114
v 597.8669 177.8766 268.7224
v 597.8681 177.8771 279.7801
v 589.2474 183.5752 279.7808
f 115 116 117
v 606.5749 172.3063 268.7218
v 606.5763 172.3070 282.4343
v 597.8681 177.8771 279.7801
f 118 119 120
v 589.2463 183.5746 268.7232
v 594.2440 189.8292 268.7225
v 597.8669 177.8766 268.7224
f 121 122 123
v 610.3153 176.9862 268.7213
v 597.8669 177.8766 268.7224
v 594.2440 189.8292 268.7225
f 124 125 126
v 597.8669 177.8766 268.7224
v 607.9996 174.0894 268.7216
v 606.5749 172.3063 268.7218
f 127 128 129
v 597.8669 177.8766 268.7224
v 610.3153 176.9862 268.7213
v 607.9996 174.0894 268.7216
f 130 131 132
v 600.0042 180.5294 279.7799
v 608.0008 174.0901 279.7792
v 610.3165 176.9868 279.7789
f 133 134 135
v 594.2451 189.8297 279.7801
v 600.0042 180.5294 279.7799
v 610.3165 176.9868 279.7789
f 136 137 138
v 597.8681 177.8771 279.7801
v 600.0042 180.5294 279.7799
v 589.2474 183.5752 279.7808
f 139 140 141
v 594.2451 189.8297 279.7801
v 589.2474 183.5752 279.7808
v 600.0042 180.5294 279.7799
f 142 143 144
v 610.3165 176.9868 279.7789
v 608.0008 174.0901 279.7792
v 607.9996 174.0894 268.7216
f 145 146 147
v 608.0008 174.0901 279.7792
v 606.5763 172.3070 282.4343
v 606.5749 172.3063 268.7218
f 148 149 150
v 600.0042 180.5294 279.7799
v 608.0011 174.0901 282.4341
v 608.0008 174.0901 279.7792
f 151 152 153
v 597.8681 177.8771 279.7801
v 600.0044 180.5296 282.4348
v 600.0042 180.5294 279.7799
f 154 155 156
v 594.2440 189.8292 268.7225
v 610.3165 176.9868 279.7789
v 610.3153 176.9862 268.7213
f 157 158 159
v 589.2463 183.5746 268.7232
v 594.2451 189.8297 279.7801
v 594.2440 189.8292 268.7225
f 160 161 162
v 597.8669 177.8766 268.7224
v 589.2474 183.5752 279.7808
v 589.2463 183.5746 268.7232
f 163 164 165
v 606.5763 172.3070 282.4343
v 597.8683 177.8773 282.4350
v 597.8681 177.8771 279.7801
f 166 167 168
v 606.5749 172.3063 268.7218
v 597.8681 177.8771 279.7801
v 597.8669 177.8766 268.7224
f 169 170 171
v 610.3165 176.9868 279.7789
v 607.9996 174.0894 268.7216
v 610.3153 176.9862 268.7213
f 172 173 174
v 608.0008 174.0901 279.7792
v 608.0011 174.0901 282.4341
v 606.5763 172.3070 282.4343
f 175 176 177
v 608.0008 174.0901 279.7792
v 606.5749 172.3063 268.7218
v 607.9996 174.0894 268.7216
f 178 179 180

g building_ID_E88524CC-1D20-490F-8896-D7DDDFDB8F8D
v 559.1117 390.9209 271.9176
v 550.4554 383.3071 271.9189
v 546.5174 387.7276 271.9189
f 181 182 183
v 546.5174 387.7276 271.9189
v 555.2844 395.2730 271.9177
v 559.1117 390.9209 271.9176
f 184 185 186
v 549.7519 388.8704 277.5164
v 548.5616 389.4866 277.5164
v 546.5178 387.7281 277.5167
f 187 188 189
v 550.4560 383.3076 277.5167
v 549.7519 388.8704 277.5164
v 546.5178 387.7281 277.5167
f 190 191 192
v 549.7519 388.8704 277.5164
v 559.1123 390.9213 277.5154
v 556.1045 394.3413 277.5155
f 193 194 195
v 548.5616 389.4866 277.5164
v 549.7519 388.8704 277.5164
v 548.9404 389.8126 277.5164
f 196 197 198
v 550.4560 383.3076 277.5167
v 559.1123 390.9213 277.5154
v 549.7519 388.8704 277.5164
f 199 200 201
v 546.5174 387.7276 271.9189
v 546.5178 387.7281 277.5167
v 548.5610 389.4861 271.9356
f 202 203 204
v 548.5616 389.4866 277.5164
v 548.5610 389.4861 271.9356
v 546.5178 387.7281 277.5167
f 205 206 207
v 555.2844 395.2730 271.9347
v 546.5174 387.7276 271.9189
v 548.5610 389.4861 271.9356
f 208 209 210
v 546.5174 387.7276 271.9189
v 555.2844 395.2730 271.9347
v 555.2844 395.2730 271.9177
f 211 212 213
v 550.4554 383.3071 271.9189
v 550.4560 383.3076 277.5167
v 546.5178 387.7281 277.5167
f 214 215 216
v 559.1117 390.9209 271.9176
v 559.1123 390.9213 277.5154
v 550.4560 383.3076 277.5167
f 217 218 219
v 549.0199 389.9534 278.7334
v 551.8945 399.1287 278.7326
v 545.7130 393.6923 278.7334
f 220 221 222
v 549.7521 388.8706 278.7334
v 556.1046 394.3414 278.7325
v 549.0199 389.9534 278.7334
f 223 224 225
v 551.8945 399.1287 278.7326
v 549.0199 389.9534 278.7334
v 556.1046 394.3414 278.7325
f 226 227 228
v 548.9406 389.8127 278.7334
v 548.9057 389.8528 278.7334
v 548.5318 389.5208 278.7334
f 229 230 231
v 549.0199 389.9534 278.7334
v 548.9406 389.8127 278.7334
v 549.7521 388.8706 278.7334
f 232 233 234
v 548.5318 389.5208 278.7334
v 548.5617 389.4866 278.7334
v 548.9406 389.8127 278.7334
f 235 236 237
v 549.0199 389.9534 278.7334
v 548.9057 389.8528 278.7334
v 548.9406 389.8127 278.7334
f 238 239 240
v 545.7124 393.6917 271.9356
v 545.7130 393.6923 278.7334
v 551.8945 399.1287 278.7326
f 241 242 243
v 549.0193 389.9529 271.9356
v 549.0199 389.9534 278.7334
v 545.7130 393.6923 278.7334
f 244 245 246
v 548.5318 389.5208 278.7334
v 548.5616 389.4866 277.5164
v 548.5617 389.4866 278.7334
f 247 248 249
v 548.5610 389.4861 271.9356
v 548.5616 389.4866 277.5164
v 548.5311 389.5202 271.9356
f 250 251 252
v 551.8938 399.1280 271.9348
v 555.2844 395.2730 271.9347
v 549.0193 389.9529 271.9356
f 253 254 255
v 549.0193 389.9529 271.9356
v 545.7124 393.6917 271.9356
v 551.8938 399.1280 271.9348
f 256 257 258
v 548.9050 389.8522 271.9356
v 555.2844 395.2730 271.9347
v 548.5610 389.4861 271.9356
f 259 260 261
v 548.5610 389.4861 271.9356
v 548.5311 389.5202 271.9356
v 548.9050 389.8522 271.9356
f 262 263 264
v 549.0193 389.9529 271.9356
v 555.2844 395.2730 271.9347
v 548.9050 389.8522 271.9356
f 265 266 267
v 548.9404 389.8126 277.5164
v 548.9406 389.8127 278.7334
v 548.5616 389.4866 277.5164
f 268 269 270
v 549.7519 388.8704 277.5164
v 549.7521 388.8706 278.7334
v 548.9406 389.8127 278.7334
f 271 272 273
v 556.1045 394.3413 277.5155
v 556.1046 394.3414 278.7325
v 549.7519 388.8704 277.5164
f 274 275 276
v 556.1045 394.3413 277.5155
v 555.2844 395.2730 271.9347
v 551.8938 399.1280 271.9348
f 277 278 279
v 559.1117 390.9209 271.9176
v 555.2844 395.2730 271.9177
v 555.2844 395.2730 271.9347
f 280 281 282
v 556.1045 394.3413 277.5155
v 551.8938 399.1280 271.9348
v 551.8945 399.1287 278.7326
f 283 284 285
v 551.8945 399.1287 278.7326
v 556.1046 394.3414 278.7325
v 556.1045 394.3413 277.5155
f 286 287 288
v 556.1045 394.3413 277.5155
v 559.1123 390.9213 277.5154
v 559.1117 390.9209 271.9176
f 289 290 291
v 555.2844 395.2730 271.9347
v 556.1045 394.3413 277.5155
v 559.1117 390.9209 271.9176
f 292 293 294
v 548.5318 389.5208 278.7334
v 548.9057 389.8528 278.7334
v 548.9050 389.8522 271.9356
f 295 296 297
v 549.0193 389.9529 271.9356
v 548.9050 389.8522 271.9356
v 548.9057 389.8528 278.7334
f 298 299 300
v 550.4554 383.3071 271.9189
v 546.5178 387.7281 277.5167
v 546.5174 387.7276 271.9189
f 301 302 303
v 559.1117 390.9209 271.9176
v 550.4560 383.3076 277.5167
v 550.4554 383.3071 271.9189
f 304 305 306
v 545.7124 393.6917 271.9356
v 551.8945 399.1287 278.7326
v 551.8938 399.1280 271.9348
f 307 308 309
v 549.0193 389.9529 271.9356
v 545.7130 393.6923 278.7334
v 545.7124 393.6917 271.9356
f 310 311 312
v 548.5616 389.4866 277.5164
v 548.5318 389.5208 278.7334
v 548.5311 389.5202 271.9356
f 313 314 315
v 548.9406 389.8127 278.7334
v 548.5617 389.4866 278.7334
v 548.5616 389.4866 277.5164
f 316 317 318
v 549.7519 388.8704 277.5164
v 548.9406 389.8127 278.7334
v 548.9404 389.8126 277.5164
f 319 320 321
v 556.1046 394.3414 278.7325
v 549.7521 388.8706 278.7334
v 549.7519 388.8704 277.5164
f 322 323 324
v 548.5318 389.5208 278.7334
v 548.9050 389.8522 271.9356
v 548.5311 389.5202 271.9356
f 325 326 327
v 549.0193 389.9529 271.9356
v 548.9057 389.8528 278.7334
v 549.0199 389.9534 278.7334
f 328 329 330
