# Grid Center: 2616400, 1265400
# Global Anchor: 7.64977475454284, 47.53283995868075, 0.0

g building_ID_FCE77BC3-0883-49E3-BEEA-4C2AA6FD3452
v 713.3224 598.3667 262.7967
v 716.3688 602.5955 262.7959
v 727.7494 587.9602 262.7959
f 1 2 3
v 716.3688 602.5955 262.7959
v 730.8137 592.2128 262.7952
v 727.7494 587.9602 262.7959
f 4 5 6
v 716.3703 602.5969 275.1185
v 713.3238 598.3680 273.8133
v 720.5408 593.1617 273.8090
f 7 8 9
v 730.8152 592.2143 275.1178
v 720.5408 593.1617 273.8090
v 727.7507 587.9614 273.8056
f 10 11 12
v 716.3703 602.5969 275.1185
v 720.5408 593.1617 273.8090
v 730.8152 592.2143 275.1178
f 13 14 15
v 727.7494 587.9602 262.7959
v 727.7507 587.9614 273.8056
v 720.5408 593.1617 273.8090
f 16 17 18
v 727.7494 587.9602 262.7959
v 720.5408 593.1617 273.8090
v 713.3224 598.3667 262.7967
f 19 20 21
v 736.3106 599.8407 259.6570
v 698.2570 615.8114 259.6598
v 703.6290 623.2869 259.6585
f 22 23 24
v 736.3106 599.8407 259.6570
v 716.4496 602.7078 259.6590
v 698.2570 615.8114 259.6598
f 25 26 27
v 730.8133 592.2126 259.6584
v 716.3683 602.5951 259.6590
v 716.4496 602.7078 259.6590
f 28 29 30
v 736.3106 599.8407 259.6570
v 730.8133 592.2126 259.6584
v 716.4496 602.7078 259.6590
f 31 32 33
v 728.0323 605.7832 280.2637
v 730.8160 592.2150 281.3286
v 736.3133 599.8431 280.2623
f 34 35 36
v 719.8761 611.6350 280.2651
v 716.4524 602.7104 281.3132
v 728.0323 605.7832 280.2637
f 37 38 39
v 716.3711 602.5977 281.3292
v 730.8160 592.2150 281.3286
v 716.4524 602.7104 281.3132
f 40 41 42
v 728.0323 605.7832 280.2637
v 716.4524 602.7104 281.3132
v 730.8160 592.2150 281.3286
f 43 44 45
v 711.9042 605.9865 281.3135
v 716.4524 602.7104 281.3132
v 719.8761 611.6350 280.2651
f 46 47 48
v 703.6315 623.2894 280.2688
v 703.4576 612.0701 281.3129
v 711.8017 617.4276 280.2674
f 49 50 51
v 698.2597 615.8140 281.3121
v 703.4576 612.0701 281.3129
v 703.6315 623.2894 280.2688
f 52 53 54
v 711.8017 617.4276 280.2674
v 703.4576 612.0701 281.3129
v 711.9042 605.9865 281.3135
f 55 56 57
v 719.8761 611.6350 280.2651
v 711.8017 617.4276 280.2674
v 711.9042 605.9865 281.3135
f 58 59 60
v 703.6290 623.2869 259.6585
v 703.6315 623.2894 280.2688
v 711.8017 617.4276 280.2674
f 61 62 63
v 711.8017 617.4276 280.2674
v 719.8761 611.6350 280.2651
v 703.6290 623.2869 259.6585
f 64 65 66
v 736.3120 599.8419 269.9576
v 736.3106 599.8407 259.6570
v 728.0323 605.7832 280.2637
f 67 68 69
v 698.2570 615.8114 259.6598
v 698.2597 615.8140 281.3121
v 703.6315 623.2894 280.2688
f 70 71 72
v 716.4509 602.7090 269.1327
v 716.4524 602.7104 281.3132
v 711.9042 605.9865 281.3135
f 73 74 75
v 703.4576 612.0701 281.3129
v 716.4496 602.7078 259.6590
v 711.9042 605.9865 281.3135
f 76 77 78
v 711.9042 605.9865 281.3135
v 716.4496 602.7078 259.6590
v 716.4509 602.7090 269.1327
f 79 80 81
v 716.4496 602.7078 259.6590
v 703.4576 612.0701 281.3129
v 698.2570 615.8114 259.6598
f 82 83 84
v 730.8152 592.2143 275.1178
v 730.8160 592.2150 281.3286
v 716.3703 602.5969 275.1185
f 85 86 87
v 730.8133 592.2126 259.6584
v 730.8137 592.2128 262.7952
v 716.3688 602.5955 262.7959
f 88 89 90
v 736.3120 599.8419 269.9576
v 736.3133 599.8431 280.2623
v 730.8160 592.2150 281.3286
f 91 92 93
v 736.3120 599.8419 269.9576
v 730.8152 592.2143 275.1178
v 736.3106 599.8407 259.6570
f 94 95 96
v 730.8160 592.2150 281.3286
v 730.8152 592.2143 275.1178
v 736.3120 599.8419 269.9576
f 97 98 99
v 727.7507 587.9614 273.8056
v 730.8137 592.2128 262.7952
v 730.8152 592.2143 275.1178
f 100 101 102
v 736.3106 599.8407 259.6570
v 730.8137 592.2128 262.7952
v 730.8133 592.2126 259.6584
f 103 104 105
v 727.7494 587.9602 262.7959
v 730.8137 592.2128 262.7952
v 727.7507 587.9614 273.8056
f 106 107 108
v 736.3106 599.8407 259.6570
v 730.8152 592.2143 275.1178
v 730.8137 592.2128 262.7952
f 109 110 111
v 713.3238 598.3680 273.8133
v 716.4509 602.7090 269.1327
v 713.3224 598.3667 262.7967
f 112 113 114
v 716.3683 602.5951 259.6590
v 716.3688 602.5955 262.7959
v 716.4496 602.7078 259.6590
f 115 116 117
v 716.4524 602.7104 281.3132
v 716.4509 602.7090 269.1327
v 716.3711 602.5977 281.3292
f 118 119 120
v 716.4496 602.7078 259.6590
v 716.3688 602.5955 262.7959
v 716.4509 602.7090 269.1327
f 121 122 123
v 716.4509 602.7090 269.1327
v 716.3688 602.5955 262.7959
v 713.3224 598.3667 262.7967
f 124 125 126
v 713.3238 598.3680 273.8133
v 716.3703 602.5969 275.1185
v 716.4509 602.7090 269.1327
f 127 128 129
v 716.3703 602.5969 275.1185
v 716.3711 602.5977 281.3292
v 716.4509 602.7090 269.1327
f 130 131 132
v 720.5408 593.1617 273.8090
v 713.3238 598.3680 273.8133
v 713.3224 598.3667 262.7967
f 133 134 135
v 736.3106 599.8407 259.6570
v 719.8761 611.6350 280.2651
v 728.0323 605.7832 280.2637
f 136 137 138
v 703.6290 623.2869 259.6585
v 719.8761 611.6350 280.2651
v 736.3106 599.8407 259.6570
f 139 140 141
v 728.0323 605.7832 280.2637
v 736.3133 599.8431 280.2623
v 736.3120 599.8419 269.9576
f 142 143 144
v 698.2570 615.8114 259.6598
v 703.6315 623.2894 280.2688
v 703.6290 623.2869 259.6585
f 145 146 147
v 703.4576 612.0701 281.3129
v 698.2597 615.8140 281.3121
v 698.2570 615.8114 259.6598
f 148 149 150
v 730.8160 592.2150 281.3286
v 716.3711 602.5977 281.3292
v 716.3703 602.5969 275.1185
f 151 152 153
v 730.8133 592.2126 259.6584
v 716.3688 602.5955 262.7959
v 716.3683 602.5951 259.6590
f 154 155 156

g building_ID_F648B1CF-B65D-4A72-81F0-FBC852E2517F
v 710.2680 514.5163 264.4721
v 693.0056 505.3427 264.4748
v 703.8563 519.4384 264.4725
f 157 158 159
v 686.4407 500.0844 264.4759
v 693.0056 505.3427 264.4748
v 694.4431 493.9320 264.4755
f 160 161 162
v 710.2680 514.5163 264.4721
v 694.4431 493.9320 264.4755
v 693.0056 505.3427 264.4748
f 163 164 165
v 691.4249 506.5599 264.4749
v 693.0056 505.3427 264.4748
v 686.4407 500.0844 264.4759
f 166 167 168
v 686.4421 500.0855 275.8755
v 694.4445 493.9332 275.8751
v 693.0070 505.3438 275.8744
f 169 170 171
v 710.2694 514.5174 275.8717
v 693.0070 505.3438 275.8744
v 694.4445 493.9332 275.8751
f 172 173 174
v 691.4263 506.5610 275.8745
v 686.4421 500.0855 275.8755
v 693.0070 505.3438 275.8744
f 175 176 177
v 710.2694 514.5174 275.8717
v 703.8577 519.4396 275.8721
v 693.0070 505.3438 275.8744
f 178 179 180
v 703.8563 519.4384 264.4725
v 703.8577 519.4396 275.8721
v 710.2694 514.5174 275.8717
f 181 182 183
v 693.0056 505.3427 264.4748
v 693.0070 505.3438 275.8744
v 703.8577 519.4396 275.8721
f 184 185 186
v 691.4249 506.5599 264.4749
v 691.4263 506.5610 275.8745
v 693.0070 505.3438 275.8744
f 187 188 189
v 686.4407 500.0844 264.4759
v 686.4421 500.0855 275.8755
v 691.4263 506.5610 275.8745
f 190 191 192
v 694.4431 493.9320 264.4755
v 694.4445 493.9332 275.8751
v 686.4421 500.0855 275.8755
f 193 194 195
v 710.2680 514.5163 264.4721
v 710.2694 514.5174 275.8717
v 694.4445 493.9332 275.8751
f 196 197 198
v 703.8563 519.4384 264.4725
v 710.2694 514.5174 275.8717
v 710.2680 514.5163 264.4721
f 199 200 201
v 693.0056 505.3427 264.4748
v 703.8577 519.4396 275.8721
v 703.8563 519.4384 264.4725
f 202 203 204
v 691.4249 506.5599 264.4749
v 693.0070 505.3438 275.8744
v 693.0056 505.3427 264.4748
f 205 206 207
v 686.4407 500.0844 264.4759
v 691.4263 506.5610 275.8745
v 691.4249 506.5599 264.4749
f 208 209 210
v 694.4431 493.9320 264.4755
v 686.4421 500.0855 275.8755
v 686.4407 500.0844 264.4759
f 211 212 213
v 710.2680 514.5163 264.4721
v 694.4445 493.9332 275.8751
v 694.4431 493.9320 264.4755
f 214 215 216

g building_ID_DF509EAC-4041-4965-9621-2A13E703D61F
v 603.4475 594.6648 284.6327
v 603.0972 594.9207 284.7577
v 594.4648 581.7328 283.7617
f 217 218 219
v 603.4475 594.6648 284.6327
v 594.4648 581.7328 283.7617
v 603.4685 594.6487 284.6267
f 220 221 222
v 594.4648 581.7328 283.7617
v 598.2489 579.9297 282.8586
v 603.4685 594.6487 284.6267
f 223 224 225
v 598.2489 579.9297 282.8586
v 608.4693 590.9870 281.8176
v 603.4685 594.6487 284.6267
f 226 227 228
v 608.4693 590.9870 281.8176
v 598.2489 579.9297 282.8586
v 608.8854 590.6768 281.5826
f 229 230 231
v 602.9495 595.0301 284.7997
v 602.5693 595.3082 284.9017
v 594.4648 581.7328 283.7617
f 232 233 234
v 603.8149 597.7487 285.0593
v 599.9097 598.4852 284.1546
v 602.2799 595.5199 284.8267
f 235 236 237
v 602.5693 595.3082 284.9017
v 602.2799 595.5199 284.8267
v 594.4648 581.7328 283.7617
f 238 239 240
v 599.9097 598.4852 284.1546
v 594.4648 581.7328 283.7617
v 602.2799 595.5199 284.8267
f 241 242 243
v 603.0972 594.9207 284.7577
v 602.9495 595.0301 284.7997
v 594.4648 581.7328 283.7617
f 244 245 246
v 587.4140 588.5106 282.9708
v 595.8636 600.3148 283.2849
v 578.4337 595.0516 282.8920
f 247 248 249
v 595.8636 600.3148 283.2849
v 587.4140 588.5106 282.9708
v 599.9097 598.4852 284.1546
f 250 251 252
v 599.9097 598.4852 284.1546
v 593.2282 582.9542 283.6228
v 593.4993 582.6615 283.6537
f 253 254 255
v 592.9789 583.2228 283.5948
v 593.2282 582.9542 283.6228
v 599.9097 598.4852 284.1546
f 256 257 258
v 591.5247 584.6677 283.4308
v 592.9789 583.2228 283.5948
v 599.9097 598.4852 284.1546
f 259 260 261
v 599.9097 598.4852 284.1546
v 593.4993 582.6615 283.6537
v 594.4648 581.7328 283.7617
f 262 263 264
v 599.9097 598.4852 284.1546
v 590.0134 586.0527 283.2618
v 591.5247 584.6677 283.4308
f 265 266 267
v 589.8178 586.2002 283.2408
v 590.0134 586.0527 283.2618
v 599.9097 598.4852 284.1546
f 268 269 270
v 587.4140 588.5106 282.9708
v 589.8178 586.2002 283.2408
v 599.9097 598.4852 284.1546
f 271 272 273
v 569.4068 602.5038 283.6831
v 572.9783 598.9952 282.8132
v 580.3471 612.0002 283.0482
f 274 275 276
v 577.3835 613.2523 283.6814
v 569.4068 602.5038 283.6831
v 580.3471 612.0002 283.0482
f 277 278 279
v 608.8854 590.6768 281.5826
v 598.2489 579.9297 282.8586
v 610.9365 589.2363 280.7745
f 280 281 282
v 609.2635 591.0798 281.5825
v 608.8854 590.6768 281.5826
v 610.9365 589.2363 280.7745
f 283 284 285
v 598.2489 579.9297 282.8586
v 607.1854 573.1834 279.7224
v 610.9365 589.2363 280.7745
f 286 287 288
v 609.1376 591.1231 281.5825
v 608.9074 591.0178 281.5826
v 608.8854 590.6768 281.5826
f 289 290 291
v 608.8854 590.6768 281.5826
v 609.2635 591.0798 281.5825
v 609.1376 591.1231 281.5825
f 292 293 294
v 607.1854 573.1834 279.7224
v 613.9366 586.7302 279.4876
v 613.2579 587.2330 279.7556
f 295 296 297
v 613.9366 586.7302 279.4876
v 607.1854 573.1834 279.7224
v 614.6722 586.2311 279.2026
f 298 299 300
v 614.8588 586.1136 279.1316
v 614.6722 586.2311 279.2026
v 607.1854 573.1834 279.7224
f 301 302 303
v 616.1263 585.1761 278.6315
v 614.8588 586.1136 279.1316
v 607.1854 573.1834 279.7224
f 304 305 306
v 607.1854 573.1834 279.7224
v 611.3733 588.8351 280.5795
v 611.2428 588.9815 280.6415
f 307 308 309
v 611.3733 588.8351 280.5795
v 607.1854 573.1834 279.7224
v 611.7403 588.4741 280.4125
f 310 311 312
v 610.9365 589.2363 280.7745
v 607.1854 573.1834 279.7224
v 611.2428 588.9815 280.6415
f 313 314 315
v 612.1265 588.1351 280.2415
v 611.7403 588.4741 280.4125
v 607.1854 573.1834 279.7224
f 316 317 318
v 607.1854 573.1834 279.7224
v 613.2231 587.2591 279.7706
v 612.1265 588.1351 280.2415
f 319 320 321
v 607.1854 573.1834 279.7224
v 613.2579 587.2330 279.7556
v 613.2231 587.2591 279.7706
f 322 323 324
v 603.4475 594.6648 284.6327
v 603.4647 594.6499 277.4510
v 603.4434 594.6655 273.8741
f 325 326 327
v 603.4430 594.6651 270.2872
v 603.4434 594.6655 273.8741
v 603.4647 594.6499 277.4510
f 328 329 330
v 603.4659 594.6480 270.2872
v 603.4430 594.6651 270.2872
v 603.4647 594.6499 277.4510
f 331 332 333
v 598.2476 579.9282 270.2890
v 598.2489 579.9297 282.8586
v 594.4634 581.7314 270.2892
f 334 335 336
v 602.2783 595.5181 270.2872
v 603.8132 597.7470 270.2868
v 603.8149 597.7487 285.0593
f 337 338 339
v 602.2799 595.5199 284.8267
v 602.2794 595.5195 281.1338
v 603.8149 597.7487 285.0593
f 340 341 342
v 599.9083 598.4834 270.2871
v 599.9097 598.4852 284.1546
v 603.8132 597.7470 270.2868
f 343 344 345
v 603.8149 597.7487 285.0593
v 603.8132 597.7470 270.2868
v 599.9097 598.4852 284.1546
f 346 347 348
v 587.4127 588.5091 270.2892
v 587.4140 588.5106 282.9708
v 578.4337 595.0516 282.8920
f 349 350 351
v 595.2475 600.7760 270.2873
v 595.2488 600.7775 283.2759
v 595.8622 600.3133 270.2873
f 352 353 354
v 595.1896 600.8121 270.2873
v 595.1909 600.8136 283.2749
v 595.2475 600.7760 270.2873
f 355 356 357
v 580.3458 611.9987 270.2876
v 580.3471 612.0002 283.0482
v 595.1896 600.8121 270.2873
f 358 359 360
v 595.8622 600.3133 270.2873
v 595.8636 600.3148 283.2849
v 599.9083 598.4834 270.2871
f 361 362 363
v 593.2282 582.9542 283.6228
v 593.4979 582.6599 270.2892
v 593.4993 582.6615 283.6537
f 364 365 366
v 593.2282 582.9542 283.6228
v 592.9789 583.2228 283.5948
v 592.9775 583.2213 270.2892
f 367 368 369
v 593.4979 582.6599 270.2892
v 593.2282 582.9542 283.6228
v 592.9775 583.2213 270.2892
f 370 371 372
v 594.4634 581.7314 270.2892
v 594.4648 581.7328 283.7617
v 593.4993 582.6615 283.6537
f 373 374 375
v 594.4634 581.7314 270.2892
v 593.4993 582.6615 283.6537
v 593.4979 582.6599 270.2892
f 376 377 378
v 589.8165 586.1987 270.2892
v 589.8178 586.2002 283.2408
v 587.4127 588.5091 270.2892
f 379 380 381
v 587.4140 588.5106 282.9708
v 587.4127 588.5091 270.2892
v 589.8178 586.2002 283.2408
f 382 383 384
v 590.0134 586.0527 283.2618
v 589.8178 586.2002 283.2408
v 590.0121 586.0512 270.2892
f 385 386 387
v 591.5234 584.6662 270.2892
v 591.5247 584.6677 283.4308
v 590.0134 586.0527 283.2618
f 388 389 390
v 591.5234 584.6662 270.2892
v 590.0134 586.0527 283.2618
v 590.0121 586.0512 270.2892
f 391 392 393
v 591.5234 584.6662 270.2892
v 592.9775 583.2213 270.2892
v 591.5247 584.6677 283.4308
f 394 395 396
v 572.9770 598.9936 270.2896
v 572.9783 598.9952 282.8132
v 569.4055 602.5022 270.2895
f 397 398 399
v 569.4055 602.5022 270.2895
v 569.4068 602.5038 283.6831
v 577.3835 613.2523 283.6814
f 400 401 402
v 577.3822 613.2507 270.2879
v 577.3835 613.2523 283.6814
v 580.3471 612.0002 283.0482
f 403 404 405
v 578.4324 595.0501 270.2894
v 578.4337 595.0516 282.8920
v 572.9783 598.9952 282.8132
f 406 407 408
v 609.2623 591.0785 270.2869
v 609.2635 591.0798 281.5825
v 610.9365 589.2363 280.7745
f 409 410 411
v 607.1843 573.1824 270.2888
v 607.1854 573.1834 279.7224
v 598.2476 579.9282 270.2890
f 412 413 414
v 608.8842 590.6756 270.2870
v 608.8854 590.6768 281.5826
v 608.9074 591.0178 281.5826
f 415 416 417
v 609.1364 591.1219 270.2869
v 609.1376 591.1231 281.5825
v 609.2635 591.0798 281.5825
f 418 419 420
v 608.9062 591.0164 270.2870
v 608.9074 591.0178 281.5826
v 609.1376 591.1231 281.5825
f 421 422 423
v 613.9356 586.7291 270.2869
v 614.6722 586.2311 279.2026
v 614.6713 586.2300 270.2869
f 424 425 426
v 616.1254 585.1753 270.2868
v 616.1263 585.1761 278.6315
v 607.1843 573.1824 270.2888
f 427 428 429
v 616.1263 585.1761 278.6315
v 614.8579 586.1127 270.2869
v 614.8588 586.1136 279.1316
f 430 431 432
v 616.1263 585.1761 278.6315
v 616.1254 585.1753 270.2868
v 614.8579 586.1127 270.2869
f 433 434 435
v 613.2220 587.2579 270.2869
v 612.1254 588.1338 270.2869
v 613.2231 587.2591 279.7706
f 436 437 438
v 612.1254 588.1338 270.2869
v 612.1265 588.1351 280.2415
v 613.2231 587.2591 279.7706
f 439 440 441
v 611.7393 588.4729 270.2869
v 611.7403 588.4741 280.4125
v 612.1254 588.1338 270.2869
f 442 443 444
v 611.7393 588.4729 270.2869
v 611.3723 588.8339 270.2869
v 611.7403 588.4741 280.4125
f 445 446 447
v 611.3723 588.8339 270.2869
v 611.2416 588.9802 270.2869
v 611.3733 588.8351 280.5795
f 448 449 450
v 610.9353 589.2350 270.2869
v 610.9365 589.2363 280.7745
v 611.2416 588.9802 270.2869
f 451 452 453
v 610.9365 589.2363 280.7745
v 611.2428 588.9815 280.6415
v 611.2416 588.9802 270.2869
f 454 455 456
v 602.2783 595.5181 270.2872
v 595.8622 600.3133 270.2873
v 599.9083 598.4834 270.2871
f 457 458 459
v 595.8622 600.3133 270.2873
v 595.1896 600.8121 270.2873
v 595.2475 600.7760 270.2873
f 460 461 462
v 577.3822 613.2507 270.2879
v 580.3458 611.9987 270.2876
v 595.1896 600.8121 270.2873
f 463 464 465
v 587.4127 588.5091 270.2892
v 595.1896 600.8121 270.2873
v 595.8622 600.3133 270.2873
f 466 467 468
v 603.8132 597.7470 270.2868
v 602.2783 595.5181 270.2872
v 599.9083 598.4834 270.2871
f 469 470 471
v 603.0957 594.9190 270.2872
v 602.2783 595.5181 270.2872
v 602.9480 595.0284 270.2872
f 472 473 474
v 587.4127 588.5091 270.2892
v 602.2783 595.5181 270.2872
v 603.0957 594.9190 270.2872
f 475 476 477
v 602.2783 595.5181 270.2872
v 587.4127 588.5091 270.2892
v 595.8622 600.3133 270.2873
f 478 479 480
v 587.4127 588.5091 270.2892
v 569.4055 602.5022 270.2895
v 577.3822 613.2507 270.2879
f 481 482 483
v 569.4055 602.5022 270.2895
v 578.4324 595.0501 270.2894
v 572.9770 598.9936 270.2896
f 484 485 486
v 569.4055 602.5022 270.2895
v 587.4127 588.5091 270.2892
v 578.4324 595.0501 270.2894
f 487 488 489
v 577.3822 613.2507 270.2879
v 595.1896 600.8121 270.2873
v 587.4127 588.5091 270.2892
f 490 491 492
v 587.4127 588.5091 270.2892
v 590.0121 586.0512 270.2892
v 589.8165 586.1987 270.2892
f 493 494 495
v 591.5234 584.6662 270.2892
v 590.0121 586.0512 270.2892
v 598.2476 579.9282 270.2890
f 496 497 498
v 598.2476 579.9282 270.2890
v 592.9775 583.2213 270.2892
v 591.5234 584.6662 270.2892
f 499 500 501
v 598.2476 579.9282 270.2890
v 590.0121 586.0512 270.2892
v 587.4127 588.5091 270.2892
f 502 503 504
v 593.4979 582.6599 270.2892
v 592.9775 583.2213 270.2892
v 598.2476 579.9282 270.2890
f 505 506 507
v 603.4659 594.6480 270.2872
v 587.4127 588.5091 270.2892
v 603.0957 594.9190 270.2872
f 508 509 510
v 608.9062 591.0164 270.2870
v 609.1364 591.1219 270.2869
v 609.2623 591.0785 270.2869
f 511 512 513
v 608.9062 591.0164 270.2870
v 610.9353 589.2350 270.2869
v 608.8842 590.6756 270.2870
f 514 515 516
v 608.8842 590.6756 270.2870
v 612.1254 588.1338 270.2869
v 608.4680 590.9856 270.2870
f 517 518 519
v 610.9353 589.2350 270.2869
v 608.9062 591.0164 270.2870
v 609.2623 591.0785 270.2869
f 520 521 522
v 611.3723 588.8339 270.2869
v 610.9353 589.2350 270.2869
v 611.2416 588.9802 270.2869
f 523 524 525
v 611.3723 588.8339 270.2869
v 611.7393 588.4729 270.2869
v 608.8842 590.6756 270.2870
f 526 527 528
v 610.9353 589.2350 270.2869
v 611.3723 588.8339 270.2869
v 608.8842 590.6756 270.2870
f 529 530 531
v 611.7393 588.4729 270.2869
v 612.1254 588.1338 270.2869
v 608.8842 590.6756 270.2870
f 532 533 534
v 603.4659 594.6480 270.2872
v 608.4680 590.9856 270.2870
v 612.1254 588.1338 270.2869
f 535 536 537
v 598.2476 579.9282 270.2890
v 594.4634 581.7314 270.2892
v 593.4979 582.6599 270.2892
f 538 539 540
v 612.1254 588.1338 270.2869
v 598.2476 579.9282 270.2890
v 603.4659 594.6480 270.2872
f 541 542 543
v 598.2476 579.9282 270.2890
v 587.4127 588.5091 270.2892
v 603.4659 594.6480 270.2872
f 544 545 546
v 598.2476 579.9282 270.2890
v 612.1254 588.1338 270.2869
v 613.2220 587.2579 270.2869
f 547 548 549
v 603.4659 594.6480 270.2872
v 603.0957 594.9190 270.2872
v 603.4430 594.6651 270.2872
f 550 551 552
v 614.6713 586.2300 270.2869
v 614.8579 586.1127 270.2869
v 616.1254 585.1753 270.2868
f 553 554 555
v 613.9356 586.7291 270.2869
v 614.6713 586.2300 270.2869
v 616.1254 585.1753 270.2868
f 556 557 558
v 613.9356 586.7291 270.2869
v 607.1843 573.1824 270.2888
v 613.2220 587.2579 270.2869
f 559 560 561
v 598.2476 579.9282 270.2890
v 613.2220 587.2579 270.2869
v 607.1843 573.1824 270.2888
f 562 563 564
v 616.1254 585.1753 270.2868
v 607.1843 573.1824 270.2888
v 613.9356 586.7291 270.2869
f 565 566 567
v 595.1909 600.8136 283.2749
v 595.8636 600.3148 283.2849
v 595.2488 600.7775 283.2759
f 568 569 570
v 578.4337 595.0516 282.8920
v 595.8636 600.3148 283.2849
v 595.1909 600.8136 283.2749
f 571 572 573
v 572.9783 598.9952 282.8132
v 578.4337 595.0516 282.8920
v 580.3471 612.0002 283.0482
f 574 575 576
v 595.1909 600.8136 283.2749
v 580.3471 612.0002 283.0482
v 578.4337 595.0516 282.8920
f 577 578 579
v 608.8854 590.6768 281.5826
v 603.4673 594.6474 273.8671
v 603.4647 594.6499 277.4510
f 580 581 582
v 608.4693 590.9870 281.8176
v 603.4647 594.6499 277.4510
v 603.4685 594.6487 284.6267
f 583 584 585
v 603.4673 594.6474 273.8671
v 608.8854 590.6768 281.5826
v 608.4680 590.9856 270.2870
f 586 587 588
v 608.4680 590.9856 270.2870
v 603.4659 594.6480 270.2872
v 603.4673 594.6474 273.8671
f 589 590 591
v 608.8854 590.6768 281.5826
v 608.8842 590.6756 270.2870
v 608.4680 590.9856 270.2870
f 592 593 594
v 608.8854 590.6768 281.5826
v 603.4647 594.6499 277.4510
v 608.4693 590.9870 281.8176
f 595 596 597
v 613.2220 587.2579 270.2869
v 613.2579 587.2330 279.7556
v 613.9366 586.7302 279.4876
f 598 599 600
v 613.2220 587.2579 270.2869
v 613.2231 587.2591 279.7706
v 613.2579 587.2330 279.7556
f 601 602 603
v 613.9366 586.7302 279.4876
v 613.9356 586.7291 270.2869
v 613.2220 587.2579 270.2869
f 604 605 606
v 602.9495 595.0301 284.7997
v 602.2794 595.5195 281.1338
v 602.5693 595.3082 284.9017
f 607 608 609
v 602.2794 595.5195 281.1338
v 602.9495 595.0301 284.7997
v 603.0972 594.9207 284.7577
f 610 611 612
v 603.0972 594.9207 284.7577
v 603.4475 594.6648 284.6327
v 602.2794 595.5195 281.1338
f 613 614 615
v 602.2794 595.5195 281.1338
v 602.2799 595.5199 284.8267
v 602.5693 595.3082 284.9017
f 616 617 618
v 602.2794 595.5195 281.1338
v 603.4475 594.6648 284.6327
v 603.4434 594.6655 273.8741
f 619 620 621
v 602.2783 595.5181 270.2872
v 602.2794 595.5195 281.1338
v 603.4434 594.6655 273.8741
f 622 623 624
v 603.4430 594.6651 270.2872
v 603.0957 594.9190 270.2872
v 603.4434 594.6655 273.8741
f 625 626 627
v 603.4434 594.6655 273.8741
v 603.0957 594.9190 270.2872
v 602.9480 595.0284 270.2872
f 628 629 630
v 602.9480 595.0284 270.2872
v 602.2783 595.5181 270.2872
v 603.4434 594.6655 273.8741
f 631 632 633
v 603.4685 594.6487 284.6267
v 603.4647 594.6499 277.4510
v 603.4475 594.6648 284.6327
f 634 635 636
v 603.4659 594.6480 270.2872
v 603.4647 594.6499 277.4510
v 603.4673 594.6474 273.8671
f 637 638 639
v 598.2489 579.9297 282.8586
v 594.4648 581.7328 283.7617
v 594.4634 581.7314 270.2892
f 640 641 642
v 602.2783 595.5181 270.2872
v 603.8149 597.7487 285.0593
v 602.2794 595.5195 281.1338
f 643 644 645
v 587.4127 588.5091 270.2892
v 578.4337 595.0516 282.8920
v 578.4324 595.0501 270.2894
f 646 647 648
v 595.2488 600.7775 283.2759
v 595.8636 600.3148 283.2849
v 595.8622 600.3133 270.2873
f 649 650 651
v 595.1909 600.8136 283.2749
v 595.2488 600.7775 283.2759
v 595.2475 600.7760 270.2873
f 652 653 654
v 580.3471 612.0002 283.0482
v 595.1909 600.8136 283.2749
v 595.1896 600.8121 270.2873
f 655 656 657
v 595.8636 600.3148 283.2849
v 599.9097 598.4852 284.1546
v 599.9083 598.4834 270.2871
f 658 659 660
v 590.0121 586.0512 270.2892
v 589.8178 586.2002 283.2408
v 589.8165 586.1987 270.2892
f 661 662 663
v 591.5247 584.6677 283.4308
v 592.9775 583.2213 270.2892
v 592.9789 583.2228 283.5948
f 664 665 666
v 572.9783 598.9952 282.8132
v 569.4068 602.5038 283.6831
v 569.4055 602.5022 270.2895
f 667 668 669
v 569.4055 602.5022 270.2895
v 577.3835 613.2523 283.6814
v 577.3822 613.2507 270.2879
f 670 671 672
v 577.3822 613.2507 270.2879
v 580.3471 612.0002 283.0482
v 580.3458 611.9987 270.2876
f 673 674 675
v 578.4324 595.0501 270.2894
v 572.9783 598.9952 282.8132
v 572.9770 598.9936 270.2896
f 676 677 678
v 609.2623 591.0785 270.2869
v 610.9365 589.2363 280.7745
v 610.9353 589.2350 270.2869
f 679 680 681
v 607.1854 573.1834 279.7224
v 598.2489 579.9297 282.8586
v 598.2476 579.9282 270.2890
f 682 683 684
v 608.8842 590.6756 270.2870
v 608.9074 591.0178 281.5826
v 608.9062 591.0164 270.2870
f 685 686 687
v 609.1364 591.1219 270.2869
v 609.2635 591.0798 281.5825
v 609.2623 591.0785 270.2869
f 688 689 690
v 608.9062 591.0164 270.2870
v 609.1376 591.1231 281.5825
v 609.1364 591.1219 270.2869
f 691 692 693
v 614.6713 586.2300 270.2869
v 614.6722 586.2311 279.2026
v 614.8588 586.1136 279.1316
f 694 695 696
v 614.8579 586.1127 270.2869
v 614.6713 586.2300 270.2869
v 614.8588 586.1136 279.1316
f 697 698 699
v 613.9356 586.7291 270.2869
v 613.9366 586.7302 279.4876
v 614.6722 586.2311 279.2026
f 700 701 702
v 616.1263 585.1761 278.6315
v 607.1854 573.1834 279.7224
v 607.1843 573.1824 270.2888
f 703 704 705
v 611.7403 588.4741 280.4125
v 612.1265 588.1351 280.2415
v 612.1254 588.1338 270.2869
f 706 707 708
v 611.7403 588.4741 280.4125
v 611.3723 588.8339 270.2869
v 611.3733 588.8351 280.5795
f 709 710 711
v 611.3733 588.8351 280.5795
v 611.2416 588.9802 270.2869
v 611.2428 588.9815 280.6415
f 712 713 714

g building_ID_7101AFF0-C345-4C31-B1A9-00A9D4C297EB
v 646.4804 819.2239 272.1012
v 652.9211 823.2305 272.1001
v 651.8070 820.9365 272.1005
f 715 716 717
v 653.4631 815.7921 272.1010
v 651.8070 820.9365 272.1005
v 652.9211 823.2305 272.1001
f 718 719 720
v 648.1346 814.0775 272.1017
v 644.1707 820.4130 272.1013
v 646.4804 819.2239 272.1012
f 721 722 723
v 652.9211 823.2305 272.1001
v 646.4804 819.2239 272.1012
v 644.1707 820.4130 272.1013
f 724 725 726
v 653.2679 815.7297 272.1010
v 653.4631 815.7921 272.1010
v 655.7465 814.4530 272.1009
f 727 728 729
v 652.9211 823.2305 272.1001
v 655.7465 814.4530 272.1009
v 653.4631 815.7921 272.1010
f 730 731 732
v 646.9961 811.6366 272.1021
v 648.1346 814.0775 272.1017
v 653.2679 815.7297 272.1010
f 733 734 735
v 655.7465 814.4530 272.1009
v 646.9961 811.6366 272.1021
v 653.2679 815.7297 272.1010
f 736 737 738
v 644.1707 820.4130 272.1013
v 648.1346 814.0775 272.1017
v 646.9961 811.6366 272.1021
f 739 740 741
v 653.2683 815.7301 275.2549
v 655.7468 814.4536 275.2548
v 653.4635 815.7927 275.2549
f 742 743 744
v 652.9214 823.2311 275.2540
v 653.4635 815.7927 275.2549
v 655.7468 814.4536 275.2548
f 745 746 747
v 648.1350 814.0780 275.2556
v 646.9964 811.6370 275.2560
v 653.2683 815.7301 275.2549
f 748 749 750
v 655.7468 814.4536 275.2548
v 653.2683 815.7301 275.2549
v 646.9964 811.6370 275.2560
f 751 752 753
v 646.4808 819.2243 275.2551
v 651.8073 820.9371 275.2544
v 652.9214 823.2311 275.2540
f 754 755 756
v 653.4635 815.7927 275.2549
v 652.9214 823.2311 275.2540
v 651.8073 820.9371 275.2544
f 757 758 759
v 644.1710 820.4135 275.2552
v 648.1350 814.0780 275.2556
v 646.4808 819.2243 275.2551
f 760 761 762
v 652.9214 823.2311 275.2540
v 644.1710 820.4135 275.2552
v 646.4808 819.2243 275.2551
f 763 764 765
v 646.9964 811.6370 275.2560
v 648.1350 814.0780 275.2556
v 644.1710 820.4135 275.2552
f 766 767 768
v 644.1707 820.4130 272.1013
v 644.1710 820.4135 275.2552
v 652.9214 823.2311 275.2540
f 769 770 771
v 646.9961 811.6366 272.1021
v 646.9964 811.6370 275.2560
v 644.1710 820.4135 275.2552
f 772 773 774
v 655.7465 814.4530 272.1009
v 655.7468 814.4536 275.2548
v 646.9964 811.6370 275.2560
f 775 776 777
v 652.9211 823.2305 272.1001
v 652.9214 823.2311 275.2540
v 655.7468 814.4536 275.2548
f 778 779 780
v 652.1310 815.3638 272.2981
v 648.1346 814.0775 272.1017
v 648.1350 814.0780 275.2556
f 781 782 783
v 648.1350 814.0780 275.2556
v 652.1313 815.3642 275.0580
v 652.1310 815.3638 272.2981
f 784 785 786
v 653.4631 815.7921 272.1010
v 653.2840 815.7347 272.2980
v 653.2843 815.7351 275.0579
f 787 788 789
v 653.2843 815.7351 275.0579
v 652.1310 815.3638 272.2981
v 652.1313 815.3642 275.0580
f 790 791 792
v 653.2843 815.7351 275.0579
v 652.1313 815.3642 275.0580
v 653.2683 815.7301 275.2549
f 793 794 795
v 648.1350 814.0780 275.2556
v 653.2683 815.7301 275.2549
v 652.1313 815.3642 275.0580
f 796 797 798
v 653.2843 815.7351 275.0579
v 653.2683 815.7301 275.2549
v 653.4635 815.7927 275.2549
f 799 800 801
v 653.2679 815.7297 272.1010
v 652.1310 815.3638 272.2981
v 653.2840 815.7347 272.2980
f 802 803 804
v 652.1310 815.3638 272.2981
v 653.2679 815.7297 272.1010
v 648.1346 814.0775 272.1017
f 805 806 807
v 653.2840 815.7347 272.2980
v 653.4631 815.7921 272.1010
v 653.2679 815.7297 272.1010
f 808 809 810
v 646.4804 819.2239 272.1012
v 646.4808 819.2243 275.2551
v 648.1350 814.0780 275.2556
f 811 812 813
v 651.8070 820.9365 272.1005
v 651.8073 820.9371 275.2544
v 646.4808 819.2243 275.2551
f 814 815 816
v 653.4631 815.7921 272.1010
v 653.4635 815.7927 275.2549
v 651.8073 820.9371 275.2544
f 817 818 819
v 644.1707 820.4130 272.1013
v 652.9214 823.2311 275.2540
v 652.9211 823.2305 272.1001
f 820 821 822
v 646.9961 811.6366 272.1021
v 644.1710 820.4135 275.2552
v 644.1707 820.4130 272.1013
f 823 824 825
v 655.7465 814.4530 272.1009
v 646.9964 811.6370 275.2560
v 646.9961 811.6366 272.1021
f 826 827 828
v 652.9211 823.2305 272.1001
v 655.7468 814.4536 275.2548
v 655.7465 814.4530 272.1009
f 829 830 831
v 653.4631 815.7921 272.1010
v 653.2843 815.7351 275.0579
v 653.4635 815.7927 275.2549
f 832 833 834
v 653.2840 815.7347 272.2980
v 652.1310 815.3638 272.2981
v 653.2843 815.7351 275.0579
f 835 836 837
v 646.4804 819.2239 272.1012
v 648.1350 814.0780 275.2556
v 648.1346 814.0775 272.1017
f 838 839 840
v 651.8070 820.9365 272.1005
v 646.4808 819.2243 275.2551
v 646.4804 819.2239 272.1012
f 841 842 843
v 653.4631 815.7921 272.1010
v 651.8073 820.9371 275.2544
v 651.8070 820.9365 272.1005
f 844 845 846

g building_ID_C2B59E80-7E75-48D9-9A31-9E909A852167
v 589.6061 890.3761 264.5786
v 590.4122 893.7499 264.5780
v 590.2178 890.6154 264.5785
f 847 848 849
v 590.9557 893.6154 264.5780
v 590.2178 890.6154 264.5785
v 590.4122 893.7499 264.5780
f 850 851 852
v 590.9557 893.6154 264.5780
v 604.8339 894.1121 264.5766
v 590.2178 890.6154 264.5785
f 853 854 855
v 590.2178 890.6154 264.5785
v 590.1357 890.2486 264.5785
v 589.6061 890.3761 264.5786
f 856 857 858
v 604.8339 894.1121 264.5766
v 590.9557 893.6154 264.5780
v 591.8717 897.3349 264.5774
f 859 860 861
v 605.3853 893.8857 264.5766
v 604.8339 894.1121 264.5766
v 605.1146 894.0104 264.5766
f 862 863 864
v 604.8339 894.1121 264.5766
v 605.6439 893.7380 264.5766
v 605.8894 893.5673 264.5766
f 865 866 867
v 605.3853 893.8857 264.5766
v 605.6439 893.7380 264.5766
v 604.8339 894.1121 264.5766
f 868 869 870
v 603.1680 887.4168 264.5777
v 590.2178 890.6154 264.5785
v 604.8339 894.1121 264.5766
f 871 872 873
v 603.1680 887.4168 264.5777
v 604.8339 894.1121 264.5766
v 607.1651 891.6059 264.5768
f 874 875 876
v 603.1680 887.4168 264.5777
v 604.3560 887.4036 264.5776
v 603.4629 887.3749 264.5777
f 877 878 879
v 603.7608 887.3582 264.5777
v 603.4629 887.3749 264.5777
v 604.0598 887.3684 264.5776
f 880 881 882
v 603.4629 887.3749 264.5777
v 604.3560 887.4036 264.5776
v 604.0598 887.3684 264.5776
f 883 884 885
v 605.2106 887.6593 264.5775
v 603.1680 887.4168 264.5777
v 605.4779 887.7925 264.5775
f 886 887 888
v 603.1680 887.4168 264.5777
v 605.2106 887.6593 264.5775
v 604.9333 887.5491 264.5775
f 889 890 891
v 604.3560 887.4036 264.5776
v 603.1680 887.4168 264.5777
v 604.6481 887.4638 264.5776
f 892 893 894
v 604.6481 887.4638 264.5776
v 603.1680 887.4168 264.5777
v 604.9333 887.5491 264.5775
f 895 896 897
v 605.7324 887.9479 264.5774
v 605.4779 887.7925 264.5775
v 603.1680 887.4168 264.5777
f 898 899 900
v 605.7324 887.9479 264.5774
v 603.1680 887.4168 264.5777
v 605.9719 888.1252 264.5774
f 901 902 903
v 605.8894 893.5673 264.5766
v 606.1189 893.3778 264.5766
v 604.8339 894.1121 264.5766
f 904 905 906
v 604.8339 894.1121 264.5766
v 606.3314 893.1682 264.5766
v 606.5247 892.9406 264.5766
f 907 908 909
v 606.6981 892.6982 264.5767
v 606.8504 892.4408 264.5767
v 604.8339 894.1121 264.5766
f 910 911 912
v 606.6981 892.6982 264.5767
v 604.8339 894.1121 264.5766
v 606.5247 892.9406 264.5766
f 913 914 915
v 604.8339 894.1121 264.5766
v 606.8504 892.4408 264.5767
v 606.9787 892.1725 264.5767
f 916 917 918
v 607.1651 891.6059 264.5768
v 604.8339 894.1121 264.5766
v 607.0839 891.8932 264.5767
f 919 920 921
v 607.2515 891.0158 264.5768
v 603.1680 887.4168 264.5777
v 607.2203 891.3128 264.5768
f 922 923 924
v 603.1680 887.4168 264.5777
v 607.1651 891.6059 264.5768
v 607.2203 891.3128 264.5768
f 925 926 927
v 604.8339 894.1121 264.5766
v 606.9787 892.1725 264.5767
v 607.0839 891.8932 264.5767
f 928 929 930
v 603.1680 887.4168 264.5777
v 607.2515 891.0158 264.5768
v 607.2558 890.7178 264.5769
f 931 932 933
v 606.5886 888.7716 264.5772
v 606.4019 888.5381 264.5773
v 603.1680 887.4168 264.5777
f 934 935 936
v 605.9719 888.1252 264.5774
v 603.1680 887.4168 264.5777
v 606.1964 888.3226 264.5773
f 937 938 939
v 606.1964 888.3226 264.5773
v 603.1680 887.4168 264.5777
v 606.4019 888.5381 264.5773
f 940 941 942
v 606.5886 888.7716 264.5772
v 603.1680 887.4168 264.5777
v 606.7542 889.0191 264.5772
f 943 944 945
v 603.1680 887.4168 264.5777
v 607.1872 890.1249 264.5770
v 607.1154 889.8362 264.5770
f 946 947 948
v 607.1154 889.8362 264.5770
v 607.0187 889.5534 264.5771
v 603.1680 887.4168 264.5777
f 949 950 951
v 603.1680 887.4168 264.5777
v 606.8979 889.2808 264.5771
v 606.7542 889.0191 264.5772
f 952 953 954
v 603.1680 887.4168 264.5777
v 607.0187 889.5534 264.5771
v 606.8979 889.2808 264.5771
f 955 956 957
v 607.1872 890.1249 264.5770
v 603.1680 887.4168 264.5777
v 607.2340 890.4198 264.5769
f 958 959 960
v 603.1680 887.4168 264.5777
v 607.2558 890.7178 264.5769
v 607.2340 890.4198 264.5769
f 961 962 963
v 606.1189 893.3778 264.5766
v 606.3314 893.1682 264.5766
v 604.8339 894.1121 264.5766
f 964 965 966
v 607.2522 891.0167 270.5896
v 607.2210 891.3138 270.5896
v 590.9564 893.6163 270.5908
f 967 968 969
v 607.2564 890.7187 270.5897
v 607.2522 891.0167 270.5896
v 590.9564 893.6163 270.5908
f 970 971 972
v 607.2564 890.7187 270.5897
v 590.9564 893.6163 270.5908
v 607.2346 890.4207 270.5897
f 973 974 975
v 607.2210 891.3138 270.5896
v 607.1658 891.6070 270.5896
v 604.8345 894.1132 270.5894
f 976 977 978
v 604.8345 894.1132 270.5894
v 606.8511 892.4418 270.5895
v 606.6987 892.6992 270.5895
f 979 980 981
v 606.8511 892.4418 270.5895
v 604.8345 894.1132 270.5894
v 606.9793 892.1735 270.5895
f 982 983 984
v 604.8345 894.1132 270.5894
v 607.0846 891.8942 270.5895
v 606.9793 892.1735 270.5895
f 985 986 987
v 607.1658 891.6070 270.5896
v 607.0846 891.8942 270.5895
v 604.8345 894.1132 270.5894
f 988 989 990
v 590.9564 893.6163 270.5908
v 607.1878 890.1259 270.5898
v 607.2346 890.4207 270.5897
f 991 992 993
v 606.8986 889.2817 270.5899
v 607.0193 889.5544 270.5899
v 590.9564 893.6163 270.5908
f 994 995 996
v 590.9564 893.6163 270.5908
v 606.5892 888.7726 270.5900
v 606.7549 889.0201 270.5900
f 997 998 999
v 590.9564 893.6163 270.5908
v 606.7549 889.0201 270.5900
v 606.8986 889.2817 270.5899
f 1000 1001 1002
v 590.9564 893.6163 270.5908
v 607.1160 889.8371 270.5898
v 607.1878 890.1259 270.5898
f 1003 1004 1005
v 603.1686 887.4177 270.5905
v 605.9724 888.1262 270.5902
v 606.1970 888.3236 270.5901
f 1006 1007 1008
v 606.1970 888.3236 270.5901
v 606.4026 888.5391 270.5901
v 603.1686 887.4177 270.5905
f 1009 1010 1011
v 605.4786 887.7936 270.5903
v 605.7330 887.9488 270.5902
v 603.1686 887.4177 270.5905
f 1012 1013 1014
v 605.7330 887.9488 270.5902
v 605.9724 888.1262 270.5902
v 603.1686 887.4177 270.5905
f 1015 1016 1017
v 606.5892 888.7726 270.5900
v 603.1686 887.4177 270.5905
v 606.4026 888.5391 270.5901
f 1018 1019 1020
v 590.9564 893.6163 270.5908
v 607.0193 889.5544 270.5899
v 607.1160 889.8371 270.5898
f 1021 1022 1023
v 606.5254 892.9417 270.5894
v 604.8345 894.1132 270.5894
v 606.6987 892.6992 270.5895
f 1024 1025 1026
v 604.8345 894.1132 270.5894
v 605.8900 893.5684 270.5894
v 605.6445 893.7390 270.5894
f 1027 1028 1029
v 605.8900 893.5684 270.5894
v 604.8345 894.1132 270.5894
v 606.1195 893.3787 270.5894
f 1030 1031 1032
v 604.8345 894.1132 270.5894
v 606.3320 893.1692 270.5894
v 606.1195 893.3787 270.5894
f 1033 1034 1035
v 605.6445 893.7390 270.5894
v 605.3859 893.8867 270.5894
v 604.8345 894.1132 270.5894
f 1036 1037 1038
v 590.9564 893.6163 270.5908
v 604.8345 894.1132 270.5894
v 591.8723 897.3358 270.5902
f 1039 1040 1041
v 590.9564 893.6163 270.5908
v 607.2210 891.3138 270.5896
v 604.8345 894.1132 270.5894
f 1042 1043 1044
v 590.2184 890.6164 270.5913
v 590.9564 893.6163 270.5908
v 590.4128 893.7508 270.5908
f 1045 1046 1047
v 605.1153 894.0114 270.5894
v 604.8345 894.1132 270.5894
v 605.3859 893.8867 270.5894
f 1048 1049 1050
v 590.9564 893.6163 270.5908
v 603.1686 887.4177 270.5905
v 606.5892 888.7726 270.5900
f 1051 1052 1053
v 604.9340 887.5500 270.5903
v 603.1686 887.4177 270.5905
v 604.6487 887.4648 270.5904
f 1054 1055 1056
v 604.0605 887.3694 270.5904
v 604.3566 887.4045 270.5904
v 603.1686 887.4177 270.5905
f 1057 1058 1059
v 604.3566 887.4045 270.5904
v 604.6487 887.4648 270.5904
v 603.1686 887.4177 270.5905
f 1060 1061 1062
v 603.1686 887.4177 270.5905
v 604.9340 887.5500 270.5903
v 605.2112 887.6602 270.5903
f 1063 1064 1065
v 603.1686 887.4177 270.5905
v 603.4635 887.3760 270.5905
v 603.7614 887.3591 270.5905
f 1066 1067 1068
v 605.2112 887.6602 270.5903
v 605.4786 887.7936 270.5903
v 603.1686 887.4177 270.5905
f 1069 1070 1071
v 603.1686 887.4177 270.5905
v 603.7614 887.3591 270.5905
v 604.0605 887.3694 270.5904
f 1072 1073 1074
v 589.6067 890.3770 270.5914
v 590.1364 890.2497 270.5913
v 590.2184 890.6164 270.5913
f 1075 1076 1077
v 589.6067 890.3770 270.5914
v 590.2184 890.6164 270.5913
v 590.4128 893.7508 270.5908
f 1078 1079 1080
v 603.1686 887.4177 270.5905
v 590.9564 893.6163 270.5908
v 590.2184 890.6164 270.5913
f 1081 1082 1083
v 604.8345 894.1132 270.5894
v 606.5254 892.9417 270.5894
v 606.3320 893.1692 270.5894
f 1084 1085 1086
v 605.3853 893.8857 264.5766
v 605.3859 893.8867 270.5894
v 605.6445 893.7390 270.5894
f 1087 1088 1089
v 605.1146 894.0104 264.5766
v 605.1153 894.0114 270.5894
v 605.3853 893.8857 264.5766
f 1090 1091 1092
v 604.8339 894.1121 264.5766
v 604.8345 894.1132 270.5894
v 605.1146 894.0104 264.5766
f 1093 1094 1095
v 591.8717 897.3349 264.5774
v 591.8723 897.3358 270.5902
v 604.8345 894.1132 270.5894
f 1096 1097 1098
v 590.9557 893.6154 264.5780
v 590.9564 893.6163 270.5908
v 591.8717 897.3349 264.5774
f 1099 1100 1101
v 589.6067 890.3770 270.4014
v 589.6067 890.3770 270.5914
v 590.4128 893.7498 270.4008
f 1102 1103 1104
v 590.2178 890.6154 264.5785
v 590.2184 890.6164 270.5913
v 590.1364 890.2497 270.5913
f 1105 1106 1107
v 603.4629 887.3749 264.5777
v 603.4635 887.3760 270.5905
v 603.1686 887.4177 270.5905
f 1108 1109 1110
v 603.7608 887.3582 264.5777
v 603.7614 887.3591 270.5905
v 603.4635 887.3760 270.5905
f 1111 1112 1113
v 604.0598 887.3684 264.5776
v 604.0605 887.3694 270.5904
v 603.7614 887.3591 270.5905
f 1114 1115 1116
v 604.3560 887.4036 264.5776
v 604.3566 887.4045 270.5904
v 604.0605 887.3694 270.5904
f 1117 1118 1119
v 604.6481 887.4638 264.5776
v 604.6487 887.4648 270.5904
v 604.3566 887.4045 270.5904
f 1120 1121 1122
v 604.9333 887.5491 264.5775
v 604.9340 887.5500 270.5903
v 604.6487 887.4648 270.5904
f 1123 1124 1125
v 605.2106 887.6593 264.5775
v 605.2112 887.6602 270.5903
v 604.9340 887.5500 270.5903
f 1126 1127 1128
v 605.4779 887.7925 264.5775
v 605.4786 887.7936 270.5903
v 605.2112 887.6602 270.5903
f 1129 1130 1131
v 605.7324 887.9479 264.5774
v 605.7330 887.9488 270.5902
v 605.4786 887.7936 270.5903
f 1132 1133 1134
v 605.9719 888.1252 264.5774
v 605.9724 888.1262 270.5902
v 605.7330 887.9488 270.5902
f 1135 1136 1137
v 606.1964 888.3226 264.5773
v 606.1970 888.3236 270.5901
v 605.9724 888.1262 270.5902
f 1138 1139 1140
v 606.4019 888.5381 264.5773
v 606.4026 888.5391 270.5901
v 606.1970 888.3236 270.5901
f 1141 1142 1143
v 606.5886 888.7716 264.5772
v 606.5892 888.7726 270.5900
v 606.4026 888.5391 270.5901
f 1144 1145 1146
v 606.7542 889.0191 264.5772
v 606.7549 889.0201 270.5900
v 606.5892 888.7726 270.5900
f 1147 1148 1149
v 606.8979 889.2808 264.5771
v 606.8986 889.2817 270.5899
v 606.7549 889.0201 270.5900
f 1150 1151 1152
v 607.0187 889.5534 264.5771
v 607.0193 889.5544 270.5899
v 606.8986 889.2817 270.5899
f 1153 1154 1155
v 607.1154 889.8362 264.5770
v 607.1160 889.8371 270.5898
v 607.0193 889.5544 270.5899
f 1156 1157 1158
v 607.1872 890.1249 264.5770
v 607.1878 890.1259 270.5898
v 607.1160 889.8371 270.5898
f 1159 1160 1161
v 607.2340 890.4198 264.5769
v 607.2346 890.4207 270.5897
v 607.1878 890.1259 270.5898
f 1162 1163 1164
v 607.2558 890.7178 264.5769
v 607.2564 890.7187 270.5897
v 607.2346 890.4207 270.5897
f 1165 1166 1167
v 607.2515 891.0158 264.5768
v 607.2522 891.0167 270.5896
v 607.2564 890.7187 270.5897
f 1168 1169 1170
v 607.2203 891.3128 264.5768
v 607.2210 891.3138 270.5896
v 607.2522 891.0167 270.5896
f 1171 1172 1173
v 607.1651 891.6059 264.5768
v 607.1658 891.6070 270.5896
v 607.2210 891.3138 270.5896
f 1174 1175 1176
v 607.0839 891.8932 264.5767
v 607.0846 891.8942 270.5895
v 607.1658 891.6070 270.5896
f 1177 1178 1179
v 606.9787 892.1725 264.5767
v 606.9793 892.1735 270.5895
v 607.0846 891.8942 270.5895
f 1180 1181 1182
v 606.8504 892.4408 264.5767
v 606.8511 892.4418 270.5895
v 606.9793 892.1735 270.5895
f 1183 1184 1185
v 606.6981 892.6982 264.5767
v 606.6987 892.6992 270.5895
v 606.8511 892.4418 270.5895
f 1186 1187 1188
v 606.5247 892.9406 264.5766
v 606.5254 892.9417 270.5894
v 606.6987 892.6992 270.5895
f 1189 1190 1191
v 606.3314 893.1682 264.5766
v 606.3320 893.1692 270.5894
v 606.5254 892.9417 270.5894
f 1192 1193 1194
v 606.1189 893.3778 264.5766
v 606.1195 893.3787 270.5894
v 606.3320 893.1692 270.5894
f 1195 1196 1197
v 605.8894 893.5673 264.5766
v 605.8900 893.5684 270.5894
v 606.1195 893.3787 270.5894
f 1198 1199 1200
v 605.6439 893.7380 264.5766
v 605.6445 893.7390 270.5894
v 605.8900 893.5684 270.5894
f 1201 1202 1203
v 585.1101 891.4511 264.6248
v 585.1107 891.4521 270.4016
v 585.9457 894.8498 270.4011
f 1204 1205 1206
v 589.6061 890.3761 264.5786
v 589.6061 890.3761 264.6246
v 590.4122 893.7489 264.6240
f 1207 1208 1209
v 603.1680 887.4168 264.5777
v 603.1686 887.4177 270.5905
v 590.2184 890.6164 270.5913
f 1210 1211 1212
v 585.1101 891.4511 264.6248
v 590.4122 893.7489 264.6240
v 589.6061 890.3761 264.6246
f 1213 1214 1215
v 590.4122 893.7489 264.6240
v 585.1101 891.4511 264.6248
v 585.9452 894.8488 264.6243
f 1216 1217 1218
v 585.1107 891.4521 270.4016
v 589.6067 890.3770 270.4014
v 590.4128 893.7498 270.4008
f 1219 1220 1221
v 590.4128 893.7498 270.4008
v 585.9457 894.8498 270.4011
v 585.1107 891.4521 270.4016
f 1222 1223 1224
v 590.4128 893.7498 270.4008
v 590.4122 893.7489 264.6240
v 585.9457 894.8498 270.4011
f 1225 1226 1227
v 585.9457 894.8498 270.4011
v 590.4122 893.7489 264.6240
v 585.9452 894.8488 264.6243
f 1228 1229 1230
v 590.9557 893.6154 264.5780
v 590.4122 893.7499 264.5780
v 590.4122 893.7489 264.6240
f 1231 1232 1233
v 590.1364 890.2497 270.5913
v 589.6067 890.3770 270.4014
v 590.1357 890.2486 264.5785
f 1234 1235 1236
v 589.6061 890.3761 264.6246
v 589.6067 890.3770 270.4014
v 585.1107 891.4521 270.4016
f 1237 1238 1239
v 585.1107 891.4521 270.4016
v 585.1101 891.4511 264.6248
v 589.6061 890.3761 264.6246
f 1240 1241 1242
v 589.6067 890.3770 270.4014
v 589.6061 890.3761 264.6246
v 590.1357 890.2486 264.5785
f 1243 1244 1245
v 605.3853 893.8857 264.5766
v 605.6445 893.7390 270.5894
v 605.6439 893.7380 264.5766
f 1246 1247 1248
v 605.1153 894.0114 270.5894
v 605.3859 893.8867 270.5894
v 605.3853 893.8857 264.5766
f 1249 1250 1251
v 604.8345 894.1132 270.5894
v 605.1153 894.0114 270.5894
v 605.1146 894.0104 264.5766
f 1252 1253 1254
v 591.8717 897.3349 264.5774
v 604.8345 894.1132 270.5894
v 604.8339 894.1121 264.5766
f 1255 1256 1257
v 590.9564 893.6163 270.5908
v 591.8723 897.3358 270.5902
v 591.8717 897.3349 264.5774
f 1258 1259 1260
v 589.6067 890.3770 270.5914
v 590.4128 893.7508 270.5908
v 590.4128 893.7498 270.4008
f 1261 1262 1263
v 590.2178 890.6154 264.5785
v 590.1364 890.2497 270.5913
v 590.1357 890.2486 264.5785
f 1264 1265 1266
v 603.4629 887.3749 264.5777
v 603.1686 887.4177 270.5905
v 603.1680 887.4168 264.5777
f 1267 1268 1269
v 603.7608 887.3582 264.5777
v 603.4635 887.3760 270.5905
v 603.4629 887.3749 264.5777
f 1270 1271 1272
v 604.0598 887.3684 264.5776
v 603.7614 887.3591 270.5905
v 603.7608 887.3582 264.5777
f 1273 1274 1275
v 604.3560 887.4036 264.5776
v 604.0605 887.3694 270.5904
v 604.0598 887.3684 264.5776
f 1276 1277 1278
v 604.6481 887.4638 264.5776
v 604.3566 887.4045 270.5904
v 604.3560 887.4036 264.5776
f 1279 1280 1281
v 604.9333 887.5491 264.5775
v 604.6487 887.4648 270.5904
v 604.6481 887.4638 264.5776
f 1282 1283 1284
v 605.2106 887.6593 264.5775
v 604.9340 887.5500 270.5903
v 604.9333 887.5491 264.5775
f 1285 1286 1287
v 605.4779 887.7925 264.5775
v 605.2112 887.6602 270.5903
v 605.2106 887.6593 264.5775
f 1288 1289 1290
v 605.7324 887.9479 264.5774
v 605.4786 887.7936 270.5903
v 605.4779 887.7925 264.5775
f 1291 1292 1293
v 605.9719 888.1252 264.5774
v 605.7330 887.9488 270.5902
v 605.7324 887.9479 264.5774
f 1294 1295 1296
v 606.1964 888.3226 264.5773
v 605.9724 888.1262 270.5902
v 605.9719 888.1252 264.5774
f 1297 1298 1299
v 606.4019 888.5381 264.5773
v 606.1970 888.3236 270.5901
v 606.1964 888.3226 264.5773
f 1300 1301 1302
v 606.5886 888.7716 264.5772
v 606.4026 888.5391 270.5901
v 606.4019 888.5381 264.5773
f 1303 1304 1305
v 606.7542 889.0191 264.5772
v 606.5892 888.7726 270.5900
v 606.5886 888.7716 264.5772
f 1306 1307 1308
v 606.8979 889.2808 264.5771
v 606.7549 889.0201 270.5900
v 606.7542 889.0191 264.5772
f 1309 1310 1311
v 607.0187 889.5534 264.5771
v 606.8986 889.2817 270.5899
v 606.8979 889.2808 264.5771
f 1312 1313 1314
v 607.1154 889.8362 264.5770
v 607.0193 889.5544 270.5899
v 607.0187 889.5534 264.5771
f 1315 1316 1317
v 607.1872 890.1249 264.5770
v 607.1160 889.8371 270.5898
v 607.1154 889.8362 264.5770
f 1318 1319 1320
v 607.2340 890.4198 264.5769
v 607.1878 890.1259 270.5898
v 607.1872 890.1249 264.5770
f 1321 1322 1323
v 607.2558 890.7178 264.5769
v 607.2346 890.4207 270.5897
v 607.2340 890.4198 264.5769
f 1324 1325 1326
v 607.2515 891.0158 264.5768
v 607.2564 890.7187 270.5897
v 607.2558 890.7178 264.5769
f 1327 1328 1329
v 607.2203 891.3128 264.5768
v 607.2522 891.0167 270.5896
v 607.2515 891.0158 264.5768
f 1330 1331 1332
v 607.1651 891.6059 264.5768
v 607.2210 891.3138 270.5896
v 607.2203 891.3128 264.5768
f 1333 1334 1335
v 607.0839 891.8932 264.5767
v 607.1658 891.6070 270.5896
v 607.1651 891.6059 264.5768
f 1336 1337 1338
v 606.9787 892.1725 264.5767
v 607.0846 891.8942 270.5895
v 607.0839 891.8932 264.5767
f 1339 1340 1341
v 606.8504 892.4408 264.5767
v 606.9793 892.1735 270.5895
v 606.9787 892.1725 264.5767
f 1342 1343 1344
v 606.6981 892.6982 264.5767
v 606.8511 892.4418 270.5895
v 606.8504 892.4408 264.5767
f 1345 1346 1347
v 606.5247 892.9406 264.5766
v 606.6987 892.6992 270.5895
v 606.6981 892.6982 264.5767
f 1348 1349 1350
v 606.3314 893.1682 264.5766
v 606.5254 892.9417 270.5894
v 606.5247 892.9406 264.5766
f 1351 1352 1353
v 606.1189 893.3778 264.5766
v 606.3320 893.1692 270.5894
v 606.3314 893.1682 264.5766
f 1354 1355 1356
v 605.8894 893.5673 264.5766
v 606.1195 893.3787 270.5894
v 606.1189 893.3778 264.5766
f 1357 1358 1359
v 605.6439 893.7380 264.5766
v 605.8900 893.5684 270.5894
v 605.8894 893.5673 264.5766
f 1360 1361 1362
v 585.1101 891.4511 264.6248
v 585.9457 894.8498 270.4011
v 585.9452 894.8488 264.6243
f 1363 1364 1365
v 589.6061 890.3761 264.5786
v 590.4122 893.7489 264.6240
v 590.4122 893.7499 264.5780
f 1366 1367 1368
v 603.1680 887.4168 264.5777
v 590.2184 890.6164 270.5913
v 590.2178 890.6154 264.5785
f 1369 1370 1371
v 590.9557 893.6154 264.5780
v 590.4122 893.7489 264.6240
v 590.9564 893.6163 270.5908
f 1372 1373 1374
v 590.4128 893.7498 270.4008
v 590.4128 893.7508 270.5908
v 590.9564 893.6163 270.5908
f 1375 1376 1377
v 590.4128 893.7498 270.4008
v 590.9564 893.6163 270.5908
v 590.4122 893.7489 264.6240
f 1378 1379 1380
v 590.1364 890.2497 270.5913
v 589.6067 890.3770 270.5914
v 589.6067 890.3770 270.4014
f 1381 1382 1383
v 590.1357 890.2486 264.5785
v 589.6061 890.3761 264.6246
v 589.6061 890.3761 264.5786
f 1384 1385 1386
