# Grid Center: 2616000, 1266000
# Global Anchor: 7.64977475454284, 47.53283995868075, 0.0

g building_ID_3F62C07E-C621-43D8-8EDE-FA290BA2D55A
v 89.6242 1107.9283 271.4523
v 88.0331 1106.0185 271.4527
v 84.2526 1109.1726 271.4522
f 1 2 3
v 92.5065 1111.4355 271.4517
v 89.6242 1107.9283 271.4523
v 88.7470 1114.5675 271.4512
f 4 5 6
v 84.2526 1109.1726 271.4522
v 88.7470 1114.5675 271.4512
v 89.6242 1107.9283 271.4523
f 7 8 9
v 89.6244 1107.9296 278.3211
v 92.5067 1111.4368 278.3205
v 88.7472 1114.5688 278.3200
f 10 11 12
v 88.0332 1106.0199 278.3215
v 89.6244 1107.9296 278.3211
v 84.2528 1109.1740 278.3210
f 13 14 15
v 88.7472 1114.5688 278.3200
v 84.2528 1109.1740 278.3210
v 89.6244 1107.9296 278.3211
f 16 17 18
v 88.7470 1114.5675 271.4512
v 88.7472 1114.5688 278.3200
v 92.5067 1111.4368 278.3205
f 19 20 21
v 88.0331 1106.0185 271.4527
v 88.0332 1106.0199 278.3215
v 84.2526 1109.1726 271.4522
f 22 23 24
v 84.2528 1109.1740 278.3210
v 84.2526 1109.1726 271.4522
v 88.0332 1106.0199 278.3215
f 25 26 27
v 89.6242 1107.9283 271.4523
v 89.6244 1107.9296 278.3211
v 88.0332 1106.0199 278.3215
f 28 29 30
v 92.5065 1111.4355 271.4517
v 92.5067 1111.4368 278.3205
v 89.6244 1107.9296 278.3211
f 31 32 33
v 88.7472 1114.5688 278.3200
v 84.2526 1109.1726 271.4522
v 84.2528 1109.1740 278.3210
f 34 35 36
v 88.7470 1114.5675 271.4512
v 92.5067 1111.4368 278.3205
v 92.5065 1111.4355 271.4517
f 37 38 39
v 89.6242 1107.9283 271.4523
v 88.0332 1106.0199 278.3215
v 88.0331 1106.0185 271.4527
f 40 41 42
v 92.5065 1111.4355 271.4517
v 89.6244 1107.9296 278.3211
v 89.6242 1107.9283 271.4523
f 43 44 45
v 84.2526 1109.1726 271.4522
v 88.7472 1114.5688 278.3200
v 88.7470 1114.5675 271.4512
f 46 47 48

g building_ID_068A01BE-7009-49BC-A0E2-3107E10FA7C5
v 76.9953 1112.7520 271.5227
v 80.9311 1111.9435 271.5227
v 79.7142 1110.4848 271.5230
f 49 50 51
v 84.1900 1113.7937 271.5224
v 80.9311 1111.9435 271.5227
v 80.4343 1116.8787 271.5219
f 52 53 54
v 76.9953 1112.7520 271.5227
v 80.4343 1116.8787 271.5219
v 80.9311 1111.9435 271.5227
f 55 56 57
v 84.1900 1113.7937 271.5224
v 84.2526 1109.1726 271.5232
v 80.9311 1111.9435 271.5227
f 58 59 60
v 84.1900 1113.7937 271.5224
v 86.5038 1111.8746 271.5227
v 84.2526 1109.1726 271.5232
f 61 62 63
v 76.9954 1112.7531 277.0795
v 79.7143 1110.4858 277.0788
v 80.4344 1116.8799 277.3087
f 64 65 66
v 80.4344 1116.8799 277.3087
v 79.7143 1110.4858 277.0788
v 80.9312 1111.9446 277.1595
f 67 68 69
v 80.4344 1116.8799 277.3087
v 80.9312 1111.9446 277.1595
v 84.1902 1113.7948 277.3092
f 70 71 72
v 86.5039 1111.8757 277.3085
v 84.1902 1113.7948 277.3092
v 82.5915 1110.5602 277.1598
f 73 74 75
v 80.9312 1111.9446 277.1595
v 82.5915 1110.5602 277.1598
v 84.1902 1113.7948 277.3092
f 76 77 78
v 84.2527 1109.1738 277.1590
v 86.5039 1111.8757 277.3085
v 82.5915 1110.5602 277.1598
f 79 80 81
v 80.4344 1116.8799 277.3087
v 76.9953 1112.7520 271.5227
v 76.9954 1112.7531 277.0795
f 82 83 84
v 80.4343 1116.8787 271.5219
v 76.9953 1112.7520 271.5227
v 80.4344 1116.8799 277.3087
f 85 86 87
v 79.7142 1110.4848 271.5230
v 76.9954 1112.7531 277.0795
v 76.9953 1112.7520 271.5227
f 88 89 90
v 80.9311 1111.9435 271.5227
v 80.9312 1111.9446 277.1595
v 79.7142 1110.4848 271.5230
f 91 92 93
v 80.9312 1111.9446 277.1595
v 80.9311 1111.9435 271.5227
v 82.5915 1110.5602 277.1598
f 94 95 96
v 84.2526 1109.1726 271.5232
v 84.2527 1109.1738 277.1590
v 82.5915 1110.5602 277.1598
f 97 98 99
v 82.5915 1110.5602 277.1598
v 80.9311 1111.9435 271.5227
v 84.2526 1109.1726 271.5232
f 100 101 102
v 86.5038 1111.8746 271.5227
v 86.5039 1111.8757 277.3085
v 84.2526 1109.1726 271.5232
f 103 104 105
v 86.5039 1111.8757 277.3085
v 84.2527 1109.1738 277.1590
v 84.2526 1109.1726 271.5232
f 106 107 108
v 84.1900 1113.7937 271.5224
v 84.1902 1113.7948 277.3092
v 86.5039 1111.8757 277.3085
f 109 110 111
v 80.4344 1116.8799 277.3087
v 84.1900 1113.7937 271.5224
v 80.4343 1116.8787 271.5219
f 112 113 114
v 86.5038 1111.8746 271.5227
v 84.1900 1113.7937 271.5224
v 86.5039 1111.8757 277.3085
f 115 116 117
v 84.1902 1113.7948 277.3092
v 84.1900 1113.7937 271.5224
v 80.4344 1116.8799 277.3087
f 118 119 120
v 76.9954 1112.7531 277.0795
v 79.7142 1110.4848 271.5230
v 79.7143 1110.4858 277.0788
f 121 122 123
v 80.9312 1111.9446 277.1595
v 79.7143 1110.4858 277.0788
v 79.7142 1110.4848 271.5230
f 124 125 126
