# Grid Center: 2616400, 1263200
# Global Anchor: 7.64977475454284, 47.53283995868075, 0.0

g building_ID_04F0D211-31AB-42AA-9B09-78A5A869DDD5
v 324.4345 -1676.1513 482.1415
v 323.2327 -1675.6660 482.1417
v 323.5874 -1678.3626 480.1519
f 1 2 3
v 324.4338 -1676.1487 471.1399
v 324.4345 -1676.1513 482.1415
v 323.5874 -1678.3626 480.1519
f 4 5 6
v 322.3997 -1677.8414 480.1521
v 323.5874 -1678.3626 480.1519
v 323.2327 -1675.6660 482.1417
f 7 8 9
v 322.3992 -1677.8393 471.1395
v 322.3997 -1677.8414 480.1521
v 323.2320 -1675.6634 471.1401
f 10 11 12
v 325.7561 -1673.0312 471.1406
v 325.7569 -1673.0338 482.5842
v 324.4345 -1676.1513 482.1415
f 13 14 15
v 323.2320 -1675.6634 471.1401
v 323.2327 -1675.6660 482.1417
v 324.5655 -1672.5190 471.1408
f 16 17 18
v 333.7949 -1655.4874 480.0105
v 337.6565 -1646.6894 479.0546
v 332.6194 -1654.9423 480.0107
f 19 20 21
v 337.6560 -1646.6874 471.1469
v 337.6565 -1646.6894 479.0546
v 333.7943 -1655.4853 471.1448
f 22 23 24
v 330.3058 -1662.6265 481.4817
v 333.7949 -1655.4874 480.0105
v 332.6194 -1654.9423 480.0107
f 25 26 27
v 332.6194 -1654.9423 480.0107
v 329.1293 -1662.0824 481.4819
v 330.3058 -1662.6265 481.4817
f 28 29 30
v 329.1286 -1662.0800 471.1433
v 329.1293 -1662.0824 481.4819
v 332.6194 -1654.9423 480.0107
f 31 32 33
v 333.7943 -1655.4853 471.1448
v 333.7949 -1655.4874 480.0105
v 330.3052 -1662.6242 471.1431
f 34 35 36
v 325.7569 -1673.0338 482.5842
v 328.3488 -1667.1016 482.5856
v 327.1612 -1666.5824 482.5858
f 37 38 39
v 327.1612 -1666.5824 482.5858
v 324.5662 -1672.5217 482.5844
v 325.7569 -1673.0338 482.5842
f 40 41 42
v 335.9568 -1647.3378 479.0545
v 337.6565 -1646.6894 479.0546
v 331.2462 -1643.7671 479.0557
f 43 44 45
v 330.7608 -1644.3118 479.0555
v 335.9568 -1647.3378 479.0545
v 331.2462 -1643.7671 479.0557
f 46 47 48
v 335.9568 -1647.3378 479.0545
v 330.3229 -1644.6067 479.0555
v 330.2616 -1644.7414 479.0555
f 49 50 51
v 330.7608 -1644.3118 479.0555
v 330.3229 -1644.6067 479.0555
v 335.9568 -1647.3378 479.0545
f 52 53 54
v 330.2611 -1644.7396 471.1478
v 330.2616 -1644.7414 479.0555
v 330.3225 -1644.6051 472.5178
f 55 56 57
v 330.3229 -1644.6067 479.0555
v 330.3225 -1644.6051 472.5178
v 330.2616 -1644.7414 479.0555
f 58 59 60
v 330.7983 -1643.5610 471.1480
v 330.2611 -1644.7396 471.1478
v 330.3225 -1644.6051 472.5178
f 61 62 63
v 330.3225 -1644.6051 472.5178
v 330.7984 -1643.5613 472.5180
v 330.7983 -1643.5610 471.1480
f 64 65 66
v 335.9563 -1647.3359 471.1468
v 335.9568 -1647.3378 479.0545
v 330.2616 -1644.7414 479.0555
f 67 68 69
v 330.7983 -1643.5610 471.1480
v 330.7984 -1643.5613 472.5180
v 331.2458 -1643.7656 472.5180
f 70 71 72
v 337.6560 -1646.6874 471.1469
v 330.7983 -1643.5610 471.1480
v 331.2458 -1643.7656 472.5180
f 73 74 75
v 331.2458 -1643.7656 472.5180
v 337.6565 -1646.6894 479.0546
v 337.6560 -1646.6874 471.1469
f 76 77 78
v 331.2462 -1643.7671 479.0557
v 337.6565 -1646.6894 479.0546
v 331.2458 -1643.7656 472.5180
f 79 80 81
v 330.7590 -1644.0641 488.8023
v 328.7465 -1642.0109 490.1148
v 328.9678 -1644.8772 488.8022
f 82 83 84
v 331.6088 -1642.2913 488.8027
v 328.7465 -1642.0109 490.1148
v 331.2347 -1643.0713 488.8025
f 85 86 87
v 331.2347 -1643.0713 488.8025
v 328.7465 -1642.0109 490.1148
v 330.7590 -1644.0641 488.8023
f 88 89 90
v 328.7465 -1642.0109 490.1148
v 331.6088 -1642.2913 488.8027
v 331.1199 -1640.3869 488.8022
f 91 92 93
v 328.7465 -1642.0109 490.1148
v 330.5230 -1639.9593 488.8024
v 329.5200 -1639.2407 488.8026
f 94 95 96
v 331.1199 -1640.3869 488.8022
v 330.5230 -1639.9593 488.8024
v 328.7465 -1642.0109 490.1148
f 97 98 99
v 328.7465 -1642.0109 490.1148
v 329.5200 -1639.2407 488.8026
v 327.5594 -1639.3923 488.8037
f 100 101 102
v 327.5594 -1639.3923 488.8037
v 326.1538 -1640.7686 488.8034
v 328.7465 -1642.0109 490.1148
f 103 104 105
v 326.1538 -1640.7686 488.8034
v 325.9625 -1642.7252 488.8029
v 328.7465 -1642.0109 490.1148
f 106 107 108
v 328.7465 -1642.0109 490.1148
v 325.9625 -1642.7252 488.8029
v 327.0742 -1644.3482 488.8024
f 109 110 111
v 328.9678 -1644.8772 488.8022
v 328.7465 -1642.0109 490.1148
v 327.0742 -1644.3482 488.8024
f 112 113 114
v 331.1198 -1640.3865 487.0962
v 331.1199 -1640.3869 488.8022
v 331.6088 -1642.2913 488.8027
f 115 116 117
v 331.6088 -1642.2913 488.8027
v 331.6087 -1642.2909 487.0957
v 331.1198 -1640.3865 487.0962
f 118 119 120
v 331.1198 -1640.3865 487.0962
v 330.5230 -1639.9593 488.8024
v 331.1199 -1640.3869 488.8022
f 121 122 123
v 329.5198 -1639.2402 487.0966
v 327.5594 -1639.3920 487.0967
v 329.5200 -1639.2407 488.8026
f 124 125 126
v 326.1537 -1640.7683 487.0964
v 326.1538 -1640.7686 488.8034
v 327.5594 -1639.3920 487.0967
f 127 128 129
v 326.1538 -1640.7686 488.8034
v 325.9624 -1642.7248 487.0959
v 325.9625 -1642.7252 488.8029
f 130 131 132
v 325.9624 -1642.7248 487.0959
v 327.0742 -1644.3482 488.8024
v 325.9625 -1642.7252 488.8029
f 133 134 135
v 325.9624 -1642.7248 487.0959
v 327.0741 -1644.3477 487.0954
v 327.0742 -1644.3482 488.8024
f 136 137 138
v 328.9677 -1644.8769 487.0952
v 328.9678 -1644.8772 488.8022
v 327.0742 -1644.3482 488.8024
f 139 140 141
v 327.0742 -1644.3482 488.8024
v 327.0741 -1644.3477 487.0954
v 328.9677 -1644.8769 487.0952
f 142 143 144
v 328.9677 -1644.8769 487.0952
v 330.7589 -1644.0637 487.0953
v 328.9678 -1644.8772 488.8022
f 145 146 147
v 330.7589 -1644.0637 487.0953
v 330.7590 -1644.0641 488.8023
v 328.9678 -1644.8772 488.8022
f 148 149 150
v 330.7589 -1644.0637 487.0953
v 331.6087 -1642.2909 487.0957
v 331.2347 -1643.0713 488.8025
f 151 152 153
v 331.2347 -1643.0713 488.8025
v 330.7590 -1644.0641 488.8023
v 330.7589 -1644.0637 487.0953
f 154 155 156
v 335.9568 -1647.3378 479.0545
v 332.6194 -1654.9423 480.0107
v 337.6565 -1646.6894 479.0546
f 157 158 159
v 332.6188 -1654.9402 471.1450
v 332.6194 -1654.9423 480.0107
v 335.9568 -1647.3378 479.0545
f 160 161 162
v 330.6319 -1639.5982 487.0965
v 331.1198 -1640.3865 487.0962
v 331.1724 -1640.1437 487.0963
f 163 164 165
v 330.6319 -1639.5982 487.0965
v 329.5198 -1639.2402 487.0966
v 331.1198 -1640.3865 487.0962
f 166 167 168
v 331.7717 -1641.5433 487.0959
v 331.5607 -1640.8048 487.0961
v 331.1198 -1640.3865 487.0962
f 169 170 171
v 331.1198 -1640.3865 487.0962
v 331.5607 -1640.8048 487.0961
v 331.1724 -1640.1437 487.0963
f 172 173 174
v 328.4705 -1638.9614 487.0968
v 329.5198 -1639.2402 487.0966
v 329.2375 -1638.9885 487.0967
f 175 176 177
v 327.5594 -1639.3920 487.0967
v 329.5198 -1639.2402 487.0966
v 328.4705 -1638.9614 487.0968
f 178 179 180
v 329.9729 -1639.2054 487.0966
v 329.5198 -1639.2402 487.0966
v 330.6319 -1639.5982 487.0965
f 181 182 183
v 329.5198 -1639.2402 487.0966
v 329.9729 -1639.2054 487.0966
v 329.2375 -1638.9885 487.0967
f 184 185 186
v 331.7717 -1641.5433 487.0959
v 331.6087 -1642.2909 487.0957
v 331.7936 -1642.3104 487.0957
f 187 188 189
v 330.7589 -1644.0637 487.0953
v 331.7936 -1642.3104 487.0957
v 331.6087 -1642.2909 487.0957
f 190 191 192
v 331.1198 -1640.3865 487.0962
v 331.6087 -1642.2909 487.0957
v 331.7717 -1641.5433 487.0959
f 193 194 195
v 331.6227 -1643.0579 487.0955
v 331.7936 -1642.3104 487.0957
v 330.7589 -1644.0637 487.0953
f 196 197 198
v 331.2718 -1643.7401 487.0954
v 331.6227 -1643.0579 487.0955
v 330.7589 -1644.0637 487.0953
f 199 200 201
v 330.7613 -1644.3136 487.0952
v 331.2718 -1643.7401 487.0954
v 330.7589 -1644.0637 487.0953
f 202 203 204
v 330.1251 -1644.7420 487.0952
v 330.7613 -1644.3136 487.0952
v 330.7589 -1644.0637 487.0953
f 205 206 207
v 329.4024 -1644.9991 487.0951
v 330.1251 -1644.7420 487.0952
v 330.7589 -1644.0637 487.0953
f 208 209 210
v 328.4705 -1638.9614 487.0968
v 327.7201 -1639.1254 487.0968
v 327.5594 -1639.3920 487.0967
f 211 212 213
v 327.7201 -1639.1254 487.0968
v 327.0362 -1639.4715 487.0967
v 327.5594 -1639.3920 487.0967
f 214 215 216
v 326.1537 -1640.7683 487.0964
v 327.5594 -1639.3920 487.0967
v 327.0362 -1639.4715 487.0967
f 217 218 219
v 326.0251 -1640.6099 487.0964
v 326.1537 -1640.7683 487.0964
v 326.4578 -1639.9760 487.0966
f 220 221 222
v 326.4578 -1639.9760 487.0966
v 326.1537 -1640.7683 487.0964
v 327.0362 -1639.4715 487.0967
f 223 224 225
v 326.0251 -1640.6099 487.0964
v 325.7621 -1641.3302 487.0963
v 326.1537 -1640.7683 487.0964
f 226 227 228
v 326.1537 -1640.7683 487.0964
v 325.6861 -1642.0940 487.0961
v 325.9624 -1642.7248 487.0959
f 229 230 231
v 325.8041 -1642.8523 487.0959
v 325.9624 -1642.7248 487.0959
v 325.6861 -1642.0940 487.0961
f 232 233 234
v 326.1537 -1640.7683 487.0964
v 325.7621 -1641.3302 487.0963
v 325.6861 -1642.0940 487.0961
f 235 236 237
v 327.1783 -1644.6380 487.0953
v 327.8815 -1644.9460 487.0952
v 328.9677 -1644.8769 487.0952
f 238 239 240
v 328.9677 -1644.8769 487.0952
v 329.4024 -1644.9991 487.0951
v 330.7589 -1644.0637 487.0953
f 241 242 243
v 328.6382 -1645.0680 487.0952
v 329.4024 -1644.9991 487.0951
v 328.9677 -1644.8769 487.0952
f 244 245 246
v 327.8815 -1644.9460 487.0952
v 328.6382 -1645.0680 487.0952
v 328.9677 -1644.8769 487.0952
f 247 248 249
v 325.9624 -1642.7248 487.0959
v 325.8041 -1642.8523 487.0959
v 326.1062 -1643.5581 487.0957
f 250 251 252
v 327.0741 -1644.3477 487.0954
v 326.5736 -1644.1654 487.0955
v 327.1783 -1644.6380 487.0953
f 253 254 255
v 328.9677 -1644.8769 487.0952
v 327.0741 -1644.3477 487.0954
v 327.1783 -1644.6380 487.0953
f 256 257 258
v 327.0741 -1644.3477 487.0954
v 325.9624 -1642.7248 487.0959
v 326.5736 -1644.1654 487.0955
f 259 260 261
v 325.9624 -1642.7248 487.0959
v 326.1062 -1643.5581 487.0957
v 326.5736 -1644.1654 487.0955
f 262 263 264
v 325.6852 -1642.0906 472.5187
v 325.6861 -1642.0940 487.0961
v 325.7612 -1641.3268 472.5189
f 265 266 267
v 325.8032 -1642.8490 472.5185
v 325.8041 -1642.8523 487.0959
v 325.6861 -1642.0940 487.0961
f 268 269 270
v 326.1062 -1643.5581 487.0957
v 326.0659 -1643.4645 480.1760
v 326.1057 -1643.5566 480.1760
f 271 272 273
v 325.8032 -1642.8490 472.5185
v 326.0659 -1643.4645 480.1760
v 325.8041 -1642.8523 487.0959
f 274 275 276
v 326.1062 -1643.5581 487.0957
v 325.8041 -1642.8523 487.0959
v 326.0659 -1643.4645 480.1760
f 277 278 279
v 326.0655 -1643.4626 472.5183
v 326.0659 -1643.4645 480.1760
v 325.8032 -1642.8490 472.5185
f 280 281 282
v 326.5457 -1644.1270 472.5181
v 326.5726 -1644.1620 472.5181
v 326.5462 -1644.1287 480.1758
f 283 284 285
v 326.5736 -1644.1654 487.0955
v 326.5462 -1644.1287 480.1758
v 326.5726 -1644.1620 472.5181
f 286 287 288
v 326.1057 -1643.5566 480.1760
v 326.5462 -1644.1287 480.1758
v 326.1062 -1643.5581 487.0957
f 289 290 291
v 326.5736 -1644.1654 487.0955
v 326.1062 -1643.5581 487.0957
v 326.5462 -1644.1287 480.1758
f 292 293 294
v 327.1774 -1644.6346 472.5179
v 327.1783 -1644.6380 487.0953
v 326.5736 -1644.1654 487.0955
f 295 296 297
v 327.8806 -1644.9426 472.5178
v 327.8815 -1644.9460 487.0952
v 327.1783 -1644.6380 487.0953
f 298 299 300
v 328.6373 -1645.0646 472.5178
v 328.6382 -1645.0680 487.0952
v 327.8815 -1644.9460 487.0952
f 301 302 303
v 329.4015 -1644.9956 472.5177
v 329.4024 -1644.9991 487.0951
v 328.6382 -1645.0680 487.0952
f 304 305 306
v 330.1242 -1644.7385 472.5178
v 330.1251 -1644.7420 487.0952
v 329.4024 -1644.9991 487.0951
f 307 308 309
v 331.6217 -1643.0546 472.5181
v 331.6227 -1643.0579 487.0955
v 331.2718 -1643.7401 487.0954
f 310 311 312
v 331.7927 -1642.3069 472.5183
v 331.7936 -1642.3104 487.0957
v 331.6227 -1643.0579 487.0955
f 313 314 315
v 331.7707 -1641.5400 472.5185
v 331.7717 -1641.5433 487.0959
v 331.7936 -1642.3104 487.0957
f 316 317 318
v 331.5597 -1640.8013 472.5187
v 331.5607 -1640.8048 487.0961
v 331.7717 -1641.5433 487.0959
f 319 320 321
v 331.1715 -1640.1402 472.5189
v 331.1724 -1640.1437 487.0963
v 331.5607 -1640.8048 487.0961
f 322 323 324
v 330.6310 -1639.5948 472.5191
v 330.6319 -1639.5982 487.0965
v 331.1724 -1640.1437 487.0963
f 325 326 327
v 329.9720 -1639.2021 472.5192
v 329.9729 -1639.2054 487.0966
v 330.6319 -1639.5982 487.0965
f 328 329 330
v 329.2366 -1638.9851 472.5193
v 329.2375 -1638.9885 487.0967
v 329.9729 -1639.2054 487.0966
f 331 332 333
v 328.4696 -1638.9580 472.5193
v 328.4705 -1638.9614 487.0968
v 329.2375 -1638.9885 487.0967
f 334 335 336
v 327.7192 -1639.1221 472.5193
v 327.7201 -1639.1254 487.0968
v 328.4705 -1638.9614 487.0968
f 337 338 339
v 327.0352 -1639.4682 472.5193
v 327.0362 -1639.4715 487.0967
v 327.7201 -1639.1254 487.0968
f 340 341 342
v 326.4569 -1639.9726 472.5192
v 326.4578 -1639.9760 487.0966
v 327.0362 -1639.4715 487.0967
f 343 344 345
v 326.0241 -1640.6065 472.5190
v 326.0251 -1640.6099 487.0964
v 326.4578 -1639.9760 487.0966
f 346 347 348
v 325.7612 -1641.3268 472.5189
v 325.7621 -1641.3302 487.0963
v 326.0251 -1640.6099 487.0964
f 349 350 351
v 325.6852 -1642.0906 472.5187
v 326.5761 -1643.2550 472.5183
v 325.8032 -1642.8490 472.5185
f 352 353 354
v 325.6852 -1642.0906 472.5187
v 325.7612 -1641.3268 472.5189
v 326.5761 -1643.2550 472.5183
f 355 356 357
v 327.0352 -1639.4682 472.5193
v 326.5761 -1643.2550 472.5183
v 326.4569 -1639.9726 472.5192
f 358 359 360
v 326.4569 -1639.9726 472.5192
v 326.5761 -1643.2550 472.5183
v 326.0241 -1640.6065 472.5190
f 361 362 363
v 325.7612 -1641.3268 472.5189
v 326.0241 -1640.6065 472.5190
v 326.5761 -1643.2550 472.5183
f 364 365 366
v 327.7192 -1639.1221 472.5193
v 326.5761 -1643.2550 472.5183
v 327.0352 -1639.4682 472.5193
f 367 368 369
v 325.8032 -1642.8490 472.5185
v 326.5761 -1643.2550 472.5183
v 326.0655 -1643.4626 472.5183
f 370 371 372
v 326.5457 -1644.1270 472.5181
v 326.9491 -1643.9671 472.5181
v 326.5726 -1644.1620 472.5181
f 373 374 375
v 326.5726 -1644.1620 472.5181
v 326.9491 -1643.9671 472.5181
v 327.1774 -1644.6346 472.5179
f 376 377 378
v 327.8806 -1644.9426 472.5178
v 327.1774 -1644.6346 472.5179
v 326.9491 -1643.9671 472.5181
f 379 380 381
v 326.9491 -1643.9671 472.5181
v 328.6373 -1645.0646 472.5178
v 327.8806 -1644.9426 472.5178
f 382 383 384
v 330.7984 -1643.5613 472.5180
v 328.6373 -1645.0646 472.5178
v 326.9491 -1643.9671 472.5181
f 385 386 387
v 326.5761 -1643.2550 472.5183
v 330.7984 -1643.5613 472.5180
v 326.9491 -1643.9671 472.5181
f 388 389 390
v 328.4696 -1638.9580 472.5193
v 326.5761 -1643.2550 472.5183
v 327.7192 -1639.1221 472.5193
f 391 392 393
v 330.7984 -1643.5613 472.5180
v 326.5761 -1643.2550 472.5183
v 329.2366 -1638.9851 472.5193
f 394 395 396
v 329.2366 -1638.9851 472.5193
v 329.9720 -1639.2021 472.5192
v 330.7984 -1643.5613 472.5180
f 397 398 399
v 330.6310 -1639.5948 472.5191
v 331.1715 -1640.1402 472.5189
v 330.7984 -1643.5613 472.5180
f 400 401 402
v 330.7984 -1643.5613 472.5180
v 331.1715 -1640.1402 472.5189
v 331.5597 -1640.8013 472.5187
f 403 404 405
v 329.9720 -1639.2021 472.5192
v 330.6310 -1639.5948 472.5191
v 330.7984 -1643.5613 472.5180
f 406 407 408
v 331.5597 -1640.8013 472.5187
v 331.7707 -1641.5400 472.5185
v 330.7984 -1643.5613 472.5180
f 409 410 411
v 330.1242 -1644.7385 472.5178
v 330.7984 -1643.5613 472.5180
v 330.3225 -1644.6051 472.5178
f 412 413 414
v 330.7984 -1643.5613 472.5180
v 330.1242 -1644.7385 472.5178
v 329.4015 -1644.9956 472.5177
f 415 416 417
v 329.4015 -1644.9956 472.5177
v 328.6373 -1645.0646 472.5178
v 330.7984 -1643.5613 472.5180
f 418 419 420
v 331.6217 -1643.0546 472.5181
v 331.2709 -1643.7366 472.5180
v 330.7984 -1643.5613 472.5180
f 421 422 423
v 331.2709 -1643.7366 472.5180
v 331.2458 -1643.7656 472.5180
v 330.7984 -1643.5613 472.5180
f 424 425 426
v 331.7927 -1642.3069 472.5183
v 331.6217 -1643.0546 472.5181
v 330.7984 -1643.5613 472.5180
f 427 428 429
v 330.7984 -1643.5613 472.5180
v 331.7707 -1641.5400 472.5185
v 331.7927 -1642.3069 472.5183
f 430 431 432
v 329.2366 -1638.9851 472.5193
v 326.5761 -1643.2550 472.5183
v 328.4696 -1638.9580 472.5193
f 433 434 435
v 330.3229 -1644.6067 479.0555
v 330.7608 -1644.3118 479.0555
v 330.7613 -1644.3136 487.0952
f 436 437 438
v 330.3225 -1644.6051 472.5178
v 330.3229 -1644.6067 479.0555
v 330.1242 -1644.7385 472.5178
f 439 440 441
v 330.1251 -1644.7420 487.0952
v 330.1242 -1644.7385 472.5178
v 330.3229 -1644.6067 479.0555
f 442 443 444
v 331.2709 -1643.7366 472.5180
v 331.2718 -1643.7401 487.0954
v 331.2462 -1643.7671 479.0557
f 445 446 447
v 331.2718 -1643.7401 487.0954
v 330.7613 -1644.3136 487.0952
v 331.2462 -1643.7671 479.0557
f 448 449 450
v 331.2458 -1643.7656 472.5180
v 331.2709 -1643.7366 472.5180
v 331.2462 -1643.7671 479.0557
f 451 452 453
v 326.1542 -1644.2816 470.8982
v 326.1548 -1644.2837 480.1758
v 324.7891 -1644.8899 479.4677
f 454 455 456
v 326.1057 -1643.5566 480.1760
v 325.8377 -1643.5578 480.1760
v 326.1548 -1644.2837 480.1758
f 457 458 459
v 325.8377 -1643.5578 480.1760
v 326.1057 -1643.5566 480.1760
v 326.0659 -1643.4645 480.1760
f 460 461 462
v 326.1548 -1644.2837 480.1758
v 326.5462 -1644.1287 480.1758
v 326.1057 -1643.5566 480.1760
f 463 464 465
v 326.9490 -1643.9666 470.8982
v 326.9491 -1643.9671 472.5181
v 326.5457 -1644.1270 472.5181
f 466 467 468
v 326.1542 -1644.2816 470.8982
v 326.9490 -1643.9666 470.8982
v 326.5457 -1644.1270 472.5181
f 469 470 471
v 326.5457 -1644.1270 472.5181
v 326.1548 -1644.2837 480.1758
v 326.1542 -1644.2816 470.8982
f 472 473 474
v 326.5462 -1644.1287 480.1758
v 326.1548 -1644.2837 480.1758
v 326.5457 -1644.1270 472.5181
f 475 476 477
v 326.5759 -1643.2546 470.8984
v 326.5761 -1643.2550 472.5183
v 326.9491 -1643.9671 472.5181
f 478 479 480
v 326.0655 -1643.4626 472.5183
v 325.8372 -1643.5556 470.8984
v 325.8377 -1643.5578 480.1760
f 481 482 483
v 326.0659 -1643.4645 480.1760
v 326.0655 -1643.4626 472.5183
v 325.8377 -1643.5578 480.1760
f 484 485 486
v 326.5759 -1643.2546 470.8984
v 326.0655 -1643.4626 472.5183
v 326.5761 -1643.2550 472.5183
f 487 488 489
v 325.8372 -1643.5556 470.8984
v 326.0655 -1643.4626 472.5183
v 326.5759 -1643.2546 470.8984
f 490 491 492
v 324.4119 -1644.2098 479.4389
v 322.7757 -1644.9622 478.1869
v 324.7891 -1644.8899 479.4677
f 493 494 495
v 323.2075 -1645.8063 478.1376
v 324.7891 -1644.8899 479.4677
v 322.7757 -1644.9622 478.1869
f 496 497 498
v 324.7885 -1644.8878 470.8981
v 324.7891 -1644.8899 479.4677
v 323.2075 -1645.8063 478.1376
f 499 500 501
v 321.5078 -1646.0667 477.6707
v 321.9544 -1646.9269 477.5754
v 322.7757 -1644.9622 478.1869
f 502 503 504
v 321.5074 -1646.0651 470.8980
v 321.5078 -1646.0667 477.6707
v 322.7753 -1644.9605 470.8982
f 505 506 507
v 323.2075 -1645.8063 478.1376
v 322.7757 -1644.9622 478.1869
v 321.9544 -1646.9269 477.5754
f 508 509 510
v 323.2071 -1645.8047 470.8979
v 323.2075 -1645.8063 478.1376
v 321.9544 -1646.9269 477.5754
f 511 512 513
v 320.6092 -1647.3733 477.3024
v 321.4978 -1647.9146 477.2972
v 321.5078 -1646.0667 477.6707
f 514 515 516
v 320.6088 -1647.3717 470.8977
v 320.6092 -1647.3733 477.3024
v 321.5074 -1646.0651 470.8980
f 517 518 519
v 321.9544 -1646.9269 477.5754
v 321.5078 -1646.0667 477.6707
v 321.4978 -1647.9146 477.2972
f 520 521 522
v 321.9540 -1646.9253 470.8977
v 321.9544 -1646.9269 477.5754
v 321.4978 -1647.9146 477.2972
f 523 524 525
v 321.4974 -1647.9132 470.8975
v 321.4978 -1647.9146 477.2972
v 320.8636 -1649.4599 477.2298
f 526 527 528
v 319.9743 -1649.1835 477.2279
v 319.4451 -1650.7421 476.8595
v 320.8636 -1649.4599 477.2298
f 529 530 531
v 315.1932 -1681.6223 476.3357
v 315.5105 -1681.1541 476.3358
v 313.9798 -1680.6149 476.0420
f 532 533 534
v 315.1929 -1681.6209 470.8889
v 315.1932 -1681.6223 476.3357
v 313.9798 -1680.6149 476.0420
f 535 536 537
v 315.5105 -1681.1541 476.3358
v 315.1932 -1681.6223 476.3357
v 317.2800 -1682.1199 476.6304
f 538 539 540
v 315.5101 -1681.1528 470.8890
v 315.5105 -1681.1541 476.3358
v 317.2796 -1682.1185 470.8886
f 541 542 543
v 317.0396 -1682.6303 476.6303
v 317.2800 -1682.1199 476.6304
v 315.1932 -1681.6223 476.3357
f 544 545 546
v 317.0392 -1682.6289 470.8885
v 317.0396 -1682.6303 476.6303
v 315.1932 -1681.6223 476.3357
f 547 548 549
v 317.0396 -1682.6303 476.6303
v 318.6749 -1683.2857 476.7771
v 317.2800 -1682.1199 476.6304
f 550 551 552
v 318.6745 -1683.2844 470.8883
v 318.6749 -1683.2857 476.7771
v 317.0396 -1682.6303 476.6303
f 553 554 555
v 320.2223 -1682.7719 476.9251
v 318.7924 -1682.7261 476.7772
v 320.3108 -1683.3381 476.9250
f 556 557 558
v 318.7920 -1682.7246 470.8884
v 318.7924 -1682.7261 476.7772
v 320.2219 -1682.7705 470.8883
f 559 560 561
v 320.3754 -1682.7173 476.9251
v 320.2223 -1682.7719 476.9251
v 320.3108 -1683.3381 476.9250
f 562 563 564
v 320.3108 -1683.3381 476.9250
v 321.1556 -1683.0374 476.9250
v 320.3754 -1682.7173 476.9251
f 565 566 567
v 320.9657 -1682.5055 470.8884
v 320.9657 -1682.5055 471.1384
v 321.1552 -1683.0360 471.1382
f 568 569 570
v 320.2219 -1682.7705 470.8883
v 320.2223 -1682.7719 476.9251
v 320.3751 -1682.7159 471.1383
f 571 572 573
v 320.3754 -1682.7173 476.9251
v 320.3751 -1682.7159 471.1383
v 320.2223 -1682.7719 476.9251
f 574 575 576
v 320.9657 -1682.5055 470.8884
v 320.2219 -1682.7705 470.8883
v 320.3751 -1682.7159 471.1383
f 577 578 579
v 321.1552 -1683.0360 471.1382
v 321.1556 -1683.0374 476.9250
v 320.3108 -1683.3381 476.9250
f 580 581 582
v 321.1552 -1683.0359 470.8882
v 321.1552 -1683.0360 471.1382
v 320.3104 -1683.3367 470.8882
f 583 584 585
v 318.6749 -1683.2857 476.7771
v 318.7924 -1682.7261 476.7772
v 317.2800 -1682.1199 476.6304
f 586 587 588
v 318.7924 -1682.7261 476.7772
v 318.6749 -1683.2857 476.7771
v 320.3108 -1683.3381 476.9250
f 589 590 591
v 317.2796 -1682.1185 470.8886
v 317.2800 -1682.1199 476.6304
v 318.7920 -1682.7246 470.8884
f 592 593 594
v 320.3104 -1683.3367 470.8882
v 320.3108 -1683.3381 476.9250
v 318.6749 -1683.2857 476.7771
f 595 596 597
v 323.1116 -1679.3177 477.2788
v 323.5874 -1678.3626 480.1519
v 321.9311 -1678.7825 477.2790
f 598 599 600
v 323.5868 -1678.3605 471.1393
v 323.5874 -1678.3626 480.1519
v 323.1116 -1679.3177 477.2788
f 601 602 603
v 320.3255 -1682.6972 477.2780
v 323.1116 -1679.3177 477.2788
v 321.9311 -1678.7825 477.2790
f 604 605 606
v 323.1116 -1679.3177 477.2788
v 320.3255 -1682.6972 477.2780
v 321.5243 -1683.1885 477.2779
f 607 608 609
v 320.3251 -1682.6958 471.1383
v 320.3255 -1682.6972 477.2780
v 321.9311 -1678.7825 477.2790
f 610 611 612
v 323.1113 -1679.3162 471.1391
v 323.1116 -1679.3177 477.2788
v 321.5243 -1683.1885 477.2779
f 613 614 615
v 322.3997 -1677.8414 480.1521
v 321.9311 -1678.7825 477.2790
v 323.5874 -1678.3626 480.1519
f 616 617 618
v 321.9307 -1678.7810 471.1393
v 321.9311 -1678.7825 477.2790
v 322.3992 -1677.8393 471.1395
f 619 620 621
v 321.5239 -1683.1870 471.1382
v 321.5243 -1683.1885 477.2779
v 321.1556 -1683.0374 476.9250
f 622 623 624
v 321.5243 -1683.1885 477.2779
v 320.3255 -1682.6972 477.2780
v 321.1556 -1683.0374 476.9250
f 625 626 627
v 321.1556 -1683.0374 476.9250
v 321.1552 -1683.0360 471.1382
v 321.5239 -1683.1870 471.1382
f 628 629 630
v 320.3251 -1682.6958 471.1383
v 320.3754 -1682.7173 476.9251
v 320.3255 -1682.6972 477.2780
f 631 632 633
v 320.3754 -1682.7173 476.9251
v 320.3251 -1682.6958 471.1383
v 320.3751 -1682.7159 471.1383
f 634 635 636
v 314.2818 -1676.4244 470.8903
v 314.2821 -1676.4256 475.9691
v 314.1781 -1678.6623 475.8215
f 637 638 639
v 313.6130 -1678.7028 475.8215
v 313.9798 -1680.6149 476.0420
v 314.1781 -1678.6623 475.8215
f 640 641 642
v 313.9796 -1680.6136 470.8892
v 313.9798 -1680.6149 476.0420
v 313.6130 -1678.7028 475.8215
f 643 644 645
v 314.4957 -1680.3103 476.0421
v 314.1781 -1678.6623 475.8215
v 313.9798 -1680.6149 476.0420
f 646 647 648
v 314.1778 -1678.6611 470.8897
v 314.1781 -1678.6623 475.8215
v 314.4954 -1680.3090 470.8893
f 649 650 651
v 314.4957 -1680.3103 476.0421
v 313.9798 -1680.6149 476.0420
v 315.5105 -1681.1541 476.3358
f 652 653 654
v 314.4954 -1680.3090 470.8893
v 314.4957 -1680.3103 476.0421
v 315.5101 -1681.1528 470.8890
f 655 656 657
v 316.4251 -1662.6100 475.8256
v 318.9196 -1656.8726 476.1950
v 317.9613 -1656.6261 476.1951
f 658 659 660
v 318.9196 -1656.8726 476.1950
v 316.4251 -1662.6100 475.8256
v 317.4136 -1662.8517 475.8255
f 661 662 663
v 316.4249 -1662.6089 470.8938
v 316.4251 -1662.6100 475.8256
v 317.9610 -1656.6248 470.8953
f 664 665 666
v 316.0339 -1668.2901 476.0451
v 317.4136 -1662.8517 475.8255
v 316.4251 -1662.6100 475.8256
f 667 668 669
v 316.4251 -1662.6100 475.8256
v 315.1535 -1668.0908 476.0452
v 316.0339 -1668.2901 476.0451
f 670 671 672
v 315.1531 -1668.0895 470.8924
v 315.1535 -1668.0908 476.0452
v 316.4251 -1662.6100 475.8256
f 673 674 675
v 314.7867 -1673.9869 476.0437
v 316.0339 -1668.2901 476.0451
v 315.1535 -1668.0908 476.0452
f 676 677 678
v 315.1535 -1668.0908 476.0452
v 313.9339 -1673.8746 476.0438
v 314.7867 -1673.9869 476.0437
f 679 680 681
v 315.9479 -1668.6819 475.8880
v 316.0339 -1668.2901 475.8881
v 316.0339 -1668.2901 476.0451
f 682 683 684
v 315.9476 -1668.6809 471.7372
v 316.0336 -1668.2890 470.8923
v 316.0337 -1668.2891 471.7373
f 685 686 687
v 315.9476 -1668.6809 471.7372
v 315.9479 -1668.6819 475.8880
v 314.7867 -1673.9869 476.0437
f 688 689 690
v 316.0339 -1668.2901 476.0451
v 314.7867 -1673.9869 476.0437
v 315.9479 -1668.6819 475.8880
f 691 692 693
v 316.0336 -1668.2890 470.8923
v 315.9476 -1668.6809 471.7372
v 314.7863 -1673.9857 470.8909
f 694 695 696
v 313.9337 -1673.8735 470.8910
v 313.9339 -1673.8746 476.0438
v 315.1535 -1668.0908 476.0452
f 697 698 699
v 321.2212 -1669.2730 471.7368
v 321.2214 -1669.2740 475.8876
v 320.9651 -1670.1503 475.8874
f 700 701 702
v 320.9648 -1670.1493 471.7366
v 320.9651 -1670.1503 475.8874
v 315.9479 -1668.6819 475.8880
f 703 704 705
v 316.1600 -1667.7914 471.7375
v 316.1603 -1667.7925 475.8883
v 321.2214 -1669.2740 475.8876
f 706 707 708
v 321.2212 -1669.2730 471.7368
v 316.0337 -1668.2891 471.7373
v 316.1600 -1667.7914 471.7375
f 709 710 711
v 315.9476 -1668.6809 471.7372
v 316.0337 -1668.2891 471.7373
v 320.9648 -1670.1493 471.7366
f 712 713 714
v 321.2212 -1669.2730 471.7368
v 320.9648 -1670.1493 471.7366
v 316.0337 -1668.2891 471.7373
f 715 716 717
v 316.0339 -1668.2901 475.8881
v 320.9651 -1670.1503 475.8874
v 321.2214 -1669.2740 475.8876
f 718 719 720
v 315.9479 -1668.6819 475.8880
v 320.9651 -1670.1503 475.8874
v 316.0339 -1668.2901 475.8881
f 721 722 723
v 316.1603 -1667.7925 475.8883
v 316.0339 -1668.2901 475.8881
v 321.2214 -1669.2740 475.8876
f 724 725 726
v 313.7199 -1676.3879 470.8903
v 313.7202 -1676.3891 475.9691
v 313.9337 -1673.8735 470.8910
f 727 728 729
v 314.7863 -1673.9857 470.8909
v 314.7867 -1673.9869 476.0437
v 314.2821 -1676.4256 475.9691
f 730 731 732
v 313.6127 -1678.7016 470.8897
v 313.6130 -1678.7028 475.8215
v 313.7199 -1676.3879 470.8903
f 733 734 735
v 320.4515 -1650.9678 476.8694
v 320.8636 -1649.4599 477.2298
v 319.4451 -1650.7421 476.8595
f 736 737 738
v 320.8632 -1649.4585 470.8971
v 320.8636 -1649.4599 477.2298
v 320.4515 -1650.9678 476.8694
f 739 740 741
v 320.4515 -1650.9678 476.8694
v 319.4451 -1650.7421 476.8595
v 320.2568 -1651.9631 476.1222
f 742 743 744
v 320.4511 -1650.9664 470.8966
v 320.4515 -1650.9678 476.8694
v 320.2568 -1651.9631 476.1222
f 745 746 747
v 319.2854 -1651.7485 476.1223
v 320.2568 -1651.9631 476.1222
v 319.4451 -1650.7421 476.8595
f 748 749 750
v 319.2850 -1651.7473 470.8965
v 319.2854 -1651.7485 476.1223
v 319.4447 -1650.7407 470.8967
f 751 752 753
v 319.2854 -1651.7485 476.1223
v 317.9613 -1656.6261 476.1951
v 318.9196 -1656.8726 476.1950
f 754 755 756
v 318.9196 -1656.8726 476.1950
v 320.2568 -1651.9631 476.1222
v 319.2854 -1651.7485 476.1223
f 757 758 759
v 320.2565 -1651.9618 470.8964
v 320.2568 -1651.9631 476.1222
v 318.9193 -1656.8714 470.8952
f 760 761 762
v 317.9610 -1656.6248 470.8953
v 317.9613 -1656.6261 476.1951
v 319.2854 -1651.7485 476.1223
f 763 764 765
v 323.2327 -1675.6660 482.1417
v 325.7569 -1673.0338 482.5842
v 324.5662 -1672.5217 482.5844
f 766 767 768
v 325.7569 -1673.0338 482.5842
v 323.2327 -1675.6660 482.1417
v 324.4345 -1676.1513 482.1415
f 769 770 771
v 328.3488 -1667.1016 482.5856
v 330.3058 -1662.6265 481.4817
v 329.1293 -1662.0824 481.4819
f 772 773 774
v 329.1293 -1662.0824 481.4819
v 327.1612 -1666.5824 482.5858
v 328.3488 -1667.1016 482.5856
f 775 776 777
v 328.3481 -1667.0990 471.1420
v 330.3052 -1662.6242 471.1431
v 330.3058 -1662.6265 481.4817
f 778 779 780
v 328.3488 -1667.1016 482.5856
v 328.3481 -1667.0990 471.1420
v 330.3058 -1662.6265 481.4817
f 781 782 783
v 328.3481 -1667.0990 471.1420
v 325.7569 -1673.0338 482.5842
v 325.7561 -1673.0312 471.1406
f 784 785 786
v 328.3488 -1667.1016 482.5856
v 325.7569 -1673.0338 482.5842
v 328.3481 -1667.0990 471.1420
f 787 788 789
v 327.1605 -1666.5798 471.1422
v 324.5655 -1672.5190 471.1408
v 324.5662 -1672.5217 482.5844
f 790 791 792
v 327.1612 -1666.5824 482.5858
v 327.1605 -1666.5798 471.1422
v 324.5662 -1672.5217 482.5844
f 793 794 795
v 329.1286 -1662.0800 471.1433
v 327.1605 -1666.5798 471.1422
v 329.1293 -1662.0824 481.4819
f 796 797 798
v 327.1612 -1666.5824 482.5858
v 329.1293 -1662.0824 481.4819
v 327.1605 -1666.5798 471.1422
f 799 800 801
v 326.1548 -1644.2837 480.1758
v 324.4119 -1644.2098 479.4389
v 324.7891 -1644.8899 479.4677
f 802 803 804
v 324.4119 -1644.2098 479.4389
v 326.1548 -1644.2837 480.1758
v 325.8377 -1643.5578 480.1760
f 805 806 807
v 322.7757 -1644.9622 478.1869
v 324.4113 -1644.2078 470.8983
v 322.7753 -1644.9605 470.8982
f 808 809 810
v 322.7757 -1644.9622 478.1869
v 325.8372 -1643.5556 470.8984
v 324.4113 -1644.2078 470.8983
f 811 812 813
v 325.8372 -1643.5556 470.8984
v 324.4119 -1644.2098 479.4389
v 325.8377 -1643.5578 480.1760
f 814 815 816
v 322.7757 -1644.9622 478.1869
v 324.4119 -1644.2098 479.4389
v 325.8372 -1643.5556 470.8984
f 817 818 819
v 321.4978 -1647.9146 477.2972
v 319.9743 -1649.1835 477.2279
v 320.8636 -1649.4599 477.2298
f 820 821 822
v 319.9743 -1649.1835 477.2279
v 321.4978 -1647.9146 477.2972
v 320.6092 -1647.3733 477.3024
f 823 824 825
v 319.9739 -1649.1821 470.8972
v 319.4447 -1650.7407 470.8967
v 319.4451 -1650.7421 476.8595
f 826 827 828
v 319.9743 -1649.1835 477.2279
v 319.9739 -1649.1821 470.8972
v 319.4451 -1650.7421 476.8595
f 829 830 831
v 320.6088 -1647.3717 470.8977
v 319.9743 -1649.1835 477.2279
v 320.6092 -1647.3733 477.3024
f 832 833 834
v 319.9739 -1649.1821 470.8972
v 319.9743 -1649.1835 477.2279
v 320.6088 -1647.3717 470.8977
f 835 836 837
v 313.6130 -1678.7028 475.8215
v 314.2821 -1676.4256 475.9691
v 313.7202 -1676.3891 475.9691
f 838 839 840
v 314.2821 -1676.4256 475.9691
v 313.6130 -1678.7028 475.8215
v 314.1781 -1678.6623 475.8215
f 841 842 843
v 316.1603 -1667.7925 475.8883
v 317.4136 -1662.8517 475.8255
v 316.0339 -1668.2901 476.0451
f 844 845 846
v 318.9193 -1656.8714 470.8952
v 318.9196 -1656.8726 476.1950
v 317.4132 -1662.8505 470.8937
f 847 848 849
v 317.4136 -1662.8517 475.8255
v 317.4132 -1662.8505 470.8937
v 318.9196 -1656.8726 476.1950
f 850 851 852
v 317.4136 -1662.8517 475.8255
v 316.1600 -1667.7914 471.7375
v 317.4132 -1662.8505 470.8937
f 853 854 855
v 316.1600 -1667.7914 471.7375
v 317.4136 -1662.8517 475.8255
v 316.1603 -1667.7925 475.8883
f 856 857 858
v 316.0336 -1668.2890 470.8923
v 316.1600 -1667.7914 471.7375
v 316.0337 -1668.2891 471.7373
f 859 860 861
v 317.4132 -1662.8505 470.8937
v 316.1600 -1667.7914 471.7375
v 316.0336 -1668.2890 470.8923
f 862 863 864
v 316.0339 -1668.2901 476.0451
v 316.0339 -1668.2901 475.8881
v 316.1603 -1667.7925 475.8883
f 865 866 867
v 313.9339 -1673.8746 476.0438
v 313.7202 -1676.3891 475.9691
v 314.2821 -1676.4256 475.9691
f 868 869 870
v 314.2821 -1676.4256 475.9691
v 314.7867 -1673.9869 476.0437
v 313.9339 -1673.8746 476.0438
f 871 872 873
v 321.9307 -1678.7810 471.1393
v 320.3751 -1682.7159 471.1383
v 320.3251 -1682.6958 471.1383
f 874 875 876
v 324.4338 -1676.1487 471.1399
v 322.3992 -1677.8393 471.1395
v 323.2320 -1675.6634 471.1401
f 877 878 879
v 320.9657 -1682.5055 471.1384
v 320.3751 -1682.7159 471.1383
v 321.9307 -1678.7810 471.1393
f 880 881 882
v 322.3992 -1677.8393 471.1395
v 320.9657 -1682.5055 471.1384
v 321.9307 -1678.7810 471.1393
f 883 884 885
v 323.1113 -1679.3162 471.1391
v 321.5239 -1683.1870 471.1382
v 321.1552 -1683.0360 471.1382
f 886 887 888
v 320.9657 -1682.5055 471.1384
v 323.1113 -1679.3162 471.1391
v 321.1552 -1683.0360 471.1382
f 889 890 891
v 323.1113 -1679.3162 471.1391
v 322.3992 -1677.8393 471.1395
v 323.5868 -1678.3605 471.1393
f 892 893 894
v 322.3992 -1677.8393 471.1395
v 323.1113 -1679.3162 471.1391
v 320.9657 -1682.5055 471.1384
f 895 896 897
v 322.3992 -1677.8393 471.1395
v 324.4338 -1676.1487 471.1399
v 323.5868 -1678.3605 471.1393
f 898 899 900
v 324.4338 -1676.1487 471.1399
v 323.2320 -1675.6634 471.1401
v 324.5655 -1672.5190 471.1408
f 901 902 903
v 324.5655 -1672.5190 471.1408
v 327.1605 -1666.5798 471.1422
v 325.7561 -1673.0312 471.1406
f 904 905 906
v 327.1605 -1666.5798 471.1422
v 329.1286 -1662.0800 471.1433
v 328.3481 -1667.0990 471.1420
f 907 908 909
v 335.9563 -1647.3359 471.1468
v 330.2611 -1644.7396 471.1478
v 330.7983 -1643.5610 471.1480
f 910 911 912
v 329.1286 -1662.0800 471.1433
v 332.6188 -1654.9402 471.1450
v 330.3052 -1662.6242 471.1431
f 913 914 915
v 328.3481 -1667.0990 471.1420
v 325.7561 -1673.0312 471.1406
v 327.1605 -1666.5798 471.1422
f 916 917 918
v 330.3052 -1662.6242 471.1431
v 328.3481 -1667.0990 471.1420
v 329.1286 -1662.0800 471.1433
f 919 920 921
v 337.6560 -1646.6874 471.1469
v 333.7943 -1655.4853 471.1448
v 335.9563 -1647.3359 471.1468
f 922 923 924
v 332.6188 -1654.9402 471.1450
v 333.7943 -1655.4853 471.1448
v 330.3052 -1662.6242 471.1431
f 925 926 927
v 330.7983 -1643.5610 471.1480
v 337.6560 -1646.6874 471.1469
v 335.9563 -1647.3359 471.1468
f 928 929 930
v 335.9563 -1647.3359 471.1468
v 333.7943 -1655.4853 471.1448
v 332.6188 -1654.9402 471.1450
f 931 932 933
v 324.4338 -1676.1487 471.1399
v 324.5655 -1672.5190 471.1408
v 325.7561 -1673.0312 471.1406
f 934 935 936
v 319.4447 -1650.7407 470.8967
v 319.9739 -1649.1821 470.8972
v 320.4511 -1650.9664 470.8966
f 937 938 939
v 320.8632 -1649.4585 470.8971
v 320.6088 -1647.3717 470.8977
v 321.4974 -1647.9132 470.8975
f 940 941 942
v 320.4511 -1650.9664 470.8966
v 319.9739 -1649.1821 470.8972
v 320.8632 -1649.4585 470.8971
f 943 944 945
v 319.9739 -1649.1821 470.8972
v 320.6088 -1647.3717 470.8977
v 320.8632 -1649.4585 470.8971
f 946 947 948
v 319.4447 -1650.7407 470.8967
v 320.4511 -1650.9664 470.8966
v 320.2565 -1651.9618 470.8964
f 949 950 951
v 317.9610 -1656.6248 470.8953
v 318.9193 -1656.8714 470.8952
v 317.4132 -1662.8505 470.8937
f 952 953 954
v 319.2850 -1651.7473 470.8965
v 319.4447 -1650.7407 470.8967
v 320.2565 -1651.9618 470.8964
f 955 956 957
v 318.9193 -1656.8714 470.8952
v 317.9610 -1656.6248 470.8953
v 319.2850 -1651.7473 470.8965
f 958 959 960
v 317.9610 -1656.6248 470.8953
v 317.4132 -1662.8505 470.8937
v 316.4249 -1662.6089 470.8938
f 961 962 963
v 318.9193 -1656.8714 470.8952
v 319.2850 -1651.7473 470.8965
v 320.2565 -1651.9618 470.8964
f 964 965 966
v 325.8372 -1643.5556 470.8984
v 326.1542 -1644.2816 470.8982
v 324.7885 -1644.8878 470.8981
f 967 968 969
v 326.9490 -1643.9666 470.8982
v 326.1542 -1644.2816 470.8982
v 326.5759 -1643.2546 470.8984
f 970 971 972
v 325.8372 -1643.5556 470.8984
v 326.5759 -1643.2546 470.8984
v 326.1542 -1644.2816 470.8982
f 973 974 975
v 325.8372 -1643.5556 470.8984
v 324.7885 -1644.8878 470.8981
v 324.4113 -1644.2078 470.8983
f 976 977 978
v 321.9540 -1646.9253 470.8977
v 321.5074 -1646.0651 470.8980
v 323.2071 -1645.8047 470.8979
f 979 980 981
v 321.4974 -1647.9132 470.8975
v 320.6088 -1647.3717 470.8977
v 321.9540 -1646.9253 470.8977
f 982 983 984
v 320.6088 -1647.3717 470.8977
v 321.5074 -1646.0651 470.8980
v 321.9540 -1646.9253 470.8977
f 985 986 987
v 324.4113 -1644.2078 470.8983
v 323.2071 -1645.8047 470.8979
v 322.7753 -1644.9605 470.8982
f 988 989 990
v 321.5074 -1646.0651 470.8980
v 322.7753 -1644.9605 470.8982
v 323.2071 -1645.8047 470.8979
f 991 992 993
v 324.7885 -1644.8878 470.8981
v 323.2071 -1645.8047 470.8979
v 324.4113 -1644.2078 470.8983
f 994 995 996
v 320.2219 -1682.7705 470.8883
v 321.1552 -1683.0359 470.8882
v 320.3104 -1683.3367 470.8882
f 997 998 999
v 321.1552 -1683.0359 470.8882
v 320.2219 -1682.7705 470.8883
v 320.9657 -1682.5055 470.8884
f 1000 1001 1002
v 320.3104 -1683.3367 470.8882
v 318.7920 -1682.7246 470.8884
v 320.2219 -1682.7705 470.8883
f 1003 1004 1005
v 318.7920 -1682.7246 470.8884
v 320.3104 -1683.3367 470.8882
v 318.6745 -1683.2844 470.8883
f 1006 1007 1008
v 317.2796 -1682.1185 470.8886
v 318.6745 -1683.2844 470.8883
v 317.0392 -1682.6289 470.8885
f 1009 1010 1011
v 317.2796 -1682.1185 470.8886
v 317.0392 -1682.6289 470.8885
v 315.5101 -1681.1528 470.8890
f 1012 1013 1014
v 315.1929 -1681.6209 470.8889
v 315.5101 -1681.1528 470.8890
v 317.0392 -1682.6289 470.8885
f 1015 1016 1017
v 314.4954 -1680.3090 470.8893
v 315.5101 -1681.1528 470.8890
v 315.1929 -1681.6209 470.8889
f 1018 1019 1020
v 318.7920 -1682.7246 470.8884
v 318.6745 -1683.2844 470.8883
v 317.2796 -1682.1185 470.8886
f 1021 1022 1023
v 315.1531 -1668.0895 470.8924
v 314.7863 -1673.9857 470.8909
v 313.9337 -1673.8735 470.8910
f 1024 1025 1026
v 314.2818 -1676.4244 470.8903
v 313.9337 -1673.8735 470.8910
v 314.7863 -1673.9857 470.8909
f 1027 1028 1029
v 315.1531 -1668.0895 470.8924
v 316.4249 -1662.6089 470.8938
v 316.0336 -1668.2890 470.8923
f 1030 1031 1032
v 316.0336 -1668.2890 470.8923
v 316.4249 -1662.6089 470.8938
v 317.4132 -1662.8505 470.8937
f 1033 1034 1035
v 314.7863 -1673.9857 470.8909
v 315.1531 -1668.0895 470.8924
v 316.0336 -1668.2890 470.8923
f 1036 1037 1038
v 314.4954 -1680.3090 470.8893
v 313.6127 -1678.7016 470.8897
v 314.1778 -1678.6611 470.8897
f 1039 1040 1041
v 315.1929 -1681.6209 470.8889
v 313.9796 -1680.6136 470.8892
v 314.4954 -1680.3090 470.8893
f 1042 1043 1044
v 313.9796 -1680.6136 470.8892
v 313.6127 -1678.7016 470.8897
v 314.4954 -1680.3090 470.8893
f 1045 1046 1047
v 314.2818 -1676.4244 470.8903
v 314.1778 -1678.6611 470.8897
v 313.7199 -1676.3879 470.8903
f 1048 1049 1050
v 313.6127 -1678.7016 470.8897
v 313.7199 -1676.3879 470.8903
v 314.1778 -1678.6611 470.8897
f 1051 1052 1053
v 313.9337 -1673.8735 470.8910
v 314.2818 -1676.4244 470.8903
v 313.7199 -1676.3879 470.8903
f 1054 1055 1056
v 324.4338 -1676.1487 471.1399
v 323.5874 -1678.3626 480.1519
v 323.5868 -1678.3605 471.1393
f 1057 1058 1059
v 322.3997 -1677.8414 480.1521
v 323.2327 -1675.6660 482.1417
v 323.2320 -1675.6634 471.1401
f 1060 1061 1062
v 325.7561 -1673.0312 471.1406
v 324.4345 -1676.1513 482.1415
v 324.4338 -1676.1487 471.1399
f 1063 1064 1065
v 323.2327 -1675.6660 482.1417
v 324.5662 -1672.5217 482.5844
v 324.5655 -1672.5190 471.1408
f 1066 1067 1068
v 337.6565 -1646.6894 479.0546
v 333.7949 -1655.4874 480.0105
v 333.7943 -1655.4853 471.1448
f 1069 1070 1071
v 329.1286 -1662.0800 471.1433
v 332.6194 -1654.9423 480.0107
v 332.6188 -1654.9402 471.1450
f 1072 1073 1074
v 333.7949 -1655.4874 480.0105
v 330.3058 -1662.6265 481.4817
v 330.3052 -1662.6242 471.1431
f 1075 1076 1077
v 335.9563 -1647.3359 471.1468
v 330.2616 -1644.7414 479.0555
v 330.2611 -1644.7396 471.1478
f 1078 1079 1080
v 329.5200 -1639.2407 488.8026
v 330.5230 -1639.9593 488.8024
v 331.1198 -1640.3865 487.0962
f 1081 1082 1083
v 329.5200 -1639.2407 488.8026
v 331.1198 -1640.3865 487.0962
v 329.5198 -1639.2402 487.0966
f 1084 1085 1086
v 327.5594 -1639.3920 487.0967
v 327.5594 -1639.3923 488.8037
v 329.5200 -1639.2407 488.8026
f 1087 1088 1089
v 326.1538 -1640.7686 488.8034
v 327.5594 -1639.3923 488.8037
v 327.5594 -1639.3920 487.0967
f 1090 1091 1092
v 325.9624 -1642.7248 487.0959
v 326.1538 -1640.7686 488.8034
v 326.1537 -1640.7683 487.0964
f 1093 1094 1095
v 331.6088 -1642.2913 488.8027
v 331.2347 -1643.0713 488.8025
v 331.6087 -1642.2909 487.0957
f 1096 1097 1098
v 332.6188 -1654.9402 471.1450
v 335.9568 -1647.3378 479.0545
v 335.9563 -1647.3359 471.1468
f 1099 1100 1101
v 325.6861 -1642.0940 487.0961
v 325.7621 -1641.3302 487.0963
v 325.7612 -1641.3268 472.5189
f 1102 1103 1104
v 325.8032 -1642.8490 472.5185
v 325.6861 -1642.0940 487.0961
v 325.6852 -1642.0906 472.5187
f 1105 1106 1107
v 327.1774 -1644.6346 472.5179
v 326.5736 -1644.1654 487.0955
v 326.5726 -1644.1620 472.5181
f 1108 1109 1110
v 327.8806 -1644.9426 472.5178
v 327.1783 -1644.6380 487.0953
v 327.1774 -1644.6346 472.5179
f 1111 1112 1113
v 328.6373 -1645.0646 472.5178
v 327.8815 -1644.9460 487.0952
v 327.8806 -1644.9426 472.5178
f 1114 1115 1116
v 329.4015 -1644.9956 472.5177
v 328.6382 -1645.0680 487.0952
v 328.6373 -1645.0646 472.5178
f 1117 1118 1119
v 330.1242 -1644.7385 472.5178
v 329.4024 -1644.9991 487.0951
v 329.4015 -1644.9956 472.5177
f 1120 1121 1122
v 331.6217 -1643.0546 472.5181
v 331.2718 -1643.7401 487.0954
v 331.2709 -1643.7366 472.5180
f 1123 1124 1125
v 331.7927 -1642.3069 472.5183
v 331.6227 -1643.0579 487.0955
v 331.6217 -1643.0546 472.5181
f 1126 1127 1128
v 331.7707 -1641.5400 472.5185
v 331.7936 -1642.3104 487.0957
v 331.7927 -1642.3069 472.5183
f 1129 1130 1131
v 331.5597 -1640.8013 472.5187
v 331.7717 -1641.5433 487.0959
v 331.7707 -1641.5400 472.5185
f 1132 1133 1134
v 331.1715 -1640.1402 472.5189
v 331.5607 -1640.8048 487.0961
v 331.5597 -1640.8013 472.5187
f 1135 1136 1137
v 330.6310 -1639.5948 472.5191
v 331.1724 -1640.1437 487.0963
v 331.1715 -1640.1402 472.5189
f 1138 1139 1140
v 329.9720 -1639.2021 472.5192
v 330.6319 -1639.5982 487.0965
v 330.6310 -1639.5948 472.5191
f 1141 1142 1143
v 329.2366 -1638.9851 472.5193
v 329.9729 -1639.2054 487.0966
v 329.9720 -1639.2021 472.5192
f 1144 1145 1146
v 328.4696 -1638.9580 472.5193
v 329.2375 -1638.9885 487.0967
v 329.2366 -1638.9851 472.5193
f 1147 1148 1149
v 327.7192 -1639.1221 472.5193
v 328.4705 -1638.9614 487.0968
v 328.4696 -1638.9580 472.5193
f 1150 1151 1152
v 327.0352 -1639.4682 472.5193
v 327.7201 -1639.1254 487.0968
v 327.7192 -1639.1221 472.5193
f 1153 1154 1155
v 326.4569 -1639.9726 472.5192
v 327.0362 -1639.4715 487.0967
v 327.0352 -1639.4682 472.5193
f 1156 1157 1158
v 326.0241 -1640.6065 472.5190
v 326.4578 -1639.9760 487.0966
v 326.4569 -1639.9726 472.5192
f 1159 1160 1161
v 325.7612 -1641.3268 472.5189
v 326.0251 -1640.6099 487.0964
v 326.0241 -1640.6065 472.5190
f 1162 1163 1164
v 330.3229 -1644.6067 479.0555
v 330.7613 -1644.3136 487.0952
v 330.1251 -1644.7420 487.0952
f 1165 1166 1167
v 330.7613 -1644.3136 487.0952
v 330.7608 -1644.3118 479.0555
v 331.2462 -1643.7671 479.0557
f 1168 1169 1170
v 326.1542 -1644.2816 470.8982
v 324.7891 -1644.8899 479.4677
v 324.7885 -1644.8878 470.8981
f 1171 1172 1173
v 326.5759 -1643.2546 470.8984
v 326.9491 -1643.9671 472.5181
v 326.9490 -1643.9666 470.8982
f 1174 1175 1176
v 324.7885 -1644.8878 470.8981
v 323.2075 -1645.8063 478.1376
v 323.2071 -1645.8047 470.8979
f 1177 1178 1179
v 321.5078 -1646.0667 477.6707
v 322.7757 -1644.9622 478.1869
v 322.7753 -1644.9605 470.8982
f 1180 1181 1182
v 323.2071 -1645.8047 470.8979
v 321.9544 -1646.9269 477.5754
v 321.9540 -1646.9253 470.8977
f 1183 1184 1185
v 320.6092 -1647.3733 477.3024
v 321.5078 -1646.0667 477.6707
v 321.5074 -1646.0651 470.8980
f 1186 1187 1188
v 321.9540 -1646.9253 470.8977
v 321.4978 -1647.9146 477.2972
v 321.4974 -1647.9132 470.8975
f 1189 1190 1191
v 321.4974 -1647.9132 470.8975
v 320.8636 -1649.4599 477.2298
v 320.8632 -1649.4585 470.8971
f 1192 1193 1194
v 315.1929 -1681.6209 470.8889
v 313.9798 -1680.6149 476.0420
v 313.9796 -1680.6136 470.8892
f 1195 1196 1197
v 315.5105 -1681.1541 476.3358
v 317.2800 -1682.1199 476.6304
v 317.2796 -1682.1185 470.8886
f 1198 1199 1200
v 317.0392 -1682.6289 470.8885
v 315.1932 -1681.6223 476.3357
v 315.1929 -1681.6209 470.8889
f 1201 1202 1203
v 318.6745 -1683.2844 470.8883
v 317.0396 -1682.6303 476.6303
v 317.0392 -1682.6289 470.8885
f 1204 1205 1206
v 318.7924 -1682.7261 476.7772
v 320.2223 -1682.7719 476.9251
v 320.2219 -1682.7705 470.8883
f 1207 1208 1209
v 320.9657 -1682.5055 470.8884
v 321.1552 -1683.0360 471.1382
v 321.1552 -1683.0359 470.8882
f 1210 1211 1212
v 320.9657 -1682.5055 470.8884
v 320.3751 -1682.7159 471.1383
v 320.9657 -1682.5055 471.1384
f 1213 1214 1215
v 321.1552 -1683.0360 471.1382
v 320.3108 -1683.3381 476.9250
v 320.3104 -1683.3367 470.8882
f 1216 1217 1218
v 317.2800 -1682.1199 476.6304
v 318.7924 -1682.7261 476.7772
v 318.7920 -1682.7246 470.8884
f 1219 1220 1221
v 320.3104 -1683.3367 470.8882
v 318.6749 -1683.2857 476.7771
v 318.6745 -1683.2844 470.8883
f 1222 1223 1224
v 323.5868 -1678.3605 471.1393
v 323.1116 -1679.3177 477.2788
v 323.1113 -1679.3162 471.1391
f 1225 1226 1227
v 320.3251 -1682.6958 471.1383
v 321.9311 -1678.7825 477.2790
v 321.9307 -1678.7810 471.1393
f 1228 1229 1230
v 323.1113 -1679.3162 471.1391
v 321.5243 -1683.1885 477.2779
v 321.5239 -1683.1870 471.1382
f 1231 1232 1233
v 321.9311 -1678.7825 477.2790
v 322.3997 -1677.8414 480.1521
v 322.3992 -1677.8393 471.1395
f 1234 1235 1236
v 320.3255 -1682.6972 477.2780
v 320.3754 -1682.7173 476.9251
v 321.1556 -1683.0374 476.9250
f 1237 1238 1239
v 314.2818 -1676.4244 470.8903
v 314.1781 -1678.6623 475.8215
v 314.1778 -1678.6611 470.8897
f 1240 1241 1242
v 313.9796 -1680.6136 470.8892
v 313.6130 -1678.7028 475.8215
v 313.6127 -1678.7016 470.8897
f 1243 1244 1245
v 314.1781 -1678.6623 475.8215
v 314.4957 -1680.3103 476.0421
v 314.4954 -1680.3090 470.8893
f 1246 1247 1248
v 314.4957 -1680.3103 476.0421
v 315.5105 -1681.1541 476.3358
v 315.5101 -1681.1528 470.8890
f 1249 1250 1251
v 316.4251 -1662.6100 475.8256
v 317.9613 -1656.6261 476.1951
v 317.9610 -1656.6248 470.8953
f 1252 1253 1254
v 315.1531 -1668.0895 470.8924
v 316.4251 -1662.6100 475.8256
v 316.4249 -1662.6089 470.8938
f 1255 1256 1257
v 315.9476 -1668.6809 471.7372
v 314.7867 -1673.9869 476.0437
v 314.7863 -1673.9857 470.8909
f 1258 1259 1260
v 313.9337 -1673.8735 470.8910
v 315.1535 -1668.0908 476.0452
v 315.1531 -1668.0895 470.8924
f 1261 1262 1263
v 321.2212 -1669.2730 471.7368
v 320.9651 -1670.1503 475.8874
v 320.9648 -1670.1493 471.7366
f 1264 1265 1266
v 320.9648 -1670.1493 471.7366
v 315.9479 -1668.6819 475.8880
v 315.9476 -1668.6809 471.7372
f 1267 1268 1269
v 316.1600 -1667.7914 471.7375
v 321.2214 -1669.2740 475.8876
v 321.2212 -1669.2730 471.7368
f 1270 1271 1272
v 313.7202 -1676.3891 475.9691
v 313.9339 -1673.8746 476.0438
v 313.9337 -1673.8735 470.8910
f 1273 1274 1275
v 314.7863 -1673.9857 470.8909
v 314.2821 -1676.4256 475.9691
v 314.2818 -1676.4244 470.8903
f 1276 1277 1278
v 313.6130 -1678.7028 475.8215
v 313.7202 -1676.3891 475.9691
v 313.7199 -1676.3879 470.8903
f 1279 1280 1281
v 320.8632 -1649.4585 470.8971
v 320.4515 -1650.9678 476.8694
v 320.4511 -1650.9664 470.8966
f 1282 1283 1284
v 320.4511 -1650.9664 470.8966
v 320.2568 -1651.9631 476.1222
v 320.2565 -1651.9618 470.8964
f 1285 1286 1287
v 319.2854 -1651.7485 476.1223
v 319.4451 -1650.7421 476.8595
v 319.4447 -1650.7407 470.8967
f 1288 1289 1290
v 320.2568 -1651.9631 476.1222
v 318.9196 -1656.8726 476.1950
v 318.9193 -1656.8714 470.8952
f 1291 1292 1293
v 317.9610 -1656.6248 470.8953
v 319.2854 -1651.7485 476.1223
v 319.2850 -1651.7473 470.8965
f 1294 1295 1296

g building_ID_9D179628-CF94-4509-8017-ABF182092B74
v 375.9502 -1529.0218 471.9123
v 387.5880 -1534.4270 471.9103
v 381.9673 -1534.2511 471.9106
f 1297 1298 1299
v 379.4387 -1539.6964 471.9095
v 381.9673 -1534.2511 471.9106
v 387.5880 -1534.4270 471.9103
f 1300 1301 1302
v 376.3213 -1531.6278 471.9116
v 375.9502 -1529.0218 471.9123
v 376.8876 -1531.8914 471.9115
f 1303 1304 1305
v 381.9673 -1534.2511 471.9106
v 376.8876 -1531.8914 471.9115
v 375.9502 -1529.0218 471.9123
f 1306 1307 1308
v 370.1557 -1541.4975 471.9096
v 375.9502 -1529.0218 471.9123
v 376.3213 -1531.6278 471.9116
f 1309 1310 1311
v 370.1557 -1541.4975 471.9096
v 377.9320 -1542.9404 471.9088
v 381.7924 -1546.9029 471.9076
f 1312 1313 1314
v 379.4387 -1539.6964 471.9095
v 381.7924 -1546.9029 471.9076
v 377.9320 -1542.9404 471.9088
f 1315 1316 1317
v 370.1557 -1541.4975 471.9096
v 372.2849 -1540.3172 471.9097
v 377.9320 -1542.9404 471.9088
f 1318 1319 1320
v 376.3213 -1531.6278 471.9116
v 372.2849 -1540.3172 471.9097
v 370.1557 -1541.4975 471.9096
f 1321 1322 1323
v 387.5880 -1534.4270 471.9103
v 381.7924 -1546.9029 471.9076
v 379.4387 -1539.6964 471.9095
f 1324 1325 1326
v 370.1572 -1541.5023 493.6918
v 381.7940 -1546.9076 493.6898
v 377.9335 -1542.9452 493.6910
f 1327 1328 1329
v 379.4403 -1539.7011 493.6917
v 377.9335 -1542.9452 493.6910
v 381.7940 -1546.9076 493.6898
f 1330 1331 1332
v 370.1572 -1541.5023 493.6918
v 377.9335 -1542.9452 493.6910
v 372.2864 -1540.3220 493.6919
f 1333 1334 1335
v 376.3228 -1531.6325 493.6938
v 370.1572 -1541.5023 493.6918
v 372.2864 -1540.3220 493.6919
f 1336 1337 1338
v 379.4403 -1539.7011 493.6917
v 381.7940 -1546.9076 493.6898
v 387.5896 -1534.4319 493.6925
f 1339 1340 1341
v 375.9518 -1529.0265 493.6945
v 381.9689 -1534.2558 493.6928
v 387.5896 -1534.4319 493.6925
f 1342 1343 1344
v 379.4403 -1539.7011 493.6917
v 387.5896 -1534.4319 493.6925
v 381.9689 -1534.2558 493.6928
f 1345 1346 1347
v 376.3228 -1531.6325 493.6938
v 376.8891 -1531.8961 493.6937
v 375.9518 -1529.0265 493.6945
f 1348 1349 1350
v 381.9689 -1534.2558 493.6928
v 375.9518 -1529.0265 493.6945
v 376.8891 -1531.8961 493.6937
f 1351 1352 1353
v 370.1572 -1541.5023 493.6918
v 376.3228 -1531.6325 493.6938
v 375.9518 -1529.0265 493.6945
f 1354 1355 1356
v 370.1557 -1541.4975 471.9096
v 370.1572 -1541.5023 493.6918
v 375.9518 -1529.0265 493.6945
f 1357 1358 1359
v 381.7924 -1546.9029 471.9076
v 381.7940 -1546.9076 493.6898
v 370.1572 -1541.5023 493.6918
f 1360 1361 1362
v 387.5880 -1534.4270 471.9103
v 387.5896 -1534.4319 493.6925
v 381.7940 -1546.9076 493.6898
f 1363 1364 1365
v 375.9502 -1529.0218 471.9123
v 375.9518 -1529.0265 493.6945
v 387.5896 -1534.4319 493.6925
f 1366 1367 1368
v 379.9509 -1538.5993 488.2461
v 378.9412 -1540.7693 477.3550
v 378.9420 -1540.7716 488.2456
f 1369 1370 1371
v 381.9689 -1534.2558 493.6928
v 379.9501 -1538.5969 477.3555
v 379.9509 -1538.5993 488.2461
f 1372 1373 1374
v 378.9420 -1540.7716 488.2456
v 377.9335 -1542.9452 493.6910
v 379.4403 -1539.7011 493.6917
f 1375 1376 1377
v 378.9412 -1540.7693 477.3550
v 377.9335 -1542.9452 493.6910
v 378.9420 -1540.7716 488.2456
f 1378 1379 1380
v 377.9335 -1542.9452 493.6910
v 378.9412 -1540.7693 477.3550
v 377.9320 -1542.9404 471.9088
f 1381 1382 1383
v 377.9320 -1542.9404 471.9088
v 378.9412 -1540.7693 477.3550
v 379.4387 -1539.6964 471.9095
f 1384 1385 1386
v 378.9412 -1540.7693 477.3550
v 379.9501 -1538.5969 477.3555
v 379.4387 -1539.6964 471.9095
f 1387 1388 1389
v 379.4403 -1539.7011 493.6917
v 379.9509 -1538.5993 488.2461
v 378.9420 -1540.7716 488.2456
f 1390 1391 1392
v 381.9689 -1534.2558 493.6928
v 379.9509 -1538.5993 488.2461
v 379.4403 -1539.7011 493.6917
f 1393 1394 1395
v 381.9673 -1534.2511 471.9106
v 379.4387 -1539.6964 471.9095
v 381.9689 -1534.2558 493.6928
f 1396 1397 1398
v 372.2849 -1540.3172 471.9097
v 372.2864 -1540.3220 493.6919
v 377.9335 -1542.9452 493.6910
f 1399 1400 1401
v 376.3213 -1531.6278 471.9116
v 376.3228 -1531.6325 493.6938
v 372.2864 -1540.3220 493.6919
f 1402 1403 1404
v 381.9673 -1534.2511 471.9106
v 381.9689 -1534.2558 493.6928
v 377.3620 -1532.1117 472.2514
f 1405 1406 1407
v 376.3228 -1531.6325 493.6938
v 376.3213 -1531.6278 471.9116
v 376.8801 -1531.8921 493.5237
f 1408 1409 1410
v 376.8801 -1531.8921 493.5237
v 376.9925 -1531.9397 472.0815
v 376.9940 -1531.9443 493.5237
f 1411 1412 1413
v 376.9940 -1531.9443 493.5237
v 376.9925 -1531.9397 472.0815
v 377.3635 -1532.1162 493.3536
f 1414 1415 1416
v 381.9689 -1534.2558 493.6928
v 377.3635 -1532.1162 493.3536
v 376.9925 -1531.9397 472.0815
f 1417 1418 1419
v 377.3620 -1532.1117 472.2514
v 381.9689 -1534.2558 493.6928
v 376.9925 -1531.9397 472.0815
f 1420 1421 1422
v 376.8891 -1531.8961 493.6937
v 376.9940 -1531.9443 493.5237
v 377.3635 -1532.1162 493.3536
f 1423 1424 1425
v 381.9689 -1534.2558 493.6928
v 376.8891 -1531.8961 493.6937
v 377.3635 -1532.1162 493.3536
f 1426 1427 1428
v 376.9940 -1531.9443 493.5237
v 376.8891 -1531.8961 493.6937
v 376.8801 -1531.8921 493.5237
f 1429 1430 1431
v 376.3228 -1531.6325 493.6938
v 376.8801 -1531.8921 493.5237
v 376.8891 -1531.8961 493.6937
f 1432 1433 1434
v 377.3620 -1532.1117 472.2514
v 376.9925 -1531.9397 472.0815
v 376.8876 -1531.8914 471.9115
f 1435 1436 1437
v 376.9925 -1531.9397 472.0815
v 376.8786 -1531.8873 472.0815
v 376.8876 -1531.8914 471.9115
f 1438 1439 1440
v 381.9673 -1534.2511 471.9106
v 377.3620 -1532.1117 472.2514
v 376.8876 -1531.8914 471.9115
f 1441 1442 1443
v 376.8786 -1531.8873 472.0815
v 376.3213 -1531.6278 471.9116
v 376.8876 -1531.8914 471.9115
f 1444 1445 1446
v 370.1557 -1541.4975 471.9096
v 375.9518 -1529.0265 493.6945
v 375.9502 -1529.0218 471.9123
f 1447 1448 1449
v 381.7924 -1546.9029 471.9076
v 370.1572 -1541.5023 493.6918
v 370.1557 -1541.4975 471.9096
f 1450 1451 1452
v 387.5880 -1534.4270 471.9103
v 381.7940 -1546.9076 493.6898
v 381.7924 -1546.9029 471.9076
f 1453 1454 1455
v 375.9502 -1529.0218 471.9123
v 387.5896 -1534.4319 493.6925
v 387.5880 -1534.4270 471.9103
f 1456 1457 1458
v 379.9501 -1538.5969 477.3555
v 378.9412 -1540.7693 477.3550
v 379.9509 -1538.5993 488.2461
f 1459 1460 1461
v 379.4387 -1539.6964 471.9095
v 379.9501 -1538.5969 477.3555
v 381.9689 -1534.2558 493.6928
f 1462 1463 1464
v 372.2849 -1540.3172 471.9097
v 377.9335 -1542.9452 493.6910
v 377.9320 -1542.9404 471.9088
f 1465 1466 1467
v 376.3213 -1531.6278 471.9116
v 372.2864 -1540.3220 493.6919
v 372.2849 -1540.3172 471.9097
f 1468 1469 1470
v 376.3213 -1531.6278 471.9116
v 376.8786 -1531.8873 472.0815
v 376.8801 -1531.8921 493.5237
f 1471 1472 1473
v 376.8786 -1531.8873 472.0815
v 376.9925 -1531.9397 472.0815
v 376.8801 -1531.8921 493.5237
f 1474 1475 1476

g building_ID_60E2F143-F721-4622-B0DB-4BBA1B7D2A19
v 601.2238 -1501.9538 399.8342
v 626.7273 -1510.4562 399.8296
v 620.8377 -1517.7634 399.8284
f 1477 1478 1479
v 601.2238 -1501.9538 399.8342
v 615.0523 -1524.9420 399.8273
v 595.4165 -1509.1442 399.8329
f 1480 1481 1482
v 607.1205 -1494.6535 399.8353
v 626.7273 -1510.4562 399.8296
v 601.2238 -1501.9538 399.8342
f 1483 1484 1485
v 615.0523 -1524.9420 399.8273
v 601.2238 -1501.9538 399.8342
v 620.8377 -1517.7634 399.8284
f 1486 1487 1488
v 607.1217 -1494.6559 411.2379
v 620.8395 -1517.7670 416.2348
v 626.7285 -1510.4586 411.2322
f 1489 1490 1491
v 620.8395 -1517.7670 416.2348
v 607.1217 -1494.6559 411.2379
v 601.2255 -1501.9572 416.2406
f 1492 1493 1494
v 595.4177 -1509.1467 411.3205
v 615.0536 -1524.9445 411.3279
v 620.8395 -1517.7670 416.2348
f 1495 1496 1497
v 601.2255 -1501.9572 416.2406
v 595.4177 -1509.1467 411.3205
v 620.8395 -1517.7670 416.2348
f 1498 1499 1500
v 607.1217 -1494.6559 411.2379
v 626.7273 -1510.4562 399.8296
v 607.1205 -1494.6535 399.8353
f 1501 1502 1503
v 595.4165 -1509.1442 399.8329
v 615.0536 -1524.9445 411.3279
v 595.4177 -1509.1467 411.3205
f 1504 1505 1506
v 595.4165 -1509.1442 399.8329
v 595.4177 -1509.1467 411.3205
v 601.2255 -1501.9572 416.2406
f 1507 1508 1509
v 601.2238 -1501.9538 399.8342
v 595.4165 -1509.1442 399.8329
v 601.2255 -1501.9572 416.2406
f 1510 1511 1512
v 607.1217 -1494.6559 411.2379
v 607.1205 -1494.6535 399.8353
v 601.2238 -1501.9538 399.8342
f 1513 1514 1515
v 601.2255 -1501.9572 416.2406
v 607.1217 -1494.6559 411.2379
v 601.2238 -1501.9538 399.8342
f 1516 1517 1518
v 626.7285 -1510.4586 411.2322
v 620.8395 -1517.7670 416.2348
v 620.8377 -1517.7634 399.8284
f 1519 1520 1521
v 626.7285 -1510.4586 411.2322
v 620.8377 -1517.7634 399.8284
v 626.7273 -1510.4562 399.8296
f 1522 1523 1524
v 615.0536 -1524.9445 411.3279
v 615.0523 -1524.9420 399.8273
v 620.8377 -1517.7634 399.8284
f 1525 1526 1527
v 620.8377 -1517.7634 399.8284
v 620.8395 -1517.7670 416.2348
v 615.0536 -1524.9445 411.3279
f 1528 1529 1530
v 626.7273 -1510.4562 399.8296
v 607.1217 -1494.6559 411.2379
v 626.7285 -1510.4586 411.2322
f 1531 1532 1533
v 615.0523 -1524.9420 399.8273
v 615.0536 -1524.9445 411.3279
v 595.4165 -1509.1442 399.8329
f 1534 1535 1536

g building_ID_C112BE46-68BC-44DE-AB13-5064CFC0EC79
v 576.7869 -1445.4746 409.0222
v 573.1139 -1445.4507 409.0225
v 573.1723 -1440.4658 409.0236
f 1537 1538 1539
v 573.1723 -1440.4658 409.0236
v 576.8193 -1440.5016 409.0233
v 576.7869 -1445.4746 409.0222
f 1540 1541 1542
v 573.0542 -1450.5796 409.0214
v 573.1139 -1445.4507 409.0225
v 576.7869 -1445.4746 409.0222
f 1543 1544 1545
v 579.6689 -1445.4923 409.0219
v 579.6362 -1450.6172 409.0208
v 578.7501 -1450.6459 409.0208
f 1546 1547 1548
v 576.7869 -1445.4746 409.0222
v 578.7501 -1450.6459 409.0208
v 573.0542 -1450.5796 409.0214
f 1549 1550 1551
v 578.7501 -1450.6459 409.0208
v 576.7869 -1445.4746 409.0222
v 579.6689 -1445.4923 409.0219
f 1552 1553 1554
v 582.1680 -1450.6860 409.0205
v 578.7501 -1450.6459 409.0208
v 582.7302 -1450.6406 409.0205
f 1555 1556 1557
v 582.7302 -1450.6406 409.0205
v 578.7501 -1450.6459 409.0208
v 579.6362 -1450.6172 409.0208
f 1558 1559 1560
v 582.7300 -1450.6845 409.0205
v 582.1680 -1450.6860 409.0205
v 582.7302 -1450.6406 409.0205
f 1561 1562 1563
v 573.1732 -1440.4677 418.0263
v 573.1152 -1445.4533 421.8140
v 579.7007 -1440.6922 418.1647
f 1564 1565 1566
v 582.7652 -1445.5152 421.8131
v 579.7007 -1440.6922 418.1647
v 573.1152 -1445.4533 421.8140
f 1567 1568 1569
v 579.7007 -1440.6922 418.1647
v 579.4361 -1440.5294 418.0428
v 573.1732 -1440.4677 418.0263
f 1570 1571 1572
v 582.2931 -1440.5580 418.0495
v 582.7652 -1445.5152 421.8131
v 582.7960 -1440.5654 418.0524
f 1573 1574 1575
v 582.2931 -1440.5580 418.0495
v 579.9841 -1440.5349 418.0437
v 579.7007 -1440.6922 418.1647
f 1576 1577 1578
v 582.7652 -1445.5152 421.8131
v 582.2931 -1440.5580 418.0495
v 579.7007 -1440.6922 418.1647
f 1579 1580 1581
v 577.6150 -1450.6347 418.0886
v 573.0542 -1450.5796 409.0214
v 582.1690 -1450.6879 418.0702
f 1582 1583 1584
v 573.0542 -1450.5796 409.0214
v 578.7501 -1450.6459 409.0208
v 582.1690 -1450.6879 418.0702
f 1585 1586 1587
v 582.1690 -1450.6879 418.0702
v 578.7501 -1450.6459 409.0208
v 582.1680 -1450.6860 409.0205
f 1588 1589 1590
v 577.6150 -1450.6347 418.0886
v 573.0551 -1450.5815 418.1071
v 573.0548 -1450.5808 414.7002
f 1591 1592 1593
v 573.0542 -1450.5796 409.0214
v 577.6150 -1450.6347 418.0886
v 573.0548 -1450.5808 414.7002
f 1594 1595 1596
v 582.1680 -1450.6860 409.0205
v 582.7300 -1450.6845 409.0205
v 582.7309 -1450.6864 418.0742
f 1597 1598 1599
v 582.1680 -1450.6860 409.0205
v 582.7309 -1450.6864 418.0742
v 582.1690 -1450.6879 418.0702
f 1600 1601 1602
v 582.2901 -1440.5562 408.3339
v 579.6361 -1450.6171 408.3318
v 579.7011 -1440.5302 408.3341
f 1603 1604 1605
v 586.1710 -1450.6657 408.3311
v 582.2901 -1440.5562 408.3339
v 586.2859 -1440.6148 408.3335
f 1606 1607 1608
v 579.6361 -1450.6171 408.3318
v 582.2901 -1440.5562 408.3339
v 586.1710 -1450.6657 408.3311
f 1609 1610 1611
v 586.2859 -1440.6148 408.3335
v 586.2866 -1440.6160 414.1822
v 586.1716 -1450.6668 414.1799
f 1612 1613 1614
v 586.1716 -1450.6668 414.1799
v 582.7644 -1445.5137 414.1814
v 582.7306 -1450.6416 414.1803
f 1615 1616 1617
v 582.7957 -1440.5647 414.1825
v 582.7644 -1445.5137 414.1814
v 586.2866 -1440.6160 414.1822
f 1618 1619 1620
v 586.1716 -1450.6668 414.1799
v 586.2866 -1440.6160 414.1822
v 582.7644 -1445.5137 414.1814
f 1621 1622 1623
v 579.6361 -1450.6171 408.3318
v 579.6362 -1450.6172 409.0208
v 579.6689 -1445.4923 409.0059
f 1624 1625 1626
v 579.6689 -1445.4923 409.0219
v 579.6689 -1445.4923 409.0059
v 579.6362 -1450.6172 409.0208
f 1627 1628 1629
v 579.7011 -1440.5302 408.3341
v 579.6361 -1450.6171 408.3318
v 579.6689 -1445.4923 409.0059
f 1630 1631 1632
v 579.6689 -1445.4923 409.0059
v 579.7012 -1440.5303 409.0070
v 579.7011 -1440.5302 408.3341
f 1633 1634 1635
v 582.7302 -1450.6406 409.0205
v 586.1710 -1450.6657 408.3311
v 586.1716 -1450.6668 414.1799
f 1636 1637 1638
v 582.7306 -1450.6416 414.1803
v 582.7302 -1450.6406 409.0205
v 586.1716 -1450.6668 414.1799
f 1639 1640 1641
v 579.6361 -1450.6171 408.3318
v 582.7302 -1450.6406 409.0205
v 579.6362 -1450.6172 409.0208
f 1642 1643 1644
v 586.1710 -1450.6657 408.3311
v 582.7302 -1450.6406 409.0205
v 579.6361 -1450.6171 408.3318
f 1645 1646 1647
v 579.6689 -1445.4923 409.0059
v 576.7869 -1445.4746 409.0062
v 576.8193 -1440.5016 409.0073
f 1648 1649 1650
v 576.8193 -1440.5016 409.0073
v 579.7012 -1440.5303 409.0070
v 579.6689 -1445.4923 409.0059
f 1651 1652 1653
v 579.7021 -1440.5322 418.1647
v 579.4361 -1440.5294 418.0428
v 579.7007 -1440.6922 418.1647
f 1654 1655 1656
v 579.7021 -1440.5322 418.1647
v 579.7007 -1440.6922 418.1647
v 579.9841 -1440.5349 418.0437
f 1657 1658 1659
v 576.7869 -1445.4746 409.0062
v 576.7869 -1445.4746 409.0222
v 576.8193 -1440.5016 409.0233
f 1660 1661 1662
v 576.7869 -1445.4746 409.0062
v 579.6689 -1445.4923 409.0059
v 579.6689 -1445.4923 409.0219
f 1663 1664 1665
v 579.6689 -1445.4923 409.0219
v 576.7869 -1445.4746 409.0222
v 576.7869 -1445.4746 409.0062
f 1666 1667 1668
v 582.7652 -1445.5152 421.8131
v 582.1690 -1450.6879 418.0702
v 582.7309 -1450.6864 418.0742
f 1669 1670 1671
v 582.1690 -1450.6879 418.0702
v 582.7652 -1445.5152 421.8131
v 577.6150 -1450.6347 418.0886
f 1672 1673 1674
v 573.1152 -1445.4533 421.8140
v 577.6150 -1450.6347 418.0886
v 582.7652 -1445.5152 421.8131
f 1675 1676 1677
v 577.6150 -1450.6347 418.0886
v 573.1152 -1445.4533 421.8140
v 573.0551 -1450.5815 418.1071
f 1678 1679 1680
v 573.1139 -1445.4507 409.0225
v 573.0542 -1450.5796 409.0214
v 573.0548 -1450.5808 414.7002
f 1681 1682 1683
v 573.0548 -1450.5808 414.7002
v 573.1152 -1445.4533 421.8140
v 573.1732 -1440.4677 418.0263
f 1684 1685 1686
v 573.1723 -1440.4658 409.0236
v 573.1139 -1445.4507 409.0225
v 573.1732 -1440.4677 418.0263
f 1687 1688 1689
v 573.1732 -1440.4677 418.0263
v 573.1139 -1445.4507 409.0225
v 573.0548 -1450.5808 414.7002
f 1690 1691 1692
v 573.1152 -1445.4533 421.8140
v 573.0548 -1450.5808 414.7002
v 573.0551 -1450.5815 418.1071
f 1693 1694 1695
v 582.7652 -1445.5152 421.8131
v 582.7644 -1445.5137 414.1814
v 582.7960 -1440.5654 418.0524
f 1696 1697 1698
v 582.7652 -1445.5152 421.8131
v 582.7309 -1450.6864 418.0742
v 582.7644 -1445.5137 414.1814
f 1699 1700 1701
v 582.7960 -1440.5654 418.0524
v 582.7644 -1445.5137 414.1814
v 582.7957 -1440.5647 414.1825
f 1702 1703 1704
v 582.7306 -1450.6416 414.1803
v 582.7309 -1450.6864 418.0742
v 582.7300 -1450.6845 409.0205
f 1705 1706 1707
v 582.7300 -1450.6845 409.0205
v 582.7302 -1450.6406 409.0205
v 582.7306 -1450.6416 414.1803
f 1708 1709 1710
v 582.7644 -1445.5137 414.1814
v 582.7309 -1450.6864 418.0742
v 582.7306 -1450.6416 414.1803
f 1711 1712 1713
v 582.7957 -1440.5647 414.1825
v 582.2907 -1440.5573 414.1826
v 582.2931 -1440.5580 418.0495
f 1714 1715 1716
v 582.2901 -1440.5562 408.3339
v 582.2907 -1440.5573 414.1826
v 582.7957 -1440.5647 414.1825
f 1717 1718 1719
v 582.2931 -1440.5580 418.0495
v 582.7960 -1440.5654 418.0524
v 582.7957 -1440.5647 414.1825
f 1720 1721 1722
v 586.2859 -1440.6148 408.3335
v 582.7957 -1440.5647 414.1825
v 586.2866 -1440.6160 414.1822
f 1723 1724 1725
v 582.2901 -1440.5562 408.3339
v 582.7957 -1440.5647 414.1825
v 586.2859 -1440.6148 408.3335
f 1726 1727 1728
v 579.4361 -1440.5294 418.0428
v 582.2907 -1440.5573 414.1826
v 576.8193 -1440.5016 409.0233
f 1729 1730 1731
v 576.8193 -1440.5016 409.0233
v 573.1732 -1440.4677 418.0263
v 579.4361 -1440.5294 418.0428
f 1732 1733 1734
v 576.8193 -1440.5016 409.0073
v 576.8193 -1440.5016 409.0233
v 579.7012 -1440.5303 409.0070
f 1735 1736 1737
v 576.8193 -1440.5016 409.0233
v 573.1723 -1440.4658 409.0236
v 573.1732 -1440.4677 418.0263
f 1738 1739 1740
v 579.9841 -1440.5349 418.0437
v 579.4361 -1440.5294 418.0428
v 579.7021 -1440.5322 418.1647
f 1741 1742 1743
v 579.9841 -1440.5349 418.0437
v 582.2931 -1440.5580 418.0495
v 582.2907 -1440.5573 414.1826
f 1744 1745 1746
v 576.8193 -1440.5016 409.0233
v 582.2907 -1440.5573 414.1826
v 579.7012 -1440.5303 409.0070
f 1747 1748 1749
v 582.2907 -1440.5573 414.1826
v 582.2901 -1440.5562 408.3339
v 579.7012 -1440.5303 409.0070
f 1750 1751 1752
v 579.7011 -1440.5302 408.3341
v 579.7012 -1440.5303 409.0070
v 582.2901 -1440.5562 408.3339
f 1753 1754 1755
v 579.9841 -1440.5349 418.0437
v 582.2907 -1440.5573 414.1826
v 579.4361 -1440.5294 418.0428
f 1756 1757 1758
v 586.2859 -1440.6148 408.3335
v 586.1716 -1450.6668 414.1799
v 586.1710 -1450.6657 408.3311
f 1759 1760 1761
v 576.7869 -1445.4746 409.0062
v 576.8193 -1440.5016 409.0233
v 576.8193 -1440.5016 409.0073
f 1762 1763 1764

g building_ID_0798065B-6D3A-4F96-9007-2A8EE3FA0148
v 577.8608 -1432.8253 409.0089
v 579.7498 -1432.8424 409.0088
v 577.8053 -1439.3533 409.0075
f 1765 1766 1767
v 582.3448 -1432.8663 409.0085
v 582.2883 -1439.3912 409.0071
v 579.7498 -1432.8424 409.0088
f 1768 1769 1770
v 579.7498 -1432.8424 409.0088
v 582.2883 -1439.3912 409.0071
v 577.8053 -1439.3533 409.0075
f 1771 1772 1773
v 579.7092 -1439.3712 418.1650
v 579.7507 -1432.8442 418.1665
v 577.8062 -1439.3549 417.2892
f 1774 1775 1776
v 577.8062 -1439.3549 417.2892
v 579.7507 -1432.8442 418.1665
v 577.8617 -1432.8269 417.2966
f 1777 1778 1779
v 582.3456 -1432.8679 417.0532
v 579.7507 -1432.8442 418.1665
v 579.7092 -1439.3712 418.1650
f 1780 1781 1782
v 582.2891 -1439.3929 417.0588
v 582.3456 -1432.8679 417.0532
v 579.7092 -1439.3712 418.1650
f 1783 1784 1785
v 577.8053 -1439.3533 409.0075
v 577.8062 -1439.3549 417.2892
v 577.8608 -1432.8253 409.0089
f 1786 1787 1788
v 577.8611 -1432.8259 412.1168
v 577.8608 -1432.8253 409.0089
v 577.8062 -1439.3549 417.2892
f 1789 1790 1791
v 582.3448 -1432.8663 409.0085
v 582.3452 -1432.8671 413.0274
v 582.2883 -1439.3912 409.0071
f 1792 1793 1794
v 582.2883 -1439.3912 409.0071
v 582.3456 -1432.8679 417.0532
v 582.2891 -1439.3929 417.0588
f 1795 1796 1797
v 579.7498 -1432.8424 409.0088
v 577.8608 -1432.8253 409.0089
v 577.8611 -1432.8259 412.1168
f 1798 1799 1800
v 577.8611 -1432.8259 412.1168
v 582.3452 -1432.8671 413.0274
v 579.7498 -1432.8424 409.0088
f 1801 1802 1803
v 582.3456 -1432.8679 417.0532
v 577.8611 -1432.8259 412.1168
v 577.8615 -1432.8266 415.2247
f 1804 1805 1806
v 577.8615 -1432.8266 415.2247
v 579.7507 -1432.8442 418.1665
v 582.3456 -1432.8679 417.0532
f 1807 1808 1809
v 582.3452 -1432.8671 413.0274
v 582.3448 -1432.8663 409.0085
v 579.7498 -1432.8424 409.0088
f 1810 1811 1812
v 582.3456 -1432.8679 417.0532
v 582.3452 -1432.8671 413.0274
v 577.8611 -1432.8259 412.1168
f 1813 1814 1815
v 577.8617 -1432.8269 417.2966
v 579.7507 -1432.8442 418.1665
v 577.8615 -1432.8266 415.2247
f 1816 1817 1818
v 577.8053 -1439.3533 409.0075
v 582.2883 -1439.3912 409.0071
v 582.2891 -1439.3929 417.0588
f 1819 1820 1821
v 582.2891 -1439.3929 417.0588
v 579.7092 -1439.3712 418.1650
v 577.8062 -1439.3549 417.2892
f 1822 1823 1824
v 582.2891 -1439.3929 417.0588
v 577.8062 -1439.3549 417.2892
v 577.8053 -1439.3533 409.0075
f 1825 1826 1827
v 577.8062 -1439.3549 417.2892
v 577.8617 -1432.8269 417.2966
v 577.8615 -1432.8266 415.2247
f 1828 1829 1830
v 577.8062 -1439.3549 417.2892
v 577.8615 -1432.8266 415.2247
v 577.8611 -1432.8259 412.1168
f 1831 1832 1833
v 582.2883 -1439.3912 409.0071
v 582.3452 -1432.8671 413.0274
v 582.3456 -1432.8679 417.0532
f 1834 1835 1836

g building_ID_92D67730-EAA9-4AE7-8693-23A90B1C7DC3
v 627.2019 -1334.2431 412.3738
v 625.6446 -1331.3628 412.3746
v 628.0706 -1332.8864 412.3740
f 1837 1838 1839
v 624.7590 -1332.7075 412.3744
v 627.2019 -1334.2431 412.3738
v 626.1887 -1335.8264 412.3736
f 1840 1841 1842
v 624.7590 -1332.7075 412.3744
v 625.6446 -1331.3628 412.3746
v 627.2019 -1334.2431 412.3738
f 1843 1844 1845
v 623.7800 -1334.1919 412.3741
v 624.7590 -1332.7075 412.3744
v 626.1887 -1335.8264 412.3736
f 1846 1847 1848
v 627.2026 -1334.2442 418.7436
v 625.6453 -1331.3639 418.2284
v 624.7597 -1332.7087 418.7442
f 1849 1850 1851
v 625.6453 -1331.3639 418.2284
v 627.2026 -1334.2442 418.7436
v 628.0712 -1332.8875 418.2278
f 1852 1853 1854
v 624.7597 -1332.7087 418.7442
v 623.7807 -1334.1930 418.2639
v 626.1893 -1335.8274 418.2354
f 1855 1856 1857
v 624.7597 -1332.7087 418.7442
v 626.1893 -1335.8274 418.2354
v 627.2026 -1334.2442 418.7436
f 1858 1859 1860
v 625.6446 -1331.3628 412.3746
v 625.6453 -1331.3639 418.2284
v 628.0712 -1332.8875 418.2278
f 1861 1862 1863
v 623.7802 -1334.1922 413.8460
v 623.7800 -1334.1919 412.3741
v 626.1893 -1335.8274 418.2354
f 1864 1865 1866
v 626.1887 -1335.8264 412.3736
v 626.1890 -1335.8269 415.2905
v 623.7800 -1334.1919 412.3741
f 1867 1868 1869
v 623.7802 -1334.1922 413.8460
v 626.1893 -1335.8274 418.2354
v 623.7807 -1334.1930 418.2639
f 1870 1871 1872
v 624.7597 -1332.7087 418.7442
v 623.7802 -1334.1922 413.8460
v 623.7807 -1334.1930 418.2639
f 1873 1874 1875
v 625.6453 -1331.3639 418.2284
v 624.7590 -1332.7075 412.3744
v 623.7802 -1334.1922 413.8460
f 1876 1877 1878
v 624.7590 -1332.7075 412.3744
v 623.7800 -1334.1919 412.3741
v 623.7802 -1334.1922 413.8460
f 1879 1880 1881
v 625.6453 -1331.3639 418.2284
v 625.6446 -1331.3628 412.3746
v 624.7590 -1332.7075 412.3744
f 1882 1883 1884
v 624.7597 -1332.7087 418.7442
v 625.6453 -1331.3639 418.2284
v 623.7802 -1334.1922 413.8460
f 1885 1886 1887
v 627.2019 -1334.2431 412.3738
v 628.0706 -1332.8864 412.3740
v 628.0712 -1332.8875 418.2278
f 1888 1889 1890
v 627.2019 -1334.2431 412.3738
v 626.1890 -1335.8269 415.2905
v 626.1887 -1335.8264 412.3736
f 1891 1892 1893
v 626.1890 -1335.8269 415.2905
v 627.2019 -1334.2431 412.3738
v 628.0712 -1332.8875 418.2278
f 1894 1895 1896
v 627.2026 -1334.2442 418.7436
v 626.1893 -1335.8274 418.2354
v 626.1890 -1335.8269 415.2905
f 1897 1898 1899
v 628.0712 -1332.8875 418.2278
v 627.2026 -1334.2442 418.7436
v 626.1890 -1335.8269 415.2905
f 1900 1901 1902
v 625.6446 -1331.3628 412.3746
v 628.0712 -1332.8875 418.2278
v 628.0706 -1332.8864 412.3740
f 1903 1904 1905
v 623.7800 -1334.1919 412.3741
v 626.1890 -1335.8269 415.2905
v 626.1893 -1335.8274 418.2354
f 1906 1907 1908

g building_ID_8E5B7668-52EC-4C03-B315-4CDF6392C9A7
v 664.7845 -1338.8103 398.4015
v 665.5172 -1341.9162 398.4008
v 663.5269 -1340.4949 398.4013
f 1909 1910 1911
v 665.5172 -1341.9162 398.4008
v 664.7845 -1338.8103 398.4015
v 666.7167 -1340.2514 398.4010
f 1912 1913 1914
v 665.5175 -1341.9169 401.8706
v 666.7170 -1340.2521 401.8708
v 664.7849 -1338.8109 401.8714
f 1915 1916 1917
v 664.7849 -1338.8109 401.8714
v 663.5274 -1340.4955 401.8712
v 665.5175 -1341.9169 401.8706
f 1918 1919 1920
v 666.7167 -1340.2514 398.4010
v 666.7170 -1340.2521 401.8708
v 665.5172 -1341.9162 398.4008
f 1921 1922 1923
v 664.7845 -1338.8103 398.4015
v 664.7849 -1338.8109 401.8714
v 666.7167 -1340.2514 398.4010
f 1924 1925 1926
v 663.5269 -1340.4949 398.4013
v 663.5274 -1340.4955 401.8712
v 664.7849 -1338.8109 401.8714
f 1927 1928 1929
v 663.7202 -1344.8211 396.8884
v 665.6128 -1341.9842 396.8888
v 664.6507 -1343.5287 396.8886
f 1930 1931 1932
v 665.7117 -1342.0554 396.8888
v 664.6507 -1343.5287 396.8886
v 665.6128 -1341.9842 396.8888
f 1933 1934 1935
v 665.6128 -1341.9842 396.8888
v 663.7202 -1344.8211 396.8884
v 662.9399 -1340.0761 396.8895
f 1936 1937 1938
v 662.9399 -1340.0761 396.8895
v 663.7202 -1344.8211 396.8884
v 661.9191 -1341.4914 396.8893
f 1939 1940 1941
v 660.9545 -1342.8307 396.8891
v 661.9191 -1341.4914 396.8893
v 663.7202 -1344.8211 396.8884
f 1942 1943 1944
v 664.6514 -1343.5297 402.8824
v 660.9551 -1342.8317 402.1859
v 663.7208 -1344.8221 402.2092
f 1945 1946 1947
v 661.9198 -1341.4924 402.8831
v 660.9551 -1342.8317 402.1859
v 664.6514 -1343.5297 402.8824
f 1948 1949 1950
v 664.6514 -1343.5297 402.8824
v 662.9405 -1340.0770 402.1593
v 661.9198 -1341.4924 402.8831
f 1951 1952 1953
v 665.7122 -1342.0564 402.1296
v 662.9405 -1340.0770 402.1593
v 664.6514 -1343.5297 402.8824
f 1954 1955 1956
v 663.7202 -1344.8211 396.8884
v 663.7208 -1344.8221 402.2092
v 660.9551 -1342.8317 402.1859
f 1957 1958 1959
v 660.9551 -1342.8317 402.1859
v 660.9550 -1342.8315 400.8550
v 663.7202 -1344.8211 396.8884
f 1960 1961 1962
v 663.7202 -1344.8211 396.8884
v 660.9550 -1342.8315 400.8550
v 660.9545 -1342.8307 396.8891
f 1963 1964 1965
v 665.7117 -1342.0554 396.8888
v 664.6514 -1343.5297 402.8824
v 663.7208 -1344.8221 402.2092
f 1966 1967 1968
v 664.6514 -1343.5297 402.8824
v 665.7117 -1342.0554 396.8888
v 665.7122 -1342.0564 402.1296
f 1969 1970 1971
v 664.6507 -1343.5287 396.8886
v 663.7208 -1344.8221 402.2092
v 663.7202 -1344.8211 396.8884
f 1972 1973 1974
v 665.7117 -1342.0554 396.8888
v 663.7208 -1344.8221 402.2092
v 664.6507 -1343.5287 396.8886
f 1975 1976 1977
v 660.9550 -1342.8315 400.8550
v 661.9191 -1341.4914 396.8893
v 660.9545 -1342.8307 396.8891
f 1978 1979 1980
v 662.9399 -1340.0761 396.8895
v 660.9551 -1342.8317 402.1859
v 661.9198 -1341.4924 402.8831
f 1981 1982 1983
v 660.9550 -1342.8315 400.8550
v 660.9551 -1342.8317 402.1859
v 662.9399 -1340.0761 396.8895
f 1984 1985 1986
v 662.9405 -1340.0770 402.1593
v 662.9399 -1340.0761 396.8895
v 661.9198 -1341.4924 402.8831
f 1987 1988 1989
v 661.9191 -1341.4914 396.8893
v 660.9550 -1342.8315 400.8550
v 662.9399 -1340.0761 396.8895
f 1990 1991 1992
v 665.7122 -1342.0564 402.1296
v 663.5274 -1340.4955 401.8712
v 662.9405 -1340.0770 402.1593
f 1993 1994 1995
v 665.5175 -1341.9169 401.8706
v 663.5274 -1340.4955 401.8712
v 665.7122 -1342.0564 402.1296
f 1996 1997 1998
v 662.9399 -1340.0761 396.8895
v 662.9405 -1340.0770 402.1593
v 663.5269 -1340.4949 398.4013
f 1999 2000 2001
v 663.5274 -1340.4955 401.8712
v 663.5269 -1340.4949 398.4013
v 662.9405 -1340.0770 402.1593
f 2002 2003 2004
v 663.5269 -1340.4949 398.4013
v 665.6128 -1341.9842 396.8888
v 662.9399 -1340.0761 396.8895
f 2005 2006 2007
v 665.5172 -1341.9162 398.4008
v 665.5175 -1341.9169 401.8706
v 665.7122 -1342.0564 402.1296
f 2008 2009 2010
v 665.7117 -1342.0554 396.8888
v 665.5172 -1341.9162 398.4008
v 665.7122 -1342.0564 402.1296
f 2011 2012 2013
v 665.5172 -1341.9162 398.4008
v 665.7117 -1342.0554 396.8888
v 665.6128 -1341.9842 396.8888
f 2014 2015 2016
v 663.5269 -1340.4949 398.4013
v 665.5172 -1341.9162 398.4008
v 665.6128 -1341.9842 396.8888
f 2017 2018 2019
v 666.7170 -1340.2521 401.8708
v 665.5175 -1341.9169 401.8706
v 665.5172 -1341.9162 398.4008
f 2020 2021 2022
v 664.7849 -1338.8109 401.8714
v 666.7170 -1340.2521 401.8708
v 666.7167 -1340.2514 398.4010
f 2023 2024 2025
v 663.5269 -1340.4949 398.4013
v 664.7849 -1338.8109 401.8714
v 664.7845 -1338.8103 398.4015
f 2026 2027 2028

g building_ID_617D5DF9-5881-49BA-9C3A-E23C42BA674E
v 671.8426 -1333.5460 397.6659
v 668.1204 -1332.8460 397.6664
v 669.0369 -1331.5414 397.6666
f 2029 2030 2031
v 668.1204 -1332.8460 397.6664
v 670.9322 -1334.8096 397.6657
v 667.2872 -1334.0388 397.6663
f 2032 2033 2034
v 670.0599 -1336.0213 397.6656
v 667.2872 -1334.0388 397.6663
v 670.9322 -1334.8096 397.6657
f 2035 2036 2037
v 671.8426 -1333.5460 397.6659
v 670.9322 -1334.8096 397.6657
v 668.1204 -1332.8460 397.6664
f 2038 2039 2040
v 670.0603 -1336.0220 401.5775
v 668.1210 -1332.8468 402.3302
v 667.2877 -1334.0395 401.5972
f 2041 2042 2043
v 668.1210 -1332.8468 402.3302
v 670.0603 -1336.0220 401.5775
v 670.9327 -1334.8104 402.3295
f 2044 2045 2046
v 670.1593 -1332.3432 401.5352
v 670.9327 -1334.8104 402.3295
v 671.8430 -1333.5467 401.5458
f 2047 2048 2049
v 668.1210 -1332.8468 402.3302
v 670.1593 -1332.3432 401.5352
v 669.0374 -1331.5422 401.5275
f 2050 2051 2052
v 670.9327 -1334.8104 402.3295
v 670.1593 -1332.3432 401.5352
v 668.1210 -1332.8468 402.3302
f 2053 2054 2055
v 670.0603 -1336.0220 401.5775
v 667.2872 -1334.0388 397.6663
v 670.0602 -1336.0217 400.1035
f 2056 2057 2058
v 670.0599 -1336.0213 397.6656
v 670.0602 -1336.0217 400.1035
v 667.2872 -1334.0388 397.6663
f 2059 2060 2061
v 670.0603 -1336.0220 401.5775
v 667.2877 -1334.0395 401.5972
v 667.2875 -1334.0393 400.6142
f 2062 2063 2064
v 667.2872 -1334.0388 397.6663
v 670.0603 -1336.0220 401.5775
v 667.2874 -1334.0392 399.6322
f 2065 2066 2067
v 669.0373 -1331.5420 400.5575
v 669.0374 -1331.5422 401.5275
v 670.1593 -1332.3432 401.5352
f 2068 2069 2070
v 669.0369 -1331.5414 397.6666
v 669.0371 -1331.5418 399.5875
v 670.1593 -1332.3432 401.5352
f 2071 2072 2073
v 671.8428 -1333.5463 399.6058
v 671.8426 -1333.5460 397.6659
v 670.1593 -1332.3432 401.5352
f 2074 2075 2076
v 669.0369 -1331.5414 397.6666
v 670.1593 -1332.3432 401.5352
v 671.8426 -1333.5460 397.6659
f 2077 2078 2079
v 670.0602 -1336.0217 400.1035
v 671.8428 -1333.5463 399.6058
v 671.8430 -1333.5467 401.5458
f 2080 2081 2082
v 671.8428 -1333.5463 399.6058
v 670.9322 -1334.8096 397.6657
v 671.8426 -1333.5460 397.6659
f 2083 2084 2085
v 671.8430 -1333.5467 401.5458
v 670.9327 -1334.8104 402.3295
v 670.0602 -1336.0217 400.1035
f 2086 2087 2088
v 670.0599 -1336.0213 397.6656
v 671.8428 -1333.5463 399.6058
v 670.0602 -1336.0217 400.1035
f 2089 2090 2091
v 670.9322 -1334.8096 397.6657
v 671.8428 -1333.5463 399.6058
v 670.0599 -1336.0213 397.6656
f 2092 2093 2094
v 670.0603 -1336.0220 401.5775
v 670.0602 -1336.0217 400.1035
v 670.9327 -1334.8104 402.3295
f 2095 2096 2097
v 669.0371 -1331.5418 399.5875
v 668.1204 -1332.8460 397.6664
v 667.2874 -1334.0392 399.6322
f 2098 2099 2100
v 667.2874 -1334.0392 399.6322
v 668.1204 -1332.8460 397.6664
v 667.2872 -1334.0388 397.6663
f 2101 2102 2103
v 669.0371 -1331.5418 399.5875
v 667.2874 -1334.0392 399.6322
v 667.2875 -1334.0393 400.6142
f 2104 2105 2106
v 669.0373 -1331.5420 400.5575
v 667.2875 -1334.0393 400.6142
v 668.1210 -1332.8468 402.3302
f 2107 2108 2109
v 669.0374 -1331.5422 401.5275
v 669.0373 -1331.5420 400.5575
v 668.1210 -1332.8468 402.3302
f 2110 2111 2112
v 669.0371 -1331.5418 399.5875
v 669.0369 -1331.5414 397.6666
v 668.1204 -1332.8460 397.6664
f 2113 2114 2115
v 669.0373 -1331.5420 400.5575
v 669.0371 -1331.5418 399.5875
v 667.2875 -1334.0393 400.6142
f 2116 2117 2118
v 667.2875 -1334.0393 400.6142
v 667.2877 -1334.0395 401.5972
v 668.1210 -1332.8468 402.3302
f 2119 2120 2121
v 670.0603 -1336.0220 401.5775
v 667.2875 -1334.0393 400.6142
v 667.2874 -1334.0392 399.6322
f 2122 2123 2124
v 670.1593 -1332.3432 401.5352
v 671.8430 -1333.5467 401.5458
v 671.8428 -1333.5463 399.6058
f 2125 2126 2127
v 670.1593 -1332.3432 401.5352
v 669.0371 -1331.5418 399.5875
v 669.0373 -1331.5420 400.5575
f 2128 2129 2130

g building_ID_7884D125-AF23-4AEB-A012-EB2F1B78DC3F
v 646.1719 -1301.5939 414.5227
v 646.9141 -1306.3860 414.5216
v 644.2751 -1304.8539 414.5222
f 2131 2132 2133
v 646.9141 -1306.3860 414.5216
v 646.1719 -1301.5939 414.5227
v 648.8098 -1303.1280 414.5221
f 2134 2135 2136
v 644.2757 -1304.8548 419.7050
v 646.9147 -1306.3869 419.7814
v 648.8104 -1303.1290 419.7789
f 2137 2138 2139
v 644.2757 -1304.8548 419.7050
v 648.8104 -1303.1290 419.7789
v 646.1725 -1301.5949 419.7035
f 2140 2141 2142
v 646.1719 -1301.5939 414.5227
v 646.1725 -1301.5949 419.7035
v 648.8104 -1303.1290 419.7789
f 2143 2144 2145
v 648.8104 -1303.1290 419.7789
v 648.8098 -1303.1280 414.5221
v 646.1719 -1301.5939 414.5227
f 2146 2147 2148
v 644.2757 -1304.8548 419.7050
v 646.1719 -1301.5939 414.5227
v 644.2751 -1304.8539 414.5222
f 2149 2150 2151
v 644.2757 -1304.8548 419.7050
v 646.1725 -1301.5949 419.7035
v 646.1719 -1301.5939 414.5227
f 2152 2153 2154
v 646.9147 -1306.3869 419.7814
v 644.2757 -1304.8548 419.7050
v 644.2751 -1304.8539 414.5222
f 2155 2156 2157
v 646.9147 -1306.3869 419.7814
v 646.9141 -1306.3860 414.5216
v 648.8104 -1303.1290 419.7789
f 2158 2159 2160
v 646.9141 -1306.3860 414.5216
v 648.8098 -1303.1280 414.5221
v 648.8104 -1303.1290 419.7789
f 2161 2162 2163
v 644.2751 -1304.8539 414.5222
v 646.9141 -1306.3860 414.5216
v 646.9147 -1306.3869 419.7814
f 2164 2165 2166

g building_ID_2BF396EB-86FA-48FC-983E-934F0D5161DB
v 688.7498 -1301.1443 399.8608
v 691.3074 -1302.8173 399.8602
v 690.6277 -1303.8274 399.8601
f 2167 2168 2169
v 691.3074 -1302.8173 399.8602
v 688.7498 -1301.1443 399.8608
v 692.1979 -1301.4926 399.8604
f 2170 2171 2172
v 688.7498 -1301.1443 399.8608
v 689.6624 -1299.7888 399.8610
v 692.1979 -1301.4926 399.8604
f 2173 2174 2175
v 688.0701 -1302.1556 399.8607
v 688.7498 -1301.1443 399.8608
v 690.6277 -1303.8274 399.8601
f 2176 2177 2178
v 688.7506 -1301.1456 406.5365
v 690.6282 -1303.8282 404.4499
v 691.3082 -1302.8184 406.5359
f 2179 2180 2181
v 690.6282 -1303.8282 404.4499
v 688.7506 -1301.1456 406.5365
v 688.0707 -1302.1564 404.4505
f 2182 2183 2184
v 688.7506 -1301.1456 406.5365
v 692.1986 -1301.4936 405.0942
v 689.6631 -1299.7898 405.0608
f 2185 2186 2187
v 691.3082 -1302.8184 406.5359
v 692.1986 -1301.4936 405.0942
v 688.7506 -1301.1456 406.5365
f 2188 2189 2190
v 690.6277 -1303.8274 399.8601
v 690.6282 -1303.8282 404.4499
v 688.0707 -1302.1564 404.4505
f 2191 2192 2193
v 689.6624 -1299.7888 399.8610
v 689.6628 -1299.7893 402.4439
v 692.1979 -1301.4926 399.8604
f 2194 2195 2196
v 689.6631 -1299.7898 405.0608
v 692.1986 -1301.4936 405.0942
v 692.1983 -1301.4932 403.1313
f 2197 2198 2199
v 692.1983 -1301.4932 403.1313
v 692.1979 -1301.4926 399.8604
v 689.6631 -1299.7898 405.0608
f 2200 2201 2202
v 688.0707 -1302.1564 404.4505
v 689.6628 -1299.7893 402.4439
v 688.7498 -1301.1443 399.8608
f 2203 2204 2205
v 688.7498 -1301.1443 399.8608
v 689.6628 -1299.7893 402.4439
v 689.6624 -1299.7888 399.8610
f 2206 2207 2208
v 688.0707 -1302.1564 404.4505
v 688.7498 -1301.1443 399.8608
v 688.0701 -1302.1556 399.8607
f 2209 2210 2211
v 689.6631 -1299.7898 405.0608
v 688.0707 -1302.1564 404.4505
v 688.7506 -1301.1456 406.5365
f 2212 2213 2214
v 689.6628 -1299.7893 402.4439
v 688.0707 -1302.1564 404.4505
v 689.6631 -1299.7898 405.0608
f 2215 2216 2217
v 692.1986 -1301.4936 405.0942
v 691.3082 -1302.8184 406.5359
v 690.6282 -1303.8282 404.4499
f 2218 2219 2220
v 690.6282 -1303.8282 404.4499
v 692.1983 -1301.4932 403.1313
v 692.1986 -1301.4936 405.0942
f 2221 2222 2223
v 692.1983 -1301.4932 403.1313
v 690.6277 -1303.8274 399.8601
v 691.3074 -1302.8173 399.8602
f 2224 2225 2226
v 691.3074 -1302.8173 399.8602
v 692.1979 -1301.4926 399.8604
v 692.1983 -1301.4932 403.1313
f 2227 2228 2229
v 690.6282 -1303.8282 404.4499
v 690.6277 -1303.8274 399.8601
v 692.1983 -1301.4932 403.1313
f 2230 2231 2232
v 690.6277 -1303.8274 399.8601
v 688.0707 -1302.1564 404.4505
v 688.0701 -1302.1556 399.8607
f 2233 2234 2235
v 689.6628 -1299.7893 402.4439
v 689.6631 -1299.7898 405.0608
v 692.1979 -1301.4926 399.8604
f 2236 2237 2238
