# Grid Center: 2616800, 1263400
# Global Anchor: 7.64977475454284, 47.53283995868075, 0.0

g building_ID_08A4D90A-F568-47D0-A1F2-291B20D35B63
v 784.0252 -1457.3383 356.0243
v 787.9217 -1453.0536 356.0248
v 787.9695 -1455.0078 356.0244
f 1 2 3
v 784.0252 -1457.3383 356.0243
v 787.9695 -1455.0078 356.0244
v 788.0245 -1457.2399 356.0238
f 4 5 6
v 783.9224 -1453.1520 356.0253
v 787.9217 -1453.0536 356.0248
v 784.0252 -1457.3383 356.0243
f 7 8 9
v 784.0259 -1457.3393 361.3621
v 788.0252 -1457.2410 361.3726
v 787.9703 -1455.0090 361.8951
f 10 11 12
v 783.9701 -1455.0613 361.8956
v 784.0259 -1457.3393 361.3621
v 787.9703 -1455.0090 361.8951
f 13 14 15
v 787.9703 -1455.0090 361.8951
v 783.9232 -1453.1530 361.4651
v 783.9701 -1455.0613 361.8956
f 16 17 18
v 783.9232 -1453.1530 361.4651
v 787.9703 -1455.0090 361.8951
v 787.9225 -1453.0548 361.4546
f 19 20 21
v 788.0250 -1457.2407 359.3666
v 788.0252 -1457.2410 361.3726
v 784.0259 -1457.3393 361.3621
f 22 23 24
v 788.0245 -1457.2399 356.0238
v 784.0259 -1457.3393 361.3621
v 784.0252 -1457.3383 356.0243
f 25 26 27
v 788.0250 -1457.2407 359.3666
v 787.9220 -1453.0541 358.0547
v 787.9225 -1453.0548 361.4546
f 28 29 30
v 787.9695 -1455.0078 356.0244
v 787.9217 -1453.0536 356.0248
v 787.9220 -1453.0541 358.0547
f 31 32 33
v 788.0250 -1457.2407 359.3666
v 787.9225 -1453.0548 361.4546
v 787.9703 -1455.0090 361.8951
f 34 35 36
v 787.9220 -1453.0541 358.0547
v 788.0250 -1457.2407 359.3666
v 788.0245 -1457.2399 356.0238
f 37 38 39
v 788.0245 -1457.2399 356.0238
v 787.9695 -1455.0078 356.0244
v 787.9220 -1453.0541 358.0547
f 40 41 42
v 788.0252 -1457.2410 361.3726
v 788.0250 -1457.2407 359.3666
v 787.9703 -1455.0090 361.8951
f 43 44 45
v 783.9232 -1453.1530 361.4651
v 784.0252 -1457.3383 356.0243
v 784.0259 -1457.3393 361.3621
f 46 47 48
v 783.9232 -1453.1530 361.4651
v 783.9224 -1453.1520 356.0253
v 784.0252 -1457.3383 356.0243
f 49 50 51
v 783.9232 -1453.1530 361.4651
v 784.0259 -1457.3393 361.3621
v 783.9701 -1455.0613 361.8956
f 52 53 54
v 788.0250 -1457.2407 359.3666
v 784.0259 -1457.3393 361.3621
v 788.0245 -1457.2399 356.0238
f 55 56 57
v 787.9225 -1453.0548 361.4546
v 783.9224 -1453.1520 356.0253
v 783.9232 -1453.1530 361.4651
f 58 59 60
v 783.9224 -1453.1520 356.0253
v 787.9225 -1453.0548 361.4546
v 787.9220 -1453.0541 358.0547
f 61 62 63
v 787.9220 -1453.0541 358.0547
v 787.9217 -1453.0536 356.0248
v 783.9224 -1453.1520 356.0253
f 64 65 66

g building_ID_516E7667-4835-4963-BF04-9DFF0723F2A6
v 831.6341 -1466.9266 345.2824
v 832.1003 -1466.8569 345.2823
v 831.7008 -1467.0578 345.2824
f 67 68 69
v 832.1003 -1466.8569 345.2823
v 831.6341 -1466.9266 345.2824
v 832.0337 -1466.7237 345.2824
f 70 71 72
v 840.4704 -1472.4042 359.0775
v 842.1038 -1472.9983 358.0721
v 837.0206 -1465.6169 359.0795
f 73 74 75
v 842.7285 -1472.6809 357.4781
v 838.1258 -1463.6296 357.4809
v 842.1038 -1472.9983 358.0721
f 76 77 78
v 837.0206 -1465.6169 359.0795
v 842.1038 -1472.9983 358.0721
v 837.5010 -1463.9470 358.0748
f 79 80 81
v 838.1258 -1463.6296 357.4809
v 837.5010 -1463.9470 358.0748
v 842.1038 -1472.9983 358.0721
f 82 83 84
v 837.0206 -1465.6169 359.0795
v 837.5010 -1463.9470 358.0748
v 835.3881 -1465.0224 358.0748
f 85 86 87
v 837.0206 -1465.6169 359.0795
v 835.3881 -1465.0224 358.0748
v 840.4704 -1472.4042 359.0775
f 88 89 90
v 834.7631 -1465.3395 357.4809
v 839.9889 -1474.0737 358.0721
v 835.3881 -1465.0224 358.0748
f 91 92 93
v 840.4704 -1472.4042 359.0775
v 835.3881 -1465.0224 358.0748
v 839.9889 -1474.0737 358.0721
f 94 95 96
v 839.3649 -1474.3909 357.4782
v 839.9889 -1474.0737 358.0721
v 834.7631 -1465.3395 357.4809
f 97 98 99
v 840.4704 -1472.4042 359.0775
v 839.9889 -1474.0737 358.0721
v 842.1038 -1472.9983 358.0721
f 100 101 102
v 832.5103 -1466.6541 355.4309
v 834.7631 -1465.3395 357.4809
v 831.6355 -1466.9286 354.7201
f 103 104 105
v 831.7021 -1467.0597 354.7201
v 832.5103 -1466.6541 355.4309
v 831.6355 -1466.9286 354.7201
f 106 107 108
v 839.3649 -1474.3909 357.4782
v 832.5103 -1466.6541 355.4309
v 836.9984 -1475.5941 355.3893
f 109 110 111
v 834.7631 -1465.3395 357.4809
v 832.5103 -1466.6541 355.4309
v 839.3649 -1474.3909 357.4782
f 112 113 114
v 831.7008 -1467.0578 345.2824
v 831.7021 -1467.0597 354.7201
v 831.6355 -1466.9286 354.7201
f 115 116 117
v 846.0865 -1458.8401 343.5585
v 848.7339 -1458.3291 343.5582
v 856.9046 -1474.5100 343.5533
f 118 119 120
v 856.9046 -1474.5100 343.5533
v 837.0305 -1475.6587 343.5558
v 846.0865 -1458.8401 343.5585
f 121 122 123
v 837.0305 -1475.6587 343.5558
v 832.5086 -1466.6517 343.5584
v 846.0865 -1458.8401 343.5585
f 124 125 126
v 848.5679 -1457.5916 343.5584
v 848.8972 -1458.2466 343.5582
v 848.7339 -1458.3291 343.5582
f 127 128 129
v 846.0865 -1458.8401 343.5585
v 831.3338 -1464.3555 343.5591
v 842.5942 -1451.9016 343.5605
f 130 131 132
v 848.5679 -1457.5916 343.5584
v 848.7339 -1458.3291 343.5582
v 846.0865 -1458.8401 343.5585
f 133 134 135
v 831.3338 -1464.3555 343.5591
v 846.0865 -1458.8401 343.5585
v 832.5086 -1466.6517 343.5584
f 136 137 138
v 836.6310 -1475.8587 343.5558
v 837.0305 -1475.6587 343.5558
v 840.1871 -1482.9242 343.5536
f 139 140 141
v 856.9046 -1474.5100 343.5533
v 840.1871 -1482.9242 343.5536
v 837.0305 -1475.6587 343.5558
f 142 143 144
v 831.3338 -1464.3555 343.5591
v 828.5984 -1458.9052 343.5607
v 842.5942 -1451.9016 343.5605
f 145 146 147
v 831.3338 -1464.3555 343.5591
v 832.1001 -1466.8565 343.5584
v 830.9412 -1464.5525 343.5591
f 148 149 150
v 831.3338 -1464.3555 343.5591
v 832.5086 -1466.6517 343.5584
v 832.1001 -1466.8565 343.5584
f 151 152 153
v 828.5984 -1458.9052 343.5607
v 828.5997 -1458.9070 352.4004
v 842.5954 -1451.9034 352.4002
f 154 155 156
v 831.3338 -1464.3555 343.5591
v 831.3351 -1464.3573 352.3988
v 828.5997 -1458.9070 352.4004
f 157 158 159
v 830.9412 -1464.5525 343.5591
v 830.9425 -1464.5543 352.3988
v 831.3351 -1464.3573 352.3988
f 160 161 162
v 836.6310 -1475.8587 343.5558
v 836.6322 -1475.8605 352.3954
v 837.0317 -1475.6606 352.3954
f 163 164 165
v 840.1871 -1482.9242 343.5536
v 840.1883 -1482.9261 352.3933
v 836.6322 -1475.8605 352.3954
f 166 167 168
v 856.9046 -1474.5100 343.5533
v 856.9059 -1474.5119 352.3930
v 840.1883 -1482.9261 352.3933
f 169 170 171
v 848.7339 -1458.3291 343.5582
v 848.7352 -1458.3309 352.3979
v 856.9059 -1474.5119 352.3930
f 172 173 174
v 848.8972 -1458.2466 343.5582
v 848.8985 -1458.2484 352.3979
v 848.7352 -1458.3309 352.3979
f 175 176 177
v 848.5679 -1457.5916 343.5584
v 848.5692 -1457.5934 352.3981
v 848.8985 -1458.2484 352.3979
f 178 179 180
v 846.0865 -1458.8401 343.5585
v 846.0879 -1458.8419 352.3982
v 848.5692 -1457.5934 352.3981
f 181 182 183
v 842.5942 -1451.9016 343.5605
v 842.5954 -1451.9034 352.4002
v 846.0879 -1458.8419 352.3982
f 184 185 186
v 836.6322 -1475.8605 352.3954
v 840.1883 -1482.9261 352.3933
v 837.0317 -1475.6606 352.3954
f 187 188 189
v 839.9349 -1474.0994 352.3954
v 837.0317 -1475.6606 352.3954
v 840.1883 -1482.9261 352.3933
f 190 191 192
v 836.9979 -1475.5935 352.3954
v 837.0317 -1475.6606 352.3954
v 839.9349 -1474.0994 352.3954
f 193 194 195
v 839.9349 -1474.0994 352.3954
v 840.1883 -1482.9261 352.3933
v 842.1160 -1472.9902 352.3953
f 196 197 198
v 830.9425 -1464.5543 352.3988
v 832.0347 -1466.7252 352.3981
v 831.3351 -1464.3573 352.3988
f 199 200 201
v 834.7624 -1465.3385 352.3980
v 831.3351 -1464.3573 352.3988
v 832.0347 -1466.7252 352.3981
f 202 203 204
v 835.3873 -1465.0212 352.3980
v 828.5997 -1458.9070 352.4004
v 834.7624 -1465.3385 352.3980
f 205 206 207
v 831.3351 -1464.3573 352.3988
v 834.7624 -1465.3385 352.3980
v 828.5997 -1458.9070 352.4004
f 208 209 210
v 837.5001 -1463.9458 352.3980
v 828.5997 -1458.9070 352.4004
v 835.3873 -1465.0212 352.3980
f 211 212 213
v 856.9059 -1474.5119 352.3930
v 846.0879 -1458.8419 352.3982
v 845.1862 -1471.4314 352.3953
f 214 215 216
v 840.1883 -1482.9261 352.3933
v 845.1862 -1471.4314 352.3953
v 842.1160 -1472.9902 352.3953
f 217 218 219
v 846.0879 -1458.8419 352.3982
v 840.5833 -1462.3771 352.3980
v 845.1862 -1471.4314 352.3953
f 220 221 222
v 840.1883 -1482.9261 352.3933
v 856.9059 -1474.5119 352.3930
v 845.1862 -1471.4314 352.3953
f 223 224 225
v 856.9059 -1474.5119 352.3930
v 848.7352 -1458.3309 352.3979
v 846.0879 -1458.8419 352.3982
f 226 227 228
v 828.5997 -1458.9070 352.4004
v 838.1250 -1463.6285 352.3980
v 840.5833 -1462.3771 352.3980
f 229 230 231
v 842.5954 -1451.9034 352.4002
v 828.5997 -1458.9070 352.4004
v 840.5833 -1462.3771 352.3980
f 232 233 234
v 848.7352 -1458.3309 352.3979
v 848.5692 -1457.5934 352.3981
v 846.0879 -1458.8419 352.3982
f 235 236 237
v 840.5833 -1462.3771 352.3980
v 846.0879 -1458.8419 352.3982
v 842.5954 -1451.9034 352.4002
f 238 239 240
v 848.5692 -1457.5934 352.3981
v 848.7352 -1458.3309 352.3979
v 848.8985 -1458.2484 352.3979
f 241 242 243
v 837.5001 -1463.9458 352.3980
v 838.1250 -1463.6285 352.3980
v 828.5997 -1458.9070 352.4004
f 244 245 246
v 832.0337 -1466.7237 345.2824
v 832.1001 -1466.8565 343.5584
v 832.1003 -1466.8569 345.2823
f 247 248 249
v 830.9412 -1464.5525 343.5591
v 832.0337 -1466.7237 345.2824
v 830.9425 -1464.5543 352.3988
f 250 251 252
v 832.0347 -1466.7252 352.3981
v 830.9425 -1464.5543 352.3988
v 832.0337 -1466.7237 345.2824
f 253 254 255
v 832.1001 -1466.8565 343.5584
v 832.0337 -1466.7237 345.2824
v 830.9412 -1464.5525 343.5591
f 256 257 258
v 841.3010 -1463.7876 355.3094
v 840.5838 -1462.3776 355.3099
v 838.1258 -1463.6296 357.4809
f 259 260 261
v 845.1865 -1471.4321 355.3072
v 841.3010 -1463.7876 355.3094
v 842.7285 -1472.6809 357.4781
f 262 263 264
v 838.1258 -1463.6296 357.4809
v 842.7285 -1472.6809 357.4781
v 841.3010 -1463.7876 355.3094
f 265 266 267
v 841.3010 -1463.7876 355.3094
v 840.5833 -1462.3771 352.3980
v 840.5838 -1462.3776 355.3099
f 268 269 270
v 840.5833 -1462.3771 352.3980
v 841.3010 -1463.7876 355.3094
v 845.1862 -1471.4314 352.3953
f 271 272 273
v 845.1865 -1471.4321 355.3072
v 845.1862 -1471.4314 352.3953
v 841.3010 -1463.7876 355.3094
f 274 275 276
v 832.5103 -1466.6541 355.4309
v 832.1003 -1466.8569 345.2823
v 832.5086 -1466.6517 343.5584
f 277 278 279
v 831.7008 -1467.0578 345.2824
v 832.5103 -1466.6541 355.4309
v 831.7021 -1467.0597 354.7201
f 280 281 282
v 832.5103 -1466.6541 355.4309
v 831.7008 -1467.0578 345.2824
v 832.1003 -1466.8569 345.2823
f 283 284 285
v 832.1001 -1466.8565 343.5584
v 832.5086 -1466.6517 343.5584
v 832.1003 -1466.8569 345.2823
f 286 287 288
v 832.5086 -1466.6517 343.5584
v 837.0305 -1475.6587 343.5558
v 836.9979 -1475.5935 352.3954
f 289 290 291
v 837.0317 -1475.6606 352.3954
v 836.9979 -1475.5935 352.3954
v 837.0305 -1475.6587 343.5558
f 292 293 294
v 836.9979 -1475.5935 352.3954
v 836.9984 -1475.5941 355.3893
v 832.5103 -1466.6541 355.4309
f 295 296 297
v 836.9979 -1475.5935 352.3954
v 832.5103 -1466.6541 355.4309
v 832.5086 -1466.6517 343.5584
f 298 299 300
v 842.1160 -1472.9902 352.3953
v 845.1862 -1471.4314 352.3953
v 845.1865 -1471.4321 355.3072
f 301 302 303
v 842.1160 -1472.9902 352.3953
v 839.3649 -1474.3909 357.4782
v 839.9349 -1474.0994 352.3954
f 304 305 306
v 842.1160 -1472.9902 352.3953
v 845.1865 -1471.4321 355.3072
v 842.7285 -1472.6809 357.4781
f 307 308 309
v 839.9889 -1474.0737 358.0721
v 842.7285 -1472.6809 357.4781
v 842.1038 -1472.9983 358.0721
f 310 311 312
v 839.3649 -1474.3909 357.4782
v 842.7285 -1472.6809 357.4781
v 839.9889 -1474.0737 358.0721
f 313 314 315
v 836.9979 -1475.5935 352.3954
v 839.9349 -1474.0994 352.3954
v 836.9984 -1475.5941 355.3893
f 316 317 318
v 836.9984 -1475.5941 355.3893
v 839.9349 -1474.0994 352.3954
v 839.3649 -1474.3909 357.4782
f 319 320 321
v 842.7285 -1472.6809 357.4781
v 839.3649 -1474.3909 357.4782
v 842.1160 -1472.9902 352.3953
f 322 323 324
v 837.5010 -1463.9470 358.0748
v 834.7631 -1465.3395 357.4809
v 835.3881 -1465.0224 358.0748
f 325 326 327
v 837.5010 -1463.9470 358.0748
v 835.3873 -1465.0212 352.3980
v 834.7624 -1465.3385 352.3980
f 328 329 330
v 832.0347 -1466.7252 352.3981
v 831.6355 -1466.9286 354.7201
v 834.7631 -1465.3395 357.4809
f 331 332 333
v 834.7631 -1465.3395 357.4809
v 834.7624 -1465.3385 352.3980
v 832.0347 -1466.7252 352.3981
f 334 335 336
v 834.7624 -1465.3385 352.3980
v 834.7631 -1465.3395 357.4809
v 837.5010 -1463.9470 358.0748
f 337 338 339
v 831.6341 -1466.9266 345.2824
v 831.6355 -1466.9286 354.7201
v 832.0347 -1466.7252 352.3981
f 340 341 342
v 835.3873 -1465.0212 352.3980
v 837.5010 -1463.9470 358.0748
v 838.1258 -1463.6296 357.4809
f 343 344 345
v 840.5833 -1462.3771 352.3980
v 838.1250 -1463.6285 352.3980
v 840.5838 -1462.3776 355.3099
f 346 347 348
v 837.5001 -1463.9458 352.3980
v 840.5838 -1462.3776 355.3099
v 838.1250 -1463.6285 352.3980
f 349 350 351
v 832.0347 -1466.7252 352.3981
v 832.0337 -1466.7237 345.2824
v 831.6341 -1466.9266 345.2824
f 352 353 354
v 835.3873 -1465.0212 352.3980
v 838.1258 -1463.6296 357.4809
v 837.5001 -1463.9458 352.3980
f 355 356 357
v 840.5838 -1462.3776 355.3099
v 837.5001 -1463.9458 352.3980
v 838.1258 -1463.6296 357.4809
f 358 359 360
v 831.7008 -1467.0578 345.2824
v 831.6355 -1466.9286 354.7201
v 831.6341 -1466.9266 345.2824
f 361 362 363
v 828.5984 -1458.9052 343.5607
v 842.5954 -1451.9034 352.4002
v 842.5942 -1451.9016 343.5605
f 364 365 366
v 831.3338 -1464.3555 343.5591
v 828.5997 -1458.9070 352.4004
v 828.5984 -1458.9052 343.5607
f 367 368 369
v 830.9412 -1464.5525 343.5591
v 831.3351 -1464.3573 352.3988
v 831.3338 -1464.3555 343.5591
f 370 371 372
v 836.6310 -1475.8587 343.5558
v 837.0317 -1475.6606 352.3954
v 837.0305 -1475.6587 343.5558
f 373 374 375
v 840.1871 -1482.9242 343.5536
v 836.6322 -1475.8605 352.3954
v 836.6310 -1475.8587 343.5558
f 376 377 378
v 856.9046 -1474.5100 343.5533
v 840.1883 -1482.9261 352.3933
v 840.1871 -1482.9242 343.5536
f 379 380 381
v 848.7339 -1458.3291 343.5582
v 856.9059 -1474.5119 352.3930
v 856.9046 -1474.5100 343.5533
f 382 383 384
v 848.8972 -1458.2466 343.5582
v 848.7352 -1458.3309 352.3979
v 848.7339 -1458.3291 343.5582
f 385 386 387
v 848.5679 -1457.5916 343.5584
v 848.8985 -1458.2484 352.3979
v 848.8972 -1458.2466 343.5582
f 388 389 390
v 846.0865 -1458.8401 343.5585
v 848.5692 -1457.5934 352.3981
v 848.5679 -1457.5916 343.5584
f 391 392 393
v 842.5942 -1451.9016 343.5605
v 846.0879 -1458.8419 352.3982
v 846.0865 -1458.8401 343.5585
f 394 395 396

g building_ID_9800F9D9-66A5-4521-A20F-DEA8BF181E00
v 805.4029 -1401.5908 343.0177
v 810.6190 -1400.7828 343.0172
v 814.0323 -1423.0760 343.0118
f 397 398 399
v 800.6909 -1402.3212 343.0181
v 805.4029 -1401.5908 343.0177
v 814.0323 -1423.0760 343.0118
f 400 401 402
v 800.6909 -1402.3212 343.0181
v 814.0323 -1423.0760 343.0118
v 808.9632 -1423.8584 343.0123
f 403 404 405
v 804.1422 -1424.6035 343.0127
v 800.6909 -1402.3212 343.0181
v 808.9632 -1423.8584 343.0123
f 406 407 408
v 805.4046 -1401.5933 355.7843
v 800.6922 -1402.3231 352.5098
v 802.4173 -1413.4627 352.4691
f 409 410 411
v 805.4046 -1401.5933 355.7843
v 802.4173 -1413.4627 352.4691
v 808.9649 -1423.8609 355.7788
f 412 413 414
v 804.1435 -1424.6054 352.4283
v 808.9649 -1423.8609 355.7788
v 802.4173 -1413.4627 352.4691
f 415 416 417
v 808.9649 -1423.8609 355.7788
v 814.0335 -1423.0777 351.9195
v 812.3274 -1411.9331 351.8662
f 418 419 420
v 808.9649 -1423.8609 355.7788
v 812.3274 -1411.9331 351.8662
v 805.4046 -1401.5933 355.7843
f 421 422 423
v 810.6203 -1400.7845 351.8119
v 805.4046 -1401.5933 355.7843
v 812.3274 -1411.9331 351.8662
f 424 425 426
v 810.6198 -1400.7839 348.4720
v 810.6203 -1400.7845 351.8119
v 812.3274 -1411.9331 351.8662
f 427 428 429
v 810.6190 -1400.7828 343.0172
v 810.6198 -1400.7839 348.4720
v 812.3274 -1411.9331 351.8662
f 430 431 432
v 810.6190 -1400.7828 343.0172
v 812.3274 -1411.9331 351.8662
v 814.0323 -1423.0760 343.0118
f 433 434 435
v 814.0329 -1423.0769 347.4656
v 814.0326 -1423.0765 345.2387
v 812.3274 -1411.9331 351.8662
f 436 437 438
v 814.0323 -1423.0760 343.0118
v 812.3274 -1411.9331 351.8662
v 814.0326 -1423.0765 345.2387
f 439 440 441
v 805.4029 -1401.5908 343.0177
v 800.6909 -1402.3212 343.0181
v 800.6922 -1402.3231 352.5098
f 442 443 444
v 805.4046 -1401.5933 355.7843
v 810.6198 -1400.7839 348.4720
v 800.6922 -1402.3231 352.5098
f 445 446 447
v 810.6203 -1400.7845 351.8119
v 810.6198 -1400.7839 348.4720
v 805.4046 -1401.5933 355.7843
f 448 449 450
v 800.6922 -1402.3231 352.5098
v 810.6198 -1400.7839 348.4720
v 810.6190 -1400.7828 343.0172
f 451 452 453
v 805.4029 -1401.5908 343.0177
v 800.6922 -1402.3231 352.5098
v 810.6190 -1400.7828 343.0172
f 454 455 456
v 814.0329 -1423.0769 347.4656
v 814.0335 -1423.0777 351.9195
v 808.9649 -1423.8609 355.7788
f 457 458 459
v 814.0329 -1423.0769 347.4656
v 804.1435 -1424.6054 352.4283
v 814.0326 -1423.0765 345.2387
f 460 461 462
v 804.1435 -1424.6054 352.4283
v 814.0329 -1423.0769 347.4656
v 808.9649 -1423.8609 355.7788
f 463 464 465
v 808.9632 -1423.8584 343.0123
v 814.0323 -1423.0760 343.0118
v 814.0326 -1423.0765 345.2387
f 466 467 468
v 804.1435 -1424.6054 352.4283
v 804.1422 -1424.6035 343.0127
v 808.9632 -1423.8584 343.0123
f 469 470 471
v 804.1435 -1424.6054 352.4283
v 808.9632 -1423.8584 343.0123
v 814.0326 -1423.0765 345.2387
f 472 473 474
v 804.1435 -1424.6054 352.4283
v 802.4173 -1413.4627 352.4691
v 804.1422 -1424.6035 343.0127
f 475 476 477
v 802.4173 -1413.4627 352.4691
v 800.6922 -1402.3231 352.5098
v 800.6909 -1402.3212 343.0181
f 478 479 480
v 800.6909 -1402.3212 343.0181
v 804.1422 -1424.6035 343.0127
v 802.4173 -1413.4627 352.4691
f 481 482 483
v 812.3274 -1411.9331 351.8662
v 814.0335 -1423.0777 351.9195
v 814.0329 -1423.0769 347.4656
f 484 485 486

g building_ID_28981A01-52AD-4337-B5F1-BBFE1B63924D
v 886.3013 -1359.9794 315.7461
v 888.6102 -1358.9176 315.7460
v 889.3916 -1360.6177 315.7455
f 487 488 489
v 887.9296 -1363.5978 315.7451
v 889.3916 -1360.6177 315.7455
v 890.2685 -1362.5261 315.7450
f 490 491 492
v 889.3916 -1360.6177 315.7455
v 887.9296 -1363.5978 315.7451
v 886.3013 -1359.9794 315.7461
f 493 494 495
v 890.2692 -1362.5270 320.8128
v 887.0686 -1361.6835 321.4773
v 887.9304 -1363.5988 320.8129
f 496 497 498
v 887.0686 -1361.6835 321.4773
v 890.2692 -1362.5270 320.8128
v 889.3925 -1360.6188 321.4772
f 499 500 501
v 887.0686 -1361.6835 321.4773
v 888.6110 -1358.9187 321.0208
v 886.3021 -1359.9804 321.0219
f 502 503 504
v 889.3925 -1360.6188 321.4772
v 888.6110 -1358.9187 321.0208
v 887.0686 -1361.6835 321.4773
f 505 506 507
v 890.2685 -1362.5261 315.7450
v 890.2692 -1362.5270 320.8128
v 887.9304 -1363.5988 320.8129
f 508 509 510
v 889.3925 -1360.6188 321.4772
v 888.6102 -1358.9176 315.7460
v 888.6110 -1358.9187 321.0208
f 511 512 513
v 888.6102 -1358.9176 315.7460
v 890.2692 -1362.5270 320.8128
v 889.3916 -1360.6177 315.7455
f 514 515 516
v 890.2685 -1362.5261 315.7450
v 889.3916 -1360.6177 315.7455
v 890.2692 -1362.5270 320.8128
f 517 518 519
v 890.2692 -1362.5270 320.8128
v 888.6102 -1358.9176 315.7460
v 889.3925 -1360.6188 321.4772
f 520 521 522
v 886.3013 -1359.9794 315.7461
v 887.9296 -1363.5978 315.7451
v 887.9304 -1363.5988 320.8129
f 523 524 525
v 886.3013 -1359.9794 315.7461
v 887.9304 -1363.5988 320.8129
v 887.0686 -1361.6835 321.4773
f 526 527 528
v 886.3021 -1359.9804 321.0219
v 886.3013 -1359.9794 315.7461
v 887.0686 -1361.6835 321.4773
f 529 530 531
v 890.2685 -1362.5261 315.7450
v 887.9304 -1363.5988 320.8129
v 887.9296 -1363.5978 315.7451
f 532 533 534
v 886.3013 -1359.9794 315.7461
v 886.3021 -1359.9804 321.0219
v 888.6110 -1358.9187 321.0208
f 535 536 537
v 888.6102 -1358.9176 315.7460
v 886.3013 -1359.9794 315.7461
v 888.6110 -1358.9187 321.0208
f 538 539 540

g building_ID_30A36458-1B20-4E29-89E0-900B5F3DDFA5
v 794.6840 -1386.9509 342.1003
v 790.2089 -1382.8799 342.1017
v 794.2214 -1385.3087 342.1007
f 541 542 543
v 790.2089 -1382.8799 342.1017
v 793.2922 -1382.0112 342.1016
v 794.2214 -1385.3087 342.1007
f 544 545 546
v 788.7645 -1388.6191 342.1007
v 788.3128 -1387.0159 342.1011
v 794.6840 -1386.9509 342.1003
f 547 548 549
v 787.3728 -1383.6793 342.1019
v 790.2089 -1382.8799 342.1017
v 787.7868 -1385.1505 342.1016
f 550 551 552
v 790.2089 -1382.8799 342.1017
v 788.3128 -1387.0159 342.1011
v 787.7868 -1385.1505 342.1016
f 553 554 555
v 794.6840 -1386.9509 342.1003
v 788.3128 -1387.0159 342.1011
v 790.2089 -1382.8799 342.1017
f 556 557 558
v 787.7876 -1385.1516 348.0574
v 794.2221 -1385.3097 347.0345
v 793.6962 -1383.4434 348.0570
f 559 560 561
v 794.2221 -1385.3097 347.0345
v 787.7876 -1385.1516 348.0574
v 788.3135 -1387.0168 347.0349
f 562 563 564
v 793.6962 -1383.4434 348.0570
v 793.2929 -1382.0122 347.2614
v 787.7876 -1385.1516 348.0574
f 565 566 567
v 787.3735 -1383.6803 347.2397
v 787.7876 -1385.1516 348.0574
v 793.2929 -1382.0122 347.2614
f 568 569 570
v 794.2221 -1385.3097 347.0345
v 788.7652 -1388.6200 346.9395
v 794.6847 -1386.9518 346.9371
f 571 572 573
v 788.3135 -1387.0168 347.0349
v 788.7652 -1388.6200 346.9395
v 794.2221 -1385.3097 347.0345
f 574 575 576
v 787.3731 -1383.6799 344.6598
v 787.3732 -1383.6800 345.9498
v 790.3322 -1382.8456 343.8647
f 577 578 579
v 790.3322 -1382.8456 343.8647
v 790.2089 -1382.8799 342.1017
v 787.3728 -1383.6793 342.1019
f 580 581 582
v 790.3322 -1382.8456 343.8647
v 787.3728 -1383.6793 342.1019
v 787.3731 -1383.6799 344.6598
f 583 584 585
v 793.2922 -1382.0112 342.1016
v 790.2089 -1382.8799 342.1017
v 790.3322 -1382.8456 343.8647
f 586 587 588
v 788.7645 -1388.6191 342.1007
v 788.7652 -1388.6200 346.9395
v 788.3135 -1387.0168 347.0349
f 589 590 591
v 788.3135 -1387.0168 347.0349
v 787.3731 -1383.6799 344.6598
v 788.7645 -1388.6191 342.1007
f 592 593 594
v 787.3732 -1383.6800 345.9498
v 787.7876 -1385.1516 348.0574
v 787.3735 -1383.6803 347.2397
f 595 596 597
v 788.3135 -1387.0168 347.0349
v 787.3732 -1383.6800 345.9498
v 787.3731 -1383.6799 344.6598
f 598 599 600
v 787.3731 -1383.6799 344.6598
v 787.7868 -1385.1505 342.1016
v 788.3128 -1387.0159 342.1011
f 601 602 603
v 787.7868 -1385.1505 342.1016
v 787.3731 -1383.6799 344.6598
v 787.3728 -1383.6793 342.1019
f 604 605 606
v 788.3128 -1387.0159 342.1011
v 788.7645 -1388.6191 342.1007
v 787.3731 -1383.6799 344.6598
f 607 608 609
v 787.3732 -1383.6800 345.9498
v 788.3135 -1387.0168 347.0349
v 787.7876 -1385.1516 348.0574
f 610 611 612
v 794.2221 -1385.3097 347.0345
v 793.2922 -1382.0112 342.1016
v 793.2929 -1382.0122 347.2614
f 613 614 615
v 793.2929 -1382.0122 347.2614
v 793.6962 -1383.4434 348.0570
v 794.2221 -1385.3097 347.0345
f 616 617 618
v 794.2214 -1385.3087 342.1007
v 793.2922 -1382.0112 342.1016
v 794.2221 -1385.3097 347.0345
f 619 620 621
v 794.2214 -1385.3087 342.1007
v 794.6847 -1386.9518 346.9371
v 794.6840 -1386.9509 342.1003
f 622 623 624
v 794.2214 -1385.3087 342.1007
v 794.2221 -1385.3097 347.0345
v 794.6847 -1386.9518 346.9371
f 625 626 627
v 787.3732 -1383.6800 345.9498
v 787.3735 -1383.6803 347.2397
v 790.3322 -1382.8456 343.8647
f 628 629 630
v 787.3735 -1383.6803 347.2397
v 793.2929 -1382.0122 347.2614
v 793.2922 -1382.0112 342.1016
f 631 632 633
v 793.2922 -1382.0112 342.1016
v 790.3322 -1382.8456 343.8647
v 787.3735 -1383.6803 347.2397
f 634 635 636
v 794.6847 -1386.9518 346.9371
v 788.7652 -1388.6200 346.9395
v 788.7645 -1388.6191 342.1007
f 637 638 639
v 794.6847 -1386.9518 346.9371
v 788.7645 -1388.6191 342.1007
v 794.6840 -1386.9509 342.1003
f 640 641 642

g building_ID_667E6200-C650-4C13-A92D-9B15F3C88D6D
v 783.8668 -1393.4824 344.2361
v 782.4194 -1389.5164 344.2372
v 782.8386 -1389.4306 344.2371
f 643 644 645
v 778.3588 -1390.8427 344.2374
v 783.8668 -1393.4824 344.2361
v 779.3217 -1394.6362 344.2364
f 646 647 648
v 783.8668 -1393.4824 344.2361
v 778.3588 -1390.8427 344.2374
v 782.4194 -1389.5164 344.2372
f 649 650 651
v 778.4407 -1390.5269 344.2374
v 782.4194 -1389.5164 344.2372
v 778.3588 -1390.8427 344.2374
f 652 653 654
v 783.8674 -1393.4833 349.0279
v 778.7742 -1392.4788 349.7478
v 779.3224 -1394.6372 349.7212
f 655 656 657
v 783.8674 -1393.4833 349.0279
v 780.8380 -1389.9193 349.3811
v 778.7742 -1392.4788 349.7478
f 658 659 660
v 780.8380 -1389.9193 349.3811
v 778.3596 -1390.8436 349.7672
v 778.7742 -1392.4788 349.7478
f 661 662 663
v 778.3596 -1390.8436 349.7672
v 780.8380 -1389.9193 349.3811
v 778.4414 -1390.5278 349.7472
f 664 665 666
v 783.0847 -1390.3992 349.0647
v 782.4200 -1389.5174 349.1390
v 780.8380 -1389.9193 349.3811
f 667 668 669
v 782.8392 -1389.4316 349.0759
v 782.4200 -1389.5174 349.1390
v 783.0847 -1390.3992 349.0647
f 670 671 672
v 783.8674 -1393.4833 349.0279
v 783.0847 -1390.3992 349.0647
v 780.8380 -1389.9193 349.3811
f 673 674 675
v 782.8386 -1389.4306 344.2371
v 782.8392 -1389.4316 349.0759
v 783.0847 -1390.3992 349.0647
f 676 677 678
v 783.0847 -1390.3992 349.0647
v 783.8668 -1393.4824 344.2361
v 782.8386 -1389.4306 344.2371
f 679 680 681
v 782.8386 -1389.4306 344.2371
v 782.4194 -1389.5164 344.2372
v 782.4200 -1389.5174 349.1390
f 682 683 684
v 782.4194 -1389.5164 344.2372
v 778.4407 -1390.5269 344.2374
v 778.4414 -1390.5278 349.7472
f 685 686 687
v 782.4194 -1389.5164 344.2372
v 780.8380 -1389.9193 349.3811
v 782.4200 -1389.5174 349.1390
f 688 689 690
v 778.3588 -1390.8427 344.2374
v 778.3596 -1390.8436 349.7672
v 778.4414 -1390.5278 349.7472
f 691 692 693
v 779.3217 -1394.6362 344.2364
v 779.3224 -1394.6372 349.7212
v 778.7742 -1392.4788 349.7478
f 694 695 696
v 779.3217 -1394.6362 344.2364
v 778.7742 -1392.4788 349.7478
v 778.3588 -1390.8427 344.2374
f 697 698 699
v 779.3217 -1394.6362 344.2364
v 783.8668 -1393.4824 344.2361
v 783.8674 -1393.4833 349.0279
f 700 701 702
v 783.0847 -1390.3992 349.0647
v 783.8674 -1393.4833 349.0279
v 783.8668 -1393.4824 344.2361
f 703 704 705
v 782.4200 -1389.5174 349.1390
v 782.8392 -1389.4316 349.0759
v 782.8386 -1389.4306 344.2371
f 706 707 708
v 778.4414 -1390.5278 349.7472
v 780.8380 -1389.9193 349.3811
v 782.4194 -1389.5164 344.2372
f 709 710 711
v 778.3588 -1390.8427 344.2374
v 778.4414 -1390.5278 349.7472
v 778.4407 -1390.5269 344.2374
f 712 713 714
v 778.3588 -1390.8427 344.2374
v 778.7742 -1392.4788 349.7478
v 778.3596 -1390.8436 349.7672
f 715 716 717
v 783.8674 -1393.4833 349.0279
v 779.3224 -1394.6372 349.7212
v 779.3217 -1394.6362 344.2364
f 718 719 720

g building_ID_0B231FD1-0985-49B6-A5D0-6E9A5F10A238
v 738.2426 -1270.4002 390.9218
v 734.4178 -1269.9229 390.9223
v 734.9136 -1268.8552 390.9225
f 721 722 723
v 738.2426 -1270.4002 390.9218
v 733.6413 -1271.5969 390.9221
v 734.4178 -1269.9229 390.9223
f 724 725 726
v 736.9702 -1273.1408 390.9214
v 733.6413 -1271.5969 390.9221
v 737.7085 -1271.5497 390.9216
f 727 728 729
v 738.2426 -1270.4002 390.9218
v 737.7085 -1271.5497 390.9216
v 733.6413 -1271.5969 390.9221
f 730 731 732
v 736.9709 -1273.1417 396.3682
v 734.4187 -1269.9241 397.7681
v 733.6419 -1271.5977 396.2969
f 733 734 735
v 734.4187 -1269.9241 397.7681
v 736.9709 -1273.1417 396.3682
v 737.7093 -1271.5509 397.7674
f 736 737 738
v 734.4187 -1269.9241 397.7681
v 738.2432 -1270.4012 396.6466
v 734.9144 -1268.8562 396.7263
f 739 740 741
v 737.7093 -1271.5509 397.7674
v 738.2432 -1270.4012 396.6466
v 734.4187 -1269.9241 397.7681
f 742 743 744
v 733.6413 -1271.5969 390.9221
v 736.9702 -1273.1408 390.9214
v 736.9703 -1273.1410 392.2834
f 745 746 747
v 736.9703 -1273.1410 392.2834
v 736.9709 -1273.1417 396.3682
v 733.6413 -1271.5969 390.9221
f 748 749 750
v 733.6419 -1271.5977 396.2969
v 733.6415 -1271.5970 392.2111
v 736.9709 -1273.1417 396.3682
f 751 752 753
v 733.6415 -1271.5970 392.2111
v 733.6413 -1271.5969 390.9221
v 736.9709 -1273.1417 396.3682
f 754 755 756
v 734.9136 -1268.8552 390.9225
v 734.9138 -1268.8555 392.3735
v 738.2426 -1270.4002 390.9218
f 757 758 759
v 734.9144 -1268.8562 396.7263
v 738.2426 -1270.4002 390.9218
v 734.9138 -1268.8555 392.3735
f 760 761 762
v 734.9144 -1268.8562 396.7263
v 738.2427 -1270.4004 392.2928
v 738.2426 -1270.4002 390.9218
f 763 764 765
v 733.6415 -1271.5970 392.2111
v 734.9138 -1268.8555 392.3735
v 734.4178 -1269.9229 390.9223
f 766 767 768
v 734.9138 -1268.8555 392.3735
v 733.6415 -1271.5970 392.2111
v 733.6419 -1271.5977 396.2969
f 769 770 771
v 733.6413 -1271.5969 390.9221
v 733.6415 -1271.5970 392.2111
v 734.4178 -1269.9229 390.9223
f 772 773 774
v 734.9138 -1268.8555 392.3735
v 734.9136 -1268.8552 390.9225
v 734.4178 -1269.9229 390.9223
f 775 776 777
v 734.9144 -1268.8562 396.7263
v 733.6419 -1271.5977 396.2969
v 734.4187 -1269.9241 397.7681
f 778 779 780
v 733.6419 -1271.5977 396.2969
v 734.9144 -1268.8562 396.7263
v 734.9138 -1268.8555 392.3735
f 781 782 783
v 736.9709 -1273.1417 396.3682
v 738.2432 -1270.4012 396.6466
v 737.7093 -1271.5509 397.7674
f 784 785 786
v 738.2427 -1270.4004 392.2928
v 738.2432 -1270.4012 396.6466
v 736.9709 -1273.1417 396.3682
f 787 788 789
v 737.7085 -1271.5497 390.9216
v 738.2427 -1270.4004 392.2928
v 736.9703 -1273.1410 392.2834
f 790 791 792
v 738.2427 -1270.4004 392.2928
v 737.7085 -1271.5497 390.9216
v 738.2426 -1270.4002 390.9218
f 793 794 795
v 736.9702 -1273.1408 390.9214
v 737.7085 -1271.5497 390.9216
v 736.9703 -1273.1410 392.2834
f 796 797 798
v 736.9709 -1273.1417 396.3682
v 736.9703 -1273.1410 392.2834
v 738.2427 -1270.4004 392.2928
f 799 800 801
v 734.9144 -1268.8562 396.7263
v 738.2432 -1270.4012 396.6466
v 738.2427 -1270.4004 392.2928
f 802 803 804

g building_ID_156F034D-88EE-40AC-943F-4914B3D9DBFF
v 737.3868 -1267.2938 390.3556
v 740.0600 -1267.5769 390.3552
v 739.2152 -1269.3737 390.3550
f 805 806 807
v 740.0600 -1267.5769 390.3552
v 737.3868 -1267.2938 390.3556
v 737.7357 -1266.5787 390.3557
f 808 809 810
v 736.8820 -1268.3264 390.3555
v 737.3868 -1267.2938 390.3556
v 739.2152 -1269.3737 390.3550
f 811 812 813
v 739.7058 -1268.3330 396.7248
v 740.0607 -1267.5779 396.1849
v 738.8991 -1267.0788 396.1982
f 814 815 816
v 737.3876 -1267.2948 396.7253
v 738.8991 -1267.0788 396.1982
v 737.7364 -1266.5797 396.2114
f 817 818 819
v 739.7058 -1268.3330 396.7248
v 738.8991 -1267.0788 396.1982
v 737.3876 -1267.2948 396.7253
f 820 821 822
v 739.2159 -1269.3746 395.8238
v 737.3876 -1267.2948 396.7253
v 736.8827 -1268.3273 395.8243
f 823 824 825
v 737.3876 -1267.2948 396.7253
v 739.2159 -1269.3746 395.8238
v 739.7058 -1268.3330 396.7248
f 826 827 828
v 738.8991 -1267.0788 396.1982
v 740.0607 -1267.5779 396.1849
v 737.7359 -1266.5790 391.8196
f 829 830 831
v 740.0600 -1267.5769 390.3552
v 737.7357 -1266.5787 390.3557
v 740.0607 -1267.5779 396.1849
f 832 833 834
v 737.7359 -1266.5790 391.8196
v 740.0607 -1267.5779 396.1849
v 737.7357 -1266.5787 390.3557
f 835 836 837
v 739.2152 -1269.3737 390.3550
v 739.2159 -1269.3746 395.8238
v 736.8827 -1268.3273 395.8243
f 838 839 840
v 736.8827 -1268.3273 395.8243
v 737.3876 -1267.2948 396.7253
v 737.7364 -1266.5797 396.2114
f 841 842 843
v 736.8820 -1268.3264 390.3555
v 736.8827 -1268.3273 395.8243
v 737.7359 -1266.5790 391.8196
f 844 845 846
v 737.7364 -1266.5797 396.2114
v 737.7359 -1266.5790 391.8196
v 736.8827 -1268.3273 395.8243
f 847 848 849
v 737.7359 -1266.5790 391.8196
v 737.3868 -1267.2938 390.3556
v 736.8820 -1268.3264 390.3555
f 850 851 852
v 737.7359 -1266.5790 391.8196
v 737.7357 -1266.5787 390.3557
v 737.3868 -1267.2938 390.3556
f 853 854 855
v 739.2152 -1269.3737 390.3550
v 740.0600 -1267.5769 390.3552
v 740.0607 -1267.5779 396.1849
f 856 857 858
v 739.2159 -1269.3746 395.8238
v 740.0607 -1267.5779 396.1849
v 739.7058 -1268.3330 396.7248
f 859 860 861
v 739.2152 -1269.3737 390.3550
v 740.0607 -1267.5779 396.1849
v 739.2159 -1269.3746 395.8238
f 862 863 864
v 738.8991 -1267.0788 396.1982
v 737.7359 -1266.5790 391.8196
v 737.7364 -1266.5797 396.2114
f 865 866 867
v 739.2152 -1269.3737 390.3550
v 736.8827 -1268.3273 395.8243
v 736.8820 -1268.3264 390.3555
f 868 869 870

g building_ID_E36FA9ED-D146-4CA8-B94F-DA7F836BA32B
v 928.1816 -1428.2148 317.4779
v 927.2484 -1427.5533 317.4782
v 927.3544 -1427.5285 317.4782
f 871 872 873
v 925.8372 -1429.5045 317.4779
v 927.2484 -1427.5533 317.4782
v 928.1816 -1428.2148 317.4779
f 874 875 876
v 926.4455 -1430.1211 317.4777
v 925.8319 -1429.6034 317.4779
v 925.8372 -1429.5045 317.4779
f 877 878 879
v 926.4455 -1430.1211 317.4777
v 926.8395 -1431.2121 317.4774
v 926.0713 -1430.5631 317.4777
f 880 881 882
v 926.4455 -1430.1211 317.4777
v 925.8372 -1429.5045 317.4779
v 928.1816 -1428.2148 317.4779
f 883 884 885
v 928.7583 -1428.6923 317.4777
v 926.4455 -1430.1211 317.4777
v 928.1816 -1428.2148 317.4779
f 886 887 888
v 926.4455 -1430.1211 317.4777
v 932.0889 -1431.4542 317.4766
v 926.8395 -1431.2121 317.4774
f 889 890 891
v 926.8395 -1431.2121 317.4774
v 932.0889 -1431.4542 317.4766
v 930.0204 -1433.9017 317.4763
f 892 893 894
v 932.0889 -1431.4542 317.4766
v 926.4455 -1430.1211 317.4777
v 928.7583 -1428.6923 317.4777
f 895 896 897
v 928.7593 -1428.6934 323.3565
v 926.3285 -1430.7808 322.5975
v 926.9013 -1431.2655 323.3562
f 898 899 900
v 926.3285 -1430.7808 322.5975
v 928.7593 -1428.6934 323.3565
v 928.1824 -1428.2158 322.5978
f 901 902 903
v 926.4463 -1430.1221 322.5016
v 926.0721 -1430.5640 322.4866
v 926.3285 -1430.7808 322.5975
f 904 905 906
v 926.4463 -1430.1221 322.5016
v 926.3285 -1430.7808 322.5975
v 928.1824 -1428.2158 322.5978
f 907 908 909
v 927.3552 -1427.5295 322.2431
v 925.8326 -1429.6044 322.2368
v 926.4463 -1430.1221 322.5016
f 910 911 912
v 928.1824 -1428.2158 322.5978
v 927.3552 -1427.5295 322.2431
v 926.4463 -1430.1221 322.5016
f 913 914 915
v 927.2491 -1427.5542 322.2191
v 925.8326 -1429.6044 322.2368
v 927.3552 -1427.5295 322.2431
f 916 917 918
v 925.8379 -1429.5054 322.2188
v 925.8326 -1429.6044 322.2368
v 927.2491 -1427.5542 322.2191
f 919 920 921
v 928.7593 -1428.6934 323.3565
v 926.9013 -1431.2655 323.3562
v 932.0898 -1431.4553 322.6594
f 922 923 924
v 932.0898 -1431.4553 322.6594
v 926.9013 -1431.2655 323.3562
v 930.0211 -1433.9027 322.6981
f 925 926 927
v 925.8319 -1429.6034 317.4779
v 925.8379 -1429.5054 322.2188
v 925.8372 -1429.5045 317.4779
f 928 929 930
v 926.0713 -1430.5631 317.4777
v 926.0721 -1430.5640 322.4866
v 926.4463 -1430.1221 322.5016
f 931 932 933
v 925.8372 -1429.5045 317.4779
v 925.8379 -1429.5054 322.2188
v 927.2491 -1427.5542 322.2191
f 934 935 936
v 932.0895 -1431.4550 321.3545
v 932.0898 -1431.4553 322.6594
v 930.0204 -1433.9017 317.4763
f 937 938 939
v 932.0889 -1431.4542 317.4766
v 932.0893 -1431.4547 320.0485
v 930.0204 -1433.9017 317.4763
f 940 941 942
v 930.0204 -1433.9017 317.4763
v 932.0898 -1431.4553 322.6594
v 930.0211 -1433.9027 322.6981
f 943 944 945
v 926.9013 -1431.2655 323.3562
v 930.0204 -1433.9017 317.4763
v 930.0211 -1433.9027 322.6981
f 946 947 948
v 930.0204 -1433.9017 317.4763
v 926.9013 -1431.2655 323.3562
v 926.8395 -1431.2121 317.4774
f 949 950 951
v 926.8395 -1431.2121 317.4774
v 926.3285 -1430.7808 322.5975
v 926.0721 -1430.5640 322.4866
f 952 953 954
v 926.0721 -1430.5640 322.4866
v 926.0713 -1430.5631 317.4777
v 926.8395 -1431.2121 317.4774
f 955 956 957
v 926.9013 -1431.2655 323.3562
v 926.3285 -1430.7808 322.5975
v 926.8395 -1431.2121 317.4774
f 958 959 960
v 932.0893 -1431.4547 320.0485
v 927.3546 -1427.5289 318.8272
v 927.3552 -1427.5295 322.2431
f 961 962 963
v 928.1816 -1428.2148 317.4779
v 927.3544 -1427.5285 317.4782
v 927.3546 -1427.5289 318.8272
f 964 965 966
v 927.3552 -1427.5295 322.2431
v 928.1824 -1428.2158 322.5978
v 932.0893 -1431.4547 320.0485
f 967 968 969
v 932.0895 -1431.4550 321.3545
v 928.7593 -1428.6934 323.3565
v 932.0898 -1431.4553 322.6594
f 970 971 972
v 928.1824 -1428.2158 322.5978
v 932.0895 -1431.4550 321.3545
v 932.0893 -1431.4547 320.0485
f 973 974 975
v 928.1816 -1428.2148 317.4779
v 927.3546 -1427.5289 318.8272
v 928.7583 -1428.6923 317.4777
f 976 977 978
v 928.7583 -1428.6923 317.4777
v 932.0893 -1431.4547 320.0485
v 932.0889 -1431.4542 317.4766
f 979 980 981
v 927.3546 -1427.5289 318.8272
v 932.0893 -1431.4547 320.0485
v 928.7583 -1428.6923 317.4777
f 982 983 984
v 928.1824 -1428.2158 322.5978
v 928.7593 -1428.6934 323.3565
v 932.0895 -1431.4550 321.3545
f 985 986 987
v 925.8379 -1429.5054 322.2188
v 925.8319 -1429.6034 317.4779
v 925.8326 -1429.6044 322.2368
f 988 989 990
v 925.8326 -1429.6044 322.2368
v 926.4455 -1430.1211 317.4777
v 926.4463 -1430.1221 322.5016
f 991 992 993
v 926.4455 -1430.1211 317.4777
v 925.8326 -1429.6044 322.2368
v 925.8319 -1429.6034 317.4779
f 994 995 996
v 926.0713 -1430.5631 317.4777
v 926.4463 -1430.1221 322.5016
v 926.4455 -1430.1211 317.4777
f 997 998 999
v 927.3544 -1427.5285 317.4782
v 927.2484 -1427.5533 317.4782
v 927.2491 -1427.5542 322.2191
f 1000 1001 1002
v 927.2491 -1427.5542 322.2191
v 927.3552 -1427.5295 322.2431
v 927.3546 -1427.5289 318.8272
f 1003 1004 1005
v 927.3546 -1427.5289 318.8272
v 927.3544 -1427.5285 317.4782
v 927.2491 -1427.5542 322.2191
f 1006 1007 1008
v 925.8372 -1429.5045 317.4779
v 927.2491 -1427.5542 322.2191
v 927.2484 -1427.5533 317.4782
f 1009 1010 1011
v 930.0204 -1433.9017 317.4763
v 932.0893 -1431.4547 320.0485
v 932.0895 -1431.4550 321.3545
f 1012 1013 1014
