# Grid Center: 2617400, 1264000
# Global Anchor: 7.64977475454284, 47.53283995868075, 0.0

g building_ID_70554D0F-E5B8-4BE8-9EEC-F75BC679F8C9
v 1549.9107 -729.2999 282.8405
v 1557.3433 -729.7707 282.4746
v 1551.1534 -726.7613 282.5395
f 1 2 3
v 1560.8308 -730.2972 282.3427
v 1560.5651 -730.1684 282.3408
v 1560.5008 -730.3013 282.3628
f 4 5 6
v 1560.7675 -730.4159 282.3627
v 1560.8308 -730.2972 282.3427
v 1560.5008 -730.3013 282.3628
f 7 8 9
v 1551.1534 -726.7613 282.5395
v 1551.1521 -726.7608 277.3767
v 1549.9107 -729.2999 282.8405
f 10 11 12
v 1559.1757 -733.3847 282.7368
v 1559.1757 -733.3847 282.8488
v 1558.9629 -733.2932 282.7368
f 13 14 15
v 1551.0581 -729.8780 282.8511
v 1558.9629 -733.2932 282.7368
v 1559.1757 -733.3847 282.8488
f 16 17 18
v 1558.9616 -733.2927 277.3740
v 1558.9629 -733.2932 282.7368
v 1551.0581 -729.8780 282.8511
f 19 20 21
v 1558.9616 -733.2927 277.3740
v 1551.0581 -729.8780 282.8511
v 1551.0568 -729.8775 277.3763
f 22 23 24
v 1560.7675 -730.4159 282.3627
v 1560.8296 -730.2967 277.3739
v 1560.8308 -730.2972 282.3427
f 25 26 27
v 1560.7675 -730.4159 282.3627
v 1560.7663 -730.4155 277.3739
v 1560.8296 -730.2967 277.3739
f 28 29 30
v 1559.0666 -733.6170 277.3740
v 1559.0680 -733.6174 282.7368
v 1558.8613 -733.5278 282.7368
f 31 32 33
v 1559.1542 -733.4311 277.3740
v 1559.1556 -733.4317 282.7368
v 1559.0680 -733.6174 282.7368
f 34 35 36
v 1563.5834 -735.5670 277.3725
v 1563.5848 -735.5675 282.7353
v 1559.1556 -733.4317 282.7368
f 37 38 39
v 1564.3525 -735.8991 277.3723
v 1564.3538 -735.8995 282.7351
v 1563.5848 -735.5675 282.7353
f 40 41 42
v 1565.7471 -732.6718 277.3723
v 1565.7485 -732.6723 282.7352
v 1564.3538 -735.8995 282.7351
f 43 44 45
v 1563.6908 -731.6783 277.3730
v 1563.6922 -731.6788 282.7359
v 1565.7485 -732.6723 282.7352
f 46 47 48
v 1549.9107 -729.2999 282.8405
v 1549.9047 -729.3119 282.8425
v 1551.0581 -729.8780 282.8511
f 49 50 51
v 1549.9107 -729.2999 282.8405
v 1551.0581 -729.8780 282.8511
v 1557.3433 -729.7707 282.4746
f 52 53 54
v 1559.1757 -733.3847 282.8488
v 1559.2698 -732.5829 282.7368
v 1551.0581 -729.8780 282.8511
f 55 56 57
v 1559.9389 -731.0337 282.4919
v 1557.3433 -729.7707 282.4746
v 1559.2698 -732.5829 282.7368
f 58 59 60
v 1551.0581 -729.8780 282.8511
v 1559.2698 -732.5829 282.7368
v 1557.3433 -729.7707 282.4746
f 61 62 63
v 1559.5425 -732.7017 282.7368
v 1559.2698 -732.5829 282.7368
v 1559.1757 -733.3847 282.8488
f 64 65 66
v 1559.1757 -733.3847 282.7368
v 1559.5425 -732.7017 282.7368
v 1559.1757 -733.3847 282.8488
f 67 68 69
v 1559.1556 -733.4317 282.7368
v 1558.9629 -733.2932 282.7368
v 1558.8613 -733.5278 282.7368
f 70 71 72
v 1560.1068 -731.1152 282.7368
v 1559.9390 -731.0337 282.7369
v 1559.2698 -732.5829 282.7368
f 73 74 75
v 1560.1068 -731.1152 282.7368
v 1563.6922 -731.6788 282.7359
v 1560.5009 -730.3013 282.7368
f 76 77 78
v 1559.5425 -732.7017 282.7368
v 1560.1068 -731.1152 282.7368
v 1559.2698 -732.5829 282.7368
f 79 80 81
v 1559.1556 -733.4317 282.7368
v 1558.8613 -733.5278 282.7368
v 1559.0680 -733.6174 282.7368
f 82 83 84
v 1563.5848 -735.5675 282.7353
v 1559.1757 -733.3847 282.7368
v 1559.1556 -733.4317 282.7368
f 85 86 87
v 1564.3538 -735.8995 282.7351
v 1565.7485 -732.6723 282.7352
v 1563.5848 -735.5675 282.7353
f 88 89 90
v 1559.5425 -732.7017 282.7368
v 1559.1757 -733.3847 282.7368
v 1563.5848 -735.5675 282.7353
f 91 92 93
v 1563.5848 -735.5675 282.7353
v 1563.6922 -731.6788 282.7359
v 1559.5425 -732.7017 282.7368
f 94 95 96
v 1563.5848 -735.5675 282.7353
v 1565.7485 -732.6723 282.7352
v 1563.6922 -731.6788 282.7359
f 97 98 99
v 1560.1068 -731.1152 282.7368
v 1559.5425 -732.7017 282.7368
v 1563.6922 -731.6788 282.7359
f 100 101 102
v 1558.9629 -733.2932 282.7368
v 1559.1556 -733.4317 282.7368
v 1559.1757 -733.3847 282.7368
f 103 104 105
v 1559.9389 -731.0337 282.4919
v 1559.2698 -732.5829 282.7368
v 1559.9390 -731.0337 282.7369
f 106 107 108
v 1558.8599 -733.5274 277.3740
v 1558.8613 -733.5278 282.7368
v 1558.9629 -733.2932 282.7368
f 109 110 111
v 1560.5008 -730.3013 282.3628
v 1560.5009 -730.3013 282.7368
v 1560.7675 -730.4159 282.3627
f 112 113 114
v 1563.6922 -731.6788 282.7359
v 1560.7675 -730.4159 282.3627
v 1560.5009 -730.3013 282.7368
f 115 116 117
v 1560.7663 -730.4155 277.3739
v 1560.7675 -730.4159 282.3627
v 1563.6908 -731.6783 277.3730
f 118 119 120
v 1563.6922 -731.6788 282.7359
v 1563.6908 -731.6783 277.3730
v 1560.7675 -730.4159 282.3627
f 121 122 123
v 1560.1054 -731.1147 277.3740
v 1564.3525 -735.8991 277.3723
v 1563.5834 -735.5670 277.3725
f 124 125 126
v 1559.1542 -733.4311 277.3740
v 1558.9616 -733.2927 277.3740
v 1563.5834 -735.5670 277.3725
f 127 128 129
v 1559.0666 -733.6170 277.3740
v 1558.8599 -733.5274 277.3740
v 1559.1542 -733.4311 277.3740
f 130 131 132
v 1560.1054 -731.1147 277.3740
v 1563.5834 -735.5670 277.3725
v 1558.9616 -733.2927 277.3740
f 133 134 135
v 1565.7471 -732.6718 277.3723
v 1564.3525 -735.8991 277.3723
v 1560.1054 -731.1147 277.3740
f 136 137 138
v 1560.1054 -731.1147 277.3740
v 1563.6908 -731.6783 277.3730
v 1565.7471 -732.6718 277.3723
f 139 140 141
v 1560.7663 -730.4155 277.3739
v 1563.6908 -731.6783 277.3730
v 1560.1054 -731.1147 277.3740
f 142 143 144
v 1560.7663 -730.4155 277.3739
v 1560.5639 -730.1679 277.3740
v 1560.8296 -730.2967 277.3739
f 145 146 147
v 1560.7663 -730.4155 277.3739
v 1560.1054 -731.1147 277.3740
v 1560.5639 -730.1679 277.3740
f 148 149 150
v 1551.0568 -729.8775 277.3763
v 1551.1521 -726.7608 277.3767
v 1558.9616 -733.2927 277.3740
f 151 152 153
v 1551.0568 -729.8775 277.3763
v 1549.9033 -729.3114 277.3767
v 1551.1521 -726.7608 277.3767
f 154 155 156
v 1558.9616 -733.2927 277.3740
v 1557.3420 -729.7704 277.3748
v 1560.1054 -731.1147 277.3740
f 157 158 159
v 1551.1521 -726.7608 277.3767
v 1557.3420 -729.7704 277.3748
v 1558.9616 -733.2927 277.3740
f 160 161 162
v 1558.8599 -733.5274 277.3740
v 1558.9616 -733.2927 277.3740
v 1559.1542 -733.4311 277.3740
f 163 164 165
v 1560.5009 -730.3013 282.7368
v 1560.5008 -730.3013 282.3628
v 1560.1068 -731.1152 282.7368
f 166 167 168
v 1560.1054 -731.1147 277.3740
v 1560.1068 -731.1152 282.7368
v 1560.5639 -730.1679 277.3740
f 169 170 171
v 1560.1068 -731.1152 282.7368
v 1560.5008 -730.3013 282.3628
v 1560.5639 -730.1679 277.3740
f 172 173 174
v 1560.5651 -730.1684 282.3408
v 1560.5639 -730.1679 277.3740
v 1560.5008 -730.3013 282.3628
f 175 176 177
v 1557.3433 -729.7707 282.4746
v 1557.3420 -729.7704 277.3748
v 1551.1521 -726.7608 277.3767
f 178 179 180
v 1557.3433 -729.7707 282.4746
v 1551.1521 -726.7608 277.3767
v 1551.1534 -726.7613 282.5395
f 181 182 183
v 1559.9389 -731.0337 282.4919
v 1559.9390 -731.0337 282.7369
v 1560.1068 -731.1152 282.7368
f 184 185 186
v 1557.3420 -729.7704 277.3748
v 1557.3433 -729.7707 282.4746
v 1560.1054 -731.1147 277.3740
f 187 188 189
v 1559.9389 -731.0337 282.4919
v 1560.1054 -731.1147 277.3740
v 1557.3433 -729.7707 282.4746
f 190 191 192
v 1560.1068 -731.1152 282.7368
v 1560.1054 -731.1147 277.3740
v 1559.9389 -731.0337 282.4919
f 193 194 195
v 1549.9033 -729.3114 277.3767
v 1549.9107 -729.2999 282.8405
v 1551.1521 -726.7608 277.3767
f 196 197 198
v 1560.5651 -730.1684 282.3408
v 1560.8308 -730.2972 282.3427
v 1560.5639 -730.1679 277.3740
f 199 200 201
v 1560.8296 -730.2967 277.3739
v 1560.5639 -730.1679 277.3740
v 1560.8308 -730.2972 282.3427
f 202 203 204
v 1549.9033 -729.3114 277.3767
v 1549.9047 -729.3119 282.8425
v 1549.9107 -729.2999 282.8405
f 205 206 207
v 1551.0568 -729.8775 277.3763
v 1551.0581 -729.8780 282.8511
v 1549.9033 -729.3114 277.3767
f 208 209 210
v 1551.0581 -729.8780 282.8511
v 1549.9047 -729.3119 282.8425
v 1549.9033 -729.3114 277.3767
f 211 212 213
v 1559.0666 -733.6170 277.3740
v 1558.8613 -733.5278 282.7368
v 1558.8599 -733.5274 277.3740
f 214 215 216
v 1559.1542 -733.4311 277.3740
v 1559.0680 -733.6174 282.7368
v 1559.0666 -733.6170 277.3740
f 217 218 219
v 1563.5834 -735.5670 277.3725
v 1559.1556 -733.4317 282.7368
v 1559.1542 -733.4311 277.3740
f 220 221 222
v 1564.3525 -735.8991 277.3723
v 1563.5848 -735.5675 282.7353
v 1563.5834 -735.5670 277.3725
f 223 224 225
v 1565.7471 -732.6718 277.3723
v 1564.3538 -735.8995 282.7351
v 1564.3525 -735.8991 277.3723
f 226 227 228
v 1563.6908 -731.6783 277.3730
v 1565.7485 -732.6723 282.7352
v 1565.7471 -732.6718 277.3723
f 229 230 231
v 1558.8599 -733.5274 277.3740
v 1558.9629 -733.2932 282.7368
v 1558.9616 -733.2927 277.3740
f 232 233 234

g building_ID_AC4AE057-B732-4652-91E5-8B42D3A2A328
v 1617.1215 -703.1657 276.8719
v 1580.1182 -676.5328 276.8841
v 1583.3592 -672.0316 276.8838
f 235 236 237
v 1583.3592 -672.0316 276.8838
v 1620.3283 -698.7233 276.8715
v 1617.1215 -703.1657 276.8719
f 238 239 240
v 1617.1233 -703.1663 283.7637
v 1583.3610 -672.0321 283.7756
v 1580.1200 -676.5335 283.7759
f 241 242 243
v 1583.3610 -672.0321 283.7756
v 1617.1233 -703.1663 283.7637
v 1620.3302 -698.7239 283.7633
f 244 245 246
v 1580.1182 -676.5328 276.8841
v 1580.1200 -676.5335 283.7759
v 1583.3610 -672.0321 283.7756
f 247 248 249
v 1617.1215 -703.1657 276.8719
v 1617.1233 -703.1663 283.7637
v 1580.1200 -676.5335 283.7759
f 250 251 252
v 1620.3283 -698.7233 276.8715
v 1620.3302 -698.7239 283.7633
v 1617.1233 -703.1663 283.7637
f 253 254 255
v 1583.3592 -672.0316 276.8838
v 1583.3610 -672.0321 283.7756
v 1620.3302 -698.7239 283.7633
f 256 257 258
v 1580.1182 -676.5328 276.8841
v 1583.3610 -672.0321 283.7756
v 1583.3592 -672.0316 276.8838
f 259 260 261
v 1617.1215 -703.1657 276.8719
v 1580.1200 -676.5335 283.7759
v 1580.1182 -676.5328 276.8841
f 262 263 264
v 1620.3283 -698.7233 276.8715
v 1617.1233 -703.1663 283.7637
v 1617.1215 -703.1657 276.8719
f 265 266 267
v 1583.3592 -672.0316 276.8838
v 1620.3302 -698.7239 283.7633
v 1620.3283 -698.7233 276.8715
f 268 269 270

g building_ID_520FA2F3-BA2D-44A1-B844-1F56A7B4A869
v 1381.0471 -529.4865 280.1516
v 1379.1050 -533.5981 280.1516
v 1376.0390 -532.1500 280.1524
f 271 272 273
v 1376.0390 -532.1500 280.1524
v 1377.9809 -528.0382 280.1523
v 1381.0471 -529.4865 280.1516
f 274 275 276
v 1381.0489 -529.4869 288.1123
v 1376.0408 -532.1504 288.1131
v 1379.1068 -533.5987 288.1123
f 277 278 279
v 1376.0408 -532.1504 288.1131
v 1381.0489 -529.4869 288.1123
v 1377.9828 -528.0387 288.1130
f 280 281 282
v 1377.9809 -528.0382 280.1523
v 1377.9828 -528.0387 288.1130
v 1381.0489 -529.4869 288.1123
f 283 284 285
v 1376.0390 -532.1500 280.1524
v 1376.0408 -532.1504 288.1131
v 1377.9828 -528.0387 288.1130
f 286 287 288
v 1379.1050 -533.5981 280.1516
v 1379.1068 -533.5987 288.1123
v 1376.0408 -532.1504 288.1131
f 289 290 291
v 1381.0471 -529.4865 280.1516
v 1381.0489 -529.4869 288.1123
v 1379.1068 -533.5987 288.1123
f 292 293 294
v 1377.9809 -528.0382 280.1523
v 1381.0489 -529.4869 288.1123
v 1381.0471 -529.4865 280.1516
f 295 296 297
v 1376.0390 -532.1500 280.1524
v 1377.9828 -528.0387 288.1130
v 1377.9809 -528.0382 280.1523
f 298 299 300
v 1379.1050 -533.5981 280.1516
v 1376.0408 -532.1504 288.1131
v 1376.0390 -532.1500 280.1524
f 301 302 303
v 1381.0471 -529.4865 280.1516
v 1379.1068 -533.5987 288.1123
v 1379.1050 -533.5981 280.1516
f 304 305 306

g building_ID_B144DF52-988D-4744-AA2C-047C1AADA001
v 1536.1536 -521.5308 275.8417
v 1522.5637 -519.6874 275.8452
v 1523.9879 -516.2452 275.8452
f 307 308 309
v 1522.5637 -519.6874 275.8452
v 1536.1536 -521.5308 275.8417
v 1534.6694 -524.9467 275.8418
f 310 311 312
v 1522.5659 -519.6879 284.3859
v 1534.6717 -524.9473 284.3825
v 1536.1558 -521.5312 284.3824
f 313 314 315
v 1536.1558 -521.5312 284.3824
v 1523.9901 -516.2458 284.3859
v 1522.5659 -519.6879 284.3859
f 316 317 318
v 1522.5637 -519.6874 275.8452
v 1522.5659 -519.6879 284.3859
v 1523.9901 -516.2458 284.3859
f 319 320 321
v 1534.6694 -524.9467 275.8418
v 1534.6717 -524.9473 284.3825
v 1522.5659 -519.6879 284.3859
f 322 323 324
v 1536.1536 -521.5308 275.8417
v 1536.1558 -521.5312 284.3824
v 1534.6717 -524.9473 284.3825
f 325 326 327
v 1523.9879 -516.2452 275.8452
v 1523.9901 -516.2458 284.3859
v 1536.1558 -521.5312 284.3824
f 328 329 330
v 1522.5637 -519.6874 275.8452
v 1523.9901 -516.2458 284.3859
v 1523.9879 -516.2452 275.8452
f 331 332 333
v 1534.6694 -524.9467 275.8418
v 1522.5659 -519.6879 284.3859
v 1522.5637 -519.6874 275.8452
f 334 335 336
v 1536.1536 -521.5308 275.8417
v 1534.6717 -524.9473 284.3825
v 1534.6694 -524.9467 275.8418
f 337 338 339
v 1523.9879 -516.2452 275.8452
v 1536.1558 -521.5312 284.3824
v 1536.1536 -521.5308 275.8417
f 340 341 342

g building_ID_859D4DD5-E5B7-4728-8D05-6AA13EE1FBEA
v 1597.4964 -503.7326 282.7088
v 1598.3526 -505.1399 282.7085
v 1600.7780 -506.0884 282.7078
f 343 344 345
v 1596.5227 -506.2210 282.7088
v 1596.4943 -506.7799 282.7088
v 1597.5884 -507.0938 282.7085
f 346 347 348
v 1597.4964 -503.7326 282.7088
v 1600.7780 -506.0884 282.7078
v 1602.0084 -502.9427 282.7077
f 349 350 351
v 1599.9605 -508.1781 282.7078
v 1600.0138 -508.0434 282.7078
v 1597.5884 -507.0938 282.7085
f 352 353 354
v 1596.4943 -506.7799 282.7088
v 1599.9605 -508.1781 282.7078
v 1597.5884 -507.0938 282.7085
f 355 356 357
v 1596.2539 -506.9073 282.7089
v 1596.4168 -506.9707 282.7088
v 1596.4943 -506.7799 282.7088
f 358 359 360
v 1598.3526 -505.1399 282.7085
v 1597.0614 -504.8444 282.7088
v 1597.5884 -507.0938 282.7085
f 361 362 363
v 1598.3526 -505.1399 282.7085
v 1597.4964 -503.7326 282.7088
v 1597.0614 -504.8444 282.7088
f 364 365 366
v 1576.5631 -496.8266 282.7146
v 1597.0614 -504.8444 282.7088
v 1577.0071 -495.7168 282.7146
f 367 368 369
v 1597.4964 -503.7326 282.7088
v 1577.0071 -495.7168 282.7146
v 1597.0614 -504.8444 282.7088
f 370 371 372
v 1598.3633 -501.5170 282.7088
v 1597.4964 -503.7326 282.7088
v 1602.0084 -502.9427 282.7077
f 373 374 375
v 1596.4943 -506.7799 282.7088
v 1596.5227 -506.2210 282.7088
v 1596.2539 -506.9073 282.7089
f 376 377 378
v 1596.5227 -506.2210 282.7088
v 1597.5884 -507.0938 282.7085
v 1597.0614 -504.8444 282.7088
f 379 380 381
v 1596.4909 -506.7792 269.9213
v 1596.4943 -506.7799 282.7088
v 1596.4168 -506.9707 282.7088
f 382 383 384
v 1599.9571 -508.1774 269.9203
v 1599.9605 -508.1781 282.7078
v 1596.4943 -506.7799 282.7088
f 385 386 387
v 1600.0105 -508.0426 269.9203
v 1600.0138 -508.0434 282.7078
v 1599.9605 -508.1781 282.7078
f 388 389 390
v 1598.3533 -505.1401 285.3634
v 1601.7546 -508.7241 285.3622
v 1602.5199 -506.7691 285.3622
f 391 392 393
v 1601.7546 -508.7241 285.3622
v 1598.3533 -505.1401 285.3634
v 1597.5891 -507.0940 285.3634
f 394 395 396
v 1602.5159 -506.7683 269.9198
v 1602.5199 -506.7691 285.3622
v 1601.7546 -508.7241 285.3622
f 397 398 399
v 1602.0051 -502.9420 269.9202
v 1602.0084 -502.9427 282.7077
v 1600.7780 -506.0884 282.7078
f 400 401 402
v 1597.5884 -507.0938 282.7085
v 1597.5891 -507.0940 285.3634
v 1598.3533 -505.1401 285.3634
f 403 404 405
v 1601.7506 -508.7232 269.9198
v 1601.7546 -508.7241 285.3622
v 1600.0138 -508.0434 282.7078
f 406 407 408
v 1601.7546 -508.7241 285.3622
v 1597.5891 -507.0940 285.3634
v 1600.0138 -508.0434 282.7078
f 409 410 411
v 1600.0105 -508.0426 269.9203
v 1601.7506 -508.7232 269.9198
v 1600.0138 -508.0434 282.7078
f 412 413 414
v 1598.3526 -505.1399 282.7085
v 1598.3533 -505.1401 285.3634
v 1600.7780 -506.0884 282.7078
f 415 416 417
v 1602.5199 -506.7691 285.3622
v 1600.7780 -506.0884 282.7078
v 1598.3533 -505.1401 285.3634
f 418 419 420
v 1600.7747 -506.0877 269.9203
v 1600.7780 -506.0884 282.7078
v 1602.5159 -506.7683 269.9198
f 421 422 423
v 1602.5199 -506.7691 285.3622
v 1602.5159 -506.7683 269.9198
v 1600.7780 -506.0884 282.7078
f 424 425 426
v 1597.4965 -503.7326 283.0418
v 1577.8896 -493.5073 285.2035
v 1577.0061 -495.7169 283.0476
f 427 428 429
v 1577.8896 -493.5073 285.2035
v 1597.4965 -503.7326 283.0418
v 1598.3640 -501.5170 285.1978
f 430 431 432
v 1597.4964 -503.7326 282.7088
v 1597.4965 -503.7326 283.0418
v 1577.0071 -495.7168 282.7146
f 433 434 435
v 1597.4964 -503.7326 282.7088
v 1598.3633 -501.5170 282.7088
v 1598.3640 -501.5170 285.1978
f 436 437 438
v 1598.3640 -501.5170 285.1978
v 1597.4965 -503.7326 283.0418
v 1597.4964 -503.7326 282.7088
f 439 440 441
v 1589.6667 -504.3326 282.0468
v 1575.8049 -498.7255 282.2047
v 1575.8041 -498.7254 279.1348
f 442 443 444
v 1589.6635 -504.3320 269.9232
v 1589.6667 -504.3326 282.0468
v 1575.8025 -498.7250 272.9960
f 445 446 447
v 1575.8025 -498.7250 272.9960
v 1575.8017 -498.7249 269.9271
v 1589.6635 -504.3320 269.9232
f 448 449 450
v 1596.2547 -506.9072 282.0470
v 1596.2539 -506.9073 282.7089
v 1596.5227 -506.2210 282.7088
f 451 452 453
v 1576.5631 -496.8266 282.7146
v 1576.5634 -496.8267 284.0425
v 1597.0617 -504.8446 284.0368
f 454 455 456
v 1597.0617 -504.8446 284.0368
v 1596.5227 -506.2210 282.7088
v 1597.0614 -504.8444 282.7088
f 457 458 459
v 1596.2547 -506.9072 282.0470
v 1596.4168 -506.9707 282.7088
v 1596.2539 -506.9073 282.7089
f 460 461 462
v 1596.2506 -506.9066 269.9214
v 1596.4134 -506.9700 269.9213
v 1596.2547 -506.9072 282.0470
f 463 464 465
v 1596.4168 -506.9707 282.7088
v 1596.2547 -506.9072 282.0470
v 1596.4134 -506.9700 269.9213
f 466 467 468
v 1589.6635 -504.3320 269.9232
v 1596.2506 -506.9066 269.9214
v 1596.2547 -506.9072 282.0470
f 469 470 471
v 1589.6667 -504.3326 282.0468
v 1589.6635 -504.3320 269.9232
v 1596.2547 -506.9072 282.0470
f 472 473 474
v 1589.6635 -504.3320 269.9232
v 1575.8017 -498.7249 269.9271
v 1576.2900 -497.5032 269.9271
f 475 476 477
v 1577.8856 -493.5066 269.9270
v 1589.6635 -504.3320 269.9232
v 1576.2900 -497.5032 269.9271
f 478 479 480
v 1589.6635 -504.3320 269.9232
v 1577.8856 -493.5066 269.9270
v 1602.0051 -502.9420 269.9202
f 481 482 483
v 1600.7747 -506.0877 269.9203
v 1596.4909 -506.7792 269.9213
v 1602.0051 -502.9420 269.9202
f 484 485 486
v 1602.5159 -506.7683 269.9198
v 1600.0105 -508.0426 269.9203
v 1600.7747 -506.0877 269.9203
f 487 488 489
v 1600.0105 -508.0426 269.9203
v 1596.4909 -506.7792 269.9213
v 1600.7747 -506.0877 269.9203
f 490 491 492
v 1600.0105 -508.0426 269.9203
v 1602.5159 -506.7683 269.9198
v 1601.7506 -508.7232 269.9198
f 493 494 495
v 1596.2506 -506.9066 269.9214
v 1589.6635 -504.3320 269.9232
v 1596.4909 -506.7792 269.9213
f 496 497 498
v 1596.2506 -506.9066 269.9214
v 1596.4909 -506.7792 269.9213
v 1596.4134 -506.9700 269.9213
f 499 500 501
v 1600.0105 -508.0426 269.9203
v 1599.9571 -508.1774 269.9203
v 1596.4909 -506.7792 269.9213
f 502 503 504
v 1589.6635 -504.3320 269.9232
v 1602.0051 -502.9420 269.9202
v 1596.4909 -506.7792 269.9213
f 505 506 507
v 1598.3633 -501.5170 282.7088
v 1602.0051 -502.9420 269.9202
v 1577.8889 -493.5072 282.7146
f 508 509 510
v 1577.8889 -493.5072 282.7146
v 1602.0051 -502.9420 269.9202
v 1577.8856 -493.5066 269.9270
f 511 512 513
v 1598.3633 -501.5170 282.7088
v 1577.8889 -493.5072 282.7146
v 1577.8896 -493.5073 285.2035
f 514 515 516
v 1577.8896 -493.5073 285.2035
v 1598.3640 -501.5170 285.1978
v 1598.3633 -501.5170 282.7088
f 517 518 519
v 1598.3633 -501.5170 282.7088
v 1602.0084 -502.9427 282.7077
v 1602.0051 -502.9420 269.9202
f 520 521 522
v 1575.8049 -498.7255 282.2047
v 1596.5227 -506.2210 282.7088
v 1576.5634 -496.8267 284.0425
f 523 524 525
v 1596.5227 -506.2210 282.7088
v 1589.6667 -504.3326 282.0468
v 1596.2547 -506.9072 282.0470
f 526 527 528
v 1576.5634 -496.8267 284.0425
v 1596.5227 -506.2210 282.7088
v 1597.0617 -504.8446 284.0368
f 529 530 531
v 1589.6667 -504.3326 282.0468
v 1596.5227 -506.2210 282.7088
v 1575.8049 -498.7255 282.2047
f 532 533 534
v 1575.8025 -498.7250 272.9960
v 1576.2900 -497.5032 269.9271
v 1575.8017 -498.7249 269.9271
f 535 536 537
v 1577.8856 -493.5066 269.9270
v 1576.2900 -497.5032 269.9271
v 1575.8025 -498.7250 272.9960
f 538 539 540
v 1577.8856 -493.5066 269.9270
v 1575.8025 -498.7250 272.9960
v 1577.8889 -493.5072 282.7146
f 541 542 543
v 1575.8041 -498.7254 279.1348
v 1575.8049 -498.7255 282.2047
v 1576.5631 -496.8266 282.7146
f 544 545 546
v 1576.5634 -496.8267 284.0425
v 1576.5631 -496.8266 282.7146
v 1575.8049 -498.7255 282.2047
f 547 548 549
v 1577.8889 -493.5072 282.7146
v 1575.8041 -498.7254 279.1348
v 1577.0071 -495.7168 282.7146
f 550 551 552
v 1577.0071 -495.7168 282.7146
v 1575.8041 -498.7254 279.1348
v 1576.5631 -496.8266 282.7146
f 553 554 555
v 1577.0071 -495.7168 282.7146
v 1577.0061 -495.7169 283.0476
v 1577.8889 -493.5072 282.7146
f 556 557 558
v 1577.8896 -493.5073 285.2035
v 1577.8889 -493.5072 282.7146
v 1577.0061 -495.7169 283.0476
f 559 560 561
v 1575.8025 -498.7250 272.9960
v 1575.8041 -498.7254 279.1348
v 1577.8889 -493.5072 282.7146
f 562 563 564
v 1596.4909 -506.7792 269.9213
v 1596.4168 -506.9707 282.7088
v 1596.4134 -506.9700 269.9213
f 565 566 567
v 1599.9571 -508.1774 269.9203
v 1596.4943 -506.7799 282.7088
v 1596.4909 -506.7792 269.9213
f 568 569 570
v 1600.0105 -508.0426 269.9203
v 1599.9605 -508.1781 282.7078
v 1599.9571 -508.1774 269.9203
f 571 572 573
v 1602.5159 -506.7683 269.9198
v 1601.7546 -508.7241 285.3622
v 1601.7506 -508.7232 269.9198
f 574 575 576
v 1602.0051 -502.9420 269.9202
v 1600.7780 -506.0884 282.7078
v 1600.7747 -506.0877 269.9203
f 577 578 579
v 1597.5884 -507.0938 282.7085
v 1598.3533 -505.1401 285.3634
v 1598.3526 -505.1399 282.7085
f 580 581 582
v 1597.5891 -507.0940 285.3634
v 1597.5884 -507.0938 282.7085
v 1600.0138 -508.0434 282.7078
f 583 584 585
v 1597.4965 -503.7326 283.0418
v 1577.0061 -495.7169 283.0476
v 1577.0071 -495.7168 282.7146
f 586 587 588
v 1589.6667 -504.3326 282.0468
v 1575.8041 -498.7254 279.1348
v 1575.8025 -498.7250 272.9960
f 589 590 591
v 1576.5631 -496.8266 282.7146
v 1597.0617 -504.8446 284.0368
v 1597.0614 -504.8444 282.7088
f 592 593 594
