# Grid Center: 2617200, 1265200
# Global Anchor: 7.64977475454284, 47.53283995868075, 0.0

g building_ID_6551627C-47EC-4E69-B217-24E27690775B
v 1179.5582 283.9059 289.8446
v 1179.2638 287.1177 289.8445
v 1179.0712 283.8843 289.8447
f 1 2 3
v 1178.6028 283.7415 289.8448
v 1179.0712 283.8843 289.8447
v 1179.2638 287.1177 289.8445
f 4 5 6
v 1179.2638 287.1177 289.8445
v 1179.5582 283.9059 289.8446
v 1180.0370 283.8046 289.8445
f 7 8 9
v 1180.4754 283.5885 289.8444
v 1179.2638 287.1177 289.8445
v 1180.0370 283.8046 289.8445
f 10 11 12
v 1179.2638 287.1177 289.8445
v 1177.8442 283.1385 289.8450
v 1178.1851 283.4896 289.8449
f 13 14 15
v 1177.6001 282.7162 289.8450
v 1177.8442 283.1385 289.8450
v 1179.2638 287.1177 289.8445
f 16 17 18
v 1179.2638 287.1177 289.8445
v 1178.1851 283.4896 289.8449
v 1178.6028 283.7415 289.8448
f 19 20 21
v 1177.6001 282.7162 289.8450
v 1179.2638 287.1177 289.8445
v 1161.3892 264.0459 289.8488
f 22 23 24
v 1184.4779 283.0788 289.8437
v 1180.4754 283.5885 289.8444
v 1180.8455 283.2685 289.8444
f 25 26 27
v 1181.2962 282.4093 289.8444
v 1184.4779 283.0788 289.8437
v 1181.1254 282.8678 289.8444
f 28 29 30
v 1180.8455 283.2685 289.8444
v 1181.1254 282.8678 289.8444
v 1184.4779 283.0788 289.8437
f 31 32 33
v 1179.2638 287.1177 289.8445
v 1180.4754 283.5885 289.8444
v 1184.4779 283.0788 289.8437
f 34 35 36
v 1184.4779 283.0788 289.8437
v 1181.2962 282.4093 289.8444
v 1181.3479 281.9232 289.8444
f 37 38 39
v 1184.4779 283.0788 289.8437
v 1181.0884 280.9888 289.8445
v 1180.7934 280.5996 289.8445
f 40 41 42
v 1184.4779 283.0788 289.8437
v 1181.2766 281.4394 289.8444
v 1181.0884 280.9888 289.8445
f 43 44 45
v 1184.4779 283.0788 289.8437
v 1181.3479 281.9232 289.8444
v 1181.2766 281.4394 289.8444
f 46 47 48
v 1170.8942 265.5473 289.8470
v 1184.4779 283.0788 289.8437
v 1180.7934 280.5996 289.8445
f 49 50 51
v 1161.3892 264.0459 289.8488
v 1177.4595 281.7566 289.8451
v 1177.4688 282.2445 289.8451
f 52 53 54
v 1177.5712 281.2793 289.8451
v 1177.4595 281.7566 289.8451
v 1161.3892 264.0459 289.8488
f 55 56 57
v 1170.8942 265.5473 289.8470
v 1178.1261 280.4848 289.8450
v 1177.7991 280.8477 289.8451
f 58 59 60
v 1177.5712 281.2793 289.8451
v 1161.3892 264.0459 289.8488
v 1177.7991 280.8477 289.8451
f 61 62 63
v 1178.1261 280.4848 289.8450
v 1170.8942 265.5473 289.8470
v 1178.5334 280.2147 289.8450
f 64 65 66
v 1178.5334 280.2147 289.8450
v 1170.8942 265.5473 289.8470
v 1178.9959 280.0544 289.8449
f 67 68 69
v 1179.4818 280.0142 289.8448
v 1178.9959 280.0544 289.8449
v 1170.8942 265.5473 289.8470
f 70 71 72
v 1161.3892 264.0459 289.8488
v 1177.4688 282.2445 289.8451
v 1177.6001 282.7162 289.8450
f 73 74 75
v 1161.3892 264.0459 289.8488
v 1170.8942 265.5473 289.8470
v 1177.7991 280.8477 289.8451
f 76 77 78
v 1170.8942 265.5473 289.8470
v 1180.4106 280.2957 289.8446
v 1179.9650 280.0959 289.8447
f 79 80 81
v 1165.3889 258.3561 289.8483
v 1189.7169 250.9650 289.8440
v 1170.8942 265.5473 289.8470
f 82 83 84
v 1179.9650 280.0959 289.8447
v 1179.4818 280.0142 289.8448
v 1170.8942 265.5473 289.8470
f 85 86 87
v 1180.4106 280.2957 289.8446
v 1170.8942 265.5473 289.8470
v 1180.7934 280.5996 289.8445
f 88 89 90
v 1165.3889 258.3561 289.8483
v 1165.9906 260.4795 289.8481
v 1164.2225 258.1952 289.8485
f 91 92 93
v 1165.9906 260.4795 289.8481
v 1170.8942 265.5473 289.8470
v 1161.3892 264.0459 289.8488
f 94 95 96
v 1165.3889 258.3561 289.8483
v 1184.2089 243.8549 289.8453
v 1189.7169 250.9650 289.8440
f 97 98 99
v 1164.2225 258.1952 289.8485
v 1164.8752 257.6896 289.8484
v 1165.3889 258.3561 289.8483
f 100 101 102
v 1165.9906 260.4795 289.8481
v 1165.3889 258.3561 289.8483
v 1170.8942 265.5473 289.8470
f 103 104 105
v 1164.8684 257.6873 255.2696
v 1165.3822 258.3540 255.2695
v 1164.8752 257.6896 289.8484
f 106 107 108
v 1165.3889 258.3561 289.8483
v 1164.8752 257.6896 289.8484
v 1165.3822 258.3540 255.2695
f 109 110 111
v 1184.2021 243.8527 255.2665
v 1184.2089 243.8549 289.8453
v 1165.3822 258.3540 255.2695
f 112 113 114
v 1165.3889 258.3561 289.8483
v 1165.3822 258.3540 255.2695
v 1184.2089 243.8549 289.8453
f 115 116 117
v 1189.7100 250.9629 255.2652
v 1189.7169 250.9650 289.8440
v 1184.2089 243.8549 289.8453
f 118 119 120
v 1170.8935 265.5471 286.8601
v 1170.8942 265.5473 289.8470
v 1189.4967 251.1354 286.8571
f 121 122 123
v 1189.7169 250.9650 289.8440
v 1189.4967 251.1354 286.8571
v 1170.8942 265.5473 289.8470
f 124 125 126
v 1189.4905 251.1334 255.2652
v 1189.4967 251.1354 286.8571
v 1189.7100 250.9629 255.2652
f 127 128 129
v 1189.7169 250.9650 289.8440
v 1189.7100 250.9629 255.2652
v 1189.4967 251.1354 286.8571
f 130 131 132
v 1184.4774 283.0786 286.8568
v 1184.4779 283.0788 289.8437
v 1170.8942 265.5473 289.8470
f 133 134 135
v 1183.6900 283.6877 286.8570
v 1179.2633 287.1175 286.8576
v 1179.2638 287.1177 289.8445
f 136 137 138
v 1183.6900 283.6877 286.8570
v 1179.2586 287.1158 263.2144
v 1179.2633 287.1175 286.8576
f 139 140 141
v 1184.4774 283.0786 286.8568
v 1183.6900 283.6877 286.8570
v 1184.4779 283.0788 289.8437
f 142 143 144
v 1179.2638 287.1177 289.8445
v 1184.4779 283.0788 289.8437
v 1183.6900 283.6877 286.8570
f 145 146 147
v 1179.2586 287.1158 263.2144
v 1183.6900 283.6877 286.8570
v 1183.6854 283.6860 263.2138
f 148 149 150
v 1161.3886 264.0456 286.8619
v 1161.3892 264.0459 289.8488
v 1179.2638 287.1177 289.8445
f 151 152 153
v 1165.9900 260.4794 286.8612
v 1165.9906 260.4795 289.8481
v 1161.3892 264.0459 289.8488
f 154 155 156
v 1164.5539 258.6291 255.2696
v 1164.2158 258.1931 255.2697
v 1164.5601 258.6312 286.8615
f 157 158 159
v 1164.2225 258.1952 289.8485
v 1164.5601 258.6312 286.8615
v 1164.2158 258.1931 255.2697
f 160 161 162
v 1165.9900 260.4794 286.8612
v 1164.5601 258.6312 286.8615
v 1165.9906 260.4795 289.8481
f 163 164 165
v 1164.2225 258.1952 289.8485
v 1165.9906 260.4795 289.8481
v 1164.5601 258.6312 286.8615
f 166 167 168
v 1164.8684 257.6873 255.2696
v 1164.8752 257.6896 289.8484
v 1164.2225 258.1952 289.8485
f 169 170 171
v 1155.0930 313.4486 255.2690
v 1155.0945 313.4492 263.2177
v 1155.4398 313.1833 263.2176
f 172 173 174
v 1151.7665 309.1546 255.2697
v 1151.7681 309.1552 263.2185
v 1155.0945 313.4492 263.2177
f 175 176 177
v 1179.7316 294.4229 255.2653
v 1179.7332 294.4235 263.2140
v 1187.4012 288.4830 263.2128
f 178 179 180
v 1151.7681 309.1552 263.2185
v 1155.4398 313.1833 263.2176
v 1155.0945 313.4492 263.2177
f 181 182 183
v 1151.7681 309.1552 263.2185
v 1167.2018 297.1980 263.2162
v 1167.4797 297.5563 263.2161
f 184 185 186
v 1167.4797 297.5563 263.2161
v 1173.3253 297.0536 263.2151
v 1151.7681 309.1552 263.2185
f 187 188 189
v 1151.7681 309.1552 263.2185
v 1173.3253 297.0536 263.2151
v 1155.4398 313.1833 263.2176
f 190 191 192
v 1165.4191 305.5117 263.2162
v 1155.4689 313.2212 263.2176
v 1155.4398 313.1833 263.2176
f 193 194 195
v 1165.4191 305.5117 263.2162
v 1155.4398 313.1833 263.2176
v 1173.3253 297.0536 263.2151
f 196 197 198
v 1170.2629 301.7588 263.2154
v 1165.4191 305.5117 263.2162
v 1173.3253 297.0536 263.2151
f 199 200 201
v 1174.4552 298.5105 263.2148
v 1170.2629 301.7588 263.2154
v 1173.3253 297.0536 263.2151
f 202 203 204
v 1175.2932 295.5284 263.2148
v 1167.4797 297.5563 263.2161
v 1179.8958 287.9381 263.2143
f 205 206 207
v 1173.3253 297.0536 263.2151
v 1167.4797 297.5563 263.2161
v 1175.2932 295.5284 263.2148
f 208 209 210
v 1187.4012 288.4830 263.2128
v 1175.2932 295.5284 263.2148
v 1179.8958 287.9381 263.2143
f 211 212 213
v 1179.2586 287.1158 263.2144
v 1183.6854 283.6860 263.2138
v 1179.8958 287.9381 263.2143
f 214 215 216
v 1183.6854 283.6860 263.2138
v 1187.4012 288.4830 263.2128
v 1179.8958 287.9381 263.2143
f 217 218 219
v 1176.4221 296.9872 263.2145
v 1175.2932 295.5284 263.2148
v 1179.7332 294.4235 263.2140
f 220 221 222
v 1179.7332 294.4235 263.2140
v 1175.2932 295.5284 263.2148
v 1187.4012 288.4830 263.2128
f 223 224 225
v 1176.4250 296.9884 277.8980
v 1179.7360 294.4245 277.8975
v 1184.0038 299.9330 277.8964
f 226 227 228
v 1173.3282 297.0547 277.8986
v 1175.2961 295.5294 277.8983
v 1176.4250 296.9884 277.8980
f 229 230 231
v 1176.4250 296.9884 277.8980
v 1184.0038 299.9330 277.8964
v 1174.4581 298.5116 277.8983
f 232 233 234
v 1174.4581 298.5116 277.8983
v 1174.5335 307.2693 277.8978
v 1170.2659 301.7598 277.8989
f 235 236 237
v 1176.4250 296.9884 277.8980
v 1174.4581 298.5116 277.8983
v 1173.3282 297.0547 277.8986
f 238 239 240
v 1184.0038 299.9330 277.8964
v 1174.5335 307.2693 277.8978
v 1174.4581 298.5116 277.8983
f 241 242 243
v 1179.7332 294.4235 263.2140
v 1183.9993 299.9314 255.2642
v 1184.0038 299.9330 277.8964
f 244 245 246
v 1184.0038 299.9330 277.8964
v 1179.7360 294.4245 277.8975
v 1179.7332 294.4235 263.2140
f 247 248 249
v 1183.9993 299.9314 255.2642
v 1179.7332 294.4235 263.2140
v 1179.7316 294.4229 255.2653
f 250 251 252
v 1170.2647 301.7594 271.9261
v 1170.2659 301.7598 277.8989
v 1174.5324 307.2689 271.9251
f 253 254 255
v 1173.3253 297.0536 263.2151
v 1173.3282 297.0547 277.8986
v 1174.4581 298.5116 277.8983
f 256 257 258
v 1175.2932 295.5284 263.2148
v 1175.2961 295.5294 277.8983
v 1173.3282 297.0547 277.8986
f 259 260 261
v 1176.4221 296.9872 263.2145
v 1176.4250 296.9884 277.8980
v 1175.2961 295.5294 277.8983
f 262 263 264
v 1179.7332 294.4235 263.2140
v 1179.7360 294.4245 277.8975
v 1176.4250 296.9884 277.8980
f 265 266 267
v 1165.4199 305.5120 267.1980
v 1165.4208 305.5123 271.9269
v 1169.6875 311.0218 271.9259
f 268 269 270
v 1155.4697 313.2215 267.1994
v 1165.4199 305.5120 267.1980
v 1169.6866 311.0214 267.1970
f 271 272 273
v 1169.6866 311.0214 267.1970
v 1159.7174 318.7461 267.1984
v 1155.4697 313.2215 267.1994
f 274 275 276
v 1165.4208 305.5123 271.9269
v 1170.2647 301.7594 271.9261
v 1174.5324 307.2689 271.9251
f 277 278 279
v 1174.5324 307.2689 271.9251
v 1169.6875 311.0218 271.9259
v 1165.4208 305.5123 271.9269
f 280 281 282
v 1133.3000 294.2325 271.6842
v 1153.0507 278.9307 271.6813
v 1167.2034 297.1986 271.6780
f 283 284 285
v 1167.2034 297.1986 271.6780
v 1147.3879 312.5505 271.6808
v 1133.3000 294.2325 271.6842
f 286 287 288
v 1147.7447 271.8580 255.2721
v 1147.7507 271.8601 286.8640
v 1127.8700 287.1691 286.8670
f 289 290 291
v 1147.6453 271.7282 255.2721
v 1147.6514 271.7303 286.8640
v 1147.7507 271.8601 286.8640
f 292 293 294
v 1194.4605 296.7620 264.4552
v 1194.4649 296.7636 286.8544
v 1213.4503 282.0559 286.8514
f 295 296 297
v 1187.4558 288.5553 255.2641
v 1187.4620 288.5575 286.8560
v 1187.8981 288.2223 286.8560
f 298 299 300
v 1133.3000 294.2325 271.6842
v 1133.3028 294.2335 286.8657
v 1153.0507 278.9307 271.6813
f 301 302 303
v 1152.5514 252.7324 255.2720
v 1152.5560 252.7339 279.1492
v 1146.3179 257.5366 279.1502
f 304 305 306
v 1157.9499 259.6998 255.2708
v 1157.9546 259.7014 279.1480
v 1152.5560 252.7339 279.1492
f 307 308 309
v 1159.6374 258.3943 255.2705
v 1159.6420 258.3958 279.1477
v 1157.9546 259.7014 279.1480
f 310 311 312
v 1146.3133 257.5350 255.2730
v 1146.3179 257.5366 279.1502
v 1140.5250 262.0251 279.1510
f 313 314 315
v 1157.9546 259.7014 279.1480
v 1159.6420 258.3958 279.1477
v 1161.5998 260.9226 279.1473
f 316 317 318
v 1147.8954 271.5391 279.1493
v 1157.9546 259.7014 279.1480
v 1161.5998 260.9226 279.1473
f 319 320 321
v 1147.8954 271.5391 279.1493
v 1146.3179 257.5366 279.1502
v 1157.9546 259.7014 279.1480
f 322 323 324
v 1146.3179 257.5366 279.1502
v 1152.5560 252.7339 279.1492
v 1157.9546 259.7014 279.1480
f 325 326 327
v 1140.5250 262.0251 279.1510
v 1146.3179 257.5366 279.1502
v 1147.8954 271.5391 279.1493
f 328 329 330
v 1161.5952 260.9210 255.2701
v 1161.5998 260.9226 279.1473
v 1159.6420 258.3958 279.1477
f 331 332 333
v 1140.5204 262.0234 255.2738
v 1140.5250 262.0251 279.1510
v 1147.8954 271.5391 279.1493
f 334 335 336
v 1216.6050 282.4744 255.2588
v 1216.6069 282.4750 264.4515
v 1211.7040 276.1451 264.4527
f 337 338 339
v 1195.8414 298.5596 255.2621
v 1195.8432 298.5603 264.4548
v 1216.6069 282.4750 264.4515
f 340 341 342
v 1213.4458 282.0544 264.4521
v 1209.9317 277.5179 264.4530
v 1211.7040 276.1451 264.4527
f 343 344 345
v 1216.6069 282.4750 264.4515
v 1213.4458 282.0544 264.4521
v 1211.7040 276.1451 264.4527
f 346 347 348
v 1194.4605 296.7620 264.4552
v 1213.4458 282.0544 264.4521
v 1195.8432 298.5603 264.4548
f 349 350 351
v 1216.6069 282.4750 264.4515
v 1195.8432 298.5603 264.4548
v 1213.4458 282.0544 264.4521
f 352 353 354
v 1211.7022 276.1445 255.2600
v 1211.7040 276.1451 264.4527
v 1209.9317 277.5179 264.4530
f 355 356 357
v 1177.8123 280.8523 357.6508
v 1177.4728 281.7613 357.6508
v 1177.5845 281.2840 357.6508
f 358 359 360
v 1177.8123 280.8523 357.6508
v 1177.8575 283.1432 357.6507
v 1177.4728 281.7613 357.6508
f 361 362 363
v 1179.0092 280.0591 357.6506
v 1178.1393 280.4894 357.6507
v 1178.5467 280.2193 357.6507
f 364 365 366
v 1177.8123 280.8523 357.6508
v 1178.1393 280.4894 357.6507
v 1179.0092 280.0591 357.6506
f 367 368 369
v 1177.8123 280.8523 357.6508
v 1181.2900 281.4441 357.6501
v 1178.6161 283.7462 357.6505
f 370 371 372
v 1177.6133 282.7209 357.6507
v 1177.4821 282.2492 357.6508
v 1177.8575 283.1432 357.6507
f 373 374 375
v 1177.8575 283.1432 357.6507
v 1177.4821 282.2492 357.6508
v 1177.4728 281.7613 357.6508
f 376 377 378
v 1178.1985 283.4943 357.6506
v 1177.8575 283.1432 357.6507
v 1178.6161 283.7462 357.6505
f 379 380 381
v 1177.8575 283.1432 357.6507
v 1177.8123 280.8523 357.6508
v 1178.6161 283.7462 357.6505
f 382 383 384
v 1179.0845 283.8890 357.6504
v 1178.6161 283.7462 357.6505
v 1180.0502 283.8093 357.6502
f 385 386 387
v 1179.0092 280.0591 357.6506
v 1180.4239 280.3003 357.6503
v 1177.8123 280.8523 357.6508
f 388 389 390
v 1180.4239 280.3003 357.6503
v 1179.4951 280.0188 357.6505
v 1179.9783 280.1005 357.6504
f 391 392 393
v 1177.8123 280.8523 357.6508
v 1180.4239 280.3003 357.6503
v 1181.2900 281.4441 357.6501
f 394 395 396
v 1181.2900 281.4441 357.6501
v 1180.8067 280.6043 357.6502
v 1181.1017 280.9935 357.6502
f 397 398 399
v 1180.4239 280.3003 357.6503
v 1180.8067 280.6043 357.6502
v 1181.2900 281.4441 357.6501
f 400 401 402
v 1178.6161 283.7462 357.6505
v 1181.2900 281.4441 357.6501
v 1180.8588 283.2731 357.6501
f 403 404 405
v 1180.4887 283.5931 357.6501
v 1180.0502 283.8093 357.6502
v 1180.8588 283.2731 357.6501
f 406 407 408
v 1180.0502 283.8093 357.6502
v 1179.5716 283.9106 357.6503
v 1179.0845 283.8890 357.6504
f 409 410 411
v 1181.2900 281.4441 357.6501
v 1181.3095 282.4139 357.6500
v 1180.8588 283.2731 357.6501
f 412 413 414
v 1181.3095 282.4139 357.6500
v 1181.1388 282.8724 357.6501
v 1180.8588 283.2731 357.6501
f 415 416 417
v 1180.0502 283.8093 357.6502
v 1178.6161 283.7462 357.6505
v 1180.8588 283.2731 357.6501
f 418 419 420
v 1181.2900 281.4441 357.6501
v 1181.3613 281.9278 357.6501
v 1181.3095 282.4139 357.6500
f 421 422 423
v 1179.4951 280.0188 357.6505
v 1180.4239 280.3003 357.6503
v 1179.0092 280.0591 357.6506
f 424 425 426
v 1151.7665 309.1546 255.2697
v 1147.3847 312.5493 255.2704
v 1151.7681 309.1552 263.2185
f 427 428 429
v 1147.3879 312.5505 271.6808
v 1151.7681 309.1552 263.2185
v 1147.3847 312.5493 255.2704
f 430 431 432
v 1167.2018 297.1980 263.2162
v 1151.7681 309.1552 263.2185
v 1167.2034 297.1986 271.6780
f 433 434 435
v 1147.3879 312.5505 271.6808
v 1167.2034 297.1986 271.6780
v 1151.7681 309.1552 263.2185
f 436 437 438
v 1164.5601 258.6312 286.8615
v 1161.3886 264.0456 286.8619
v 1147.6514 271.7303 286.8640
f 439 440 441
v 1147.6514 271.7303 286.8640
v 1161.3886 264.0456 286.8619
v 1147.7507 271.8601 286.8640
f 442 443 444
v 1147.7507 271.8601 286.8640
v 1153.0536 278.9318 286.8628
v 1127.8700 287.1691 286.8670
f 445 446 447
v 1165.9900 260.4794 286.8612
v 1161.3886 264.0456 286.8619
v 1164.5601 258.6312 286.8615
f 448 449 450
v 1167.4843 297.5579 286.8593
v 1179.2633 287.1175 286.8576
v 1179.9004 287.9398 286.8575
f 451 452 453
v 1153.0536 278.9318 286.8628
v 1161.3886 264.0456 286.8619
v 1179.2633 287.1175 286.8576
f 454 455 456
v 1179.2633 287.1175 286.8576
v 1167.4843 297.5579 286.8593
v 1153.0536 278.9318 286.8628
f 457 458 459
v 1153.0536 278.9318 286.8628
v 1133.3028 294.2335 286.8657
v 1127.8700 287.1691 286.8670
f 460 461 462
v 1161.3886 264.0456 286.8619
v 1153.0536 278.9318 286.8628
v 1147.7507 271.8601 286.8640
f 463 464 465
v 1170.8935 265.5471 286.8601
v 1189.4967 251.1354 286.8571
v 1184.4774 283.0786 286.8568
f 466 467 468
v 1213.4503 282.0559 286.8514
v 1184.4774 283.0786 286.8568
v 1189.4967 251.1354 286.8571
f 469 470 471
v 1183.6900 283.6877 286.8570
v 1184.4774 283.0786 286.8568
v 1187.8981 288.2223 286.8560
f 472 473 474
v 1194.4649 296.7636 286.8544
v 1187.8981 288.2223 286.8560
v 1213.4503 282.0559 286.8514
f 475 476 477
v 1184.4774 283.0786 286.8568
v 1213.4503 282.0559 286.8514
v 1187.8981 288.2223 286.8560
f 478 479 480
v 1183.6900 283.6877 286.8570
v 1187.8981 288.2223 286.8560
v 1187.4620 288.5575 286.8560
f 481 482 483
v 1164.5539 258.6291 255.2696
v 1164.5601 258.6312 286.8615
v 1161.5998 260.9226 279.1473
f 484 485 486
v 1164.5601 258.6312 286.8615
v 1147.6514 271.7303 286.8640
v 1161.5998 260.9226 279.1473
f 487 488 489
v 1147.6453 271.7282 255.2721
v 1147.8954 271.5391 279.1493
v 1147.6514 271.7303 286.8640
f 490 491 492
v 1147.8954 271.5391 279.1493
v 1147.6453 271.7282 255.2721
v 1147.8908 271.5376 255.2721
f 493 494 495
v 1213.4503 282.0559 286.8514
v 1209.9317 277.5179 264.4530
v 1213.4458 282.0544 264.4521
f 496 497 498
v 1189.4905 251.1334 255.2652
v 1209.9317 277.5179 264.4530
v 1189.4967 251.1354 286.8571
f 499 500 501
v 1213.4503 282.0559 286.8514
v 1189.4967 251.1354 286.8571
v 1209.9317 277.5179 264.4530
f 502 503 504
v 1209.9299 277.5173 255.2603
v 1209.9317 277.5179 264.4530
v 1189.4905 251.1334 255.2652
f 505 506 507
v 1187.4012 288.4830 263.2128
v 1183.6854 283.6860 263.2138
v 1183.6900 283.6877 286.8570
f 508 509 510
v 1187.4558 288.5553 255.2641
v 1187.4012 288.4830 263.2128
v 1187.4620 288.5575 286.8560
f 511 512 513
v 1187.3996 288.4825 255.2641
v 1187.4012 288.4830 263.2128
v 1187.4558 288.5553 255.2641
f 514 515 516
v 1179.8958 287.9381 263.2143
v 1179.9004 287.9398 286.8575
v 1179.2633 287.1175 286.8576
f 517 518 519
v 1167.4797 297.5563 263.2161
v 1167.4843 297.5579 286.8593
v 1179.9004 287.9398 286.8575
f 520 521 522
v 1153.0507 278.9307 271.6813
v 1153.0536 278.9318 286.8628
v 1167.2034 297.1986 271.6780
f 523 524 525
v 1167.4843 297.5579 286.8593
v 1167.2034 297.1986 271.6780
v 1153.0536 278.9318 286.8628
f 526 527 528
v 1167.2018 297.1980 263.2162
v 1167.2034 297.1986 271.6780
v 1167.4797 297.5563 263.2161
f 529 530 531
v 1167.4843 297.5579 286.8593
v 1167.4797 297.5563 263.2161
v 1167.2034 297.1986 271.6780
f 532 533 534
v 1181.3479 281.9232 289.8444
v 1181.3613 281.9278 357.6501
v 1181.2900 281.4441 357.6501
f 535 536 537
v 1181.2962 282.4093 289.8444
v 1181.3095 282.4139 357.6500
v 1181.3613 281.9278 357.6501
f 538 539 540
v 1181.1254 282.8678 289.8444
v 1181.1388 282.8724 357.6501
v 1181.3095 282.4139 357.6500
f 541 542 543
v 1180.8455 283.2685 289.8444
v 1180.8588 283.2731 357.6501
v 1181.1388 282.8724 357.6501
f 544 545 546
v 1180.4754 283.5885 289.8444
v 1180.4887 283.5931 357.6501
v 1180.8588 283.2731 357.6501
f 547 548 549
v 1180.0370 283.8046 289.8445
v 1180.0502 283.8093 357.6502
v 1180.4887 283.5931 357.6501
f 550 551 552
v 1179.5582 283.9059 289.8446
v 1179.5716 283.9106 357.6503
v 1180.0502 283.8093 357.6502
f 553 554 555
v 1179.0712 283.8843 289.8447
v 1179.0845 283.8890 357.6504
v 1179.5716 283.9106 357.6503
f 556 557 558
v 1178.6028 283.7415 289.8448
v 1178.6161 283.7462 357.6505
v 1179.0845 283.8890 357.6504
f 559 560 561
v 1178.1851 283.4896 289.8449
v 1178.1985 283.4943 357.6506
v 1178.6161 283.7462 357.6505
f 562 563 564
v 1177.8442 283.1385 289.8450
v 1177.8575 283.1432 357.6507
v 1178.1985 283.4943 357.6506
f 565 566 567
v 1177.6001 282.7162 289.8450
v 1177.6133 282.7209 357.6507
v 1177.8575 283.1432 357.6507
f 568 569 570
v 1177.4688 282.2445 289.8451
v 1177.4821 282.2492 357.6508
v 1177.6133 282.7209 357.6507
f 571 572 573
v 1177.4595 281.7566 289.8451
v 1177.4728 281.7613 357.6508
v 1177.4821 282.2492 357.6508
f 574 575 576
v 1177.5712 281.2793 289.8451
v 1177.5845 281.2840 357.6508
v 1177.4728 281.7613 357.6508
f 577 578 579
v 1177.7991 280.8477 289.8451
v 1177.8123 280.8523 357.6508
v 1177.5845 281.2840 357.6508
f 580 581 582
v 1178.1261 280.4848 289.8450
v 1178.1393 280.4894 357.6507
v 1177.8123 280.8523 357.6508
f 583 584 585
v 1178.5334 280.2147 289.8450
v 1178.5467 280.2193 357.6507
v 1178.1393 280.4894 357.6507
f 586 587 588
v 1178.9959 280.0544 289.8449
v 1179.0092 280.0591 357.6506
v 1178.5467 280.2193 357.6507
f 589 590 591
v 1179.4818 280.0142 289.8448
v 1179.4951 280.0188 357.6505
v 1179.0092 280.0591 357.6506
f 592 593 594
v 1179.9650 280.0959 289.8447
v 1179.9783 280.1005 357.6504
v 1179.4951 280.0188 357.6505
f 595 596 597
v 1180.4106 280.2957 289.8446
v 1180.4239 280.3003 357.6503
v 1179.9783 280.1005 357.6504
f 598 599 600
v 1180.7934 280.5996 289.8445
v 1180.8067 280.6043 357.6502
v 1180.4239 280.3003 357.6503
f 601 602 603
v 1181.0884 280.9888 289.8445
v 1181.1017 280.9935 357.6502
v 1180.8067 280.6043 357.6502
f 604 605 606
v 1181.2766 281.4394 289.8444
v 1181.2900 281.4441 357.6501
v 1181.1017 280.9935 357.6502
f 607 608 609
v 1155.4398 313.1833 263.2176
v 1155.4689 313.2212 263.2176
v 1158.5972 317.2902 255.2682
f 610 611 612
v 1155.4689 313.2212 263.2176
v 1159.7174 318.7461 267.1984
v 1158.5972 317.2902 255.2682
f 613 614 615
v 1159.7174 318.7461 267.1984
v 1159.7151 318.7451 255.2679
v 1158.5972 317.2902 255.2682
f 616 617 618
v 1155.4697 313.2215 267.1994
v 1159.7174 318.7461 267.1984
v 1155.4689 313.2212 263.2176
f 619 620 621
v 1174.5291 307.2676 255.2656
v 1169.6823 311.0216 255.2664
v 1169.6866 311.0214 267.1970
f 622 623 624
v 1159.7151 318.7451 255.2679
v 1159.7174 318.7461 267.1984
v 1169.6866 311.0214 267.1970
f 625 626 627
v 1169.6866 311.0214 267.1970
v 1169.6823 311.0216 255.2664
v 1159.7151 318.7451 255.2679
f 628 629 630
v 1174.5324 307.2689 271.9251
v 1169.6866 311.0214 267.1970
v 1169.6875 311.0218 271.9259
f 631 632 633
v 1174.5324 307.2689 271.9251
v 1174.5335 307.2693 277.8978
v 1184.0038 299.9330 277.8964
f 634 635 636
v 1183.9993 299.9314 255.2642
v 1174.5324 307.2689 271.9251
v 1184.0038 299.9330 277.8964
f 637 638 639
v 1174.5324 307.2689 271.9251
v 1176.3733 305.8387 255.2654
v 1169.6866 311.0214 267.1970
f 640 641 642
v 1176.3733 305.8387 255.2654
v 1174.5291 307.2676 255.2656
v 1169.6866 311.0214 267.1970
f 643 644 645
v 1174.5324 307.2689 271.9251
v 1183.9993 299.9314 255.2642
v 1176.3733 305.8387 255.2654
f 646 647 648
v 1174.4581 298.5116 277.8983
v 1170.2647 301.7594 271.9261
v 1174.4552 298.5105 263.2148
f 649 650 651
v 1174.4552 298.5105 263.2148
v 1170.2647 301.7594 271.9261
v 1170.2629 301.7588 263.2154
f 652 653 654
v 1170.2659 301.7598 277.8989
v 1170.2647 301.7594 271.9261
v 1174.4581 298.5116 277.8983
f 655 656 657
v 1165.4199 305.5120 267.1980
v 1170.2647 301.7594 271.9261
v 1165.4208 305.5123 271.9269
f 658 659 660
v 1170.2629 301.7588 263.2154
v 1165.4199 305.5120 267.1980
v 1165.4191 305.5117 263.2162
f 661 662 663
v 1155.4689 313.2212 263.2176
v 1165.4191 305.5117 263.2162
v 1165.4199 305.5120 267.1980
f 664 665 666
v 1170.2647 301.7594 271.9261
v 1165.4199 305.5120 267.1980
v 1170.2629 301.7588 263.2154
f 667 668 669
v 1187.8919 288.2202 255.2641
v 1187.8981 288.2223 286.8560
v 1194.4605 296.7620 264.4552
f 670 671 672
v 1194.4649 296.7636 286.8544
v 1194.4605 296.7620 264.4552
v 1187.8981 288.2223 286.8560
f 673 674 675
v 1187.8919 288.2202 255.2641
v 1194.4605 296.7620 264.4552
v 1194.4586 296.7614 255.2625
f 676 677 678
v 1194.4605 296.7620 264.4552
v 1195.8432 298.5603 264.4548
v 1194.4586 296.7614 255.2625
f 679 680 681
v 1195.8432 298.5603 264.4548
v 1195.8414 298.5596 255.2621
v 1194.4586 296.7614 255.2625
f 682 683 684
v 1127.8700 287.1691 286.8670
v 1133.3000 294.2325 271.6842
v 1127.8640 287.1669 255.2750
f 685 686 687
v 1127.8640 287.1669 255.2750
v 1133.3000 294.2325 271.6842
v 1131.9130 292.4320 255.2740
f 688 689 690
v 1133.3000 294.2325 271.6842
v 1127.8700 287.1691 286.8670
v 1133.3028 294.2335 286.8657
f 691 692 693
v 1133.3000 294.2325 271.6842
v 1147.3879 312.5505 271.6808
v 1147.3847 312.5493 255.2704
f 694 695 696
v 1131.9130 292.4320 255.2740
v 1133.3000 294.2325 271.6842
v 1133.2968 294.2313 255.2737
f 697 698 699
v 1158.5972 317.2902 255.2682
v 1159.7151 318.7451 255.2679
v 1169.6823 311.0216 255.2664
f 700 701 702
v 1169.6823 311.0216 255.2664
v 1155.4383 313.1827 255.2689
v 1158.5972 317.2902 255.2682
f 703 704 705
v 1151.7665 309.1546 255.2697
v 1155.4383 313.1827 255.2689
v 1169.6823 311.0216 255.2664
f 706 707 708
v 1174.5291 307.2676 255.2656
v 1179.7316 294.4229 255.2653
v 1169.6823 311.0216 255.2664
f 709 710 711
v 1179.7316 294.4229 255.2653
v 1176.3733 305.8387 255.2654
v 1183.9993 299.9314 255.2642
f 712 713 714
v 1174.5291 307.2676 255.2656
v 1176.3733 305.8387 255.2654
v 1179.7316 294.4229 255.2653
f 715 716 717
v 1179.7316 294.4229 255.2653
v 1151.7665 309.1546 255.2697
v 1169.6823 311.0216 255.2664
f 718 719 720
v 1151.7665 309.1546 255.2697
v 1133.2968 294.2313 255.2737
v 1147.3847 312.5493 255.2704
f 721 722 723
v 1131.9130 292.4320 255.2740
v 1133.2968 294.2313 255.2737
v 1147.7447 271.8580 255.2721
f 724 725 726
v 1147.7447 271.8580 255.2721
v 1127.8640 287.1669 255.2750
v 1131.9130 292.4320 255.2740
f 727 728 729
v 1147.7447 271.8580 255.2721
v 1151.7665 309.1546 255.2697
v 1179.7316 294.4229 255.2653
f 730 731 732
v 1147.8908 271.5376 255.2721
v 1147.6453 271.7282 255.2721
v 1147.7447 271.8580 255.2721
f 733 734 735
v 1146.3133 257.5350 255.2730
v 1140.5204 262.0234 255.2738
v 1147.8908 271.5376 255.2721
f 736 737 738
v 1147.8908 271.5376 255.2721
v 1147.7447 271.8580 255.2721
v 1161.5952 260.9210 255.2701
f 739 740 741
v 1151.7665 309.1546 255.2697
v 1155.0930 313.4486 255.2690
v 1155.4383 313.1827 255.2689
f 742 743 744
v 1147.7447 271.8580 255.2721
v 1133.2968 294.2313 255.2737
v 1151.7665 309.1546 255.2697
f 745 746 747
v 1146.3133 257.5350 255.2730
v 1147.8908 271.5376 255.2721
v 1157.9499 259.6998 255.2708
f 748 749 750
v 1179.7316 294.4229 255.2653
v 1161.5952 260.9210 255.2701
v 1147.7447 271.8580 255.2721
f 751 752 753
v 1209.9299 277.5173 255.2603
v 1187.8919 288.2202 255.2641
v 1194.4586 296.7614 255.2625
f 754 755 756
v 1187.8919 288.2202 255.2641
v 1187.3996 288.4825 255.2641
v 1187.4558 288.5553 255.2641
f 757 758 759
v 1187.3996 288.4825 255.2641
v 1161.5952 260.9210 255.2701
v 1179.7316 294.4229 255.2653
f 760 761 762
v 1216.6050 282.4744 255.2588
v 1194.4586 296.7614 255.2625
v 1195.8414 298.5596 255.2621
f 763 764 765
v 1211.7022 276.1445 255.2600
v 1209.9299 277.5173 255.2603
v 1216.6050 282.4744 255.2588
f 766 767 768
v 1187.8919 288.2202 255.2641
v 1209.9299 277.5173 255.2603
v 1189.4905 251.1334 255.2652
f 769 770 771
v 1184.2021 243.8527 255.2665
v 1189.4905 251.1334 255.2652
v 1189.7100 250.9629 255.2652
f 772 773 774
v 1165.3822 258.3540 255.2695
v 1187.3996 288.4825 255.2641
v 1187.8919 288.2202 255.2641
f 775 776 777
v 1216.6050 282.4744 255.2588
v 1209.9299 277.5173 255.2603
v 1194.4586 296.7614 255.2625
f 778 779 780
v 1189.4905 251.1334 255.2652
v 1165.3822 258.3540 255.2695
v 1187.8919 288.2202 255.2641
f 781 782 783
v 1165.3822 258.3540 255.2695
v 1164.5539 258.6291 255.2696
v 1161.5952 260.9210 255.2701
f 784 785 786
v 1146.3133 257.5350 255.2730
v 1157.9499 259.6998 255.2708
v 1152.5514 252.7324 255.2720
f 787 788 789
v 1161.5952 260.9210 255.2701
v 1159.6374 258.3943 255.2705
v 1157.9499 259.6998 255.2708
f 790 791 792
v 1161.5952 260.9210 255.2701
v 1157.9499 259.6998 255.2708
v 1147.8908 271.5376 255.2721
f 793 794 795
v 1189.4905 251.1334 255.2652
v 1184.2021 243.8527 255.2665
v 1165.3822 258.3540 255.2695
f 796 797 798
v 1164.8684 257.6873 255.2696
v 1164.2158 258.1931 255.2697
v 1165.3822 258.3540 255.2695
f 799 800 801
v 1165.3822 258.3540 255.2695
v 1164.2158 258.1931 255.2697
v 1164.5539 258.6291 255.2696
f 802 803 804
v 1165.3822 258.3540 255.2695
v 1161.5952 260.9210 255.2701
v 1187.3996 288.4825 255.2641
f 805 806 807
v 1189.7100 250.9629 255.2652
v 1184.2089 243.8549 289.8453
v 1184.2021 243.8527 255.2665
f 808 809 810
v 1184.4774 283.0786 286.8568
v 1170.8942 265.5473 289.8470
v 1170.8935 265.5471 286.8601
f 811 812 813
v 1161.3886 264.0456 286.8619
v 1179.2638 287.1177 289.8445
v 1179.2633 287.1175 286.8576
f 814 815 816
v 1165.9900 260.4794 286.8612
v 1161.3892 264.0459 289.8488
v 1161.3886 264.0456 286.8619
f 817 818 819
v 1164.8684 257.6873 255.2696
v 1164.2225 258.1952 289.8485
v 1164.2158 258.1931 255.2697
f 820 821 822
v 1155.0930 313.4486 255.2690
v 1155.4398 313.1833 263.2176
v 1155.4383 313.1827 255.2689
f 823 824 825
v 1151.7665 309.1546 255.2697
v 1155.0945 313.4492 263.2177
v 1155.0930 313.4486 255.2690
f 826 827 828
v 1179.7316 294.4229 255.2653
v 1187.4012 288.4830 263.2128
v 1187.3996 288.4825 255.2641
f 829 830 831
v 1170.2659 301.7598 277.8989
v 1174.5335 307.2693 277.8978
v 1174.5324 307.2689 271.9251
f 832 833 834
v 1173.3253 297.0536 263.2151
v 1174.4581 298.5116 277.8983
v 1174.4552 298.5105 263.2148
f 835 836 837
v 1175.2932 295.5284 263.2148
v 1173.3282 297.0547 277.8986
v 1173.3253 297.0536 263.2151
f 838 839 840
v 1176.4221 296.9872 263.2145
v 1175.2961 295.5294 277.8983
v 1175.2932 295.5284 263.2148
f 841 842 843
v 1179.7332 294.4235 263.2140
v 1176.4250 296.9884 277.8980
v 1176.4221 296.9872 263.2145
f 844 845 846
v 1165.4199 305.5120 267.1980
v 1169.6875 311.0218 271.9259
v 1169.6866 311.0214 267.1970
f 847 848 849
v 1147.7447 271.8580 255.2721
v 1127.8700 287.1691 286.8670
v 1127.8640 287.1669 255.2750
f 850 851 852
v 1147.6453 271.7282 255.2721
v 1147.7507 271.8601 286.8640
v 1147.7447 271.8580 255.2721
f 853 854 855
v 1194.4605 296.7620 264.4552
v 1213.4503 282.0559 286.8514
v 1213.4458 282.0544 264.4521
f 856 857 858
v 1187.4558 288.5553 255.2641
v 1187.8981 288.2223 286.8560
v 1187.8919 288.2202 255.2641
f 859 860 861
v 1133.3028 294.2335 286.8657
v 1153.0536 278.9318 286.8628
v 1153.0507 278.9307 271.6813
f 862 863 864
v 1152.5514 252.7324 255.2720
v 1146.3179 257.5366 279.1502
v 1146.3133 257.5350 255.2730
f 865 866 867
v 1157.9499 259.6998 255.2708
v 1152.5560 252.7339 279.1492
v 1152.5514 252.7324 255.2720
f 868 869 870
v 1159.6374 258.3943 255.2705
v 1157.9546 259.7014 279.1480
v 1157.9499 259.6998 255.2708
f 871 872 873
v 1146.3133 257.5350 255.2730
v 1140.5250 262.0251 279.1510
v 1140.5204 262.0234 255.2738
f 874 875 876
v 1161.5952 260.9210 255.2701
v 1159.6420 258.3958 279.1477
v 1159.6374 258.3943 255.2705
f 877 878 879
v 1140.5204 262.0234 255.2738
v 1147.8954 271.5391 279.1493
v 1147.8908 271.5376 255.2721
f 880 881 882
v 1216.6050 282.4744 255.2588
v 1211.7040 276.1451 264.4527
v 1211.7022 276.1445 255.2600
f 883 884 885
v 1195.8414 298.5596 255.2621
v 1216.6069 282.4750 264.4515
v 1216.6050 282.4744 255.2588
f 886 887 888
v 1211.7022 276.1445 255.2600
v 1209.9317 277.5179 264.4530
v 1209.9299 277.5173 255.2603
f 889 890 891
v 1164.5539 258.6291 255.2696
v 1161.5998 260.9226 279.1473
v 1161.5952 260.9210 255.2701
f 892 893 894
v 1147.6514 271.7303 286.8640
v 1147.8954 271.5391 279.1493
v 1161.5998 260.9226 279.1473
f 895 896 897
v 1187.4012 288.4830 263.2128
v 1183.6900 283.6877 286.8570
v 1187.4620 288.5575 286.8560
f 898 899 900
v 1179.8958 287.9381 263.2143
v 1179.2633 287.1175 286.8576
v 1179.2586 287.1158 263.2144
f 901 902 903
v 1167.4797 297.5563 263.2161
v 1179.9004 287.9398 286.8575
v 1179.8958 287.9381 263.2143
f 904 905 906
v 1181.3479 281.9232 289.8444
v 1181.2900 281.4441 357.6501
v 1181.2766 281.4394 289.8444
f 907 908 909
v 1181.2962 282.4093 289.8444
v 1181.3613 281.9278 357.6501
v 1181.3479 281.9232 289.8444
f 910 911 912
v 1181.1254 282.8678 289.8444
v 1181.3095 282.4139 357.6500
v 1181.2962 282.4093 289.8444
f 913 914 915
v 1180.8455 283.2685 289.8444
v 1181.1388 282.8724 357.6501
v 1181.1254 282.8678 289.8444
f 916 917 918
v 1180.4754 283.5885 289.8444
v 1180.8588 283.2731 357.6501
v 1180.8455 283.2685 289.8444
f 919 920 921
v 1180.0370 283.8046 289.8445
v 1180.4887 283.5931 357.6501
v 1180.4754 283.5885 289.8444
f 922 923 924
v 1179.5582 283.9059 289.8446
v 1180.0502 283.8093 357.6502
v 1180.0370 283.8046 289.8445
f 925 926 927
v 1179.0712 283.8843 289.8447
v 1179.5716 283.9106 357.6503
v 1179.5582 283.9059 289.8446
f 928 929 930
v 1178.6028 283.7415 289.8448
v 1179.0845 283.8890 357.6504
v 1179.0712 283.8843 289.8447
f 931 932 933
v 1178.1851 283.4896 289.8449
v 1178.6161 283.7462 357.6505
v 1178.6028 283.7415 289.8448
f 934 935 936
v 1177.8442 283.1385 289.8450
v 1178.1985 283.4943 357.6506
v 1178.1851 283.4896 289.8449
f 937 938 939
v 1177.6001 282.7162 289.8450
v 1177.8575 283.1432 357.6507
v 1177.8442 283.1385 289.8450
f 940 941 942
v 1177.4688 282.2445 289.8451
v 1177.6133 282.7209 357.6507
v 1177.6001 282.7162 289.8450
f 943 944 945
v 1177.4595 281.7566 289.8451
v 1177.4821 282.2492 357.6508
v 1177.4688 282.2445 289.8451
f 946 947 948
v 1177.5712 281.2793 289.8451
v 1177.4728 281.7613 357.6508
v 1177.4595 281.7566 289.8451
f 949 950 951
v 1177.7991 280.8477 289.8451
v 1177.5845 281.2840 357.6508
v 1177.5712 281.2793 289.8451
f 952 953 954
v 1178.1261 280.4848 289.8450
v 1177.8123 280.8523 357.6508
v 1177.7991 280.8477 289.8451
f 955 956 957
v 1178.5334 280.2147 289.8450
v 1178.1393 280.4894 357.6507
v 1178.1261 280.4848 289.8450
f 958 959 960
v 1178.9959 280.0544 289.8449
v 1178.5467 280.2193 357.6507
v 1178.5334 280.2147 289.8450
f 961 962 963
v 1179.4818 280.0142 289.8448
v 1179.0092 280.0591 357.6506
v 1178.9959 280.0544 289.8449
f 964 965 966
v 1179.9650 280.0959 289.8447
v 1179.4951 280.0188 357.6505
v 1179.4818 280.0142 289.8448
f 967 968 969
v 1180.4106 280.2957 289.8446
v 1179.9783 280.1005 357.6504
v 1179.9650 280.0959 289.8447
f 970 971 972
v 1180.7934 280.5996 289.8445
v 1180.4239 280.3003 357.6503
v 1180.4106 280.2957 289.8446
f 973 974 975
v 1181.0884 280.9888 289.8445
v 1180.8067 280.6043 357.6502
v 1180.7934 280.5996 289.8445
f 976 977 978
v 1181.2766 281.4394 289.8444
v 1181.1017 280.9935 357.6502
v 1181.0884 280.9888 289.8445
f 979 980 981
v 1155.4398 313.1833 263.2176
v 1158.5972 317.2902 255.2682
v 1155.4383 313.1827 255.2689
f 982 983 984
v 1155.4689 313.2212 263.2176
v 1165.4199 305.5120 267.1980
v 1155.4697 313.2215 267.1994
f 985 986 987
v 1133.3000 294.2325 271.6842
v 1147.3847 312.5493 255.2704
v 1133.2968 294.2313 255.2737
f 988 989 990

g building_ID_E46A3C8C-2798-41CE-BB5F-3EC618C4F27F
v 1082.6203 345.4387 285.7100
v 1082.5712 345.3748 285.7100
v 1086.6018 342.2571 285.7095
f 991 992 993
v 1085.5006 353.3698 285.7091
v 1080.6105 346.9751 285.7103
v 1082.6203 345.4387 285.7100
f 994 995 996
v 1082.6203 345.4387 285.7100
v 1086.6018 342.2571 285.7095
v 1091.6191 348.7435 285.7083
f 997 998 999
v 1087.5526 351.8884 285.7088
v 1087.5104 351.8335 285.7088
v 1091.6191 348.7435 285.7083
f 1000 1001 1002
v 1082.6203 345.4387 285.7100
v 1091.6191 348.7435 285.7083
v 1087.5104 351.8335 285.7088
f 1003 1004 1005
v 1082.6203 345.4387 285.7100
v 1087.5104 351.8335 285.7088
v 1085.5006 353.3698 285.7091
f 1006 1007 1008
v 1080.6052 346.9728 256.4173
v 1080.6105 346.9751 285.7103
v 1085.5006 353.3698 285.7091
f 1009 1010 1011
v 1086.6012 342.2568 282.3916
v 1086.6018 342.2571 285.7095
v 1082.5706 345.3746 282.3921
f 1012 1013 1014
v 1091.6185 348.7432 282.3904
v 1091.6191 348.7435 285.7083
v 1086.6018 342.2571 285.7095
f 1015 1016 1017
v 1087.5520 351.8881 282.3909
v 1087.5526 351.8884 285.7088
v 1091.6185 348.7432 282.3904
f 1018 1019 1020
v 1079.0667 332.9691 256.4183
v 1079.0714 332.9711 282.3934
v 1075.3102 335.8811 282.3939
f 1021 1022 1023
v 1089.8524 324.7253 256.4169
v 1089.8572 324.7272 282.3920
v 1079.0714 332.9711 282.3934
f 1024 1025 1026
v 1104.9485 344.2426 256.4133
v 1104.9533 344.2446 282.3884
v 1089.8572 324.7272 282.3920
f 1027 1028 1029
v 1090.3420 355.5416 256.4152
v 1090.3467 355.5436 282.3903
v 1104.9533 344.2446 282.3884
f 1030 1031 1032
v 1080.6105 346.9751 285.7103
v 1082.6151 345.4364 256.4170
v 1082.6203 345.4387 285.7100
f 1033 1034 1035
v 1080.6052 346.9728 256.4173
v 1082.6151 345.4364 256.4170
v 1080.6105 346.9751 285.7103
f 1036 1037 1038
v 1085.4953 353.3675 256.4161
v 1085.5006 353.3698 285.7091
v 1087.5051 351.8312 256.4158
f 1039 1040 1041
v 1085.5006 353.3698 285.7091
v 1087.5104 351.8335 285.7088
v 1087.5051 351.8312 256.4158
f 1042 1043 1044
v 1079.0714 332.9711 282.3934
v 1089.8572 324.7272 282.3920
v 1086.6012 342.2568 282.3916
f 1045 1046 1047
v 1104.9533 344.2446 282.3884
v 1086.6012 342.2568 282.3916
v 1089.8572 324.7272 282.3920
f 1048 1049 1050
v 1079.0714 332.9711 282.3934
v 1082.5706 345.3746 282.3921
v 1075.3102 335.8811 282.3939
f 1051 1052 1053
v 1082.5706 345.3746 282.3921
v 1079.0714 332.9711 282.3934
v 1086.6012 342.2568 282.3916
f 1054 1055 1056
v 1090.3467 355.5436 282.3903
v 1091.6185 348.7432 282.3904
v 1104.9533 344.2446 282.3884
f 1057 1058 1059
v 1091.6185 348.7432 282.3904
v 1090.3467 355.5436 282.3903
v 1087.5520 351.8881 282.3909
f 1060 1061 1062
v 1104.9533 344.2446 282.3884
v 1091.6185 348.7432 282.3904
v 1086.6012 342.2568 282.3916
f 1063 1064 1065
v 1087.5520 351.8881 282.3909
v 1087.5051 351.8312 256.4158
v 1087.5104 351.8335 285.7088
f 1066 1067 1068
v 1087.5520 351.8881 282.3909
v 1087.5104 351.8335 285.7088
v 1087.5526 351.8884 285.7088
f 1069 1070 1071
v 1087.5520 351.8881 282.3909
v 1090.3467 355.5436 282.3903
v 1087.5051 351.8312 256.4158
f 1072 1073 1074
v 1090.3467 355.5436 282.3903
v 1090.3420 355.5416 256.4152
v 1087.5051 351.8312 256.4158
f 1075 1076 1077
v 1079.0667 332.9691 256.4183
v 1087.5051 351.8312 256.4158
v 1104.9485 344.2426 256.4133
f 1078 1079 1080
v 1090.3420 355.5416 256.4152
v 1104.9485 344.2426 256.4133
v 1087.5051 351.8312 256.4158
f 1081 1082 1083
v 1080.6052 346.9728 256.4173
v 1085.4953 353.3675 256.4161
v 1087.5051 351.8312 256.4158
f 1084 1085 1086
v 1082.6151 345.4364 256.4170
v 1087.5051 351.8312 256.4158
v 1079.0667 332.9691 256.4183
f 1087 1088 1089
v 1075.3056 335.8791 256.4188
v 1082.5659 345.3725 256.4170
v 1079.0667 332.9691 256.4183
f 1090 1091 1092
v 1082.5659 345.3725 256.4170
v 1082.6151 345.4364 256.4170
v 1079.0667 332.9691 256.4183
f 1093 1094 1095
v 1087.5051 351.8312 256.4158
v 1082.6151 345.4364 256.4170
v 1080.6052 346.9728 256.4173
f 1096 1097 1098
v 1089.8524 324.7253 256.4169
v 1079.0667 332.9691 256.4183
v 1104.9485 344.2426 256.4133
f 1099 1100 1101
v 1082.5706 345.3746 282.3921
v 1082.5659 345.3725 256.4170
v 1075.3102 335.8811 282.3939
f 1102 1103 1104
v 1075.3102 335.8811 282.3939
v 1082.5659 345.3725 256.4170
v 1075.3056 335.8791 256.4188
f 1105 1106 1107
v 1082.5706 345.3746 282.3921
v 1082.6203 345.4387 285.7100
v 1082.6151 345.4364 256.4170
f 1108 1109 1110
v 1082.5659 345.3725 256.4170
v 1082.5706 345.3746 282.3921
v 1082.6151 345.4364 256.4170
f 1111 1112 1113
v 1082.5712 345.3748 285.7100
v 1082.6203 345.4387 285.7100
v 1082.5706 345.3746 282.3921
f 1114 1115 1116
v 1080.6052 346.9728 256.4173
v 1085.5006 353.3698 285.7091
v 1085.4953 353.3675 256.4161
f 1117 1118 1119
v 1086.6018 342.2571 285.7095
v 1082.5712 345.3748 285.7100
v 1082.5706 345.3746 282.3921
f 1120 1121 1122
v 1091.6185 348.7432 282.3904
v 1086.6018 342.2571 285.7095
v 1086.6012 342.2568 282.3916
f 1123 1124 1125
v 1087.5526 351.8884 285.7088
v 1091.6191 348.7435 285.7083
v 1091.6185 348.7432 282.3904
f 1126 1127 1128
v 1079.0667 332.9691 256.4183
v 1075.3102 335.8811 282.3939
v 1075.3056 335.8791 256.4188
f 1129 1130 1131
v 1089.8524 324.7253 256.4169
v 1079.0714 332.9711 282.3934
v 1079.0667 332.9691 256.4183
f 1132 1133 1134
v 1104.9485 344.2426 256.4133
v 1089.8572 324.7272 282.3920
v 1089.8524 324.7253 256.4169
f 1135 1136 1137
v 1090.3420 355.5416 256.4152
v 1104.9533 344.2446 282.3884
v 1104.9485 344.2426 256.4133
f 1138 1139 1140

g building_ID_2407102A-EF5D-499A-BC3E-1D5A5CAC0CAF
v 1102.1428 333.5212 256.2833
v 1102.7202 334.4067 256.2832
v 1102.0374 332.9985 256.2834
f 1141 1142 1143
v 1102.3751 334.0006 256.2833
v 1102.7202 334.4067 256.2832
v 1102.1428 333.5212 256.2833
f 1144 1145 1146
v 1103.6524 334.9042 256.2830
v 1102.7202 334.4067 256.2832
v 1103.1540 334.7145 256.2831
f 1147 1148 1149
v 1102.0374 332.9985 256.2834
v 1102.7202 334.4067 256.2832
v 1103.6524 334.9042 256.2830
f 1150 1151 1152
v 1102.5034 331.5053 256.2834
v 1102.0374 332.9985 256.2834
v 1103.6524 334.9042 256.2830
f 1153 1154 1155
v 1102.2216 331.9581 256.2834
v 1102.0630 332.4675 256.2834
v 1102.5034 331.5053 256.2834
f 1156 1157 1158
v 1102.5034 331.5053 256.2834
v 1102.0630 332.4675 256.2834
v 1102.0374 332.9985 256.2834
f 1159 1160 1161
v 1102.8864 331.1363 256.2833
v 1102.5034 331.5053 256.2834
v 1103.3507 330.8740 256.2833
f 1162 1163 1164
v 1103.8653 330.7357 256.2832
v 1103.3507 330.8740 256.2833
v 1102.5034 331.5053 256.2834
f 1165 1166 1167
v 1103.8653 330.7357 256.2832
v 1102.5034 331.5053 256.2834
v 1106.2378 332.4172 256.2827
f 1168 1169 1170
v 1105.6280 334.3719 256.2827
v 1102.5034 331.5053 256.2834
v 1103.6524 334.9042 256.2830
f 1171 1172 1173
v 1105.2018 334.6900 256.2827
v 1104.1816 334.9658 256.2829
v 1104.7084 334.8934 256.2828
f 1174 1175 1176
v 1103.6524 334.9042 256.2830
v 1105.2018 334.6900 256.2827
v 1105.6280 334.3719 256.2827
f 1177 1178 1179
v 1106.1846 333.4724 256.2826
v 1105.6280 334.3719 256.2827
v 1105.9639 333.9580 256.2826
f 1180 1181 1182
v 1105.6280 334.3719 256.2827
v 1106.2378 332.4172 256.2827
v 1102.5034 331.5053 256.2834
f 1183 1184 1185
v 1106.1846 333.4724 256.2826
v 1106.2378 332.4172 256.2827
v 1105.6280 334.3719 256.2827
f 1186 1187 1188
v 1104.9156 330.8548 256.2830
v 1104.3973 330.7292 256.2831
v 1105.3843 331.1066 256.2829
f 1189 1190 1191
v 1105.3843 331.1066 256.2829
v 1104.3973 330.7292 256.2831
v 1103.8653 330.7357 256.2832
f 1192 1193 1194
v 1105.3843 331.1066 256.2829
v 1106.2378 332.4172 256.2827
v 1105.7773 331.4665 256.2828
f 1195 1196 1197
v 1106.2378 332.4172 256.2827
v 1106.0684 331.9128 256.2827
v 1105.7773 331.4665 256.2828
f 1198 1199 1200
v 1103.8653 330.7357 256.2832
v 1106.2378 332.4172 256.2827
v 1105.3843 331.1066 256.2829
f 1201 1202 1203
v 1106.2378 332.4172 256.2827
v 1106.1846 333.4724 256.2826
v 1106.2782 332.9492 256.2826
f 1204 1205 1206
v 1105.2018 334.6900 256.2827
v 1103.6524 334.9042 256.2830
v 1104.1816 334.9658 256.2829
f 1207 1208 1209
v 1102.5075 331.5070 278.7396
v 1102.0671 332.4692 278.7396
v 1102.2257 331.9598 278.7396
f 1210 1211 1212
v 1102.5075 331.5070 278.7396
v 1102.0415 333.0002 278.7396
v 1102.0671 332.4692 278.7396
f 1213 1214 1215
v 1102.5075 331.5070 278.7396
v 1103.3549 330.8757 278.7395
v 1103.8694 330.7374 278.7394
f 1216 1217 1218
v 1102.8905 331.1380 278.7395
v 1103.3549 330.8757 278.7395
v 1102.5075 331.5070 278.7396
f 1219 1220 1221
v 1102.5075 331.5070 278.7396
v 1105.6322 334.3736 278.7389
v 1103.6566 334.9059 278.7392
f 1222 1223 1224
v 1102.3792 334.0023 278.7395
v 1102.1469 333.5229 278.7395
v 1102.7243 334.4084 278.7394
f 1225 1226 1227
v 1102.0415 333.0002 278.7396
v 1102.7243 334.4084 278.7394
v 1102.1469 333.5229 278.7395
f 1228 1229 1230
v 1103.1581 334.7163 278.7393
v 1102.7243 334.4084 278.7394
v 1103.6566 334.9059 278.7392
f 1231 1232 1233
v 1102.0415 333.0002 278.7396
v 1103.6566 334.9059 278.7392
v 1102.7243 334.4084 278.7394
f 1234 1235 1236
v 1103.6566 334.9059 278.7392
v 1102.0415 333.0002 278.7396
v 1102.5075 331.5070 278.7396
f 1237 1238 1239
v 1106.2419 332.4190 278.7389
v 1102.5075 331.5070 278.7396
v 1103.8694 330.7374 278.7394
f 1240 1241 1242
v 1105.3884 331.1083 278.7391
v 1104.4014 330.7309 278.7393
v 1104.9197 330.8566 278.7392
f 1243 1244 1245
v 1103.8694 330.7374 278.7394
v 1105.3884 331.1083 278.7391
v 1106.2419 332.4190 278.7389
f 1246 1247 1248
v 1106.2419 332.4190 278.7389
v 1105.7814 331.4682 278.7390
v 1106.0726 331.9145 278.7389
f 1249 1250 1251
v 1105.3884 331.1083 278.7391
v 1105.7814 331.4682 278.7390
v 1106.2419 332.4190 278.7389
f 1252 1253 1254
v 1102.5075 331.5070 278.7396
v 1106.2419 332.4190 278.7389
v 1105.6322 334.3736 278.7389
f 1255 1256 1257
v 1104.7126 334.8950 278.7390
v 1104.1858 334.9675 278.7391
v 1105.2060 334.6918 278.7389
f 1258 1259 1260
v 1105.2060 334.6918 278.7389
v 1104.1858 334.9675 278.7391
v 1103.6566 334.9059 278.7392
f 1261 1262 1263
v 1106.2419 332.4190 278.7389
v 1106.1887 333.4741 278.7388
v 1105.6322 334.3736 278.7389
f 1264 1265 1266
v 1106.1887 333.4741 278.7388
v 1105.9681 333.9597 278.7388
v 1105.6322 334.3736 278.7389
f 1267 1268 1269
v 1105.2060 334.6918 278.7389
v 1103.6566 334.9059 278.7392
v 1105.6322 334.3736 278.7389
f 1270 1271 1272
v 1106.2419 332.4190 278.7389
v 1106.2823 332.9509 278.7388
v 1106.1887 333.4741 278.7388
f 1273 1274 1275
v 1103.8694 330.7374 278.7394
v 1104.4014 330.7309 278.7393
v 1105.3884 331.1083 278.7391
f 1276 1277 1278
v 1104.3973 330.7292 256.2831
v 1104.4014 330.7309 278.7393
v 1103.8694 330.7374 278.7394
f 1279 1280 1281
v 1104.9156 330.8548 256.2830
v 1104.9197 330.8566 278.7392
v 1104.4014 330.7309 278.7393
f 1282 1283 1284
v 1105.3843 331.1066 256.2829
v 1105.3884 331.1083 278.7391
v 1104.9197 330.8566 278.7392
f 1285 1286 1287
v 1105.7773 331.4665 256.2828
v 1105.7814 331.4682 278.7390
v 1105.3884 331.1083 278.7391
f 1288 1289 1290
v 1106.0684 331.9128 256.2827
v 1106.0726 331.9145 278.7389
v 1105.7814 331.4682 278.7390
f 1291 1292 1293
v 1106.2378 332.4172 256.2827
v 1106.2419 332.4190 278.7389
v 1106.0726 331.9145 278.7389
f 1294 1295 1296
v 1106.2782 332.9492 256.2826
v 1106.2823 332.9509 278.7388
v 1106.2419 332.4190 278.7389
f 1297 1298 1299
v 1106.1846 333.4724 256.2826
v 1106.1887 333.4741 278.7388
v 1106.2823 332.9509 278.7388
f 1300 1301 1302
v 1105.9639 333.9580 256.2826
v 1105.9681 333.9597 278.7388
v 1106.1887 333.4741 278.7388
f 1303 1304 1305
v 1105.6280 334.3719 256.2827
v 1105.6322 334.3736 278.7389
v 1105.9681 333.9597 278.7388
f 1306 1307 1308
v 1105.2018 334.6900 256.2827
v 1105.2060 334.6918 278.7389
v 1105.6322 334.3736 278.7389
f 1309 1310 1311
v 1104.7084 334.8934 256.2828
v 1104.7126 334.8950 278.7390
v 1105.2060 334.6918 278.7389
f 1312 1313 1314
v 1104.1816 334.9658 256.2829
v 1104.1858 334.9675 278.7391
v 1104.7126 334.8950 278.7390
f 1315 1316 1317
v 1103.6524 334.9042 256.2830
v 1103.6566 334.9059 278.7392
v 1104.1858 334.9675 278.7391
f 1318 1319 1320
v 1103.1540 334.7145 256.2831
v 1103.1581 334.7163 278.7393
v 1103.6566 334.9059 278.7392
f 1321 1322 1323
v 1102.7202 334.4067 256.2832
v 1102.7243 334.4084 278.7394
v 1103.1581 334.7163 278.7393
f 1324 1325 1326
v 1102.3751 334.0006 256.2833
v 1102.3792 334.0023 278.7395
v 1102.7243 334.4084 278.7394
f 1327 1328 1329
v 1102.1428 333.5212 256.2833
v 1102.1469 333.5229 278.7395
v 1102.3792 334.0023 278.7395
f 1330 1331 1332
v 1102.0374 332.9985 256.2834
v 1102.0415 333.0002 278.7396
v 1102.1469 333.5229 278.7395
f 1333 1334 1335
v 1102.0630 332.4675 256.2834
v 1102.0671 332.4692 278.7396
v 1102.0415 333.0002 278.7396
f 1336 1337 1338
v 1102.2216 331.9581 256.2834
v 1102.2257 331.9598 278.7396
v 1102.0671 332.4692 278.7396
f 1339 1340 1341
v 1102.5034 331.5053 256.2834
v 1102.5075 331.5070 278.7396
v 1102.2257 331.9598 278.7396
f 1342 1343 1344
v 1102.8864 331.1363 256.2833
v 1102.8905 331.1380 278.7395
v 1102.5075 331.5070 278.7396
f 1345 1346 1347
v 1103.3507 330.8740 256.2833
v 1103.3549 330.8757 278.7395
v 1102.8905 331.1380 278.7395
f 1348 1349 1350
v 1103.8653 330.7357 256.2832
v 1103.8694 330.7374 278.7394
v 1103.3549 330.8757 278.7395
f 1351 1352 1353
v 1104.3973 330.7292 256.2831
v 1103.8694 330.7374 278.7394
v 1103.8653 330.7357 256.2832
f 1354 1355 1356
v 1104.9156 330.8548 256.2830
v 1104.4014 330.7309 278.7393
v 1104.3973 330.7292 256.2831
f 1357 1358 1359
v 1105.3843 331.1066 256.2829
v 1104.9197 330.8566 278.7392
v 1104.9156 330.8548 256.2830
f 1360 1361 1362
v 1105.7773 331.4665 256.2828
v 1105.3884 331.1083 278.7391
v 1105.3843 331.1066 256.2829
f 1363 1364 1365
v 1106.0684 331.9128 256.2827
v 1105.7814 331.4682 278.7390
v 1105.7773 331.4665 256.2828
f 1366 1367 1368
v 1106.2378 332.4172 256.2827
v 1106.0726 331.9145 278.7389
v 1106.0684 331.9128 256.2827
f 1369 1370 1371
v 1106.2782 332.9492 256.2826
v 1106.2419 332.4190 278.7389
v 1106.2378 332.4172 256.2827
f 1372 1373 1374
v 1106.1846 333.4724 256.2826
v 1106.2823 332.9509 278.7388
v 1106.2782 332.9492 256.2826
f 1375 1376 1377
v 1105.9639 333.9580 256.2826
v 1106.1887 333.4741 278.7388
v 1106.1846 333.4724 256.2826
f 1378 1379 1380
v 1105.6280 334.3719 256.2827
v 1105.9681 333.9597 278.7388
v 1105.9639 333.9580 256.2826
f 1381 1382 1383
v 1105.2018 334.6900 256.2827
v 1105.6322 334.3736 278.7389
v 1105.6280 334.3719 256.2827
f 1384 1385 1386
v 1104.7084 334.8934 256.2828
v 1105.2060 334.6918 278.7389
v 1105.2018 334.6900 256.2827
f 1387 1388 1389
v 1104.1816 334.9658 256.2829
v 1104.7126 334.8950 278.7390
v 1104.7084 334.8934 256.2828
f 1390 1391 1392
v 1103.6524 334.9042 256.2830
v 1104.1858 334.9675 278.7391
v 1104.1816 334.9658 256.2829
f 1393 1394 1395
v 1103.1540 334.7145 256.2831
v 1103.6566 334.9059 278.7392
v 1103.6524 334.9042 256.2830
f 1396 1397 1398
v 1102.7202 334.4067 256.2832
v 1103.1581 334.7163 278.7393
v 1103.1540 334.7145 256.2831
f 1399 1400 1401
v 1102.3751 334.0006 256.2833
v 1102.7243 334.4084 278.7394
v 1102.7202 334.4067 256.2832
f 1402 1403 1404
v 1102.1428 333.5212 256.2833
v 1102.3792 334.0023 278.7395
v 1102.3751 334.0006 256.2833
f 1405 1406 1407
v 1102.0374 332.9985 256.2834
v 1102.1469 333.5229 278.7395
v 1102.1428 333.5212 256.2833
f 1408 1409 1410
v 1102.0630 332.4675 256.2834
v 1102.0415 333.0002 278.7396
v 1102.0374 332.9985 256.2834
f 1411 1412 1413
v 1102.2216 331.9581 256.2834
v 1102.0671 332.4692 278.7396
v 1102.0630 332.4675 256.2834
f 1414 1415 1416
v 1102.5034 331.5053 256.2834
v 1102.2257 331.9598 278.7396
v 1102.2216 331.9581 256.2834
f 1417 1418 1419
v 1102.8864 331.1363 256.2833
v 1102.5075 331.5070 278.7396
v 1102.5034 331.5053 256.2834
f 1420 1421 1422
v 1103.3507 330.8740 256.2833
v 1102.8905 331.1380 278.7395
v 1102.8864 331.1363 256.2833
f 1423 1424 1425
v 1103.8653 330.7357 256.2832
v 1103.3549 330.8757 278.7395
v 1103.3507 330.8740 256.2833
f 1426 1427 1428

g building_ID_88325A15-268A-4D1A-9C4C-3204A82EDE7A
v 1152.4710 324.9795 255.4559
v 1149.2749 320.8260 255.4567
v 1148.3106 328.1806 255.4565
f 1429 1430 1431
v 1148.3106 328.1806 255.4565
v 1149.2749 320.8260 255.4567
v 1145.1757 324.1060 255.4572
f 1432 1433 1434
v 1152.4728 324.9802 264.9015
v 1148.3124 328.1813 264.5062
v 1149.2767 320.8269 264.9043
f 1435 1436 1437
v 1149.2767 320.8269 264.9043
v 1148.3124 328.1813 264.5062
v 1145.1775 324.1067 264.5099
f 1438 1439 1440
v 1152.4710 324.9795 255.4559
v 1148.3106 328.1806 255.4565
v 1152.4728 324.9802 264.9015
f 1441 1442 1443
v 1148.3106 328.1806 255.4565
v 1145.1775 324.1067 264.5099
v 1148.3124 328.1813 264.5062
f 1444 1445 1446
v 1145.1757 324.1060 255.4572
v 1149.2749 320.8260 255.4567
v 1149.2767 320.8269 264.9043
f 1447 1448 1449
v 1152.4728 324.9802 264.9015
v 1149.2767 320.8269 264.9043
v 1149.2749 320.8260 255.4567
f 1450 1451 1452
v 1149.2749 320.8260 255.4567
v 1152.4710 324.9795 255.4559
v 1152.4728 324.9802 264.9015
f 1453 1454 1455
v 1148.3124 328.1813 264.5062
v 1152.4728 324.9802 264.9015
v 1148.3106 328.1806 255.4565
f 1456 1457 1458
v 1145.1757 324.1060 255.4572
v 1145.1775 324.1067 264.5099
v 1148.3106 328.1806 255.4565
f 1459 1460 1461
v 1149.2767 320.8269 264.9043
v 1145.1775 324.1067 264.5099
v 1145.1757 324.1060 255.4572
f 1462 1463 1464

g building_ID_9C077086-E717-4418-A5D5-958CB9061881
v 1150.3263 328.0662 255.4901
v 1150.2277 328.9764 255.4901
v 1150.4625 327.7898 255.4901
f 1465 1466 1467
v 1150.6449 327.5414 255.4901
v 1150.4625 327.7898 255.4901
v 1150.8673 327.3287 255.4901
f 1468 1469 1470
v 1150.2277 328.9764 255.4901
v 1150.3263 328.0662 255.4901
v 1150.2401 328.3624 255.4901
f 1471 1472 1473
v 1150.3015 329.2753 255.4901
v 1150.4242 329.5569 255.4900
v 1150.5959 329.8125 255.4900
f 1474 1475 1476
v 1150.2277 328.9764 255.4901
v 1150.8673 327.3287 255.4901
v 1150.4625 327.7898 255.4901
f 1477 1478 1479
v 1150.3015 329.2753 255.4901
v 1150.8673 327.3287 255.4901
v 1150.2277 328.9764 255.4901
f 1480 1481 1482
v 1150.2401 328.3624 255.4901
v 1150.2069 328.6685 255.4901
v 1150.2277 328.9764 255.4901
f 1483 1484 1485
v 1152.6136 327.0591 255.4898
v 1150.3015 329.2753 255.4901
v 1151.9367 330.4728 255.4897
f 1486 1487 1488
v 1151.4054 327.0333 255.4900
v 1151.1228 327.1561 255.4900
v 1150.8673 327.3287 255.4901
f 1489 1490 1491
v 1151.4054 327.0333 255.4900
v 1152.6136 327.0591 255.4898
v 1151.7053 326.9595 255.4899
f 1492 1493 1494
v 1151.4054 327.0333 255.4900
v 1150.8673 327.3287 255.4901
v 1150.3015 329.2753 255.4901
f 1495 1496 1497
v 1152.6136 327.0591 255.4898
v 1152.3183 326.9719 255.4898
v 1152.0122 326.9387 255.4899
f 1498 1499 1500
v 1152.8909 327.1944 255.4897
v 1152.6136 327.0591 255.4898
v 1153.1394 327.3777 255.4896
f 1501 1502 1503
v 1151.7053 326.9595 255.4899
v 1152.6136 327.0591 255.4898
v 1152.0122 326.9387 255.4899
f 1504 1505 1506
v 1150.3015 329.2753 255.4901
v 1152.6136 327.0591 255.4898
v 1151.4054 327.0333 255.4900
f 1507 1508 1509
v 1153.1394 327.3777 255.4896
v 1152.6136 327.0591 255.4898
v 1153.7410 328.7440 255.4895
f 1510 1511 1512
v 1151.6306 330.4396 255.4898
v 1150.3015 329.2753 255.4901
v 1150.5959 329.8125 255.4900
f 1513 1514 1515
v 1151.3344 330.3544 255.4898
v 1150.8096 330.0359 255.4899
v 1151.0570 330.2181 255.4899
f 1516 1517 1518
v 1150.8096 330.0359 255.4899
v 1151.3344 330.3544 255.4898
v 1151.6306 330.4396 255.4898
f 1519 1520 1521
v 1150.3015 329.2753 255.4901
v 1151.6306 330.4396 255.4898
v 1151.9367 330.4728 255.4897
f 1522 1523 1524
v 1152.8251 330.2554 255.4895
v 1151.9367 330.4728 255.4897
v 1152.2446 330.4530 255.4896
f 1525 1526 1527
v 1153.4854 329.6227 255.4895
v 1151.9367 330.4728 255.4897
v 1152.8251 330.2554 255.4895
f 1528 1529 1530
v 1152.5424 330.3802 255.4896
v 1152.8251 330.2554 255.4895
v 1152.2446 330.4530 255.4896
f 1531 1532 1533
v 1152.6136 327.0591 255.4898
v 1151.9367 330.4728 255.4897
v 1153.7410 328.7440 255.4895
f 1534 1535 1536
v 1152.8251 330.2554 255.4895
v 1153.0806 330.0848 255.4895
v 1153.4854 329.6227 255.4895
f 1537 1538 1539
v 1153.5236 327.8546 255.4895
v 1153.7212 328.4370 255.4895
v 1153.6484 328.1373 255.4895
f 1540 1541 1542
v 1153.7212 328.4370 255.4895
v 1153.5236 327.8546 255.4895
v 1153.1394 327.3777 255.4896
f 1543 1544 1545
v 1153.1394 327.3777 255.4896
v 1153.5236 327.8546 255.4895
v 1153.3530 327.5991 255.4896
f 1546 1547 1548
v 1153.1394 327.3777 255.4896
v 1153.7410 328.7440 255.4895
v 1153.7212 328.4370 255.4895
f 1549 1550 1551
v 1153.7410 328.7440 255.4895
v 1153.4854 329.6227 255.4895
v 1153.7079 329.0511 255.4895
f 1552 1553 1554
v 1153.6227 329.3463 255.4895
v 1153.7079 329.0511 255.4895
v 1153.4854 329.6227 255.4895
f 1555 1556 1557
v 1153.7410 328.7440 255.4895
v 1151.9367 330.4728 255.4897
v 1153.4854 329.6227 255.4895
f 1558 1559 1560
v 1153.4854 329.6227 255.4895
v 1153.0806 330.0848 255.4895
v 1153.3041 329.8721 255.4895
f 1561 1562 1563
v 1150.5959 329.8125 255.4900
v 1150.8096 330.0359 255.4899
v 1151.6306 330.4396 255.4898
f 1564 1565 1566
v 1152.8277 330.2565 269.2560
v 1152.5451 330.3813 269.2561
v 1152.2473 330.4540 269.2561
f 1567 1568 1569
v 1153.0833 330.0858 269.2560
v 1152.8277 330.2565 269.2560
v 1153.4881 329.6237 269.2560
f 1570 1571 1572
v 1151.9394 330.4739 269.2562
v 1152.8277 330.2565 269.2560
v 1152.2473 330.4540 269.2561
f 1573 1574 1575
v 1151.3370 330.3555 269.2563
v 1151.0597 330.2192 269.2564
v 1150.8122 330.0369 269.2564
f 1576 1577 1578
v 1150.8122 330.0369 269.2564
v 1151.6332 330.4407 269.2563
v 1151.3370 330.3555 269.2563
f 1579 1580 1581
v 1150.3042 329.2763 269.2566
v 1151.9394 330.4739 269.2562
v 1151.6332 330.4407 269.2563
f 1582 1583 1584
v 1153.4881 329.6237 269.2560
v 1152.8277 330.2565 269.2560
v 1151.9394 330.4739 269.2562
f 1585 1586 1587
v 1151.9394 330.4739 269.2562
v 1152.6162 327.0602 269.2563
v 1153.7437 328.7451 269.2560
f 1588 1589 1590
v 1153.7437 328.7451 269.2560
v 1153.7105 329.0522 269.2560
v 1153.4881 329.6237 269.2560
f 1591 1592 1593
v 1153.4881 329.6237 269.2560
v 1153.7105 329.0522 269.2560
v 1153.6253 329.3473 269.2560
f 1594 1595 1596
v 1153.4881 329.6237 269.2560
v 1153.3067 329.8732 269.2560
v 1153.0833 330.0858 269.2560
f 1597 1598 1599
v 1153.1420 327.3787 269.2561
v 1153.5263 327.8556 269.2560
v 1153.7238 328.4381 269.2560
f 1600 1601 1602
v 1153.6511 328.1383 269.2560
v 1153.7238 328.4381 269.2560
v 1153.5263 327.8556 269.2560
f 1603 1604 1605
v 1153.1420 327.3787 269.2561
v 1153.3556 327.6001 269.2561
v 1153.5263 327.8556 269.2560
f 1606 1607 1608
v 1153.7437 328.7451 269.2560
v 1153.4881 329.6237 269.2560
v 1151.9394 330.4739 269.2562
f 1609 1610 1611
v 1153.1420 327.3787 269.2561
v 1153.7238 328.4381 269.2560
v 1153.7437 328.7451 269.2560
f 1612 1613 1614
v 1151.6332 330.4407 269.2563
v 1150.8122 330.0369 269.2564
v 1150.5986 329.8135 269.2565
f 1615 1616 1617
v 1150.3042 329.2763 269.2566
v 1150.5986 329.8135 269.2565
v 1150.4269 329.5580 269.2565
f 1618 1619 1620
v 1151.9394 330.4739 269.2562
v 1150.3042 329.2763 269.2566
v 1152.6162 327.0602 269.2563
f 1621 1622 1623
v 1150.3042 329.2763 269.2566
v 1150.2304 328.9774 269.2566
v 1150.8700 327.3298 269.2566
f 1624 1625 1626
v 1150.2304 328.9774 269.2566
v 1150.2427 328.3635 269.2566
v 1150.3289 328.0673 269.2566
f 1627 1628 1629
v 1150.8700 327.3298 269.2566
v 1150.2304 328.9774 269.2566
v 1150.4652 327.7909 269.2566
f 1630 1631 1632
v 1150.4652 327.7909 269.2566
v 1150.2304 328.9774 269.2566
v 1150.3289 328.0673 269.2566
f 1633 1634 1635
v 1150.2427 328.3635 269.2566
v 1150.2304 328.9774 269.2566
v 1150.2095 328.6695 269.2566
f 1636 1637 1638
v 1150.8700 327.3298 269.2566
v 1150.4652 327.7909 269.2566
v 1150.6475 327.5424 269.2566
f 1639 1640 1641
v 1152.6162 327.0602 269.2563
v 1152.0148 326.9397 269.2564
v 1152.3210 326.9729 269.2563
f 1642 1643 1644
v 1152.6162 327.0602 269.2563
v 1152.8936 327.1954 269.2562
v 1153.1420 327.3787 269.2561
f 1645 1646 1647
v 1152.6162 327.0602 269.2563
v 1153.1420 327.3787 269.2561
v 1153.7437 328.7451 269.2560
f 1648 1649 1650
v 1151.4082 327.0343 269.2565
v 1150.8700 327.3298 269.2566
v 1151.1255 327.1571 269.2565
f 1651 1652 1653
v 1152.6162 327.0602 269.2563
v 1151.7079 326.9606 269.2564
v 1152.0148 326.9397 269.2564
f 1654 1655 1656
v 1151.7079 326.9606 269.2564
v 1152.6162 327.0602 269.2563
v 1151.4082 327.0343 269.2565
f 1657 1658 1659
v 1152.6162 327.0602 269.2563
v 1150.3042 329.2763 269.2566
v 1151.4082 327.0343 269.2565
f 1660 1661 1662
v 1150.3042 329.2763 269.2566
v 1150.8700 327.3298 269.2566
v 1151.4082 327.0343 269.2565
f 1663 1664 1665
v 1150.5986 329.8135 269.2565
v 1150.3042 329.2763 269.2566
v 1151.6332 330.4407 269.2563
f 1666 1667 1668
v 1151.7053 326.9595 255.4899
v 1151.7079 326.9606 269.2564
v 1151.4082 327.0343 269.2565
f 1669 1670 1671
v 1152.0122 326.9387 255.4899
v 1152.0148 326.9397 269.2564
v 1151.7053 326.9595 255.4899
f 1672 1673 1674
v 1152.3183 326.9719 255.4898
v 1152.3210 326.9729 269.2563
v 1152.0122 326.9387 255.4899
f 1675 1676 1677
v 1152.6136 327.0591 255.4898
v 1152.6162 327.0602 269.2563
v 1152.3210 326.9729 269.2563
f 1678 1679 1680
v 1152.8909 327.1944 255.4897
v 1152.8936 327.1954 269.2562
v 1152.6162 327.0602 269.2563
f 1681 1682 1683
v 1153.1394 327.3777 255.4896
v 1153.1420 327.3787 269.2561
v 1152.8936 327.1954 269.2562
f 1684 1685 1686
v 1153.3530 327.5991 255.4896
v 1153.3556 327.6001 269.2561
v 1153.1420 327.3787 269.2561
f 1687 1688 1689
v 1153.5236 327.8546 255.4895
v 1153.5263 327.8556 269.2560
v 1153.3556 327.6001 269.2561
f 1690 1691 1692
v 1153.6484 328.1373 255.4895
v 1153.6511 328.1383 269.2560
v 1153.5263 327.8556 269.2560
f 1693 1694 1695
v 1153.7212 328.4370 255.4895
v 1153.7238 328.4381 269.2560
v 1153.6511 328.1383 269.2560
f 1696 1697 1698
v 1153.7410 328.7440 255.4895
v 1153.7437 328.7451 269.2560
v 1153.7238 328.4381 269.2560
f 1699 1700 1701
v 1153.7079 329.0511 255.4895
v 1153.7105 329.0522 269.2560
v 1153.7437 328.7451 269.2560
f 1702 1703 1704
v 1153.6227 329.3463 255.4895
v 1153.6253 329.3473 269.2560
v 1153.7105 329.0522 269.2560
f 1705 1706 1707
v 1153.4854 329.6227 255.4895
v 1153.4881 329.6237 269.2560
v 1153.6253 329.3473 269.2560
f 1708 1709 1710
v 1153.3041 329.8721 255.4895
v 1153.3067 329.8732 269.2560
v 1153.4881 329.6237 269.2560
f 1711 1712 1713
v 1153.0806 330.0848 255.4895
v 1153.0833 330.0858 269.2560
v 1153.3067 329.8732 269.2560
f 1714 1715 1716
v 1152.8251 330.2554 255.4895
v 1152.8277 330.2565 269.2560
v 1153.0833 330.0858 269.2560
f 1717 1718 1719
v 1152.5424 330.3802 255.4896
v 1152.5451 330.3813 269.2561
v 1152.8277 330.2565 269.2560
f 1720 1721 1722
v 1152.2446 330.4530 255.4896
v 1152.2473 330.4540 269.2561
v 1152.5451 330.3813 269.2561
f 1723 1724 1725
v 1151.9367 330.4728 255.4897
v 1151.9394 330.4739 269.2562
v 1152.2473 330.4540 269.2561
f 1726 1727 1728
v 1151.6306 330.4396 255.4898
v 1151.6332 330.4407 269.2563
v 1151.9394 330.4739 269.2562
f 1729 1730 1731
v 1151.3344 330.3544 255.4898
v 1151.3370 330.3555 269.2563
v 1151.6332 330.4407 269.2563
f 1732 1733 1734
v 1151.0570 330.2181 255.4899
v 1151.0597 330.2192 269.2564
v 1151.3370 330.3555 269.2563
f 1735 1736 1737
v 1150.8096 330.0359 255.4899
v 1150.8122 330.0369 269.2564
v 1151.0597 330.2192 269.2564
f 1738 1739 1740
v 1150.5959 329.8125 255.4900
v 1150.5986 329.8135 269.2565
v 1150.8122 330.0369 269.2564
f 1741 1742 1743
v 1150.4242 329.5569 255.4900
v 1150.4269 329.5580 269.2565
v 1150.5986 329.8135 269.2565
f 1744 1745 1746
v 1150.3015 329.2753 255.4901
v 1150.3042 329.2763 269.2566
v 1150.4269 329.5580 269.2565
f 1747 1748 1749
v 1150.2277 328.9764 255.4901
v 1150.2304 328.9774 269.2566
v 1150.3042 329.2763 269.2566
f 1750 1751 1752
v 1150.2069 328.6685 255.4901
v 1150.2095 328.6695 269.2566
v 1150.2304 328.9774 269.2566
f 1753 1754 1755
v 1150.2401 328.3624 255.4901
v 1150.2427 328.3635 269.2566
v 1150.2095 328.6695 269.2566
f 1756 1757 1758
v 1150.3263 328.0662 255.4901
v 1150.3289 328.0673 269.2566
v 1150.2427 328.3635 269.2566
f 1759 1760 1761
v 1150.4625 327.7898 255.4901
v 1150.4652 327.7909 269.2566
v 1150.3289 328.0673 269.2566
f 1762 1763 1764
v 1150.6449 327.5414 255.4901
v 1150.6475 327.5424 269.2566
v 1150.4652 327.7909 269.2566
f 1765 1766 1767
v 1150.8673 327.3287 255.4901
v 1150.8700 327.3298 269.2566
v 1150.6475 327.5424 269.2566
f 1768 1769 1770
v 1151.1228 327.1561 255.4900
v 1151.1255 327.1571 269.2565
v 1150.8700 327.3298 269.2566
f 1771 1772 1773
v 1151.4054 327.0333 255.4900
v 1151.4082 327.0343 269.2565
v 1151.1255 327.1571 269.2565
f 1774 1775 1776
v 1151.7053 326.9595 255.4899
v 1151.4082 327.0343 269.2565
v 1151.4054 327.0333 255.4900
f 1777 1778 1779
v 1152.0148 326.9397 269.2564
v 1151.7079 326.9606 269.2564
v 1151.7053 326.9595 255.4899
f 1780 1781 1782
v 1152.3210 326.9729 269.2563
v 1152.0148 326.9397 269.2564
v 1152.0122 326.9387 255.4899
f 1783 1784 1785
v 1152.6136 327.0591 255.4898
v 1152.3210 326.9729 269.2563
v 1152.3183 326.9719 255.4898
f 1786 1787 1788
v 1152.8909 327.1944 255.4897
v 1152.6162 327.0602 269.2563
v 1152.6136 327.0591 255.4898
f 1789 1790 1791
v 1153.1394 327.3777 255.4896
v 1152.8936 327.1954 269.2562
v 1152.8909 327.1944 255.4897
f 1792 1793 1794
v 1153.3530 327.5991 255.4896
v 1153.1420 327.3787 269.2561
v 1153.1394 327.3777 255.4896
f 1795 1796 1797
v 1153.5236 327.8546 255.4895
v 1153.3556 327.6001 269.2561
v 1153.3530 327.5991 255.4896
f 1798 1799 1800
v 1153.6484 328.1373 255.4895
v 1153.5263 327.8556 269.2560
v 1153.5236 327.8546 255.4895
f 1801 1802 1803
v 1153.7212 328.4370 255.4895
v 1153.6511 328.1383 269.2560
v 1153.6484 328.1373 255.4895
f 1804 1805 1806
v 1153.7410 328.7440 255.4895
v 1153.7238 328.4381 269.2560
v 1153.7212 328.4370 255.4895
f 1807 1808 1809
v 1153.7079 329.0511 255.4895
v 1153.7437 328.7451 269.2560
v 1153.7410 328.7440 255.4895
f 1810 1811 1812
v 1153.6227 329.3463 255.4895
v 1153.7105 329.0522 269.2560
v 1153.7079 329.0511 255.4895
f 1813 1814 1815
v 1153.4854 329.6227 255.4895
v 1153.6253 329.3473 269.2560
v 1153.6227 329.3463 255.4895
f 1816 1817 1818
v 1153.3041 329.8721 255.4895
v 1153.4881 329.6237 269.2560
v 1153.4854 329.6227 255.4895
f 1819 1820 1821
v 1153.0806 330.0848 255.4895
v 1153.3067 329.8732 269.2560
v 1153.3041 329.8721 255.4895
f 1822 1823 1824
v 1152.8251 330.2554 255.4895
v 1153.0833 330.0858 269.2560
v 1153.0806 330.0848 255.4895
f 1825 1826 1827
v 1152.5424 330.3802 255.4896
v 1152.8277 330.2565 269.2560
v 1152.8251 330.2554 255.4895
f 1828 1829 1830
v 1152.2446 330.4530 255.4896
v 1152.5451 330.3813 269.2561
v 1152.5424 330.3802 255.4896
f 1831 1832 1833
v 1151.9367 330.4728 255.4897
v 1152.2473 330.4540 269.2561
v 1152.2446 330.4530 255.4896
f 1834 1835 1836
v 1151.6306 330.4396 255.4898
v 1151.9394 330.4739 269.2562
v 1151.9367 330.4728 255.4897
f 1837 1838 1839
v 1151.3344 330.3544 255.4898
v 1151.6332 330.4407 269.2563
v 1151.6306 330.4396 255.4898
f 1840 1841 1842
v 1151.0570 330.2181 255.4899
v 1151.3370 330.3555 269.2563
v 1151.3344 330.3544 255.4898
f 1843 1844 1845
v 1150.8096 330.0359 255.4899
v 1151.0597 330.2192 269.2564
v 1151.0570 330.2181 255.4899
f 1846 1847 1848
v 1150.5959 329.8125 255.4900
v 1150.8122 330.0369 269.2564
v 1150.8096 330.0359 255.4899
f 1849 1850 1851
v 1150.4242 329.5569 255.4900
v 1150.5986 329.8135 269.2565
v 1150.5959 329.8125 255.4900
f 1852 1853 1854
v 1150.3015 329.2753 255.4901
v 1150.4269 329.5580 269.2565
v 1150.4242 329.5569 255.4900
f 1855 1856 1857
v 1150.2277 328.9764 255.4901
v 1150.3042 329.2763 269.2566
v 1150.3015 329.2753 255.4901
f 1858 1859 1860
v 1150.2069 328.6685 255.4901
v 1150.2304 328.9774 269.2566
v 1150.2277 328.9764 255.4901
f 1861 1862 1863
v 1150.2401 328.3624 255.4901
v 1150.2095 328.6695 269.2566
v 1150.2069 328.6685 255.4901
f 1864 1865 1866
v 1150.3263 328.0662 255.4901
v 1150.2427 328.3635 269.2566
v 1150.2401 328.3624 255.4901
f 1867 1868 1869
v 1150.4625 327.7898 255.4901
v 1150.3289 328.0673 269.2566
v 1150.3263 328.0662 255.4901
f 1870 1871 1872
v 1150.6449 327.5414 255.4901
v 1150.4652 327.7909 269.2566
v 1150.4625 327.7898 255.4901
f 1873 1874 1875
v 1150.8673 327.3287 255.4901
v 1150.6475 327.5424 269.2566
v 1150.6449 327.5414 255.4901
f 1876 1877 1878
v 1151.1228 327.1561 255.4900
v 1150.8700 327.3298 269.2566
v 1150.8673 327.3287 255.4901
f 1879 1880 1881
v 1151.4054 327.0333 255.4900
v 1151.1255 327.1571 269.2565
v 1151.1228 327.1561 255.4900
f 1882 1883 1884

g building_ID_4A59DB4D-AB4A-4653-8628-4FEBF53FE0F7
v 1140.4977 327.6786 256.7228
v 1144.5968 333.0066 256.7218
v 1145.1147 324.0273 256.7222
f 1885 1886 1887
v 1144.5968 333.0066 256.7218
v 1148.8091 329.7793 256.7212
v 1147.9923 328.7305 256.7214
f 1888 1889 1890
v 1145.1147 324.0273 256.7222
v 1147.9923 328.7305 256.7214
v 1148.4563 328.3692 256.7213
f 1891 1892 1893
v 1145.1147 324.0273 256.7222
v 1144.5968 333.0066 256.7218
v 1147.9923 328.7305 256.7214
f 1894 1895 1896
v 1142.8080 325.8530 263.7223
v 1142.5480 330.3426 263.5561
v 1140.4989 327.6791 263.5576
f 1897 1898 1899
v 1146.6289 331.4516 263.6973
v 1144.5981 333.0071 263.5546
v 1142.5480 330.3426 263.5561
f 1900 1901 1902
v 1142.5480 330.3426 263.5561
v 1147.9937 328.7311 263.8522
v 1146.6289 331.4516 263.6973
f 1903 1904 1905
v 1147.9937 328.7311 263.8522
v 1142.5480 330.3426 263.5561
v 1142.8080 325.8530 263.7223
f 1906 1907 1908
v 1142.8080 325.8530 263.7223
v 1146.8541 326.2861 263.8865
v 1147.9937 328.7311 263.8522
f 1909 1910 1911
v 1142.8080 325.8530 263.7223
v 1145.1162 324.0278 263.8870
v 1146.8541 326.2861 263.8865
f 1912 1913 1914
v 1148.4578 328.3698 263.8851
v 1147.9937 328.7311 263.8522
v 1146.8541 326.2861 263.8865
f 1915 1916 1917
v 1147.9937 328.7311 263.8522
v 1148.8105 329.7798 263.8520
v 1146.6289 331.4516 263.6973
f 1918 1919 1920
v 1140.4977 327.6786 256.7228
v 1144.5981 333.0071 263.5546
v 1144.5968 333.0066 256.7218
f 1921 1922 1923
v 1145.1147 324.0273 256.7222
v 1145.1162 324.0278 263.8870
v 1142.8080 325.8530 263.7223
f 1924 1925 1926
v 1142.8080 325.8530 263.7223
v 1140.4989 327.6791 263.5576
v 1140.4977 327.6786 256.7228
f 1927 1928 1929
v 1145.1147 324.0273 256.7222
v 1142.8080 325.8530 263.7223
v 1140.4977 327.6786 256.7228
f 1930 1931 1932
v 1148.4563 328.3692 256.7213
v 1148.4578 328.3698 263.8851
v 1146.8541 326.2861 263.8865
f 1933 1934 1935
v 1148.4563 328.3692 256.7213
v 1146.8541 326.2861 263.8865
v 1145.1162 324.0278 263.8870
f 1936 1937 1938
v 1148.4563 328.3692 256.7213
v 1145.1162 324.0278 263.8870
v 1145.1147 324.0273 256.7222
f 1939 1940 1941
v 1147.9923 328.7305 256.7214
v 1147.9937 328.7311 263.8522
v 1148.4563 328.3692 256.7213
f 1942 1943 1944
v 1148.4578 328.3698 263.8851
v 1148.4563 328.3692 256.7213
v 1147.9937 328.7311 263.8522
f 1945 1946 1947
v 1147.9937 328.7311 263.8522
v 1148.8091 329.7793 256.7212
v 1148.8105 329.7798 263.8520
f 1948 1949 1950
v 1147.9937 328.7311 263.8522
v 1147.9923 328.7305 256.7214
v 1148.8091 329.7793 256.7212
f 1951 1952 1953
v 1146.6289 331.4516 263.6973
v 1144.5968 333.0066 256.7218
v 1144.5981 333.0071 263.5546
f 1954 1955 1956
v 1148.8091 329.7793 256.7212
v 1146.6289 331.4516 263.6973
v 1148.8105 329.7798 263.8520
f 1957 1958 1959
v 1148.8091 329.7793 256.7212
v 1144.5968 333.0066 256.7218
v 1146.6289 331.4516 263.6973
f 1960 1961 1962
v 1140.4977 327.6786 256.7228
v 1142.5480 330.3426 263.5561
v 1144.5981 333.0071 263.5546
f 1963 1964 1965
v 1140.4977 327.6786 256.7228
v 1140.4989 327.6791 263.5576
v 1142.5480 330.3426 263.5561
f 1966 1967 1968

g building_ID_FF369900-7159-4168-A1F6-F68ED873F21D
v 1156.9288 343.9642 255.4111
v 1156.0327 330.1429 255.4120
v 1149.9405 334.8560 255.4128
f 1969 1970 1971
v 1156.9288 343.9642 255.4111
v 1163.0180 339.2440 255.4102
v 1156.0327 330.1429 255.4120
f 1972 1973 1974
v 1156.9306 343.9649 264.8848
v 1156.0347 330.1436 265.6326
v 1163.0200 339.2448 265.6228
f 1975 1976 1977
v 1156.9306 343.9649 264.8848
v 1149.9422 334.8569 264.8945
v 1156.0347 330.1436 265.6326
f 1978 1979 1980
v 1156.9288 343.9642 255.4111
v 1156.9306 343.9649 264.8848
v 1163.0180 339.2440 255.4102
f 1981 1982 1983
v 1149.9405 334.8560 255.4128
v 1156.0347 330.1436 265.6326
v 1149.9422 334.8569 264.8945
f 1984 1985 1986
v 1163.0200 339.2448 265.6228
v 1156.0327 330.1429 255.4120
v 1163.0180 339.2440 255.4102
f 1987 1988 1989
v 1163.0180 339.2440 255.4102
v 1156.9306 343.9649 264.8848
v 1163.0200 339.2448 265.6228
f 1990 1991 1992
v 1149.9422 334.8569 264.8945
v 1156.9306 343.9649 264.8848
v 1149.9405 334.8560 255.4128
f 1993 1994 1995
v 1149.9405 334.8560 255.4128
v 1156.9306 343.9649 264.8848
v 1156.9288 343.9642 255.4111
f 1996 1997 1998
v 1149.9405 334.8560 255.4128
v 1156.0327 330.1429 255.4120
v 1156.0347 330.1436 265.6326
f 1999 2000 2001
v 1163.0200 339.2448 265.6228
v 1156.0347 330.1436 265.6326
v 1156.0327 330.1429 255.4120
f 2002 2003 2004

g building_ID_C8343A41-C8D5-42D2-98F8-EB555DD32A9D
v 1166.6377 343.9973 255.3943
v 1163.2227 339.5245 255.3952
v 1157.1025 344.2397 255.3960
f 2005 2006 2007
v 1166.6377 343.9973 255.3943
v 1157.1025 344.2397 255.3960
v 1160.5274 348.6985 255.3952
f 2008 2009 2010
v 1163.2244 339.5251 264.0859
v 1160.5288 348.6991 262.9709
v 1157.1039 344.2404 262.9777
f 2011 2012 2013
v 1163.2244 339.5251 264.0859
v 1166.6394 343.9979 264.0770
v 1160.5288 348.6991 262.9709
f 2014 2015 2016
v 1160.5288 348.6991 262.9709
v 1166.6394 343.9979 264.0770
v 1160.5274 348.6985 255.3952
f 2017 2018 2019
v 1166.6394 343.9979 264.0770
v 1166.6377 343.9973 255.3943
v 1160.5274 348.6985 255.3952
f 2020 2021 2022
v 1163.2227 339.5245 255.3952
v 1163.2244 339.5251 264.0859
v 1157.1025 344.2397 255.3960
f 2023 2024 2025
v 1163.2227 339.5245 255.3952
v 1166.6377 343.9973 255.3943
v 1166.6394 343.9979 264.0770
f 2026 2027 2028
v 1160.5274 348.6985 255.3952
v 1157.1025 344.2397 255.3960
v 1160.5288 348.6991 262.9709
f 2029 2030 2031
v 1157.1039 344.2404 262.9777
v 1160.5288 348.6991 262.9709
v 1157.1025 344.2397 255.3960
f 2032 2033 2034
v 1163.2244 339.5251 264.0859
v 1157.1039 344.2404 262.9777
v 1157.1025 344.2397 255.3960
f 2035 2036 2037
v 1166.6394 343.9979 264.0770
v 1163.2244 339.5251 264.0859
v 1163.2227 339.5245 255.3952
f 2038 2039 2040
