# Grid Center: 2617800, 1263200
# Global Anchor: 7.64977475454284, 47.53283995868075, 0.0

g building_ID_1693254C-5C83-4A0A-83DF-42A69EF1594F
v 1922.9945 -1697.6029 351.2942
v 1920.6290 -1700.3946 351.2941
v 1914.3517 -1695.2488 351.2975
f 1 2 3
v 1926.2100 -1693.6805 351.2942
v 1922.9945 -1697.6029 351.2942
v 1919.8858 -1688.4976 351.2976
f 4 5 6
v 1914.3517 -1695.2488 351.2975
v 1919.8858 -1688.4976 351.2976
v 1922.9945 -1697.6029 351.2942
f 7 8 9
v 1922.9975 -1697.6053 360.8519
v 1926.2130 -1693.6828 360.8519
v 1919.8888 -1688.4999 360.8552
f 10 11 12
v 1920.6320 -1700.3969 360.8518
v 1922.9975 -1697.6053 360.8519
v 1914.3548 -1695.2511 360.8551
f 13 14 15
v 1919.8888 -1688.4999 360.8552
v 1914.3548 -1695.2511 360.8551
v 1922.9975 -1697.6053 360.8519
f 16 17 18
v 1926.2100 -1693.6805 351.2942
v 1926.2130 -1693.6828 360.8519
v 1922.9975 -1697.6053 360.8519
f 19 20 21
v 1919.8858 -1688.4976 351.2976
v 1919.8888 -1688.4999 360.8552
v 1926.2130 -1693.6828 360.8519
f 22 23 24
v 1914.3517 -1695.2488 351.2975
v 1914.3548 -1695.2511 360.8551
v 1919.8888 -1688.4999 360.8552
f 25 26 27
v 1920.6290 -1700.3946 351.2941
v 1920.6320 -1700.3969 360.8518
v 1914.3548 -1695.2511 360.8551
f 28 29 30
v 1922.9945 -1697.6029 351.2942
v 1922.9975 -1697.6053 360.8519
v 1920.6320 -1700.3969 360.8518
f 31 32 33
v 1926.2100 -1693.6805 351.2942
v 1922.9975 -1697.6053 360.8519
v 1922.9945 -1697.6029 351.2942
f 34 35 36
v 1919.8858 -1688.4976 351.2976
v 1926.2130 -1693.6828 360.8519
v 1926.2100 -1693.6805 351.2942
f 37 38 39
v 1914.3517 -1695.2488 351.2975
v 1919.8888 -1688.4999 360.8552
v 1919.8858 -1688.4976 351.2976
f 40 41 42
v 1920.6290 -1700.3946 351.2941
v 1914.3548 -1695.2511 360.8551
v 1914.3517 -1695.2488 351.2975
f 43 44 45
v 1922.9945 -1697.6029 351.2942
v 1920.6320 -1700.3969 360.8518
v 1920.6290 -1700.3946 351.2941
f 46 47 48

g building_ID_BE353FE1-C05C-467D-9137-6FD9DBFC892D
v 1763.5334 -1351.4523 282.8313
v 1758.8424 -1351.4528 282.8326
v 1759.4938 -1349.8235 282.8328
f 49 50 51
v 1755.2793 -1350.0272 282.8339
v 1755.9337 -1348.3870 282.8340
v 1758.8424 -1351.4528 282.8326
f 52 53 54
v 1759.4938 -1349.8235 282.8328
v 1758.8424 -1351.4528 282.8326
v 1755.9337 -1348.3870 282.8340
f 55 56 57
v 1756.4625 -1357.4024 282.8320
v 1763.5334 -1351.4523 282.8313
v 1758.4815 -1364.4976 282.8299
f 58 59 60
v 1754.2840 -1362.8425 282.8314
v 1756.4625 -1357.4024 282.8320
v 1758.4815 -1364.4976 282.8299
f 61 62 63
v 1758.8424 -1351.4528 282.8326
v 1763.5334 -1351.4523 282.8313
v 1756.4625 -1357.4024 282.8320
f 64 65 66
v 1761.0116 -1357.9778 295.3952
v 1754.2882 -1362.8453 297.5559
v 1758.4851 -1364.5000 295.3565
f 67 68 69
v 1759.4980 -1349.8262 297.5573
v 1761.0116 -1357.9778 295.3952
v 1763.5371 -1351.4547 295.4339
f 70 71 72
v 1754.2882 -1362.8453 297.5559
v 1761.0116 -1357.9778 295.3952
v 1759.4980 -1349.8262 297.5573
f 73 74 75
v 1752.4564 -1355.7999 295.3770
v 1759.4980 -1349.8262 297.5573
v 1754.9336 -1350.9047 295.6204
f 76 77 78
v 1755.9373 -1348.3894 295.6196
v 1754.9336 -1350.9047 295.6204
v 1759.4980 -1349.8262 297.5573
f 79 80 81
v 1754.9336 -1350.9047 295.6204
v 1754.4870 -1350.7245 295.3775
v 1752.4564 -1355.7999 295.3770
f 82 83 84
v 1751.0949 -1360.8933 295.6933
v 1752.4564 -1355.7999 295.3770
v 1750.5124 -1360.6577 295.3765
f 85 86 87
v 1754.2882 -1362.8453 297.5559
v 1751.0949 -1360.8933 295.6933
v 1750.8533 -1361.4897 295.6922
f 88 89 90
v 1752.4564 -1355.7999 295.3770
v 1751.0949 -1360.8933 295.6933
v 1754.2882 -1362.8453 297.5559
f 91 92 93
v 1759.4980 -1349.8262 297.5573
v 1752.4564 -1355.7999 295.3770
v 1754.2882 -1362.8453 297.5559
f 94 95 96
v 1758.4851 -1364.5000 295.3565
v 1763.5334 -1351.4523 282.8313
v 1761.0116 -1357.9778 295.3952
f 97 98 99
v 1763.5334 -1351.4523 282.8313
v 1758.4851 -1364.5000 295.3565
v 1758.4815 -1364.4976 282.8299
f 100 101 102
v 1751.0912 -1360.8909 282.8007
v 1742.9940 -1357.6122 282.8036
v 1744.7751 -1352.7260 282.8043
f 103 104 105
v 1746.6570 -1347.5601 282.8049
v 1754.9299 -1350.9022 282.8018
v 1744.7751 -1352.7260 282.8043
f 106 107 108
v 1754.9299 -1350.9022 282.8018
v 1751.0912 -1360.8909 282.8007
v 1744.7751 -1352.7260 282.8043
f 109 110 111
v 1754.9299 -1350.9022 282.8018
v 1755.2793 -1350.0272 282.8019
v 1758.8424 -1351.4527 282.8006
f 112 113 114
v 1754.9299 -1350.9022 282.8018
v 1756.4625 -1357.4024 282.8000
v 1751.0912 -1360.8909 282.8007
f 115 116 117
v 1754.2839 -1362.8424 282.7994
v 1750.8496 -1361.4872 282.8007
v 1751.0912 -1360.8909 282.8007
f 118 119 120
v 1756.4625 -1357.4024 282.8000
v 1754.2839 -1362.8424 282.7994
v 1751.0912 -1360.8909 282.8007
f 121 122 123
v 1758.8424 -1351.4527 282.8006
v 1756.4625 -1357.4024 282.8000
v 1754.9299 -1350.9022 282.8018
f 124 125 126
v 1742.9967 -1357.6140 291.8973
v 1750.5115 -1360.6570 291.8826
v 1752.4560 -1355.7997 293.8610
f 127 128 129
v 1752.4560 -1355.7997 293.8610
v 1744.7783 -1352.7282 293.8638
v 1742.9967 -1357.6140 291.8973
f 130 131 132
v 1754.4860 -1350.7238 291.9196
v 1746.6595 -1347.5618 291.9125
v 1744.7783 -1352.7282 293.8638
f 133 134 135
v 1744.7783 -1352.7282 293.8638
v 1752.4560 -1355.7997 293.8610
v 1754.4860 -1350.7238 291.9196
f 136 137 138
v 1755.2793 -1350.0272 282.8019
v 1755.2793 -1350.0272 282.8339
v 1758.8424 -1351.4528 282.8326
f 139 140 141
v 1763.5361 -1351.4541 292.2840
v 1755.9373 -1348.3894 295.6196
v 1759.4980 -1349.8262 297.5573
f 142 143 144
v 1755.9373 -1348.3894 295.6196
v 1763.5352 -1351.4535 289.1331
v 1755.9337 -1348.3870 282.8340
f 145 146 147
v 1763.5371 -1351.4547 295.4339
v 1763.5361 -1351.4541 292.2840
v 1759.4980 -1349.8262 297.5573
f 148 149 150
v 1755.9337 -1348.3870 282.8340
v 1763.5352 -1351.4535 289.1331
v 1759.4938 -1349.8235 282.8328
f 151 152 153
v 1763.5334 -1351.4523 282.8313
v 1759.4938 -1349.8235 282.8328
v 1763.5352 -1351.4535 289.1331
f 154 155 156
v 1763.5361 -1351.4541 292.2840
v 1763.5352 -1351.4535 289.1331
v 1755.9373 -1348.3894 295.6196
f 157 158 159
v 1750.5115 -1360.6570 291.8826
v 1750.5124 -1360.6577 295.3765
v 1752.4560 -1355.7997 293.8610
f 160 161 162
v 1752.4564 -1355.7999 295.3770
v 1752.4560 -1355.7997 293.8610
v 1750.5124 -1360.6577 295.3765
f 163 164 165
v 1752.4560 -1355.7997 293.8610
v 1754.4870 -1350.7245 295.3775
v 1754.4860 -1350.7238 291.9196
f 166 167 168
v 1752.4564 -1355.7999 295.3770
v 1754.4870 -1350.7245 295.3775
v 1752.4560 -1355.7997 293.8610
f 169 170 171
v 1750.5115 -1360.6570 291.8826
v 1751.0949 -1360.8933 295.6933
v 1750.5124 -1360.6577 295.3765
f 172 173 174
v 1742.9940 -1357.6122 282.8036
v 1751.0938 -1360.8926 291.8814
v 1750.5115 -1360.6570 291.8826
f 175 176 177
v 1751.0949 -1360.8933 295.6933
v 1750.5115 -1360.6570 291.8826
v 1751.0938 -1360.8926 291.8814
f 178 179 180
v 1751.0938 -1360.8926 291.8814
v 1742.9940 -1357.6122 282.8036
v 1751.0912 -1360.8909 282.8007
f 181 182 183
v 1742.9967 -1357.6140 291.8973
v 1742.9940 -1357.6122 282.8036
v 1750.5115 -1360.6570 291.8826
f 184 185 186
v 1751.0912 -1360.8909 282.8007
v 1750.8496 -1361.4872 282.8007
v 1750.8533 -1361.4897 295.6922
f 187 188 189
v 1750.8533 -1361.4897 295.6922
v 1751.0949 -1360.8933 295.6933
v 1751.0938 -1360.8926 291.8814
f 190 191 192
v 1751.0938 -1360.8926 291.8814
v 1751.0912 -1360.8909 282.8007
v 1750.8533 -1361.4897 295.6922
f 193 194 195
v 1754.9299 -1350.9022 282.8018
v 1746.6570 -1347.5601 282.8049
v 1746.6595 -1347.5618 291.9125
f 196 197 198
v 1754.9299 -1350.9022 282.8018
v 1746.6595 -1347.5618 291.9125
v 1754.4860 -1350.7238 291.9196
f 199 200 201
v 1754.9299 -1350.9022 282.8018
v 1754.4860 -1350.7238 291.9196
v 1754.9336 -1350.9047 295.6204
f 202 203 204
v 1754.4870 -1350.7245 295.3775
v 1754.9336 -1350.9047 295.6204
v 1754.4860 -1350.7238 291.9196
f 205 206 207
v 1744.7751 -1352.7260 282.8043
v 1742.9940 -1357.6122 282.8036
v 1742.9967 -1357.6140 291.8973
f 208 209 210
v 1744.7783 -1352.7282 293.8638
v 1744.7751 -1352.7260 282.8043
v 1742.9967 -1357.6140 291.8973
f 211 212 213
v 1746.6570 -1347.5601 282.8049
v 1744.7783 -1352.7282 293.8638
v 1746.6595 -1347.5618 291.9125
f 214 215 216
v 1744.7751 -1352.7260 282.8043
v 1744.7783 -1352.7282 293.8638
v 1746.6570 -1347.5601 282.8049
f 217 218 219
v 1758.4815 -1364.4976 282.8299
v 1758.4851 -1364.5000 295.3565
v 1754.2840 -1362.8425 282.8314
f 220 221 222
v 1754.2882 -1362.8453 297.5559
v 1754.2840 -1362.8425 282.8314
v 1758.4851 -1364.5000 295.3565
f 223 224 225
v 1754.2840 -1362.8425 282.8314
v 1754.2882 -1362.8453 297.5559
v 1750.8533 -1361.4897 295.6922
f 226 227 228
v 1750.8496 -1361.4872 282.8007
v 1754.2840 -1362.8425 282.8314
v 1750.8533 -1361.4897 295.6922
f 229 230 231
v 1754.2840 -1362.8425 282.8314
v 1750.8496 -1361.4872 282.8007
v 1754.2839 -1362.8424 282.7994
f 232 233 234
v 1754.9336 -1350.9047 295.6204
v 1755.2793 -1350.0272 282.8339
v 1754.9299 -1350.9022 282.8018
f 235 236 237
v 1755.2793 -1350.0272 282.8339
v 1754.9336 -1350.9047 295.6204
v 1755.9373 -1348.3894 295.6196
f 238 239 240
v 1755.9373 -1348.3894 295.6196
v 1755.9337 -1348.3870 282.8340
v 1755.2793 -1350.0272 282.8339
f 241 242 243
v 1755.2793 -1350.0272 282.8339
v 1755.2793 -1350.0272 282.8019
v 1754.9299 -1350.9022 282.8018
f 244 245 246
v 1756.4625 -1357.4024 282.8000
v 1758.8424 -1351.4527 282.8006
v 1758.8424 -1351.4528 282.8326
f 247 248 249
v 1756.4625 -1357.4024 282.8320
v 1756.4625 -1357.4024 282.8000
v 1758.8424 -1351.4528 282.8326
f 250 251 252
v 1756.4625 -1357.4024 282.8000
v 1756.4625 -1357.4024 282.8320
v 1754.2839 -1362.8424 282.7994
f 253 254 255
v 1754.2840 -1362.8425 282.8314
v 1754.2839 -1362.8424 282.7994
v 1756.4625 -1357.4024 282.8320
f 256 257 258
v 1763.5361 -1351.4541 292.2840
v 1763.5371 -1351.4547 295.4339
v 1761.0116 -1357.9778 295.3952
f 259 260 261
v 1761.0116 -1357.9778 295.3952
v 1763.5352 -1351.4535 289.1331
v 1763.5361 -1351.4541 292.2840
f 262 263 264
v 1763.5352 -1351.4535 289.1331
v 1761.0116 -1357.9778 295.3952
v 1763.5334 -1351.4523 282.8313
f 265 266 267
v 1755.2793 -1350.0272 282.8019
v 1758.8424 -1351.4528 282.8326
v 1758.8424 -1351.4527 282.8006
f 268 269 270

g building_ID_E5C777D0-6786-44D8-B047-494745E57717
v 1809.8407 -1387.6357 291.8472
v 1812.4326 -1380.9568 291.8479
v 1797.9070 -1382.3278 291.8517
f 271 272 273
v 1799.5134 -1375.8212 291.8527
v 1797.9070 -1382.3278 291.8517
v 1812.4326 -1380.9568 291.8479
f 274 275 276
v 1797.6685 -1382.9142 291.8516
v 1809.8407 -1387.6357 291.8472
v 1797.9070 -1382.3278 291.8517
f 277 278 279
v 1799.5134 -1375.8212 291.8527
v 1797.1129 -1382.0058 291.8520
v 1797.9070 -1382.3278 291.8517
f 280 281 282
v 1797.1687 -1381.8541 282.8043
v 1797.1103 -1382.0039 282.8043
v 1797.1709 -1381.8556 290.4291
f 283 284 285
v 1797.1129 -1382.0058 291.8520
v 1797.1709 -1381.8556 290.4291
v 1797.1103 -1382.0039 282.8043
f 286 287 288
v 1799.5130 -1375.8209 290.4298
v 1797.1709 -1381.8556 290.4291
v 1799.5134 -1375.8212 291.8527
f 289 290 291
v 1797.1129 -1382.0058 291.8520
v 1799.5134 -1375.8212 291.8527
v 1797.1709 -1381.8556 290.4291
f 292 293 294
v 1797.9044 -1382.3261 282.8040
v 1797.9070 -1382.3278 291.8517
v 1797.1129 -1382.0058 291.8520
f 295 296 297
v 1797.6658 -1382.9125 282.8039
v 1797.6685 -1382.9142 291.8516
v 1797.9070 -1382.3278 291.8517
f 298 299 300
v 1809.8381 -1387.6340 282.7995
v 1809.8407 -1387.6357 291.8472
v 1797.6685 -1382.9142 291.8516
f 301 302 303
v 1812.4300 -1380.9550 282.8002
v 1812.4326 -1380.9568 291.8479
v 1809.8407 -1387.6357 291.8472
f 304 305 306
v 1767.9308 -1373.7039 282.8143
v 1767.9330 -1373.7053 290.4390
v 1771.4657 -1364.8179 290.4400
f 307 308 309
v 1771.3910 -1375.0791 282.8131
v 1771.3932 -1375.0806 290.4378
v 1767.9330 -1373.7053 290.4390
f 310 311 312
v 1778.5336 -1377.8492 282.8105
v 1778.5358 -1377.8507 290.4352
v 1771.3932 -1375.0806 290.4378
f 313 314 315
v 1779.6201 -1375.0471 282.8108
v 1779.6223 -1375.0487 290.4355
v 1778.5358 -1377.8507 290.4352
f 316 317 318
v 1779.7509 -1375.0976 282.8107
v 1779.7531 -1375.0990 290.4354
v 1779.6223 -1375.0487 290.4355
f 319 320 321
v 1779.7983 -1374.9777 282.8108
v 1779.8005 -1374.9791 290.4355
v 1779.7531 -1375.0990 290.4354
f 322 323 324
v 1787.5058 -1378.1062 282.8079
v 1787.5080 -1378.1078 290.4326
v 1779.8005 -1374.9791 290.4355
f 325 326 327
v 1771.4636 -1364.8164 282.8153
v 1771.4657 -1364.8179 290.4400
v 1786.7637 -1370.7528 290.4344
f 328 329 330
v 1787.5080 -1378.1078 290.4326
v 1799.5130 -1375.8209 290.4298
v 1786.7637 -1370.7528 290.4344
f 331 332 333
v 1797.1709 -1381.8556 290.4291
v 1799.5130 -1375.8209 290.4298
v 1787.5080 -1378.1078 290.4326
f 334 335 336
v 1779.8005 -1374.9791 290.4355
v 1787.5080 -1378.1078 290.4326
v 1786.7637 -1370.7528 290.4344
f 337 338 339
v 1779.8005 -1374.9791 290.4355
v 1786.7637 -1370.7528 290.4344
v 1771.4657 -1364.8179 290.4400
f 340 341 342
v 1779.7531 -1375.0990 290.4354
v 1779.8005 -1374.9791 290.4355
v 1779.6223 -1375.0487 290.4355
f 343 344 345
v 1767.9330 -1373.7053 290.4390
v 1779.8005 -1374.9791 290.4355
v 1771.4657 -1364.8179 290.4400
f 346 347 348
v 1779.6223 -1375.0487 290.4355
v 1779.8005 -1374.9791 290.4355
v 1767.9330 -1373.7053 290.4390
f 349 350 351
v 1778.5358 -1377.8507 290.4352
v 1779.6223 -1375.0487 290.4355
v 1771.3932 -1375.0806 290.4378
f 352 353 354
v 1767.9330 -1373.7053 290.4390
v 1771.3932 -1375.0806 290.4378
v 1779.6223 -1375.0487 290.4355
f 355 356 357
v 1797.1687 -1381.8541 282.8043
v 1797.1709 -1381.8556 290.4291
v 1787.5080 -1378.1078 290.4326
f 358 359 360
v 1779.7983 -1374.9777 282.8108
v 1767.9308 -1373.7039 282.8143
v 1771.4636 -1364.8164 282.8153
f 361 362 363
v 1786.7615 -1370.7514 282.8097
v 1779.7983 -1374.9777 282.8108
v 1771.4636 -1364.8164 282.8153
f 364 365 366
v 1779.7509 -1375.0976 282.8107
v 1779.6201 -1375.0471 282.8108
v 1779.7983 -1374.9777 282.8108
f 367 368 369
v 1779.6201 -1375.0471 282.8108
v 1771.3910 -1375.0791 282.8131
v 1767.9308 -1373.7039 282.8143
f 370 371 372
v 1771.3910 -1375.0791 282.8131
v 1779.6201 -1375.0471 282.8108
v 1778.5336 -1377.8492 282.8105
f 373 374 375
v 1779.6201 -1375.0471 282.8108
v 1767.9308 -1373.7039 282.8143
v 1779.7983 -1374.9777 282.8108
f 376 377 378
v 1786.7615 -1370.7514 282.8097
v 1787.5058 -1378.1062 282.8079
v 1779.7983 -1374.9777 282.8108
f 379 380 381
v 1787.5058 -1378.1062 282.8079
v 1812.4300 -1380.9550 282.8002
v 1797.1687 -1381.8541 282.8043
f 382 383 384
v 1809.8381 -1387.6340 282.7995
v 1797.1687 -1381.8541 282.8043
v 1812.4300 -1380.9550 282.8002
f 385 386 387
v 1809.8381 -1387.6340 282.7995
v 1797.6658 -1382.9125 282.8039
v 1797.9044 -1382.3261 282.8040
f 388 389 390
v 1797.1687 -1381.8541 282.8043
v 1809.8381 -1387.6340 282.7995
v 1797.9044 -1382.3261 282.8040
f 391 392 393
v 1797.1103 -1382.0039 282.8043
v 1797.1687 -1381.8541 282.8043
v 1797.9044 -1382.3261 282.8040
f 394 395 396
v 1786.7615 -1370.7514 282.8097
v 1812.4300 -1380.9550 282.8002
v 1787.5058 -1378.1062 282.8079
f 397 398 399
v 1786.7637 -1370.7528 290.4344
v 1799.5130 -1375.8209 290.4298
v 1786.7615 -1370.7514 282.8097
f 400 401 402
v 1812.4326 -1380.9568 291.8479
v 1812.4300 -1380.9550 282.8002
v 1799.5130 -1375.8209 290.4298
f 403 404 405
v 1799.5134 -1375.8212 291.8527
v 1812.4326 -1380.9568 291.8479
v 1799.5130 -1375.8209 290.4298
f 406 407 408
v 1797.9044 -1382.3261 282.8040
v 1797.1129 -1382.0058 291.8520
v 1797.1103 -1382.0039 282.8043
f 409 410 411
v 1797.6658 -1382.9125 282.8039
v 1797.9070 -1382.3278 291.8517
v 1797.9044 -1382.3261 282.8040
f 412 413 414
v 1809.8381 -1387.6340 282.7995
v 1797.6685 -1382.9142 291.8516
v 1797.6658 -1382.9125 282.8039
f 415 416 417
v 1812.4300 -1380.9550 282.8002
v 1809.8407 -1387.6357 291.8472
v 1809.8381 -1387.6340 282.7995
f 418 419 420
v 1767.9308 -1373.7039 282.8143
v 1771.4657 -1364.8179 290.4400
v 1771.4636 -1364.8164 282.8153
f 421 422 423
v 1771.3910 -1375.0791 282.8131
v 1767.9330 -1373.7053 290.4390
v 1767.9308 -1373.7039 282.8143
f 424 425 426
v 1778.5336 -1377.8492 282.8105
v 1771.3932 -1375.0806 290.4378
v 1771.3910 -1375.0791 282.8131
f 427 428 429
v 1779.6201 -1375.0471 282.8108
v 1778.5358 -1377.8507 290.4352
v 1778.5336 -1377.8492 282.8105
f 430 431 432
v 1779.7509 -1375.0976 282.8107
v 1779.6223 -1375.0487 290.4355
v 1779.6201 -1375.0471 282.8108
f 433 434 435
v 1779.7983 -1374.9777 282.8108
v 1779.7531 -1375.0990 290.4354
v 1779.7509 -1375.0976 282.8107
f 436 437 438
v 1787.5058 -1378.1062 282.8079
v 1779.8005 -1374.9791 290.4355
v 1779.7983 -1374.9777 282.8108
f 439 440 441
v 1771.4636 -1364.8164 282.8153
v 1786.7637 -1370.7528 290.4344
v 1786.7615 -1370.7514 282.8097
f 442 443 444
v 1797.1687 -1381.8541 282.8043
v 1787.5080 -1378.1078 290.4326
v 1787.5058 -1378.1062 282.8079
f 445 446 447
v 1799.5130 -1375.8209 290.4298
v 1812.4300 -1380.9550 282.8002
v 1786.7615 -1370.7514 282.8097
f 448 449 450

g building_ID_F74BE70B-6357-4CBD-85AC-91245CF1812D
v 1817.5966 -1345.9731 282.9063
v 1823.2943 -1341.9574 282.9055
v 1827.2820 -1343.5371 282.9041
f 451 452 453
v 1823.2943 -1341.9574 282.9055
v 1817.5966 -1345.9731 282.9063
v 1817.1829 -1339.5382 282.9078
f 454 455 456
v 1817.1829 -1339.5382 282.9078
v 1817.5966 -1345.9731 282.9063
v 1815.0363 -1344.9504 282.9073
f 457 458 459
v 1817.5966 -1345.9731 282.9063
v 1823.7766 -1352.3147 282.9032
v 1819.7559 -1350.7079 282.9047
f 460 461 462
v 1817.5966 -1345.9731 282.9063
v 1819.7559 -1350.7079 282.9047
v 1816.2637 -1349.3126 282.9060
f 463 464 465
v 1827.2820 -1343.5371 282.9041
v 1823.7766 -1352.3147 282.9032
v 1817.5966 -1345.9731 282.9063
f 466 467 468
v 1819.7590 -1350.7099 293.5583
v 1817.5993 -1345.9749 292.0759
v 1816.2664 -1349.3143 292.0816
f 469 470 471
v 1817.5993 -1345.9749 292.0759
v 1817.1852 -1339.5396 290.9795
v 1815.0388 -1344.9518 290.9940
f 472 473 474
v 1819.7590 -1350.7099 293.5583
v 1823.2975 -1341.9595 293.5591
v 1817.5993 -1345.9749 292.0759
f 475 476 477
v 1817.5993 -1345.9749 292.0759
v 1823.2975 -1341.9595 293.5591
v 1817.1852 -1339.5396 290.9795
f 478 479 480
v 1825.5319 -1347.9270 291.5402
v 1819.7590 -1350.7099 293.5583
v 1823.7791 -1352.3163 291.5298
f 481 482 483
v 1825.5319 -1347.9270 291.5402
v 1827.2847 -1343.5387 291.5497
v 1823.2975 -1341.9595 293.5591
f 484 485 486
v 1819.7590 -1350.7099 293.5583
v 1825.5319 -1347.9270 291.5402
v 1823.2975 -1341.9595 293.5591
f 487 488 489
v 1817.1852 -1339.5396 290.9795
v 1815.0363 -1344.9504 282.9073
v 1815.0388 -1344.9518 290.9940
f 490 491 492
v 1817.1829 -1339.5382 282.9078
v 1815.0363 -1344.9504 282.9073
v 1817.1852 -1339.5396 290.9795
f 493 494 495
v 1817.5966 -1345.9731 282.9063
v 1815.0388 -1344.9518 290.9940
v 1815.0363 -1344.9504 282.9073
f 496 497 498
v 1817.5966 -1345.9731 282.9063
v 1816.2664 -1349.3143 292.0816
v 1817.5993 -1345.9749 292.0759
f 499 500 501
v 1816.2664 -1349.3143 292.0816
v 1817.5966 -1345.9731 282.9063
v 1816.2650 -1349.3134 287.4938
f 502 503 504
v 1816.2637 -1349.3126 282.9060
v 1816.2650 -1349.3134 287.4938
v 1817.5966 -1345.9731 282.9063
f 505 506 507
v 1827.2820 -1343.5371 282.9041
v 1827.2847 -1343.5387 291.5497
v 1825.5319 -1347.9270 291.5402
f 508 509 510
v 1827.2820 -1343.5371 282.9041
v 1823.7776 -1352.3153 286.1260
v 1823.7766 -1352.3147 282.9032
f 511 512 513
v 1823.2943 -1341.9574 282.9055
v 1817.1829 -1339.5382 282.9078
v 1817.1852 -1339.5396 290.9795
f 514 515 516
v 1823.2943 -1341.9574 282.9055
v 1817.1852 -1339.5396 290.9795
v 1823.2975 -1341.9595 293.5591
f 517 518 519
v 1827.2820 -1343.5371 282.9041
v 1823.2975 -1341.9595 293.5591
v 1827.2847 -1343.5387 291.5497
f 520 521 522
v 1823.2975 -1341.9595 293.5591
v 1827.2820 -1343.5371 282.9041
v 1823.2943 -1341.9574 282.9055
f 523 524 525
v 1816.2664 -1349.3143 292.0816
v 1823.7776 -1352.3153 286.1260
v 1823.7791 -1352.3163 291.5298
f 526 527 528
v 1819.7559 -1350.7079 282.9047
v 1823.7766 -1352.3147 282.9032
v 1823.7776 -1352.3153 286.1260
f 529 530 531
v 1823.7791 -1352.3163 291.5298
v 1819.7590 -1350.7099 293.5583
v 1816.2664 -1349.3143 292.0816
f 532 533 534
v 1823.7776 -1352.3153 286.1260
v 1816.2650 -1349.3134 287.4938
v 1819.7559 -1350.7079 282.9047
f 535 536 537
v 1816.2664 -1349.3143 292.0816
v 1816.2650 -1349.3134 287.4938
v 1823.7776 -1352.3153 286.1260
f 538 539 540
v 1816.2650 -1349.3134 287.4938
v 1816.2637 -1349.3126 282.9060
v 1819.7559 -1350.7079 282.9047
f 541 542 543
v 1815.0388 -1344.9518 290.9940
v 1817.5966 -1345.9731 282.9063
v 1817.5993 -1345.9749 292.0759
f 544 545 546
v 1827.2820 -1343.5371 282.9041
v 1825.5319 -1347.9270 291.5402
v 1823.7791 -1352.3163 291.5298
f 547 548 549
v 1823.7776 -1352.3153 286.1260
v 1827.2820 -1343.5371 282.9041
v 1823.7791 -1352.3163 291.5298
f 550 551 552

g building_ID_B7779542-143D-4E96-9D87-7C1B1BF2CB9E
v 1818.9637 -1417.9641 292.6898
v 1828.4885 -1421.7766 292.6862
v 1824.3360 -1406.2796 292.6909
f 553 554 555
v 1824.4759 -1405.9300 292.6909
v 1824.3360 -1406.2796 292.6909
v 1835.1124 -1410.1884 292.6869
f 556 557 558
v 1828.4885 -1421.7766 292.6862
v 1835.1124 -1410.1884 292.6869
v 1824.3360 -1406.2796 292.6909
f 559 560 561
v 1822.3169 -1442.1529 292.6834
v 1835.1124 -1410.1884 292.6869
v 1828.4885 -1421.7766 292.6862
f 562 563 564
v 1818.9637 -1417.9641 292.6898
v 1824.3360 -1406.2796 292.6909
v 1815.7183 -1402.8286 292.6941
f 565 566 567
v 1814.2472 -1429.7464 292.6885
v 1818.9637 -1417.9641 292.6898
v 1803.2085 -1434.5028 292.6906
f 568 569 570
v 1815.7183 -1402.8286 292.6941
v 1803.2085 -1434.5028 292.6906
v 1818.9637 -1417.9641 292.6898
f 571 572 573
v 1822.3169 -1442.1529 292.6834
v 1823.7719 -1433.5589 292.6849
v 1814.2472 -1429.7464 292.6885
f 574 575 576
v 1803.2085 -1434.5028 292.6906
v 1822.3169 -1442.1529 292.6834
v 1814.2472 -1429.7464 292.6885
f 577 578 579
v 1828.4885 -1421.7766 292.6862
v 1823.7719 -1433.5589 292.6849
v 1822.3169 -1442.1529 292.6834
f 580 581 582
v 1822.3141 -1442.1510 283.0807
v 1822.3169 -1442.1529 292.6834
v 1803.2085 -1434.5028 292.6906
f 583 584 585
v 1824.4770 -1405.9307 296.3898
v 1835.1145 -1410.1892 296.3858
v 1828.1042 -1396.8705 296.3908
f 586 587 588
v 1828.1042 -1396.8705 296.3908
v 1849.1080 -1338.2611 296.3973
v 1823.7070 -1395.1097 296.3924
f 589 590 591
v 1823.7070 -1395.1097 296.3924
v 1816.9799 -1399.6366 296.3933
v 1821.2153 -1401.3320 296.3917
f 592 593 594
v 1823.7070 -1395.1097 296.3924
v 1841.0711 -1338.6516 296.3996
v 1816.9799 -1399.6366 296.3933
f 595 596 597
v 1861.8734 -1343.3483 296.3925
v 1828.1042 -1396.8705 296.3908
v 1835.1145 -1410.1892 296.3858
f 598 599 600
v 1823.7070 -1395.1097 296.3924
v 1849.1080 -1338.2611 296.3973
v 1841.0711 -1338.6516 296.3996
f 601 602 603
v 1841.0711 -1338.6516 296.3996
v 1849.1080 -1338.2611 296.3973
v 1849.1816 -1338.0773 296.3973
f 604 605 606
v 1842.0932 -1335.2393 296.4001
v 1840.9565 -1338.4773 296.3997
v 1841.0711 -1338.6516 296.3996
f 607 608 609
v 1840.9565 -1338.4773 296.3997
v 1842.0932 -1335.2393 296.4001
v 1840.8367 -1338.4290 296.3997
f 610 611 612
v 1842.0932 -1335.2393 296.4001
v 1841.0711 -1338.6516 296.3996
v 1849.1816 -1338.0773 296.3973
f 613 614 615
v 1841.0711 -1338.6516 296.3996
v 1840.9565 -1338.4773 296.3997
v 1840.9123 -1338.5892 296.3997
f 616 617 618
v 1861.8734 -1343.3483 296.3925
v 1849.1080 -1338.2611 296.3973
v 1828.1042 -1396.8705 296.3908
f 619 620 621
v 1849.1040 -1338.2587 283.0958
v 1849.1080 -1338.2611 296.3973
v 1861.8734 -1343.3483 296.3925
f 622 623 624
v 1849.1776 -1338.0749 283.0958
v 1849.1816 -1338.0773 296.3973
v 1849.1080 -1338.2611 296.3973
f 625 626 627
v 1842.0892 -1335.2369 283.0986
v 1842.0932 -1335.2393 296.4001
v 1849.1816 -1338.0773 296.3973
f 628 629 630
v 1840.8327 -1338.4265 283.0981
v 1840.8367 -1338.4290 296.3997
v 1842.0932 -1335.2393 296.4001
f 631 632 633
v 1840.9525 -1338.4748 283.0981
v 1840.9565 -1338.4773 296.3997
v 1840.8367 -1338.4290 296.3997
f 634 635 636
v 1840.9083 -1338.5867 283.0981
v 1840.9123 -1338.5892 296.3997
v 1840.9565 -1338.4773 296.3997
f 637 638 639
v 1841.0671 -1338.6491 283.0980
v 1841.0711 -1338.6516 296.3996
v 1840.9123 -1338.5892 296.3997
f 640 641 642
v 1835.1124 -1410.1884 292.6869
v 1835.1145 -1410.1892 296.3858
v 1824.4770 -1405.9307 296.3898
f 643 644 645
v 1823.7726 -1433.5593 294.9608
v 1828.4891 -1421.7771 294.9621
v 1818.9644 -1417.9646 294.9657
f 646 647 648
v 1818.9644 -1417.9646 294.9657
v 1814.2479 -1429.7468 294.9644
v 1823.7726 -1433.5593 294.9608
f 649 650 651
v 1814.2472 -1429.7464 292.6885
v 1814.2479 -1429.7468 294.9644
v 1818.9644 -1417.9646 294.9657
f 652 653 654
v 1823.7719 -1433.5589 292.6849
v 1823.7726 -1433.5593 294.9608
v 1814.2479 -1429.7468 294.9644
f 655 656 657
v 1828.4885 -1421.7766 292.6862
v 1828.4891 -1421.7771 294.9621
v 1823.7726 -1433.5593 294.9608
f 658 659 660
v 1818.9637 -1417.9641 292.6898
v 1818.9644 -1417.9646 294.9657
v 1828.4891 -1421.7771 294.9621
f 661 662 663
v 1821.2161 -1401.3325 298.9516
v 1815.7352 -1402.7908 298.9529
v 1815.7202 -1402.8297 298.9529
f 664 665 666
v 1816.5620 -1399.8830 298.9533
v 1815.4565 -1402.6811 298.9530
v 1815.7352 -1402.7908 298.9529
f 667 668 669
v 1815.7352 -1402.7908 298.9529
v 1816.8407 -1399.9928 298.9532
v 1816.5620 -1399.8830 298.9533
f 670 671 672
v 1824.3379 -1406.2808 298.9497
v 1821.2161 -1401.3325 298.9516
v 1815.7202 -1402.8297 298.9529
f 673 674 675
v 1821.2161 -1401.3325 298.9516
v 1828.1050 -1396.8710 298.9507
v 1823.7077 -1395.1103 298.9523
f 676 677 678
v 1816.9807 -1399.6372 298.9532
v 1816.8407 -1399.9928 298.9532
v 1821.2161 -1401.3325 298.9516
f 679 680 681
v 1815.7352 -1402.7908 298.9529
v 1821.2161 -1401.3325 298.9516
v 1816.8407 -1399.9928 298.9532
f 682 683 684
v 1824.3379 -1406.2808 298.9497
v 1828.1050 -1396.8710 298.9507
v 1821.2161 -1401.3325 298.9516
f 685 686 687
v 1816.8407 -1399.9928 298.9532
v 1816.5573 -1399.8799 283.0919
v 1816.5620 -1399.8830 298.9533
f 688 689 690
v 1816.8407 -1399.9928 298.9532
v 1816.8360 -1399.9897 283.0918
v 1816.5573 -1399.8799 283.0919
f 691 692 693
v 1815.7305 -1402.7877 283.0915
v 1815.7352 -1402.7908 298.9529
v 1815.4565 -1402.6811 298.9530
f 694 695 696
v 1815.4518 -1402.6780 283.0916
v 1815.4565 -1402.6811 298.9530
v 1816.5620 -1399.8830 298.9533
f 697 698 699
v 1824.3360 -1406.2796 292.6909
v 1824.3379 -1406.2808 298.9497
v 1815.7202 -1402.8297 298.9529
f 700 701 702
v 1828.1042 -1396.8705 296.3908
v 1828.1050 -1396.8710 298.9507
v 1824.4770 -1405.9307 296.3898
f 703 704 705
v 1824.3379 -1406.2808 298.9497
v 1824.4770 -1405.9307 296.3898
v 1828.1050 -1396.8710 298.9507
f 706 707 708
v 1824.4759 -1405.9300 292.6909
v 1824.4770 -1405.9307 296.3898
v 1824.3360 -1406.2796 292.6909
f 709 710 711
v 1824.3379 -1406.2808 298.9497
v 1824.3360 -1406.2796 292.6909
v 1824.4770 -1405.9307 296.3898
f 712 713 714
v 1823.7070 -1395.1097 296.3924
v 1823.7077 -1395.1103 298.9523
v 1828.1050 -1396.8710 298.9507
f 715 716 717
v 1821.2153 -1401.3320 296.3917
v 1821.2161 -1401.3325 298.9516
v 1823.7077 -1395.1103 298.9523
f 718 719 720
v 1816.9799 -1399.6366 296.3933
v 1816.9807 -1399.6372 298.9532
v 1821.2161 -1401.3325 298.9516
f 721 722 723
v 1841.0671 -1338.6491 283.0980
v 1849.1776 -1338.0749 283.0958
v 1849.1040 -1338.2587 283.0958
f 724 725 726
v 1849.1040 -1338.2587 283.0958
v 1837.5348 -1404.1291 283.0850
v 1818.2506 -1396.4095 283.0922
f 727 728 729
v 1837.5348 -1404.1291 283.0850
v 1849.1040 -1338.2587 283.0958
v 1861.8693 -1343.3458 283.0910
f 730 731 732
v 1818.2506 -1396.4095 283.0922
v 1841.0671 -1338.6491 283.0980
v 1849.1040 -1338.2587 283.0958
f 733 734 735
v 1840.9525 -1338.4748 283.0981
v 1840.8327 -1338.4265 283.0981
v 1842.0892 -1335.2369 283.0986
f 736 737 738
v 1840.9083 -1338.5867 283.0981
v 1840.9525 -1338.4748 283.0981
v 1841.0671 -1338.6491 283.0980
f 739 740 741
v 1842.0892 -1335.2369 283.0986
v 1841.0671 -1338.6491 283.0980
v 1840.9525 -1338.4748 283.0981
f 742 743 744
v 1841.0671 -1338.6491 283.0980
v 1842.0892 -1335.2369 283.0986
v 1849.1776 -1338.0749 283.0958
f 745 746 747
v 1815.7305 -1402.7877 283.0915
v 1837.5348 -1404.1291 283.0850
v 1803.2057 -1434.5009 283.0880
f 748 749 750
v 1822.3141 -1442.1510 283.0807
v 1803.2057 -1434.5009 283.0880
v 1837.5348 -1404.1291 283.0850
f 751 752 753
v 1816.5573 -1399.8799 283.0919
v 1816.8360 -1399.9897 283.0918
v 1815.4518 -1402.6780 283.0916
f 754 755 756
v 1815.7305 -1402.7877 283.0915
v 1815.4518 -1402.6780 283.0916
v 1816.8360 -1399.9897 283.0918
f 757 758 759
v 1816.8360 -1399.9897 283.0918
v 1837.5348 -1404.1291 283.0850
v 1815.7305 -1402.7877 283.0915
f 760 761 762
v 1818.2506 -1396.4095 283.0922
v 1837.5348 -1404.1291 283.0850
v 1816.8360 -1399.9897 283.0918
f 763 764 765
v 1803.2085 -1434.5028 292.6906
v 1815.7183 -1402.8286 292.6941
v 1815.7305 -1402.7877 283.0915
f 766 767 768
v 1815.7352 -1402.7908 298.9529
v 1815.7305 -1402.7877 283.0915
v 1815.7183 -1402.8286 292.6941
f 769 770 771
v 1835.1124 -1410.1884 292.6869
v 1837.5348 -1404.1291 283.0850
v 1861.8693 -1343.3458 283.0910
f 772 773 774
v 1861.8734 -1343.3483 296.3925
v 1835.1124 -1410.1884 292.6869
v 1861.8693 -1343.3458 283.0910
f 775 776 777
v 1861.8734 -1343.3483 296.3925
v 1835.1145 -1410.1892 296.3858
v 1835.1124 -1410.1884 292.6869
f 778 779 780
v 1835.1124 -1410.1884 292.6869
v 1822.3169 -1442.1529 292.6834
v 1822.3141 -1442.1510 283.0807
f 781 782 783
v 1837.5348 -1404.1291 283.0850
v 1835.1124 -1410.1884 292.6869
v 1822.3141 -1442.1510 283.0807
f 784 785 786
v 1816.8407 -1399.9928 298.9532
v 1816.9799 -1399.6366 296.3933
v 1816.8360 -1399.9897 283.0918
f 787 788 789
v 1841.0671 -1338.6491 283.0980
v 1818.2506 -1396.4095 283.0922
v 1841.0711 -1338.6516 296.3996
f 790 791 792
v 1816.8360 -1399.9897 283.0918
v 1816.9799 -1399.6366 296.3933
v 1818.2506 -1396.4095 283.0922
f 793 794 795
v 1822.3141 -1442.1510 283.0807
v 1803.2085 -1434.5028 292.6906
v 1803.2057 -1434.5009 283.0880
f 796 797 798
v 1849.1040 -1338.2587 283.0958
v 1861.8734 -1343.3483 296.3925
v 1861.8693 -1343.3458 283.0910
f 799 800 801
v 1849.1776 -1338.0749 283.0958
v 1849.1080 -1338.2611 296.3973
v 1849.1040 -1338.2587 283.0958
f 802 803 804
v 1842.0892 -1335.2369 283.0986
v 1849.1816 -1338.0773 296.3973
v 1849.1776 -1338.0749 283.0958
f 805 806 807
v 1840.8327 -1338.4265 283.0981
v 1842.0932 -1335.2393 296.4001
v 1842.0892 -1335.2369 283.0986
f 808 809 810
v 1840.9525 -1338.4748 283.0981
v 1840.8367 -1338.4290 296.3997
v 1840.8327 -1338.4265 283.0981
f 811 812 813
v 1840.9083 -1338.5867 283.0981
v 1840.9565 -1338.4773 296.3997
v 1840.9525 -1338.4748 283.0981
f 814 815 816
v 1841.0671 -1338.6491 283.0980
v 1840.9123 -1338.5892 296.3997
v 1840.9083 -1338.5867 283.0981
f 817 818 819
v 1835.1124 -1410.1884 292.6869
v 1824.4770 -1405.9307 296.3898
v 1824.4759 -1405.9300 292.6909
f 820 821 822
v 1814.2472 -1429.7464 292.6885
v 1818.9644 -1417.9646 294.9657
v 1818.9637 -1417.9641 292.6898
f 823 824 825
v 1823.7719 -1433.5589 292.6849
v 1814.2479 -1429.7468 294.9644
v 1814.2472 -1429.7464 292.6885
f 826 827 828
v 1828.4885 -1421.7766 292.6862
v 1823.7726 -1433.5593 294.9608
v 1823.7719 -1433.5589 292.6849
f 829 830 831
v 1818.9637 -1417.9641 292.6898
v 1828.4891 -1421.7771 294.9621
v 1828.4885 -1421.7766 292.6862
f 832 833 834
v 1815.7305 -1402.7877 283.0915
v 1815.4565 -1402.6811 298.9530
v 1815.4518 -1402.6780 283.0916
f 835 836 837
v 1815.4518 -1402.6780 283.0916
v 1816.5620 -1399.8830 298.9533
v 1816.5573 -1399.8799 283.0919
f 838 839 840
v 1824.3360 -1406.2796 292.6909
v 1815.7202 -1402.8297 298.9529
v 1815.7183 -1402.8286 292.6941
f 841 842 843
v 1823.7070 -1395.1097 296.3924
v 1828.1050 -1396.8710 298.9507
v 1828.1042 -1396.8705 296.3908
f 844 845 846
v 1821.2153 -1401.3320 296.3917
v 1823.7077 -1395.1103 298.9523
v 1823.7070 -1395.1097 296.3924
f 847 848 849
v 1816.9799 -1399.6366 296.3933
v 1821.2161 -1401.3325 298.9516
v 1821.2153 -1401.3320 296.3917
f 850 851 852
v 1803.2085 -1434.5028 292.6906
v 1815.7305 -1402.7877 283.0915
v 1803.2057 -1434.5009 283.0880
f 853 854 855
v 1815.7352 -1402.7908 298.9529
v 1815.7183 -1402.8286 292.6941
v 1815.7202 -1402.8297 298.9529
f 856 857 858
v 1816.9799 -1399.6366 296.3933
v 1816.8407 -1399.9928 298.9532
v 1816.9807 -1399.6372 298.9532
f 859 860 861
v 1818.2506 -1396.4095 283.0922
v 1816.9799 -1399.6366 296.3933
v 1841.0711 -1338.6516 296.3996
f 862 863 864

g building_ID_FBC8B419-8CE5-48E1-B57F-DE10E07B3211
v 1938.3805 -1330.3689 283.5209
v 1939.4164 -1327.7857 283.5211
v 1942.9336 -1329.1961 283.5198
f 865 866 867
v 1946.2350 -1330.5190 283.5185
v 1938.3805 -1330.3689 283.5209
v 1942.9336 -1329.1961 283.5198
f 868 869 870
v 1938.3805 -1330.3689 283.5209
v 1929.6504 -1330.4275 283.5235
v 1938.2307 -1330.3005 283.5210
f 871 872 873
v 1929.6504 -1330.4275 283.5235
v 1938.3805 -1330.3689 283.5209
v 1946.2350 -1330.5190 283.5185
f 874 875 876
v 1930.8787 -1327.3628 283.5238
v 1934.4268 -1328.7803 283.5224
v 1929.6504 -1330.4275 283.5235
f 877 878 879
v 1934.4268 -1328.7803 283.5224
v 1938.2307 -1330.3005 283.5210
v 1929.6504 -1330.4275 283.5235
f 880 881 882
v 1929.6504 -1330.4275 283.5235
v 1921.5186 -1328.8907 283.5264
v 1925.7247 -1328.8540 283.5250
f 883 884 885
v 1925.7247 -1328.8540 283.5250
v 1921.5186 -1328.8907 283.5264
v 1922.1126 -1327.4074 283.5265
f 886 887 888
v 1929.6504 -1330.4275 283.5235
v 1920.7545 -1330.7977 283.5261
v 1921.5186 -1328.8907 283.5264
f 889 890 891
v 1920.7545 -1330.7977 283.5261
v 1929.6504 -1330.4275 283.5235
v 1946.2350 -1330.5190 283.5185
f 892 893 894
v 1946.2350 -1330.5190 283.5185
v 1911.7376 -1331.5416 283.5288
v 1920.7545 -1330.7977 283.5261
f 895 896 897
v 1911.7376 -1331.5416 283.5288
v 1916.9467 -1329.2715 283.5277
v 1920.7545 -1330.7977 283.5261
f 898 899 900
v 1939.1689 -1348.1548 283.5169
v 1911.7376 -1331.5416 283.5288
v 1946.2350 -1330.5190 283.5185
f 901 902 903
v 1902.5645 -1333.4860 283.5311
v 1904.5055 -1328.6432 283.5315
v 1908.0426 -1330.0607 283.5302
f 904 905 906
v 1911.7376 -1331.5416 283.5288
v 1913.2426 -1327.7866 283.5291
v 1916.9467 -1329.2715 283.5277
f 907 908 909
v 1911.7376 -1331.5416 283.5288
v 1902.5645 -1333.4860 283.5311
v 1908.0426 -1330.0607 283.5302
f 910 911 912
v 1902.5645 -1333.4860 283.5311
v 1911.7376 -1331.5416 283.5288
v 1939.1689 -1348.1548 283.5169
f 913 914 915
v 1920.7570 -1330.7991 291.3959
v 1925.7278 -1328.8558 293.5317
v 1922.1150 -1327.4088 291.3952
f 916 917 918
v 1920.7570 -1330.7991 291.3959
v 1920.5252 -1330.7065 291.2580
v 1917.0802 -1339.3042 291.2572
f 919 920 921
v 1922.3936 -1337.1769 293.5310
v 1920.7570 -1330.7991 291.3959
v 1917.5598 -1339.4965 291.5410
f 922 923 924
v 1917.0802 -1339.3042 291.2572
v 1917.5598 -1339.4965 291.5410
v 1920.7570 -1330.7991 291.3959
f 925 926 927
v 1925.7278 -1328.8558 293.5317
v 1920.7570 -1330.7991 291.3959
v 1922.3936 -1337.1769 293.5310
f 928 929 930
v 1929.4211 -1330.3364 291.2554
v 1924.1567 -1342.1402 291.5384
v 1924.6180 -1342.3243 291.2542
f 931 932 933
v 1925.7278 -1328.8558 293.5317
v 1922.3936 -1337.1769 293.5310
v 1929.4211 -1330.3364 291.2554
f 934 935 936
v 1924.1567 -1342.1402 291.5384
v 1929.4211 -1330.3364 291.2554
v 1922.3936 -1337.1769 293.5310
f 937 938 939
v 1922.3936 -1337.1769 293.5310
v 1917.5598 -1339.4965 291.5410
v 1924.1567 -1342.1402 291.5384
f 940 941 942
v 1929.6529 -1330.4289 291.3952
v 1934.4300 -1328.7821 293.5291
v 1930.8811 -1327.3642 291.3955
f 943 944 945
v 1929.6529 -1330.4289 291.3952
v 1929.4211 -1330.3364 291.2554
v 1924.6180 -1342.3243 291.2542
f 946 947 948
v 1929.8554 -1340.1978 293.5281
v 1929.6529 -1330.4289 291.3952
v 1925.0916 -1342.5147 291.5391
f 949 950 951
v 1924.6180 -1342.3243 291.2542
v 1925.0916 -1342.5147 291.5391
v 1929.6529 -1330.4289 291.3952
f 952 953 954
v 1934.4300 -1328.7821 293.5291
v 1929.6529 -1330.4289 291.3952
v 1929.8554 -1340.1978 293.5281
f 955 956 957
v 1938.1532 -1330.2696 291.2527
v 1931.6525 -1345.1432 291.5365
v 1932.1190 -1345.3305 291.2513
f 958 959 960
v 1934.4300 -1328.7821 293.5291
v 1929.8554 -1340.1978 293.5281
v 1938.1532 -1330.2696 291.2527
f 961 962 963
v 1931.6525 -1345.1432 291.5365
v 1938.1532 -1330.2696 291.2527
v 1929.8554 -1340.1978 293.5281
f 964 965 966
v 1929.8554 -1340.1978 293.5281
v 1925.0916 -1342.5147 291.5391
v 1931.6525 -1345.1432 291.5365
f 967 968 969
v 1938.3830 -1330.3703 291.3756
v 1942.9367 -1329.1979 293.2425
v 1939.4189 -1327.7871 291.3758
f 970 971 972
v 1938.3830 -1330.3703 291.3756
v 1938.2392 -1330.3050 291.2976
v 1932.1190 -1345.3305 291.2513
f 973 974 975
v 1938.1532 -1330.2696 291.2527
v 1932.1190 -1345.3305 291.2513
v 1938.2392 -1330.3050 291.2976
f 976 977 978
v 1938.3830 -1330.3703 291.3756
v 1932.5925 -1345.5207 291.5022
v 1937.3172 -1343.2197 293.2412
f 979 980 981
v 1938.3830 -1330.3703 291.3756
v 1932.1190 -1345.3305 291.2513
v 1932.5925 -1345.5207 291.5022
f 982 983 984
v 1942.9367 -1329.1979 293.2425
v 1938.3830 -1330.3703 291.3756
v 1937.3172 -1343.2197 293.2412
f 985 986 987
v 1939.1714 -1348.1563 291.3796
v 1937.3172 -1343.2197 293.2412
v 1938.9576 -1348.0708 291.4997
f 988 989 990
v 1937.3172 -1343.2197 293.2412
v 1939.1714 -1348.1563 291.3796
v 1942.6546 -1339.4637 291.3804
f 991 992 993
v 1942.9367 -1329.1979 293.2425
v 1942.6546 -1339.4637 291.3804
v 1946.2375 -1330.5204 291.3812
f 994 995 996
v 1937.3172 -1343.2197 293.2412
v 1942.6546 -1339.4637 291.3804
v 1942.9367 -1329.1979 293.2425
f 997 998 999
v 1937.3172 -1343.2197 293.2412
v 1932.5925 -1345.5207 291.5022
v 1938.9576 -1348.0708 291.4997
f 1000 1001 1002
v 1903.3492 -1331.5345 291.3860
v 1902.5670 -1333.4874 291.3858
v 1902.7827 -1333.5740 291.4997
f 1003 1004 1005
v 1907.6570 -1331.0324 293.2527
v 1903.3492 -1331.5345 291.3860
v 1902.7827 -1333.5740 291.4997
f 1006 1007 1008
v 1908.0456 -1330.0625 293.2528
v 1904.5079 -1328.6446 291.3862
v 1903.3492 -1331.5345 291.3860
f 1009 1010 1011
v 1907.6570 -1331.0324 293.2527
v 1908.0456 -1330.0625 293.2528
v 1903.3492 -1331.5345 291.3860
f 1012 1013 1014
v 1909.5663 -1336.2931 291.2601
v 1908.0456 -1330.0625 293.2528
v 1907.6570 -1331.0324 293.2527
f 1015 1016 1017
v 1911.5083 -1331.4503 291.2606
v 1908.0456 -1330.0625 293.2528
v 1909.5663 -1336.2931 291.2601
f 1018 1019 1020
v 1909.1568 -1336.1281 291.4963
v 1909.5663 -1336.2931 291.2601
v 1907.6570 -1331.0324 293.2527
f 1021 1022 1023
v 1907.6570 -1331.0324 293.2527
v 1902.7827 -1333.5740 291.4997
v 1909.1568 -1336.1281 291.4963
f 1024 1025 1026
v 1911.7401 -1331.5430 291.3945
v 1909.5663 -1336.2931 291.2601
v 1910.0699 -1336.4945 291.5509
f 1027 1028 1029
v 1909.5663 -1336.2931 291.2601
v 1911.7401 -1331.5430 291.3945
v 1911.5083 -1331.4503 291.2606
f 1030 1031 1032
v 1911.7401 -1331.5430 291.3945
v 1916.9498 -1329.2733 293.5343
v 1912.6310 -1329.3214 291.3947
f 1033 1034 1035
v 1914.9303 -1334.3119 293.5338
v 1911.7401 -1331.5430 291.3945
v 1910.0699 -1336.4945 291.5509
f 1036 1037 1038
v 1916.9498 -1329.2733 293.5343
v 1913.2451 -1327.7881 291.3948
v 1912.6310 -1329.3214 291.3947
f 1039 1040 1041
v 1914.9303 -1334.3119 293.5338
v 1916.9498 -1329.2733 293.5343
v 1911.7401 -1331.5430 291.3945
f 1042 1043 1044
v 1920.5252 -1330.7065 291.2580
v 1916.6218 -1339.1200 291.5493
v 1917.0802 -1339.3042 291.2572
f 1045 1046 1047
v 1914.9303 -1334.3119 293.5338
v 1916.6218 -1339.1200 291.5493
v 1916.9498 -1329.2733 293.5343
f 1048 1049 1050
v 1920.5252 -1330.7065 291.2580
v 1916.9498 -1329.2733 293.5343
v 1916.6218 -1339.1200 291.5493
f 1051 1052 1053
v 1914.9303 -1334.3119 293.5338
v 1910.0699 -1336.4945 291.5509
v 1916.6218 -1339.1200 291.5493
f 1054 1055 1056
v 1920.7562 -1330.7987 288.9079
v 1920.7570 -1330.7991 291.3959
v 1922.1150 -1327.4088 291.3952
f 1057 1058 1059
v 1921.5186 -1328.8907 283.5264
v 1920.7545 -1330.7977 283.5261
v 1920.7551 -1330.7981 285.4931
f 1060 1061 1062
v 1920.7562 -1330.7987 288.9079
v 1922.1150 -1327.4088 291.3952
v 1921.5186 -1328.8907 283.5264
f 1063 1064 1065
v 1920.7551 -1330.7981 285.4931
v 1920.7562 -1330.7987 288.9079
v 1921.5186 -1328.8907 283.5264
f 1066 1067 1068
v 1921.5186 -1328.8907 283.5264
v 1922.1150 -1327.4088 291.3952
v 1922.1126 -1327.4074 283.5265
f 1069 1070 1071
v 1929.6521 -1330.4285 288.9293
v 1929.6529 -1330.4289 291.3952
v 1930.8811 -1327.3642 291.3955
f 1072 1073 1074
v 1930.8798 -1327.3635 287.4597
v 1930.8792 -1327.3632 285.4918
v 1929.6521 -1330.4285 288.9293
f 1075 1076 1077
v 1930.8787 -1327.3628 283.5238
v 1929.6504 -1330.4275 283.5235
v 1929.6521 -1330.4285 288.9293
f 1078 1079 1080
v 1930.8792 -1327.3632 285.4918
v 1930.8787 -1327.3628 283.5238
v 1929.6521 -1330.4285 288.9293
f 1081 1082 1083
v 1939.4170 -1327.7860 285.4851
v 1938.3805 -1330.3689 283.5209
v 1938.3830 -1330.3703 291.3756
f 1084 1085 1086
v 1939.4170 -1327.7860 285.4851
v 1938.3830 -1330.3703 291.3756
v 1939.4183 -1327.7867 289.4119
f 1087 1088 1089
v 1939.4164 -1327.7857 283.5211
v 1938.3805 -1330.3689 283.5209
v 1939.4170 -1327.7860 285.4851
f 1090 1091 1092
v 1938.2375 -1330.3036 289.3337
v 1938.2392 -1330.3050 291.2976
v 1938.3830 -1330.3703 291.3756
f 1093 1094 1095
v 1938.2307 -1330.3005 283.5210
v 1938.2369 -1330.3032 287.3698
v 1938.3830 -1330.3703 291.3756
f 1096 1097 1098
v 1938.2307 -1330.3005 283.5210
v 1938.3830 -1330.3703 291.3756
v 1938.3805 -1330.3689 283.5209
f 1099 1100 1101
v 1946.2363 -1330.5197 287.4494
v 1946.2375 -1330.5204 291.3812
v 1942.6546 -1339.4637 291.3804
f 1102 1103 1104
v 1946.2350 -1330.5190 283.5185
v 1946.2363 -1330.5197 287.4494
v 1939.1714 -1348.1563 291.3796
f 1105 1106 1107
v 1939.1714 -1348.1563 291.3796
v 1939.1689 -1348.1548 283.5169
v 1946.2350 -1330.5190 283.5185
f 1108 1109 1110
v 1903.3492 -1331.5345 291.3860
v 1902.5645 -1333.4860 283.5311
v 1902.5670 -1333.4874 291.3858
f 1111 1112 1113
v 1904.5079 -1328.6446 291.3862
v 1904.5055 -1328.6432 283.5315
v 1903.3492 -1331.5345 291.3860
f 1114 1115 1116
v 1911.7392 -1331.5425 288.7976
v 1911.7401 -1331.5430 291.3945
v 1912.6310 -1329.3214 291.3947
f 1117 1118 1119
v 1913.2426 -1327.7866 283.5291
v 1911.7376 -1331.5416 283.5288
v 1912.6310 -1329.3214 291.3947
f 1120 1121 1122
v 1913.2426 -1327.7866 283.5291
v 1912.6310 -1329.3214 291.3947
v 1913.2442 -1327.7875 288.4449
f 1123 1124 1125
v 1925.4757 -1382.6109 283.4247
v 1883.0666 -1365.6164 283.4410
v 1896.8586 -1331.1996 283.4443
f 1126 1127 1128
v 1896.8586 -1331.1996 283.4443
v 1939.2678 -1348.1950 283.4279
v 1925.4757 -1382.6109 283.4247
f 1129 1130 1131
v 1883.0696 -1365.6183 293.2527
v 1925.4787 -1382.6128 293.2363
v 1939.2708 -1348.1969 293.2395
f 1132 1133 1134
v 1939.2708 -1348.1969 293.2395
v 1896.8616 -1331.2014 293.2559
v 1883.0696 -1365.6183 293.2527
f 1135 1136 1137
v 1902.5670 -1333.4874 291.3858
v 1896.8616 -1331.2014 293.2559
v 1902.7827 -1333.5740 291.4997
f 1138 1139 1140
v 1909.1568 -1336.1281 291.4963
v 1902.7827 -1333.5740 291.4997
v 1896.8616 -1331.2014 293.2559
f 1141 1142 1143
v 1896.8616 -1331.2014 293.2559
v 1916.6218 -1339.1200 291.5493
v 1910.0699 -1336.4945 291.5509
f 1144 1145 1146
v 1910.0699 -1336.4945 291.5509
v 1909.5663 -1336.2931 291.2601
v 1909.1568 -1336.1281 291.4963
f 1147 1148 1149
v 1896.8616 -1331.2014 293.2559
v 1910.0699 -1336.4945 291.5509
v 1909.1568 -1336.1281 291.4963
f 1150 1151 1152
v 1916.6218 -1339.1200 291.5493
v 1896.8616 -1331.2014 293.2559
v 1939.2708 -1348.1969 293.2395
f 1153 1154 1155
v 1896.8586 -1331.1996 283.4443
v 1896.8616 -1331.2014 293.2559
v 1902.5670 -1333.4874 291.3858
f 1156 1157 1158
v 1896.8586 -1331.1996 283.4443
v 1902.5670 -1333.4874 291.3858
v 1902.5645 -1333.4860 283.5311
f 1159 1160 1161
v 1939.2678 -1348.1950 283.4279
v 1896.8586 -1331.1996 283.4443
v 1902.5645 -1333.4860 283.5311
f 1162 1163 1164
v 1925.0916 -1342.5147 291.5391
v 1924.1567 -1342.1402 291.5384
v 1939.2708 -1348.1969 293.2395
f 1165 1166 1167
v 1917.5598 -1339.4965 291.5410
v 1939.2708 -1348.1969 293.2395
v 1924.1567 -1342.1402 291.5384
f 1168 1169 1170
v 1925.0916 -1342.5147 291.5391
v 1924.6180 -1342.3243 291.2542
v 1924.1567 -1342.1402 291.5384
f 1171 1172 1173
v 1932.5925 -1345.5207 291.5022
v 1931.6525 -1345.1432 291.5365
v 1939.2708 -1348.1969 293.2395
f 1174 1175 1176
v 1925.0916 -1342.5147 291.5391
v 1939.2708 -1348.1969 293.2395
v 1931.6525 -1345.1432 291.5365
f 1177 1178 1179
v 1939.2708 -1348.1969 293.2395
v 1938.9576 -1348.0708 291.4997
v 1932.5925 -1345.5207 291.5022
f 1180 1181 1182
v 1938.9576 -1348.0708 291.4997
v 1939.2708 -1348.1969 293.2395
v 1939.1714 -1348.1563 291.3796
f 1183 1184 1185
v 1939.2708 -1348.1969 293.2395
v 1917.5598 -1339.4965 291.5410
v 1916.6218 -1339.1200 291.5493
f 1186 1187 1188
v 1932.1190 -1345.3305 291.2513
v 1931.6525 -1345.1432 291.5365
v 1932.5925 -1345.5207 291.5022
f 1189 1190 1191
v 1939.1689 -1348.1548 283.5169
v 1939.2678 -1348.1950 283.4279
v 1902.5645 -1333.4860 283.5311
f 1192 1193 1194
v 1939.1714 -1348.1563 291.3796
v 1939.2678 -1348.1950 283.4279
v 1939.1689 -1348.1548 283.5169
f 1195 1196 1197
v 1939.1714 -1348.1563 291.3796
v 1939.2708 -1348.1969 293.2395
v 1939.2678 -1348.1950 283.4279
f 1198 1199 1200
v 1916.6218 -1339.1200 291.5493
v 1917.5598 -1339.4965 291.5410
v 1917.0802 -1339.3042 291.2572
f 1201 1202 1203
v 1883.0666 -1365.6164 283.4410
v 1883.0696 -1365.6183 293.2527
v 1896.8616 -1331.2014 293.2559
f 1204 1205 1206
v 1925.4757 -1382.6109 283.4247
v 1925.4787 -1382.6128 293.2363
v 1883.0696 -1365.6183 293.2527
f 1207 1208 1209
v 1939.2678 -1348.1950 283.4279
v 1939.2708 -1348.1969 293.2395
v 1925.4787 -1382.6128 293.2363
f 1210 1211 1212
v 1922.1150 -1327.4088 291.3952
v 1925.7247 -1328.8540 283.5250
v 1922.1126 -1327.4074 283.5265
f 1213 1214 1215
v 1925.7247 -1328.8540 283.5250
v 1922.1150 -1327.4088 291.3952
v 1929.6504 -1330.4275 283.5235
f 1216 1217 1218
v 1929.6521 -1330.4285 288.9293
v 1929.4211 -1330.3364 291.2554
v 1929.6529 -1330.4289 291.3952
f 1219 1220 1221
v 1929.6521 -1330.4285 288.9293
v 1925.7278 -1328.8558 293.5317
v 1929.4211 -1330.3364 291.2554
f 1222 1223 1224
v 1925.7278 -1328.8558 293.5317
v 1929.6521 -1330.4285 288.9293
v 1929.6504 -1330.4275 283.5235
f 1225 1226 1227
v 1922.1150 -1327.4088 291.3952
v 1925.7278 -1328.8558 293.5317
v 1929.6504 -1330.4275 283.5235
f 1228 1229 1230
v 1939.4183 -1327.7867 289.4119
v 1946.2363 -1330.5197 287.4494
v 1939.4170 -1327.7860 285.4851
f 1231 1232 1233
v 1942.9336 -1329.1961 283.5198
v 1939.4164 -1327.7857 283.5211
v 1939.4170 -1327.7860 285.4851
f 1234 1235 1236
v 1939.4170 -1327.7860 285.4851
v 1946.2363 -1330.5197 287.4494
v 1942.9336 -1329.1961 283.5198
f 1237 1238 1239
v 1939.4183 -1327.7867 289.4119
v 1942.9367 -1329.1979 293.2425
v 1946.2375 -1330.5204 291.3812
f 1240 1241 1242
v 1939.4183 -1327.7867 289.4119
v 1946.2375 -1330.5204 291.3812
v 1946.2363 -1330.5197 287.4494
f 1243 1244 1245
v 1946.2363 -1330.5197 287.4494
v 1946.2350 -1330.5190 283.5185
v 1942.9336 -1329.1961 283.5198
f 1246 1247 1248
v 1939.4189 -1327.7871 291.3758
v 1942.9367 -1329.1979 293.2425
v 1939.4183 -1327.7867 289.4119
f 1249 1250 1251
v 1930.8811 -1327.3642 291.3955
v 1938.1532 -1330.2696 291.2527
v 1930.8798 -1327.3635 287.4597
f 1252 1253 1254
v 1930.8798 -1327.3635 287.4597
v 1938.2375 -1330.3036 289.3337
v 1930.8792 -1327.3632 285.4918
f 1255 1256 1257
v 1934.4268 -1328.7803 283.5224
v 1930.8787 -1327.3628 283.5238
v 1930.8792 -1327.3632 285.4918
f 1258 1259 1260
v 1930.8792 -1327.3632 285.4918
v 1938.2369 -1330.3032 287.3698
v 1934.4268 -1328.7803 283.5224
f 1261 1262 1263
v 1938.2375 -1330.3036 289.3337
v 1938.1532 -1330.2696 291.2527
v 1938.2392 -1330.3050 291.2976
f 1264 1265 1266
v 1930.8798 -1327.3635 287.4597
v 1938.1532 -1330.2696 291.2527
v 1938.2375 -1330.3036 289.3337
f 1267 1268 1269
v 1938.2369 -1330.3032 287.3698
v 1938.2307 -1330.3005 283.5210
v 1934.4268 -1328.7803 283.5224
f 1270 1271 1272
v 1930.8792 -1327.3632 285.4918
v 1938.2375 -1330.3036 289.3337
v 1938.2369 -1330.3032 287.3698
f 1273 1274 1275
v 1930.8811 -1327.3642 291.3955
v 1934.4300 -1328.7821 293.5291
v 1938.1532 -1330.2696 291.2527
f 1276 1277 1278
v 1913.2442 -1327.7875 288.4449
v 1920.7562 -1330.7987 288.9079
v 1916.9467 -1329.2715 283.5277
f 1279 1280 1281
v 1913.2442 -1327.7875 288.4449
v 1916.9467 -1329.2715 283.5277
v 1913.2426 -1327.7866 283.5291
f 1282 1283 1284
v 1920.7545 -1330.7977 283.5261
v 1916.9467 -1329.2715 283.5277
v 1920.7551 -1330.7981 285.4931
f 1285 1286 1287
v 1916.9498 -1329.2733 293.5343
v 1913.2442 -1327.7875 288.4449
v 1913.2451 -1327.7881 291.3948
f 1288 1289 1290
v 1920.7562 -1330.7987 288.9079
v 1920.5252 -1330.7065 291.2580
v 1920.7570 -1330.7991 291.3959
f 1291 1292 1293
v 1920.7562 -1330.7987 288.9079
v 1916.9498 -1329.2733 293.5343
v 1920.5252 -1330.7065 291.2580
f 1294 1295 1296
v 1916.9467 -1329.2715 283.5277
v 1920.7562 -1330.7987 288.9079
v 1920.7551 -1330.7981 285.4931
f 1297 1298 1299
v 1913.2442 -1327.7875 288.4449
v 1916.9498 -1329.2733 293.5343
v 1920.7562 -1330.7987 288.9079
f 1300 1301 1302
v 1911.7392 -1331.5425 288.7976
v 1908.0426 -1330.0607 283.5302
v 1904.5079 -1328.6446 291.3862
f 1303 1304 1305
v 1904.5079 -1328.6446 291.3862
v 1908.0426 -1330.0607 283.5302
v 1904.5055 -1328.6432 283.5315
f 1306 1307 1308
v 1911.7392 -1331.5425 288.7976
v 1911.5083 -1331.4503 291.2606
v 1911.7401 -1331.5430 291.3945
f 1309 1310 1311
v 1911.7392 -1331.5425 288.7976
v 1908.0456 -1330.0625 293.2528
v 1911.5083 -1331.4503 291.2606
f 1312 1313 1314
v 1911.7392 -1331.5425 288.7976
v 1911.7376 -1331.5416 283.5288
v 1908.0426 -1330.0607 283.5302
f 1315 1316 1317
v 1911.7392 -1331.5425 288.7976
v 1904.5079 -1328.6446 291.3862
v 1908.0456 -1330.0625 293.2528
f 1318 1319 1320
v 1929.6521 -1330.4285 288.9293
v 1930.8811 -1327.3642 291.3955
v 1930.8798 -1327.3635 287.4597
f 1321 1322 1323
v 1938.3830 -1330.3703 291.3756
v 1939.4189 -1327.7871 291.3758
v 1939.4183 -1327.7867 289.4119
f 1324 1325 1326
v 1938.3830 -1330.3703 291.3756
v 1938.2369 -1330.3032 287.3698
v 1938.2375 -1330.3036 289.3337
f 1327 1328 1329
v 1946.2363 -1330.5197 287.4494
v 1942.6546 -1339.4637 291.3804
v 1939.1714 -1348.1563 291.3796
f 1330 1331 1332
v 1904.5055 -1328.6432 283.5315
v 1902.5645 -1333.4860 283.5311
v 1903.3492 -1331.5345 291.3860
f 1333 1334 1335
v 1911.7392 -1331.5425 288.7976
v 1912.6310 -1329.3214 291.3947
v 1911.7376 -1331.5416 283.5288
f 1336 1337 1338
v 1912.6310 -1329.3214 291.3947
v 1913.2451 -1327.7881 291.3948
v 1913.2442 -1327.7875 288.4449
f 1339 1340 1341
v 1883.0666 -1365.6164 283.4410
v 1896.8616 -1331.2014 293.2559
v 1896.8586 -1331.1996 283.4443
f 1342 1343 1344
v 1925.4757 -1382.6109 283.4247
v 1883.0696 -1365.6183 293.2527
v 1883.0666 -1365.6164 283.4410
f 1345 1346 1347
v 1939.2678 -1348.1950 283.4279
v 1925.4787 -1382.6128 293.2363
v 1925.4757 -1382.6109 283.4247
f 1348 1349 1350

g building_ID_092BDEDE-0F36-48CB-89F7-F8004C4692BF
v 2134.6569 -1385.9770 283.5112
v 2128.5934 -1402.9626 283.5095
v 2117.6753 -1379.9196 283.5181
f 1351 1352 1353
v 2115.1317 -1379.0118 283.5192
v 2115.3339 -1378.9434 283.5191
v 2117.6753 -1379.9196 283.5181
f 1354 1355 1356
v 2115.3339 -1378.9434 283.5191
v 2116.9809 -1378.1757 283.5188
v 2117.6753 -1379.9196 283.5181
f 1357 1358 1359
v 2095.1772 -1390.8772 283.5232
v 2117.6753 -1379.9196 283.5181
v 2128.5934 -1402.9626 283.5095
f 1360 1361 1362
v 2094.9538 -1390.9877 283.5232
v 2095.1772 -1390.8772 283.5232
v 2095.1157 -1391.0451 283.5232
f 1363 1364 1365
v 2117.6753 -1379.9196 283.5181
v 2095.1772 -1390.8772 283.5232
v 2115.1317 -1379.0118 283.5192
f 1366 1367 1368
v 2101.0853 -1373.9972 283.5250
v 2095.1772 -1390.8772 283.5232
v 2094.9538 -1390.9877 283.5232
f 1369 1370 1371
v 2115.1317 -1379.0118 283.5192
v 2115.2939 -1378.9292 283.5192
v 2115.3339 -1378.9434 283.5191
f 1372 1373 1374
v 2095.1772 -1390.8772 283.5232
v 2101.0853 -1373.9972 283.5250
v 2115.1317 -1379.0118 283.5192
f 1375 1376 1377
v 2095.1822 -1390.8801 298.5847
v 2094.9590 -1390.9905 298.5847
v 2095.1208 -1391.0479 298.5847
f 1378 1379 1380
v 2115.1369 -1379.0146 298.5807
v 2101.0904 -1374.0001 298.5864
v 2095.1822 -1390.8801 298.5847
f 1381 1382 1383
v 2094.9590 -1390.9905 298.5847
v 2095.1822 -1390.8801 298.5847
v 2101.0904 -1374.0001 298.5864
f 1384 1385 1386
v 2095.1822 -1390.8801 298.5847
v 2117.6804 -1379.9224 298.5796
v 2115.1369 -1379.0146 298.5807
f 1387 1388 1389
v 2134.6621 -1385.9799 298.5726
v 2117.6804 -1379.9224 298.5796
v 2128.5987 -1402.9656 298.5709
f 1390 1391 1392
v 2117.6804 -1379.9224 298.5796
v 2115.3391 -1378.9462 298.5806
v 2115.1369 -1379.0146 298.5807
f 1393 1394 1395
v 2115.3391 -1378.9462 298.5806
v 2115.2991 -1378.9321 298.5806
v 2115.1369 -1379.0146 298.5807
f 1396 1397 1398
v 2117.6804 -1379.9224 298.5796
v 2116.9861 -1378.1786 298.5803
v 2115.3391 -1378.9462 298.5806
f 1399 1400 1401
v 2128.5987 -1402.9656 298.5709
v 2117.6804 -1379.9224 298.5796
v 2095.1822 -1390.8801 298.5847
f 1402 1403 1404
v 2095.1772 -1390.8772 283.5232
v 2095.1822 -1390.8801 298.5847
v 2095.1208 -1391.0479 298.5847
f 1405 1406 1407
v 2128.5934 -1402.9626 283.5095
v 2128.5987 -1402.9656 298.5709
v 2095.1822 -1390.8801 298.5847
f 1408 1409 1410
v 2134.6569 -1385.9770 283.5112
v 2134.6621 -1385.9799 298.5726
v 2128.5987 -1402.9656 298.5709
f 1411 1412 1413
v 2117.6753 -1379.9196 283.5181
v 2117.6804 -1379.9224 298.5796
v 2134.6621 -1385.9799 298.5726
f 1414 1415 1416
v 2116.9809 -1378.1757 283.5188
v 2116.9861 -1378.1786 298.5803
v 2117.6804 -1379.9224 298.5796
f 1417 1418 1419
v 2115.3339 -1378.9434 283.5191
v 2115.3391 -1378.9462 298.5806
v 2116.9861 -1378.1786 298.5803
f 1420 1421 1422
v 2115.2939 -1378.9292 283.5192
v 2115.2991 -1378.9321 298.5806
v 2115.3391 -1378.9462 298.5806
f 1423 1424 1425
v 2115.1317 -1379.0118 283.5192
v 2115.1369 -1379.0146 298.5807
v 2115.2991 -1378.9321 298.5806
f 1426 1427 1428
v 2101.0853 -1373.9972 283.5250
v 2101.0904 -1374.0001 298.5864
v 2115.1369 -1379.0146 298.5807
f 1429 1430 1431
v 2094.9538 -1390.9877 283.5232
v 2094.9590 -1390.9905 298.5847
v 2101.0904 -1374.0001 298.5864
f 1432 1433 1434
v 2095.1157 -1391.0451 283.5232
v 2095.1208 -1391.0479 298.5847
v 2094.9590 -1390.9905 298.5847
f 1435 1436 1437
v 2095.1772 -1390.8772 283.5232
v 2095.1208 -1391.0479 298.5847
v 2095.1157 -1391.0451 283.5232
f 1438 1439 1440
v 2128.5934 -1402.9626 283.5095
v 2095.1822 -1390.8801 298.5847
v 2095.1772 -1390.8772 283.5232
f 1441 1442 1443
v 2134.6569 -1385.9770 283.5112
v 2128.5987 -1402.9656 298.5709
v 2128.5934 -1402.9626 283.5095
f 1444 1445 1446
v 2117.6753 -1379.9196 283.5181
v 2134.6621 -1385.9799 298.5726
v 2134.6569 -1385.9770 283.5112
f 1447 1448 1449
v 2116.9809 -1378.1757 283.5188
v 2117.6804 -1379.9224 298.5796
v 2117.6753 -1379.9196 283.5181
f 1450 1451 1452
v 2115.3339 -1378.9434 283.5191
v 2116.9861 -1378.1786 298.5803
v 2116.9809 -1378.1757 283.5188
f 1453 1454 1455
v 2115.2939 -1378.9292 283.5192
v 2115.3391 -1378.9462 298.5806
v 2115.3339 -1378.9434 283.5191
f 1456 1457 1458
v 2115.1317 -1379.0118 283.5192
v 2115.2991 -1378.9321 298.5806
v 2115.2939 -1378.9292 283.5192
f 1459 1460 1461
v 2101.0853 -1373.9972 283.5250
v 2115.1369 -1379.0146 298.5807
v 2115.1317 -1379.0118 283.5192
f 1462 1463 1464
v 2094.9538 -1390.9877 283.5232
v 2101.0904 -1374.0001 298.5864
v 2101.0853 -1373.9972 283.5250
f 1465 1466 1467
v 2095.1157 -1391.0451 283.5232
v 2094.9590 -1390.9905 298.5847
v 2094.9538 -1390.9877 283.5232
f 1468 1469 1470

g building_ID_E6407B5A-40FC-4B8C-96AF-0FB7C89B31A9
v 2101.0904 -1374.0001 298.5864
v 2094.5474 -1390.8435 298.5849
v 2094.9590 -1390.9905 298.5847
f 1471 1472 1473
v 2094.5474 -1390.8435 298.5849
v 2101.0904 -1374.0001 298.5864
v 2100.6199 -1373.8318 298.5866
f 1474 1475 1476
v 2101.0853 -1373.9972 283.5250
v 2101.0904 -1374.0001 298.5864
v 2094.9590 -1390.9905 298.5847
f 1477 1478 1479
v 2094.9538 -1390.9877 283.5232
v 2094.9590 -1390.9905 298.5847
v 2094.5474 -1390.8435 298.5849
f 1480 1481 1482
v 2072.2209 -1389.2894 302.2894
v 2092.4912 -1396.6067 302.2811
v 2100.6211 -1373.8325 302.2835
f 1483 1484 1485
v 2065.1355 -1366.2936 302.2967
v 2072.2209 -1389.2894 302.2894
v 2100.6211 -1373.8325 302.2835
f 1486 1487 1488
v 2072.2209 -1389.2894 302.2894
v 2065.1355 -1366.2936 302.2967
v 2065.9590 -1387.0146 302.2919
f 1489 1490 1491
v 2065.1355 -1366.2936 302.2967
v 2061.5972 -1385.4680 302.2937
v 2065.9590 -1387.0146 302.2919
f 1492 1493 1494
v 2066.8016 -1361.7590 302.2971
v 2065.1355 -1366.2936 302.2967
v 2100.6211 -1373.8325 302.2835
f 1495 1496 1497
v 2065.1292 -1366.2900 283.5384
v 2065.1355 -1366.2936 302.2967
v 2066.8016 -1361.7590 302.2971
f 1498 1499 1500
v 2061.5910 -1385.4644 283.5354
v 2061.5972 -1385.4680 302.2937
v 2065.1355 -1366.2936 302.2967
f 1501 1502 1503
v 2065.9528 -1387.0110 283.5336
v 2065.9590 -1387.0146 302.2919
v 2061.5972 -1385.4680 302.2937
f 1504 1505 1506
v 2072.2146 -1389.2857 283.5311
v 2072.2209 -1389.2894 302.2894
v 2065.9590 -1387.0146 302.2919
f 1507 1508 1509
v 2092.4848 -1396.6030 283.5228
v 2092.4912 -1396.6067 302.2811
v 2072.2209 -1389.2894 302.2894
f 1510 1511 1512
v 2100.6211 -1373.8325 302.2835
v 2094.5474 -1390.8435 298.5849
v 2100.6199 -1373.8318 298.5866
f 1513 1514 1515
v 2092.4848 -1396.6030 283.5228
v 2094.5474 -1390.8435 298.5849
v 2092.4912 -1396.6067 302.2811
f 1516 1517 1518
v 2100.6211 -1373.8325 302.2835
v 2092.4912 -1396.6067 302.2811
v 2094.5474 -1390.8435 298.5849
f 1519 1520 1521
v 2094.5422 -1390.8405 283.5234
v 2094.5474 -1390.8435 298.5849
v 2092.4848 -1396.6030 283.5228
f 1522 1523 1524
v 2098.7245 -1373.1549 283.5260
v 2066.7954 -1361.7555 283.5388
v 2066.8016 -1361.7590 302.2971
f 1525 1526 1527
v 2100.6199 -1373.8318 298.5866
v 2098.7245 -1373.1549 283.5260
v 2066.8016 -1361.7590 302.2971
f 1528 1529 1530
v 2066.8016 -1361.7590 302.2971
v 2100.6211 -1373.8325 302.2835
v 2100.6199 -1373.8318 298.5866
f 1531 1532 1533
v 2100.6199 -1373.8318 298.5866
v 2101.0904 -1374.0001 298.5864
v 2101.0853 -1373.9972 283.5250
f 1534 1535 1536
v 2098.7245 -1373.1549 283.5260
v 2100.6199 -1373.8318 298.5866
v 2101.0853 -1373.9972 283.5250
f 1537 1538 1539
v 2066.7954 -1361.7555 283.5388
v 2098.7245 -1373.1549 283.5260
v 2065.1292 -1366.2900 283.5384
f 1540 1541 1542
v 2098.7245 -1373.1549 283.5260
v 2094.5422 -1390.8405 283.5234
v 2065.1292 -1366.2900 283.5384
f 1543 1544 1545
v 2094.9538 -1390.9877 283.5232
v 2098.7245 -1373.1549 283.5260
v 2101.0853 -1373.9972 283.5250
f 1546 1547 1548
v 2072.2146 -1389.2857 283.5311
v 2094.5422 -1390.8405 283.5234
v 2092.4848 -1396.6030 283.5228
f 1549 1550 1551
v 2098.7245 -1373.1549 283.5260
v 2094.9538 -1390.9877 283.5232
v 2094.5422 -1390.8405 283.5234
f 1552 1553 1554
v 2072.2146 -1389.2857 283.5311
v 2065.9528 -1387.0110 283.5336
v 2065.1292 -1366.2900 283.5384
f 1555 1556 1557
v 2065.9528 -1387.0110 283.5336
v 2061.5910 -1385.4644 283.5354
v 2065.1292 -1366.2900 283.5384
f 1558 1559 1560
v 2072.2146 -1389.2857 283.5311
v 2065.1292 -1366.2900 283.5384
v 2094.5422 -1390.8405 283.5234
f 1561 1562 1563
v 2101.0853 -1373.9972 283.5250
v 2094.9590 -1390.9905 298.5847
v 2094.9538 -1390.9877 283.5232
f 1564 1565 1566
v 2094.9538 -1390.9877 283.5232
v 2094.5474 -1390.8435 298.5849
v 2094.5422 -1390.8405 283.5234
f 1567 1568 1569
v 2065.1292 -1366.2900 283.5384
v 2066.8016 -1361.7590 302.2971
v 2066.7954 -1361.7555 283.5388
f 1570 1571 1572
v 2061.5910 -1385.4644 283.5354
v 2065.1355 -1366.2936 302.2967
v 2065.1292 -1366.2900 283.5384
f 1573 1574 1575
v 2065.9528 -1387.0110 283.5336
v 2061.5972 -1385.4680 302.2937
v 2061.5910 -1385.4644 283.5354
f 1576 1577 1578
v 2072.2146 -1389.2857 283.5311
v 2065.9590 -1387.0146 302.2919
v 2065.9528 -1387.0110 283.5336
f 1579 1580 1581
v 2092.4848 -1396.6030 283.5228
v 2072.2209 -1389.2894 302.2894
v 2072.2146 -1389.2857 283.5311
f 1582 1583 1584

g building_ID_F0931916-FCB1-42B2-9B42-BDC790311579
v 2034.1692 -1393.4731 300.1838
v 2034.6064 -1375.4462 299.8216
v 2028.5073 -1392.6458 299.4598
f 1585 1586 1587
v 2034.1692 -1393.4731 300.1838
v 2037.3891 -1375.9668 300.1796
v 2034.6064 -1375.4462 299.8216
f 1588 1589 1590
v 2034.6064 -1375.4462 299.8216
v 2031.8177 -1374.9248 299.4627
v 2028.5073 -1392.6458 299.4598
f 1591 1592 1593
v 2034.6064 -1375.4462 299.8216
v 2032.5133 -1375.0546 299.2735
v 2031.8177 -1374.9248 299.4627
f 1594 1595 1596
v 2034.6064 -1375.4462 299.8216
v 2037.3883 -1375.9663 297.9487
v 2032.5133 -1375.0546 299.2735
f 1597 1598 1599
v 2037.3891 -1375.9668 300.1796
v 2037.3883 -1375.9663 297.9487
v 2034.6064 -1375.4462 299.8216
f 1600 1601 1602
v 2041.4831 -1352.1565 298.0465
v 2041.7555 -1352.2078 290.5077
v 2041.7530 -1352.2064 283.1190
f 1603 1604 1605
v 2041.4782 -1352.1537 283.1191
v 2041.4831 -1352.1565 298.0465
v 2041.7530 -1352.2064 283.1190
f 1606 1607 1608
v 2041.4782 -1352.1537 283.1191
v 2041.5125 -1352.0056 298.0455
v 2041.4831 -1352.1565 298.0465
f 1609 1610 1611
v 2041.5125 -1352.0056 298.0455
v 2037.0468 -1351.1699 283.1207
v 2037.0521 -1351.1729 299.2571
f 1612 1613 1614
v 2041.5076 -1352.0028 283.1191
v 2037.0468 -1351.1699 283.1207
v 2041.5125 -1352.0056 298.0455
f 1615 1616 1617
v 2037.0184 -1351.3168 283.1207
v 2037.0238 -1351.3198 299.2581
v 2037.0521 -1351.1729 299.2571
f 1618 1619 1620
v 2041.7579 -1352.2092 297.9714
v 2041.4831 -1352.1565 298.0465
v 2037.3883 -1375.9663 297.9487
f 1621 1622 1623
v 2032.5133 -1375.0546 299.2735
v 2037.3883 -1375.9663 297.9487
v 2041.4831 -1352.1565 298.0465
f 1624 1625 1626
v 2031.8177 -1374.9248 299.4627
v 2032.5133 -1375.0546 299.2735
v 2036.2572 -1351.1707 299.4664
f 1627 1628 1629
v 2032.5133 -1375.0546 299.2735
v 2041.4831 -1352.1565 298.0465
v 2037.0238 -1351.3198 299.2581
f 1630 1631 1632
v 2037.0521 -1351.1729 299.2571
v 2041.4831 -1352.1565 298.0465
v 2041.5125 -1352.0056 298.0455
f 1633 1634 1635
v 2032.5133 -1375.0546 299.2735
v 2037.0238 -1351.3198 299.2581
v 2036.2572 -1351.1707 299.4664
f 1636 1637 1638
v 2041.4831 -1352.1565 298.0465
v 2037.0521 -1351.1729 299.2571
v 2037.0238 -1351.3198 299.2581
f 1639 1640 1641
v 2028.5268 -1392.6492 301.1678
v 2023.4585 -1391.9084 300.3376
v 2022.4170 -1397.7096 300.3436
f 1642 1643 1644
v 2034.1698 -1393.4734 302.0927
v 2022.4170 -1397.7096 300.3436
v 2033.6828 -1396.1221 302.0933
f 1645 1646 1647
v 2034.1698 -1393.4734 302.0927
v 2028.5268 -1392.6492 301.1678
v 2022.4170 -1397.7096 300.3436
f 1648 1649 1650
v 2023.8190 -1397.5104 295.7514
v 2033.6807 -1396.1209 295.8116
v 2022.4170 -1397.7096 300.3436
f 1651 1652 1653
v 2023.8190 -1397.5104 295.7514
v 2022.4170 -1397.7096 300.3436
v 2022.4155 -1397.7087 295.7428
f 1654 1655 1656
v 2050.6857 -1400.8289 283.0065
v 2049.8407 -1401.9437 283.0066
v 2021.0987 -1405.0166 283.0150
f 1657 1658 1659
v 2050.6857 -1400.8289 283.0065
v 2021.0987 -1405.0166 283.0150
v 2050.0328 -1394.8172 283.0081
f 1660 1661 1662
v 2033.6095 -1396.4832 283.0129
v 2050.0328 -1394.8172 283.0081
v 2021.0987 -1405.0166 283.0150
f 1663 1664 1665
v 2022.6945 -1396.1280 283.0165
v 2033.8987 -1394.9110 283.0132
v 2033.6095 -1396.4832 283.0129
f 1666 1667 1668
v 2021.0987 -1405.0166 283.0150
v 2022.6945 -1396.1280 283.0165
v 2033.6095 -1396.4832 283.0129
f 1669 1670 1671
v 2033.6127 -1396.4851 292.5586
v 2033.6137 -1396.4857 295.7405
v 2041.2757 -1395.7083 295.7283
f 1672 1673 1674
v 2033.6116 -1396.4845 289.3767
v 2041.2757 -1395.7083 295.7283
v 2033.6106 -1396.4838 286.1948
f 1675 1676 1677
v 2041.2757 -1395.7083 295.7283
v 2033.6095 -1396.4832 283.0129
v 2033.6106 -1396.4838 286.1948
f 1678 1679 1680
v 2033.6095 -1396.4832 283.0129
v 2041.2757 -1395.7083 295.7283
v 2050.0328 -1394.8172 283.0081
f 1681 1682 1683
v 2050.0370 -1394.8197 295.7126
v 2050.0328 -1394.8172 283.0081
v 2041.2757 -1395.7083 295.7283
f 1684 1685 1686
v 2049.8445 -1401.9458 294.3162
v 2037.1919 -1403.2989 294.3239
v 2021.1012 -1405.0181 290.5978
f 1687 1688 1689
v 2021.0987 -1405.0166 283.0150
v 2049.8407 -1401.9437 283.0066
v 2049.8445 -1401.9458 294.3162
f 1690 1691 1692
v 2021.1012 -1405.0181 290.5978
v 2021.0997 -1405.0171 285.8449
v 2049.8445 -1401.9458 294.3162
f 1693 1694 1695
v 2021.0997 -1405.0171 285.8449
v 2021.0987 -1405.0166 283.0150
v 2049.8445 -1401.9458 294.3162
f 1696 1697 1698
v 2049.8445 -1401.9458 294.3162
v 2050.6857 -1400.8289 283.0065
v 2050.6896 -1400.8312 294.5171
f 1699 1700 1701
v 2050.6857 -1400.8289 283.0065
v 2049.8445 -1401.9458 294.3162
v 2049.8407 -1401.9437 283.0066
f 1702 1703 1704
v 2050.0328 -1394.8172 283.0081
v 2050.0370 -1394.8197 295.7126
v 2050.6896 -1400.8312 294.5171
f 1705 1706 1707
v 2037.1919 -1403.2989 294.3239
v 2022.4155 -1397.7087 295.7428
v 2021.1025 -1405.0189 294.3346
f 1708 1709 1710
v 2033.6137 -1396.4857 295.7405
v 2023.8190 -1397.5104 295.7514
v 2050.6896 -1400.8312 294.5171
f 1711 1712 1713
v 2050.6896 -1400.8312 294.5171
v 2023.8190 -1397.5104 295.7514
v 2022.4155 -1397.7087 295.7428
f 1714 1715 1716
v 2023.8190 -1397.5104 295.7514
v 2033.6137 -1396.4857 295.7405
v 2033.6807 -1396.1209 295.8116
f 1717 1718 1719
v 2049.8445 -1401.9458 294.3162
v 2050.6896 -1400.8312 294.5171
v 2037.1919 -1403.2989 294.3239
f 1720 1721 1722
v 2041.2757 -1395.7083 295.7283
v 2050.6896 -1400.8312 294.5171
v 2050.0370 -1394.8197 295.7126
f 1723 1724 1725
v 2033.6137 -1396.4857 295.7405
v 2050.6896 -1400.8312 294.5171
v 2041.2757 -1395.7083 295.7283
f 1726 1727 1728
v 2050.6896 -1400.8312 294.5171
v 2022.4155 -1397.7087 295.7428
v 2037.1919 -1403.2989 294.3239
f 1729 1730 1731
v 2022.6945 -1396.1280 283.0165
v 2022.6945 -1396.1280 283.1155
v 2033.8987 -1394.9110 283.1122
f 1732 1733 1734
v 2026.0221 -1392.2831 298.9348
v 2028.5073 -1392.6458 299.4598
v 2031.8177 -1374.9248 299.4627
f 1735 1736 1737
v 2031.8177 -1374.9248 299.4627
v 2023.4579 -1391.9080 298.3937
v 2026.0221 -1392.2831 298.9348
f 1738 1739 1740
v 2023.4579 -1391.9080 298.3937
v 2031.8177 -1374.9248 299.4627
v 2023.5818 -1391.2194 298.3928
f 1741 1742 1743
v 2023.5818 -1391.2194 298.3928
v 2036.2572 -1351.1707 299.4664
v 2030.9566 -1350.1394 298.3383
f 1744 1745 1746
v 2036.2572 -1351.1707 299.4664
v 2023.5818 -1391.2194 298.3928
v 2031.8177 -1374.9248 299.4627
f 1747 1748 1749
v 2036.2572 -1351.1707 299.4664
v 2037.0238 -1351.3198 299.2581
v 2030.9566 -1350.1394 298.3383
f 1750 1751 1752
v 2030.9566 -1350.1394 298.3383
v 2037.0238 -1351.3198 299.2581
v 2030.9516 -1350.1365 283.1229
f 1753 1754 1755
v 2037.0238 -1351.3198 299.2581
v 2037.0184 -1351.3168 283.1207
v 2030.9516 -1350.1365 283.1229
f 1756 1757 1758
v 2037.0468 -1351.1699 283.1207
v 2041.5076 -1352.0028 283.1191
v 2041.4782 -1352.1537 283.1191
f 1759 1760 1761
v 2041.4782 -1352.1537 283.1191
v 2041.7530 -1352.2064 283.1190
v 2037.3834 -1375.9636 283.1153
f 1762 1763 1764
v 2037.0184 -1351.3168 283.1207
v 2041.4782 -1352.1537 283.1191
v 2037.3834 -1375.9636 283.1153
f 1765 1766 1767
v 2037.0184 -1351.3168 283.1207
v 2037.0468 -1351.1699 283.1207
v 2041.4782 -1352.1537 283.1191
f 1768 1769 1770
v 2037.0184 -1351.3168 283.1207
v 2023.6650 -1390.7247 283.1165
v 2030.9516 -1350.1365 283.1229
f 1771 1772 1773
v 2023.6650 -1390.7247 283.1165
v 2037.0184 -1351.3168 283.1207
v 2037.3834 -1375.9636 283.1153
f 1774 1775 1776
v 2023.6650 -1390.7247 283.1165
v 2034.0458 -1394.1124 283.1123
v 2033.8987 -1394.9110 283.1122
f 1777 1778 1779
v 2033.8987 -1394.9110 283.1122
v 2022.6945 -1396.1280 283.1155
v 2023.6650 -1390.7247 283.1165
f 1780 1781 1782
v 2037.3834 -1375.9636 283.1153
v 2034.0458 -1394.1124 283.1123
v 2023.6650 -1390.7247 283.1165
f 1783 1784 1785
v 2026.0221 -1392.2831 298.9348
v 2023.4585 -1391.9084 300.3376
v 2028.5073 -1392.6458 299.4598
f 1786 1787 1788
v 2028.5268 -1392.6492 301.1678
v 2028.5073 -1392.6458 299.4598
v 2023.4585 -1391.9084 300.3376
f 1789 1790 1791
v 2023.4585 -1391.9084 300.3376
v 2026.0221 -1392.2831 298.9348
v 2023.4579 -1391.9080 298.3937
f 1792 1793 1794
v 2028.5073 -1392.6458 299.4598
v 2028.5268 -1392.6492 301.1678
v 2034.1698 -1393.4734 302.0927
f 1795 1796 1797
v 2034.1698 -1393.4734 302.0927
v 2034.1692 -1393.4731 300.1838
v 2028.5073 -1392.6458 299.4598
f 1798 1799 1800
v 2034.1692 -1393.4731 300.1838
v 2037.3883 -1375.9663 297.9487
v 2037.3891 -1375.9668 300.1796
f 1801 1802 1803
v 2033.6828 -1396.1221 302.0933
v 2034.1692 -1393.4731 300.1838
v 2034.1698 -1393.4734 302.0927
f 1804 1805 1806
v 2041.7579 -1352.2092 297.9714
v 2037.3883 -1375.9663 297.9487
v 2041.7555 -1352.2078 290.5077
f 1807 1808 1809
v 2037.3883 -1375.9663 297.9487
v 2037.3834 -1375.9636 283.1153
v 2041.7555 -1352.2078 290.5077
f 1810 1811 1812
v 2041.7555 -1352.2078 290.5077
v 2037.3834 -1375.9636 283.1153
v 2041.7530 -1352.2064 283.1190
f 1813 1814 1815
v 2033.6116 -1396.4845 289.3767
v 2037.3834 -1375.9636 283.1153
v 2037.3883 -1375.9663 297.9487
f 1816 1817 1818
v 2033.6807 -1396.1209 295.8116
v 2037.3883 -1375.9663 297.9487
v 2034.1692 -1393.4731 300.1838
f 1819 1820 1821
v 2034.1692 -1393.4731 300.1838
v 2033.6828 -1396.1221 302.0933
v 2033.6807 -1396.1209 295.8116
f 1822 1823 1824
v 2033.6807 -1396.1209 295.8116
v 2033.6127 -1396.4851 292.5586
v 2037.3883 -1375.9663 297.9487
f 1825 1826 1827
v 2033.6807 -1396.1209 295.8116
v 2033.6137 -1396.4857 295.7405
v 2033.6127 -1396.4851 292.5586
f 1828 1829 1830
v 2033.6127 -1396.4851 292.5586
v 2033.6116 -1396.4845 289.3767
v 2037.3883 -1375.9663 297.9487
f 1831 1832 1833
v 2033.8987 -1394.9110 283.1122
v 2034.0458 -1394.1124 283.1123
v 2033.6106 -1396.4838 286.1948
f 1834 1835 1836
v 2033.6106 -1396.4838 286.1948
v 2033.6095 -1396.4832 283.0129
v 2033.8987 -1394.9110 283.1122
f 1837 1838 1839
v 2033.6095 -1396.4832 283.0129
v 2033.8987 -1394.9110 283.0132
v 2033.8987 -1394.9110 283.1122
f 1840 1841 1842
v 2033.6116 -1396.4845 289.3767
v 2033.6106 -1396.4838 286.1948
v 2034.0458 -1394.1124 283.1123
f 1843 1844 1845
v 2034.0458 -1394.1124 283.1123
v 2037.3834 -1375.9636 283.1153
v 2033.6116 -1396.4845 289.3767
f 1846 1847 1848
v 2022.4170 -1397.7096 300.3436
v 2023.4579 -1391.9080 298.3937
v 2022.4155 -1397.7087 295.7428
f 1849 1850 1851
v 2021.1012 -1405.0181 290.5978
v 2022.4155 -1397.7087 295.7428
v 2023.6650 -1390.7247 283.1165
f 1852 1853 1854
v 2021.1012 -1405.0181 290.5978
v 2021.1025 -1405.0189 294.3346
v 2022.4155 -1397.7087 295.7428
f 1855 1856 1857
v 2021.0987 -1405.0166 283.0150
v 2021.0997 -1405.0171 285.8449
v 2022.6945 -1396.1280 283.1155
f 1858 1859 1860
v 2021.0997 -1405.0171 285.8449
v 2023.6650 -1390.7247 283.1165
v 2022.6945 -1396.1280 283.1155
f 1861 1862 1863
v 2022.6945 -1396.1280 283.0165
v 2021.0987 -1405.0166 283.0150
v 2022.6945 -1396.1280 283.1155
f 1864 1865 1866
v 2023.6650 -1390.7247 283.1165
v 2021.0997 -1405.0171 285.8449
v 2021.1012 -1405.0181 290.5978
f 1867 1868 1869
v 2023.4579 -1391.9080 298.3937
v 2023.5818 -1391.2194 298.3928
v 2022.4155 -1397.7087 295.7428
f 1870 1871 1872
v 2023.6650 -1390.7247 283.1165
v 2022.4155 -1397.7087 295.7428
v 2023.5818 -1391.2194 298.3928
f 1873 1874 1875
v 2030.9566 -1350.1394 298.3383
v 2030.9516 -1350.1365 283.1229
v 2023.5818 -1391.2194 298.3928
f 1876 1877 1878
v 2023.6650 -1390.7247 283.1165
v 2023.5818 -1391.2194 298.3928
v 2030.9516 -1350.1365 283.1229
f 1879 1880 1881
v 2023.4585 -1391.9084 300.3376
v 2023.4579 -1391.9080 298.3937
v 2022.4170 -1397.7096 300.3436
f 1882 1883 1884
v 2041.7555 -1352.2078 290.5077
v 2041.4831 -1352.1565 298.0465
v 2041.7579 -1352.2092 297.9714
f 1885 1886 1887
v 2041.5125 -1352.0056 298.0455
v 2041.4782 -1352.1537 283.1191
v 2041.5076 -1352.0028 283.1191
f 1888 1889 1890
v 2037.0468 -1351.1699 283.1207
v 2037.0184 -1351.3168 283.1207
v 2037.0521 -1351.1729 299.2571
f 1891 1892 1893
v 2033.6828 -1396.1221 302.0933
v 2022.4170 -1397.7096 300.3436
v 2033.6807 -1396.1209 295.8116
f 1894 1895 1896
v 2033.6116 -1396.4845 289.3767
v 2033.6127 -1396.4851 292.5586
v 2041.2757 -1395.7083 295.7283
f 1897 1898 1899
v 2037.1919 -1403.2989 294.3239
v 2021.1025 -1405.0189 294.3346
v 2021.1012 -1405.0181 290.5978
f 1900 1901 1902
v 2050.0328 -1394.8172 283.0081
v 2050.6896 -1400.8312 294.5171
v 2050.6857 -1400.8289 283.0065
f 1903 1904 1905
v 2022.6945 -1396.1280 283.0165
v 2033.8987 -1394.9110 283.1122
v 2033.8987 -1394.9110 283.0132
f 1906 1907 1908

g building_ID_107ECFAE-E8A1-4F76-9CC0-982F0D63E86D
v 2058.8607 -1360.1863 283.8687
v 2050.4250 -1357.5028 283.8720
v 2050.8590 -1355.2709 283.8723
f 1909 1910 1911
v 2050.4250 -1357.5028 283.8720
v 2058.8607 -1360.1863 283.8687
v 2058.8174 -1360.3151 283.8687
f 1912 1913 1914
v 2059.2190 -1358.2343 283.8690
v 2058.8607 -1360.1863 283.8687
v 2050.8590 -1355.2709 283.8723
f 1915 1916 1917
v 2052.6079 -1360.9428 290.3564
v 2058.2641 -1361.9750 290.3543
v 2058.8629 -1360.1875 290.3545
f 1918 1919 1920
v 2059.2212 -1358.2355 290.3548
v 2050.8612 -1355.2721 290.3581
v 2058.8629 -1360.1875 290.3545
f 1921 1922 1923
v 2050.8612 -1355.2721 290.3581
v 2052.6079 -1360.9428 290.3564
v 2058.8629 -1360.1875 290.3545
f 1924 1925 1926
v 2050.8612 -1355.2721 290.3581
v 2049.9324 -1360.0466 290.3574
v 2052.6079 -1360.9428 290.3564
f 1927 1928 1929
v 2059.2190 -1358.2343 283.8690
v 2059.2212 -1358.2355 290.3548
v 2058.8629 -1360.1875 290.3545
f 1930 1931 1932
v 2050.8590 -1355.2709 283.8723
v 2050.8612 -1355.2721 290.3581
v 2059.2212 -1358.2355 290.3548
f 1933 1934 1935
v 2052.6077 -1360.9426 289.5024
v 2052.6079 -1360.9428 290.3564
v 2049.9324 -1360.0466 290.3574
f 1936 1937 1938
v 2048.7702 -1366.0123 283.8387
v 2050.4240 -1357.5027 283.8400
v 2056.0261 -1361.5657 283.8373
f 1939 1940 1941
v 2058.8184 -1360.3151 283.8367
v 2056.0261 -1361.5657 283.8373
v 2050.4240 -1357.5027 283.8400
f 1942 1943 1944
v 2054.9940 -1367.2189 283.8365
v 2048.7702 -1366.0123 283.8387
v 2056.0261 -1361.5657 283.8373
f 1945 1946 1947
v 2058.8184 -1360.3151 283.8367
v 2058.2620 -1361.9737 283.8365
v 2056.0261 -1361.5657 283.8373
f 1948 1949 1950
v 2054.9940 -1367.2189 283.8365
v 2054.9959 -1367.2200 289.5003
v 2048.7721 -1366.0133 289.5025
f 1951 1952 1953
v 2056.0261 -1361.5657 283.8373
v 2056.0280 -1361.5667 289.5011
v 2054.9959 -1367.2200 289.5003
f 1954 1955 1956
v 2052.6077 -1360.9426 289.5024
v 2054.9959 -1367.2200 289.5003
v 2056.0280 -1361.5667 289.5011
f 1957 1958 1959
v 2048.7721 -1366.0133 289.5025
v 2052.6077 -1360.9426 289.5024
v 2049.9321 -1360.0465 289.5034
f 1960 1961 1962
v 2054.9959 -1367.2200 289.5003
v 2052.6077 -1360.9426 289.5024
v 2048.7721 -1366.0133 289.5025
f 1963 1964 1965
v 2050.4240 -1357.5027 283.8400
v 2050.4250 -1357.5028 283.8720
v 2058.8184 -1360.3151 283.8367
f 1966 1967 1968
v 2050.4250 -1357.5028 283.8720
v 2048.7702 -1366.0123 283.8387
v 2049.9321 -1360.0465 289.5034
f 1969 1970 1971
v 2048.7721 -1366.0133 289.5025
v 2049.9321 -1360.0465 289.5034
v 2048.7702 -1366.0123 283.8387
f 1972 1973 1974
v 2049.9321 -1360.0465 289.5034
v 2049.9324 -1360.0466 290.3574
v 2050.8612 -1355.2721 290.3581
f 1975 1976 1977
v 2050.8590 -1355.2709 283.8723
v 2050.4250 -1357.5028 283.8720
v 2050.8612 -1355.2721 290.3581
f 1978 1979 1980
v 2049.9321 -1360.0465 289.5034
v 2050.8612 -1355.2721 290.3581
v 2050.4250 -1357.5028 283.8720
f 1981 1982 1983
v 2048.7702 -1366.0123 283.8387
v 2050.4250 -1357.5028 283.8720
v 2050.4240 -1357.5027 283.8400
f 1984 1985 1986
v 2056.0280 -1361.5667 289.5011
v 2056.0261 -1361.5657 283.8373
v 2058.2639 -1361.9748 289.5003
f 1987 1988 1989
v 2058.2639 -1361.9748 289.5003
v 2056.0261 -1361.5657 283.8373
v 2058.2620 -1361.9737 283.8365
f 1990 1991 1992
v 2058.2639 -1361.9748 289.5003
v 2058.2641 -1361.9750 290.3543
v 2056.0280 -1361.5667 289.5011
f 1993 1994 1995
v 2058.8174 -1360.3151 283.8687
v 2058.8607 -1360.1863 283.8687
v 2058.8629 -1360.1875 290.3545
f 1996 1997 1998
v 2058.2620 -1361.9737 283.8365
v 2058.8184 -1360.3151 283.8367
v 2058.8174 -1360.3151 283.8687
f 1999 2000 2001
v 2058.8174 -1360.3151 283.8687
v 2058.8629 -1360.1875 290.3545
v 2058.2639 -1361.9748 289.5003
f 2002 2003 2004
v 2058.8629 -1360.1875 290.3545
v 2058.2641 -1361.9750 290.3543
v 2058.2639 -1361.9748 289.5003
f 2005 2006 2007
v 2058.2639 -1361.9748 289.5003
v 2058.2620 -1361.9737 283.8365
v 2058.8174 -1360.3151 283.8687
f 2008 2009 2010
v 2059.2190 -1358.2343 283.8690
v 2058.8629 -1360.1875 290.3545
v 2058.8607 -1360.1863 283.8687
f 2011 2012 2013
v 2050.8590 -1355.2709 283.8723
v 2059.2212 -1358.2355 290.3548
v 2059.2190 -1358.2343 283.8690
f 2014 2015 2016
v 2052.6077 -1360.9426 289.5024
v 2049.9324 -1360.0466 290.3574
v 2049.9321 -1360.0465 289.5034
f 2017 2018 2019
v 2054.9940 -1367.2189 283.8365
v 2048.7721 -1366.0133 289.5025
v 2048.7702 -1366.0123 283.8387
f 2020 2021 2022
v 2056.0261 -1361.5657 283.8373
v 2054.9959 -1367.2200 289.5003
v 2054.9940 -1367.2189 283.8365
f 2023 2024 2025
v 2050.4250 -1357.5028 283.8720
v 2058.8174 -1360.3151 283.8687
v 2058.8184 -1360.3151 283.8367
f 2026 2027 2028
v 2058.2641 -1361.9750 290.3543
v 2052.6079 -1360.9428 290.3564
v 2056.0280 -1361.5667 289.5011
f 2029 2030 2031
v 2056.0280 -1361.5667 289.5011
v 2052.6079 -1360.9428 290.3564
v 2052.6077 -1360.9426 289.5024
f 2032 2033 2034

g building_ID_5DF3B6AC-9D46-4FF2-B8BC-B413C7895B68
v 1991.5145 -1335.7864 301.7587
v 1985.7330 -1333.3660 301.7610
v 1987.3765 -1335.0384 301.7602
f 2035 2036 2037
v 1986.7360 -1338.5767 301.7596
v 1987.3765 -1335.0384 301.7602
v 1985.7330 -1333.3660 301.7610
f 2038 2039 2040
v 1980.4480 -1373.3217 301.7541
v 1987.4207 -1338.7005 301.7594
v 1986.7360 -1338.5767 301.7596
f 2041 2042 2043
v 1986.7360 -1338.5767 301.7596
v 1978.3639 -1373.0011 301.7548
v 1980.4480 -1373.3217 301.7541
f 2044 2045 2046
v 1981.1327 -1373.4464 301.7538
v 1987.4207 -1338.7005 301.7594
v 1980.4480 -1373.3217 301.7541
f 2047 2048 2049
v 1978.3639 -1373.0011 301.7548
v 1986.7360 -1338.5767 301.7596
v 1985.7330 -1333.3660 301.7610
f 2050 2051 2052
v 1997.0679 -1337.8584 301.7566
v 1998.9753 -1335.8255 301.7564
v 1991.5145 -1335.7864 301.7587
f 2053 2054 2055
v 1985.7330 -1333.3660 301.7610
v 1991.5145 -1335.7864 301.7587
v 1998.9753 -1335.8255 301.7564
f 2056 2057 2058
v 1991.5145 -1335.7864 301.7587
v 1991.3277 -1336.8190 301.7586
v 1997.0679 -1337.8584 301.7566
f 2059 2060 2061
v 1987.2638 -1392.0328 301.7479
v 1998.9753 -1335.8255 301.7564
v 1997.0679 -1337.8584 301.7566
f 2062 2063 2064
v 1977.2081 -1391.2209 301.7512
v 1977.9836 -1386.9339 301.7519
v 1974.8178 -1392.0735 301.7518
f 2065 2066 2067
v 1977.5492 -1377.3808 301.7541
v 1974.8178 -1392.0735 301.7518
v 1977.9836 -1386.9339 301.7519
f 2068 2069 2070
v 1981.0692 -1391.9181 301.7498
v 1977.2081 -1391.2209 301.7512
v 1974.8178 -1392.0735 301.7518
f 2071 2072 2073
v 1977.9836 -1386.9339 301.7519
v 1980.3288 -1377.8842 301.7531
v 1977.5492 -1377.3808 301.7541
f 2074 2075 2076
v 1977.9836 -1386.9339 301.7519
v 1978.6682 -1387.0588 301.7517
v 1980.3288 -1377.8842 301.7531
f 2077 2078 2079
v 1987.2638 -1392.0328 301.7479
v 1981.0692 -1391.9181 301.7498
v 1987.9132 -1394.5035 301.7472
f 2080 2081 2082
v 1974.8178 -1392.0735 301.7518
v 1987.9132 -1394.5035 301.7472
v 1981.0692 -1391.9181 301.7498
f 2083 2084 2085
v 1981.2458 -1390.9437 301.7500
v 1981.0692 -1391.9181 301.7498
v 1987.2638 -1392.0328 301.7479
f 2086 2087 2088
v 1998.9753 -1335.8255 301.7564
v 1987.2638 -1392.0328 301.7479
v 1987.9132 -1394.5035 301.7472
f 2089 2090 2091
v 1985.7269 -1333.3625 282.9287
v 1985.7330 -1333.3660 301.7610
v 1998.9753 -1335.8255 301.7564
f 2092 2093 2094
v 1987.9071 -1394.4998 282.9149
v 1987.9132 -1394.5035 301.7472
v 1974.8178 -1392.0735 301.7518
f 2095 2096 2097
v 1998.9692 -1335.8220 282.9241
v 1998.9753 -1335.8255 301.7564
v 1987.9132 -1394.5035 301.7472
f 2098 2099 2100
v 1978.6687 -1387.0591 303.1737
v 1981.0697 -1391.9185 303.1718
v 1981.2463 -1390.9440 303.1720
f 2101 2102 2103
v 1981.2463 -1390.9440 303.1720
v 1981.1331 -1373.4467 303.1758
v 1980.3292 -1377.8846 303.1751
f 2104 2105 2106
v 1991.3282 -1336.8193 303.1805
v 1981.2463 -1390.9440 303.1720
v 1987.2643 -1392.0331 303.1698
f 2107 2108 2109
v 1980.3292 -1377.8846 303.1751
v 1978.6687 -1387.0591 303.1737
v 1981.2463 -1390.9440 303.1720
f 2110 2111 2112
v 1977.9840 -1386.9342 303.1739
v 1977.2086 -1391.2212 303.1732
v 1978.6687 -1387.0591 303.1737
f 2113 2114 2115
v 1981.0697 -1391.9185 303.1718
v 1978.6687 -1387.0591 303.1737
v 1977.2086 -1391.2212 303.1732
f 2116 2117 2118
v 1977.5486 -1377.3812 303.1761
v 1980.3292 -1377.8846 303.1751
v 1980.4484 -1373.3219 303.1761
f 2119 2120 2121
v 1981.1331 -1373.4467 303.1758
v 1981.2463 -1390.9440 303.1720
v 1991.3282 -1336.8193 303.1805
f 2122 2123 2124
v 1997.0683 -1337.8586 303.1785
v 1991.3282 -1336.8193 303.1805
v 1987.2643 -1392.0331 303.1698
f 2125 2126 2127
v 1987.4211 -1338.7008 303.1813
v 1981.1331 -1373.4467 303.1758
v 1991.3282 -1336.8193 303.1805
f 2128 2129 2130
v 1991.5149 -1335.7867 303.1806
v 1987.4211 -1338.7008 303.1813
v 1991.3282 -1336.8193 303.1805
f 2131 2132 2133
v 1980.4484 -1373.3219 303.1761
v 1978.3634 -1373.0014 303.1768
v 1977.5486 -1377.3812 303.1761
f 2134 2135 2136
v 1987.3769 -1335.0386 303.1821
v 1986.7364 -1338.5769 303.1815
v 1987.4211 -1338.7008 303.1813
f 2137 2138 2139
v 1991.5149 -1335.7867 303.1806
v 1987.3769 -1335.0386 303.1821
v 1987.4211 -1338.7008 303.1813
f 2140 2141 2142
v 1981.1331 -1373.4467 303.1758
v 1980.4484 -1373.3219 303.1761
v 1980.3292 -1377.8846 303.1751
f 2143 2144 2145
v 1987.9071 -1394.4998 282.9149
v 1974.8118 -1392.0698 282.9195
v 1985.7269 -1333.3625 282.9287
f 2146 2147 2148
v 1987.9071 -1394.4998 282.9149
v 1985.7269 -1333.3625 282.9287
v 1998.9692 -1335.8220 282.9241
f 2149 2150 2151
v 1980.3288 -1377.8842 301.7531
v 1980.3292 -1377.8846 303.1751
v 1977.5492 -1377.3808 301.7541
f 2152 2153 2154
v 1978.6682 -1387.0588 301.7517
v 1978.6687 -1387.0591 303.1737
v 1980.3292 -1377.8846 303.1751
f 2155 2156 2157
v 1977.9836 -1386.9339 301.7519
v 1977.9840 -1386.9342 303.1739
v 1978.6687 -1387.0591 303.1737
f 2158 2159 2160
v 1977.2081 -1391.2209 301.7512
v 1977.2086 -1391.2212 303.1732
v 1977.9840 -1386.9342 303.1739
f 2161 2162 2163
v 1981.0692 -1391.9181 301.7498
v 1981.0697 -1391.9185 303.1718
v 1977.2086 -1391.2212 303.1732
f 2164 2165 2166
v 1981.2458 -1390.9437 301.7500
v 1981.2463 -1390.9440 303.1720
v 1981.0697 -1391.9185 303.1718
f 2167 2168 2169
v 1987.2638 -1392.0328 301.7479
v 1987.2643 -1392.0331 303.1698
v 1981.2463 -1390.9440 303.1720
f 2170 2171 2172
v 1997.0679 -1337.8584 301.7566
v 1997.0683 -1337.8586 303.1785
v 1987.2643 -1392.0331 303.1698
f 2173 2174 2175
v 1991.3277 -1336.8190 301.7586
v 1991.3282 -1336.8193 303.1805
v 1997.0683 -1337.8586 303.1785
f 2176 2177 2178
v 1991.5145 -1335.7864 301.7587
v 1991.5149 -1335.7867 303.1806
v 1991.3282 -1336.8193 303.1805
f 2179 2180 2181
v 1987.3765 -1335.0384 301.7602
v 1987.3769 -1335.0386 303.1821
v 1991.5149 -1335.7867 303.1806
f 2182 2183 2184
v 1986.7360 -1338.5767 301.7596
v 1986.7364 -1338.5769 303.1815
v 1987.3769 -1335.0386 303.1821
f 2185 2186 2187
v 1987.4207 -1338.7005 301.7594
v 1987.4211 -1338.7008 303.1813
v 1986.7364 -1338.5769 303.1815
f 2188 2189 2190
v 1981.1327 -1373.4464 301.7538
v 1981.1331 -1373.4467 303.1758
v 1987.4211 -1338.7008 303.1813
f 2191 2192 2193
v 1980.4480 -1373.3217 301.7541
v 1980.4484 -1373.3219 303.1761
v 1981.1331 -1373.4467 303.1758
f 2194 2195 2196
v 1978.3639 -1373.0011 301.7548
v 1978.3634 -1373.0014 303.1768
v 1980.4484 -1373.3219 303.1761
f 2197 2198 2199
v 1985.7269 -1333.3625 282.9287
v 1974.8118 -1392.0698 282.9195
v 1977.5492 -1377.3808 301.7541
f 2200 2201 2202
v 1977.5492 -1377.3808 301.7541
v 1978.3639 -1373.0011 301.7548
v 1985.7269 -1333.3625 282.9287
f 2203 2204 2205
v 1978.3639 -1373.0011 301.7548
v 1977.5492 -1377.3808 301.7541
v 1978.3634 -1373.0014 303.1768
f 2206 2207 2208
v 1985.7269 -1333.3625 282.9287
v 1998.9753 -1335.8255 301.7564
v 1998.9692 -1335.8220 282.9241
f 2209 2210 2211
v 1987.9071 -1394.4998 282.9149
v 1974.8178 -1392.0735 301.7518
v 1974.8118 -1392.0698 282.9195
f 2212 2213 2214
v 1998.9692 -1335.8220 282.9241
v 1987.9132 -1394.5035 301.7472
v 1987.9071 -1394.4998 282.9149
f 2215 2216 2217
v 1980.3292 -1377.8846 303.1751
v 1977.5486 -1377.3812 303.1761
v 1977.5492 -1377.3808 301.7541
f 2218 2219 2220
v 1978.6682 -1387.0588 301.7517
v 1980.3292 -1377.8846 303.1751
v 1980.3288 -1377.8842 301.7531
f 2221 2222 2223
v 1977.9836 -1386.9339 301.7519
v 1978.6687 -1387.0591 303.1737
v 1978.6682 -1387.0588 301.7517
f 2224 2225 2226
v 1977.2081 -1391.2209 301.7512
v 1977.9840 -1386.9342 303.1739
v 1977.9836 -1386.9339 301.7519
f 2227 2228 2229
v 1981.0692 -1391.9181 301.7498
v 1977.2086 -1391.2212 303.1732
v 1977.2081 -1391.2209 301.7512
f 2230 2231 2232
v 1981.2458 -1390.9437 301.7500
v 1981.0697 -1391.9185 303.1718
v 1981.0692 -1391.9181 301.7498
f 2233 2234 2235
v 1987.2638 -1392.0328 301.7479
v 1981.2463 -1390.9440 303.1720
v 1981.2458 -1390.9437 301.7500
f 2236 2237 2238
v 1997.0679 -1337.8584 301.7566
v 1987.2643 -1392.0331 303.1698
v 1987.2638 -1392.0328 301.7479
f 2239 2240 2241
v 1991.3277 -1336.8190 301.7586
v 1997.0683 -1337.8586 303.1785
v 1997.0679 -1337.8584 301.7566
f 2242 2243 2244
v 1991.5145 -1335.7864 301.7587
v 1991.3282 -1336.8193 303.1805
v 1991.3277 -1336.8190 301.7586
f 2245 2246 2247
v 1987.3765 -1335.0384 301.7602
v 1991.5149 -1335.7867 303.1806
v 1991.5145 -1335.7864 301.7587
f 2248 2249 2250
v 1986.7360 -1338.5767 301.7596
v 1987.3769 -1335.0386 303.1821
v 1987.3765 -1335.0384 301.7602
f 2251 2252 2253
v 1987.4207 -1338.7005 301.7594
v 1986.7364 -1338.5769 303.1815
v 1986.7360 -1338.5767 301.7596
f 2254 2255 2256
v 1981.1327 -1373.4464 301.7538
v 1987.4211 -1338.7008 303.1813
v 1987.4207 -1338.7005 301.7594
f 2257 2258 2259
v 1980.4480 -1373.3217 301.7541
v 1981.1331 -1373.4467 303.1758
v 1981.1327 -1373.4464 301.7538
f 2260 2261 2262
v 1978.3639 -1373.0011 301.7548
v 1980.4484 -1373.3219 303.1761
v 1980.4480 -1373.3217 301.7541
f 2263 2264 2265
v 1974.8118 -1392.0698 282.9195
v 1974.8178 -1392.0735 301.7518
v 1977.5492 -1377.3808 301.7541
f 2266 2267 2268
v 1977.5492 -1377.3808 301.7541
v 1977.5486 -1377.3812 303.1761
v 1978.3634 -1373.0014 303.1768
f 2269 2270 2271
v 1985.7269 -1333.3625 282.9287
v 1978.3639 -1373.0011 301.7548
v 1985.7330 -1333.3660 301.7610
f 2272 2273 2274

g building_ID_783B906D-8B45-4C50-8242-73E2C394C863
v 1969.5478 -1354.9609 303.4684
v 1972.3644 -1367.4243 303.4648
v 1977.7717 -1368.4028 303.4630
f 2275 2276 2277
v 1966.9727 -1369.1839 303.4661
v 1971.8843 -1370.0731 303.4644
v 1972.3644 -1367.4243 303.4648
f 2278 2279 2280
v 1972.3644 -1367.4243 303.4648
v 1969.5478 -1354.9609 303.4684
v 1966.9727 -1369.1839 303.4661
f 2281 2282 2283
v 1968.9629 -1348.5853 303.4699
v 1967.8506 -1354.6543 303.4690
v 1969.5478 -1354.9609 303.4684
f 2284 2285 2286
v 1969.5478 -1354.9609 303.4684
v 1977.7717 -1368.4028 303.4630
v 1970.6451 -1348.8898 303.4693
f 2287 2288 2289
v 1973.2343 -1334.5858 303.4715
v 1977.8793 -1337.9602 303.4694
v 1978.3228 -1335.5065 303.4698
f 2290 2291 2292
v 1970.6451 -1348.8898 303.4693
v 1983.1087 -1338.9083 303.4676
v 1977.8793 -1337.9602 303.4694
f 2293 2294 2295
v 1977.8793 -1337.9602 303.4694
v 1973.2343 -1334.5858 303.4715
v 1970.6451 -1348.8898 303.4693
f 2296 2297 2298
v 1969.5478 -1354.9609 303.4684
v 1970.6451 -1348.8898 303.4693
v 1968.9629 -1348.5853 303.4699
f 2299 2300 2301
v 1977.7717 -1368.4028 303.4630
v 1983.1087 -1338.9083 303.4676
v 1970.6451 -1348.8898 303.4693
f 2302 2303 2304
v 1967.8441 -1354.6504 282.9298
v 1967.8506 -1354.6543 303.4690
v 1968.9629 -1348.5853 303.4699
f 2305 2306 2307
v 1969.5478 -1354.9609 303.4684
v 1967.9381 -1354.6703 301.7620
v 1969.5472 -1354.9605 301.7615
f 2308 2309 2310
v 1967.8441 -1354.6504 282.9298
v 1967.9381 -1354.6703 301.7620
v 1967.8506 -1354.6543 303.4690
f 2311 2312 2313
v 1969.5478 -1354.9609 303.4684
v 1967.8506 -1354.6543 303.4690
v 1967.9381 -1354.6703 301.7620
f 2314 2315 2316
v 1967.9320 -1354.6667 282.9297
v 1967.9381 -1354.6703 301.7620
v 1967.8441 -1354.6504 282.9298
f 2317 2318 2319
v 1966.9722 -1369.1835 301.7592
v 1966.9727 -1369.1839 303.4661
v 1969.5478 -1354.9609 303.4684
f 2320 2321 2322
v 1971.8838 -1370.0727 301.7575
v 1971.8843 -1370.0731 303.4644
v 1966.9727 -1369.1839 303.4661
f 2323 2324 2325
v 1972.3639 -1367.4240 301.7579
v 1972.3644 -1367.4243 303.4648
v 1971.8843 -1370.0731 303.4644
f 2326 2327 2328
v 1977.7712 -1368.4025 301.7560
v 1977.7717 -1368.4028 303.4630
v 1972.3644 -1367.4243 303.4648
f 2329 2330 2331
v 1983.1081 -1338.9080 301.7607
v 1983.1087 -1338.9083 303.4676
v 1977.7717 -1368.4028 303.4630
f 2332 2333 2334
v 1977.8787 -1337.9600 301.7625
v 1977.8793 -1337.9602 303.4694
v 1983.1087 -1338.9083 303.4676
f 2335 2336 2337
v 1978.3223 -1335.5062 301.7629
v 1978.3228 -1335.5065 303.4698
v 1977.8793 -1337.9602 303.4694
f 2338 2339 2340
v 1973.2338 -1334.5855 301.7646
v 1973.2343 -1334.5858 303.4715
v 1978.3228 -1335.5065 303.4698
f 2341 2342 2343
v 1970.6445 -1348.8895 301.7624
v 1970.6451 -1348.8898 303.4693
v 1973.2343 -1334.5858 303.4715
f 2344 2345 2346
v 1969.0313 -1348.5947 282.9307
v 1968.9563 -1348.5815 282.9307
v 1969.0373 -1348.5983 301.7630
f 2347 2348 2349
v 1968.9629 -1348.5853 303.4699
v 1969.0373 -1348.5983 301.7630
v 1968.9563 -1348.5815 282.9307
f 2350 2351 2352
v 1970.6445 -1348.8895 301.7624
v 1969.0373 -1348.5983 301.7630
v 1970.6451 -1348.8898 303.4693
f 2353 2354 2355
v 1968.9629 -1348.5853 303.4699
v 1970.6451 -1348.8898 303.4693
v 1969.0373 -1348.5983 301.7630
f 2356 2357 2358
v 1985.7350 -1333.3186 282.9287
v 1985.7411 -1333.3221 301.7610
v 1974.7660 -1392.3564 301.7517
f 2359 2360 2361
v 1972.2377 -1330.8754 282.9334
v 1972.2437 -1330.8789 301.7657
v 1985.7411 -1333.3221 301.7610
f 2362 2363 2364
v 1974.7601 -1392.3527 282.9194
v 1974.7660 -1392.3564 301.7517
v 1961.5505 -1389.9640 301.7563
f 2365 2366 2367
v 1961.5505 -1389.9640 301.7563
v 1974.7660 -1392.3564 301.7517
v 1971.8838 -1370.0727 301.7575
f 2368 2369 2370
v 1977.7712 -1368.4025 301.7560
v 1971.8838 -1370.0727 301.7575
v 1974.7660 -1392.3564 301.7517
f 2371 2372 2373
v 1971.8838 -1370.0727 301.7575
v 1977.7712 -1368.4025 301.7560
v 1972.3639 -1367.4240 301.7579
f 2374 2375 2376
v 1977.7712 -1368.4025 301.7560
v 1974.7660 -1392.3564 301.7517
v 1985.7411 -1333.3221 301.7610
f 2377 2378 2379
v 1967.9381 -1354.6703 301.7620
v 1961.5505 -1389.9640 301.7563
v 1966.9722 -1369.1835 301.7592
f 2380 2381 2382
v 1971.8838 -1370.0727 301.7575
v 1966.9722 -1369.1835 301.7592
v 1961.5505 -1389.9640 301.7563
f 2383 2384 2385
v 1966.9722 -1369.1835 301.7592
v 1969.5472 -1354.9605 301.7615
v 1967.9381 -1354.6703 301.7620
f 2386 2387 2388
v 1978.3223 -1335.5062 301.7629
v 1977.8787 -1337.9600 301.7625
v 1983.1081 -1338.9080 301.7607
f 2389 2390 2391
v 1972.2437 -1330.8789 301.7657
v 1978.3223 -1335.5062 301.7629
v 1985.7411 -1333.3221 301.7610
f 2392 2393 2394
v 1983.1081 -1338.9080 301.7607
v 1985.7411 -1333.3221 301.7610
v 1978.3223 -1335.5062 301.7629
f 2395 2396 2397
v 1985.7411 -1333.3221 301.7610
v 1983.1081 -1338.9080 301.7607
v 1977.7712 -1368.4025 301.7560
f 2398 2399 2400
v 1973.2338 -1334.5855 301.7646
v 1969.0373 -1348.5983 301.7630
v 1970.6445 -1348.8895 301.7624
f 2401 2402 2403
v 1969.0373 -1348.5983 301.7630
v 1973.2338 -1334.5855 301.7646
v 1972.2437 -1330.8789 301.7657
f 2404 2405 2406
v 1978.3223 -1335.5062 301.7629
v 1972.2437 -1330.8789 301.7657
v 1973.2338 -1334.5855 301.7646
f 2407 2408 2409
v 1961.5445 -1389.9603 282.9240
v 1961.5505 -1389.9640 301.7563
v 1967.9381 -1354.6703 301.7620
f 2410 2411 2412
v 1969.0313 -1348.5947 282.9307
v 1969.0373 -1348.5983 301.7630
v 1972.2437 -1330.8789 301.7657
f 2413 2414 2415
v 1969.0313 -1348.5947 282.9307
v 1972.2377 -1330.8754 282.9334
v 1985.7350 -1333.3186 282.9287
f 2416 2417 2418
v 1967.9320 -1354.6667 282.9297
v 1968.9563 -1348.5815 282.9307
v 1969.0313 -1348.5947 282.9307
f 2419 2420 2421
v 1969.0313 -1348.5947 282.9307
v 1985.7350 -1333.3186 282.9287
v 1967.9320 -1354.6667 282.9297
f 2422 2423 2424
v 1961.5445 -1389.9603 282.9240
v 1967.9320 -1354.6667 282.9297
v 1974.7601 -1392.3527 282.9194
f 2425 2426 2427
v 1985.7350 -1333.3186 282.9287
v 1974.7601 -1392.3527 282.9194
v 1967.9320 -1354.6667 282.9297
f 2428 2429 2430
v 1968.9563 -1348.5815 282.9307
v 1967.9320 -1354.6667 282.9297
v 1967.8441 -1354.6504 282.9298
f 2431 2432 2433
v 1967.8441 -1354.6504 282.9298
v 1968.9629 -1348.5853 303.4699
v 1968.9563 -1348.5815 282.9307
f 2434 2435 2436
v 1966.9722 -1369.1835 301.7592
v 1969.5478 -1354.9609 303.4684
v 1969.5472 -1354.9605 301.7615
f 2437 2438 2439
v 1971.8838 -1370.0727 301.7575
v 1966.9727 -1369.1839 303.4661
v 1966.9722 -1369.1835 301.7592
f 2440 2441 2442
v 1972.3639 -1367.4240 301.7579
v 1971.8843 -1370.0731 303.4644
v 1971.8838 -1370.0727 301.7575
f 2443 2444 2445
v 1977.7712 -1368.4025 301.7560
v 1972.3644 -1367.4243 303.4648
v 1972.3639 -1367.4240 301.7579
f 2446 2447 2448
v 1983.1081 -1338.9080 301.7607
v 1977.7717 -1368.4028 303.4630
v 1977.7712 -1368.4025 301.7560
f 2449 2450 2451
v 1977.8787 -1337.9600 301.7625
v 1983.1087 -1338.9083 303.4676
v 1983.1081 -1338.9080 301.7607
f 2452 2453 2454
v 1978.3223 -1335.5062 301.7629
v 1977.8793 -1337.9602 303.4694
v 1977.8787 -1337.9600 301.7625
f 2455 2456 2457
v 1973.2338 -1334.5855 301.7646
v 1978.3228 -1335.5065 303.4698
v 1978.3223 -1335.5062 301.7629
f 2458 2459 2460
v 1970.6445 -1348.8895 301.7624
v 1973.2343 -1334.5858 303.4715
v 1973.2338 -1334.5855 301.7646
f 2461 2462 2463
v 1985.7350 -1333.3186 282.9287
v 1974.7660 -1392.3564 301.7517
v 1974.7601 -1392.3527 282.9194
f 2464 2465 2466
v 1972.2377 -1330.8754 282.9334
v 1985.7411 -1333.3221 301.7610
v 1985.7350 -1333.3186 282.9287
f 2467 2468 2469
v 1974.7601 -1392.3527 282.9194
v 1961.5505 -1389.9640 301.7563
v 1961.5445 -1389.9603 282.9240
f 2470 2471 2472
v 1961.5445 -1389.9603 282.9240
v 1967.9381 -1354.6703 301.7620
v 1967.9320 -1354.6667 282.9297
f 2473 2474 2475
v 1969.0313 -1348.5947 282.9307
v 1972.2437 -1330.8789 301.7657
v 1972.2377 -1330.8754 282.9334
f 2476 2477 2478
