# Grid Center: 2617200, 1263400
# Global Anchor: 7.64977475454284, 47.53283995868075, 0.0

g building_ID_19E479B5-6375-4AF7-9C59-968F547B7A1E
v 1551.9013 -1289.0059 293.3641
v 1461.7195 -1277.4599 296.2317
v 1461.8006 -1289.4725 293.3854
f 1 2 3
v 1461.7195 -1277.4599 296.2317
v 1551.9013 -1289.0059 293.3641
v 1551.8391 -1276.9933 296.2105
f 4 5 6
v 1551.8391 -1276.9933 296.2105
v 1461.6393 -1265.7284 293.5792
v 1461.7195 -1277.4599 296.2317
f 7 8 9
v 1461.6393 -1265.7284 293.5792
v 1551.8391 -1276.9933 296.2105
v 1551.7779 -1265.2627 293.5579
f 10 11 12
v 1551.7779 -1265.2627 293.5579
v 1461.5596 -1253.9037 296.2365
v 1461.6393 -1265.7284 293.5792
f 13 14 15
v 1461.5596 -1253.9037 296.2365
v 1551.7779 -1265.2627 293.5579
v 1551.7173 -1253.4382 296.2152
f 16 17 18
v 1551.7173 -1253.4382 296.2152
v 1461.4801 -1242.2970 293.5838
v 1461.5596 -1253.9037 296.2365
f 19 20 21
v 1461.4801 -1242.2970 293.5838
v 1551.7173 -1253.4382 296.2152
v 1551.6567 -1241.8306 293.5626
f 22 23 24
v 1551.5952 -1229.8950 296.2199
v 1461.3185 -1218.6048 293.5886
v 1461.3997 -1230.3604 296.2411
f 25 26 27
v 1461.3185 -1218.6048 293.5886
v 1551.5952 -1229.8950 296.2199
v 1551.5351 -1218.1375 293.5673
f 28 29 30
v 1551.6567 -1241.8306 293.5626
v 1461.3997 -1230.3604 296.2411
v 1461.4801 -1242.2970 293.5838
f 31 32 33
v 1461.3997 -1230.3604 296.2411
v 1551.6567 -1241.8306 293.5626
v 1551.5952 -1229.8950 296.2199
f 34 35 36
v 1528.7545 -1194.5056 293.4602
v 1528.7534 -1194.1946 293.3883
v 1461.1800 -1194.5446 293.4041
f 37 38 39
v 1461.2425 -1206.8942 296.2457
v 1528.7545 -1194.5056 293.4602
v 1461.1800 -1194.5446 293.4041
f 40 41 42
v 1534.4186 -1194.4637 293.4559
v 1528.7545 -1194.5056 293.4602
v 1551.4742 -1206.4268 296.2244
f 43 44 45
v 1461.2425 -1206.8942 296.2457
v 1551.4742 -1206.4268 296.2244
v 1528.7545 -1194.5056 293.4602
f 46 47 48
v 1543.7577 -1194.3958 293.4487
v 1534.4186 -1194.4637 293.4559
v 1551.4742 -1206.4268 296.2244
f 49 50 51
v 1551.4108 -1194.3403 293.4438
v 1543.7577 -1194.3958 293.4487
v 1551.4742 -1206.4268 296.2244
f 52 53 54
v 1551.4742 -1206.4268 296.2244
v 1461.2425 -1206.8942 296.2457
v 1461.2496 -1208.3321 295.9194
f 55 56 57
v 1461.2496 -1208.3321 295.9194
v 1551.5351 -1218.1375 293.5673
v 1551.4742 -1206.4268 296.2244
f 58 59 60
v 1461.3185 -1218.6048 293.5886
v 1551.5351 -1218.1375 293.5673
v 1461.2496 -1208.3321 295.9194
f 61 62 63
v 1551.9009 -1289.0056 292.0331
v 1551.9013 -1289.0059 293.3641
v 1506.5026 -1289.2411 292.0441
f 64 65 66
v 1461.8006 -1289.4725 293.3854
v 1506.5026 -1289.2411 292.0441
v 1551.9013 -1289.0059 293.3641
f 67 68 69
v 1506.5004 -1289.2394 283.1734
v 1506.5026 -1289.2411 292.0441
v 1461.7982 -1289.4707 283.1837
f 70 71 72
v 1534.4186 -1194.4637 293.4559
v 1528.7520 -1194.5039 283.1866
v 1528.7545 -1194.5056 293.4602
f 73 74 75
v 1534.4186 -1194.4637 293.4559
v 1543.7577 -1194.3958 293.4487
v 1528.7520 -1194.5039 283.1866
f 76 77 78
v 1551.4095 -1194.3394 288.3070
v 1551.4088 -1194.3391 285.7391
v 1543.7577 -1194.3958 293.4487
f 79 80 81
v 1551.4082 -1194.3386 283.1812
v 1528.7520 -1194.5039 283.1866
v 1543.7577 -1194.3958 293.4487
f 82 83 84
v 1551.4088 -1194.3391 285.7391
v 1551.4082 -1194.3386 283.1812
v 1543.7577 -1194.3958 293.4487
f 85 86 87
v 1528.7508 -1194.1929 283.1867
v 1528.7534 -1194.1946 293.3883
v 1528.7520 -1194.5039 283.1866
f 88 89 90
v 1461.1775 -1194.5429 283.2025
v 1461.1800 -1194.5446 293.4041
v 1528.7534 -1194.1946 293.3883
f 91 92 93
v 1461.1775 -1194.5429 283.2025
v 1528.7534 -1194.1946 293.3883
v 1528.7508 -1194.1929 283.1867
f 94 95 96
v 1506.5033 -1289.3281 292.0250
v 1506.5012 -1289.3265 283.1733
v 1506.8514 -1289.3260 292.0240
f 97 98 99
v 1506.5012 -1289.3265 283.1733
v 1506.8492 -1289.3244 283.1733
v 1506.8514 -1289.3260 292.0240
f 100 101 102
v 1506.9210 -1296.1155 283.1719
v 1506.9228 -1296.1169 290.5286
v 1506.8492 -1289.3244 283.1733
f 103 104 105
v 1551.9342 -1295.8831 283.1610
v 1551.9361 -1295.8844 290.5178
v 1506.9210 -1296.1155 283.1719
f 106 107 108
v 1506.9228 -1296.1169 290.5286
v 1506.9210 -1296.1155 283.1719
v 1551.9361 -1295.8844 290.5178
f 109 110 111
v 1506.8514 -1289.3260 292.0240
v 1506.5026 -1289.2411 292.0441
v 1506.5033 -1289.3281 292.0250
f 112 113 114
v 1551.9009 -1289.0056 292.0331
v 1506.5026 -1289.2411 292.0441
v 1506.8514 -1289.3260 292.0240
f 115 116 117
v 1551.9009 -1289.0056 292.0331
v 1506.8514 -1289.3260 292.0240
v 1506.9228 -1296.1169 290.5286
f 118 119 120
v 1551.9361 -1295.8844 290.5178
v 1551.9009 -1289.0056 292.0331
v 1506.9228 -1296.1169 290.5286
f 121 122 123
v 1506.5012 -1289.3265 283.1733
v 1506.5033 -1289.3281 292.0250
v 1506.5004 -1289.2394 283.1734
f 124 125 126
v 1506.5026 -1289.2411 292.0441
v 1506.5004 -1289.2394 283.1734
v 1506.5033 -1289.3281 292.0250
f 127 128 129
v 1528.7520 -1194.5039 283.1866
v 1461.3965 -1230.3582 283.1956
v 1461.3160 -1218.6031 283.1979
f 130 131 132
v 1461.4776 -1242.2953 283.1932
v 1461.3965 -1230.3582 283.1956
v 1528.7520 -1194.5039 283.1866
f 133 134 135
v 1551.7139 -1253.4360 283.1697
v 1506.8492 -1289.3244 283.1733
v 1506.5004 -1289.2394 283.1734
f 136 137 138
v 1528.7520 -1194.5039 283.1866
v 1461.3160 -1218.6031 283.1979
v 1461.2465 -1208.3300 283.1999
f 139 140 141
v 1506.5004 -1289.2394 283.1734
v 1461.5564 -1253.9014 283.1910
v 1461.4776 -1242.2953 283.1932
f 142 143 144
v 1461.7164 -1277.4576 283.1862
v 1461.6368 -1265.7265 283.1886
v 1506.5004 -1289.2394 283.1734
f 145 146 147
v 1461.5564 -1253.9014 283.1910
v 1506.5004 -1289.2394 283.1734
v 1461.6368 -1265.7265 283.1886
f 148 149 150
v 1461.7982 -1289.4707 283.1837
v 1461.7164 -1277.4576 283.1862
v 1506.5004 -1289.2394 283.1734
f 151 152 153
v 1551.6540 -1241.8288 283.1720
v 1506.5004 -1289.2394 283.1734
v 1461.4776 -1242.2953 283.1932
f 154 155 156
v 1461.2394 -1206.8920 283.2002
v 1528.7520 -1194.5039 283.1866
v 1461.2465 -1208.3300 283.1999
f 157 158 159
v 1506.8492 -1289.3244 283.1733
v 1506.5012 -1289.3265 283.1733
v 1506.5004 -1289.2394 283.1734
f 160 161 162
v 1506.8492 -1289.3244 283.1733
v 1551.9342 -1295.8831 283.1610
v 1506.9210 -1296.1155 283.1719
f 163 164 165
v 1528.7520 -1194.5039 283.1866
v 1461.2394 -1206.8920 283.2002
v 1461.1775 -1194.5429 283.2025
f 166 167 168
v 1528.7520 -1194.5039 283.1866
v 1551.6540 -1241.8288 283.1720
v 1461.4776 -1242.2953 283.1932
f 169 170 171
v 1551.4709 -1206.4247 283.1789
v 1528.7520 -1194.5039 283.1866
v 1551.4082 -1194.3386 283.1812
f 172 173 174
v 1551.5325 -1218.1357 283.1767
v 1551.5919 -1229.8928 283.1743
v 1528.7520 -1194.5039 283.1866
f 175 176 177
v 1551.6540 -1241.8288 283.1720
v 1551.7139 -1253.4360 283.1697
v 1506.5004 -1289.2394 283.1734
f 178 179 180
v 1551.6540 -1241.8288 283.1720
v 1528.7520 -1194.5039 283.1866
v 1551.5919 -1229.8928 283.1743
f 181 182 183
v 1506.8492 -1289.3244 283.1733
v 1551.7139 -1253.4360 283.1697
v 1551.7752 -1265.2610 283.1673
f 184 185 186
v 1551.4709 -1206.4247 283.1789
v 1551.5325 -1218.1357 283.1767
v 1528.7520 -1194.5039 283.1866
f 187 188 189
v 1551.8357 -1277.0110 283.1650
v 1506.8492 -1289.3244 283.1733
v 1551.7752 -1265.2610 283.1673
f 190 191 192
v 1506.8492 -1289.3244 283.1733
v 1551.8986 -1289.0041 283.1624
v 1551.9342 -1295.8831 283.1610
f 193 194 195
v 1551.8986 -1289.0041 283.1624
v 1506.8492 -1289.3244 283.1733
v 1551.8357 -1277.0110 283.1650
f 196 197 198
v 1528.7508 -1194.1929 283.1867
v 1528.7520 -1194.5039 283.1866
v 1461.1775 -1194.5429 283.2025
f 199 200 201
v 1461.2465 -1208.3300 283.1999
v 1461.2496 -1208.3321 295.9194
v 1461.2425 -1206.8942 296.2457
f 202 203 204
v 1461.2394 -1206.8920 283.2002
v 1461.2465 -1208.3300 283.1999
v 1461.2425 -1206.8942 296.2457
f 205 206 207
v 1461.1775 -1194.5429 283.2025
v 1461.2394 -1206.8920 283.2002
v 1461.1800 -1194.5446 293.4041
f 208 209 210
v 1461.2425 -1206.8942 296.2457
v 1461.1800 -1194.5446 293.4041
v 1461.2394 -1206.8920 283.2002
f 211 212 213
v 1461.7195 -1277.4599 296.2317
v 1461.6368 -1265.7265 283.1886
v 1461.8006 -1289.4725 293.3854
f 214 215 216
v 1461.4776 -1242.2953 283.1932
v 1461.5564 -1253.9014 283.1910
v 1461.6393 -1265.7284 293.5792
f 217 218 219
v 1461.6393 -1265.7284 293.5792
v 1461.6368 -1265.7265 283.1886
v 1461.7195 -1277.4599 296.2317
f 220 221 222
v 1461.7164 -1277.4576 283.1862
v 1461.7982 -1289.4707 283.1837
v 1461.8006 -1289.4725 293.3854
f 223 224 225
v 1461.6393 -1265.7284 293.5792
v 1461.5564 -1253.9014 283.1910
v 1461.6368 -1265.7265 283.1886
f 226 227 228
v 1461.7164 -1277.4576 283.1862
v 1461.8006 -1289.4725 293.3854
v 1461.6368 -1265.7265 283.1886
f 229 230 231
v 1461.4776 -1242.2953 283.1932
v 1461.6393 -1265.7284 293.5792
v 1461.5596 -1253.9037 296.2365
f 232 233 234
v 1461.3997 -1230.3604 296.2411
v 1461.3160 -1218.6031 283.1979
v 1461.4801 -1242.2970 293.5838
f 235 236 237
v 1461.2465 -1208.3300 283.1999
v 1461.3185 -1218.6048 293.5886
v 1461.2496 -1208.3321 295.9194
f 238 239 240
v 1461.3185 -1218.6048 293.5886
v 1461.3160 -1218.6031 283.1979
v 1461.3997 -1230.3604 296.2411
f 241 242 243
v 1461.4801 -1242.2970 293.5838
v 1461.3965 -1230.3582 283.1956
v 1461.4776 -1242.2953 283.1932
f 244 245 246
v 1461.4801 -1242.2970 293.5838
v 1461.3160 -1218.6031 283.1979
v 1461.3965 -1230.3582 283.1956
f 247 248 249
v 1461.3160 -1218.6031 283.1979
v 1461.3185 -1218.6048 293.5886
v 1461.2465 -1208.3300 283.1999
f 250 251 252
v 1461.5596 -1253.9037 296.2365
v 1461.4801 -1242.2970 293.5838
v 1461.4776 -1242.2953 283.1932
f 253 254 255
v 1551.4108 -1194.3403 293.4438
v 1551.4742 -1206.4268 296.2244
v 1551.4095 -1194.3394 288.3070
f 256 257 258
v 1551.5325 -1218.1357 283.1767
v 1551.5351 -1218.1375 293.5673
v 1551.5952 -1229.8950 296.2199
f 259 260 261
v 1551.4095 -1194.3394 288.3070
v 1551.4742 -1206.4268 296.2244
v 1551.5351 -1218.1375 293.5673
f 262 263 264
v 1551.4088 -1194.3391 285.7391
v 1551.4095 -1194.3394 288.3070
v 1551.5351 -1218.1375 293.5673
f 265 266 267
v 1551.4709 -1206.4247 283.1789
v 1551.4082 -1194.3386 283.1812
v 1551.4088 -1194.3391 285.7391
f 268 269 270
v 1551.4709 -1206.4247 283.1789
v 1551.4088 -1194.3391 285.7391
v 1551.5351 -1218.1375 293.5673
f 271 272 273
v 1551.5351 -1218.1375 293.5673
v 1551.5325 -1218.1357 283.1767
v 1551.4709 -1206.4247 283.1789
f 274 275 276
v 1551.5919 -1229.8928 283.1743
v 1551.5325 -1218.1357 283.1767
v 1551.6567 -1241.8306 293.5626
f 277 278 279
v 1551.6540 -1241.8288 283.1720
v 1551.5919 -1229.8928 283.1743
v 1551.6567 -1241.8306 293.5626
f 280 281 282
v 1551.5952 -1229.8950 296.2199
v 1551.6567 -1241.8306 293.5626
v 1551.5325 -1218.1357 283.1767
f 283 284 285
v 1551.7779 -1265.2627 293.5579
v 1551.6567 -1241.8306 293.5626
v 1551.7173 -1253.4382 296.2152
f 286 287 288
v 1551.7139 -1253.4360 283.1697
v 1551.6540 -1241.8288 283.1720
v 1551.7779 -1265.2627 293.5579
f 289 290 291
v 1551.9013 -1289.0059 293.3641
v 1551.7752 -1265.2610 283.1673
v 1551.8391 -1276.9933 296.2105
f 292 293 294
v 1551.7779 -1265.2627 293.5579
v 1551.8391 -1276.9933 296.2105
v 1551.7752 -1265.2610 283.1673
f 295 296 297
v 1551.9013 -1289.0059 293.3641
v 1551.9009 -1289.0056 292.0331
v 1551.7752 -1265.2610 283.1673
f 298 299 300
v 1551.7752 -1265.2610 283.1673
v 1551.7139 -1253.4360 283.1697
v 1551.7779 -1265.2627 293.5579
f 301 302 303
v 1551.8357 -1277.0110 283.1650
v 1551.7752 -1265.2610 283.1673
v 1551.9009 -1289.0056 292.0331
f 304 305 306
v 1551.8986 -1289.0041 283.1624
v 1551.8357 -1277.0110 283.1650
v 1551.9361 -1295.8844 290.5178
f 307 308 309
v 1551.9361 -1295.8844 290.5178
v 1551.9342 -1295.8831 283.1610
v 1551.8986 -1289.0041 283.1624
f 310 311 312
v 1551.9009 -1289.0056 292.0331
v 1551.9361 -1295.8844 290.5178
v 1551.8357 -1277.0110 283.1650
f 313 314 315
v 1551.6567 -1241.8306 293.5626
v 1551.7779 -1265.2627 293.5579
v 1551.6540 -1241.8288 283.1720
f 316 317 318
v 1506.5026 -1289.2411 292.0441
v 1461.8006 -1289.4725 293.3854
v 1461.7982 -1289.4707 283.1837
f 319 320 321
v 1543.7577 -1194.3958 293.4487
v 1551.4108 -1194.3403 293.4438
v 1551.4095 -1194.3394 288.3070
f 322 323 324
v 1528.7534 -1194.1946 293.3883
v 1528.7545 -1194.5056 293.4602
v 1528.7520 -1194.5039 283.1866
f 325 326 327
v 1506.9228 -1296.1169 290.5286
v 1506.8514 -1289.3260 292.0240
v 1506.8492 -1289.3244 283.1733
f 328 329 330

g building_ID_87CBC3E4-3875-4961-92BA-0A8E6F62FCD3
v 1461.7394 -1156.1719 284.1445
v 1461.7191 -1150.3439 284.1456
v 1514.8400 -1150.2182 284.1331
f 331 332 333
v 1461.7574 -1161.4169 284.1435
v 1461.7394 -1156.1719 284.1445
v 1514.8400 -1150.2182 284.1331
f 334 335 336
v 1514.8400 -1150.2182 284.1331
v 1514.8616 -1155.9683 284.1321
v 1461.7574 -1161.4169 284.1435
f 337 338 339
v 1514.8823 -1161.2892 284.1311
v 1461.7574 -1161.4169 284.1435
v 1514.8616 -1155.9683 284.1321
f 340 341 342
v 1488.3048 -1161.3540 289.9101
v 1461.7407 -1156.1728 289.3813
v 1461.7588 -1161.4178 289.9123
f 343 344 345
v 1514.8629 -1155.9690 289.3689
v 1488.3048 -1161.3540 289.9101
v 1501.6028 -1161.3216 289.9080
f 346 347 348
v 1501.6028 -1161.3216 289.9080
v 1514.8837 -1161.2901 289.9069
v 1514.8629 -1155.9690 289.3689
f 349 350 351
v 1461.7407 -1156.1728 289.3813
v 1488.3048 -1161.3540 289.9101
v 1514.8629 -1155.9690 289.3689
f 352 353 354
v 1494.9454 -1150.2658 289.9257
v 1461.7205 -1150.3448 289.9374
v 1461.7407 -1156.1728 289.3813
f 355 356 357
v 1461.7407 -1156.1728 289.3813
v 1514.8629 -1155.9690 289.3689
v 1494.9454 -1150.2658 289.9257
f 358 359 360
v 1514.8629 -1155.9690 289.3689
v 1514.8414 -1150.2191 289.9179
v 1494.9454 -1150.2658 289.9257
f 361 362 363
v 1514.8823 -1161.2892 284.1311
v 1501.6028 -1161.3216 289.9080
v 1488.3048 -1161.3540 289.9101
f 364 365 366
v 1488.3048 -1161.3540 289.9101
v 1461.7574 -1161.4169 284.1435
v 1514.8823 -1161.2892 284.1311
f 367 368 369
v 1461.7191 -1150.3439 284.1456
v 1494.9454 -1150.2658 289.9257
v 1514.8400 -1150.2182 284.1331
f 370 371 372
v 1494.9454 -1150.2658 289.9257
v 1514.8414 -1150.2191 289.9179
v 1514.8400 -1150.2182 284.1331
f 373 374 375
v 1514.8414 -1150.2191 289.9179
v 1514.8629 -1155.9690 289.3689
v 1514.8616 -1155.9683 284.1321
f 376 377 378
v 1514.8616 -1155.9683 284.1321
v 1514.8400 -1150.2182 284.1331
v 1514.8414 -1150.2191 289.9179
f 379 380 381
v 1514.8823 -1161.2892 284.1311
v 1514.8616 -1155.9683 284.1321
v 1514.8837 -1161.2901 289.9069
f 382 383 384
v 1514.8837 -1161.2901 289.9069
v 1514.8616 -1155.9683 284.1321
v 1514.8629 -1155.9690 289.3689
f 385 386 387
v 1461.7574 -1161.4169 284.1435
v 1461.7588 -1161.4178 289.9123
v 1461.7407 -1156.1728 289.3813
f 388 389 390
v 1461.7407 -1156.1728 289.3813
v 1461.7394 -1156.1719 284.1445
v 1461.7574 -1161.4169 284.1435
f 391 392 393
v 1461.7394 -1156.1719 284.1445
v 1461.7407 -1156.1728 289.3813
v 1461.7191 -1150.3439 284.1456
f 394 395 396
v 1461.7205 -1150.3448 289.9374
v 1461.7191 -1150.3439 284.1456
v 1461.7407 -1156.1728 289.3813
f 397 398 399
v 1514.8837 -1161.2901 289.9069
v 1501.6028 -1161.3216 289.9080
v 1514.8823 -1161.2892 284.1311
f 400 401 402
v 1488.3048 -1161.3540 289.9101
v 1461.7588 -1161.4178 289.9123
v 1461.7574 -1161.4169 284.1435
f 403 404 405
v 1461.7191 -1150.3439 284.1456
v 1461.7205 -1150.3448 289.9374
v 1494.9454 -1150.2658 289.9257
f 406 407 408

g building_ID_534F221F-BDC6-420E-B198-18AF8CD6FBD1
v 1461.6441 -1125.3169 284.2030
v 1461.6315 -1120.3209 284.2039
v 1514.7256 -1120.1182 284.1916
f 409 410 411
v 1461.6164 -1114.3999 284.2051
v 1512.0165 -1114.2080 284.1933
v 1461.6315 -1120.3209 284.2039
f 412 413 414
v 1514.7256 -1120.1182 284.1916
v 1512.0165 -1114.2080 284.1933
v 1514.7025 -1114.2002 284.1926
f 415 416 417
v 1461.6441 -1125.3169 284.2030
v 1514.7256 -1120.1182 284.1916
v 1514.7449 -1125.2031 284.1907
f 418 419 420
v 1512.0165 -1114.2080 284.1933
v 1514.7256 -1120.1182 284.1916
v 1461.6315 -1120.3209 284.2039
f 421 422 423
v 1514.7268 -1120.1190 289.3754
v 1461.6177 -1114.4008 289.9578
v 1461.6328 -1120.3217 289.3878
f 424 425 426
v 1514.7039 -1114.2011 289.9454
v 1512.0179 -1114.2089 289.9461
v 1514.7268 -1120.1190 289.3754
f 427 428 429
v 1461.6177 -1114.4008 289.9578
v 1514.7268 -1120.1190 289.3754
v 1512.0179 -1114.2089 289.9461
f 430 431 432
v 1487.6234 -1125.2624 289.8959
v 1461.6328 -1120.3217 289.3878
v 1461.6455 -1125.3178 289.8968
f 433 434 435
v 1514.7268 -1120.1190 289.3754
v 1487.6234 -1125.2624 289.8959
v 1501.0764 -1125.2335 289.8947
f 436 437 438
v 1501.0764 -1125.2335 289.8947
v 1514.7464 -1125.2040 289.8945
v 1514.7268 -1120.1190 289.3754
f 439 440 441
v 1461.6328 -1120.3217 289.3878
v 1487.6234 -1125.2624 289.8959
v 1514.7268 -1120.1190 289.3754
f 442 443 444
v 1514.7449 -1125.2031 284.1907
v 1514.7464 -1125.2040 289.8945
v 1501.0764 -1125.2335 289.8947
f 445 446 447
v 1514.7449 -1125.2031 284.1907
v 1487.6234 -1125.2624 289.8959
v 1461.6441 -1125.3169 284.2030
f 448 449 450
v 1461.6328 -1120.3217 289.3878
v 1461.6441 -1125.3169 284.2030
v 1461.6455 -1125.3178 289.8968
f 451 452 453
v 1461.6315 -1120.3209 284.2039
v 1461.6328 -1120.3217 289.3878
v 1461.6177 -1114.4008 289.9578
f 454 455 456
v 1461.6328 -1120.3217 289.3878
v 1461.6315 -1120.3209 284.2039
v 1461.6441 -1125.3169 284.2030
f 457 458 459
v 1461.6164 -1114.3999 284.2051
v 1461.6315 -1120.3209 284.2039
v 1461.6177 -1114.4008 289.9578
f 460 461 462
v 1514.7025 -1114.2002 284.1926
v 1514.7039 -1114.2011 289.9454
v 1514.7268 -1120.1190 289.3754
f 463 464 465
v 1514.7268 -1120.1190 289.3754
v 1514.7256 -1120.1182 284.1916
v 1514.7025 -1114.2002 284.1926
f 466 467 468
v 1514.7256 -1120.1182 284.1916
v 1514.7268 -1120.1190 289.3754
v 1514.7449 -1125.2031 284.1907
f 469 470 471
v 1514.7449 -1125.2031 284.1907
v 1514.7268 -1120.1190 289.3754
v 1514.7464 -1125.2040 289.8945
f 472 473 474
v 1461.6164 -1114.3999 284.2051
v 1461.6177 -1114.4008 289.9578
v 1512.0179 -1114.2089 289.9461
f 475 476 477
v 1514.7039 -1114.2011 289.9454
v 1514.7025 -1114.2002 284.1926
v 1512.0165 -1114.2080 284.1933
f 478 479 480
v 1514.7449 -1125.2031 284.1907
v 1501.0764 -1125.2335 289.8947
v 1487.6234 -1125.2624 289.8959
f 481 482 483
v 1487.6234 -1125.2624 289.8959
v 1461.6455 -1125.3178 289.8968
v 1461.6441 -1125.3169 284.2030
f 484 485 486
v 1461.6164 -1114.3999 284.2051
v 1512.0179 -1114.2089 289.9461
v 1512.0165 -1114.2080 284.1933
f 487 488 489
v 1514.7039 -1114.2011 289.9454
v 1512.0165 -1114.2080 284.1933
v 1512.0179 -1114.2089 289.9461
f 490 491 492
