# Grid Center: 2617200, 1263000
# Global Anchor: 7.64977475454284, 47.53283995868075, 0.0

g building_ID_277D249D-8E32-4521-BC06-D1237B6DA3E9
v 1189.9893 -1598.7620 310.0398
v 1191.5856 -1603.1433 310.0384
v 1189.2089 -1600.4319 310.0395
f 1 2 3
v 1191.5856 -1603.1433 310.0384
v 1188.5953 -1601.7473 310.0393
v 1189.2089 -1600.4319 310.0395
f 4 5 6
v 1192.9796 -1600.1580 310.0389
v 1192.2041 -1601.8199 310.0386
v 1189.9893 -1598.7620 310.0398
f 7 8 9
v 1189.9893 -1598.7620 310.0398
v 1192.2041 -1601.8199 310.0386
v 1191.5856 -1603.1433 310.0384
f 10 11 12
v 1189.9905 -1598.7633 315.8716
v 1192.2054 -1601.8213 316.4834
v 1192.9808 -1600.1593 315.8747
f 13 14 15
v 1192.2054 -1601.8213 316.4834
v 1189.9905 -1598.7633 315.8716
v 1189.2101 -1600.4333 316.4843
f 16 17 18
v 1189.2101 -1600.4333 316.4843
v 1188.5965 -1601.7485 315.8921
v 1190.0916 -1602.4466 315.8896
f 19 20 21
v 1189.2101 -1600.4333 316.4843
v 1190.0916 -1602.4466 315.8896
v 1192.2054 -1601.8213 316.4834
f 22 23 24
v 1191.5867 -1603.1445 315.8872
v 1192.2054 -1601.8213 316.4834
v 1190.0916 -1602.4466 315.8896
f 25 26 27
v 1192.9796 -1600.1580 310.0389
v 1189.9893 -1598.7620 310.0398
v 1189.9899 -1598.7627 312.9547
f 28 29 30
v 1189.9902 -1598.7630 314.4136
v 1189.9905 -1598.7633 315.8716
v 1192.9796 -1600.1580 310.0389
f 31 32 33
v 1192.9796 -1600.1580 310.0389
v 1189.9899 -1598.7627 312.9547
v 1189.9902 -1598.7630 314.4136
f 34 35 36
v 1189.9905 -1598.7633 315.8716
v 1192.9808 -1600.1593 315.8747
v 1192.9804 -1600.1590 314.4157
f 37 38 39
v 1191.5856 -1603.1433 310.0384
v 1191.5862 -1603.1439 312.9603
v 1190.0916 -1602.4466 315.8896
f 40 41 42
v 1188.5956 -1601.7476 311.5023
v 1190.0916 -1602.4466 315.8896
v 1188.5962 -1601.7483 314.4291
f 43 44 45
v 1191.5856 -1603.1433 310.0384
v 1188.5956 -1601.7476 311.5023
v 1188.5953 -1601.7473 310.0393
f 46 47 48
v 1190.0916 -1602.4466 315.8896
v 1188.5956 -1601.7476 311.5023
v 1191.5856 -1603.1433 310.0384
f 49 50 51
v 1188.5962 -1601.7483 314.4291
v 1188.5965 -1601.7485 315.8921
v 1189.2101 -1600.4333 316.4843
f 52 53 54
v 1188.5962 -1601.7483 314.4291
v 1189.9902 -1598.7630 314.4136
v 1188.5956 -1601.7476 311.5023
f 55 56 57
v 1189.2101 -1600.4333 316.4843
v 1189.9902 -1598.7630 314.4136
v 1188.5962 -1601.7483 314.4291
f 58 59 60
v 1189.9899 -1598.7627 312.9547
v 1189.2089 -1600.4319 310.0395
v 1188.5956 -1601.7476 311.5023
f 61 62 63
v 1189.9902 -1598.7630 314.4136
v 1189.9899 -1598.7627 312.9547
v 1188.5956 -1601.7476 311.5023
f 64 65 66
v 1189.2089 -1600.4319 310.0395
v 1188.5953 -1601.7473 310.0393
v 1188.5956 -1601.7476 311.5023
f 67 68 69
v 1189.9899 -1598.7627 312.9547
v 1189.9893 -1598.7620 310.0398
v 1189.2089 -1600.4319 310.0395
f 70 71 72
v 1189.9905 -1598.7633 315.8716
v 1189.9902 -1598.7630 314.4136
v 1189.2101 -1600.4333 316.4843
f 73 74 75
v 1192.2041 -1601.8199 310.0386
v 1192.9796 -1600.1580 310.0389
v 1192.9804 -1600.1590 314.4157
f 76 77 78
v 1192.2041 -1601.8199 310.0386
v 1192.9804 -1600.1590 314.4157
v 1191.5856 -1603.1433 310.0384
f 79 80 81
v 1192.2054 -1601.8213 316.4834
v 1191.5862 -1603.1439 312.9603
v 1192.9808 -1600.1593 315.8747
f 82 83 84
v 1191.5867 -1603.1445 315.8872
v 1191.5862 -1603.1439 312.9603
v 1192.2054 -1601.8213 316.4834
f 85 86 87
v 1192.9808 -1600.1593 315.8747
v 1191.5862 -1603.1439 312.9603
v 1191.5856 -1603.1433 310.0384
f 88 89 90
v 1192.9804 -1600.1590 314.4157
v 1192.9808 -1600.1593 315.8747
v 1191.5856 -1603.1433 310.0384
f 91 92 93
v 1189.9905 -1598.7633 315.8716
v 1192.9804 -1600.1590 314.4157
v 1192.9796 -1600.1580 310.0389
f 94 95 96
v 1191.5862 -1603.1439 312.9603
v 1191.5867 -1603.1445 315.8872
v 1190.0916 -1602.4466 315.8896
f 97 98 99
v 1190.0916 -1602.4466 315.8896
v 1188.5965 -1601.7485 315.8921
v 1188.5962 -1601.7483 314.4291
f 100 101 102
