# Grid Center: 2617400, 1265000
# Global Anchor: 7.64977475454284, 47.53283995868075, 0.0

g building_ID_43B9859F-E7FE-460C-80F4-8553E5A2A56D
v 1476.8192 112.4962 261.9076
v 1474.0546 108.1447 261.9083
v 1477.7057 111.9298 261.9074
f 1 2 3
v 1476.9646 106.2988 261.9076
v 1477.7057 111.9298 261.9074
v 1474.0546 108.1447 261.9083
f 4 5 6
v 1480.7773 109.9376 261.9067
v 1476.9646 106.2988 261.9076
v 1478.0308 105.6171 261.9074
f 7 8 9
v 1477.7057 111.9298 261.9074
v 1476.9646 106.2988 261.9076
v 1480.7773 109.9376 261.9067
f 10 11 12
v 1480.7759 109.9373 256.0239
v 1480.7773 109.9376 261.9067
v 1478.0308 105.6171 261.9074
f 13 14 15
v 1456.6988 119.8331 264.3770
v 1451.5233 111.7891 264.3783
v 1467.8676 112.7452 264.3745
f 16 17 18
v 1469.2259 100.5438 264.3744
v 1467.8676 112.7452 264.3745
v 1451.5233 111.7891 264.3783
f 19 20 21
v 1476.8208 112.4982 264.3725
v 1467.9684 112.6870 264.3745
v 1469.2259 100.5438 264.3744
f 22 23 24
v 1467.8676 112.7452 264.3745
v 1469.2259 100.5438 264.3744
v 1467.9684 112.6870 264.3745
f 25 26 27
v 1467.9684 112.6870 264.3745
v 1476.8208 112.4982 264.3725
v 1470.4567 116.5352 264.3738
f 28 29 30
v 1451.5213 111.7887 256.0306
v 1451.5233 111.7891 264.3783
v 1456.6988 119.8331 264.3770
f 31 32 33
v 1469.2239 100.5435 256.0267
v 1469.2259 100.5438 264.3744
v 1451.5233 111.7891 264.3783
f 34 35 36
v 1470.4547 116.5350 256.0261
v 1470.4567 116.5352 264.3738
v 1475.3623 113.4168 256.0251
f 37 38 39
v 1476.8192 112.4962 261.9076
v 1475.3623 113.4168 256.0251
v 1470.4567 116.5352 264.3738
f 40 41 42
v 1470.4567 116.5352 264.3738
v 1476.8208 112.4982 264.3725
v 1476.8192 112.4962 261.9076
f 43 44 45
v 1475.3623 113.4168 256.0251
v 1476.8192 112.4962 261.9076
v 1476.8158 112.4940 256.0248
f 46 47 48
v 1467.9664 112.6866 256.0268
v 1467.9684 112.6870 264.3745
v 1470.4567 116.5352 264.3738
f 49 50 51
v 1467.8656 112.7449 256.0268
v 1467.8676 112.7452 264.3745
v 1467.9684 112.6870 264.3745
f 52 53 54
v 1456.6967 119.8327 256.0292
v 1456.6988 119.8331 264.3770
v 1467.8676 112.7452 264.3745
f 55 56 57
v 1476.8192 112.4962 261.9076
v 1476.8208 112.4982 264.3725
v 1474.0546 108.1447 261.9083
f 58 59 60
v 1469.2259 100.5438 264.3744
v 1474.0546 108.1447 261.9083
v 1476.8208 112.4982 264.3725
f 61 62 63
v 1474.0532 108.1444 256.0255
v 1474.0546 108.1447 261.9083
v 1469.2239 100.5435 256.0267
f 64 65 66
v 1476.8192 112.4962 261.9076
v 1477.7057 111.9298 261.9074
v 1476.8158 112.4940 256.0248
f 67 68 69
v 1480.7759 109.9373 256.0239
v 1477.7043 111.9296 256.0246
v 1477.7057 111.9298 261.9074
f 70 71 72
v 1476.9632 106.2986 256.0248
v 1478.0293 105.6168 256.0246
v 1478.0308 105.6171 261.9074
f 73 74 75
v 1476.9646 106.2988 261.9076
v 1474.0546 108.1447 261.9083
v 1474.0532 108.1444 256.0255
f 76 77 78
v 1477.7043 111.9296 256.0246
v 1476.9632 106.2986 256.0248
v 1474.0532 108.1444 256.0255
f 79 80 81
v 1480.7759 109.9373 256.0239
v 1478.0293 105.6168 256.0246
v 1476.9632 106.2986 256.0248
f 82 83 84
v 1480.7759 109.9373 256.0239
v 1476.9632 106.2986 256.0248
v 1477.7043 111.9296 256.0246
f 85 86 87
v 1476.8158 112.4940 256.0248
v 1477.7043 111.9296 256.0246
v 1474.0532 108.1444 256.0255
f 88 89 90
v 1476.8158 112.4940 256.0248
v 1474.0532 108.1444 256.0255
v 1475.3623 113.4168 256.0251
f 91 92 93
v 1451.5213 111.7887 256.0306
v 1467.8656 112.7449 256.0268
v 1469.2239 100.5435 256.0267
f 94 95 96
v 1456.6967 119.8327 256.0292
v 1467.8656 112.7449 256.0268
v 1451.5213 111.7887 256.0306
f 97 98 99
v 1467.9664 112.6866 256.0268
v 1470.4547 116.5350 256.0261
v 1475.3623 113.4168 256.0251
f 100 101 102
v 1469.2239 100.5435 256.0267
v 1467.8656 112.7449 256.0268
v 1467.9664 112.6866 256.0268
f 103 104 105
v 1475.3623 113.4168 256.0251
v 1474.0532 108.1444 256.0255
v 1467.9664 112.6866 256.0268
f 106 107 108
v 1469.2239 100.5435 256.0267
v 1467.9664 112.6866 256.0268
v 1474.0532 108.1444 256.0255
f 109 110 111
v 1480.7759 109.9373 256.0239
v 1478.0308 105.6171 261.9074
v 1478.0293 105.6168 256.0246
f 112 113 114
v 1451.5213 111.7887 256.0306
v 1456.6988 119.8331 264.3770
v 1456.6967 119.8327 256.0292
f 115 116 117
v 1469.2239 100.5435 256.0267
v 1451.5233 111.7891 264.3783
v 1451.5213 111.7887 256.0306
f 118 119 120
v 1467.9664 112.6866 256.0268
v 1470.4567 116.5352 264.3738
v 1470.4547 116.5350 256.0261
f 121 122 123
v 1467.8656 112.7449 256.0268
v 1467.9684 112.6870 264.3745
v 1467.9664 112.6866 256.0268
f 124 125 126
v 1456.6967 119.8327 256.0292
v 1467.8676 112.7452 264.3745
v 1467.8656 112.7449 256.0268
f 127 128 129
v 1474.0546 108.1447 261.9083
v 1469.2259 100.5438 264.3744
v 1469.2239 100.5435 256.0267
f 130 131 132
v 1477.7057 111.9298 261.9074
v 1477.7043 111.9296 256.0246
v 1476.8158 112.4940 256.0248
f 133 134 135
v 1480.7759 109.9373 256.0239
v 1477.7057 111.9298 261.9074
v 1480.7773 109.9376 261.9067
f 136 137 138
v 1476.9632 106.2986 256.0248
v 1478.0308 105.6171 261.9074
v 1476.9646 106.2988 261.9076
f 139 140 141
v 1476.9646 106.2988 261.9076
v 1474.0532 108.1444 256.0255
v 1476.9632 106.2986 256.0248
f 142 143 144

g building_ID_E114D9B9-A73B-4982-89C8-148BC3BA63C8
v 1429.5738 167.8314 251.8276
v 1422.7364 168.7737 251.8291
v 1424.5730 172.7528 251.8286
f 145 146 147
v 1426.3659 176.4579 251.8281
v 1430.5776 170.0137 251.8273
v 1424.5730 172.7528 251.8286
f 148 149 150
v 1426.3659 176.4579 251.8281
v 1432.3023 173.6510 251.8268
v 1430.5776 170.0137 251.8273
f 151 152 153
v 1429.5738 167.8314 251.8276
v 1428.6718 165.9669 251.8278
v 1422.7364 168.7737 251.8291
f 154 155 156
v 1430.5776 170.0137 251.8273
v 1429.5738 167.8314 251.8276
v 1424.5730 172.7528 251.8286
f 157 158 159
v 1430.5803 170.0143 263.3529
v 1432.3050 173.6516 263.3524
v 1426.3687 176.4585 263.3537
f 160 161 162
v 1424.5758 172.7533 263.3542
v 1430.5803 170.0143 263.3529
v 1426.3687 176.4585 263.3537
f 163 164 165
v 1429.5765 167.8320 263.3532
v 1424.5758 172.7533 263.3542
v 1422.7391 168.7743 263.3547
f 166 167 168
v 1422.7391 168.7743 263.3547
v 1428.6745 165.9674 263.3534
v 1429.5765 167.8320 263.3532
f 169 170 171
v 1430.5803 170.0143 263.3529
v 1424.5758 172.7533 263.3542
v 1429.5765 167.8320 263.3532
f 172 173 174
v 1430.5776 170.0137 251.8273
v 1430.5803 170.0143 263.3529
v 1429.5765 167.8320 263.3532
f 175 176 177
v 1432.3023 173.6510 251.8268
v 1432.3050 173.6516 263.3524
v 1430.5803 170.0143 263.3529
f 178 179 180
v 1426.3659 176.4579 251.8281
v 1426.3687 176.4585 263.3537
v 1432.3050 173.6516 263.3524
f 181 182 183
v 1424.5730 172.7528 251.8286
v 1424.5758 172.7533 263.3542
v 1426.3687 176.4585 263.3537
f 184 185 186
v 1422.7364 168.7737 251.8291
v 1422.7391 168.7743 263.3547
v 1424.5758 172.7533 263.3542
f 187 188 189
v 1428.6718 165.9669 251.8278
v 1428.6745 165.9674 263.3534
v 1422.7391 168.7743 263.3547
f 190 191 192
v 1429.5738 167.8314 251.8276
v 1429.5765 167.8320 263.3532
v 1428.6745 165.9674 263.3534
f 193 194 195
v 1430.5776 170.0137 251.8273
v 1429.5765 167.8320 263.3532
v 1429.5738 167.8314 251.8276
f 196 197 198
v 1432.3023 173.6510 251.8268
v 1430.5803 170.0143 263.3529
v 1430.5776 170.0137 251.8273
f 199 200 201
v 1426.3659 176.4579 251.8281
v 1432.3050 173.6516 263.3524
v 1432.3023 173.6510 251.8268
f 202 203 204
v 1424.5730 172.7528 251.8286
v 1426.3687 176.4585 263.3537
v 1426.3659 176.4579 251.8281
f 205 206 207
v 1422.7364 168.7737 251.8291
v 1424.5758 172.7533 263.3542
v 1424.5730 172.7528 251.8286
f 208 209 210
v 1428.6718 165.9669 251.8278
v 1422.7391 168.7743 263.3547
v 1422.7364 168.7737 251.8291
f 211 212 213
v 1429.5738 167.8314 251.8276
v 1428.6745 165.9674 263.3534
v 1428.6718 165.9669 251.8278
f 214 215 216

g building_ID_E69906B8-BF14-4283-A4CC-40D952204F89
v 1375.0329 183.8855 257.3430
v 1378.5418 182.3811 257.3423
v 1374.4402 182.5071 257.3432
f 217 218 219
v 1375.3462 175.0358 257.3432
v 1374.4402 182.5071 257.3432
v 1378.5418 182.3811 257.3423
f 220 221 222
v 1371.6983 179.9246 257.3438
v 1375.3462 175.0358 257.3432
v 1370.4929 177.1158 257.3442
f 223 224 225
v 1371.6983 179.9246 257.3438
v 1373.0718 183.0938 257.3434
v 1374.4402 182.5071 257.3432
f 226 227 228
v 1375.3462 175.0358 257.3432
v 1371.6983 179.9246 257.3438
v 1374.4402 182.5071 257.3432
f 229 230 231
v 1371.6997 179.9248 263.4456
v 1370.4942 177.1161 263.4460
v 1375.3476 175.0362 263.4450
f 232 233 234
v 1374.4416 182.5074 263.4450
v 1371.6997 179.9248 263.4456
v 1375.3476 175.0362 263.4450
f 235 236 237
v 1375.0343 183.8858 263.4448
v 1374.4416 182.5074 263.4450
v 1378.5432 182.3815 263.4441
f 238 239 240
v 1375.3476 175.0362 263.4450
v 1378.5432 182.3815 263.4441
v 1374.4416 182.5074 263.4450
f 241 242 243
v 1371.6997 179.9248 263.4456
v 1374.4416 182.5074 263.4450
v 1373.0732 183.0942 263.4452
f 244 245 246
v 1374.4402 182.5071 257.3432
v 1374.4416 182.5074 263.4450
v 1375.0343 183.8858 263.4448
f 247 248 249
v 1373.0718 183.0938 257.3434
v 1373.0732 183.0942 263.4452
v 1374.4416 182.5074 263.4450
f 250 251 252
v 1375.3462 175.0358 257.3432
v 1375.3476 175.0362 263.4450
v 1370.4942 177.1161 263.4460
f 253 254 255
v 1378.5418 182.3811 257.3423
v 1378.5432 182.3815 263.4441
v 1375.3476 175.0362 263.4450
f 256 257 258
v 1375.0329 183.8855 257.3430
v 1375.0343 183.8858 263.4448
v 1378.5432 182.3815 263.4441
f 259 260 261
v 1370.4942 177.1161 263.4460
v 1371.6997 179.9248 263.4456
v 1371.6983 179.9246 257.3438
f 262 263 264
v 1373.0718 183.0938 257.3434
v 1371.6983 179.9246 257.3438
v 1371.6997 179.9248 263.4456
f 265 266 267
v 1374.4402 182.5071 257.3432
v 1375.0343 183.8858 263.4448
v 1375.0329 183.8855 257.3430
f 268 269 270
v 1373.0718 183.0938 257.3434
v 1374.4416 182.5074 263.4450
v 1374.4402 182.5071 257.3432
f 271 272 273
v 1375.3462 175.0358 257.3432
v 1370.4942 177.1161 263.4460
v 1370.4929 177.1158 257.3442
f 274 275 276
v 1378.5418 182.3811 257.3423
v 1375.3476 175.0362 263.4450
v 1375.3462 175.0358 257.3432
f 277 278 279
v 1375.0329 183.8855 257.3430
v 1378.5432 182.3815 263.4441
v 1378.5418 182.3811 257.3423
f 280 281 282
v 1370.4942 177.1161 263.4460
v 1371.6983 179.9246 257.3438
v 1370.4929 177.1158 257.3442
f 283 284 285
v 1373.0718 183.0938 257.3434
v 1371.6997 179.9248 263.4456
v 1373.0732 183.0942 263.4452
f 286 287 288

g building_ID_774A2571-00B5-49D9-A193-3A6129D2E348
v 1356.5453 135.7967 297.5497
v 1349.4961 133.4366 297.5512
v 1353.4231 130.8200 297.5504
f 289 290 291
v 1349.4961 133.4366 297.5512
v 1356.5453 135.7967 297.5497
v 1352.5501 138.3044 297.5505
f 292 293 294
v 1349.4961 133.4366 297.3852
v 1349.4961 133.4366 297.5512
v 1352.5501 138.3034 297.3846
f 295 296 297
v 1343.5615 143.8755 258.8246
v 1343.5701 143.8774 297.3863
v 1343.3245 144.0380 297.3864
f 298 299 300
v 1348.5646 141.6579 295.0633
v 1348.5651 141.6579 297.3853
v 1348.1805 141.0460 297.3854
f 301 302 303
v 1343.7327 144.6898 295.0644
v 1343.7333 144.6899 297.3863
v 1348.5651 141.6579 297.3853
f 304 305 306
v 1343.3159 144.0362 258.8247
v 1343.3245 144.0380 297.3864
v 1343.7327 144.6898 295.0644
f 307 308 309
v 1348.1805 141.0460 297.3854
v 1343.5701 143.8774 297.3863
v 1340.6130 139.3563 297.3870
f 310 311 312
v 1343.5701 143.8774 297.3863
v 1343.7333 144.6899 297.3863
v 1343.3245 144.0380 297.3864
f 313 314 315
v 1343.7333 144.6899 297.3863
v 1343.5701 143.8774 297.3863
v 1348.5651 141.6579 297.3853
f 316 317 318
v 1348.1805 141.0460 297.3854
v 1349.4961 133.4366 297.3852
v 1352.5501 138.3034 297.3846
f 319 320 321
v 1343.5701 143.8774 297.3863
v 1348.1805 141.0460 297.3854
v 1348.5651 141.6579 297.3853
f 322 323 324
v 1340.6130 139.3563 297.3870
v 1349.4961 133.4366 297.3852
v 1348.1805 141.0460 297.3854
f 325 326 327
v 1353.7545 130.8495 258.8228
v 1353.7615 130.8509 290.2497
v 1353.6440 130.6712 290.2497
f 328 329 330
v 1353.5279 131.0001 258.8228
v 1353.5349 131.0015 290.2497
v 1353.7615 130.8509 290.2497
f 331 332 333
v 1356.5448 135.7965 295.0618
v 1356.5453 135.7967 297.5497
v 1356.3369 135.4661 295.0618
f 334 335 336
v 1353.4231 130.8200 297.5504
v 1356.3369 135.4661 295.0618
v 1356.5453 135.7967 297.5497
f 337 338 339
v 1353.4214 130.8198 290.2497
v 1353.5349 131.0015 290.2497
v 1353.4231 130.8200 297.5504
f 340 341 342
v 1356.3369 135.4661 295.0618
v 1353.5349 131.0015 290.2497
v 1356.3288 135.4645 258.8221
f 343 344 345
v 1356.3288 135.4645 258.8221
v 1353.5349 131.0015 290.2497
v 1353.5279 131.0001 258.8228
f 346 347 348
v 1353.4231 130.8200 297.5504
v 1353.5349 131.0015 290.2497
v 1356.3369 135.4661 295.0618
f 349 350 351
v 1353.7615 130.8509 290.2497
v 1353.5349 131.0015 290.2497
v 1353.4214 130.8198 290.2497
f 352 353 354
v 1353.4214 130.8198 290.2497
v 1353.6440 130.6712 290.2497
v 1353.7615 130.8509 290.2497
f 355 356 357
v 1355.1158 162.8507 266.1905
v 1350.8397 156.4182 266.1916
v 1352.0170 158.0591 266.1913
f 358 359 360
v 1350.9016 156.3770 266.1916
v 1352.0170 158.0591 266.1913
v 1350.8397 156.4182 266.1916
f 361 362 363
v 1379.2143 140.0124 266.1858
v 1355.1158 162.8507 266.1905
v 1352.0170 158.0591 266.1913
f 364 365 366
v 1355.1158 162.8507 266.1905
v 1379.2143 140.0124 266.1858
v 1382.4585 144.9717 266.1850
f 367 368 369
v 1355.1142 162.8503 258.8217
v 1355.1158 162.8507 266.1905
v 1382.4585 144.9717 266.1850
f 370 371 372
v 1350.8380 156.4178 258.8228
v 1350.8397 156.4182 266.1916
v 1355.1158 162.8507 266.1905
f 373 374 375
v 1350.8999 156.3767 258.8228
v 1350.9016 156.3770 266.1916
v 1350.8397 156.4182 266.1916
f 376 377 378
v 1343.7247 144.6881 258.8246
v 1343.7327 144.6898 295.0644
v 1343.3284 144.9429 295.0645
f 379 380 381
v 1356.6412 135.2566 258.8221
v 1356.6494 135.2583 295.0618
v 1356.3288 135.4645 258.8221
f 382 383 384
v 1356.6643 135.2916 258.8220
v 1356.6724 135.2932 295.0617
v 1356.6494 135.2583 295.0618
f 385 386 387
v 1373.9857 123.9423 258.8185
v 1373.9939 123.9439 295.0583
v 1356.6724 135.2932 295.0617
f 388 389 390
v 1382.9557 137.4611 258.8164
v 1382.9640 137.4627 295.0561
v 1377.1596 128.7144 295.0575
f 391 392 393
v 1379.1665 139.9422 258.8171
v 1379.1747 139.9438 295.0568
v 1382.9640 137.4627 295.0561
f 394 395 396
v 1352.0170 158.0591 266.1913
v 1352.0235 158.0604 295.0623
v 1379.2143 140.0124 266.1858
f 397 398 399
v 1350.8999 156.3767 258.8228
v 1343.3204 144.9412 258.8247
v 1350.9016 156.3770 266.1916
f 400 401 402
v 1343.3284 144.9429 295.0645
v 1350.9016 156.3770 266.1916
v 1343.3204 144.9412 258.8247
f 403 404 405
v 1352.0170 158.0591 266.1913
v 1350.9016 156.3770 266.1916
v 1352.0235 158.0604 295.0623
f 406 407 408
v 1343.3284 144.9429 295.0645
v 1352.0235 158.0604 295.0623
v 1350.9016 156.3770 266.1916
f 409 410 411
v 1374.0642 124.5929 297.5461
v 1378.9839 127.5047 297.5450
v 1376.9097 128.8812 297.5455
f 412 413 414
v 1378.9839 127.5047 297.5450
v 1374.0642 124.5929 297.5461
v 1376.1395 123.2163 297.5457
f 415 416 417
v 1378.9751 127.5029 258.8173
v 1378.9839 127.5047 297.5450
v 1376.1395 123.2163 297.5457
f 418 419 420
v 1374.3060 124.4255 258.8184
v 1374.3142 124.4271 295.0582
v 1373.9939 123.9439 295.0583
f 421 422 423
v 1374.3060 124.4255 258.8184
v 1376.1307 123.2145 258.8180
v 1374.3142 124.4271 295.0582
f 424 425 426
v 1376.1395 123.2163 297.5457
v 1374.3142 124.4271 295.0582
v 1376.1307 123.2145 258.8180
f 427 428 429
v 1374.0636 124.5927 295.0582
v 1374.3142 124.4271 295.0582
v 1374.0642 124.5929 297.5461
f 430 431 432
v 1376.1395 123.2163 297.5457
v 1374.0642 124.5929 297.5461
v 1374.3142 124.4271 295.0582
f 433 434 435
v 1376.9091 128.8810 295.0576
v 1376.9097 128.8812 297.5455
v 1377.1596 128.7144 295.0575
f 436 437 438
v 1378.9839 127.5047 297.5450
v 1377.1596 128.7144 295.0575
v 1376.9097 128.8812 297.5455
f 439 440 441
v 1377.1514 128.7128 258.8177
v 1377.1596 128.7144 295.0575
v 1378.9751 127.5029 258.8173
f 442 443 444
v 1378.9839 127.5047 297.5450
v 1378.9751 127.5029 258.8173
v 1377.1596 128.7144 295.0575
f 445 446 447
v 1374.0636 124.5927 295.0582
v 1374.0642 124.5929 297.5461
v 1376.9097 128.8812 297.5455
f 448 449 450
v 1341.9680 141.4399 258.8250
v 1340.6115 139.3559 290.2522
v 1340.6130 139.3563 297.3870
f 451 452 453
v 1340.6115 139.3559 290.2522
v 1341.9680 141.4399 258.8250
v 1340.6045 139.3545 258.8253
f 454 455 456
v 1341.9680 141.4399 258.8250
v 1343.5701 143.8774 297.3863
v 1343.5615 143.8755 258.8246
f 457 458 459
v 1340.6130 139.3563 297.3870
v 1343.5701 143.8774 297.3863
v 1341.9680 141.4399 258.8250
f 460 461 462
v 1377.1596 128.7144 295.0575
v 1382.9640 137.4627 295.0561
v 1376.9091 128.8810 295.0576
f 463 464 465
v 1379.1747 139.9438 295.0568
v 1376.9091 128.8810 295.0576
v 1382.9640 137.4627 295.0561
f 466 467 468
v 1379.1747 139.9438 295.0568
v 1356.5448 135.7965 295.0618
v 1376.9091 128.8810 295.0576
f 469 470 471
v 1376.9091 128.8810 295.0576
v 1356.5448 135.7965 295.0618
v 1374.0636 124.5927 295.0582
f 472 473 474
v 1374.0636 124.5927 295.0582
v 1373.9939 123.9439 295.0583
v 1374.3142 124.4271 295.0582
f 475 476 477
v 1374.0636 124.5927 295.0582
v 1356.6724 135.2932 295.0617
v 1373.9939 123.9439 295.0583
f 478 479 480
v 1352.0235 158.0604 295.0623
v 1379.1747 139.9438 295.0568
v 1379.2209 140.0138 295.0568
f 481 482 483
v 1352.0235 158.0604 295.0623
v 1343.7327 144.6898 295.0644
v 1348.5646 141.6579 295.0633
f 484 485 486
v 1343.7327 144.6898 295.0644
v 1352.0235 158.0604 295.0623
v 1343.3284 144.9429 295.0645
f 487 488 489
v 1352.0235 158.0604 295.0623
v 1348.5646 141.6579 295.0633
v 1356.5448 135.7965 295.0618
f 490 491 492
v 1356.6494 135.2583 295.0618
v 1356.6724 135.2932 295.0617
v 1356.3369 135.4661 295.0618
f 493 494 495
v 1356.5448 135.7965 295.0618
v 1356.3369 135.4661 295.0618
v 1356.6724 135.2932 295.0617
f 496 497 498
v 1356.5448 135.7965 295.0618
v 1348.5646 141.6579 295.0633
v 1352.5496 138.3032 295.0626
f 499 500 501
v 1348.1799 141.0459 295.0634
v 1352.5496 138.3032 295.0626
v 1348.5646 141.6579 295.0633
f 502 503 504
v 1356.6724 135.2932 295.0617
v 1374.0636 124.5927 295.0582
v 1356.5448 135.7965 295.0618
f 505 506 507
v 1352.0235 158.0604 295.0623
v 1356.5448 135.7965 295.0618
v 1379.1747 139.9438 295.0568
f 508 509 510
v 1352.5496 138.3032 295.0626
v 1348.1799 141.0459 295.0634
v 1348.1805 141.0460 297.3854
f 511 512 513
v 1356.5448 135.7965 295.0618
v 1352.5501 138.3034 297.3846
v 1356.5453 135.7967 297.5497
f 514 515 516
v 1352.5501 138.3044 297.5505
v 1356.5453 135.7967 297.5497
v 1352.5501 138.3034 297.3846
f 517 518 519
v 1352.5501 138.3034 297.3846
v 1356.5448 135.7965 295.0618
v 1352.5496 138.3032 295.0626
f 520 521 522
v 1353.4144 130.8184 258.8228
v 1353.6370 130.6698 258.8228
v 1353.6440 130.6712 290.2497
f 523 524 525
v 1353.4214 130.8198 290.2497
v 1349.4875 133.4348 258.8236
v 1353.4144 130.8184 258.8228
f 526 527 528
v 1349.4961 133.4366 297.3852
v 1353.4214 130.8198 290.2497
v 1353.4231 130.8200 297.5504
f 529 530 531
v 1340.6115 139.3559 290.2522
v 1349.4961 133.4366 297.3852
v 1340.6130 139.3563 297.3870
f 532 533 534
v 1353.4214 130.8198 290.2497
v 1349.4961 133.4366 297.3852
v 1349.4875 133.4348 258.8236
f 535 536 537
v 1340.6045 139.3545 258.8253
v 1349.4875 133.4348 258.8236
v 1340.6115 139.3559 290.2522
f 538 539 540
v 1349.4961 133.4366 297.3852
v 1340.6115 139.3559 290.2522
v 1349.4875 133.4348 258.8236
f 541 542 543
v 1349.4961 133.4366 297.5512
v 1349.4961 133.4366 297.3852
v 1353.4231 130.8200 297.5504
f 544 545 546
v 1379.1747 139.9438 295.0568
v 1379.2143 140.0124 266.1858
v 1379.2209 140.0138 295.0568
f 547 548 549
v 1379.2143 140.0124 266.1858
v 1382.4569 144.9713 258.8163
v 1382.4585 144.9717 266.1850
f 550 551 552
v 1379.2143 140.0124 266.1858
v 1379.1665 139.9422 258.8171
v 1382.4569 144.9713 258.8163
f 553 554 555
v 1379.1747 139.9438 295.0568
v 1379.1665 139.9422 258.8171
v 1379.2143 140.0124 266.1858
f 556 557 558
v 1356.6643 135.2916 258.8220
v 1374.3060 124.4255 258.8184
v 1373.9857 123.9423 258.8185
f 559 560 561
v 1378.9751 127.5029 258.8173
v 1376.1307 123.2145 258.8180
v 1374.3060 124.4255 258.8184
f 562 563 564
v 1353.4144 130.8184 258.8228
v 1353.7545 130.8495 258.8228
v 1353.6370 130.6698 258.8228
f 565 566 567
v 1356.3288 135.4645 258.8221
v 1356.6643 135.2916 258.8220
v 1356.6412 135.2566 258.8221
f 568 569 570
v 1377.1514 128.7128 258.8177
v 1374.3060 124.4255 258.8184
v 1356.6643 135.2916 258.8220
f 571 572 573
v 1374.3060 124.4255 258.8184
v 1377.1514 128.7128 258.8177
v 1378.9751 127.5029 258.8173
f 574 575 576
v 1377.1514 128.7128 258.8177
v 1379.1665 139.9422 258.8171
v 1382.9557 137.4611 258.8164
f 577 578 579
v 1356.6643 135.2916 258.8220
v 1382.4569 144.9713 258.8163
v 1379.1665 139.9422 258.8171
f 580 581 582
v 1379.1665 139.9422 258.8171
v 1377.1514 128.7128 258.8177
v 1356.6643 135.2916 258.8220
f 583 584 585
v 1382.4569 144.9713 258.8163
v 1356.6643 135.2916 258.8220
v 1355.1142 162.8503 258.8217
f 586 587 588
v 1356.3288 135.4645 258.8221
v 1353.5279 131.0001 258.8228
v 1349.4875 133.4348 258.8236
f 589 590 591
v 1353.4144 130.8184 258.8228
v 1349.4875 133.4348 258.8236
v 1353.5279 131.0001 258.8228
f 592 593 594
v 1353.7545 130.8495 258.8228
v 1353.4144 130.8184 258.8228
v 1353.5279 131.0001 258.8228
f 595 596 597
v 1341.9680 141.4399 258.8250
v 1349.4875 133.4348 258.8236
v 1340.6045 139.3545 258.8253
f 598 599 600
v 1341.9680 141.4399 258.8250
v 1343.5615 143.8755 258.8246
v 1349.4875 133.4348 258.8236
f 601 602 603
v 1343.7247 144.6881 258.8246
v 1343.5615 143.8755 258.8246
v 1343.3159 144.0362 258.8247
f 604 605 606
v 1349.4875 133.4348 258.8236
v 1343.5615 143.8755 258.8246
v 1356.3288 135.4645 258.8221
f 607 608 609
v 1350.8999 156.3767 258.8228
v 1356.3288 135.4645 258.8221
v 1343.7247 144.6881 258.8246
f 610 611 612
v 1343.5615 143.8755 258.8246
v 1343.7247 144.6881 258.8246
v 1356.3288 135.4645 258.8221
f 613 614 615
v 1356.3288 135.4645 258.8221
v 1350.8999 156.3767 258.8228
v 1355.1142 162.8503 258.8217
f 616 617 618
v 1350.8380 156.4178 258.8228
v 1355.1142 162.8503 258.8217
v 1350.8999 156.3767 258.8228
f 619 620 621
v 1343.7247 144.6881 258.8246
v 1343.3204 144.9412 258.8247
v 1350.8999 156.3767 258.8228
f 622 623 624
v 1356.6643 135.2916 258.8220
v 1356.3288 135.4645 258.8221
v 1355.1142 162.8503 258.8217
f 625 626 627
v 1349.4961 133.4366 297.5512
v 1352.5501 138.3044 297.5505
v 1352.5501 138.3034 297.3846
f 628 629 630
v 1343.5615 143.8755 258.8246
v 1343.3245 144.0380 297.3864
v 1343.3159 144.0362 258.8247
f 631 632 633
v 1348.5646 141.6579 295.0633
v 1348.1805 141.0460 297.3854
v 1348.1799 141.0459 295.0634
f 634 635 636
v 1343.7327 144.6898 295.0644
v 1348.5651 141.6579 297.3853
v 1348.5646 141.6579 295.0633
f 637 638 639
v 1343.3245 144.0380 297.3864
v 1343.7333 144.6899 297.3863
v 1343.7327 144.6898 295.0644
f 640 641 642
v 1343.3159 144.0362 258.8247
v 1343.7327 144.6898 295.0644
v 1343.7247 144.6881 258.8246
f 643 644 645
v 1353.7545 130.8495 258.8228
v 1353.6440 130.6712 290.2497
v 1353.6370 130.6698 258.8228
f 646 647 648
v 1353.5279 131.0001 258.8228
v 1353.7615 130.8509 290.2497
v 1353.7545 130.8495 258.8228
f 649 650 651
v 1355.1142 162.8503 258.8217
v 1382.4585 144.9717 266.1850
v 1382.4569 144.9713 258.8163
f 652 653 654
v 1350.8380 156.4178 258.8228
v 1355.1158 162.8507 266.1905
v 1355.1142 162.8503 258.8217
f 655 656 657
v 1350.8999 156.3767 258.8228
v 1350.8397 156.4182 266.1916
v 1350.8380 156.4178 258.8228
f 658 659 660
v 1343.7247 144.6881 258.8246
v 1343.3284 144.9429 295.0645
v 1343.3204 144.9412 258.8247
f 661 662 663
v 1356.6494 135.2583 295.0618
v 1356.3369 135.4661 295.0618
v 1356.3288 135.4645 258.8221
f 664 665 666
v 1356.6643 135.2916 258.8220
v 1356.6494 135.2583 295.0618
v 1356.6412 135.2566 258.8221
f 667 668 669
v 1373.9857 123.9423 258.8185
v 1356.6724 135.2932 295.0617
v 1356.6643 135.2916 258.8220
f 670 671 672
v 1382.9557 137.4611 258.8164
v 1377.1596 128.7144 295.0575
v 1377.1514 128.7128 258.8177
f 673 674 675
v 1379.1665 139.9422 258.8171
v 1382.9640 137.4627 295.0561
v 1382.9557 137.4611 258.8164
f 676 677 678
v 1352.0235 158.0604 295.0623
v 1379.2209 140.0138 295.0568
v 1379.2143 140.0124 266.1858
f 679 680 681
v 1378.9751 127.5029 258.8173
v 1376.1395 123.2163 297.5457
v 1376.1307 123.2145 258.8180
f 682 683 684
v 1374.3060 124.4255 258.8184
v 1373.9939 123.9439 295.0583
v 1373.9857 123.9423 258.8185
f 685 686 687
v 1374.0636 124.5927 295.0582
v 1376.9097 128.8812 297.5455
v 1376.9091 128.8810 295.0576
f 688 689 690
v 1352.5496 138.3032 295.0626
v 1348.1805 141.0460 297.3854
v 1352.5501 138.3034 297.3846
f 691 692 693
v 1353.4144 130.8184 258.8228
v 1353.6440 130.6712 290.2497
v 1353.4214 130.8198 290.2497
f 694 695 696

g building_ID_36318A3E-6707-48BF-80DE-3E1ABFE56BF6
v 1404.0760 148.9463 257.7305
v 1409.9588 145.2026 257.7293
v 1409.3563 144.2592 257.7294
f 697 698 699
v 1409.3563 144.2592 257.7294
v 1400.6353 143.8146 257.7314
v 1404.0760 148.9463 257.7305
f 700 701 702
v 1400.6353 143.8146 257.7314
v 1409.3563 144.2592 257.7294
v 1397.5072 138.9180 257.7322
f 703 704 705
v 1397.5072 138.9180 257.7322
v 1401.7038 132.8369 257.7314
v 1396.0461 136.6260 257.7325
f 706 707 708
v 1400.6353 143.8146 257.7314
v 1397.5072 138.9180 257.7322
v 1397.4024 138.9844 257.7322
f 709 710 711
v 1409.3563 144.2592 257.7294
v 1401.7038 132.8369 257.7314
v 1397.5072 138.9180 257.7322
f 712 713 714
v 1397.5095 138.9185 268.0068
v 1396.0484 136.6265 268.0071
v 1401.7062 132.8374 268.0060
f 715 716 717
v 1400.6376 143.8151 268.0060
v 1397.4047 138.9848 268.0068
v 1397.5095 138.9185 268.0068
f 718 719 720
v 1397.5095 138.9185 268.0068
v 1401.7062 132.8374 268.0060
v 1400.6376 143.8151 268.0060
f 721 722 723
v 1404.0783 148.9468 268.0051
v 1409.3587 144.2597 268.0040
v 1409.9612 145.2031 268.0039
f 724 725 726
v 1409.3587 144.2597 268.0040
v 1404.0783 148.9468 268.0051
v 1400.6376 143.8151 268.0060
f 727 728 729
v 1401.7062 132.8374 268.0060
v 1409.3587 144.2597 268.0040
v 1400.6376 143.8151 268.0060
f 730 731 732
v 1409.9588 145.2026 257.7293
v 1409.9612 145.2031 268.0039
v 1409.3587 144.2597 268.0040
f 733 734 735
v 1404.0760 148.9463 257.7305
v 1404.0783 148.9468 268.0051
v 1409.9612 145.2031 268.0039
f 736 737 738
v 1397.5072 138.9180 257.7322
v 1397.5095 138.9185 268.0068
v 1397.4047 138.9848 268.0068
f 739 740 741
v 1396.0461 136.6260 257.7325
v 1396.0484 136.6265 268.0071
v 1397.5095 138.9185 268.0068
f 742 743 744
v 1401.7038 132.8369 257.7314
v 1401.7062 132.8374 268.0060
v 1396.0484 136.6265 268.0071
f 745 746 747
v 1409.3563 144.2592 257.7294
v 1409.3587 144.2597 268.0040
v 1401.7062 132.8374 268.0060
f 748 749 750
v 1397.4024 138.9844 257.7322
v 1397.4047 138.9848 268.0068
v 1400.6376 143.8151 268.0060
f 751 752 753
v 1404.0783 148.9468 268.0051
v 1404.0760 148.9463 257.7305
v 1400.6353 143.8146 257.7314
f 754 755 756
v 1409.9588 145.2026 257.7293
v 1409.3587 144.2597 268.0040
v 1409.3563 144.2592 257.7294
f 757 758 759
v 1404.0760 148.9463 257.7305
v 1409.9612 145.2031 268.0039
v 1409.9588 145.2026 257.7293
f 760 761 762
v 1397.5072 138.9180 257.7322
v 1397.4047 138.9848 268.0068
v 1397.4024 138.9844 257.7322
f 763 764 765
v 1396.0461 136.6260 257.7325
v 1397.5095 138.9185 268.0068
v 1397.5072 138.9180 257.7322
f 766 767 768
v 1401.7038 132.8369 257.7314
v 1396.0484 136.6265 268.0071
v 1396.0461 136.6260 257.7325
f 769 770 771
v 1409.3563 144.2592 257.7294
v 1401.7062 132.8374 268.0060
v 1401.7038 132.8369 257.7314
f 772 773 774
v 1397.4024 138.9844 257.7322
v 1400.6376 143.8151 268.0060
v 1400.6353 143.8146 257.7314
f 775 776 777
v 1404.0783 148.9468 268.0051
v 1400.6353 143.8146 257.7314
v 1400.6376 143.8151 268.0060
f 778 779 780

g building_ID_991A631F-8472-457B-BBCB-0B180B05A89A
v 1388.2027 150.6042 266.6816
v 1391.2385 142.3452 266.3482
v 1396.9007 145.0830 266.6799
f 781 782 783
v 1396.9007 145.0830 266.6799
v 1391.2385 142.3452 266.3482
v 1394.0346 140.5707 266.3476
f 784 785 786
v 1391.2385 142.3452 266.3482
v 1388.2027 150.6042 266.6816
v 1385.3317 146.1360 266.3514
f 787 788 789
v 1391.2385 142.3452 266.3482
v 1385.3297 146.1355 257.6457
v 1391.2364 142.3448 257.6445
f 790 791 792
v 1385.3317 146.1360 266.3514
v 1385.3297 146.1355 257.6457
v 1391.2385 142.3452 266.3482
f 793 794 795
v 1394.0326 140.5703 257.6439
v 1394.0346 140.5707 266.3476
v 1391.2364 142.3448 257.6445
f 796 797 798
v 1388.2022 150.6041 264.3587
v 1388.2027 150.6042 266.6816
v 1396.9002 145.0829 264.3570
f 799 800 801
v 1389.6145 152.8040 257.6446
v 1389.6160 152.8043 264.3584
v 1398.3011 147.2911 264.3566
f 802 803 804
v 1396.9002 145.0829 264.3570
v 1389.6160 152.8043 264.3584
v 1388.2022 150.6041 264.3587
f 805 806 807
v 1389.6160 152.8043 264.3584
v 1396.9002 145.0829 264.3570
v 1398.3011 147.2911 264.3566
f 808 809 810
v 1385.3297 146.1355 257.6457
v 1385.3317 146.1360 266.3514
v 1387.6694 149.7772 257.6451
f 811 812 813
v 1385.3317 146.1360 266.3514
v 1388.2022 150.6041 264.3587
v 1387.6694 149.7772 257.6451
f 814 815 816
v 1389.6145 152.8040 257.6446
v 1388.2022 150.6041 264.3587
v 1389.6160 152.8043 264.3584
f 817 818 819
v 1388.2022 150.6041 264.3587
v 1389.6145 152.8040 257.6446
v 1387.6694 149.7772 257.6451
f 820 821 822
v 1388.2027 150.6042 266.6816
v 1388.2022 150.6041 264.3587
v 1385.3317 146.1360 266.3514
f 823 824 825
v 1396.8987 145.0826 257.6432
v 1387.6694 149.7772 257.6451
v 1389.6145 152.8040 257.6446
f 826 827 828
v 1398.2996 147.2908 257.6428
v 1396.8987 145.0826 257.6432
v 1389.6145 152.8040 257.6446
f 829 830 831
v 1396.8987 145.0826 257.6432
v 1391.2364 142.3448 257.6445
v 1387.6694 149.7772 257.6451
f 832 833 834
v 1385.3297 146.1355 257.6457
v 1387.6694 149.7772 257.6451
v 1391.2364 142.3448 257.6445
f 835 836 837
v 1396.8987 145.0826 257.6432
v 1394.0326 140.5703 257.6439
v 1391.2364 142.3448 257.6445
f 838 839 840
v 1394.0346 140.5707 266.3476
v 1396.9002 145.0829 264.3570
v 1396.9007 145.0830 266.6799
f 841 842 843
v 1396.9002 145.0829 264.3570
v 1398.2996 147.2908 257.6428
v 1398.3011 147.2911 264.3566
f 844 845 846
v 1398.2996 147.2908 257.6428
v 1396.9002 145.0829 264.3570
v 1396.8987 145.0826 257.6432
f 847 848 849
v 1396.9002 145.0829 264.3570
v 1394.0326 140.5703 257.6439
v 1396.8987 145.0826 257.6432
f 850 851 852
v 1394.0326 140.5703 257.6439
v 1396.9002 145.0829 264.3570
v 1394.0346 140.5707 266.3476
f 853 854 855
v 1394.0346 140.5707 266.3476
v 1391.2385 142.3452 266.3482
v 1391.2364 142.3448 257.6445
f 856 857 858
v 1388.2027 150.6042 266.6816
v 1396.9007 145.0830 266.6799
v 1396.9002 145.0829 264.3570
f 859 860 861
v 1389.6145 152.8040 257.6446
v 1398.3011 147.2911 264.3566
v 1398.2996 147.2908 257.6428
f 862 863 864

g building_ID_2D10FE0B-B8EB-439C-A03A-4B0AACE699D5
v 1441.1281 135.4593 256.8416
v 1422.7078 140.1144 256.8456
v 1426.0084 145.2256 256.8447
f 865 866 867
v 1434.6543 125.4357 256.8431
v 1419.5347 135.2010 256.8464
v 1422.7078 140.1144 256.8456
f 868 869 870
v 1422.7078 140.1144 256.8456
v 1437.8274 130.3491 256.8423
v 1434.6543 125.4357 256.8431
f 871 872 873
v 1422.7078 140.1144 256.8456
v 1441.1281 135.4593 256.8416
v 1437.8274 130.3491 256.8423
f 874 875 876
v 1426.0109 145.2260 267.4173
v 1437.8303 130.3497 269.1209
v 1441.1305 135.4597 267.4142
f 877 878 879
v 1437.8303 130.3497 269.1209
v 1426.0109 145.2260 267.4173
v 1422.7107 140.1150 269.1242
f 880 881 882
v 1419.5372 135.2015 267.4190
v 1434.6568 125.4362 267.4158
v 1437.8303 130.3497 269.1209
f 883 884 885
v 1437.8303 130.3497 269.1209
v 1422.7107 140.1150 269.1242
v 1419.5372 135.2015 267.4190
f 886 887 888
v 1426.0084 145.2256 256.8447
v 1426.0109 145.2260 267.4173
v 1441.1305 135.4597 267.4142
f 889 890 891
v 1434.6543 125.4357 256.8431
v 1434.6568 125.4362 267.4158
v 1419.5372 135.2015 267.4190
f 892 893 894
v 1437.8274 130.3491 256.8423
v 1441.1281 135.4593 256.8416
v 1441.1305 135.4597 267.4142
f 895 896 897
v 1437.8303 130.3497 269.1209
v 1437.8274 130.3491 256.8423
v 1441.1305 135.4597 267.4142
f 898 899 900
v 1434.6543 125.4357 256.8431
v 1437.8303 130.3497 269.1209
v 1434.6568 125.4362 267.4158
f 901 902 903
v 1437.8274 130.3491 256.8423
v 1437.8303 130.3497 269.1209
v 1434.6543 125.4357 256.8431
f 904 905 906
v 1422.7078 140.1144 256.8456
v 1419.5347 135.2010 256.8464
v 1419.5372 135.2015 267.4190
f 907 908 909
v 1422.7107 140.1150 269.1242
v 1422.7078 140.1144 256.8456
v 1419.5372 135.2015 267.4190
f 910 911 912
v 1426.0084 145.2256 256.8447
v 1422.7078 140.1144 256.8456
v 1426.0109 145.2260 267.4173
f 913 914 915
v 1422.7107 140.1150 269.1242
v 1426.0109 145.2260 267.4173
v 1422.7078 140.1144 256.8456
f 916 917 918
v 1426.0084 145.2256 256.8447
v 1441.1305 135.4597 267.4142
v 1441.1281 135.4593 256.8416
f 919 920 921
v 1434.6543 125.4357 256.8431
v 1419.5372 135.2015 267.4190
v 1419.5347 135.2010 256.8464
f 922 923 924

g building_ID_20876B8F-A853-4421-8911-76DD2807A18F
v 1443.3184 125.2119 264.4300
v 1443.3192 125.2120 267.7489
v 1438.4987 128.2867 264.4310
f 925 926 927
v 1442.2168 123.4849 264.4303
v 1442.2175 123.4849 267.7492
v 1443.3192 125.2120 267.7489
f 928 929 930
v 1446.0751 121.0235 264.4294
v 1446.0759 121.0237 267.7482
v 1442.2175 123.4849 267.7492
f 931 932 933
v 1447.1767 122.7505 264.4291
v 1447.1775 122.7507 267.7479
v 1446.0759 121.0237 267.7482
f 934 935 936
v 1447.3554 122.6370 264.4291
v 1447.3562 122.6372 267.7479
v 1447.1775 122.7507 267.7479
f 937 938 939
v 1435.7663 122.1007 256.3350
v 1435.7681 122.1011 264.4317
v 1435.4511 123.5839 264.4318
f 940 941 942
v 1443.7584 117.0014 256.3332
v 1443.7603 117.0018 264.4300
v 1435.7681 122.1011 264.4317
f 943 944 945
v 1446.0751 121.0235 264.4294
v 1447.3554 122.6370 264.4291
v 1447.1767 122.7505 264.4291
f 946 947 948
v 1442.2168 123.4849 264.4303
v 1443.7603 117.0018 264.4300
v 1446.0751 121.0235 264.4294
f 949 950 951
v 1447.3554 122.6370 264.4291
v 1446.0751 121.0235 264.4294
v 1443.7603 117.0018 264.4300
f 952 953 954
v 1442.2168 123.4849 264.4303
v 1443.3184 125.2119 264.4300
v 1438.4987 128.2867 264.4310
f 955 956 957
v 1435.7681 122.1011 264.4317
v 1442.2168 123.4849 264.4303
v 1435.4511 123.5839 264.4318
f 958 959 960
v 1438.4987 128.2867 264.4310
v 1435.4511 123.5839 264.4318
v 1442.2168 123.4849 264.4303
f 961 962 963
v 1443.7603 117.0018 264.4300
v 1442.2168 123.4849 264.4303
v 1435.7681 122.1011 264.4317
f 964 965 966
v 1448.8892 130.5120 267.7475
v 1447.1775 122.7507 267.7479
v 1451.3700 128.9294 267.7470
f 967 968 969
v 1451.3700 128.9294 267.7470
v 1447.1775 122.7507 267.7479
v 1447.3562 122.6372 267.7479
f 970 971 972
v 1442.2175 123.4849 267.7492
v 1446.0759 121.0237 267.7482
v 1447.1775 122.7507 267.7479
f 973 974 975
v 1443.3192 125.2120 267.7489
v 1448.8892 130.5120 267.7475
v 1442.5591 134.5499 267.7488
f 976 977 978
v 1443.3192 125.2120 267.7489
v 1442.2175 123.4849 267.7492
v 1447.1775 122.7507 267.7479
f 979 980 981
v 1442.5591 134.5499 267.7488
v 1438.4995 128.2868 267.7499
v 1443.3192 125.2120 267.7489
f 982 983 984
v 1448.8892 130.5120 267.7475
v 1443.3192 125.2120 267.7489
v 1447.1775 122.7507 267.7479
f 985 986 987
v 1442.5565 134.5493 256.3333
v 1442.5591 134.5499 267.7488
v 1448.8892 130.5120 267.7475
f 988 989 990
v 1451.3700 128.9294 267.7470
v 1451.3673 128.9288 256.3313
v 1448.8866 130.5115 256.3319
f 991 992 993
v 1451.3700 128.9294 267.7470
v 1447.3554 122.6370 264.4291
v 1451.3673 128.9288 256.3313
f 994 995 996
v 1447.3554 122.6370 264.4291
v 1451.3700 128.9294 267.7470
v 1447.3562 122.6372 267.7479
f 997 998 999
v 1447.3535 122.6367 256.3323
v 1447.3554 122.6370 264.4291
v 1443.7603 117.0018 264.4300
f 1000 1001 1002
v 1443.7603 117.0018 264.4300
v 1443.7584 117.0014 256.3332
v 1447.3535 122.6367 256.3323
f 1003 1004 1005
v 1451.3673 128.9288 256.3313
v 1447.3554 122.6370 264.4291
v 1447.3535 122.6367 256.3323
f 1006 1007 1008
v 1438.4987 128.2867 264.4310
v 1438.4968 128.2863 256.3343
v 1435.4511 123.5839 264.4318
f 1009 1010 1011
v 1435.4511 123.5839 264.4318
v 1438.4968 128.2863 256.3343
v 1435.4492 123.5836 256.3351
f 1012 1013 1014
v 1442.5565 134.5493 256.3333
v 1438.4987 128.2867 264.4310
v 1442.5591 134.5499 267.7488
f 1015 1016 1017
v 1438.4995 128.2868 267.7499
v 1442.5591 134.5499 267.7488
v 1438.4987 128.2867 264.4310
f 1018 1019 1020
v 1438.4968 128.2863 256.3343
v 1438.4987 128.2867 264.4310
v 1442.5565 134.5493 256.3333
f 1021 1022 1023
v 1442.5565 134.5493 256.3333
v 1448.8866 130.5115 256.3319
v 1438.4968 128.2863 256.3343
f 1024 1025 1026
v 1435.7663 122.1007 256.3350
v 1435.4492 123.5836 256.3351
v 1438.4968 128.2863 256.3343
f 1027 1028 1029
v 1438.4968 128.2863 256.3343
v 1447.3535 122.6367 256.3323
v 1435.7663 122.1007 256.3350
f 1030 1031 1032
v 1447.3535 122.6367 256.3323
v 1443.7584 117.0014 256.3332
v 1435.7663 122.1007 256.3350
f 1033 1034 1035
v 1448.8866 130.5115 256.3319
v 1451.3673 128.9288 256.3313
v 1447.3535 122.6367 256.3323
f 1036 1037 1038
v 1448.8866 130.5115 256.3319
v 1447.3535 122.6367 256.3323
v 1438.4968 128.2863 256.3343
f 1039 1040 1041
v 1443.3192 125.2120 267.7489
v 1438.4995 128.2868 267.7499
v 1438.4987 128.2867 264.4310
f 1042 1043 1044
v 1442.2168 123.4849 264.4303
v 1443.3192 125.2120 267.7489
v 1443.3184 125.2119 264.4300
f 1045 1046 1047
v 1446.0751 121.0235 264.4294
v 1442.2175 123.4849 267.7492
v 1442.2168 123.4849 264.4303
f 1048 1049 1050
v 1447.1767 122.7505 264.4291
v 1446.0759 121.0237 267.7482
v 1446.0751 121.0235 264.4294
f 1051 1052 1053
v 1447.3554 122.6370 264.4291
v 1447.1775 122.7507 267.7479
v 1447.1767 122.7505 264.4291
f 1054 1055 1056
v 1435.7663 122.1007 256.3350
v 1435.4511 123.5839 264.4318
v 1435.4492 123.5836 256.3351
f 1057 1058 1059
v 1443.7584 117.0014 256.3332
v 1435.7681 122.1011 264.4317
v 1435.7663 122.1007 256.3350
f 1060 1061 1062
v 1442.5565 134.5493 256.3333
v 1448.8892 130.5120 267.7475
v 1448.8866 130.5115 256.3319
f 1063 1064 1065
v 1451.3700 128.9294 267.7470
v 1448.8866 130.5115 256.3319
v 1448.8892 130.5120 267.7475
f 1066 1067 1068

g building_ID_9CA9AC0C-9A37-4E51-9B91-A52E20E13411
v 1399.9049 113.7634 288.6010
v 1408.4979 108.2083 288.5993
v 1417.1459 121.6771 288.5971
f 1069 1070 1071
v 1417.1459 121.6771 288.5971
v 1399.6540 114.9400 288.6011
v 1399.9049 113.7634 288.6010
f 1072 1073 1074
v 1399.6540 114.9400 288.6011
v 1417.1459 121.6771 288.5971
v 1407.8820 127.6598 288.5990
f 1075 1076 1077
v 1417.1459 121.6771 288.5971
v 1418.6104 120.7482 288.5968
v 1419.3891 121.0111 288.5966
f 1078 1079 1080
v 1417.1459 121.6771 288.5971
v 1408.7545 127.8435 288.5988
v 1407.8820 127.6598 288.5990
f 1081 1082 1083
v 1419.3891 121.0111 288.5966
v 1408.7545 127.8435 288.5988
v 1417.1459 121.6771 288.5971
f 1084 1085 1086
v 1407.8751 127.6585 258.4530
v 1407.8820 127.6598 288.5990
v 1408.7545 127.8435 288.5988
f 1087 1088 1089
v 1399.6471 114.9387 258.4551
v 1399.6540 114.9400 288.6011
v 1407.8820 127.6598 288.5990
f 1090 1091 1092
v 1399.8979 113.7621 258.4550
v 1399.9049 113.7634 288.6010
v 1399.6540 114.9400 288.6011
f 1093 1094 1095
v 1418.6107 120.7482 289.9247
v 1417.1462 121.6771 289.9250
v 1414.4631 117.4983 289.9257
f 1096 1097 1098
v 1418.6107 120.7482 289.9247
v 1418.6678 114.7981 289.9248
v 1419.3894 121.0111 289.9245
f 1099 1100 1101
v 1418.6678 114.7981 289.9248
v 1418.6107 120.7482 289.9247
v 1414.4631 117.4983 289.9257
f 1102 1103 1104
v 1454.0234 87.1557 289.9172
v 1412.6949 105.4952 289.9263
v 1449.7723 81.5242 289.9182
f 1105 1106 1107
v 1457.9168 96.2742 289.9162
v 1418.6678 114.7981 289.9248
v 1454.0234 87.1557 289.9172
f 1108 1109 1110
v 1412.6949 105.4952 289.9263
v 1454.0234 87.1557 289.9172
v 1418.6678 114.7981 289.9248
f 1111 1112 1113
v 1419.3894 121.0111 289.9245
v 1418.6678 114.7981 289.9248
v 1457.9168 96.2742 289.9162
f 1114 1115 1116
v 1454.0158 87.1545 258.4433
v 1454.0234 87.1557 289.9172
v 1449.7723 81.5242 289.9182
f 1117 1118 1119
v 1457.9092 96.2729 258.4423
v 1457.9168 96.2742 289.9162
v 1454.0234 87.1557 289.9172
f 1120 1121 1122
v 1418.6104 120.7482 288.5968
v 1418.6107 120.7482 289.9247
v 1419.3894 121.0111 289.9245
f 1123 1124 1125
v 1417.1459 121.6771 288.5971
v 1417.1462 121.6771 289.9250
v 1418.6107 120.7482 289.9247
f 1126 1127 1128
v 1418.6685 114.7982 292.9117
v 1408.4989 108.2085 292.9141
v 1412.6956 105.4954 292.9132
f 1129 1130 1131
v 1408.4989 108.2085 292.9141
v 1418.6685 114.7982 292.9117
v 1414.4637 117.4985 292.9126
f 1132 1133 1134
v 1418.6678 114.7981 289.9248
v 1418.6685 114.7982 292.9117
v 1412.6956 105.4954 292.9132
f 1135 1136 1137
v 1414.4631 117.4983 289.9257
v 1414.4637 117.4985 292.9126
v 1418.6685 114.7982 292.9117
f 1138 1139 1140
v 1408.7545 127.8435 288.5988
v 1419.3891 121.0111 288.5966
v 1420.9214 120.0207 258.4503
f 1141 1142 1143
v 1420.9214 120.0207 258.4503
v 1419.3891 121.0111 288.5966
v 1457.9168 96.2742 289.9162
f 1144 1145 1146
v 1419.3894 121.0111 289.9245
v 1457.9168 96.2742 289.9162
v 1419.3891 121.0111 288.5966
f 1147 1148 1149
v 1457.9168 96.2742 289.9162
v 1457.9092 96.2729 258.4423
v 1420.9214 120.0207 258.4503
f 1150 1151 1152
v 1454.0158 87.1545 258.4433
v 1420.9214 120.0207 258.4503
v 1457.9092 96.2729 258.4423
f 1153 1154 1155
v 1407.8751 127.6585 258.4530
v 1420.9214 120.0207 258.4503
v 1454.0158 87.1545 258.4433
f 1156 1157 1158
v 1407.8751 127.6585 258.4530
v 1408.7475 127.8422 258.4528
v 1420.9214 120.0207 258.4503
f 1159 1160 1161
v 1407.8751 127.6585 258.4530
v 1454.0158 87.1545 258.4433
v 1399.6471 114.9387 258.4551
f 1162 1163 1164
v 1454.0158 87.1545 258.4433
v 1412.5129 105.6064 258.4524
v 1399.6471 114.9387 258.4551
f 1165 1166 1167
v 1399.8979 113.7621 258.4550
v 1399.6471 114.9387 258.4551
v 1412.5129 105.6064 258.4524
f 1168 1169 1170
v 1449.7648 81.5230 258.4443
v 1412.5129 105.6064 258.4524
v 1454.0158 87.1545 258.4433
f 1171 1172 1173
v 1412.6949 105.4952 289.9263
v 1408.4979 108.2083 288.5993
v 1412.5129 105.6064 258.4524
f 1174 1175 1176
v 1449.7648 81.5230 258.4443
v 1449.7723 81.5242 289.9182
v 1412.6949 105.4952 289.9263
f 1177 1178 1179
v 1412.6949 105.4952 289.9263
v 1412.5129 105.6064 258.4524
v 1449.7648 81.5230 258.4443
f 1180 1181 1182
v 1408.4989 108.2085 292.9141
v 1412.6949 105.4952 289.9263
v 1412.6956 105.4954 292.9132
f 1183 1184 1185
v 1412.6949 105.4952 289.9263
v 1408.4989 108.2085 292.9141
v 1408.4983 108.2084 289.9272
f 1186 1187 1188
v 1412.6949 105.4952 289.9263
v 1408.4983 108.2084 289.9272
v 1408.4979 108.2083 288.5993
f 1189 1190 1191
v 1399.8979 113.7621 258.4550
v 1412.5129 105.6064 258.4524
v 1408.4979 108.2083 288.5993
f 1192 1193 1194
v 1414.4631 117.4983 289.9257
v 1417.1459 121.6771 288.5971
v 1408.4983 108.2084 289.9272
f 1195 1196 1197
v 1408.4983 108.2084 289.9272
v 1417.1459 121.6771 288.5971
v 1408.4979 108.2083 288.5993
f 1198 1199 1200
v 1408.4983 108.2084 289.9272
v 1408.4989 108.2085 292.9141
v 1414.4631 117.4983 289.9257
f 1201 1202 1203
v 1414.4631 117.4983 289.9257
v 1417.1462 121.6771 289.9250
v 1417.1459 121.6771 288.5971
f 1204 1205 1206
v 1407.8751 127.6585 258.4530
v 1408.7545 127.8435 288.5988
v 1408.7475 127.8422 258.4528
f 1207 1208 1209
v 1399.6471 114.9387 258.4551
v 1407.8820 127.6598 288.5990
v 1407.8751 127.6585 258.4530
f 1210 1211 1212
v 1399.8979 113.7621 258.4550
v 1399.6540 114.9400 288.6011
v 1399.6471 114.9387 258.4551
f 1213 1214 1215
v 1454.0158 87.1545 258.4433
v 1449.7723 81.5242 289.9182
v 1449.7648 81.5230 258.4443
f 1216 1217 1218
v 1457.9092 96.2729 258.4423
v 1454.0234 87.1557 289.9172
v 1454.0158 87.1545 258.4433
f 1219 1220 1221
v 1418.6104 120.7482 288.5968
v 1419.3894 121.0111 289.9245
v 1419.3891 121.0111 288.5966
f 1222 1223 1224
v 1417.1459 121.6771 288.5971
v 1418.6107 120.7482 289.9247
v 1418.6104 120.7482 288.5968
f 1225 1226 1227
v 1418.6678 114.7981 289.9248
v 1412.6956 105.4954 292.9132
v 1412.6949 105.4952 289.9263
f 1228 1229 1230
v 1414.4631 117.4983 289.9257
v 1418.6685 114.7982 292.9117
v 1418.6678 114.7981 289.9248
f 1231 1232 1233
v 1408.7545 127.8435 288.5988
v 1420.9214 120.0207 258.4503
v 1408.7475 127.8422 258.4528
f 1234 1235 1236
v 1399.8979 113.7621 258.4550
v 1408.4979 108.2083 288.5993
v 1399.9049 113.7634 288.6010
f 1237 1238 1239
v 1408.4989 108.2085 292.9141
v 1414.4637 117.4985 292.9126
v 1414.4631 117.4983 289.9257
f 1240 1241 1242

g building_ID_2CAD5A66-0498-464E-A5DA-96964D5B29DE
v 1396.2554 76.3296 265.7271
v 1394.6125 73.7521 265.7275
v 1389.4764 77.0478 265.7286
f 1243 1244 1245
v 1400.6483 83.4247 265.7260
v 1396.2554 76.3296 265.7271
v 1389.4764 77.0478 265.7286
f 1246 1247 1248
v 1403.2628 81.7608 265.7255
v 1398.7771 74.7229 265.7266
v 1396.2554 76.3296 265.7271
f 1249 1250 1251
v 1384.5729 80.1949 265.7296
v 1398.9743 102.8050 265.7261
v 1389.4764 77.0478 265.7286
f 1252 1253 1254
v 1408.9541 96.4574 265.7240
v 1400.6483 83.4247 265.7260
v 1389.4764 77.0478 265.7286
f 1255 1256 1257
v 1408.9541 96.4574 265.7240
v 1389.4764 77.0478 265.7286
v 1403.9677 99.6297 265.7251
f 1258 1259 1260
v 1400.6483 83.4247 265.7260
v 1403.2628 81.7608 265.7255
v 1396.2554 76.3296 265.7271
f 1261 1262 1263
v 1403.9677 99.6297 265.7251
v 1389.4764 77.0478 265.7286
v 1398.9743 102.8050 265.7261
f 1264 1265 1266
v 1402.7271 86.6817 278.9381
v 1408.9572 96.4579 278.9496
v 1403.9713 99.6302 281.0756
f 1267 1268 1269
v 1400.6514 83.4252 278.9346
v 1402.7271 86.6817 278.9381
v 1391.7734 80.6191 281.0785
f 1270 1271 1272
v 1400.6514 83.4252 278.9346
v 1396.9210 77.3153 278.8775
v 1403.2656 81.7613 277.8201
f 1273 1274 1275
v 1391.7734 80.6191 281.0785
v 1402.7271 86.6817 278.9381
v 1403.9713 99.6302 281.0756
f 1276 1277 1278
v 1396.9210 77.3153 278.8775
v 1398.7799 74.7234 277.8122
v 1403.2656 81.7613 277.8201
f 1279 1280 1281
v 1398.7799 74.7234 277.8122
v 1396.9210 77.3153 278.8775
v 1396.2694 76.3231 278.8827
f 1282 1283 1284
v 1391.7734 80.6191 281.0785
v 1396.9210 77.3153 278.8775
v 1400.6514 83.4252 278.9346
f 1285 1286 1287
v 1391.6816 80.6774 281.0365
v 1403.9713 99.6302 281.0756
v 1398.9773 102.8055 278.7447
f 1288 1289 1290
v 1391.7734 80.6191 281.0785
v 1403.9713 99.6302 281.0756
v 1391.6816 80.6774 281.0365
f 1291 1292 1293
v 1386.8555 83.7742 278.7767
v 1391.6816 80.6774 281.0365
v 1398.9773 102.8055 278.7447
f 1294 1295 1296
v 1408.9564 96.4578 275.6437
v 1408.9572 96.4579 278.9496
v 1402.7271 86.6817 278.9381
f 1297 1298 1299
v 1408.9556 96.4576 272.3368
v 1402.7271 86.6817 278.9381
v 1408.9541 96.4574 265.7240
f 1300 1301 1302
v 1400.6514 83.4252 278.9346
v 1400.6483 83.4247 265.7260
v 1408.9541 96.4574 265.7240
f 1303 1304 1305
v 1400.6514 83.4252 278.9346
v 1408.9541 96.4574 265.7240
v 1402.7271 86.6817 278.9381
f 1306 1307 1308
v 1396.2556 76.3297 266.9571
v 1394.6128 73.7521 266.9575
v 1396.2554 76.3296 265.7271
f 1309 1310 1311
v 1396.2554 76.3296 265.7271
v 1398.7771 74.7229 265.7266
v 1398.7799 74.7234 277.8122
f 1312 1313 1314
v 1396.2694 76.3231 278.8827
v 1396.2666 76.3227 266.9571
v 1398.7799 74.7234 277.8122
f 1315 1316 1317
v 1396.2666 76.3227 266.9571
v 1396.2554 76.3296 265.7271
v 1398.7799 74.7234 277.8122
f 1318 1319 1320
v 1396.2666 76.3227 266.9571
v 1396.2556 76.3297 266.9571
v 1396.2554 76.3296 265.7271
f 1321 1322 1323
v 1398.7771 74.7229 265.7266
v 1403.2628 81.7608 265.7255
v 1398.7799 74.7234 277.8122
f 1324 1325 1326
v 1403.2656 81.7613 277.8201
v 1398.7799 74.7234 277.8122
v 1403.2628 81.7608 265.7255
f 1327 1328 1329
v 1403.2628 81.7608 265.7255
v 1400.6514 83.4252 278.9346
v 1403.2656 81.7613 277.8201
f 1330 1331 1332
v 1403.2628 81.7608 265.7255
v 1400.6483 83.4247 265.7260
v 1400.6514 83.4252 278.9346
f 1333 1334 1335
v 1380.7666 63.6679 283.1680
v 1386.0471 60.3057 281.0300
v 1396.2699 76.3232 281.0436
f 1336 1337 1338
v 1380.7666 63.6679 283.1680
v 1396.2699 76.3232 281.0436
v 1391.7749 80.6183 283.1284
f 1339 1340 1341
v 1380.7666 63.6679 283.1680
v 1391.7749 80.6183 283.1284
v 1391.6821 80.6775 283.1654
f 1342 1343 1344
v 1396.9216 77.3154 281.0384
v 1391.7749 80.6183 283.1284
v 1396.2699 76.3232 281.0436
f 1345 1346 1347
v 1375.9874 66.7116 281.2031
v 1391.6821 80.6775 283.1654
v 1386.8560 83.7743 281.1776
f 1348 1349 1350
v 1391.6821 80.6775 283.1654
v 1375.9874 66.7116 281.2031
v 1380.7666 63.6679 283.1680
f 1351 1352 1353
v 1386.0455 60.3055 273.9862
v 1396.2694 76.3231 278.8827
v 1396.2699 76.3232 281.0436
f 1354 1355 1356
v 1386.0471 60.3057 281.0300
v 1386.0455 60.3055 273.9862
v 1396.2699 76.3232 281.0436
f 1357 1358 1359
v 1386.0455 60.3055 273.9862
v 1386.0439 60.3053 266.9595
v 1396.2694 76.3231 278.8827
f 1360 1361 1362
v 1396.2666 76.3227 266.9571
v 1396.2694 76.3231 278.8827
v 1386.0439 60.3053 266.9595
f 1363 1364 1365
v 1384.5732 80.1950 266.9596
v 1389.4767 77.0478 266.9586
v 1380.7630 63.6674 266.9606
f 1366 1367 1368
v 1389.4767 77.0478 266.9586
v 1386.0439 60.3053 266.9595
v 1380.7630 63.6674 266.9606
f 1369 1370 1371
v 1384.5732 80.1950 266.9596
v 1380.7630 63.6674 266.9606
v 1375.9842 66.7111 266.9616
f 1372 1373 1374
v 1396.2666 76.3227 266.9571
v 1386.0439 60.3053 266.9595
v 1394.6128 73.7521 266.9575
f 1375 1376 1377
v 1386.0439 60.3053 266.9595
v 1389.4767 77.0478 266.9586
v 1394.6128 73.7521 266.9575
f 1378 1379 1380
v 1394.6128 73.7521 266.9575
v 1396.2556 76.3297 266.9571
v 1396.2666 76.3227 266.9571
f 1381 1382 1383
v 1396.2694 76.3231 278.8827
v 1396.9210 77.3153 278.8775
v 1396.9216 77.3154 281.0384
f 1384 1385 1386
v 1408.9556 96.4576 272.3368
v 1403.9677 99.6297 265.7251
v 1398.9773 102.8055 278.7447
f 1387 1388 1389
v 1398.9773 102.8055 278.7447
v 1403.9677 99.6297 265.7251
v 1398.9743 102.8050 265.7261
f 1390 1391 1392
v 1408.9564 96.4578 275.6437
v 1398.9773 102.8055 278.7447
v 1403.9713 99.6302 281.0756
f 1393 1394 1395
v 1403.9713 99.6302 281.0756
v 1408.9572 96.4579 278.9496
v 1408.9564 96.4578 275.6437
f 1396 1397 1398
v 1408.9556 96.4576 272.3368
v 1408.9541 96.4574 265.7240
v 1403.9677 99.6297 265.7251
f 1399 1400 1401
v 1398.9773 102.8055 278.7447
v 1408.9564 96.4578 275.6437
v 1408.9556 96.4576 272.3368
f 1402 1403 1404
v 1389.4767 77.0478 266.9586
v 1394.6125 73.7521 265.7275
v 1394.6128 73.7521 266.9575
f 1405 1406 1407
v 1394.6125 73.7521 265.7275
v 1389.4767 77.0478 266.9586
v 1389.4764 77.0478 265.7286
f 1408 1409 1410
v 1384.5729 80.1949 265.7296
v 1389.4764 77.0478 265.7286
v 1384.5732 80.1950 266.9596
f 1411 1412 1413
v 1389.4767 77.0478 266.9586
v 1384.5732 80.1950 266.9596
v 1389.4764 77.0478 265.7286
f 1414 1415 1416
v 1380.7630 63.6674 266.9606
v 1386.0439 60.3053 266.9595
v 1386.0455 60.3055 273.9862
f 1417 1418 1419
v 1380.7666 63.6679 283.1680
v 1375.9874 66.7116 281.2031
v 1386.0455 60.3055 273.9862
f 1420 1421 1422
v 1375.9842 66.7111 266.9616
v 1380.7630 63.6674 266.9606
v 1375.9874 66.7116 281.2031
f 1423 1424 1425
v 1375.9874 66.7116 281.2031
v 1380.7630 63.6674 266.9606
v 1386.0455 60.3055 273.9862
f 1426 1427 1428
v 1386.0471 60.3057 281.0300
v 1380.7666 63.6679 283.1680
v 1386.0455 60.3055 273.9862
f 1429 1430 1431
v 1375.9842 66.7111 266.9616
v 1375.9874 66.7116 281.2031
v 1384.5732 80.1950 266.9596
f 1432 1433 1434
v 1386.8555 83.7742 278.7767
v 1384.5732 80.1950 266.9596
v 1375.9874 66.7116 281.2031
f 1435 1436 1437
v 1384.5729 80.1949 265.7296
v 1384.5732 80.1950 266.9596
v 1398.9743 102.8050 265.7261
f 1438 1439 1440
v 1375.9874 66.7116 281.2031
v 1386.8560 83.7743 281.1776
v 1386.8555 83.7742 278.7767
f 1441 1442 1443
v 1386.8555 83.7742 278.7767
v 1398.9773 102.8055 278.7447
v 1398.9743 102.8050 265.7261
f 1444 1445 1446
v 1384.5732 80.1950 266.9596
v 1386.8555 83.7742 278.7767
v 1398.9743 102.8050 265.7261
f 1447 1448 1449
v 1391.6816 80.6774 281.0365
v 1386.8560 83.7743 281.1776
v 1391.6821 80.6775 283.1654
f 1450 1451 1452
v 1386.8560 83.7743 281.1776
v 1391.6816 80.6774 281.0365
v 1386.8555 83.7742 278.7767
f 1453 1454 1455
v 1391.6821 80.6775 283.1654
v 1391.7734 80.6191 281.0785
v 1391.6816 80.6774 281.0365
f 1456 1457 1458
v 1391.7734 80.6191 281.0785
v 1391.6821 80.6775 283.1654
v 1391.7749 80.6183 283.1284
f 1459 1460 1461
v 1396.9216 77.3154 281.0384
v 1396.9210 77.3153 278.8775
v 1391.7734 80.6191 281.0785
f 1462 1463 1464
v 1391.7749 80.6183 283.1284
v 1396.9216 77.3154 281.0384
v 1391.7734 80.6191 281.0785
f 1465 1466 1467
v 1408.9564 96.4578 275.6437
v 1402.7271 86.6817 278.9381
v 1408.9556 96.4576 272.3368
f 1468 1469 1470
v 1394.6125 73.7521 265.7275
v 1396.2554 76.3296 265.7271
v 1394.6128 73.7521 266.9575
f 1471 1472 1473
v 1396.9216 77.3154 281.0384
v 1396.2699 76.3232 281.0436
v 1396.2694 76.3231 278.8827
f 1474 1475 1476

g building_ID_E4B986DB-9C9C-4058-AB56-C9D546A78434
v 1353.9780 106.8495 267.1349
v 1358.1976 104.0992 267.1339
v 1356.4304 101.3880 267.1343
f 1477 1478 1479
v 1356.4304 101.3880 267.1343
v 1352.2109 104.1493 267.1353
v 1353.9780 106.8495 267.1349
f 1480 1481 1482
v 1352.2124 104.1495 274.1560
v 1358.1992 104.0996 274.1547
v 1353.9796 106.8498 274.1556
f 1483 1484 1485
v 1358.1992 104.0996 274.1547
v 1352.2124 104.1495 274.1560
v 1356.4320 101.3883 274.1551
f 1486 1487 1488
v 1352.2109 104.1493 267.1353
v 1352.2124 104.1495 274.1560
v 1353.9796 106.8498 274.1556
f 1489 1490 1491
v 1356.4304 101.3880 267.1343
v 1356.4320 101.3883 274.1551
v 1352.2124 104.1495 274.1560
f 1492 1493 1494
v 1358.1976 104.0992 267.1339
v 1358.1992 104.0996 274.1547
v 1356.4320 101.3883 274.1551
f 1495 1496 1497
v 1353.9780 106.8495 267.1349
v 1353.9796 106.8498 274.1556
v 1358.1992 104.0996 274.1547
f 1498 1499 1500
v 1352.2109 104.1493 267.1353
v 1353.9796 106.8498 274.1556
v 1353.9780 106.8495 267.1349
f 1501 1502 1503
v 1356.4304 101.3880 267.1343
v 1352.2124 104.1495 274.1560
v 1352.2109 104.1493 267.1353
f 1504 1505 1506
v 1358.1976 104.0992 267.1339
v 1356.4320 101.3883 274.1551
v 1356.4304 101.3880 267.1343
f 1507 1508 1509
v 1353.9780 106.8495 267.1349
v 1358.1992 104.0996 274.1547
v 1358.1976 104.0992 267.1339
f 1510 1511 1512

g building_ID_6E6198F7-5660-47AC-8005-A4C19DD557C7
v 1364.9578 111.6551 267.2263
v 1361.9759 113.5530 267.2270
v 1365.4149 118.7958 267.2262
f 1513 1514 1515
v 1364.9578 111.6551 267.2263
v 1368.5996 115.7332 267.2255
v 1366.0764 111.8861 267.2261
f 1516 1517 1518
v 1368.3657 116.8588 267.2255
v 1368.5996 115.7332 267.2255
v 1364.9578 111.6551 267.2263
f 1519 1520 1521
v 1364.9578 111.6551 267.2263
v 1365.4149 118.7958 267.2262
v 1368.3657 116.8588 267.2255
f 1522 1523 1524
v 1364.9594 111.6553 274.1611
v 1366.0780 111.8863 274.2349
v 1368.3672 116.8592 274.1613
f 1525 1526 1527
v 1364.9594 111.6553 274.1611
v 1368.3672 116.8592 274.1613
v 1365.4164 118.7960 273.8419
f 1528 1529 1530
v 1368.3672 116.8592 274.1613
v 1366.0780 111.8863 274.2349
v 1368.6012 115.7335 274.2353
f 1531 1532 1533
v 1365.4164 118.7960 273.8419
v 1361.9774 113.5532 273.8417
v 1364.9594 111.6553 274.1611
f 1534 1535 1536
v 1368.5996 115.7332 267.2255
v 1368.6012 115.7335 274.2353
v 1366.0780 111.8863 274.2349
f 1537 1538 1539
v 1368.5996 115.7332 267.2255
v 1368.3657 116.8588 267.2255
v 1368.3672 116.8592 274.1613
f 1540 1541 1542
v 1365.4164 118.7960 273.8419
v 1361.9759 113.5530 267.2270
v 1361.9774 113.5532 273.8417
f 1543 1544 1545
v 1365.4164 118.7960 273.8419
v 1365.4149 118.7958 267.2262
v 1361.9759 113.5530 267.2270
f 1546 1547 1548
v 1361.9774 113.5532 273.8417
v 1361.9759 113.5530 267.2270
v 1364.9578 111.6551 267.2263
f 1549 1550 1551
v 1364.9578 111.6551 267.2263
v 1366.0764 111.8861 267.2261
v 1364.9594 111.6553 274.1611
f 1552 1553 1554
v 1368.5996 115.7332 267.2255
v 1366.0780 111.8863 274.2349
v 1366.0764 111.8861 267.2261
f 1555 1556 1557
v 1368.3672 116.8592 274.1613
v 1368.6012 115.7335 274.2353
v 1368.5996 115.7332 267.2255
f 1558 1559 1560
v 1368.3657 116.8588 267.2255
v 1365.4149 118.7958 267.2262
v 1365.4164 118.7960 273.8419
f 1561 1562 1563
v 1365.4164 118.7960 273.8419
v 1368.3672 116.8592 274.1613
v 1368.3657 116.8588 267.2255
f 1564 1565 1566
v 1364.9594 111.6553 274.1611
v 1361.9774 113.5532 273.8417
v 1364.9578 111.6551 267.2263
f 1567 1568 1569
v 1366.0764 111.8861 267.2261
v 1366.0780 111.8863 274.2349
v 1364.9594 111.6553 274.1611
f 1570 1571 1572

g building_ID_FC12413F-79D2-484C-8974-2A010D55BE9C
v 1319.7198 102.3174 291.9172
v 1327.2723 97.3051 291.9157
v 1330.9260 102.8104 291.9149
f 1573 1574 1575
v 1330.9260 102.8104 291.9149
v 1323.3725 107.8225 291.9164
v 1319.7198 102.3174 291.9172
f 1576 1577 1578
v 1319.7194 102.3174 290.2573
v 1319.7198 102.3174 291.9172
v 1323.3725 107.8225 291.9164
f 1579 1580 1581
v 1327.2719 97.3051 290.2558
v 1327.2723 97.3051 291.9157
v 1319.7198 102.3174 291.9172
f 1582 1583 1584
v 1330.9257 102.8102 290.2550
v 1330.9260 102.8104 291.9149
v 1327.2723 97.3051 291.9157
f 1585 1586 1587
v 1323.3721 107.8225 290.2565
v 1323.3725 107.8225 291.9164
v 1330.9260 102.8104 291.9149
f 1588 1589 1590
v 1327.9456 96.7761 258.8288
v 1336.1481 100.0010 258.8270
v 1332.2569 93.9455 258.8278
f 1591 1592 1593
v 1332.2569 93.9455 258.8278
v 1336.1481 100.0010 258.8270
v 1336.2360 99.9428 258.8270
f 1594 1595 1596
v 1339.9526 139.7833 258.8255
v 1327.9456 96.7761 258.8288
v 1316.6948 104.2421 258.8310
f 1597 1598 1599
v 1327.9456 96.7761 258.8288
v 1353.6370 130.6698 258.8228
v 1336.1481 100.0010 258.8270
f 1600 1601 1602
v 1353.6370 130.6698 258.8228
v 1355.6204 129.3484 258.8224
v 1336.1481 100.0010 258.8270
f 1603 1604 1605
v 1339.9526 139.7833 258.8255
v 1353.6370 130.6698 258.8228
v 1327.9456 96.7761 258.8288
f 1606 1607 1608
v 1353.6440 130.6712 290.2497
v 1339.9596 139.7847 290.2524
v 1323.3721 107.8225 290.2565
f 1609 1610 1611
v 1316.7016 104.2434 290.2579
v 1323.3721 107.8225 290.2565
v 1339.9596 139.7847 290.2524
f 1612 1613 1614
v 1330.9257 102.8102 290.2550
v 1336.1550 100.0023 290.2539
v 1353.6440 130.6712 290.2497
f 1615 1616 1617
v 1353.6440 130.6712 290.2497
v 1336.1550 100.0023 290.2539
v 1355.6275 129.3499 290.2493
f 1618 1619 1620
v 1336.1550 100.0023 290.2539
v 1332.2638 93.9468 290.2548
v 1336.2429 99.9441 290.2539
f 1621 1622 1623
v 1323.3721 107.8225 290.2565
v 1330.9257 102.8102 290.2550
v 1353.6440 130.6712 290.2497
f 1624 1625 1626
v 1327.9525 96.7773 290.2557
v 1327.2719 97.3051 290.2558
v 1319.7194 102.3174 290.2573
f 1627 1628 1629
v 1316.7016 104.2434 290.2579
v 1327.9525 96.7773 290.2557
v 1319.7194 102.3174 290.2573
f 1630 1631 1632
v 1336.1550 100.0023 290.2539
v 1327.9525 96.7773 290.2557
v 1332.2638 93.9468 290.2548
f 1633 1634 1635
v 1327.2719 97.3051 290.2558
v 1327.9525 96.7773 290.2557
v 1330.9257 102.8102 290.2550
f 1636 1637 1638
v 1330.9257 102.8102 290.2550
v 1327.9525 96.7773 290.2557
v 1336.1550 100.0023 290.2539
f 1639 1640 1641
v 1316.7016 104.2434 290.2579
v 1319.7194 102.3174 290.2573
v 1323.3721 107.8225 290.2565
f 1642 1643 1644
v 1316.6948 104.2421 258.8310
v 1316.7016 104.2434 290.2579
v 1339.9596 139.7847 290.2524
f 1645 1646 1647
v 1327.9456 96.7761 258.8288
v 1327.9525 96.7773 290.2557
v 1316.7016 104.2434 290.2579
f 1648 1649 1650
v 1332.2569 93.9455 258.8278
v 1332.2638 93.9468 290.2548
v 1327.9525 96.7773 290.2557
f 1651 1652 1653
v 1336.2360 99.9428 258.8270
v 1336.2429 99.9441 290.2539
v 1332.2638 93.9468 290.2548
f 1654 1655 1656
v 1336.1481 100.0010 258.8270
v 1336.1550 100.0023 290.2539
v 1336.2429 99.9441 290.2539
f 1657 1658 1659
v 1355.6204 129.3484 258.8224
v 1355.6275 129.3499 290.2493
v 1336.1550 100.0023 290.2539
f 1660 1661 1662
v 1339.9596 139.7847 290.2524
v 1353.6440 130.6712 290.2497
v 1353.6370 130.6698 258.8228
f 1663 1664 1665
v 1355.6204 129.3484 258.8224
v 1353.6370 130.6698 258.8228
v 1353.6440 130.6712 290.2497
f 1666 1667 1668
v 1319.7194 102.3174 290.2573
v 1323.3725 107.8225 291.9164
v 1323.3721 107.8225 290.2565
f 1669 1670 1671
v 1327.2719 97.3051 290.2558
v 1319.7198 102.3174 291.9172
v 1319.7194 102.3174 290.2573
f 1672 1673 1674
v 1330.9257 102.8102 290.2550
v 1327.2723 97.3051 291.9157
v 1327.2719 97.3051 290.2558
f 1675 1676 1677
v 1323.3721 107.8225 290.2565
v 1330.9260 102.8104 291.9149
v 1330.9257 102.8102 290.2550
f 1678 1679 1680
v 1316.6948 104.2421 258.8310
v 1339.9596 139.7847 290.2524
v 1339.9526 139.7833 258.8255
f 1681 1682 1683
v 1327.9456 96.7761 258.8288
v 1316.7016 104.2434 290.2579
v 1316.6948 104.2421 258.8310
f 1684 1685 1686
v 1332.2569 93.9455 258.8278
v 1327.9525 96.7773 290.2557
v 1327.9456 96.7761 258.8288
f 1687 1688 1689
v 1336.2360 99.9428 258.8270
v 1332.2638 93.9468 290.2548
v 1332.2569 93.9455 258.8278
f 1690 1691 1692
v 1336.1481 100.0010 258.8270
v 1336.2429 99.9441 290.2539
v 1336.2360 99.9428 258.8270
f 1693 1694 1695
v 1355.6204 129.3484 258.8224
v 1336.1550 100.0023 290.2539
v 1336.1481 100.0010 258.8270
f 1696 1697 1698
v 1339.9596 139.7847 290.2524
v 1353.6370 130.6698 258.8228
v 1339.9526 139.7833 258.8255
f 1699 1700 1701
v 1355.6204 129.3484 258.8224
v 1353.6440 130.6712 290.2497
v 1355.6275 129.3499 290.2493
f 1702 1703 1704
