# Grid Center: 2617200, 1264000
# Global Anchor: 7.64977475454284, 47.53283995868075, 0.0

g building_ID_520FA2F3-BA2D-44A1-B844-1F56A7B4A869
v 1381.0471 -529.4865 280.1516
v 1379.1050 -533.5981 280.1516
v 1376.0390 -532.1500 280.1524
f 1 2 3
v 1376.0390 -532.1500 280.1524
v 1377.9809 -528.0382 280.1523
v 1381.0471 -529.4865 280.1516
f 4 5 6
v 1381.0489 -529.4869 288.1123
v 1376.0408 -532.1504 288.1131
v 1379.1068 -533.5987 288.1123
f 7 8 9
v 1376.0408 -532.1504 288.1131
v 1381.0489 -529.4869 288.1123
v 1377.9828 -528.0387 288.1130
f 10 11 12
v 1377.9809 -528.0382 280.1523
v 1377.9828 -528.0387 288.1130
v 1381.0489 -529.4869 288.1123
f 13 14 15
v 1376.0390 -532.1500 280.1524
v 1376.0408 -532.1504 288.1131
v 1377.9828 -528.0387 288.1130
f 16 17 18
v 1379.1050 -533.5981 280.1516
v 1379.1068 -533.5987 288.1123
v 1376.0408 -532.1504 288.1131
f 19 20 21
v 1381.0471 -529.4865 280.1516
v 1381.0489 -529.4869 288.1123
v 1379.1068 -533.5987 288.1123
f 22 23 24
v 1377.9809 -528.0382 280.1523
v 1381.0489 -529.4869 288.1123
v 1381.0471 -529.4865 280.1516
f 25 26 27
v 1376.0390 -532.1500 280.1524
v 1377.9828 -528.0387 288.1130
v 1377.9809 -528.0382 280.1523
f 28 29 30
v 1379.1050 -533.5981 280.1516
v 1376.0408 -532.1504 288.1131
v 1376.0390 -532.1500 280.1524
f 31 32 33
v 1381.0471 -529.4865 280.1516
v 1379.1068 -533.5987 288.1123
v 1379.1050 -533.5981 280.1516
f 34 35 36
