# Grid Center: 2617400, 1263200
# Global Anchor: 7.64977475454284, 47.53283995868075, 0.0

g building_ID_5EEF9094-AF84-4CD9-9840-EA7B643B7DBA
v 1618.6299 -1474.5950 286.7522
v 1632.5139 -1490.2540 286.7450
v 1615.1563 -1483.3926 286.7510
f 1 2 3
v 1634.2959 -1485.7518 286.7456
v 1618.6299 -1474.5950 286.7522
v 1635.9984 -1481.4474 286.7461
f 4 5 6
v 1618.6299 -1474.5950 286.7522
v 1634.2959 -1485.7518 286.7456
v 1632.5139 -1490.2540 286.7450
f 7 8 9
v 1634.2989 -1485.7542 297.8222
v 1636.0010 -1481.4494 296.2158
v 1627.3142 -1478.0222 296.1788
f 10 11 12
v 1634.2989 -1485.7542 297.8222
v 1627.3142 -1478.0222 296.1788
v 1616.8498 -1479.1134 297.8281
f 13 14 15
v 1618.6324 -1474.5969 296.1428
v 1616.8498 -1479.1134 297.8281
v 1627.3142 -1478.0222 296.1788
f 16 17 18
v 1618.6299 -1474.5950 286.7522
v 1618.6324 -1474.5969 296.1428
v 1627.3142 -1478.0222 296.1788
f 19 20 21
v 1618.6299 -1474.5950 286.7522
v 1627.3142 -1478.0222 296.1788
v 1635.9984 -1481.4474 286.7461
f 22 23 24
v 1635.9984 -1481.4474 286.7461
v 1627.3142 -1478.0222 296.1788
v 1636.0010 -1481.4494 296.2158
f 25 26 27
v 1632.5163 -1490.2559 295.9237
v 1615.1588 -1483.3946 296.0217
v 1615.1563 -1483.3926 286.7510
f 28 29 30
v 1632.5139 -1490.2540 286.7450
v 1632.5163 -1490.2559 295.9237
v 1615.1563 -1483.3926 286.7510
f 31 32 33
v 1632.5163 -1490.2559 295.9237
v 1616.8498 -1479.1134 297.8281
v 1615.1588 -1483.3946 296.0217
f 34 35 36
v 1632.5163 -1490.2559 295.9237
v 1634.2989 -1485.7542 297.8222
v 1616.8498 -1479.1134 297.8281
f 37 38 39
v 1634.2959 -1485.7518 286.7456
v 1635.9984 -1481.4474 286.7461
v 1636.0010 -1481.4494 296.2158
f 40 41 42
v 1632.5163 -1490.2559 295.9237
v 1634.2959 -1485.7518 286.7456
v 1634.2989 -1485.7542 297.8222
f 43 44 45
v 1632.5139 -1490.2540 286.7450
v 1634.2959 -1485.7518 286.7456
v 1632.5163 -1490.2559 295.9237
f 46 47 48
v 1636.0010 -1481.4494 296.2158
v 1634.2989 -1485.7542 297.8222
v 1634.2959 -1485.7518 286.7456
f 49 50 51
v 1615.1563 -1483.3926 286.7510
v 1615.1588 -1483.3946 296.0217
v 1616.8498 -1479.1134 297.8281
f 52 53 54
v 1618.6324 -1474.5969 296.1428
v 1615.1563 -1483.3926 286.7510
v 1616.8498 -1479.1134 297.8281
f 55 56 57
v 1618.6299 -1474.5950 286.7522
v 1615.1563 -1483.3926 286.7510
v 1618.6324 -1474.5969 296.1428
f 58 59 60

g building_ID_F258F5B5-F211-4F0A-972A-5471E38A3531
v 1546.0786 -1375.6928 283.4996
v 1545.5746 -1376.4445 283.4996
v 1545.4768 -1376.3552 283.4996
f 61 62 63
v 1548.7449 -1372.9399 283.4996
v 1545.5746 -1376.4445 283.4996
v 1546.0786 -1375.6928 283.4996
f 64 65 66
v 1546.0786 -1375.6928 283.4996
v 1540.1610 -1370.3160 283.5022
v 1548.7449 -1372.9399 283.4996
f 67 68 69
v 1552.5903 -1368.6913 283.4996
v 1548.7449 -1372.9399 283.4996
v 1551.4064 -1369.7651 283.4996
f 70 71 72
v 1551.4064 -1369.7651 283.4996
v 1552.4755 -1368.5880 283.4996
v 1552.5903 -1368.6913 283.4996
f 73 74 75
v 1545.4839 -1364.3784 283.5022
v 1551.4064 -1369.7651 283.4996
v 1548.7449 -1372.9399 283.4996
f 76 77 78
v 1539.5683 -1370.9683 283.5022
v 1524.2549 -1355.8655 283.5092
v 1540.1610 -1370.3160 283.5022
f 79 80 81
v 1529.5928 -1349.9129 283.5092
v 1524.2549 -1355.8655 283.5092
v 1514.7123 -1341.9121 283.5144
f 82 83 84
v 1548.7449 -1372.9399 283.4996
v 1524.2549 -1355.8655 283.5092
v 1529.5928 -1349.9129 283.5092
f 85 86 87
v 1523.6882 -1356.4900 283.5092
v 1524.2549 -1355.8655 283.5092
v 1539.5683 -1370.9683 283.5022
f 88 89 90
v 1512.2242 -1344.9344 283.5144
v 1511.6756 -1345.5369 283.5144
v 1511.5540 -1345.4266 283.5144
f 91 92 93
v 1514.7123 -1341.9121 283.5144
v 1512.2242 -1344.9344 283.5144
v 1511.5540 -1345.4266 283.5144
f 94 95 96
v 1512.2242 -1344.9344 283.5144
v 1514.7123 -1341.9121 283.5144
v 1524.2549 -1355.8655 283.5092
f 97 98 99
v 1514.7123 -1341.9121 283.5144
v 1517.5592 -1338.9698 283.5144
v 1529.5928 -1349.9129 283.5092
f 100 101 102
v 1518.5046 -1337.6932 283.5144
v 1517.5592 -1338.9698 283.5144
v 1514.7123 -1341.9121 283.5144
f 103 104 105
v 1548.7449 -1372.9399 283.4996
v 1529.5928 -1349.9129 283.5092
v 1545.4839 -1364.3784 283.5022
f 106 107 108
v 1546.5540 -1363.2022 283.5022
v 1545.4839 -1364.3784 283.5022
v 1529.5928 -1349.9129 283.5092
f 109 110 111
v 1529.5928 -1349.9129 283.5092
v 1530.6559 -1348.7447 283.5092
v 1546.5540 -1363.2022 283.5022
f 112 113 114
v 1517.5592 -1338.9698 283.5144
v 1518.5046 -1337.6932 283.5144
v 1518.6233 -1337.8006 283.5144
f 115 116 117
v 1540.1610 -1370.3160 283.5022
v 1524.2549 -1355.8655 283.5092
v 1548.7449 -1372.9399 283.4996
f 118 119 120
v 1525.8327 -1354.0482 291.4649
v 1512.2259 -1344.9356 290.3501
v 1524.2127 -1355.8266 290.3569
f 121 122 123
v 1514.7145 -1341.9137 292.1491
v 1525.8327 -1354.0482 291.4649
v 1526.8268 -1352.9561 292.1438
f 124 125 126
v 1511.5556 -1345.4278 289.9742
v 1512.2259 -1344.9356 290.3501
v 1514.7145 -1341.9137 292.1491
f 127 128 129
v 1525.8327 -1354.0482 291.4649
v 1514.7145 -1341.9137 292.1491
v 1512.2259 -1344.9356 290.3501
f 130 131 132
v 1512.2259 -1344.9356 290.3501
v 1511.5556 -1345.4278 289.9742
v 1511.6772 -1345.5381 289.9742
f 133 134 135
v 1552.4771 -1368.5893 289.8644
v 1551.4082 -1369.7665 290.4944
v 1552.5919 -1368.6925 289.8634
f 136 137 138
v 1551.4082 -1369.7665 290.4944
v 1548.7471 -1372.9416 292.1343
v 1552.5919 -1368.6925 289.8634
f 139 140 141
v 1545.8603 -1362.5705 289.8713
v 1545.4856 -1364.3796 290.5000
v 1546.5556 -1363.2034 289.8700
f 142 143 144
v 1548.7471 -1372.9416 292.1343
v 1545.4856 -1364.3796 290.5000
v 1542.0066 -1366.7966 292.1372
f 145 146 147
v 1545.8603 -1362.5705 289.8713
v 1542.0066 -1366.7966 292.1372
v 1545.4856 -1364.3796 290.5000
f 148 149 150
v 1551.4082 -1369.7665 290.4944
v 1545.4856 -1364.3796 290.5000
v 1548.7471 -1372.9416 292.1343
f 151 152 153
v 1545.4784 -1376.3564 289.9594
v 1546.0803 -1375.6941 290.3714
v 1546.0786 -1375.6928 283.4996
f 154 155 156
v 1545.4768 -1376.3552 283.4996
v 1545.4784 -1376.3564 289.9594
v 1546.0786 -1375.6928 283.4996
f 157 158 159
v 1545.5746 -1376.4445 283.4996
v 1545.5762 -1376.4456 289.9594
v 1545.4768 -1376.3552 283.4996
f 160 161 162
v 1545.4784 -1376.3564 289.9594
v 1545.4768 -1376.3552 283.4996
v 1545.5762 -1376.4456 289.9594
f 163 164 165
v 1511.5556 -1345.4278 289.9742
v 1511.6756 -1345.5369 283.5144
v 1511.6772 -1345.5381 289.9742
f 166 167 168
v 1511.5556 -1345.4278 289.9742
v 1511.5540 -1345.4266 283.5144
v 1511.6756 -1345.5369 283.5144
f 169 170 171
v 1511.6772 -1345.5381 289.9742
v 1511.6756 -1345.5369 283.5144
v 1512.2242 -1344.9344 283.5144
f 172 173 174
v 1538.8227 -1370.2886 289.9623
v 1538.8211 -1370.2874 283.5745
v 1539.5699 -1370.9696 289.9620
f 175 176 177
v 1538.8211 -1370.2874 283.5745
v 1539.5683 -1370.9683 283.5022
v 1539.5699 -1370.9696 289.9620
f 178 179 180
v 1523.6882 -1356.4900 283.5092
v 1539.5683 -1370.9683 283.5022
v 1538.8211 -1370.2874 283.5745
f 181 182 183
v 1523.6882 -1356.4900 283.5812
v 1523.6882 -1356.4900 283.5092
v 1538.8211 -1370.2874 283.5745
f 184 185 186
v 1540.1610 -1370.3160 283.5022
v 1539.5699 -1370.9696 289.9620
v 1539.5683 -1370.9683 283.5022
f 187 188 189
v 1546.0786 -1375.6928 283.4996
v 1540.1628 -1370.3173 290.3680
v 1540.1610 -1370.3160 283.5022
f 190 191 192
v 1551.4064 -1369.7651 283.4996
v 1551.4082 -1369.7665 290.4944
v 1552.4755 -1368.5880 283.4996
f 193 194 195
v 1552.4755 -1368.5880 283.4996
v 1551.4082 -1369.7665 290.4944
v 1552.4771 -1368.5893 289.8644
f 196 197 198
v 1545.4856 -1364.3796 290.5000
v 1551.4064 -1369.7651 283.4996
v 1545.4839 -1364.3784 283.5022
f 199 200 201
v 1545.4856 -1364.3796 290.5000
v 1551.4082 -1369.7665 290.4944
v 1551.4064 -1369.7651 283.4996
f 202 203 204
v 1546.5552 -1363.2030 288.1211
v 1545.4856 -1364.3796 290.5000
v 1545.4839 -1364.3784 283.5022
f 205 206 207
v 1545.4839 -1364.3784 283.5022
v 1546.5540 -1363.2022 283.5022
v 1546.5552 -1363.2030 288.1211
f 208 209 210
v 1529.5928 -1349.9129 283.5092
v 1517.5592 -1338.9698 283.5144
v 1517.5610 -1338.9710 290.5281
f 211 212 213
v 1529.5928 -1349.9129 283.5092
v 1517.5610 -1338.9710 290.5281
v 1529.5945 -1349.9142 290.5139
f 214 215 216
v 1518.6233 -1337.8006 283.5144
v 1518.6249 -1337.8017 289.9012
v 1517.5592 -1338.9698 283.5144
f 217 218 219
v 1517.5592 -1338.9698 283.5144
v 1518.6249 -1337.8017 289.9012
v 1517.5610 -1338.9710 290.5281
f 220 221 222
v 1518.5062 -1337.6945 289.9012
v 1518.6249 -1337.8017 289.9012
v 1518.6233 -1337.8006 283.5144
f 223 224 225
v 1518.5058 -1337.6941 288.3042
v 1518.5062 -1337.6945 289.9012
v 1518.6233 -1337.8006 283.5144
f 226 227 228
v 1518.5046 -1337.6932 283.5144
v 1518.5058 -1337.6941 288.3042
v 1518.6233 -1337.8006 283.5144
f 229 230 231
v 1552.5919 -1368.6925 289.8634
v 1552.5915 -1368.6922 288.2724
v 1552.4771 -1368.5893 289.8644
f 232 233 234
v 1552.4755 -1368.5880 283.4996
v 1552.4771 -1368.5893 289.8644
v 1552.5903 -1368.6913 283.4996
f 235 236 237
v 1523.1947 -1357.0362 291.5249
v 1523.4755 -1357.1290 291.5858
v 1524.2570 -1355.8672 292.3248
f 238 239 240
v 1523.1947 -1357.0362 291.5249
v 1523.3943 -1357.2177 291.5248
v 1523.4755 -1357.1290 291.5858
f 241 242 243
v 1524.2570 -1355.8672 292.3248
v 1525.8333 -1354.0487 293.5418
v 1524.2132 -1355.8271 292.3248
f 244 245 246
v 1541.0121 -1367.8882 293.5352
v 1525.8333 -1354.0487 293.5418
v 1524.2570 -1355.8672 292.3248
f 247 248 249
v 1524.2570 -1355.8672 292.3248
v 1523.4755 -1357.1290 291.5858
v 1541.0121 -1367.8882 293.5352
f 250 251 252
v 1523.4755 -1357.1290 291.5858
v 1538.4320 -1370.7179 291.5972
v 1541.0121 -1367.8882 293.5352
f 253 254 255
v 1530.6576 -1348.7460 290.3969
v 1542.0068 -1366.7968 292.8872
v 1545.8604 -1362.5706 290.3783
f 256 257 258
v 1525.8333 -1354.0487 293.5418
v 1541.0121 -1367.8882 293.5352
v 1542.0068 -1366.7968 292.8872
f 259 260 261
v 1525.8333 -1354.0487 293.5418
v 1542.0068 -1366.7968 292.8872
v 1530.6576 -1348.7460 290.3969
f 262 263 264
v 1523.4735 -1357.1274 283.5811
v 1523.4755 -1357.1290 291.5858
v 1523.3922 -1357.2162 283.5811
f 265 266 267
v 1523.4755 -1357.1290 291.5858
v 1538.4300 -1370.7164 283.5745
v 1538.4320 -1370.7179 291.5972
f 268 269 270
v 1523.4755 -1357.1290 291.5858
v 1523.4735 -1357.1274 283.5811
v 1538.4300 -1370.7164 283.5745
f 271 272 273
v 1545.5762 -1376.4456 289.9594
v 1548.7471 -1372.9416 292.1343
v 1546.0803 -1375.6941 290.3714
f 274 275 276
v 1540.1628 -1370.3173 290.3680
v 1546.0803 -1375.6941 290.3714
v 1548.7471 -1372.9416 292.1343
f 277 278 279
v 1540.1628 -1370.3173 290.3680
v 1548.7471 -1372.9416 292.1343
v 1541.0115 -1367.8878 291.4572
f 280 281 282
v 1546.0803 -1375.6941 290.3714
v 1545.4784 -1376.3564 289.9594
v 1545.5762 -1376.4456 289.9594
f 283 284 285
v 1541.0115 -1367.8878 291.4572
v 1548.7471 -1372.9416 292.1343
v 1542.0066 -1366.7966 292.1372
f 286 287 288
v 1538.8227 -1370.2886 289.9623
v 1540.1628 -1370.3173 290.3680
v 1541.0115 -1367.8878 291.4572
f 289 290 291
v 1538.8227 -1370.2886 289.9623
v 1539.5699 -1370.9696 289.9620
v 1540.1628 -1370.3173 290.3680
f 292 293 294
v 1517.5610 -1338.9710 290.5281
v 1514.7145 -1341.9137 292.1491
v 1526.8268 -1352.9561 292.1438
f 295 296 297
v 1529.5945 -1349.9142 290.5139
v 1517.5610 -1338.9710 290.5281
v 1526.8268 -1352.9561 292.1438
f 298 299 300
v 1517.5610 -1338.9710 290.5281
v 1518.6249 -1337.8017 289.9012
v 1518.5062 -1337.6945 289.9012
f 301 302 303
v 1518.5062 -1337.6945 289.9012
v 1514.7145 -1341.9137 292.1491
v 1517.5610 -1338.9710 290.5281
f 304 305 306
v 1523.4735 -1357.1274 283.5811
v 1523.6882 -1356.4900 283.5812
v 1538.4300 -1370.7164 283.5745
f 307 308 309
v 1523.3922 -1357.2162 283.5811
v 1523.1928 -1357.0347 283.5812
v 1523.4735 -1357.1274 283.5811
f 310 311 312
v 1523.6882 -1356.4900 283.5812
v 1523.4735 -1357.1274 283.5811
v 1523.1928 -1357.0347 283.5812
f 313 314 315
v 1538.8211 -1370.2874 283.5745
v 1538.4300 -1370.7164 283.5745
v 1523.6882 -1356.4900 283.5812
f 316 317 318
v 1545.5746 -1376.4445 283.4996
v 1552.5915 -1368.6922 288.2724
v 1552.5919 -1368.6925 289.8634
f 319 320 321
v 1552.5915 -1368.6922 288.2724
v 1548.7449 -1372.9399 283.4996
v 1552.5903 -1368.6913 283.4996
f 322 323 324
v 1552.5919 -1368.6925 289.8634
v 1545.5762 -1376.4456 289.9594
v 1545.5746 -1376.4445 283.4996
f 325 326 327
v 1545.5746 -1376.4445 283.4996
v 1548.7449 -1372.9399 283.4996
v 1552.5915 -1368.6922 288.2724
f 328 329 330
v 1552.5919 -1368.6925 289.8634
v 1548.7471 -1372.9416 292.1343
v 1545.5762 -1376.4456 289.9594
f 331 332 333
v 1518.5062 -1337.6945 289.9012
v 1511.5540 -1345.4266 283.5144
v 1511.5556 -1345.4278 289.9742
f 334 335 336
v 1511.5540 -1345.4266 283.5144
v 1518.5058 -1337.6941 288.3042
v 1514.7123 -1341.9121 283.5144
f 337 338 339
v 1514.7145 -1341.9137 292.1491
v 1518.5062 -1337.6945 289.9012
v 1511.5556 -1345.4278 289.9742
f 340 341 342
v 1511.5540 -1345.4266 283.5144
v 1518.5062 -1337.6945 289.9012
v 1518.5058 -1337.6941 288.3042
f 343 344 345
v 1514.7123 -1341.9121 283.5144
v 1518.5058 -1337.6941 288.3042
v 1518.5046 -1337.6932 283.5144
f 346 347 348
v 1523.6882 -1356.4900 283.5812
v 1523.1928 -1357.0347 283.5812
v 1523.1947 -1357.0362 291.5249
f 349 350 351
v 1524.2549 -1355.8655 283.5092
v 1523.6882 -1356.4900 283.5092
v 1523.6882 -1356.4900 283.5812
f 352 353 354
v 1524.2549 -1355.8655 283.5092
v 1523.6882 -1356.4900 283.5812
v 1523.1947 -1357.0362 291.5249
f 355 356 357
v 1524.2549 -1355.8655 283.5092
v 1523.1947 -1357.0362 291.5249
v 1524.2570 -1355.8672 292.3248
f 358 359 360
v 1524.2132 -1355.8271 292.3248
v 1524.2127 -1355.8266 290.3569
v 1524.2570 -1355.8672 292.3248
f 361 362 363
v 1524.2570 -1355.8672 292.3248
v 1524.2127 -1355.8266 290.3569
v 1524.2549 -1355.8655 283.5092
f 364 365 366
v 1524.2127 -1355.8266 290.3569
v 1512.2259 -1344.9356 290.3501
v 1524.2549 -1355.8655 283.5092
f 367 368 369
v 1524.2549 -1355.8655 283.5092
v 1512.2259 -1344.9356 290.3501
v 1512.2242 -1344.9344 283.5144
f 370 371 372
v 1530.6575 -1348.7460 289.8879
v 1530.6576 -1348.7460 290.3969
v 1545.8604 -1362.5706 290.3783
f 373 374 375
v 1530.6559 -1348.7447 283.5092
v 1530.6575 -1348.7460 289.8879
v 1546.5552 -1363.2030 288.1211
f 376 377 378
v 1545.8604 -1362.5706 290.3783
v 1545.8603 -1362.5705 289.8713
v 1530.6575 -1348.7460 289.8879
f 379 380 381
v 1546.5552 -1363.2030 288.1211
v 1545.8603 -1362.5705 289.8713
v 1546.5556 -1363.2034 289.8700
f 382 383 384
v 1546.5552 -1363.2030 288.1211
v 1546.5540 -1363.2022 283.5022
v 1530.6559 -1348.7447 283.5092
f 385 386 387
v 1546.5552 -1363.2030 288.1211
v 1530.6575 -1348.7460 289.8879
v 1545.8603 -1362.5705 289.8713
f 388 389 390
v 1545.8604 -1362.5706 290.3783
v 1542.0066 -1366.7966 292.1372
v 1545.8603 -1362.5705 289.8713
f 391 392 393
v 1542.0068 -1366.7968 292.8872
v 1542.0066 -1366.7966 292.1372
v 1545.8604 -1362.5706 290.3783
f 394 395 396
v 1542.0068 -1366.7968 292.8872
v 1541.0115 -1367.8878 291.4572
v 1542.0066 -1366.7966 292.1372
f 397 398 399
v 1541.0115 -1367.8878 291.4572
v 1542.0068 -1366.7968 292.8872
v 1541.0121 -1367.8882 293.5352
f 400 401 402
v 1538.8227 -1370.2886 289.9623
v 1541.0121 -1367.8882 293.5352
v 1538.4320 -1370.7179 291.5972
f 403 404 405
v 1538.4320 -1370.7179 291.5972
v 1538.4300 -1370.7164 283.5745
v 1538.8211 -1370.2874 283.5745
f 406 407 408
v 1538.8211 -1370.2874 283.5745
v 1538.8227 -1370.2886 289.9623
v 1538.4320 -1370.7179 291.5972
f 409 410 411
v 1541.0115 -1367.8878 291.4572
v 1541.0121 -1367.8882 293.5352
v 1538.8227 -1370.2886 289.9623
f 412 413 414
v 1530.6576 -1348.7460 290.3969
v 1526.8268 -1352.9561 292.1438
v 1525.8333 -1354.0487 293.5418
f 415 416 417
v 1529.5945 -1349.9142 290.5139
v 1526.8268 -1352.9561 292.1438
v 1530.6576 -1348.7460 290.3969
f 418 419 420
v 1525.8327 -1354.0482 291.4649
v 1524.2127 -1355.8266 290.3569
v 1524.2132 -1355.8271 292.3248
f 421 422 423
v 1525.8333 -1354.0487 293.5418
v 1525.8327 -1354.0482 291.4649
v 1524.2132 -1355.8271 292.3248
f 424 425 426
v 1525.8327 -1354.0482 291.4649
v 1525.8333 -1354.0487 293.5418
v 1526.8268 -1352.9561 292.1438
f 427 428 429
v 1530.6575 -1348.7460 289.8879
v 1529.5945 -1349.9142 290.5139
v 1530.6576 -1348.7460 290.3969
f 430 431 432
v 1530.6559 -1348.7447 283.5092
v 1529.5945 -1349.9142 290.5139
v 1530.6575 -1348.7460 289.8879
f 433 434 435
v 1530.6559 -1348.7447 283.5092
v 1529.5928 -1349.9129 283.5092
v 1529.5945 -1349.9142 290.5139
f 436 437 438
v 1512.2259 -1344.9356 290.3501
v 1511.6772 -1345.5381 289.9742
v 1512.2242 -1344.9344 283.5144
f 439 440 441
v 1540.1610 -1370.3160 283.5022
v 1540.1628 -1370.3173 290.3680
v 1539.5699 -1370.9696 289.9620
f 442 443 444
v 1546.0803 -1375.6941 290.3714
v 1540.1628 -1370.3173 290.3680
v 1546.0786 -1375.6928 283.4996
f 445 446 447
v 1546.5556 -1363.2034 289.8700
v 1545.4856 -1364.3796 290.5000
v 1546.5552 -1363.2030 288.1211
f 448 449 450
v 1552.4771 -1368.5893 289.8644
v 1552.5915 -1368.6922 288.2724
v 1552.5903 -1368.6913 283.4996
f 451 452 453
v 1523.3922 -1357.2162 283.5811
v 1523.3943 -1357.2177 291.5248
v 1523.1928 -1357.0347 283.5812
f 454 455 456
v 1523.1947 -1357.0362 291.5249
v 1523.1928 -1357.0347 283.5812
v 1523.3943 -1357.2177 291.5248
f 457 458 459
v 1523.4755 -1357.1290 291.5858
v 1523.3943 -1357.2177 291.5248
v 1523.3922 -1357.2162 283.5811
f 460 461 462

g building_ID_41583EAA-8FCA-4DF2-81F9-79AF7E4519A2
v 1552.5903 -1368.6913 283.6226
v 1570.4197 -1384.9019 283.6147
v 1562.7476 -1392.8064 283.6149
f 463 464 465
v 1547.7540 -1374.0363 283.6226
v 1552.5903 -1368.6913 283.6226
v 1545.2962 -1376.9547 283.6225
f 466 467 468
v 1545.2150 -1377.0435 283.6225
v 1545.1152 -1376.9523 283.6226
v 1545.2962 -1376.9547 283.6225
f 469 470 471
v 1547.7540 -1374.0363 283.6226
v 1545.2962 -1376.9547 283.6225
v 1545.1152 -1376.9523 283.6226
f 472 473 474
v 1552.5903 -1368.6913 283.6226
v 1562.7476 -1392.8064 283.6149
v 1545.2962 -1376.9547 283.6225
f 475 476 477
v 1570.4197 -1384.9019 283.6147
v 1565.5504 -1390.2618 283.6147
v 1562.7476 -1392.8064 283.6149
f 478 479 480
v 1562.9357 -1393.1398 283.6147
v 1562.6653 -1392.8951 283.6149
v 1562.7476 -1392.8064 283.6149
f 481 482 483
v 1565.5504 -1390.2618 283.6147
v 1562.9357 -1393.1398 283.6147
v 1562.7476 -1392.8064 283.6149
f 484 485 486
v 1545.1172 -1376.9538 291.5423
v 1545.2170 -1377.0450 291.5412
v 1545.2982 -1376.9563 291.6022
f 487 488 489
v 1545.1172 -1376.9538 291.5423
v 1545.2982 -1376.9563 291.6022
v 1547.7565 -1374.0382 293.5322
f 490 491 492
v 1554.0239 -1384.8815 291.6104
v 1547.7565 -1374.0382 293.5322
v 1545.2982 -1376.9563 291.6022
f 493 494 495
v 1565.5529 -1390.2637 293.5243
v 1554.0239 -1384.8815 291.6104
v 1562.7497 -1392.8079 291.6176
f 496 497 498
v 1562.6674 -1392.8966 291.5566
v 1562.9377 -1393.1414 291.5564
v 1562.7497 -1392.8079 291.6176
f 499 500 501
v 1562.9377 -1393.1414 291.5564
v 1565.5529 -1390.2637 293.5243
v 1562.7497 -1392.8079 291.6176
f 502 503 504
v 1547.7565 -1374.0382 293.5322
v 1554.0239 -1384.8815 291.6104
v 1565.5529 -1390.2637 293.5243
f 505 506 507
v 1561.5072 -1376.7984 290.3593
v 1565.5529 -1390.2637 293.5243
v 1570.4215 -1384.9032 290.3474
f 508 509 510
v 1547.7565 -1374.0382 293.5322
v 1561.5072 -1376.7984 290.3593
v 1552.5920 -1368.6926 290.3704
f 511 512 513
v 1565.5529 -1390.2637 293.5243
v 1561.5072 -1376.7984 290.3593
v 1547.7565 -1374.0382 293.5322
f 514 515 516
v 1545.2150 -1377.0435 283.6225
v 1545.2170 -1377.0450 291.5412
v 1545.1172 -1376.9538 291.5423
f 517 518 519
v 1545.2150 -1377.0435 283.6225
v 1545.1172 -1376.9538 291.5423
v 1545.1152 -1376.9523 283.6226
f 520 521 522
v 1545.2150 -1377.0435 283.6225
v 1545.2962 -1376.9547 283.6225
v 1545.2170 -1377.0450 291.5412
f 523 524 525
v 1545.2962 -1376.9547 283.6225
v 1545.2982 -1376.9563 291.6022
v 1545.2170 -1377.0450 291.5412
f 526 527 528
v 1562.7476 -1392.8064 283.6149
v 1554.0239 -1384.8815 291.6104
v 1545.2962 -1376.9547 283.6225
f 529 530 531
v 1562.6653 -1392.8951 283.6149
v 1562.6674 -1392.8966 291.5566
v 1562.7476 -1392.8064 283.6149
f 532 533 534
v 1562.9357 -1393.1398 283.6147
v 1562.6674 -1392.8966 291.5566
v 1562.6653 -1392.8951 283.6149
f 535 536 537
v 1552.5903 -1368.6913 283.6226
v 1561.5072 -1376.7984 290.3593
v 1570.4197 -1384.9019 283.6147
f 538 539 540
v 1547.7540 -1374.0363 283.6226
v 1545.1152 -1376.9523 283.6226
v 1545.1172 -1376.9538 291.5423
f 541 542 543
v 1547.7540 -1374.0363 283.6226
v 1545.1172 -1376.9538 291.5423
v 1547.7565 -1374.0382 293.5322
f 544 545 546
v 1552.5903 -1368.6913 283.6226
v 1547.7565 -1374.0382 293.5322
v 1552.5920 -1368.6926 290.3704
f 547 548 549
v 1547.7540 -1374.0363 283.6226
v 1547.7565 -1374.0382 293.5322
v 1552.5903 -1368.6913 283.6226
f 550 551 552
v 1570.4197 -1384.9019 283.6147
v 1570.4215 -1384.9032 290.3474
v 1565.5529 -1390.2637 293.5243
f 553 554 555
v 1570.4197 -1384.9019 283.6147
v 1565.5529 -1390.2637 293.5243
v 1565.5504 -1390.2618 283.6147
f 556 557 558
v 1565.5504 -1390.2618 283.6147
v 1565.5529 -1390.2637 293.5243
v 1562.9357 -1393.1398 283.6147
f 559 560 561
v 1562.9377 -1393.1414 291.5564
v 1562.9357 -1393.1398 283.6147
v 1565.5529 -1390.2637 293.5243
f 562 563 564
v 1562.7476 -1392.8064 283.6149
v 1562.7497 -1392.8079 291.6176
v 1554.0239 -1384.8815 291.6104
f 565 566 567
v 1554.0239 -1384.8815 291.6104
v 1545.2982 -1376.9563 291.6022
v 1545.2962 -1376.9547 283.6225
f 568 569 570
v 1562.6674 -1392.8966 291.5566
v 1562.7497 -1392.8079 291.6176
v 1562.7476 -1392.8064 283.6149
f 571 572 573
v 1562.9357 -1393.1398 283.6147
v 1562.9377 -1393.1414 291.5564
v 1562.6674 -1392.8966 291.5566
f 574 575 576
v 1552.5903 -1368.6913 283.6226
v 1552.5920 -1368.6926 290.3704
v 1561.5072 -1376.7984 290.3593
f 577 578 579
v 1561.5072 -1376.7984 290.3593
v 1570.4215 -1384.9032 290.3474
v 1570.4197 -1384.9019 283.6147
f 580 581 582

g building_ID_5DB772F6-BE81-4215-B48E-2BE49674ED69
v 1622.6626 -1406.4207 283.6718
v 1622.8998 -1406.7423 283.6717
v 1622.5843 -1406.5485 283.6718
f 583 584 585
v 1625.0693 -1403.1792 283.6719
v 1622.8998 -1406.7423 283.6717
v 1622.6626 -1406.4207 283.6718
f 586 587 588
v 1622.6626 -1406.4207 283.6718
v 1614.8714 -1390.8779 283.6772
v 1625.0693 -1403.1792 283.6719
f 589 590 591
v 1617.7097 -1392.5865 283.6761
v 1628.3246 -1397.0820 283.6724
v 1625.0693 -1403.1792 283.6719
f 592 593 594
v 1618.7547 -1391.1084 283.6762
v 1621.2203 -1392.7519 283.6752
v 1617.7097 -1392.5865 283.6761
f 595 596 597
v 1614.8714 -1390.8779 283.6772
v 1617.7097 -1392.5865 283.6761
v 1625.0693 -1403.1792 283.6719
f 598 599 600
v 1615.6977 -1389.2452 283.6774
v 1614.8714 -1390.8779 283.6772
v 1613.0737 -1387.7861 283.6783
f 601 602 603
v 1614.8714 -1390.8779 283.6772
v 1622.6626 -1406.4207 283.6718
v 1593.6104 -1388.7001 283.6830
f 604 605 606
v 1628.3246 -1397.0820 283.6724
v 1628.3718 -1397.0051 283.6724
v 1628.7053 -1397.2079 283.6723
f 607 608 609
v 1628.3246 -1397.0820 283.6724
v 1628.7053 -1397.2079 283.6723
v 1625.0693 -1403.1792 283.6719
f 610 611 612
v 1617.7097 -1392.5865 283.6761
v 1621.2203 -1392.7519 283.6752
v 1628.3246 -1397.0820 283.6724
f 613 614 615
v 1618.7547 -1391.1084 283.6762
v 1621.2825 -1392.6491 283.6752
v 1621.2203 -1392.7519 283.6752
f 616 617 618
v 1613.0737 -1387.7861 283.6783
v 1614.8714 -1390.8779 283.6772
v 1595.3449 -1385.1258 283.6834
f 619 620 621
v 1593.6104 -1388.7001 283.6830
v 1593.5320 -1388.8279 283.6830
v 1593.2076 -1388.6299 283.6831
f 622 623 624
v 1595.3449 -1385.1258 283.6834
v 1593.6104 -1388.7001 283.6830
v 1593.2076 -1388.6299 283.6831
f 625 626 627
v 1603.5257 -1381.8146 283.6820
v 1603.4594 -1381.9255 283.6820
v 1595.3449 -1385.1258 283.6834
f 628 629 630
v 1603.4594 -1381.9255 283.6820
v 1613.0737 -1387.7861 283.6783
v 1595.3449 -1385.1258 283.6834
f 631 632 633
v 1615.6977 -1389.2452 283.6774
v 1613.0737 -1387.7861 283.6783
v 1613.1359 -1387.6834 283.6783
f 634 635 636
v 1603.5257 -1381.8146 283.6820
v 1595.3449 -1385.1258 283.6834
v 1599.0341 -1379.0767 283.6838
f 637 638 639
v 1595.3449 -1385.1258 283.6834
v 1614.8714 -1390.8779 283.6772
v 1593.6104 -1388.7001 283.6830
f 640 641 642
v 1593.2095 -1388.6314 291.1389
v 1593.5339 -1388.8293 291.1388
v 1593.6123 -1388.7015 291.1978
f 643 644 645
v 1595.3473 -1385.1275 292.7521
v 1593.6123 -1388.7015 291.1978
v 1608.1555 -1397.5724 291.1791
f 646 647 648
v 1593.2095 -1388.6314 291.1389
v 1593.6123 -1388.7015 291.1978
v 1595.3473 -1385.1275 292.7521
f 649 650 651
v 1622.6646 -1406.4221 291.1615
v 1622.5862 -1406.5499 291.1025
v 1622.9017 -1406.7438 291.1014
f 652 653 654
v 1608.1555 -1397.5724 291.1791
v 1622.6646 -1406.4221 291.1615
v 1625.0717 -1403.1810 292.7405
f 655 656 657
v 1622.9017 -1406.7438 291.1014
v 1625.0717 -1403.1810 292.7405
v 1622.6646 -1406.4221 291.1615
f 658 659 660
v 1595.3473 -1385.1275 292.7521
v 1608.1555 -1397.5724 291.1791
v 1625.0717 -1403.1810 292.7405
f 661 662 663
v 1628.7070 -1397.2092 290.1840
v 1628.3736 -1397.0063 290.1831
v 1628.3264 -1397.0832 290.2161
f 664 665 666
v 1618.7564 -1391.1097 290.1700
v 1621.2220 -1392.7532 290.2150
v 1621.2843 -1392.6503 290.1710
f 667 668 669
v 1628.3264 -1397.0832 290.2161
v 1617.7116 -1392.5880 290.8308
v 1625.0717 -1403.1810 292.7405
f 670 671 672
v 1628.3264 -1397.0832 290.2161
v 1625.0717 -1403.1810 292.7405
v 1628.7070 -1397.2092 290.1840
f 673 674 675
v 1617.7116 -1392.5880 290.8308
v 1621.2220 -1392.7532 290.2150
v 1618.7564 -1391.1097 290.1700
f 676 677 678
v 1625.0717 -1403.1810 292.7405
v 1617.7116 -1392.5880 290.8308
v 1614.8733 -1390.8794 290.8359
f 679 680 681
v 1617.7116 -1392.5880 290.8308
v 1628.3264 -1397.0832 290.2161
v 1621.2220 -1392.7532 290.2150
f 682 683 684
v 1599.0358 -1379.0779 290.1606
v 1603.4611 -1381.9267 290.2098
v 1603.5274 -1381.8159 290.1618
f 685 686 687
v 1615.6994 -1389.2465 290.1692
v 1613.0754 -1387.7875 290.2121
v 1614.8733 -1390.8794 290.8359
f 688 689 690
v 1625.0717 -1403.1810 292.7405
v 1614.8733 -1390.8794 290.8359
v 1595.3473 -1385.1275 292.7521
f 691 692 693
v 1613.0754 -1387.7875 290.2121
v 1603.4611 -1381.9267 290.2098
v 1614.8733 -1390.8794 290.8359
f 694 695 696
v 1595.3473 -1385.1275 292.7521
v 1614.8733 -1390.8794 290.8359
v 1603.4611 -1381.9267 290.2098
f 697 698 699
v 1603.4611 -1381.9267 290.2098
v 1599.0358 -1379.0779 290.1606
v 1595.3473 -1385.1275 292.7521
f 700 701 702
v 1613.0754 -1387.7875 290.2121
v 1615.6994 -1389.2465 290.1692
v 1613.1376 -1387.6846 290.1681
f 703 704 705
v 1593.2076 -1388.6299 283.6831
v 1593.5320 -1388.8279 283.6830
v 1593.5339 -1388.8293 291.1388
f 706 707 708
v 1593.2095 -1388.6314 291.1389
v 1593.2087 -1388.6307 287.8770
v 1593.5339 -1388.8293 291.1388
f 709 710 711
v 1593.6104 -1388.7001 283.6830
v 1593.6123 -1388.7015 291.1978
v 1593.5339 -1388.8293 291.1388
f 712 713 714
v 1622.6646 -1406.4221 291.1615
v 1608.1555 -1397.5724 291.1791
v 1593.6104 -1388.7001 283.6830
f 715 716 717
v 1593.6104 -1388.7001 283.6830
v 1608.1555 -1397.5724 291.1791
v 1593.6123 -1388.7015 291.1978
f 718 719 720
v 1622.6626 -1406.4207 283.6718
v 1622.5843 -1406.5485 283.6718
v 1622.6646 -1406.4221 291.1615
f 721 722 723
v 1621.2825 -1392.6491 283.6752
v 1621.2220 -1392.7532 290.2150
v 1621.2203 -1392.7519 283.6752
f 724 725 726
v 1618.7547 -1391.1084 283.6762
v 1617.7097 -1392.5865 283.6761
v 1617.7116 -1392.5880 290.8308
f 727 728 729
v 1618.7547 -1391.1084 283.6762
v 1617.7116 -1392.5880 290.8308
v 1618.7564 -1391.1097 290.1700
f 730 731 732
v 1614.8733 -1390.8794 290.8359
v 1617.7116 -1392.5880 290.8308
v 1617.7097 -1392.5865 283.6761
f 733 734 735
v 1614.8714 -1390.8779 283.6772
v 1614.8733 -1390.8794 290.8359
v 1617.7097 -1392.5865 283.6761
f 736 737 738
v 1615.6994 -1389.2465 290.1692
v 1614.8714 -1390.8779 283.6772
v 1615.6977 -1389.2452 283.6774
f 739 740 741
v 1613.1376 -1387.6846 290.1681
v 1615.6994 -1389.2465 290.1692
v 1615.6977 -1389.2452 283.6774
f 742 743 744
v 1615.6977 -1389.2452 283.6774
v 1613.1359 -1387.6834 283.6783
v 1613.1376 -1387.6846 290.1681
f 745 746 747
v 1613.0737 -1387.7861 283.6783
v 1613.0754 -1387.7875 290.2121
v 1613.1376 -1387.6846 290.1681
f 748 749 750
v 1613.0737 -1387.7861 283.6783
v 1613.1376 -1387.6846 290.1681
v 1613.1359 -1387.6834 283.6783
f 751 752 753
v 1603.4594 -1381.9255 283.6820
v 1603.4611 -1381.9267 290.2098
v 1613.0737 -1387.7861 283.6783
f 754 755 756
v 1603.4594 -1381.9255 283.6820
v 1603.5274 -1381.8159 290.1618
v 1603.4611 -1381.9267 290.2098
f 757 758 759
v 1603.5257 -1381.8146 283.6820
v 1603.5274 -1381.8159 290.1618
v 1603.4594 -1381.9255 283.6820
f 760 761 762
v 1599.0341 -1379.0767 283.6838
v 1599.0358 -1379.0779 290.1606
v 1603.5257 -1381.8146 283.6820
f 763 764 765
v 1628.7070 -1397.2092 290.1840
v 1628.7053 -1397.2079 283.6723
v 1628.3736 -1397.0063 290.1831
f 766 767 768
v 1628.3736 -1397.0063 290.1831
v 1628.7053 -1397.2079 283.6723
v 1628.3718 -1397.0051 283.6724
f 769 770 771
v 1621.2220 -1392.7532 290.2150
v 1628.3264 -1397.0832 290.2161
v 1628.3246 -1397.0820 283.6724
f 772 773 774
v 1621.2203 -1392.7519 283.6752
v 1621.2220 -1392.7532 290.2150
v 1628.3246 -1397.0820 283.6724
f 775 776 777
v 1595.3473 -1385.1275 292.7521
v 1593.2087 -1388.6307 287.8770
v 1593.2095 -1388.6314 291.1389
f 778 779 780
v 1595.3449 -1385.1258 283.6834
v 1593.2076 -1388.6299 283.6831
v 1593.2087 -1388.6307 287.8770
f 781 782 783
v 1595.3449 -1385.1258 283.6834
v 1593.2087 -1388.6307 287.8770
v 1599.0358 -1379.0779 290.1606
f 784 785 786
v 1599.0358 -1379.0779 290.1606
v 1599.0341 -1379.0767 283.6838
v 1595.3449 -1385.1258 283.6834
f 787 788 789
v 1595.3473 -1385.1275 292.7521
v 1599.0358 -1379.0779 290.1606
v 1593.2087 -1388.6307 287.8770
f 790 791 792
v 1625.0693 -1403.1792 283.6719
v 1628.7053 -1397.2079 283.6723
v 1628.7070 -1397.2092 290.1840
f 793 794 795
v 1622.8998 -1406.7423 283.6717
v 1625.0717 -1403.1810 292.7405
v 1622.9017 -1406.7438 291.1014
f 796 797 798
v 1625.0717 -1403.1810 292.7405
v 1622.8998 -1406.7423 283.6717
v 1625.0693 -1403.1792 283.6719
f 799 800 801
v 1628.7070 -1397.2092 290.1840
v 1625.0717 -1403.1810 292.7405
v 1625.0693 -1403.1792 283.6719
f 802 803 804
v 1593.2087 -1388.6307 287.8770
v 1593.2076 -1388.6299 283.6831
v 1593.5339 -1388.8293 291.1388
f 805 806 807
v 1593.6104 -1388.7001 283.6830
v 1593.5339 -1388.8293 291.1388
v 1593.5320 -1388.8279 283.6830
f 808 809 810
v 1622.6626 -1406.4207 283.6718
v 1622.6646 -1406.4221 291.1615
v 1593.6104 -1388.7001 283.6830
f 811 812 813
v 1622.5862 -1406.5499 291.1025
v 1622.6646 -1406.4221 291.1615
v 1622.5843 -1406.5485 283.6718
f 814 815 816
v 1622.5843 -1406.5485 283.6718
v 1622.8998 -1406.7423 283.6717
v 1622.9017 -1406.7438 291.1014
f 817 818 819
v 1622.9017 -1406.7438 291.1014
v 1622.5862 -1406.5499 291.1025
v 1622.5843 -1406.5485 283.6718
f 820 821 822
v 1621.2825 -1392.6491 283.6752
v 1621.2843 -1392.6503 290.1710
v 1621.2220 -1392.7532 290.2150
f 823 824 825
v 1621.2825 -1392.6491 283.6752
v 1618.7547 -1391.1084 283.6762
v 1618.7564 -1391.1097 290.1700
f 826 827 828
v 1621.2843 -1392.6503 290.1710
v 1621.2825 -1392.6491 283.6752
v 1618.7564 -1391.1097 290.1700
f 829 830 831
v 1614.8714 -1390.8779 283.6772
v 1615.6994 -1389.2465 290.1692
v 1614.8733 -1390.8794 290.8359
f 832 833 834
v 1613.0754 -1387.7875 290.2121
v 1613.0737 -1387.7861 283.6783
v 1603.4611 -1381.9267 290.2098
f 835 836 837
v 1603.5274 -1381.8159 290.1618
v 1603.5257 -1381.8146 283.6820
v 1599.0358 -1379.0779 290.1606
f 838 839 840
v 1628.3246 -1397.0820 283.6724
v 1628.3264 -1397.0832 290.2161
v 1628.3736 -1397.0063 290.1831
f 841 842 843
v 1628.3246 -1397.0820 283.6724
v 1628.3736 -1397.0063 290.1831
v 1628.3718 -1397.0051 283.6724
f 844 845 846

g building_ID_76DD199D-9F6E-43AD-9647-4906DBA858C0
v 1593.0197 -1251.0254 282.0640
v 1587.0385 -1256.7353 282.0644
v 1587.0327 -1251.0523 282.0655
f 847 848 849
v 1593.0254 -1256.7293 282.0629
v 1587.0385 -1256.7353 282.0644
v 1593.0197 -1251.0254 282.0640
f 850 851 852
v 1584.5157 -1257.4015 282.0649
v 1584.1657 -1257.4046 282.0649
v 1584.1585 -1256.7396 282.0651
f 853 854 855
v 1584.5157 -1257.4015 282.0649
v 1587.0385 -1256.7353 282.0644
v 1597.8859 -1270.3493 282.0590
f 856 857 858
v 1584.1585 -1256.7396 282.0651
v 1587.0385 -1256.7353 282.0644
v 1584.5157 -1257.4015 282.0649
f 859 860 861
v 1597.8859 -1270.3493 282.0590
v 1585.0400 -1308.8225 282.0543
v 1584.5157 -1257.4015 282.0649
f 862 863 864
v 1593.0254 -1256.7293 282.0629
v 1597.8859 -1270.3493 282.0590
v 1587.0385 -1256.7353 282.0644
f 865 866 867
v 1597.9249 -1257.2985 282.0615
v 1598.2124 -1256.7242 282.0616
v 1598.2128 -1257.2983 282.0615
f 868 869 870
v 1593.0254 -1256.7293 282.0629
v 1597.9249 -1257.2985 282.0615
v 1597.9272 -1257.9194 282.0614
f 871 872 873
v 1598.4344 -1269.4157 282.0590
v 1597.9272 -1257.9194 282.0614
v 1603.3352 -1257.8979 282.0601
f 874 875 876
v 1603.3352 -1257.8979 282.0601
v 1604.0309 -1256.8839 282.0601
v 1603.4184 -1269.4120 282.0578
f 877 878 879
v 1598.4344 -1269.4157 282.0590
v 1593.0254 -1256.7293 282.0629
v 1597.9272 -1257.9194 282.0614
f 880 881 882
v 1604.0309 -1256.8839 282.0601
v 1603.3352 -1257.8979 282.0601
v 1603.3273 -1256.3359 282.0604
f 883 884 885
v 1593.0254 -1256.7293 282.0629
v 1598.2124 -1256.7242 282.0616
v 1597.9249 -1257.2985 282.0615
f 886 887 888
v 1603.3352 -1257.8979 282.0601
v 1603.4184 -1269.4120 282.0578
v 1598.4344 -1269.4157 282.0590
f 889 890 891
v 1598.4726 -1307.4275 282.0512
v 1585.0400 -1308.8225 282.0543
v 1598.0511 -1297.1345 282.0534
f 892 893 894
v 1598.2425 -1308.1999 282.0511
v 1585.0400 -1308.8225 282.0543
v 1598.4726 -1307.4275 282.0512
f 895 896 897
v 1597.8859 -1270.3493 282.0590
v 1598.0511 -1297.1345 282.0534
v 1585.0400 -1308.8225 282.0543
f 898 899 900
v 1585.0400 -1308.8225 282.0543
v 1584.5055 -1309.3570 282.0543
v 1584.4990 -1308.8270 282.0544
f 901 902 903
v 1598.4744 -1309.3435 282.0508
v 1584.5055 -1309.3570 282.0543
v 1585.0400 -1308.8225 282.0543
f 904 905 906
v 1598.2425 -1308.1999 282.0511
v 1598.2499 -1308.8078 282.0510
v 1585.0400 -1308.8225 282.0543
f 907 908 909
v 1598.2499 -1308.8078 282.0510
v 1598.4744 -1309.3435 282.0508
v 1585.0400 -1308.8225 282.0543
f 910 911 912
v 1597.8859 -1270.3493 282.0590
v 1598.4344 -1269.4157 282.0590
v 1598.4349 -1270.3457 282.0588
f 913 914 915
v 1603.4037 -1307.3687 282.0500
v 1598.4726 -1307.4275 282.0512
v 1598.4621 -1297.1326 282.0533
f 916 917 918
v 1598.4621 -1297.1326 282.0533
v 1598.4726 -1307.4275 282.0512
v 1598.0511 -1297.1345 282.0534
f 919 920 921
v 1598.2499 -1308.8078 282.0510
v 1598.4738 -1308.8054 282.0509
v 1598.4744 -1309.3435 282.0508
f 922 923 924
v 1598.4735 -1308.1975 282.0511
v 1598.2425 -1308.1999 282.0511
v 1598.4726 -1307.4275 282.0512
f 925 926 927
v 1598.4344 -1269.4157 282.0590
v 1597.8859 -1270.3493 282.0590
v 1593.0254 -1256.7293 282.0629
f 928 929 930
v 1603.4159 -1271.8221 282.0573
v 1603.4184 -1269.4120 282.0578
v 1604.1082 -1271.3339 282.0572
f 931 932 933
v 1631.1830 -1256.7685 282.0532
v 1604.1082 -1271.3339 282.0572
v 1604.0309 -1256.8839 282.0601
f 934 935 936
v 1603.4184 -1269.4120 282.0578
v 1604.0309 -1256.8839 282.0601
v 1604.1082 -1271.3339 282.0572
f 937 938 939
v 1604.1119 -1271.8209 282.0571
v 1603.4159 -1271.8221 282.0573
v 1604.1082 -1271.3339 282.0572
f 940 941 942
v 1604.2630 -1294.1751 282.0525
v 1604.2665 -1294.7261 282.0524
v 1603.5620 -1294.1792 282.0526
f 943 944 945
v 1631.2694 -1271.1756 282.0503
v 1631.1830 -1256.7685 282.0532
v 1631.7604 -1256.2261 282.0532
f 946 947 948
v 1631.1804 -1256.2286 282.0533
v 1631.7604 -1256.2261 282.0532
v 1631.1830 -1256.7685 282.0532
f 949 950 951
v 1631.7769 -1271.7229 282.0500
v 1631.2694 -1271.1756 282.0503
v 1631.7604 -1256.2261 282.0532
f 952 953 954
v 1631.7769 -1271.7229 282.0500
v 1631.2719 -1271.7256 282.0501
v 1631.2694 -1271.1756 282.0503
f 955 956 957
v 1631.1830 -1256.7685 282.0532
v 1631.2694 -1271.1756 282.0503
v 1604.1082 -1271.3339 282.0572
f 958 959 960
v 1631.4061 -1294.0587 282.0456
v 1631.7991 -1294.0589 282.0455
v 1631.4097 -1294.5668 282.0455
f 961 962 963
v 1603.3941 -1297.1268 282.0521
v 1603.3942 -1297.1038 282.0521
v 1603.5802 -1297.1023 282.0520
f 964 965 966
v 1598.4621 -1297.1326 282.0533
v 1603.3941 -1297.1268 282.0521
v 1603.4037 -1307.3687 282.0500
f 967 968 969
v 1603.4037 -1307.3687 282.0500
v 1603.3941 -1297.1268 282.0521
v 1603.5802 -1297.1023 282.0520
f 970 971 972
v 1603.4037 -1307.3687 282.0500
v 1603.6216 -1308.1352 282.0498
v 1603.4136 -1308.1377 282.0498
f 973 974 975
v 1603.6216 -1308.1352 282.0498
v 1603.4037 -1307.3687 282.0500
v 1604.3379 -1309.1342 282.0494
f 976 977 978
v 1604.3379 -1309.1342 282.0494
v 1603.4037 -1307.3687 282.0500
v 1603.5802 -1297.1023 282.0520
f 979 980 981
v 1603.6216 -1308.1352 282.0498
v 1604.3379 -1309.1342 282.0494
v 1603.6364 -1309.3373 282.0495
f 982 983 984
v 1631.4097 -1294.5668 282.0455
v 1604.3379 -1309.1342 282.0494
v 1604.2665 -1294.7261 282.0524
f 985 986 987
v 1604.3379 -1309.1342 282.0494
v 1631.4097 -1294.5668 282.0455
v 1631.4891 -1308.9969 282.0425
f 988 989 990
v 1631.8142 -1309.3088 282.0424
v 1631.4891 -1308.9969 282.0425
v 1631.4097 -1294.5668 282.0455
f 991 992 993
v 1604.3394 -1309.3372 282.0493
v 1603.6364 -1309.3373 282.0495
v 1604.3379 -1309.1342 282.0494
f 994 995 996
v 1631.4891 -1308.9969 282.0425
v 1631.8142 -1309.3088 282.0424
v 1631.4912 -1309.3089 282.0425
f 997 998 999
v 1631.8142 -1309.3088 282.0424
v 1631.4097 -1294.5668 282.0455
v 1631.7991 -1294.0589 282.0455
f 1000 1001 1002
v 1604.2665 -1294.7261 282.0524
v 1604.3379 -1309.1342 282.0494
v 1603.5802 -1297.1023 282.0520
f 1003 1004 1005
v 1603.5802 -1297.1023 282.0520
v 1603.5620 -1294.1792 282.0526
v 1604.2665 -1294.7261 282.0524
f 1006 1007 1008
v 1604.0284 -1256.3328 282.0602
v 1604.0309 -1256.8839 282.0601
v 1603.3273 -1256.3359 282.0604
f 1009 1010 1011
v 1585.0441 -1308.8254 297.9667
v 1584.5031 -1308.8299 297.9668
v 1584.5097 -1309.3600 297.9667
f 1012 1013 1014
v 1598.4786 -1309.3464 297.9632
v 1598.2541 -1308.8108 297.9634
v 1585.0441 -1308.8254 297.9667
f 1015 1016 1017
v 1585.0441 -1308.8254 297.9667
v 1598.0553 -1297.1373 297.9658
v 1597.8900 -1270.3520 297.9714
f 1018 1019 1020
v 1597.8900 -1270.3520 297.9714
v 1584.5198 -1257.4043 297.9773
v 1585.0441 -1308.8254 297.9667
f 1021 1022 1023
v 1585.0441 -1308.8254 297.9667
v 1598.2467 -1308.2027 297.9635
v 1598.4768 -1307.4303 297.9636
f 1024 1025 1026
v 1598.0553 -1297.1373 297.9658
v 1585.0441 -1308.8254 297.9667
v 1598.4768 -1307.4303 297.9636
f 1027 1028 1029
v 1598.2467 -1308.2027 297.9635
v 1585.0441 -1308.8254 297.9667
v 1598.2541 -1308.8108 297.9634
f 1030 1031 1032
v 1598.4786 -1309.3464 297.9632
v 1585.0441 -1308.8254 297.9667
v 1584.5097 -1309.3600 297.9667
f 1033 1034 1035
v 1598.2467 -1308.2027 297.9635
v 1598.4777 -1308.2004 297.9634
v 1598.4768 -1307.4303 297.9636
f 1036 1037 1038
v 1598.2541 -1308.8108 297.9634
v 1598.4786 -1309.3464 297.9632
v 1598.4781 -1308.8084 297.9633
f 1039 1040 1041
v 1598.4663 -1297.1354 297.9657
v 1598.4768 -1307.4303 297.9636
v 1603.4078 -1307.3716 297.9624
f 1042 1043 1044
v 1598.0553 -1297.1373 297.9658
v 1598.4768 -1307.4303 297.9636
v 1598.4663 -1297.1354 297.9657
f 1045 1046 1047
v 1598.4385 -1269.4185 297.9714
v 1597.8900 -1270.3520 297.9714
v 1598.4391 -1270.3485 297.9712
f 1048 1049 1050
v 1584.5198 -1257.4043 297.9773
v 1584.1626 -1256.7423 297.9775
v 1584.1698 -1257.4073 297.9773
f 1051 1052 1053
v 1587.0426 -1256.7381 297.9768
v 1584.1626 -1256.7423 297.9775
v 1584.5198 -1257.4043 297.9773
f 1054 1055 1056
v 1593.0238 -1251.0282 297.9764
v 1587.0368 -1251.0551 297.9779
v 1587.0426 -1256.7381 297.9768
f 1057 1058 1059
v 1587.0426 -1256.7381 297.9768
v 1593.0296 -1256.7321 297.9753
v 1593.0238 -1251.0282 297.9764
f 1060 1061 1062
v 1593.0296 -1256.7321 297.9753
v 1587.0426 -1256.7381 297.9768
v 1597.8900 -1270.3520 297.9714
f 1063 1064 1065
v 1587.0426 -1256.7381 297.9768
v 1584.5198 -1257.4043 297.9773
v 1597.8900 -1270.3520 297.9714
f 1066 1067 1068
v 1603.3394 -1257.9006 297.9725
v 1597.9314 -1257.9222 297.9738
v 1598.4385 -1269.4185 297.9714
f 1069 1070 1071
v 1593.0296 -1256.7321 297.9753
v 1598.4385 -1269.4185 297.9714
v 1597.9314 -1257.9222 297.9738
f 1072 1073 1074
v 1604.0351 -1256.8865 297.9725
v 1603.3316 -1256.3387 297.9728
v 1603.3394 -1257.9006 297.9725
f 1075 1076 1077
v 1598.4385 -1269.4185 297.9714
v 1603.4225 -1269.4148 297.9702
v 1603.3394 -1257.9006 297.9725
f 1078 1079 1080
v 1593.0296 -1256.7321 297.9753
v 1597.9290 -1257.3012 297.9739
v 1598.2166 -1256.7270 297.9740
f 1081 1082 1083
v 1598.2170 -1257.3010 297.9739
v 1598.2166 -1256.7270 297.9740
v 1597.9290 -1257.3012 297.9739
f 1084 1085 1086
v 1604.0351 -1256.8865 297.9725
v 1603.3394 -1257.9006 297.9725
v 1603.4225 -1269.4148 297.9702
f 1087 1088 1089
v 1593.0296 -1256.7321 297.9753
v 1597.9314 -1257.9222 297.9738
v 1597.9290 -1257.3012 297.9739
f 1090 1091 1092
v 1598.4385 -1269.4185 297.9714
v 1593.0296 -1256.7321 297.9753
v 1597.8900 -1270.3520 297.9714
f 1093 1094 1095
v 1603.4225 -1269.4148 297.9702
v 1603.4201 -1271.8248 297.9697
v 1604.1124 -1271.3367 297.9696
f 1096 1097 1098
v 1603.6258 -1308.1382 297.9622
v 1603.4078 -1307.3716 297.9624
v 1603.4178 -1308.1406 297.9622
f 1099 1100 1101
v 1604.3421 -1309.1371 297.9618
v 1603.5843 -1297.1051 297.9644
v 1603.4078 -1307.3716 297.9624
f 1102 1103 1104
v 1603.5662 -1294.1821 297.9650
v 1603.5843 -1297.1051 297.9644
v 1604.2707 -1294.7289 297.9647
f 1105 1106 1107
v 1603.3983 -1297.1296 297.9645
v 1603.5843 -1297.1051 297.9644
v 1603.3984 -1297.1066 297.9645
f 1108 1109 1110
v 1603.5843 -1297.1051 297.9644
v 1603.3983 -1297.1296 297.9645
v 1603.4078 -1307.3716 297.9624
f 1111 1112 1113
v 1604.3421 -1309.1371 297.9618
v 1603.4078 -1307.3716 297.9624
v 1603.6258 -1308.1382 297.9622
f 1114 1115 1116
v 1598.4663 -1297.1354 297.9657
v 1603.4078 -1307.3716 297.9624
v 1603.3983 -1297.1296 297.9645
f 1117 1118 1119
v 1604.3436 -1309.3400 297.9617
v 1604.3421 -1309.1371 297.9618
v 1603.6406 -1309.3402 297.9619
f 1120 1121 1122
v 1604.3421 -1309.1371 297.9618
v 1631.4139 -1294.5697 297.9579
v 1604.2707 -1294.7289 297.9647
f 1123 1124 1125
v 1604.3421 -1309.1371 297.9618
v 1604.2707 -1294.7289 297.9647
v 1603.5843 -1297.1051 297.9644
f 1126 1127 1128
v 1631.4139 -1294.5697 297.9579
v 1631.4933 -1308.9998 297.9549
v 1631.8184 -1309.3116 297.9548
f 1129 1130 1131
v 1631.4933 -1308.9998 297.9549
v 1631.4955 -1309.3118 297.9549
v 1631.8184 -1309.3116 297.9548
f 1132 1133 1134
v 1631.4933 -1308.9998 297.9549
v 1631.4139 -1294.5697 297.9579
v 1604.3421 -1309.1371 297.9618
f 1135 1136 1137
v 1603.6406 -1309.3402 297.9619
v 1604.3421 -1309.1371 297.9618
v 1603.6258 -1308.1382 297.9622
f 1138 1139 1140
v 1604.2672 -1294.1779 297.9649
v 1603.5662 -1294.1821 297.9650
v 1604.2707 -1294.7289 297.9647
f 1141 1142 1143
v 1603.4201 -1271.8248 297.9697
v 1604.1161 -1271.8237 297.9695
v 1604.1124 -1271.3367 297.9696
f 1144 1145 1146
v 1604.0325 -1256.3356 297.9726
v 1603.3316 -1256.3387 297.9728
v 1604.0351 -1256.8865 297.9725
f 1147 1148 1149
v 1604.0351 -1256.8865 297.9725
v 1604.1124 -1271.3367 297.9696
v 1631.1872 -1256.7713 297.9656
f 1150 1151 1152
v 1603.4225 -1269.4148 297.9702
v 1604.1124 -1271.3367 297.9696
v 1604.0351 -1256.8865 297.9725
f 1153 1154 1155
v 1631.4103 -1294.0616 297.9580
v 1631.4139 -1294.5697 297.9579
v 1631.8033 -1294.0616 297.9579
f 1156 1157 1158
v 1631.8184 -1309.3116 297.9548
v 1631.8033 -1294.0616 297.9579
v 1631.4139 -1294.5697 297.9579
f 1159 1160 1161
v 1631.7646 -1256.2289 297.9656
v 1631.1872 -1256.7713 297.9656
v 1631.2736 -1271.1784 297.9627
f 1162 1163 1164
v 1631.2736 -1271.1784 297.9627
v 1631.1872 -1256.7713 297.9656
v 1604.1124 -1271.3367 297.9696
f 1165 1166 1167
v 1631.2736 -1271.1784 297.9627
v 1631.7811 -1271.7258 297.9624
v 1631.7646 -1256.2289 297.9656
f 1168 1169 1170
v 1631.7811 -1271.7258 297.9624
v 1631.2736 -1271.1784 297.9627
v 1631.2761 -1271.7284 297.9625
f 1171 1172 1173
v 1631.1847 -1256.2313 297.9657
v 1631.1872 -1256.7713 297.9656
v 1631.7646 -1256.2289 297.9656
f 1174 1175 1176
v 1584.1657 -1257.4046 282.0649
v 1584.1698 -1257.4073 297.9773
v 1584.1626 -1256.7423 297.9775
f 1177 1178 1179
v 1584.5157 -1257.4015 282.0649
v 1584.5198 -1257.4043 297.9773
v 1584.1698 -1257.4073 297.9773
f 1180 1181 1182
v 1585.0400 -1308.8225 282.0543
v 1585.0441 -1308.8254 297.9667
v 1584.5198 -1257.4043 297.9773
f 1183 1184 1185
v 1584.4990 -1308.8270 282.0544
v 1584.5031 -1308.8299 297.9668
v 1585.0441 -1308.8254 297.9667
f 1186 1187 1188
v 1584.5055 -1309.3570 282.0543
v 1584.5097 -1309.3600 297.9667
v 1584.5031 -1308.8299 297.9668
f 1189 1190 1191
v 1598.4744 -1309.3435 282.0508
v 1598.4786 -1309.3464 297.9632
v 1584.5097 -1309.3600 297.9667
f 1192 1193 1194
v 1598.4738 -1308.8054 282.0509
v 1598.4781 -1308.8084 297.9633
v 1598.4786 -1309.3464 297.9632
f 1195 1196 1197
v 1598.2499 -1308.8078 282.0510
v 1598.2541 -1308.8108 297.9634
v 1598.4781 -1308.8084 297.9633
f 1198 1199 1200
v 1598.2425 -1308.1999 282.0511
v 1598.2467 -1308.2027 297.9635
v 1598.2541 -1308.8108 297.9634
f 1201 1202 1203
v 1598.4735 -1308.1975 282.0511
v 1598.4777 -1308.2004 297.9634
v 1598.2467 -1308.2027 297.9635
f 1204 1205 1206
v 1598.4726 -1307.4275 282.0512
v 1598.4768 -1307.4303 297.9636
v 1598.4777 -1308.2004 297.9634
f 1207 1208 1209
v 1603.4037 -1307.3687 282.0500
v 1603.4078 -1307.3716 297.9624
v 1598.4768 -1307.4303 297.9636
f 1210 1211 1212
v 1603.4136 -1308.1377 282.0498
v 1603.4178 -1308.1406 297.9622
v 1603.4078 -1307.3716 297.9624
f 1213 1214 1215
v 1603.6216 -1308.1352 282.0498
v 1603.6258 -1308.1382 297.9622
v 1603.4178 -1308.1406 297.9622
f 1216 1217 1218
v 1603.6364 -1309.3373 282.0495
v 1603.6406 -1309.3402 297.9619
v 1603.6258 -1308.1382 297.9622
f 1219 1220 1221
v 1604.3394 -1309.3372 282.0493
v 1604.3436 -1309.3400 297.9617
v 1603.6406 -1309.3402 297.9619
f 1222 1223 1224
v 1604.3379 -1309.1342 282.0494
v 1604.3421 -1309.1371 297.9618
v 1604.3436 -1309.3400 297.9617
f 1225 1226 1227
v 1631.4891 -1308.9969 282.0425
v 1631.4933 -1308.9998 297.9549
v 1604.3421 -1309.1371 297.9618
f 1228 1229 1230
v 1631.4912 -1309.3089 282.0425
v 1631.4955 -1309.3118 297.9549
v 1631.4933 -1308.9998 297.9549
f 1231 1232 1233
v 1631.8142 -1309.3088 282.0424
v 1631.8184 -1309.3116 297.9548
v 1631.4955 -1309.3118 297.9549
f 1234 1235 1236
v 1631.7991 -1294.0589 282.0455
v 1631.8033 -1294.0616 297.9579
v 1631.8184 -1309.3116 297.9548
f 1237 1238 1239
v 1631.4061 -1294.0587 282.0456
v 1631.4103 -1294.0616 297.9580
v 1631.8033 -1294.0616 297.9579
f 1240 1241 1242
v 1631.4097 -1294.5668 282.0455
v 1631.4139 -1294.5697 297.9579
v 1631.4103 -1294.0616 297.9580
f 1243 1244 1245
v 1604.2665 -1294.7261 282.0524
v 1604.2707 -1294.7289 297.9647
v 1631.4139 -1294.5697 297.9579
f 1246 1247 1248
v 1604.2630 -1294.1751 282.0525
v 1604.2672 -1294.1779 297.9649
v 1604.2707 -1294.7289 297.9647
f 1249 1250 1251
v 1603.5620 -1294.1792 282.0526
v 1603.5662 -1294.1821 297.9650
v 1604.2672 -1294.1779 297.9649
f 1252 1253 1254
v 1603.5802 -1297.1023 282.0520
v 1603.5843 -1297.1051 297.9644
v 1603.5662 -1294.1821 297.9650
f 1255 1256 1257
v 1603.3942 -1297.1038 282.0521
v 1603.3984 -1297.1066 297.9645
v 1603.5843 -1297.1051 297.9644
f 1258 1259 1260
v 1597.8859 -1270.3493 282.0590
v 1597.8900 -1270.3520 297.9714
v 1598.0553 -1297.1373 297.9658
f 1261 1262 1263
v 1598.4349 -1270.3457 282.0588
v 1598.4391 -1270.3485 297.9712
v 1597.8900 -1270.3520 297.9714
f 1264 1265 1266
v 1598.4344 -1269.4157 282.0590
v 1598.4385 -1269.4185 297.9714
v 1598.4391 -1270.3485 297.9712
f 1267 1268 1269
v 1603.4184 -1269.4120 282.0578
v 1603.4225 -1269.4148 297.9702
v 1598.4385 -1269.4185 297.9714
f 1270 1271 1272
v 1603.4159 -1271.8221 282.0573
v 1603.4201 -1271.8248 297.9697
v 1603.4225 -1269.4148 297.9702
f 1273 1274 1275
v 1604.1119 -1271.8209 282.0571
v 1604.1161 -1271.8237 297.9695
v 1603.4201 -1271.8248 297.9697
f 1276 1277 1278
v 1604.1082 -1271.3339 282.0572
v 1604.1124 -1271.3367 297.9696
v 1604.1161 -1271.8237 297.9695
f 1279 1280 1281
v 1631.2694 -1271.1756 282.0503
v 1631.2736 -1271.1784 297.9627
v 1604.1124 -1271.3367 297.9696
f 1282 1283 1284
v 1631.2719 -1271.7256 282.0501
v 1631.2761 -1271.7284 297.9625
v 1631.2736 -1271.1784 297.9627
f 1285 1286 1287
v 1631.7769 -1271.7229 282.0500
v 1631.7811 -1271.7258 297.9624
v 1631.2761 -1271.7284 297.9625
f 1288 1289 1290
v 1631.7604 -1256.2261 282.0532
v 1631.7646 -1256.2289 297.9656
v 1631.7811 -1271.7258 297.9624
f 1291 1292 1293
v 1631.1804 -1256.2286 282.0533
v 1631.1847 -1256.2313 297.9657
v 1631.7646 -1256.2289 297.9656
f 1294 1295 1296
v 1631.1830 -1256.7685 282.0532
v 1631.1872 -1256.7713 297.9656
v 1631.1847 -1256.2313 297.9657
f 1297 1298 1299
v 1604.0309 -1256.8839 282.0601
v 1604.0351 -1256.8865 297.9725
v 1631.1872 -1256.7713 297.9656
f 1300 1301 1302
v 1604.0284 -1256.3328 282.0602
v 1604.0325 -1256.3356 297.9726
v 1604.0351 -1256.8865 297.9725
f 1303 1304 1305
v 1603.3273 -1256.3359 282.0604
v 1603.3316 -1256.3387 297.9728
v 1604.0325 -1256.3356 297.9726
f 1306 1307 1308
v 1603.3352 -1257.8979 282.0601
v 1603.3394 -1257.9006 297.9725
v 1603.3316 -1256.3387 297.9728
f 1309 1310 1311
v 1597.9272 -1257.9194 282.0614
v 1597.9314 -1257.9222 297.9738
v 1603.3394 -1257.9006 297.9725
f 1312 1313 1314
v 1597.9249 -1257.2985 282.0615
v 1597.9290 -1257.3012 297.9739
v 1597.9314 -1257.9222 297.9738
f 1315 1316 1317
v 1598.2128 -1257.2983 282.0615
v 1598.2170 -1257.3010 297.9739
v 1597.9290 -1257.3012 297.9739
f 1318 1319 1320
v 1598.2124 -1256.7242 282.0616
v 1598.2166 -1256.7270 297.9740
v 1598.2170 -1257.3010 297.9739
f 1321 1322 1323
v 1593.0254 -1256.7293 282.0629
v 1593.0296 -1256.7321 297.9753
v 1598.2166 -1256.7270 297.9740
f 1324 1325 1326
v 1593.0197 -1251.0254 282.0640
v 1593.0238 -1251.0282 297.9764
v 1593.0296 -1256.7321 297.9753
f 1327 1328 1329
v 1587.0327 -1251.0523 282.0655
v 1587.0368 -1251.0551 297.9779
v 1593.0238 -1251.0282 297.9764
f 1330 1331 1332
v 1587.0385 -1256.7353 282.0644
v 1587.0426 -1256.7381 297.9768
v 1587.0368 -1251.0551 297.9779
f 1333 1334 1335
v 1584.1585 -1256.7396 282.0651
v 1584.1626 -1256.7423 297.9775
v 1587.0426 -1256.7381 297.9768
f 1336 1337 1338
v 1603.3984 -1297.1066 297.9645
v 1603.3942 -1297.1038 282.0521
v 1603.3941 -1297.1268 282.0521
f 1339 1340 1341
v 1598.0511 -1297.1345 282.0534
v 1598.0553 -1297.1373 297.9658
v 1598.4663 -1297.1354 297.9657
f 1342 1343 1344
v 1603.3983 -1297.1296 297.9645
v 1603.3941 -1297.1268 282.0521
v 1598.4621 -1297.1326 282.0533
f 1345 1346 1347
v 1584.1657 -1257.4046 282.0649
v 1584.1626 -1256.7423 297.9775
v 1584.1585 -1256.7396 282.0651
f 1348 1349 1350
v 1584.5157 -1257.4015 282.0649
v 1584.1698 -1257.4073 297.9773
v 1584.1657 -1257.4046 282.0649
f 1351 1352 1353
v 1585.0400 -1308.8225 282.0543
v 1584.5198 -1257.4043 297.9773
v 1584.5157 -1257.4015 282.0649
f 1354 1355 1356
v 1584.4990 -1308.8270 282.0544
v 1585.0441 -1308.8254 297.9667
v 1585.0400 -1308.8225 282.0543
f 1357 1358 1359
v 1584.5055 -1309.3570 282.0543
v 1584.5031 -1308.8299 297.9668
v 1584.4990 -1308.8270 282.0544
f 1360 1361 1362
v 1598.4744 -1309.3435 282.0508
v 1584.5097 -1309.3600 297.9667
v 1584.5055 -1309.3570 282.0543
f 1363 1364 1365
v 1598.4738 -1308.8054 282.0509
v 1598.4786 -1309.3464 297.9632
v 1598.4744 -1309.3435 282.0508
f 1366 1367 1368
v 1598.2499 -1308.8078 282.0510
v 1598.4781 -1308.8084 297.9633
v 1598.4738 -1308.8054 282.0509
f 1369 1370 1371
v 1598.2425 -1308.1999 282.0511
v 1598.2541 -1308.8108 297.9634
v 1598.2499 -1308.8078 282.0510
f 1372 1373 1374
v 1598.4735 -1308.1975 282.0511
v 1598.2467 -1308.2027 297.9635
v 1598.2425 -1308.1999 282.0511
f 1375 1376 1377
v 1598.4726 -1307.4275 282.0512
v 1598.4777 -1308.2004 297.9634
v 1598.4735 -1308.1975 282.0511
f 1378 1379 1380
v 1603.4037 -1307.3687 282.0500
v 1598.4768 -1307.4303 297.9636
v 1598.4726 -1307.4275 282.0512
f 1381 1382 1383
v 1603.4136 -1308.1377 282.0498
v 1603.4078 -1307.3716 297.9624
v 1603.4037 -1307.3687 282.0500
f 1384 1385 1386
v 1603.6216 -1308.1352 282.0498
v 1603.4178 -1308.1406 297.9622
v 1603.4136 -1308.1377 282.0498
f 1387 1388 1389
v 1603.6364 -1309.3373 282.0495
v 1603.6258 -1308.1382 297.9622
v 1603.6216 -1308.1352 282.0498
f 1390 1391 1392
v 1604.3394 -1309.3372 282.0493
v 1603.6406 -1309.3402 297.9619
v 1603.6364 -1309.3373 282.0495
f 1393 1394 1395
v 1604.3379 -1309.1342 282.0494
v 1604.3436 -1309.3400 297.9617
v 1604.3394 -1309.3372 282.0493
f 1396 1397 1398
v 1631.4891 -1308.9969 282.0425
v 1604.3421 -1309.1371 297.9618
v 1604.3379 -1309.1342 282.0494
f 1399 1400 1401
v 1631.4912 -1309.3089 282.0425
v 1631.4933 -1308.9998 297.9549
v 1631.4891 -1308.9969 282.0425
f 1402 1403 1404
v 1631.8142 -1309.3088 282.0424
v 1631.4955 -1309.3118 297.9549
v 1631.4912 -1309.3089 282.0425
f 1405 1406 1407
v 1631.7991 -1294.0589 282.0455
v 1631.8184 -1309.3116 297.9548
v 1631.8142 -1309.3088 282.0424
f 1408 1409 1410
v 1631.4061 -1294.0587 282.0456
v 1631.8033 -1294.0616 297.9579
v 1631.7991 -1294.0589 282.0455
f 1411 1412 1413
v 1631.4097 -1294.5668 282.0455
v 1631.4103 -1294.0616 297.9580
v 1631.4061 -1294.0587 282.0456
f 1414 1415 1416
v 1604.2665 -1294.7261 282.0524
v 1631.4139 -1294.5697 297.9579
v 1631.4097 -1294.5668 282.0455
f 1417 1418 1419
v 1604.2630 -1294.1751 282.0525
v 1604.2707 -1294.7289 297.9647
v 1604.2665 -1294.7261 282.0524
f 1420 1421 1422
v 1603.5620 -1294.1792 282.0526
v 1604.2672 -1294.1779 297.9649
v 1604.2630 -1294.1751 282.0525
f 1423 1424 1425
v 1603.5802 -1297.1023 282.0520
v 1603.5662 -1294.1821 297.9650
v 1603.5620 -1294.1792 282.0526
f 1426 1427 1428
v 1603.3942 -1297.1038 282.0521
v 1603.5843 -1297.1051 297.9644
v 1603.5802 -1297.1023 282.0520
f 1429 1430 1431
v 1597.8859 -1270.3493 282.0590
v 1598.0553 -1297.1373 297.9658
v 1598.0511 -1297.1345 282.0534
f 1432 1433 1434
v 1598.4349 -1270.3457 282.0588
v 1597.8900 -1270.3520 297.9714
v 1597.8859 -1270.3493 282.0590
f 1435 1436 1437
v 1598.4344 -1269.4157 282.0590
v 1598.4391 -1270.3485 297.9712
v 1598.4349 -1270.3457 282.0588
f 1438 1439 1440
v 1603.4184 -1269.4120 282.0578
v 1598.4385 -1269.4185 297.9714
v 1598.4344 -1269.4157 282.0590
f 1441 1442 1443
v 1603.4159 -1271.8221 282.0573
v 1603.4225 -1269.4148 297.9702
v 1603.4184 -1269.4120 282.0578
f 1444 1445 1446
v 1604.1119 -1271.8209 282.0571
v 1603.4201 -1271.8248 297.9697
v 1603.4159 -1271.8221 282.0573
f 1447 1448 1449
v 1604.1082 -1271.3339 282.0572
v 1604.1161 -1271.8237 297.9695
v 1604.1119 -1271.8209 282.0571
f 1450 1451 1452
v 1631.2694 -1271.1756 282.0503
v 1604.1124 -1271.3367 297.9696
v 1604.1082 -1271.3339 282.0572
f 1453 1454 1455
v 1631.2719 -1271.7256 282.0501
v 1631.2736 -1271.1784 297.9627
v 1631.2694 -1271.1756 282.0503
f 1456 1457 1458
v 1631.7769 -1271.7229 282.0500
v 1631.2761 -1271.7284 297.9625
v 1631.2719 -1271.7256 282.0501
f 1459 1460 1461
v 1631.7604 -1256.2261 282.0532
v 1631.7811 -1271.7258 297.9624
v 1631.7769 -1271.7229 282.0500
f 1462 1463 1464
v 1631.1804 -1256.2286 282.0533
v 1631.7646 -1256.2289 297.9656
v 1631.7604 -1256.2261 282.0532
f 1465 1466 1467
v 1631.1830 -1256.7685 282.0532
v 1631.1847 -1256.2313 297.9657
v 1631.1804 -1256.2286 282.0533
f 1468 1469 1470
v 1604.0309 -1256.8839 282.0601
v 1631.1872 -1256.7713 297.9656
v 1631.1830 -1256.7685 282.0532
f 1471 1472 1473
v 1604.0284 -1256.3328 282.0602
v 1604.0351 -1256.8865 297.9725
v 1604.0309 -1256.8839 282.0601
f 1474 1475 1476
v 1603.3273 -1256.3359 282.0604
v 1604.0325 -1256.3356 297.9726
v 1604.0284 -1256.3328 282.0602
f 1477 1478 1479
v 1603.3352 -1257.8979 282.0601
v 1603.3316 -1256.3387 297.9728
v 1603.3273 -1256.3359 282.0604
f 1480 1481 1482
v 1597.9272 -1257.9194 282.0614
v 1603.3394 -1257.9006 297.9725
v 1603.3352 -1257.8979 282.0601
f 1483 1484 1485
v 1597.9249 -1257.2985 282.0615
v 1597.9314 -1257.9222 297.9738
v 1597.9272 -1257.9194 282.0614
f 1486 1487 1488
v 1598.2128 -1257.2983 282.0615
v 1597.9290 -1257.3012 297.9739
v 1597.9249 -1257.2985 282.0615
f 1489 1490 1491
v 1598.2124 -1256.7242 282.0616
v 1598.2170 -1257.3010 297.9739
v 1598.2128 -1257.2983 282.0615
f 1492 1493 1494
v 1593.0254 -1256.7293 282.0629
v 1598.2166 -1256.7270 297.9740
v 1598.2124 -1256.7242 282.0616
f 1495 1496 1497
v 1593.0197 -1251.0254 282.0640
v 1593.0296 -1256.7321 297.9753
v 1593.0254 -1256.7293 282.0629
f 1498 1499 1500
v 1587.0327 -1251.0523 282.0655
v 1593.0238 -1251.0282 297.9764
v 1593.0197 -1251.0254 282.0640
f 1501 1502 1503
v 1587.0385 -1256.7353 282.0644
v 1587.0368 -1251.0551 297.9779
v 1587.0327 -1251.0523 282.0655
f 1504 1505 1506
v 1584.1585 -1256.7396 282.0651
v 1587.0426 -1256.7381 297.9768
v 1587.0385 -1256.7353 282.0644
f 1507 1508 1509
v 1603.3984 -1297.1066 297.9645
v 1603.3941 -1297.1268 282.0521
v 1603.3983 -1297.1296 297.9645
f 1510 1511 1512
v 1598.0511 -1297.1345 282.0534
v 1598.4663 -1297.1354 297.9657
v 1598.4621 -1297.1326 282.0533
f 1513 1514 1515
v 1603.3983 -1297.1296 297.9645
v 1598.4621 -1297.1326 282.0533
v 1598.4663 -1297.1354 297.9657
f 1516 1517 1518

g building_ID_F3300D9B-DF86-460C-9C92-15848311F5F8
v 1579.1482 -1304.6271 289.5314
v 1573.2312 -1298.6933 289.5341
v 1573.2371 -1304.6862 289.5328
f 1519 1520 1521
v 1573.2312 -1298.6933 289.5341
v 1579.1482 -1304.6271 289.5314
v 1579.0932 -1298.6390 289.5326
f 1522 1523 1524
v 1579.0916 -1298.6379 283.3618
v 1579.0932 -1298.6390 289.5326
v 1579.1466 -1304.6260 283.3606
f 1525 1526 1527
v 1569.7658 -1304.7225 292.5666
v 1563.0947 -1298.7867 292.5694
v 1563.1458 -1304.7288 292.5682
f 1528 1529 1530
v 1573.2319 -1298.6938 292.5670
v 1569.7658 -1304.7225 292.5666
v 1573.2379 -1304.6867 292.5657
f 1531 1532 1533
v 1563.0947 -1298.7867 292.5694
v 1569.7658 -1304.7225 292.5666
v 1573.2319 -1298.6938 292.5670
f 1534 1535 1536
v 1563.1435 -1304.7272 283.3615
v 1563.1458 -1304.7288 292.5682
v 1563.0947 -1298.7867 292.5694
f 1537 1538 1539
v 1569.7635 -1304.7208 283.3599
v 1569.7658 -1304.7225 292.5666
v 1563.1458 -1304.7288 292.5682
f 1540 1541 1542
v 1573.2312 -1298.6933 289.5341
v 1573.2319 -1298.6938 292.5670
v 1573.2379 -1304.6867 292.5657
f 1543 1544 1545
v 1569.7635 -1304.7208 283.3599
v 1563.0923 -1298.7851 283.3627
v 1572.3065 -1298.7006 283.3635
f 1546 1547 1548
v 1563.0923 -1298.7851 283.3627
v 1569.7635 -1304.7208 283.3599
v 1563.1435 -1304.7272 283.3615
f 1549 1550 1551
v 1569.7635 -1304.7208 283.3599
v 1572.3065 -1298.7006 283.3635
v 1572.3125 -1304.6947 283.3623
f 1552 1553 1554
v 1579.1466 -1304.6260 283.3606
v 1572.3065 -1298.7006 283.3635
v 1579.0916 -1298.6379 283.3618
f 1555 1556 1557
v 1579.1466 -1304.6260 283.3606
v 1572.3125 -1304.6947 283.3623
v 1572.3065 -1298.7006 283.3635
f 1558 1559 1560
v 1572.3065 -1298.7006 283.3635
v 1563.0923 -1298.7851 283.3627
v 1573.2312 -1298.6933 289.5341
f 1561 1562 1563
v 1563.0947 -1298.7867 292.5694
v 1573.2312 -1298.6933 289.5341
v 1563.0923 -1298.7851 283.3627
f 1564 1565 1566
v 1563.0947 -1298.7867 292.5694
v 1573.2319 -1298.6938 292.5670
v 1573.2312 -1298.6933 289.5341
f 1567 1568 1569
v 1579.0932 -1298.6390 289.5326
v 1579.0916 -1298.6379 283.3618
v 1572.3065 -1298.7006 283.3635
f 1570 1571 1572
v 1573.2312 -1298.6933 289.5341
v 1579.0932 -1298.6390 289.5326
v 1572.3065 -1298.7006 283.3635
f 1573 1574 1575
v 1579.1482 -1304.6271 289.5314
v 1573.2371 -1304.6862 289.5328
v 1579.1466 -1304.6260 283.3606
f 1576 1577 1578
v 1569.7635 -1304.7208 283.3599
v 1573.2371 -1304.6862 289.5328
v 1569.7658 -1304.7225 292.5666
f 1579 1580 1581
v 1573.2379 -1304.6867 292.5657
v 1569.7658 -1304.7225 292.5666
v 1573.2371 -1304.6862 289.5328
f 1582 1583 1584
v 1573.2371 -1304.6862 289.5328
v 1569.7635 -1304.7208 283.3599
v 1572.3125 -1304.6947 283.3623
f 1585 1586 1587
v 1579.1466 -1304.6260 283.3606
v 1573.2371 -1304.6862 289.5328
v 1572.3125 -1304.6947 283.3623
f 1588 1589 1590
v 1579.0932 -1298.6390 289.5326
v 1579.1482 -1304.6271 289.5314
v 1579.1466 -1304.6260 283.3606
f 1591 1592 1593
v 1563.1435 -1304.7272 283.3615
v 1563.0947 -1298.7867 292.5694
v 1563.0923 -1298.7851 283.3627
f 1594 1595 1596
v 1569.7635 -1304.7208 283.3599
v 1563.1458 -1304.7288 292.5682
v 1563.1435 -1304.7272 283.3615
f 1597 1598 1599
v 1573.2312 -1298.6933 289.5341
v 1573.2379 -1304.6867 292.5657
v 1573.2371 -1304.6862 289.5328
f 1600 1601 1602

g building_ID_397079F3-09B5-499C-9D77-28D505D4CA59
v 1518.5046 -1337.6932 283.5294
v 1499.6571 -1330.4868 283.5354
v 1504.5986 -1325.0511 283.5354
f 1603 1604 1605
v 1497.3778 -1333.5877 283.5353
v 1497.0815 -1333.3189 283.5354
v 1497.4580 -1333.4989 283.5353
f 1606 1607 1608
v 1499.6571 -1330.4868 283.5354
v 1497.4580 -1333.4989 283.5353
v 1497.0815 -1333.3189 283.5354
f 1609 1610 1611
v 1497.4580 -1333.4989 283.5353
v 1499.6571 -1330.4868 283.5354
v 1518.5046 -1337.6932 283.5294
f 1612 1613 1614
v 1497.4580 -1333.4989 283.5353
v 1518.5046 -1337.6932 283.5294
v 1513.5759 -1343.1760 283.5294
f 1615 1616 1617
v 1511.0414 -1345.9962 283.5294
v 1511.0558 -1345.8462 283.5295
v 1513.5759 -1343.1760 283.5294
f 1618 1619 1620
v 1511.0414 -1345.9962 283.5294
v 1510.9746 -1345.9361 283.5295
v 1511.0558 -1345.8462 283.5295
f 1621 1622 1623
v 1511.0558 -1345.8462 283.5295
v 1497.4580 -1333.4989 283.5353
v 1513.5759 -1343.1760 283.5294
f 1624 1625 1626
v 1499.6594 -1330.4886 293.1561
v 1497.0835 -1333.3204 291.5711
v 1497.4600 -1333.5004 291.6210
f 1627 1628 1629
v 1497.4600 -1333.5004 291.6210
v 1497.0835 -1333.3204 291.5711
v 1497.3798 -1333.5892 291.5710
f 1630 1631 1632
v 1504.2584 -1339.6736 291.6261
v 1499.6594 -1330.4886 293.1561
v 1497.4600 -1333.5004 291.6210
f 1633 1634 1635
v 1511.0434 -1345.9977 291.5811
v 1511.0578 -1345.8478 291.6312
v 1510.9766 -1345.9375 291.5802
f 1636 1637 1638
v 1511.0578 -1345.8478 291.6312
v 1513.5784 -1343.1778 293.1500
v 1504.2584 -1339.6736 291.6261
f 1639 1640 1641
v 1511.0578 -1345.8478 291.6312
v 1511.0434 -1345.9977 291.5811
v 1513.5784 -1343.1778 293.1500
f 1642 1643 1644
v 1499.6594 -1330.4886 293.1561
v 1504.2584 -1339.6736 291.6261
v 1513.5784 -1343.1778 293.1500
f 1645 1646 1647
v 1504.6003 -1325.0524 290.2872
v 1513.5784 -1343.1778 293.1500
v 1518.5062 -1337.6945 290.2711
f 1648 1649 1650
v 1513.5784 -1343.1778 293.1500
v 1504.6003 -1325.0524 290.2872
v 1499.6594 -1330.4886 293.1561
f 1651 1652 1653
v 1497.3778 -1333.5877 283.5353
v 1497.3798 -1333.5892 291.5710
v 1497.0835 -1333.3204 291.5711
f 1654 1655 1656
v 1497.3778 -1333.5877 283.5353
v 1497.0835 -1333.3204 291.5711
v 1497.0815 -1333.3189 283.5354
f 1657 1658 1659
v 1497.3778 -1333.5877 283.5353
v 1497.4600 -1333.5004 291.6210
v 1497.3798 -1333.5892 291.5710
f 1660 1661 1662
v 1497.4580 -1333.4989 283.5353
v 1497.4600 -1333.5004 291.6210
v 1497.3778 -1333.5877 283.5353
f 1663 1664 1665
v 1511.0558 -1345.8462 283.5295
v 1511.0578 -1345.8478 291.6312
v 1504.2584 -1339.6736 291.6261
f 1666 1667 1668
v 1511.0558 -1345.8462 283.5295
v 1504.2584 -1339.6736 291.6261
v 1497.4600 -1333.5004 291.6210
f 1669 1670 1671
v 1511.0558 -1345.8462 283.5295
v 1497.4600 -1333.5004 291.6210
v 1497.4580 -1333.4989 283.5353
f 1672 1673 1674
v 1511.0558 -1345.8462 283.5295
v 1510.9746 -1345.9361 283.5295
v 1510.9766 -1345.9375 291.5802
f 1675 1676 1677
v 1510.9766 -1345.9375 291.5802
v 1511.0578 -1345.8478 291.6312
v 1511.0558 -1345.8462 283.5295
f 1678 1679 1680
v 1510.9746 -1345.9361 283.5295
v 1511.0434 -1345.9977 291.5811
v 1510.9766 -1345.9375 291.5802
f 1681 1682 1683
v 1504.6003 -1325.0524 290.2872
v 1518.5062 -1337.6945 290.2711
v 1504.5986 -1325.0511 283.5354
f 1684 1685 1686
v 1504.5986 -1325.0511 283.5354
v 1518.5062 -1337.6945 290.2711
v 1518.5046 -1337.6932 283.5294
f 1687 1688 1689
v 1497.0835 -1333.3204 291.5711
v 1499.6571 -1330.4868 283.5354
v 1497.0815 -1333.3189 283.5354
f 1690 1691 1692
v 1499.6571 -1330.4868 283.5354
v 1497.0835 -1333.3204 291.5711
v 1499.6594 -1330.4886 293.1561
f 1693 1694 1695
v 1504.5986 -1325.0511 283.5354
v 1499.6594 -1330.4886 293.1561
v 1504.6003 -1325.0524 290.2872
f 1696 1697 1698
v 1499.6571 -1330.4868 283.5354
v 1499.6594 -1330.4886 293.1561
v 1504.5986 -1325.0511 283.5354
f 1699 1700 1701
v 1518.5046 -1337.6932 283.5294
v 1518.5062 -1337.6945 290.2711
v 1513.5759 -1343.1760 283.5294
f 1702 1703 1704
v 1518.5062 -1337.6945 290.2711
v 1513.5784 -1343.1778 293.1500
v 1513.5759 -1343.1760 283.5294
f 1705 1706 1707
v 1513.5784 -1343.1778 293.1500
v 1511.0414 -1345.9962 283.5294
v 1513.5759 -1343.1760 283.5294
f 1708 1709 1710
v 1511.0434 -1345.9977 291.5811
v 1511.0414 -1345.9962 283.5294
v 1513.5784 -1343.1778 293.1500
f 1711 1712 1713
v 1510.9746 -1345.9361 283.5295
v 1511.0414 -1345.9962 283.5294
v 1511.0434 -1345.9977 291.5811
f 1714 1715 1716
