# Grid Center: 2617000, 1264200
# Global Anchor: 7.64977475454284, 47.53283995868075, 0.0

g building_ID_0A87129A-70B6-4D02-973E-A29E2332CC17
v 1077.1851 -370.7730 278.1838
v 1096.2498 -371.5851 278.1805
v 1095.3258 -375.3045 278.1805
f 1 2 3
v 1096.2498 -371.5851 278.1805
v 1077.1851 -370.7730 278.1838
v 1078.1191 -367.0425 278.1839
f 4 5 6
v 1096.2510 -371.5853 285.0842
v 1078.1203 -367.0428 285.0877
v 1077.1864 -370.7733 285.0876
f 7 8 9
v 1077.1864 -370.7733 285.0876
v 1095.3270 -375.3047 285.0842
v 1096.2510 -371.5853 285.0842
f 10 11 12
v 1078.1191 -367.0425 278.1839
v 1078.1203 -367.0428 285.0877
v 1096.2510 -371.5853 285.0842
f 13 14 15
v 1077.1851 -370.7730 278.1838
v 1077.1864 -370.7733 285.0876
v 1078.1203 -367.0428 285.0877
f 16 17 18
v 1095.3258 -375.3045 278.1805
v 1095.3270 -375.3047 285.0842
v 1077.1864 -370.7733 285.0876
f 19 20 21
v 1096.2498 -371.5851 278.1805
v 1096.2510 -371.5853 285.0842
v 1095.3270 -375.3047 285.0842
f 22 23 24
v 1078.1191 -367.0425 278.1839
v 1096.2510 -371.5853 285.0842
v 1096.2498 -371.5851 278.1805
f 25 26 27
v 1077.1851 -370.7730 278.1838
v 1078.1203 -367.0428 285.0877
v 1078.1191 -367.0425 278.1839
f 28 29 30
v 1095.3258 -375.3045 278.1805
v 1077.1864 -370.7733 285.0876
v 1077.1851 -370.7730 278.1838
f 31 32 33
v 1096.2498 -371.5851 278.1805
v 1095.3270 -375.3047 285.0842
v 1095.3258 -375.3045 278.1805
f 34 35 36
