# Grid Center: 2617800, 1263000
# Global Anchor: 7.64977475454284, 47.53283995868075, 0.0

g building_ID_1693254C-5C83-4A0A-83DF-42A69EF1594F
v 1922.9945 -1697.6029 351.2942
v 1920.6290 -1700.3946 351.2941
v 1914.3517 -1695.2488 351.2975
f 1 2 3
v 1926.2100 -1693.6805 351.2942
v 1922.9945 -1697.6029 351.2942
v 1919.8858 -1688.4976 351.2976
f 4 5 6
v 1914.3517 -1695.2488 351.2975
v 1919.8858 -1688.4976 351.2976
v 1922.9945 -1697.6029 351.2942
f 7 8 9
v 1922.9975 -1697.6053 360.8519
v 1926.2130 -1693.6828 360.8519
v 1919.8888 -1688.4999 360.8552
f 10 11 12
v 1920.6320 -1700.3969 360.8518
v 1922.9975 -1697.6053 360.8519
v 1914.3548 -1695.2511 360.8551
f 13 14 15
v 1919.8888 -1688.4999 360.8552
v 1914.3548 -1695.2511 360.8551
v 1922.9975 -1697.6053 360.8519
f 16 17 18
v 1926.2100 -1693.6805 351.2942
v 1926.2130 -1693.6828 360.8519
v 1922.9975 -1697.6053 360.8519
f 19 20 21
v 1919.8858 -1688.4976 351.2976
v 1919.8888 -1688.4999 360.8552
v 1926.2130 -1693.6828 360.8519
f 22 23 24
v 1914.3517 -1695.2488 351.2975
v 1914.3548 -1695.2511 360.8551
v 1919.8888 -1688.4999 360.8552
f 25 26 27
v 1920.6290 -1700.3946 351.2941
v 1920.6320 -1700.3969 360.8518
v 1914.3548 -1695.2511 360.8551
f 28 29 30
v 1922.9945 -1697.6029 351.2942
v 1922.9975 -1697.6053 360.8519
v 1920.6320 -1700.3969 360.8518
f 31 32 33
v 1926.2100 -1693.6805 351.2942
v 1922.9975 -1697.6053 360.8519
v 1922.9945 -1697.6029 351.2942
f 34 35 36
v 1919.8858 -1688.4976 351.2976
v 1926.2130 -1693.6828 360.8519
v 1926.2100 -1693.6805 351.2942
f 37 38 39
v 1914.3517 -1695.2488 351.2975
v 1919.8888 -1688.4999 360.8552
v 1919.8858 -1688.4976 351.2976
f 40 41 42
v 1920.6290 -1700.3946 351.2941
v 1914.3548 -1695.2511 360.8551
v 1914.3517 -1695.2488 351.2975
f 43 44 45
v 1922.9945 -1697.6029 351.2942
v 1920.6320 -1700.3969 360.8518
v 1920.6290 -1700.3946 351.2941
f 46 47 48
