# Grid Center: 2617400, 1263800
# Global Anchor: 7.64977475454284, 47.53283995868075, 0.0

g building_ID_593E218E-84E8-4988-B8C4-1A36BB3B8032
v 1590.0600 -1126.0629 284.2051
v 1583.6506 -1079.9282 284.2148
v 1584.2218 -1079.8497 284.2147
f 1 2 3
v 1584.2218 -1079.8497 284.2147
v 1590.5812 -1125.9903 284.2050
v 1590.0600 -1126.0629 284.2051
f 4 5 6
v 1590.6246 -1126.2873 296.5075
v 1595.1144 -1160.6971 296.5002
v 1595.1917 -1160.5863 296.5002
f 7 8 9
v 1595.1144 -1160.6971 296.5002
v 1590.6246 -1126.2873 296.5075
v 1595.0201 -1160.7928 296.5002
f 10 11 12
v 1590.6246 -1126.2873 296.5075
v 1594.8989 -1160.8755 296.5002
v 1595.0201 -1160.7928 296.5002
f 13 14 15
v 1595.1917 -1160.5863 296.5002
v 1595.2490 -1160.4644 296.5002
v 1590.6246 -1126.2873 296.5075
f 16 17 18
v 1583.6538 -1079.9300 296.5173
v 1590.6246 -1126.2873 296.5075
v 1584.2250 -1079.8515 296.5172
f 19 20 21
v 1595.2925 -1160.2676 296.5002
v 1595.2939 -1160.1325 296.5002
v 1590.6246 -1126.2873 296.5075
f 22 23 24
v 1594.8989 -1160.8755 296.5002
v 1590.6246 -1126.2873 296.5075
v 1583.6538 -1079.9300 296.5173
f 25 26 27
v 1595.2925 -1160.2676 296.5002
v 1590.6246 -1126.2873 296.5075
v 1595.2490 -1160.4644 296.5002
f 28 29 30
v 1590.0600 -1126.0629 284.2051
v 1590.0600 -1126.0629 284.4061
v 1583.6507 -1079.9282 284.4158
f 31 32 33
v 1567.9047 -1140.1518 292.8508
v 1567.9055 -1140.1522 296.0227
v 1552.4351 -1142.2993 292.8542
f 34 35 36
v 1567.0227 -1133.8005 292.8522
v 1567.0235 -1133.8010 296.0241
v 1567.9055 -1140.1522 296.0227
f 37 38 39
v 1583.6507 -1079.9282 284.4158
v 1590.0600 -1126.0629 284.4061
v 1550.9419 -1131.4942 284.4148
f 40 41 42
v 1550.9419 -1131.4942 284.4148
v 1544.5666 -1085.3104 284.4245
v 1583.6507 -1079.9282 284.4158
f 43 44 45
v 1583.6537 -1079.9299 296.0293
v 1544.5695 -1085.3122 296.0381
v 1567.0235 -1133.8010 296.0241
f 46 47 48
v 1552.4358 -1142.2998 296.0261
v 1567.0235 -1133.8010 296.0241
v 1544.5695 -1085.3122 296.0381
f 49 50 51
v 1590.6812 -1130.5164 296.0187
v 1583.6537 -1079.9299 296.0293
v 1567.0235 -1133.8010 296.0241
f 52 53 54
v 1552.4358 -1142.2998 296.0261
v 1567.9055 -1140.1522 296.0227
v 1567.0235 -1133.8010 296.0241
f 55 56 57
v 1590.6803 -1130.5159 292.8469
v 1590.6812 -1130.5164 296.0187
v 1567.0235 -1133.8010 296.0241
f 58 59 60
v 1555.6395 -1165.5274 284.1655
v 1556.5357 -1166.2258 284.1652
v 1555.6692 -1165.6644 284.1655
f 61 62 63
v 1555.7965 -1165.9118 284.1654
v 1555.7219 -1165.7936 284.1655
v 1556.5357 -1166.2258 284.1652
f 64 65 66
v 1555.7219 -1165.7936 284.1655
v 1555.6692 -1165.6644 284.1655
v 1556.5357 -1166.2258 284.1652
f 67 68 69
v 1594.6554 -1160.9629 284.1566
v 1556.5357 -1166.2258 284.1652
v 1555.6395 -1165.5274 284.1655
f 70 71 72
v 1556.5357 -1166.2258 284.1652
v 1556.0609 -1166.1374 284.1653
v 1555.8902 -1166.0161 284.1654
f 73 74 75
v 1556.3957 -1166.2304 284.1652
v 1556.1898 -1166.1919 284.1653
v 1556.5357 -1166.2258 284.1652
f 76 77 78
v 1556.0609 -1166.1374 284.1653
v 1556.5357 -1166.2258 284.1652
v 1556.1898 -1166.1919 284.1653
f 79 80 81
v 1556.5357 -1166.2258 284.1652
v 1555.8902 -1166.0161 284.1654
v 1555.7965 -1165.9118 284.1654
f 82 83 84
v 1595.2907 -1160.1306 284.1566
v 1555.6395 -1165.5274 284.1655
v 1550.9418 -1131.4941 284.1728
f 85 86 87
v 1550.9418 -1131.4941 284.1728
v 1590.5812 -1125.9903 284.1640
v 1595.2907 -1160.1306 284.1566
f 88 89 90
v 1595.2907 -1160.1306 284.1566
v 1595.2893 -1160.2656 284.1566
v 1594.6554 -1160.9629 284.1566
f 91 92 93
v 1555.6395 -1165.5274 284.1655
v 1595.2907 -1160.1306 284.1566
v 1594.6554 -1160.9629 284.1566
f 94 95 96
v 1594.6554 -1160.9629 284.1566
v 1595.2893 -1160.2656 284.1566
v 1595.2458 -1160.4625 284.1566
f 97 98 99
v 1594.7856 -1160.9263 284.1566
v 1594.6554 -1160.9629 284.1566
v 1594.8957 -1160.8735 284.1566
f 100 101 102
v 1595.0169 -1160.7909 284.1566
v 1594.8957 -1160.8735 284.1566
v 1594.6554 -1160.9629 284.1566
f 103 104 105
v 1595.0169 -1160.7909 284.1566
v 1594.6554 -1160.9629 284.1566
v 1595.1112 -1160.6951 284.1566
f 106 107 108
v 1595.1885 -1160.5844 284.1566
v 1595.1112 -1160.6951 284.1566
v 1594.6554 -1160.9629 284.1566
f 109 110 111
v 1595.1885 -1160.5844 284.1566
v 1594.6554 -1160.9629 284.1566
v 1595.2458 -1160.4625 284.1566
f 112 113 114
v 1594.6554 -1160.9629 284.1566
v 1594.6577 -1160.9643 292.8403
v 1556.5379 -1166.2272 292.8488
f 115 116 117
v 1594.7856 -1160.9263 284.1566
v 1594.7878 -1160.9276 292.8403
v 1594.6577 -1160.9643 292.8403
f 118 119 120
v 1594.7856 -1160.9263 284.1566
v 1594.8957 -1160.8735 284.1566
v 1594.7878 -1160.9276 292.8403
f 121 122 123
v 1594.8980 -1160.8749 292.8403
v 1594.7878 -1160.9276 292.8403
v 1594.8957 -1160.8735 284.1566
f 124 125 126
v 1555.6692 -1165.6644 284.1655
v 1555.6714 -1165.6658 292.8491
v 1555.6418 -1165.5287 292.8492
f 127 128 129
v 1555.7219 -1165.7936 284.1655
v 1555.7240 -1165.7950 292.8491
v 1555.6714 -1165.6658 292.8491
f 130 131 132
v 1555.7965 -1165.9118 284.1654
v 1555.7988 -1165.9132 292.8490
v 1555.7240 -1165.7950 292.8491
f 133 134 135
v 1555.8902 -1166.0161 284.1654
v 1555.8925 -1166.0174 292.8490
v 1555.7988 -1165.9132 292.8490
f 136 137 138
v 1556.0609 -1166.1374 284.1653
v 1556.0631 -1166.1389 292.8489
v 1555.8925 -1166.0174 292.8490
f 139 140 141
v 1556.1898 -1166.1919 284.1653
v 1556.1920 -1166.1932 292.8489
v 1556.0631 -1166.1389 292.8489
f 142 143 144
v 1556.3957 -1166.2304 284.1652
v 1556.3979 -1166.2318 292.8488
v 1556.1920 -1166.1932 292.8489
f 145 146 147
v 1556.5357 -1166.2258 284.1652
v 1556.5379 -1166.2272 292.8488
v 1556.3979 -1166.2318 292.8488
f 148 149 150
v 1594.8980 -1160.8749 292.8403
v 1594.8989 -1160.8755 296.5002
v 1590.6812 -1130.5164 296.0187
f 151 152 153
v 1583.6538 -1079.9300 296.5173
v 1590.6812 -1130.5164 296.0187
v 1594.8989 -1160.8755 296.5002
f 154 155 156
v 1583.6538 -1079.9300 296.5173
v 1583.6537 -1079.9299 296.0293
v 1590.6812 -1130.5164 296.0187
f 157 158 159
v 1594.8957 -1160.8735 284.1566
v 1595.0169 -1160.7909 284.1566
v 1595.0201 -1160.7928 296.5002
f 160 161 162
v 1595.0201 -1160.7928 296.5002
v 1594.8980 -1160.8749 292.8403
v 1594.8957 -1160.8735 284.1566
f 163 164 165
v 1555.8925 -1166.0174 292.8490
v 1556.5379 -1166.2272 292.8488
v 1555.7988 -1165.9132 292.8490
f 166 167 168
v 1556.5379 -1166.2272 292.8488
v 1555.8925 -1166.0174 292.8490
v 1556.0631 -1166.1389 292.8489
f 169 170 171
v 1556.5379 -1166.2272 292.8488
v 1555.7240 -1165.7950 292.8491
v 1555.7988 -1165.9132 292.8490
f 172 173 174
v 1555.7240 -1165.7950 292.8491
v 1556.5379 -1166.2272 292.8488
v 1555.6714 -1165.6658 292.8491
f 175 176 177
v 1567.9047 -1140.1518 292.8508
v 1552.4351 -1142.2993 292.8542
v 1555.6418 -1165.5287 292.8492
f 178 179 180
v 1555.6714 -1165.6658 292.8491
v 1556.5379 -1166.2272 292.8488
v 1555.6418 -1165.5287 292.8492
f 181 182 183
v 1556.0631 -1166.1389 292.8489
v 1556.1920 -1166.1932 292.8489
v 1556.5379 -1166.2272 292.8488
f 184 185 186
v 1567.9047 -1140.1518 292.8508
v 1555.6418 -1165.5287 292.8492
v 1556.5379 -1166.2272 292.8488
f 187 188 189
v 1567.9047 -1140.1518 292.8508
v 1556.5379 -1166.2272 292.8488
v 1594.6577 -1160.9643 292.8403
f 190 191 192
v 1594.6577 -1160.9643 292.8403
v 1594.7878 -1160.9276 292.8403
v 1594.8980 -1160.8749 292.8403
f 193 194 195
v 1590.6803 -1130.5159 292.8469
v 1567.0227 -1133.8005 292.8522
v 1567.9047 -1140.1518 292.8508
f 196 197 198
v 1594.6577 -1160.9643 292.8403
v 1590.6803 -1130.5159 292.8469
v 1567.9047 -1140.1518 292.8508
f 199 200 201
v 1590.6803 -1130.5159 292.8469
v 1594.6577 -1160.9643 292.8403
v 1594.8980 -1160.8749 292.8403
f 202 203 204
v 1556.5379 -1166.2272 292.8488
v 1556.1920 -1166.1932 292.8489
v 1556.3979 -1166.2318 292.8488
f 205 206 207
v 1590.0600 -1126.0629 284.2051
v 1550.9418 -1131.4941 284.1728
v 1550.9419 -1131.4942 284.4148
f 208 209 210
v 1590.0600 -1126.0629 284.4061
v 1590.0600 -1126.0629 284.2051
v 1550.9419 -1131.4942 284.4148
f 211 212 213
v 1590.5812 -1125.9903 284.1640
v 1590.0600 -1126.0629 284.2051
v 1590.5812 -1125.9903 284.2050
f 214 215 216
v 1550.9418 -1131.4941 284.1728
v 1590.0600 -1126.0629 284.2051
v 1590.5812 -1125.9903 284.1640
f 217 218 219
v 1595.1112 -1160.6951 284.1566
v 1595.1144 -1160.6971 296.5002
v 1595.0169 -1160.7909 284.1566
f 220 221 222
v 1595.2893 -1160.2656 284.1566
v 1595.2925 -1160.2676 296.5002
v 1595.2490 -1160.4644 296.5002
f 223 224 225
v 1595.2907 -1160.1306 284.1566
v 1595.2939 -1160.1325 296.5002
v 1595.2893 -1160.2656 284.1566
f 226 227 228
v 1544.5695 -1085.3122 296.0381
v 1583.6537 -1079.9299 296.0293
v 1544.5666 -1085.3104 284.4245
f 229 230 231
v 1544.5666 -1085.3104 284.4245
v 1583.6537 -1079.9299 296.0293
v 1583.6507 -1079.9282 284.4158
f 232 233 234
v 1584.2218 -1079.8497 284.2147
v 1583.6506 -1079.9282 284.2148
v 1583.6507 -1079.9282 284.4158
f 235 236 237
v 1583.6538 -1079.9300 296.5173
v 1584.2250 -1079.8515 296.5172
v 1583.6537 -1079.9299 296.0293
f 238 239 240
v 1584.2250 -1079.8515 296.5172
v 1584.2218 -1079.8497 284.2147
v 1583.6507 -1079.9282 284.4158
f 241 242 243
v 1584.2250 -1079.8515 296.5172
v 1583.6507 -1079.9282 284.4158
v 1583.6537 -1079.9299 296.0293
f 244 245 246
v 1595.1885 -1160.5844 284.1566
v 1595.1917 -1160.5863 296.5002
v 1595.1144 -1160.6971 296.5002
f 247 248 249
v 1595.2458 -1160.4625 284.1566
v 1595.2490 -1160.4644 296.5002
v 1595.1885 -1160.5844 284.1566
f 250 251 252
v 1590.6246 -1126.2873 296.5075
v 1590.5812 -1125.9903 284.2050
v 1584.2250 -1079.8515 296.5172
f 253 254 255
v 1590.5812 -1125.9903 284.2050
v 1584.2218 -1079.8497 284.2147
v 1584.2250 -1079.8515 296.5172
f 256 257 258
v 1595.2939 -1160.1325 296.5002
v 1595.2907 -1160.1306 284.1566
v 1590.5812 -1125.9903 284.2050
f 259 260 261
v 1595.2907 -1160.1306 284.1566
v 1590.5812 -1125.9903 284.1640
v 1590.5812 -1125.9903 284.2050
f 262 263 264
v 1590.6246 -1126.2873 296.5075
v 1595.2939 -1160.1325 296.5002
v 1590.5812 -1125.9903 284.2050
f 265 266 267
v 1550.9419 -1131.4942 284.4148
v 1555.6395 -1165.5274 284.1655
v 1552.4351 -1142.2993 292.8542
f 268 269 270
v 1555.6418 -1165.5287 292.8492
v 1552.4351 -1142.2993 292.8542
v 1555.6395 -1165.5274 284.1655
f 271 272 273
v 1552.4351 -1142.2993 292.8542
v 1552.4358 -1142.2998 296.0261
v 1544.5695 -1085.3122 296.0381
f 274 275 276
v 1544.5666 -1085.3104 284.4245
v 1550.9419 -1131.4942 284.4148
v 1544.5695 -1085.3122 296.0381
f 277 278 279
v 1552.4351 -1142.2993 292.8542
v 1544.5695 -1085.3122 296.0381
v 1550.9419 -1131.4942 284.4148
f 280 281 282
v 1555.6395 -1165.5274 284.1655
v 1550.9419 -1131.4942 284.4148
v 1550.9418 -1131.4941 284.1728
f 283 284 285
v 1590.0600 -1126.0629 284.2051
v 1583.6507 -1079.9282 284.4158
v 1583.6506 -1079.9282 284.2148
f 286 287 288
v 1567.9055 -1140.1522 296.0227
v 1552.4358 -1142.2998 296.0261
v 1552.4351 -1142.2993 292.8542
f 289 290 291
v 1567.0227 -1133.8005 292.8522
v 1567.9055 -1140.1522 296.0227
v 1567.9047 -1140.1518 292.8508
f 292 293 294
v 1590.6803 -1130.5159 292.8469
v 1567.0235 -1133.8010 296.0241
v 1567.0227 -1133.8005 292.8522
f 295 296 297
v 1594.6554 -1160.9629 284.1566
v 1556.5379 -1166.2272 292.8488
v 1556.5357 -1166.2258 284.1652
f 298 299 300
v 1594.7856 -1160.9263 284.1566
v 1594.6577 -1160.9643 292.8403
v 1594.6554 -1160.9629 284.1566
f 301 302 303
v 1555.6692 -1165.6644 284.1655
v 1555.6418 -1165.5287 292.8492
v 1555.6395 -1165.5274 284.1655
f 304 305 306
v 1555.7219 -1165.7936 284.1655
v 1555.6714 -1165.6658 292.8491
v 1555.6692 -1165.6644 284.1655
f 307 308 309
v 1555.7965 -1165.9118 284.1654
v 1555.7240 -1165.7950 292.8491
v 1555.7219 -1165.7936 284.1655
f 310 311 312
v 1555.8902 -1166.0161 284.1654
v 1555.7988 -1165.9132 292.8490
v 1555.7965 -1165.9118 284.1654
f 313 314 315
v 1556.0609 -1166.1374 284.1653
v 1555.8925 -1166.0174 292.8490
v 1555.8902 -1166.0161 284.1654
f 316 317 318
v 1556.1898 -1166.1919 284.1653
v 1556.0631 -1166.1389 292.8489
v 1556.0609 -1166.1374 284.1653
f 319 320 321
v 1556.3957 -1166.2304 284.1652
v 1556.1920 -1166.1932 292.8489
v 1556.1898 -1166.1919 284.1653
f 322 323 324
v 1556.5357 -1166.2258 284.1652
v 1556.3979 -1166.2318 292.8488
v 1556.3957 -1166.2304 284.1652
f 325 326 327
v 1594.8980 -1160.8749 292.8403
v 1590.6812 -1130.5164 296.0187
v 1590.6803 -1130.5159 292.8469
f 328 329 330
v 1595.0201 -1160.7928 296.5002
v 1594.8989 -1160.8755 296.5002
v 1594.8980 -1160.8749 292.8403
f 331 332 333
v 1595.1144 -1160.6971 296.5002
v 1595.0201 -1160.7928 296.5002
v 1595.0169 -1160.7909 284.1566
f 334 335 336
v 1595.2893 -1160.2656 284.1566
v 1595.2490 -1160.4644 296.5002
v 1595.2458 -1160.4625 284.1566
f 337 338 339
v 1595.2939 -1160.1325 296.5002
v 1595.2925 -1160.2676 296.5002
v 1595.2893 -1160.2656 284.1566
f 340 341 342
v 1595.1885 -1160.5844 284.1566
v 1595.1144 -1160.6971 296.5002
v 1595.1112 -1160.6951 284.1566
f 343 344 345
v 1595.2490 -1160.4644 296.5002
v 1595.1917 -1160.5863 296.5002
v 1595.1885 -1160.5844 284.1566
f 346 347 348

g building_ID_983D814C-A86D-4205-B529-8F9C75BAE260
v 1741.0526 -1067.4749 284.3728
v 1741.0548 -1067.4760 292.1805
v 1749.3657 -1128.7298 292.1675
f 349 350 351
v 1677.9485 -1076.3829 292.1960
v 1686.2220 -1137.3646 292.1831
v 1691.2756 -1136.6806 295.1827
f 352 353 354
v 1691.2756 -1136.6806 295.1827
v 1683.0011 -1075.6979 295.1955
v 1677.9485 -1076.3829 292.1960
f 355 356 357
v 1693.5046 -1136.3771 292.1813
v 1685.2310 -1075.3945 292.1942
v 1683.0011 -1075.6979 295.1955
f 358 359 360
v 1683.0011 -1075.6979 295.1955
v 1691.2756 -1136.6806 295.1827
v 1693.5046 -1136.3771 292.1813
f 361 362 363
v 1730.9299 -1131.2748 295.1730
v 1722.6592 -1070.3151 295.1859
v 1717.6646 -1070.9923 292.1862
f 364 365 366
v 1725.9372 -1131.9660 292.1733
v 1730.9299 -1131.2748 295.1730
v 1725.9362 -1131.9610 292.1733
f 367 368 369
v 1717.6646 -1070.9923 292.1862
v 1725.9362 -1131.9610 292.1733
v 1730.9299 -1131.2748 295.1730
f 370 371 372
v 1732.9378 -1130.9957 292.1716
v 1724.6670 -1070.0420 292.1845
v 1722.6592 -1070.3151 295.1859
f 373 374 375
v 1722.6592 -1070.3151 295.1859
v 1730.9299 -1131.2748 295.1730
v 1732.9378 -1130.9957 292.1716
f 376 377 378
v 1740.9437 -1129.8912 292.1696
v 1741.8189 -1129.7706 292.1694
v 1733.5512 -1068.8349 292.1823
f 379 380 381
v 1733.5512 -1068.8349 292.1823
v 1732.6749 -1068.9535 292.1825
v 1740.9437 -1129.8912 292.1696
f 382 383 384
v 1725.9350 -1131.9648 284.3656
v 1725.9372 -1131.9660 292.1733
v 1725.9362 -1131.9610 292.1733
f 385 386 387
v 1718.9688 -1132.9225 292.6751
v 1714.8324 -1071.3742 295.1878
v 1709.8678 -1072.0504 292.1881
f 388 389 390
v 1723.1070 -1132.3559 295.1749
v 1714.8324 -1071.3742 295.1878
v 1718.9688 -1132.9225 292.6751
f 391 392 393
v 1718.1414 -1133.0341 292.1753
v 1718.9688 -1132.9225 292.6751
v 1709.8678 -1072.0504 292.1881
f 394 395 396
v 1693.5046 -1136.3771 292.1813
v 1694.3279 -1136.2654 292.1811
v 1686.0543 -1075.2836 292.1940
f 397 398 399
v 1686.0543 -1075.2836 292.1940
v 1685.2310 -1075.3945 292.1942
v 1693.5046 -1136.3771 292.1813
f 400 401 402
v 1670.7666 -1139.4622 292.3258
v 1667.2705 -1077.8077 295.1994
v 1662.4890 -1078.4555 292.3377
f 403 404 405
v 1667.2705 -1077.8077 295.1994
v 1670.7666 -1139.4622 292.3258
v 1675.5481 -1138.8145 295.1865
f 406 407 408
v 1677.4519 -1138.5551 292.1852
v 1669.1754 -1077.5484 292.1981
v 1667.2705 -1077.8077 295.1994
f 409 410 411
v 1667.2705 -1077.8077 295.1994
v 1675.5481 -1138.8145 295.1865
v 1677.4519 -1138.5551 292.1852
f 412 413 414
v 1677.2632 -1076.4770 292.1961
v 1686.2220 -1137.3646 292.1831
v 1677.9485 -1076.3829 292.1960
f 415 416 417
v 1685.3517 -1137.4832 292.1833
v 1686.2220 -1137.3646 292.1831
v 1677.2632 -1076.4770 292.1961
f 418 419 420
v 1685.3517 -1137.4832 292.1833
v 1677.1711 -1076.4959 292.1961
v 1677.0781 -1076.5026 292.1962
f 421 422 423
v 1677.2632 -1076.4770 292.1961
v 1677.1711 -1076.4959 292.1961
v 1685.3517 -1137.4832 292.1833
f 424 425 426
v 1640.6426 -1061.0565 295.0621
v 1646.0046 -1134.7396 296.8298
v 1650.5558 -1134.1175 295.0469
f 427 428 429
v 1646.0046 -1134.7396 296.8298
v 1640.6426 -1061.0565 295.0621
v 1636.0924 -1061.6906 296.8452
f 430 431 432
v 1634.7948 -1098.6035 294.4153
v 1636.0924 -1061.6906 296.8452
v 1629.9034 -1062.5516 294.4227
f 433 434 435
v 1646.0046 -1134.7396 296.8298
v 1634.7948 -1098.6035 294.4153
v 1639.8118 -1135.5856 294.4064
f 436 437 438
v 1636.0924 -1061.6906 296.8452
v 1634.7948 -1098.6035 294.4153
v 1646.0046 -1134.7396 296.8298
f 439 440 441
v 1639.8090 -1135.5841 284.2908
v 1639.8118 -1135.5856 294.4064
v 1634.7948 -1098.6035 294.4153
f 442 443 444
v 1639.8090 -1135.5841 284.2908
v 1634.7948 -1098.6035 294.4153
v 1637.9518 -1121.8902 284.2937
f 445 446 447
v 1637.9518 -1121.8902 284.2937
v 1634.7948 -1098.6035 294.4153
v 1635.0098 -1100.2085 284.2983
f 448 449 450
v 1635.0098 -1100.2085 284.2983
v 1634.7948 -1098.6035 294.4153
v 1629.9008 -1062.5503 284.3060
f 451 452 453
v 1652.6387 -1137.2212 295.7678
v 1652.5859 -1137.8730 295.7127
v 1660.6717 -1136.7692 298.9126
f 454 455 456
v 1652.1846 -1133.8950 295.7675
v 1652.6387 -1137.2212 295.7678
v 1660.6717 -1136.7692 298.9126
f 457 458 459
v 1652.4996 -1137.2398 295.7128
v 1652.5859 -1137.8730 295.7127
v 1652.6387 -1137.2212 295.7678
f 460 461 462
v 1650.2181 -1059.7238 298.9288
v 1652.1846 -1133.8950 295.7675
v 1660.6717 -1136.7692 298.9126
f 463 464 465
v 1640.6426 -1061.0565 295.1381
v 1650.5558 -1134.1175 295.1229
v 1652.1846 -1133.8950 295.7675
f 466 467 468
v 1650.2181 -1059.7238 298.9288
v 1640.6426 -1061.0565 295.1381
v 1652.1846 -1133.8950 295.7675
f 469 470 471
v 1670.7821 -1139.5687 295.4957
v 1668.2556 -1135.7331 296.2009
v 1668.8137 -1139.8406 296.2000
f 472 473 474
v 1668.2556 -1135.7331 296.2009
v 1670.7821 -1139.5687 295.4957
v 1662.4899 -1078.4559 295.5086
f 475 476 477
v 1668.2556 -1135.7331 296.2009
v 1661.4017 -1078.6041 295.8977
v 1660.6717 -1136.7692 298.9126
f 478 479 480
v 1661.4017 -1078.6041 295.8977
v 1668.2556 -1135.7331 296.2009
v 1662.4899 -1078.4559 295.5086
f 481 482 483
v 1658.6461 -1058.2869 295.9019
v 1658.4610 -1058.3124 295.9680
v 1658.4973 -1058.5705 295.9669
f 484 485 486
v 1661.4017 -1078.6041 295.8977
v 1658.6461 -1058.2869 295.9019
v 1658.4973 -1058.5705 295.9669
f 487 488 489
v 1661.4017 -1078.6041 295.8977
v 1658.4973 -1058.5705 295.9669
v 1650.2181 -1059.7238 298.9288
f 490 491 492
v 1660.6717 -1136.7692 298.9126
v 1661.4017 -1078.6041 295.8977
v 1650.2181 -1059.7238 298.9288
f 493 494 495
v 1652.6356 -1137.2194 284.2872
v 1652.6387 -1137.2212 295.7678
v 1652.1846 -1133.8950 295.7675
f 496 497 498
v 1652.6356 -1137.2194 284.2872
v 1652.1838 -1133.8946 292.8376
v 1652.1815 -1133.8933 284.2879
f 499 500 501
v 1652.6356 -1137.2194 284.2872
v 1652.4965 -1137.2380 284.2872
v 1652.4996 -1137.2398 295.7128
f 502 503 504
v 1652.5828 -1137.8713 284.2871
v 1652.5844 -1137.8722 289.9999
v 1652.4996 -1137.2398 295.7128
f 505 506 507
v 1652.5828 -1137.8713 284.2871
v 1652.4996 -1137.2398 295.7128
v 1652.4965 -1137.2380 284.2872
f 508 509 510
v 1658.4578 -1058.3107 284.2994
v 1658.4941 -1058.5689 284.2993
v 1658.4966 -1058.5701 293.0500
f 511 512 513
v 1658.4966 -1058.5701 293.0500
v 1658.4973 -1058.5705 295.9669
v 1658.4578 -1058.3107 284.2994
f 514 515 516
v 1668.2524 -1135.7313 284.2834
v 1668.8104 -1139.8387 284.2825
v 1668.8137 -1139.8406 296.2000
f 517 518 519
v 1668.8137 -1139.8406 296.2000
v 1668.2548 -1135.7327 293.2210
v 1668.2524 -1135.7313 284.2834
f 520 521 522
v 1668.8104 -1139.8387 284.2825
v 1670.7791 -1139.5671 284.2821
v 1668.8137 -1139.8406 296.2000
f 523 524 525
v 1662.4869 -1078.4544 284.3920
v 1670.7644 -1139.4610 284.3791
v 1662.4869 -1078.4544 284.2950
f 526 527 528
v 1662.4890 -1078.4555 292.3377
v 1662.4899 -1078.4559 295.5086
v 1670.7821 -1139.5687 295.4957
f 529 530 531
v 1662.4890 -1078.4555 292.3377
v 1670.7821 -1139.5687 295.4957
v 1670.7666 -1139.4622 292.3258
f 532 533 534
v 1670.7821 -1139.5687 295.4957
v 1670.7791 -1139.5671 284.2821
v 1670.7666 -1139.4622 292.3258
f 535 536 537
v 1670.7791 -1139.5671 284.2821
v 1670.7644 -1139.4610 284.3791
v 1670.7666 -1139.4622 292.3258
f 538 539 540
v 1650.5558 -1134.1175 295.0469
v 1650.5558 -1134.1175 295.1229
v 1640.6426 -1061.0565 295.0621
f 541 542 543
v 1749.3657 -1128.7298 292.1675
v 1746.9446 -1129.0621 284.3605
v 1749.3635 -1128.7286 284.3599
f 544 545 546
v 1749.3657 -1128.7298 292.1675
v 1741.8189 -1129.7706 292.1694
v 1746.9446 -1129.0621 284.3605
f 547 548 549
v 1741.8189 -1129.7706 292.1694
v 1740.9437 -1129.8912 292.1696
v 1740.9834 -1129.8841 284.3619
f 550 551 552
v 1740.9437 -1129.8912 292.1696
v 1738.7126 -1130.1971 284.3625
v 1740.9834 -1129.8841 284.3619
f 553 554 555
v 1740.9437 -1129.8912 292.1696
v 1733.8181 -1130.8742 292.1714
v 1738.7126 -1130.1971 284.3625
f 556 557 558
v 1733.8181 -1130.8742 292.1714
v 1732.9378 -1130.9957 292.1716
v 1733.8159 -1130.8729 284.3637
f 559 560 561
v 1732.9378 -1130.9957 292.1716
v 1730.9299 -1131.2748 295.1730
v 1725.9372 -1131.9660 292.1733
f 562 563 564
v 1732.9378 -1130.9957 292.1716
v 1725.9372 -1131.9660 292.1733
v 1730.9268 -1131.2732 284.3644
f 565 566 567
v 1730.9268 -1131.2732 284.3644
v 1732.9356 -1130.9946 284.3639
v 1732.9378 -1130.9957 292.1716
f 568 569 570
v 1650.5558 -1134.1175 295.1229
v 1652.1838 -1133.8946 292.8376
v 1652.1846 -1133.8950 295.7675
f 571 572 573
v 1650.5558 -1134.1175 295.0469
v 1652.1838 -1133.8946 292.8376
v 1650.5558 -1134.1175 295.1229
f 574 575 576
v 1650.5558 -1134.1175 295.0469
v 1646.0046 -1134.7396 296.8298
v 1652.1838 -1133.8946 292.8376
f 577 578 579
v 1639.8118 -1135.5856 294.4064
v 1646.0012 -1134.7377 284.2893
v 1646.0046 -1134.7396 296.8298
f 580 581 582
v 1639.8090 -1135.5841 284.2908
v 1646.0012 -1134.7377 284.2893
v 1639.8118 -1135.5856 294.4064
f 583 584 585
v 1646.0012 -1134.7377 284.2893
v 1652.1815 -1133.8933 284.2879
v 1646.0046 -1134.7396 296.8298
f 586 587 588
v 1652.1838 -1133.8946 292.8376
v 1646.0046 -1134.7396 296.8298
v 1652.1815 -1133.8933 284.2879
f 589 590 591
v 1668.2548 -1135.7327 293.2210
v 1668.2556 -1135.7331 296.2009
v 1660.6717 -1136.7692 298.9126
f 592 593 594
v 1660.6677 -1136.7669 284.2852
v 1668.2524 -1135.7313 284.2834
v 1668.2548 -1135.7327 293.2210
f 595 596 597
v 1668.2548 -1135.7327 293.2210
v 1660.6717 -1136.7692 298.9126
v 1652.5844 -1137.8722 289.9999
f 598 599 600
v 1668.2548 -1135.7327 293.2210
v 1652.5844 -1137.8722 289.9999
v 1660.6677 -1136.7669 284.2852
f 601 602 603
v 1652.5859 -1137.8730 295.7127
v 1652.5844 -1137.8722 289.9999
v 1660.6717 -1136.7692 298.9126
f 604 605 606
v 1652.5844 -1137.8722 289.9999
v 1652.5828 -1137.8713 284.2871
v 1660.6677 -1136.7669 284.2852
f 607 608 609
v 1629.9034 -1062.5516 294.4227
v 1640.6426 -1061.0565 295.0621
v 1629.9008 -1062.5503 284.3060
f 610 611 612
v 1640.6426 -1061.0565 295.0621
v 1636.0890 -1061.6888 284.3046
v 1629.9008 -1062.5503 284.3060
f 613 614 615
v 1643.3367 -1060.6802 284.3029
v 1636.0890 -1061.6888 284.3046
v 1640.6426 -1061.0565 295.0621
f 616 617 618
v 1629.9034 -1062.5516 294.4227
v 1636.0924 -1061.6906 296.8452
v 1640.6426 -1061.0565 295.0621
f 619 620 621
v 1650.2181 -1059.7238 298.9288
v 1640.6426 -1061.0565 295.0621
v 1640.6426 -1061.0565 295.1381
f 622 623 624
v 1643.3367 -1060.6802 284.3029
v 1640.6426 -1061.0565 295.0621
v 1650.2181 -1059.7238 298.9288
f 625 626 627
v 1658.4973 -1058.5705 295.9669
v 1658.4966 -1058.5701 293.0500
v 1650.2181 -1059.7238 298.9288
f 628 629 630
v 1658.4966 -1058.5701 293.0500
v 1650.2142 -1059.7217 284.3013
v 1643.3367 -1060.6802 284.3029
f 631 632 633
v 1650.2142 -1059.7217 284.3013
v 1658.4966 -1058.5701 293.0500
v 1658.4941 -1058.5689 284.2993
f 634 635 636
v 1658.4966 -1058.5701 293.0500
v 1643.3367 -1060.6802 284.3029
v 1650.2181 -1059.7238 298.9288
f 637 638 639
v 1674.5040 -1056.1285 296.9311
v 1677.2645 -1076.4777 296.9269
v 1683.1965 -1075.6721 300.1494
f 640 641 642
v 1683.1965 -1075.6721 300.1494
v 1680.4340 -1055.3218 300.1535
v 1674.5040 -1056.1285 296.9311
f 643 644 645
v 1682.4108 -1055.0527 296.9292
v 1683.1965 -1075.6721 300.1494
v 1685.1723 -1075.4040 296.9250
f 646 647 648
v 1683.1965 -1075.6721 300.1494
v 1682.4108 -1055.0527 296.9292
v 1680.4340 -1055.3218 300.1535
f 649 650 651
v 1682.4108 -1055.0527 296.9292
v 1685.1723 -1075.4040 296.9250
v 1691.1204 -1074.5963 300.1475
f 652 653 654
v 1691.1204 -1074.5963 300.1475
v 1688.3588 -1054.2430 300.1516
v 1682.4108 -1055.0527 296.9292
f 655 656 657
v 1688.3588 -1054.2430 300.1516
v 1691.1204 -1074.5963 300.1475
v 1693.2822 -1074.3026 296.9231
f 658 659 660
v 1693.2822 -1074.3026 296.9231
v 1690.5207 -1053.9485 296.9272
v 1688.3588 -1054.2430 300.1516
f 661 662 663
v 1690.5207 -1053.9485 296.9272
v 1693.2822 -1074.3026 296.9231
v 1699.0272 -1073.5236 300.1455
f 664 665 666
v 1699.0272 -1073.5236 300.1455
v 1696.2637 -1053.1673 300.1497
v 1690.5207 -1053.9485 296.9272
f 667 668 669
v 1699.0272 -1073.5236 300.1455
v 1698.3485 -1052.8834 296.9253
v 1696.2637 -1053.1673 300.1497
f 670 671 672
v 1698.3485 -1052.8834 296.9253
v 1699.0272 -1073.5236 300.1455
v 1701.1120 -1073.2377 296.9212
f 673 674 675
v 1709.0678 -1072.1559 296.9192
v 1706.3064 -1051.7998 296.9234
v 1704.1595 -1052.0925 300.1478
f 676 677 678
v 1704.1595 -1052.0925 300.1478
v 1701.1120 -1073.2377 296.9212
v 1706.9210 -1072.4486 300.1436
f 679 680 681
v 1701.1120 -1073.2377 296.9212
v 1704.1595 -1052.0925 300.1478
v 1698.3485 -1052.8834 296.9253
f 682 683 684
v 1658.6464 -1058.2871 296.8818
v 1661.4019 -1078.6042 296.8777
v 1667.5470 -1077.7712 300.2662
f 685 686 687
v 1667.5470 -1077.7712 300.2662
v 1664.7904 -1057.4510 300.2703
v 1658.6464 -1058.2871 296.8818
f 688 689 690
v 1669.3448 -1077.5266 296.9288
v 1666.5882 -1057.2063 296.9329
v 1664.7904 -1057.4510 300.2703
f 691 692 693
v 1664.7904 -1057.4510 300.2703
v 1667.5470 -1077.7712 300.2662
v 1669.3448 -1077.5266 296.9288
f 694 695 696
v 1672.4262 -1056.4124 300.1555
v 1669.3448 -1077.5266 296.9288
v 1675.1867 -1076.7596 300.1513
f 697 698 699
v 1669.3448 -1077.5266 296.9288
v 1672.4262 -1056.4124 300.1555
v 1666.5882 -1057.2063 296.9329
f 700 701 702
v 1674.5040 -1056.1285 296.9311
v 1675.1867 -1076.7596 300.1513
v 1677.2645 -1076.4777 296.9269
f 703 704 705
v 1675.1867 -1076.7596 300.1513
v 1674.5040 -1056.1285 296.9311
v 1672.4262 -1056.4124 300.1555
f 706 707 708
v 1706.3064 -1051.7998 296.9234
v 1709.0678 -1072.1559 296.9192
v 1714.8058 -1071.3788 300.1416
f 709 710 711
v 1714.8058 -1071.3788 300.1416
v 1712.0434 -1051.0195 300.1459
v 1706.3064 -1051.7998 296.9234
f 712 713 714
v 1716.9907 -1071.0812 296.9172
v 1714.2282 -1050.7220 296.9214
v 1712.0434 -1051.0195 300.1459
f 715 716 717
v 1712.0434 -1051.0195 300.1459
v 1714.8058 -1071.3788 300.1416
v 1716.9907 -1071.0812 296.9172
f 718 719 720
v 1714.2282 -1050.7220 296.9214
v 1716.9907 -1071.0812 296.9172
v 1722.7726 -1070.2981 300.1397
f 721 722 723
v 1722.7726 -1070.2981 300.1397
v 1720.0102 -1049.9349 300.1439
v 1714.2282 -1050.7220 296.9214
f 724 725 726
v 1722.1230 -1049.6471 296.9195
v 1722.7726 -1070.2981 300.1397
v 1724.8854 -1070.0113 296.9152
f 727 728 729
v 1722.7726 -1070.2981 300.1397
v 1722.1230 -1049.6471 296.9195
v 1720.0102 -1049.9349 300.1439
f 730 731 732
v 1722.1230 -1049.6471 296.9195
v 1724.8854 -1070.0113 296.9152
v 1730.6505 -1069.2293 300.1377
f 733 734 735
v 1730.6505 -1069.2293 300.1377
v 1727.8870 -1048.8630 300.1418
v 1722.1230 -1049.6471 296.9195
f 736 737 738
v 1730.1449 -1048.5556 296.9175
v 1730.6505 -1069.2293 300.1377
v 1732.9083 -1068.9229 296.9133
f 739 740 741
v 1730.6505 -1069.2293 300.1377
v 1730.1449 -1048.5556 296.9175
v 1727.8870 -1048.8630 300.1418
f 742 743 744
v 1730.1449 -1048.5556 296.9175
v 1732.9083 -1068.9229 296.9133
v 1738.6673 -1068.1407 300.1357
f 745 746 747
v 1738.6673 -1068.1407 300.1357
v 1735.9039 -1047.7724 300.1399
v 1730.1449 -1048.5556 296.9175
f 748 749 750
v 1735.9039 -1047.7724 300.1399
v 1738.6673 -1068.1407 300.1357
v 1741.0412 -1067.8186 296.9112
f 751 752 753
v 1741.0412 -1067.8186 296.9112
v 1738.2778 -1047.4484 296.9155
v 1735.9039 -1047.7724 300.1399
f 754 755 756
v 1738.2742 -1047.4466 284.2799
v 1738.2778 -1047.4484 296.9155
v 1740.9948 -1067.4838 292.2555
f 757 758 759
v 1741.0376 -1067.8168 284.2757
v 1738.2742 -1047.4466 284.2799
v 1740.9926 -1067.4827 284.3728
f 760 761 762
v 1740.9948 -1067.4838 292.2555
v 1740.9926 -1067.4827 284.3728
v 1738.2742 -1047.4466 284.2799
f 763 764 765
v 1740.9948 -1067.4838 292.2555
v 1741.0412 -1067.8186 296.9112
v 1741.0399 -1067.8179 292.2554
f 766 767 768
v 1740.9926 -1067.4827 284.3728
v 1741.0376 -1067.8168 284.3727
v 1741.0376 -1067.8168 284.2757
f 769 770 771
v 1738.2778 -1047.4484 296.9155
v 1741.0412 -1067.8186 296.9112
v 1740.9948 -1067.4838 292.2555
f 772 773 774
v 1738.6819 -1068.1381 295.1819
v 1741.8189 -1129.7706 292.1694
v 1746.9476 -1129.0638 295.1691
f 775 776 777
v 1733.5512 -1068.8349 292.1823
v 1741.8189 -1129.7706 292.1694
v 1738.6819 -1068.1381 295.1819
f 778 779 780
v 1740.9948 -1067.4838 292.2555
v 1741.0399 -1067.8179 292.2554
v 1741.0548 -1067.4760 292.1805
f 781 782 783
v 1749.3657 -1128.7298 292.1675
v 1741.0399 -1067.8179 292.2554
v 1746.9476 -1129.0638 295.1691
f 784 785 786
v 1738.6819 -1068.1381 295.1819
v 1746.9476 -1129.0638 295.1691
v 1741.0399 -1067.8179 292.2554
f 787 788 789
v 1741.0548 -1067.4760 292.1805
v 1741.0399 -1067.8179 292.2554
v 1749.3657 -1128.7298 292.1675
f 790 791 792
v 1738.7156 -1130.1987 295.1711
v 1730.4470 -1069.2560 295.1840
v 1725.5484 -1069.9205 292.1843
f 793 794 795
v 1725.5484 -1069.9205 292.1843
v 1733.8181 -1130.8742 292.1714
v 1738.7156 -1130.1987 295.1711
f 796 797 798
v 1738.7156 -1130.1987 295.1711
v 1730.6490 -1069.2285 294.9109
v 1730.4470 -1069.2560 295.1840
f 799 800 801
v 1732.6749 -1068.9535 292.1825
v 1730.6490 -1069.2285 294.9109
v 1740.9437 -1129.8912 292.1696
f 802 803 804
v 1738.7156 -1130.1987 295.1711
v 1740.9437 -1129.8912 292.1696
v 1730.6490 -1069.2285 294.9109
f 805 806 807
v 1723.1070 -1132.3559 295.1749
v 1716.6742 -1071.1237 292.1865
v 1714.8324 -1071.3742 295.1878
f 808 809 810
v 1716.6742 -1071.1237 292.1865
v 1723.1070 -1132.3559 295.1749
v 1724.9468 -1132.0974 292.1736
f 811 812 813
v 1714.8831 -1133.4768 295.1770
v 1706.6085 -1072.4902 295.1898
v 1701.7759 -1073.1467 292.1901
f 814 815 816
v 1701.7759 -1073.1467 292.1901
v 1710.0516 -1134.1315 292.1772
v 1714.8831 -1133.4768 295.1770
f 817 818 819
v 1706.9195 -1072.4479 294.7938
v 1714.8831 -1133.4768 295.1770
v 1717.2400 -1133.1567 292.1755
f 820 821 822
v 1714.8831 -1133.4768 295.1770
v 1706.9195 -1072.4479 294.7938
v 1706.6085 -1072.4902 295.1898
f 823 824 825
v 1717.2400 -1133.1567 292.1755
v 1708.9655 -1072.1690 292.1884
v 1706.9195 -1072.4479 294.7938
f 826 827 828
v 1686.0543 -1075.2836 292.1940
v 1694.3279 -1136.2654 292.1811
v 1699.3606 -1135.5833 295.1807
f 829 830 831
v 1699.3606 -1135.5833 295.1807
v 1691.0870 -1074.5995 295.1936
v 1686.0543 -1075.2836 292.1940
f 832 833 834
v 1693.0378 -1074.3354 292.1922
v 1691.0870 -1074.5995 295.1936
v 1701.3114 -1135.3180 292.1794
f 835 836 837
v 1699.3606 -1135.5833 295.1807
v 1701.3114 -1135.3180 292.1794
v 1691.0870 -1074.5995 295.1936
f 838 839 840
v 1693.9601 -1074.2098 292.1920
v 1702.2338 -1135.1925 292.1791
v 1707.2654 -1134.5104 295.1788
f 841 842 843
v 1698.9917 -1073.5277 295.1917
v 1707.2654 -1134.5104 295.1788
v 1709.1442 -1134.2550 292.1775
f 844 845 846
v 1709.1442 -1134.2550 292.1775
v 1700.8696 -1073.2703 292.1903
v 1698.9917 -1073.5277 295.1917
f 847 848 849
v 1675.0452 -1076.7776 295.1976
v 1678.4933 -1138.4139 292.1849
v 1683.3188 -1137.7593 295.1847
f 850 851 852
v 1678.4933 -1138.4139 292.1849
v 1675.0452 -1076.7776 295.1976
v 1670.2167 -1077.4112 292.1978
f 853 854 855
v 1675.1852 -1076.7590 294.9905
v 1683.3188 -1137.7593 295.1847
v 1685.3517 -1137.4832 292.1833
f 856 857 858
v 1683.3188 -1137.7593 295.1847
v 1675.1852 -1076.7590 294.9905
v 1675.0452 -1076.7776 295.1976
f 859 860 861
v 1685.3517 -1137.4832 292.1833
v 1677.0781 -1076.5026 292.1962
v 1675.1852 -1076.7590 294.9905
f 862 863 864
v 1741.8189 -1129.7706 292.1694
v 1749.3657 -1128.7298 292.1675
v 1746.9476 -1129.0638 295.1691
f 865 866 867
v 1733.8181 -1130.8742 292.1714
v 1740.9437 -1129.8912 292.1696
v 1738.7156 -1130.1987 295.1711
f 868 869 870
v 1723.1070 -1132.3559 295.1749
v 1723.1052 -1132.3514 292.1740
v 1724.9468 -1132.0974 292.1736
f 871 872 873
v 1710.0516 -1134.1315 292.1772
v 1717.2400 -1133.1567 292.1755
v 1714.8831 -1133.4768 295.1770
f 874 875 876
v 1694.3279 -1136.2654 292.1811
v 1701.3114 -1135.3180 292.1794
v 1699.3606 -1135.5833 295.1807
f 877 878 879
v 1702.2338 -1135.1925 292.1791
v 1709.1442 -1134.2550 292.1775
v 1707.2654 -1134.5104 295.1788
f 880 881 882
v 1678.4933 -1138.4139 292.1849
v 1685.3517 -1137.4832 292.1833
v 1683.3188 -1137.7593 295.1847
f 883 884 885
v 1666.5882 -1057.2063 296.9329
v 1658.6445 -1058.2861 290.1001
v 1658.6450 -1058.2864 292.0340
f 886 887 888
v 1659.3602 -1058.1882 284.2992
v 1658.6439 -1058.2857 288.1672
v 1664.7861 -1057.4487 284.2979
f 889 890 891
v 1658.6445 -1058.2861 290.1001
v 1666.5882 -1057.2063 296.9329
v 1658.6439 -1058.2857 288.1672
f 892 893 894
v 1666.5882 -1057.2063 296.9329
v 1658.6450 -1058.2864 292.0340
v 1658.6461 -1058.2869 295.9019
f 895 896 897
v 1666.5882 -1057.2063 296.9329
v 1658.6461 -1058.2869 295.9019
v 1664.7904 -1057.4510 300.2703
f 898 899 900
v 1666.5882 -1057.2063 296.9329
v 1672.4262 -1056.4124 300.1555
v 1674.5040 -1056.1285 296.9311
f 901 902 903
v 1666.5882 -1057.2063 296.9329
v 1674.5040 -1056.1285 296.9311
v 1664.7861 -1057.4487 284.2979
f 904 905 906
v 1658.6439 -1058.2857 288.1672
v 1666.5882 -1057.2063 296.9329
v 1664.7861 -1057.4487 284.2979
f 907 908 909
v 1664.7904 -1057.4510 300.2703
v 1658.6461 -1058.2869 295.9019
v 1658.6464 -1058.2871 296.8818
f 910 911 912
v 1680.4340 -1055.3218 300.1535
v 1682.4108 -1055.0527 296.9292
v 1674.5040 -1056.1285 296.9311
f 913 914 915
v 1674.5040 -1056.1285 296.9311
v 1666.5848 -1057.2045 284.2974
v 1664.7861 -1057.4487 284.2979
f 916 917 918
v 1674.5040 -1056.1285 296.9311
v 1672.4219 -1056.4101 284.2961
v 1666.5848 -1057.2045 284.2974
f 919 920 921
v 1682.4108 -1055.0527 296.9292
v 1674.5006 -1056.1267 284.2956
v 1672.4219 -1056.4101 284.2961
f 922 923 924
v 1690.5207 -1053.9485 296.9272
v 1682.4074 -1055.0509 284.2937
v 1680.4297 -1055.3197 284.2941
f 925 926 927
v 1674.5006 -1056.1267 284.2956
v 1682.4108 -1055.0527 296.9292
v 1680.4297 -1055.3197 284.2941
f 928 929 930
v 1690.5207 -1053.9485 296.9272
v 1688.3545 -1054.2409 284.2922
v 1682.4074 -1055.0509 284.2937
f 931 932 933
v 1688.3545 -1054.2409 284.2922
v 1698.3485 -1052.8834 296.9253
v 1695.7281 -1053.2376 284.2904
f 934 935 936
v 1682.4108 -1055.0527 296.9292
v 1690.5207 -1053.9485 296.9272
v 1680.4297 -1055.3197 284.2941
f 937 938 939
v 1672.4219 -1056.4101 284.2961
v 1674.5040 -1056.1285 296.9311
v 1682.4108 -1055.0527 296.9292
f 940 941 942
v 1698.3485 -1052.8834 296.9253
v 1690.5207 -1053.9485 296.9272
v 1696.2637 -1053.1673 300.1497
f 943 944 945
v 1690.5207 -1053.9485 296.9272
v 1698.3485 -1052.8834 296.9253
v 1688.3545 -1054.2409 284.2922
f 946 947 948
v 1706.3064 -1051.7998 296.9234
v 1698.3450 -1052.8816 284.2898
v 1695.7281 -1053.2376 284.2904
f 949 950 951
v 1706.3064 -1051.7998 296.9234
v 1695.7281 -1053.2376 284.2904
v 1698.3485 -1052.8834 296.9253
f 952 953 954
v 1704.1595 -1052.0925 300.1478
v 1706.3064 -1051.7998 296.9234
v 1698.3485 -1052.8834 296.9253
f 955 956 957
v 1688.3588 -1054.2430 300.1516
v 1690.5207 -1053.9485 296.9272
v 1682.4108 -1055.0527 296.9292
f 958 959 960
v 1712.0434 -1051.0195 300.1459
v 1714.2282 -1050.7220 296.9214
v 1706.3064 -1051.7998 296.9234
f 961 962 963
v 1714.2282 -1050.7220 296.9214
v 1720.0102 -1049.9349 300.1439
v 1722.1230 -1049.6471 296.9195
f 964 965 966
v 1730.1449 -1048.5556 296.9175
v 1722.1230 -1049.6471 296.9195
v 1727.8870 -1048.8630 300.1418
f 967 968 969
v 1714.2282 -1050.7220 296.9214
v 1704.1551 -1052.0902 284.2884
v 1706.3064 -1051.7998 296.9234
f 970 971 972
v 1704.1551 -1052.0902 284.2884
v 1698.3450 -1052.8816 284.2898
v 1706.3064 -1051.7998 296.9234
f 973 974 975
v 1722.1230 -1049.6471 296.9195
v 1712.0389 -1051.0173 284.2864
v 1714.2282 -1050.7220 296.9214
f 976 977 978
v 1714.2282 -1050.7220 296.9214
v 1712.0389 -1051.0173 284.2864
v 1706.3029 -1051.7979 284.2879
f 979 980 981
v 1714.2247 -1050.7202 284.2858
v 1712.0389 -1051.0173 284.2864
v 1722.1230 -1049.6471 296.9195
f 982 983 984
v 1722.1230 -1049.6471 296.9195
v 1720.0057 -1049.9326 284.2844
v 1714.2247 -1050.7202 284.2858
f 985 986 987
v 1730.1449 -1048.5556 296.9175
v 1722.1195 -1049.6453 284.2839
v 1720.0057 -1049.9326 284.2844
f 988 989 990
v 1714.2282 -1050.7220 296.9214
v 1706.3029 -1051.7979 284.2879
v 1704.1551 -1052.0902 284.2884
f 991 992 993
v 1738.2778 -1047.4484 296.9155
v 1730.1449 -1048.5556 296.9175
v 1735.9039 -1047.7724 300.1399
f 994 995 996
v 1730.1449 -1048.5556 296.9175
v 1720.0057 -1049.9326 284.2844
v 1722.1230 -1049.6471 296.9195
f 997 998 999
v 1727.8825 -1048.8607 284.2824
v 1730.1449 -1048.5556 296.9175
v 1738.2778 -1047.4484 296.9155
f 1000 1001 1002
v 1738.2778 -1047.4484 296.9155
v 1730.1413 -1048.5538 284.2819
v 1727.8825 -1048.8607 284.2824
f 1003 1004 1005
v 1738.2778 -1047.4484 296.9155
v 1735.8994 -1047.7703 284.2805
v 1730.1413 -1048.5538 284.2819
f 1006 1007 1008
v 1735.8994 -1047.7703 284.2805
v 1738.2778 -1047.4484 296.9155
v 1738.2742 -1047.4466 284.2799
f 1009 1010 1011
v 1722.1195 -1049.6453 284.2839
v 1730.1449 -1048.5556 296.9175
v 1727.8825 -1048.8607 284.2824
f 1012 1013 1014
v 1724.9468 -1132.0974 292.1736
v 1725.9362 -1131.9610 292.1733
v 1717.6646 -1070.9923 292.1862
f 1015 1016 1017
v 1717.6646 -1070.9923 292.1862
v 1716.6742 -1071.1237 292.1865
v 1724.9468 -1132.0974 292.1736
f 1018 1019 1020
v 1732.9378 -1130.9957 292.1716
v 1733.8181 -1130.8742 292.1714
v 1725.5484 -1069.9205 292.1843
f 1021 1022 1023
v 1725.5484 -1069.9205 292.1843
v 1724.6670 -1070.0420 292.1845
v 1732.9378 -1130.9957 292.1716
f 1024 1025 1026
v 1717.2400 -1133.1567 292.1755
v 1718.1414 -1133.0341 292.1753
v 1709.8678 -1072.0504 292.1881
f 1027 1028 1029
v 1709.8678 -1072.0504 292.1881
v 1708.9655 -1072.1690 292.1884
v 1717.2400 -1133.1567 292.1755
f 1030 1031 1032
v 1701.3114 -1135.3180 292.1794
v 1702.2338 -1135.1925 292.1791
v 1693.9601 -1074.2098 292.1920
f 1033 1034 1035
v 1693.9601 -1074.2098 292.1920
v 1693.0378 -1074.3354 292.1922
v 1701.3114 -1135.3180 292.1794
f 1036 1037 1038
v 1709.1442 -1134.2550 292.1775
v 1710.0516 -1134.1315 292.1772
v 1701.7759 -1073.1467 292.1901
f 1039 1040 1041
v 1701.7759 -1073.1467 292.1901
v 1700.8696 -1073.2703 292.1903
v 1709.1442 -1134.2550 292.1775
f 1042 1043 1044
v 1669.3434 -1077.5259 292.1980
v 1678.4933 -1138.4139 292.1849
v 1670.2167 -1077.4112 292.1978
f 1045 1046 1047
v 1677.4519 -1138.5551 292.1852
v 1669.3434 -1077.5259 292.1980
v 1669.1754 -1077.5484 292.1981
f 1048 1049 1050
v 1678.4933 -1138.4139 292.1849
v 1669.3434 -1077.5259 292.1980
v 1677.4519 -1138.5551 292.1852
f 1051 1052 1053
v 1658.4610 -1058.3124 295.9680
v 1658.6461 -1058.2869 295.9019
v 1658.6450 -1058.2864 292.0340
f 1054 1055 1056
v 1658.4578 -1058.3107 284.2994
v 1658.4610 -1058.3124 295.9680
v 1658.6439 -1058.2857 288.1672
f 1057 1058 1059
v 1658.4578 -1058.3107 284.2994
v 1658.6439 -1058.2857 288.1672
v 1659.3602 -1058.1882 284.2992
f 1060 1061 1062
v 1707.2623 -1134.5088 284.3702
v 1702.2316 -1135.1913 284.3714
v 1693.9710 -1074.2067 284.3843
f 1063 1064 1065
v 1686.1782 -1075.2648 284.3862
v 1699.3576 -1135.5816 284.3721
v 1694.3258 -1136.2641 284.3733
f 1066 1067 1068
v 1691.1040 -1074.5960 284.3850
v 1701.3093 -1135.3169 284.3717
v 1699.3576 -1135.5816 284.3721
f 1069 1070 1071
v 1701.7757 -1073.1446 284.3824
v 1714.8800 -1133.4752 284.3684
v 1709.9423 -1134.1450 284.3696
f 1072 1073 1074
v 1707.2623 -1134.5088 284.3702
v 1699.0648 -1073.5153 284.3831
v 1709.9423 -1134.1450 284.3696
f 1075 1076 1077
v 1701.3093 -1135.3169 284.3717
v 1693.9710 -1074.2067 284.3843
v 1702.2316 -1135.1913 284.3714
f 1078 1079 1080
v 1683.3159 -1137.7576 284.3761
v 1678.4952 -1138.4116 284.3772
v 1675.1313 -1076.7642 284.3889
f 1081 1082 1083
v 1685.3626 -1137.4802 284.3755
v 1683.3159 -1137.7576 284.3761
v 1677.1690 -1076.4946 284.3883
f 1084 1085 1086
v 1670.7644 -1139.4610 284.3791
v 1669.3413 -1077.5247 284.3903
v 1678.4952 -1138.4116 284.3772
f 1087 1088 1089
v 1686.1782 -1075.2648 284.3862
v 1694.3258 -1136.2641 284.3733
v 1685.3626 -1137.4802 284.3755
f 1090 1091 1092
v 1718.9095 -1132.9290 284.3674
v 1718.1392 -1133.0330 284.3676
v 1708.9633 -1072.1679 284.3807
f 1093 1094 1095
v 1718.1392 -1133.0330 284.3676
v 1717.2379 -1133.1555 284.3678
v 1708.9633 -1072.1679 284.3807
f 1096 1097 1098
v 1714.8294 -1071.3726 284.3792
v 1723.1030 -1132.3503 284.3663
v 1718.9095 -1132.9290 284.3674
f 1099 1100 1101
v 1725.9340 -1131.9598 284.3656
v 1723.1030 -1132.3503 284.3663
v 1714.8294 -1071.3726 284.3792
f 1102 1103 1104
v 1725.9350 -1131.9648 284.3656
v 1725.9340 -1131.9598 284.3656
v 1730.9268 -1131.2732 284.3644
f 1105 1106 1107
v 1706.9166 -1072.4464 284.3812
v 1717.2379 -1133.1555 284.3678
v 1714.8800 -1133.4752 284.3684
f 1108 1109 1110
v 1730.9268 -1131.2732 284.3644
v 1725.5461 -1069.9194 284.3766
v 1732.9356 -1130.9946 284.3639
f 1111 1112 1113
v 1733.8159 -1130.8729 284.3637
v 1732.9356 -1130.9946 284.3639
v 1725.5461 -1069.9194 284.3766
f 1114 1115 1116
v 1716.6721 -1071.1226 284.3788
v 1730.9268 -1131.2732 284.3644
v 1725.9340 -1131.9598 284.3656
f 1117 1118 1119
v 1738.7126 -1130.1971 284.3625
v 1733.8159 -1130.8729 284.3637
v 1725.5461 -1069.9194 284.3766
f 1120 1121 1122
v 1730.6480 -1069.2270 284.3753
v 1740.9834 -1129.8841 284.3619
v 1738.7126 -1130.1971 284.3625
f 1123 1124 1125
v 1675.1313 -1076.7642 284.3889
v 1677.0760 -1076.5015 284.3884
v 1677.1690 -1076.4946 284.3883
f 1126 1127 1128
v 1675.1313 -1076.7642 284.3889
v 1677.1690 -1076.4946 284.3883
v 1683.3159 -1137.7576 284.3761
f 1129 1130 1131
v 1693.9710 -1074.2067 284.3843
v 1701.3093 -1135.3169 284.3717
v 1691.1040 -1074.5960 284.3850
f 1132 1133 1134
v 1691.1040 -1074.5960 284.3850
v 1699.3576 -1135.5816 284.3721
v 1686.1782 -1075.2648 284.3862
f 1135 1136 1137
v 1686.1782 -1075.2648 284.3862
v 1685.3626 -1137.4802 284.3755
v 1677.2610 -1076.4759 284.3883
f 1138 1139 1140
v 1669.3413 -1077.5247 284.3903
v 1675.1313 -1076.7642 284.3889
v 1678.4952 -1138.4116 284.3772
f 1141 1142 1143
v 1707.2623 -1134.5088 284.3702
v 1693.9710 -1074.2067 284.3843
v 1699.0648 -1073.5153 284.3831
f 1144 1145 1146
v 1699.0648 -1073.5153 284.3831
v 1701.7757 -1073.1446 284.3824
v 1709.9423 -1134.1450 284.3696
f 1147 1148 1149
v 1677.2610 -1076.4759 284.3883
v 1685.3626 -1137.4802 284.3755
v 1677.1690 -1076.4946 284.3883
f 1150 1151 1152
v 1733.5490 -1068.8337 284.3746
v 1740.9834 -1129.8841 284.3619
v 1730.6480 -1069.2270 284.3753
f 1153 1154 1155
v 1725.5461 -1069.9194 284.3766
v 1730.6480 -1069.2270 284.3753
v 1738.7126 -1130.1971 284.3625
f 1156 1157 1158
v 1706.9166 -1072.4464 284.3812
v 1714.8800 -1133.4752 284.3684
v 1701.7757 -1073.1446 284.3824
f 1159 1160 1161
v 1738.6629 -1068.1385 284.3733
v 1741.0376 -1067.8168 284.3727
v 1749.3635 -1128.7286 284.3599
f 1162 1163 1164
v 1738.6629 -1068.1385 284.3733
v 1749.3635 -1128.7286 284.3599
v 1746.9446 -1129.0621 284.3605
f 1165 1166 1167
v 1746.9446 -1129.0621 284.3605
v 1733.5490 -1068.8337 284.3746
v 1738.6629 -1068.1385 284.3733
f 1168 1169 1170
v 1746.9446 -1129.0621 284.3605
v 1740.9834 -1129.8841 284.3619
v 1733.5490 -1068.8337 284.3746
f 1171 1172 1173
v 1741.0526 -1067.4749 284.3728
v 1749.3635 -1128.7286 284.3599
v 1741.0376 -1067.8168 284.3727
f 1174 1175 1176
v 1714.8294 -1071.3726 284.3792
v 1718.9095 -1132.9290 284.3674
v 1708.9633 -1072.1679 284.3807
f 1177 1178 1179
v 1716.6721 -1071.1226 284.3788
v 1725.9340 -1131.9598 284.3656
v 1714.8294 -1071.3726 284.3792
f 1180 1181 1182
v 1708.9633 -1072.1679 284.3807
v 1717.2379 -1133.1555 284.3678
v 1706.9166 -1072.4464 284.3812
f 1183 1184 1185
v 1740.9926 -1067.4827 284.3728
v 1741.0526 -1067.4749 284.3728
v 1741.0376 -1067.8168 284.3727
f 1186 1187 1188
v 1725.5461 -1069.9194 284.3766
v 1730.9268 -1131.2732 284.3644
v 1716.6721 -1071.1226 284.3788
f 1189 1190 1191
v 1662.4869 -1078.4544 284.3920
v 1669.3413 -1077.5247 284.3903
v 1670.7644 -1139.4610 284.3791
f 1192 1193 1194
v 1725.9340 -1131.9598 284.3656
v 1725.9362 -1131.9610 292.1733
v 1724.9468 -1132.0974 292.1736
f 1195 1196 1197
v 1725.9340 -1131.9598 284.3656
v 1724.9468 -1132.0974 292.1736
v 1723.1052 -1132.3514 292.1740
f 1198 1199 1200
v 1723.1030 -1132.3503 284.3663
v 1718.9687 -1132.9224 292.1751
v 1718.9095 -1132.9290 284.3674
f 1201 1202 1203
v 1723.1030 -1132.3503 284.3663
v 1723.1052 -1132.3514 292.1740
v 1718.9687 -1132.9224 292.1751
f 1204 1205 1206
v 1723.1052 -1132.3514 292.1740
v 1723.1030 -1132.3503 284.3663
v 1725.9340 -1131.9598 284.3656
f 1207 1208 1209
v 1718.9688 -1132.9225 292.6751
v 1718.9687 -1132.9224 292.1751
v 1723.1052 -1132.3514 292.1740
f 1210 1211 1212
v 1718.9688 -1132.9225 292.6751
v 1723.1052 -1132.3514 292.1740
v 1723.1070 -1132.3559 295.1749
f 1213 1214 1215
v 1659.3602 -1058.1882 284.2992
v 1658.4941 -1058.5689 284.2993
v 1658.4578 -1058.3107 284.2994
f 1216 1217 1218
v 1650.2142 -1059.7217 284.3013
v 1658.4941 -1058.5689 284.2993
v 1662.4869 -1078.4544 284.2950
f 1219 1220 1221
v 1659.3602 -1058.1882 284.2992
v 1662.4869 -1078.4544 284.2950
v 1658.4941 -1058.5689 284.2993
f 1222 1223 1224
v 1650.2142 -1059.7217 284.3013
v 1652.1815 -1133.8933 284.2879
v 1643.3367 -1060.6802 284.3029
f 1225 1226 1227
v 1652.1815 -1133.8933 284.2879
v 1635.0098 -1100.2085 284.2983
v 1643.3367 -1060.6802 284.3029
f 1228 1229 1230
v 1635.0098 -1100.2085 284.2983
v 1629.9008 -1062.5503 284.3060
v 1636.0890 -1061.6888 284.3046
f 1231 1232 1233
v 1635.0098 -1100.2085 284.2983
v 1636.0890 -1061.6888 284.3046
v 1643.3367 -1060.6802 284.3029
f 1234 1235 1236
v 1662.4869 -1078.4544 284.2950
v 1652.1815 -1133.8933 284.2879
v 1650.2142 -1059.7217 284.3013
f 1237 1238 1239
v 1662.4869 -1078.4544 284.2950
v 1660.6677 -1136.7669 284.2852
v 1652.1815 -1133.8933 284.2879
f 1240 1241 1242
v 1652.6356 -1137.2194 284.2872
v 1652.1815 -1133.8933 284.2879
v 1660.6677 -1136.7669 284.2852
f 1243 1244 1245
v 1668.2524 -1135.7313 284.2834
v 1670.7791 -1139.5671 284.2821
v 1668.8104 -1139.8387 284.2825
f 1246 1247 1248
v 1652.6356 -1137.2194 284.2872
v 1660.6677 -1136.7669 284.2852
v 1652.5828 -1137.8713 284.2871
f 1249 1250 1251
v 1670.7791 -1139.5671 284.2821
v 1668.2524 -1135.7313 284.2834
v 1662.4869 -1078.4544 284.2950
f 1252 1253 1254
v 1635.0098 -1100.2085 284.2983
v 1652.1815 -1133.8933 284.2879
v 1637.9518 -1121.8902 284.2937
f 1255 1256 1257
v 1646.0012 -1134.7377 284.2893
v 1637.9518 -1121.8902 284.2937
v 1652.1815 -1133.8933 284.2879
f 1258 1259 1260
v 1637.9518 -1121.8902 284.2937
v 1646.0012 -1134.7377 284.2893
v 1639.8090 -1135.5841 284.2908
f 1261 1262 1263
v 1652.4965 -1137.2380 284.2872
v 1652.6356 -1137.2194 284.2872
v 1652.5828 -1137.8713 284.2871
f 1264 1265 1266
v 1668.2524 -1135.7313 284.2834
v 1660.6677 -1136.7669 284.2852
v 1662.4869 -1078.4544 284.2950
f 1267 1268 1269
v 1740.9948 -1067.4838 292.2555
v 1741.0526 -1067.4749 284.3728
v 1740.9926 -1067.4827 284.3728
f 1270 1271 1272
v 1741.0526 -1067.4749 284.3728
v 1740.9948 -1067.4838 292.2555
v 1741.0548 -1067.4760 292.1805
f 1273 1274 1275
v 1710.0516 -1134.1315 292.1772
v 1709.9423 -1134.1450 284.3696
v 1717.2400 -1133.1567 292.1755
f 1276 1277 1278
v 1709.1442 -1134.2550 292.1775
v 1707.2623 -1134.5088 284.3702
v 1710.0516 -1134.1315 292.1772
f 1279 1280 1281
v 1699.3576 -1135.5816 284.3721
v 1702.2338 -1135.1925 292.1791
v 1701.3114 -1135.3180 292.1794
f 1282 1283 1284
v 1702.2316 -1135.1913 284.3714
v 1702.2338 -1135.1925 292.1791
v 1701.3093 -1135.3169 284.3717
f 1285 1286 1287
v 1699.3576 -1135.5816 284.3721
v 1701.3093 -1135.3169 284.3717
v 1702.2338 -1135.1925 292.1791
f 1288 1289 1290
v 1699.3576 -1135.5816 284.3721
v 1701.3114 -1135.3180 292.1794
v 1694.3258 -1136.2641 284.3733
f 1291 1292 1293
v 1709.1442 -1134.2550 292.1775
v 1702.2338 -1135.1925 292.1791
v 1702.2316 -1135.1913 284.3714
f 1294 1295 1296
v 1707.2623 -1134.5088 284.3702
v 1709.1442 -1134.2550 292.1775
v 1702.2316 -1135.1913 284.3714
f 1297 1298 1299
v 1717.2379 -1133.1555 284.3678
v 1718.1392 -1133.0330 284.3676
v 1718.9687 -1132.9224 292.1751
f 1300 1301 1302
v 1718.9688 -1132.9225 292.6751
v 1718.1414 -1133.0341 292.1753
v 1718.9687 -1132.9224 292.1751
f 1303 1304 1305
v 1718.9687 -1132.9224 292.1751
v 1718.1392 -1133.0330 284.3676
v 1718.9095 -1132.9290 284.3674
f 1306 1307 1308
v 1714.8800 -1133.4752 284.3684
v 1718.9687 -1132.9224 292.1751
v 1718.1414 -1133.0341 292.1753
f 1309 1310 1311
v 1714.8800 -1133.4752 284.3684
v 1717.2400 -1133.1567 292.1755
v 1709.9423 -1134.1450 284.3696
f 1312 1313 1314
v 1718.9687 -1132.9224 292.1751
v 1714.8800 -1133.4752 284.3684
v 1717.2379 -1133.1555 284.3678
f 1315 1316 1317
v 1714.8800 -1133.4752 284.3684
v 1718.1414 -1133.0341 292.1753
v 1717.2400 -1133.1567 292.1755
f 1318 1319 1320
v 1709.9423 -1134.1450 284.3696
v 1710.0516 -1134.1315 292.1772
v 1707.2623 -1134.5088 284.3702
f 1321 1322 1323
v 1685.3517 -1137.4832 292.1833
v 1683.3159 -1137.7576 284.3761
v 1686.2220 -1137.3646 292.1831
f 1324 1325 1326
v 1686.2220 -1137.3646 292.1831
v 1693.5046 -1136.3771 292.1813
v 1691.2756 -1136.6806 295.1827
f 1327 1328 1329
v 1678.4933 -1138.4139 292.1849
v 1678.4952 -1138.4116 284.3772
v 1685.3517 -1137.4832 292.1833
f 1330 1331 1332
v 1677.4519 -1138.5551 292.1852
v 1675.5481 -1138.8145 295.1865
v 1670.7666 -1139.4622 292.3258
f 1333 1334 1335
v 1670.7666 -1139.4622 292.3258
v 1670.7644 -1139.4610 284.3791
v 1677.4519 -1138.5551 292.1852
f 1336 1337 1338
v 1678.4933 -1138.4139 292.1849
v 1677.4519 -1138.5551 292.1852
v 1670.7644 -1139.4610 284.3791
f 1339 1340 1341
v 1678.4952 -1138.4116 284.3772
v 1678.4933 -1138.4139 292.1849
v 1670.7644 -1139.4610 284.3791
f 1342 1343 1344
v 1685.3626 -1137.4802 284.3755
v 1694.3279 -1136.2654 292.1811
v 1693.5046 -1136.3771 292.1813
f 1345 1346 1347
v 1694.3279 -1136.2654 292.1811
v 1685.3626 -1137.4802 284.3755
v 1694.3258 -1136.2641 284.3733
f 1348 1349 1350
v 1701.3114 -1135.3180 292.1794
v 1694.3279 -1136.2654 292.1811
v 1694.3258 -1136.2641 284.3733
f 1351 1352 1353
v 1683.3159 -1137.7576 284.3761
v 1685.3626 -1137.4802 284.3755
v 1686.2220 -1137.3646 292.1831
f 1354 1355 1356
v 1693.5046 -1136.3771 292.1813
v 1686.2220 -1137.3646 292.1831
v 1685.3626 -1137.4802 284.3755
f 1357 1358 1359
v 1685.3517 -1137.4832 292.1833
v 1678.4952 -1138.4116 284.3772
v 1683.3159 -1137.7576 284.3761
f 1360 1361 1362
v 1741.0376 -1067.8168 284.2757
v 1735.8994 -1047.7703 284.2805
v 1738.2742 -1047.4466 284.2799
f 1363 1364 1365
v 1722.1195 -1049.6453 284.2839
v 1727.8825 -1048.8607 284.2824
v 1730.6459 -1069.2269 284.2783
f 1366 1367 1368
v 1722.1195 -1049.6453 284.2839
v 1724.8819 -1070.0095 284.2797
v 1720.0057 -1049.9326 284.2844
f 1369 1370 1371
v 1730.1413 -1048.5538 284.2819
v 1732.9047 -1068.9211 284.2778
v 1727.8825 -1048.8607 284.2824
f 1372 1373 1374
v 1720.0057 -1049.9326 284.2844
v 1717.1842 -1071.0529 284.2816
v 1714.2247 -1050.7202 284.2858
f 1375 1376 1377
v 1712.0389 -1051.0173 284.2864
v 1714.8013 -1071.3765 284.2822
v 1706.3029 -1051.7979 284.2879
f 1378 1379 1380
v 1704.1551 -1052.0902 284.2884
v 1709.3674 -1072.1129 284.2836
v 1698.3450 -1052.8816 284.2898
f 1381 1382 1383
v 1706.3029 -1051.7979 284.2879
v 1709.3674 -1072.1129 284.2836
v 1704.1551 -1052.0902 284.2884
f 1384 1385 1386
v 1714.2247 -1050.7202 284.2858
v 1717.1842 -1071.0529 284.2816
v 1712.0389 -1051.0173 284.2864
f 1387 1388 1389
v 1682.4074 -1055.0509 284.2937
v 1688.3545 -1054.2409 284.2922
v 1690.8789 -1074.6264 284.2880
f 1390 1391 1392
v 1688.3545 -1054.2409 284.2922
v 1695.7281 -1053.2376 284.2904
v 1690.8789 -1074.6264 284.2880
f 1393 1394 1395
v 1682.4074 -1055.0509 284.2937
v 1683.1921 -1075.6698 284.2899
v 1680.4297 -1055.3197 284.2941
f 1396 1397 1398
v 1674.5006 -1056.1267 284.2956
v 1680.4297 -1055.3197 284.2941
v 1683.1921 -1075.6698 284.2899
f 1399 1400 1401
v 1677.2610 -1076.4759 284.2914
v 1672.4219 -1056.4101 284.2961
v 1674.5006 -1056.1267 284.2956
f 1402 1403 1404
v 1659.3602 -1058.1882 284.2992
v 1664.7861 -1057.4487 284.2979
v 1669.3673 -1077.5218 284.2933
f 1405 1406 1407
v 1666.5848 -1057.2045 284.2974
v 1669.3673 -1077.5218 284.2933
v 1664.7861 -1057.4487 284.2979
f 1408 1409 1410
v 1666.5848 -1057.2045 284.2974
v 1672.4219 -1056.4101 284.2961
v 1669.3673 -1077.5218 284.2933
f 1411 1412 1413
v 1701.1085 -1073.2359 284.2856
v 1695.7281 -1053.2376 284.2904
v 1698.3450 -1052.8816 284.2898
f 1414 1415 1416
v 1730.1413 -1048.5538 284.2819
v 1735.8994 -1047.7703 284.2805
v 1738.6628 -1068.1385 284.2763
f 1417 1418 1419
v 1730.6459 -1069.2269 284.2783
v 1727.8825 -1048.8607 284.2824
v 1732.9047 -1068.9211 284.2778
f 1420 1421 1422
v 1730.1413 -1048.5538 284.2819
v 1738.6628 -1068.1385 284.2763
v 1732.9047 -1068.9211 284.2778
f 1423 1424 1425
v 1714.8013 -1071.3765 284.2822
v 1709.3674 -1072.1129 284.2836
v 1706.3029 -1051.7979 284.2879
f 1426 1427 1428
v 1714.8013 -1071.3765 284.2822
v 1712.0389 -1051.0173 284.2864
v 1717.1842 -1071.0529 284.2816
f 1429 1430 1431
v 1722.1195 -1049.6453 284.2839
v 1730.6459 -1069.2269 284.2783
v 1724.8819 -1070.0095 284.2797
f 1432 1433 1434
v 1724.8819 -1070.0095 284.2797
v 1717.1842 -1071.0529 284.2816
v 1720.0057 -1049.9326 284.2844
f 1435 1436 1437
v 1709.3674 -1072.1129 284.2836
v 1701.1085 -1073.2359 284.2856
v 1698.3450 -1052.8816 284.2898
f 1438 1439 1440
v 1682.4074 -1055.0509 284.2937
v 1690.8789 -1074.6264 284.2880
v 1685.1689 -1075.4022 284.2894
f 1441 1442 1443
v 1659.3602 -1058.1882 284.2992
v 1669.3673 -1077.5218 284.2933
v 1662.4869 -1078.4544 284.2950
f 1444 1445 1446
v 1699.0227 -1073.5212 284.2861
v 1690.8789 -1074.6264 284.2880
v 1695.7281 -1053.2376 284.2904
f 1447 1448 1449
v 1701.1085 -1073.2359 284.2856
v 1699.0227 -1073.5212 284.2861
v 1695.7281 -1053.2376 284.2904
f 1450 1451 1452
v 1683.1921 -1075.6698 284.2899
v 1677.2610 -1076.4759 284.2914
v 1674.5006 -1056.1267 284.2956
f 1453 1454 1455
v 1672.4219 -1056.4101 284.2961
v 1675.1823 -1076.7574 284.2919
v 1669.3673 -1077.5218 284.2933
f 1456 1457 1458
v 1675.1823 -1076.7574 284.2919
v 1672.4219 -1056.4101 284.2961
v 1677.2610 -1076.4759 284.2914
f 1459 1460 1461
v 1683.1921 -1075.6698 284.2899
v 1682.4074 -1055.0509 284.2937
v 1685.1689 -1075.4022 284.2894
f 1462 1463 1464
v 1741.0376 -1067.8168 284.2757
v 1738.6628 -1068.1385 284.2763
v 1735.8994 -1047.7703 284.2805
f 1465 1466 1467
v 1661.4017 -1078.6041 295.8977
v 1661.4019 -1078.6042 296.8777
v 1658.6461 -1058.2869 295.9019
f 1468 1469 1470
v 1662.4869 -1078.4544 284.2950
v 1669.3673 -1077.5218 284.2933
v 1662.4869 -1078.4544 284.3920
f 1471 1472 1473
v 1669.3413 -1077.5247 284.3903
v 1662.4869 -1078.4544 284.3920
v 1669.3673 -1077.5218 284.2933
f 1474 1475 1476
v 1669.3448 -1077.5266 296.9288
v 1667.2705 -1077.8077 295.1994
v 1669.3434 -1077.5259 292.1980
f 1477 1478 1479
v 1669.3434 -1077.5259 292.1980
v 1667.2705 -1077.8077 295.1994
v 1669.1754 -1077.5484 292.1981
f 1480 1481 1482
v 1667.2705 -1077.8077 295.1994
v 1669.3448 -1077.5266 296.9288
v 1667.5470 -1077.7712 300.2662
f 1483 1484 1485
v 1662.4899 -1078.4559 295.5086
v 1661.4019 -1078.6042 296.8777
v 1661.4017 -1078.6041 295.8977
f 1486 1487 1488
v 1662.4890 -1078.4555 292.3377
v 1667.2705 -1077.8077 295.1994
v 1662.4899 -1078.4559 295.5086
f 1489 1490 1491
v 1662.4899 -1078.4559 295.5086
v 1667.2705 -1077.8077 295.1994
v 1667.5470 -1077.7712 300.2662
f 1492 1493 1494
v 1661.4019 -1078.6042 296.8777
v 1662.4899 -1078.4559 295.5086
v 1667.5470 -1077.7712 300.2662
f 1495 1496 1497
v 1677.2632 -1076.4770 292.1961
v 1677.2645 -1076.4777 296.9269
v 1675.1852 -1076.7590 294.9905
f 1498 1499 1500
v 1677.1711 -1076.4959 292.1961
v 1677.2632 -1076.4770 292.1961
v 1675.1852 -1076.7590 294.9905
f 1501 1502 1503
v 1675.1852 -1076.7590 294.9905
v 1677.0781 -1076.5026 292.1962
v 1677.1711 -1076.4959 292.1961
f 1504 1505 1506
v 1675.0452 -1076.7776 295.1976
v 1677.2645 -1076.4777 296.9269
v 1675.1867 -1076.7596 300.1513
f 1507 1508 1509
v 1670.2167 -1077.4112 292.1978
v 1669.3448 -1077.5266 296.9288
v 1669.3434 -1077.5259 292.1980
f 1510 1511 1512
v 1677.2645 -1076.4777 296.9269
v 1675.0452 -1076.7776 295.1976
v 1675.1852 -1076.7590 294.9905
f 1513 1514 1515
v 1669.3448 -1077.5266 296.9288
v 1670.2167 -1077.4112 292.1978
v 1675.0452 -1076.7776 295.1976
f 1516 1517 1518
v 1675.1867 -1076.7596 300.1513
v 1669.3448 -1077.5266 296.9288
v 1675.0452 -1076.7776 295.1976
f 1519 1520 1521
v 1675.1823 -1076.7574 284.2919
v 1677.2610 -1076.4759 284.2914
v 1677.0760 -1076.5015 284.3884
f 1522 1523 1524
v 1677.2610 -1076.4759 284.2914
v 1677.2610 -1076.4759 284.3883
v 1677.1690 -1076.4946 284.3883
f 1525 1526 1527
v 1677.0760 -1076.5015 284.3884
v 1677.2610 -1076.4759 284.2914
v 1677.1690 -1076.4946 284.3883
f 1528 1529 1530
v 1675.1823 -1076.7574 284.2919
v 1677.0760 -1076.5015 284.3884
v 1675.1313 -1076.7642 284.3889
f 1531 1532 1533
v 1669.3413 -1077.5247 284.3903
v 1675.1823 -1076.7574 284.2919
v 1675.1313 -1076.7642 284.3889
f 1534 1535 1536
v 1669.3673 -1077.5218 284.2933
v 1675.1823 -1076.7574 284.2919
v 1669.3413 -1077.5247 284.3903
f 1537 1538 1539
v 1714.8013 -1071.3765 284.2822
v 1717.1842 -1071.0529 284.2816
v 1716.6721 -1071.1226 284.3788
f 1540 1541 1542
v 1725.5461 -1069.9194 284.3766
v 1716.6721 -1071.1226 284.3788
v 1717.1842 -1071.0529 284.2816
f 1543 1544 1545
v 1724.8819 -1070.0095 284.2797
v 1725.5461 -1069.9194 284.3766
v 1717.1842 -1071.0529 284.2816
f 1546 1547 1548
v 1714.8013 -1071.3765 284.2822
v 1714.8294 -1071.3726 284.3792
v 1709.3674 -1072.1129 284.2836
f 1549 1550 1551
v 1708.9633 -1072.1679 284.3807
v 1709.3674 -1072.1129 284.2836
v 1714.8294 -1071.3726 284.3792
f 1552 1553 1554
v 1716.6721 -1071.1226 284.3788
v 1714.8294 -1071.3726 284.3792
v 1714.8013 -1071.3765 284.2822
f 1555 1556 1557
v 1709.3674 -1072.1129 284.2836
v 1708.9633 -1072.1679 284.3807
v 1706.9166 -1072.4464 284.3812
f 1558 1559 1560
v 1738.6628 -1068.1385 284.2763
v 1738.6629 -1068.1385 284.3733
v 1733.5490 -1068.8337 284.3746
f 1561 1562 1563
v 1741.0376 -1067.8168 284.2757
v 1741.0376 -1067.8168 284.3727
v 1738.6628 -1068.1385 284.2763
f 1564 1565 1566
v 1738.6629 -1068.1385 284.3733
v 1738.6628 -1068.1385 284.2763
v 1741.0376 -1067.8168 284.3727
f 1567 1568 1569
v 1738.6628 -1068.1385 284.2763
v 1733.5490 -1068.8337 284.3746
v 1732.9047 -1068.9211 284.2778
f 1570 1571 1572
v 1730.6459 -1069.2269 284.2783
v 1730.6480 -1069.2270 284.3753
v 1725.5461 -1069.9194 284.3766
f 1573 1574 1575
v 1730.6459 -1069.2269 284.2783
v 1732.9047 -1068.9211 284.2778
v 1730.6480 -1069.2270 284.3753
f 1576 1577 1578
v 1733.5490 -1068.8337 284.3746
v 1730.6480 -1069.2270 284.3753
v 1732.9047 -1068.9211 284.2778
f 1579 1580 1581
v 1730.6459 -1069.2269 284.2783
v 1725.5461 -1069.9194 284.3766
v 1724.8819 -1070.0095 284.2797
f 1582 1583 1584
v 1690.8789 -1074.6264 284.2880
v 1691.1040 -1074.5960 284.3850
v 1686.1782 -1075.2648 284.3862
f 1585 1586 1587
v 1683.1921 -1075.6698 284.2899
v 1677.2610 -1076.4759 284.3883
v 1677.2610 -1076.4759 284.2914
f 1588 1589 1590
v 1685.1689 -1075.4022 284.2894
v 1686.1782 -1075.2648 284.3862
v 1683.1921 -1075.6698 284.2899
f 1591 1592 1593
v 1677.2610 -1076.4759 284.3883
v 1683.1921 -1075.6698 284.2899
v 1686.1782 -1075.2648 284.3862
f 1594 1595 1596
v 1690.8789 -1074.6264 284.2880
v 1686.1782 -1075.2648 284.3862
v 1685.1689 -1075.4022 284.2894
f 1597 1598 1599
v 1699.0227 -1073.5212 284.2861
v 1701.1085 -1073.2359 284.2856
v 1699.0648 -1073.5153 284.3831
f 1600 1601 1602
v 1701.7757 -1073.1446 284.3824
v 1699.0648 -1073.5153 284.3831
v 1701.1085 -1073.2359 284.2856
f 1603 1604 1605
v 1706.9166 -1072.4464 284.3812
v 1701.7757 -1073.1446 284.3824
v 1709.3674 -1072.1129 284.2836
f 1606 1607 1608
v 1701.1085 -1073.2359 284.2856
v 1709.3674 -1072.1129 284.2836
v 1701.7757 -1073.1446 284.3824
f 1609 1610 1611
v 1699.0227 -1073.5212 284.2861
v 1693.9710 -1074.2067 284.3843
v 1690.8789 -1074.6264 284.2880
f 1612 1613 1614
v 1691.1040 -1074.5960 284.3850
v 1690.8789 -1074.6264 284.2880
v 1693.9710 -1074.2067 284.3843
f 1615 1616 1617
v 1699.0227 -1073.5212 284.2861
v 1699.0648 -1073.5153 284.3831
v 1693.9710 -1074.2067 284.3843
f 1618 1619 1620
v 1724.8854 -1070.0113 296.9152
v 1722.7726 -1070.2981 300.1397
v 1716.9907 -1071.0812 296.9172
f 1621 1622 1623
v 1724.8854 -1070.0113 296.9152
v 1732.9083 -1068.9229 296.9133
v 1730.6505 -1069.2293 300.1377
f 1624 1625 1626
v 1716.9907 -1071.0812 296.9172
v 1722.6592 -1070.3151 295.1859
v 1724.8854 -1070.0113 296.9152
f 1627 1628 1629
v 1722.6592 -1070.3151 295.1859
v 1730.4470 -1069.2560 295.1840
v 1724.8854 -1070.0113 296.9152
f 1630 1631 1632
v 1722.6592 -1070.3151 295.1859
v 1716.9907 -1071.0812 296.9172
v 1714.8324 -1071.3742 295.1878
f 1633 1634 1635
v 1701.1120 -1073.2377 296.9212
v 1709.0678 -1072.1559 296.9192
v 1706.9210 -1072.4486 300.1436
f 1636 1637 1638
v 1714.8324 -1071.3742 295.1878
v 1716.9907 -1071.0812 296.9172
v 1706.9195 -1072.4479 294.7938
f 1639 1640 1641
v 1717.6646 -1070.9923 292.1862
v 1722.6592 -1070.3151 295.1859
v 1716.6742 -1071.1237 292.1865
f 1642 1643 1644
v 1716.6742 -1071.1237 292.1865
v 1722.6592 -1070.3151 295.1859
v 1714.8324 -1071.3742 295.1878
f 1645 1646 1647
v 1709.0678 -1072.1559 296.9192
v 1706.9195 -1072.4479 294.7938
v 1716.9907 -1071.0812 296.9172
f 1648 1649 1650
v 1709.0678 -1072.1559 296.9192
v 1716.9907 -1071.0812 296.9172
v 1714.8058 -1071.3788 300.1416
f 1651 1652 1653
v 1732.9083 -1068.9229 296.9133
v 1741.0412 -1067.8186 296.9112
v 1738.6673 -1068.1407 300.1357
f 1654 1655 1656
v 1738.6819 -1068.1381 295.1819
v 1741.0412 -1067.8186 296.9112
v 1732.9083 -1068.9229 296.9133
f 1657 1658 1659
v 1741.0412 -1067.8186 296.9112
v 1738.6819 -1068.1381 295.1819
v 1741.0399 -1067.8179 292.2554
f 1660 1661 1662
v 1730.6490 -1069.2285 294.9109
v 1738.6819 -1068.1381 295.1819
v 1732.9083 -1068.9229 296.9133
f 1663 1664 1665
v 1725.5484 -1069.9205 292.1843
v 1730.4470 -1069.2560 295.1840
v 1724.6670 -1070.0420 292.1845
f 1666 1667 1668
v 1724.8854 -1070.0113 296.9152
v 1730.4470 -1069.2560 295.1840
v 1732.9083 -1068.9229 296.9133
f 1669 1670 1671
v 1733.5512 -1068.8349 292.1823
v 1738.6819 -1068.1381 295.1819
v 1732.6749 -1068.9535 292.1825
f 1672 1673 1674
v 1732.6749 -1068.9535 292.1825
v 1738.6819 -1068.1381 295.1819
v 1730.6490 -1069.2285 294.9109
f 1675 1676 1677
v 1730.4470 -1069.2560 295.1840
v 1730.6490 -1069.2285 294.9109
v 1732.9083 -1068.9229 296.9133
f 1678 1679 1680
v 1730.4470 -1069.2560 295.1840
v 1722.6592 -1070.3151 295.1859
v 1724.6670 -1070.0420 292.1845
f 1681 1682 1683
v 1685.1723 -1075.4040 296.9250
v 1693.2822 -1074.3026 296.9231
v 1691.1204 -1074.5963 300.1475
f 1684 1685 1686
v 1685.1723 -1075.4040 296.9250
v 1691.0870 -1074.5995 295.1936
v 1693.2822 -1074.3026 296.9231
f 1687 1688 1689
v 1701.1120 -1073.2377 296.9212
v 1699.0272 -1073.5236 300.1455
v 1693.2822 -1074.3026 296.9231
f 1690 1691 1692
v 1683.0011 -1075.6979 295.1955
v 1691.0870 -1074.5995 295.1936
v 1685.1723 -1075.4040 296.9250
f 1693 1694 1695
v 1691.0870 -1074.5995 295.1936
v 1701.1120 -1073.2377 296.9212
v 1693.2822 -1074.3026 296.9231
f 1696 1697 1698
v 1683.0011 -1075.6979 295.1955
v 1685.1723 -1075.4040 296.9250
v 1677.2645 -1076.4777 296.9269
f 1699 1700 1701
v 1677.2632 -1076.4770 292.1961
v 1683.0011 -1075.6979 295.1955
v 1677.2645 -1076.4777 296.9269
f 1702 1703 1704
v 1683.0011 -1075.6979 295.1955
v 1685.2310 -1075.3945 292.1942
v 1691.0870 -1074.5995 295.1936
f 1705 1706 1707
v 1677.2632 -1076.4770 292.1961
v 1677.9485 -1076.3829 292.1960
v 1683.0011 -1075.6979 295.1955
f 1708 1709 1710
v 1677.2645 -1076.4777 296.9269
v 1685.1723 -1075.4040 296.9250
v 1683.1965 -1075.6721 300.1494
f 1711 1712 1713
v 1685.2310 -1075.3945 292.1942
v 1686.0543 -1075.2836 292.1940
v 1691.0870 -1074.5995 295.1936
f 1714 1715 1716
v 1700.8696 -1073.2703 292.1903
v 1701.7759 -1073.1467 292.1901
v 1706.6085 -1072.4902 295.1898
f 1717 1718 1719
v 1701.1120 -1073.2377 296.9212
v 1706.6085 -1072.4902 295.1898
v 1709.0678 -1072.1559 296.9192
f 1720 1721 1722
v 1701.1120 -1073.2377 296.9212
v 1698.9917 -1073.5277 295.1917
v 1706.6085 -1072.4902 295.1898
f 1723 1724 1725
v 1709.8678 -1072.0504 292.1881
v 1714.8324 -1071.3742 295.1878
v 1708.9655 -1072.1690 292.1884
f 1726 1727 1728
v 1708.9655 -1072.1690 292.1884
v 1714.8324 -1071.3742 295.1878
v 1706.9195 -1072.4479 294.7938
f 1729 1730 1731
v 1706.6085 -1072.4902 295.1898
v 1706.9195 -1072.4479 294.7938
v 1709.0678 -1072.1559 296.9192
f 1732 1733 1734
v 1701.1120 -1073.2377 296.9212
v 1691.0870 -1074.5995 295.1936
v 1698.9917 -1073.5277 295.1917
f 1735 1736 1737
v 1698.9917 -1073.5277 295.1917
v 1691.0870 -1074.5995 295.1936
v 1693.0378 -1074.3354 292.1922
f 1738 1739 1740
v 1693.9601 -1074.2098 292.1920
v 1698.9917 -1073.5277 295.1917
v 1693.0378 -1074.3354 292.1922
f 1741 1742 1743
v 1698.9917 -1073.5277 295.1917
v 1700.8696 -1073.2703 292.1903
v 1706.6085 -1072.4902 295.1898
f 1744 1745 1746
v 1741.0526 -1067.4749 284.3728
v 1749.3657 -1128.7298 292.1675
v 1749.3635 -1128.7286 284.3599
f 1747 1748 1749
v 1725.9350 -1131.9648 284.3656
v 1725.9362 -1131.9610 292.1733
v 1725.9340 -1131.9598 284.3656
f 1750 1751 1752
v 1634.7948 -1098.6035 294.4153
v 1629.9034 -1062.5516 294.4227
v 1629.9008 -1062.5503 284.3060
f 1753 1754 1755
v 1652.6356 -1137.2194 284.2872
v 1652.1846 -1133.8950 295.7675
v 1652.1838 -1133.8946 292.8376
f 1756 1757 1758
v 1652.4996 -1137.2398 295.7128
v 1652.6387 -1137.2212 295.7678
v 1652.6356 -1137.2194 284.2872
f 1759 1760 1761
v 1652.5859 -1137.8730 295.7127
v 1652.4996 -1137.2398 295.7128
v 1652.5844 -1137.8722 289.9999
f 1762 1763 1764
v 1658.4973 -1058.5705 295.9669
v 1658.4610 -1058.3124 295.9680
v 1658.4578 -1058.3107 284.2994
f 1765 1766 1767
v 1668.8137 -1139.8406 296.2000
v 1668.2556 -1135.7331 296.2009
v 1668.2548 -1135.7327 293.2210
f 1768 1769 1770
v 1668.8137 -1139.8406 296.2000
v 1670.7791 -1139.5671 284.2821
v 1670.7821 -1139.5687 295.4957
f 1771 1772 1773
v 1670.7644 -1139.4610 284.3791
v 1670.7791 -1139.5671 284.2821
v 1662.4869 -1078.4544 284.2950
f 1774 1775 1776
v 1650.5558 -1134.1175 295.1229
v 1640.6426 -1061.0565 295.1381
v 1640.6426 -1061.0565 295.0621
f 1777 1778 1779
v 1741.8189 -1129.7706 292.1694
v 1740.9834 -1129.8841 284.3619
v 1746.9446 -1129.0621 284.3605
f 1780 1781 1782
v 1733.8181 -1130.8742 292.1714
v 1733.8159 -1130.8729 284.3637
v 1738.7126 -1130.1971 284.3625
f 1783 1784 1785
v 1732.9378 -1130.9957 292.1716
v 1732.9356 -1130.9946 284.3639
v 1733.8159 -1130.8729 284.3637
f 1786 1787 1788
v 1725.9372 -1131.9660 292.1733
v 1725.9350 -1131.9648 284.3656
v 1730.9268 -1131.2732 284.3644
f 1789 1790 1791
v 1709.0678 -1072.1559 296.9192
v 1704.1595 -1052.0925 300.1478
v 1706.9210 -1072.4486 300.1436
f 1792 1793 1794
v 1693.9601 -1074.2098 292.1920
v 1707.2654 -1134.5104 295.1788
v 1698.9917 -1073.5277 295.1917
f 1795 1796 1797
v 1658.4610 -1058.3124 295.9680
v 1658.6450 -1058.2864 292.0340
v 1658.6445 -1058.2861 290.1001
f 1798 1799 1800
v 1658.4610 -1058.3124 295.9680
v 1658.6445 -1058.2861 290.1001
v 1658.6439 -1058.2857 288.1672
f 1801 1802 1803
v 1661.4019 -1078.6042 296.8777
v 1658.6464 -1058.2871 296.8818
v 1658.6461 -1058.2869 295.9019
f 1804 1805 1806

g building_ID_70554D0F-E5B8-4BE8-9EEC-F75BC679F8C9
v 1549.9107 -729.2999 282.8405
v 1557.3433 -729.7707 282.4746
v 1551.1534 -726.7613 282.5395
f 1807 1808 1809
v 1560.8308 -730.2972 282.3427
v 1560.5651 -730.1684 282.3408
v 1560.5008 -730.3013 282.3628
f 1810 1811 1812
v 1560.7675 -730.4159 282.3627
v 1560.8308 -730.2972 282.3427
v 1560.5008 -730.3013 282.3628
f 1813 1814 1815
v 1551.1534 -726.7613 282.5395
v 1551.1521 -726.7608 277.3767
v 1549.9107 -729.2999 282.8405
f 1816 1817 1818
v 1559.1757 -733.3847 282.7368
v 1559.1757 -733.3847 282.8488
v 1558.9629 -733.2932 282.7368
f 1819 1820 1821
v 1551.0581 -729.8780 282.8511
v 1558.9629 -733.2932 282.7368
v 1559.1757 -733.3847 282.8488
f 1822 1823 1824
v 1558.9616 -733.2927 277.3740
v 1558.9629 -733.2932 282.7368
v 1551.0581 -729.8780 282.8511
f 1825 1826 1827
v 1558.9616 -733.2927 277.3740
v 1551.0581 -729.8780 282.8511
v 1551.0568 -729.8775 277.3763
f 1828 1829 1830
v 1560.7675 -730.4159 282.3627
v 1560.8296 -730.2967 277.3739
v 1560.8308 -730.2972 282.3427
f 1831 1832 1833
v 1560.7675 -730.4159 282.3627
v 1560.7663 -730.4155 277.3739
v 1560.8296 -730.2967 277.3739
f 1834 1835 1836
v 1559.0666 -733.6170 277.3740
v 1559.0680 -733.6174 282.7368
v 1558.8613 -733.5278 282.7368
f 1837 1838 1839
v 1559.1542 -733.4311 277.3740
v 1559.1556 -733.4317 282.7368
v 1559.0680 -733.6174 282.7368
f 1840 1841 1842
v 1563.5834 -735.5670 277.3725
v 1563.5848 -735.5675 282.7353
v 1559.1556 -733.4317 282.7368
f 1843 1844 1845
v 1564.3525 -735.8991 277.3723
v 1564.3538 -735.8995 282.7351
v 1563.5848 -735.5675 282.7353
f 1846 1847 1848
v 1565.7471 -732.6718 277.3723
v 1565.7485 -732.6723 282.7352
v 1564.3538 -735.8995 282.7351
f 1849 1850 1851
v 1563.6908 -731.6783 277.3730
v 1563.6922 -731.6788 282.7359
v 1565.7485 -732.6723 282.7352
f 1852 1853 1854
v 1549.9107 -729.2999 282.8405
v 1549.9047 -729.3119 282.8425
v 1551.0581 -729.8780 282.8511
f 1855 1856 1857
v 1549.9107 -729.2999 282.8405
v 1551.0581 -729.8780 282.8511
v 1557.3433 -729.7707 282.4746
f 1858 1859 1860
v 1559.1757 -733.3847 282.8488
v 1559.2698 -732.5829 282.7368
v 1551.0581 -729.8780 282.8511
f 1861 1862 1863
v 1559.9389 -731.0337 282.4919
v 1557.3433 -729.7707 282.4746
v 1559.2698 -732.5829 282.7368
f 1864 1865 1866
v 1551.0581 -729.8780 282.8511
v 1559.2698 -732.5829 282.7368
v 1557.3433 -729.7707 282.4746
f 1867 1868 1869
v 1559.5425 -732.7017 282.7368
v 1559.2698 -732.5829 282.7368
v 1559.1757 -733.3847 282.8488
f 1870 1871 1872
v 1559.1757 -733.3847 282.7368
v 1559.5425 -732.7017 282.7368
v 1559.1757 -733.3847 282.8488
f 1873 1874 1875
v 1559.1556 -733.4317 282.7368
v 1558.9629 -733.2932 282.7368
v 1558.8613 -733.5278 282.7368
f 1876 1877 1878
v 1560.1068 -731.1152 282.7368
v 1559.9390 -731.0337 282.7369
v 1559.2698 -732.5829 282.7368
f 1879 1880 1881
v 1560.1068 -731.1152 282.7368
v 1563.6922 -731.6788 282.7359
v 1560.5009 -730.3013 282.7368
f 1882 1883 1884
v 1559.5425 -732.7017 282.7368
v 1560.1068 -731.1152 282.7368
v 1559.2698 -732.5829 282.7368
f 1885 1886 1887
v 1559.1556 -733.4317 282.7368
v 1558.8613 -733.5278 282.7368
v 1559.0680 -733.6174 282.7368
f 1888 1889 1890
v 1563.5848 -735.5675 282.7353
v 1559.1757 -733.3847 282.7368
v 1559.1556 -733.4317 282.7368
f 1891 1892 1893
v 1564.3538 -735.8995 282.7351
v 1565.7485 -732.6723 282.7352
v 1563.5848 -735.5675 282.7353
f 1894 1895 1896
v 1559.5425 -732.7017 282.7368
v 1559.1757 -733.3847 282.7368
v 1563.5848 -735.5675 282.7353
f 1897 1898 1899
v 1563.5848 -735.5675 282.7353
v 1563.6922 -731.6788 282.7359
v 1559.5425 -732.7017 282.7368
f 1900 1901 1902
v 1563.5848 -735.5675 282.7353
v 1565.7485 -732.6723 282.7352
v 1563.6922 -731.6788 282.7359
f 1903 1904 1905
v 1560.1068 -731.1152 282.7368
v 1559.5425 -732.7017 282.7368
v 1563.6922 -731.6788 282.7359
f 1906 1907 1908
v 1558.9629 -733.2932 282.7368
v 1559.1556 -733.4317 282.7368
v 1559.1757 -733.3847 282.7368
f 1909 1910 1911
v 1559.9389 -731.0337 282.4919
v 1559.2698 -732.5829 282.7368
v 1559.9390 -731.0337 282.7369
f 1912 1913 1914
v 1558.8599 -733.5274 277.3740
v 1558.8613 -733.5278 282.7368
v 1558.9629 -733.2932 282.7368
f 1915 1916 1917
v 1560.5008 -730.3013 282.3628
v 1560.5009 -730.3013 282.7368
v 1560.7675 -730.4159 282.3627
f 1918 1919 1920
v 1563.6922 -731.6788 282.7359
v 1560.7675 -730.4159 282.3627
v 1560.5009 -730.3013 282.7368
f 1921 1922 1923
v 1560.7663 -730.4155 277.3739
v 1560.7675 -730.4159 282.3627
v 1563.6908 -731.6783 277.3730
f 1924 1925 1926
v 1563.6922 -731.6788 282.7359
v 1563.6908 -731.6783 277.3730
v 1560.7675 -730.4159 282.3627
f 1927 1928 1929
v 1560.1054 -731.1147 277.3740
v 1564.3525 -735.8991 277.3723
v 1563.5834 -735.5670 277.3725
f 1930 1931 1932
v 1559.1542 -733.4311 277.3740
v 1558.9616 -733.2927 277.3740
v 1563.5834 -735.5670 277.3725
f 1933 1934 1935
v 1559.0666 -733.6170 277.3740
v 1558.8599 -733.5274 277.3740
v 1559.1542 -733.4311 277.3740
f 1936 1937 1938
v 1560.1054 -731.1147 277.3740
v 1563.5834 -735.5670 277.3725
v 1558.9616 -733.2927 277.3740
f 1939 1940 1941
v 1565.7471 -732.6718 277.3723
v 1564.3525 -735.8991 277.3723
v 1560.1054 -731.1147 277.3740
f 1942 1943 1944
v 1560.1054 -731.1147 277.3740
v 1563.6908 -731.6783 277.3730
v 1565.7471 -732.6718 277.3723
f 1945 1946 1947
v 1560.7663 -730.4155 277.3739
v 1563.6908 -731.6783 277.3730
v 1560.1054 -731.1147 277.3740
f 1948 1949 1950
v 1560.7663 -730.4155 277.3739
v 1560.5639 -730.1679 277.3740
v 1560.8296 -730.2967 277.3739
f 1951 1952 1953
v 1560.7663 -730.4155 277.3739
v 1560.1054 -731.1147 277.3740
v 1560.5639 -730.1679 277.3740
f 1954 1955 1956
v 1551.0568 -729.8775 277.3763
v 1551.1521 -726.7608 277.3767
v 1558.9616 -733.2927 277.3740
f 1957 1958 1959
v 1551.0568 -729.8775 277.3763
v 1549.9033 -729.3114 277.3767
v 1551.1521 -726.7608 277.3767
f 1960 1961 1962
v 1558.9616 -733.2927 277.3740
v 1557.3420 -729.7704 277.3748
v 1560.1054 -731.1147 277.3740
f 1963 1964 1965
v 1551.1521 -726.7608 277.3767
v 1557.3420 -729.7704 277.3748
v 1558.9616 -733.2927 277.3740
f 1966 1967 1968
v 1558.8599 -733.5274 277.3740
v 1558.9616 -733.2927 277.3740
v 1559.1542 -733.4311 277.3740
f 1969 1970 1971
v 1560.5009 -730.3013 282.7368
v 1560.5008 -730.3013 282.3628
v 1560.1068 -731.1152 282.7368
f 1972 1973 1974
v 1560.1054 -731.1147 277.3740
v 1560.1068 -731.1152 282.7368
v 1560.5639 -730.1679 277.3740
f 1975 1976 1977
v 1560.1068 -731.1152 282.7368
v 1560.5008 -730.3013 282.3628
v 1560.5639 -730.1679 277.3740
f 1978 1979 1980
v 1560.5651 -730.1684 282.3408
v 1560.5639 -730.1679 277.3740
v 1560.5008 -730.3013 282.3628
f 1981 1982 1983
v 1557.3433 -729.7707 282.4746
v 1557.3420 -729.7704 277.3748
v 1551.1521 -726.7608 277.3767
f 1984 1985 1986
v 1557.3433 -729.7707 282.4746
v 1551.1521 -726.7608 277.3767
v 1551.1534 -726.7613 282.5395
f 1987 1988 1989
v 1559.9389 -731.0337 282.4919
v 1559.9390 -731.0337 282.7369
v 1560.1068 -731.1152 282.7368
f 1990 1991 1992
v 1557.3420 -729.7704 277.3748
v 1557.3433 -729.7707 282.4746
v 1560.1054 -731.1147 277.3740
f 1993 1994 1995
v 1559.9389 -731.0337 282.4919
v 1560.1054 -731.1147 277.3740
v 1557.3433 -729.7707 282.4746
f 1996 1997 1998
v 1560.1068 -731.1152 282.7368
v 1560.1054 -731.1147 277.3740
v 1559.9389 -731.0337 282.4919
f 1999 2000 2001
v 1549.9033 -729.3114 277.3767
v 1549.9107 -729.2999 282.8405
v 1551.1521 -726.7608 277.3767
f 2002 2003 2004
v 1560.5651 -730.1684 282.3408
v 1560.8308 -730.2972 282.3427
v 1560.5639 -730.1679 277.3740
f 2005 2006 2007
v 1560.8296 -730.2967 277.3739
v 1560.5639 -730.1679 277.3740
v 1560.8308 -730.2972 282.3427
f 2008 2009 2010
v 1549.9033 -729.3114 277.3767
v 1549.9047 -729.3119 282.8425
v 1549.9107 -729.2999 282.8405
f 2011 2012 2013
v 1551.0568 -729.8775 277.3763
v 1551.0581 -729.8780 282.8511
v 1549.9033 -729.3114 277.3767
f 2014 2015 2016
v 1551.0581 -729.8780 282.8511
v 1549.9047 -729.3119 282.8425
v 1549.9033 -729.3114 277.3767
f 2017 2018 2019
v 1559.0666 -733.6170 277.3740
v 1558.8613 -733.5278 282.7368
v 1558.8599 -733.5274 277.3740
f 2020 2021 2022
v 1559.1542 -733.4311 277.3740
v 1559.0680 -733.6174 282.7368
v 1559.0666 -733.6170 277.3740
f 2023 2024 2025
v 1563.5834 -735.5670 277.3725
v 1559.1556 -733.4317 282.7368
v 1559.1542 -733.4311 277.3740
f 2026 2027 2028
v 1564.3525 -735.8991 277.3723
v 1563.5848 -735.5675 282.7353
v 1563.5834 -735.5670 277.3725
f 2029 2030 2031
v 1565.7471 -732.6718 277.3723
v 1564.3538 -735.8995 282.7351
v 1564.3525 -735.8991 277.3723
f 2032 2033 2034
v 1563.6908 -731.6783 277.3730
v 1565.7485 -732.6723 282.7352
v 1565.7471 -732.6718 277.3723
f 2035 2036 2037
v 1558.8599 -733.5274 277.3740
v 1558.9629 -733.2932 282.7368
v 1558.9616 -733.2927 277.3740
f 2038 2039 2040
