# Grid Center: 2617600, 1264800
# Global Anchor: 7.64977475454284, 47.53283995868075, 0.0

g building_ID_E4C1B49A-4FE7-42B2-947A-915DEC735F5F
v 1538.5603 -77.5853 278.0486
v 1544.3271 -64.9559 278.2364
v 1536.3585 -76.6314 276.9101
f 1 2 3
v 1534.3712 -75.7711 278.0496
v 1536.3585 -76.6314 276.9101
v 1540.0710 -63.1114 278.2374
f 4 5 6
v 1534.3712 -75.7711 278.0496
v 1526.4411 -94.2526 279.4832
v 1536.3585 -76.6314 276.9101
f 7 8 9
v 1538.5603 -77.5853 278.0486
v 1530.2108 -96.6027 279.5662
v 1540.7694 -78.5422 276.9091
f 10 11 12
v 1538.5603 -77.5853 278.0486
v 1536.3585 -76.6314 276.9101
v 1530.2108 -96.6027 279.5662
f 13 14 15
v 1544.3271 -64.9559 278.2364
v 1538.5603 -77.5853 278.0486
v 1546.7932 -66.0235 278.2357
f 16 17 18
v 1536.9949 -63.8125 265.0736
v 1536.7379 -63.6986 275.5833
v 1536.7385 -63.6986 278.0602
f 19 20 21
v 1537.7430 -62.1033 274.9471
v 1537.7422 -62.1034 271.6563
v 1536.9981 -63.8123 278.0601
f 22 23 24
v 1537.7422 -62.1034 271.6563
v 1537.7413 -62.1034 268.3644
v 1536.9981 -63.8123 278.0601
f 25 26 27
v 1536.9981 -63.8123 278.0601
v 1537.7413 -62.1034 268.3644
v 1537.7405 -62.1035 265.0735
f 28 29 30
v 1536.9981 -63.8123 278.0601
v 1537.7405 -62.1035 265.0735
v 1536.9949 -63.8125 265.0736
f 31 32 33
v 1523.9003 -93.8698 275.9450
v 1523.9012 -93.8698 279.5678
v 1526.7303 -87.3984 278.6643
f 34 35 36
v 1524.6049 -92.2518 265.0763
v 1523.8976 -93.8700 265.0764
v 1523.8985 -93.8699 268.6992
f 37 38 39
v 1523.9003 -93.8698 275.9450
v 1524.6049 -92.2518 265.0763
v 1523.8985 -93.8699 268.6992
f 40 41 42
v 1523.9003 -93.8698 275.9450
v 1526.7269 -87.3986 265.0758
v 1526.0195 -89.0167 265.0760
f 43 44 45
v 1526.7269 -87.3986 265.0758
v 1523.9003 -93.8698 275.9450
v 1526.7303 -87.3984 278.6643
f 46 47 48
v 1524.6049 -92.2518 265.0763
v 1523.9003 -93.8698 275.9450
v 1526.0195 -89.0167 265.0760
f 49 50 51
v 1526.5121 -87.3050 265.0759
v 1526.7269 -87.3986 265.0758
v 1526.5143 -87.3049 273.5686
f 52 53 54
v 1544.3271 -64.9559 278.2364
v 1540.0710 -63.1114 278.2374
v 1536.3585 -76.6314 276.9101
f 55 56 57
v 1540.7694 -78.5422 276.9091
v 1546.7932 -66.0235 278.2357
v 1538.5603 -77.5853 278.0486
f 58 59 60
v 1546.7932 -66.0235 278.2357
v 1540.7694 -78.5422 276.9091
v 1548.4223 -66.7288 278.2353
f 61 62 63
v 1544.7787 -80.2779 276.9081
v 1548.4223 -66.7288 278.2353
v 1540.7694 -78.5422 276.9091
f 64 65 66
v 1552.7392 -68.5984 278.2343
v 1544.7787 -80.2779 276.9081
v 1547.0849 -81.2771 276.9075
f 67 68 69
v 1548.4223 -66.7288 278.2353
v 1544.7787 -80.2779 276.9081
v 1552.7392 -68.5984 278.2343
f 70 71 72
v 1551.1065 -83.0188 277.8555
v 1556.6826 -70.3059 278.2333
v 1549.0697 -82.1374 276.9070
f 73 74 75
v 1547.0853 -81.2781 278.0465
v 1549.0697 -82.1374 276.9070
v 1552.7392 -68.5984 278.2343
f 76 77 78
v 1567.2202 -74.8691 278.2307
v 1564.9729 -73.8971 278.2312
v 1561.7038 -87.6082 276.9039
f 79 80 81
v 1556.6826 -70.3059 278.2333
v 1552.7392 -68.5984 278.2343
v 1549.0697 -82.1374 276.9070
f 82 83 84
v 1551.1063 -83.0188 276.9065
v 1551.1065 -83.0188 277.8555
v 1549.0697 -82.1374 276.9070
f 85 86 87
v 1551.1063 -83.0188 276.9065
v 1556.6826 -70.3059 278.2333
v 1551.1065 -83.0188 277.8555
f 88 89 90
v 1547.0849 -81.2771 276.9075
v 1547.0853 -81.2781 278.0465
v 1552.7392 -68.5984 278.2343
f 91 92 93
v 1547.0849 -81.2771 276.9075
v 1549.0697 -82.1374 276.9070
v 1547.0853 -81.2781 278.0465
f 94 95 96
v 1553.4496 -106.6669 279.5605
v 1561.7038 -87.6082 276.9039
v 1551.3001 -105.7351 279.5610
f 97 98 99
v 1559.4567 -86.6362 277.8534
v 1564.9729 -73.8971 278.2312
v 1557.3499 -85.7225 276.9049
f 100 101 102
v 1559.4567 -86.6362 277.8534
v 1561.7038 -87.6082 276.9039
v 1564.9729 -73.8971 278.2312
f 103 104 105
v 1559.4567 -86.6362 277.8534
v 1551.3001 -105.7351 279.5610
v 1561.7038 -87.6082 276.9039
f 106 107 108
v 1559.4567 -86.6362 277.8534
v 1557.3499 -85.7225 276.9049
v 1551.3001 -105.7351 279.5610
f 109 110 111
v 1557.3499 -85.7225 276.9049
v 1556.6826 -70.3059 278.2333
v 1551.1063 -83.0188 276.9065
f 112 113 114
v 1563.3548 -73.1957 278.2316
v 1557.3499 -85.7225 276.9049
v 1564.9729 -73.8971 278.2312
f 115 116 117
v 1556.6826 -70.3059 278.2333
v 1557.3499 -85.7225 276.9049
v 1563.3548 -73.1957 278.2316
f 118 119 120
v 1538.6259 -100.2472 279.5642
v 1546.7964 -103.7850 279.5621
v 1551.1063 -83.0188 276.9065
f 121 122 123
v 1546.7964 -103.7850 279.5621
v 1551.3001 -105.7351 279.5610
v 1557.3499 -85.7225 276.9049
f 124 125 126
v 1551.1063 -83.0188 276.9065
v 1546.7964 -103.7850 279.5621
v 1557.3499 -85.7225 276.9049
f 127 128 129
v 1538.6259 -100.2472 279.5642
v 1551.1063 -83.0188 276.9065
v 1549.0697 -82.1374 276.9070
f 130 131 132
v 1534.5657 -98.4883 279.5652
v 1544.7787 -80.2779 276.9081
v 1540.7694 -78.5422 276.9091
f 133 134 135
v 1538.6259 -100.2472 279.5642
v 1547.0849 -81.2771 276.9075
v 1544.7787 -80.2779 276.9081
f 136 137 138
v 1538.6259 -100.2472 279.5642
v 1544.7787 -80.2779 276.9081
v 1534.5657 -98.4883 279.5652
f 139 140 141
v 1530.2108 -96.6027 279.5662
v 1534.5657 -98.4883 279.5652
v 1540.7694 -78.5422 276.9091
f 142 143 144
v 1549.0697 -82.1374 276.9070
v 1547.0849 -81.2771 276.9075
v 1538.6259 -100.2472 279.5642
f 145 146 147
v 1526.5143 -87.3049 273.5686
v 1526.5369 -87.2470 275.5855
v 1526.5373 -87.2481 265.0759
f 148 149 150
v 1536.7379 -63.6986 275.5833
v 1531.9607 -74.7276 276.9113
v 1536.7385 -63.6986 278.0602
f 151 152 153
v 1526.5369 -87.2470 275.5855
v 1526.5155 -87.3049 278.6644
v 1531.9607 -74.7276 276.9113
f 154 155 156
v 1526.5121 -87.3050 265.0759
v 1526.5143 -87.3049 273.5686
v 1526.5373 -87.2481 265.0759
f 157 158 159
v 1531.9607 -74.7276 276.9113
v 1536.7379 -63.6986 275.5833
v 1526.5369 -87.2470 275.5855
f 160 161 162
v 1526.5143 -87.3049 273.5686
v 1526.5155 -87.3049 278.6644
v 1526.5369 -87.2470 275.5855
f 163 164 165
v 1561.7009 -87.6083 265.0673
v 1567.2168 -74.8692 265.0661
v 1567.2202 -74.8691 278.2307
f 166 167 168
v 1561.7038 -87.6082 276.9039
v 1561.7009 -87.6083 265.0673
v 1567.2202 -74.8691 278.2307
f 169 170 171
v 1561.7009 -87.6083 265.0673
v 1561.7038 -87.6082 276.9039
v 1553.4459 -106.6669 265.0690
f 172 173 174
v 1553.4496 -106.6669 279.5605
v 1553.4459 -106.6669 265.0690
v 1561.7038 -87.6082 276.9039
f 175 176 177
v 1501.5417 -76.3914 265.0819
v 1501.5443 -76.3912 275.5915
v 1511.8393 -52.8361 275.5894
f 178 179 180
v 1509.4643 -79.8535 265.0800
v 1509.4669 -79.8533 275.5896
v 1501.5443 -76.3912 275.5915
f 181 182 183
v 1511.8366 -52.8362 265.0797
v 1511.8393 -52.8361 275.5894
v 1517.6264 -55.3425 275.5879
f 184 185 186
v 1534.3712 -75.7711 278.0496
v 1540.0710 -63.1114 278.2374
v 1533.0394 -75.1955 276.9111
f 187 188 189
v 1534.3712 -75.7711 278.0496
v 1533.0394 -75.1955 276.9111
v 1524.8501 -94.2804 279.5686
f 190 191 192
v 1524.8501 -94.2804 279.5686
v 1526.1166 -94.8287 279.5673
v 1534.3712 -75.7711 278.0496
f 193 194 195
v 1526.1815 -94.8570 279.5672
v 1534.3712 -75.7711 278.0496
v 1526.1166 -94.8287 279.5673
f 196 197 198
v 1526.4411 -94.2526 279.4832
v 1530.2108 -96.6027 279.5662
v 1536.3585 -76.6314 276.9101
f 199 200 201
v 1530.2108 -96.6027 279.5662
v 1526.4411 -94.2526 279.4832
v 1526.1815 -94.8570 279.5672
f 202 203 204
v 1526.7303 -87.3984 278.6643
v 1524.8501 -94.2804 279.5686
v 1533.0394 -75.1955 276.9111
f 205 206 207
v 1531.9607 -74.7276 276.9113
v 1526.7303 -87.3984 278.6643
v 1533.0394 -75.1955 276.9111
f 208 209 210
v 1526.7303 -87.3984 278.6643
v 1523.9012 -93.8698 279.5678
v 1524.8501 -94.2804 279.5686
f 211 212 213
v 1526.5155 -87.3049 278.6644
v 1526.7303 -87.3984 278.6643
v 1531.9607 -74.7276 276.9113
f 214 215 216
v 1533.0394 -75.1955 276.9111
v 1536.9981 -63.8123 278.0601
v 1531.9607 -74.7276 276.9113
f 217 218 219
v 1536.7385 -63.6986 278.0602
v 1531.9607 -74.7276 276.9113
v 1536.9981 -63.8123 278.0601
f 220 221 222
v 1540.0710 -63.1114 278.2374
v 1537.7438 -62.1033 278.2380
v 1536.9981 -63.8123 278.0601
f 223 224 225
v 1533.0394 -75.1955 276.9111
v 1540.0710 -63.1114 278.2374
v 1536.9981 -63.8123 278.0601
f 226 227 228
v 1561.7009 -87.6083 265.0673
v 1553.4459 -106.6669 265.0690
v 1551.2964 -105.7362 265.0695
f 229 230 231
v 1538.6223 -100.2473 265.0727
v 1561.7009 -87.6083 265.0673
v 1546.7927 -103.7851 265.0706
f 232 233 234
v 1551.2964 -105.7362 265.0695
v 1546.7927 -103.7851 265.0706
v 1561.7009 -87.6083 265.0673
f 235 236 237
v 1552.6739 -68.5714 265.0698
v 1561.7009 -87.6083 265.0673
v 1538.6223 -100.2473 265.0727
f 238 239 240
v 1531.9577 -74.7278 265.0747
v 1538.6223 -100.2473 265.0727
v 1534.5620 -98.4884 265.0737
f 241 242 243
v 1552.6739 -68.5714 265.0698
v 1538.6223 -100.2473 265.0727
v 1531.9577 -74.7278 265.0747
f 244 245 246
v 1526.7269 -87.3986 265.0758
v 1534.5620 -98.4884 265.0737
v 1530.2071 -96.6029 265.0748
f 247 248 249
v 1552.6739 -68.5714 265.0698
v 1564.9695 -73.8963 265.0666
v 1561.7009 -87.6083 265.0673
f 250 251 252
v 1567.2168 -74.8692 265.0661
v 1561.7009 -87.6083 265.0673
v 1564.9695 -73.8963 265.0666
f 253 254 255
v 1546.7899 -66.0236 265.0712
v 1531.9577 -74.7278 265.0747
v 1544.3237 -64.9561 265.0719
f 256 257 258
v 1531.9577 -74.7278 265.0747
v 1548.4190 -66.7290 265.0708
v 1552.6739 -68.5714 265.0698
f 259 260 261
v 1548.4190 -66.7290 265.0708
v 1531.9577 -74.7278 265.0747
v 1546.7899 -66.0236 265.0712
f 262 263 264
v 1526.7269 -87.3986 265.0758
v 1530.2071 -96.6029 265.0748
v 1526.0195 -89.0167 265.0760
f 265 266 267
v 1524.8465 -94.2805 265.0762
v 1524.6049 -92.2518 265.0763
v 1526.1150 -94.8258 265.0758
f 268 269 270
v 1534.5620 -98.4884 265.0737
v 1526.7269 -87.3986 265.0758
v 1531.9577 -74.7278 265.0747
f 271 272 273
v 1524.6049 -92.2518 265.0763
v 1526.0195 -89.0167 265.0760
v 1526.1150 -94.8258 265.0758
f 274 275 276
v 1524.6049 -92.2518 265.0763
v 1524.8465 -94.2805 265.0762
v 1523.8976 -93.8700 265.0764
f 277 278 279
v 1540.0657 -63.1107 265.0729
v 1536.9949 -63.8125 265.0736
v 1537.7405 -62.1035 265.0735
f 280 281 282
v 1544.3237 -64.9561 265.0719
v 1531.9577 -74.7278 265.0747
v 1536.9949 -63.8125 265.0736
f 283 284 285
v 1536.9949 -63.8125 265.0736
v 1540.0657 -63.1107 265.0729
v 1544.3237 -64.9561 265.0719
f 286 287 288
v 1531.9577 -74.7278 265.0747
v 1526.7269 -87.3986 265.0758
v 1526.5373 -87.2481 265.0759
f 289 290 291
v 1526.5373 -87.2481 265.0759
v 1526.7269 -87.3986 265.0758
v 1526.5121 -87.3050 265.0759
f 292 293 294
v 1530.2071 -96.6029 265.0748
v 1526.1150 -94.8258 265.0758
v 1526.0195 -89.0167 265.0760
f 295 296 297
v 1553.4496 -106.6669 279.5605
v 1551.3001 -105.7351 279.5610
v 1551.2964 -105.7362 265.0695
f 298 299 300
v 1551.3001 -105.7351 279.5610
v 1546.7964 -103.7850 279.5621
v 1546.7927 -103.7851 265.0706
f 301 302 303
v 1538.6259 -100.2472 279.5642
v 1534.5657 -98.4883 279.5652
v 1534.5620 -98.4884 265.0737
f 304 305 306
v 1534.5657 -98.4883 279.5652
v 1530.2108 -96.6027 279.5662
v 1530.2071 -96.6029 265.0748
f 307 308 309
v 1546.7964 -103.7850 279.5621
v 1538.6259 -100.2472 279.5642
v 1538.6223 -100.2473 265.0727
f 310 311 312
v 1530.2071 -96.6029 265.0748
v 1530.2108 -96.6027 279.5662
v 1523.9003 -93.8698 275.9450
f 313 314 315
v 1523.9003 -93.8698 275.9450
v 1526.1815 -94.8570 279.5672
v 1526.1166 -94.8287 279.5673
f 316 317 318
v 1523.9003 -93.8698 275.9450
v 1526.1166 -94.8287 279.5673
v 1524.8501 -94.2804 279.5686
f 319 320 321
v 1524.8501 -94.2804 279.5686
v 1523.9012 -93.8698 279.5678
v 1523.9003 -93.8698 275.9450
f 322 323 324
v 1523.8985 -93.8699 268.6992
v 1526.1150 -94.8258 265.0758
v 1530.2071 -96.6029 265.0748
f 325 326 327
v 1523.8976 -93.8700 265.0764
v 1524.8465 -94.2805 265.0762
v 1523.8985 -93.8699 268.6992
f 328 329 330
v 1526.1150 -94.8258 265.0758
v 1523.8985 -93.8699 268.6992
v 1524.8465 -94.2805 265.0762
f 331 332 333
v 1523.8985 -93.8699 268.6992
v 1530.2071 -96.6029 265.0748
v 1523.9003 -93.8698 275.9450
f 334 335 336
v 1523.9003 -93.8698 275.9450
v 1530.2108 -96.6027 279.5662
v 1526.1815 -94.8570 279.5672
f 337 338 339
v 1537.7430 -62.1033 274.9471
v 1537.7438 -62.1033 278.2380
v 1540.0710 -63.1114 278.2374
f 340 341 342
v 1537.7430 -62.1033 274.9471
v 1540.0710 -63.1114 278.2374
v 1544.3271 -64.9559 278.2364
f 343 344 345
v 1537.7430 -62.1033 274.9471
v 1544.3271 -64.9559 278.2364
v 1546.7932 -66.0235 278.2357
f 346 347 348
v 1548.4223 -66.7288 278.2353
v 1537.7422 -62.1034 271.6563
v 1537.7430 -62.1033 274.9471
f 349 350 351
v 1546.7899 -66.0236 265.0712
v 1544.3237 -64.9561 265.0719
v 1537.7413 -62.1034 268.3644
f 352 353 354
v 1540.0657 -63.1107 265.0729
v 1537.7405 -62.1035 265.0735
v 1537.7413 -62.1034 268.3644
f 355 356 357
v 1537.7413 -62.1034 268.3644
v 1544.3237 -64.9561 265.0719
v 1540.0657 -63.1107 265.0729
f 358 359 360
v 1537.7422 -62.1034 271.6563
v 1548.4190 -66.7290 265.0708
v 1537.7413 -62.1034 268.3644
f 361 362 363
v 1546.7932 -66.0235 278.2357
v 1548.4223 -66.7288 278.2353
v 1537.7430 -62.1033 274.9471
f 364 365 366
v 1537.7422 -62.1034 271.6563
v 1552.7392 -68.5984 278.2343
v 1552.6739 -68.5714 265.0698
f 367 368 369
v 1563.3548 -73.1957 278.2316
v 1564.9729 -73.8971 278.2312
v 1564.9695 -73.8963 265.0666
f 370 371 372
v 1564.9729 -73.8971 278.2312
v 1567.2202 -74.8691 278.2307
v 1567.2168 -74.8692 265.0661
f 373 374 375
v 1556.6826 -70.3059 278.2333
v 1563.3548 -73.1957 278.2316
v 1552.6739 -68.5714 265.0698
f 376 377 378
v 1548.4190 -66.7290 265.0708
v 1546.7899 -66.0236 265.0712
v 1537.7413 -62.1034 268.3644
f 379 380 381
v 1552.6739 -68.5714 265.0698
v 1548.4190 -66.7290 265.0708
v 1537.7422 -62.1034 271.6563
f 382 383 384
v 1537.7422 -62.1034 271.6563
v 1548.4223 -66.7288 278.2353
v 1552.7392 -68.5984 278.2343
f 385 386 387
v 1526.4411 -94.2526 279.4832
v 1534.3712 -75.7711 278.0496
v 1526.1815 -94.8570 279.5672
f 388 389 390
v 1536.9949 -63.8125 265.0736
v 1517.6239 -55.3427 265.0783
v 1517.6264 -55.3425 275.5879
f 391 392 393
v 1536.7379 -63.6986 275.5833
v 1536.9949 -63.8125 265.0736
v 1517.6264 -55.3425 275.5879
f 394 395 396
v 1501.5443 -76.3912 275.5915
v 1509.4669 -79.8533 275.5896
v 1517.6264 -55.3425 275.5879
f 397 398 399
v 1526.5369 -87.2470 275.5855
v 1536.7379 -63.6986 275.5833
v 1509.4669 -79.8533 275.5896
f 400 401 402
v 1501.5443 -76.3912 275.5915
v 1517.6264 -55.3425 275.5879
v 1511.8393 -52.8361 275.5894
f 403 404 405
v 1536.7379 -63.6986 275.5833
v 1517.6264 -55.3425 275.5879
v 1509.4669 -79.8533 275.5896
f 406 407 408
v 1509.4643 -79.8535 265.0800
v 1526.5373 -87.2481 265.0759
v 1526.5369 -87.2470 275.5855
f 409 410 411
v 1511.8366 -52.8362 265.0797
v 1517.6239 -55.3427 265.0783
v 1531.9577 -74.7278 265.0747
f 412 413 414
v 1536.9949 -63.8125 265.0736
v 1531.9577 -74.7278 265.0747
v 1517.6239 -55.3427 265.0783
f 415 416 417
v 1509.4643 -79.8535 265.0800
v 1531.9577 -74.7278 265.0747
v 1526.5373 -87.2481 265.0759
f 418 419 420
v 1531.9577 -74.7278 265.0747
v 1509.4643 -79.8535 265.0800
v 1501.5417 -76.3914 265.0819
f 421 422 423
v 1511.8366 -52.8362 265.0797
v 1531.9577 -74.7278 265.0747
v 1501.5417 -76.3914 265.0819
f 424 425 426
v 1536.7385 -63.6986 278.0602
v 1536.9981 -63.8123 278.0601
v 1536.9949 -63.8125 265.0736
f 427 428 429
v 1537.7430 -62.1033 274.9471
v 1536.9981 -63.8123 278.0601
v 1537.7438 -62.1033 278.2380
f 430 431 432
v 1526.7269 -87.3986 265.0758
v 1526.7303 -87.3984 278.6643
v 1526.5155 -87.3049 278.6644
f 433 434 435
v 1526.5143 -87.3049 273.5686
v 1526.7269 -87.3986 265.0758
v 1526.5155 -87.3049 278.6644
f 436 437 438
v 1501.5417 -76.3914 265.0819
v 1511.8393 -52.8361 275.5894
v 1511.8366 -52.8362 265.0797
f 439 440 441
v 1509.4643 -79.8535 265.0800
v 1501.5443 -76.3912 275.5915
v 1501.5417 -76.3914 265.0819
f 442 443 444
v 1511.8366 -52.8362 265.0797
v 1517.6264 -55.3425 275.5879
v 1517.6239 -55.3427 265.0783
f 445 446 447
v 1553.4496 -106.6669 279.5605
v 1551.2964 -105.7362 265.0695
v 1553.4459 -106.6669 265.0690
f 448 449 450
v 1551.3001 -105.7351 279.5610
v 1546.7927 -103.7851 265.0706
v 1551.2964 -105.7362 265.0695
f 451 452 453
v 1538.6259 -100.2472 279.5642
v 1534.5620 -98.4884 265.0737
v 1538.6223 -100.2473 265.0727
f 454 455 456
v 1534.5657 -98.4883 279.5652
v 1530.2071 -96.6029 265.0748
v 1534.5620 -98.4884 265.0737
f 457 458 459
v 1546.7964 -103.7850 279.5621
v 1538.6223 -100.2473 265.0727
v 1546.7927 -103.7851 265.0706
f 460 461 462
v 1556.6826 -70.3059 278.2333
v 1552.6739 -68.5714 265.0698
v 1552.7392 -68.5984 278.2343
f 463 464 465
v 1563.3548 -73.1957 278.2316
v 1564.9695 -73.8963 265.0666
v 1552.6739 -68.5714 265.0698
f 466 467 468
v 1564.9729 -73.8971 278.2312
v 1567.2168 -74.8692 265.0661
v 1564.9695 -73.8963 265.0666
f 469 470 471
v 1509.4643 -79.8535 265.0800
v 1526.5369 -87.2470 275.5855
v 1509.4669 -79.8533 275.5896
f 472 473 474

g building_ID_2B286D35-3D4E-4F8F-A22E-EA6279215265
v 1562.4434 -75.0904 265.0672
v 1557.1028 -86.1400 265.0684
v 1546.7927 -103.7861 265.0706
f 475 476 477
v 1555.2616 -84.8190 277.8545
v 1546.7964 -103.7860 279.5621
v 1557.3499 -85.7225 276.9049
f 478 479 480
v 1557.3499 -85.7225 276.9049
v 1557.1055 -86.1399 275.5781
v 1557.3496 -85.7225 275.5780
f 481 482 483
v 1557.1028 -86.1400 265.0684
v 1546.7964 -103.7860 279.5621
v 1546.7927 -103.7861 265.0706
f 484 485 486
v 1557.3499 -85.7225 276.9049
v 1546.7964 -103.7860 279.5621
v 1557.1055 -86.1399 275.5781
f 487 488 489
v 1557.1055 -86.1399 275.5781
v 1546.7964 -103.7860 279.5621
v 1557.1028 -86.1400 265.0684
f 490 491 492
v 1562.4434 -75.0904 265.0672
v 1546.7927 -103.7861 265.0706
v 1560.9173 -72.1414 265.0676
f 493 494 495
v 1555.2616 -84.8190 277.8545
v 1553.3926 -84.0100 276.9059
v 1546.7964 -103.7860 279.5621
f 496 497 498
v 1556.4826 -100.4032 265.0683
v 1556.4853 -100.4031 275.5779
v 1556.4621 -100.4560 275.5779
f 499 500 501
v 1562.2738 -102.9326 265.0669
v 1562.2765 -102.9326 275.5765
v 1556.4853 -100.4031 275.5779
f 502 503 504
v 1572.4536 -79.4252 265.0647
v 1572.4563 -79.4251 275.5743
v 1562.2765 -102.9326 275.5765
f 505 506 507
v 1562.4434 -75.0904 265.0672
v 1562.4460 -75.0903 275.5769
v 1572.4563 -79.4251 275.5743
f 508 509 510
v 1556.4595 -100.4561 265.0684
v 1556.4621 -100.4560 275.5779
v 1551.7837 -98.4295 275.5791
f 511 512 513
v 1556.4853 -100.4031 275.5779
v 1572.4563 -79.4251 275.5743
v 1557.3496 -85.7225 275.5780
f 514 515 516
v 1557.3496 -85.7225 275.5780
v 1572.4563 -79.4251 275.5743
v 1562.4460 -75.0903 275.5769
f 517 518 519
v 1556.4853 -100.4031 275.5779
v 1557.3496 -85.7225 275.5780
v 1557.1055 -86.1399 275.5781
f 520 521 522
v 1556.4853 -100.4031 275.5779
v 1551.7837 -98.4295 275.5791
v 1556.4621 -100.4560 275.5779
f 523 524 525
v 1572.4563 -79.4251 275.5743
v 1556.4853 -100.4031 275.5779
v 1562.2765 -102.9326 275.5765
f 526 527 528
v 1557.1055 -86.1399 275.5781
v 1551.7837 -98.4295 275.5791
v 1556.4853 -100.4031 275.5779
f 529 530 531
v 1551.7810 -98.4296 265.0695
v 1551.7837 -98.4295 275.5791
v 1557.1055 -86.1399 275.5781
f 532 533 534
v 1557.3499 -85.7225 276.9049
v 1563.3548 -73.1957 278.2316
v 1555.2616 -84.8190 277.8545
f 535 536 537
v 1560.9207 -72.1412 278.2322
v 1555.2616 -84.8190 277.8545
v 1563.3548 -73.1957 278.2316
f 538 539 540
v 1560.9173 -72.1414 265.0676
v 1560.9207 -72.1412 278.2322
v 1563.3548 -73.1957 278.2316
f 541 542 543
v 1556.4826 -100.4032 265.0683
v 1551.7810 -98.4296 265.0695
v 1557.1028 -86.1400 265.0684
f 544 545 546
v 1551.7810 -98.4296 265.0695
v 1556.4826 -100.4032 265.0683
v 1556.4595 -100.4561 265.0684
f 547 548 549
v 1556.4826 -100.4032 265.0683
v 1572.4536 -79.4252 265.0647
v 1562.2738 -102.9326 265.0669
f 550 551 552
v 1557.1028 -86.1400 265.0684
v 1562.4434 -75.0904 265.0672
v 1572.4536 -79.4252 265.0647
f 553 554 555
v 1556.4826 -100.4032 265.0683
v 1557.1028 -86.1400 265.0684
v 1572.4536 -79.4252 265.0647
f 556 557 558
v 1562.4434 -75.0904 265.0672
v 1560.9173 -72.1414 265.0676
v 1563.3514 -73.1959 265.0670
f 559 560 561
v 1562.4434 -75.0904 265.0672
v 1563.3514 -73.1959 265.0670
v 1562.4460 -75.0903 275.5769
f 562 563 564
v 1563.3548 -73.1957 278.2316
v 1562.4460 -75.0903 275.5769
v 1563.3514 -73.1959 265.0670
f 565 566 567
v 1557.3496 -85.7225 275.5780
v 1562.4460 -75.0903 275.5769
v 1557.3499 -85.7225 276.9049
f 568 569 570
v 1563.3548 -73.1957 278.2316
v 1557.3499 -85.7225 276.9049
v 1562.4460 -75.0903 275.5769
f 571 572 573
v 1555.2616 -84.8190 277.8545
v 1560.9207 -72.1412 278.2322
v 1553.3926 -84.0100 276.9059
f 574 575 576
v 1560.9207 -72.1412 278.2322
v 1556.6826 -70.3059 278.2333
v 1553.3926 -84.0100 276.9059
f 577 578 579
v 1556.6793 -70.3061 265.0687
v 1556.6826 -70.3059 278.2333
v 1560.9207 -72.1412 278.2322
f 580 581 582
v 1551.1032 -83.0190 265.0699
v 1556.6793 -70.3061 265.0687
v 1560.9173 -72.1414 265.0676
f 583 584 585
v 1551.1065 -83.0188 277.8555
v 1553.3926 -84.0100 276.9059
v 1556.6826 -70.3059 278.2333
f 586 587 588
v 1551.1032 -83.0190 265.0699
v 1551.1065 -83.0188 277.8555
v 1556.6793 -70.3061 265.0687
f 589 590 591
v 1551.1032 -83.0190 265.0699
v 1560.9173 -72.1414 265.0676
v 1542.7584 -102.0383 265.0716
f 592 593 594
v 1551.1065 -83.0188 277.8555
v 1542.7621 -102.0382 279.5631
v 1553.3926 -84.0100 276.9059
f 595 596 597
v 1551.1032 -83.0190 265.0699
v 1542.7584 -102.0383 265.0716
v 1549.0666 -82.1375 265.0704
f 598 599 600
v 1551.1065 -83.0188 277.8555
v 1549.0697 -82.1374 276.9070
v 1542.7621 -102.0382 279.5631
f 601 602 603
v 1549.0666 -82.1375 265.0704
v 1549.0697 -82.1374 276.9070
v 1551.1032 -83.0190 265.0699
f 604 605 606
v 1546.7927 -103.7861 265.0706
v 1542.7584 -102.0383 265.0716
v 1560.9173 -72.1414 265.0676
f 607 608 609
v 1546.7964 -103.7860 279.5621
v 1553.3926 -84.0100 276.9059
v 1542.7621 -102.0382 279.5631
f 610 611 612
v 1546.7927 -103.7861 265.0706
v 1546.7964 -103.7860 279.5621
v 1542.7621 -102.0382 279.5631
f 613 614 615
v 1534.5620 -98.4884 265.0737
v 1540.7664 -78.5424 265.0726
v 1548.4190 -66.7290 265.0708
f 616 617 618
v 1542.8712 -79.4528 278.0475
v 1548.4223 -66.7288 278.2353
v 1540.7694 -78.5422 276.9091
f 619 620 621
v 1540.7664 -78.5424 265.0726
v 1540.7694 -78.5422 276.9091
v 1548.4190 -66.7290 265.0708
f 622 623 624
v 1534.5620 -98.4884 265.0737
v 1548.4190 -66.7290 265.0708
v 1544.7757 -80.2781 265.0715
f 625 626 627
v 1542.8712 -79.4528 278.0475
v 1544.7787 -80.2779 276.9081
v 1548.4223 -66.7288 278.2353
f 628 629 630
v 1542.8712 -79.4528 278.0475
v 1534.5657 -98.4883 279.5652
v 1544.7787 -80.2779 276.9081
f 631 632 633
v 1544.7757 -80.2781 265.0715
v 1544.7787 -80.2779 276.9081
v 1534.5620 -98.4884 265.0737
f 634 635 636
v 1542.8712 -79.4528 278.0475
v 1540.7694 -78.5422 276.9091
v 1534.5657 -98.4883 279.5652
f 637 638 639
v 1534.5620 -98.4884 265.0737
v 1534.5657 -98.4883 279.5652
v 1540.7694 -78.5422 276.9091
f 640 641 642
v 1547.0820 -81.2782 265.0709
v 1549.0666 -82.1375 265.0704
v 1538.6223 -100.2463 265.0727
f 643 644 645
v 1547.0853 -81.2781 278.0465
v 1538.6259 -100.2462 279.5642
v 1549.0697 -82.1374 276.9070
f 646 647 648
v 1547.0820 -81.2782 265.0709
v 1547.0853 -81.2781 278.0465
v 1549.0697 -82.1374 276.9070
f 649 650 651
v 1547.0820 -81.2782 265.0709
v 1538.6223 -100.2463 265.0727
v 1544.7757 -80.2781 265.0715
f 652 653 654
v 1547.0853 -81.2781 278.0465
v 1544.7787 -80.2779 276.9081
v 1538.6259 -100.2462 279.5642
f 655 656 657
v 1538.6223 -100.2463 265.0727
v 1538.6259 -100.2462 279.5642
v 1544.7787 -80.2779 276.9081
f 658 659 660
v 1542.7584 -102.0383 265.0716
v 1538.6223 -100.2463 265.0727
v 1549.0666 -82.1375 265.0704
f 661 662 663
v 1542.7621 -102.0382 279.5631
v 1549.0697 -82.1374 276.9070
v 1538.6259 -100.2462 279.5642
f 664 665 666
v 1542.7584 -102.0383 265.0716
v 1542.7621 -102.0382 279.5631
v 1538.6259 -100.2462 279.5642
f 667 668 669
v 1547.0820 -81.2782 265.0709
v 1544.7757 -80.2781 265.0715
v 1552.7358 -68.5985 265.0698
f 670 671 672
v 1547.0853 -81.2781 278.0465
v 1552.7392 -68.5984 278.2343
v 1544.7787 -80.2779 276.9081
f 673 674 675
v 1552.7358 -68.5985 265.0698
v 1552.7392 -68.5984 278.2343
v 1547.0853 -81.2781 278.0465
f 676 677 678
v 1548.4190 -66.7290 265.0708
v 1552.7358 -68.5985 265.0698
v 1544.7757 -80.2781 265.0715
f 679 680 681
v 1548.4223 -66.7288 278.2353
v 1544.7787 -80.2779 276.9081
v 1552.7392 -68.5984 278.2343
f 682 683 684
v 1548.4190 -66.7290 265.0708
v 1548.4223 -66.7288 278.2353
v 1552.7392 -68.5984 278.2343
f 685 686 687
v 1556.4826 -100.4032 265.0683
v 1556.4621 -100.4560 275.5779
v 1556.4595 -100.4561 265.0684
f 688 689 690
v 1562.2738 -102.9326 265.0669
v 1556.4853 -100.4031 275.5779
v 1556.4826 -100.4032 265.0683
f 691 692 693
v 1572.4536 -79.4252 265.0647
v 1562.2765 -102.9326 275.5765
v 1562.2738 -102.9326 265.0669
f 694 695 696
v 1562.4434 -75.0904 265.0672
v 1572.4563 -79.4251 275.5743
v 1572.4536 -79.4252 265.0647
f 697 698 699
v 1556.4595 -100.4561 265.0684
v 1551.7837 -98.4295 275.5791
v 1551.7810 -98.4296 265.0695
f 700 701 702
v 1551.7810 -98.4296 265.0695
v 1557.1055 -86.1399 275.5781
v 1557.1028 -86.1400 265.0684
f 703 704 705
v 1560.9173 -72.1414 265.0676
v 1563.3548 -73.1957 278.2316
v 1563.3514 -73.1959 265.0670
f 706 707 708
v 1556.6793 -70.3061 265.0687
v 1560.9207 -72.1412 278.2322
v 1560.9173 -72.1414 265.0676
f 709 710 711
v 1551.1065 -83.0188 277.8555
v 1556.6826 -70.3059 278.2333
v 1556.6793 -70.3061 265.0687
f 712 713 714
v 1549.0697 -82.1374 276.9070
v 1551.1065 -83.0188 277.8555
v 1551.1032 -83.0190 265.0699
f 715 716 717
v 1546.7927 -103.7861 265.0706
v 1542.7621 -102.0382 279.5631
v 1542.7584 -102.0383 265.0716
f 718 719 720
v 1540.7694 -78.5422 276.9091
v 1548.4223 -66.7288 278.2353
v 1548.4190 -66.7290 265.0708
f 721 722 723
v 1544.7787 -80.2779 276.9081
v 1534.5657 -98.4883 279.5652
v 1534.5620 -98.4884 265.0737
f 724 725 726
v 1534.5620 -98.4884 265.0737
v 1540.7694 -78.5422 276.9091
v 1540.7664 -78.5424 265.0726
f 727 728 729
v 1547.0820 -81.2782 265.0709
v 1549.0697 -82.1374 276.9070
v 1549.0666 -82.1375 265.0704
f 730 731 732
v 1538.6223 -100.2463 265.0727
v 1544.7787 -80.2779 276.9081
v 1544.7757 -80.2781 265.0715
f 733 734 735
v 1542.7584 -102.0383 265.0716
v 1538.6259 -100.2462 279.5642
v 1538.6223 -100.2463 265.0727
f 736 737 738
v 1552.7358 -68.5985 265.0698
v 1547.0853 -81.2781 278.0465
v 1547.0820 -81.2782 265.0709
f 739 740 741
v 1548.4190 -66.7290 265.0708
v 1552.7392 -68.5984 278.2343
v 1552.7358 -68.5985 265.0698
f 742 743 744

g building_ID_EA7EFB26-9C1A-4821-9D6C-C4EBEC4333D9
v 1737.1281 -103.9749 263.3455
v 1746.2780 -100.2216 263.3431
v 1742.0056 -111.5979 263.3441
f 745 746 747
v 1738.3033 -98.6731 263.3453
v 1746.2780 -100.2216 263.3431
v 1738.2263 -99.0189 263.3453
f 748 749 750
v 1737.1281 -103.9749 263.3455
v 1738.2263 -99.0189 263.3453
v 1746.2780 -100.2216 263.3431
f 751 752 753
v 1737.1281 -103.9749 263.3455
v 1742.0056 -111.5979 263.3441
v 1738.4939 -111.5055 263.3450
f 754 755 756
v 1741.8062 -112.1283 263.3441
v 1738.4939 -111.5055 263.3450
v 1742.0056 -111.5979 263.3441
f 757 758 759
v 1738.4939 -111.5055 263.3450
v 1735.6513 -110.6329 263.3458
v 1737.1281 -103.9749 263.3455
f 760 761 762
v 1735.5197 -111.2275 263.3458
v 1735.6513 -110.6329 263.3458
v 1738.4939 -111.5055 263.3450
f 763 764 765
v 1738.4219 -111.8853 263.3450
v 1735.5197 -111.2275 263.3458
v 1738.4939 -111.5055 263.3450
f 766 767 768
v 1735.5197 -111.2275 263.3458
v 1738.4219 -111.8853 263.3450
v 1735.4792 -111.4084 263.3459
f 769 770 771
v 1741.1593 -110.9866 277.7168
v 1735.6552 -110.6328 277.1973
v 1735.5233 -111.2275 276.0354
f 772 773 774
v 1735.6552 -110.6328 277.1973
v 1741.1593 -110.9866 277.7168
v 1736.2684 -110.2604 278.0382
f 775 776 777
v 1735.5233 -111.2275 276.0354
v 1738.4976 -111.5055 276.2966
v 1741.1593 -110.9866 277.7168
f 778 779 780
v 1738.4976 -111.5055 276.2966
v 1741.6489 -112.0978 276.1118
v 1741.1593 -110.9866 277.7168
f 781 782 783
v 1738.4976 -111.5055 276.2966
v 1735.4827 -111.4084 275.7475
v 1738.4254 -111.8852 275.6926
f 784 785 786
v 1735.5233 -111.2275 276.0354
v 1735.4827 -111.4084 275.7475
v 1738.4976 -111.5055 276.2966
f 787 788 789
v 1742.0091 -111.5978 275.8067
v 1741.6489 -112.0978 276.1118
v 1741.8097 -112.1283 275.8067
f 790 791 792
v 1741.6489 -112.0978 276.1118
v 1744.7181 -101.0032 278.0360
v 1741.1593 -110.9866 277.7168
f 793 794 795
v 1742.0091 -111.5978 275.8067
v 1744.7181 -101.0032 278.0360
v 1741.6489 -112.0978 276.1118
f 796 797 798
v 1746.2227 -100.2102 276.0897
v 1744.7181 -101.0032 278.0360
v 1742.0091 -111.5978 275.8067
f 799 800 801
v 1742.0091 -111.5978 275.8067
v 1746.2816 -100.2214 275.9867
v 1746.2227 -100.2102 276.0897
f 802 803 804
v 1739.6778 -108.2905 278.6063
v 1741.1593 -110.9866 277.7168
v 1744.7181 -101.0032 278.0360
f 805 806 807
v 1739.6778 -108.2905 278.6063
v 1736.2684 -110.2604 278.0382
v 1741.1593 -110.9866 277.7168
f 808 809 810
v 1740.9889 -102.6471 278.6060
v 1744.7181 -101.0032 278.0360
v 1738.6470 -99.5920 278.0377
f 811 812 813
v 1740.9889 -102.6471 278.6060
v 1739.6778 -108.2905 278.6063
v 1744.7181 -101.0032 278.0360
f 814 815 816
v 1737.1320 -103.9748 277.1840
v 1735.6552 -110.6328 277.1973
v 1736.2684 -110.2604 278.0382
f 817 818 819
v 1736.2684 -110.2604 278.0382
v 1738.6470 -99.5920 278.0377
v 1737.1320 -103.9748 277.1840
f 820 821 822
v 1738.6470 -99.5920 278.0377
v 1738.2303 -99.0188 277.2279
v 1737.1320 -103.9748 277.1840
f 823 824 825
v 1738.2303 -99.0188 277.2279
v 1744.7181 -101.0032 278.0360
v 1746.2227 -100.2102 276.0897
f 826 827 828
v 1738.6470 -99.5920 278.0377
v 1744.7181 -101.0032 278.0360
v 1738.2303 -99.0188 277.2279
f 829 830 831
v 1738.3070 -98.6731 276.6079
v 1738.2303 -99.0188 277.2279
v 1746.2227 -100.2102 276.0897
f 832 833 834
v 1738.4939 -111.5055 263.3450
v 1738.4957 -111.5055 269.8208
v 1738.4254 -111.8852 275.6926
f 835 836 837
v 1738.4219 -111.8853 263.3450
v 1738.4254 -111.8852 275.6926
v 1735.4792 -111.4084 263.3459
f 838 839 840
v 1735.4827 -111.4084 275.7475
v 1735.4792 -111.4084 263.3459
v 1738.4254 -111.8852 275.6926
f 841 842 843
v 1739.6778 -108.2905 278.6063
v 1740.9889 -102.6471 278.6060
v 1738.6470 -99.5920 278.0377
f 844 845 846
v 1738.6470 -99.5920 278.0377
v 1736.2684 -110.2604 278.0382
v 1739.6778 -108.2905 278.6063
f 847 848 849
v 1738.4939 -111.5055 263.3450
v 1741.8062 -112.1283 263.3441
v 1741.8097 -112.1283 275.8067
f 850 851 852
v 1738.4957 -111.5055 269.8208
v 1741.8097 -112.1283 275.8067
v 1741.6489 -112.0978 276.1118
f 853 854 855
v 1741.6489 -112.0978 276.1118
v 1738.4976 -111.5055 276.2966
v 1738.4957 -111.5055 269.8208
f 856 857 858
v 1738.4957 -111.5055 269.8208
v 1738.4939 -111.5055 263.3450
v 1741.8097 -112.1283 275.8067
f 859 860 861
v 1742.0091 -111.5978 275.8067
v 1742.0056 -111.5979 263.3441
v 1746.2780 -100.2216 263.3431
f 862 863 864
v 1746.2816 -100.2214 275.9867
v 1742.0091 -111.5978 275.8067
v 1746.2780 -100.2216 263.3431
f 865 866 867
v 1741.8062 -112.1283 263.3441
v 1742.0091 -111.5978 275.8067
v 1741.8097 -112.1283 275.8067
f 868 869 870
v 1742.0056 -111.5979 263.3441
v 1742.0091 -111.5978 275.8067
v 1741.8062 -112.1283 263.3441
f 871 872 873
v 1746.2816 -100.2214 275.9867
v 1738.3070 -98.6731 276.6079
v 1746.2227 -100.2102 276.0897
f 874 875 876
v 1738.3033 -98.6731 263.3453
v 1738.3070 -98.6731 276.6079
v 1746.2816 -100.2214 275.9867
f 877 878 879
v 1746.2816 -100.2214 275.9867
v 1746.2780 -100.2216 263.3431
v 1738.3033 -98.6731 263.3453
f 880 881 882
v 1738.3070 -98.6731 276.6079
v 1737.1320 -103.9748 277.1840
v 1738.2303 -99.0188 277.2279
f 883 884 885
v 1737.1281 -103.9749 263.3455
v 1735.4827 -111.4084 275.7475
v 1737.1320 -103.9748 277.1840
f 886 887 888
v 1737.1320 -103.9748 277.1840
v 1735.5233 -111.2275 276.0354
v 1735.6552 -110.6328 277.1973
f 889 890 891
v 1737.1320 -103.9748 277.1840
v 1735.4827 -111.4084 275.7475
v 1735.5233 -111.2275 276.0354
f 892 893 894
v 1737.1281 -103.9749 263.3455
v 1737.1320 -103.9748 277.1840
v 1738.3070 -98.6731 276.6079
f 895 896 897
v 1737.1281 -103.9749 263.3455
v 1738.3070 -98.6731 276.6079
v 1738.2263 -99.0189 263.3453
f 898 899 900
v 1738.3033 -98.6731 263.3453
v 1738.2263 -99.0189 263.3453
v 1738.3070 -98.6731 276.6079
f 901 902 903
v 1735.4792 -111.4084 263.3459
v 1735.4827 -111.4084 275.7475
v 1735.5197 -111.2275 263.3458
f 904 905 906
v 1735.6513 -110.6329 263.3458
v 1735.5197 -111.2275 263.3458
v 1735.4827 -111.4084 275.7475
f 907 908 909
v 1735.4827 -111.4084 275.7475
v 1737.1281 -103.9749 263.3455
v 1735.6513 -110.6329 263.3458
f 910 911 912
v 1738.4254 -111.8852 275.6926
v 1738.4957 -111.5055 269.8208
v 1738.4976 -111.5055 276.2966
f 913 914 915
v 1738.4939 -111.5055 263.3450
v 1738.4254 -111.8852 275.6926
v 1738.4219 -111.8853 263.3450
f 916 917 918

g building_ID_7B6FE8EA-B7B2-49D2-A6B8-095DDF71AB3B
v 1709.8892 -97.7361 263.3311
v 1710.8236 -93.0887 263.3309
v 1721.7415 -95.3089 263.3279
f 919 920 921
v 1716.8969 -103.0388 263.3291
v 1709.3602 -100.3617 263.3312
v 1709.8892 -97.7361 263.3311
f 922 923 924
v 1709.3602 -100.3617 263.3312
v 1716.8969 -103.0388 263.3291
v 1709.1210 -101.5500 263.3312
f 925 926 927
v 1716.8969 -103.0388 263.3291
v 1709.8892 -97.7361 263.3311
v 1721.7415 -95.3089 263.3279
f 928 929 930
v 1716.8969 -103.0388 263.3291
v 1721.7415 -95.3089 263.3279
v 1720.9886 -99.0388 263.3281
f 931 932 933
v 1720.9886 -99.0388 263.3281
v 1720.1515 -103.1785 263.3282
v 1716.8969 -103.0388 263.3291
f 934 935 936
v 1716.8969 -103.0388 263.3291
v 1720.1515 -103.1785 263.3282
v 1716.5054 -106.5706 263.3292
f 937 938 939
v 1716.3534 -107.3273 263.3292
v 1716.0855 -107.2756 263.3293
v 1716.5054 -106.5706 263.3292
f 940 941 942
v 1716.5054 -106.5706 263.3292
v 1716.0855 -107.2756 263.3293
v 1716.8969 -103.0388 263.3291
f 943 944 945
v 1716.5054 -106.5706 263.3292
v 1720.1515 -103.1785 263.3282
v 1719.3499 -107.1493 263.3283
f 946 947 948
v 1720.9927 -99.0387 278.1915
v 1709.8935 -97.7360 278.7405
v 1718.9844 -100.8093 279.6200
f 949 950 951
v 1709.8935 -97.7360 278.7405
v 1713.5565 -93.6439 275.5667
v 1710.8270 -93.0885 275.5455
f 952 953 954
v 1718.9844 -100.8093 279.6200
v 1709.8935 -97.7360 278.7405
v 1710.6417 -99.2119 279.6223
f 955 956 957
v 1709.8935 -97.7360 278.7405
v 1720.9927 -99.0387 278.1915
v 1713.5565 -93.6439 275.5667
f 958 959 960
v 1713.5565 -93.6439 275.5667
v 1720.9927 -99.0387 278.1915
v 1721.7450 -95.3087 275.6274
f 961 962 963
v 1718.9844 -100.8093 279.6200
v 1720.1556 -103.1784 278.2286
v 1720.9927 -99.0387 278.1915
f 964 965 966
v 1708.4954 -104.9382 275.6438
v 1716.5089 -106.5706 275.5777
v 1720.1556 -103.1784 278.2286
f 967 968 969
v 1709.3644 -100.3615 278.7186
v 1720.1556 -103.1784 278.2286
v 1718.9844 -100.8093 279.6200
f 970 971 972
v 1719.3533 -107.1492 275.5549
v 1720.1556 -103.1784 278.2286
v 1716.5089 -106.5706 275.5777
f 973 974 975
v 1708.4954 -104.9382 275.6438
v 1720.1556 -103.1784 278.2286
v 1709.3644 -100.3615 278.7186
f 976 977 978
v 1708.4954 -104.9382 275.6438
v 1709.3644 -100.3615 278.7186
v 1708.4454 -104.9280 275.6439
f 979 980 981
v 1716.0888 -107.2754 275.0688
v 1716.3567 -107.3272 275.0687
v 1716.5089 -106.5706 275.5777
f 982 983 984
v 1716.0888 -107.2754 275.0688
v 1716.5089 -106.5706 275.5777
v 1708.4954 -104.9382 275.6438
f 985 986 987
v 1716.0888 -107.2754 275.0688
v 1708.4954 -104.9382 275.6438
v 1708.3239 -105.7887 275.0710
f 988 989 990
v 1710.6417 -99.2119 279.6223
v 1709.3644 -100.3615 278.7186
v 1718.9844 -100.8093 279.6200
f 991 992 993
v 1710.6417 -99.2119 279.6223
v 1709.8935 -97.7360 278.7405
v 1709.3644 -100.3615 278.7186
f 994 995 996
v 1710.8261 -93.0886 272.4706
v 1710.8270 -93.0885 275.5455
v 1713.5565 -93.6439 275.5667
f 997 998 999
v 1710.8236 -93.0887 263.3309
v 1713.5565 -93.6439 275.5667
v 1721.7415 -95.3089 263.3279
f 1000 1001 1002
v 1713.5565 -93.6439 275.5667
v 1721.7450 -95.3087 275.6274
v 1721.7441 -95.3088 272.5525
f 1003 1004 1005
v 1713.5565 -93.6439 275.5667
v 1721.7433 -95.3088 269.4776
v 1721.7415 -95.3089 263.3279
f 1006 1007 1008
v 1716.0888 -107.2754 275.0688
v 1716.3534 -107.3273 263.3292
v 1716.3567 -107.3272 275.0687
f 1009 1010 1011
v 1716.0888 -107.2754 275.0688
v 1716.0855 -107.2756 263.3293
v 1716.3534 -107.3273 263.3292
f 1012 1013 1014
v 1716.5054 -106.5706 263.3292
v 1719.3499 -107.1493 263.3283
v 1719.3516 -107.1493 269.4311
f 1015 1016 1017
v 1719.3524 -107.1492 272.4930
v 1716.5054 -106.5706 263.3292
v 1719.3516 -107.1493 269.4311
f 1018 1019 1020
v 1719.3524 -107.1492 272.4930
v 1716.5089 -106.5706 275.5777
v 1716.5054 -106.5706 263.3292
f 1021 1022 1023
v 1708.4919 -104.9382 263.2513
v 1716.8969 -103.0388 263.2491
v 1715.6069 -109.7783 263.2494
f 1024 1025 1026
v 1707.8362 -108.1935 263.2515
v 1708.4919 -104.9382 263.2513
v 1715.6069 -109.7783 263.2494
f 1027 1028 1029
v 1709.1219 -101.5500 263.2512
v 1708.4919 -104.9382 263.2513
v 1708.4419 -104.9281 263.2514
f 1030 1031 1032
v 1716.8969 -103.0388 263.2491
v 1708.4919 -104.9382 263.2513
v 1709.1219 -101.5500 263.2512
f 1033 1034 1035
v 1715.6069 -109.7783 263.2494
v 1715.6101 -109.7781 275.0688
v 1707.8395 -108.1934 275.0711
f 1036 1037 1038
v 1716.0888 -107.2754 275.0688
v 1708.3239 -105.7887 275.0710
v 1707.8395 -108.1934 275.0711
f 1039 1040 1041
v 1707.8395 -108.1934 275.0711
v 1715.6101 -109.7781 275.0688
v 1716.0888 -107.2754 275.0688
f 1042 1043 1044
v 1716.0855 -107.2756 263.3293
v 1716.8969 -103.0388 263.2491
v 1716.8969 -103.0388 263.3291
f 1045 1046 1047
v 1715.6069 -109.7783 263.2494
v 1716.0855 -107.2756 263.3293
v 1715.6101 -109.7781 275.0688
f 1048 1049 1050
v 1716.0888 -107.2754 275.0688
v 1715.6101 -109.7781 275.0688
v 1716.0855 -107.2756 263.3293
f 1051 1052 1053
v 1716.8969 -103.0388 263.2491
v 1716.0855 -107.2756 263.3293
v 1715.6069 -109.7783 263.2494
f 1054 1055 1056
v 1709.1219 -101.5500 263.2512
v 1709.1210 -101.5500 263.3312
v 1716.8969 -103.0388 263.3291
f 1057 1058 1059
v 1720.9927 -99.0387 278.1915
v 1721.7441 -95.3088 272.5525
v 1721.7450 -95.3087 275.6274
f 1060 1061 1062
v 1720.1556 -103.1784 278.2286
v 1721.7441 -95.3088 272.5525
v 1720.9927 -99.0387 278.1915
f 1063 1064 1065
v 1721.7441 -95.3088 272.5525
v 1719.3524 -107.1492 272.4930
v 1721.7433 -95.3088 269.4776
f 1066 1067 1068
v 1720.1556 -103.1784 278.2286
v 1719.3524 -107.1492 272.4930
v 1721.7441 -95.3088 272.5525
f 1069 1070 1071
v 1719.3516 -107.1493 269.4311
v 1720.1515 -103.1785 263.3282
v 1721.7433 -95.3088 269.4776
f 1072 1073 1074
v 1719.3516 -107.1493 269.4311
v 1721.7433 -95.3088 269.4776
v 1719.3524 -107.1492 272.4930
f 1075 1076 1077
v 1720.9886 -99.0388 263.3281
v 1721.7415 -95.3089 263.3279
v 1721.7433 -95.3088 269.4776
f 1078 1079 1080
v 1720.1515 -103.1785 263.3282
v 1720.9886 -99.0388 263.3281
v 1721.7433 -95.3088 269.4776
f 1081 1082 1083
v 1720.1515 -103.1785 263.3282
v 1719.3516 -107.1493 269.4311
v 1719.3499 -107.1493 263.3283
f 1084 1085 1086
v 1719.3533 -107.1492 275.5549
v 1719.3524 -107.1492 272.4930
v 1720.1556 -103.1784 278.2286
f 1087 1088 1089
v 1707.8395 -108.1934 275.0711
v 1708.4919 -104.9382 263.2513
v 1707.8362 -108.1935 263.2515
f 1090 1091 1092
v 1708.4919 -104.9382 263.2513
v 1708.3239 -105.7887 275.0710
v 1708.4954 -104.9382 275.6438
f 1093 1094 1095
v 1707.8395 -108.1934 275.0711
v 1708.3239 -105.7887 275.0710
v 1708.4919 -104.9382 263.2513
f 1096 1097 1098
v 1708.4919 -104.9382 263.2513
v 1708.4954 -104.9382 275.6438
v 1708.4452 -104.9280 275.0710
f 1099 1100 1101
v 1708.4454 -104.9280 275.6439
v 1710.8236 -93.0887 263.3309
v 1708.4452 -104.9280 275.0710
f 1102 1103 1104
v 1708.4454 -104.9280 275.6439
v 1709.3644 -100.3615 278.7186
v 1710.8261 -93.0886 272.4706
f 1105 1106 1107
v 1709.1210 -101.5500 263.3312
v 1708.4419 -104.9281 263.2514
v 1708.4452 -104.9280 275.0710
f 1108 1109 1110
v 1709.1210 -101.5500 263.3312
v 1709.1219 -101.5500 263.2512
v 1708.4419 -104.9281 263.2514
f 1111 1112 1113
v 1709.3602 -100.3617 263.3312
v 1709.1210 -101.5500 263.3312
v 1708.4452 -104.9280 275.0710
f 1114 1115 1116
v 1709.8935 -97.7360 278.7405
v 1710.8261 -93.0886 272.4706
v 1709.3644 -100.3615 278.7186
f 1117 1118 1119
v 1708.4454 -104.9280 275.6439
v 1710.8261 -93.0886 272.4706
v 1710.8236 -93.0887 263.3309
f 1120 1121 1122
v 1709.8892 -97.7361 263.3311
v 1709.3602 -100.3617 263.3312
v 1708.4452 -104.9280 275.0710
f 1123 1124 1125
v 1708.4452 -104.9280 275.0710
v 1710.8236 -93.0887 263.3309
v 1709.8892 -97.7361 263.3311
f 1126 1127 1128
v 1710.8270 -93.0885 275.5455
v 1710.8261 -93.0886 272.4706
v 1709.8935 -97.7360 278.7405
f 1129 1130 1131
v 1713.5565 -93.6439 275.5667
v 1710.8236 -93.0887 263.3309
v 1710.8261 -93.0886 272.4706
f 1132 1133 1134
v 1713.5565 -93.6439 275.5667
v 1721.7441 -95.3088 272.5525
v 1721.7433 -95.3088 269.4776
f 1135 1136 1137
v 1716.5054 -106.5706 263.3292
v 1716.5089 -106.5706 275.5777
v 1716.3567 -107.3272 275.0687
f 1138 1139 1140
v 1716.3534 -107.3273 263.3292
v 1716.5054 -106.5706 263.3292
v 1716.3567 -107.3272 275.0687
f 1141 1142 1143
v 1719.3533 -107.1492 275.5549
v 1716.5089 -106.5706 275.5777
v 1719.3524 -107.1492 272.4930
f 1144 1145 1146
v 1715.6069 -109.7783 263.2494
v 1707.8395 -108.1934 275.0711
v 1707.8362 -108.1935 263.2515
f 1147 1148 1149
v 1709.1219 -101.5500 263.2512
v 1716.8969 -103.0388 263.3291
v 1716.8969 -103.0388 263.2491
f 1150 1151 1152
v 1708.4954 -104.9382 275.6438
v 1708.4454 -104.9280 275.6439
v 1708.4452 -104.9280 275.0710
f 1153 1154 1155
v 1708.4919 -104.9382 263.2513
v 1708.4452 -104.9280 275.0710
v 1708.4419 -104.9281 263.2514
f 1156 1157 1158

g building_ID_10D32042-2345-4E9E-9D81-D200E858DC9B
v 1804.7552 -85.6153 262.7331
v 1793.6213 -80.0376 262.7363
v 1811.7993 -78.8213 262.7312
f 1159 1160 1161
v 1811.7993 -78.8213 262.7312
v 1810.0600 -86.7685 262.7315
v 1804.7552 -85.6153 262.7331
f 1162 1163 1164
v 1805.5802 -72.9148 262.7330
v 1812.7478 -74.4829 262.7309
v 1811.7993 -78.8213 262.7312
f 1165 1166 1167
v 1798.6062 -71.4130 262.7350
v 1805.5802 -72.9148 262.7330
v 1798.2134 -73.2230 262.7351
f 1168 1169 1170
v 1811.7993 -78.8213 262.7312
v 1798.2134 -73.2230 262.7351
v 1805.5802 -72.9148 262.7330
f 1171 1172 1173
v 1794.4213 -77.0137 262.7361
v 1798.2134 -73.2230 262.7351
v 1811.7993 -78.8213 262.7312
f 1174 1175 1176
v 1792.8141 -83.0974 262.7365
v 1804.7552 -85.6153 262.7331
v 1804.7349 -85.7063 262.7331
f 1177 1178 1179
v 1793.4744 -80.0071 262.7363
v 1793.6213 -80.0376 262.7363
v 1792.8141 -83.0974 262.7365
f 1180 1181 1182
v 1793.6213 -80.0376 262.7363
v 1794.4213 -77.0137 262.7361
v 1811.7993 -78.8213 262.7312
f 1183 1184 1185
v 1795.3781 -72.6104 262.7359
v 1798.2134 -73.2230 262.7351
v 1794.4213 -77.0137 262.7361
f 1186 1187 1188
v 1794.2844 -76.9844 262.7361
v 1794.4213 -77.0137 262.7361
v 1793.6213 -80.0376 262.7363
f 1189 1190 1191
v 1792.8141 -83.0974 262.7365
v 1793.6213 -80.0376 262.7363
v 1804.7552 -85.6153 262.7331
f 1192 1193 1194
v 1794.5747 -76.3181 271.0997
v 1798.2159 -73.2229 271.0988
v 1795.3805 -72.6102 271.0996
f 1195 1196 1197
v 1806.1347 -78.8480 271.0965
v 1798.2159 -73.2229 271.0988
v 1794.5747 -76.3181 271.0997
f 1198 1199 1200
v 1805.5826 -72.9146 271.0967
v 1798.6088 -71.4130 271.0987
v 1798.2159 -73.2229 271.0988
f 1201 1202 1203
v 1806.1347 -78.8480 271.0965
v 1805.5826 -72.9146 271.0967
v 1798.2159 -73.2229 271.0988
f 1204 1205 1206
v 1805.5826 -72.9146 271.0967
v 1806.1347 -78.8480 271.0965
v 1811.8017 -78.8211 271.0949
f 1207 1208 1209
v 1804.7576 -85.6152 271.0968
v 1804.6394 -85.6850 271.0968
v 1804.7374 -85.7062 271.0968
f 1210 1211 1212
v 1804.7822 -85.0333 271.0968
v 1804.6394 -85.6850 271.0968
v 1804.7576 -85.6152 271.0968
f 1213 1214 1215
v 1810.0624 -86.7685 271.0952
v 1806.1347 -78.8480 271.0965
v 1804.7822 -85.0333 271.0968
f 1216 1217 1218
v 1812.7503 -74.4828 271.0946
v 1805.5826 -72.9146 271.0967
v 1811.8017 -78.8211 271.0949
f 1219 1220 1221
v 1810.0624 -86.7685 271.0952
v 1811.8017 -78.8211 271.0949
v 1806.1347 -78.8480 271.0965
f 1222 1223 1224
v 1810.0624 -86.7685 271.0952
v 1804.7822 -85.0333 271.0968
v 1804.7576 -85.6152 271.0968
f 1225 1226 1227
v 1798.6062 -71.4130 262.7350
v 1798.6088 -71.4130 271.0987
v 1805.5826 -72.9146 271.0967
f 1228 1229 1230
v 1798.2134 -73.2230 262.7351
v 1798.2159 -73.2229 271.0988
v 1798.6088 -71.4130 271.0987
f 1231 1232 1233
v 1795.3781 -72.6104 262.7359
v 1795.3805 -72.6102 271.0996
v 1798.2159 -73.2229 271.0988
f 1234 1235 1236
v 1804.6373 -85.6850 263.7951
v 1804.7349 -85.7063 262.7331
v 1804.7374 -85.7062 271.0968
f 1237 1238 1239
v 1804.6394 -85.6850 271.0968
v 1804.6373 -85.6850 263.7951
v 1804.7374 -85.7062 271.0968
f 1240 1241 1242
v 1792.8141 -83.0974 262.7365
v 1804.6373 -85.6850 263.7951
v 1792.8133 -83.0973 263.7985
f 1243 1244 1245
v 1804.7349 -85.7063 262.7331
v 1804.6373 -85.6850 263.7951
v 1792.8141 -83.0974 262.7365
f 1246 1247 1248
v 1804.7552 -85.6153 262.7331
v 1804.7576 -85.6152 271.0968
v 1804.7374 -85.7062 271.0968
f 1249 1250 1251
v 1810.0600 -86.7685 262.7315
v 1810.0624 -86.7685 271.0952
v 1804.7576 -85.6152 271.0968
f 1252 1253 1254
v 1811.7993 -78.8213 262.7312
v 1811.8017 -78.8211 271.0949
v 1810.0624 -86.7685 271.0952
f 1255 1256 1257
v 1805.5802 -72.9148 262.7330
v 1805.5826 -72.9146 271.0967
v 1812.7503 -74.4828 271.0946
f 1258 1259 1260
v 1813.2312 -74.5622 261.2348
v 1824.6982 -72.2629 261.2316
v 1830.4109 -80.1942 261.2298
f 1261 1262 1263
v 1830.4109 -80.1942 261.2298
v 1830.1284 -81.4933 261.2299
v 1813.2312 -74.5622 261.2348
f 1264 1265 1266
v 1831.8010 -73.7940 261.2295
v 1830.4109 -80.1942 261.2298
v 1824.6982 -72.2629 261.2316
f 1267 1268 1269
v 1811.7988 -78.8214 261.2352
v 1830.1284 -81.4933 261.2299
v 1829.8430 -82.7696 261.2300
f 1270 1271 1272
v 1824.8099 -71.2462 261.2315
v 1824.9138 -71.2695 261.2315
v 1824.6982 -72.2629 261.2316
f 1273 1274 1275
v 1824.8099 -71.2462 261.2315
v 1824.6982 -72.2629 261.2316
v 1820.7835 -71.4205 261.2327
f 1276 1277 1278
v 1824.6982 -72.2629 261.2316
v 1813.2312 -74.5622 261.2348
v 1820.7835 -71.4205 261.2327
f 1279 1280 1281
v 1820.7835 -71.4205 261.2327
v 1813.2312 -74.5622 261.2348
v 1814.2184 -70.0049 261.2347
f 1282 1283 1284
v 1811.7988 -78.8214 261.2352
v 1812.7525 -74.4589 261.2349
v 1813.2312 -74.5622 261.2348
f 1285 1286 1287
v 1821.3130 -68.9759 261.2326
v 1825.1278 -69.7972 261.2315
v 1824.8099 -71.2462 261.2315
f 1288 1289 1290
v 1820.7835 -71.4205 261.2327
v 1821.3130 -68.9759 261.2326
v 1824.8099 -71.2462 261.2315
f 1291 1292 1293
v 1813.2312 -74.5622 261.2348
v 1830.1284 -81.4933 261.2299
v 1811.7988 -78.8214 261.2352
f 1294 1295 1296
v 1829.8430 -82.7696 261.2300
v 1829.8465 -82.7694 273.2466
v 1811.8017 -78.8211 271.0949
f 1297 1298 1299
v 1811.8024 -78.8212 273.2518
v 1811.8017 -78.8211 271.0949
v 1829.8465 -82.7694 273.2466
f 1300 1301 1302
v 1829.8430 -82.7696 261.2300
v 1811.7993 -78.8213 262.7312
v 1811.7988 -78.8214 261.2352
f 1303 1304 1305
v 1824.8129 -71.2461 271.5232
v 1825.1278 -69.7972 261.2315
v 1825.1308 -69.7970 271.2722
f 1306 1307 1308
v 1824.8129 -71.2461 271.5232
v 1824.8099 -71.2462 261.2315
v 1825.1278 -69.7972 261.2315
f 1309 1310 1311
v 1821.3160 -68.9758 271.2753
v 1825.1278 -69.7972 261.2315
v 1821.3130 -68.9759 261.2326
f 1312 1313 1314
v 1812.7558 -74.4588 272.4956
v 1813.2345 -74.5621 272.4955
v 1813.2312 -74.5622 261.2348
f 1315 1316 1317
v 1812.7525 -74.4589 261.2349
v 1812.7558 -74.4588 272.4956
v 1813.2312 -74.5622 261.2348
f 1318 1319 1320
v 1824.8099 -71.2462 261.2315
v 1824.8129 -71.2461 271.5232
v 1824.9169 -71.2694 271.5232
f 1321 1322 1323
v 1811.8017 -78.8211 271.0949
v 1811.8024 -78.8212 273.2518
v 1812.7503 -74.4828 271.0946
f 1324 1325 1326
v 1812.7558 -74.4588 272.4956
v 1812.7503 -74.4828 271.0946
v 1811.8024 -78.8212 273.2518
f 1327 1328 1329
v 1811.7993 -78.8213 262.7312
v 1812.7525 -74.4589 261.2349
v 1811.7988 -78.8214 261.2352
f 1330 1331 1332
v 1812.7478 -74.4829 262.7309
v 1812.7503 -74.4828 271.0946
v 1812.7525 -74.4589 261.2349
f 1333 1334 1335
v 1811.7993 -78.8213 262.7312
v 1812.7478 -74.4829 262.7309
v 1812.7525 -74.4589 261.2349
f 1336 1337 1338
v 1812.7558 -74.4588 272.4956
v 1812.7525 -74.4589 261.2349
v 1812.7503 -74.4828 271.0946
f 1339 1340 1341
v 1792.3387 -85.3390 278.4011
v 1804.1516 -87.9235 278.3976
v 1804.7836 -85.0332 275.9086
f 1342 1343 1344
v 1804.7836 -85.0332 275.9086
v 1792.9567 -82.4457 275.9120
v 1792.3387 -85.3390 278.4011
f 1345 1346 1347
v 1796.7308 -91.9237 274.5728
v 1792.3387 -85.3390 278.4011
v 1791.1679 -90.8107 274.5034
f 1348 1349 1350
v 1804.1516 -87.9235 278.3976
v 1796.7308 -91.9237 274.5728
v 1803.0015 -93.1784 274.6511
f 1351 1352 1353
v 1792.3387 -85.3390 278.4011
v 1796.7308 -91.9237 274.5728
v 1804.1516 -87.9235 278.3976
f 1354 1355 1356
v 1793.6248 -80.0375 274.9309
v 1793.4779 -80.0071 274.9309
v 1792.9567 -82.4457 275.9120
f 1357 1358 1359
v 1794.4246 -77.0136 273.7017
v 1794.2877 -76.9842 273.7017
v 1793.6248 -80.0375 274.9309
f 1360 1361 1362
v 1793.6248 -80.0375 274.9309
v 1792.9567 -82.4457 275.9120
v 1804.7836 -85.0332 275.9086
f 1363 1364 1365
v 1794.4246 -77.0136 273.7017
v 1793.6248 -80.0375 274.9309
v 1806.1354 -78.8479 273.4184
f 1366 1367 1368
v 1804.7836 -85.0332 275.9086
v 1806.1354 -78.8479 273.4184
v 1793.6248 -80.0375 274.9309
f 1369 1370 1371
v 1794.4246 -77.0136 273.7017
v 1806.1354 -78.8479 273.4184
v 1794.5753 -76.3180 273.4216
f 1372 1373 1374
v 1802.9998 -93.1785 269.2233
v 1803.0015 -93.1784 274.6511
v 1796.7308 -91.9237 274.5728
f 1375 1376 1377
v 1791.1647 -90.8109 263.7988
v 1802.9998 -93.1785 269.2233
v 1796.7308 -91.9237 274.5728
f 1378 1379 1380
v 1802.9982 -93.1785 263.7954
v 1802.9998 -93.1785 269.2233
v 1791.1647 -90.8109 263.7988
f 1381 1382 1383
v 1791.1663 -90.8108 269.0756
v 1791.1647 -90.8109 263.7988
v 1796.7308 -91.9237 274.5728
f 1384 1385 1386
v 1804.1473 -87.9236 263.7952
v 1792.3344 -85.3391 263.7986
v 1804.6373 -85.6850 263.7951
f 1387 1388 1389
v 1791.1647 -90.8109 263.7988
v 1792.3344 -85.3391 263.7986
v 1802.9982 -93.1785 263.7954
f 1390 1391 1392
v 1804.6373 -85.6850 263.7951
v 1792.3344 -85.3391 263.7986
v 1792.8133 -83.0973 263.7985
f 1393 1394 1395
v 1802.9982 -93.1785 263.7954
v 1792.3344 -85.3391 263.7986
v 1804.1473 -87.9236 263.7952
f 1396 1397 1398
v 1794.5747 -76.3181 271.0997
v 1794.5753 -76.3180 273.4216
v 1806.1354 -78.8479 273.4184
f 1399 1400 1401
v 1794.4213 -77.0137 262.7361
v 1794.4246 -77.0136 273.7017
v 1794.5747 -76.3181 271.0997
f 1402 1403 1404
v 1794.4246 -77.0136 273.7017
v 1794.5753 -76.3180 273.4216
v 1794.5747 -76.3181 271.0997
f 1405 1406 1407
v 1794.5747 -76.3181 271.0997
v 1795.3805 -72.6102 271.0996
v 1795.3781 -72.6104 262.7359
f 1408 1409 1410
v 1794.4213 -77.0137 262.7361
v 1794.5747 -76.3181 271.0997
v 1795.3781 -72.6104 262.7359
f 1411 1412 1413
v 1794.2844 -76.9844 262.7361
v 1794.2877 -76.9842 273.7017
v 1794.4246 -77.0136 273.7017
f 1414 1415 1416
v 1820.7866 -71.4204 271.6994
v 1821.3160 -68.9758 271.2753
v 1820.7835 -71.4205 261.2327
f 1417 1418 1419
v 1821.3130 -68.9759 261.2326
v 1820.7835 -71.4205 261.2327
v 1821.3160 -68.9758 271.2753
f 1420 1421 1422
v 1814.2215 -70.0048 271.7053
v 1814.2184 -70.0049 261.2347
v 1813.2345 -74.5621 272.4955
f 1423 1424 1425
v 1813.2345 -74.5621 272.4955
v 1814.2184 -70.0049 261.2347
v 1813.2312 -74.5622 261.2348
f 1426 1427 1428
v 1814.2184 -70.0049 261.2347
v 1814.2215 -70.0048 271.7053
v 1818.7698 -70.9859 271.7010
f 1429 1430 1431
v 1820.7835 -71.4205 261.2327
v 1818.7698 -70.9859 271.7010
v 1820.7866 -71.4204 271.6994
f 1432 1433 1434
v 1814.2184 -70.0049 261.2347
v 1818.7698 -70.9859 271.7010
v 1820.7835 -71.4205 261.2327
f 1435 1436 1437
v 1824.9169 -71.2694 271.5232
v 1824.6982 -72.2629 261.2316
v 1824.9138 -71.2695 261.2315
f 1438 1439 1440
v 1824.7013 -72.2628 271.6953
v 1824.6982 -72.2629 261.2316
v 1824.9169 -71.2694 271.5232
f 1441 1442 1443
v 1830.4109 -80.1942 261.2298
v 1831.8010 -73.7940 261.2295
v 1831.8041 -73.7938 271.6892
f 1444 1445 1446
v 1830.4109 -80.1942 261.2298
v 1830.4143 -80.1940 272.7994
v 1830.1284 -81.4933 261.2299
f 1447 1448 1449
v 1830.4143 -80.1940 272.7994
v 1830.4109 -80.1942 261.2298
v 1831.8041 -73.7938 271.6892
f 1450 1451 1452
v 1829.8465 -82.7694 273.2466
v 1829.8430 -82.7696 261.2300
v 1830.1319 -81.4933 273.0245
f 1453 1454 1455
v 1830.1319 -81.4933 273.0245
v 1829.8430 -82.7696 261.2300
v 1830.1284 -81.4933 261.2299
f 1456 1457 1458
v 1830.4143 -80.1940 272.7994
v 1830.1319 -81.4933 273.0245
v 1830.1284 -81.4933 261.2299
f 1459 1460 1461
v 1793.6248 -80.0375 274.9309
v 1794.2844 -76.9844 262.7361
v 1793.6213 -80.0376 262.7363
f 1462 1463 1464
v 1794.2844 -76.9844 262.7361
v 1793.6248 -80.0375 274.9309
v 1794.2877 -76.9842 273.7017
f 1465 1466 1467
v 1793.6248 -80.0375 274.9309
v 1793.4768 -80.0071 271.1000
v 1793.4779 -80.0071 274.9309
f 1468 1469 1470
v 1793.6248 -80.0375 274.9309
v 1793.4744 -80.0071 262.7363
v 1793.4747 -80.0072 263.7983
f 1471 1472 1473
v 1793.4747 -80.0072 263.7983
v 1793.4768 -80.0071 271.1000
v 1793.6248 -80.0375 274.9309
f 1474 1475 1476
v 1793.6248 -80.0375 274.9309
v 1793.6213 -80.0376 262.7363
v 1793.4744 -80.0071 262.7363
f 1477 1478 1479
v 1792.9567 -82.4457 275.9120
v 1791.1679 -90.8107 274.5034
v 1792.3387 -85.3390 278.4011
f 1480 1481 1482
v 1791.1670 -90.8108 271.7895
v 1791.1679 -90.8107 274.5034
v 1792.9567 -82.4457 275.9120
f 1483 1484 1485
v 1793.4768 -80.0071 271.1000
v 1791.1663 -90.8108 269.0756
v 1791.1670 -90.8108 271.7895
f 1486 1487 1488
v 1791.1647 -90.8109 263.7988
v 1791.1663 -90.8108 269.0756
v 1792.3344 -85.3391 263.7986
f 1489 1490 1491
v 1791.1670 -90.8108 271.7895
v 1792.9567 -82.4457 275.9120
v 1793.4768 -80.0071 271.1000
f 1492 1493 1494
v 1792.3344 -85.3391 263.7986
v 1791.1663 -90.8108 269.0756
v 1793.4768 -80.0071 271.1000
f 1495 1496 1497
v 1793.4747 -80.0072 263.7983
v 1792.8133 -83.0973 263.7985
v 1793.4768 -80.0071 271.1000
f 1498 1499 1500
v 1793.4768 -80.0071 271.1000
v 1792.8133 -83.0973 263.7985
v 1792.3344 -85.3391 263.7986
f 1501 1502 1503
v 1793.4747 -80.0072 263.7983
v 1792.8141 -83.0974 262.7365
v 1792.8133 -83.0973 263.7985
f 1504 1505 1506
v 1792.8141 -83.0974 262.7365
v 1793.4747 -80.0072 263.7983
v 1793.4744 -80.0071 262.7363
f 1507 1508 1509
v 1793.4779 -80.0071 274.9309
v 1793.4768 -80.0071 271.1000
v 1792.9567 -82.4457 275.9120
f 1510 1511 1512
v 1804.7836 -85.0332 275.9086
v 1804.7822 -85.0333 271.0968
v 1806.1347 -78.8480 271.0965
f 1513 1514 1515
v 1804.7836 -85.0332 275.9086
v 1804.6394 -85.6850 271.0968
v 1804.7822 -85.0333 271.0968
f 1516 1517 1518
v 1802.9998 -93.1785 269.2233
v 1804.1473 -87.9236 263.7952
v 1804.6373 -85.6850 263.7951
f 1519 1520 1521
v 1804.6394 -85.6850 271.0968
v 1802.9998 -93.1785 269.2233
v 1804.6373 -85.6850 263.7951
f 1522 1523 1524
v 1806.1354 -78.8479 273.4184
v 1804.7836 -85.0332 275.9086
v 1806.1347 -78.8480 271.0965
f 1525 1526 1527
v 1803.0015 -93.1784 274.6511
v 1804.7836 -85.0332 275.9086
v 1804.1516 -87.9235 278.3976
f 1528 1529 1530
v 1802.9982 -93.1785 263.7954
v 1804.1473 -87.9236 263.7952
v 1802.9998 -93.1785 269.2233
f 1531 1532 1533
v 1804.6394 -85.6850 271.0968
v 1803.0015 -93.1784 274.6511
v 1802.9998 -93.1785 269.2233
f 1534 1535 1536
v 1804.7836 -85.0332 275.9086
v 1803.0015 -93.1784 274.6511
v 1804.6394 -85.6850 271.0968
f 1537 1538 1539
v 1811.8024 -78.8212 273.2518
v 1813.2345 -74.5621 272.4955
v 1812.7558 -74.4588 272.4956
f 1540 1541 1542
v 1813.2345 -74.5621 272.4955
v 1818.7698 -70.9859 271.7010
v 1814.2215 -70.0048 271.7053
f 1543 1544 1545
v 1824.7013 -72.2628 271.6953
v 1821.3160 -68.9758 271.2753
v 1820.7866 -71.4204 271.6994
f 1546 1547 1548
v 1820.7866 -71.4204 271.6994
v 1818.7698 -70.9859 271.7010
v 1829.8465 -82.7694 273.2466
f 1549 1550 1551
v 1813.2345 -74.5621 272.4955
v 1829.8465 -82.7694 273.2466
v 1818.7698 -70.9859 271.7010
f 1552 1553 1554
v 1824.9169 -71.2694 271.5232
v 1824.8129 -71.2461 271.5232
v 1824.7013 -72.2628 271.6953
f 1555 1556 1557
v 1824.7013 -72.2628 271.6953
v 1824.8129 -71.2461 271.5232
v 1821.3160 -68.9758 271.2753
f 1558 1559 1560
v 1824.7013 -72.2628 271.6953
v 1829.8465 -82.7694 273.2466
v 1830.1319 -81.4933 273.0245
f 1561 1562 1563
v 1824.7013 -72.2628 271.6953
v 1830.4143 -80.1940 272.7994
v 1825.5298 -72.4410 271.6950
f 1564 1565 1566
v 1830.4143 -80.1940 272.7994
v 1824.7013 -72.2628 271.6953
v 1830.1319 -81.4933 273.0245
f 1567 1568 1569
v 1829.8465 -82.7694 273.2466
v 1824.7013 -72.2628 271.6953
v 1820.7866 -71.4204 271.6994
f 1570 1571 1572
v 1825.1308 -69.7970 271.2722
v 1821.3160 -68.9758 271.2753
v 1824.8129 -71.2461 271.5232
f 1573 1574 1575
v 1830.4143 -80.1940 272.7994
v 1831.8041 -73.7938 271.6892
v 1825.5298 -72.4410 271.6950
f 1576 1577 1578
v 1829.8465 -82.7694 273.2466
v 1813.2345 -74.5621 272.4955
v 1811.8024 -78.8212 273.2518
f 1579 1580 1581
v 1824.7013 -72.2628 271.6953
v 1825.5298 -72.4410 271.6950
v 1824.6982 -72.2629 261.2316
f 1582 1583 1584
v 1824.6982 -72.2629 261.2316
v 1825.5298 -72.4410 271.6950
v 1831.8010 -73.7940 261.2295
f 1585 1586 1587
v 1831.8010 -73.7940 261.2295
v 1825.5298 -72.4410 271.6950
v 1831.8041 -73.7938 271.6892
f 1588 1589 1590
v 1798.6062 -71.4130 262.7350
v 1805.5826 -72.9146 271.0967
v 1805.5802 -72.9148 262.7330
f 1591 1592 1593
v 1798.2134 -73.2230 262.7351
v 1798.6088 -71.4130 271.0987
v 1798.6062 -71.4130 262.7350
f 1594 1595 1596
v 1795.3781 -72.6104 262.7359
v 1798.2159 -73.2229 271.0988
v 1798.2134 -73.2230 262.7351
f 1597 1598 1599
v 1804.7552 -85.6153 262.7331
v 1804.7374 -85.7062 271.0968
v 1804.7349 -85.7063 262.7331
f 1600 1601 1602
v 1810.0600 -86.7685 262.7315
v 1804.7576 -85.6152 271.0968
v 1804.7552 -85.6153 262.7331
f 1603 1604 1605
v 1811.7993 -78.8213 262.7312
v 1810.0624 -86.7685 271.0952
v 1810.0600 -86.7685 262.7315
f 1606 1607 1608
v 1805.5802 -72.9148 262.7330
v 1812.7503 -74.4828 271.0946
v 1812.7478 -74.4829 262.7309
f 1609 1610 1611
v 1829.8430 -82.7696 261.2300
v 1811.8017 -78.8211 271.0949
v 1811.7993 -78.8213 262.7312
f 1612 1613 1614
v 1821.3160 -68.9758 271.2753
v 1825.1308 -69.7970 271.2722
v 1825.1278 -69.7972 261.2315
f 1615 1616 1617
v 1824.8099 -71.2462 261.2315
v 1824.9169 -71.2694 271.5232
v 1824.9138 -71.2695 261.2315
f 1618 1619 1620
v 1796.7308 -91.9237 274.5728
v 1791.1679 -90.8107 274.5034
v 1791.1670 -90.8108 271.7895
f 1621 1622 1623
v 1796.7308 -91.9237 274.5728
v 1791.1670 -90.8108 271.7895
v 1791.1663 -90.8108 269.0756
f 1624 1625 1626
v 1794.5747 -76.3181 271.0997
v 1806.1354 -78.8479 273.4184
v 1806.1347 -78.8480 271.0965
f 1627 1628 1629
v 1794.2844 -76.9844 262.7361
v 1794.4246 -77.0136 273.7017
v 1794.4213 -77.0137 262.7361
f 1630 1631 1632

g building_ID_B1F9B60B-47BA-4D4C-BCED-41BE9982AADB
v 1863.1923 -35.2457 253.0881
v 1871.9288 -33.1281 253.0855
v 1866.2596 -38.4929 253.0872
f 1633 1634 1635
v 1862.0755 -34.0717 253.0884
v 1867.7617 -28.7201 253.0868
v 1869.7201 -30.7923 253.0862
f 1636 1637 1638
v 1871.9288 -33.1281 253.0855
v 1862.0755 -34.0717 253.0884
v 1869.7201 -30.7923 253.0862
f 1639 1640 1641
v 1863.1923 -35.2457 253.0881
v 1862.0755 -34.0717 253.0884
v 1871.9288 -33.1281 253.0855
f 1642 1643 1644
v 1869.0967 -35.8104 259.5431
v 1863.9548 -36.0506 261.7765
v 1866.2615 -38.4928 259.4950
f 1645 1646 1647
v 1869.7228 -30.7921 261.7749
v 1869.0967 -35.8104 259.5431
v 1871.9308 -33.1281 259.5913
f 1648 1649 1650
v 1863.9548 -36.0506 261.7765
v 1869.0967 -35.8104 259.5431
v 1869.7228 -30.7921 261.7749
f 1651 1652 1653
v 1863.1757 -35.2265 260.7489
v 1869.7228 -30.7921 261.7749
v 1867.7635 -28.7200 259.1926
f 1654 1655 1656
v 1863.1757 -35.2265 260.7489
v 1863.9548 -36.0506 261.7765
v 1869.7228 -30.7921 261.7749
f 1657 1658 1659
v 1862.0773 -34.0716 259.3062
v 1863.1757 -35.2265 260.7489
v 1867.7635 -28.7200 259.1926
f 1660 1661 1662
v 1866.2596 -38.4929 253.0872
v 1871.9288 -33.1281 253.0855
v 1866.2610 -38.4928 257.8680
f 1663 1664 1665
v 1866.2610 -38.4928 257.8680
v 1871.9308 -33.1281 259.5913
v 1869.0967 -35.8104 259.5431
f 1666 1667 1668
v 1866.2610 -38.4928 257.8680
v 1871.9288 -33.1281 253.0855
v 1871.9303 -33.1281 257.9653
f 1669 1670 1671
v 1866.2615 -38.4928 259.4950
v 1866.2610 -38.4928 257.8680
v 1869.0967 -35.8104 259.5431
f 1672 1673 1674
v 1862.0769 -34.0716 257.7513
v 1862.0773 -34.0716 259.3062
v 1867.7635 -28.7200 259.1926
f 1675 1676 1677
v 1867.7635 -28.7200 259.1926
v 1862.0755 -34.0717 253.0884
v 1862.0759 -34.0717 254.6424
f 1678 1679 1680
v 1867.7635 -28.7200 259.1926
v 1867.7626 -28.7200 256.0837
v 1862.0755 -34.0717 253.0884
f 1681 1682 1683
v 1867.7617 -28.7201 253.0868
v 1862.0755 -34.0717 253.0884
v 1867.7626 -28.7200 256.0837
f 1684 1685 1686
v 1871.9303 -33.1281 257.9653
v 1867.7626 -28.7200 256.0837
v 1867.7635 -28.7200 259.1926
f 1687 1688 1689
v 1869.7201 -30.7923 253.0862
v 1867.7617 -28.7201 253.0868
v 1867.7626 -28.7200 256.0837
f 1690 1691 1692
v 1871.9303 -33.1281 257.9653
v 1867.7635 -28.7200 259.1926
v 1869.7228 -30.7921 261.7749
f 1693 1694 1695
v 1869.7201 -30.7923 253.0862
v 1867.7626 -28.7200 256.0837
v 1871.9288 -33.1281 253.0855
f 1696 1697 1698
v 1871.9288 -33.1281 253.0855
v 1867.7626 -28.7200 256.0837
v 1871.9303 -33.1281 257.9653
f 1699 1700 1701
v 1871.9308 -33.1281 259.5913
v 1871.9303 -33.1281 257.9653
v 1869.7228 -30.7921 261.7749
f 1702 1703 1704
v 1863.1757 -35.2265 260.7489
v 1866.2615 -38.4928 259.4950
v 1863.9548 -36.0506 261.7765
f 1705 1706 1707
v 1862.0759 -34.0717 254.6424
v 1866.2610 -38.4928 257.8680
v 1866.2615 -38.4928 259.4950
f 1708 1709 1710
v 1866.2610 -38.4928 257.8680
v 1863.1923 -35.2457 253.0881
v 1866.2596 -38.4929 253.0872
f 1711 1712 1713
v 1862.0769 -34.0716 257.7513
v 1866.2615 -38.4928 259.4950
v 1863.1757 -35.2265 260.7489
f 1714 1715 1716
v 1862.0769 -34.0716 257.7513
v 1862.0759 -34.0717 254.6424
v 1866.2615 -38.4928 259.4950
f 1717 1718 1719
v 1863.1923 -35.2457 253.0881
v 1862.0759 -34.0717 254.6424
v 1862.0755 -34.0717 253.0884
f 1720 1721 1722
v 1866.2610 -38.4928 257.8680
v 1862.0759 -34.0717 254.6424
v 1863.1923 -35.2457 253.0881
f 1723 1724 1725
v 1862.0773 -34.0716 259.3062
v 1862.0769 -34.0716 257.7513
v 1863.1757 -35.2265 260.7489
f 1726 1727 1728
v 1871.9303 -33.1281 257.9653
v 1871.9308 -33.1281 259.5913
v 1866.2610 -38.4928 257.8680
f 1729 1730 1731
v 1867.7635 -28.7200 259.1926
v 1862.0759 -34.0717 254.6424
v 1862.0769 -34.0716 257.7513
f 1732 1733 1734

g building_ID_988D5ADC-E0F4-4179-995A-69359F17141C
v 1810.3574 -59.9298 254.4301
v 1803.5273 -56.2856 254.4320
v 1811.1106 -57.2619 254.4299
f 1735 1736 1737
v 1807.4974 -49.5083 254.4310
v 1811.1106 -57.2619 254.4299
v 1803.5273 -56.2856 254.4320
f 1738 1739 1740
v 1811.6288 -57.5473 254.4297
v 1810.3574 -59.9298 254.4301
v 1811.1106 -57.2619 254.4299
f 1741 1742 1743
v 1807.4974 -49.5083 254.4310
v 1813.6043 -52.8576 254.4292
v 1811.1106 -57.2619 254.4299
f 1744 1745 1746
v 1811.1127 -57.2618 261.6377
v 1813.6065 -52.8575 261.6370
v 1807.4995 -49.5082 261.6388
f 1747 1748 1749
v 1807.4995 -49.5082 261.6388
v 1804.9469 -53.8663 261.6395
v 1811.1127 -57.2618 261.6377
f 1750 1751 1752
v 1813.6043 -52.8576 254.4292
v 1813.6065 -52.8575 261.6370
v 1811.1106 -57.2619 254.4299
f 1753 1754 1755
v 1807.4974 -49.5083 254.4310
v 1807.4995 -49.5082 261.6388
v 1813.6065 -52.8575 261.6370
f 1756 1757 1758
v 1810.3574 -59.9298 254.4301
v 1810.3576 -59.9298 255.0621
v 1803.5275 -56.2856 255.0640
f 1759 1760 1761
v 1811.6288 -57.5473 254.4297
v 1811.6290 -57.5473 255.0617
v 1810.3576 -59.9298 255.0621
f 1762 1763 1764
v 1809.6129 -62.5367 262.7990
v 1804.9472 -53.8663 262.8004
v 1802.2358 -58.4940 262.8011
f 1765 1766 1767
v 1804.9472 -53.8663 262.8004
v 1809.6129 -62.5367 262.7990
v 1812.2224 -57.8727 262.7983
f 1768 1769 1770
v 1809.6107 -62.5368 255.0623
v 1809.6129 -62.5367 262.7990
v 1802.2358 -58.4940 262.8011
f 1771 1772 1773
v 1812.2201 -57.8729 255.0616
v 1812.2224 -57.8727 262.7983
v 1809.6129 -62.5367 262.7990
f 1774 1775 1776
v 1810.3576 -59.9298 255.0621
v 1812.2201 -57.8729 255.0616
v 1809.6107 -62.5368 255.0623
f 1777 1778 1779
v 1802.2336 -58.4940 255.0644
v 1810.3576 -59.9298 255.0621
v 1809.6107 -62.5368 255.0623
f 1780 1781 1782
v 1811.6290 -57.5473 255.0617
v 1812.2201 -57.8729 255.0616
v 1810.3576 -59.9298 255.0621
f 1783 1784 1785
v 1802.2336 -58.4940 255.0644
v 1803.5275 -56.2856 255.0640
v 1810.3576 -59.9298 255.0621
f 1786 1787 1788
v 1803.5275 -56.2856 255.0640
v 1802.2336 -58.4940 255.0644
v 1802.2358 -58.4940 262.8011
f 1789 1790 1791
v 1807.4974 -49.5083 254.4310
v 1803.5273 -56.2856 254.4320
v 1803.5275 -56.2856 255.0640
f 1792 1793 1794
v 1803.5275 -56.2856 255.0640
v 1802.2358 -58.4940 262.8011
v 1804.9469 -53.8663 261.6395
f 1795 1796 1797
v 1802.2358 -58.4940 262.8011
v 1804.9472 -53.8663 262.8004
v 1804.9469 -53.8663 261.6395
f 1798 1799 1800
v 1804.9469 -53.8663 261.6395
v 1807.4995 -49.5082 261.6388
v 1807.4974 -49.5083 254.4310
f 1801 1802 1803
v 1803.5275 -56.2856 255.0640
v 1804.9469 -53.8663 261.6395
v 1807.4974 -49.5083 254.4310
f 1804 1805 1806
v 1811.1127 -57.2618 261.6377
v 1804.9472 -53.8663 262.8004
v 1812.2224 -57.8727 262.7983
f 1807 1808 1809
v 1811.6290 -57.5473 255.0617
v 1811.1106 -57.2619 254.4299
v 1811.1127 -57.2618 261.6377
f 1810 1811 1812
v 1811.1127 -57.2618 261.6377
v 1812.2224 -57.8727 262.7983
v 1812.2201 -57.8729 255.0616
f 1813 1814 1815
v 1811.1106 -57.2619 254.4299
v 1811.6290 -57.5473 255.0617
v 1811.6288 -57.5473 254.4297
f 1816 1817 1818
v 1812.2201 -57.8729 255.0616
v 1811.6290 -57.5473 255.0617
v 1811.1127 -57.2618 261.6377
f 1819 1820 1821
v 1813.6065 -52.8575 261.6370
v 1811.1127 -57.2618 261.6377
v 1811.1106 -57.2619 254.4299
f 1822 1823 1824
v 1807.4974 -49.5083 254.4310
v 1813.6065 -52.8575 261.6370
v 1813.6043 -52.8576 254.4292
f 1825 1826 1827
v 1810.3574 -59.9298 254.4301
v 1803.5275 -56.2856 255.0640
v 1803.5273 -56.2856 254.4320
f 1828 1829 1830
v 1811.6288 -57.5473 254.4297
v 1810.3576 -59.9298 255.0621
v 1810.3574 -59.9298 254.4301
f 1831 1832 1833
v 1809.6107 -62.5368 255.0623
v 1802.2358 -58.4940 262.8011
v 1802.2336 -58.4940 255.0644
f 1834 1835 1836
v 1812.2201 -57.8729 255.0616
v 1809.6129 -62.5367 262.7990
v 1809.6107 -62.5368 255.0623
f 1837 1838 1839
v 1811.1127 -57.2618 261.6377
v 1804.9469 -53.8663 261.6395
v 1804.9472 -53.8663 262.8004
f 1840 1841 1842

g building_ID_128AEDA2-6D75-4C96-B237-9B7F23CAD455
v 1666.4148 59.7839 256.2985
v 1668.0294 64.8785 256.2981
v 1671.8830 63.6542 256.2971
f 1843 1844 1845
v 1670.2544 58.5577 256.2975
v 1666.4148 59.7839 256.2985
v 1671.8830 63.6542 256.2971
f 1846 1847 1848
v 1671.8848 63.6544 262.6599
v 1669.9455 64.2706 262.6614
v 1670.2569 58.5580 265.4142
f 1849 1850 1851
v 1669.9455 64.2706 262.6614
v 1667.2237 62.3310 264.0390
v 1670.2569 58.5580 265.4142
f 1852 1853 1854
v 1667.2237 62.3310 264.0390
v 1666.4172 59.7843 265.4152
v 1670.2569 58.5580 265.4142
f 1855 1856 1857
v 1668.0311 64.8788 262.6629
v 1667.2237 62.3310 264.0390
v 1669.9455 64.2706 262.6614
f 1858 1859 1860
v 1671.8848 63.6544 262.6599
v 1671.8830 63.6542 256.2971
v 1668.0294 64.8785 256.2981
f 1861 1862 1863
v 1667.2237 62.3310 264.0390
v 1668.0294 64.8785 256.2981
v 1666.4148 59.7839 256.2985
f 1864 1865 1866
v 1668.0311 64.8788 262.6629
v 1668.0294 64.8785 256.2981
v 1667.2237 62.3310 264.0390
f 1867 1868 1869
v 1670.2544 58.5577 256.2975
v 1670.2569 58.5580 265.4142
v 1666.4148 59.7839 256.2985
f 1870 1871 1872
v 1666.4172 59.7843 265.4152
v 1666.4148 59.7839 256.2985
v 1670.2569 58.5580 265.4142
f 1873 1874 1875
v 1670.2569 58.5580 265.4142
v 1670.2544 58.5577 256.2975
v 1671.8848 63.6544 262.6599
f 1876 1877 1878
v 1668.0311 64.8788 262.6629
v 1669.9455 64.2706 262.6614
v 1668.0294 64.8785 256.2981
f 1879 1880 1881
v 1671.8848 63.6544 262.6599
v 1668.0294 64.8785 256.2981
v 1669.9455 64.2706 262.6614
f 1882 1883 1884
v 1667.2237 62.3310 264.0390
v 1666.4148 59.7839 256.2985
v 1666.4172 59.7843 265.4152
f 1885 1886 1887
v 1670.2544 58.5577 256.2975
v 1671.8830 63.6542 256.2971
v 1671.8848 63.6544 262.6599
f 1888 1889 1890

g building_ID_4F3DE8B2-AFE9-4677-9FE2-84873148F3B5
v 1681.9653 54.8223 256.2945
v 1680.3264 49.6648 256.2950
v 1664.7690 54.6334 256.2990
f 1891 1892 1893
v 1670.2555 58.5587 256.2975
v 1683.5839 59.9159 256.2940
v 1664.7690 54.6334 256.2990
f 1894 1895 1896
v 1664.7690 54.6334 256.2990
v 1683.5839 59.9159 256.2940
v 1681.9653 54.8223 256.2945
f 1897 1898 1899
v 1670.2555 58.5587 256.2975
v 1664.7690 54.6334 256.2990
v 1665.3861 56.5647 256.2988
f 1900 1901 1902
v 1683.5839 59.9159 256.2940
v 1670.2555 58.5587 256.2975
v 1671.8830 63.6542 256.2971
f 1903 1904 1905
v 1666.4137 59.7829 256.2985
v 1670.2555 58.5587 256.2975
v 1665.3861 56.5647 256.2988
f 1906 1907 1908
v 1664.7707 54.6336 262.6598
v 1672.5410 52.1518 262.6558
v 1665.6626 57.4252 264.1535
f 1909 1910 1911
v 1666.4163 59.7833 265.4152
v 1665.6626 57.4252 264.1535
v 1670.2579 58.5590 265.4142
f 1912 1913 1914
v 1680.3282 49.6650 262.6517
v 1681.9677 54.8226 265.4111
v 1672.5410 52.1518 262.6558
f 1915 1916 1917
v 1665.6626 57.4252 264.1535
v 1672.5410 52.1518 262.6558
v 1670.2579 58.5590 265.4142
f 1918 1919 1920
v 1681.9677 54.8226 265.4111
v 1670.2579 58.5590 265.4142
v 1672.5410 52.1518 262.6558
f 1921 1922 1923
v 1664.7690 54.6334 256.2990
v 1680.3264 49.6648 256.2950
v 1680.3282 49.6650 262.6517
f 1924 1925 1926
v 1670.2579 58.5590 265.4142
v 1670.2555 58.5587 256.2975
v 1666.4163 59.7833 265.4152
f 1927 1928 1929
v 1666.4163 59.7833 265.4152
v 1670.2555 58.5587 256.2975
v 1666.4137 59.7829 256.2985
f 1930 1931 1932
v 1664.7690 54.6334 256.2990
v 1664.7707 54.6336 262.6598
v 1665.6626 57.4252 264.1535
f 1933 1934 1935
v 1664.7690 54.6334 256.2990
v 1665.6626 57.4252 264.1535
v 1665.3861 56.5647 256.2988
f 1936 1937 1938
v 1666.4137 59.7829 256.2985
v 1665.3861 56.5647 256.2988
v 1665.6626 57.4252 264.1535
f 1939 1940 1941
v 1665.6626 57.4252 264.1535
v 1666.4163 59.7833 265.4152
v 1666.4137 59.7829 256.2985
f 1942 1943 1944
v 1670.2555 58.5587 256.2975
v 1670.2579 58.5590 265.4142
v 1671.8848 63.6544 262.6599
f 1945 1946 1947
v 1681.9677 54.8226 265.4111
v 1683.5856 59.9161 262.6597
v 1670.2579 58.5590 265.4142
f 1948 1949 1950
v 1671.8848 63.6544 262.6599
v 1670.2579 58.5590 265.4142
v 1683.5856 59.9161 262.6597
f 1951 1952 1953
v 1683.5839 59.9159 256.2940
v 1671.8830 63.6542 256.2971
v 1671.8848 63.6544 262.6599
f 1954 1955 1956
v 1683.5856 59.9161 262.6597
v 1683.5839 59.9159 256.2940
v 1671.8848 63.6544 262.6599
f 1957 1958 1959
v 1681.9653 54.8223 256.2945
v 1683.5856 59.9161 262.6597
v 1681.9677 54.8226 265.4111
f 1960 1961 1962
v 1683.5856 59.9161 262.6597
v 1681.9653 54.8223 256.2945
v 1683.5839 59.9159 256.2940
f 1963 1964 1965
v 1681.9653 54.8223 256.2945
v 1681.9677 54.8226 265.4111
v 1680.3282 49.6650 262.6517
f 1966 1967 1968
v 1680.3282 49.6650 262.6517
v 1680.3264 49.6648 256.2950
v 1681.9653 54.8223 256.2945
f 1969 1970 1971
v 1664.7690 54.6334 256.2990
v 1680.3282 49.6650 262.6517
v 1672.5410 52.1518 262.6558
f 1972 1973 1974
v 1672.5410 52.1518 262.6558
v 1664.7707 54.6336 262.6598
v 1664.7690 54.6334 256.2990
f 1975 1976 1977
v 1670.2555 58.5587 256.2975
v 1671.8848 63.6544 262.6599
v 1671.8830 63.6542 256.2971
f 1978 1979 1980

g building_ID_D172F51A-4EC3-4DF2-82A2-A9BEB8C1714A
v 1641.3108 43.9334 256.9002
v 1646.7540 42.1359 256.8988
v 1633.4912 38.0234 256.9022
f 1981 1982 1983
v 1633.4912 38.0234 256.9022
v 1646.7540 42.1359 256.8988
v 1644.2655 34.4966 256.8995
f 1984 1985 1986
v 1641.3108 43.9334 256.9002
v 1633.4912 38.0234 256.9022
v 1636.0026 45.6856 256.9015
f 1987 1988 1989
v 1645.6364 38.7021 262.8179
v 1638.8066 36.2844 264.9906
v 1644.2671 34.4969 262.8153
f 1990 1991 1992
v 1645.6364 38.7021 262.8179
v 1646.7556 42.1360 262.8206
v 1641.3130 43.9336 264.9899
f 1993 1994 1995
v 1638.8066 36.2844 264.9906
v 1645.6364 38.7021 262.8179
v 1641.3130 43.9336 264.9899
f 1996 1997 1998
v 1634.7480 41.8552 262.9157
v 1641.3130 43.9336 264.9899
v 1636.0042 45.6857 262.9153
f 1999 2000 2001
v 1638.8066 36.2844 264.9906
v 1634.7480 41.8552 262.9157
v 1633.4927 38.0237 262.9160
f 2002 2003 2004
v 1641.3130 43.9336 264.9899
v 1634.7480 41.8552 262.9157
v 1638.8066 36.2844 264.9906
f 2005 2006 2007
v 1644.2655 34.4966 256.8995
v 1646.7540 42.1359 256.8988
v 1645.6364 38.7021 262.8179
f 2008 2009 2010
v 1644.2671 34.4969 262.8153
v 1644.2655 34.4966 256.8995
v 1645.6364 38.7021 262.8179
f 2011 2012 2013
v 1636.0042 45.6857 262.9153
v 1633.4912 38.0234 256.9022
v 1634.7480 41.8552 262.9157
f 2014 2015 2016
v 1636.0026 45.6856 256.9015
v 1633.4912 38.0234 256.9022
v 1636.0042 45.6857 262.9153
f 2017 2018 2019
v 1636.0042 45.6857 262.9153
v 1641.3108 43.9334 256.9002
v 1636.0026 45.6856 256.9015
f 2020 2021 2022
v 1641.3108 43.9334 256.9002
v 1636.0042 45.6857 262.9153
v 1641.3130 43.9336 264.9899
f 2023 2024 2025
v 1646.7556 42.1360 262.8206
v 1646.7540 42.1359 256.8988
v 1641.3108 43.9334 256.9002
f 2026 2027 2028
v 1641.3130 43.9336 264.9899
v 1646.7556 42.1360 262.8206
v 1641.3108 43.9334 256.9002
f 2029 2030 2031
v 1644.2671 34.4969 262.8153
v 1633.4912 38.0234 256.9022
v 1644.2655 34.4966 256.8995
f 2032 2033 2034
v 1644.2671 34.4969 262.8153
v 1633.4927 38.0237 262.9160
v 1633.4912 38.0234 256.9022
f 2035 2036 2037
v 1638.8066 36.2844 264.9906
v 1633.4927 38.0237 262.9160
v 1644.2671 34.4969 262.8153
f 2038 2039 2040
v 1645.6364 38.7021 262.8179
v 1646.7540 42.1359 256.8988
v 1646.7556 42.1360 262.8206
f 2041 2042 2043
v 1633.4927 38.0237 262.9160
v 1634.7480 41.8552 262.9157
v 1633.4912 38.0234 256.9022
f 2044 2045 2046

g building_ID_BC049340-785D-43C1-9041-7512186CC4F4
v 1636.0026 45.6856 256.9015
v 1650.0320 70.5396 256.8977
v 1655.4711 68.7541 256.8963
f 2047 2048 2049
v 1644.8007 72.2577 256.8990
v 1650.0320 70.5396 256.8977
v 1636.0026 45.6856 256.9015
f 2050 2051 2052
v 1641.3108 43.9334 256.9002
v 1655.4711 68.7541 256.8963
v 1646.7540 42.1359 256.8988
f 2053 2054 2055
v 1636.0026 45.6856 256.9015
v 1655.4711 68.7541 256.8963
v 1641.3108 43.9334 256.9002
f 2056 2057 2058
v 1641.3130 43.9336 264.9899
v 1646.7556 42.1360 262.8206
v 1650.3892 53.2302 262.8206
f 2059 2060 2061
v 1650.3892 53.2302 262.8206
v 1655.4727 68.7543 262.8211
v 1650.0342 70.5400 264.9874
f 2062 2063 2064
v 1641.3130 43.9336 264.9899
v 1650.3892 53.2302 262.8206
v 1650.0342 70.5400 264.9874
f 2065 2066 2067
v 1650.0342 70.5400 264.9874
v 1644.8023 72.2578 262.9438
v 1640.6034 59.5752 262.9300
f 2068 2069 2070
v 1641.3130 43.9336 264.9899
v 1638.2040 52.3288 262.9217
v 1636.0042 45.6857 262.9153
f 2071 2072 2073
v 1650.0342 70.5400 264.9874
v 1640.6034 59.5752 262.9300
v 1641.3130 43.9336 264.9899
f 2074 2075 2076
v 1638.2040 52.3288 262.9217
v 1641.3130 43.9336 264.9899
v 1640.6034 59.5752 262.9300
f 2077 2078 2079
v 1655.4711 68.7541 256.8963
v 1655.4719 68.7542 259.8582
v 1650.3892 53.2302 262.8206
f 2080 2081 2082
v 1655.4711 68.7541 256.8963
v 1650.3892 53.2302 262.8206
v 1646.7540 42.1359 256.8988
f 2083 2084 2085
v 1644.8019 72.2578 261.4319
v 1644.8007 72.2577 256.8990
v 1640.6034 59.5752 262.9300
f 2086 2087 2088
v 1644.8007 72.2577 256.8990
v 1638.2040 52.3288 262.9217
v 1640.6034 59.5752 262.9300
f 2089 2090 2091
v 1636.0042 45.6857 262.9153
v 1644.8007 72.2577 256.8990
v 1636.0026 45.6856 256.9015
f 2092 2093 2094
v 1655.4711 68.7541 256.8963
v 1644.8019 72.2578 261.4319
v 1644.8023 72.2578 262.9438
f 2095 2096 2097
v 1644.8019 72.2578 261.4319
v 1650.0320 70.5396 256.8977
v 1644.8007 72.2577 256.8990
f 2098 2099 2100
v 1655.4719 68.7542 259.8582
v 1644.8023 72.2578 262.9438
v 1650.0342 70.5400 264.9874
f 2101 2102 2103
v 1655.4719 68.7542 259.8582
v 1655.4711 68.7541 256.8963
v 1644.8023 72.2578 262.9438
f 2104 2105 2106
v 1655.4727 68.7543 262.8211
v 1655.4719 68.7542 259.8582
v 1650.0342 70.5400 264.9874
f 2107 2108 2109
v 1650.0320 70.5396 256.8977
v 1644.8019 72.2578 261.4319
v 1655.4711 68.7541 256.8963
f 2110 2111 2112
v 1641.3108 43.9334 256.9002
v 1646.7540 42.1359 256.8988
v 1646.7556 42.1360 262.8206
f 2113 2114 2115
v 1636.0026 45.6856 256.9015
v 1641.3108 43.9334 256.9002
v 1636.0042 45.6857 262.9153
f 2116 2117 2118
v 1641.3130 43.9336 264.9899
v 1636.0042 45.6857 262.9153
v 1641.3108 43.9334 256.9002
f 2119 2120 2121
v 1646.7556 42.1360 262.8206
v 1641.3130 43.9336 264.9899
v 1641.3108 43.9334 256.9002
f 2122 2123 2124
v 1650.3892 53.2302 262.8206
v 1655.4719 68.7542 259.8582
v 1655.4727 68.7543 262.8211
f 2125 2126 2127
v 1650.3892 53.2302 262.8206
v 1646.7556 42.1360 262.8206
v 1646.7540 42.1359 256.8988
f 2128 2129 2130
v 1636.0042 45.6857 262.9153
v 1638.2040 52.3288 262.9217
v 1644.8007 72.2577 256.8990
f 2131 2132 2133
v 1640.6034 59.5752 262.9300
v 1644.8023 72.2578 262.9438
v 1644.8019 72.2578 261.4319
f 2134 2135 2136
