# Grid Center: 2617000, 1263200
# Global Anchor: 7.64977475454284, 47.53283995868075, 0.0

g building_ID_E36FA9ED-D146-4CA8-B94F-DA7F836BA32B
v 928.1816 -1428.2148 317.4779
v 927.2484 -1427.5533 317.4782
v 927.3544 -1427.5285 317.4782
f 1 2 3
v 925.8372 -1429.5045 317.4779
v 927.2484 -1427.5533 317.4782
v 928.1816 -1428.2148 317.4779
f 4 5 6
v 926.4455 -1430.1211 317.4777
v 925.8319 -1429.6034 317.4779
v 925.8372 -1429.5045 317.4779
f 7 8 9
v 926.4455 -1430.1211 317.4777
v 926.8395 -1431.2121 317.4774
v 926.0713 -1430.5631 317.4777
f 10 11 12
v 926.4455 -1430.1211 317.4777
v 925.8372 -1429.5045 317.4779
v 928.1816 -1428.2148 317.4779
f 13 14 15
v 928.7583 -1428.6923 317.4777
v 926.4455 -1430.1211 317.4777
v 928.1816 -1428.2148 317.4779
f 16 17 18
v 926.4455 -1430.1211 317.4777
v 932.0889 -1431.4542 317.4766
v 926.8395 -1431.2121 317.4774
f 19 20 21
v 926.8395 -1431.2121 317.4774
v 932.0889 -1431.4542 317.4766
v 930.0204 -1433.9017 317.4763
f 22 23 24
v 932.0889 -1431.4542 317.4766
v 926.4455 -1430.1211 317.4777
v 928.7583 -1428.6923 317.4777
f 25 26 27
v 928.7593 -1428.6934 323.3565
v 926.3285 -1430.7808 322.5975
v 926.9013 -1431.2655 323.3562
f 28 29 30
v 926.3285 -1430.7808 322.5975
v 928.7593 -1428.6934 323.3565
v 928.1824 -1428.2158 322.5978
f 31 32 33
v 926.4463 -1430.1221 322.5016
v 926.0721 -1430.5640 322.4866
v 926.3285 -1430.7808 322.5975
f 34 35 36
v 926.4463 -1430.1221 322.5016
v 926.3285 -1430.7808 322.5975
v 928.1824 -1428.2158 322.5978
f 37 38 39
v 927.3552 -1427.5295 322.2431
v 925.8326 -1429.6044 322.2368
v 926.4463 -1430.1221 322.5016
f 40 41 42
v 928.1824 -1428.2158 322.5978
v 927.3552 -1427.5295 322.2431
v 926.4463 -1430.1221 322.5016
f 43 44 45
v 927.2491 -1427.5542 322.2191
v 925.8326 -1429.6044 322.2368
v 927.3552 -1427.5295 322.2431
f 46 47 48
v 925.8379 -1429.5054 322.2188
v 925.8326 -1429.6044 322.2368
v 927.2491 -1427.5542 322.2191
f 49 50 51
v 928.7593 -1428.6934 323.3565
v 926.9013 -1431.2655 323.3562
v 932.0898 -1431.4553 322.6594
f 52 53 54
v 932.0898 -1431.4553 322.6594
v 926.9013 -1431.2655 323.3562
v 930.0211 -1433.9027 322.6981
f 55 56 57
v 925.8319 -1429.6034 317.4779
v 925.8379 -1429.5054 322.2188
v 925.8372 -1429.5045 317.4779
f 58 59 60
v 926.0713 -1430.5631 317.4777
v 926.0721 -1430.5640 322.4866
v 926.4463 -1430.1221 322.5016
f 61 62 63
v 925.8372 -1429.5045 317.4779
v 925.8379 -1429.5054 322.2188
v 927.2491 -1427.5542 322.2191
f 64 65 66
v 932.0895 -1431.4550 321.3545
v 932.0898 -1431.4553 322.6594
v 930.0204 -1433.9017 317.4763
f 67 68 69
v 932.0889 -1431.4542 317.4766
v 932.0893 -1431.4547 320.0485
v 930.0204 -1433.9017 317.4763
f 70 71 72
v 930.0204 -1433.9017 317.4763
v 932.0898 -1431.4553 322.6594
v 930.0211 -1433.9027 322.6981
f 73 74 75
v 926.9013 -1431.2655 323.3562
v 930.0204 -1433.9017 317.4763
v 930.0211 -1433.9027 322.6981
f 76 77 78
v 930.0204 -1433.9017 317.4763
v 926.9013 -1431.2655 323.3562
v 926.8395 -1431.2121 317.4774
f 79 80 81
v 926.8395 -1431.2121 317.4774
v 926.3285 -1430.7808 322.5975
v 926.0721 -1430.5640 322.4866
f 82 83 84
v 926.0721 -1430.5640 322.4866
v 926.0713 -1430.5631 317.4777
v 926.8395 -1431.2121 317.4774
f 85 86 87
v 926.9013 -1431.2655 323.3562
v 926.3285 -1430.7808 322.5975
v 926.8395 -1431.2121 317.4774
f 88 89 90
v 932.0893 -1431.4547 320.0485
v 927.3546 -1427.5289 318.8272
v 927.3552 -1427.5295 322.2431
f 91 92 93
v 928.1816 -1428.2148 317.4779
v 927.3544 -1427.5285 317.4782
v 927.3546 -1427.5289 318.8272
f 94 95 96
v 927.3552 -1427.5295 322.2431
v 928.1824 -1428.2158 322.5978
v 932.0893 -1431.4547 320.0485
f 97 98 99
v 932.0895 -1431.4550 321.3545
v 928.7593 -1428.6934 323.3565
v 932.0898 -1431.4553 322.6594
f 100 101 102
v 928.1824 -1428.2158 322.5978
v 932.0895 -1431.4550 321.3545
v 932.0893 -1431.4547 320.0485
f 103 104 105
v 928.1816 -1428.2148 317.4779
v 927.3546 -1427.5289 318.8272
v 928.7583 -1428.6923 317.4777
f 106 107 108
v 928.7583 -1428.6923 317.4777
v 932.0893 -1431.4547 320.0485
v 932.0889 -1431.4542 317.4766
f 109 110 111
v 927.3546 -1427.5289 318.8272
v 932.0893 -1431.4547 320.0485
v 928.7583 -1428.6923 317.4777
f 112 113 114
v 928.1824 -1428.2158 322.5978
v 928.7593 -1428.6934 323.3565
v 932.0895 -1431.4550 321.3545
f 115 116 117
v 925.8379 -1429.5054 322.2188
v 925.8319 -1429.6034 317.4779
v 925.8326 -1429.6044 322.2368
f 118 119 120
v 925.8326 -1429.6044 322.2368
v 926.4455 -1430.1211 317.4777
v 926.4463 -1430.1221 322.5016
f 121 122 123
v 926.4455 -1430.1211 317.4777
v 925.8326 -1429.6044 322.2368
v 925.8319 -1429.6034 317.4779
f 124 125 126
v 926.0713 -1430.5631 317.4777
v 926.4463 -1430.1221 322.5016
v 926.4455 -1430.1211 317.4777
f 127 128 129
v 927.3544 -1427.5285 317.4782
v 927.2484 -1427.5533 317.4782
v 927.2491 -1427.5542 322.2191
f 130 131 132
v 927.2491 -1427.5542 322.2191
v 927.3552 -1427.5295 322.2431
v 927.3546 -1427.5289 318.8272
f 133 134 135
v 927.3546 -1427.5289 318.8272
v 927.3544 -1427.5285 317.4782
v 927.2491 -1427.5542 322.2191
f 136 137 138
v 925.8372 -1429.5045 317.4779
v 927.2491 -1427.5542 322.2191
v 927.2484 -1427.5533 317.4782
f 139 140 141
v 930.0204 -1433.9017 317.4763
v 932.0893 -1431.4547 320.0485
v 932.0895 -1431.4550 321.3545
f 142 143 144

g building_ID_277D249D-8E32-4521-BC06-D1237B6DA3E9
v 1189.9893 -1598.7620 310.0398
v 1191.5856 -1603.1433 310.0384
v 1189.2089 -1600.4319 310.0395
f 145 146 147
v 1191.5856 -1603.1433 310.0384
v 1188.5953 -1601.7473 310.0393
v 1189.2089 -1600.4319 310.0395
f 148 149 150
v 1192.9796 -1600.1580 310.0389
v 1192.2041 -1601.8199 310.0386
v 1189.9893 -1598.7620 310.0398
f 151 152 153
v 1189.9893 -1598.7620 310.0398
v 1192.2041 -1601.8199 310.0386
v 1191.5856 -1603.1433 310.0384
f 154 155 156
v 1189.9905 -1598.7633 315.8716
v 1192.2054 -1601.8213 316.4834
v 1192.9808 -1600.1593 315.8747
f 157 158 159
v 1192.2054 -1601.8213 316.4834
v 1189.9905 -1598.7633 315.8716
v 1189.2101 -1600.4333 316.4843
f 160 161 162
v 1189.2101 -1600.4333 316.4843
v 1188.5965 -1601.7485 315.8921
v 1190.0916 -1602.4466 315.8896
f 163 164 165
v 1189.2101 -1600.4333 316.4843
v 1190.0916 -1602.4466 315.8896
v 1192.2054 -1601.8213 316.4834
f 166 167 168
v 1191.5867 -1603.1445 315.8872
v 1192.2054 -1601.8213 316.4834
v 1190.0916 -1602.4466 315.8896
f 169 170 171
v 1192.9796 -1600.1580 310.0389
v 1189.9893 -1598.7620 310.0398
v 1189.9899 -1598.7627 312.9547
f 172 173 174
v 1189.9902 -1598.7630 314.4136
v 1189.9905 -1598.7633 315.8716
v 1192.9796 -1600.1580 310.0389
f 175 176 177
v 1192.9796 -1600.1580 310.0389
v 1189.9899 -1598.7627 312.9547
v 1189.9902 -1598.7630 314.4136
f 178 179 180
v 1189.9905 -1598.7633 315.8716
v 1192.9808 -1600.1593 315.8747
v 1192.9804 -1600.1590 314.4157
f 181 182 183
v 1191.5856 -1603.1433 310.0384
v 1191.5862 -1603.1439 312.9603
v 1190.0916 -1602.4466 315.8896
f 184 185 186
v 1188.5956 -1601.7476 311.5023
v 1190.0916 -1602.4466 315.8896
v 1188.5962 -1601.7483 314.4291
f 187 188 189
v 1191.5856 -1603.1433 310.0384
v 1188.5956 -1601.7476 311.5023
v 1188.5953 -1601.7473 310.0393
f 190 191 192
v 1190.0916 -1602.4466 315.8896
v 1188.5956 -1601.7476 311.5023
v 1191.5856 -1603.1433 310.0384
f 193 194 195
v 1188.5962 -1601.7483 314.4291
v 1188.5965 -1601.7485 315.8921
v 1189.2101 -1600.4333 316.4843
f 196 197 198
v 1188.5962 -1601.7483 314.4291
v 1189.9902 -1598.7630 314.4136
v 1188.5956 -1601.7476 311.5023
f 199 200 201
v 1189.2101 -1600.4333 316.4843
v 1189.9902 -1598.7630 314.4136
v 1188.5962 -1601.7483 314.4291
f 202 203 204
v 1189.9899 -1598.7627 312.9547
v 1189.2089 -1600.4319 310.0395
v 1188.5956 -1601.7476 311.5023
f 205 206 207
v 1189.9902 -1598.7630 314.4136
v 1189.9899 -1598.7627 312.9547
v 1188.5956 -1601.7476 311.5023
f 208 209 210
v 1189.2089 -1600.4319 310.0395
v 1188.5953 -1601.7473 310.0393
v 1188.5956 -1601.7476 311.5023
f 211 212 213
v 1189.9899 -1598.7627 312.9547
v 1189.9893 -1598.7620 310.0398
v 1189.2089 -1600.4319 310.0395
f 214 215 216
v 1189.9905 -1598.7633 315.8716
v 1189.9902 -1598.7630 314.4136
v 1189.2101 -1600.4333 316.4843
f 217 218 219
v 1192.2041 -1601.8199 310.0386
v 1192.9796 -1600.1580 310.0389
v 1192.9804 -1600.1590 314.4157
f 220 221 222
v 1192.2041 -1601.8199 310.0386
v 1192.9804 -1600.1590 314.4157
v 1191.5856 -1603.1433 310.0384
f 223 224 225
v 1192.2054 -1601.8213 316.4834
v 1191.5862 -1603.1439 312.9603
v 1192.9808 -1600.1593 315.8747
f 226 227 228
v 1191.5867 -1603.1445 315.8872
v 1191.5862 -1603.1439 312.9603
v 1192.2054 -1601.8213 316.4834
f 229 230 231
v 1192.9808 -1600.1593 315.8747
v 1191.5862 -1603.1439 312.9603
v 1191.5856 -1603.1433 310.0384
f 232 233 234
v 1192.9804 -1600.1590 314.4157
v 1192.9808 -1600.1593 315.8747
v 1191.5856 -1603.1433 310.0384
f 235 236 237
v 1189.9905 -1598.7633 315.8716
v 1192.9804 -1600.1590 314.4157
v 1192.9796 -1600.1580 310.0389
f 238 239 240
v 1191.5862 -1603.1439 312.9603
v 1191.5867 -1603.1445 315.8872
v 1190.0916 -1602.4466 315.8896
f 241 242 243
v 1190.0916 -1602.4466 315.8896
v 1188.5965 -1601.7485 315.8921
v 1188.5962 -1601.7483 314.4291
f 244 245 246
