# Grid Center: 2617000, 1263800
# Global Anchor: 7.64977475454284, 47.53283995868075, 0.0

g building_ID_167C263A-F262-4605-9400-DF82A94179D2
v 1069.3535 -992.4390 282.9255
v 1079.8176 -992.3510 282.9238
v 1078.9739 -995.2328 282.9235
f 1 2 3
v 1079.8176 -992.3510 282.9238
v 1069.3535 -992.4390 282.9255
v 1070.2112 -989.5494 282.9258
f 4 5 6
v 1069.3545 -992.4398 288.3213
v 1078.9749 -995.2335 288.3193
v 1079.8186 -992.3518 288.3196
f 7 8 9
v 1079.8186 -992.3518 288.3196
v 1070.2122 -989.5501 288.3216
v 1069.3545 -992.4398 288.3213
f 10 11 12
v 1070.2112 -989.5494 282.9258
v 1070.2122 -989.5501 288.3216
v 1079.8186 -992.3518 288.3196
f 13 14 15
v 1069.3535 -992.4390 282.9255
v 1069.3545 -992.4398 288.3213
v 1070.2122 -989.5501 288.3216
f 16 17 18
v 1078.9739 -995.2328 282.9235
v 1078.9749 -995.2335 288.3193
v 1069.3545 -992.4398 288.3213
f 19 20 21
v 1079.8176 -992.3510 282.9238
v 1079.8186 -992.3518 288.3196
v 1078.9749 -995.2335 288.3193
f 22 23 24
v 1070.2112 -989.5494 282.9258
v 1079.8186 -992.3518 288.3196
v 1079.8176 -992.3510 282.9238
f 25 26 27
v 1069.3535 -992.4390 282.9255
v 1070.2122 -989.5501 288.3216
v 1070.2112 -989.5494 282.9258
f 28 29 30
v 1078.9739 -995.2328 282.9235
v 1069.3545 -992.4398 288.3213
v 1069.3535 -992.4390 282.9255
f 31 32 33
v 1079.8176 -992.3510 282.9238
v 1078.9749 -995.2335 288.3193
v 1078.9739 -995.2328 282.9235
f 34 35 36

g building_ID_E9121B91-1878-4A09-B5E0-6E597B93F8FD
v 1028.8368 -1011.0731 282.0133
v 1031.7420 -1002.3910 282.0142
v 1037.9104 -1004.4565 282.0129
f 37 38 39
v 1037.9104 -1004.4565 282.0129
v 1034.8074 -1013.0722 282.0121
v 1028.8368 -1011.0731 282.0133
f 40 41 42
v 1030.2884 -1006.7389 287.7826
v 1036.5270 -1003.9939 289.4639
v 1031.7430 -1002.3918 287.7470
f 43 44 45
v 1033.4239 -1012.6094 289.4631
v 1030.2884 -1006.7389 287.7826
v 1028.8378 -1011.0739 287.8171
f 46 47 48
v 1036.5270 -1003.9939 289.4639
v 1030.2884 -1006.7389 287.7826
v 1033.4239 -1012.6094 289.4631
f 49 50 51
v 1034.8086 -1013.0731 289.0828
v 1037.9117 -1004.4575 289.0836
v 1036.5270 -1003.9939 289.4639
f 52 53 54
v 1036.5270 -1003.9939 289.4639
v 1033.4239 -1012.6094 289.4631
v 1034.8086 -1013.0731 289.0828
f 55 56 57
v 1030.2884 -1006.7389 287.7826
v 1028.8368 -1011.0731 282.0133
v 1028.8373 -1011.0737 285.2781
f 58 59 60
v 1028.8368 -1011.0731 282.0133
v 1030.2884 -1006.7389 287.7826
v 1031.7430 -1002.3918 287.7470
f 61 62 63
v 1031.7420 -1002.3910 282.0142
v 1028.8368 -1011.0731 282.0133
v 1031.7430 -1002.3918 287.7470
f 64 65 66
v 1037.9104 -1004.4565 282.0129
v 1037.9117 -1004.4575 289.0836
v 1034.8086 -1013.0731 289.0828
f 67 68 69
v 1028.8373 -1011.0737 285.2781
v 1034.8074 -1013.0722 282.0121
v 1034.8086 -1013.0731 289.0828
f 70 71 72
v 1028.8373 -1011.0737 285.2781
v 1034.8086 -1013.0731 289.0828
v 1033.4239 -1012.6094 289.4631
f 73 74 75
v 1034.8074 -1013.0722 282.0121
v 1028.8373 -1011.0737 285.2781
v 1028.8368 -1011.0731 282.0133
f 76 77 78
v 1028.8378 -1011.0739 287.8171
v 1028.8373 -1011.0737 285.2781
v 1033.4239 -1012.6094 289.4631
f 79 80 81
v 1031.7420 -1002.3910 282.0142
v 1036.5270 -1003.9939 289.4639
v 1037.9104 -1004.4565 282.0129
f 82 83 84
v 1036.5270 -1003.9939 289.4639
v 1037.9117 -1004.4575 289.0836
v 1037.9104 -1004.4565 282.0129
f 85 86 87
v 1031.7430 -1002.3918 287.7470
v 1036.5270 -1003.9939 289.4639
v 1031.7420 -1002.3910 282.0142
f 88 89 90
v 1028.8373 -1011.0737 285.2781
v 1028.8378 -1011.0739 287.8171
v 1030.2884 -1006.7389 287.7826
f 91 92 93
v 1037.9104 -1004.4565 282.0129
v 1034.8086 -1013.0731 289.0828
v 1034.8074 -1013.0722 282.0121
f 94 95 96

g building_ID_E612050D-025E-407E-B290-E692C5CB56F6
v 1055.7455 -988.7036 282.4305
v 1045.1584 -980.1873 282.4335
v 1057.1677 -983.4204 282.4310
f 97 98 99
v 1043.7213 -985.4663 282.4329
v 1045.1584 -980.1873 282.4335
v 1055.7455 -988.7036 282.4305
f 100 101 102
v 1055.7466 -988.7043 288.6882
v 1057.1686 -983.4212 287.8598
v 1043.7224 -985.4672 288.6906
f 103 104 105
v 1043.7224 -985.4672 288.6906
v 1057.1686 -983.4212 287.8598
v 1045.1594 -980.1880 287.8623
f 106 107 108
v 1043.7213 -985.4663 282.4329
v 1043.7224 -985.4672 288.6906
v 1045.1584 -980.1873 282.4335
f 109 110 111
v 1055.7455 -988.7036 282.4305
v 1055.7466 -988.7043 288.6882
v 1043.7213 -985.4663 282.4329
f 112 113 114
v 1043.7224 -985.4672 288.6906
v 1043.7213 -985.4663 282.4329
v 1055.7466 -988.7043 288.6882
f 115 116 117
v 1057.1677 -983.4204 282.4310
v 1057.1686 -983.4212 287.8598
v 1055.7455 -988.7036 282.4305
f 118 119 120
v 1057.1686 -983.4212 287.8598
v 1045.1584 -980.1873 282.4335
v 1045.1594 -980.1880 287.8623
f 121 122 123
v 1057.1686 -983.4212 287.8598
v 1057.1677 -983.4204 282.4310
v 1045.1584 -980.1873 282.4335
f 124 125 126
v 1043.7224 -985.4672 288.6906
v 1045.1594 -980.1880 287.8623
v 1045.1584 -980.1873 282.4335
f 127 128 129
v 1057.1686 -983.4212 287.8598
v 1055.7466 -988.7043 288.6882
v 1055.7455 -988.7036 282.4305
f 130 131 132
