# Grid Center: 2617800, 1264800
# Global Anchor: 7.64977475454284, 47.53283995868075, 0.0

g building_ID_EA7EFB26-9C1A-4821-9D6C-C4EBEC4333D9
v 1737.1281 -103.9749 263.3455
v 1746.2780 -100.2216 263.3431
v 1742.0056 -111.5979 263.3441
f 1 2 3
v 1738.3033 -98.6731 263.3453
v 1746.2780 -100.2216 263.3431
v 1738.2263 -99.0189 263.3453
f 4 5 6
v 1737.1281 -103.9749 263.3455
v 1738.2263 -99.0189 263.3453
v 1746.2780 -100.2216 263.3431
f 7 8 9
v 1737.1281 -103.9749 263.3455
v 1742.0056 -111.5979 263.3441
v 1738.4939 -111.5055 263.3450
f 10 11 12
v 1741.8062 -112.1283 263.3441
v 1738.4939 -111.5055 263.3450
v 1742.0056 -111.5979 263.3441
f 13 14 15
v 1738.4939 -111.5055 263.3450
v 1735.6513 -110.6329 263.3458
v 1737.1281 -103.9749 263.3455
f 16 17 18
v 1735.5197 -111.2275 263.3458
v 1735.6513 -110.6329 263.3458
v 1738.4939 -111.5055 263.3450
f 19 20 21
v 1738.4219 -111.8853 263.3450
v 1735.5197 -111.2275 263.3458
v 1738.4939 -111.5055 263.3450
f 22 23 24
v 1735.5197 -111.2275 263.3458
v 1738.4219 -111.8853 263.3450
v 1735.4792 -111.4084 263.3459
f 25 26 27
v 1741.1593 -110.9866 277.7168
v 1735.6552 -110.6328 277.1973
v 1735.5233 -111.2275 276.0354
f 28 29 30
v 1735.6552 -110.6328 277.1973
v 1741.1593 -110.9866 277.7168
v 1736.2684 -110.2604 278.0382
f 31 32 33
v 1735.5233 -111.2275 276.0354
v 1738.4976 -111.5055 276.2966
v 1741.1593 -110.9866 277.7168
f 34 35 36
v 1738.4976 -111.5055 276.2966
v 1741.6489 -112.0978 276.1118
v 1741.1593 -110.9866 277.7168
f 37 38 39
v 1738.4976 -111.5055 276.2966
v 1735.4827 -111.4084 275.7475
v 1738.4254 -111.8852 275.6926
f 40 41 42
v 1735.5233 -111.2275 276.0354
v 1735.4827 -111.4084 275.7475
v 1738.4976 -111.5055 276.2966
f 43 44 45
v 1742.0091 -111.5978 275.8067
v 1741.6489 -112.0978 276.1118
v 1741.8097 -112.1283 275.8067
f 46 47 48
v 1741.6489 -112.0978 276.1118
v 1744.7181 -101.0032 278.0360
v 1741.1593 -110.9866 277.7168
f 49 50 51
v 1742.0091 -111.5978 275.8067
v 1744.7181 -101.0032 278.0360
v 1741.6489 -112.0978 276.1118
f 52 53 54
v 1746.2227 -100.2102 276.0897
v 1744.7181 -101.0032 278.0360
v 1742.0091 -111.5978 275.8067
f 55 56 57
v 1742.0091 -111.5978 275.8067
v 1746.2816 -100.2214 275.9867
v 1746.2227 -100.2102 276.0897
f 58 59 60
v 1739.6778 -108.2905 278.6063
v 1741.1593 -110.9866 277.7168
v 1744.7181 -101.0032 278.0360
f 61 62 63
v 1739.6778 -108.2905 278.6063
v 1736.2684 -110.2604 278.0382
v 1741.1593 -110.9866 277.7168
f 64 65 66
v 1740.9889 -102.6471 278.6060
v 1744.7181 -101.0032 278.0360
v 1738.6470 -99.5920 278.0377
f 67 68 69
v 1740.9889 -102.6471 278.6060
v 1739.6778 -108.2905 278.6063
v 1744.7181 -101.0032 278.0360
f 70 71 72
v 1737.1320 -103.9748 277.1840
v 1735.6552 -110.6328 277.1973
v 1736.2684 -110.2604 278.0382
f 73 74 75
v 1736.2684 -110.2604 278.0382
v 1738.6470 -99.5920 278.0377
v 1737.1320 -103.9748 277.1840
f 76 77 78
v 1738.6470 -99.5920 278.0377
v 1738.2303 -99.0188 277.2279
v 1737.1320 -103.9748 277.1840
f 79 80 81
v 1738.2303 -99.0188 277.2279
v 1744.7181 -101.0032 278.0360
v 1746.2227 -100.2102 276.0897
f 82 83 84
v 1738.6470 -99.5920 278.0377
v 1744.7181 -101.0032 278.0360
v 1738.2303 -99.0188 277.2279
f 85 86 87
v 1738.3070 -98.6731 276.6079
v 1738.2303 -99.0188 277.2279
v 1746.2227 -100.2102 276.0897
f 88 89 90
v 1738.4939 -111.5055 263.3450
v 1738.4957 -111.5055 269.8208
v 1738.4254 -111.8852 275.6926
f 91 92 93
v 1738.4219 -111.8853 263.3450
v 1738.4254 -111.8852 275.6926
v 1735.4792 -111.4084 263.3459
f 94 95 96
v 1735.4827 -111.4084 275.7475
v 1735.4792 -111.4084 263.3459
v 1738.4254 -111.8852 275.6926
f 97 98 99
v 1739.6778 -108.2905 278.6063
v 1740.9889 -102.6471 278.6060
v 1738.6470 -99.5920 278.0377
f 100 101 102
v 1738.6470 -99.5920 278.0377
v 1736.2684 -110.2604 278.0382
v 1739.6778 -108.2905 278.6063
f 103 104 105
v 1738.4939 -111.5055 263.3450
v 1741.8062 -112.1283 263.3441
v 1741.8097 -112.1283 275.8067
f 106 107 108
v 1738.4957 -111.5055 269.8208
v 1741.8097 -112.1283 275.8067
v 1741.6489 -112.0978 276.1118
f 109 110 111
v 1741.6489 -112.0978 276.1118
v 1738.4976 -111.5055 276.2966
v 1738.4957 -111.5055 269.8208
f 112 113 114
v 1738.4957 -111.5055 269.8208
v 1738.4939 -111.5055 263.3450
v 1741.8097 -112.1283 275.8067
f 115 116 117
v 1742.0091 -111.5978 275.8067
v 1742.0056 -111.5979 263.3441
v 1746.2780 -100.2216 263.3431
f 118 119 120
v 1746.2816 -100.2214 275.9867
v 1742.0091 -111.5978 275.8067
v 1746.2780 -100.2216 263.3431
f 121 122 123
v 1741.8062 -112.1283 263.3441
v 1742.0091 -111.5978 275.8067
v 1741.8097 -112.1283 275.8067
f 124 125 126
v 1742.0056 -111.5979 263.3441
v 1742.0091 -111.5978 275.8067
v 1741.8062 -112.1283 263.3441
f 127 128 129
v 1746.2816 -100.2214 275.9867
v 1738.3070 -98.6731 276.6079
v 1746.2227 -100.2102 276.0897
f 130 131 132
v 1738.3033 -98.6731 263.3453
v 1738.3070 -98.6731 276.6079
v 1746.2816 -100.2214 275.9867
f 133 134 135
v 1746.2816 -100.2214 275.9867
v 1746.2780 -100.2216 263.3431
v 1738.3033 -98.6731 263.3453
f 136 137 138
v 1738.3070 -98.6731 276.6079
v 1737.1320 -103.9748 277.1840
v 1738.2303 -99.0188 277.2279
f 139 140 141
v 1737.1281 -103.9749 263.3455
v 1735.4827 -111.4084 275.7475
v 1737.1320 -103.9748 277.1840
f 142 143 144
v 1737.1320 -103.9748 277.1840
v 1735.5233 -111.2275 276.0354
v 1735.6552 -110.6328 277.1973
f 145 146 147
v 1737.1320 -103.9748 277.1840
v 1735.4827 -111.4084 275.7475
v 1735.5233 -111.2275 276.0354
f 148 149 150
v 1737.1281 -103.9749 263.3455
v 1737.1320 -103.9748 277.1840
v 1738.3070 -98.6731 276.6079
f 151 152 153
v 1737.1281 -103.9749 263.3455
v 1738.3070 -98.6731 276.6079
v 1738.2263 -99.0189 263.3453
f 154 155 156
v 1738.3033 -98.6731 263.3453
v 1738.2263 -99.0189 263.3453
v 1738.3070 -98.6731 276.6079
f 157 158 159
v 1735.4792 -111.4084 263.3459
v 1735.4827 -111.4084 275.7475
v 1735.5197 -111.2275 263.3458
f 160 161 162
v 1735.6513 -110.6329 263.3458
v 1735.5197 -111.2275 263.3458
v 1735.4827 -111.4084 275.7475
f 163 164 165
v 1735.4827 -111.4084 275.7475
v 1737.1281 -103.9749 263.3455
v 1735.6513 -110.6329 263.3458
f 166 167 168
v 1738.4254 -111.8852 275.6926
v 1738.4957 -111.5055 269.8208
v 1738.4976 -111.5055 276.2966
f 169 170 171
v 1738.4939 -111.5055 263.3450
v 1738.4254 -111.8852 275.6926
v 1738.4219 -111.8853 263.3450
f 172 173 174

g building_ID_7B6FE8EA-B7B2-49D2-A6B8-095DDF71AB3B
v 1709.8892 -97.7361 263.3311
v 1710.8236 -93.0887 263.3309
v 1721.7415 -95.3089 263.3279
f 175 176 177
v 1716.8969 -103.0388 263.3291
v 1709.3602 -100.3617 263.3312
v 1709.8892 -97.7361 263.3311
f 178 179 180
v 1709.3602 -100.3617 263.3312
v 1716.8969 -103.0388 263.3291
v 1709.1210 -101.5500 263.3312
f 181 182 183
v 1716.8969 -103.0388 263.3291
v 1709.8892 -97.7361 263.3311
v 1721.7415 -95.3089 263.3279
f 184 185 186
v 1716.8969 -103.0388 263.3291
v 1721.7415 -95.3089 263.3279
v 1720.9886 -99.0388 263.3281
f 187 188 189
v 1720.9886 -99.0388 263.3281
v 1720.1515 -103.1785 263.3282
v 1716.8969 -103.0388 263.3291
f 190 191 192
v 1716.8969 -103.0388 263.3291
v 1720.1515 -103.1785 263.3282
v 1716.5054 -106.5706 263.3292
f 193 194 195
v 1716.3534 -107.3273 263.3292
v 1716.0855 -107.2756 263.3293
v 1716.5054 -106.5706 263.3292
f 196 197 198
v 1716.5054 -106.5706 263.3292
v 1716.0855 -107.2756 263.3293
v 1716.8969 -103.0388 263.3291
f 199 200 201
v 1716.5054 -106.5706 263.3292
v 1720.1515 -103.1785 263.3282
v 1719.3499 -107.1493 263.3283
f 202 203 204
v 1720.9927 -99.0387 278.1915
v 1709.8935 -97.7360 278.7405
v 1718.9844 -100.8093 279.6200
f 205 206 207
v 1709.8935 -97.7360 278.7405
v 1713.5565 -93.6439 275.5667
v 1710.8270 -93.0885 275.5455
f 208 209 210
v 1718.9844 -100.8093 279.6200
v 1709.8935 -97.7360 278.7405
v 1710.6417 -99.2119 279.6223
f 211 212 213
v 1709.8935 -97.7360 278.7405
v 1720.9927 -99.0387 278.1915
v 1713.5565 -93.6439 275.5667
f 214 215 216
v 1713.5565 -93.6439 275.5667
v 1720.9927 -99.0387 278.1915
v 1721.7450 -95.3087 275.6274
f 217 218 219
v 1718.9844 -100.8093 279.6200
v 1720.1556 -103.1784 278.2286
v 1720.9927 -99.0387 278.1915
f 220 221 222
v 1708.4954 -104.9382 275.6438
v 1716.5089 -106.5706 275.5777
v 1720.1556 -103.1784 278.2286
f 223 224 225
v 1709.3644 -100.3615 278.7186
v 1720.1556 -103.1784 278.2286
v 1718.9844 -100.8093 279.6200
f 226 227 228
v 1719.3533 -107.1492 275.5549
v 1720.1556 -103.1784 278.2286
v 1716.5089 -106.5706 275.5777
f 229 230 231
v 1708.4954 -104.9382 275.6438
v 1720.1556 -103.1784 278.2286
v 1709.3644 -100.3615 278.7186
f 232 233 234
v 1708.4954 -104.9382 275.6438
v 1709.3644 -100.3615 278.7186
v 1708.4454 -104.9280 275.6439
f 235 236 237
v 1716.0888 -107.2754 275.0688
v 1716.3567 -107.3272 275.0687
v 1716.5089 -106.5706 275.5777
f 238 239 240
v 1716.0888 -107.2754 275.0688
v 1716.5089 -106.5706 275.5777
v 1708.4954 -104.9382 275.6438
f 241 242 243
v 1716.0888 -107.2754 275.0688
v 1708.4954 -104.9382 275.6438
v 1708.3239 -105.7887 275.0710
f 244 245 246
v 1710.6417 -99.2119 279.6223
v 1709.3644 -100.3615 278.7186
v 1718.9844 -100.8093 279.6200
f 247 248 249
v 1710.6417 -99.2119 279.6223
v 1709.8935 -97.7360 278.7405
v 1709.3644 -100.3615 278.7186
f 250 251 252
v 1710.8261 -93.0886 272.4706
v 1710.8270 -93.0885 275.5455
v 1713.5565 -93.6439 275.5667
f 253 254 255
v 1710.8236 -93.0887 263.3309
v 1713.5565 -93.6439 275.5667
v 1721.7415 -95.3089 263.3279
f 256 257 258
v 1713.5565 -93.6439 275.5667
v 1721.7450 -95.3087 275.6274
v 1721.7441 -95.3088 272.5525
f 259 260 261
v 1713.5565 -93.6439 275.5667
v 1721.7433 -95.3088 269.4776
v 1721.7415 -95.3089 263.3279
f 262 263 264
v 1716.0888 -107.2754 275.0688
v 1716.3534 -107.3273 263.3292
v 1716.3567 -107.3272 275.0687
f 265 266 267
v 1716.0888 -107.2754 275.0688
v 1716.0855 -107.2756 263.3293
v 1716.3534 -107.3273 263.3292
f 268 269 270
v 1716.5054 -106.5706 263.3292
v 1719.3499 -107.1493 263.3283
v 1719.3516 -107.1493 269.4311
f 271 272 273
v 1719.3524 -107.1492 272.4930
v 1716.5054 -106.5706 263.3292
v 1719.3516 -107.1493 269.4311
f 274 275 276
v 1719.3524 -107.1492 272.4930
v 1716.5089 -106.5706 275.5777
v 1716.5054 -106.5706 263.3292
f 277 278 279
v 1708.4919 -104.9382 263.2513
v 1716.8969 -103.0388 263.2491
v 1715.6069 -109.7783 263.2494
f 280 281 282
v 1707.8362 -108.1935 263.2515
v 1708.4919 -104.9382 263.2513
v 1715.6069 -109.7783 263.2494
f 283 284 285
v 1709.1219 -101.5500 263.2512
v 1708.4919 -104.9382 263.2513
v 1708.4419 -104.9281 263.2514
f 286 287 288
v 1716.8969 -103.0388 263.2491
v 1708.4919 -104.9382 263.2513
v 1709.1219 -101.5500 263.2512
f 289 290 291
v 1715.6069 -109.7783 263.2494
v 1715.6101 -109.7781 275.0688
v 1707.8395 -108.1934 275.0711
f 292 293 294
v 1716.0888 -107.2754 275.0688
v 1708.3239 -105.7887 275.0710
v 1707.8395 -108.1934 275.0711
f 295 296 297
v 1707.8395 -108.1934 275.0711
v 1715.6101 -109.7781 275.0688
v 1716.0888 -107.2754 275.0688
f 298 299 300
v 1716.0855 -107.2756 263.3293
v 1716.8969 -103.0388 263.2491
v 1716.8969 -103.0388 263.3291
f 301 302 303
v 1715.6069 -109.7783 263.2494
v 1716.0855 -107.2756 263.3293
v 1715.6101 -109.7781 275.0688
f 304 305 306
v 1716.0888 -107.2754 275.0688
v 1715.6101 -109.7781 275.0688
v 1716.0855 -107.2756 263.3293
f 307 308 309
v 1716.8969 -103.0388 263.2491
v 1716.0855 -107.2756 263.3293
v 1715.6069 -109.7783 263.2494
f 310 311 312
v 1709.1219 -101.5500 263.2512
v 1709.1210 -101.5500 263.3312
v 1716.8969 -103.0388 263.3291
f 313 314 315
v 1720.9927 -99.0387 278.1915
v 1721.7441 -95.3088 272.5525
v 1721.7450 -95.3087 275.6274
f 316 317 318
v 1720.1556 -103.1784 278.2286
v 1721.7441 -95.3088 272.5525
v 1720.9927 -99.0387 278.1915
f 319 320 321
v 1721.7441 -95.3088 272.5525
v 1719.3524 -107.1492 272.4930
v 1721.7433 -95.3088 269.4776
f 322 323 324
v 1720.1556 -103.1784 278.2286
v 1719.3524 -107.1492 272.4930
v 1721.7441 -95.3088 272.5525
f 325 326 327
v 1719.3516 -107.1493 269.4311
v 1720.1515 -103.1785 263.3282
v 1721.7433 -95.3088 269.4776
f 328 329 330
v 1719.3516 -107.1493 269.4311
v 1721.7433 -95.3088 269.4776
v 1719.3524 -107.1492 272.4930
f 331 332 333
v 1720.9886 -99.0388 263.3281
v 1721.7415 -95.3089 263.3279
v 1721.7433 -95.3088 269.4776
f 334 335 336
v 1720.1515 -103.1785 263.3282
v 1720.9886 -99.0388 263.3281
v 1721.7433 -95.3088 269.4776
f 337 338 339
v 1720.1515 -103.1785 263.3282
v 1719.3516 -107.1493 269.4311
v 1719.3499 -107.1493 263.3283
f 340 341 342
v 1719.3533 -107.1492 275.5549
v 1719.3524 -107.1492 272.4930
v 1720.1556 -103.1784 278.2286
f 343 344 345
v 1707.8395 -108.1934 275.0711
v 1708.4919 -104.9382 263.2513
v 1707.8362 -108.1935 263.2515
f 346 347 348
v 1708.4919 -104.9382 263.2513
v 1708.3239 -105.7887 275.0710
v 1708.4954 -104.9382 275.6438
f 349 350 351
v 1707.8395 -108.1934 275.0711
v 1708.3239 -105.7887 275.0710
v 1708.4919 -104.9382 263.2513
f 352 353 354
v 1708.4919 -104.9382 263.2513
v 1708.4954 -104.9382 275.6438
v 1708.4452 -104.9280 275.0710
f 355 356 357
v 1708.4454 -104.9280 275.6439
v 1710.8236 -93.0887 263.3309
v 1708.4452 -104.9280 275.0710
f 358 359 360
v 1708.4454 -104.9280 275.6439
v 1709.3644 -100.3615 278.7186
v 1710.8261 -93.0886 272.4706
f 361 362 363
v 1709.1210 -101.5500 263.3312
v 1708.4419 -104.9281 263.2514
v 1708.4452 -104.9280 275.0710
f 364 365 366
v 1709.1210 -101.5500 263.3312
v 1709.1219 -101.5500 263.2512
v 1708.4419 -104.9281 263.2514
f 367 368 369
v 1709.3602 -100.3617 263.3312
v 1709.1210 -101.5500 263.3312
v 1708.4452 -104.9280 275.0710
f 370 371 372
v 1709.8935 -97.7360 278.7405
v 1710.8261 -93.0886 272.4706
v 1709.3644 -100.3615 278.7186
f 373 374 375
v 1708.4454 -104.9280 275.6439
v 1710.8261 -93.0886 272.4706
v 1710.8236 -93.0887 263.3309
f 376 377 378
v 1709.8892 -97.7361 263.3311
v 1709.3602 -100.3617 263.3312
v 1708.4452 -104.9280 275.0710
f 379 380 381
v 1708.4452 -104.9280 275.0710
v 1710.8236 -93.0887 263.3309
v 1709.8892 -97.7361 263.3311
f 382 383 384
v 1710.8270 -93.0885 275.5455
v 1710.8261 -93.0886 272.4706
v 1709.8935 -97.7360 278.7405
f 385 386 387
v 1713.5565 -93.6439 275.5667
v 1710.8236 -93.0887 263.3309
v 1710.8261 -93.0886 272.4706
f 388 389 390
v 1713.5565 -93.6439 275.5667
v 1721.7441 -95.3088 272.5525
v 1721.7433 -95.3088 269.4776
f 391 392 393
v 1716.5054 -106.5706 263.3292
v 1716.5089 -106.5706 275.5777
v 1716.3567 -107.3272 275.0687
f 394 395 396
v 1716.3534 -107.3273 263.3292
v 1716.5054 -106.5706 263.3292
v 1716.3567 -107.3272 275.0687
f 397 398 399
v 1719.3533 -107.1492 275.5549
v 1716.5089 -106.5706 275.5777
v 1719.3524 -107.1492 272.4930
f 400 401 402
v 1715.6069 -109.7783 263.2494
v 1707.8395 -108.1934 275.0711
v 1707.8362 -108.1935 263.2515
f 403 404 405
v 1709.1219 -101.5500 263.2512
v 1716.8969 -103.0388 263.3291
v 1716.8969 -103.0388 263.2491
f 406 407 408
v 1708.4954 -104.9382 275.6438
v 1708.4454 -104.9280 275.6439
v 1708.4452 -104.9280 275.0710
f 409 410 411
v 1708.4919 -104.9382 263.2513
v 1708.4452 -104.9280 275.0710
v 1708.4419 -104.9281 263.2514
f 412 413 414

g building_ID_10D32042-2345-4E9E-9D81-D200E858DC9B
v 1804.7552 -85.6153 262.7331
v 1793.6213 -80.0376 262.7363
v 1811.7993 -78.8213 262.7312
f 415 416 417
v 1811.7993 -78.8213 262.7312
v 1810.0600 -86.7685 262.7315
v 1804.7552 -85.6153 262.7331
f 418 419 420
v 1805.5802 -72.9148 262.7330
v 1812.7478 -74.4829 262.7309
v 1811.7993 -78.8213 262.7312
f 421 422 423
v 1798.6062 -71.4130 262.7350
v 1805.5802 -72.9148 262.7330
v 1798.2134 -73.2230 262.7351
f 424 425 426
v 1811.7993 -78.8213 262.7312
v 1798.2134 -73.2230 262.7351
v 1805.5802 -72.9148 262.7330
f 427 428 429
v 1794.4213 -77.0137 262.7361
v 1798.2134 -73.2230 262.7351
v 1811.7993 -78.8213 262.7312
f 430 431 432
v 1792.8141 -83.0974 262.7365
v 1804.7552 -85.6153 262.7331
v 1804.7349 -85.7063 262.7331
f 433 434 435
v 1793.4744 -80.0071 262.7363
v 1793.6213 -80.0376 262.7363
v 1792.8141 -83.0974 262.7365
f 436 437 438
v 1793.6213 -80.0376 262.7363
v 1794.4213 -77.0137 262.7361
v 1811.7993 -78.8213 262.7312
f 439 440 441
v 1795.3781 -72.6104 262.7359
v 1798.2134 -73.2230 262.7351
v 1794.4213 -77.0137 262.7361
f 442 443 444
v 1794.2844 -76.9844 262.7361
v 1794.4213 -77.0137 262.7361
v 1793.6213 -80.0376 262.7363
f 445 446 447
v 1792.8141 -83.0974 262.7365
v 1793.6213 -80.0376 262.7363
v 1804.7552 -85.6153 262.7331
f 448 449 450
v 1794.5747 -76.3181 271.0997
v 1798.2159 -73.2229 271.0988
v 1795.3805 -72.6102 271.0996
f 451 452 453
v 1806.1347 -78.8480 271.0965
v 1798.2159 -73.2229 271.0988
v 1794.5747 -76.3181 271.0997
f 454 455 456
v 1805.5826 -72.9146 271.0967
v 1798.6088 -71.4130 271.0987
v 1798.2159 -73.2229 271.0988
f 457 458 459
v 1806.1347 -78.8480 271.0965
v 1805.5826 -72.9146 271.0967
v 1798.2159 -73.2229 271.0988
f 460 461 462
v 1805.5826 -72.9146 271.0967
v 1806.1347 -78.8480 271.0965
v 1811.8017 -78.8211 271.0949
f 463 464 465
v 1804.7576 -85.6152 271.0968
v 1804.6394 -85.6850 271.0968
v 1804.7374 -85.7062 271.0968
f 466 467 468
v 1804.7822 -85.0333 271.0968
v 1804.6394 -85.6850 271.0968
v 1804.7576 -85.6152 271.0968
f 469 470 471
v 1810.0624 -86.7685 271.0952
v 1806.1347 -78.8480 271.0965
v 1804.7822 -85.0333 271.0968
f 472 473 474
v 1812.7503 -74.4828 271.0946
v 1805.5826 -72.9146 271.0967
v 1811.8017 -78.8211 271.0949
f 475 476 477
v 1810.0624 -86.7685 271.0952
v 1811.8017 -78.8211 271.0949
v 1806.1347 -78.8480 271.0965
f 478 479 480
v 1810.0624 -86.7685 271.0952
v 1804.7822 -85.0333 271.0968
v 1804.7576 -85.6152 271.0968
f 481 482 483
v 1798.6062 -71.4130 262.7350
v 1798.6088 -71.4130 271.0987
v 1805.5826 -72.9146 271.0967
f 484 485 486
v 1798.2134 -73.2230 262.7351
v 1798.2159 -73.2229 271.0988
v 1798.6088 -71.4130 271.0987
f 487 488 489
v 1795.3781 -72.6104 262.7359
v 1795.3805 -72.6102 271.0996
v 1798.2159 -73.2229 271.0988
f 490 491 492
v 1804.6373 -85.6850 263.7951
v 1804.7349 -85.7063 262.7331
v 1804.7374 -85.7062 271.0968
f 493 494 495
v 1804.6394 -85.6850 271.0968
v 1804.6373 -85.6850 263.7951
v 1804.7374 -85.7062 271.0968
f 496 497 498
v 1792.8141 -83.0974 262.7365
v 1804.6373 -85.6850 263.7951
v 1792.8133 -83.0973 263.7985
f 499 500 501
v 1804.7349 -85.7063 262.7331
v 1804.6373 -85.6850 263.7951
v 1792.8141 -83.0974 262.7365
f 502 503 504
v 1804.7552 -85.6153 262.7331
v 1804.7576 -85.6152 271.0968
v 1804.7374 -85.7062 271.0968
f 505 506 507
v 1810.0600 -86.7685 262.7315
v 1810.0624 -86.7685 271.0952
v 1804.7576 -85.6152 271.0968
f 508 509 510
v 1811.7993 -78.8213 262.7312
v 1811.8017 -78.8211 271.0949
v 1810.0624 -86.7685 271.0952
f 511 512 513
v 1805.5802 -72.9148 262.7330
v 1805.5826 -72.9146 271.0967
v 1812.7503 -74.4828 271.0946
f 514 515 516
v 1813.2312 -74.5622 261.2348
v 1824.6982 -72.2629 261.2316
v 1830.4109 -80.1942 261.2298
f 517 518 519
v 1830.4109 -80.1942 261.2298
v 1830.1284 -81.4933 261.2299
v 1813.2312 -74.5622 261.2348
f 520 521 522
v 1831.8010 -73.7940 261.2295
v 1830.4109 -80.1942 261.2298
v 1824.6982 -72.2629 261.2316
f 523 524 525
v 1811.7988 -78.8214 261.2352
v 1830.1284 -81.4933 261.2299
v 1829.8430 -82.7696 261.2300
f 526 527 528
v 1824.8099 -71.2462 261.2315
v 1824.9138 -71.2695 261.2315
v 1824.6982 -72.2629 261.2316
f 529 530 531
v 1824.8099 -71.2462 261.2315
v 1824.6982 -72.2629 261.2316
v 1820.7835 -71.4205 261.2327
f 532 533 534
v 1824.6982 -72.2629 261.2316
v 1813.2312 -74.5622 261.2348
v 1820.7835 -71.4205 261.2327
f 535 536 537
v 1820.7835 -71.4205 261.2327
v 1813.2312 -74.5622 261.2348
v 1814.2184 -70.0049 261.2347
f 538 539 540
v 1811.7988 -78.8214 261.2352
v 1812.7525 -74.4589 261.2349
v 1813.2312 -74.5622 261.2348
f 541 542 543
v 1821.3130 -68.9759 261.2326
v 1825.1278 -69.7972 261.2315
v 1824.8099 -71.2462 261.2315
f 544 545 546
v 1820.7835 -71.4205 261.2327
v 1821.3130 -68.9759 261.2326
v 1824.8099 -71.2462 261.2315
f 547 548 549
v 1813.2312 -74.5622 261.2348
v 1830.1284 -81.4933 261.2299
v 1811.7988 -78.8214 261.2352
f 550 551 552
v 1829.8430 -82.7696 261.2300
v 1829.8465 -82.7694 273.2466
v 1811.8017 -78.8211 271.0949
f 553 554 555
v 1811.8024 -78.8212 273.2518
v 1811.8017 -78.8211 271.0949
v 1829.8465 -82.7694 273.2466
f 556 557 558
v 1829.8430 -82.7696 261.2300
v 1811.7993 -78.8213 262.7312
v 1811.7988 -78.8214 261.2352
f 559 560 561
v 1824.8129 -71.2461 271.5232
v 1825.1278 -69.7972 261.2315
v 1825.1308 -69.7970 271.2722
f 562 563 564
v 1824.8129 -71.2461 271.5232
v 1824.8099 -71.2462 261.2315
v 1825.1278 -69.7972 261.2315
f 565 566 567
v 1821.3160 -68.9758 271.2753
v 1825.1278 -69.7972 261.2315
v 1821.3130 -68.9759 261.2326
f 568 569 570
v 1812.7558 -74.4588 272.4956
v 1813.2345 -74.5621 272.4955
v 1813.2312 -74.5622 261.2348
f 571 572 573
v 1812.7525 -74.4589 261.2349
v 1812.7558 -74.4588 272.4956
v 1813.2312 -74.5622 261.2348
f 574 575 576
v 1824.8099 -71.2462 261.2315
v 1824.8129 -71.2461 271.5232
v 1824.9169 -71.2694 271.5232
f 577 578 579
v 1811.8017 -78.8211 271.0949
v 1811.8024 -78.8212 273.2518
v 1812.7503 -74.4828 271.0946
f 580 581 582
v 1812.7558 -74.4588 272.4956
v 1812.7503 -74.4828 271.0946
v 1811.8024 -78.8212 273.2518
f 583 584 585
v 1811.7993 -78.8213 262.7312
v 1812.7525 -74.4589 261.2349
v 1811.7988 -78.8214 261.2352
f 586 587 588
v 1812.7478 -74.4829 262.7309
v 1812.7503 -74.4828 271.0946
v 1812.7525 -74.4589 261.2349
f 589 590 591
v 1811.7993 -78.8213 262.7312
v 1812.7478 -74.4829 262.7309
v 1812.7525 -74.4589 261.2349
f 592 593 594
v 1812.7558 -74.4588 272.4956
v 1812.7525 -74.4589 261.2349
v 1812.7503 -74.4828 271.0946
f 595 596 597
v 1792.3387 -85.3390 278.4011
v 1804.1516 -87.9235 278.3976
v 1804.7836 -85.0332 275.9086
f 598 599 600
v 1804.7836 -85.0332 275.9086
v 1792.9567 -82.4457 275.9120
v 1792.3387 -85.3390 278.4011
f 601 602 603
v 1796.7308 -91.9237 274.5728
v 1792.3387 -85.3390 278.4011
v 1791.1679 -90.8107 274.5034
f 604 605 606
v 1804.1516 -87.9235 278.3976
v 1796.7308 -91.9237 274.5728
v 1803.0015 -93.1784 274.6511
f 607 608 609
v 1792.3387 -85.3390 278.4011
v 1796.7308 -91.9237 274.5728
v 1804.1516 -87.9235 278.3976
f 610 611 612
v 1793.6248 -80.0375 274.9309
v 1793.4779 -80.0071 274.9309
v 1792.9567 -82.4457 275.9120
f 613 614 615
v 1794.4246 -77.0136 273.7017
v 1794.2877 -76.9842 273.7017
v 1793.6248 -80.0375 274.9309
f 616 617 618
v 1793.6248 -80.0375 274.9309
v 1792.9567 -82.4457 275.9120
v 1804.7836 -85.0332 275.9086
f 619 620 621
v 1794.4246 -77.0136 273.7017
v 1793.6248 -80.0375 274.9309
v 1806.1354 -78.8479 273.4184
f 622 623 624
v 1804.7836 -85.0332 275.9086
v 1806.1354 -78.8479 273.4184
v 1793.6248 -80.0375 274.9309
f 625 626 627
v 1794.4246 -77.0136 273.7017
v 1806.1354 -78.8479 273.4184
v 1794.5753 -76.3180 273.4216
f 628 629 630
v 1802.9998 -93.1785 269.2233
v 1803.0015 -93.1784 274.6511
v 1796.7308 -91.9237 274.5728
f 631 632 633
v 1791.1647 -90.8109 263.7988
v 1802.9998 -93.1785 269.2233
v 1796.7308 -91.9237 274.5728
f 634 635 636
v 1802.9982 -93.1785 263.7954
v 1802.9998 -93.1785 269.2233
v 1791.1647 -90.8109 263.7988
f 637 638 639
v 1791.1663 -90.8108 269.0756
v 1791.1647 -90.8109 263.7988
v 1796.7308 -91.9237 274.5728
f 640 641 642
v 1804.1473 -87.9236 263.7952
v 1792.3344 -85.3391 263.7986
v 1804.6373 -85.6850 263.7951
f 643 644 645
v 1791.1647 -90.8109 263.7988
v 1792.3344 -85.3391 263.7986
v 1802.9982 -93.1785 263.7954
f 646 647 648
v 1804.6373 -85.6850 263.7951
v 1792.3344 -85.3391 263.7986
v 1792.8133 -83.0973 263.7985
f 649 650 651
v 1802.9982 -93.1785 263.7954
v 1792.3344 -85.3391 263.7986
v 1804.1473 -87.9236 263.7952
f 652 653 654
v 1794.5747 -76.3181 271.0997
v 1794.5753 -76.3180 273.4216
v 1806.1354 -78.8479 273.4184
f 655 656 657
v 1794.4213 -77.0137 262.7361
v 1794.4246 -77.0136 273.7017
v 1794.5747 -76.3181 271.0997
f 658 659 660
v 1794.4246 -77.0136 273.7017
v 1794.5753 -76.3180 273.4216
v 1794.5747 -76.3181 271.0997
f 661 662 663
v 1794.5747 -76.3181 271.0997
v 1795.3805 -72.6102 271.0996
v 1795.3781 -72.6104 262.7359
f 664 665 666
v 1794.4213 -77.0137 262.7361
v 1794.5747 -76.3181 271.0997
v 1795.3781 -72.6104 262.7359
f 667 668 669
v 1794.2844 -76.9844 262.7361
v 1794.2877 -76.9842 273.7017
v 1794.4246 -77.0136 273.7017
f 670 671 672
v 1820.7866 -71.4204 271.6994
v 1821.3160 -68.9758 271.2753
v 1820.7835 -71.4205 261.2327
f 673 674 675
v 1821.3130 -68.9759 261.2326
v 1820.7835 -71.4205 261.2327
v 1821.3160 -68.9758 271.2753
f 676 677 678
v 1814.2215 -70.0048 271.7053
v 1814.2184 -70.0049 261.2347
v 1813.2345 -74.5621 272.4955
f 679 680 681
v 1813.2345 -74.5621 272.4955
v 1814.2184 -70.0049 261.2347
v 1813.2312 -74.5622 261.2348
f 682 683 684
v 1814.2184 -70.0049 261.2347
v 1814.2215 -70.0048 271.7053
v 1818.7698 -70.9859 271.7010
f 685 686 687
v 1820.7835 -71.4205 261.2327
v 1818.7698 -70.9859 271.7010
v 1820.7866 -71.4204 271.6994
f 688 689 690
v 1814.2184 -70.0049 261.2347
v 1818.7698 -70.9859 271.7010
v 1820.7835 -71.4205 261.2327
f 691 692 693
v 1824.9169 -71.2694 271.5232
v 1824.6982 -72.2629 261.2316
v 1824.9138 -71.2695 261.2315
f 694 695 696
v 1824.7013 -72.2628 271.6953
v 1824.6982 -72.2629 261.2316
v 1824.9169 -71.2694 271.5232
f 697 698 699
v 1830.4109 -80.1942 261.2298
v 1831.8010 -73.7940 261.2295
v 1831.8041 -73.7938 271.6892
f 700 701 702
v 1830.4109 -80.1942 261.2298
v 1830.4143 -80.1940 272.7994
v 1830.1284 -81.4933 261.2299
f 703 704 705
v 1830.4143 -80.1940 272.7994
v 1830.4109 -80.1942 261.2298
v 1831.8041 -73.7938 271.6892
f 706 707 708
v 1829.8465 -82.7694 273.2466
v 1829.8430 -82.7696 261.2300
v 1830.1319 -81.4933 273.0245
f 709 710 711
v 1830.1319 -81.4933 273.0245
v 1829.8430 -82.7696 261.2300
v 1830.1284 -81.4933 261.2299
f 712 713 714
v 1830.4143 -80.1940 272.7994
v 1830.1319 -81.4933 273.0245
v 1830.1284 -81.4933 261.2299
f 715 716 717
v 1793.6248 -80.0375 274.9309
v 1794.2844 -76.9844 262.7361
v 1793.6213 -80.0376 262.7363
f 718 719 720
v 1794.2844 -76.9844 262.7361
v 1793.6248 -80.0375 274.9309
v 1794.2877 -76.9842 273.7017
f 721 722 723
v 1793.6248 -80.0375 274.9309
v 1793.4768 -80.0071 271.1000
v 1793.4779 -80.0071 274.9309
f 724 725 726
v 1793.6248 -80.0375 274.9309
v 1793.4744 -80.0071 262.7363
v 1793.4747 -80.0072 263.7983
f 727 728 729
v 1793.4747 -80.0072 263.7983
v 1793.4768 -80.0071 271.1000
v 1793.6248 -80.0375 274.9309
f 730 731 732
v 1793.6248 -80.0375 274.9309
v 1793.6213 -80.0376 262.7363
v 1793.4744 -80.0071 262.7363
f 733 734 735
v 1792.9567 -82.4457 275.9120
v 1791.1679 -90.8107 274.5034
v 1792.3387 -85.3390 278.4011
f 736 737 738
v 1791.1670 -90.8108 271.7895
v 1791.1679 -90.8107 274.5034
v 1792.9567 -82.4457 275.9120
f 739 740 741
v 1793.4768 -80.0071 271.1000
v 1791.1663 -90.8108 269.0756
v 1791.1670 -90.8108 271.7895
f 742 743 744
v 1791.1647 -90.8109 263.7988
v 1791.1663 -90.8108 269.0756
v 1792.3344 -85.3391 263.7986
f 745 746 747
v 1791.1670 -90.8108 271.7895
v 1792.9567 -82.4457 275.9120
v 1793.4768 -80.0071 271.1000
f 748 749 750
v 1792.3344 -85.3391 263.7986
v 1791.1663 -90.8108 269.0756
v 1793.4768 -80.0071 271.1000
f 751 752 753
v 1793.4747 -80.0072 263.7983
v 1792.8133 -83.0973 263.7985
v 1793.4768 -80.0071 271.1000
f 754 755 756
v 1793.4768 -80.0071 271.1000
v 1792.8133 -83.0973 263.7985
v 1792.3344 -85.3391 263.7986
f 757 758 759
v 1793.4747 -80.0072 263.7983
v 1792.8141 -83.0974 262.7365
v 1792.8133 -83.0973 263.7985
f 760 761 762
v 1792.8141 -83.0974 262.7365
v 1793.4747 -80.0072 263.7983
v 1793.4744 -80.0071 262.7363
f 763 764 765
v 1793.4779 -80.0071 274.9309
v 1793.4768 -80.0071 271.1000
v 1792.9567 -82.4457 275.9120
f 766 767 768
v 1804.7836 -85.0332 275.9086
v 1804.7822 -85.0333 271.0968
v 1806.1347 -78.8480 271.0965
f 769 770 771
v 1804.7836 -85.0332 275.9086
v 1804.6394 -85.6850 271.0968
v 1804.7822 -85.0333 271.0968
f 772 773 774
v 1802.9998 -93.1785 269.2233
v 1804.1473 -87.9236 263.7952
v 1804.6373 -85.6850 263.7951
f 775 776 777
v 1804.6394 -85.6850 271.0968
v 1802.9998 -93.1785 269.2233
v 1804.6373 -85.6850 263.7951
f 778 779 780
v 1806.1354 -78.8479 273.4184
v 1804.7836 -85.0332 275.9086
v 1806.1347 -78.8480 271.0965
f 781 782 783
v 1803.0015 -93.1784 274.6511
v 1804.7836 -85.0332 275.9086
v 1804.1516 -87.9235 278.3976
f 784 785 786
v 1802.9982 -93.1785 263.7954
v 1804.1473 -87.9236 263.7952
v 1802.9998 -93.1785 269.2233
f 787 788 789
v 1804.6394 -85.6850 271.0968
v 1803.0015 -93.1784 274.6511
v 1802.9998 -93.1785 269.2233
f 790 791 792
v 1804.7836 -85.0332 275.9086
v 1803.0015 -93.1784 274.6511
v 1804.6394 -85.6850 271.0968
f 793 794 795
v 1811.8024 -78.8212 273.2518
v 1813.2345 -74.5621 272.4955
v 1812.7558 -74.4588 272.4956
f 796 797 798
v 1813.2345 -74.5621 272.4955
v 1818.7698 -70.9859 271.7010
v 1814.2215 -70.0048 271.7053
f 799 800 801
v 1824.7013 -72.2628 271.6953
v 1821.3160 -68.9758 271.2753
v 1820.7866 -71.4204 271.6994
f 802 803 804
v 1820.7866 -71.4204 271.6994
v 1818.7698 -70.9859 271.7010
v 1829.8465 -82.7694 273.2466
f 805 806 807
v 1813.2345 -74.5621 272.4955
v 1829.8465 -82.7694 273.2466
v 1818.7698 -70.9859 271.7010
f 808 809 810
v 1824.9169 -71.2694 271.5232
v 1824.8129 -71.2461 271.5232
v 1824.7013 -72.2628 271.6953
f 811 812 813
v 1824.7013 -72.2628 271.6953
v 1824.8129 -71.2461 271.5232
v 1821.3160 -68.9758 271.2753
f 814 815 816
v 1824.7013 -72.2628 271.6953
v 1829.8465 -82.7694 273.2466
v 1830.1319 -81.4933 273.0245
f 817 818 819
v 1824.7013 -72.2628 271.6953
v 1830.4143 -80.1940 272.7994
v 1825.5298 -72.4410 271.6950
f 820 821 822
v 1830.4143 -80.1940 272.7994
v 1824.7013 -72.2628 271.6953
v 1830.1319 -81.4933 273.0245
f 823 824 825
v 1829.8465 -82.7694 273.2466
v 1824.7013 -72.2628 271.6953
v 1820.7866 -71.4204 271.6994
f 826 827 828
v 1825.1308 -69.7970 271.2722
v 1821.3160 -68.9758 271.2753
v 1824.8129 -71.2461 271.5232
f 829 830 831
v 1830.4143 -80.1940 272.7994
v 1831.8041 -73.7938 271.6892
v 1825.5298 -72.4410 271.6950
f 832 833 834
v 1829.8465 -82.7694 273.2466
v 1813.2345 -74.5621 272.4955
v 1811.8024 -78.8212 273.2518
f 835 836 837
v 1824.7013 -72.2628 271.6953
v 1825.5298 -72.4410 271.6950
v 1824.6982 -72.2629 261.2316
f 838 839 840
v 1824.6982 -72.2629 261.2316
v 1825.5298 -72.4410 271.6950
v 1831.8010 -73.7940 261.2295
f 841 842 843
v 1831.8010 -73.7940 261.2295
v 1825.5298 -72.4410 271.6950
v 1831.8041 -73.7938 271.6892
f 844 845 846
v 1798.6062 -71.4130 262.7350
v 1805.5826 -72.9146 271.0967
v 1805.5802 -72.9148 262.7330
f 847 848 849
v 1798.2134 -73.2230 262.7351
v 1798.6088 -71.4130 271.0987
v 1798.6062 -71.4130 262.7350
f 850 851 852
v 1795.3781 -72.6104 262.7359
v 1798.2159 -73.2229 271.0988
v 1798.2134 -73.2230 262.7351
f 853 854 855
v 1804.7552 -85.6153 262.7331
v 1804.7374 -85.7062 271.0968
v 1804.7349 -85.7063 262.7331
f 856 857 858
v 1810.0600 -86.7685 262.7315
v 1804.7576 -85.6152 271.0968
v 1804.7552 -85.6153 262.7331
f 859 860 861
v 1811.7993 -78.8213 262.7312
v 1810.0624 -86.7685 271.0952
v 1810.0600 -86.7685 262.7315
f 862 863 864
v 1805.5802 -72.9148 262.7330
v 1812.7503 -74.4828 271.0946
v 1812.7478 -74.4829 262.7309
f 865 866 867
v 1829.8430 -82.7696 261.2300
v 1811.8017 -78.8211 271.0949
v 1811.7993 -78.8213 262.7312
f 868 869 870
v 1821.3160 -68.9758 271.2753
v 1825.1308 -69.7970 271.2722
v 1825.1278 -69.7972 261.2315
f 871 872 873
v 1824.8099 -71.2462 261.2315
v 1824.9169 -71.2694 271.5232
v 1824.9138 -71.2695 261.2315
f 874 875 876
v 1796.7308 -91.9237 274.5728
v 1791.1679 -90.8107 274.5034
v 1791.1670 -90.8108 271.7895
f 877 878 879
v 1796.7308 -91.9237 274.5728
v 1791.1670 -90.8108 271.7895
v 1791.1663 -90.8108 269.0756
f 880 881 882
v 1794.5747 -76.3181 271.0997
v 1806.1354 -78.8479 273.4184
v 1806.1347 -78.8480 271.0965
f 883 884 885
v 1794.2844 -76.9844 262.7361
v 1794.4246 -77.0136 273.7017
v 1794.4213 -77.0137 262.7361
f 886 887 888

g building_ID_E236DC89-3B7D-4B1A-8F2F-8E66B31A187C
v 1910.0370 -74.6855 256.4277
v 1909.0304 -77.5237 256.4280
v 1909.8631 -74.6361 256.4278
f 889 890 891
v 1909.2343 -77.5824 256.4279
v 1909.0304 -77.5237 256.4280
v 1910.0370 -74.6855 256.4277
f 892 893 894
v 1910.0370 -74.6855 256.4277
v 1922.5920 -84.3030 256.4238
v 1909.2343 -77.5824 256.4279
f 895 896 897
v 1924.3727 -84.8157 256.4233
v 1922.5920 -84.3030 256.4238
v 1911.8782 -68.2646 256.4272
f 898 899 900
v 1911.8782 -68.2646 256.4272
v 1922.5920 -84.3030 256.4238
v 1910.0370 -74.6855 256.4277
f 901 902 903
v 1922.5920 -84.3030 256.4238
v 1906.4611 -87.3677 256.4286
v 1909.2343 -77.5824 256.4279
f 904 905 906
v 1920.5562 -91.3625 256.4243
v 1906.4611 -87.3677 256.4286
v 1922.5920 -84.3030 256.4238
f 907 908 909
v 1932.2334 -87.0818 256.4208
v 1924.5217 -85.1691 256.4232
v 1924.3727 -84.8157 256.4233
f 910 911 912
v 1924.3727 -84.8157 256.4233
v 1924.5217 -85.1691 256.4232
v 1924.2898 -85.1035 256.4233
f 913 914 915
v 1924.3727 -84.8157 256.4233
v 1911.8782 -68.2646 256.4272
v 1944.0640 -77.4926 256.4173
f 916 917 918
v 1924.5217 -85.1691 256.4232
v 1930.7487 -92.2287 256.4211
v 1923.1144 -90.1363 256.4236
f 919 920 921
v 1924.5217 -85.1691 256.4232
v 1932.2334 -87.0818 256.4208
v 1930.7487 -92.2287 256.4211
f 922 923 924
v 1934.3198 -87.6844 256.4201
v 1939.1585 -94.5092 256.4186
v 1932.8774 -92.6984 256.4205
f 925 926 927
v 1932.2334 -87.0818 256.4208
v 1944.0640 -77.4926 256.4173
v 1934.3198 -87.6844 256.4201
f 928 929 930
v 1944.0640 -77.4926 256.4173
v 1939.1585 -94.5092 256.4186
v 1934.3198 -87.6844 256.4201
f 931 932 933
v 1932.2334 -87.0818 256.4208
v 1924.3727 -84.8157 256.4233
v 1944.0640 -77.4926 256.4173
f 934 935 936
v 1932.2376 -87.0816 269.5894
v 1923.1179 -90.1362 267.6532
v 1926.8521 -91.1592 267.6700
f 937 938 939
v 1932.2376 -87.0816 269.5894
v 1926.8521 -91.1592 267.6700
v 1930.7523 -92.2286 267.6877
f 940 941 942
v 1924.3768 -84.8156 269.5918
v 1924.2939 -85.1033 269.4858
v 1924.5258 -85.1690 269.4857
f 943 944 945
v 1924.3768 -84.8156 269.5918
v 1924.5258 -85.1690 269.4857
v 1932.2376 -87.0816 269.5894
f 946 947 948
v 1924.5258 -85.1690 269.4857
v 1923.1179 -90.1362 267.6532
v 1932.2376 -87.0816 269.5894
f 949 950 951
v 1932.2376 -87.0816 269.5894
v 1944.0682 -77.4925 269.5859
v 1924.3768 -84.8156 269.5918
f 952 953 954
v 1911.8823 -68.2644 269.5957
v 1922.5962 -84.3028 269.5923
v 1924.3768 -84.8156 269.5918
f 955 956 957
v 1934.3240 -87.6842 269.5887
v 1944.0682 -77.4925 269.5859
v 1932.2376 -87.0816 269.5894
f 958 959 960
v 1934.3240 -87.6842 269.5887
v 1932.8815 -92.6983 269.5891
v 1939.1626 -94.5091 269.5872
f 961 962 963
v 1934.3240 -87.6842 269.5887
v 1939.1626 -94.5091 269.5872
v 1944.0682 -77.4925 269.5859
f 964 965 966
v 1911.8823 -68.2644 269.5957
v 1924.3768 -84.8156 269.5918
v 1944.0682 -77.4925 269.5859
f 967 968 969
v 1910.0411 -74.6853 269.5962
v 1909.2383 -77.5822 269.5964
v 1922.5962 -84.3028 269.5923
f 970 971 972
v 1909.0345 -77.5236 269.5965
v 1910.0411 -74.6853 269.5962
v 1909.8672 -74.6359 269.5963
f 973 974 975
v 1906.4652 -87.3676 269.5971
v 1920.5603 -91.3623 269.5928
v 1922.5962 -84.3028 269.5923
f 976 977 978
v 1910.0411 -74.6853 269.5962
v 1909.0345 -77.5236 269.5965
v 1909.2383 -77.5822 269.5964
f 979 980 981
v 1922.5962 -84.3028 269.5923
v 1909.2383 -77.5822 269.5964
v 1906.4652 -87.3676 269.5971
f 982 983 984
v 1911.8823 -68.2644 269.5957
v 1910.0411 -74.6853 269.5962
v 1922.5962 -84.3028 269.5923
f 985 986 987
v 1923.1144 -90.1363 256.4236
v 1926.8521 -91.1592 267.6700
v 1923.1179 -90.1362 267.6532
f 988 989 990
v 1930.7523 -92.2286 267.6877
v 1926.8521 -91.1592 267.6700
v 1930.7487 -92.2287 256.4211
f 991 992 993
v 1930.7487 -92.2287 256.4211
v 1926.8521 -91.1592 267.6700
v 1923.1144 -90.1363 256.4236
f 994 995 996
v 1932.2334 -87.0818 256.4208
v 1932.2376 -87.0816 269.5894
v 1930.7523 -92.2286 267.6877
f 997 998 999
v 1932.2334 -87.0818 256.4208
v 1930.7523 -92.2286 267.6877
v 1930.7487 -92.2287 256.4211
f 1000 1001 1002
v 1924.2898 -85.1035 256.4233
v 1924.2939 -85.1033 269.4858
v 1924.3727 -84.8157 256.4233
f 1003 1004 1005
v 1924.3768 -84.8156 269.5918
v 1924.3727 -84.8157 256.4233
v 1924.2939 -85.1033 269.4858
f 1006 1007 1008
v 1924.2939 -85.1033 269.4858
v 1924.2898 -85.1035 256.4233
v 1924.5258 -85.1690 269.4857
f 1009 1010 1011
v 1909.2343 -77.5824 256.4279
v 1909.2383 -77.5822 269.5964
v 1909.0345 -77.5236 269.5965
f 1012 1013 1014
v 1906.4611 -87.3677 256.4286
v 1906.4652 -87.3676 269.5971
v 1909.2383 -77.5822 269.5964
f 1015 1016 1017
v 1920.5562 -91.3625 256.4243
v 1920.5603 -91.3623 269.5928
v 1906.4652 -87.3676 269.5971
f 1018 1019 1020
v 1922.5920 -84.3030 256.4238
v 1922.5962 -84.3028 269.5923
v 1920.5603 -91.3623 269.5928
f 1021 1022 1023
v 1924.3727 -84.8157 256.4233
v 1924.3768 -84.8156 269.5918
v 1922.5962 -84.3028 269.5923
f 1024 1025 1026
v 1934.3198 -87.6844 256.4201
v 1934.3240 -87.6842 269.5887
v 1932.2376 -87.0816 269.5894
f 1027 1028 1029
v 1932.8774 -92.6984 256.4205
v 1932.8815 -92.6983 269.5891
v 1934.3240 -87.6842 269.5887
f 1030 1031 1032
v 1939.1585 -94.5092 256.4186
v 1939.1626 -94.5091 269.5872
v 1932.8815 -92.6983 269.5891
f 1033 1034 1035
v 1944.0640 -77.4926 256.4173
v 1944.0682 -77.4925 269.5859
v 1939.1626 -94.5091 269.5872
f 1036 1037 1038
v 1911.8782 -68.2646 256.4272
v 1911.8823 -68.2644 269.5957
v 1944.0682 -77.4925 269.5859
f 1039 1040 1041
v 1910.0370 -74.6855 256.4277
v 1910.0411 -74.6853 269.5962
v 1911.8823 -68.2644 269.5957
f 1042 1043 1044
v 1909.8631 -74.6361 256.4278
v 1909.8672 -74.6359 269.5963
v 1910.0411 -74.6853 269.5962
f 1045 1046 1047
v 1909.0304 -77.5237 256.4280
v 1909.0345 -77.5236 269.5965
v 1909.8672 -74.6359 269.5963
f 1048 1049 1050
v 1923.1179 -90.1362 267.6532
v 1924.5258 -85.1690 269.4857
v 1923.1144 -90.1363 256.4236
f 1051 1052 1053
v 1923.1144 -90.1363 256.4236
v 1924.5258 -85.1690 269.4857
v 1924.5217 -85.1691 256.4232
f 1054 1055 1056
v 1924.2898 -85.1035 256.4233
v 1924.5217 -85.1691 256.4232
v 1924.5258 -85.1690 269.4857
f 1057 1058 1059
v 1909.2343 -77.5824 256.4279
v 1909.0345 -77.5236 269.5965
v 1909.0304 -77.5237 256.4280
f 1060 1061 1062
v 1906.4611 -87.3677 256.4286
v 1909.2383 -77.5822 269.5964
v 1909.2343 -77.5824 256.4279
f 1063 1064 1065
v 1920.5562 -91.3625 256.4243
v 1906.4652 -87.3676 269.5971
v 1906.4611 -87.3677 256.4286
f 1066 1067 1068
v 1922.5920 -84.3030 256.4238
v 1920.5603 -91.3623 269.5928
v 1920.5562 -91.3625 256.4243
f 1069 1070 1071
v 1924.3727 -84.8157 256.4233
v 1922.5962 -84.3028 269.5923
v 1922.5920 -84.3030 256.4238
f 1072 1073 1074
v 1934.3198 -87.6844 256.4201
v 1932.2376 -87.0816 269.5894
v 1932.2334 -87.0818 256.4208
f 1075 1076 1077
v 1932.8774 -92.6984 256.4205
v 1934.3240 -87.6842 269.5887
v 1934.3198 -87.6844 256.4201
f 1078 1079 1080
v 1939.1585 -94.5092 256.4186
v 1932.8815 -92.6983 269.5891
v 1932.8774 -92.6984 256.4205
f 1081 1082 1083
v 1944.0640 -77.4926 256.4173
v 1939.1626 -94.5091 269.5872
v 1939.1585 -94.5092 256.4186
f 1084 1085 1086
v 1911.8782 -68.2646 256.4272
v 1944.0682 -77.4925 269.5859
v 1944.0640 -77.4926 256.4173
f 1087 1088 1089
v 1910.0370 -74.6855 256.4277
v 1911.8823 -68.2644 269.5957
v 1911.8782 -68.2646 256.4272
f 1090 1091 1092
v 1909.8631 -74.6361 256.4278
v 1910.0411 -74.6853 269.5962
v 1910.0370 -74.6855 256.4277
f 1093 1094 1095
v 1909.0304 -77.5237 256.4280
v 1909.8672 -74.6359 269.5963
v 1909.8631 -74.6361 256.4278
f 1096 1097 1098

g building_ID_B7A53E11-1C2F-488C-B4C7-BFF3AA582A22
v 1980.6317 -79.0243 269.9766
v 1982.9350 -82.8674 271.8137
v 1983.8200 -80.0118 269.9756
f 1099 1100 1101
v 1976.1207 -80.7552 271.8159
v 1980.6317 -79.0243 269.9766
v 1979.9822 -78.8215 269.9768
f 1102 1103 1104
v 1982.9350 -82.8674 271.8137
v 1980.6317 -79.0243 269.9766
v 1976.1207 -80.7552 271.8159
f 1105 1106 1107
v 1970.1707 -78.9103 271.8178
v 1972.4385 -82.4703 270.0000
v 1976.1207 -80.7552 271.8159
f 1108 1109 1110
v 1970.1707 -78.9103 271.8178
v 1969.3552 -81.5080 270.0050
v 1972.4385 -82.4703 270.0000
f 1111 1112 1113
v 1969.4039 -89.8942 267.4990
v 1967.1144 -88.6490 267.8627
v 1966.9701 -89.1086 267.5207
f 1114 1115 1116
v 1967.1144 -88.6490 267.8627
v 1969.4039 -89.8942 267.4990
v 1970.2700 -87.0985 269.5777
f 1117 1118 1119
v 1982.6442 -72.5298 267.5481
v 1982.6449 -72.5298 269.5740
v 1981.8006 -75.2545 269.5742
f 1120 1121 1122
v 1975.4844 -70.2797 267.5294
v 1974.6317 -73.0333 269.5765
v 1975.4850 -70.2796 269.5764
f 1123 1124 1125
v 1981.8006 -75.2545 269.5742
v 1983.1136 -72.7750 267.6150
v 1982.6442 -72.5298 267.5481
f 1126 1127 1128
v 1985.4497 -73.4613 267.5892
v 1983.1136 -72.7750 267.6150
v 1981.8006 -75.2545 269.5742
f 1129 1130 1131
v 1983.1136 -72.7750 267.6150
v 1983.1398 -72.6862 267.5490
v 1982.6442 -72.5298 267.5481
f 1132 1133 1134
v 1975.4844 -70.2797 267.5294
v 1973.1104 -69.5354 267.5241
v 1972.9501 -70.0479 267.9061
f 1135 1136 1137
v 1972.9501 -70.0479 267.9061
v 1974.6317 -73.0333 269.5765
v 1975.4844 -70.2797 267.5294
f 1138 1139 1140
v 1983.1100 -72.7753 256.5364
v 1983.1363 -72.6863 256.5364
v 1983.1398 -72.6862 267.5490
f 1141 1142 1143
v 1983.1109 -72.7752 259.3063
v 1983.1398 -72.6862 267.5490
v 1983.1127 -72.7751 264.8451
f 1144 1145 1146
v 1977.1933 -66.7015 256.2843
v 1984.0923 -68.9029 256.2821
v 1976.0183 -70.4483 256.2846
f 1147 1148 1149
v 1982.1970 -75.0157 256.2826
v 1976.0183 -70.4483 256.2846
v 1984.0923 -68.9029 256.2821
f 1150 1151 1152
v 1975.5627 -70.3050 256.2847
v 1976.0183 -70.4483 256.2846
v 1974.8122 -72.7260 256.2849
f 1153 1154 1155
v 1982.1970 -75.0157 256.2826
v 1974.8122 -72.7260 256.2849
v 1976.0183 -70.4483 256.2846
f 1156 1157 1158
v 1977.1933 -66.7015 256.2843
v 1977.1956 -66.7014 263.3531
v 1984.0946 -68.9028 263.3509
f 1159 1160 1161
v 1976.0183 -70.4483 256.2846
v 1976.0206 -70.4482 263.3534
v 1977.1933 -66.7015 256.2843
f 1162 1163 1164
v 1977.1956 -66.7014 263.3531
v 1976.0206 -70.4482 263.3534
v 1979.0200 -71.3912 263.3524
f 1165 1166 1167
v 1984.0946 -68.9028 263.3509
v 1977.1956 -66.7014 263.3531
v 1979.0200 -71.3912 263.3524
f 1168 1169 1170
v 1984.0946 -68.9028 263.3509
v 1982.6429 -72.5299 263.3513
v 1982.9406 -72.6237 263.3512
f 1171 1172 1173
v 1979.0200 -71.3912 263.3524
v 1982.6429 -72.5299 263.3513
v 1984.0946 -68.9028 263.3509
f 1174 1175 1176
v 1974.8122 -72.7260 256.2849
v 1974.8123 -72.7260 256.5389
v 1975.5628 -70.3050 256.5387
f 1177 1178 1179
v 1982.1970 -75.0157 256.2826
v 1982.1971 -75.0157 256.5366
v 1974.8123 -72.7260 256.5389
f 1180 1181 1182
v 1984.0923 -68.9029 256.2821
v 1984.0946 -68.9028 263.3509
v 1982.9384 -72.6238 256.5364
f 1183 1184 1185
v 1982.9406 -72.6237 263.3512
v 1982.9384 -72.6238 256.5364
v 1984.0946 -68.9028 263.3509
f 1186 1187 1188
v 1982.1970 -75.0157 256.2826
v 1984.0923 -68.9029 256.2821
v 1982.9384 -72.6238 256.5364
f 1189 1190 1191
v 1982.9384 -72.6238 256.5364
v 1982.1971 -75.0157 256.5366
v 1982.1970 -75.0157 256.2826
f 1192 1193 1194
v 1970.1707 -78.9103 271.8178
v 1976.1207 -80.7552 271.8159
v 1974.1012 -76.9908 269.9736
f 1195 1196 1197
v 1970.1707 -78.9103 271.8178
v 1973.4658 -76.7932 269.9738
v 1971.0648 -76.0577 269.9796
f 1198 1199 1200
v 1974.1012 -76.9908 269.9736
v 1973.4658 -76.7932 269.9738
v 1970.1707 -78.9103 271.8178
f 1201 1202 1203
v 1978.9350 -84.4987 269.9890
v 1976.1207 -80.7552 271.8159
v 1978.2636 -84.2889 269.9902
f 1204 1205 1206
v 1982.9350 -82.8674 271.8137
v 1978.9350 -84.4987 269.9890
v 1982.1214 -85.4862 269.9880
f 1207 1208 1209
v 1976.1207 -80.7552 271.8159
v 1978.9350 -84.4987 269.9890
v 1982.9350 -82.8674 271.8137
f 1210 1211 1212
v 1969.3552 -81.5080 270.0050
v 1971.7709 -82.2625 269.5783
v 1972.4385 -82.4703 270.0000
f 1213 1214 1215
v 1971.7709 -82.2625 269.5783
v 1969.3552 -81.5080 270.0050
v 1970.7726 -81.9509 268.8767
f 1216 1217 1218
v 1969.3552 -81.5080 270.0050
v 1969.3547 -81.5081 268.4111
v 1970.7726 -81.9509 268.8767
f 1219 1220 1221
v 1970.7726 -81.9509 268.8767
v 1969.3547 -81.5081 268.4111
v 1969.3545 -81.5081 267.8791
f 1222 1223 1224
v 1977.4410 -89.3207 269.5754
v 1976.5466 -92.2002 267.4347
v 1979.6179 -93.1914 267.4078
f 1225 1226 1227
v 1981.8006 -75.2545 269.5742
v 1982.6449 -72.5298 269.5740
v 1979.9822 -78.8215 269.9768
f 1228 1229 1230
v 1979.0227 -71.3911 271.8151
v 1979.9822 -78.8215 269.9768
v 1982.6449 -72.5298 269.5740
f 1231 1232 1233
v 1979.0227 -71.3911 271.8151
v 1976.1207 -80.7552 271.8159
v 1979.9822 -78.8215 269.9768
f 1234 1235 1236
v 1981.8006 -75.2545 269.5742
v 1979.9822 -78.8215 269.9768
v 1980.6316 -79.0243 269.5746
f 1237 1238 1239
v 1972.9342 -91.0335 271.8167
v 1978.2636 -84.2889 269.9902
v 1976.1207 -80.7552 271.8159
f 1240 1241 1242
v 1977.4410 -89.3207 269.5754
v 1978.9349 -84.4987 269.5750
v 1978.2636 -84.2889 269.9902
f 1243 1244 1245
v 1977.4410 -89.3207 269.5754
v 1978.2636 -84.2889 269.9902
v 1976.5473 -92.2003 269.5756
f 1246 1247 1248
v 1972.9342 -91.0335 271.8167
v 1976.5473 -92.2003 269.5756
v 1978.2636 -84.2889 269.9902
f 1249 1250 1251
v 1970.2700 -87.0985 269.5777
v 1969.4046 -89.8941 269.5779
v 1972.4385 -82.4703 270.0000
f 1252 1253 1254
v 1972.9342 -91.0335 271.8167
v 1972.4385 -82.4703 270.0000
v 1969.4046 -89.8941 269.5779
f 1255 1256 1257
v 1972.9342 -91.0335 271.8167
v 1976.1207 -80.7552 271.8159
v 1972.4385 -82.4703 270.0000
f 1258 1259 1260
v 1972.4385 -82.4703 270.0000
v 1971.7709 -82.2625 269.5783
v 1970.2700 -87.0985 269.5777
f 1261 1262 1263
v 1976.0227 -70.4481 269.9171
v 1974.6317 -73.0333 269.5765
v 1974.1012 -76.9908 269.9736
f 1264 1265 1266
v 1974.1012 -76.9908 269.9736
v 1974.6317 -73.0333 269.5765
v 1973.4656 -76.7931 269.5768
f 1267 1268 1269
v 1979.0227 -71.3911 271.8151
v 1974.1012 -76.9908 269.9736
v 1976.1207 -80.7552 271.8159
f 1270 1271 1272
v 1976.0227 -70.4481 269.9171
v 1975.5670 -70.3049 269.6292
v 1974.6317 -73.0333 269.5765
f 1273 1274 1275
v 1975.5670 -70.3049 269.6292
v 1975.4850 -70.2796 269.5764
v 1974.6317 -73.0333 269.5765
f 1276 1277 1278
v 1979.0227 -71.3911 271.8151
v 1976.0227 -70.4481 269.9171
v 1974.1012 -76.9908 269.9736
f 1279 1280 1281
v 1982.1205 -85.4863 267.3341
v 1979.6179 -93.1914 267.4078
v 1979.7218 -93.2247 267.3347
f 1282 1283 1284
v 1978.9349 -84.4987 269.5750
v 1977.4410 -89.3207 269.5754
v 1982.1205 -85.4863 267.3341
f 1285 1286 1287
v 1979.6179 -93.1914 267.4078
v 1982.1205 -85.4863 267.3341
v 1977.4410 -89.3207 269.5754
f 1288 1289 1290
v 1981.8006 -75.2545 269.5742
v 1980.6316 -79.0243 269.5746
v 1983.8191 -80.0119 267.3337
f 1291 1292 1293
v 1981.8006 -75.2545 269.5742
v 1983.8191 -80.0119 267.3337
v 1985.4497 -73.4613 267.5892
f 1294 1295 1296
v 1985.8153 -73.5693 267.3331
v 1985.4497 -73.4613 267.5892
v 1983.8191 -80.0119 267.3337
f 1297 1298 1299
v 1976.5466 -92.2002 267.4347
v 1977.4410 -89.3207 269.5754
v 1976.5473 -92.2003 269.5756
f 1300 1301 1302
v 1969.4039 -89.8942 267.4990
v 1969.4046 -89.8941 269.5779
v 1970.2700 -87.0985 269.5777
f 1303 1304 1305
v 1980.6316 -79.0243 269.5746
v 1979.9822 -78.8215 269.9768
v 1980.6317 -79.0243 269.9766
f 1306 1307 1308
v 1983.8191 -80.0119 267.3337
v 1980.6316 -79.0243 269.5746
v 1983.8200 -80.0118 269.9756
f 1309 1310 1311
v 1980.6317 -79.0243 269.9766
v 1983.8200 -80.0118 269.9756
v 1980.6316 -79.0243 269.5746
f 1312 1313 1314
v 1971.9625 -76.3331 268.5224
v 1971.0640 -76.0578 267.8917
v 1971.0648 -76.0577 269.9796
f 1315 1316 1317
v 1973.4656 -76.7931 269.5768
v 1971.9625 -76.3331 268.5224
v 1971.0648 -76.0577 269.9796
f 1318 1319 1320
v 1974.1012 -76.9908 269.9736
v 1973.4656 -76.7931 269.5768
v 1973.4658 -76.7932 269.9738
f 1321 1322 1323
v 1971.0648 -76.0577 269.9796
v 1973.4658 -76.7932 269.9738
v 1973.4656 -76.7931 269.5768
f 1324 1325 1326
v 1978.9349 -84.4987 269.5750
v 1982.1205 -85.4863 267.3341
v 1982.1214 -85.4862 269.9880
f 1327 1328 1329
v 1978.2636 -84.2889 269.9902
v 1978.9349 -84.4987 269.5750
v 1978.9350 -84.4987 269.9890
f 1330 1331 1332
v 1982.1214 -85.4862 269.9880
v 1978.9350 -84.4987 269.9890
v 1978.9349 -84.4987 269.5750
f 1333 1334 1335
v 1983.8191 -80.0119 267.3337
v 1983.8200 -80.0118 269.9756
v 1982.9350 -82.8674 271.8137
f 1336 1337 1338
v 1985.8118 -73.5694 256.5355
v 1985.8153 -73.5693 267.3331
v 1983.8191 -80.0119 267.3337
f 1339 1340 1341
v 1983.8191 -80.0119 267.3337
v 1982.9350 -82.8674 271.8137
v 1982.1214 -85.4862 269.9880
f 1342 1343 1344
v 1979.7183 -93.2248 256.5371
v 1985.8118 -73.5694 256.5355
v 1982.1205 -85.4863 267.3341
f 1345 1346 1347
v 1982.1205 -85.4863 267.3341
v 1985.8118 -73.5694 256.5355
v 1983.8191 -80.0119 267.3337
f 1348 1349 1350
v 1979.7218 -93.2247 267.3347
v 1979.7183 -93.2248 256.5371
v 1982.1205 -85.4863 267.3341
f 1351 1352 1353
v 1982.1214 -85.4862 269.9880
v 1982.1205 -85.4863 267.3341
v 1983.8191 -80.0119 267.3337
f 1354 1355 1356
v 1979.6179 -93.1914 267.4078
v 1972.9293 -91.0337 256.5393
v 1979.7218 -93.2247 267.3347
f 1357 1358 1359
v 1976.5466 -92.2002 267.4347
v 1972.9293 -91.0337 256.5393
v 1979.6179 -93.1914 267.4078
f 1360 1361 1362
v 1979.7183 -93.2248 256.5371
v 1979.7218 -93.2247 267.3347
v 1972.9293 -91.0337 256.5393
f 1363 1364 1365
v 1972.9293 -91.0337 256.5393
v 1976.5466 -92.2002 267.4347
v 1966.9666 -89.1088 256.5411
f 1366 1367 1368
v 1972.9342 -91.0335 271.8167
v 1969.4039 -89.8942 267.4990
v 1976.5473 -92.2003 269.5756
f 1369 1370 1371
v 1969.4046 -89.8941 269.5779
v 1969.4039 -89.8942 267.4990
v 1972.9342 -91.0335 271.8167
f 1372 1373 1374
v 1966.9666 -89.1088 256.5411
v 1969.4039 -89.8942 267.4990
v 1966.9701 -89.1086 267.5207
f 1375 1376 1377
v 1966.9666 -89.1088 256.5411
v 1976.5466 -92.2002 267.4347
v 1969.4039 -89.8942 267.4990
f 1378 1379 1380
v 1976.5473 -92.2003 269.5756
v 1969.4039 -89.8942 267.4990
v 1976.5466 -92.2002 267.4347
f 1381 1382 1383
v 1983.1127 -72.7751 264.8451
v 1985.4497 -73.4613 267.5892
v 1985.8153 -73.5693 267.3331
f 1384 1385 1386
v 1985.4497 -73.4613 267.5892
v 1983.1127 -72.7751 264.8451
v 1983.1136 -72.7750 267.6150
f 1387 1388 1389
v 1983.1127 -72.7751 264.8451
v 1985.8153 -73.5693 267.3331
v 1983.1109 -72.7752 259.3063
f 1390 1391 1392
v 1983.1100 -72.7753 256.5364
v 1983.1109 -72.7752 259.3063
v 1985.4461 -73.4615 256.5356
f 1393 1394 1395
v 1985.8118 -73.5694 256.5355
v 1985.4461 -73.4615 256.5356
v 1983.1109 -72.7752 259.3063
f 1396 1397 1398
v 1985.8118 -73.5694 256.5355
v 1983.1109 -72.7752 259.3063
v 1985.8153 -73.5693 267.3331
f 1399 1400 1401
v 1969.3547 -81.5081 268.4111
v 1969.3552 -81.5080 270.0050
v 1971.0640 -76.0578 267.8917
f 1402 1403 1404
v 1969.3545 -81.5081 267.8791
v 1966.9701 -89.1086 267.5207
v 1967.1144 -88.6490 267.8627
f 1405 1406 1407
v 1969.3547 -81.5081 268.4111
v 1971.0640 -76.0578 267.8917
v 1969.3545 -81.5081 267.8791
f 1408 1409 1410
v 1966.9666 -89.1088 256.5411
v 1966.9701 -89.1086 267.5207
v 1969.3545 -81.5081 267.8791
f 1411 1412 1413
v 1969.3552 -81.5080 270.0050
v 1970.1707 -78.9103 271.8178
v 1971.0640 -76.0578 267.8917
f 1414 1415 1416
v 1971.0640 -76.0578 267.8917
v 1972.9465 -70.0481 256.5395
v 1969.3545 -81.5081 267.8791
f 1417 1418 1419
v 1971.0640 -76.0578 267.8917
v 1972.9501 -70.0479 267.9061
v 1973.1104 -69.5354 267.5241
f 1420 1421 1422
v 1972.9465 -70.0481 256.5395
v 1971.0640 -76.0578 267.8917
v 1973.1104 -69.5354 267.5241
f 1423 1424 1425
v 1973.1104 -69.5354 267.5241
v 1973.1069 -69.5355 256.5395
v 1972.9465 -70.0481 256.5395
f 1426 1427 1428
v 1966.9666 -89.1088 256.5411
v 1969.3545 -81.5081 267.8791
v 1972.9465 -70.0481 256.5395
f 1429 1430 1431
v 1971.0640 -76.0578 267.8917
v 1970.1707 -78.9103 271.8178
v 1971.0648 -76.0577 269.9796
f 1432 1433 1434
v 1982.1971 -75.0157 256.5366
v 1982.9384 -72.6238 256.5364
v 1983.1100 -72.7753 256.5364
f 1435 1436 1437
v 1985.4461 -73.4615 256.5356
v 1982.1971 -75.0157 256.5366
v 1983.1100 -72.7753 256.5364
f 1438 1439 1440
v 1982.9384 -72.6238 256.5364
v 1983.1363 -72.6863 256.5364
v 1983.1100 -72.7753 256.5364
f 1441 1442 1443
v 1972.9465 -70.0481 256.5395
v 1975.4808 -70.2798 256.5388
v 1974.8123 -72.7260 256.5389
f 1444 1445 1446
v 1975.5628 -70.3050 256.5387
v 1974.8123 -72.7260 256.5389
v 1975.4808 -70.2798 256.5388
f 1447 1448 1449
v 1973.1069 -69.5355 256.5395
v 1975.4808 -70.2798 256.5388
v 1972.9465 -70.0481 256.5395
f 1450 1451 1452
v 1982.1971 -75.0157 256.5366
v 1985.4461 -73.4615 256.5356
v 1985.8118 -73.5694 256.5355
f 1453 1454 1455
v 1972.9293 -91.0337 256.5393
v 1982.1971 -75.0157 256.5366
v 1979.7183 -93.2248 256.5371
f 1456 1457 1458
v 1979.7183 -93.2248 256.5371
v 1982.1971 -75.0157 256.5366
v 1985.8118 -73.5694 256.5355
f 1459 1460 1461
v 1972.9465 -70.0481 256.5395
v 1974.8123 -72.7260 256.5389
v 1966.9666 -89.1088 256.5411
f 1462 1463 1464
v 1974.8123 -72.7260 256.5389
v 1972.9293 -91.0337 256.5393
v 1966.9666 -89.1088 256.5411
f 1465 1466 1467
v 1972.9293 -91.0337 256.5393
v 1974.8123 -72.7260 256.5389
v 1982.1971 -75.0157 256.5366
f 1468 1469 1470
v 1967.1144 -88.6490 267.8627
v 1970.7726 -81.9509 268.8767
v 1969.3545 -81.5081 267.8791
f 1471 1472 1473
v 1970.2700 -87.0985 269.5777
v 1971.7709 -82.2625 269.5783
v 1970.7726 -81.9509 268.8767
f 1474 1475 1476
v 1967.1144 -88.6490 267.8627
v 1970.2700 -87.0985 269.5777
v 1970.7726 -81.9509 268.8767
f 1477 1478 1479
v 1971.9625 -76.3331 268.5224
v 1974.6317 -73.0333 269.5765
v 1972.9501 -70.0479 267.9061
f 1480 1481 1482
v 1974.6317 -73.0333 269.5765
v 1971.9625 -76.3331 268.5224
v 1973.4656 -76.7931 269.5768
f 1483 1484 1485
v 1972.9501 -70.0479 267.9061
v 1971.0640 -76.0578 267.8917
v 1971.9625 -76.3331 268.5224
f 1486 1487 1488
v 1976.0206 -70.4482 263.3534
v 1973.1104 -69.5354 267.5241
v 1975.4844 -70.2797 267.5294
f 1489 1490 1491
v 1976.0206 -70.4482 263.3534
v 1975.4844 -70.2797 267.5294
v 1979.0200 -71.3912 263.3524
f 1492 1493 1494
v 1975.5670 -70.3049 269.6292
v 1976.0227 -70.4481 269.9171
v 1975.4844 -70.2797 267.5294
f 1495 1496 1497
v 1975.4850 -70.2796 269.5764
v 1975.5670 -70.3049 269.6292
v 1975.4844 -70.2797 267.5294
f 1498 1499 1500
v 1973.1069 -69.5355 256.5395
v 1973.1104 -69.5354 267.5241
v 1976.0206 -70.4482 263.3534
f 1501 1502 1503
v 1976.0206 -70.4482 263.3534
v 1975.4808 -70.2798 256.5388
v 1973.1069 -69.5355 256.5395
f 1504 1505 1506
v 1976.0183 -70.4483 256.2846
v 1975.5628 -70.3050 256.5387
v 1976.0206 -70.4482 263.3534
f 1507 1508 1509
v 1976.0206 -70.4482 263.3534
v 1975.5628 -70.3050 256.5387
v 1975.4808 -70.2798 256.5388
f 1510 1511 1512
v 1975.5627 -70.3050 256.2847
v 1975.5628 -70.3050 256.5387
v 1976.0183 -70.4483 256.2846
f 1513 1514 1515
v 1979.0227 -71.3911 271.8151
v 1979.0200 -71.3912 263.3524
v 1976.0227 -70.4481 269.9171
f 1516 1517 1518
v 1982.6449 -72.5298 269.5740
v 1982.6442 -72.5298 267.5481
v 1979.0227 -71.3911 271.8151
f 1519 1520 1521
v 1979.0227 -71.3911 271.8151
v 1982.6442 -72.5298 267.5481
v 1979.0200 -71.3912 263.3524
f 1522 1523 1524
v 1983.1398 -72.6862 267.5490
v 1982.6429 -72.5299 263.3513
v 1982.6442 -72.5298 267.5481
f 1525 1526 1527
v 1982.6442 -72.5298 267.5481
v 1982.6429 -72.5299 263.3513
v 1979.0200 -71.3912 263.3524
f 1528 1529 1530
v 1982.9384 -72.6238 256.5364
v 1983.1398 -72.6862 267.5490
v 1983.1363 -72.6863 256.5364
f 1531 1532 1533
v 1983.1398 -72.6862 267.5490
v 1982.9384 -72.6238 256.5364
v 1982.9406 -72.6237 263.3512
f 1534 1535 1536
v 1982.9406 -72.6237 263.3512
v 1982.6429 -72.5299 263.3513
v 1983.1398 -72.6862 267.5490
f 1537 1538 1539
v 1975.4844 -70.2797 267.5294
v 1976.0227 -70.4481 269.9171
v 1979.0200 -71.3912 263.3524
f 1540 1541 1542
v 1983.1100 -72.7753 256.5364
v 1983.1398 -72.6862 267.5490
v 1983.1109 -72.7752 259.3063
f 1543 1544 1545
v 1983.1398 -72.6862 267.5490
v 1983.1136 -72.7750 267.6150
v 1983.1127 -72.7751 264.8451
f 1546 1547 1548
v 1977.1933 -66.7015 256.2843
v 1984.0946 -68.9028 263.3509
v 1984.0923 -68.9029 256.2821
f 1549 1550 1551
v 1976.0206 -70.4482 263.3534
v 1977.1956 -66.7014 263.3531
v 1977.1933 -66.7015 256.2843
f 1552 1553 1554
v 1974.8122 -72.7260 256.2849
v 1975.5628 -70.3050 256.5387
v 1975.5627 -70.3050 256.2847
f 1555 1556 1557
v 1982.1970 -75.0157 256.2826
v 1974.8123 -72.7260 256.5389
v 1974.8122 -72.7260 256.2849
f 1558 1559 1560

g building_ID_87C66C53-A529-475A-AB00-687CC5F70517
v 2028.5766 -71.4281 252.3022
v 2025.7883 -70.7786 252.3031
v 2027.0687 -65.4301 252.3027
f 1561 1562 1563
v 2028.5766 -71.4281 252.3022
v 2030.0008 -66.1140 252.3018
v 2032.1143 -72.2525 252.3011
f 1564 1565 1566
v 2030.0008 -66.1140 252.3018
v 2033.3627 -66.8969 252.3007
v 2032.1143 -72.2525 252.3011
f 1567 1568 1569
v 2027.0687 -65.4301 252.3027
v 2030.0008 -66.1140 252.3018
v 2028.5766 -71.4281 252.3022
f 1570 1571 1572
v 2025.7917 -70.7785 262.4647
v 2030.0050 -66.1138 265.0793
v 2027.0719 -65.4300 262.3283
f 1573 1574 1575
v 2030.0050 -66.1138 265.0793
v 2025.7917 -70.7785 262.4647
v 2028.5808 -71.4279 265.0797
f 1576 1577 1578
v 2032.7416 -69.5741 261.8405
v 2028.5808 -71.4279 265.0797
v 2032.1175 -72.2524 261.7577
f 1579 1580 1581
v 2032.7416 -69.5741 261.8405
v 2033.3658 -66.8968 261.9233
v 2030.0050 -66.1138 265.0793
f 1582 1583 1584
v 2028.5808 -71.4279 265.0797
v 2032.7416 -69.5741 261.8405
v 2030.0050 -66.1138 265.0793
f 1585 1586 1587
v 2025.7892 -70.7786 254.8430
v 2025.7917 -70.7785 262.4647
v 2027.0695 -65.4300 254.7076
f 1588 1589 1590
v 2027.0695 -65.4300 254.7076
v 2025.7883 -70.7786 252.3031
v 2025.7892 -70.7786 254.8430
f 1591 1592 1593
v 2025.7883 -70.7786 252.3031
v 2027.0695 -65.4300 254.7076
v 2027.0687 -65.4301 252.3027
f 1594 1595 1596
v 2033.3634 -66.8969 254.7066
v 2032.7416 -69.5741 261.8405
v 2032.1175 -72.2524 261.7577
f 1597 1598 1599
v 2032.1143 -72.2525 252.3011
v 2033.3627 -66.8969 252.3007
v 2033.3634 -66.8969 254.7066
f 1600 1601 1602
v 2032.1143 -72.2525 252.3011
v 2033.3634 -66.8969 254.7066
v 2032.1155 -72.2524 255.7440
f 1603 1604 1605
v 2033.3634 -66.8969 254.7066
v 2030.0008 -66.1140 252.3018
v 2027.0695 -65.4300 254.7076
f 1606 1607 1608
v 2027.0695 -65.4300 254.7076
v 2030.0008 -66.1140 252.3018
v 2027.0687 -65.4301 252.3027
f 1609 1610 1611
v 2030.0008 -66.1140 252.3018
v 2033.3634 -66.8969 254.7066
v 2033.3627 -66.8969 252.3007
f 1612 1613 1614
v 2033.3658 -66.8968 261.9233
v 2027.0695 -65.4300 254.7076
v 2027.0719 -65.4300 262.3283
f 1615 1616 1617
v 2033.3658 -66.8968 261.9233
v 2027.0719 -65.4300 262.3283
v 2030.0050 -66.1138 265.0793
f 1618 1619 1620
v 2033.3658 -66.8968 261.9233
v 2033.3634 -66.8969 254.7066
v 2027.0695 -65.4300 254.7076
f 1621 1622 1623
v 2025.7917 -70.7785 262.4647
v 2032.1175 -72.2524 261.7577
v 2028.5808 -71.4279 265.0797
f 1624 1625 1626
v 2032.1155 -72.2524 255.7440
v 2032.1175 -72.2524 261.7577
v 2025.7917 -70.7785 262.4647
f 1627 1628 1629
v 2032.1155 -72.2524 255.7440
v 2025.7892 -70.7786 254.8430
v 2028.5766 -71.4281 252.3022
f 1630 1631 1632
v 2025.7892 -70.7786 254.8430
v 2032.1155 -72.2524 255.7440
v 2025.7917 -70.7785 262.4647
f 1633 1634 1635
v 2028.5766 -71.4281 252.3022
v 2032.1143 -72.2525 252.3011
v 2032.1155 -72.2524 255.7440
f 1636 1637 1638
v 2025.7892 -70.7786 254.8430
v 2025.7883 -70.7786 252.3031
v 2028.5766 -71.4281 252.3022
f 1639 1640 1641
v 2027.0695 -65.4300 254.7076
v 2025.7917 -70.7785 262.4647
v 2027.0719 -65.4300 262.3283
f 1642 1643 1644
v 2032.7416 -69.5741 261.8405
v 2033.3634 -66.8969 254.7066
v 2033.3658 -66.8968 261.9233
f 1645 1646 1647
v 2033.3634 -66.8969 254.7066
v 2032.1175 -72.2524 261.7577
v 2032.1155 -72.2524 255.7440
f 1648 1649 1650

g building_ID_B1F9B60B-47BA-4D4C-BCED-41BE9982AADB
v 1863.1923 -35.2457 253.0881
v 1871.9288 -33.1281 253.0855
v 1866.2596 -38.4929 253.0872
f 1651 1652 1653
v 1862.0755 -34.0717 253.0884
v 1867.7617 -28.7201 253.0868
v 1869.7201 -30.7923 253.0862
f 1654 1655 1656
v 1871.9288 -33.1281 253.0855
v 1862.0755 -34.0717 253.0884
v 1869.7201 -30.7923 253.0862
f 1657 1658 1659
v 1863.1923 -35.2457 253.0881
v 1862.0755 -34.0717 253.0884
v 1871.9288 -33.1281 253.0855
f 1660 1661 1662
v 1869.0967 -35.8104 259.5431
v 1863.9548 -36.0506 261.7765
v 1866.2615 -38.4928 259.4950
f 1663 1664 1665
v 1869.7228 -30.7921 261.7749
v 1869.0967 -35.8104 259.5431
v 1871.9308 -33.1281 259.5913
f 1666 1667 1668
v 1863.9548 -36.0506 261.7765
v 1869.0967 -35.8104 259.5431
v 1869.7228 -30.7921 261.7749
f 1669 1670 1671
v 1863.1757 -35.2265 260.7489
v 1869.7228 -30.7921 261.7749
v 1867.7635 -28.7200 259.1926
f 1672 1673 1674
v 1863.1757 -35.2265 260.7489
v 1863.9548 -36.0506 261.7765
v 1869.7228 -30.7921 261.7749
f 1675 1676 1677
v 1862.0773 -34.0716 259.3062
v 1863.1757 -35.2265 260.7489
v 1867.7635 -28.7200 259.1926
f 1678 1679 1680
v 1866.2596 -38.4929 253.0872
v 1871.9288 -33.1281 253.0855
v 1866.2610 -38.4928 257.8680
f 1681 1682 1683
v 1866.2610 -38.4928 257.8680
v 1871.9308 -33.1281 259.5913
v 1869.0967 -35.8104 259.5431
f 1684 1685 1686
v 1866.2610 -38.4928 257.8680
v 1871.9288 -33.1281 253.0855
v 1871.9303 -33.1281 257.9653
f 1687 1688 1689
v 1866.2615 -38.4928 259.4950
v 1866.2610 -38.4928 257.8680
v 1869.0967 -35.8104 259.5431
f 1690 1691 1692
v 1862.0769 -34.0716 257.7513
v 1862.0773 -34.0716 259.3062
v 1867.7635 -28.7200 259.1926
f 1693 1694 1695
v 1867.7635 -28.7200 259.1926
v 1862.0755 -34.0717 253.0884
v 1862.0759 -34.0717 254.6424
f 1696 1697 1698
v 1867.7635 -28.7200 259.1926
v 1867.7626 -28.7200 256.0837
v 1862.0755 -34.0717 253.0884
f 1699 1700 1701
v 1867.7617 -28.7201 253.0868
v 1862.0755 -34.0717 253.0884
v 1867.7626 -28.7200 256.0837
f 1702 1703 1704
v 1871.9303 -33.1281 257.9653
v 1867.7626 -28.7200 256.0837
v 1867.7635 -28.7200 259.1926
f 1705 1706 1707
v 1869.7201 -30.7923 253.0862
v 1867.7617 -28.7201 253.0868
v 1867.7626 -28.7200 256.0837
f 1708 1709 1710
v 1871.9303 -33.1281 257.9653
v 1867.7635 -28.7200 259.1926
v 1869.7228 -30.7921 261.7749
f 1711 1712 1713
v 1869.7201 -30.7923 253.0862
v 1867.7626 -28.7200 256.0837
v 1871.9288 -33.1281 253.0855
f 1714 1715 1716
v 1871.9288 -33.1281 253.0855
v 1867.7626 -28.7200 256.0837
v 1871.9303 -33.1281 257.9653
f 1717 1718 1719
v 1871.9308 -33.1281 259.5913
v 1871.9303 -33.1281 257.9653
v 1869.7228 -30.7921 261.7749
f 1720 1721 1722
v 1863.1757 -35.2265 260.7489
v 1866.2615 -38.4928 259.4950
v 1863.9548 -36.0506 261.7765
f 1723 1724 1725
v 1862.0759 -34.0717 254.6424
v 1866.2610 -38.4928 257.8680
v 1866.2615 -38.4928 259.4950
f 1726 1727 1728
v 1866.2610 -38.4928 257.8680
v 1863.1923 -35.2457 253.0881
v 1866.2596 -38.4929 253.0872
f 1729 1730 1731
v 1862.0769 -34.0716 257.7513
v 1866.2615 -38.4928 259.4950
v 1863.1757 -35.2265 260.7489
f 1732 1733 1734
v 1862.0769 -34.0716 257.7513
v 1862.0759 -34.0717 254.6424
v 1866.2615 -38.4928 259.4950
f 1735 1736 1737
v 1863.1923 -35.2457 253.0881
v 1862.0759 -34.0717 254.6424
v 1862.0755 -34.0717 253.0884
f 1738 1739 1740
v 1866.2610 -38.4928 257.8680
v 1862.0759 -34.0717 254.6424
v 1863.1923 -35.2457 253.0881
f 1741 1742 1743
v 1862.0773 -34.0716 259.3062
v 1862.0769 -34.0716 257.7513
v 1863.1757 -35.2265 260.7489
f 1744 1745 1746
v 1871.9303 -33.1281 257.9653
v 1871.9308 -33.1281 259.5913
v 1866.2610 -38.4928 257.8680
f 1747 1748 1749
v 1867.7635 -28.7200 259.1926
v 1862.0759 -34.0717 254.6424
v 1862.0769 -34.0716 257.7513
f 1750 1751 1752

g building_ID_988D5ADC-E0F4-4179-995A-69359F17141C
v 1810.3574 -59.9298 254.4301
v 1803.5273 -56.2856 254.4320
v 1811.1106 -57.2619 254.4299
f 1753 1754 1755
v 1807.4974 -49.5083 254.4310
v 1811.1106 -57.2619 254.4299
v 1803.5273 -56.2856 254.4320
f 1756 1757 1758
v 1811.6288 -57.5473 254.4297
v 1810.3574 -59.9298 254.4301
v 1811.1106 -57.2619 254.4299
f 1759 1760 1761
v 1807.4974 -49.5083 254.4310
v 1813.6043 -52.8576 254.4292
v 1811.1106 -57.2619 254.4299
f 1762 1763 1764
v 1811.1127 -57.2618 261.6377
v 1813.6065 -52.8575 261.6370
v 1807.4995 -49.5082 261.6388
f 1765 1766 1767
v 1807.4995 -49.5082 261.6388
v 1804.9469 -53.8663 261.6395
v 1811.1127 -57.2618 261.6377
f 1768 1769 1770
v 1813.6043 -52.8576 254.4292
v 1813.6065 -52.8575 261.6370
v 1811.1106 -57.2619 254.4299
f 1771 1772 1773
v 1807.4974 -49.5083 254.4310
v 1807.4995 -49.5082 261.6388
v 1813.6065 -52.8575 261.6370
f 1774 1775 1776
v 1810.3574 -59.9298 254.4301
v 1810.3576 -59.9298 255.0621
v 1803.5275 -56.2856 255.0640
f 1777 1778 1779
v 1811.6288 -57.5473 254.4297
v 1811.6290 -57.5473 255.0617
v 1810.3576 -59.9298 255.0621
f 1780 1781 1782
v 1809.6129 -62.5367 262.7990
v 1804.9472 -53.8663 262.8004
v 1802.2358 -58.4940 262.8011
f 1783 1784 1785
v 1804.9472 -53.8663 262.8004
v 1809.6129 -62.5367 262.7990
v 1812.2224 -57.8727 262.7983
f 1786 1787 1788
v 1809.6107 -62.5368 255.0623
v 1809.6129 -62.5367 262.7990
v 1802.2358 -58.4940 262.8011
f 1789 1790 1791
v 1812.2201 -57.8729 255.0616
v 1812.2224 -57.8727 262.7983
v 1809.6129 -62.5367 262.7990
f 1792 1793 1794
v 1810.3576 -59.9298 255.0621
v 1812.2201 -57.8729 255.0616
v 1809.6107 -62.5368 255.0623
f 1795 1796 1797
v 1802.2336 -58.4940 255.0644
v 1810.3576 -59.9298 255.0621
v 1809.6107 -62.5368 255.0623
f 1798 1799 1800
v 1811.6290 -57.5473 255.0617
v 1812.2201 -57.8729 255.0616
v 1810.3576 -59.9298 255.0621
f 1801 1802 1803
v 1802.2336 -58.4940 255.0644
v 1803.5275 -56.2856 255.0640
v 1810.3576 -59.9298 255.0621
f 1804 1805 1806
v 1803.5275 -56.2856 255.0640
v 1802.2336 -58.4940 255.0644
v 1802.2358 -58.4940 262.8011
f 1807 1808 1809
v 1807.4974 -49.5083 254.4310
v 1803.5273 -56.2856 254.4320
v 1803.5275 -56.2856 255.0640
f 1810 1811 1812
v 1803.5275 -56.2856 255.0640
v 1802.2358 -58.4940 262.8011
v 1804.9469 -53.8663 261.6395
f 1813 1814 1815
v 1802.2358 -58.4940 262.8011
v 1804.9472 -53.8663 262.8004
v 1804.9469 -53.8663 261.6395
f 1816 1817 1818
v 1804.9469 -53.8663 261.6395
v 1807.4995 -49.5082 261.6388
v 1807.4974 -49.5083 254.4310
f 1819 1820 1821
v 1803.5275 -56.2856 255.0640
v 1804.9469 -53.8663 261.6395
v 1807.4974 -49.5083 254.4310
f 1822 1823 1824
v 1811.1127 -57.2618 261.6377
v 1804.9472 -53.8663 262.8004
v 1812.2224 -57.8727 262.7983
f 1825 1826 1827
v 1811.6290 -57.5473 255.0617
v 1811.1106 -57.2619 254.4299
v 1811.1127 -57.2618 261.6377
f 1828 1829 1830
v 1811.1127 -57.2618 261.6377
v 1812.2224 -57.8727 262.7983
v 1812.2201 -57.8729 255.0616
f 1831 1832 1833
v 1811.1106 -57.2619 254.4299
v 1811.6290 -57.5473 255.0617
v 1811.6288 -57.5473 254.4297
f 1834 1835 1836
v 1812.2201 -57.8729 255.0616
v 1811.6290 -57.5473 255.0617
v 1811.1127 -57.2618 261.6377
f 1837 1838 1839
v 1813.6065 -52.8575 261.6370
v 1811.1127 -57.2618 261.6377
v 1811.1106 -57.2619 254.4299
f 1840 1841 1842
v 1807.4974 -49.5083 254.4310
v 1813.6065 -52.8575 261.6370
v 1813.6043 -52.8576 254.4292
f 1843 1844 1845
v 1810.3574 -59.9298 254.4301
v 1803.5275 -56.2856 255.0640
v 1803.5273 -56.2856 254.4320
f 1846 1847 1848
v 1811.6288 -57.5473 254.4297
v 1810.3576 -59.9298 255.0621
v 1810.3574 -59.9298 254.4301
f 1849 1850 1851
v 1809.6107 -62.5368 255.0623
v 1802.2358 -58.4940 262.8011
v 1802.2336 -58.4940 255.0644
f 1852 1853 1854
v 1812.2201 -57.8729 255.0616
v 1809.6129 -62.5367 262.7990
v 1809.6107 -62.5368 255.0623
f 1855 1856 1857
v 1811.1127 -57.2618 261.6377
v 1804.9469 -53.8663 261.6395
v 1804.9472 -53.8663 262.8004
f 1858 1859 1860
