# Grid Center: 2617200, 1264200
# Global Anchor: 7.64977475454284, 47.53283995868075, 0.0

g building_ID_80E2F433-EBBA-4A91-BCF0-9D60EBCFD0B0
v 1490.8899 -380.8580 271.5929
v 1490.4752 -380.7679 271.5930
v 1490.4063 -381.0847 271.5930
f 1 2 3
v 1493.9662 -381.8582 271.5920
v 1490.8899 -380.8580 271.5929
v 1490.4063 -381.0847 271.5930
f 4 5 6
v 1492.8480 -371.8393 271.5930
v 1495.8554 -373.1643 271.5922
v 1495.9952 -372.5237 271.5922
f 7 8 9
v 1495.8554 -373.1643 271.5922
v 1492.8480 -371.8393 271.5930
v 1490.8899 -380.8580 271.5929
f 10 11 12
v 1493.9662 -381.8582 271.5920
v 1495.8554 -373.1643 271.5922
v 1490.8899 -380.8580 271.5929
f 13 14 15
v 1490.8885 -380.8577 265.8741
v 1490.8899 -380.8580 271.5929
v 1492.8480 -371.8393 271.5930
f 16 17 18
v 1490.4738 -380.7677 265.8742
v 1490.4752 -380.7679 271.5930
v 1490.8899 -380.8580 271.5929
f 19 20 21
v 1490.4049 -381.0844 265.8742
v 1490.4063 -381.0847 271.5930
v 1490.4752 -380.7679 271.5930
f 22 23 24
v 1495.8569 -373.1645 277.5639
v 1541.0500 -392.0953 274.8971
v 1542.9419 -383.4025 277.5521
f 25 26 27
v 1541.0500 -392.0953 274.8971
v 1495.8569 -373.1645 277.5639
v 1493.9670 -381.8583 274.9089
f 28 29 30
v 1542.9419 -383.4025 277.5521
v 1498.2837 -364.3901 274.9089
v 1498.2625 -364.4880 274.9369
f 31 32 33
v 1544.8710 -374.5228 274.8972
v 1498.2837 -364.3901 274.9089
v 1542.9419 -383.4025 277.5521
f 34 35 36
v 1493.9670 -381.8583 274.9089
v 1475.1202 -377.7608 274.9136
v 1473.1870 -386.6587 277.5684
f 37 38 39
v 1541.0500 -392.0953 274.8971
v 1493.9670 -381.8583 274.9089
v 1539.1169 -400.9931 277.5519
f 40 41 42
v 1473.1870 -386.6587 277.5684
v 1539.1169 -400.9931 277.5519
v 1493.9670 -381.8583 274.9089
f 43 44 45
v 1473.1870 -386.6587 277.5684
v 1537.2158 -409.7338 274.8968
v 1539.1169 -400.9931 277.5519
f 46 47 48
v 1537.2158 -409.7338 274.8968
v 1473.1870 -386.6587 277.5684
v 1471.2860 -395.4003 274.9134
f 49 50 51
v 1469.3528 -404.3002 277.5681
v 1535.2817 -418.6336 277.5516
v 1537.2158 -409.7338 274.8968
f 52 53 54
v 1537.2158 -409.7338 274.8968
v 1471.2860 -395.4003 274.9134
v 1469.3528 -404.3002 277.5681
f 55 56 57
v 1467.4224 -413.1768 274.9131
v 1533.3502 -427.5113 274.8966
v 1535.2817 -418.6336 277.5516
f 58 59 60
v 1535.2817 -418.6336 277.5516
v 1469.3528 -404.3002 277.5681
v 1467.4224 -413.1768 274.9131
f 61 62 63
v 1495.9952 -372.5237 271.5922
v 1495.9966 -372.5239 277.3720
v 1496.4929 -372.6321 271.5921
f 64 65 66
v 1498.2815 -364.3898 265.8733
v 1498.2837 -364.3901 274.9089
v 1544.8710 -374.5228 274.8972
f 67 68 69
v 1533.3480 -427.5109 265.8609
v 1533.3502 -427.5113 274.8966
v 1467.4224 -413.1768 274.9131
f 70 71 72
v 1495.9952 -372.5237 271.5922
v 1496.4929 -372.6321 271.5921
v 1496.4915 -372.6319 265.8733
f 73 74 75
v 1475.1180 -377.7605 265.8779
v 1475.1202 -377.7608 274.9136
v 1490.4063 -381.0847 271.5930
f 76 77 78
v 1493.9670 -381.8583 274.9089
v 1490.4063 -381.0847 271.5930
v 1475.1202 -377.7608 274.9136
f 79 80 81
v 1493.9670 -381.8583 274.9089
v 1493.9662 -381.8582 271.5920
v 1490.4063 -381.0847 271.5930
f 82 83 84
v 1539.1139 -400.9927 265.8613
v 1537.2135 -409.7335 265.8612
v 1473.1842 -386.6582 265.8778
f 85 86 87
v 1496.4915 -372.6319 265.8733
v 1541.0477 -392.0949 265.8614
v 1490.8885 -380.8577 265.8741
f 88 89 90
v 1490.8885 -380.8577 265.8741
v 1541.0477 -392.0949 265.8614
v 1539.1139 -400.9927 265.8613
f 91 92 93
v 1471.2838 -395.4000 265.8778
v 1537.2135 -409.7335 265.8612
v 1535.2787 -418.6332 265.8610
f 94 95 96
v 1496.4915 -372.6319 265.8733
v 1544.8688 -374.5225 265.8615
v 1542.9390 -383.4022 265.8615
f 97 98 99
v 1544.8688 -374.5225 265.8615
v 1496.4915 -372.6319 265.8733
v 1498.2815 -364.3898 265.8733
f 100 101 102
v 1496.4915 -372.6319 265.8733
v 1542.9390 -383.4022 265.8615
v 1541.0477 -392.0949 265.8614
f 103 104 105
v 1469.3500 -404.2997 265.8775
v 1535.2787 -418.6332 265.8610
v 1533.3480 -427.5109 265.8609
f 106 107 108
v 1471.2838 -395.4000 265.8778
v 1535.2787 -418.6332 265.8610
v 1469.3500 -404.2997 265.8775
f 109 110 111
v 1490.4049 -381.0844 265.8742
v 1473.1842 -386.6582 265.8778
v 1475.1180 -377.7605 265.8779
f 112 113 114
v 1471.2838 -395.4000 265.8778
v 1473.1842 -386.6582 265.8778
v 1537.2135 -409.7335 265.8612
f 115 116 117
v 1490.4049 -381.0844 265.8742
v 1539.1139 -400.9927 265.8613
v 1473.1842 -386.6582 265.8778
f 118 119 120
v 1496.4915 -372.6319 265.8733
v 1490.8885 -380.8577 265.8741
v 1492.8466 -371.8391 265.8742
f 121 122 123
v 1490.4049 -381.0844 265.8742
v 1490.4738 -380.7677 265.8742
v 1490.8885 -380.8577 265.8741
f 124 125 126
v 1490.8885 -380.8577 265.8741
v 1539.1139 -400.9927 265.8613
v 1490.4049 -381.0844 265.8742
f 127 128 129
v 1467.4202 -413.1765 265.8774
v 1469.3500 -404.2997 265.8775
v 1533.3480 -427.5109 265.8609
f 130 131 132
v 1495.8569 -373.1645 277.5639
v 1542.9419 -383.4025 277.5521
v 1496.4923 -372.6392 277.3739
f 133 134 135
v 1498.2625 -364.4880 274.9369
v 1496.4923 -372.6392 277.3739
v 1542.9419 -383.4025 277.5521
f 136 137 138
v 1496.4923 -372.6392 277.3739
v 1495.9966 -372.5239 277.3720
v 1495.8569 -373.1645 277.5639
f 139 140 141
v 1498.2815 -364.3898 265.8733
v 1496.4915 -372.6319 265.8733
v 1496.4929 -372.6321 271.5921
f 142 143 144
v 1498.2625 -364.4880 274.9369
v 1496.4929 -372.6321 271.5921
v 1496.4923 -372.6392 277.3739
f 145 146 147
v 1498.2815 -364.3898 265.8733
v 1498.2625 -364.4880 274.9369
v 1498.2837 -364.3901 274.9089
f 148 149 150
v 1496.4929 -372.6321 271.5921
v 1498.2625 -364.4880 274.9369
v 1498.2815 -364.3898 265.8733
f 151 152 153
v 1539.1139 -400.9927 265.8613
v 1541.0477 -392.0949 265.8614
v 1541.0500 -392.0953 274.8971
f 154 155 156
v 1542.9390 -383.4022 265.8615
v 1542.9419 -383.4025 277.5521
v 1541.0500 -392.0953 274.8971
f 157 158 159
v 1542.9390 -383.4022 265.8615
v 1544.8688 -374.5225 265.8615
v 1544.8710 -374.5228 274.8972
f 160 161 162
v 1542.9419 -383.4025 277.5521
v 1542.9390 -383.4022 265.8615
v 1544.8710 -374.5228 274.8972
f 163 164 165
v 1542.9390 -383.4022 265.8615
v 1541.0500 -392.0953 274.8971
v 1541.0477 -392.0949 265.8614
f 166 167 168
v 1539.1139 -400.9927 265.8613
v 1541.0500 -392.0953 274.8971
v 1539.1169 -400.9931 277.5519
f 169 170 171
v 1535.2817 -418.6336 277.5516
v 1535.2787 -418.6332 265.8610
v 1537.2158 -409.7338 274.8968
f 172 173 174
v 1533.3502 -427.5113 274.8966
v 1535.2787 -418.6332 265.8610
v 1535.2817 -418.6336 277.5516
f 175 176 177
v 1537.2158 -409.7338 274.8968
v 1537.2135 -409.7335 265.8612
v 1539.1139 -400.9927 265.8613
f 178 179 180
v 1537.2158 -409.7338 274.8968
v 1535.2787 -418.6332 265.8610
v 1537.2135 -409.7335 265.8612
f 181 182 183
v 1535.2787 -418.6332 265.8610
v 1533.3502 -427.5113 274.8966
v 1533.3480 -427.5109 265.8609
f 184 185 186
v 1539.1169 -400.9931 277.5519
v 1537.2158 -409.7338 274.8968
v 1539.1139 -400.9927 265.8613
f 187 188 189
v 1495.8554 -373.1643 271.5922
v 1493.9662 -381.8582 271.5920
v 1493.9670 -381.8583 274.9089
f 190 191 192
v 1495.8569 -373.1645 277.5639
v 1495.9952 -372.5237 271.5922
v 1493.9670 -381.8583 274.9089
f 193 194 195
v 1493.9670 -381.8583 274.9089
v 1495.9952 -372.5237 271.5922
v 1495.8554 -373.1643 271.5922
f 196 197 198
v 1495.9966 -372.5239 277.3720
v 1495.9952 -372.5237 271.5922
v 1495.8569 -373.1645 277.5639
f 199 200 201
v 1469.3500 -404.2997 265.8775
v 1469.3528 -404.3002 277.5681
v 1471.2860 -395.4003 274.9134
f 202 203 204
v 1467.4202 -413.1765 265.8774
v 1467.4224 -413.1768 274.9131
v 1469.3500 -404.2997 265.8775
f 205 206 207
v 1469.3528 -404.3002 277.5681
v 1469.3500 -404.2997 265.8775
v 1467.4224 -413.1768 274.9131
f 208 209 210
v 1469.3500 -404.2997 265.8775
v 1471.2860 -395.4003 274.9134
v 1471.2838 -395.4000 265.8778
f 211 212 213
v 1473.1842 -386.6582 265.8778
v 1473.1870 -386.6587 277.5684
v 1475.1202 -377.7608 274.9136
f 214 215 216
v 1473.1842 -386.6582 265.8778
v 1471.2838 -395.4000 265.8778
v 1471.2860 -395.4003 274.9134
f 217 218 219
v 1475.1202 -377.7608 274.9136
v 1475.1180 -377.7605 265.8779
v 1473.1842 -386.6582 265.8778
f 220 221 222
v 1473.1870 -386.6587 277.5684
v 1473.1842 -386.6582 265.8778
v 1471.2860 -395.4003 274.9134
f 223 224 225
v 1490.8885 -380.8577 265.8741
v 1492.8480 -371.8393 271.5930
v 1492.8466 -371.8391 265.8742
f 226 227 228
v 1490.4738 -380.7677 265.8742
v 1490.8899 -380.8580 271.5929
v 1490.8885 -380.8577 265.8741
f 229 230 231
v 1490.4049 -381.0844 265.8742
v 1490.4752 -380.7679 271.5930
v 1490.4738 -380.7677 265.8742
f 232 233 234
v 1495.9966 -372.5239 277.3720
v 1496.4923 -372.6392 277.3739
v 1496.4929 -372.6321 271.5921
f 235 236 237
v 1498.2815 -364.3898 265.8733
v 1544.8710 -374.5228 274.8972
v 1544.8688 -374.5225 265.8615
f 238 239 240
v 1533.3480 -427.5109 265.8609
v 1467.4224 -413.1768 274.9131
v 1467.4202 -413.1765 265.8774
f 241 242 243
v 1492.8466 -371.8391 265.8742
v 1492.8480 -371.8393 271.5930
v 1495.9952 -372.5237 271.5922
f 244 245 246
v 1495.9952 -372.5237 271.5922
v 1496.4915 -372.6319 265.8733
v 1492.8466 -371.8391 265.8742
f 247 248 249
v 1475.1180 -377.7605 265.8779
v 1490.4063 -381.0847 271.5930
v 1490.4049 -381.0844 265.8742
f 250 251 252

g building_ID_D9EFBC88-41A7-4E70-B116-E127AF42A99E
v 1458.0182 -375.4307 264.7700
v 1461.7443 -377.6097 264.7690
v 1456.2584 -390.2868 264.7695
f 253 254 255
v 1447.7096 -366.3742 264.7730
v 1459.6935 -371.5603 264.7698
v 1458.0182 -375.4307 264.7700
f 256 257 258
v 1458.0182 -375.4307 264.7700
v 1456.2584 -390.2868 264.7695
v 1445.6720 -371.0827 264.7732
f 259 260 261
v 1445.6720 -371.0827 264.7732
v 1435.4448 -381.2811 264.7749
v 1440.7737 -368.9647 264.7744
f 262 263 264
v 1458.0182 -375.4307 264.7700
v 1445.6720 -371.0827 264.7732
v 1447.7096 -366.3742 264.7730
f 265 266 267
v 1456.2584 -390.2868 264.7695
v 1435.4448 -381.2811 264.7749
v 1445.6720 -371.0827 264.7732
f 268 269 270
v 1445.6759 -371.0833 281.3926
v 1440.7777 -368.9652 281.3938
v 1435.4488 -381.2818 281.3943
f 271 272 273
v 1458.0222 -375.4313 281.3895
v 1447.7136 -366.3748 281.3924
v 1445.6759 -371.0833 281.3926
f 274 275 276
v 1445.6759 -371.0833 281.3926
v 1435.4488 -381.2818 281.3943
v 1456.2624 -390.2874 281.3889
f 277 278 279
v 1458.0222 -375.4313 281.3895
v 1456.2624 -390.2874 281.3889
v 1461.7483 -377.6103 281.3884
f 280 281 282
v 1447.7136 -366.3748 281.3924
v 1458.0222 -375.4313 281.3895
v 1459.6976 -371.5608 281.3893
f 283 284 285
v 1445.6759 -371.0833 281.3926
v 1456.2624 -390.2874 281.3889
v 1458.0222 -375.4313 281.3895
f 286 287 288
v 1456.2584 -390.2868 264.7695
v 1456.2624 -390.2874 281.3889
v 1435.4488 -381.2818 281.3943
f 289 290 291
v 1461.7443 -377.6097 264.7690
v 1461.7483 -377.6103 281.3884
v 1456.2624 -390.2874 281.3889
f 292 293 294
v 1458.0182 -375.4307 264.7700
v 1458.0222 -375.4313 281.3895
v 1461.7483 -377.6103 281.3884
f 295 296 297
v 1459.6935 -371.5603 264.7698
v 1459.6976 -371.5608 281.3893
v 1458.0222 -375.4313 281.3895
f 298 299 300
v 1447.7096 -366.3742 264.7730
v 1447.7136 -366.3748 281.3924
v 1459.6976 -371.5608 281.3893
f 301 302 303
v 1445.6720 -371.0827 264.7732
v 1445.6759 -371.0833 281.3926
v 1447.7136 -366.3748 281.3924
f 304 305 306
v 1440.7737 -368.9647 264.7744
v 1440.7777 -368.9652 281.3938
v 1445.6759 -371.0833 281.3926
f 307 308 309
v 1435.4448 -381.2811 264.7749
v 1435.4488 -381.2818 281.3943
v 1440.7777 -368.9652 281.3938
f 310 311 312
v 1456.2584 -390.2868 264.7695
v 1435.4488 -381.2818 281.3943
v 1435.4448 -381.2811 264.7749
f 313 314 315
v 1461.7443 -377.6097 264.7690
v 1456.2624 -390.2874 281.3889
v 1456.2584 -390.2868 264.7695
f 316 317 318
v 1458.0182 -375.4307 264.7700
v 1461.7483 -377.6103 281.3884
v 1461.7443 -377.6097 264.7690
f 319 320 321
v 1459.6935 -371.5603 264.7698
v 1458.0222 -375.4313 281.3895
v 1458.0182 -375.4307 264.7700
f 322 323 324
v 1447.7096 -366.3742 264.7730
v 1459.6976 -371.5608 281.3893
v 1459.6935 -371.5603 264.7698
f 325 326 327
v 1445.6720 -371.0827 264.7732
v 1447.7136 -366.3748 281.3924
v 1447.7096 -366.3742 264.7730
f 328 329 330
v 1440.7737 -368.9647 264.7744
v 1445.6759 -371.0833 281.3926
v 1445.6720 -371.0827 264.7732
f 331 332 333
v 1435.4448 -381.2811 264.7749
v 1440.7777 -368.9652 281.3938
v 1440.7737 -368.9647 264.7744
f 334 335 336

g building_ID_2A56B04A-983B-483C-93C8-5F66083E85EE
v 1511.9826 -329.9269 265.8450
v 1500.1499 -357.5139 265.8463
v 1488.2578 -352.3990 265.8493
f 337 338 339
v 1488.2578 -352.3990 265.8493
v 1500.1855 -324.8264 265.8480
v 1511.9826 -329.9269 265.8450
f 340 341 342
v 1500.1515 -357.5140 272.4310
v 1511.9842 -329.9271 272.4298
v 1500.1871 -324.8266 272.4328
f 343 344 345
v 1500.1871 -324.8266 272.4328
v 1488.2594 -352.3993 272.4341
v 1500.1515 -357.5140 272.4310
f 346 347 348
v 1500.1855 -324.8264 265.8480
v 1500.1871 -324.8266 272.4328
v 1511.9842 -329.9271 272.4298
f 349 350 351
v 1488.2578 -352.3990 265.8493
v 1488.2594 -352.3993 272.4341
v 1500.1871 -324.8266 272.4328
f 352 353 354
v 1500.1499 -357.5139 265.8463
v 1500.1515 -357.5140 272.4310
v 1488.2594 -352.3993 272.4341
f 355 356 357
v 1511.9826 -329.9269 265.8450
v 1511.9842 -329.9271 272.4298
v 1500.1515 -357.5140 272.4310
f 358 359 360
v 1500.1855 -324.8264 265.8480
v 1511.9842 -329.9271 272.4298
v 1511.9826 -329.9269 265.8450
f 361 362 363
v 1488.2578 -352.3990 265.8493
v 1500.1871 -324.8266 272.4328
v 1500.1855 -324.8264 265.8480
f 364 365 366
v 1500.1499 -357.5139 265.8463
v 1488.2594 -352.3993 272.4341
v 1488.2578 -352.3990 265.8493
f 367 368 369
v 1511.9826 -329.9269 265.8450
v 1500.1515 -357.5140 272.4310
v 1500.1499 -357.5139 265.8463
f 370 371 372

g building_ID_242049E9-250B-4B3B-870C-0DE29FE96AFE
v 1489.5005 -330.0414 294.2013
v 1498.2131 -321.9568 294.1996
v 1492.3238 -323.5951 294.2009
f 373 374 375
v 1490.8905 -322.9673 294.2013
v 1492.3238 -323.5951 294.2009
v 1498.2131 -321.9568 294.1996
f 376 377 378
v 1488.9922 -329.8190 294.2014
v 1487.8029 -332.5339 294.2015
v 1489.5005 -330.0414 294.2013
f 379 380 381
v 1491.8724 -336.4318 294.2004
v 1498.2131 -321.9568 294.1996
v 1489.5005 -330.0414 294.2013
f 382 383 384
v 1487.5335 -334.5302 294.2015
v 1491.8724 -336.4318 294.2004
v 1488.3113 -332.7572 294.2014
f 385 386 387
v 1489.5005 -330.0414 294.2013
v 1488.3113 -332.7572 294.2014
v 1491.8724 -336.4318 294.2004
f 388 389 390
v 1487.8029 -332.5339 294.2015
v 1488.3113 -332.7572 294.2014
v 1489.5005 -330.0414 294.2013
f 391 392 393
v 1490.8905 -322.9673 294.2013
v 1498.2131 -321.9568 294.1996
v 1488.0778 -321.7347 294.2020
f 394 395 396
v 1479.1407 -313.6008 294.2046
v 1488.0778 -321.7347 294.2020
v 1498.2131 -321.9568 294.1996
f 397 398 399
v 1477.5902 -317.1407 294.2048
v 1488.0778 -321.7347 294.2020
v 1479.1407 -313.6008 294.2046
f 400 401 402
v 1487.7388 -322.5118 294.2020
v 1490.8905 -322.9673 294.2013
v 1488.0778 -321.7347 294.2020
f 403 404 405
v 1490.8905 -322.9673 294.2013
v 1487.7388 -322.5118 294.2020
v 1490.5514 -323.7443 294.2013
f 406 407 408
v 1488.0773 -321.7346 292.2121
v 1488.0778 -321.7347 294.2020
v 1477.5902 -317.1407 294.2048
f 409 410 411
v 1487.7382 -322.5118 292.2121
v 1487.7388 -322.5118 294.2020
v 1488.0778 -321.7347 294.2020
f 412 413 414
v 1490.5509 -323.7442 292.2114
v 1490.5514 -323.7443 294.2013
v 1487.7388 -322.5118 294.2020
f 415 416 417
v 1490.8900 -322.9672 292.2114
v 1490.8905 -322.9673 294.2013
v 1490.5514 -323.7443 294.2013
f 418 419 420
v 1492.3233 -323.5950 292.2110
v 1492.3238 -323.5951 294.2009
v 1490.8905 -322.9673 294.2013
f 421 422 423
v 1489.5001 -330.0414 292.2114
v 1489.5005 -330.0414 294.2013
v 1492.3238 -323.5951 294.2009
f 424 425 426
v 1488.9916 -329.8191 292.2115
v 1488.9922 -329.8190 294.2014
v 1489.5005 -330.0414 294.2013
f 427 428 429
v 1487.8024 -332.5339 292.2116
v 1487.8029 -332.5339 294.2015
v 1488.9922 -329.8190 294.2014
f 430 431 432
v 1488.3108 -332.7572 292.2115
v 1488.3113 -332.7572 294.2014
v 1487.8029 -332.5339 294.2015
f 433 434 435
v 1487.5331 -334.5301 292.2116
v 1487.5335 -334.5302 294.2015
v 1488.3113 -332.7572 294.2014
f 436 437 438
v 1491.8719 -336.4317 292.2105
v 1491.8724 -336.4318 294.2004
v 1487.5335 -334.5302 294.2015
f 439 440 441
v 1498.2127 -321.9568 292.2097
v 1498.2131 -321.9568 294.1996
v 1491.8724 -336.4318 294.2004
f 442 443 444
v 1477.5897 -317.1406 292.2148
v 1477.5902 -317.1407 294.2048
v 1479.1402 -313.6018 292.2146
f 445 446 447
v 1444.8945 -351.6009 265.9414
v 1444.9007 -351.6017 292.2204
v 1464.2169 -307.0639 292.2184
f 448 449 450
v 1479.3070 -366.5359 265.9326
v 1479.3134 -366.5368 292.2117
v 1444.9007 -351.6017 292.2204
f 451 452 453
v 1498.5857 -322.1231 265.9305
v 1498.5922 -322.1238 292.2096
v 1479.3134 -366.5368 292.2117
f 454 455 456
v 1498.2062 -321.9561 265.9306
v 1498.5857 -322.1231 265.9305
v 1479.3070 -366.5359 265.9326
f 457 458 459
v 1444.8945 -351.6009 265.9414
v 1479.1338 -313.6002 265.9356
v 1479.3070 -366.5359 265.9326
f 460 461 462
v 1498.2062 -321.9561 265.9306
v 1479.3070 -366.5359 265.9326
v 1479.1338 -313.6002 265.9356
f 463 464 465
v 1464.2105 -307.0632 265.9393
v 1479.1338 -313.6002 265.9356
v 1444.8945 -351.6009 265.9414
f 466 467 468
v 1465.0044 -359.8655 292.2154
v 1479.3134 -366.5368 292.2117
v 1476.6097 -364.9505 292.2124
f 469 470 471
v 1479.7991 -357.6702 292.2121
v 1476.6097 -364.9505 292.2124
v 1479.3134 -366.5368 292.2117
f 472 473 474
v 1491.8719 -336.4317 292.2105
v 1487.5331 -334.5301 292.2116
v 1479.7991 -357.6702 292.2121
f 475 476 477
v 1479.3134 -366.5368 292.2117
v 1491.8719 -336.4317 292.2105
v 1479.7991 -357.6702 292.2121
f 478 479 480
v 1491.8719 -336.4317 292.2105
v 1479.3134 -366.5368 292.2117
v 1498.5922 -322.1238 292.2096
f 481 482 483
v 1468.1939 -352.5861 292.2151
v 1444.9007 -351.6017 292.2204
v 1465.0044 -359.8655 292.2154
f 484 485 486
v 1479.3134 -366.5368 292.2117
v 1465.0044 -359.8655 292.2154
v 1444.9007 -351.6017 292.2204
f 487 488 489
v 1468.1939 -352.5861 292.2151
v 1477.5897 -317.1406 292.2148
v 1444.9007 -351.6017 292.2204
f 490 491 492
v 1487.5331 -334.5301 292.2116
v 1488.3108 -332.7572 292.2115
v 1487.8024 -332.5339 292.2116
f 493 494 495
v 1487.7382 -322.5118 292.2121
v 1468.1939 -352.5861 292.2151
v 1487.8024 -332.5339 292.2116
f 496 497 498
v 1468.1939 -352.5861 292.2151
v 1487.5331 -334.5301 292.2116
v 1487.8024 -332.5339 292.2116
f 499 500 501
v 1468.1939 -352.5861 292.2151
v 1479.7991 -357.6702 292.2121
v 1487.5331 -334.5301 292.2116
f 502 503 504
v 1487.8024 -332.5339 292.2116
v 1488.9916 -329.8191 292.2115
v 1487.7382 -322.5118 292.2121
f 505 506 507
v 1488.9916 -329.8191 292.2115
v 1490.5509 -323.7442 292.2114
v 1487.7382 -322.5118 292.2121
f 508 509 510
v 1490.5509 -323.7442 292.2114
v 1488.9916 -329.8191 292.2115
v 1492.3233 -323.5950 292.2110
f 511 512 513
v 1490.8900 -322.9672 292.2114
v 1490.5509 -323.7442 292.2114
v 1492.3233 -323.5950 292.2110
f 514 515 516
v 1498.2127 -321.9568 292.2097
v 1491.8719 -336.4317 292.2105
v 1498.5922 -322.1238 292.2096
f 517 518 519
v 1488.0773 -321.7346 292.2121
v 1477.5897 -317.1406 292.2148
v 1487.7382 -322.5118 292.2121
f 520 521 522
v 1487.7382 -322.5118 292.2121
v 1477.5897 -317.1406 292.2148
v 1468.1939 -352.5861 292.2151
f 523 524 525
v 1477.5897 -317.1406 292.2148
v 1479.1402 -313.6018 292.2146
v 1464.2169 -307.0639 292.2184
f 526 527 528
v 1477.5897 -317.1406 292.2148
v 1464.2169 -307.0639 292.2184
v 1444.9007 -351.6017 292.2204
f 529 530 531
v 1489.5001 -330.0414 292.2114
v 1492.3233 -323.5950 292.2110
v 1488.9916 -329.8191 292.2115
f 532 533 534
v 1476.6111 -364.9507 298.1851
v 1468.1953 -352.5863 298.1879
v 1465.0059 -359.8658 298.1882
f 535 536 537
v 1468.1953 -352.5863 298.1879
v 1476.6111 -364.9507 298.1851
v 1479.8006 -357.6703 298.1849
f 538 539 540
v 1465.0044 -359.8655 292.2154
v 1465.0059 -359.8658 298.1882
v 1468.1953 -352.5863 298.1879
f 541 542 543
v 1476.6097 -364.9505 292.2124
v 1476.6111 -364.9507 298.1851
v 1465.0059 -359.8658 298.1882
f 544 545 546
v 1479.7991 -357.6702 292.2121
v 1479.8006 -357.6703 298.1849
v 1476.6111 -364.9507 298.1851
f 547 548 549
v 1468.1939 -352.5861 292.2151
v 1468.1953 -352.5863 298.1879
v 1479.8006 -357.6703 298.1849
f 550 551 552
v 1479.1338 -313.6002 265.9356
v 1464.2105 -307.0632 265.9393
v 1479.1402 -313.6018 292.2146
f 553 554 555
v 1498.2062 -321.9561 265.9306
v 1479.1338 -313.6002 265.9356
v 1479.1402 -313.6018 292.2146
f 556 557 558
v 1479.1402 -313.6018 292.2146
v 1479.1407 -313.6008 294.2046
v 1498.2131 -321.9568 294.1996
f 559 560 561
v 1479.1402 -313.6018 292.2146
v 1498.2127 -321.9568 292.2097
v 1498.2062 -321.9561 265.9306
f 562 563 564
v 1498.2062 -321.9561 265.9306
v 1498.2127 -321.9568 292.2097
v 1498.5857 -322.1231 265.9305
f 565 566 567
v 1498.5922 -322.1238 292.2096
v 1498.5857 -322.1231 265.9305
v 1498.2127 -321.9568 292.2097
f 568 569 570
v 1498.2131 -321.9568 294.1996
v 1498.2127 -321.9568 292.2097
v 1479.1402 -313.6018 292.2146
f 571 572 573
v 1488.0773 -321.7346 292.2121
v 1477.5902 -317.1407 294.2048
v 1477.5897 -317.1406 292.2148
f 574 575 576
v 1487.7382 -322.5118 292.2121
v 1488.0778 -321.7347 294.2020
v 1488.0773 -321.7346 292.2121
f 577 578 579
v 1490.5509 -323.7442 292.2114
v 1487.7388 -322.5118 294.2020
v 1487.7382 -322.5118 292.2121
f 580 581 582
v 1490.8900 -322.9672 292.2114
v 1490.5514 -323.7443 294.2013
v 1490.5509 -323.7442 292.2114
f 583 584 585
v 1492.3233 -323.5950 292.2110
v 1490.8905 -322.9673 294.2013
v 1490.8900 -322.9672 292.2114
f 586 587 588
v 1489.5001 -330.0414 292.2114
v 1492.3238 -323.5951 294.2009
v 1492.3233 -323.5950 292.2110
f 589 590 591
v 1488.9916 -329.8191 292.2115
v 1489.5005 -330.0414 294.2013
v 1489.5001 -330.0414 292.2114
f 592 593 594
v 1487.8024 -332.5339 292.2116
v 1488.9922 -329.8190 294.2014
v 1488.9916 -329.8191 292.2115
f 595 596 597
v 1488.3108 -332.7572 292.2115
v 1487.8029 -332.5339 294.2015
v 1487.8024 -332.5339 292.2116
f 598 599 600
v 1487.5331 -334.5301 292.2116
v 1488.3113 -332.7572 294.2014
v 1488.3108 -332.7572 292.2115
f 601 602 603
v 1491.8719 -336.4317 292.2105
v 1487.5335 -334.5302 294.2015
v 1487.5331 -334.5301 292.2116
f 604 605 606
v 1498.2127 -321.9568 292.2097
v 1491.8724 -336.4318 294.2004
v 1491.8719 -336.4317 292.2105
f 607 608 609
v 1477.5902 -317.1407 294.2048
v 1479.1407 -313.6008 294.2046
v 1479.1402 -313.6018 292.2146
f 610 611 612
v 1444.8945 -351.6009 265.9414
v 1464.2169 -307.0639 292.2184
v 1464.2105 -307.0632 265.9393
f 613 614 615
v 1479.3070 -366.5359 265.9326
v 1444.9007 -351.6017 292.2204
v 1444.8945 -351.6009 265.9414
f 616 617 618
v 1498.5857 -322.1231 265.9305
v 1479.3134 -366.5368 292.2117
v 1479.3070 -366.5359 265.9326
f 619 620 621
v 1465.0044 -359.8655 292.2154
v 1468.1953 -352.5863 298.1879
v 1468.1939 -352.5861 292.2151
f 622 623 624
v 1476.6097 -364.9505 292.2124
v 1465.0059 -359.8658 298.1882
v 1465.0044 -359.8655 292.2154
f 625 626 627
v 1479.7991 -357.6702 292.2121
v 1476.6111 -364.9507 298.1851
v 1476.6097 -364.9505 292.2124
f 628 629 630
v 1468.1939 -352.5861 292.2151
v 1479.8006 -357.6703 298.1849
v 1479.7991 -357.6702 292.2121
f 631 632 633
v 1464.2105 -307.0632 265.9393
v 1464.2169 -307.0639 292.2184
v 1479.1402 -313.6018 292.2146
f 634 635 636

g building_ID_72F363CA-EAC7-4B07-B904-97E5FD205102
v 1433.8841 -294.3302 265.9718
v 1426.1377 -328.8330 265.9719
v 1427.4400 -292.8859 265.9734
f 637 638 639
v 1421.3338 -291.5166 265.9749
v 1427.4400 -292.8859 265.9734
v 1419.6926 -327.3877 265.9734
f 640 641 642
v 1419.6926 -327.3877 265.9734
v 1413.5944 -326.0184 265.9748
v 1421.3338 -291.5166 265.9749
f 643 644 645
v 1426.1377 -328.8330 265.9719
v 1419.6926 -327.3877 265.9734
v 1427.4400 -292.8859 265.9734
f 646 647 648
v 1413.5960 -326.0186 272.9626
v 1427.4418 -292.8861 273.7031
v 1421.3354 -291.5168 272.9616
f 649 650 651
v 1427.4418 -292.8861 273.7031
v 1413.5960 -326.0186 272.9626
v 1419.6945 -327.3879 273.7031
f 652 653 654
v 1427.4418 -292.8861 273.7031
v 1419.6945 -327.3879 273.7031
v 1426.1394 -328.8332 272.9427
f 655 656 657
v 1426.1394 -328.8332 272.9427
v 1433.8857 -294.3304 272.9426
v 1427.4418 -292.8861 273.7031
f 658 659 660
v 1421.3338 -291.5166 265.9749
v 1413.5960 -326.0186 272.9626
v 1421.3354 -291.5168 272.9616
f 661 662 663
v 1433.8841 -294.3302 265.9718
v 1433.8857 -294.3304 272.9426
v 1426.1394 -328.8332 272.9427
f 664 665 666
v 1421.3354 -291.5168 272.9616
v 1427.4418 -292.8861 273.7031
v 1421.3338 -291.5166 265.9749
f 667 668 669
v 1421.3338 -291.5166 265.9749
v 1427.4418 -292.8861 273.7031
v 1427.4400 -292.8859 265.9734
f 670 671 672
v 1427.4400 -292.8859 265.9734
v 1427.4418 -292.8861 273.7031
v 1433.8841 -294.3302 265.9718
f 673 674 675
v 1433.8857 -294.3304 272.9426
v 1433.8841 -294.3302 265.9718
v 1427.4418 -292.8861 273.7031
f 676 677 678
v 1419.6926 -327.3877 265.9734
v 1426.1394 -328.8332 272.9427
v 1419.6945 -327.3879 273.7031
f 679 680 681
v 1426.1394 -328.8332 272.9427
v 1419.6926 -327.3877 265.9734
v 1426.1377 -328.8330 265.9719
f 682 683 684
v 1419.6926 -327.3877 265.9734
v 1419.6945 -327.3879 273.7031
v 1413.5944 -326.0184 265.9748
f 685 686 687
v 1413.5960 -326.0186 272.9626
v 1413.5944 -326.0184 265.9748
v 1419.6945 -327.3879 273.7031
f 688 689 690
v 1413.5944 -326.0184 265.9748
v 1413.5960 -326.0186 272.9626
v 1421.3338 -291.5166 265.9749
f 691 692 693
v 1433.8841 -294.3302 265.9718
v 1426.1394 -328.8332 272.9427
v 1426.1377 -328.8330 265.9719
f 694 695 696

g building_ID_520FA2F3-BA2D-44A1-B844-1F56A7B4A869
v 1381.0471 -529.4865 280.1516
v 1379.1050 -533.5981 280.1516
v 1376.0390 -532.1500 280.1524
f 697 698 699
v 1376.0390 -532.1500 280.1524
v 1377.9809 -528.0382 280.1523
v 1381.0471 -529.4865 280.1516
f 700 701 702
v 1381.0489 -529.4869 288.1123
v 1376.0408 -532.1504 288.1131
v 1379.1068 -533.5987 288.1123
f 703 704 705
v 1376.0408 -532.1504 288.1131
v 1381.0489 -529.4869 288.1123
v 1377.9828 -528.0387 288.1130
f 706 707 708
v 1377.9809 -528.0382 280.1523
v 1377.9828 -528.0387 288.1130
v 1381.0489 -529.4869 288.1123
f 709 710 711
v 1376.0390 -532.1500 280.1524
v 1376.0408 -532.1504 288.1131
v 1377.9828 -528.0387 288.1130
f 712 713 714
v 1379.1050 -533.5981 280.1516
v 1379.1068 -533.5987 288.1123
v 1376.0408 -532.1504 288.1131
f 715 716 717
v 1381.0471 -529.4865 280.1516
v 1381.0489 -529.4869 288.1123
v 1379.1068 -533.5987 288.1123
f 718 719 720
v 1377.9809 -528.0382 280.1523
v 1381.0489 -529.4869 288.1123
v 1381.0471 -529.4865 280.1516
f 721 722 723
v 1376.0390 -532.1500 280.1524
v 1377.9828 -528.0387 288.1130
v 1377.9809 -528.0382 280.1523
f 724 725 726
v 1379.1050 -533.5981 280.1516
v 1376.0408 -532.1504 288.1131
v 1376.0390 -532.1500 280.1524
f 727 728 729
v 1381.0471 -529.4865 280.1516
v 1379.1068 -533.5987 288.1123
v 1379.1050 -533.5981 280.1516
f 730 731 732
