# Grid Center: 2618800, 1264600
# Global Anchor: 7.64977475454284, 47.53283995868075, 0.0

g building_ID_5ABCF094-05E9-4B10-B3EA-90EB00D454A6
v 2728.7013 -131.0895 255.3293
v 2726.4026 -130.9613 255.3303
v 2719.7341 -128.2165 255.3332
f 1 2 3
v 2719.7341 -128.2165 255.3332
v 2724.8499 -127.8892 255.3310
v 2728.7013 -131.0895 255.3293
f 4 5 6
v 2719.8413 -127.3909 255.3332
v 2724.8499 -127.8892 255.3310
v 2719.7341 -128.2165 255.3332
f 7 8 9
v 2728.7013 -131.0895 255.3293
v 2724.8499 -127.8892 255.3310
v 2728.9759 -128.2473 255.3293
f 10 11 12
v 2719.4135 -130.6756 255.3333
v 2726.4026 -130.9613 255.3303
v 2726.3157 -132.0761 255.3303
f 13 14 15
v 2719.3492 -131.1684 255.3333
v 2719.4135 -130.6756 255.3333
v 2726.3157 -132.0761 255.3303
f 16 17 18
v 2719.7341 -128.2165 255.3332
v 2726.4026 -130.9613 255.3303
v 2719.4135 -130.6756 255.3333
f 19 20 21
v 2719.4135 -130.6756 255.3333
v 2714.5861 -130.1317 255.3354
v 2719.7341 -128.2165 255.3332
f 22 23 24
v 2714.5861 -130.1317 255.3354
v 2714.9066 -127.6726 255.3354
v 2719.7341 -128.2165 255.3332
f 25 26 27
v 2719.7354 -128.2165 258.2851
v 2719.4148 -130.6757 258.3362
v 2726.4040 -130.9613 258.3262
f 28 29 30
v 2719.7354 -128.2165 258.2851
v 2714.9079 -127.6726 258.2853
v 2714.5874 -130.1317 258.3353
f 31 32 33
v 2719.4148 -130.6757 258.3362
v 2719.7354 -128.2165 258.2851
v 2714.5874 -130.1317 258.3353
f 34 35 36
v 2724.8512 -127.8892 258.2679
v 2719.8426 -127.3908 258.2681
v 2719.7354 -128.2165 258.2851
f 37 38 39
v 2726.3170 -132.0761 258.3492
v 2719.4148 -130.6757 258.3362
v 2719.3505 -131.1685 258.3462
f 40 41 42
v 2726.3170 -132.0761 258.3492
v 2726.4040 -130.9613 258.3262
v 2719.4148 -130.6757 258.3362
f 43 44 45
v 2728.7026 -131.0895 258.3242
v 2719.7354 -128.2165 258.2851
v 2726.4040 -130.9613 258.3262
f 46 47 48
v 2724.8512 -127.8892 258.2679
v 2719.7354 -128.2165 258.2851
v 2728.7026 -131.0895 258.3242
f 49 50 51
v 2724.8512 -127.8892 258.2679
v 2728.7026 -131.0895 258.3242
v 2728.9772 -128.2473 258.2662
f 52 53 54
v 2719.8426 -127.3908 258.2681
v 2719.7341 -128.2165 255.3332
v 2719.7354 -128.2165 258.2851
f 55 56 57
v 2719.7354 -128.2165 258.2851
v 2714.9066 -127.6726 255.3354
v 2714.9079 -127.6726 258.2853
f 58 59 60
v 2719.7341 -128.2165 255.3332
v 2714.9066 -127.6726 255.3354
v 2719.7354 -128.2165 258.2851
f 61 62 63
v 2714.5874 -130.1317 258.3353
v 2714.9079 -127.6726 258.2853
v 2714.5861 -130.1317 255.3354
f 64 65 66
v 2714.5861 -130.1317 255.3354
v 2714.9079 -127.6726 258.2853
v 2714.9066 -127.6726 255.3354
f 67 68 69
v 2719.4135 -130.6756 255.3333
v 2714.5874 -130.1317 258.3353
v 2714.5861 -130.1317 255.3354
f 70 71 72
v 2719.4135 -130.6756 255.3333
v 2719.3492 -131.1684 255.3333
v 2719.4148 -130.6757 258.3362
f 73 74 75
v 2719.4148 -130.6757 258.3362
v 2719.3492 -131.1684 255.3333
v 2719.3505 -131.1685 258.3462
f 76 77 78
v 2726.3157 -132.0761 255.3303
v 2726.3170 -132.0761 258.3492
v 2719.3505 -131.1685 258.3462
f 79 80 81
v 2726.3157 -132.0761 255.3303
v 2719.3505 -131.1685 258.3462
v 2719.3492 -131.1684 255.3333
f 82 83 84
v 2726.4040 -130.9613 258.3262
v 2726.3157 -132.0761 255.3303
v 2726.4026 -130.9613 255.3303
f 85 86 87
v 2726.3157 -132.0761 255.3303
v 2726.4040 -130.9613 258.3262
v 2726.3170 -132.0761 258.3492
f 88 89 90
v 2728.7013 -131.0895 255.3293
v 2728.7026 -131.0895 258.3242
v 2726.4040 -130.9613 258.3262
f 91 92 93
v 2728.7013 -131.0895 255.3293
v 2726.4040 -130.9613 258.3262
v 2726.4026 -130.9613 255.3303
f 94 95 96
v 2728.7026 -131.0895 258.3242
v 2728.7013 -131.0895 255.3293
v 2728.9772 -128.2473 258.2662
f 97 98 99
v 2728.9772 -128.2473 258.2662
v 2724.8499 -127.8892 255.3310
v 2724.8512 -127.8892 258.2679
f 100 101 102
v 2724.8499 -127.8892 255.3310
v 2728.9772 -128.2473 258.2662
v 2728.9759 -128.2473 255.3293
f 103 104 105
v 2724.8499 -127.8892 255.3310
v 2719.8413 -127.3909 255.3332
v 2719.8426 -127.3908 258.2681
f 106 107 108
v 2724.8512 -127.8892 258.2679
v 2724.8499 -127.8892 255.3310
v 2719.8426 -127.3908 258.2681
f 109 110 111
v 2719.7341 -128.2165 255.3332
v 2719.8426 -127.3908 258.2681
v 2719.8413 -127.3909 255.3332
f 112 113 114
v 2719.4148 -130.6757 258.3362
v 2714.5874 -130.1317 258.3353
v 2719.4135 -130.6756 255.3333
f 115 116 117
v 2728.9772 -128.2473 258.2662
v 2728.7013 -131.0895 255.3293
v 2728.9759 -128.2473 255.3293
f 118 119 120

g building_ID_80D910CA-6789-4D6D-B335-F1F9D95CC70A
v 2703.8360 -195.8370 265.9818
v 2682.5088 -195.2529 265.9909
v 2682.7969 -184.7819 265.9910
f 121 122 123
v 2712.5028 -185.4004 265.9785
v 2703.8360 -195.8370 265.9818
v 2682.7969 -184.7819 265.9910
f 124 125 126
v 2713.5003 -196.0509 265.9777
v 2712.5028 -185.4004 265.9785
v 2713.7927 -185.4358 265.9779
f 127 128 129
v 2703.8360 -195.8370 265.9818
v 2712.5028 -185.4004 265.9785
v 2713.5003 -196.0509 265.9777
f 130 131 132
v 2713.5051 -196.0510 277.0523
v 2713.7975 -185.4359 277.0525
v 2712.5077 -185.4004 277.0531
f 133 134 135
v 2703.8408 -195.8371 277.0564
v 2713.5051 -196.0510 277.0523
v 2712.5077 -185.4004 277.0531
f 136 137 138
v 2682.5136 -195.2531 277.0655
v 2703.8408 -195.8371 277.0564
v 2682.8016 -184.7819 277.0657
f 139 140 141
v 2712.5077 -185.4004 277.0531
v 2682.8016 -184.7819 277.0657
v 2703.8408 -195.8371 277.0564
f 142 143 144
v 2682.5088 -195.2529 265.9909
v 2682.5136 -195.2531 277.0655
v 2682.8016 -184.7819 277.0657
f 145 146 147
v 2703.8360 -195.8370 265.9818
v 2703.8408 -195.8371 277.0564
v 2682.5136 -195.2531 277.0655
f 148 149 150
v 2713.5003 -196.0509 265.9777
v 2713.5051 -196.0510 277.0523
v 2703.8408 -195.8371 277.0564
f 151 152 153
v 2713.7927 -185.4358 265.9779
v 2713.7975 -185.4359 277.0525
v 2713.5051 -196.0510 277.0523
f 154 155 156
v 2682.8016 -184.7819 277.0657
v 2712.5077 -185.4004 277.0531
v 2712.5028 -185.4004 265.9785
f 157 158 159
v 2713.7927 -185.4358 265.9779
v 2712.5028 -185.4004 265.9785
v 2712.5077 -185.4004 277.0531
f 160 161 162
v 2682.5088 -195.2529 265.9909
v 2682.8016 -184.7819 277.0657
v 2682.7969 -184.7819 265.9910
f 163 164 165
v 2703.8360 -195.8370 265.9818
v 2682.5136 -195.2531 277.0655
v 2682.5088 -195.2529 265.9909
f 166 167 168
v 2713.5003 -196.0509 265.9777
v 2703.8408 -195.8371 277.0564
v 2703.8360 -195.8370 265.9818
f 169 170 171
v 2713.7927 -185.4358 265.9779
v 2713.5051 -196.0510 277.0523
v 2713.5003 -196.0509 265.9777
f 172 173 174
v 2682.8016 -184.7819 277.0657
v 2712.5028 -185.4004 265.9785
v 2682.7969 -184.7819 265.9910
f 175 176 177
v 2713.7927 -185.4358 265.9779
v 2712.5077 -185.4004 277.0531
v 2713.7975 -185.4359 277.0525
f 178 179 180

g building_ID_FEC522BA-8741-4BE3-ACDF-248E1831889F
v 2796.9718 -136.9682 251.4877
v 2797.0195 -136.3293 251.4877
v 2802.0573 -137.1188 251.4855
f 181 182 183
v 2796.7570 -138.7685 251.4878
v 2790.1288 -138.1008 251.4908
v 2788.9749 -137.3407 251.4913
f 184 185 186
v 2788.9749 -137.3407 251.4913
v 2790.1288 -138.1008 251.4908
v 2788.9002 -137.9765 251.4913
f 187 188 189
v 2789.4477 -135.5371 251.4911
v 2796.7570 -138.7685 251.4878
v 2788.9749 -137.3407 251.4913
f 190 191 192
v 2797.0195 -136.3293 251.4877
v 2796.9718 -136.9682 251.4877
v 2789.4477 -135.5371 251.4911
f 193 194 195
v 2789.4477 -135.5371 251.4911
v 2796.9718 -136.9682 251.4877
v 2796.7570 -138.7685 251.4878
f 196 197 198
v 2802.0573 -137.1188 251.4855
v 2797.0195 -136.3293 251.4877
v 2797.1569 -135.0467 251.4878
f 199 200 201
v 2802.1295 -135.5680 251.4855
v 2802.0573 -137.1188 251.4855
v 2797.1569 -135.0467 251.4878
f 202 203 204
v 2802.0603 -137.1188 258.0783
v 2802.1324 -135.5679 257.9723
v 2796.9747 -136.9681 258.1105
f 205 206 207
v 2797.0225 -136.3292 258.0675
v 2796.9747 -136.9681 258.1105
v 2802.1324 -135.5679 257.9723
f 208 209 210
v 2789.4507 -135.5370 258.0768
v 2790.1319 -138.1008 258.2455
v 2796.9747 -136.9681 258.1105
f 211 212 213
v 2797.1598 -135.0466 257.9785
v 2797.0225 -136.3292 258.0675
v 2802.1324 -135.5679 257.9723
f 214 215 216
v 2796.7600 -138.7685 258.2346
v 2796.9747 -136.9681 258.1105
v 2790.1319 -138.1008 258.2455
f 217 218 219
v 2788.9779 -137.3407 258.2030
v 2788.9033 -137.9765 258.2470
v 2790.1319 -138.1008 258.2455
f 220 221 222
v 2788.9779 -137.3407 258.2030
v 2790.1319 -138.1008 258.2455
v 2789.4507 -135.5370 258.0768
f 223 224 225
v 2797.0225 -136.3292 258.0675
v 2789.4507 -135.5370 258.0768
v 2796.9747 -136.9681 258.1105
f 226 227 228
v 2802.1324 -135.5679 257.9723
v 2797.1569 -135.0467 251.4878
v 2797.1598 -135.0466 257.9785
f 229 230 231
v 2797.1569 -135.0467 251.4878
v 2802.1324 -135.5679 257.9723
v 2802.1295 -135.5680 251.4855
f 232 233 234
v 2797.0195 -136.3293 251.4877
v 2797.0225 -136.3292 258.0675
v 2797.1569 -135.0467 251.4878
f 235 236 237
v 2797.0225 -136.3292 258.0675
v 2797.1598 -135.0466 257.9785
v 2797.1569 -135.0467 251.4878
f 238 239 240
v 2789.4507 -135.5370 258.0768
v 2797.0195 -136.3293 251.4877
v 2789.4477 -135.5371 251.4911
f 241 242 243
v 2788.9749 -137.3407 251.4913
v 2788.9779 -137.3407 258.2030
v 2789.4507 -135.5370 258.0768
f 244 245 246
v 2788.9002 -137.9765 251.4913
v 2788.9033 -137.9765 258.2470
v 2788.9779 -137.3407 258.2030
f 247 248 249
v 2796.7570 -138.7685 251.4878
v 2796.9718 -136.9682 251.4877
v 2796.9747 -136.9681 258.1105
f 250 251 252
v 2796.7570 -138.7685 251.4878
v 2796.9747 -136.9681 258.1105
v 2796.7600 -138.7685 258.2346
f 253 254 255
v 2796.9747 -136.9681 258.1105
v 2802.0573 -137.1188 251.4855
v 2802.0603 -137.1188 258.0783
f 256 257 258
v 2796.9718 -136.9682 251.4877
v 2802.0573 -137.1188 251.4855
v 2796.9747 -136.9681 258.1105
f 259 260 261
v 2802.1295 -135.5680 251.4855
v 2802.1324 -135.5679 257.9723
v 2802.0573 -137.1188 251.4855
f 262 263 264
v 2802.1324 -135.5679 257.9723
v 2802.0603 -137.1188 258.0783
v 2802.0573 -137.1188 251.4855
f 265 266 267
v 2796.7600 -138.7685 258.2346
v 2790.1288 -138.1008 251.4908
v 2796.7570 -138.7685 251.4878
f 268 269 270
v 2788.9002 -137.9765 251.4913
v 2790.1288 -138.1008 251.4908
v 2790.1319 -138.1008 258.2455
f 271 272 273
v 2790.1319 -138.1008 258.2455
v 2790.1288 -138.1008 251.4908
v 2796.7600 -138.7685 258.2346
f 274 275 276
v 2788.9033 -137.9765 258.2470
v 2788.9002 -137.9765 251.4913
v 2790.1319 -138.1008 258.2455
f 277 278 279
v 2789.4507 -135.5370 258.0768
v 2797.0225 -136.3292 258.0675
v 2797.0195 -136.3293 251.4877
f 280 281 282
v 2788.9749 -137.3407 251.4913
v 2789.4507 -135.5370 258.0768
v 2789.4477 -135.5371 251.4911
f 283 284 285
v 2788.9002 -137.9765 251.4913
v 2788.9779 -137.3407 258.2030
v 2788.9749 -137.3407 251.4913
f 286 287 288

g building_ID_B9EF37A7-5B06-4B8A-9585-598ACAD4B5CC
v 2768.9136 -148.0178 264.7633
v 2774.9544 -147.6720 264.7607
v 2769.0196 -149.8751 264.7632
f 289 290 291
v 2768.3944 -152.1864 264.7634
v 2768.2886 -149.8881 264.7635
v 2769.1615 -152.1635 264.7631
f 292 293 294
v 2769.1615 -152.1635 264.7631
v 2768.2886 -149.8881 264.7635
v 2769.0196 -149.8751 264.7632
f 295 296 297
v 2775.1865 -151.7696 264.7605
v 2769.1612 -152.2634 264.7631
v 2769.1615 -152.1635 264.7631
f 298 299 300
v 2769.1615 -152.1635 264.7631
v 2769.0196 -149.8751 264.7632
v 2775.1865 -151.7696 264.7605
f 301 302 303
v 2775.1865 -151.7696 264.7605
v 2769.0196 -149.8751 264.7632
v 2774.9544 -147.6720 264.7607
f 304 305 306
v 2768.3976 -152.1864 271.7382
v 2769.1646 -152.1634 271.7369
v 2768.2917 -149.8882 271.8903
f 307 308 309
v 2769.1646 -152.1634 271.7369
v 2769.0227 -149.8751 271.8890
v 2768.2917 -149.8882 271.8903
f 310 311 312
v 2768.9168 -148.0179 272.0121
v 2769.0227 -149.8751 271.8890
v 2774.9576 -147.6720 272.0134
f 313 314 315
v 2769.1643 -152.2635 271.7299
v 2775.1896 -151.7695 271.7423
v 2769.1646 -152.1634 271.7369
f 316 317 318
v 2775.1896 -151.7695 271.7423
v 2774.9576 -147.6720 272.0134
v 2769.0227 -149.8751 271.8890
f 319 320 321
v 2769.1646 -152.1634 271.7369
v 2775.1896 -151.7695 271.7423
v 2769.0227 -149.8751 271.8890
f 322 323 324
v 2774.9544 -147.6720 264.7607
v 2774.9576 -147.6720 272.0134
v 2775.1896 -151.7695 271.7423
f 325 326 327
v 2774.9576 -147.6720 272.0134
v 2774.9544 -147.6720 264.7607
v 2768.9136 -148.0178 264.7633
f 328 329 330
v 2774.9576 -147.6720 272.0134
v 2768.9136 -148.0178 264.7633
v 2768.9168 -148.0179 272.0121
f 331 332 333
v 2768.9136 -148.0178 264.7633
v 2769.0196 -149.8751 264.7632
v 2769.0227 -149.8751 271.8890
f 334 335 336
v 2769.0196 -149.8751 264.7632
v 2768.2886 -149.8881 264.7635
v 2768.2917 -149.8882 271.8903
f 337 338 339
v 2769.0196 -149.8751 264.7632
v 2768.2917 -149.8882 271.8903
v 2769.0227 -149.8751 271.8890
f 340 341 342
v 2768.3944 -152.1864 264.7634
v 2768.3976 -152.1864 271.7382
v 2768.2886 -149.8881 264.7635
f 343 344 345
v 2769.1615 -152.1635 264.7631
v 2769.1612 -152.2634 264.7631
v 2769.1646 -152.1634 271.7369
f 346 347 348
v 2769.1612 -152.2634 264.7631
v 2769.1643 -152.2635 271.7299
v 2769.1646 -152.1634 271.7369
f 349 350 351
v 2775.1865 -151.7696 264.7605
v 2775.1896 -151.7695 271.7423
v 2769.1612 -152.2634 264.7631
f 352 353 354
v 2774.9544 -147.6720 264.7607
v 2775.1896 -151.7695 271.7423
v 2775.1865 -151.7696 264.7605
f 355 356 357
v 2768.9136 -148.0178 264.7633
v 2769.0227 -149.8751 271.8890
v 2768.9168 -148.0179 272.0121
f 358 359 360
v 2768.3976 -152.1864 271.7382
v 2768.2917 -149.8882 271.8903
v 2768.2886 -149.8881 264.7635
f 361 362 363
v 2768.3944 -152.1864 264.7634
v 2769.1615 -152.1635 264.7631
v 2769.1646 -152.1634 271.7369
f 364 365 366
v 2768.3944 -152.1864 264.7634
v 2769.1646 -152.1634 271.7369
v 2768.3976 -152.1864 271.7382
f 367 368 369
v 2775.1896 -151.7695 271.7423
v 2769.1643 -152.2635 271.7299
v 2769.1612 -152.2634 264.7631
f 370 371 372

g building_ID_4769ED32-E6C2-4F94-A1B7-15AE1B20E6C3
v 2713.0073 -217.6574 274.8479
v 2719.5388 -288.0490 274.8421
v 2732.1508 -286.8788 274.8368
f 373 374 375
v 2732.1508 -286.8788 274.8368
v 2725.6183 -216.4862 274.8424
v 2713.0073 -217.6574 274.8479
f 376 377 378
v 2747.1244 -214.4878 279.3262
v 2725.6197 -216.4852 277.9603
v 2743.0329 -234.4126 278.9501
f 379 380 381
v 2747.1244 -214.4878 279.3262
v 2743.0329 -234.4126 278.9501
v 2748.8957 -233.8043 279.3236
f 382 383 384
v 2749.2786 -233.8323 279.3475
v 2748.8957 -233.8043 279.3236
v 2743.0329 -234.4126 278.9501
f 385 386 387
v 2743.0329 -234.4126 278.9501
v 2725.6197 -216.4852 277.9603
v 2745.9643 -266.0101 278.9476
f 388 389 390
v 2749.2728 -233.7692 279.3475
v 2748.8957 -233.8043 279.3236
v 2749.2786 -233.8323 279.3475
f 391 392 393
v 2751.8191 -265.7487 279.3181
v 2745.9643 -266.0101 278.9476
v 2752.8937 -277.1095 279.3181
f 394 395 396
v 2745.9643 -266.0101 278.9476
v 2753.6289 -284.8874 279.3184
v 2752.8937 -277.1095 279.3181
f 397 398 399
v 2732.1522 -286.8789 277.9547
v 2753.6289 -284.8874 279.3184
v 2745.9643 -266.0101 278.9476
f 400 401 402
v 2732.1522 -286.8789 277.9547
v 2745.9643 -266.0101 278.9476
v 2725.6197 -216.4852 277.9603
f 403 404 405
v 2752.2099 -265.4298 279.3450
v 2751.8191 -265.7487 279.3181
v 2752.2362 -265.7088 279.3450
f 406 407 408
v 2751.8191 -265.7487 279.3181
v 2752.2099 -265.4298 279.3450
v 2745.9643 -266.0101 278.9476
f 409 410 411
v 2752.8937 -277.1095 279.3181
v 2751.8132 -265.7485 265.9025
v 2751.8191 -265.7487 279.3181
f 412 413 414
v 2752.8937 -277.1095 279.3181
v 2753.6274 -284.8873 275.9615
v 2751.8132 -265.7485 265.9025
f 415 416 417
v 2753.6244 -284.8872 269.2558
v 2751.8132 -265.7485 265.9025
v 2753.6274 -284.8873 275.9615
f 418 419 420
v 2753.6244 -284.8872 269.2558
v 2753.6229 -284.8871 265.9009
v 2751.8132 -265.7485 265.9025
f 421 422 423
v 2752.2303 -265.7086 265.9024
v 2752.2362 -265.7088 279.3450
v 2751.8132 -265.7485 265.9025
f 424 425 426
v 2752.2362 -265.7088 279.3450
v 2751.8191 -265.7487 279.3181
v 2751.8132 -265.7485 265.9025
f 427 428 429
v 2749.2668 -233.7691 265.9050
v 2749.2728 -233.7692 279.3475
v 2749.2727 -233.8321 265.9050
f 430 431 432
v 2749.2786 -233.8323 279.3475
v 2749.2727 -233.8321 265.9050
v 2749.2728 -233.7692 279.3475
f 433 434 435
v 2749.2668 -233.7691 265.9050
v 2748.8897 -233.8041 265.9051
v 2748.8957 -233.8043 279.3236
f 436 437 438
v 2747.1214 -214.4877 272.6164
v 2747.1229 -214.4877 275.9713
v 2748.8957 -233.8043 279.3236
f 439 440 441
v 2747.1184 -214.4876 265.9066
v 2747.1214 -214.4877 272.6164
v 2748.8957 -233.8043 279.3236
f 442 443 444
v 2748.8897 -233.8041 265.9051
v 2747.1184 -214.4876 265.9066
v 2748.8957 -233.8043 279.3236
f 445 446 447
v 2732.1508 -286.8788 274.8368
v 2732.1522 -286.8789 277.9547
v 2725.6183 -216.4862 274.8424
f 448 449 450
v 2697.0930 -236.8856 279.3317
v 2713.0087 -217.6574 277.9658
v 2695.4551 -219.2884 279.3330
f 451 452 453
v 2698.7309 -254.4767 279.3303
v 2713.0087 -217.6574 277.9658
v 2697.0930 -236.8856 279.3317
f 454 455 456
v 2719.5402 -288.0491 277.9600
v 2698.7309 -254.4767 279.3303
v 2700.0480 -268.6371 279.3281
f 457 458 459
v 2700.0480 -268.6371 279.3281
v 2702.0066 -289.6762 279.3263
v 2719.5402 -288.0491 277.9600
f 460 461 462
v 2713.0087 -217.6574 277.9658
v 2698.7309 -254.4767 279.3303
v 2719.5402 -288.0491 277.9600
f 463 464 465
v 2698.9302 -256.6821 265.9256
v 2702.0008 -289.6759 265.9229
v 2700.0480 -268.6371 279.3281
f 466 467 468
v 2702.0008 -289.6759 265.9229
v 2702.0037 -289.6760 272.6245
v 2700.0480 -268.6371 279.3281
f 469 470 471
v 2698.7309 -254.4767 279.3303
v 2697.0930 -236.8856 279.3317
v 2695.4537 -219.2884 275.9821
f 472 473 474
v 2700.0480 -268.6371 279.3281
v 2698.7309 -254.4767 279.3303
v 2695.4522 -219.2883 272.6303
f 475 476 477
v 2695.4522 -219.2883 272.6303
v 2695.4493 -219.2883 265.9285
v 2700.0480 -268.6371 279.3281
f 478 479 480
v 2698.9302 -256.6821 265.9256
v 2700.0480 -268.6371 279.3281
v 2695.4493 -219.2883 265.9285
f 481 482 483
v 2713.0073 -217.6574 274.8479
v 2713.0087 -217.6574 277.9658
v 2719.5388 -288.0490 274.8421
f 484 485 486
v 2743.0338 -234.4126 281.0701
v 2745.9652 -266.0102 281.0675
v 2756.5808 -265.0245 281.0630
f 487 488 489
v 2756.5808 -265.0245 281.0630
v 2753.6484 -233.4270 281.0656
v 2743.0338 -234.4126 281.0701
f 490 491 492
v 2753.6417 -233.4268 265.9031
v 2753.6484 -233.4270 281.0656
v 2756.5808 -265.0245 281.0630
f 493 494 495
v 2752.2040 -265.4295 265.9024
v 2752.2099 -265.4298 279.3450
v 2752.2362 -265.7088 279.3450
f 496 497 498
v 2752.2040 -265.4295 265.9024
v 2752.2362 -265.7088 279.3450
v 2752.2303 -265.7086 265.9024
f 499 500 501
v 2756.5740 -265.0243 265.9005
v 2756.5808 -265.0245 281.0630
v 2752.2099 -265.4298 279.3450
f 502 503 504
v 2745.9652 -266.0102 281.0675
v 2752.2099 -265.4298 279.3450
v 2756.5808 -265.0245 281.0630
f 505 506 507
v 2752.2040 -265.4295 265.9024
v 2756.5740 -265.0243 265.9005
v 2752.2099 -265.4298 279.3450
f 508 509 510
v 2745.9652 -266.0102 281.0675
v 2745.9643 -266.0101 278.9476
v 2752.2099 -265.4298 279.3450
f 511 512 513
v 2743.0338 -234.4126 281.0701
v 2749.2786 -233.8323 279.3475
v 2743.0329 -234.4126 278.9501
f 514 515 516
v 2753.6417 -233.4268 265.9031
v 2749.2786 -233.8323 279.3475
v 2753.6484 -233.4270 281.0656
f 517 518 519
v 2743.0338 -234.4126 281.0701
v 2753.6484 -233.4270 281.0656
v 2749.2786 -233.8323 279.3475
f 520 521 522
v 2749.2727 -233.8321 265.9050
v 2749.2786 -233.8323 279.3475
v 2753.6417 -233.4268 265.9031
f 523 524 525
v 2745.9643 -266.0101 278.9476
v 2745.9652 -266.0102 281.0675
v 2743.0338 -234.4126 281.0701
f 526 527 528
v 2732.1508 -286.8788 274.8368
v 2753.6274 -284.8873 275.9615
v 2732.1522 -286.8789 277.9547
f 529 530 531
v 2753.6289 -284.8874 279.3184
v 2732.1522 -286.8789 277.9547
v 2753.6274 -284.8873 275.9615
f 532 533 534
v 2753.6244 -284.8872 269.2558
v 2753.6274 -284.8873 275.9615
v 2732.1508 -286.8788 274.8368
f 535 536 537
v 2734.4034 -286.6696 265.9091
v 2753.6229 -284.8871 265.9009
v 2753.6244 -284.8872 269.2558
f 538 539 540
v 2732.1508 -286.8788 274.8368
v 2734.4034 -286.6696 265.9091
v 2753.6244 -284.8872 269.2558
f 541 542 543
v 2734.4034 -286.6696 265.9091
v 2732.1508 -286.8788 274.8368
v 2719.5388 -288.0490 274.8421
f 544 545 546
v 2734.4034 -286.6696 265.9091
v 2719.5388 -288.0490 274.8421
v 2719.5349 -288.0488 265.9155
f 547 548 549
v 2702.0066 -289.6762 279.3263
v 2719.5388 -288.0490 274.8421
v 2719.5402 -288.0491 277.9600
f 550 551 552
v 2702.0037 -289.6760 272.6245
v 2716.1301 -288.3647 265.9169
v 2719.5349 -288.0488 265.9155
f 553 554 555
v 2716.1301 -288.3647 265.9169
v 2702.0037 -289.6760 272.6245
v 2702.0008 -289.6759 265.9229
f 556 557 558
v 2719.5388 -288.0490 274.8421
v 2702.0037 -289.6760 272.6245
v 2719.5349 -288.0488 265.9155
f 559 560 561
v 2702.0037 -289.6760 272.6245
v 2719.5388 -288.0490 274.8421
v 2702.0066 -289.6762 279.3263
f 562 563 564
v 2713.0087 -217.6574 277.9658
v 2695.4537 -219.2884 275.9821
v 2695.4551 -219.2884 279.3330
f 565 566 567
v 2695.4537 -219.2884 275.9821
v 2713.0087 -217.6574 277.9658
v 2713.0073 -217.6574 274.8479
f 568 569 570
v 2695.4522 -219.2883 272.6303
v 2695.4537 -219.2884 275.9821
v 2713.0073 -217.6574 274.8479
f 571 572 573
v 2709.5896 -217.9741 265.9226
v 2695.4493 -219.2883 265.9285
v 2695.4522 -219.2883 272.6303
f 574 575 576
v 2709.5896 -217.9741 265.9226
v 2695.4522 -219.2883 272.6303
v 2713.0073 -217.6574 274.8479
f 577 578 579
v 2709.5896 -217.9741 265.9226
v 2713.0073 -217.6574 274.8479
v 2725.6144 -216.4861 265.9158
f 580 581 582
v 2747.1229 -214.4877 275.9713
v 2725.6183 -216.4862 274.8424
v 2725.6197 -216.4852 277.9603
f 583 584 585
v 2725.6197 -216.4852 277.9603
v 2747.1244 -214.4878 279.3262
v 2747.1229 -214.4877 275.9713
f 586 587 588
v 2747.1214 -214.4877 272.6164
v 2725.6183 -216.4862 274.8424
v 2747.1229 -214.4877 275.9713
f 589 590 591
v 2730.4485 -216.0370 265.9137
v 2725.6144 -216.4861 265.9158
v 2725.6183 -216.4862 274.8424
f 592 593 594
v 2747.1214 -214.4877 272.6164
v 2747.1184 -214.4876 265.9066
v 2730.4485 -216.0370 265.9137
f 595 596 597
v 2730.4485 -216.0370 265.9137
v 2725.6183 -216.4862 274.8424
v 2747.1214 -214.4877 272.6164
f 598 599 600
v 2713.0073 -217.6574 274.8479
v 2725.6183 -216.4862 274.8424
v 2725.6144 -216.4861 265.9158
f 601 602 603
v 2749.2727 -233.8321 265.9050
v 2748.8897 -233.8041 265.9051
v 2749.2668 -233.7691 265.9050
f 604 605 606
v 2752.2040 -265.4295 265.9024
v 2748.8897 -233.8041 265.9051
v 2749.2727 -233.8321 265.9050
f 607 608 609
v 2747.1184 -214.4876 265.9066
v 2748.8897 -233.8041 265.9051
v 2730.4485 -216.0370 265.9137
f 610 611 612
v 2725.6144 -216.4861 265.9158
v 2698.9302 -256.6821 265.9256
v 2709.5896 -217.9741 265.9226
f 613 614 615
v 2748.8897 -233.8041 265.9051
v 2725.6144 -216.4861 265.9158
v 2730.4485 -216.0370 265.9137
f 616 617 618
v 2709.5896 -217.9741 265.9226
v 2698.9302 -256.6821 265.9256
v 2695.4493 -219.2883 265.9285
f 619 620 621
v 2748.8897 -233.8041 265.9051
v 2698.9302 -256.6821 265.9256
v 2725.6144 -216.4861 265.9158
f 622 623 624
v 2756.5740 -265.0243 265.9005
v 2749.2727 -233.8321 265.9050
v 2753.6417 -233.4268 265.9031
f 625 626 627
v 2752.2040 -265.4295 265.9024
v 2751.8132 -265.7485 265.9025
v 2748.8897 -233.8041 265.9051
f 628 629 630
v 2751.8132 -265.7485 265.9025
v 2752.2040 -265.4295 265.9024
v 2752.2303 -265.7086 265.9024
f 631 632 633
v 2753.6229 -284.8871 265.9009
v 2734.4034 -286.6696 265.9091
v 2751.8132 -265.7485 265.9025
f 634 635 636
v 2698.9302 -256.6821 265.9256
v 2751.8132 -265.7485 265.9025
v 2734.4034 -286.6696 265.9091
f 637 638 639
v 2751.8132 -265.7485 265.9025
v 2698.9302 -256.6821 265.9256
v 2748.8897 -233.8041 265.9051
f 640 641 642
v 2719.5349 -288.0488 265.9155
v 2698.9302 -256.6821 265.9256
v 2734.4034 -286.6696 265.9091
f 643 644 645
v 2698.9302 -256.6821 265.9256
v 2719.5349 -288.0488 265.9155
v 2716.1301 -288.3647 265.9169
f 646 647 648
v 2702.0008 -289.6759 265.9229
v 2698.9302 -256.6821 265.9256
v 2716.1301 -288.3647 265.9169
f 649 650 651
v 2756.5740 -265.0243 265.9005
v 2752.2040 -265.4295 265.9024
v 2749.2727 -233.8321 265.9050
f 652 653 654
v 2752.8937 -277.1095 279.3181
v 2753.6289 -284.8874 279.3184
v 2753.6274 -284.8873 275.9615
f 655 656 657
v 2749.2728 -233.7692 279.3475
v 2749.2668 -233.7691 265.9050
v 2748.8957 -233.8043 279.3236
f 658 659 660
v 2747.1229 -214.4877 275.9713
v 2747.1244 -214.4878 279.3262
v 2748.8957 -233.8043 279.3236
f 661 662 663
v 2732.1522 -286.8789 277.9547
v 2725.6197 -216.4852 277.9603
v 2725.6183 -216.4862 274.8424
f 664 665 666
v 2700.0480 -268.6371 279.3281
v 2702.0037 -289.6760 272.6245
v 2702.0066 -289.6762 279.3263
f 667 668 669
v 2697.0930 -236.8856 279.3317
v 2695.4551 -219.2884 279.3330
v 2695.4537 -219.2884 275.9821
f 670 671 672
v 2698.7309 -254.4767 279.3303
v 2695.4537 -219.2884 275.9821
v 2695.4522 -219.2883 272.6303
f 673 674 675
v 2713.0087 -217.6574 277.9658
v 2719.5402 -288.0491 277.9600
v 2719.5388 -288.0490 274.8421
f 676 677 678
v 2753.6417 -233.4268 265.9031
v 2756.5808 -265.0245 281.0630
v 2756.5740 -265.0243 265.9005
f 679 680 681
v 2745.9643 -266.0101 278.9476
v 2743.0338 -234.4126 281.0701
v 2743.0329 -234.4126 278.9501
f 682 683 684

g building_ID_C64D50DF-0D9E-496A-99DA-055CF395DF9D
v 2836.1788 -226.7428 264.4752
v 2821.4346 -249.7171 264.4808
v 2821.1672 -227.0476 264.4818
f 685 686 687
v 2821.4765 -251.9881 264.4807
v 2821.4346 -249.7171 264.4808
v 2836.6560 -251.7167 264.4740
f 688 689 690
v 2836.1788 -226.7428 264.4752
v 2836.6560 -251.7167 264.4740
v 2821.4346 -249.7171 264.4808
f 691 692 693
v 2836.1823 -226.7429 272.2109
v 2821.1707 -227.0477 272.2176
v 2821.4381 -249.7171 272.2165
f 694 695 696
v 2821.4381 -249.7171 272.2165
v 2836.6595 -251.7169 272.2097
v 2836.1823 -226.7429 272.2109
f 697 698 699
v 2821.4800 -251.9882 272.2164
v 2836.6595 -251.7169 272.2097
v 2821.4381 -249.7171 272.2165
f 700 701 702
v 2836.1788 -226.7428 264.4752
v 2836.1823 -226.7429 272.2109
v 2836.6595 -251.7169 272.2097
f 703 704 705
v 2821.1672 -227.0476 264.4818
v 2821.1707 -227.0477 272.2176
v 2836.1823 -226.7429 272.2109
f 706 707 708
v 2821.4346 -249.7171 264.4808
v 2821.4381 -249.7171 272.2165
v 2821.1707 -227.0477 272.2176
f 709 710 711
v 2821.4765 -251.9881 264.4807
v 2821.4800 -251.9882 272.2164
v 2821.4381 -249.7171 272.2165
f 712 713 714
v 2836.6560 -251.7167 264.4740
v 2836.6595 -251.7169 272.2097
v 2821.4800 -251.9882 272.2164
f 715 716 717
v 2836.1788 -226.7428 264.4752
v 2836.6595 -251.7169 272.2097
v 2836.6560 -251.7167 264.4740
f 718 719 720
v 2821.1672 -227.0476 264.4818
v 2836.1823 -226.7429 272.2109
v 2836.1788 -226.7428 264.4752
f 721 722 723
v 2821.4346 -249.7171 264.4808
v 2821.1707 -227.0477 272.2176
v 2821.1672 -227.0476 264.4818
f 724 725 726
v 2821.4765 -251.9881 264.4807
v 2821.4381 -249.7171 272.2165
v 2821.4346 -249.7171 264.4808
f 727 728 729
v 2836.6560 -251.7167 264.4740
v 2821.4800 -251.9882 272.2164
v 2821.4765 -251.9881 264.4807
f 730 731 732

g building_ID_D914ABD9-3CA2-4776-A233-F24E38E59DCD
v 2935.6457 -341.0378 277.5063
v 2936.0988 -364.9078 277.5048
v 2943.5022 -364.7677 277.5013
f 733 734 735
v 2935.0112 -307.6225 277.5084
v 2935.6457 -341.0378 277.5063
v 2943.5022 -364.7677 277.5013
f 736 737 738
v 2943.5022 -364.7677 277.5013
v 2942.5537 -314.8696 277.5045
v 2935.0112 -307.6225 277.5084
f 739 740 741
v 2951.7379 -307.3044 277.5006
v 2935.0112 -307.6225 277.5084
v 2942.5537 -314.8696 277.5045
f 742 743 744
v 2942.5537 -314.8696 277.5045
v 3065.2595 -312.5371 277.4467
v 2959.6112 -307.1544 277.4970
f 745 746 747
v 3065.1183 -305.1497 277.4472
v 2959.6112 -307.1544 277.4970
v 3065.2595 -312.5371 277.4467
f 748 749 750
v 2942.5537 -314.8696 277.5045
v 2959.6112 -307.1544 277.4970
v 2951.7379 -307.3044 277.5006
f 751 752 753
v 2828.0740 -340.9981 283.9589
v 2861.3103 -340.3661 283.9440
v 2869.0302 -307.8821 283.9772
f 754 755 756
v 2869.0302 -307.8821 283.9772
v 2827.3156 -301.1725 284.0032
v 2828.0740 -340.9981 283.9589
f 757 758 759
v 2827.3156 -301.1725 284.0032
v 2869.0302 -307.8821 283.9772
v 2860.9940 -300.5327 283.9882
f 760 761 762
v 2868.6041 -285.4902 284.0015
v 2860.7108 -285.6400 284.0051
v 2860.9940 -300.5327 283.9882
f 763 764 765
v 2935.6163 -339.3540 283.9102
v 2861.3103 -340.3661 283.9440
v 2861.3183 -340.7651 283.9440
f 766 767 768
v 2929.9870 -307.7182 283.9474
v 2925.8349 -307.7971 283.9493
v 2935.6163 -339.3540 283.9102
f 769 770 771
v 2861.3103 -340.3661 283.9440
v 2925.8349 -307.7971 283.9493
v 2869.0302 -307.8821 283.9772
f 772 773 774
v 2935.0142 -307.6227 283.9461
v 2929.9870 -307.7182 283.9474
v 2935.6163 -339.3540 283.9102
f 775 776 777
v 2860.9940 -300.5327 283.9882
v 2869.0302 -307.8821 283.9772
v 2868.6041 -285.4902 284.0015
f 778 779 780
v 2925.8349 -307.7971 283.9493
v 2925.8155 -306.8031 283.9514
v 2869.0302 -307.8821 283.9772
f 781 782 783
v 2935.6163 -339.3540 283.9102
v 2925.8349 -307.7971 283.9493
v 2861.3103 -340.3661 283.9440
f 784 785 786
v 2829.7316 -267.5722 273.1460
v 2829.7277 -267.5721 264.4634
v 2826.6774 -267.6432 284.0411
f 787 788 789
v 2826.6774 -267.6432 284.0411
v 2829.7277 -267.5721 264.4634
v 2826.6741 -267.6430 276.7003
f 790 791 792
v 2868.5951 -285.4898 264.4452
v 2868.6041 -285.4902 284.0015
v 2869.0302 -307.8821 283.9772
f 793 794 795
v 2860.7018 -285.6397 264.4488
v 2860.7108 -285.6400 284.0051
v 2868.6041 -285.4902 284.0015
f 796 797 798
v 2869.0212 -307.8817 264.4439
v 2869.0302 -307.8821 283.9772
v 2925.8155 -306.8031 283.9514
f 799 800 801
v 2968.2638 -301.9601 300.1624
v 2972.4209 -304.8812 300.1604
v 2972.3639 -301.8821 300.1605
f 802 803 804
v 2972.4209 -304.8812 300.1604
v 2968.2638 -301.9601 300.1624
v 2968.3207 -304.9593 300.1623
f 805 806 807
v 2972.4129 -304.8808 283.4130
v 2972.4209 -304.8812 300.1604
v 2968.3207 -304.9593 300.1623
f 808 809 810
v 2972.3560 -301.8817 283.4131
v 2972.3639 -301.8821 300.1605
v 2972.4209 -304.8812 300.1604
f 811 812 813
v 2968.2558 -301.9597 283.4151
v 2968.2638 -301.9601 300.1624
v 2972.3639 -301.8821 300.1605
f 814 815 816
v 2968.3127 -304.9589 283.4149
v 2968.3207 -304.9593 300.1623
v 2968.2638 -301.9601 300.1624
f 817 818 819
v 3090.1443 -320.9759 292.9097
v 3103.4189 -320.7235 292.9033
v 3089.9893 -312.7756 292.8812
f 820 821 822
v 3102.7771 -286.9820 292.7853
v 3089.9893 -312.7756 292.8812
v 3103.4189 -320.7235 292.9033
f 823 824 825
v 3073.4809 -311.1045 292.8824
v 3073.5186 -313.0886 292.8893
v 3089.9893 -312.7756 292.8812
f 826 827 828
v 3089.6677 -295.3979 292.8203
v 3102.7771 -286.9820 292.7853
v 3089.5126 -287.2345 292.7918
f 829 830 831
v 3089.6677 -295.3979 292.8203
v 3073.4809 -311.1045 292.8824
v 3089.9893 -312.7756 292.8812
f 832 833 834
v 3073.4809 -311.1045 292.8824
v 3089.6677 -295.3979 292.8203
v 3064.9506 -295.9178 292.8322
f 835 836 837
v 3065.2425 -311.2614 292.8863
v 3073.4809 -311.1045 292.8824
v 3064.9506 -295.9178 292.8322
f 838 839 840
v 3102.7771 -286.9820 292.7853
v 3089.6677 -295.3979 292.8203
v 3089.9893 -312.7756 292.8812
f 841 842 843
v 3089.5101 -287.2344 287.9060
v 3089.5126 -287.2345 292.7918
v 3102.7747 -286.9820 287.8994
f 844 845 846
v 3089.6653 -295.3977 287.8914
v 3089.6677 -295.3979 292.8203
v 3089.5126 -287.2345 292.7918
f 847 848 849
v 3064.9460 -295.9175 283.3695
v 3064.9506 -295.9178 292.8322
v 3073.1075 -295.7465 287.8995
f 850 851 852
v 3089.6677 -295.3979 292.8203
v 3073.1075 -295.7465 287.8995
v 3064.9506 -295.9178 292.8322
f 853 854 855
v 3073.1053 -295.7464 283.3656
v 3064.9460 -295.9175 283.3695
v 3073.1075 -295.7465 287.8995
f 856 857 858
v 3089.6677 -295.3979 292.8203
v 3089.6653 -295.3977 287.8914
v 3073.1075 -295.7465 287.8995
f 859 860 861
v 3090.1418 -320.9758 287.8479
v 3090.1443 -320.9759 292.9097
v 3089.9893 -312.7756 292.8812
f 862 863 864
v 3103.4164 -320.7234 287.8415
v 3103.4189 -320.7235 292.9033
v 3090.1443 -320.9759 292.9097
f 865 866 867
v 3102.7747 -286.9820 287.8994
v 3102.7771 -286.9820 292.7853
v 3103.4164 -320.7234 287.8415
f 868 869 870
v 3073.4809 -311.1045 292.8824
v 3073.3994 -311.1061 287.8735
v 3073.4785 -311.1043 287.8735
f 871 872 873
v 3065.2383 -311.2612 284.3176
v 3073.3994 -311.1061 287.8735
v 3065.2425 -311.2614 292.8863
f 874 875 876
v 3073.4809 -311.1045 292.8824
v 3065.2425 -311.2614 292.8863
v 3073.3994 -311.1061 287.8735
f 877 878 879
v 3073.3977 -311.1061 284.3137
v 3073.3994 -311.1061 287.8735
v 3065.2383 -311.2612 284.3176
f 880 881 882
v 3073.5161 -313.0884 287.8704
v 3073.5186 -313.0886 292.8893
v 3073.4809 -311.1045 292.8824
f 883 884 885
v 3089.9868 -312.7755 287.8624
v 3089.9893 -312.7756 292.8812
v 3073.5186 -313.0886 292.8893
f 886 887 888
v 2860.7094 -285.5142 288.8549
v 2826.9934 -284.1419 288.8700
v 2827.3178 -301.1726 288.8690
f 889 890 891
v 2860.6698 -283.5020 288.8550
v 2826.9934 -284.1419 288.8700
v 2860.7094 -285.5142 288.8549
f 892 893 894
v 2860.9962 -300.5328 288.8540
v 2860.7094 -285.5142 288.8549
v 2827.3178 -301.1726 288.8690
f 895 896 897
v 2860.7108 -285.6400 284.0051
v 2860.6982 -285.5136 264.4488
v 2860.7094 -285.5142 288.8549
f 898 899 900
v 2860.9940 -300.5327 283.9882
v 2860.7108 -285.6400 284.0051
v 2860.9962 -300.5328 288.8540
f 901 902 903
v 2860.7094 -285.5142 288.8549
v 2860.9962 -300.5328 288.8540
v 2860.7108 -285.6400 284.0051
f 904 905 906
v 2860.6982 -285.5136 264.4488
v 2860.7108 -285.6400 284.0051
v 2860.7018 -285.6397 264.4488
f 907 908 909
v 2826.6774 -267.6432 284.0411
v 2833.2492 -268.0367 284.0372
v 2829.7466 -267.5724 284.0397
f 910 911 912
v 2833.2492 -268.0367 284.0372
v 2826.6774 -267.6432 284.0411
v 2826.9912 -284.1418 284.0221
f 913 914 915
v 2833.2492 -268.0367 284.0372
v 2826.9912 -284.1418 284.0221
v 2839.4295 -267.9193 284.0343
f 916 917 918
v 2860.6646 -283.5019 284.0072
v 2839.4295 -267.9193 284.0343
v 2826.9912 -284.1418 284.0221
f 919 920 921
v 2860.3178 -266.9922 284.0260
v 2839.4295 -267.9193 284.0343
v 2860.6646 -283.5019 284.0072
f 922 923 924
v 2839.4295 -267.9193 284.0343
v 2841.9190 -267.3389 284.0342
v 2839.4189 -267.3873 284.0353
f 925 926 927
v 2839.4295 -267.9193 284.0343
v 2860.3178 -266.9922 284.0260
v 2841.9190 -267.3389 284.0342
f 928 929 930
v 2829.7466 -267.5724 284.0397
v 2833.2492 -268.0367 284.0372
v 2833.2397 -267.5057 284.0382
f 931 932 933
v 2860.9940 -300.5327 283.9882
v 2860.9962 -300.5328 288.8540
v 2827.3156 -301.1725 284.0032
f 934 935 936
v 2826.9912 -284.1418 284.0221
v 2826.9934 -284.1419 288.8700
v 2860.6646 -283.5019 284.0072
f 937 938 939
v 2950.8429 -273.4266 295.1931
v 2929.3480 -273.8351 295.2030
v 2951.3109 -298.0796 295.1917
f 940 941 942
v 2929.9923 -307.7185 295.2010
v 2951.3109 -298.0796 295.1917
v 2929.3480 -273.8351 295.2030
f 943 944 945
v 2959.4432 -297.9254 295.1879
v 2951.3109 -298.0796 295.1917
v 2959.6196 -307.1548 295.1874
f 946 947 948
v 2929.9923 -307.7185 295.2010
v 2959.6196 -307.1548 295.1874
v 2951.3109 -298.0796 295.1917
f 949 950 951
v 2929.3452 -273.8350 289.2032
v 2929.3480 -273.8351 295.2030
v 2950.8429 -273.4266 295.1931
f 952 953 954
v 2929.9895 -307.7183 289.2012
v 2929.9923 -307.7185 295.2010
v 2929.3480 -273.8351 295.2030
f 955 956 957
v 2951.3081 -298.0796 289.1919
v 2951.3109 -298.0796 295.1917
v 2954.2382 -298.0244 289.1905
f 958 959 960
v 2959.4432 -297.9254 295.1879
v 2954.2382 -298.0244 289.1905
v 2951.3109 -298.0796 295.1917
f 961 962 963
v 2954.2355 -298.0242 283.4217
v 2954.2382 -298.0244 289.1905
v 2959.4377 -297.9252 283.4193
f 964 965 966
v 2959.4432 -297.9254 295.1879
v 2959.4377 -297.9252 283.4193
v 2954.2382 -298.0244 289.1905
f 967 968 969
v 2950.8401 -273.4265 289.1933
v 2950.8429 -273.4266 295.1931
v 2951.3109 -298.0796 295.1917
f 970 971 972
v 2925.3887 -284.6452 283.8307
v 2925.3913 -284.6453 289.2045
v 2925.3870 -284.5452 283.8307
f 973 974 975
v 2924.7625 -249.4309 289.2064
v 2925.3870 -284.5452 283.8307
v 2925.3913 -284.6453 289.2045
f 976 977 978
v 2925.3779 -284.5448 264.4194
v 2925.3870 -284.5452 283.8307
v 2924.7509 -249.4306 264.4212
f 979 980 981
v 2925.5765 -294.2597 289.2040
v 2925.8373 -307.7973 289.2032
v 2929.9895 -307.7183 289.2012
f 982 983 984
v 2929.9895 -307.7183 289.2012
v 2929.3452 -273.8350 289.2032
v 2925.5765 -294.2597 289.2040
f 985 986 987
v 2950.8401 -273.4265 289.1933
v 2951.3081 -298.0796 289.1919
v 2954.2382 -298.0244 289.1905
f 988 989 990
v 2929.3452 -273.8350 289.2032
v 2950.8401 -273.4265 289.1933
v 2953.3037 -248.8833 289.1932
f 991 992 993
v 2954.2382 -298.0244 289.1905
v 2953.3037 -248.8833 289.1932
v 2950.8401 -273.4265 289.1933
f 994 995 996
v 2924.7625 -249.4309 289.2064
v 2925.3913 -284.6453 289.2045
v 2929.3452 -273.8350 289.2032
f 997 998 999
v 2929.3452 -273.8350 289.2032
v 2925.3913 -284.6453 289.2045
v 2925.5765 -294.2597 289.2040
f 1000 1001 1002
v 2953.3037 -248.8833 289.1932
v 2924.7625 -249.4309 289.2064
v 2929.3452 -273.8350 289.2032
f 1003 1004 1005
v 2953.3010 -248.8832 283.4244
v 2953.3037 -248.8833 289.1932
v 2954.2382 -298.0244 289.1905
f 1006 1007 1008
v 2900.2810 -262.1959 264.4318
v 2900.2901 -262.1963 283.8432
v 2917.6198 -261.8697 283.8352
f 1009 1010 1011
v 2900.9071 -294.6752 264.4301
v 2900.9162 -294.6755 283.8414
v 2900.2901 -262.1963 283.8432
f 1012 1013 1014
v 2925.5609 -294.2591 264.4189
v 2925.5700 -294.2595 283.8302
v 2900.9162 -294.6755 283.8414
f 1015 1016 1017
v 2925.5626 -294.3722 264.4189
v 2925.5717 -294.3726 283.8302
v 2925.5700 -294.2595 283.8302
f 1018 1019 1020
v 2925.3736 -284.6447 264.4194
v 2925.3828 -284.6452 283.8307
v 2925.3810 -284.5452 283.8307
f 1021 1022 1023
v 2918.0824 -284.7642 264.4227
v 2918.0915 -284.7647 283.8340
v 2925.3828 -284.6452 283.8307
f 1024 1025 1026
v 2917.6107 -261.8693 264.4239
v 2917.6198 -261.8697 283.8352
v 2918.0915 -284.7647 283.8340
f 1027 1028 1029
v 2917.6198 -261.8697 283.8352
v 2900.2901 -262.1963 283.8432
v 2918.0915 -284.7647 283.8340
f 1030 1031 1032
v 2900.9162 -294.6755 283.8414
v 2918.0915 -284.7647 283.8340
v 2900.2901 -262.1963 283.8432
f 1033 1034 1035
v 2925.3828 -284.6452 283.8307
v 2925.3870 -284.5452 283.8307
v 2925.3810 -284.5452 283.8307
f 1036 1037 1038
v 2925.3887 -284.6452 283.8307
v 2925.3870 -284.5452 283.8307
v 2925.3828 -284.6452 283.8307
f 1039 1040 1041
v 2925.3828 -284.6452 283.8307
v 2918.0915 -284.7647 283.8340
v 2925.5700 -294.2595 283.8302
f 1042 1043 1044
v 2900.9162 -294.6755 283.8414
v 2925.5700 -294.2595 283.8302
v 2918.0915 -284.7647 283.8340
f 1045 1046 1047
v 2925.5757 -294.3726 283.8302
v 2925.5700 -294.2595 283.8302
v 2925.5717 -294.3726 283.8302
f 1048 1049 1050
v 2925.3828 -284.6452 283.8307
v 2925.5700 -294.2595 283.8302
v 2925.3887 -284.6452 283.8307
f 1051 1052 1053
v 2925.3887 -284.6452 283.8307
v 2925.5700 -294.2595 283.8302
v 2925.5757 -294.3726 283.8302
f 1054 1055 1056
v 2925.5666 -294.3722 264.4189
v 2925.5757 -294.3726 283.8302
v 2925.5717 -294.3726 283.8302
f 1057 1058 1059
v 2925.3719 -284.5448 264.4194
v 2925.3810 -284.5452 283.8307
v 2925.3870 -284.5452 283.8307
f 1060 1061 1062
v 2959.4377 -297.9252 283.4193
v 2959.4432 -297.9254 295.1879
v 2959.6196 -307.1548 295.1874
f 1063 1064 1065
v 2828.5691 -366.9204 289.4239
v 2860.8187 -340.7749 289.4110
v 2828.0754 -340.9983 289.4257
f 1066 1067 1068
v 2861.3034 -366.3100 289.4094
v 2860.8187 -340.7749 289.4110
v 2828.5691 -366.9204 289.4239
f 1069 1070 1071
v 2861.3128 -340.3663 289.4108
v 2860.8187 -340.7749 289.4110
v 2861.3208 -340.7653 289.4108
f 1072 1073 1074
v 2828.0754 -340.9983 289.4257
v 2860.8187 -340.7749 289.4110
v 2861.3128 -340.3663 289.4108
f 1075 1076 1077
v 2927.7812 -356.8140 289.5097
v 2935.6189 -339.3541 289.5070
v 2927.6077 -347.6807 289.5103
f 1078 1079 1080
v 2869.3588 -357.9247 289.5362
v 2902.2971 -365.5547 289.5208
v 2927.7812 -356.8140 289.5097
f 1081 1082 1083
v 2936.1045 -364.9132 289.5053
v 2935.6189 -339.3541 289.5070
v 2927.7812 -356.8140 289.5097
f 1084 1085 1086
v 2927.7812 -356.8140 289.5097
v 2911.4735 -365.3763 289.5167
v 2936.1045 -364.9132 289.5053
f 1087 1088 1089
v 2927.7812 -356.8140 289.5097
v 2902.2971 -365.5547 289.5208
v 2911.4735 -365.3763 289.5167
f 1090 1091 1092
v 2869.1853 -348.7912 289.5368
v 2927.6077 -347.6807 289.5103
v 2935.6189 -339.3541 289.5070
f 1093 1094 1095
v 2860.8188 -340.7749 289.5410
v 2869.3588 -357.9247 289.5362
v 2869.1853 -348.7912 289.5368
f 1096 1097 1098
v 2902.2971 -365.5547 289.5208
v 2869.3588 -357.9247 289.5362
v 2869.5147 -366.1779 289.5356
f 1099 1100 1101
v 2935.6189 -339.3541 289.5070
v 2860.8188 -340.7749 289.5410
v 2869.1853 -348.7912 289.5368
f 1102 1103 1104
v 2861.3034 -366.3091 289.5394
v 2869.3588 -357.9247 289.5362
v 2860.8188 -340.7749 289.5410
f 1105 1106 1107
v 2869.3588 -357.9247 289.5362
v 2861.3034 -366.3091 289.5394
v 2869.5138 -366.1560 289.5356
f 1108 1109 1110
v 2869.5138 -366.1560 289.5356
v 2869.5147 -366.1779 289.5356
v 2869.3588 -357.9247 289.5362
f 1111 1112 1113
v 2869.5032 -366.1772 264.4405
v 2869.5147 -366.1779 289.5356
v 2869.5138 -366.1560 289.5356
f 1114 1115 1116
v 2861.3034 -366.3100 289.4094
v 2861.3034 -366.3091 289.5394
v 2860.8187 -340.7749 289.4110
f 1117 1118 1119
v 2869.3599 -357.9247 291.7761
v 2927.7823 -356.8141 291.7496
v 2869.1863 -348.7914 291.7767
f 1120 1121 1122
v 2927.7812 -356.8140 289.5097
v 2927.7823 -356.8141 291.7496
v 2869.3599 -357.9247 291.7761
f 1123 1124 1125
v 2927.6077 -347.6807 289.5103
v 2927.6088 -347.6807 291.7502
v 2927.7823 -356.8141 291.7496
f 1126 1127 1128
v 2869.1853 -348.7912 289.5368
v 2869.1863 -348.7914 291.7767
v 2927.6088 -347.6807 291.7502
f 1129 1130 1131
v 2869.3588 -357.9247 289.5362
v 2869.3599 -357.9247 291.7761
v 2869.1863 -348.7914 291.7767
f 1132 1133 1134
v 2861.3103 -340.3661 283.9440
v 2861.3128 -340.3663 289.4108
v 2861.3208 -340.7653 289.4108
f 1135 1136 1137
v 2828.0740 -340.9981 283.9589
v 2828.0754 -340.9983 289.4257
v 2861.3128 -340.3663 289.4108
f 1138 1139 1140
v 2860.8188 -340.7749 289.5410
v 2861.3208 -340.7653 289.4108
v 2860.8187 -340.7749 289.4110
f 1141 1142 1143
v 2935.6163 -339.3540 283.9102
v 2861.3208 -340.7653 289.4108
v 2935.6189 -339.3541 289.5070
f 1144 1145 1146
v 2860.8188 -340.7749 289.5410
v 2935.6189 -339.3541 289.5070
v 2861.3208 -340.7653 289.4108
f 1147 1148 1149
v 2861.3183 -340.7651 283.9440
v 2861.3208 -340.7653 289.4108
v 2935.6163 -339.3540 283.9102
f 1150 1151 1152
v 3000.6101 -247.9649 288.0172
v 3002.6107 -247.9141 270.2928
v 3000.5988 -247.9646 264.3860
f 1153 1154 1155
v 3000.5988 -247.9646 264.3860
v 3002.6107 -247.9141 270.2928
v 3002.6079 -247.9139 264.3850
f 1156 1157 1158
v 3000.6101 -247.9649 288.0172
v 2985.3087 -248.2649 282.1165
v 2985.3055 -248.2649 288.0243
f 1159 1160 1161
v 2985.3055 -248.2649 288.0243
v 2980.2122 -248.3653 285.7188
v 2980.2133 -248.3644 288.0267
f 1162 1163 1164
v 2985.3087 -248.2649 282.1165
v 2980.2110 -248.3663 283.4119
v 2980.2122 -248.3653 285.7188
f 1165 1166 1167
v 2980.2110 -248.3663 283.4119
v 2985.3087 -248.2649 282.1165
v 2980.2093 -248.3662 279.6090
f 1168 1169 1170
v 2980.2056 -248.3651 272.0023
v 2980.2093 -248.3662 279.6090
v 2985.3048 -248.2648 276.2087
f 1171 1172 1173
v 2985.3087 -248.2649 282.1165
v 2985.3048 -248.2648 276.2087
v 2980.2093 -248.3662 279.6090
f 1174 1175 1176
v 2985.3055 -248.2649 288.0243
v 2985.3087 -248.2649 282.1165
v 2980.2122 -248.3653 285.7188
f 1177 1178 1179
v 2983.0221 -248.3086 264.3942
v 2980.2020 -248.3640 264.3955
v 2980.2038 -248.3641 268.1984
f 1180 1181 1182
v 2980.2038 -248.3641 268.1984
v 2980.2056 -248.3651 272.0023
v 2985.3040 -248.2647 270.3009
f 1183 1184 1185
v 3000.5988 -247.9646 264.3860
v 2983.0221 -248.3086 264.3942
v 2985.3040 -248.2647 270.3009
f 1186 1187 1188
v 2980.2038 -248.3641 268.1984
v 2985.3040 -248.2647 270.3009
v 2983.0221 -248.3086 264.3942
f 1189 1190 1191
v 2985.3048 -248.2648 276.2087
v 3000.5988 -247.9646 264.3860
v 2985.3040 -248.2647 270.3009
f 1192 1193 1194
v 3000.5988 -247.9646 264.3860
v 2985.3048 -248.2648 276.2087
v 2985.3087 -248.2649 282.1165
f 1195 1196 1197
v 2985.3087 -248.2649 282.1165
v 3000.6101 -247.9649 288.0172
v 3000.5988 -247.9646 264.3860
f 1198 1199 1200
v 2980.2124 -248.3404 288.0267
v 2980.2010 -248.3400 264.3955
v 2980.1133 -248.3631 288.0267
f 1201 1202 1203
v 2980.1077 -248.3629 276.2111
v 2980.1133 -248.3631 288.0267
v 2980.2010 -248.3400 264.3955
f 1204 1205 1206
v 2980.1020 -248.3627 264.3955
v 2980.1077 -248.3629 276.2111
v 2980.2010 -248.3400 264.3955
f 1207 1208 1209
v 2965.9422 -265.9469 283.4178
v 2965.9444 -265.9470 288.0036
v 2965.6135 -248.6451 283.4187
f 1210 1211 1212
v 3072.5005 -263.9221 283.3674
v 3072.5027 -263.9222 287.9532
v 3016.2555 -264.9906 287.9800
f 1213 1214 1215
v 3108.1700 -361.6426 284.0900
v 3108.1718 -361.6427 287.7699
v 3074.3724 -362.2852 287.7863
f 1216 1217 1218
v 3105.9625 -246.0486 270.2393
v 3105.9712 -246.0489 287.9667
v 3108.0989 -357.9325 284.1053
f 1219 1220 1221
v 3108.1700 -361.6426 284.0900
v 3108.0989 -357.9325 284.1053
v 3108.1718 -361.6427 287.7699
f 1222 1223 1224
v 3108.0989 -357.9325 284.1053
v 3108.0890 -357.9318 264.3290
v 3105.9625 -246.0486 270.2393
f 1225 1226 1227
v 3105.9625 -246.0486 270.2393
v 3108.0890 -357.9318 264.3290
v 3105.9595 -246.0485 264.3355
f 1228 1229 1230
v 3108.1718 -361.6427 287.7699
v 3108.0989 -357.9325 284.1053
v 3105.9712 -246.0489 287.9667
f 1231 1232 1233
v 3061.9268 -246.8428 270.2646
v 3039.9100 -247.2389 270.2751
v 3075.5601 -246.5965 287.9814
f 1234 1235 1236
v 3083.9446 -246.4458 270.2541
v 3061.9268 -246.8428 270.2646
v 3075.5601 -246.5965 287.9814
f 1237 1238 1239
v 3039.9187 -247.2391 287.9985
v 3017.8913 -247.6359 268.3166
v 3017.9009 -247.6363 288.0089
f 1240 1241 1242
v 3039.9187 -247.2391 287.9985
v 3075.5601 -246.5965 287.9814
v 3017.8913 -247.6359 268.3166
f 1243 1244 1245
v 3031.9299 -247.3835 264.3711
v 3017.8894 -247.6359 264.3778
v 3017.8913 -247.6359 268.3166
f 1246 1247 1248
v 3045.9724 -247.1320 264.3644
v 3039.9100 -247.2389 270.2751
v 3061.9268 -246.8428 270.2646
f 1249 1250 1251
v 3039.9100 -247.2389 270.2751
v 3045.9724 -247.1320 264.3644
v 3031.9299 -247.3835 264.3711
f 1252 1253 1254
v 3017.8913 -247.6359 268.3166
v 3039.9100 -247.2389 270.2751
v 3031.9299 -247.3835 264.3711
f 1255 1256 1257
v 3039.9100 -247.2389 270.2751
v 3017.8913 -247.6359 268.3166
v 3075.5601 -246.5965 287.9814
f 1258 1259 1260
v 3074.0513 -246.6282 264.3510
v 3061.9268 -246.8428 270.2646
v 3083.9446 -246.4458 270.2541
f 1261 1262 1263
v 3090.0049 -246.3378 264.3433
v 3074.0513 -246.6282 264.3510
v 3083.9446 -246.4458 270.2541
f 1264 1265 1266
v 3045.9724 -247.1320 264.3644
v 3061.9268 -246.8428 270.2646
v 3074.0513 -246.6282 264.3510
f 1267 1268 1269
v 3083.9446 -246.4458 270.2541
v 3105.9625 -246.0486 270.2393
v 3090.0049 -246.3378 264.3433
f 1270 1271 1272
v 3105.9625 -246.0486 270.2393
v 3105.9595 -246.0485 264.3355
v 3090.0049 -246.3378 264.3433
f 1273 1274 1275
v 3015.9058 -247.6619 288.0099
v 3017.8913 -247.6359 268.3166
v 3015.9029 -247.6617 282.1022
f 1276 1277 1278
v 3015.8973 -247.6616 270.2866
v 3015.9029 -247.6617 282.1022
v 3017.8913 -247.6359 268.3166
f 1279 1280 1281
v 3017.8894 -247.6359 264.3778
v 3015.8944 -247.6615 264.3788
v 3017.8913 -247.6359 268.3166
f 1282 1283 1284
v 2980.2133 -248.3574 288.0267
v 2980.2010 -248.3400 264.3955
v 2980.2124 -248.3404 288.0267
f 1285 1286 1287
v 2980.2133 -248.3574 288.0267
v 2980.2133 -248.3644 288.0267
v 2980.2122 -248.3653 285.7188
f 1288 1289 1290
v 2980.2133 -248.3574 288.0267
v 2980.2110 -248.3663 283.4119
v 2980.2093 -248.3662 279.6090
f 1291 1292 1293
v 2980.2020 -248.3640 264.3955
v 2980.2010 -248.3400 264.3955
v 2980.2133 -248.3574 288.0267
f 1294 1295 1296
v 2980.2133 -248.3574 288.0267
v 2980.2038 -248.3641 268.1984
v 2980.2020 -248.3640 264.3955
f 1297 1298 1299
v 2980.2133 -248.3574 288.0267
v 2980.2056 -248.3651 272.0023
v 2980.2038 -248.3641 268.1984
f 1300 1301 1302
v 3002.5555 -244.7062 289.3273
v 3015.7448 -239.7686 289.8213
v 3002.4653 -240.0170 289.8275
f 1303 1304 1305
v 3002.5839 -246.0152 289.1872
v 3015.8441 -244.4448 289.3220
v 3002.5555 -244.7062 289.3273
f 1306 1307 1308
v 3002.5555 -244.7062 289.3273
v 3015.8441 -244.4448 289.3220
v 3015.7448 -239.7686 289.8213
f 1309 1310 1311
v 3002.5839 -246.0152 289.1872
v 3015.8725 -245.7629 289.1810
v 3015.8441 -244.4448 289.3220
f 1312 1313 1314
v 3002.4531 -240.0166 264.3854
v 3002.4653 -240.0170 289.8275
v 3015.7448 -239.7686 289.8213
f 1315 1316 1317
v 3015.8709 -245.7628 288.0130
v 3015.8725 -245.7629 289.1810
v 3002.5839 -246.0152 289.1872
f 1318 1319 1320
v 3017.0378 -306.0634 292.7006
v 3016.2393 -264.0227 292.7030
v 2990.6932 -264.5083 292.7150
f 1321 1322 1323
v 2990.6932 -264.5083 292.7150
v 2991.4927 -306.5491 292.7126
v 3017.0378 -306.0634 292.7006
f 1324 1325 1326
v 2990.7072 -265.4762 283.4062
v 2990.7094 -265.4763 287.9921
v 2965.9444 -265.9470 288.0036
f 1327 1328 1329
v 3016.2370 -264.0226 287.9821
v 3016.2393 -264.0227 292.7030
v 3016.2555 -264.9906 287.9800
f 1330 1331 1332
v 3017.0378 -306.0634 292.7006
v 3016.2555 -264.9906 287.9800
v 3016.2393 -264.0227 292.7030
f 1333 1334 1335
v 3016.2532 -264.9905 283.3942
v 3016.2555 -264.9906 287.9800
v 3017.0333 -306.0632 283.3919
f 1336 1337 1338
v 3017.0378 -306.0634 292.7006
v 3017.0333 -306.0632 283.3919
v 3016.2555 -264.9906 287.9800
f 1339 1340 1341
v 2990.6910 -264.5082 287.9942
v 2990.6932 -264.5083 292.7150
v 3016.2393 -264.0227 292.7030
f 1342 1343 1344
v 2991.4882 -306.5488 283.4039
v 2991.4927 -306.5491 292.7126
v 2990.7094 -265.4763 287.9921
f 1345 1346 1347
v 2990.6932 -264.5083 292.7150
v 2990.7094 -265.4763 287.9921
v 2991.4927 -306.5491 292.7126
f 1348 1349 1350
v 2990.7072 -265.4762 283.4062
v 2991.4882 -306.5488 283.4039
v 2990.7094 -265.4763 287.9921
f 1351 1352 1353
v 2990.6932 -264.5083 292.7150
v 2990.6910 -264.5082 287.9942
v 2990.7094 -265.4763 287.9921
f 1354 1355 1356
v 3142.3128 -357.4700 284.0876
v 3142.6908 -377.3001 264.3108
v 3142.3029 -357.4693 264.3123
f 1357 1358 1359
v 3142.3128 -357.4700 284.0876
v 3108.1167 -358.0559 264.3289
v 3108.1266 -358.0565 284.1042
f 1360 1361 1362
v 3142.3128 -357.4700 284.0876
v 3142.3029 -357.4693 264.3123
v 3108.1167 -358.0559 264.3289
f 1363 1364 1365
v 3108.1140 -357.9309 264.3290
v 3108.1266 -358.0565 284.1042
v 3108.1167 -358.0559 264.3289
f 1366 1367 1368
v 3035.5387 -379.3374 264.3627
v 3035.5483 -379.3381 284.0590
v 3035.2347 -363.0282 277.4584
f 1369 1370 1371
v 3035.5483 -379.3381 284.0590
v 3035.2380 -363.0284 284.1252
v 3035.2347 -363.0282 277.4584
f 1372 1373 1374
v 3035.5483 -379.3381 284.0590
v 3142.6908 -377.3001 264.3108
v 3142.7007 -377.3008 284.0072
f 1375 1376 1377
v 3035.5483 -379.3381 284.0590
v 3035.5387 -379.3374 264.3627
v 3142.6908 -377.3001 264.3108
f 1378 1379 1380
v 2994.6942 -363.7992 294.2480
v 3067.0843 -362.4239 294.2135
v 3066.1358 -312.5208 294.2167
f 1381 1382 1383
v 2943.5100 -364.7682 294.2718
v 2994.6942 -363.7992 294.2480
v 2942.5616 -314.8701 294.2749
f 1384 1385 1386
v 3066.1358 -312.5208 294.2167
v 2942.5616 -314.8701 294.2749
v 2994.6942 -363.7992 294.2480
f 1387 1388 1389
v 3066.1310 -312.5206 284.3121
v 3066.1358 -312.5208 294.2167
v 3067.0843 -362.4239 294.2135
f 1390 1391 1392
v 3108.0890 -357.9318 264.3290
v 3108.0989 -357.9325 284.1053
v 3108.1140 -357.9309 264.3290
f 1393 1394 1395
v 2980.1133 -248.3631 288.0267
v 2965.6157 -248.6482 288.0335
v 2965.9444 -265.9470 288.0036
f 1396 1397 1398
v 2965.9444 -265.9470 288.0036
v 2990.6910 -264.5082 287.9942
v 2980.1133 -248.3631 288.0267
f 1399 1400 1401
v 2980.2133 -248.3644 288.0267
v 2980.1133 -248.3631 288.0267
v 2990.6910 -264.5082 287.9942
f 1402 1403 1404
v 2990.7094 -265.4763 287.9921
v 2990.6910 -264.5082 287.9942
v 2965.9444 -265.9470 288.0036
f 1405 1406 1407
v 2990.6910 -264.5082 287.9942
v 3016.2370 -264.0226 287.9821
v 3002.6193 -247.9143 288.0162
f 1408 1409 1410
v 2980.2133 -248.3574 288.0267
v 2980.1133 -248.3631 288.0267
v 2980.2133 -248.3644 288.0267
f 1411 1412 1413
v 2980.2133 -248.3644 288.0267
v 2990.6910 -264.5082 287.9942
v 2985.3055 -248.2649 288.0243
f 1414 1415 1416
v 2980.1133 -248.3631 288.0267
v 2980.2133 -248.3574 288.0267
v 2980.2124 -248.3404 288.0267
f 1417 1418 1419
v 2990.6910 -264.5082 287.9942
v 3000.6101 -247.9649 288.0172
v 2985.3055 -248.2649 288.0243
f 1420 1421 1422
v 2990.6910 -264.5082 287.9942
v 3002.6193 -247.9143 288.0162
v 3000.6101 -247.9649 288.0172
f 1423 1424 1425
v 3015.9058 -247.6619 288.0099
v 3015.8709 -245.7628 288.0130
v 3002.5834 -246.0153 288.0193
f 1426 1427 1428
v 3002.5834 -246.0153 288.0193
v 3002.6193 -247.9143 288.0162
v 3015.9058 -247.6619 288.0099
f 1429 1430 1431
v 3073.4785 -311.1043 287.8735
v 3073.3994 -311.1061 287.8735
v 3073.5161 -313.0884 287.8704
f 1432 1433 1434
v 3089.6653 -295.3977 287.8914
v 3089.5101 -287.2344 287.9060
v 3073.1075 -295.7465 287.8995
f 1435 1436 1437
v 3072.5027 -263.9222 287.9532
v 3073.1075 -295.7465 287.8995
v 3089.5101 -287.2344 287.9060
f 1438 1439 1440
v 3090.1418 -320.9758 287.8479
v 3073.5161 -313.0884 287.8704
v 3074.3724 -362.2852 287.7863
f 1441 1442 1443
v 3103.4164 -320.7234 287.8415
v 3090.1418 -320.9758 287.8479
v 3108.1718 -361.6427 287.7699
f 1444 1445 1446
v 3074.3724 -362.2852 287.7863
v 3108.1718 -361.6427 287.7699
v 3090.1418 -320.9758 287.8479
f 1447 1448 1449
v 3105.9712 -246.0489 287.9667
v 3102.7747 -286.9820 287.8994
v 3103.4164 -320.7234 287.8415
f 1450 1451 1452
v 3105.9712 -246.0489 287.9667
v 3103.4164 -320.7234 287.8415
v 3108.1718 -361.6427 287.7699
f 1453 1454 1455
v 3073.5161 -313.0884 287.8704
v 3090.1418 -320.9758 287.8479
v 3089.9868 -312.7755 287.8624
f 1456 1457 1458
v 3072.5027 -263.9222 287.9532
v 3089.5101 -287.2344 287.9060
v 3102.7747 -286.9820 287.8994
f 1459 1460 1461
v 3015.9058 -247.6619 288.0099
v 3002.6193 -247.9143 288.0162
v 3016.2370 -264.0226 287.9821
f 1462 1463 1464
v 3017.9009 -247.6363 288.0089
v 3015.9058 -247.6619 288.0099
v 3016.2370 -264.0226 287.9821
f 1465 1466 1467
v 3039.9187 -247.2391 287.9985
v 3016.2370 -264.0226 287.9821
v 3016.2555 -264.9906 287.9800
f 1468 1469 1470
v 3017.9009 -247.6363 288.0089
v 3016.2370 -264.0226 287.9821
v 3039.9187 -247.2391 287.9985
f 1471 1472 1473
v 3072.5027 -263.9222 287.9532
v 3039.9187 -247.2391 287.9985
v 3016.2555 -264.9906 287.9800
f 1474 1475 1476
v 3075.5601 -246.5965 287.9814
v 3039.9187 -247.2391 287.9985
v 3072.5027 -263.9222 287.9532
f 1477 1478 1479
v 3072.5027 -263.9222 287.9532
v 3105.9712 -246.0489 287.9667
v 3075.5601 -246.5965 287.9814
f 1480 1481 1482
v 3105.9712 -246.0489 287.9667
v 3072.5027 -263.9222 287.9532
v 3102.7747 -286.9820 287.8994
f 1483 1484 1485
v 3073.5161 -313.0884 287.8704
v 3073.3994 -311.1061 287.8735
v 3074.3724 -362.2852 287.7863
f 1486 1487 1488
v 3074.3706 -362.2851 284.1064
v 3074.3724 -362.2852 287.7863
v 3073.3977 -311.1061 284.3137
f 1489 1490 1491
v 3073.1053 -295.7464 283.3656
v 3073.1075 -295.7465 287.8995
v 3072.5005 -263.9221 283.3674
f 1492 1493 1494
v 2968.2558 -301.9597 283.4151
v 2965.9422 -265.9469 283.4178
v 2959.4377 -297.9252 283.4193
f 1495 1496 1497
v 2965.9422 -265.9469 283.4178
v 2954.2355 -298.0242 283.4217
v 2959.4377 -297.9252 283.4193
f 1498 1499 1500
v 2965.6135 -248.6451 283.4187
v 2953.3010 -248.8832 283.4244
v 2965.9422 -265.9469 283.4178
f 1501 1502 1503
v 2954.2355 -298.0242 283.4217
v 2965.9422 -265.9469 283.4178
v 2953.3010 -248.8832 283.4244
f 1504 1505 1506
v 2968.2558 -301.9597 283.4151
v 2959.4377 -297.9252 283.4193
v 2959.6140 -307.1546 283.4188
f 1507 1508 1509
v 2968.3127 -304.9589 283.4149
v 2959.6140 -307.1546 283.4188
v 2972.4129 -304.8808 283.4130
f 1510 1511 1512
v 2991.4882 -306.5488 283.4039
v 2972.4129 -304.8808 283.4130
v 2959.6140 -307.1546 283.4188
f 1513 1514 1515
v 2972.3560 -301.8817 283.4131
v 2972.4129 -304.8808 283.4130
v 2991.4882 -306.5488 283.4039
f 1516 1517 1518
v 2965.9422 -265.9469 283.4178
v 2972.3560 -301.8817 283.4131
v 2990.7072 -265.4762 283.4062
f 1519 1520 1521
v 2991.4882 -306.5488 283.4039
v 2990.7072 -265.4762 283.4062
v 2972.3560 -301.8817 283.4131
f 1522 1523 1524
v 2968.2558 -301.9597 283.4151
v 2972.3560 -301.8817 283.4131
v 2965.9422 -265.9469 283.4178
f 1525 1526 1527
v 2959.6140 -307.1546 283.4188
v 2968.3127 -304.9589 283.4149
v 2968.2558 -301.9597 283.4151
f 1528 1529 1530
v 3016.2532 -264.9905 283.3942
v 3017.0333 -306.0632 283.3919
v 3064.9460 -295.9175 283.3695
f 1531 1532 1533
v 3065.1212 -305.1499 283.3690
v 3064.9460 -295.9175 283.3695
v 3017.0333 -306.0632 283.3919
f 1534 1535 1536
v 3072.5005 -263.9221 283.3674
v 3016.2532 -264.9905 283.3942
v 3064.9460 -295.9175 283.3695
f 1537 1538 1539
v 3064.9460 -295.9175 283.3695
v 3073.1053 -295.7464 283.3656
v 3072.5005 -263.9221 283.3674
f 1540 1541 1542
v 2943.5022 -364.7677 277.5013
v 2943.5100 -364.7682 294.2718
v 2942.5616 -314.8701 294.2749
f 1543 1544 1545
v 3065.2595 -312.5371 277.4467
v 2942.5537 -314.8696 277.5045
v 3065.2629 -312.5372 284.3125
f 1546 1547 1548
v 2942.5616 -314.8701 294.2749
v 3065.2629 -312.5372 284.3125
v 2942.5537 -314.8696 277.5045
f 1549 1550 1551
v 3066.1310 -312.5206 284.3121
v 3065.2629 -312.5372 284.3125
v 3066.1358 -312.5208 294.2167
f 1552 1553 1554
v 2942.5616 -314.8701 294.2749
v 3066.1358 -312.5208 294.2167
v 3065.2629 -312.5372 284.3125
f 1555 1556 1557
v 3067.0793 -362.4236 284.1099
v 3035.2380 -363.0284 284.1252
v 3035.5483 -379.3381 284.0590
f 1558 1559 1560
v 3074.3706 -362.2851 284.1064
v 3066.1310 -312.5206 284.3121
v 3067.0793 -362.4236 284.1099
f 1561 1562 1563
v 3035.5483 -379.3381 284.0590
v 3074.3706 -362.2851 284.1064
v 3067.0793 -362.4236 284.1099
f 1564 1565 1566
v 3074.3706 -362.2851 284.1064
v 3142.7007 -377.3008 284.0072
v 3108.1700 -361.6426 284.0900
f 1567 1568 1569
v 3142.7007 -377.3008 284.0072
v 3074.3706 -362.2851 284.1064
v 3035.5483 -379.3381 284.0590
f 1570 1571 1572
v 3066.1310 -312.5206 284.3121
v 3065.2383 -311.2612 284.3176
v 3065.2629 -312.5372 284.3125
f 1573 1574 1575
v 3073.3977 -311.1061 284.3137
v 3065.2383 -311.2612 284.3176
v 3066.1310 -312.5206 284.3121
f 1576 1577 1578
v 3074.3706 -362.2851 284.1064
v 3073.3977 -311.1061 284.3137
v 3066.1310 -312.5206 284.3121
f 1579 1580 1581
v 3108.1266 -358.0565 284.1042
v 3108.0989 -357.9325 284.1053
v 3108.1700 -361.6426 284.0900
f 1582 1583 1584
v 3142.7007 -377.3008 284.0072
v 3142.3128 -357.4700 284.0876
v 3108.1700 -361.6426 284.0900
f 1585 1586 1587
v 3108.0989 -357.9325 284.1053
v 3108.1266 -358.0565 284.1042
v 3108.1239 -357.9314 284.1053
f 1588 1589 1590
v 3108.1700 -361.6426 284.0900
v 3142.3128 -357.4700 284.0876
v 3108.1266 -358.0565 284.1042
f 1591 1592 1593
v 2860.6982 -285.5136 264.4488
v 2860.3087 -266.9919 264.4497
v 2860.6646 -283.5019 284.0072
f 1594 1595 1596
v 2860.3178 -266.9922 284.0260
v 2860.6646 -283.5019 284.0072
v 2860.3087 -266.9919 264.4497
f 1597 1598 1599
v 2860.6646 -283.5019 284.0072
v 2860.6698 -283.5020 288.8550
v 2860.7094 -285.5142 288.8549
f 1600 1601 1602
v 2860.6646 -283.5019 284.0072
v 2860.7094 -285.5142 288.8549
v 2860.6982 -285.5136 264.4488
f 1603 1604 1605
v 2833.2397 -267.5057 284.0382
v 2829.7443 -267.5723 279.1458
v 2829.7466 -267.5724 284.0397
f 1606 1607 1608
v 2833.2347 -267.5026 273.1445
v 2829.7316 -267.5722 273.1460
v 2829.7443 -267.5723 279.1458
f 1609 1610 1611
v 2833.2397 -267.5057 284.0382
v 2833.2347 -267.5026 273.1445
v 2829.7443 -267.5723 279.1458
f 1612 1613 1614
v 2925.8349 -307.7971 283.9493
v 2925.8373 -307.7973 289.2032
v 2925.8155 -306.8031 283.9514
f 1615 1616 1617
v 2925.8155 -306.8031 283.9514
v 2925.5757 -294.3726 283.8302
v 2925.8063 -306.8026 264.4181
f 1618 1619 1620
v 2925.5757 -294.3726 283.8302
v 2925.5666 -294.3722 264.4189
v 2925.8063 -306.8026 264.4181
f 1621 1622 1623
v 2925.5765 -294.2597 289.2040
v 2925.8155 -306.8031 283.9514
v 2925.8373 -307.7973 289.2032
f 1624 1625 1626
v 2925.5765 -294.2597 289.2040
v 2925.3913 -284.6453 289.2045
v 2925.3887 -284.6452 283.8307
f 1627 1628 1629
v 2925.8155 -306.8031 283.9514
v 2925.5765 -294.2597 289.2040
v 2925.5757 -294.3726 283.8302
f 1630 1631 1632
v 2828.5577 -366.9196 264.4588
v 2828.5691 -366.9204 289.4239
v 2828.0740 -340.9981 283.9589
f 1633 1634 1635
v 2828.0754 -340.9983 289.4257
v 2828.0740 -340.9981 283.9589
v 2828.5691 -366.9204 289.4239
f 1636 1637 1638
v 2826.6685 -267.6428 264.4648
v 2828.0740 -340.9981 283.9589
v 2827.3156 -301.1725 284.0032
f 1639 1640 1641
v 2828.0740 -340.9981 283.9589
v 2828.1107 -343.3997 264.4603
v 2828.5577 -366.9196 264.4588
f 1642 1643 1644
v 2828.0740 -340.9981 283.9589
v 2826.6685 -267.6428 264.4648
v 2828.1107 -343.3997 264.4603
f 1645 1646 1647
v 2826.6685 -267.6428 264.4648
v 2827.3156 -301.1725 284.0032
v 2826.6741 -267.6430 276.7003
f 1648 1649 1650
v 2826.6741 -267.6430 276.7003
v 2827.3156 -301.1725 284.0032
v 2826.9912 -284.1418 284.0221
f 1651 1652 1653
v 2826.9934 -284.1419 288.8700
v 2826.9912 -284.1418 284.0221
v 2827.3178 -301.1726 288.8690
f 1654 1655 1656
v 2826.6741 -267.6430 276.7003
v 2826.9912 -284.1418 284.0221
v 2826.6774 -267.6432 284.0411
f 1657 1658 1659
v 2827.3178 -301.1726 288.8690
v 2826.9912 -284.1418 284.0221
v 2827.3156 -301.1725 284.0032
f 1660 1661 1662
v 2861.8070 -366.2996 264.4439
v 2869.5023 -366.1552 264.4405
v 2869.5138 -366.1560 289.5356
f 1663 1664 1665
v 2861.3034 -366.3100 289.4094
v 2861.8070 -366.2996 264.4439
v 2869.5138 -366.1560 289.5356
f 1666 1667 1668
v 2861.8070 -366.2996 264.4439
v 2861.3034 -366.3100 289.4094
v 2828.5577 -366.9196 264.4588
f 1669 1670 1671
v 2828.5691 -366.9204 289.4239
v 2828.5577 -366.9196 264.4588
v 2861.3034 -366.3100 289.4094
f 1672 1673 1674
v 2869.5138 -366.1560 289.5356
v 2861.3034 -366.3091 289.5394
v 2861.3034 -366.3100 289.4094
f 1675 1676 1677
v 2936.1045 -364.9132 289.5053
v 2935.6163 -339.3540 283.9102
v 2935.6189 -339.3541 289.5070
f 1678 1679 1680
v 2935.0112 -307.6225 277.5084
v 2935.0142 -307.6227 283.9461
v 2935.6163 -339.3540 283.9102
f 1681 1682 1683
v 2935.6163 -339.3540 283.9102
v 2936.0988 -364.9078 277.5048
v 2935.6457 -341.0378 277.5063
f 1684 1685 1686
v 2935.6457 -341.0378 277.5063
v 2935.0112 -307.6225 277.5084
v 2935.6163 -339.3540 283.9102
f 1687 1688 1689
v 2936.0988 -364.9078 277.5048
v 2935.6163 -339.3540 283.9102
v 2936.1045 -364.9132 289.5053
f 1690 1691 1692
v 2953.3010 -248.8832 283.4244
v 2924.7625 -249.4309 289.2064
v 2953.3037 -248.8833 289.1932
f 1693 1694 1695
v 2965.6044 -248.6480 264.4024
v 2953.2920 -248.8830 264.4081
v 2953.3010 -248.8832 283.4244
f 1696 1697 1698
v 2924.7509 -249.4306 264.4212
v 2924.7625 -249.4309 289.2064
v 2953.3010 -248.8832 283.4244
f 1699 1700 1701
v 2953.3010 -248.8832 283.4244
v 2950.6229 -248.9348 264.4093
v 2924.7509 -249.4306 264.4212
f 1702 1703 1704
v 2953.3010 -248.8832 283.4244
v 2953.2920 -248.8830 264.4081
v 2950.6229 -248.9348 264.4093
f 1705 1706 1707
v 2965.6135 -248.6451 283.4187
v 2965.6157 -248.6482 288.0335
v 2980.1133 -248.3631 288.0267
f 1708 1709 1710
v 2953.3010 -248.8832 283.4244
v 2965.6135 -248.6451 283.4187
v 2965.6044 -248.6480 264.4024
f 1711 1712 1713
v 2965.6044 -248.6480 264.4024
v 2965.6135 -248.6451 283.4187
v 2980.1077 -248.3629 276.2111
f 1714 1715 1716
v 2980.1133 -248.3631 288.0267
v 2980.1077 -248.3629 276.2111
v 2965.6135 -248.6451 283.4187
f 1717 1718 1719
v 2965.6044 -248.6480 264.4024
v 2980.1077 -248.3629 276.2111
v 2980.1020 -248.3627 264.3955
f 1720 1721 1722
v 3015.8441 -244.4448 289.3220
v 3015.8709 -245.7628 288.0130
v 3015.7448 -239.7686 289.8213
f 1723 1724 1725
v 3015.8725 -245.7629 289.1810
v 3015.8709 -245.7628 288.0130
v 3015.8441 -244.4448 289.3220
f 1726 1727 1728
v 3015.8973 -247.6616 270.2866
v 3015.8320 -244.4444 264.3789
v 3015.7325 -239.7682 264.3792
f 1729 1730 1731
v 3015.7325 -239.7682 264.3792
v 3015.7448 -239.7686 289.8213
v 3015.9029 -247.6617 282.1022
f 1732 1733 1734
v 3015.7448 -239.7686 289.8213
v 3015.8709 -245.7628 288.0130
v 3015.9029 -247.6617 282.1022
f 1735 1736 1737
v 3015.7325 -239.7682 264.3792
v 3015.9029 -247.6617 282.1022
v 3015.8973 -247.6616 270.2866
f 1738 1739 1740
v 3015.8973 -247.6616 270.2866
v 3015.8944 -247.6615 264.3788
v 3015.8551 -245.5474 264.3789
f 1741 1742 1743
v 3015.8551 -245.5474 264.3789
v 3015.8320 -244.4444 264.3789
v 3015.8973 -247.6616 270.2866
f 1744 1745 1746
v 3015.9058 -247.6619 288.0099
v 3015.9029 -247.6617 282.1022
v 3015.8709 -245.7628 288.0130
f 1747 1748 1749
v 3002.6107 -247.9141 270.2928
v 3002.6136 -247.9142 276.2006
v 3002.5435 -244.7058 264.3852
f 1750 1751 1752
v 3002.5676 -245.7999 264.3851
v 3002.6079 -247.9139 264.3850
v 3002.6107 -247.9141 270.2928
f 1753 1754 1755
v 3002.5834 -246.0153 288.0193
v 3002.6136 -247.9142 276.2006
v 3002.6193 -247.9143 288.0162
f 1756 1757 1758
v 3002.5555 -244.7062 289.3273
v 3002.5834 -246.0153 288.0193
v 3002.5839 -246.0152 289.1872
f 1759 1760 1761
v 3002.4653 -240.0170 289.8275
v 3002.4531 -240.0166 264.3854
v 3002.5555 -244.7062 289.3273
f 1762 1763 1764
v 3002.5555 -244.7062 289.3273
v 3002.6136 -247.9142 276.2006
v 3002.5834 -246.0153 288.0193
f 1765 1766 1767
v 3002.5676 -245.7999 264.3851
v 3002.6107 -247.9141 270.2928
v 3002.5435 -244.7058 264.3852
f 1768 1769 1770
v 3002.5435 -244.7058 264.3852
v 3002.6136 -247.9142 276.2006
v 3002.5555 -244.7062 289.3273
f 1771 1772 1773
v 3002.5435 -244.7058 264.3852
v 3002.5555 -244.7062 289.3273
v 3002.4531 -240.0166 264.3854
f 1774 1775 1776
v 3065.1212 -305.1499 283.3690
v 3065.2383 -311.2612 284.3176
v 3065.2425 -311.2614 292.8863
f 1777 1778 1779
v 3065.2383 -311.2612 284.3176
v 3065.2595 -312.5371 277.4467
v 3065.2629 -312.5372 284.3125
f 1780 1781 1782
v 3065.2595 -312.5371 277.4467
v 3065.2383 -311.2612 284.3176
v 3065.1183 -305.1497 277.4472
f 1783 1784 1785
v 3065.1212 -305.1499 283.3690
v 3064.9506 -295.9178 292.8322
v 3064.9460 -295.9175 283.3695
f 1786 1787 1788
v 3065.1212 -305.1499 283.3690
v 3065.1183 -305.1497 277.4472
v 3065.2383 -311.2612 284.3176
f 1789 1790 1791
v 3064.9506 -295.9178 292.8322
v 3065.1212 -305.1499 283.3690
v 3065.2425 -311.2614 292.8863
f 1792 1793 1794
v 2991.4927 -306.5491 292.7126
v 3017.0333 -306.0632 283.3919
v 3017.0378 -306.0634 292.7006
f 1795 1796 1797
v 2959.6112 -307.1544 277.4970
v 3065.1183 -305.1497 277.4472
v 3017.0333 -306.0632 283.3919
f 1798 1799 1800
v 3065.1212 -305.1499 283.3690
v 3017.0333 -306.0632 283.3919
v 3065.1183 -305.1497 277.4472
f 1801 1802 1803
v 3017.0333 -306.0632 283.3919
v 2991.4882 -306.5488 283.4039
v 2959.6112 -307.1544 277.4970
f 1804 1805 1806
v 2991.4882 -306.5488 283.4039
v 2959.6140 -307.1546 283.4188
v 2959.6112 -307.1544 277.4970
f 1807 1808 1809
v 2991.4882 -306.5488 283.4039
v 3017.0333 -306.0632 283.3919
v 2991.4927 -306.5491 292.7126
f 1810 1811 1812
v 2929.9895 -307.7183 289.2012
v 2959.6140 -307.1546 283.4188
v 2959.6196 -307.1548 295.1874
f 1813 1814 1815
v 2935.0142 -307.6227 283.9461
v 2959.6140 -307.1546 283.4188
v 2929.9895 -307.7183 289.2012
f 1816 1817 1818
v 2929.9870 -307.7182 283.9474
v 2935.0142 -307.6227 283.9461
v 2929.9895 -307.7183 289.2012
f 1819 1820 1821
v 2929.9870 -307.7182 283.9474
v 2929.9895 -307.7183 289.2012
v 2925.8373 -307.7973 289.2032
f 1822 1823 1824
v 2959.6112 -307.1544 277.4970
v 2959.6140 -307.1546 283.4188
v 2951.7379 -307.3044 277.5006
f 1825 1826 1827
v 2951.7379 -307.3044 277.5006
v 2959.6140 -307.1546 283.4188
v 2935.0142 -307.6227 283.9461
f 1828 1829 1830
v 2935.0112 -307.6225 277.5084
v 2951.7379 -307.3044 277.5006
v 2935.0142 -307.6227 283.9461
f 1831 1832 1833
v 2929.9923 -307.7185 295.2010
v 2929.9895 -307.7183 289.2012
v 2959.6196 -307.1548 295.1874
f 1834 1835 1836
v 3035.2380 -363.0284 284.1252
v 3067.0793 -362.4236 284.1099
v 3067.0843 -362.4239 294.2135
f 1837 1838 1839
v 2994.6942 -363.7992 294.2480
v 3035.2347 -363.0282 277.4584
v 3035.2380 -363.0284 284.1252
f 1840 1841 1842
v 3067.0843 -362.4239 294.2135
v 2994.6942 -363.7992 294.2480
v 3035.2380 -363.0284 284.1252
f 1843 1844 1845
v 2943.5100 -364.7682 294.2718
v 2943.5022 -364.7677 277.5013
v 2994.6942 -363.7992 294.2480
f 1846 1847 1848
v 3035.2284 -363.0277 264.3639
v 3035.2347 -363.0282 277.4584
v 2999.7320 -363.7018 264.3806
f 1849 1850 1851
v 2994.6799 -363.7982 264.3830
v 2999.7320 -363.7018 264.3806
v 3035.2347 -363.0282 277.4584
f 1852 1853 1854
v 2931.2335 -364.9993 264.4124
v 2994.6799 -363.7982 264.3830
v 2943.5022 -364.7677 277.5013
f 1855 1856 1857
v 3035.2347 -363.0282 277.4584
v 2943.5022 -364.7677 277.5013
v 2994.6799 -363.7982 264.3830
f 1858 1859 1860
v 2943.5022 -364.7677 277.5013
v 2936.0988 -364.9078 277.5048
v 2931.2335 -364.9993 264.4124
f 1861 1862 1863
v 2943.5022 -364.7677 277.5013
v 3035.2347 -363.0282 277.4584
v 2994.6942 -363.7992 294.2480
f 1864 1865 1866
v 2911.4735 -365.3763 289.5167
v 2936.0988 -364.9078 277.5048
v 2936.1045 -364.9132 289.5053
f 1867 1868 1869
v 2902.2971 -365.5547 289.5208
v 2936.0988 -364.9078 277.5048
v 2911.4735 -365.3763 289.5167
f 1870 1871 1872
v 2869.5147 -366.1779 289.5356
v 2902.2804 -365.5539 264.4257
v 2902.2971 -365.5547 289.5208
f 1873 1874 1875
v 2936.0988 -364.9078 277.5048
v 2902.2971 -365.5547 289.5208
v 2902.2804 -365.5539 264.4257
f 1876 1877 1878
v 2869.5147 -366.1779 289.5356
v 2869.5032 -366.1772 264.4405
v 2902.2804 -365.5539 264.4257
f 1879 1880 1881
v 2936.0988 -364.9078 277.5048
v 2911.4617 -365.3755 264.4216
v 2931.2335 -364.9993 264.4124
f 1882 1883 1884
v 2902.2804 -365.5539 264.4257
v 2911.4617 -365.3755 264.4216
v 2936.0988 -364.9078 277.5048
f 1885 1886 1887
v 2839.4369 -267.9196 300.3378
v 2833.1980 -264.9149 300.3407
v 2833.2567 -268.0371 300.3406
f 1888 1889 1890
v 2833.1980 -264.9149 300.3407
v 2839.4369 -267.9196 300.3378
v 2839.3773 -264.7975 300.3380
f 1891 1892 1893
v 2833.1856 -264.9144 273.1446
v 2833.1980 -264.9149 300.3407
v 2839.3773 -264.7975 300.3380
f 1894 1895 1896
v 2829.5912 -258.7438 264.4639
v 2829.5952 -258.7439 273.1466
v 2841.7106 -258.5463 273.1411
f 1897 1898 1899
v 2841.9140 -267.3388 273.1406
v 2839.4140 -267.3861 273.1417
v 2839.4189 -267.3873 284.0353
f 1900 1901 1902
v 2841.9140 -267.3388 273.1406
v 2839.4189 -267.3873 284.0353
v 2841.9190 -267.3389 284.0342
f 1903 1904 1905
v 2841.9140 -267.3388 273.1406
v 2860.3178 -266.9922 284.0260
v 2860.3087 -266.9919 264.4497
f 1906 1907 1908
v 2860.3087 -266.9919 264.4497
v 2841.9101 -267.3387 264.4579
v 2841.9140 -267.3388 273.1406
f 1909 1910 1911
v 2860.3178 -266.9922 284.0260
v 2841.9140 -267.3388 273.1406
v 2841.9190 -267.3389 284.0342
f 1912 1913 1914
v 3108.1167 -358.0559 264.3289
v 3142.3029 -357.4693 264.3123
v 3142.6908 -377.3001 264.3108
f 1915 1916 1917
v 3108.1167 -358.0559 264.3289
v 3142.6908 -377.3001 264.3108
v 3035.5387 -379.3374 264.3627
f 1918 1919 1920
v 3108.0890 -357.9318 264.3290
v 2925.8063 -306.8026 264.4181
v 3045.9724 -247.1320 264.3644
f 1921 1922 1923
v 3108.1167 -358.0559 264.3289
v 3035.5387 -379.3374 264.3627
v 3035.2284 -363.0277 264.3639
f 1924 1925 1926
v 2925.8063 -306.8026 264.4181
v 3108.0890 -357.9318 264.3290
v 3035.2284 -363.0277 264.3639
f 1927 1928 1929
v 3035.2284 -363.0277 264.3639
v 3108.0890 -357.9318 264.3290
v 3108.1167 -358.0559 264.3289
f 1930 1931 1932
v 2925.8063 -306.8026 264.4181
v 3035.2284 -363.0277 264.3639
v 2999.7320 -363.7018 264.3806
f 1933 1934 1935
v 3108.1167 -358.0559 264.3289
v 3108.0890 -357.9318 264.3290
v 3108.1140 -357.9309 264.3290
f 1936 1937 1938
v 3090.0049 -246.3378 264.3433
v 3105.9595 -246.0485 264.3355
v 3108.0890 -357.9318 264.3290
f 1939 1940 1941
v 3074.0513 -246.6282 264.3510
v 3090.0049 -246.3378 264.3433
v 3108.0890 -357.9318 264.3290
f 1942 1943 1944
v 3108.0890 -357.9318 264.3290
v 3045.9724 -247.1320 264.3644
v 3074.0513 -246.6282 264.3510
f 1945 1946 1947
v 3031.9299 -247.3835 264.3711
v 3045.9724 -247.1320 264.3644
v 2925.5666 -294.3722 264.4189
f 1948 1949 1950
v 3015.8944 -247.6615 264.3788
v 3002.5676 -245.7999 264.3851
v 3015.8551 -245.5474 264.3789
f 1951 1952 1953
v 3017.8894 -247.6359 264.3778
v 3031.9299 -247.3835 264.3711
v 2925.5666 -294.3722 264.4189
f 1954 1955 1956
v 3017.8894 -247.6359 264.3778
v 2925.5609 -294.2591 264.4189
v 3015.8944 -247.6615 264.3788
f 1957 1958 1959
v 2925.3736 -284.6447 264.4194
v 3002.6079 -247.9139 264.3850
v 3015.8944 -247.6615 264.3788
f 1960 1961 1962
v 3000.5988 -247.9646 264.3860
v 3002.6079 -247.9139 264.3850
v 2925.3779 -284.5448 264.4194
f 1963 1964 1965
v 3002.5435 -244.7058 264.3852
v 3015.7325 -239.7682 264.3792
v 3015.8320 -244.4444 264.3789
f 1966 1967 1968
v 3002.5676 -245.7999 264.3851
v 3015.8320 -244.4444 264.3789
v 3015.8551 -245.5474 264.3789
f 1969 1970 1971
v 3015.7325 -239.7682 264.3792
v 3002.5435 -244.7058 264.3852
v 3002.4531 -240.0166 264.3854
f 1972 1973 1974
v 3002.5676 -245.7999 264.3851
v 3002.5435 -244.7058 264.3852
v 3015.8320 -244.4444 264.3789
f 1975 1976 1977
v 3002.6079 -247.9139 264.3850
v 3002.5676 -245.7999 264.3851
v 3015.8944 -247.6615 264.3788
f 1978 1979 1980
v 2999.7320 -363.7018 264.3806
v 2994.6799 -363.7982 264.3830
v 2925.8063 -306.8026 264.4181
f 1981 1982 1983
v 2925.8063 -306.8026 264.4181
v 2911.4617 -365.3755 264.4216
v 2902.2804 -365.5539 264.4257
f 1984 1985 1986
v 2925.8063 -306.8026 264.4181
v 2931.2335 -364.9993 264.4124
v 2911.4617 -365.3755 264.4216
f 1987 1988 1989
v 2925.5609 -294.2591 264.4189
v 2925.5666 -294.3722 264.4189
v 2925.5626 -294.3722 264.4189
f 1990 1991 1992
v 3015.8944 -247.6615 264.3788
v 2925.5609 -294.2591 264.4189
v 2925.3736 -284.6447 264.4194
f 1993 1994 1995
v 2925.8063 -306.8026 264.4181
v 2925.5666 -294.3722 264.4189
v 3045.9724 -247.1320 264.3644
f 1996 1997 1998
v 2925.5609 -294.2591 264.4189
v 2918.0824 -284.7642 264.4227
v 2925.3736 -284.6447 264.4194
f 1999 2000 2001
v 2925.5609 -294.2591 264.4189
v 2900.9071 -294.6752 264.4301
v 2918.0824 -284.7642 264.4227
f 2002 2003 2004
v 3017.8894 -247.6359 264.3778
v 2925.5666 -294.3722 264.4189
v 2925.5609 -294.2591 264.4189
f 2005 2006 2007
v 2869.0212 -307.8817 264.4439
v 2925.8063 -306.8026 264.4181
v 2902.2804 -365.5539 264.4257
f 2008 2009 2010
v 2925.3779 -284.5448 264.4194
v 3002.6079 -247.9139 264.3850
v 2925.3736 -284.6447 264.4194
f 2011 2012 2013
v 2869.5023 -366.1552 264.4405
v 2902.2804 -365.5539 264.4257
v 2869.5032 -366.1772 264.4405
f 2014 2015 2016
v 2861.8070 -366.2996 264.4439
v 2828.1107 -343.3997 264.4603
v 2869.5023 -366.1552 264.4405
f 2017 2018 2019
v 2828.1107 -343.3997 264.4603
v 2902.2804 -365.5539 264.4257
v 2869.5023 -366.1552 264.4405
f 2020 2021 2022
v 2828.1107 -343.3997 264.4603
v 2861.8070 -366.2996 264.4439
v 2828.5577 -366.9196 264.4588
f 2023 2024 2025
v 2869.0212 -307.8817 264.4439
v 2828.1107 -343.3997 264.4603
v 2826.6685 -267.6428 264.4648
f 2026 2027 2028
v 2828.1107 -343.3997 264.4603
v 2869.0212 -307.8817 264.4439
v 2902.2804 -365.5539 264.4257
f 2029 2030 2031
v 2869.0212 -307.8817 264.4439
v 2826.6685 -267.6428 264.4648
v 2860.7018 -285.6397 264.4488
f 2032 2033 2034
v 2924.7509 -249.4306 264.4212
v 2950.6229 -248.9348 264.4093
v 2925.3779 -284.5448 264.4194
f 2035 2036 2037
v 2925.3736 -284.6447 264.4194
v 2925.3719 -284.5448 264.4194
v 2925.3779 -284.5448 264.4194
f 2038 2039 2040
v 2925.3779 -284.5448 264.4194
v 2950.6229 -248.9348 264.4093
v 2953.2920 -248.8830 264.4081
f 2041 2042 2043
v 2925.3779 -284.5448 264.4194
v 2980.2020 -248.3640 264.3955
v 2983.0221 -248.3086 264.3942
f 2044 2045 2046
v 2980.1020 -248.3627 264.3955
v 2980.2010 -248.3400 264.3955
v 2980.2020 -248.3640 264.3955
f 2047 2048 2049
v 2925.3779 -284.5448 264.4194
v 2980.1020 -248.3627 264.3955
v 2980.2020 -248.3640 264.3955
f 2050 2051 2052
v 2953.2920 -248.8830 264.4081
v 2965.6044 -248.6480 264.4024
v 2925.3779 -284.5448 264.4194
f 2053 2054 2055
v 2980.1020 -248.3627 264.3955
v 2925.3779 -284.5448 264.4194
v 2965.6044 -248.6480 264.4024
f 2056 2057 2058
v 2925.3779 -284.5448 264.4194
v 2983.0221 -248.3086 264.3942
v 3000.5988 -247.9646 264.3860
f 2059 2060 2061
v 2900.2810 -262.1959 264.4318
v 2918.0824 -284.7642 264.4227
v 2900.9071 -294.6752 264.4301
f 2062 2063 2064
v 2826.6685 -267.6428 264.4648
v 2860.6982 -285.5136 264.4488
v 2860.7018 -285.6397 264.4488
f 2065 2066 2067
v 2826.6685 -267.6428 264.4648
v 2841.9101 -267.3387 264.4579
v 2860.6982 -285.5136 264.4488
f 2068 2069 2070
v 2841.9101 -267.3387 264.4579
v 2860.3087 -266.9919 264.4497
v 2860.6982 -285.5136 264.4488
f 2071 2072 2073
v 2841.9101 -267.3387 264.4579
v 2826.6685 -267.6428 264.4648
v 2829.7277 -267.5721 264.4634
f 2074 2075 2076
v 2900.2810 -262.1959 264.4318
v 2917.6107 -261.8693 264.4239
v 2918.0824 -284.7642 264.4227
f 2077 2078 2079
v 2868.5951 -285.4898 264.4452
v 2869.0212 -307.8817 264.4439
v 2860.7018 -285.6397 264.4488
f 2080 2081 2082
v 2931.2335 -364.9993 264.4124
v 2925.8063 -306.8026 264.4181
v 2994.6799 -363.7982 264.3830
f 2083 2084 2085
v 2839.4295 -267.9193 284.0343
v 2839.4369 -267.9196 300.3378
v 2833.2567 -268.0371 300.3406
f 2086 2087 2088
v 2839.4140 -267.3861 273.1417
v 2839.3649 -264.7970 273.1419
v 2839.4189 -267.3873 284.0353
f 2089 2090 2091
v 2839.3773 -264.7975 300.3380
v 2839.4189 -267.3873 284.0353
v 2839.3649 -264.7970 273.1419
f 2092 2093 2094
v 2839.4295 -267.9193 284.0343
v 2839.4189 -267.3873 284.0353
v 2839.4369 -267.9196 300.3378
f 2095 2096 2097
v 2839.3773 -264.7975 300.3380
v 2839.4369 -267.9196 300.3378
v 2839.4189 -267.3873 284.0353
f 2098 2099 2100
v 2833.2492 -268.0367 284.0372
v 2833.2567 -268.0371 300.3406
v 2833.2397 -267.5057 284.0382
f 2101 2102 2103
v 2833.1980 -264.9149 300.3407
v 2833.2397 -267.5057 284.0382
v 2833.2567 -268.0371 300.3406
f 2104 2105 2106
v 2833.2347 -267.5026 273.1445
v 2833.2397 -267.5057 284.0382
v 2833.1856 -264.9144 273.1446
f 2107 2108 2109
v 2833.1980 -264.9149 300.3407
v 2833.1856 -264.9144 273.1446
v 2833.2397 -267.5057 284.0382
f 2110 2111 2112
v 2829.7277 -267.5721 264.4634
v 2841.7066 -258.5462 264.4584
v 2841.9101 -267.3387 264.4579
f 2113 2114 2115
v 2841.7066 -258.5462 264.4584
v 2829.7277 -267.5721 264.4634
v 2829.5912 -258.7438 264.4639
f 2116 2117 2118
v 2833.1856 -264.9144 273.1446
v 2829.5952 -258.7439 273.1466
v 2829.7316 -267.5722 273.1460
f 2119 2120 2121
v 2833.2347 -267.5026 273.1445
v 2833.1856 -264.9144 273.1446
v 2829.7316 -267.5722 273.1460
f 2122 2123 2124
v 2839.3649 -264.7970 273.1419
v 2839.4140 -267.3861 273.1417
v 2841.9140 -267.3388 273.1406
f 2125 2126 2127
v 2841.7106 -258.5463 273.1411
v 2833.1856 -264.9144 273.1446
v 2839.3649 -264.7970 273.1419
f 2128 2129 2130
v 2841.9140 -267.3388 273.1406
v 2841.7106 -258.5463 273.1411
v 2839.3649 -264.7970 273.1419
f 2131 2132 2133
v 2829.5952 -258.7439 273.1466
v 2833.1856 -264.9144 273.1446
v 2841.7106 -258.5463 273.1411
f 2134 2135 2136
v 2841.7106 -258.5463 273.1411
v 2841.9140 -267.3388 273.1406
v 2841.9101 -267.3387 264.4579
f 2137 2138 2139
v 2829.5952 -258.7439 273.1466
v 2829.7277 -267.5721 264.4634
v 2829.7316 -267.5722 273.1460
f 2140 2141 2142
v 2829.5952 -258.7439 273.1466
v 2829.5912 -258.7438 264.4639
v 2829.7277 -267.5721 264.4634
f 2143 2144 2145
v 2829.7316 -267.5722 273.1460
v 2826.6774 -267.6432 284.0411
v 2829.7443 -267.5723 279.1458
f 2146 2147 2148
v 2826.6741 -267.6430 276.7003
v 2829.7277 -267.5721 264.4634
v 2826.6685 -267.6428 264.4648
f 2149 2150 2151
v 2826.6774 -267.6432 284.0411
v 2829.7466 -267.5724 284.0397
v 2829.7443 -267.5723 279.1458
f 2152 2153 2154
v 2868.5951 -285.4898 264.4452
v 2869.0302 -307.8821 283.9772
v 2869.0212 -307.8817 264.4439
f 2155 2156 2157
v 2860.7018 -285.6397 264.4488
v 2868.6041 -285.4902 284.0015
v 2868.5951 -285.4898 264.4452
f 2158 2159 2160
v 2869.0212 -307.8817 264.4439
v 2925.8155 -306.8031 283.9514
v 2925.8063 -306.8026 264.4181
f 2161 2162 2163
v 2972.4129 -304.8808 283.4130
v 2968.3207 -304.9593 300.1623
v 2968.3127 -304.9589 283.4149
f 2164 2165 2166
v 2972.3560 -301.8817 283.4131
v 2972.4209 -304.8812 300.1604
v 2972.4129 -304.8808 283.4130
f 2167 2168 2169
v 2968.2558 -301.9597 283.4151
v 2972.3639 -301.8821 300.1605
v 2972.3560 -301.8817 283.4131
f 2170 2171 2172
v 2968.3127 -304.9589 283.4149
v 2968.2638 -301.9601 300.1624
v 2968.2558 -301.9597 283.4151
f 2173 2174 2175
v 3089.5126 -287.2345 292.7918
v 3102.7771 -286.9820 292.7853
v 3102.7747 -286.9820 287.8994
f 2176 2177 2178
v 3089.6653 -295.3977 287.8914
v 3089.5126 -287.2345 292.7918
v 3089.5101 -287.2344 287.9060
f 2179 2180 2181
v 3090.1418 -320.9758 287.8479
v 3089.9893 -312.7756 292.8812
v 3089.9868 -312.7755 287.8624
f 2182 2183 2184
v 3103.4164 -320.7234 287.8415
v 3090.1443 -320.9759 292.9097
v 3090.1418 -320.9758 287.8479
f 2185 2186 2187
v 3102.7771 -286.9820 292.7853
v 3103.4189 -320.7235 292.9033
v 3103.4164 -320.7234 287.8415
f 2188 2189 2190
v 3073.5161 -313.0884 287.8704
v 3073.4809 -311.1045 292.8824
v 3073.4785 -311.1043 287.8735
f 2191 2192 2193
v 3089.9868 -312.7755 287.8624
v 3073.5186 -313.0886 292.8893
v 3073.5161 -313.0884 287.8704
f 2194 2195 2196
v 2860.9962 -300.5328 288.8540
v 2827.3178 -301.1726 288.8690
v 2827.3156 -301.1725 284.0032
f 2197 2198 2199
v 2826.9934 -284.1419 288.8700
v 2860.6698 -283.5020 288.8550
v 2860.6646 -283.5019 284.0072
f 2200 2201 2202
v 2929.3452 -273.8350 289.2032
v 2950.8429 -273.4266 295.1931
v 2950.8401 -273.4265 289.1933
f 2203 2204 2205
v 2929.9895 -307.7183 289.2012
v 2929.3480 -273.8351 295.2030
v 2929.3452 -273.8350 289.2032
f 2206 2207 2208
v 2950.8401 -273.4265 289.1933
v 2951.3109 -298.0796 295.1917
v 2951.3081 -298.0796 289.1919
f 2209 2210 2211
v 2925.3870 -284.5452 283.8307
v 2924.7625 -249.4309 289.2064
v 2924.7509 -249.4306 264.4212
f 2212 2213 2214
v 2953.3010 -248.8832 283.4244
v 2954.2382 -298.0244 289.1905
v 2954.2355 -298.0242 283.4217
f 2215 2216 2217
v 2900.2810 -262.1959 264.4318
v 2917.6198 -261.8697 283.8352
v 2917.6107 -261.8693 264.4239
f 2218 2219 2220
v 2900.9071 -294.6752 264.4301
v 2900.2901 -262.1963 283.8432
v 2900.2810 -262.1959 264.4318
f 2221 2222 2223
v 2925.5609 -294.2591 264.4189
v 2900.9162 -294.6755 283.8414
v 2900.9071 -294.6752 264.4301
f 2224 2225 2226
v 2925.5626 -294.3722 264.4189
v 2925.5700 -294.2595 283.8302
v 2925.5609 -294.2591 264.4189
f 2227 2228 2229
v 2925.3736 -284.6447 264.4194
v 2925.3810 -284.5452 283.8307
v 2925.3719 -284.5448 264.4194
f 2230 2231 2232
v 2918.0824 -284.7642 264.4227
v 2925.3828 -284.6452 283.8307
v 2925.3736 -284.6447 264.4194
f 2233 2234 2235
v 2917.6107 -261.8693 264.4239
v 2918.0915 -284.7647 283.8340
v 2918.0824 -284.7642 264.4227
f 2236 2237 2238
v 2925.5666 -294.3722 264.4189
v 2925.5717 -294.3726 283.8302
v 2925.5626 -294.3722 264.4189
f 2239 2240 2241
v 2925.3719 -284.5448 264.4194
v 2925.3870 -284.5452 283.8307
v 2925.3779 -284.5448 264.4194
f 2242 2243 2244
v 2959.4377 -297.9252 283.4193
v 2959.6196 -307.1548 295.1874
v 2959.6140 -307.1546 283.4188
f 2245 2246 2247
v 2869.5032 -366.1772 264.4405
v 2869.5138 -366.1560 289.5356
v 2869.5023 -366.1552 264.4405
f 2248 2249 2250
v 2861.3034 -366.3091 289.5394
v 2860.8188 -340.7749 289.5410
v 2860.8187 -340.7749 289.4110
f 2251 2252 2253
v 2927.7823 -356.8141 291.7496
v 2927.6088 -347.6807 291.7502
v 2869.1863 -348.7914 291.7767
f 2254 2255 2256
v 2927.7812 -356.8140 289.5097
v 2869.3599 -357.9247 291.7761
v 2869.3588 -357.9247 289.5362
f 2257 2258 2259
v 2927.6077 -347.6807 289.5103
v 2927.7823 -356.8141 291.7496
v 2927.7812 -356.8140 289.5097
f 2260 2261 2262
v 2869.1853 -348.7912 289.5368
v 2927.6088 -347.6807 291.7502
v 2927.6077 -347.6807 289.5103
f 2263 2264 2265
v 2869.3588 -357.9247 289.5362
v 2869.1863 -348.7914 291.7767
v 2869.1853 -348.7912 289.5368
f 2266 2267 2268
v 2861.3103 -340.3661 283.9440
v 2861.3208 -340.7653 289.4108
v 2861.3183 -340.7651 283.9440
f 2269 2270 2271
v 2828.0740 -340.9981 283.9589
v 2861.3128 -340.3663 289.4108
v 2861.3103 -340.3661 283.9440
f 2272 2273 2274
v 3002.6136 -247.9142 276.2006
v 3000.6101 -247.9649 288.0172
v 3002.6193 -247.9143 288.0162
f 2275 2276 2277
v 3000.6101 -247.9649 288.0172
v 3002.6136 -247.9142 276.2006
v 3002.6107 -247.9141 270.2928
f 2278 2279 2280
v 2980.2056 -248.3651 272.0023
v 2985.3048 -248.2648 276.2087
v 2985.3040 -248.2647 270.3009
f 2281 2282 2283
v 2965.9444 -265.9470 288.0036
v 2965.6157 -248.6482 288.0335
v 2965.6135 -248.6451 283.4187
f 2284 2285 2286
v 3072.5005 -263.9221 283.3674
v 3016.2555 -264.9906 287.9800
v 3016.2532 -264.9905 283.3942
f 2287 2288 2289
v 3108.1700 -361.6426 284.0900
v 3074.3724 -362.2852 287.7863
v 3074.3706 -362.2851 284.1064
f 2290 2291 2292
v 3083.9446 -246.4458 270.2541
v 3075.5601 -246.5965 287.9814
v 3105.9625 -246.0486 270.2393
f 2293 2294 2295
v 3105.9712 -246.0489 287.9667
v 3105.9625 -246.0486 270.2393
v 3075.5601 -246.5965 287.9814
f 2296 2297 2298
v 3015.8973 -247.6616 270.2866
v 3017.8913 -247.6359 268.3166
v 3015.8944 -247.6615 264.3788
f 2299 2300 2301
v 3015.9058 -247.6619 288.0099
v 3017.9009 -247.6363 288.0089
v 3017.8913 -247.6359 268.3166
f 2302 2303 2304
v 2980.2133 -248.3574 288.0267
v 2980.2122 -248.3653 285.7188
v 2980.2110 -248.3663 283.4119
f 2305 2306 2307
v 2980.2133 -248.3574 288.0267
v 2980.2093 -248.3662 279.6090
v 2980.2056 -248.3651 272.0023
f 2308 2309 2310
v 3002.4531 -240.0166 264.3854
v 3015.7448 -239.7686 289.8213
v 3015.7325 -239.7682 264.3792
f 2311 2312 2313
v 3015.8709 -245.7628 288.0130
v 3002.5839 -246.0152 289.1872
v 3002.5834 -246.0153 288.0193
f 2314 2315 2316
v 2990.7072 -265.4762 283.4062
v 2965.9444 -265.9470 288.0036
v 2965.9422 -265.9469 283.4178
f 2317 2318 2319
v 2990.6910 -264.5082 287.9942
v 3016.2393 -264.0227 292.7030
v 3016.2370 -264.0226 287.9821
f 2320 2321 2322
v 3142.6908 -377.3001 264.3108
v 3142.3128 -357.4700 284.0876
v 3142.7007 -377.3008 284.0072
f 2323 2324 2325
v 3108.1266 -358.0565 284.1042
v 3108.1140 -357.9309 264.3290
v 3108.1239 -357.9314 284.1053
f 2326 2327 2328
v 3035.5387 -379.3374 264.3627
v 3035.2347 -363.0282 277.4584
v 3035.2284 -363.0277 264.3639
f 2329 2330 2331
v 3066.1310 -312.5206 284.3121
v 3067.0843 -362.4239 294.2135
v 3067.0793 -362.4236 284.1099
f 2332 2333 2334
v 3108.0989 -357.9325 284.1053
v 3108.1239 -357.9314 284.1053
v 3108.1140 -357.9309 264.3290
f 2335 2336 2337
v 3074.3724 -362.2852 287.7863
v 3073.3994 -311.1061 287.8735
v 3073.3977 -311.1061 284.3137
f 2338 2339 2340
v 3073.1075 -295.7465 287.8995
v 3072.5027 -263.9222 287.9532
v 3072.5005 -263.9221 283.3674
f 2341 2342 2343
v 2943.5022 -364.7677 277.5013
v 2942.5616 -314.8701 294.2749
v 2942.5537 -314.8696 277.5045
f 2344 2345 2346
v 2925.5765 -294.2597 289.2040
v 2925.3887 -284.6452 283.8307
v 2925.5757 -294.3726 283.8302
f 2347 2348 2349
v 2929.9870 -307.7182 283.9474
v 2925.8373 -307.7973 289.2032
v 2925.8349 -307.7971 283.9493
f 2350 2351 2352
v 2833.1856 -264.9144 273.1446
v 2839.3773 -264.7975 300.3380
v 2839.3649 -264.7970 273.1419
f 2353 2354 2355
v 2829.5912 -258.7438 264.4639
v 2841.7106 -258.5463 273.1411
v 2841.7066 -258.5462 264.4584
f 2356 2357 2358
v 2839.4295 -267.9193 284.0343
v 2833.2567 -268.0371 300.3406
v 2833.2492 -268.0367 284.0372
f 2359 2360 2361
v 2841.7106 -258.5463 273.1411
v 2841.9101 -267.3387 264.4579
v 2841.7066 -258.5462 264.4584
f 2362 2363 2364

g building_ID_AE1C9700-AAC3-4F0F-9EEA-31EE304367ED
v 2985.9042 -232.2834 264.9044
v 2980.2022 -248.3680 264.9065
v 2979.8970 -232.3695 264.9072
f 2365 2366 2367
v 2980.2022 -248.3680 264.9065
v 2985.9042 -232.2834 264.9044
v 2986.2075 -248.2520 264.9037
f 2368 2369 2370
v 2985.9086 -232.2836 274.1761
v 2979.9014 -232.3695 274.1789
v 2980.2067 -248.3682 274.1782
f 2371 2372 2373
v 2980.2067 -248.3682 274.1782
v 2986.2119 -248.2522 274.1754
v 2985.9086 -232.2836 274.1761
f 2374 2375 2376
v 2979.8970 -232.3695 264.9072
v 2979.9014 -232.3695 274.1789
v 2985.9086 -232.2836 274.1761
f 2377 2378 2379
v 2980.2022 -248.3680 264.9065
v 2980.2067 -248.3682 274.1782
v 2979.9014 -232.3695 274.1789
f 2380 2381 2382
v 2986.2075 -248.2520 264.9037
v 2986.2119 -248.2522 274.1754
v 2980.2067 -248.3682 274.1782
f 2383 2384 2385
v 2985.9042 -232.2834 264.9044
v 2985.9086 -232.2836 274.1761
v 2986.2119 -248.2522 274.1754
f 2386 2387 2388
v 2979.8970 -232.3695 264.9072
v 2985.9086 -232.2836 274.1761
v 2985.9042 -232.2834 264.9044
f 2389 2390 2391
v 2980.2022 -248.3680 264.9065
v 2979.9014 -232.3695 274.1789
v 2979.8970 -232.3695 264.9072
f 2392 2393 2394
v 2986.2075 -248.2520 264.9037
v 2980.2067 -248.3682 274.1782
v 2980.2022 -248.3680 264.9065
f 2395 2396 2397
v 2985.9042 -232.2834 264.9044
v 2986.2119 -248.2522 274.1754
v 2986.2075 -248.2520 264.9037
f 2398 2399 2400

g building_ID_3FFFFCBD-2643-40D4-BDE6-191487F12573
v 3040.7352 -145.4534 251.2569
v 3040.7022 -145.0873 251.2569
v 3040.7475 -144.9774 251.2569
f 2401 2402 2403
v 3040.7352 -145.4534 251.2569
v 3044.1432 -145.0535 251.2553
v 3040.7001 -148.1083 251.2568
f 2404 2405 2406
v 3040.7001 -148.1083 251.2568
v 3044.1432 -145.0535 251.2553
v 3042.3130 -148.1346 251.2561
f 2407 2408 2409
v 3044.1432 -145.0535 251.2553
v 3040.7352 -145.4534 251.2569
v 3040.7475 -144.9774 251.2569
f 2410 2411 2412
v 3042.3130 -148.1346 251.2561
v 3044.1432 -145.0535 251.2553
v 3044.0929 -148.1634 251.2552
f 2413 2414 2415
v 3042.4183 -145.0149 259.2798
v 3040.7510 -144.9775 258.5406
v 3040.7388 -145.4534 258.5426
f 2416 2417 2418
v 3040.7510 -144.9775 258.5406
v 3040.7057 -145.0874 258.5226
v 3040.7388 -145.4534 258.5426
f 2419 2420 2421
v 3042.4183 -145.0149 259.2798
v 3040.7388 -145.4534 258.5426
v 3040.7036 -148.1083 258.5655
f 2422 2423 2424
v 3040.7036 -148.1083 258.5655
v 3042.3169 -148.1346 259.2798
v 3042.4183 -145.0149 259.2798
f 2425 2426 2427
v 3044.0964 -148.1633 258.3749
v 3044.1467 -145.0535 258.4009
v 3042.4183 -145.0149 259.2798
f 2428 2429 2430
v 3042.3169 -148.1346 259.2798
v 3044.0964 -148.1633 258.3749
v 3042.4183 -145.0149 259.2798
f 2431 2432 2433
v 3040.7475 -144.9774 251.2569
v 3040.7022 -145.0873 251.2569
v 3040.7057 -145.0874 258.5226
f 2434 2435 2436
v 3040.7057 -145.0874 258.5226
v 3040.7510 -144.9775 258.5406
v 3040.7475 -144.9774 251.2569
f 2437 2438 2439
v 3040.7352 -145.4534 251.2569
v 3040.7057 -145.0874 258.5226
v 3040.7022 -145.0873 251.2569
f 2440 2441 2442
v 3040.7001 -148.1083 251.2568
v 3040.7036 -148.1083 258.5655
v 3040.7352 -145.4534 251.2569
f 2443 2444 2445
v 3044.1432 -145.0535 251.2553
v 3044.1467 -145.0535 258.4009
v 3044.0964 -148.1633 258.3749
f 2446 2447 2448
v 3044.1432 -145.0535 251.2553
v 3040.7475 -144.9774 251.2569
v 3040.7510 -144.9775 258.5406
f 2449 2450 2451
v 3044.1432 -145.0535 251.2553
v 3040.7510 -144.9775 258.5406
v 3044.1467 -145.0535 258.4009
f 2452 2453 2454
v 3040.7510 -144.9775 258.5406
v 3042.4183 -145.0149 259.2798
v 3044.1467 -145.0535 258.4009
f 2455 2456 2457
v 3044.0948 -148.1634 255.2490
v 3044.0964 -148.1633 258.3749
v 3042.3169 -148.1346 259.2798
f 2458 2459 2460
v 3042.3130 -148.1346 251.2561
v 3044.0929 -148.1634 251.2552
v 3044.0948 -148.1634 255.2490
f 2461 2462 2463
v 3044.0948 -148.1634 255.2490
v 3042.3169 -148.1346 259.2798
v 3040.7036 -148.1083 258.5655
f 2464 2465 2466
v 3040.7036 -148.1083 258.5655
v 3040.7001 -148.1083 251.2568
v 3044.0948 -148.1634 255.2490
f 2467 2468 2469
v 3040.7001 -148.1083 251.2568
v 3042.3130 -148.1346 251.2561
v 3044.0948 -148.1634 255.2490
f 2470 2471 2472
v 3040.7388 -145.4534 258.5426
v 3040.7057 -145.0874 258.5226
v 3040.7352 -145.4534 251.2569
f 2473 2474 2475
v 3040.7036 -148.1083 258.5655
v 3040.7388 -145.4534 258.5426
v 3040.7352 -145.4534 251.2569
f 2476 2477 2478
v 3044.1432 -145.0535 251.2553
v 3044.0964 -148.1633 258.3749
v 3044.0948 -148.1634 255.2490
f 2479 2480 2481
v 3044.0948 -148.1634 255.2490
v 3044.0929 -148.1634 251.2552
v 3044.1432 -145.0535 251.2553
f 2482 2483 2484

g building_ID_DE73C7DE-2B9E-4757-82CF-17F8F0FB5E33
v 2999.1946 -140.6973 251.4156
v 2999.9755 -138.1384 251.4153
v 3000.3484 -140.4034 251.4151
f 2485 2486 2487
v 2999.9755 -138.1384 251.4153
v 3001.7947 -137.6943 251.4144
v 3000.3484 -140.4034 251.4151
f 2488 2489 2490
v 3002.5836 -140.7134 251.4140
v 3000.5771 -141.2530 251.4149
v 3000.3484 -140.4034 251.4151
f 2491 2492 2493
v 3000.3484 -140.4034 251.4151
v 3001.7947 -137.6943 251.4144
v 3002.5836 -140.7134 251.4140
f 2494 2495 2496
v 2996.6453 -137.1226 251.4169
v 2999.9755 -138.1384 251.4153
v 2997.6907 -141.0793 251.4163
f 2497 2498 2499
v 2999.9755 -138.1384 251.4153
v 2996.6453 -137.1226 251.4169
v 2999.5043 -136.3522 251.4156
f 2500 2501 2502
v 2997.6907 -141.0793 251.4163
v 2999.9755 -138.1384 251.4153
v 2999.1946 -140.6973 251.4156
f 2503 2504 2505
v 2999.9788 -138.1384 258.4271
v 2999.5077 -136.3522 258.4114
v 2998.1953 -136.7056 257.4670
f 2506 2507 2508
v 3000.3517 -140.4034 258.2949
v 3000.4944 -138.0128 258.7959
v 2999.9788 -138.1384 258.4271
f 2509 2510 2511
v 2999.9788 -138.1384 258.4271
v 2998.1953 -136.7056 257.4670
v 2999.1975 -140.6973 257.4664
f 2512 2513 2514
v 2999.9788 -138.1384 258.4271
v 2999.1975 -140.6973 257.4664
v 3000.3517 -140.4034 258.2949
f 2515 2516 2517
v 3000.3517 -140.4034 258.2949
v 3000.5804 -141.2530 258.3057
v 3001.2612 -141.0698 258.7954
f 2518 2519 2520
v 3000.4944 -138.0128 258.7959
v 3000.3517 -140.4034 258.2949
v 3001.2612 -141.0698 258.7954
f 2521 2522 2523
v 3000.4944 -138.0128 258.7959
v 3002.5866 -140.7134 257.7988
v 3001.7978 -137.6944 257.8212
f 2524 2525 2526
v 3001.2612 -141.0698 258.7954
v 3002.5866 -140.7134 257.7988
v 3000.4944 -138.0128 258.7959
f 2527 2528 2529
v 2999.1975 -140.6973 257.4664
v 2996.6482 -137.1225 257.4477
v 2997.6935 -141.0793 257.4471
f 2530 2531 2532
v 2998.1953 -136.7056 257.4670
v 2996.6482 -137.1225 257.4477
v 2999.1975 -140.6973 257.4664
f 2533 2534 2535
v 3000.3517 -140.4034 258.2949
v 3000.3501 -140.4034 254.8500
v 3000.5771 -141.2530 251.4149
f 2536 2537 2538
v 3000.3484 -140.4034 251.4151
v 3000.5771 -141.2530 251.4149
v 3000.3501 -140.4034 254.8500
f 2539 2540 2541
v 2999.9755 -138.1384 251.4153
v 2999.5043 -136.3522 251.4156
v 2999.5077 -136.3522 258.4114
f 2542 2543 2544
v 3002.5836 -140.7134 251.4140
v 3001.7947 -137.6943 251.4144
v 3002.5866 -140.7134 257.7988
f 2545 2546 2547
v 3001.7947 -137.6943 251.4144
v 3001.7978 -137.6944 257.8212
v 3002.5866 -140.7134 257.7988
f 2548 2549 2550
v 2997.6921 -141.0793 254.4322
v 2996.6482 -137.1225 257.4477
v 2996.6453 -137.1226 251.4169
f 2551 2552 2553
v 2997.6907 -141.0793 251.4163
v 2997.6921 -141.0793 254.4322
v 2996.6453 -137.1226 251.4169
f 2554 2555 2556
v 2996.6453 -137.1226 251.4169
v 2996.6482 -137.1225 257.4477
v 2998.1953 -136.7056 257.4670
f 2557 2558 2559
v 2999.5043 -136.3522 251.4156
v 2996.6453 -137.1226 251.4169
v 2999.5077 -136.3522 258.4114
f 2560 2561 2562
v 2998.1953 -136.7056 257.4670
v 2999.5077 -136.3522 258.4114
v 2996.6453 -137.1226 251.4169
f 2563 2564 2565
v 3000.3501 -140.4034 254.8500
v 2999.1975 -140.6973 257.4664
v 2997.6935 -141.0793 257.4471
f 2566 2567 2568
v 3000.3517 -140.4034 258.2949
v 2999.1975 -140.6973 257.4664
v 3000.3501 -140.4034 254.8500
f 2569 2570 2571
v 2997.6921 -141.0793 254.4322
v 3000.3501 -140.4034 254.8500
v 2997.6935 -141.0793 257.4471
f 2572 2573 2574
v 3000.3484 -140.4034 251.4151
v 3000.3501 -140.4034 254.8500
v 2997.6921 -141.0793 254.4322
f 2575 2576 2577
v 2997.6921 -141.0793 254.4322
v 2999.1946 -140.6973 251.4156
v 3000.3484 -140.4034 251.4151
f 2578 2579 2580
v 2997.6921 -141.0793 254.4322
v 2997.6907 -141.0793 251.4163
v 2999.1946 -140.6973 251.4156
f 2581 2582 2583
v 3000.5804 -141.2530 258.3057
v 3002.5866 -140.7134 257.7988
v 3001.2612 -141.0698 258.7954
f 2584 2585 2586
v 3000.5771 -141.2530 251.4149
v 3002.5836 -140.7134 251.4140
v 3000.5804 -141.2530 258.3057
f 2587 2588 2589
v 3002.5866 -140.7134 257.7988
v 3000.5804 -141.2530 258.3057
v 3002.5836 -140.7134 251.4140
f 2590 2591 2592
v 3001.7947 -137.6943 251.4144
v 2999.9755 -138.1384 251.4153
v 3001.7978 -137.6944 257.8212
f 2593 2594 2595
v 3000.4944 -138.0128 258.7959
v 3001.7978 -137.6944 257.8212
v 2999.9788 -138.1384 258.4271
f 2596 2597 2598
v 2999.9755 -138.1384 251.4153
v 2999.9788 -138.1384 258.4271
v 3001.7978 -137.6944 257.8212
f 2599 2600 2601
v 3000.5804 -141.2530 258.3057
v 3000.3517 -140.4034 258.2949
v 3000.5771 -141.2530 251.4149
f 2602 2603 2604
v 2999.5077 -136.3522 258.4114
v 2999.9788 -138.1384 258.4271
v 2999.9755 -138.1384 251.4153
f 2605 2606 2607
v 2997.6921 -141.0793 254.4322
v 2997.6935 -141.0793 257.4471
v 2996.6482 -137.1225 257.4477
f 2608 2609 2610
