# Grid Center: 2618200, 1264800
# Global Anchor: 7.64977475454284, 47.53283995868075, 0.0

g building_ID_737ABF93-44B7-4190-8B5B-641F9924BC8C
v 2171.4961 -105.8851 255.2504
v 2166.8795 -101.6749 255.2520
v 2171.4868 -101.5152 255.2504
f 1 2 3
v 2171.4961 -105.8851 255.2504
v 2167.0688 -106.0323 255.2519
v 2166.8795 -101.6749 255.2520
f 4 5 6
v 2171.4959 -104.7932 260.5412
v 2167.4412 -103.7493 261.9396
v 2167.5412 -106.0176 261.9395
f 7 8 9
v 2167.4412 -103.7493 261.9396
v 2171.4908 -102.6071 260.5093
v 2167.3499 -101.6581 261.9396
f 10 11 12
v 2171.4980 -105.8851 260.5572
v 2171.4959 -104.7932 260.5412
v 2167.5412 -106.0176 261.9395
f 13 14 15
v 2167.4412 -103.7493 261.9396
v 2171.4959 -104.7932 260.5412
v 2171.4908 -102.6071 260.5093
f 16 17 18
v 2171.4908 -102.6071 260.5093
v 2171.4887 -101.5152 260.4943
v 2167.3499 -101.6581 261.9396
f 19 20 21
v 2171.4887 -101.5152 260.4943
v 2171.4961 -105.8851 255.2504
v 2171.4879 -101.5152 258.5033
f 22 23 24
v 2171.4961 -105.8851 255.2504
v 2171.4959 -104.7932 260.5412
v 2171.4980 -105.8851 260.5572
f 25 26 27
v 2167.0688 -106.0323 255.2519
v 2167.0688 -106.0323 255.2579
v 2166.8795 -101.6749 255.2580
f 28 29 30
v 2154.3747 -104.3212 264.2089
v 2167.4421 -103.7492 264.2045
v 2167.3502 -101.6581 262.8586
f 31 32 33
v 2167.3502 -101.6581 262.8586
v 2154.3001 -102.1101 262.7860
v 2154.3747 -104.3212 264.2089
f 34 35 36
v 2167.4421 -103.7492 264.2045
v 2154.3747 -104.3212 264.2089
v 2154.4465 -106.4535 262.9649
f 37 38 39
v 2154.4465 -106.4535 262.9649
v 2167.5415 -106.0175 262.8805
v 2167.4421 -103.7492 264.2045
f 40 41 42
v 2154.3716 -104.3213 255.2623
v 2166.8795 -101.6749 255.2580
v 2167.0688 -106.0323 255.2579
f 43 44 45
v 2166.8795 -101.6749 255.2580
v 2154.3716 -104.3213 255.2623
v 2154.2975 -102.1102 255.2623
f 46 47 48
v 2154.4438 -106.4535 255.2622
v 2154.3716 -104.3213 255.2623
v 2167.0688 -106.0323 255.2579
f 49 50 51
v 2154.3001 -102.1101 262.7860
v 2167.3502 -101.6581 262.8586
v 2167.3499 -101.6581 261.9396
f 52 53 54
v 2154.2975 -102.1102 255.2623
v 2154.3001 -102.1101 262.7860
v 2166.8795 -101.6749 255.2580
f 55 56 57
v 2154.3001 -102.1101 262.7860
v 2171.4879 -101.5152 258.5033
v 2166.8795 -101.6749 255.2580
f 58 59 60
v 2171.4879 -101.5152 258.5033
v 2154.3001 -102.1101 262.7860
v 2167.3499 -101.6581 261.9396
f 61 62 63
v 2166.8795 -101.6749 255.2520
v 2166.8795 -101.6749 255.2580
v 2171.4868 -101.5152 255.2504
f 64 65 66
v 2171.4868 -101.5152 255.2504
v 2166.8795 -101.6749 255.2580
v 2171.4879 -101.5152 258.5033
f 67 68 69
v 2171.4887 -101.5152 260.4943
v 2171.4879 -101.5152 258.5033
v 2167.3499 -101.6581 261.9396
f 70 71 72
v 2167.5412 -106.0176 261.9395
v 2171.4961 -105.8851 255.2504
v 2171.4980 -105.8851 260.5572
f 73 74 75
v 2154.4465 -106.4535 262.9649
v 2167.5412 -106.0176 261.9395
v 2167.5415 -106.0175 262.8805
f 76 77 78
v 2171.4961 -105.8851 255.2504
v 2154.4465 -106.4535 262.9649
v 2167.0688 -106.0323 255.2579
f 79 80 81
v 2167.0688 -106.0323 255.2579
v 2154.4465 -106.4535 262.9649
v 2154.4438 -106.4535 255.2622
f 82 83 84
v 2167.0688 -106.0323 255.2579
v 2167.0688 -106.0323 255.2519
v 2171.4961 -105.8851 255.2504
f 85 86 87
v 2154.4465 -106.4535 262.9649
v 2171.4961 -105.8851 255.2504
v 2167.5412 -106.0176 261.9395
f 88 89 90
v 2154.3001 -102.1101 262.7860
v 2154.4465 -106.4535 262.9649
v 2154.3747 -104.3212 264.2089
f 91 92 93
v 2154.3716 -104.3213 255.2623
v 2154.4465 -106.4535 262.9649
v 2154.3001 -102.1101 262.7860
f 94 95 96
v 2154.4465 -106.4535 262.9649
v 2154.3716 -104.3213 255.2623
v 2154.4438 -106.4535 255.2622
f 97 98 99
v 2154.3001 -102.1101 262.7860
v 2154.2975 -102.1102 255.2623
v 2154.3716 -104.3213 255.2623
f 100 101 102
v 2167.4412 -103.7493 261.9396
v 2167.3499 -101.6581 261.9396
v 2167.3502 -101.6581 262.8586
f 103 104 105
v 2167.4421 -103.7492 264.2045
v 2167.4412 -103.7493 261.9396
v 2167.3502 -101.6581 262.8586
f 106 107 108
v 2167.4412 -103.7493 261.9396
v 2167.5415 -106.0175 262.8805
v 2167.5412 -106.0176 261.9395
f 109 110 111
v 2167.4421 -103.7492 264.2045
v 2167.5415 -106.0175 262.8805
v 2167.4412 -103.7493 261.9396
f 112 113 114
v 2171.4961 -105.8851 255.2504
v 2171.4887 -101.5152 260.4943
v 2171.4908 -102.6071 260.5093
f 115 116 117
v 2171.4908 -102.6071 260.5093
v 2171.4959 -104.7932 260.5412
v 2171.4961 -105.8851 255.2504
f 118 119 120
v 2171.4879 -101.5152 258.5033
v 2171.4961 -105.8851 255.2504
v 2171.4868 -101.5152 255.2504
f 121 122 123
v 2167.0688 -106.0323 255.2519
v 2166.8795 -101.6749 255.2580
v 2166.8795 -101.6749 255.2520
f 124 125 126
