# Grid Center: 2618000, 1264800
# Global Anchor: 7.64977475454284, 47.53283995868075, 0.0

g building_ID_E236DC89-3B7D-4B1A-8F2F-8E66B31A187C
v 1910.0370 -74.6855 256.4277
v 1909.0304 -77.5237 256.4280
v 1909.8631 -74.6361 256.4278
f 1 2 3
v 1909.2343 -77.5824 256.4279
v 1909.0304 -77.5237 256.4280
v 1910.0370 -74.6855 256.4277
f 4 5 6
v 1910.0370 -74.6855 256.4277
v 1922.5920 -84.3030 256.4238
v 1909.2343 -77.5824 256.4279
f 7 8 9
v 1924.3727 -84.8157 256.4233
v 1922.5920 -84.3030 256.4238
v 1911.8782 -68.2646 256.4272
f 10 11 12
v 1911.8782 -68.2646 256.4272
v 1922.5920 -84.3030 256.4238
v 1910.0370 -74.6855 256.4277
f 13 14 15
v 1922.5920 -84.3030 256.4238
v 1906.4611 -87.3677 256.4286
v 1909.2343 -77.5824 256.4279
f 16 17 18
v 1920.5562 -91.3625 256.4243
v 1906.4611 -87.3677 256.4286
v 1922.5920 -84.3030 256.4238
f 19 20 21
v 1932.2334 -87.0818 256.4208
v 1924.5217 -85.1691 256.4232
v 1924.3727 -84.8157 256.4233
f 22 23 24
v 1924.3727 -84.8157 256.4233
v 1924.5217 -85.1691 256.4232
v 1924.2898 -85.1035 256.4233
f 25 26 27
v 1924.3727 -84.8157 256.4233
v 1911.8782 -68.2646 256.4272
v 1944.0640 -77.4926 256.4173
f 28 29 30
v 1924.5217 -85.1691 256.4232
v 1930.7487 -92.2287 256.4211
v 1923.1144 -90.1363 256.4236
f 31 32 33
v 1924.5217 -85.1691 256.4232
v 1932.2334 -87.0818 256.4208
v 1930.7487 -92.2287 256.4211
f 34 35 36
v 1934.3198 -87.6844 256.4201
v 1939.1585 -94.5092 256.4186
v 1932.8774 -92.6984 256.4205
f 37 38 39
v 1932.2334 -87.0818 256.4208
v 1944.0640 -77.4926 256.4173
v 1934.3198 -87.6844 256.4201
f 40 41 42
v 1944.0640 -77.4926 256.4173
v 1939.1585 -94.5092 256.4186
v 1934.3198 -87.6844 256.4201
f 43 44 45
v 1932.2334 -87.0818 256.4208
v 1924.3727 -84.8157 256.4233
v 1944.0640 -77.4926 256.4173
f 46 47 48
v 1932.2376 -87.0816 269.5894
v 1923.1179 -90.1362 267.6532
v 1926.8521 -91.1592 267.6700
f 49 50 51
v 1932.2376 -87.0816 269.5894
v 1926.8521 -91.1592 267.6700
v 1930.7523 -92.2286 267.6877
f 52 53 54
v 1924.3768 -84.8156 269.5918
v 1924.2939 -85.1033 269.4858
v 1924.5258 -85.1690 269.4857
f 55 56 57
v 1924.3768 -84.8156 269.5918
v 1924.5258 -85.1690 269.4857
v 1932.2376 -87.0816 269.5894
f 58 59 60
v 1924.5258 -85.1690 269.4857
v 1923.1179 -90.1362 267.6532
v 1932.2376 -87.0816 269.5894
f 61 62 63
v 1932.2376 -87.0816 269.5894
v 1944.0682 -77.4925 269.5859
v 1924.3768 -84.8156 269.5918
f 64 65 66
v 1911.8823 -68.2644 269.5957
v 1922.5962 -84.3028 269.5923
v 1924.3768 -84.8156 269.5918
f 67 68 69
v 1934.3240 -87.6842 269.5887
v 1944.0682 -77.4925 269.5859
v 1932.2376 -87.0816 269.5894
f 70 71 72
v 1934.3240 -87.6842 269.5887
v 1932.8815 -92.6983 269.5891
v 1939.1626 -94.5091 269.5872
f 73 74 75
v 1934.3240 -87.6842 269.5887
v 1939.1626 -94.5091 269.5872
v 1944.0682 -77.4925 269.5859
f 76 77 78
v 1911.8823 -68.2644 269.5957
v 1924.3768 -84.8156 269.5918
v 1944.0682 -77.4925 269.5859
f 79 80 81
v 1910.0411 -74.6853 269.5962
v 1909.2383 -77.5822 269.5964
v 1922.5962 -84.3028 269.5923
f 82 83 84
v 1909.0345 -77.5236 269.5965
v 1910.0411 -74.6853 269.5962
v 1909.8672 -74.6359 269.5963
f 85 86 87
v 1906.4652 -87.3676 269.5971
v 1920.5603 -91.3623 269.5928
v 1922.5962 -84.3028 269.5923
f 88 89 90
v 1910.0411 -74.6853 269.5962
v 1909.0345 -77.5236 269.5965
v 1909.2383 -77.5822 269.5964
f 91 92 93
v 1922.5962 -84.3028 269.5923
v 1909.2383 -77.5822 269.5964
v 1906.4652 -87.3676 269.5971
f 94 95 96
v 1911.8823 -68.2644 269.5957
v 1910.0411 -74.6853 269.5962
v 1922.5962 -84.3028 269.5923
f 97 98 99
v 1923.1144 -90.1363 256.4236
v 1926.8521 -91.1592 267.6700
v 1923.1179 -90.1362 267.6532
f 100 101 102
v 1930.7523 -92.2286 267.6877
v 1926.8521 -91.1592 267.6700
v 1930.7487 -92.2287 256.4211
f 103 104 105
v 1930.7487 -92.2287 256.4211
v 1926.8521 -91.1592 267.6700
v 1923.1144 -90.1363 256.4236
f 106 107 108
v 1932.2334 -87.0818 256.4208
v 1932.2376 -87.0816 269.5894
v 1930.7523 -92.2286 267.6877
f 109 110 111
v 1932.2334 -87.0818 256.4208
v 1930.7523 -92.2286 267.6877
v 1930.7487 -92.2287 256.4211
f 112 113 114
v 1924.2898 -85.1035 256.4233
v 1924.2939 -85.1033 269.4858
v 1924.3727 -84.8157 256.4233
f 115 116 117
v 1924.3768 -84.8156 269.5918
v 1924.3727 -84.8157 256.4233
v 1924.2939 -85.1033 269.4858
f 118 119 120
v 1924.2939 -85.1033 269.4858
v 1924.2898 -85.1035 256.4233
v 1924.5258 -85.1690 269.4857
f 121 122 123
v 1909.2343 -77.5824 256.4279
v 1909.2383 -77.5822 269.5964
v 1909.0345 -77.5236 269.5965
f 124 125 126
v 1906.4611 -87.3677 256.4286
v 1906.4652 -87.3676 269.5971
v 1909.2383 -77.5822 269.5964
f 127 128 129
v 1920.5562 -91.3625 256.4243
v 1920.5603 -91.3623 269.5928
v 1906.4652 -87.3676 269.5971
f 130 131 132
v 1922.5920 -84.3030 256.4238
v 1922.5962 -84.3028 269.5923
v 1920.5603 -91.3623 269.5928
f 133 134 135
v 1924.3727 -84.8157 256.4233
v 1924.3768 -84.8156 269.5918
v 1922.5962 -84.3028 269.5923
f 136 137 138
v 1934.3198 -87.6844 256.4201
v 1934.3240 -87.6842 269.5887
v 1932.2376 -87.0816 269.5894
f 139 140 141
v 1932.8774 -92.6984 256.4205
v 1932.8815 -92.6983 269.5891
v 1934.3240 -87.6842 269.5887
f 142 143 144
v 1939.1585 -94.5092 256.4186
v 1939.1626 -94.5091 269.5872
v 1932.8815 -92.6983 269.5891
f 145 146 147
v 1944.0640 -77.4926 256.4173
v 1944.0682 -77.4925 269.5859
v 1939.1626 -94.5091 269.5872
f 148 149 150
v 1911.8782 -68.2646 256.4272
v 1911.8823 -68.2644 269.5957
v 1944.0682 -77.4925 269.5859
f 151 152 153
v 1910.0370 -74.6855 256.4277
v 1910.0411 -74.6853 269.5962
v 1911.8823 -68.2644 269.5957
f 154 155 156
v 1909.8631 -74.6361 256.4278
v 1909.8672 -74.6359 269.5963
v 1910.0411 -74.6853 269.5962
f 157 158 159
v 1909.0304 -77.5237 256.4280
v 1909.0345 -77.5236 269.5965
v 1909.8672 -74.6359 269.5963
f 160 161 162
v 1923.1179 -90.1362 267.6532
v 1924.5258 -85.1690 269.4857
v 1923.1144 -90.1363 256.4236
f 163 164 165
v 1923.1144 -90.1363 256.4236
v 1924.5258 -85.1690 269.4857
v 1924.5217 -85.1691 256.4232
f 166 167 168
v 1924.2898 -85.1035 256.4233
v 1924.5217 -85.1691 256.4232
v 1924.5258 -85.1690 269.4857
f 169 170 171
v 1909.2343 -77.5824 256.4279
v 1909.0345 -77.5236 269.5965
v 1909.0304 -77.5237 256.4280
f 172 173 174
v 1906.4611 -87.3677 256.4286
v 1909.2383 -77.5822 269.5964
v 1909.2343 -77.5824 256.4279
f 175 176 177
v 1920.5562 -91.3625 256.4243
v 1906.4652 -87.3676 269.5971
v 1906.4611 -87.3677 256.4286
f 178 179 180
v 1922.5920 -84.3030 256.4238
v 1920.5603 -91.3623 269.5928
v 1920.5562 -91.3625 256.4243
f 181 182 183
v 1924.3727 -84.8157 256.4233
v 1922.5962 -84.3028 269.5923
v 1922.5920 -84.3030 256.4238
f 184 185 186
v 1934.3198 -87.6844 256.4201
v 1932.2376 -87.0816 269.5894
v 1932.2334 -87.0818 256.4208
f 187 188 189
v 1932.8774 -92.6984 256.4205
v 1934.3240 -87.6842 269.5887
v 1934.3198 -87.6844 256.4201
f 190 191 192
v 1939.1585 -94.5092 256.4186
v 1932.8815 -92.6983 269.5891
v 1932.8774 -92.6984 256.4205
f 193 194 195
v 1944.0640 -77.4926 256.4173
v 1939.1626 -94.5091 269.5872
v 1939.1585 -94.5092 256.4186
f 196 197 198
v 1911.8782 -68.2646 256.4272
v 1944.0682 -77.4925 269.5859
v 1944.0640 -77.4926 256.4173
f 199 200 201
v 1910.0370 -74.6855 256.4277
v 1911.8823 -68.2644 269.5957
v 1911.8782 -68.2646 256.4272
f 202 203 204
v 1909.8631 -74.6361 256.4278
v 1910.0411 -74.6853 269.5962
v 1910.0370 -74.6855 256.4277
f 205 206 207
v 1909.0304 -77.5237 256.4280
v 1909.8672 -74.6359 269.5963
v 1909.8631 -74.6361 256.4278
f 208 209 210

g building_ID_B7A53E11-1C2F-488C-B4C7-BFF3AA582A22
v 1980.6317 -79.0243 269.9766
v 1982.9350 -82.8674 271.8137
v 1983.8200 -80.0118 269.9756
f 211 212 213
v 1976.1207 -80.7552 271.8159
v 1980.6317 -79.0243 269.9766
v 1979.9822 -78.8215 269.9768
f 214 215 216
v 1982.9350 -82.8674 271.8137
v 1980.6317 -79.0243 269.9766
v 1976.1207 -80.7552 271.8159
f 217 218 219
v 1970.1707 -78.9103 271.8178
v 1972.4385 -82.4703 270.0000
v 1976.1207 -80.7552 271.8159
f 220 221 222
v 1970.1707 -78.9103 271.8178
v 1969.3552 -81.5080 270.0050
v 1972.4385 -82.4703 270.0000
f 223 224 225
v 1969.4039 -89.8942 267.4990
v 1967.1144 -88.6490 267.8627
v 1966.9701 -89.1086 267.5207
f 226 227 228
v 1967.1144 -88.6490 267.8627
v 1969.4039 -89.8942 267.4990
v 1970.2700 -87.0985 269.5777
f 229 230 231
v 1982.6442 -72.5298 267.5481
v 1982.6449 -72.5298 269.5740
v 1981.8006 -75.2545 269.5742
f 232 233 234
v 1975.4844 -70.2797 267.5294
v 1974.6317 -73.0333 269.5765
v 1975.4850 -70.2796 269.5764
f 235 236 237
v 1981.8006 -75.2545 269.5742
v 1983.1136 -72.7750 267.6150
v 1982.6442 -72.5298 267.5481
f 238 239 240
v 1985.4497 -73.4613 267.5892
v 1983.1136 -72.7750 267.6150
v 1981.8006 -75.2545 269.5742
f 241 242 243
v 1983.1136 -72.7750 267.6150
v 1983.1398 -72.6862 267.5490
v 1982.6442 -72.5298 267.5481
f 244 245 246
v 1975.4844 -70.2797 267.5294
v 1973.1104 -69.5354 267.5241
v 1972.9501 -70.0479 267.9061
f 247 248 249
v 1972.9501 -70.0479 267.9061
v 1974.6317 -73.0333 269.5765
v 1975.4844 -70.2797 267.5294
f 250 251 252
v 1983.1100 -72.7753 256.5364
v 1983.1363 -72.6863 256.5364
v 1983.1398 -72.6862 267.5490
f 253 254 255
v 1983.1109 -72.7752 259.3063
v 1983.1398 -72.6862 267.5490
v 1983.1127 -72.7751 264.8451
f 256 257 258
v 1977.1933 -66.7015 256.2843
v 1984.0923 -68.9029 256.2821
v 1976.0183 -70.4483 256.2846
f 259 260 261
v 1982.1970 -75.0157 256.2826
v 1976.0183 -70.4483 256.2846
v 1984.0923 -68.9029 256.2821
f 262 263 264
v 1975.5627 -70.3050 256.2847
v 1976.0183 -70.4483 256.2846
v 1974.8122 -72.7260 256.2849
f 265 266 267
v 1982.1970 -75.0157 256.2826
v 1974.8122 -72.7260 256.2849
v 1976.0183 -70.4483 256.2846
f 268 269 270
v 1977.1933 -66.7015 256.2843
v 1977.1956 -66.7014 263.3531
v 1984.0946 -68.9028 263.3509
f 271 272 273
v 1976.0183 -70.4483 256.2846
v 1976.0206 -70.4482 263.3534
v 1977.1933 -66.7015 256.2843
f 274 275 276
v 1977.1956 -66.7014 263.3531
v 1976.0206 -70.4482 263.3534
v 1979.0200 -71.3912 263.3524
f 277 278 279
v 1984.0946 -68.9028 263.3509
v 1977.1956 -66.7014 263.3531
v 1979.0200 -71.3912 263.3524
f 280 281 282
v 1984.0946 -68.9028 263.3509
v 1982.6429 -72.5299 263.3513
v 1982.9406 -72.6237 263.3512
f 283 284 285
v 1979.0200 -71.3912 263.3524
v 1982.6429 -72.5299 263.3513
v 1984.0946 -68.9028 263.3509
f 286 287 288
v 1974.8122 -72.7260 256.2849
v 1974.8123 -72.7260 256.5389
v 1975.5628 -70.3050 256.5387
f 289 290 291
v 1982.1970 -75.0157 256.2826
v 1982.1971 -75.0157 256.5366
v 1974.8123 -72.7260 256.5389
f 292 293 294
v 1984.0923 -68.9029 256.2821
v 1984.0946 -68.9028 263.3509
v 1982.9384 -72.6238 256.5364
f 295 296 297
v 1982.9406 -72.6237 263.3512
v 1982.9384 -72.6238 256.5364
v 1984.0946 -68.9028 263.3509
f 298 299 300
v 1982.1970 -75.0157 256.2826
v 1984.0923 -68.9029 256.2821
v 1982.9384 -72.6238 256.5364
f 301 302 303
v 1982.9384 -72.6238 256.5364
v 1982.1971 -75.0157 256.5366
v 1982.1970 -75.0157 256.2826
f 304 305 306
v 1970.1707 -78.9103 271.8178
v 1976.1207 -80.7552 271.8159
v 1974.1012 -76.9908 269.9736
f 307 308 309
v 1970.1707 -78.9103 271.8178
v 1973.4658 -76.7932 269.9738
v 1971.0648 -76.0577 269.9796
f 310 311 312
v 1974.1012 -76.9908 269.9736
v 1973.4658 -76.7932 269.9738
v 1970.1707 -78.9103 271.8178
f 313 314 315
v 1978.9350 -84.4987 269.9890
v 1976.1207 -80.7552 271.8159
v 1978.2636 -84.2889 269.9902
f 316 317 318
v 1982.9350 -82.8674 271.8137
v 1978.9350 -84.4987 269.9890
v 1982.1214 -85.4862 269.9880
f 319 320 321
v 1976.1207 -80.7552 271.8159
v 1978.9350 -84.4987 269.9890
v 1982.9350 -82.8674 271.8137
f 322 323 324
v 1969.3552 -81.5080 270.0050
v 1971.7709 -82.2625 269.5783
v 1972.4385 -82.4703 270.0000
f 325 326 327
v 1971.7709 -82.2625 269.5783
v 1969.3552 -81.5080 270.0050
v 1970.7726 -81.9509 268.8767
f 328 329 330
v 1969.3552 -81.5080 270.0050
v 1969.3547 -81.5081 268.4111
v 1970.7726 -81.9509 268.8767
f 331 332 333
v 1970.7726 -81.9509 268.8767
v 1969.3547 -81.5081 268.4111
v 1969.3545 -81.5081 267.8791
f 334 335 336
v 1977.4410 -89.3207 269.5754
v 1976.5466 -92.2002 267.4347
v 1979.6179 -93.1914 267.4078
f 337 338 339
v 1981.8006 -75.2545 269.5742
v 1982.6449 -72.5298 269.5740
v 1979.9822 -78.8215 269.9768
f 340 341 342
v 1979.0227 -71.3911 271.8151
v 1979.9822 -78.8215 269.9768
v 1982.6449 -72.5298 269.5740
f 343 344 345
v 1979.0227 -71.3911 271.8151
v 1976.1207 -80.7552 271.8159
v 1979.9822 -78.8215 269.9768
f 346 347 348
v 1981.8006 -75.2545 269.5742
v 1979.9822 -78.8215 269.9768
v 1980.6316 -79.0243 269.5746
f 349 350 351
v 1972.9342 -91.0335 271.8167
v 1978.2636 -84.2889 269.9902
v 1976.1207 -80.7552 271.8159
f 352 353 354
v 1977.4410 -89.3207 269.5754
v 1978.9349 -84.4987 269.5750
v 1978.2636 -84.2889 269.9902
f 355 356 357
v 1977.4410 -89.3207 269.5754
v 1978.2636 -84.2889 269.9902
v 1976.5473 -92.2003 269.5756
f 358 359 360
v 1972.9342 -91.0335 271.8167
v 1976.5473 -92.2003 269.5756
v 1978.2636 -84.2889 269.9902
f 361 362 363
v 1970.2700 -87.0985 269.5777
v 1969.4046 -89.8941 269.5779
v 1972.4385 -82.4703 270.0000
f 364 365 366
v 1972.9342 -91.0335 271.8167
v 1972.4385 -82.4703 270.0000
v 1969.4046 -89.8941 269.5779
f 367 368 369
v 1972.9342 -91.0335 271.8167
v 1976.1207 -80.7552 271.8159
v 1972.4385 -82.4703 270.0000
f 370 371 372
v 1972.4385 -82.4703 270.0000
v 1971.7709 -82.2625 269.5783
v 1970.2700 -87.0985 269.5777
f 373 374 375
v 1976.0227 -70.4481 269.9171
v 1974.6317 -73.0333 269.5765
v 1974.1012 -76.9908 269.9736
f 376 377 378
v 1974.1012 -76.9908 269.9736
v 1974.6317 -73.0333 269.5765
v 1973.4656 -76.7931 269.5768
f 379 380 381
v 1979.0227 -71.3911 271.8151
v 1974.1012 -76.9908 269.9736
v 1976.1207 -80.7552 271.8159
f 382 383 384
v 1976.0227 -70.4481 269.9171
v 1975.5670 -70.3049 269.6292
v 1974.6317 -73.0333 269.5765
f 385 386 387
v 1975.5670 -70.3049 269.6292
v 1975.4850 -70.2796 269.5764
v 1974.6317 -73.0333 269.5765
f 388 389 390
v 1979.0227 -71.3911 271.8151
v 1976.0227 -70.4481 269.9171
v 1974.1012 -76.9908 269.9736
f 391 392 393
v 1982.1205 -85.4863 267.3341
v 1979.6179 -93.1914 267.4078
v 1979.7218 -93.2247 267.3347
f 394 395 396
v 1978.9349 -84.4987 269.5750
v 1977.4410 -89.3207 269.5754
v 1982.1205 -85.4863 267.3341
f 397 398 399
v 1979.6179 -93.1914 267.4078
v 1982.1205 -85.4863 267.3341
v 1977.4410 -89.3207 269.5754
f 400 401 402
v 1981.8006 -75.2545 269.5742
v 1980.6316 -79.0243 269.5746
v 1983.8191 -80.0119 267.3337
f 403 404 405
v 1981.8006 -75.2545 269.5742
v 1983.8191 -80.0119 267.3337
v 1985.4497 -73.4613 267.5892
f 406 407 408
v 1985.8153 -73.5693 267.3331
v 1985.4497 -73.4613 267.5892
v 1983.8191 -80.0119 267.3337
f 409 410 411
v 1976.5466 -92.2002 267.4347
v 1977.4410 -89.3207 269.5754
v 1976.5473 -92.2003 269.5756
f 412 413 414
v 1969.4039 -89.8942 267.4990
v 1969.4046 -89.8941 269.5779
v 1970.2700 -87.0985 269.5777
f 415 416 417
v 1980.6316 -79.0243 269.5746
v 1979.9822 -78.8215 269.9768
v 1980.6317 -79.0243 269.9766
f 418 419 420
v 1983.8191 -80.0119 267.3337
v 1980.6316 -79.0243 269.5746
v 1983.8200 -80.0118 269.9756
f 421 422 423
v 1980.6317 -79.0243 269.9766
v 1983.8200 -80.0118 269.9756
v 1980.6316 -79.0243 269.5746
f 424 425 426
v 1971.9625 -76.3331 268.5224
v 1971.0640 -76.0578 267.8917
v 1971.0648 -76.0577 269.9796
f 427 428 429
v 1973.4656 -76.7931 269.5768
v 1971.9625 -76.3331 268.5224
v 1971.0648 -76.0577 269.9796
f 430 431 432
v 1974.1012 -76.9908 269.9736
v 1973.4656 -76.7931 269.5768
v 1973.4658 -76.7932 269.9738
f 433 434 435
v 1971.0648 -76.0577 269.9796
v 1973.4658 -76.7932 269.9738
v 1973.4656 -76.7931 269.5768
f 436 437 438
v 1978.9349 -84.4987 269.5750
v 1982.1205 -85.4863 267.3341
v 1982.1214 -85.4862 269.9880
f 439 440 441
v 1978.2636 -84.2889 269.9902
v 1978.9349 -84.4987 269.5750
v 1978.9350 -84.4987 269.9890
f 442 443 444
v 1982.1214 -85.4862 269.9880
v 1978.9350 -84.4987 269.9890
v 1978.9349 -84.4987 269.5750
f 445 446 447
v 1983.8191 -80.0119 267.3337
v 1983.8200 -80.0118 269.9756
v 1982.9350 -82.8674 271.8137
f 448 449 450
v 1985.8118 -73.5694 256.5355
v 1985.8153 -73.5693 267.3331
v 1983.8191 -80.0119 267.3337
f 451 452 453
v 1983.8191 -80.0119 267.3337
v 1982.9350 -82.8674 271.8137
v 1982.1214 -85.4862 269.9880
f 454 455 456
v 1979.7183 -93.2248 256.5371
v 1985.8118 -73.5694 256.5355
v 1982.1205 -85.4863 267.3341
f 457 458 459
v 1982.1205 -85.4863 267.3341
v 1985.8118 -73.5694 256.5355
v 1983.8191 -80.0119 267.3337
f 460 461 462
v 1979.7218 -93.2247 267.3347
v 1979.7183 -93.2248 256.5371
v 1982.1205 -85.4863 267.3341
f 463 464 465
v 1982.1214 -85.4862 269.9880
v 1982.1205 -85.4863 267.3341
v 1983.8191 -80.0119 267.3337
f 466 467 468
v 1979.6179 -93.1914 267.4078
v 1972.9293 -91.0337 256.5393
v 1979.7218 -93.2247 267.3347
f 469 470 471
v 1976.5466 -92.2002 267.4347
v 1972.9293 -91.0337 256.5393
v 1979.6179 -93.1914 267.4078
f 472 473 474
v 1979.7183 -93.2248 256.5371
v 1979.7218 -93.2247 267.3347
v 1972.9293 -91.0337 256.5393
f 475 476 477
v 1972.9293 -91.0337 256.5393
v 1976.5466 -92.2002 267.4347
v 1966.9666 -89.1088 256.5411
f 478 479 480
v 1972.9342 -91.0335 271.8167
v 1969.4039 -89.8942 267.4990
v 1976.5473 -92.2003 269.5756
f 481 482 483
v 1969.4046 -89.8941 269.5779
v 1969.4039 -89.8942 267.4990
v 1972.9342 -91.0335 271.8167
f 484 485 486
v 1966.9666 -89.1088 256.5411
v 1969.4039 -89.8942 267.4990
v 1966.9701 -89.1086 267.5207
f 487 488 489
v 1966.9666 -89.1088 256.5411
v 1976.5466 -92.2002 267.4347
v 1969.4039 -89.8942 267.4990
f 490 491 492
v 1976.5473 -92.2003 269.5756
v 1969.4039 -89.8942 267.4990
v 1976.5466 -92.2002 267.4347
f 493 494 495
v 1983.1127 -72.7751 264.8451
v 1985.4497 -73.4613 267.5892
v 1985.8153 -73.5693 267.3331
f 496 497 498
v 1985.4497 -73.4613 267.5892
v 1983.1127 -72.7751 264.8451
v 1983.1136 -72.7750 267.6150
f 499 500 501
v 1983.1127 -72.7751 264.8451
v 1985.8153 -73.5693 267.3331
v 1983.1109 -72.7752 259.3063
f 502 503 504
v 1983.1100 -72.7753 256.5364
v 1983.1109 -72.7752 259.3063
v 1985.4461 -73.4615 256.5356
f 505 506 507
v 1985.8118 -73.5694 256.5355
v 1985.4461 -73.4615 256.5356
v 1983.1109 -72.7752 259.3063
f 508 509 510
v 1985.8118 -73.5694 256.5355
v 1983.1109 -72.7752 259.3063
v 1985.8153 -73.5693 267.3331
f 511 512 513
v 1969.3547 -81.5081 268.4111
v 1969.3552 -81.5080 270.0050
v 1971.0640 -76.0578 267.8917
f 514 515 516
v 1969.3545 -81.5081 267.8791
v 1966.9701 -89.1086 267.5207
v 1967.1144 -88.6490 267.8627
f 517 518 519
v 1969.3547 -81.5081 268.4111
v 1971.0640 -76.0578 267.8917
v 1969.3545 -81.5081 267.8791
f 520 521 522
v 1966.9666 -89.1088 256.5411
v 1966.9701 -89.1086 267.5207
v 1969.3545 -81.5081 267.8791
f 523 524 525
v 1969.3552 -81.5080 270.0050
v 1970.1707 -78.9103 271.8178
v 1971.0640 -76.0578 267.8917
f 526 527 528
v 1971.0640 -76.0578 267.8917
v 1972.9465 -70.0481 256.5395
v 1969.3545 -81.5081 267.8791
f 529 530 531
v 1971.0640 -76.0578 267.8917
v 1972.9501 -70.0479 267.9061
v 1973.1104 -69.5354 267.5241
f 532 533 534
v 1972.9465 -70.0481 256.5395
v 1971.0640 -76.0578 267.8917
v 1973.1104 -69.5354 267.5241
f 535 536 537
v 1973.1104 -69.5354 267.5241
v 1973.1069 -69.5355 256.5395
v 1972.9465 -70.0481 256.5395
f 538 539 540
v 1966.9666 -89.1088 256.5411
v 1969.3545 -81.5081 267.8791
v 1972.9465 -70.0481 256.5395
f 541 542 543
v 1971.0640 -76.0578 267.8917
v 1970.1707 -78.9103 271.8178
v 1971.0648 -76.0577 269.9796
f 544 545 546
v 1982.1971 -75.0157 256.5366
v 1982.9384 -72.6238 256.5364
v 1983.1100 -72.7753 256.5364
f 547 548 549
v 1985.4461 -73.4615 256.5356
v 1982.1971 -75.0157 256.5366
v 1983.1100 -72.7753 256.5364
f 550 551 552
v 1982.9384 -72.6238 256.5364
v 1983.1363 -72.6863 256.5364
v 1983.1100 -72.7753 256.5364
f 553 554 555
v 1972.9465 -70.0481 256.5395
v 1975.4808 -70.2798 256.5388
v 1974.8123 -72.7260 256.5389
f 556 557 558
v 1975.5628 -70.3050 256.5387
v 1974.8123 -72.7260 256.5389
v 1975.4808 -70.2798 256.5388
f 559 560 561
v 1973.1069 -69.5355 256.5395
v 1975.4808 -70.2798 256.5388
v 1972.9465 -70.0481 256.5395
f 562 563 564
v 1982.1971 -75.0157 256.5366
v 1985.4461 -73.4615 256.5356
v 1985.8118 -73.5694 256.5355
f 565 566 567
v 1972.9293 -91.0337 256.5393
v 1982.1971 -75.0157 256.5366
v 1979.7183 -93.2248 256.5371
f 568 569 570
v 1979.7183 -93.2248 256.5371
v 1982.1971 -75.0157 256.5366
v 1985.8118 -73.5694 256.5355
f 571 572 573
v 1972.9465 -70.0481 256.5395
v 1974.8123 -72.7260 256.5389
v 1966.9666 -89.1088 256.5411
f 574 575 576
v 1974.8123 -72.7260 256.5389
v 1972.9293 -91.0337 256.5393
v 1966.9666 -89.1088 256.5411
f 577 578 579
v 1972.9293 -91.0337 256.5393
v 1974.8123 -72.7260 256.5389
v 1982.1971 -75.0157 256.5366
f 580 581 582
v 1967.1144 -88.6490 267.8627
v 1970.7726 -81.9509 268.8767
v 1969.3545 -81.5081 267.8791
f 583 584 585
v 1970.2700 -87.0985 269.5777
v 1971.7709 -82.2625 269.5783
v 1970.7726 -81.9509 268.8767
f 586 587 588
v 1967.1144 -88.6490 267.8627
v 1970.2700 -87.0985 269.5777
v 1970.7726 -81.9509 268.8767
f 589 590 591
v 1971.9625 -76.3331 268.5224
v 1974.6317 -73.0333 269.5765
v 1972.9501 -70.0479 267.9061
f 592 593 594
v 1974.6317 -73.0333 269.5765
v 1971.9625 -76.3331 268.5224
v 1973.4656 -76.7931 269.5768
f 595 596 597
v 1972.9501 -70.0479 267.9061
v 1971.0640 -76.0578 267.8917
v 1971.9625 -76.3331 268.5224
f 598 599 600
v 1976.0206 -70.4482 263.3534
v 1973.1104 -69.5354 267.5241
v 1975.4844 -70.2797 267.5294
f 601 602 603
v 1976.0206 -70.4482 263.3534
v 1975.4844 -70.2797 267.5294
v 1979.0200 -71.3912 263.3524
f 604 605 606
v 1975.5670 -70.3049 269.6292
v 1976.0227 -70.4481 269.9171
v 1975.4844 -70.2797 267.5294
f 607 608 609
v 1975.4850 -70.2796 269.5764
v 1975.5670 -70.3049 269.6292
v 1975.4844 -70.2797 267.5294
f 610 611 612
v 1973.1069 -69.5355 256.5395
v 1973.1104 -69.5354 267.5241
v 1976.0206 -70.4482 263.3534
f 613 614 615
v 1976.0206 -70.4482 263.3534
v 1975.4808 -70.2798 256.5388
v 1973.1069 -69.5355 256.5395
f 616 617 618
v 1976.0183 -70.4483 256.2846
v 1975.5628 -70.3050 256.5387
v 1976.0206 -70.4482 263.3534
f 619 620 621
v 1976.0206 -70.4482 263.3534
v 1975.5628 -70.3050 256.5387
v 1975.4808 -70.2798 256.5388
f 622 623 624
v 1975.5627 -70.3050 256.2847
v 1975.5628 -70.3050 256.5387
v 1976.0183 -70.4483 256.2846
f 625 626 627
v 1979.0227 -71.3911 271.8151
v 1979.0200 -71.3912 263.3524
v 1976.0227 -70.4481 269.9171
f 628 629 630
v 1982.6449 -72.5298 269.5740
v 1982.6442 -72.5298 267.5481
v 1979.0227 -71.3911 271.8151
f 631 632 633
v 1979.0227 -71.3911 271.8151
v 1982.6442 -72.5298 267.5481
v 1979.0200 -71.3912 263.3524
f 634 635 636
v 1983.1398 -72.6862 267.5490
v 1982.6429 -72.5299 263.3513
v 1982.6442 -72.5298 267.5481
f 637 638 639
v 1982.6442 -72.5298 267.5481
v 1982.6429 -72.5299 263.3513
v 1979.0200 -71.3912 263.3524
f 640 641 642
v 1982.9384 -72.6238 256.5364
v 1983.1398 -72.6862 267.5490
v 1983.1363 -72.6863 256.5364
f 643 644 645
v 1983.1398 -72.6862 267.5490
v 1982.9384 -72.6238 256.5364
v 1982.9406 -72.6237 263.3512
f 646 647 648
v 1982.9406 -72.6237 263.3512
v 1982.6429 -72.5299 263.3513
v 1983.1398 -72.6862 267.5490
f 649 650 651
v 1975.4844 -70.2797 267.5294
v 1976.0227 -70.4481 269.9171
v 1979.0200 -71.3912 263.3524
f 652 653 654
v 1983.1100 -72.7753 256.5364
v 1983.1398 -72.6862 267.5490
v 1983.1109 -72.7752 259.3063
f 655 656 657
v 1983.1398 -72.6862 267.5490
v 1983.1136 -72.7750 267.6150
v 1983.1127 -72.7751 264.8451
f 658 659 660
v 1977.1933 -66.7015 256.2843
v 1984.0946 -68.9028 263.3509
v 1984.0923 -68.9029 256.2821
f 661 662 663
v 1976.0206 -70.4482 263.3534
v 1977.1956 -66.7014 263.3531
v 1977.1933 -66.7015 256.2843
f 664 665 666
v 1974.8122 -72.7260 256.2849
v 1975.5628 -70.3050 256.5387
v 1975.5627 -70.3050 256.2847
f 667 668 669
v 1982.1970 -75.0157 256.2826
v 1974.8123 -72.7260 256.5389
v 1974.8122 -72.7260 256.2849
f 670 671 672

g building_ID_87C66C53-A529-475A-AB00-687CC5F70517
v 2028.5766 -71.4281 252.3022
v 2025.7883 -70.7786 252.3031
v 2027.0687 -65.4301 252.3027
f 673 674 675
v 2028.5766 -71.4281 252.3022
v 2030.0008 -66.1140 252.3018
v 2032.1143 -72.2525 252.3011
f 676 677 678
v 2030.0008 -66.1140 252.3018
v 2033.3627 -66.8969 252.3007
v 2032.1143 -72.2525 252.3011
f 679 680 681
v 2027.0687 -65.4301 252.3027
v 2030.0008 -66.1140 252.3018
v 2028.5766 -71.4281 252.3022
f 682 683 684
v 2025.7917 -70.7785 262.4647
v 2030.0050 -66.1138 265.0793
v 2027.0719 -65.4300 262.3283
f 685 686 687
v 2030.0050 -66.1138 265.0793
v 2025.7917 -70.7785 262.4647
v 2028.5808 -71.4279 265.0797
f 688 689 690
v 2032.7416 -69.5741 261.8405
v 2028.5808 -71.4279 265.0797
v 2032.1175 -72.2524 261.7577
f 691 692 693
v 2032.7416 -69.5741 261.8405
v 2033.3658 -66.8968 261.9233
v 2030.0050 -66.1138 265.0793
f 694 695 696
v 2028.5808 -71.4279 265.0797
v 2032.7416 -69.5741 261.8405
v 2030.0050 -66.1138 265.0793
f 697 698 699
v 2025.7892 -70.7786 254.8430
v 2025.7917 -70.7785 262.4647
v 2027.0695 -65.4300 254.7076
f 700 701 702
v 2027.0695 -65.4300 254.7076
v 2025.7883 -70.7786 252.3031
v 2025.7892 -70.7786 254.8430
f 703 704 705
v 2025.7883 -70.7786 252.3031
v 2027.0695 -65.4300 254.7076
v 2027.0687 -65.4301 252.3027
f 706 707 708
v 2033.3634 -66.8969 254.7066
v 2032.7416 -69.5741 261.8405
v 2032.1175 -72.2524 261.7577
f 709 710 711
v 2032.1143 -72.2525 252.3011
v 2033.3627 -66.8969 252.3007
v 2033.3634 -66.8969 254.7066
f 712 713 714
v 2032.1143 -72.2525 252.3011
v 2033.3634 -66.8969 254.7066
v 2032.1155 -72.2524 255.7440
f 715 716 717
v 2033.3634 -66.8969 254.7066
v 2030.0008 -66.1140 252.3018
v 2027.0695 -65.4300 254.7076
f 718 719 720
v 2027.0695 -65.4300 254.7076
v 2030.0008 -66.1140 252.3018
v 2027.0687 -65.4301 252.3027
f 721 722 723
v 2030.0008 -66.1140 252.3018
v 2033.3634 -66.8969 254.7066
v 2033.3627 -66.8969 252.3007
f 724 725 726
v 2033.3658 -66.8968 261.9233
v 2027.0695 -65.4300 254.7076
v 2027.0719 -65.4300 262.3283
f 727 728 729
v 2033.3658 -66.8968 261.9233
v 2027.0719 -65.4300 262.3283
v 2030.0050 -66.1138 265.0793
f 730 731 732
v 2033.3658 -66.8968 261.9233
v 2033.3634 -66.8969 254.7066
v 2027.0695 -65.4300 254.7076
f 733 734 735
v 2025.7917 -70.7785 262.4647
v 2032.1175 -72.2524 261.7577
v 2028.5808 -71.4279 265.0797
f 736 737 738
v 2032.1155 -72.2524 255.7440
v 2032.1175 -72.2524 261.7577
v 2025.7917 -70.7785 262.4647
f 739 740 741
v 2032.1155 -72.2524 255.7440
v 2025.7892 -70.7786 254.8430
v 2028.5766 -71.4281 252.3022
f 742 743 744
v 2025.7892 -70.7786 254.8430
v 2032.1155 -72.2524 255.7440
v 2025.7917 -70.7785 262.4647
f 745 746 747
v 2028.5766 -71.4281 252.3022
v 2032.1143 -72.2525 252.3011
v 2032.1155 -72.2524 255.7440
f 748 749 750
v 2025.7892 -70.7786 254.8430
v 2025.7883 -70.7786 252.3031
v 2028.5766 -71.4281 252.3022
f 751 752 753
v 2027.0695 -65.4300 254.7076
v 2025.7917 -70.7785 262.4647
v 2027.0719 -65.4300 262.3283
f 754 755 756
v 2032.7416 -69.5741 261.8405
v 2033.3634 -66.8969 254.7066
v 2033.3658 -66.8968 261.9233
f 757 758 759
v 2033.3634 -66.8969 254.7066
v 2032.1175 -72.2524 261.7577
v 2032.1155 -72.2524 255.7440
f 760 761 762

g building_ID_737ABF93-44B7-4190-8B5B-641F9924BC8C
v 2171.4961 -105.8851 255.2504
v 2166.8795 -101.6749 255.2520
v 2171.4868 -101.5152 255.2504
f 763 764 765
v 2171.4961 -105.8851 255.2504
v 2167.0688 -106.0323 255.2519
v 2166.8795 -101.6749 255.2520
f 766 767 768
v 2171.4959 -104.7932 260.5412
v 2167.4412 -103.7493 261.9396
v 2167.5412 -106.0176 261.9395
f 769 770 771
v 2167.4412 -103.7493 261.9396
v 2171.4908 -102.6071 260.5093
v 2167.3499 -101.6581 261.9396
f 772 773 774
v 2171.4980 -105.8851 260.5572
v 2171.4959 -104.7932 260.5412
v 2167.5412 -106.0176 261.9395
f 775 776 777
v 2167.4412 -103.7493 261.9396
v 2171.4959 -104.7932 260.5412
v 2171.4908 -102.6071 260.5093
f 778 779 780
v 2171.4908 -102.6071 260.5093
v 2171.4887 -101.5152 260.4943
v 2167.3499 -101.6581 261.9396
f 781 782 783
v 2171.4887 -101.5152 260.4943
v 2171.4961 -105.8851 255.2504
v 2171.4879 -101.5152 258.5033
f 784 785 786
v 2171.4961 -105.8851 255.2504
v 2171.4959 -104.7932 260.5412
v 2171.4980 -105.8851 260.5572
f 787 788 789
v 2167.0688 -106.0323 255.2519
v 2167.0688 -106.0323 255.2579
v 2166.8795 -101.6749 255.2580
f 790 791 792
v 2154.3747 -104.3212 264.2089
v 2167.4421 -103.7492 264.2045
v 2167.3502 -101.6581 262.8586
f 793 794 795
v 2167.3502 -101.6581 262.8586
v 2154.3001 -102.1101 262.7860
v 2154.3747 -104.3212 264.2089
f 796 797 798
v 2167.4421 -103.7492 264.2045
v 2154.3747 -104.3212 264.2089
v 2154.4465 -106.4535 262.9649
f 799 800 801
v 2154.4465 -106.4535 262.9649
v 2167.5415 -106.0175 262.8805
v 2167.4421 -103.7492 264.2045
f 802 803 804
v 2154.3716 -104.3213 255.2623
v 2166.8795 -101.6749 255.2580
v 2167.0688 -106.0323 255.2579
f 805 806 807
v 2166.8795 -101.6749 255.2580
v 2154.3716 -104.3213 255.2623
v 2154.2975 -102.1102 255.2623
f 808 809 810
v 2154.4438 -106.4535 255.2622
v 2154.3716 -104.3213 255.2623
v 2167.0688 -106.0323 255.2579
f 811 812 813
v 2154.3001 -102.1101 262.7860
v 2167.3502 -101.6581 262.8586
v 2167.3499 -101.6581 261.9396
f 814 815 816
v 2154.2975 -102.1102 255.2623
v 2154.3001 -102.1101 262.7860
v 2166.8795 -101.6749 255.2580
f 817 818 819
v 2154.3001 -102.1101 262.7860
v 2171.4879 -101.5152 258.5033
v 2166.8795 -101.6749 255.2580
f 820 821 822
v 2171.4879 -101.5152 258.5033
v 2154.3001 -102.1101 262.7860
v 2167.3499 -101.6581 261.9396
f 823 824 825
v 2166.8795 -101.6749 255.2520
v 2166.8795 -101.6749 255.2580
v 2171.4868 -101.5152 255.2504
f 826 827 828
v 2171.4868 -101.5152 255.2504
v 2166.8795 -101.6749 255.2580
v 2171.4879 -101.5152 258.5033
f 829 830 831
v 2171.4887 -101.5152 260.4943
v 2171.4879 -101.5152 258.5033
v 2167.3499 -101.6581 261.9396
f 832 833 834
v 2167.5412 -106.0176 261.9395
v 2171.4961 -105.8851 255.2504
v 2171.4980 -105.8851 260.5572
f 835 836 837
v 2154.4465 -106.4535 262.9649
v 2167.5412 -106.0176 261.9395
v 2167.5415 -106.0175 262.8805
f 838 839 840
v 2171.4961 -105.8851 255.2504
v 2154.4465 -106.4535 262.9649
v 2167.0688 -106.0323 255.2579
f 841 842 843
v 2167.0688 -106.0323 255.2579
v 2154.4465 -106.4535 262.9649
v 2154.4438 -106.4535 255.2622
f 844 845 846
v 2167.0688 -106.0323 255.2579
v 2167.0688 -106.0323 255.2519
v 2171.4961 -105.8851 255.2504
f 847 848 849
v 2154.4465 -106.4535 262.9649
v 2171.4961 -105.8851 255.2504
v 2167.5412 -106.0176 261.9395
f 850 851 852
v 2154.3001 -102.1101 262.7860
v 2154.4465 -106.4535 262.9649
v 2154.3747 -104.3212 264.2089
f 853 854 855
v 2154.3716 -104.3213 255.2623
v 2154.4465 -106.4535 262.9649
v 2154.3001 -102.1101 262.7860
f 856 857 858
v 2154.4465 -106.4535 262.9649
v 2154.3716 -104.3213 255.2623
v 2154.4438 -106.4535 255.2622
f 859 860 861
v 2154.3001 -102.1101 262.7860
v 2154.2975 -102.1102 255.2623
v 2154.3716 -104.3213 255.2623
f 862 863 864
v 2167.4412 -103.7493 261.9396
v 2167.3499 -101.6581 261.9396
v 2167.3502 -101.6581 262.8586
f 865 866 867
v 2167.4421 -103.7492 264.2045
v 2167.4412 -103.7493 261.9396
v 2167.3502 -101.6581 262.8586
f 868 869 870
v 2167.4412 -103.7493 261.9396
v 2167.5415 -106.0175 262.8805
v 2167.5412 -106.0176 261.9395
f 871 872 873
v 2167.4421 -103.7492 264.2045
v 2167.5415 -106.0175 262.8805
v 2167.4412 -103.7493 261.9396
f 874 875 876
v 2171.4961 -105.8851 255.2504
v 2171.4887 -101.5152 260.4943
v 2171.4908 -102.6071 260.5093
f 877 878 879
v 2171.4908 -102.6071 260.5093
v 2171.4959 -104.7932 260.5412
v 2171.4961 -105.8851 255.2504
f 880 881 882
v 2171.4879 -101.5152 258.5033
v 2171.4961 -105.8851 255.2504
v 2171.4868 -101.5152 255.2504
f 883 884 885
v 2167.0688 -106.0323 255.2519
v 2166.8795 -101.6749 255.2580
v 2166.8795 -101.6749 255.2520
f 886 887 888
