# Grid Center: 2619600, 1264800
# Global Anchor: 7.64977475454284, 47.53283995868075, 0.0

g building_ID_C489AA8C-DB1F-4FB6-8E18-82E763FA2C87
v 3822.0737 -149.0728 279.6439
v 3821.6084 -149.1895 279.6442
v 3823.0169 -154.8013 280.4961
f 1 2 3
v 3894.1872 -130.9819 279.6007
v 3822.0737 -149.0728 279.6439
v 3895.5968 -136.5936 280.4527
f 4 5 6
v 3823.0169 -154.8013 280.4961
v 3895.5968 -136.5936 280.4527
v 3822.0737 -149.0728 279.6439
f 7 8 9
v 3821.6061 -149.1895 275.9463
v 3821.6084 -149.1895 279.6442
v 3822.0737 -149.0728 279.6439
f 10 11 12
v 3824.9525 -160.3544 279.6418
v 3823.0169 -154.8013 280.4961
v 3824.4411 -160.4830 279.6421
f 13 14 15
v 3895.5968 -136.5936 280.4527
v 3824.9525 -160.3544 279.6418
v 3897.0210 -142.2743 279.5987
f 16 17 18
v 3823.0169 -154.8013 280.4961
v 3824.9525 -160.3544 279.6418
v 3895.5968 -136.5936 280.4527
f 19 20 21
v 3824.9448 -160.3543 266.9793
v 3824.9451 -160.3543 267.5773
v 3824.4338 -160.4830 267.5776
f 22 23 24
v 3821.6007 -149.1895 266.9816
v 3821.6011 -149.1895 267.5796
v 3822.0663 -149.0728 267.5793
f 25 26 27
v 3895.5963 -136.5935 279.5997
v 3905.3184 -143.9735 279.5936
v 3909.2170 -142.9949 279.5912
f 28 29 30
v 3897.0210 -142.2743 279.5987
v 3907.4457 -152.4511 279.5921
v 3905.3184 -143.9735 279.5936
f 31 32 33
v 3905.3184 -143.9735 279.5936
v 3895.5963 -136.5935 279.5997
v 3897.0210 -142.2743 279.5987
f 34 35 36
v 3909.2170 -142.9949 279.5912
v 3894.1872 -130.9819 279.6007
v 3895.5963 -136.5935 279.5997
f 37 38 39
v 3894.1872 -130.9819 279.6007
v 3909.2170 -142.9949 279.5912
v 3884.5265 -44.5720 279.6079
f 40 41 42
v 3887.6887 -157.4072 279.6040
v 3907.4457 -152.4511 279.5921
v 3897.0210 -142.2743 279.5987
f 43 44 45
v 3890.7252 -169.5142 279.6018
v 3824.9554 -160.3684 279.6418
v 3807.7033 -190.4089 279.6513
f 46 47 48
v 3887.6887 -157.4072 279.6040
v 3824.9554 -160.3684 279.6418
v 3890.7252 -169.5142 279.6018
f 49 50 51
v 3824.9525 -160.3544 279.6418
v 3824.9554 -160.3684 279.6418
v 3887.6887 -157.4072 279.6040
f 52 53 54
v 3887.6887 -157.4072 279.6040
v 3897.0210 -142.2743 279.5987
v 3824.9525 -160.3544 279.6418
f 55 56 57
v 3807.7033 -190.4089 279.6513
v 3824.9554 -160.3684 279.6418
v 3813.6110 -163.1999 279.6485
f 58 59 60
v 3810.7050 -151.6183 279.6506
v 3807.7033 -190.4089 279.6513
v 3813.6110 -163.1999 279.6485
f 61 62 63
v 3894.1872 -130.9819 279.6007
v 3818.9699 -136.6506 279.6460
v 3821.9985 -148.7796 279.6440
f 64 65 66
v 3816.1303 -125.3312 279.6480
v 3894.1872 -130.9819 279.6007
v 3813.5155 -112.9253 279.6499
f 67 68 69
v 3894.1872 -130.9819 279.6007
v 3816.1303 -125.3312 279.6480
v 3818.9699 -136.6506 279.6460
f 70 71 72
v 3813.5155 -112.9253 279.6499
v 3804.9329 -128.1412 279.6546
v 3816.1303 -125.3312 279.6480
f 73 74 75
v 3810.2710 -101.5127 279.6520
v 3811.4084 -104.3818 279.6513
v 3884.5265 -44.5720 279.6079
f 76 77 78
v 3894.1872 -130.9819 279.6007
v 3811.4084 -104.3818 279.6513
v 3813.5155 -112.9253 279.6499
f 79 80 81
v 3811.4084 -104.3818 279.6513
v 3810.2710 -101.5127 279.6520
v 3811.0151 -104.4787 279.6515
f 82 83 84
v 3810.2710 -101.5127 279.6520
v 3884.5265 -44.5720 279.6079
v 3789.5004 -68.5825 279.6649
f 85 86 87
v 3822.0737 -149.0728 279.6439
v 3894.1872 -130.9819 279.6007
v 3821.9985 -148.7796 279.6440
f 88 89 90
v 3807.7726 -139.4596 279.6527
v 3810.7050 -151.6183 279.6506
v 3821.9985 -148.7796 279.6440
f 91 92 93
v 3807.7726 -139.4596 279.6527
v 3821.9985 -148.7796 279.6440
v 3818.9699 -136.6506 279.6460
f 94 95 96
v 3789.5790 -118.8292 279.6640
v 3810.7050 -151.6183 279.6506
v 3807.7726 -139.4596 279.6527
f 97 98 99
v 3804.9329 -128.1412 279.6546
v 3813.5155 -112.9253 279.6499
v 3789.5790 -118.8292 279.6640
f 100 101 102
v 3807.7726 -139.4596 279.6527
v 3804.9329 -128.1412 279.6546
v 3789.5790 -118.8292 279.6640
f 103 104 105
v 3798.5564 -104.4514 279.6589
v 3810.2710 -101.5127 279.6520
v 3789.5004 -68.5825 279.6649
f 106 107 108
v 3807.7033 -190.4089 279.6513
v 3810.7050 -151.6183 279.6506
v 3789.5790 -118.8292 279.6640
f 109 110 111
v 3884.5265 -44.5720 279.6079
v 3811.4084 -104.3818 279.6513
v 3894.1872 -130.9819 279.6007
f 112 113 114
v 3789.4927 -68.5827 267.0023
v 3789.5004 -68.5825 279.6649
v 3884.5265 -44.5720 279.6079
f 115 116 117
v 3798.5487 -104.4514 266.9963
v 3798.5564 -104.4514 279.6589
v 3789.5004 -68.5825 279.6649
f 118 119 120
v 3810.2633 -101.5128 266.9894
v 3810.2710 -101.5127 279.6520
v 3798.5564 -104.4514 279.6589
f 121 122 123
v 3811.0074 -104.4788 266.9889
v 3811.0151 -104.4787 279.6515
v 3810.2710 -101.5127 279.6520
f 124 125 126
v 3811.4006 -104.3818 266.9887
v 3811.4084 -104.3818 279.6513
v 3811.0151 -104.4787 279.6515
f 127 128 129
v 3813.5078 -112.9254 266.9873
v 3813.5155 -112.9253 279.6499
v 3811.4084 -104.3818 279.6513
f 130 131 132
v 3789.5713 -118.8293 267.0014
v 3789.5790 -118.8292 279.6640
v 3813.5155 -112.9253 279.6499
f 133 134 135
v 3807.6956 -190.4088 266.9887
v 3807.7033 -190.4089 279.6513
v 3789.5790 -118.8292 279.6640
f 136 137 138
v 3890.7174 -169.5141 266.9393
v 3890.7252 -169.5142 279.6018
v 3807.7033 -190.4089 279.6513
f 139 140 141
v 3887.6808 -157.4072 266.9414
v 3887.6887 -157.4072 279.6040
v 3890.7252 -169.5142 279.6018
f 142 143 144
v 3907.4378 -152.4512 266.9295
v 3907.4457 -152.4511 279.5921
v 3887.6887 -157.4072 279.6040
f 145 146 147
v 3905.3105 -143.9735 266.9310
v 3905.3184 -143.9735 279.5936
v 3907.4457 -152.4511 279.5921
f 148 149 150
v 3909.2091 -142.9949 266.9286
v 3909.2170 -142.9949 279.5912
v 3905.3184 -143.9735 279.5936
f 151 152 153
v 3884.5187 -44.5722 266.9454
v 3884.5265 -44.5720 279.6079
v 3909.2170 -142.9949 279.5912
f 154 155 156
v 3816.1257 -125.3312 272.2533
v 3816.1303 -125.3312 279.6480
v 3804.9329 -128.1412 279.6546
f 157 158 159
v 3818.9654 -136.6506 272.2513
v 3818.9699 -136.6506 279.6460
v 3816.1303 -125.3312 279.6480
f 160 161 162
v 3807.7680 -139.4597 272.2580
v 3807.7726 -139.4596 279.6527
v 3818.9699 -136.6506 279.6460
f 163 164 165
v 3804.9284 -128.1412 272.2599
v 3804.9329 -128.1412 279.6546
v 3807.7726 -139.4596 279.6527
f 166 167 168
v 3821.9962 -148.7795 275.9461
v 3821.9985 -148.7796 279.6440
v 3810.7050 -151.6183 279.6506
f 169 170 171
v 3813.6087 -163.2000 275.9507
v 3813.6110 -163.1999 279.6485
v 3824.9554 -160.3684 279.6418
f 172 173 174
v 3810.7027 -151.6184 275.9527
v 3810.7050 -151.6183 279.6506
v 3813.6110 -163.1999 279.6485
f 175 176 177
v 3822.0660 -149.0728 266.9813
v 3822.0663 -149.0728 267.5793
v 3821.9911 -148.7796 267.5794
f 178 179 180
v 3824.9532 -160.3683 275.9440
v 3824.9554 -160.3684 279.6418
v 3824.9525 -160.3544 279.6418
f 181 182 183
v 3818.9654 -136.6506 272.2513
v 3804.9284 -128.1412 272.2599
v 3807.7680 -139.4597 272.2580
f 184 185 186
v 3804.9284 -128.1412 272.2599
v 3818.9654 -136.6506 272.2513
v 3816.1257 -125.3312 272.2533
f 187 188 189
v 3824.9502 -160.3543 275.9440
v 3824.9525 -160.3544 279.6418
v 3824.4411 -160.4830 279.6421
f 190 191 192
v 3821.9908 -148.7796 266.9814
v 3821.9911 -148.7796 267.5794
v 3810.6977 -151.6184 267.5860
f 193 194 195
v 3813.6033 -163.1999 266.9860
v 3813.6037 -163.2000 267.5840
v 3824.9481 -160.3683 267.5773
f 196 197 198
v 3810.6973 -151.6184 266.9880
v 3810.6977 -151.6184 267.5860
v 3813.6037 -163.2000 267.5840
f 199 200 201
v 3822.0714 -149.0728 275.9460
v 3822.0737 -149.0728 279.6439
v 3821.9985 -148.7796 279.6440
f 202 203 204
v 3824.9477 -160.3683 266.9793
v 3824.9481 -160.3683 267.5773
v 3824.9451 -160.3543 267.5773
f 205 206 207
v 3824.4338 -160.4830 267.5776
v 3824.9451 -160.3543 267.5773
v 3824.9481 -160.3683 267.5773
f 208 209 210
v 3822.0663 -149.0728 267.5793
v 3821.6011 -149.1895 267.5796
v 3821.9911 -148.7796 267.5794
f 211 212 213
v 3823.0090 -154.8013 267.5786
v 3824.4338 -160.4830 267.5776
v 3813.6037 -163.2000 267.5840
f 214 215 216
v 3824.9481 -160.3683 267.5773
v 3813.6037 -163.2000 267.5840
v 3824.4338 -160.4830 267.5776
f 217 218 219
v 3821.6011 -149.1895 267.5796
v 3823.0090 -154.8013 267.5786
v 3810.6977 -151.6184 267.5860
f 220 221 222
v 3813.6037 -163.2000 267.5840
v 3810.6977 -151.6184 267.5860
v 3823.0090 -154.8013 267.5786
f 223 224 225
v 3821.9911 -148.7796 267.5794
v 3821.6011 -149.1895 267.5796
v 3810.6977 -151.6184 267.5860
f 226 227 228
v 3813.6087 -163.2000 275.9507
v 3823.0141 -154.8013 275.9453
v 3810.7027 -151.6184 275.9527
f 229 230 231
v 3824.9532 -160.3683 275.9440
v 3824.4389 -160.4829 275.9443
v 3813.6087 -163.2000 275.9507
f 232 233 234
v 3821.9962 -148.7795 275.9461
v 3810.7027 -151.6184 275.9527
v 3821.6061 -149.1895 275.9463
f 235 236 237
v 3810.7027 -151.6184 275.9527
v 3823.0141 -154.8013 275.9453
v 3821.6061 -149.1895 275.9463
f 238 239 240
v 3823.0141 -154.8013 275.9453
v 3813.6087 -163.2000 275.9507
v 3824.4389 -160.4829 275.9443
f 241 242 243
v 3821.6061 -149.1895 275.9463
v 3822.0714 -149.0728 275.9460
v 3821.9962 -148.7795 275.9461
f 244 245 246
v 3824.9532 -160.3683 275.9440
v 3824.9502 -160.3543 275.9440
v 3824.4389 -160.4829 275.9443
f 247 248 249
v 3895.5968 -136.5936 280.4527
v 3895.5963 -136.5935 279.5997
v 3894.1872 -130.9819 279.6007
f 250 251 252
v 3895.5963 -136.5935 279.5997
v 3895.5968 -136.5936 280.4527
v 3897.0210 -142.2743 279.5987
f 253 254 255
v 3823.0090 -154.8013 267.5786
v 3823.0087 -154.8013 266.9806
v 3824.4334 -160.4829 266.9796
f 256 257 258
v 3824.4338 -160.4830 267.5776
v 3823.0090 -154.8013 267.5786
v 3824.4334 -160.4829 266.9796
f 259 260 261
v 3823.0087 -154.8013 266.9806
v 3821.6011 -149.1895 267.5796
v 3821.6007 -149.1895 266.9816
f 262 263 264
v 3823.0090 -154.8013 267.5786
v 3821.6011 -149.1895 267.5796
v 3823.0087 -154.8013 266.9806
f 265 266 267
v 3905.3105 -143.9735 266.9310
v 3907.4378 -152.4512 266.9295
v 3887.6808 -157.4072 266.9414
f 268 269 270
v 3824.9477 -160.3683 266.9793
v 3887.6808 -157.4072 266.9414
v 3890.7174 -169.5141 266.9393
f 271 272 273
v 3813.5078 -112.9254 266.9873
v 3905.3105 -143.9735 266.9310
v 3887.6808 -157.4072 266.9414
f 274 275 276
v 3884.5187 -44.5722 266.9454
v 3909.2091 -142.9949 266.9286
v 3905.3105 -143.9735 266.9310
f 277 278 279
v 3811.4006 -104.3818 266.9887
v 3884.5187 -44.5722 266.9454
v 3813.5078 -112.9254 266.9873
f 280 281 282
v 3813.5078 -112.9254 266.9873
v 3884.5187 -44.5722 266.9454
v 3905.3105 -143.9735 266.9310
f 283 284 285
v 3810.2633 -101.5128 266.9894
v 3884.5187 -44.5722 266.9454
v 3811.4006 -104.3818 266.9887
f 286 287 288
v 3824.9448 -160.3543 266.9793
v 3887.6808 -157.4072 266.9414
v 3824.9477 -160.3683 266.9793
f 289 290 291
v 3811.4006 -104.3818 266.9887
v 3811.0074 -104.4788 266.9889
v 3810.2633 -101.5128 266.9894
f 292 293 294
v 3821.9908 -148.7796 266.9814
v 3813.5078 -112.9254 266.9873
v 3887.6808 -157.4072 266.9414
f 295 296 297
v 3789.4927 -68.5827 267.0023
v 3884.5187 -44.5722 266.9454
v 3810.2633 -101.5128 266.9894
f 298 299 300
v 3824.9477 -160.3683 266.9793
v 3890.7174 -169.5141 266.9393
v 3807.6956 -190.4088 266.9887
f 301 302 303
v 3823.0087 -154.8013 266.9806
v 3824.9448 -160.3543 266.9793
v 3824.4334 -160.4829 266.9796
f 304 305 306
v 3823.0087 -154.8013 266.9806
v 3822.0660 -149.0728 266.9813
v 3824.9448 -160.3543 266.9793
f 307 308 309
v 3810.6973 -151.6184 266.9880
v 3813.6033 -163.1999 266.9860
v 3807.6956 -190.4088 266.9887
f 310 311 312
v 3824.9477 -160.3683 266.9793
v 3807.6956 -190.4088 266.9887
v 3813.6033 -163.1999 266.9860
f 313 314 315
v 3821.6007 -149.1895 266.9816
v 3822.0660 -149.0728 266.9813
v 3823.0087 -154.8013 266.9806
f 316 317 318
v 3813.5078 -112.9254 266.9873
v 3810.6973 -151.6184 266.9880
v 3789.5713 -118.8293 267.0014
f 319 320 321
v 3887.6808 -157.4072 266.9414
v 3822.0660 -149.0728 266.9813
v 3821.9908 -148.7796 266.9814
f 322 323 324
v 3798.5487 -104.4514 266.9963
v 3789.4927 -68.5827 267.0023
v 3810.2633 -101.5128 266.9894
f 325 326 327
v 3789.5713 -118.8293 267.0014
v 3810.6973 -151.6184 266.9880
v 3807.6956 -190.4088 266.9887
f 328 329 330
v 3813.5078 -112.9254 266.9873
v 3821.9908 -148.7796 266.9814
v 3810.6973 -151.6184 266.9880
f 331 332 333
v 3887.6808 -157.4072 266.9414
v 3824.9448 -160.3543 266.9793
v 3822.0660 -149.0728 266.9813
f 334 335 336
v 3823.0141 -154.8013 275.9453
v 3824.4389 -160.4829 275.9443
v 3824.4411 -160.4830 279.6421
f 337 338 339
v 3823.0169 -154.8013 280.4961
v 3823.0141 -154.8013 275.9453
v 3824.4411 -160.4830 279.6421
f 340 341 342
v 3823.0141 -154.8013 275.9453
v 3821.6084 -149.1895 279.6442
v 3821.6061 -149.1895 275.9463
f 343 344 345
v 3823.0169 -154.8013 280.4961
v 3821.6084 -149.1895 279.6442
v 3823.0141 -154.8013 275.9453
f 346 347 348
v 3821.6061 -149.1895 275.9463
v 3822.0737 -149.0728 279.6439
v 3822.0714 -149.0728 275.9460
f 349 350 351
v 3824.9448 -160.3543 266.9793
v 3824.4338 -160.4830 267.5776
v 3824.4334 -160.4829 266.9796
f 352 353 354
v 3821.6007 -149.1895 266.9816
v 3822.0663 -149.0728 267.5793
v 3822.0660 -149.0728 266.9813
f 355 356 357
v 3789.4927 -68.5827 267.0023
v 3884.5265 -44.5720 279.6079
v 3884.5187 -44.5722 266.9454
f 358 359 360
v 3798.5487 -104.4514 266.9963
v 3789.5004 -68.5825 279.6649
v 3789.4927 -68.5827 267.0023
f 361 362 363
v 3810.2633 -101.5128 266.9894
v 3798.5564 -104.4514 279.6589
v 3798.5487 -104.4514 266.9963
f 364 365 366
v 3811.0074 -104.4788 266.9889
v 3810.2710 -101.5127 279.6520
v 3810.2633 -101.5128 266.9894
f 367 368 369
v 3811.4006 -104.3818 266.9887
v 3811.0151 -104.4787 279.6515
v 3811.0074 -104.4788 266.9889
f 370 371 372
v 3813.5078 -112.9254 266.9873
v 3811.4084 -104.3818 279.6513
v 3811.4006 -104.3818 266.9887
f 373 374 375
v 3789.5713 -118.8293 267.0014
v 3813.5155 -112.9253 279.6499
v 3813.5078 -112.9254 266.9873
f 376 377 378
v 3807.6956 -190.4088 266.9887
v 3789.5790 -118.8292 279.6640
v 3789.5713 -118.8293 267.0014
f 379 380 381
v 3890.7174 -169.5141 266.9393
v 3807.7033 -190.4089 279.6513
v 3807.6956 -190.4088 266.9887
f 382 383 384
v 3887.6808 -157.4072 266.9414
v 3890.7252 -169.5142 279.6018
v 3890.7174 -169.5141 266.9393
f 385 386 387
v 3907.4378 -152.4512 266.9295
v 3887.6887 -157.4072 279.6040
v 3887.6808 -157.4072 266.9414
f 388 389 390
v 3905.3105 -143.9735 266.9310
v 3907.4457 -152.4511 279.5921
v 3907.4378 -152.4512 266.9295
f 391 392 393
v 3909.2091 -142.9949 266.9286
v 3905.3184 -143.9735 279.5936
v 3905.3105 -143.9735 266.9310
f 394 395 396
v 3884.5187 -44.5722 266.9454
v 3909.2170 -142.9949 279.5912
v 3909.2091 -142.9949 266.9286
f 397 398 399
v 3816.1257 -125.3312 272.2533
v 3804.9329 -128.1412 279.6546
v 3804.9284 -128.1412 272.2599
f 400 401 402
v 3818.9654 -136.6506 272.2513
v 3816.1303 -125.3312 279.6480
v 3816.1257 -125.3312 272.2533
f 403 404 405
v 3807.7680 -139.4597 272.2580
v 3818.9699 -136.6506 279.6460
v 3818.9654 -136.6506 272.2513
f 406 407 408
v 3804.9284 -128.1412 272.2599
v 3807.7726 -139.4596 279.6527
v 3807.7680 -139.4597 272.2580
f 409 410 411
v 3821.9962 -148.7795 275.9461
v 3810.7050 -151.6183 279.6506
v 3810.7027 -151.6184 275.9527
f 412 413 414
v 3813.6087 -163.2000 275.9507
v 3824.9554 -160.3684 279.6418
v 3824.9532 -160.3683 275.9440
f 415 416 417
v 3810.7027 -151.6184 275.9527
v 3813.6110 -163.1999 279.6485
v 3813.6087 -163.2000 275.9507
f 418 419 420
v 3822.0660 -149.0728 266.9813
v 3821.9911 -148.7796 267.5794
v 3821.9908 -148.7796 266.9814
f 421 422 423
v 3824.9532 -160.3683 275.9440
v 3824.9525 -160.3544 279.6418
v 3824.9502 -160.3543 275.9440
f 424 425 426
v 3824.9502 -160.3543 275.9440
v 3824.4411 -160.4830 279.6421
v 3824.4389 -160.4829 275.9443
f 427 428 429
v 3821.9908 -148.7796 266.9814
v 3810.6977 -151.6184 267.5860
v 3810.6973 -151.6184 266.9880
f 430 431 432
v 3813.6033 -163.1999 266.9860
v 3824.9481 -160.3683 267.5773
v 3824.9477 -160.3683 266.9793
f 433 434 435
v 3810.6973 -151.6184 266.9880
v 3813.6037 -163.2000 267.5840
v 3813.6033 -163.1999 266.9860
f 436 437 438
v 3822.0714 -149.0728 275.9460
v 3821.9985 -148.7796 279.6440
v 3821.9962 -148.7795 275.9461
f 439 440 441
v 3824.9477 -160.3683 266.9793
v 3824.9451 -160.3543 267.5773
v 3824.9448 -160.3543 266.9793
f 442 443 444

g building_ID_5F27D501-EA09-4311-95A2-97B3983F29A9
v 3762.7632 -103.6617 268.6265
v 3762.8903 -103.6351 268.6264
v 3762.9407 -103.8802 268.6264
f 445 446 447
v 3755.6242 -106.3307 268.6307
v 3762.7632 -103.6617 268.6265
v 3762.9407 -103.8802 268.6264
f 448 449 450
v 3760.7939 -94.0746 268.6279
v 3762.7632 -103.6617 268.6265
v 3752.4394 -96.8932 268.6328
f 451 452 453
v 3755.6242 -106.3307 268.6307
v 3752.4394 -96.8932 268.6328
v 3762.7632 -103.6617 268.6265
f 454 455 456
v 3762.7673 -103.6617 275.4613
v 3755.6283 -106.3305 275.4655
v 3762.9448 -103.8802 275.4612
f 457 458 459
v 3762.8944 -103.6351 275.4612
v 3762.7673 -103.6617 275.4613
v 3762.9448 -103.8802 275.4612
f 460 461 462
v 3752.4435 -96.8931 275.4675
v 3755.6283 -106.3305 275.4655
v 3762.7673 -103.6617 275.4613
f 463 464 465
v 3762.7673 -103.6617 275.4613
v 3760.7980 -94.0745 275.4626
v 3752.4435 -96.8931 275.4675
f 466 467 468
v 3752.4394 -96.8932 268.6328
v 3752.4435 -96.8931 275.4675
v 3760.7980 -94.0745 275.4626
f 469 470 471
v 3755.6242 -106.3307 268.6307
v 3755.6283 -106.3305 275.4655
v 3752.4435 -96.8931 275.4675
f 472 473 474
v 3762.9407 -103.8802 268.6264
v 3762.9448 -103.8802 275.4612
v 3755.6283 -106.3305 275.4655
f 475 476 477
v 3762.8903 -103.6351 268.6264
v 3762.8944 -103.6351 275.4612
v 3762.9448 -103.8802 275.4612
f 478 479 480
v 3762.7632 -103.6617 268.6265
v 3762.7673 -103.6617 275.4613
v 3762.8944 -103.6351 275.4612
f 481 482 483
v 3760.7939 -94.0746 268.6279
v 3760.7980 -94.0745 275.4626
v 3762.7673 -103.6617 275.4613
f 484 485 486
v 3752.4394 -96.8932 268.6328
v 3760.7980 -94.0745 275.4626
v 3760.7939 -94.0746 268.6279
f 487 488 489
v 3755.6242 -106.3307 268.6307
v 3752.4435 -96.8931 275.4675
v 3752.4394 -96.8932 268.6328
f 490 491 492
v 3762.9407 -103.8802 268.6264
v 3755.6283 -106.3305 275.4655
v 3755.6242 -106.3307 268.6307
f 493 494 495
v 3762.8903 -103.6351 268.6264
v 3762.9448 -103.8802 275.4612
v 3762.9407 -103.8802 268.6264
f 496 497 498
v 3762.7632 -103.6617 268.6265
v 3762.8944 -103.6351 275.4612
v 3762.8903 -103.6351 268.6264
f 499 500 501
v 3760.7939 -94.0746 268.6279
v 3762.7673 -103.6617 275.4613
v 3762.7632 -103.6617 268.6265
f 502 503 504

g building_ID_C18E779A-9668-428C-BB9E-6323F96E8796
v 3729.3267 -83.4236 268.5975
v 3721.7308 -93.5311 268.6018
v 3719.4519 -86.7872 268.6032
f 505 506 507
v 3721.7308 -93.5311 268.6018
v 3729.3267 -83.4236 268.5975
v 3731.6318 -90.1427 268.5961
f 508 509 510
v 3729.3309 -83.4235 275.4813
v 3719.4560 -86.7870 275.4870
v 3721.7349 -93.5310 275.4856
f 511 512 513
v 3721.7349 -93.5310 275.4856
v 3731.6358 -90.1425 275.4799
v 3729.3309 -83.4235 275.4813
f 514 515 516
v 3721.7308 -93.5311 268.6018
v 3721.7349 -93.5310 275.4856
v 3719.4560 -86.7870 275.4870
f 517 518 519
v 3731.6317 -90.1427 268.4891
v 3729.3267 -83.4236 268.4905
v 3732.4184 -89.8738 268.4886
f 520 521 522
v 3730.1954 -83.1279 268.4900
v 3732.4184 -89.8738 268.4886
v 3729.3267 -83.4236 268.4905
f 523 524 525
v 3730.1954 -83.1279 268.4900
v 3758.1527 -81.7707 268.4736
v 3732.4184 -89.8738 268.4886
f 526 527 528
v 3758.1527 -81.7707 268.4736
v 3732.9603 -90.2792 268.4883
v 3732.4184 -89.8738 268.4886
f 529 530 531
v 3732.6576 -90.5714 268.4885
v 3732.9603 -90.2792 268.4883
v 3733.0179 -90.4493 268.4883
f 532 533 534
v 3732.6576 -90.5714 268.4885
v 3732.4184 -89.8738 268.4886
v 3732.9603 -90.2792 268.4883
f 535 536 537
v 3730.1976 -81.9539 268.4900
v 3730.1954 -83.1279 268.4900
v 3729.7669 -81.8687 268.4903
f 538 539 540
v 3729.7669 -81.8687 268.4903
v 3730.1262 -81.7457 268.4901
v 3730.1976 -81.9539 268.4900
f 541 542 543
v 3756.5539 -72.7656 268.4747
v 3756.2590 -73.0778 268.4749
v 3756.1945 -72.8876 268.4749
f 544 545 546
v 3759.1226 -81.4433 268.4731
v 3758.1527 -81.7707 268.4736
v 3756.2590 -73.0778 268.4749
f 547 548 549
v 3756.2590 -73.0778 268.4749
v 3758.1527 -81.7707 268.4736
v 3730.1954 -83.1279 268.4900
f 550 551 552
v 3759.5405 -81.4924 268.4728
v 3759.1802 -81.6144 268.4730
v 3759.1226 -81.4433 268.4731
f 553 554 555
v 3756.2590 -73.0778 268.4749
v 3759.5405 -81.4924 268.4728
v 3759.1226 -81.4433 268.4731
f 556 557 558
v 3759.5405 -81.4924 268.4728
v 3756.2590 -73.0778 268.4749
v 3756.5539 -72.7656 268.4747
f 559 560 561
v 3730.1976 -81.9539 268.4900
v 3756.2590 -73.0778 268.4749
v 3730.1954 -83.1279 268.4900
f 562 563 564
v 3756.2646 -73.0776 277.7406
v 3756.5594 -72.7655 277.7404
v 3756.2001 -72.8874 277.7406
f 565 566 567
v 3730.2010 -83.1278 277.7557
v 3758.1583 -81.7706 277.7393
v 3756.2646 -73.0776 277.7406
f 568 569 570
v 3759.5460 -81.4923 277.7385
v 3756.5594 -72.7655 277.7404
v 3756.2646 -73.0776 277.7406
f 571 572 573
v 3759.1857 -81.6143 277.7387
v 3759.5460 -81.4923 277.7385
v 3759.1281 -81.4432 277.7388
f 574 575 576
v 3756.2646 -73.0776 277.7406
v 3759.1281 -81.4432 277.7388
v 3759.5460 -81.4923 277.7385
f 577 578 579
v 3758.1583 -81.7706 277.7393
v 3759.1281 -81.4432 277.7388
v 3756.2646 -73.0776 277.7406
f 580 581 582
v 3730.2010 -83.1278 277.7557
v 3756.2646 -73.0776 277.7406
v 3730.2031 -81.9538 277.7557
f 583 584 585
v 3731.6372 -90.1426 277.7548
v 3730.2010 -83.1278 277.7557
v 3729.3322 -83.4235 277.7562
f 586 587 588
v 3730.2010 -83.1278 277.7557
v 3730.2031 -81.9538 277.7557
v 3729.7723 -81.8686 277.7560
f 589 590 591
v 3730.2010 -83.1278 277.7557
v 3732.4239 -89.8737 277.7543
v 3758.1583 -81.7706 277.7393
f 592 593 594
v 3732.6630 -90.5713 277.7542
v 3733.0234 -90.4492 277.7540
v 3732.9658 -90.2791 277.7540
f 595 596 597
v 3732.4239 -89.8737 277.7543
v 3732.6630 -90.5713 277.7542
v 3732.9658 -90.2791 277.7540
f 598 599 600
v 3730.2010 -83.1278 277.7557
v 3731.6372 -90.1426 277.7548
v 3732.4239 -89.8737 277.7543
f 601 602 603
v 3732.9658 -90.2791 277.7540
v 3758.1583 -81.7706 277.7393
v 3732.4239 -89.8737 277.7543
f 604 605 606
v 3730.2031 -81.9538 277.7557
v 3730.1317 -81.7456 277.7558
v 3729.7723 -81.8686 277.7560
f 607 608 609
v 3756.1945 -72.8876 268.4749
v 3756.2001 -72.8874 277.7406
v 3756.5594 -72.7655 277.7404
f 610 611 612
v 3756.2590 -73.0778 268.4749
v 3756.2646 -73.0776 277.7406
v 3756.2001 -72.8874 277.7406
f 613 614 615
v 3730.1976 -81.9539 268.4900
v 3730.2031 -81.9538 277.7557
v 3756.2646 -73.0776 277.7406
f 616 617 618
v 3730.1262 -81.7457 268.4901
v 3730.1317 -81.7456 277.7558
v 3730.2031 -81.9538 277.7557
f 619 620 621
v 3729.7669 -81.8687 268.4903
v 3729.7723 -81.8686 277.7560
v 3730.1317 -81.7456 277.7558
f 622 623 624
v 3759.1802 -81.6144 268.4730
v 3759.1857 -81.6143 277.7387
v 3759.1281 -81.4432 277.7388
f 625 626 627
v 3759.5405 -81.4924 268.4728
v 3759.5460 -81.4923 277.7385
v 3759.1857 -81.6143 277.7387
f 628 629 630
v 3756.5539 -72.7656 268.4747
v 3756.5594 -72.7655 277.7404
v 3759.5460 -81.4923 277.7385
f 631 632 633
v 3729.7723 -81.8686 277.7560
v 3730.1954 -83.1279 268.4900
v 3730.2010 -83.1278 277.7557
f 634 635 636
v 3731.6317 -90.1427 268.4891
v 3731.6318 -90.1427 268.5961
v 3729.3267 -83.4236 268.5975
f 637 638 639
v 3731.6358 -90.1425 275.4799
v 3731.6372 -90.1426 277.7548
v 3729.3309 -83.4235 275.4813
f 640 641 642
v 3732.6576 -90.5714 268.4885
v 3732.6630 -90.5713 277.7542
v 3732.4239 -89.8737 277.7543
f 643 644 645
v 3733.0179 -90.4493 268.4883
v 3733.0234 -90.4492 277.7540
v 3732.6630 -90.5713 277.7542
f 646 647 648
v 3732.9603 -90.2792 268.4883
v 3732.9658 -90.2791 277.7540
v 3733.0234 -90.4492 277.7540
f 649 650 651
v 3732.4239 -89.8737 277.7543
v 3731.6318 -90.1427 268.5961
v 3732.4184 -89.8738 268.4886
f 652 653 654
v 3731.6372 -90.1426 277.7548
v 3731.6358 -90.1425 275.4799
v 3732.4239 -89.8737 277.7543
f 655 656 657
v 3731.6318 -90.1427 268.5961
v 3731.6358 -90.1425 275.4799
v 3721.7349 -93.5310 275.4856
f 658 659 660
v 3721.7349 -93.5310 275.4856
v 3721.7308 -93.5311 268.6018
v 3731.6318 -90.1427 268.5961
f 661 662 663
v 3731.6358 -90.1425 275.4799
v 3731.6318 -90.1427 268.5961
v 3732.4239 -89.8737 277.7543
f 664 665 666
v 3719.4560 -86.7870 275.4870
v 3729.3309 -83.4235 275.4813
v 3729.3267 -83.4236 268.5975
f 667 668 669
v 3729.3322 -83.4235 277.7562
v 3730.2010 -83.1278 277.7557
v 3729.3309 -83.4235 275.4813
f 670 671 672
v 3759.1281 -81.4432 277.7388
v 3758.1583 -81.7706 277.7393
v 3758.1527 -81.7707 268.4736
f 673 674 675
v 3758.1527 -81.7707 268.4736
v 3758.1583 -81.7706 277.7393
v 3732.9603 -90.2792 268.4883
f 676 677 678
v 3758.1583 -81.7706 277.7393
v 3732.9658 -90.2791 277.7540
v 3732.9603 -90.2792 268.4883
f 679 680 681
v 3721.7308 -93.5311 268.6018
v 3719.4560 -86.7870 275.4870
v 3719.4519 -86.7872 268.6032
f 682 683 684
v 3756.1945 -72.8876 268.4749
v 3756.5594 -72.7655 277.7404
v 3756.5539 -72.7656 268.4747
f 685 686 687
v 3756.2590 -73.0778 268.4749
v 3756.2001 -72.8874 277.7406
v 3756.1945 -72.8876 268.4749
f 688 689 690
v 3730.1976 -81.9539 268.4900
v 3756.2646 -73.0776 277.7406
v 3756.2590 -73.0778 268.4749
f 691 692 693
v 3730.1262 -81.7457 268.4901
v 3730.2031 -81.9538 277.7557
v 3730.1976 -81.9539 268.4900
f 694 695 696
v 3729.7669 -81.8687 268.4903
v 3730.1317 -81.7456 277.7558
v 3730.1262 -81.7457 268.4901
f 697 698 699
v 3759.1802 -81.6144 268.4730
v 3759.1281 -81.4432 277.7388
v 3759.1226 -81.4433 268.4731
f 700 701 702
v 3759.5405 -81.4924 268.4728
v 3759.1857 -81.6143 277.7387
v 3759.1802 -81.6144 268.4730
f 703 704 705
v 3756.5539 -72.7656 268.4747
v 3759.5460 -81.4923 277.7385
v 3759.5405 -81.4924 268.4728
f 706 707 708
v 3730.1954 -83.1279 268.4900
v 3729.7723 -81.8686 277.7560
v 3729.7669 -81.8687 268.4903
f 709 710 711
v 3731.6317 -90.1427 268.4891
v 3729.3267 -83.4236 268.5975
v 3729.3267 -83.4236 268.4905
f 712 713 714
v 3731.6372 -90.1426 277.7548
v 3729.3322 -83.4235 277.7562
v 3729.3309 -83.4235 275.4813
f 715 716 717
v 3732.6576 -90.5714 268.4885
v 3732.4239 -89.8737 277.7543
v 3732.4184 -89.8738 268.4886
f 718 719 720
v 3733.0179 -90.4493 268.4883
v 3732.6630 -90.5713 277.7542
v 3732.6576 -90.5714 268.4885
f 721 722 723
v 3732.9603 -90.2792 268.4883
v 3733.0234 -90.4492 277.7540
v 3733.0179 -90.4493 268.4883
f 724 725 726
v 3731.6317 -90.1427 268.4891
v 3732.4184 -89.8738 268.4886
v 3731.6318 -90.1427 268.5961
f 727 728 729
v 3719.4560 -86.7870 275.4870
v 3729.3267 -83.4236 268.5975
v 3719.4519 -86.7872 268.6032
f 730 731 732
v 3730.2010 -83.1278 277.7557
v 3730.1954 -83.1279 268.4900
v 3729.3309 -83.4235 275.4813
f 733 734 735
v 3729.3309 -83.4235 275.4813
v 3730.1954 -83.1279 268.4900
v 3729.3267 -83.4236 268.5975
f 736 737 738
v 3729.3267 -83.4236 268.5975
v 3730.1954 -83.1279 268.4900
v 3729.3267 -83.4236 268.4905
f 739 740 741
v 3759.1281 -81.4432 277.7388
v 3758.1527 -81.7707 268.4736
v 3759.1226 -81.4433 268.4731
f 742 743 744

g building_ID_D4EC2E19-01A6-4897-BB43-DBA736942FCB
v 3714.9745 -109.7588 268.6985
v 3721.0359 -108.1101 268.6950
v 3714.9064 -110.1827 268.6985
f 745 746 747
v 3714.9064 -110.1827 268.6985
v 3714.7854 -109.8233 268.6986
v 3714.9745 -109.7588 268.6985
f 748 749 750
v 3721.0359 -108.1101 268.6950
v 3721.7309 -93.5311 268.6948
v 3723.6742 -107.2071 268.6935
f 751 752 753
v 3723.6742 -107.2071 268.6935
v 3724.0086 -108.1950 268.6932
v 3721.3663 -109.0879 268.6948
f 754 755 756
v 3723.6742 -107.2071 268.6935
v 3721.7309 -93.5311 268.6948
v 3726.0044 -106.0194 268.6921
f 757 758 759
v 3726.1926 -105.9549 268.6920
v 3726.3156 -106.3132 268.6919
v 3726.0044 -106.0194 268.6921
f 760 761 762
v 3726.0044 -106.0194 268.6921
v 3726.3156 -106.3132 268.6919
v 3723.6742 -107.2071 268.6935
f 763 764 765
v 3723.6742 -107.2071 268.6935
v 3721.3663 -109.0879 268.6948
v 3721.0359 -108.1101 268.6950
f 766 767 768
v 3713.5787 -105.6171 268.6994
v 3721.0359 -108.1101 268.6950
v 3714.9745 -109.7588 268.6985
f 769 770 771
v 3721.7309 -93.5311 268.6948
v 3713.5787 -105.6171 268.6994
v 3707.8085 -88.5059 268.7030
f 772 773 774
v 3707.8085 -88.5059 268.7030
v 3707.6193 -88.5694 268.7031
v 3707.4983 -88.2101 268.7031
f 775 776 777
v 3718.8444 -84.3845 268.6966
v 3707.8085 -88.5059 268.7030
v 3707.4983 -88.2101 268.7031
f 778 779 780
v 3718.9664 -84.7439 268.6965
v 3718.7773 -84.8084 268.6966
v 3718.8444 -84.3845 268.6966
f 781 782 783
v 3707.8085 -88.5059 268.7030
v 3718.8444 -84.3845 268.6966
v 3718.7773 -84.8084 268.6966
f 784 785 786
v 3718.7773 -84.8084 268.6966
v 3721.7309 -93.5311 268.6948
v 3707.8085 -88.5059 268.7030
f 787 788 789
v 3713.5787 -105.6171 268.6994
v 3721.7309 -93.5311 268.6948
v 3721.0359 -108.1101 268.6950
f 790 791 792
v 3707.6272 -88.5693 281.9407
v 3707.8163 -88.5058 281.9406
v 3707.5061 -88.2100 281.9407
f 793 794 795
v 3721.0438 -108.1099 281.9325
v 3721.7388 -93.5310 281.9323
v 3713.5865 -105.6170 281.9368
f 796 797 798
v 3718.7851 -84.8082 281.9342
v 3718.8522 -84.3843 281.9342
v 3707.8163 -88.5058 281.9406
f 799 800 801
v 3707.5061 -88.2100 281.9407
v 3707.8163 -88.5058 281.9406
v 3718.8522 -84.3843 281.9342
f 802 803 804
v 3707.8163 -88.5058 281.9406
v 3721.7388 -93.5310 281.9323
v 3718.7851 -84.8082 281.9342
f 805 806 807
v 3718.8522 -84.3843 281.9342
v 3718.7851 -84.8082 281.9342
v 3718.9743 -84.7437 281.9341
f 808 809 810
v 3721.7388 -93.5310 281.9323
v 3707.8163 -88.5058 281.9406
v 3713.5865 -105.6170 281.9368
f 811 812 813
v 3714.7933 -109.8232 281.9361
v 3714.9143 -110.1826 281.9360
v 3714.9824 -109.7587 281.9360
f 814 815 816
v 3724.0165 -108.1949 281.9307
v 3721.0438 -108.1099 281.9325
v 3721.3741 -109.0878 281.9323
f 817 818 819
v 3714.9143 -110.1826 281.9360
v 3721.0438 -108.1099 281.9325
v 3714.9824 -109.7587 281.9360
f 820 821 822
v 3721.0438 -108.1099 281.9325
v 3723.6821 -107.2070 281.9309
v 3721.7388 -93.5310 281.9323
f 823 824 825
v 3726.3235 -106.3132 281.9294
v 3726.2004 -105.9548 281.9295
v 3726.0123 -106.0193 281.9296
f 826 827 828
v 3721.0438 -108.1099 281.9325
v 3724.0165 -108.1949 281.9307
v 3723.6821 -107.2070 281.9309
f 829 830 831
v 3726.0123 -106.0193 281.9296
v 3723.6821 -107.2070 281.9309
v 3726.3235 -106.3132 281.9294
f 832 833 834
v 3726.0123 -106.0193 281.9296
v 3721.7388 -93.5310 281.9323
v 3723.6821 -107.2070 281.9309
f 835 836 837
v 3721.0438 -108.1099 281.9325
v 3713.5865 -105.6170 281.9368
v 3714.9824 -109.7587 281.9360
f 838 839 840
v 3718.9664 -84.7439 268.6965
v 3718.9743 -84.7437 281.9341
v 3718.7851 -84.8082 281.9342
f 841 842 843
v 3718.8444 -84.3845 268.6966
v 3718.8522 -84.3843 281.9342
v 3718.9743 -84.7437 281.9341
f 844 845 846
v 3707.4983 -88.2101 268.7031
v 3707.5061 -88.2100 281.9407
v 3718.8522 -84.3843 281.9342
f 847 848 849
v 3707.6193 -88.5694 268.7031
v 3707.6272 -88.5693 281.9407
v 3707.5061 -88.2100 281.9407
f 850 851 852
v 3707.8085 -88.5059 268.7030
v 3707.8163 -88.5058 281.9406
v 3707.6272 -88.5693 281.9407
f 853 854 855
v 3714.7854 -109.8233 268.6986
v 3714.7933 -109.8232 281.9361
v 3714.9824 -109.7587 281.9360
f 856 857 858
v 3714.9064 -110.1827 268.6985
v 3714.9143 -110.1826 281.9360
v 3714.7933 -109.8232 281.9361
f 859 860 861
v 3721.0359 -108.1101 268.6950
v 3721.0438 -108.1099 281.9325
v 3714.9143 -110.1826 281.9360
f 862 863 864
v 3721.3663 -109.0879 268.6948
v 3721.3741 -109.0878 281.9323
v 3721.0438 -108.1099 281.9325
f 865 866 867
v 3724.0086 -108.1950 268.6932
v 3724.0165 -108.1949 281.9307
v 3721.3741 -109.0878 281.9323
f 868 869 870
v 3723.6742 -107.2071 268.6935
v 3723.6821 -107.2070 281.9309
v 3724.0165 -108.1949 281.9307
f 871 872 873
v 3726.3156 -106.3132 268.6919
v 3726.3235 -106.3132 281.9294
v 3723.6821 -107.2070 281.9309
f 874 875 876
v 3726.1926 -105.9549 268.6920
v 3726.2004 -105.9548 281.9295
v 3726.3235 -106.3132 281.9294
f 877 878 879
v 3726.0044 -106.0194 268.6921
v 3726.0123 -106.0193 281.9296
v 3726.2004 -105.9548 281.9295
f 880 881 882
v 3721.7309 -93.5311 268.6948
v 3721.7388 -93.5310 281.9323
v 3726.0123 -106.0193 281.9296
f 883 884 885
v 3718.7773 -84.8084 268.6966
v 3718.7851 -84.8082 281.9342
v 3721.7388 -93.5310 281.9323
f 886 887 888
v 3714.9824 -109.7587 281.9360
v 3713.5865 -105.6170 281.9368
v 3713.5787 -105.6171 268.6994
f 889 890 891
v 3707.8085 -88.5059 268.7030
v 3713.5787 -105.6171 268.6994
v 3713.5865 -105.6170 281.9368
f 892 893 894
v 3718.9664 -84.7439 268.6965
v 3718.7851 -84.8082 281.9342
v 3718.7773 -84.8084 268.6966
f 895 896 897
v 3718.8444 -84.3845 268.6966
v 3718.9743 -84.7437 281.9341
v 3718.9664 -84.7439 268.6965
f 898 899 900
v 3707.4983 -88.2101 268.7031
v 3718.8522 -84.3843 281.9342
v 3718.8444 -84.3845 268.6966
f 901 902 903
v 3707.6193 -88.5694 268.7031
v 3707.5061 -88.2100 281.9407
v 3707.4983 -88.2101 268.7031
f 904 905 906
v 3707.8085 -88.5059 268.7030
v 3707.6272 -88.5693 281.9407
v 3707.6193 -88.5694 268.7031
f 907 908 909
v 3714.7854 -109.8233 268.6986
v 3714.9824 -109.7587 281.9360
v 3714.9745 -109.7588 268.6985
f 910 911 912
v 3714.9064 -110.1827 268.6985
v 3714.7933 -109.8232 281.9361
v 3714.7854 -109.8233 268.6986
f 913 914 915
v 3721.0359 -108.1101 268.6950
v 3714.9143 -110.1826 281.9360
v 3714.9064 -110.1827 268.6985
f 916 917 918
v 3721.3663 -109.0879 268.6948
v 3721.0438 -108.1099 281.9325
v 3721.0359 -108.1101 268.6950
f 919 920 921
v 3724.0086 -108.1950 268.6932
v 3721.3741 -109.0878 281.9323
v 3721.3663 -109.0879 268.6948
f 922 923 924
v 3723.6742 -107.2071 268.6935
v 3724.0165 -108.1949 281.9307
v 3724.0086 -108.1950 268.6932
f 925 926 927
v 3726.3156 -106.3132 268.6919
v 3723.6821 -107.2070 281.9309
v 3723.6742 -107.2071 268.6935
f 928 929 930
v 3726.1926 -105.9549 268.6920
v 3726.3235 -106.3132 281.9294
v 3726.3156 -106.3132 268.6919
f 931 932 933
v 3726.0044 -106.0194 268.6921
v 3726.2004 -105.9548 281.9295
v 3726.1926 -105.9549 268.6920
f 934 935 936
v 3721.7309 -93.5311 268.6948
v 3726.0123 -106.0193 281.9296
v 3726.0044 -106.0194 268.6921
f 937 938 939
v 3718.7773 -84.8084 268.6966
v 3721.7388 -93.5310 281.9323
v 3721.7309 -93.5311 268.6948
f 940 941 942
v 3714.9824 -109.7587 281.9360
v 3713.5787 -105.6171 268.6994
v 3714.9745 -109.7588 268.6985
f 943 944 945
v 3707.8085 -88.5059 268.7030
v 3713.5865 -105.6170 281.9368
v 3707.8163 -88.5058 281.9406
f 946 947 948

g building_ID_C039EB77-72A0-47B4-B7B3-4F7CDAEC9975
v 3662.7572 -110.5531 268.8966
v 3663.1810 -110.6202 268.8964
v 3664.0857 -114.4726 268.8958
f 949 950 951
v 3664.0857 -114.4726 268.8958
v 3663.1810 -110.6202 268.8964
v 3665.4720 -109.8424 268.8951
f 952 953 954
v 3664.0857 -114.4726 268.8958
v 3665.4720 -109.8424 268.8951
v 3669.6599 -108.4206 268.8927
f 955 956 957
v 3689.4717 -105.7647 268.8813
v 3664.0857 -114.4726 268.8958
v 3680.3394 -104.7972 268.8866
f 958 959 960
v 3672.9588 -107.3014 268.8908
v 3664.0857 -114.4726 268.8958
v 3669.6599 -108.4206 268.8927
f 961 962 963
v 3664.0857 -114.4726 268.8958
v 3672.9588 -107.3014 268.8908
v 3675.3409 -106.4928 268.8894
f 964 965 966
v 3675.3409 -106.4928 268.8894
v 3680.3394 -104.7972 268.8866
v 3664.0857 -114.4726 268.8958
f 967 968 969
v 3663.1165 -110.4310 268.8964
v 3663.1810 -110.6202 268.8964
v 3662.7572 -110.5531 268.8966
f 970 971 972
v 3687.8741 -102.2394 268.8823
v 3689.4717 -105.7647 268.8813
v 3685.9244 -102.9012 268.8834
f 973 974 975
v 3688.1699 -101.9283 268.8821
v 3687.8741 -102.2394 268.8823
v 3687.8096 -102.0502 268.8823
f 976 977 978
v 3689.4717 -105.7647 268.8813
v 3687.8741 -102.2394 268.8823
v 3688.1699 -101.9283 268.8821
f 979 980 981
v 3682.7385 -103.9826 268.8852
v 3685.9244 -102.9012 268.8834
v 3689.4717 -105.7647 268.8813
f 982 983 984
v 3689.4717 -105.7647 268.8813
v 3680.3394 -104.7972 268.8866
v 3682.7385 -103.9826 268.8852
f 985 986 987
v 3680.7419 -114.3431 277.5949
v 3680.2008 -104.8457 278.3544
v 3677.7672 -105.6712 277.5968
f 988 989 990
v 3680.2008 -104.8457 278.3544
v 3680.7419 -114.3431 277.5949
v 3683.1716 -113.5076 278.3525
f 991 992 993
v 3678.3232 -115.1717 278.3553
v 3677.7672 -105.6712 277.5968
v 3675.3465 -106.4928 278.3571
f 994 995 996
v 3677.7672 -105.6712 277.5968
v 3678.3232 -115.1717 278.3553
v 3680.7419 -114.3431 277.5949
f 997 998 999
v 3675.9436 -115.9872 277.5976
v 3675.3465 -106.4928 278.3571
v 3672.9639 -107.3014 277.5995
f 1000 1001 1002
v 3675.3465 -106.4928 278.3571
v 3675.9436 -115.9872 277.5976
v 3678.3232 -115.1717 278.3553
f 1003 1004 1005
v 3673.4268 -116.8505 278.3581
v 3672.9639 -107.3014 277.5995
v 3670.4440 -108.1566 278.3599
f 1006 1007 1008
v 3672.9639 -107.3014 277.5995
v 3673.4268 -116.8505 278.3581
v 3675.9436 -115.9872 277.5976
f 1009 1010 1011
v 3685.7125 -112.6374 277.5921
v 3685.1843 -103.1541 278.3515
v 3682.7436 -103.9826 277.5939
f 1012 1013 1014
v 3685.1843 -103.1541 278.3515
v 3685.7125 -112.6374 277.5921
v 3688.1501 -111.8010 278.3497
f 1015 1016 1017
v 3683.1716 -113.5076 278.3525
v 3682.7436 -103.9826 277.5939
v 3680.2008 -104.8457 278.3544
f 1018 1019 1020
v 3682.7436 -103.9826 277.5939
v 3683.1716 -113.5076 278.3525
v 3685.7125 -112.6374 277.5921
f 1021 1022 1023
v 3688.1501 -111.8010 278.3497
v 3687.5049 -102.3663 277.5912
v 3685.1843 -103.1541 278.3515
f 1024 1025 1026
v 3687.5049 -102.3663 277.5912
v 3688.1501 -111.8010 278.3497
v 3690.4678 -111.0062 277.5894
f 1027 1028 1029
v 3688.1751 -101.9282 277.6878
v 3687.8148 -102.0501 277.6400
v 3689.7200 -106.4803 277.6849
f 1030 1031 1032
v 3687.8793 -102.2393 277.6400
v 3687.5049 -102.3663 277.5912
v 3690.4678 -111.0062 277.5894
f 1033 1034 1035
v 3689.7200 -106.4803 277.6849
v 3687.8793 -102.2393 277.6400
v 3690.4678 -111.0062 277.5894
f 1036 1037 1038
v 3689.7200 -106.4803 277.6849
v 3687.8148 -102.0501 277.6400
v 3687.8793 -102.2393 277.6400
f 1039 1040 1041
v 3689.7200 -106.4803 277.6849
v 3691.9042 -110.5131 277.7775
v 3690.4376 -106.2371 277.7784
f 1042 1043 1044
v 3691.9042 -110.5131 277.7775
v 3689.7200 -106.4803 277.6849
v 3690.4678 -111.0062 277.5894
f 1045 1046 1047
v 3671.0462 -117.6681 277.6004
v 3670.4440 -108.1566 278.3599
v 3668.0615 -108.9652 277.6023
f 1048 1049 1050
v 3670.4440 -108.1566 278.3599
v 3671.0462 -117.6681 277.6004
v 3673.4268 -116.8505 278.3581
f 1051 1052 1053
v 3671.0462 -117.6681 277.6004
v 3668.0615 -108.9652 277.6023
v 3665.4786 -109.8423 278.3628
f 1054 1055 1056
v 3665.4786 -109.8423 278.3628
v 3668.4673 -118.5522 278.3609
v 3671.0462 -117.6681 277.6004
f 1057 1058 1059
v 3665.4786 -109.8423 278.3628
v 3663.3913 -110.5508 277.6699
v 3668.4673 -118.5522 278.3609
f 1060 1061 1062
v 3663.1861 -110.6202 277.6051
v 3666.1848 -119.3352 277.6032
v 3668.4673 -118.5522 278.3609
f 1063 1064 1065
v 3668.4673 -118.5522 278.3609
v 3663.2352 -110.6034 277.6210
v 3663.1861 -110.6202 277.6051
f 1066 1067 1068
v 3663.2352 -110.6034 277.6210
v 3668.4673 -118.5522 278.3609
v 3663.3913 -110.5508 277.6699
f 1069 1070 1071
v 3663.5898 -112.9943 277.7088
v 3663.1216 -110.4310 277.6051
v 3663.0396 -110.4588 277.6301
f 1072 1073 1074
v 3663.0396 -110.4588 277.6301
v 3663.4430 -112.5619 277.7099
v 3663.5898 -112.9943 277.7088
f 1075 1076 1077
v 3663.5898 -112.9943 277.7088
v 3663.1861 -110.6202 277.6051
v 3663.1216 -110.4310 277.6051
f 1078 1079 1080
v 3663.1861 -110.6202 277.6051
v 3665.7855 -119.4721 277.7154
v 3666.1848 -119.3352 277.6032
f 1081 1082 1083
v 3663.5898 -112.9943 277.7088
v 3665.7855 -119.4721 277.7154
v 3663.1861 -110.6202 277.6051
f 1084 1085 1086
v 3662.7623 -110.5531 277.7083
v 3663.4430 -112.5619 277.7099
v 3663.0396 -110.4588 277.6301
f 1087 1088 1089
v 3688.1699 -101.9283 268.8821
v 3687.8148 -102.0501 277.6400
v 3688.1751 -101.9282 277.6878
f 1090 1091 1092
v 3687.8793 -102.2393 277.6400
v 3687.8096 -102.0502 268.8823
v 3687.8773 -102.2394 274.3561
f 1093 1094 1095
v 3687.8741 -102.2394 268.8823
v 3687.8773 -102.2394 274.3561
v 3687.8096 -102.0502 268.8823
f 1096 1097 1098
v 3690.4360 -106.2372 274.9346
v 3690.4376 -106.2371 277.7784
v 3691.9025 -110.5130 274.9336
f 1099 1100 1101
v 3663.1165 -110.4310 268.8964
v 3663.1216 -110.4310 277.6051
v 3663.1861 -110.6202 277.6051
f 1102 1103 1104
v 3667.1028 -123.3736 268.8739
v 3664.0857 -114.4726 268.8758
v 3674.7542 -119.8351 268.8695
f 1105 1106 1107
v 3689.7147 -106.4803 268.8612
v 3691.8109 -112.7678 268.8598
v 3674.7542 -119.8351 268.8695
f 1108 1109 1110
v 3692.2264 -114.0510 268.8596
v 3691.8285 -114.0589 268.8598
v 3691.8109 -112.7678 268.8598
f 1111 1112 1113
v 3674.7542 -119.8351 268.8695
v 3691.8109 -112.7678 268.8598
v 3691.8285 -114.0589 268.8598
f 1114 1115 1116
v 3689.7147 -106.4803 268.8612
v 3674.7542 -119.8351 268.8695
v 3664.0857 -114.4726 268.8758
f 1117 1118 1119
v 3674.8990 -120.2805 268.8695
v 3675.0379 -120.6898 268.8694
v 3667.1028 -123.3736 268.8739
f 1120 1121 1122
v 3691.8285 -114.0589 268.8598
v 3692.2264 -114.0510 268.8596
v 3691.8661 -114.1729 268.8598
f 1123 1124 1125
v 3674.8990 -120.2805 268.8695
v 3667.1028 -123.3736 268.8739
v 3674.7542 -119.8351 268.8695
f 1126 1127 1128
v 3664.0857 -114.4726 268.8758
v 3689.4716 -105.7647 268.8613
v 3689.7147 -106.4803 268.8612
f 1129 1130 1131
v 3703.5805 -101.6484 268.8532
v 3703.2598 -101.8846 268.8534
v 3703.2211 -101.7705 268.8534
f 1132 1133 1134
v 3691.8109 -112.7678 268.8598
v 3704.3345 -103.8715 268.8527
v 3705.4575 -108.3534 268.8520
f 1135 1136 1137
v 3703.2598 -101.8846 268.8534
v 3704.3345 -103.8715 268.8527
v 3689.7147 -106.4803 268.8612
f 1138 1139 1140
v 3705.4575 -108.3534 268.8520
v 3712.1064 -101.2502 268.8483
v 3713.5788 -105.6171 268.8474
f 1141 1142 1143
v 3703.5805 -101.6484 268.8532
v 3704.3345 -103.8715 268.8527
v 3703.2598 -101.8846 268.8534
f 1144 1145 1146
v 3704.3345 -103.8715 268.8527
v 3712.1064 -101.2502 268.8483
v 3705.4575 -108.3534 268.8520
f 1147 1148 1149
v 3689.7147 -106.4803 268.8612
v 3704.3345 -103.8715 268.8527
v 3691.8109 -112.7678 268.8598
f 1150 1151 1152
v 3704.3345 -103.8715 268.8527
v 3704.3381 -103.8713 274.9265
v 3712.1100 -101.2502 274.9221
f 1153 1154 1155
v 3703.5805 -101.6484 268.8532
v 3703.5841 -101.6484 274.9270
v 3704.3381 -103.8713 274.9265
f 1156 1157 1158
v 3703.2211 -101.7705 268.8534
v 3703.2247 -101.7704 274.9272
v 3703.5841 -101.6484 274.9270
f 1159 1160 1161
v 3703.2598 -101.8846 268.8534
v 3703.2634 -101.8846 274.9272
v 3703.2247 -101.7704 274.9272
f 1162 1163 1164
v 3675.0379 -120.6898 268.8694
v 3675.0415 -120.6898 274.9432
v 3667.1064 -123.3736 274.9477
f 1165 1166 1167
v 3674.8990 -120.2805 268.8695
v 3674.9026 -120.2804 274.9433
v 3675.0415 -120.6898 274.9432
f 1168 1169 1170
v 3674.7542 -119.8351 268.8695
v 3674.7578 -119.8351 274.9433
v 3674.9026 -120.2804 274.9433
f 1171 1172 1173
v 3691.8285 -114.0589 268.8598
v 3691.8320 -114.0588 274.9336
v 3674.7578 -119.8351 274.9433
f 1174 1175 1176
v 3691.8661 -114.1729 268.8598
v 3691.8697 -114.1729 274.9336
v 3691.8320 -114.0588 274.9336
f 1177 1178 1179
v 3692.2264 -114.0510 268.8596
v 3692.2300 -114.0509 274.9334
v 3691.8697 -114.1729 274.9336
f 1180 1181 1182
v 3691.8109 -112.7678 268.8598
v 3691.8145 -112.7678 274.9336
v 3692.2300 -114.0509 274.9334
f 1183 1184 1185
v 3705.4575 -108.3534 268.8520
v 3705.4611 -108.3533 274.9258
v 3691.8145 -112.7678 274.9336
f 1186 1187 1188
v 3713.5788 -105.6171 268.8474
v 3713.5824 -105.6171 274.9212
v 3705.4611 -108.3533 274.9258
f 1189 1190 1191
v 3712.1064 -101.2502 268.8483
v 3712.1100 -101.2502 274.9221
v 3713.5824 -105.6171 274.9212
f 1192 1193 1194
v 3703.2634 -101.8846 274.9272
v 3704.3381 -103.8713 274.9265
v 3703.5841 -101.6484 274.9270
f 1195 1196 1197
v 3704.3381 -103.8713 274.9265
v 3713.5824 -105.6171 274.9212
v 3712.1100 -101.2502 274.9221
f 1198 1199 1200
v 3703.2634 -101.8846 274.9272
v 3690.4360 -106.2372 274.9346
v 3704.3381 -103.8713 274.9265
f 1201 1202 1203
v 3691.9025 -110.5130 274.9336
v 3704.3381 -103.8713 274.9265
v 3690.4360 -106.2372 274.9346
f 1204 1205 1206
v 3703.5841 -101.6484 274.9270
v 3703.2247 -101.7704 274.9272
v 3703.2634 -101.8846 274.9272
f 1207 1208 1209
v 3691.9025 -110.5130 274.9336
v 3705.4611 -108.3533 274.9258
v 3704.3381 -103.8713 274.9265
f 1210 1211 1212
v 3705.4611 -108.3533 274.9258
v 3691.9025 -110.5130 274.9336
v 3691.8145 -112.7678 274.9336
f 1213 1214 1215
v 3704.3381 -103.8713 274.9265
v 3705.4611 -108.3533 274.9258
v 3713.5824 -105.6171 274.9212
f 1216 1217 1218
v 3691.8145 -112.7678 274.9336
v 3691.8320 -114.0588 274.9336
v 3692.2300 -114.0509 274.9334
f 1219 1220 1221
v 3691.8320 -114.0588 274.9336
v 3691.8697 -114.1729 274.9336
v 3692.2300 -114.0509 274.9334
f 1222 1223 1224
v 3690.4662 -111.0062 274.9345
v 3688.1481 -111.8010 274.9358
v 3691.8145 -112.7678 274.9336
f 1225 1226 1227
v 3691.8145 -112.7678 274.9336
v 3685.7109 -112.6375 274.9372
v 3691.8320 -114.0588 274.9336
f 1228 1229 1230
v 3691.9025 -110.5130 274.9336
v 3690.4662 -111.0062 274.9345
v 3691.8145 -112.7678 274.9336
f 1231 1232 1233
v 3675.9420 -115.9873 274.9427
v 3674.7578 -119.8351 274.9433
v 3678.3212 -115.1717 274.9414
f 1234 1235 1236
v 3674.7578 -119.8351 274.9433
v 3675.9420 -115.9873 274.9427
v 3673.4248 -116.8506 274.9442
f 1237 1238 1239
v 3667.1064 -123.3736 274.9477
v 3668.4823 -118.5463 274.9470
v 3665.7839 -119.4720 274.9485
f 1240 1241 1242
v 3685.7109 -112.6375 274.9372
v 3683.1696 -113.5076 274.9386
v 3691.8320 -114.0588 274.9336
f 1243 1244 1245
v 3674.7578 -119.8351 274.9433
v 3683.1696 -113.5076 274.9386
v 3680.7404 -114.3432 274.9400
f 1246 1247 1248
v 3674.7578 -119.8351 274.9433
v 3680.7404 -114.3432 274.9400
v 3678.3212 -115.1717 274.9414
f 1249 1250 1251
v 3683.1696 -113.5076 274.9386
v 3674.7578 -119.8351 274.9433
v 3691.8320 -114.0588 274.9336
f 1252 1253 1254
v 3674.9026 -120.2804 274.9433
v 3674.7578 -119.8351 274.9433
v 3667.1064 -123.3736 274.9477
f 1255 1256 1257
v 3668.4823 -118.5463 274.9470
v 3674.7578 -119.8351 274.9433
v 3671.0446 -117.6682 274.9455
f 1258 1259 1260
v 3674.9026 -120.2804 274.9433
v 3667.1064 -123.3736 274.9477
v 3675.0415 -120.6898 274.9432
f 1261 1262 1263
v 3674.7578 -119.8351 274.9433
v 3668.4823 -118.5463 274.9470
v 3667.1064 -123.3736 274.9477
f 1264 1265 1266
v 3671.0446 -117.6682 274.9455
v 3674.7578 -119.8351 274.9433
v 3673.4248 -116.8506 274.9442
f 1267 1268 1269
v 3688.1481 -111.8010 274.9358
v 3685.7109 -112.6375 274.9372
v 3691.8145 -112.7678 274.9336
f 1270 1271 1272
v 3664.0857 -114.4726 268.8758
v 3664.0857 -114.4726 268.8958
v 3689.4716 -105.7647 268.8613
f 1273 1274 1275
v 3690.4360 -106.2372 274.9346
v 3689.7147 -106.4803 268.8612
v 3689.7200 -106.4803 277.6849
f 1276 1277 1278
v 3689.7200 -106.4803 277.6849
v 3690.4376 -106.2371 277.7784
v 3690.4360 -106.2372 274.9346
f 1279 1280 1281
v 3703.2634 -101.8846 274.9272
v 3703.2598 -101.8846 268.8534
v 3689.7147 -106.4803 268.8612
f 1282 1283 1284
v 3690.4360 -106.2372 274.9346
v 3703.2634 -101.8846 274.9272
v 3689.7147 -106.4803 268.8612
f 1285 1286 1287
v 3663.0396 -110.4588 277.6301
v 3662.7572 -110.5531 268.8966
v 3662.7623 -110.5531 277.7083
f 1288 1289 1290
v 3663.1216 -110.4310 277.6051
v 3662.7572 -110.5531 268.8966
v 3663.0396 -110.4588 277.6301
f 1291 1292 1293
v 3663.1165 -110.4310 268.8964
v 3662.7572 -110.5531 268.8966
v 3663.1216 -110.4310 277.6051
f 1294 1295 1296
v 3689.4717 -105.7647 268.8813
v 3688.1699 -101.9283 268.8821
v 3688.1751 -101.9282 277.6878
f 1297 1298 1299
v 3689.4717 -105.7647 268.8813
v 3688.1751 -101.9282 277.6878
v 3689.7200 -106.4803 277.6849
f 1300 1301 1302
v 3689.7147 -106.4803 268.8612
v 3689.4717 -105.7647 268.8813
v 3689.7200 -106.4803 277.6849
f 1303 1304 1305
v 3689.4716 -105.7647 268.8613
v 3689.4717 -105.7647 268.8813
v 3689.7147 -106.4803 268.8612
f 1306 1307 1308
v 3663.5898 -112.9943 277.7088
v 3664.0857 -114.4726 268.8958
v 3665.7839 -119.4720 274.9485
f 1309 1310 1311
v 3667.1028 -123.3736 268.8739
v 3667.1064 -123.3736 274.9477
v 3665.7839 -119.4720 274.9485
f 1312 1313 1314
v 3667.1028 -123.3736 268.8739
v 3665.7839 -119.4720 274.9485
v 3664.0857 -114.4726 268.8758
f 1315 1316 1317
v 3664.0857 -114.4726 268.8958
v 3664.0857 -114.4726 268.8758
v 3665.7839 -119.4720 274.9485
f 1318 1319 1320
v 3663.5898 -112.9943 277.7088
v 3665.7839 -119.4720 274.9485
v 3665.7855 -119.4721 277.7154
f 1321 1322 1323
v 3663.4430 -112.5619 277.7099
v 3664.0857 -114.4726 268.8958
v 3663.5898 -112.9943 277.7088
f 1324 1325 1326
v 3664.0857 -114.4726 268.8958
v 3662.7623 -110.5531 277.7083
v 3662.7572 -110.5531 268.8966
f 1327 1328 1329
v 3664.0857 -114.4726 268.8958
v 3663.4430 -112.5619 277.7099
v 3662.7623 -110.5531 277.7083
f 1330 1331 1332
v 3685.7125 -112.6374 277.5921
v 3690.4678 -111.0062 277.5894
v 3688.1501 -111.8010 278.3497
f 1333 1334 1335
v 3680.7419 -114.3431 277.5949
v 3673.4248 -116.8506 274.9442
v 3685.7125 -112.6374 277.5921
f 1336 1337 1338
v 3683.1716 -113.5076 278.3525
v 3680.7419 -114.3431 277.5949
v 3685.7125 -112.6374 277.5921
f 1339 1340 1341
v 3685.7125 -112.6374 277.5921
v 3678.3212 -115.1717 274.9414
v 3690.4678 -111.0062 277.5894
f 1342 1343 1344
v 3691.9025 -110.5130 274.9336
v 3691.9042 -110.5131 277.7775
v 3690.4662 -111.0062 274.9345
f 1345 1346 1347
v 3691.9042 -110.5131 277.7775
v 3690.4678 -111.0062 277.5894
v 3685.7109 -112.6375 274.9372
f 1348 1349 1350
v 3690.4662 -111.0062 274.9345
v 3691.9042 -110.5131 277.7775
v 3688.1481 -111.8010 274.9358
f 1351 1352 1353
v 3690.4678 -111.0062 277.5894
v 3680.7404 -114.3432 274.9400
v 3683.1696 -113.5076 274.9386
f 1354 1355 1356
v 3685.7109 -112.6375 274.9372
v 3688.1481 -111.8010 274.9358
v 3691.9042 -110.5131 277.7775
f 1357 1358 1359
v 3690.4678 -111.0062 277.5894
v 3683.1696 -113.5076 274.9386
v 3685.7109 -112.6375 274.9372
f 1360 1361 1362
v 3678.3212 -115.1717 274.9414
v 3680.7404 -114.3432 274.9400
v 3690.4678 -111.0062 277.5894
f 1363 1364 1365
v 3675.9436 -115.9872 277.5976
v 3680.7419 -114.3431 277.5949
v 3678.3232 -115.1717 278.3553
f 1366 1367 1368
v 3671.0462 -117.6681 277.6004
v 3675.9436 -115.9872 277.5976
v 3673.4268 -116.8505 278.3581
f 1369 1370 1371
v 3665.7839 -119.4720 274.9485
v 3675.9436 -115.9872 277.5976
v 3671.0462 -117.6681 277.6004
f 1372 1373 1374
v 3665.7839 -119.4720 274.9485
v 3666.1848 -119.3352 277.6032
v 3665.7855 -119.4721 277.7154
f 1375 1376 1377
v 3668.4673 -118.5522 278.3609
v 3666.1848 -119.3352 277.6032
v 3671.0462 -117.6681 277.6004
f 1378 1379 1380
v 3665.7839 -119.4720 274.9485
v 3671.0462 -117.6681 277.6004
v 3666.1848 -119.3352 277.6032
f 1381 1382 1383
v 3685.7125 -112.6374 277.5921
v 3675.9420 -115.9873 274.9427
v 3678.3212 -115.1717 274.9414
f 1384 1385 1386
v 3675.9420 -115.9873 274.9427
v 3685.7125 -112.6374 277.5921
v 3673.4248 -116.8506 274.9442
f 1387 1388 1389
v 3675.9436 -115.9872 277.5976
v 3665.7839 -119.4720 274.9485
v 3668.4823 -118.5463 274.9470
f 1390 1391 1392
v 3673.4248 -116.8506 274.9442
v 3680.7419 -114.3431 277.5949
v 3671.0446 -117.6682 274.9455
f 1393 1394 1395
v 3680.7419 -114.3431 277.5949
v 3668.4823 -118.5463 274.9470
v 3671.0446 -117.6682 274.9455
f 1396 1397 1398
v 3675.9436 -115.9872 277.5976
v 3668.4823 -118.5463 274.9470
v 3680.7419 -114.3431 277.5949
f 1399 1400 1401
v 3663.2352 -110.6034 277.6210
v 3668.0615 -108.9652 277.6023
v 3663.1861 -110.6202 277.6051
f 1402 1403 1404
v 3663.3913 -110.5508 277.6699
v 3668.0615 -108.9652 277.6023
v 3663.2352 -110.6034 277.6210
f 1405 1406 1407
v 3663.3913 -110.5508 277.6699
v 3665.4786 -109.8423 278.3628
v 3668.0615 -108.9652 277.6023
f 1408 1409 1410
v 3668.0615 -108.9652 277.6023
v 3670.4440 -108.1566 278.3599
v 3672.9639 -107.3014 277.5995
f 1411 1412 1413
v 3665.4720 -109.8424 268.8951
v 3668.0615 -108.9652 277.6023
v 3672.9639 -107.3014 277.5995
f 1414 1415 1416
v 3663.1810 -110.6202 268.8964
v 3663.1861 -110.6202 277.6051
v 3668.0615 -108.9652 277.6023
f 1417 1418 1419
v 3665.4720 -109.8424 268.8951
v 3663.1810 -110.6202 268.8964
v 3668.0615 -108.9652 277.6023
f 1420 1421 1422
v 3669.6599 -108.4206 268.8927
v 3665.4720 -109.8424 268.8951
v 3672.9639 -107.3014 277.5995
f 1423 1424 1425
v 3672.9588 -107.3014 268.8908
v 3677.7672 -105.6712 277.5968
v 3675.3409 -106.4928 268.8894
f 1426 1427 1428
v 3672.9588 -107.3014 268.8908
v 3669.6599 -108.4206 268.8927
v 3677.7672 -105.6712 277.5968
f 1429 1430 1431
v 3672.9639 -107.3014 277.5995
v 3677.7672 -105.6712 277.5968
v 3669.6599 -108.4206 268.8927
f 1432 1433 1434
v 3682.7436 -103.9826 277.5939
v 3677.7672 -105.6712 277.5968
v 3680.2008 -104.8457 278.3544
f 1435 1436 1437
v 3677.7672 -105.6712 277.5968
v 3682.7436 -103.9826 277.5939
v 3675.3409 -106.4928 268.8894
f 1438 1439 1440
v 3687.5049 -102.3663 277.5912
v 3682.7436 -103.9826 277.5939
v 3685.1843 -103.1541 278.3515
f 1441 1442 1443
v 3687.8773 -102.2394 274.3561
v 3687.5049 -102.3663 277.5912
v 3687.8793 -102.2393 277.6400
f 1444 1445 1446
v 3687.8773 -102.2394 274.3561
v 3682.7436 -103.9826 277.5939
v 3687.5049 -102.3663 277.5912
f 1447 1448 1449
v 3675.3409 -106.4928 268.8894
v 3682.7436 -103.9826 277.5939
v 3680.3394 -104.7972 268.8866
f 1450 1451 1452
v 3687.8773 -102.2394 274.3561
v 3682.7385 -103.9826 268.8852
v 3680.3394 -104.7972 268.8866
f 1453 1454 1455
v 3682.7385 -103.9826 268.8852
v 3687.8773 -102.2394 274.3561
v 3685.9244 -102.9012 268.8834
f 1456 1457 1458
v 3687.8773 -102.2394 274.3561
v 3687.8741 -102.2394 268.8823
v 3685.9244 -102.9012 268.8834
f 1459 1460 1461
v 3680.3394 -104.7972 268.8866
v 3682.7436 -103.9826 277.5939
v 3687.8773 -102.2394 274.3561
f 1462 1463 1464
v 3675.3465 -106.4928 278.3571
v 3677.7672 -105.6712 277.5968
v 3672.9639 -107.3014 277.5995
f 1465 1466 1467
v 3688.1699 -101.9283 268.8821
v 3687.8096 -102.0502 268.8823
v 3687.8148 -102.0501 277.6400
f 1468 1469 1470
v 3687.8793 -102.2393 277.6400
v 3687.8148 -102.0501 277.6400
v 3687.8096 -102.0502 268.8823
f 1471 1472 1473
v 3690.4376 -106.2371 277.7784
v 3691.9042 -110.5131 277.7775
v 3691.9025 -110.5130 274.9336
f 1474 1475 1476
v 3663.1165 -110.4310 268.8964
v 3663.1861 -110.6202 277.6051
v 3663.1810 -110.6202 268.8964
f 1477 1478 1479
v 3704.3345 -103.8715 268.8527
v 3712.1100 -101.2502 274.9221
v 3712.1064 -101.2502 268.8483
f 1480 1481 1482
v 3703.5805 -101.6484 268.8532
v 3704.3381 -103.8713 274.9265
v 3704.3345 -103.8715 268.8527
f 1483 1484 1485
v 3703.2211 -101.7705 268.8534
v 3703.5841 -101.6484 274.9270
v 3703.5805 -101.6484 268.8532
f 1486 1487 1488
v 3703.2598 -101.8846 268.8534
v 3703.2247 -101.7704 274.9272
v 3703.2211 -101.7705 268.8534
f 1489 1490 1491
v 3675.0379 -120.6898 268.8694
v 3667.1064 -123.3736 274.9477
v 3667.1028 -123.3736 268.8739
f 1492 1493 1494
v 3674.8990 -120.2805 268.8695
v 3675.0415 -120.6898 274.9432
v 3675.0379 -120.6898 268.8694
f 1495 1496 1497
v 3674.7542 -119.8351 268.8695
v 3674.9026 -120.2804 274.9433
v 3674.8990 -120.2805 268.8695
f 1498 1499 1500
v 3691.8285 -114.0589 268.8598
v 3674.7578 -119.8351 274.9433
v 3674.7542 -119.8351 268.8695
f 1501 1502 1503
v 3691.8661 -114.1729 268.8598
v 3691.8320 -114.0588 274.9336
v 3691.8285 -114.0589 268.8598
f 1504 1505 1506
v 3692.2264 -114.0510 268.8596
v 3691.8697 -114.1729 274.9336
v 3691.8661 -114.1729 268.8598
f 1507 1508 1509
v 3691.8109 -112.7678 268.8598
v 3692.2300 -114.0509 274.9334
v 3692.2264 -114.0510 268.8596
f 1510 1511 1512
v 3705.4575 -108.3534 268.8520
v 3691.8145 -112.7678 274.9336
v 3691.8109 -112.7678 268.8598
f 1513 1514 1515
v 3713.5788 -105.6171 268.8474
v 3705.4611 -108.3533 274.9258
v 3705.4575 -108.3534 268.8520
f 1516 1517 1518
v 3712.1064 -101.2502 268.8483
v 3713.5824 -105.6171 274.9212
v 3713.5788 -105.6171 268.8474
f 1519 1520 1521
v 3664.0857 -114.4726 268.8958
v 3689.4717 -105.7647 268.8813
v 3689.4716 -105.7647 268.8613
f 1522 1523 1524

g building_ID_FCE172E8-2233-44CA-A61E-C113AEFD4DFA
v 3756.6856 -38.8073 268.4270
v 3764.4091 -28.8851 268.4225
v 3766.7613 -34.7683 268.4211
f 1525 1526 1527
v 3764.4091 -28.8851 268.4225
v 3756.6856 -38.8073 268.4270
v 3754.3305 -32.9041 268.4284
f 1528 1529 1530
v 3756.6905 -38.8071 276.6467
v 3766.7663 -34.7682 276.6408
v 3764.4140 -28.8849 276.6422
f 1531 1532 1533
v 3764.4140 -28.8849 276.6422
v 3754.3354 -32.9040 276.6481
v 3756.6905 -38.8071 276.6467
f 1534 1535 1536
v 3754.3305 -32.9041 268.4284
v 3754.3354 -32.9040 276.6481
v 3764.4140 -28.8849 276.6422
f 1537 1538 1539
v 3756.6856 -38.8073 268.4270
v 3756.6905 -38.8071 276.6467
v 3754.3354 -32.9040 276.6481
f 1540 1541 1542
v 3766.7613 -34.7683 268.4211
v 3766.7663 -34.7682 276.6408
v 3756.6905 -38.8071 276.6467
f 1543 1544 1545
v 3764.4091 -28.8851 268.4225
v 3764.4140 -28.8849 276.6422
v 3766.7663 -34.7682 276.6408
f 1546 1547 1548
v 3754.3305 -32.9041 268.4284
v 3764.4140 -28.8849 276.6422
v 3764.4091 -28.8851 268.4225
f 1549 1550 1551
v 3756.6856 -38.8073 268.4270
v 3754.3354 -32.9040 276.6481
v 3754.3305 -32.9041 268.4284
f 1552 1553 1554
v 3766.7613 -34.7683 268.4211
v 3756.6905 -38.8071 276.6467
v 3756.6856 -38.8073 268.4270
f 1555 1556 1557
v 3764.4091 -28.8851 268.4225
v 3766.7663 -34.7682 276.6408
v 3766.7613 -34.7683 268.4211
f 1558 1559 1560

g building_ID_45859C9D-340C-41EF-BC72-84B331E2F19B
v 3863.9643 48.1345 267.6721
v 3876.9309 53.6538 267.6642
v 3866.3941 42.4262 267.6707
f 1561 1562 1563
v 3866.3941 42.4262 267.6707
v 3876.9309 53.6538 267.6642
v 3879.3386 47.9354 267.6628
f 1564 1565 1566
v 3866.3990 42.4263 275.5903
v 3876.9353 53.6541 274.7959
v 3863.9688 48.1348 274.8018
f 1567 1568 1569
v 3876.9353 53.6541 274.7959
v 3866.3990 42.4263 275.5903
v 3879.3435 47.9357 275.5845
f 1570 1571 1572
v 3876.9353 53.6541 274.7959
v 3879.3386 47.9354 267.6628
v 3876.9309 53.6538 267.6642
f 1573 1574 1575
v 3876.9353 53.6541 274.7959
v 3879.3435 47.9357 275.5845
v 3879.3386 47.9354 267.6628
f 1576 1577 1578
v 3863.9643 48.1345 267.6721
v 3863.9688 48.1348 274.8018
v 3876.9309 53.6538 267.6642
f 1579 1580 1581
v 3866.3941 42.4262 267.6707
v 3879.3386 47.9354 267.6628
v 3866.3990 42.4263 275.5903
f 1582 1583 1584
v 3863.9688 48.1348 274.8018
v 3876.9353 53.6541 274.7959
v 3876.9309 53.6538 267.6642
f 1585 1586 1587
v 3863.9643 48.1345 267.6721
v 3866.3941 42.4262 267.6707
v 3866.3990 42.4263 275.5903
f 1588 1589 1590
v 3863.9688 48.1348 274.8018
v 3863.9643 48.1345 267.6721
v 3866.3990 42.4263 275.5903
f 1591 1592 1593
v 3866.3990 42.4263 275.5903
v 3879.3386 47.9354 267.6628
v 3879.3435 47.9357 275.5845
f 1594 1595 1596

g building_ID_6D2B025E-A7E8-46D7-A5A6-A0892198CD1D
v 3857.5520 50.1987 267.6699
v 3855.6246 45.5609 267.6711
v 3854.0846 48.1720 267.6720
f 1597 1598 1599
v 3859.0831 47.6266 267.6690
v 3855.6246 45.5609 267.6711
v 3857.5520 50.1987 267.6699
f 1600 1601 1602
v 3855.6280 45.5611 273.1759
v 3859.0864 47.6268 273.1738
v 3854.0879 48.1722 273.0168
f 1603 1604 1605
v 3854.0879 48.1722 273.0168
v 3859.0864 47.6268 273.1738
v 3857.5552 50.1988 273.0167
f 1606 1607 1608
v 3857.5552 50.1988 273.0167
v 3857.5520 50.1987 267.6699
v 3854.0879 48.1722 273.0168
f 1609 1610 1611
v 3854.0879 48.1722 273.0168
v 3857.5520 50.1987 267.6699
v 3854.0846 48.1720 267.6720
f 1612 1613 1614
v 3855.6280 45.5611 273.1759
v 3854.0879 48.1722 273.0168
v 3854.0846 48.1720 267.6720
f 1615 1616 1617
v 3855.6280 45.5611 273.1759
v 3854.0846 48.1720 267.6720
v 3855.6246 45.5609 267.6711
f 1618 1619 1620
v 3859.0831 47.6266 267.6690
v 3859.0864 47.6268 273.1738
v 3855.6246 45.5609 267.6711
f 1621 1622 1623
v 3859.0864 47.6268 273.1738
v 3857.5520 50.1987 267.6699
v 3857.5552 50.1988 273.0167
f 1624 1625 1626
v 3859.0864 47.6268 273.1738
v 3859.0831 47.6266 267.6690
v 3857.5520 50.1987 267.6699
f 1627 1628 1629
v 3859.0864 47.6268 273.1738
v 3855.6280 45.5611 273.1759
v 3855.6246 45.5609 267.6711
f 1630 1631 1632

g building_ID_A9E6CAAE-0C33-4658-AFE3-A99BE9D9F800
v 3756.2444 4.7789 253.6600
v 3758.2107 0.0387 253.6588
v 3757.8794 -0.0805 253.6590
f 1633 1634 1635
v 3747.0446 -4.9053 253.6654
v 3757.8794 -0.0805 253.6590
v 3757.9936 -0.3657 253.6590
f 1636 1637 1638
v 3756.2444 4.7789 253.6600
v 3757.8794 -0.0805 253.6590
v 3747.0446 -4.9053 253.6654
f 1639 1640 1641
v 3747.0446 -4.9053 253.6654
v 3745.8563 0.5907 253.6661
v 3756.2444 4.7789 253.6600
f 1642 1643 1644
v 3757.3906 1.3140 261.1960
v 3750.6265 2.5122 260.6191
v 3746.6659 -3.1321 261.2023
f 1645 1646 1647
v 3746.6659 -3.1321 261.2023
v 3750.6265 2.5122 260.6191
v 3745.8605 0.5909 260.6139
f 1648 1649 1650
v 3757.3906 1.3140 261.1960
v 3757.9581 -0.0534 261.4287
v 3758.2154 0.0389 261.4305
f 1651 1652 1653
v 3757.3906 1.3140 261.1960
v 3756.2485 4.7791 260.6248
v 3750.6265 2.5122 260.6191
f 1654 1655 1656
v 3758.2154 0.0389 261.4305
v 3756.2485 4.7791 260.6248
v 3757.3906 1.3140 261.1960
f 1657 1658 1659
v 3758.2154 0.0389 261.4305
v 3758.2107 0.0387 253.6588
v 3756.2485 4.7791 260.6248
f 1660 1661 1662
v 3756.2485 4.7791 260.6248
v 3758.2107 0.0387 253.6588
v 3756.2444 4.7789 253.6600
f 1663 1664 1665
v 3745.8563 0.5907 253.6661
v 3745.8605 0.5909 260.6139
v 3756.2444 4.7789 253.6600
f 1666 1667 1668
v 3750.6265 2.5122 260.6191
v 3756.2444 4.7789 253.6600
v 3745.8605 0.5909 260.6139
f 1669 1670 1671
v 3756.2485 4.7791 260.6248
v 3756.2444 4.7789 253.6600
v 3750.6265 2.5122 260.6191
f 1672 1673 1674
v 3746.6618 -3.1324 254.2496
v 3746.6659 -3.1321 261.2023
v 3745.8563 0.5907 253.6661
f 1675 1676 1677
v 3746.6618 -3.1324 254.2496
v 3747.0446 -4.9053 253.6654
v 3747.0450 -4.9053 254.2494
f 1678 1679 1680
v 3747.0446 -4.9053 253.6654
v 3746.6618 -3.1324 254.2496
v 3745.8563 0.5907 253.6661
f 1681 1682 1683
v 3757.9936 -0.3657 253.6590
v 3757.9939 -0.3657 254.2430
v 3747.0450 -4.9053 254.2494
f 1684 1685 1686
v 3757.9590 -0.0534 262.9947
v 3757.3917 1.3142 262.9950
v 3757.8850 -0.0801 262.9947
f 1687 1688 1689
v 3746.4797 -3.2097 263.0014
v 3757.8850 -0.0801 262.9947
v 3757.3917 1.3142 262.9950
f 1690 1691 1692
v 3760.3376 -6.2007 262.9932
v 3757.8850 -0.0801 262.9947
v 3751.0344 -10.0577 262.9986
f 1693 1694 1695
v 3757.8850 -0.0801 262.9947
v 3746.6137 -3.9930 263.0013
v 3751.0344 -10.0577 262.9986
f 1696 1697 1698
v 3751.0344 -10.0577 262.9986
v 3746.6137 -3.9930 263.0013
v 3748.6638 -11.0174 263.0000
f 1699 1700 1701
v 3745.9349 -4.2752 263.0017
v 3748.6638 -11.0174 263.0000
v 3746.6137 -3.9930 263.0013
f 1702 1703 1704
v 3746.4797 -3.2097 263.0014
v 3746.6137 -3.9930 263.0013
v 3757.8850 -0.0801 262.9947
f 1705 1706 1707
v 3746.6085 -3.9932 254.2496
v 3746.6137 -3.9930 263.0013
v 3746.4797 -3.2097 263.0014
f 1708 1709 1710
v 3745.9297 -4.2754 254.2500
v 3745.9349 -4.2752 263.0017
v 3746.6137 -3.9930 263.0013
f 1711 1712 1713
v 3748.6586 -11.0176 254.2484
v 3748.6638 -11.0174 263.0000
v 3745.9349 -4.2752 263.0017
f 1714 1715 1716
v 3751.0291 -10.0579 254.2470
v 3751.0344 -10.0577 262.9986
v 3748.6638 -11.0174 263.0000
f 1717 1718 1719
v 3760.3323 -6.2009 254.2415
v 3760.3376 -6.2007 262.9932
v 3751.0344 -10.0577 262.9986
f 1720 1721 1722
v 3747.0450 -4.9053 254.2494
v 3745.9297 -4.2754 254.2500
v 3746.6085 -3.9932 254.2496
f 1723 1724 1725
v 3751.0291 -10.0579 254.2470
v 3748.6586 -11.0176 254.2484
v 3747.0450 -4.9053 254.2494
f 1726 1727 1728
v 3745.9297 -4.2754 254.2500
v 3747.0450 -4.9053 254.2494
v 3748.6586 -11.0176 254.2484
f 1729 1730 1731
v 3746.6085 -3.9932 254.2496
v 3746.6618 -3.1324 254.2496
v 3747.0450 -4.9053 254.2494
f 1732 1733 1734
v 3760.3323 -6.2009 254.2415
v 3751.0291 -10.0579 254.2470
v 3757.9939 -0.3657 254.2430
f 1735 1736 1737
v 3757.9939 -0.3657 254.2430
v 3751.0291 -10.0579 254.2470
v 3747.0450 -4.9053 254.2494
f 1738 1739 1740
v 3746.4745 -3.2099 254.2497
v 3746.6618 -3.1324 254.2496
v 3746.6085 -3.9932 254.2496
f 1741 1742 1743
v 3757.3906 1.3140 261.1960
v 3757.3917 1.3142 262.9950
v 3757.9581 -0.0534 261.4287
f 1744 1745 1746
v 3746.4745 -3.2099 254.2497
v 3746.4797 -3.2097 263.0014
v 3746.6659 -3.1321 261.2023
f 1747 1748 1749
v 3757.3917 1.3142 262.9950
v 3746.6659 -3.1321 261.2023
v 3746.4797 -3.2097 263.0014
f 1750 1751 1752
v 3746.6618 -3.1324 254.2496
v 3746.4745 -3.2099 254.2497
v 3746.6659 -3.1321 261.2023
f 1753 1754 1755
v 3757.3917 1.3142 262.9950
v 3757.3906 1.3140 261.1960
v 3746.6659 -3.1321 261.2023
f 1756 1757 1758
v 3757.9936 -0.3657 253.6590
v 3757.8819 -0.0803 257.8358
v 3757.9939 -0.3657 254.2430
f 1759 1760 1761
v 3757.8819 -0.0803 257.8358
v 3757.9936 -0.3657 253.6590
v 3757.8794 -0.0805 253.6590
f 1762 1763 1764
v 3760.3323 -6.2009 254.2415
v 3757.8850 -0.0801 262.9947
v 3760.3376 -6.2007 262.9932
f 1765 1766 1767
v 3757.9939 -0.3657 254.2430
v 3757.8819 -0.0803 257.8358
v 3760.3323 -6.2009 254.2415
f 1768 1769 1770
v 3757.8850 -0.0801 262.9947
v 3760.3323 -6.2009 254.2415
v 3757.8819 -0.0803 257.8358
f 1771 1772 1773
v 3757.8850 -0.0801 262.9947
v 3757.9581 -0.0534 261.4287
v 3757.9590 -0.0534 262.9947
f 1774 1775 1776
v 3757.9581 -0.0534 261.4287
v 3758.2107 0.0387 253.6588
v 3758.2154 0.0389 261.4305
f 1777 1778 1779
v 3758.2107 0.0387 253.6588
v 3757.9581 -0.0534 261.4287
v 3757.8819 -0.0803 257.8358
f 1780 1781 1782
v 3758.2107 0.0387 253.6588
v 3757.8819 -0.0803 257.8358
v 3757.8794 -0.0805 253.6590
f 1783 1784 1785
v 3757.8850 -0.0801 262.9947
v 3757.8819 -0.0803 257.8358
v 3757.9581 -0.0534 261.4287
f 1786 1787 1788
v 3746.6659 -3.1321 261.2023
v 3745.8605 0.5909 260.6139
v 3745.8563 0.5907 253.6661
f 1789 1790 1791
v 3757.9936 -0.3657 253.6590
v 3747.0450 -4.9053 254.2494
v 3747.0446 -4.9053 253.6654
f 1792 1793 1794
v 3746.6085 -3.9932 254.2496
v 3746.4797 -3.2097 263.0014
v 3746.4745 -3.2099 254.2497
f 1795 1796 1797
v 3745.9297 -4.2754 254.2500
v 3746.6137 -3.9930 263.0013
v 3746.6085 -3.9932 254.2496
f 1798 1799 1800
v 3748.6586 -11.0176 254.2484
v 3745.9349 -4.2752 263.0017
v 3745.9297 -4.2754 254.2500
f 1801 1802 1803
v 3751.0291 -10.0579 254.2470
v 3748.6638 -11.0174 263.0000
v 3748.6586 -11.0176 254.2484
f 1804 1805 1806
v 3760.3323 -6.2009 254.2415
v 3751.0344 -10.0577 262.9986
v 3751.0291 -10.0579 254.2470
f 1807 1808 1809
v 3757.3917 1.3142 262.9950
v 3757.9590 -0.0534 262.9947
v 3757.9581 -0.0534 261.4287
f 1810 1811 1812
