# Grid Center: 2619400, 1264800
# Global Anchor: 7.64977475454284, 47.53283995868075, 0.0

g building_ID_C039EB77-72A0-47B4-B7B3-4F7CDAEC9975
v 3662.7572 -110.5531 268.8966
v 3663.1810 -110.6202 268.8964
v 3664.0857 -114.4726 268.8958
f 1 2 3
v 3664.0857 -114.4726 268.8958
v 3663.1810 -110.6202 268.8964
v 3665.4720 -109.8424 268.8951
f 4 5 6
v 3664.0857 -114.4726 268.8958
v 3665.4720 -109.8424 268.8951
v 3669.6599 -108.4206 268.8927
f 7 8 9
v 3689.4717 -105.7647 268.8813
v 3664.0857 -114.4726 268.8958
v 3680.3394 -104.7972 268.8866
f 10 11 12
v 3672.9588 -107.3014 268.8908
v 3664.0857 -114.4726 268.8958
v 3669.6599 -108.4206 268.8927
f 13 14 15
v 3664.0857 -114.4726 268.8958
v 3672.9588 -107.3014 268.8908
v 3675.3409 -106.4928 268.8894
f 16 17 18
v 3675.3409 -106.4928 268.8894
v 3680.3394 -104.7972 268.8866
v 3664.0857 -114.4726 268.8958
f 19 20 21
v 3663.1165 -110.4310 268.8964
v 3663.1810 -110.6202 268.8964
v 3662.7572 -110.5531 268.8966
f 22 23 24
v 3687.8741 -102.2394 268.8823
v 3689.4717 -105.7647 268.8813
v 3685.9244 -102.9012 268.8834
f 25 26 27
v 3688.1699 -101.9283 268.8821
v 3687.8741 -102.2394 268.8823
v 3687.8096 -102.0502 268.8823
f 28 29 30
v 3689.4717 -105.7647 268.8813
v 3687.8741 -102.2394 268.8823
v 3688.1699 -101.9283 268.8821
f 31 32 33
v 3682.7385 -103.9826 268.8852
v 3685.9244 -102.9012 268.8834
v 3689.4717 -105.7647 268.8813
f 34 35 36
v 3689.4717 -105.7647 268.8813
v 3680.3394 -104.7972 268.8866
v 3682.7385 -103.9826 268.8852
f 37 38 39
v 3680.7419 -114.3431 277.5949
v 3680.2008 -104.8457 278.3544
v 3677.7672 -105.6712 277.5968
f 40 41 42
v 3680.2008 -104.8457 278.3544
v 3680.7419 -114.3431 277.5949
v 3683.1716 -113.5076 278.3525
f 43 44 45
v 3678.3232 -115.1717 278.3553
v 3677.7672 -105.6712 277.5968
v 3675.3465 -106.4928 278.3571
f 46 47 48
v 3677.7672 -105.6712 277.5968
v 3678.3232 -115.1717 278.3553
v 3680.7419 -114.3431 277.5949
f 49 50 51
v 3675.9436 -115.9872 277.5976
v 3675.3465 -106.4928 278.3571
v 3672.9639 -107.3014 277.5995
f 52 53 54
v 3675.3465 -106.4928 278.3571
v 3675.9436 -115.9872 277.5976
v 3678.3232 -115.1717 278.3553
f 55 56 57
v 3673.4268 -116.8505 278.3581
v 3672.9639 -107.3014 277.5995
v 3670.4440 -108.1566 278.3599
f 58 59 60
v 3672.9639 -107.3014 277.5995
v 3673.4268 -116.8505 278.3581
v 3675.9436 -115.9872 277.5976
f 61 62 63
v 3685.7125 -112.6374 277.5921
v 3685.1843 -103.1541 278.3515
v 3682.7436 -103.9826 277.5939
f 64 65 66
v 3685.1843 -103.1541 278.3515
v 3685.7125 -112.6374 277.5921
v 3688.1501 -111.8010 278.3497
f 67 68 69
v 3683.1716 -113.5076 278.3525
v 3682.7436 -103.9826 277.5939
v 3680.2008 -104.8457 278.3544
f 70 71 72
v 3682.7436 -103.9826 277.5939
v 3683.1716 -113.5076 278.3525
v 3685.7125 -112.6374 277.5921
f 73 74 75
v 3688.1501 -111.8010 278.3497
v 3687.5049 -102.3663 277.5912
v 3685.1843 -103.1541 278.3515
f 76 77 78
v 3687.5049 -102.3663 277.5912
v 3688.1501 -111.8010 278.3497
v 3690.4678 -111.0062 277.5894
f 79 80 81
v 3688.1751 -101.9282 277.6878
v 3687.8148 -102.0501 277.6400
v 3689.7200 -106.4803 277.6849
f 82 83 84
v 3687.8793 -102.2393 277.6400
v 3687.5049 -102.3663 277.5912
v 3690.4678 -111.0062 277.5894
f 85 86 87
v 3689.7200 -106.4803 277.6849
v 3687.8793 -102.2393 277.6400
v 3690.4678 -111.0062 277.5894
f 88 89 90
v 3689.7200 -106.4803 277.6849
v 3687.8148 -102.0501 277.6400
v 3687.8793 -102.2393 277.6400
f 91 92 93
v 3689.7200 -106.4803 277.6849
v 3691.9042 -110.5131 277.7775
v 3690.4376 -106.2371 277.7784
f 94 95 96
v 3691.9042 -110.5131 277.7775
v 3689.7200 -106.4803 277.6849
v 3690.4678 -111.0062 277.5894
f 97 98 99
v 3671.0462 -117.6681 277.6004
v 3670.4440 -108.1566 278.3599
v 3668.0615 -108.9652 277.6023
f 100 101 102
v 3670.4440 -108.1566 278.3599
v 3671.0462 -117.6681 277.6004
v 3673.4268 -116.8505 278.3581
f 103 104 105
v 3671.0462 -117.6681 277.6004
v 3668.0615 -108.9652 277.6023
v 3665.4786 -109.8423 278.3628
f 106 107 108
v 3665.4786 -109.8423 278.3628
v 3668.4673 -118.5522 278.3609
v 3671.0462 -117.6681 277.6004
f 109 110 111
v 3665.4786 -109.8423 278.3628
v 3663.3913 -110.5508 277.6699
v 3668.4673 -118.5522 278.3609
f 112 113 114
v 3663.1861 -110.6202 277.6051
v 3666.1848 -119.3352 277.6032
v 3668.4673 -118.5522 278.3609
f 115 116 117
v 3668.4673 -118.5522 278.3609
v 3663.2352 -110.6034 277.6210
v 3663.1861 -110.6202 277.6051
f 118 119 120
v 3663.2352 -110.6034 277.6210
v 3668.4673 -118.5522 278.3609
v 3663.3913 -110.5508 277.6699
f 121 122 123
v 3663.5898 -112.9943 277.7088
v 3663.1216 -110.4310 277.6051
v 3663.0396 -110.4588 277.6301
f 124 125 126
v 3663.0396 -110.4588 277.6301
v 3663.4430 -112.5619 277.7099
v 3663.5898 -112.9943 277.7088
f 127 128 129
v 3663.5898 -112.9943 277.7088
v 3663.1861 -110.6202 277.6051
v 3663.1216 -110.4310 277.6051
f 130 131 132
v 3663.1861 -110.6202 277.6051
v 3665.7855 -119.4721 277.7154
v 3666.1848 -119.3352 277.6032
f 133 134 135
v 3663.5898 -112.9943 277.7088
v 3665.7855 -119.4721 277.7154
v 3663.1861 -110.6202 277.6051
f 136 137 138
v 3662.7623 -110.5531 277.7083
v 3663.4430 -112.5619 277.7099
v 3663.0396 -110.4588 277.6301
f 139 140 141
v 3688.1699 -101.9283 268.8821
v 3687.8148 -102.0501 277.6400
v 3688.1751 -101.9282 277.6878
f 142 143 144
v 3687.8793 -102.2393 277.6400
v 3687.8096 -102.0502 268.8823
v 3687.8773 -102.2394 274.3561
f 145 146 147
v 3687.8741 -102.2394 268.8823
v 3687.8773 -102.2394 274.3561
v 3687.8096 -102.0502 268.8823
f 148 149 150
v 3690.4360 -106.2372 274.9346
v 3690.4376 -106.2371 277.7784
v 3691.9025 -110.5130 274.9336
f 151 152 153
v 3663.1165 -110.4310 268.8964
v 3663.1216 -110.4310 277.6051
v 3663.1861 -110.6202 277.6051
f 154 155 156
v 3667.1028 -123.3736 268.8739
v 3664.0857 -114.4726 268.8758
v 3674.7542 -119.8351 268.8695
f 157 158 159
v 3689.7147 -106.4803 268.8612
v 3691.8109 -112.7678 268.8598
v 3674.7542 -119.8351 268.8695
f 160 161 162
v 3692.2264 -114.0510 268.8596
v 3691.8285 -114.0589 268.8598
v 3691.8109 -112.7678 268.8598
f 163 164 165
v 3674.7542 -119.8351 268.8695
v 3691.8109 -112.7678 268.8598
v 3691.8285 -114.0589 268.8598
f 166 167 168
v 3689.7147 -106.4803 268.8612
v 3674.7542 -119.8351 268.8695
v 3664.0857 -114.4726 268.8758
f 169 170 171
v 3674.8990 -120.2805 268.8695
v 3675.0379 -120.6898 268.8694
v 3667.1028 -123.3736 268.8739
f 172 173 174
v 3691.8285 -114.0589 268.8598
v 3692.2264 -114.0510 268.8596
v 3691.8661 -114.1729 268.8598
f 175 176 177
v 3674.8990 -120.2805 268.8695
v 3667.1028 -123.3736 268.8739
v 3674.7542 -119.8351 268.8695
f 178 179 180
v 3664.0857 -114.4726 268.8758
v 3689.4716 -105.7647 268.8613
v 3689.7147 -106.4803 268.8612
f 181 182 183
v 3703.5805 -101.6484 268.8532
v 3703.2598 -101.8846 268.8534
v 3703.2211 -101.7705 268.8534
f 184 185 186
v 3691.8109 -112.7678 268.8598
v 3704.3345 -103.8715 268.8527
v 3705.4575 -108.3534 268.8520
f 187 188 189
v 3703.2598 -101.8846 268.8534
v 3704.3345 -103.8715 268.8527
v 3689.7147 -106.4803 268.8612
f 190 191 192
v 3705.4575 -108.3534 268.8520
v 3712.1064 -101.2502 268.8483
v 3713.5788 -105.6171 268.8474
f 193 194 195
v 3703.5805 -101.6484 268.8532
v 3704.3345 -103.8715 268.8527
v 3703.2598 -101.8846 268.8534
f 196 197 198
v 3704.3345 -103.8715 268.8527
v 3712.1064 -101.2502 268.8483
v 3705.4575 -108.3534 268.8520
f 199 200 201
v 3689.7147 -106.4803 268.8612
v 3704.3345 -103.8715 268.8527
v 3691.8109 -112.7678 268.8598
f 202 203 204
v 3704.3345 -103.8715 268.8527
v 3704.3381 -103.8713 274.9265
v 3712.1100 -101.2502 274.9221
f 205 206 207
v 3703.5805 -101.6484 268.8532
v 3703.5841 -101.6484 274.9270
v 3704.3381 -103.8713 274.9265
f 208 209 210
v 3703.2211 -101.7705 268.8534
v 3703.2247 -101.7704 274.9272
v 3703.5841 -101.6484 274.9270
f 211 212 213
v 3703.2598 -101.8846 268.8534
v 3703.2634 -101.8846 274.9272
v 3703.2247 -101.7704 274.9272
f 214 215 216
v 3675.0379 -120.6898 268.8694
v 3675.0415 -120.6898 274.9432
v 3667.1064 -123.3736 274.9477
f 217 218 219
v 3674.8990 -120.2805 268.8695
v 3674.9026 -120.2804 274.9433
v 3675.0415 -120.6898 274.9432
f 220 221 222
v 3674.7542 -119.8351 268.8695
v 3674.7578 -119.8351 274.9433
v 3674.9026 -120.2804 274.9433
f 223 224 225
v 3691.8285 -114.0589 268.8598
v 3691.8320 -114.0588 274.9336
v 3674.7578 -119.8351 274.9433
f 226 227 228
v 3691.8661 -114.1729 268.8598
v 3691.8697 -114.1729 274.9336
v 3691.8320 -114.0588 274.9336
f 229 230 231
v 3692.2264 -114.0510 268.8596
v 3692.2300 -114.0509 274.9334
v 3691.8697 -114.1729 274.9336
f 232 233 234
v 3691.8109 -112.7678 268.8598
v 3691.8145 -112.7678 274.9336
v 3692.2300 -114.0509 274.9334
f 235 236 237
v 3705.4575 -108.3534 268.8520
v 3705.4611 -108.3533 274.9258
v 3691.8145 -112.7678 274.9336
f 238 239 240
v 3713.5788 -105.6171 268.8474
v 3713.5824 -105.6171 274.9212
v 3705.4611 -108.3533 274.9258
f 241 242 243
v 3712.1064 -101.2502 268.8483
v 3712.1100 -101.2502 274.9221
v 3713.5824 -105.6171 274.9212
f 244 245 246
v 3703.2634 -101.8846 274.9272
v 3704.3381 -103.8713 274.9265
v 3703.5841 -101.6484 274.9270
f 247 248 249
v 3704.3381 -103.8713 274.9265
v 3713.5824 -105.6171 274.9212
v 3712.1100 -101.2502 274.9221
f 250 251 252
v 3703.2634 -101.8846 274.9272
v 3690.4360 -106.2372 274.9346
v 3704.3381 -103.8713 274.9265
f 253 254 255
v 3691.9025 -110.5130 274.9336
v 3704.3381 -103.8713 274.9265
v 3690.4360 -106.2372 274.9346
f 256 257 258
v 3703.5841 -101.6484 274.9270
v 3703.2247 -101.7704 274.9272
v 3703.2634 -101.8846 274.9272
f 259 260 261
v 3691.9025 -110.5130 274.9336
v 3705.4611 -108.3533 274.9258
v 3704.3381 -103.8713 274.9265
f 262 263 264
v 3705.4611 -108.3533 274.9258
v 3691.9025 -110.5130 274.9336
v 3691.8145 -112.7678 274.9336
f 265 266 267
v 3704.3381 -103.8713 274.9265
v 3705.4611 -108.3533 274.9258
v 3713.5824 -105.6171 274.9212
f 268 269 270
v 3691.8145 -112.7678 274.9336
v 3691.8320 -114.0588 274.9336
v 3692.2300 -114.0509 274.9334
f 271 272 273
v 3691.8320 -114.0588 274.9336
v 3691.8697 -114.1729 274.9336
v 3692.2300 -114.0509 274.9334
f 274 275 276
v 3690.4662 -111.0062 274.9345
v 3688.1481 -111.8010 274.9358
v 3691.8145 -112.7678 274.9336
f 277 278 279
v 3691.8145 -112.7678 274.9336
v 3685.7109 -112.6375 274.9372
v 3691.8320 -114.0588 274.9336
f 280 281 282
v 3691.9025 -110.5130 274.9336
v 3690.4662 -111.0062 274.9345
v 3691.8145 -112.7678 274.9336
f 283 284 285
v 3675.9420 -115.9873 274.9427
v 3674.7578 -119.8351 274.9433
v 3678.3212 -115.1717 274.9414
f 286 287 288
v 3674.7578 -119.8351 274.9433
v 3675.9420 -115.9873 274.9427
v 3673.4248 -116.8506 274.9442
f 289 290 291
v 3667.1064 -123.3736 274.9477
v 3668.4823 -118.5463 274.9470
v 3665.7839 -119.4720 274.9485
f 292 293 294
v 3685.7109 -112.6375 274.9372
v 3683.1696 -113.5076 274.9386
v 3691.8320 -114.0588 274.9336
f 295 296 297
v 3674.7578 -119.8351 274.9433
v 3683.1696 -113.5076 274.9386
v 3680.7404 -114.3432 274.9400
f 298 299 300
v 3674.7578 -119.8351 274.9433
v 3680.7404 -114.3432 274.9400
v 3678.3212 -115.1717 274.9414
f 301 302 303
v 3683.1696 -113.5076 274.9386
v 3674.7578 -119.8351 274.9433
v 3691.8320 -114.0588 274.9336
f 304 305 306
v 3674.9026 -120.2804 274.9433
v 3674.7578 -119.8351 274.9433
v 3667.1064 -123.3736 274.9477
f 307 308 309
v 3668.4823 -118.5463 274.9470
v 3674.7578 -119.8351 274.9433
v 3671.0446 -117.6682 274.9455
f 310 311 312
v 3674.9026 -120.2804 274.9433
v 3667.1064 -123.3736 274.9477
v 3675.0415 -120.6898 274.9432
f 313 314 315
v 3674.7578 -119.8351 274.9433
v 3668.4823 -118.5463 274.9470
v 3667.1064 -123.3736 274.9477
f 316 317 318
v 3671.0446 -117.6682 274.9455
v 3674.7578 -119.8351 274.9433
v 3673.4248 -116.8506 274.9442
f 319 320 321
v 3688.1481 -111.8010 274.9358
v 3685.7109 -112.6375 274.9372
v 3691.8145 -112.7678 274.9336
f 322 323 324
v 3664.0857 -114.4726 268.8758
v 3664.0857 -114.4726 268.8958
v 3689.4716 -105.7647 268.8613
f 325 326 327
v 3690.4360 -106.2372 274.9346
v 3689.7147 -106.4803 268.8612
v 3689.7200 -106.4803 277.6849
f 328 329 330
v 3689.7200 -106.4803 277.6849
v 3690.4376 -106.2371 277.7784
v 3690.4360 -106.2372 274.9346
f 331 332 333
v 3703.2634 -101.8846 274.9272
v 3703.2598 -101.8846 268.8534
v 3689.7147 -106.4803 268.8612
f 334 335 336
v 3690.4360 -106.2372 274.9346
v 3703.2634 -101.8846 274.9272
v 3689.7147 -106.4803 268.8612
f 337 338 339
v 3663.0396 -110.4588 277.6301
v 3662.7572 -110.5531 268.8966
v 3662.7623 -110.5531 277.7083
f 340 341 342
v 3663.1216 -110.4310 277.6051
v 3662.7572 -110.5531 268.8966
v 3663.0396 -110.4588 277.6301
f 343 344 345
v 3663.1165 -110.4310 268.8964
v 3662.7572 -110.5531 268.8966
v 3663.1216 -110.4310 277.6051
f 346 347 348
v 3689.4717 -105.7647 268.8813
v 3688.1699 -101.9283 268.8821
v 3688.1751 -101.9282 277.6878
f 349 350 351
v 3689.4717 -105.7647 268.8813
v 3688.1751 -101.9282 277.6878
v 3689.7200 -106.4803 277.6849
f 352 353 354
v 3689.7147 -106.4803 268.8612
v 3689.4717 -105.7647 268.8813
v 3689.7200 -106.4803 277.6849
f 355 356 357
v 3689.4716 -105.7647 268.8613
v 3689.4717 -105.7647 268.8813
v 3689.7147 -106.4803 268.8612
f 358 359 360
v 3663.5898 -112.9943 277.7088
v 3664.0857 -114.4726 268.8958
v 3665.7839 -119.4720 274.9485
f 361 362 363
v 3667.1028 -123.3736 268.8739
v 3667.1064 -123.3736 274.9477
v 3665.7839 -119.4720 274.9485
f 364 365 366
v 3667.1028 -123.3736 268.8739
v 3665.7839 -119.4720 274.9485
v 3664.0857 -114.4726 268.8758
f 367 368 369
v 3664.0857 -114.4726 268.8958
v 3664.0857 -114.4726 268.8758
v 3665.7839 -119.4720 274.9485
f 370 371 372
v 3663.5898 -112.9943 277.7088
v 3665.7839 -119.4720 274.9485
v 3665.7855 -119.4721 277.7154
f 373 374 375
v 3663.4430 -112.5619 277.7099
v 3664.0857 -114.4726 268.8958
v 3663.5898 -112.9943 277.7088
f 376 377 378
v 3664.0857 -114.4726 268.8958
v 3662.7623 -110.5531 277.7083
v 3662.7572 -110.5531 268.8966
f 379 380 381
v 3664.0857 -114.4726 268.8958
v 3663.4430 -112.5619 277.7099
v 3662.7623 -110.5531 277.7083
f 382 383 384
v 3685.7125 -112.6374 277.5921
v 3690.4678 -111.0062 277.5894
v 3688.1501 -111.8010 278.3497
f 385 386 387
v 3680.7419 -114.3431 277.5949
v 3673.4248 -116.8506 274.9442
v 3685.7125 -112.6374 277.5921
f 388 389 390
v 3683.1716 -113.5076 278.3525
v 3680.7419 -114.3431 277.5949
v 3685.7125 -112.6374 277.5921
f 391 392 393
v 3685.7125 -112.6374 277.5921
v 3678.3212 -115.1717 274.9414
v 3690.4678 -111.0062 277.5894
f 394 395 396
v 3691.9025 -110.5130 274.9336
v 3691.9042 -110.5131 277.7775
v 3690.4662 -111.0062 274.9345
f 397 398 399
v 3691.9042 -110.5131 277.7775
v 3690.4678 -111.0062 277.5894
v 3685.7109 -112.6375 274.9372
f 400 401 402
v 3690.4662 -111.0062 274.9345
v 3691.9042 -110.5131 277.7775
v 3688.1481 -111.8010 274.9358
f 403 404 405
v 3690.4678 -111.0062 277.5894
v 3680.7404 -114.3432 274.9400
v 3683.1696 -113.5076 274.9386
f 406 407 408
v 3685.7109 -112.6375 274.9372
v 3688.1481 -111.8010 274.9358
v 3691.9042 -110.5131 277.7775
f 409 410 411
v 3690.4678 -111.0062 277.5894
v 3683.1696 -113.5076 274.9386
v 3685.7109 -112.6375 274.9372
f 412 413 414
v 3678.3212 -115.1717 274.9414
v 3680.7404 -114.3432 274.9400
v 3690.4678 -111.0062 277.5894
f 415 416 417
v 3675.9436 -115.9872 277.5976
v 3680.7419 -114.3431 277.5949
v 3678.3232 -115.1717 278.3553
f 418 419 420
v 3671.0462 -117.6681 277.6004
v 3675.9436 -115.9872 277.5976
v 3673.4268 -116.8505 278.3581
f 421 422 423
v 3665.7839 -119.4720 274.9485
v 3675.9436 -115.9872 277.5976
v 3671.0462 -117.6681 277.6004
f 424 425 426
v 3665.7839 -119.4720 274.9485
v 3666.1848 -119.3352 277.6032
v 3665.7855 -119.4721 277.7154
f 427 428 429
v 3668.4673 -118.5522 278.3609
v 3666.1848 -119.3352 277.6032
v 3671.0462 -117.6681 277.6004
f 430 431 432
v 3665.7839 -119.4720 274.9485
v 3671.0462 -117.6681 277.6004
v 3666.1848 -119.3352 277.6032
f 433 434 435
v 3685.7125 -112.6374 277.5921
v 3675.9420 -115.9873 274.9427
v 3678.3212 -115.1717 274.9414
f 436 437 438
v 3675.9420 -115.9873 274.9427
v 3685.7125 -112.6374 277.5921
v 3673.4248 -116.8506 274.9442
f 439 440 441
v 3675.9436 -115.9872 277.5976
v 3665.7839 -119.4720 274.9485
v 3668.4823 -118.5463 274.9470
f 442 443 444
v 3673.4248 -116.8506 274.9442
v 3680.7419 -114.3431 277.5949
v 3671.0446 -117.6682 274.9455
f 445 446 447
v 3680.7419 -114.3431 277.5949
v 3668.4823 -118.5463 274.9470
v 3671.0446 -117.6682 274.9455
f 448 449 450
v 3675.9436 -115.9872 277.5976
v 3668.4823 -118.5463 274.9470
v 3680.7419 -114.3431 277.5949
f 451 452 453
v 3663.2352 -110.6034 277.6210
v 3668.0615 -108.9652 277.6023
v 3663.1861 -110.6202 277.6051
f 454 455 456
v 3663.3913 -110.5508 277.6699
v 3668.0615 -108.9652 277.6023
v 3663.2352 -110.6034 277.6210
f 457 458 459
v 3663.3913 -110.5508 277.6699
v 3665.4786 -109.8423 278.3628
v 3668.0615 -108.9652 277.6023
f 460 461 462
v 3668.0615 -108.9652 277.6023
v 3670.4440 -108.1566 278.3599
v 3672.9639 -107.3014 277.5995
f 463 464 465
v 3665.4720 -109.8424 268.8951
v 3668.0615 -108.9652 277.6023
v 3672.9639 -107.3014 277.5995
f 466 467 468
v 3663.1810 -110.6202 268.8964
v 3663.1861 -110.6202 277.6051
v 3668.0615 -108.9652 277.6023
f 469 470 471
v 3665.4720 -109.8424 268.8951
v 3663.1810 -110.6202 268.8964
v 3668.0615 -108.9652 277.6023
f 472 473 474
v 3669.6599 -108.4206 268.8927
v 3665.4720 -109.8424 268.8951
v 3672.9639 -107.3014 277.5995
f 475 476 477
v 3672.9588 -107.3014 268.8908
v 3677.7672 -105.6712 277.5968
v 3675.3409 -106.4928 268.8894
f 478 479 480
v 3672.9588 -107.3014 268.8908
v 3669.6599 -108.4206 268.8927
v 3677.7672 -105.6712 277.5968
f 481 482 483
v 3672.9639 -107.3014 277.5995
v 3677.7672 -105.6712 277.5968
v 3669.6599 -108.4206 268.8927
f 484 485 486
v 3682.7436 -103.9826 277.5939
v 3677.7672 -105.6712 277.5968
v 3680.2008 -104.8457 278.3544
f 487 488 489
v 3677.7672 -105.6712 277.5968
v 3682.7436 -103.9826 277.5939
v 3675.3409 -106.4928 268.8894
f 490 491 492
v 3687.5049 -102.3663 277.5912
v 3682.7436 -103.9826 277.5939
v 3685.1843 -103.1541 278.3515
f 493 494 495
v 3687.8773 -102.2394 274.3561
v 3687.5049 -102.3663 277.5912
v 3687.8793 -102.2393 277.6400
f 496 497 498
v 3687.8773 -102.2394 274.3561
v 3682.7436 -103.9826 277.5939
v 3687.5049 -102.3663 277.5912
f 499 500 501
v 3675.3409 -106.4928 268.8894
v 3682.7436 -103.9826 277.5939
v 3680.3394 -104.7972 268.8866
f 502 503 504
v 3687.8773 -102.2394 274.3561
v 3682.7385 -103.9826 268.8852
v 3680.3394 -104.7972 268.8866
f 505 506 507
v 3682.7385 -103.9826 268.8852
v 3687.8773 -102.2394 274.3561
v 3685.9244 -102.9012 268.8834
f 508 509 510
v 3687.8773 -102.2394 274.3561
v 3687.8741 -102.2394 268.8823
v 3685.9244 -102.9012 268.8834
f 511 512 513
v 3680.3394 -104.7972 268.8866
v 3682.7436 -103.9826 277.5939
v 3687.8773 -102.2394 274.3561
f 514 515 516
v 3675.3465 -106.4928 278.3571
v 3677.7672 -105.6712 277.5968
v 3672.9639 -107.3014 277.5995
f 517 518 519
v 3688.1699 -101.9283 268.8821
v 3687.8096 -102.0502 268.8823
v 3687.8148 -102.0501 277.6400
f 520 521 522
v 3687.8793 -102.2393 277.6400
v 3687.8148 -102.0501 277.6400
v 3687.8096 -102.0502 268.8823
f 523 524 525
v 3690.4376 -106.2371 277.7784
v 3691.9042 -110.5131 277.7775
v 3691.9025 -110.5130 274.9336
f 526 527 528
v 3663.1165 -110.4310 268.8964
v 3663.1861 -110.6202 277.6051
v 3663.1810 -110.6202 268.8964
f 529 530 531
v 3704.3345 -103.8715 268.8527
v 3712.1100 -101.2502 274.9221
v 3712.1064 -101.2502 268.8483
f 532 533 534
v 3703.5805 -101.6484 268.8532
v 3704.3381 -103.8713 274.9265
v 3704.3345 -103.8715 268.8527
f 535 536 537
v 3703.2211 -101.7705 268.8534
v 3703.5841 -101.6484 274.9270
v 3703.5805 -101.6484 268.8532
f 538 539 540
v 3703.2598 -101.8846 268.8534
v 3703.2247 -101.7704 274.9272
v 3703.2211 -101.7705 268.8534
f 541 542 543
v 3675.0379 -120.6898 268.8694
v 3667.1064 -123.3736 274.9477
v 3667.1028 -123.3736 268.8739
f 544 545 546
v 3674.8990 -120.2805 268.8695
v 3675.0415 -120.6898 274.9432
v 3675.0379 -120.6898 268.8694
f 547 548 549
v 3674.7542 -119.8351 268.8695
v 3674.9026 -120.2804 274.9433
v 3674.8990 -120.2805 268.8695
f 550 551 552
v 3691.8285 -114.0589 268.8598
v 3674.7578 -119.8351 274.9433
v 3674.7542 -119.8351 268.8695
f 553 554 555
v 3691.8661 -114.1729 268.8598
v 3691.8320 -114.0588 274.9336
v 3691.8285 -114.0589 268.8598
f 556 557 558
v 3692.2264 -114.0510 268.8596
v 3691.8697 -114.1729 274.9336
v 3691.8661 -114.1729 268.8598
f 559 560 561
v 3691.8109 -112.7678 268.8598
v 3692.2300 -114.0509 274.9334
v 3692.2264 -114.0510 268.8596
f 562 563 564
v 3705.4575 -108.3534 268.8520
v 3691.8145 -112.7678 274.9336
v 3691.8109 -112.7678 268.8598
f 565 566 567
v 3713.5788 -105.6171 268.8474
v 3705.4611 -108.3533 274.9258
v 3705.4575 -108.3534 268.8520
f 568 569 570
v 3712.1064 -101.2502 268.8483
v 3713.5824 -105.6171 274.9212
v 3713.5788 -105.6171 268.8474
f 571 572 573
v 3664.0857 -114.4726 268.8958
v 3689.4717 -105.7647 268.8813
v 3689.4716 -105.7647 268.8613
f 574 575 576
