# Grid Center: 2619400, 1264600
# Global Anchor: 7.64977475454284, 47.53283995868075, 0.0

g building_ID_4538395E-4783-4181-B81E-821C91DD0F7D
v 3711.4570 -253.3447 272.8387
v 3719.2568 -295.6180 272.8323
v 3725.4727 -294.4716 272.8287
f 1 2 3
v 3725.4727 -294.4716 272.8287
v 3717.6709 -252.1933 272.8352
v 3711.4570 -253.3447 272.8387
f 4 5 6
v 3719.2562 -295.6179 271.8853
v 3719.2568 -295.6180 272.8323
v 3711.4564 -253.3447 271.8917
f 7 8 9
v 3717.6704 -252.1933 271.8882
v 3717.6709 -252.1933 272.8352
v 3725.4722 -294.4697 271.8817
f 10 11 12
v 3709.5555 -253.6965 271.8928
v 3717.3553 -295.9699 271.8864
v 3719.2562 -295.6179 271.8853
f 13 14 15
v 3719.2562 -295.6179 271.8853
v 3711.4564 -253.3447 271.8917
v 3709.5555 -253.6965 271.8928
f 16 17 18
v 3720.6231 -251.0131 267.8117
v 3720.6255 -251.0132 271.8865
v 3723.8900 -250.4239 271.8846
f 19 20 21
v 3720.7465 -251.6224 267.8116
v 3720.7489 -251.6225 271.8864
v 3720.6255 -251.0132 271.8865
f 22 23 24
v 3728.6517 -294.4930 267.8049
v 3728.6541 -294.4931 271.8798
v 3728.5427 -293.8929 271.8799
f 25 26 27
v 3731.8993 -293.8758 267.8031
v 3731.9017 -293.8758 271.8780
v 3728.6541 -294.4931 271.8798
f 28 29 30
v 3731.8066 -293.3935 267.8032
v 3731.8090 -293.3936 271.8781
v 3731.9017 -293.8758 271.8780
f 31 32 33
v 3732.0207 -293.3541 267.8030
v 3732.0231 -293.3542 271.8779
v 3731.8090 -293.3936 271.8781
f 34 35 36
v 3732.0039 -293.2651 267.8030
v 3732.0063 -293.2651 271.8779
v 3732.0207 -293.3541 267.8030
f 37 38 39
v 3770.6226 -274.6677 273.5620
v 3728.0151 -282.5296 273.5868
v 3730.0612 -293.6249 273.2061
f 40 41 42
v 3730.0612 -293.6249 273.2061
v 3772.6697 -285.7620 273.1813
v 3770.6226 -274.6677 273.5620
f 43 44 45
v 3728.0151 -282.5296 273.5868
v 3770.6226 -274.6677 273.5620
v 3768.7614 -264.5838 273.1846
f 46 47 48
v 3768.7614 -264.5838 273.1846
v 3726.1539 -272.4477 273.2093
v 3728.0151 -282.5296 273.5868
f 49 50 51
v 3724.3058 -262.4339 273.4008
v 3768.7614 -264.5838 273.1846
v 3766.9143 -254.5700 273.3761
f 52 53 54
v 3768.7614 -264.5838 273.1846
v 3724.3058 -262.4339 273.4008
v 3726.1539 -272.4477 273.2093
f 55 56 57
v 3723.9665 -250.9211 273.2145
v 3722.2111 -251.0875 273.2126
v 3724.3058 -262.4339 273.4008
f 58 59 60
v 3766.9143 -254.5700 273.3761
v 3723.9665 -250.9211 273.2145
v 3724.3058 -262.4339 273.4008
f 61 62 63
v 3723.9429 -250.7680 273.2116
v 3722.2111 -251.0875 273.2126
v 3723.9665 -250.9211 273.2145
f 64 65 66
v 3766.9143 -254.5700 273.3761
v 3764.8492 -243.3836 273.1908
v 3723.9665 -250.9211 273.2145
f 67 68 69
v 3722.2103 -251.0874 271.8856
v 3722.2111 -251.0875 273.2126
v 3723.9429 -250.7680 273.2116
f 70 71 72
v 3730.0604 -293.6250 271.8791
v 3731.8090 -293.3936 271.8781
v 3732.0063 -293.2651 271.8779
f 73 74 75
v 3732.0231 -293.3542 271.8779
v 3732.0063 -293.2651 271.8779
v 3731.8090 -293.3936 271.8781
f 76 77 78
v 3730.0604 -293.6250 271.8791
v 3731.9017 -293.8758 271.8780
v 3731.8090 -293.3936 271.8781
f 79 80 81
v 3728.5427 -293.8929 271.8799
v 3728.6541 -294.4931 271.8798
v 3730.0604 -293.6250 271.8791
f 82 83 84
v 3731.9017 -293.8758 271.8780
v 3730.0604 -293.6250 271.8791
v 3728.6541 -294.4931 271.8798
f 85 86 87
v 3726.1531 -272.4477 271.8824
v 3725.4722 -294.4697 271.8817
v 3728.5427 -293.8929 271.8799
f 88 89 90
v 3728.0141 -282.5296 271.8808
v 3728.5427 -293.8929 271.8799
v 3730.0604 -293.6250 271.8791
f 91 92 93
v 3725.4722 -294.4697 271.8817
v 3726.1531 -272.4477 271.8824
v 3717.6704 -252.1933 271.8882
f 94 95 96
v 3723.8900 -250.4239 271.8846
v 3722.2103 -251.0874 271.8856
v 3723.9421 -250.7681 271.8846
f 97 98 99
v 3724.3049 -262.4338 271.8839
v 3720.7489 -251.6225 271.8864
v 3726.1531 -272.4477 271.8824
f 100 101 102
v 3717.6704 -252.1933 271.8882
v 3726.1531 -272.4477 271.8824
v 3720.7489 -251.6225 271.8864
f 103 104 105
v 3720.6255 -251.0132 271.8865
v 3720.7489 -251.6225 271.8864
v 3722.2103 -251.0874 271.8856
f 106 107 108
v 3724.3049 -262.4338 271.8839
v 3722.2103 -251.0874 271.8856
v 3720.7489 -251.6225 271.8864
f 109 110 111
v 3723.8900 -250.4239 271.8846
v 3720.6255 -251.0132 271.8865
v 3722.2103 -251.0874 271.8856
f 112 113 114
v 3728.0141 -282.5296 271.8808
v 3726.1531 -272.4477 271.8824
v 3728.5427 -293.8929 271.8799
f 115 116 117
v 3728.5403 -293.8928 267.8050
v 3728.5427 -293.8929 271.8799
v 3725.4722 -294.4697 271.8817
f 118 119 120
v 3769.3435 -243.8416 272.6171
v 3764.8492 -243.3836 273.1908
v 3766.9132 -254.5700 273.1861
f 121 122 123
v 3764.8492 -243.3836 273.1908
v 3769.3435 -243.8416 272.6171
v 3769.1129 -242.5981 272.6173
f 124 125 126
v 3769.3435 -243.8416 272.6171
v 3766.9132 -254.5700 273.1861
v 3768.7614 -264.5838 273.1846
f 127 128 129
v 3776.6988 -283.7128 272.6110
v 3768.7614 -264.5838 273.1846
v 3772.6697 -285.7620 273.1813
f 130 131 132
v 3776.9284 -284.9754 272.6108
v 3776.6988 -283.7128 272.6110
v 3772.6697 -285.7620 273.1813
f 133 134 135
v 3769.3435 -243.8416 272.6171
v 3768.7614 -264.5838 273.1846
v 3776.6988 -283.7128 272.6110
f 136 137 138
v 3777.2424 -274.1893 267.7773
v 3777.2447 -274.1894 271.6622
v 3778.6555 -281.7510 271.6610
f 139 140 141
v 3777.3690 -273.9726 267.7772
v 3777.3713 -273.9727 271.6621
v 3777.2447 -274.1894 271.6622
f 142 143 144
v 3771.7248 -243.3949 267.7819
v 3771.7271 -243.3950 271.6668
v 3777.3713 -273.9727 271.6621
f 145 146 147
v 3769.3456 -243.8406 267.7833
v 3769.3480 -243.8406 271.6682
v 3771.7271 -243.3950 271.6668
f 148 149 150
v 3769.1159 -242.6090 267.7835
v 3769.1183 -242.6090 271.6684
v 3769.3480 -243.8406 271.6682
f 151 152 153
v 3769.3430 -243.8416 271.6682
v 3769.3480 -243.8406 271.6682
v 3769.1183 -242.6090 271.6684
f 154 155 156
v 3777.2447 -274.1894 271.6622
v 3771.7271 -243.3950 271.6668
v 3769.3480 -243.8406 271.6682
f 157 158 159
v 3769.3430 -243.8416 271.6682
v 3769.1183 -242.6090 271.6684
v 3769.1143 -242.6100 271.6684
f 160 161 162
v 3769.3480 -243.8406 271.6682
v 3776.4124 -282.1651 271.6624
v 3777.2447 -274.1894 271.6622
f 163 164 165
v 3777.2447 -274.1894 271.6622
v 3777.3713 -273.9727 271.6621
v 3771.7271 -243.3950 271.6668
f 166 167 168
v 3776.4124 -282.1651 271.6624
v 3778.6555 -281.7510 271.6610
v 3777.2447 -274.1894 271.6622
f 169 170 171
v 3776.4124 -282.1651 271.6624
v 3769.3480 -243.8406 271.6682
v 3769.3430 -243.8416 271.6682
f 172 173 174
v 3769.1119 -242.6100 267.7835
v 3769.1143 -242.6100 271.6684
v 3769.1183 -242.6090 271.6684
f 175 176 177
v 3778.6531 -281.7509 267.7761
v 3778.6555 -281.7510 271.6610
v 3776.4124 -282.1651 271.6624
f 178 179 180
v 3693.8006 -296.7530 275.5019
v 3693.8095 -296.7980 275.5019
v 3693.9776 -296.7675 275.5018
f 181 182 183
v 3691.0613 -281.9377 275.5042
v 3688.5261 -297.7329 275.5049
v 3693.8006 -296.7530 275.5019
f 184 185 186
v 3693.8006 -296.7530 275.5019
v 3693.9776 -296.7675 275.5018
v 3691.0613 -281.9377 275.5042
f 187 188 189
v 3691.0613 -281.9377 275.5042
v 3691.2147 -281.7962 275.5042
v 3691.0476 -281.8268 275.5042
f 190 191 192
v 3688.5261 -297.7329 275.5049
v 3691.0613 -281.9377 275.5042
v 3685.7707 -282.9226 275.5072
f 193 194 195
v 3693.9776 -296.7675 275.5018
v 3691.2147 -281.7962 275.5042
v 3691.0613 -281.9377 275.5042
f 196 197 198
v 3685.7707 -282.9226 275.5072
v 3691.0613 -281.9377 275.5042
v 3685.7662 -282.9225 267.8304
f 199 200 201
v 3685.7662 -282.9225 267.8304
v 3691.0613 -281.9377 275.5042
v 3691.0568 -281.9376 267.8274
f 202 203 204
v 3688.5216 -297.7326 267.8282
v 3688.5261 -297.7329 275.5049
v 3685.7707 -282.9226 275.5072
f 205 206 207
v 3693.7961 -296.7528 267.8252
v 3693.8006 -296.7530 275.5019
v 3688.5216 -297.7326 267.8282
f 208 209 210
v 3688.5261 -297.7329 275.5049
v 3688.5216 -297.7326 267.8282
v 3693.8006 -296.7530 275.5019
f 211 212 213
v 3693.9760 -296.7673 272.8469
v 3693.9776 -296.7675 275.5018
v 3693.8095 -296.7980 275.5019
f 214 215 216
v 3691.2130 -281.7961 272.8493
v 3691.2147 -281.7962 275.5042
v 3693.9776 -296.7675 275.5018
f 217 218 219
v 3691.0460 -281.8267 272.8493
v 3691.0476 -281.8268 275.5042
v 3691.2147 -281.7962 275.5042
f 220 221 222
v 3688.9320 -260.5553 267.8297
v 3688.9349 -260.5553 272.8515
v 3688.3938 -257.6189 272.8519
f 223 224 225
v 3687.1962 -260.8746 267.8307
v 3687.1991 -260.8747 272.8525
v 3688.9349 -260.5553 272.8515
f 226 227 228
v 3688.6776 -268.9085 267.8295
v 3688.6806 -268.9086 272.8513
v 3687.1991 -260.8747 272.8525
f 229 230 231
v 3688.2684 -268.9873 267.8297
v 3688.2714 -268.9874 272.8515
v 3688.6806 -268.9086 272.8513
f 232 233 234
v 3689.0836 -273.4045 267.8290
v 3689.0865 -273.4046 272.8508
v 3688.2714 -268.9874 272.8515
f 235 236 237
v 3689.5008 -273.3236 267.8288
v 3689.5037 -273.3237 272.8506
v 3689.0865 -273.4046 272.8508
f 238 239 240
v 3690.1830 -277.0014 267.8282
v 3690.1859 -277.0014 272.8501
v 3689.5037 -273.3237 272.8506
f 241 242 243
v 3689.7617 -277.0802 267.8284
v 3689.7647 -277.0803 272.8503
v 3690.1859 -277.0014 272.8501
f 244 245 246
v 3690.5651 -281.4324 267.8277
v 3690.5681 -281.4324 272.8496
v 3689.7647 -277.0803 272.8503
f 247 248 249
v 3690.9853 -281.3525 267.8275
v 3690.9883 -281.3525 272.8494
v 3690.5681 -281.4324 272.8496
f 250 251 252
v 3695.6890 -297.1678 267.8241
v 3695.6919 -297.1680 272.8459
v 3693.9391 -297.4923 272.8469
f 253 254 255
v 3696.1877 -299.8741 267.8237
v 3696.1907 -299.8742 272.8455
v 3695.6919 -297.1680 272.8459
f 256 257 258
v 3693.8877 -256.6006 271.7118
v 3693.8885 -256.6006 272.8488
v 3701.6873 -298.8600 272.8423
f 259 260 261
v 3695.6919 -297.1680 272.8459
v 3696.1907 -299.8742 272.8455
v 3701.6873 -298.8600 272.8423
f 262 263 264
v 3693.9760 -296.7673 272.8469
v 3695.6919 -297.1680 272.8459
v 3691.2130 -281.7961 272.8493
f 265 266 267
v 3695.6919 -297.1680 272.8459
v 3688.9349 -260.5553 272.8515
v 3691.2130 -281.7961 272.8493
f 268 269 270
v 3695.6919 -297.1680 272.8459
v 3693.9760 -296.7673 272.8469
v 3693.9391 -297.4923 272.8469
f 271 272 273
v 3690.9883 -281.3525 272.8494
v 3691.2130 -281.7961 272.8493
v 3690.1859 -277.0014 272.8501
f 274 275 276
v 3693.8079 -296.7979 272.8470
v 3693.9391 -297.4923 272.8469
v 3693.9760 -296.7673 272.8469
f 277 278 279
v 3689.7647 -277.0803 272.8503
v 3690.5681 -281.4324 272.8496
v 3690.9883 -281.3525 272.8494
f 280 281 282
v 3691.2130 -281.7961 272.8493
v 3690.9883 -281.3525 272.8494
v 3691.0460 -281.8267 272.8493
f 283 284 285
v 3701.6873 -298.8600 272.8423
v 3688.9349 -260.5553 272.8515
v 3695.6919 -297.1680 272.8459
f 286 287 288
v 3688.9349 -260.5553 272.8515
v 3689.5037 -273.3237 272.8506
v 3690.1859 -277.0014 272.8501
f 289 290 291
v 3688.3938 -257.6189 272.8519
v 3688.9349 -260.5553 272.8515
v 3693.8885 -256.6006 272.8488
f 292 293 294
v 3691.2130 -281.7961 272.8493
v 3688.9349 -260.5553 272.8515
v 3690.1859 -277.0014 272.8501
f 295 296 297
v 3688.6806 -268.9086 272.8513
v 3689.5037 -273.3237 272.8506
v 3688.9349 -260.5553 272.8515
f 298 299 300
v 3688.9349 -260.5553 272.8515
v 3701.6873 -298.8600 272.8423
v 3693.8885 -256.6006 272.8488
f 301 302 303
v 3689.0865 -273.4046 272.8508
v 3688.6806 -268.9086 272.8513
v 3688.2714 -268.9874 272.8515
f 304 305 306
v 3688.9349 -260.5553 272.8515
v 3687.1991 -260.8747 272.8525
v 3688.6806 -268.9086 272.8513
f 307 308 309
v 3689.0865 -273.4046 272.8508
v 3689.5037 -273.3237 272.8506
v 3688.6806 -268.9086 272.8513
f 310 311 312
v 3690.9883 -281.3525 272.8494
v 3690.1859 -277.0014 272.8501
v 3689.7647 -277.0803 272.8503
f 313 314 315
v 3695.5282 -256.2970 272.8478
v 3703.3271 -298.5584 272.8414
v 3717.3558 -295.9689 272.8334
f 316 317 318
v 3717.3558 -295.9689 272.8334
v 3709.5560 -253.6976 272.8398
v 3695.5282 -256.2970 272.8478
f 319 320 321
v 3703.3264 -298.5584 271.7044
v 3703.3271 -298.5584 272.8414
v 3695.5282 -256.2970 272.8478
f 322 323 324
v 3693.8877 -256.6006 271.7118
v 3701.6866 -298.8609 271.7053
v 3703.3264 -298.5584 271.7044
f 325 326 327
v 3703.3264 -298.5584 271.7044
v 3695.5276 -256.2969 271.7108
v 3693.8877 -256.6006 271.7118
f 328 329 330
v 3709.5555 -253.6965 271.8928
v 3709.5560 -253.6976 272.8398
v 3717.3558 -295.9689 272.8334
f 331 332 333
v 3723.8900 -250.4239 271.8846
v 3723.9421 -250.7681 271.8846
v 3723.9633 -250.9210 267.8096
f 334 335 336
v 3723.9657 -250.9211 271.8845
v 3723.9429 -250.7680 273.2116
v 3723.9665 -250.9211 273.2145
f 337 338 339
v 3723.9429 -250.7680 273.2116
v 3723.9657 -250.9211 271.8845
v 3723.9421 -250.7681 271.8846
f 340 341 342
v 3764.8459 -243.3835 267.7860
v 3728.4024 -250.1030 267.8071
v 3723.9657 -250.9211 271.8845
f 343 344 345
v 3723.9657 -250.9211 271.8845
v 3728.4024 -250.1030 267.8071
v 3723.9633 -250.9210 267.8096
f 346 347 348
v 3764.8492 -243.3836 273.1908
v 3723.9657 -250.9211 271.8845
v 3723.9665 -250.9211 273.2145
f 349 350 351
v 3723.9657 -250.9211 271.8845
v 3769.1129 -242.5981 272.6173
v 3764.8459 -243.3835 267.7860
f 352 353 354
v 3769.1129 -242.5981 272.6173
v 3769.1100 -242.5980 267.7835
v 3764.8459 -243.3835 267.7860
f 355 356 357
v 3764.8492 -243.3836 273.1908
v 3769.1129 -242.5981 272.6173
v 3723.9657 -250.9211 271.8845
f 358 359 360
v 3732.0063 -293.2651 271.8779
v 3772.6664 -285.7619 267.7795
v 3776.9284 -284.9754 272.6108
f 361 362 363
v 3776.9284 -284.9754 272.6108
v 3772.6664 -285.7619 267.7795
v 3776.9255 -284.9753 267.7770
f 364 365 366
v 3732.0063 -293.2651 271.8779
v 3776.9284 -284.9754 272.6108
v 3772.6697 -285.7620 273.1813
f 367 368 369
v 3730.0604 -293.6250 271.8791
v 3732.0063 -293.2651 271.8779
v 3730.0612 -293.6249 273.2061
f 370 371 372
v 3772.6697 -285.7620 273.1813
v 3730.0612 -293.6249 273.2061
v 3732.0063 -293.2651 271.8779
f 373 374 375
v 3772.6664 -285.7619 267.7795
v 3732.0063 -293.2651 271.8779
v 3732.0039 -293.2651 267.8030
f 376 377 378
v 3730.0612 -293.6249 273.2061
v 3728.0151 -282.5296 273.5868
v 3726.1539 -272.4477 273.2093
f 379 380 381
v 3730.0604 -293.6250 271.8791
v 3730.0612 -293.6249 273.2061
v 3728.0141 -282.5296 271.8808
f 382 383 384
v 3730.0612 -293.6249 273.2061
v 3726.1531 -272.4477 271.8824
v 3728.0141 -282.5296 271.8808
f 385 386 387
v 3726.1531 -272.4477 271.8824
v 3730.0612 -293.6249 273.2061
v 3726.1539 -272.4477 273.2093
f 388 389 390
v 3722.2103 -251.0874 271.8856
v 3724.3058 -262.4339 273.4008
v 3722.2111 -251.0875 273.2126
f 391 392 393
v 3726.1539 -272.4477 273.2093
v 3724.3049 -262.4338 271.8839
v 3726.1531 -272.4477 271.8824
f 394 395 396
v 3724.3049 -262.4338 271.8839
v 3726.1539 -272.4477 273.2093
v 3722.2103 -251.0874 271.8856
f 397 398 399
v 3722.2103 -251.0874 271.8856
v 3726.1539 -272.4477 273.2093
v 3724.3058 -262.4339 273.4008
f 400 401 402
v 3769.1129 -242.5981 272.6173
v 3769.3435 -243.8416 272.6171
v 3769.1143 -242.6100 271.6684
f 403 404 405
v 3769.1100 -242.5980 267.7835
v 3769.1129 -242.5981 272.6173
v 3769.1143 -242.6100 271.6684
f 406 407 408
v 3776.4124 -282.1651 271.6624
v 3769.3430 -243.8416 271.6682
v 3769.3435 -243.8416 272.6171
f 409 410 411
v 3776.9284 -284.9754 272.6108
v 3776.4124 -282.1651 271.6624
v 3776.6988 -283.7128 272.6110
f 412 413 414
v 3776.9255 -284.9753 267.7770
v 3776.4124 -282.1651 271.6624
v 3776.9284 -284.9754 272.6108
f 415 416 417
v 3776.4124 -282.1651 271.6624
v 3776.6959 -283.7127 267.7772
v 3776.4100 -282.1650 267.7775
f 418 419 420
v 3776.4124 -282.1651 271.6624
v 3776.9255 -284.9753 267.7770
v 3776.6959 -283.7127 267.7772
f 421 422 423
v 3772.6697 -285.7620 273.1813
v 3768.7614 -264.5838 273.1846
v 3770.6226 -274.6677 273.5620
f 424 425 426
v 3766.9132 -254.5700 273.1861
v 3764.8492 -243.3836 273.1908
v 3766.9143 -254.5700 273.3761
f 427 428 429
v 3766.9143 -254.5700 273.3761
v 3768.7614 -264.5838 273.1846
v 3766.9132 -254.5700 273.1861
f 430 431 432
v 3693.8079 -296.7979 272.8470
v 3693.7961 -296.7528 267.8252
v 3693.9391 -297.4923 272.8469
f 433 434 435
v 3693.9391 -297.4923 272.8469
v 3693.7961 -296.7528 267.8252
v 3693.9361 -297.4922 267.8251
f 436 437 438
v 3693.8095 -296.7980 275.5019
v 3693.8006 -296.7530 275.5019
v 3693.8079 -296.7979 272.8470
f 439 440 441
v 3693.8079 -296.7979 272.8470
v 3693.8006 -296.7530 275.5019
v 3693.7961 -296.7528 267.8252
f 442 443 444
v 3691.0476 -281.8268 275.5042
v 3691.0460 -281.8267 272.8493
v 3691.0613 -281.9377 275.5042
f 445 446 447
v 3691.0460 -281.8267 272.8493
v 3691.0568 -281.9376 267.8274
v 3691.0613 -281.9377 275.5042
f 448 449 450
v 3691.0460 -281.8267 272.8493
v 3690.9883 -281.3525 272.8494
v 3691.0568 -281.9376 267.8274
f 451 452 453
v 3690.9883 -281.3525 272.8494
v 3690.9853 -281.3525 267.8275
v 3691.0568 -281.9376 267.8274
f 454 455 456
v 3693.8877 -256.6006 271.7118
v 3688.3938 -257.6189 272.8519
v 3693.8885 -256.6006 272.8488
f 457 458 459
v 3688.3908 -257.6188 267.8301
v 3688.3938 -257.6189 272.8519
v 3693.8877 -256.6006 271.7118
f 460 461 462
v 3709.5555 -253.6965 271.8928
v 3695.5276 -256.2969 271.7108
v 3695.5282 -256.2970 272.8478
f 463 464 465
v 3709.5560 -253.6976 272.8398
v 3709.5555 -253.6965 271.8928
v 3695.5282 -256.2970 272.8478
f 466 467 468
v 3706.3585 -254.2889 267.8198
v 3695.5276 -256.2969 271.7108
v 3709.5555 -253.6965 271.8928
f 469 470 471
v 3693.8877 -256.6006 271.7118
v 3695.5276 -256.2969 271.7108
v 3693.8855 -256.6006 267.8270
f 472 473 474
v 3693.8877 -256.6006 271.7118
v 3689.6845 -257.3793 267.8294
v 3688.3908 -257.6188 267.8301
f 475 476 477
v 3693.8877 -256.6006 271.7118
v 3693.8855 -256.6006 267.8270
v 3689.6845 -257.3793 267.8294
f 478 479 480
v 3695.5276 -256.2969 271.7108
v 3706.3585 -254.2889 267.8198
v 3696.5268 -256.1106 267.8255
f 481 482 483
v 3717.6704 -252.1933 271.8882
v 3711.4564 -253.3447 271.8917
v 3711.4570 -253.3447 272.8387
f 484 485 486
v 3709.5555 -253.6965 271.8928
v 3711.4564 -253.3447 271.8917
v 3712.0733 -253.2303 267.8166
f 487 488 489
v 3711.4570 -253.3447 272.8387
v 3717.6709 -252.1933 272.8352
v 3717.6704 -252.1933 271.8882
f 490 491 492
v 3717.1767 -252.2839 267.8136
v 3717.6704 -252.1933 271.8882
v 3720.7489 -251.6225 271.8864
f 493 494 495
v 3717.1767 -252.2839 267.8136
v 3711.4564 -253.3447 271.8917
v 3717.6704 -252.1933 271.8882
f 496 497 498
v 3720.7489 -251.6225 271.8864
v 3720.7465 -251.6224 267.8116
v 3717.1767 -252.2839 267.8136
f 499 500 501
v 3717.1767 -252.2839 267.8136
v 3712.0733 -253.2303 267.8166
v 3711.4564 -253.3447 271.8917
f 502 503 504
v 3719.2568 -295.6180 272.8323
v 3725.4722 -294.4697 271.8817
v 3725.4727 -294.4716 272.8287
f 505 506 507
v 3725.4722 -294.4697 271.8817
v 3719.2568 -295.6180 272.8323
v 3719.2562 -295.6179 271.8853
f 508 509 510
v 3719.2562 -295.6179 271.8853
v 3717.3553 -295.9699 271.8864
v 3719.2548 -295.6179 267.8105
f 511 512 513
v 3722.7405 -294.9752 267.8085
v 3725.4722 -294.4697 271.8817
v 3719.2562 -295.6179 271.8853
f 514 515 516
v 3725.4722 -294.4697 271.8817
v 3722.7405 -294.9752 267.8085
v 3725.4697 -294.4716 267.8069
f 517 518 519
v 3719.2548 -295.6179 267.8105
v 3722.7405 -294.9752 267.8085
v 3719.2562 -295.6179 271.8853
f 520 521 522
v 3719.2548 -295.6179 267.8105
v 3717.3553 -295.9699 271.8864
v 3714.0903 -296.5740 267.8134
f 523 524 525
v 3717.3553 -295.9699 271.8864
v 3703.3271 -298.5584 272.8414
v 3703.3264 -298.5584 271.7044
f 526 527 528
v 3717.3553 -295.9699 271.8864
v 3703.3264 -298.5584 271.7044
v 3714.0903 -296.5740 267.8134
f 529 530 531
v 3696.1907 -299.8742 272.8455
v 3701.6866 -298.8609 271.7053
v 3701.6873 -298.8600 272.8423
f 532 533 534
v 3696.1877 -299.8741 267.8237
v 3701.6866 -298.8609 271.7053
v 3696.1907 -299.8742 272.8455
f 535 536 537
v 3703.3264 -298.5584 271.7044
v 3701.6866 -298.8609 271.7053
v 3703.3241 -298.5583 267.8196
f 538 539 540
v 3703.3264 -298.5584 271.7044
v 3705.3291 -298.1877 267.8184
v 3714.0903 -296.5740 267.8134
f 541 542 543
v 3703.3264 -298.5584 271.7044
v 3703.3241 -298.5583 267.8196
v 3705.3291 -298.1877 267.8184
f 544 545 546
v 3701.6866 -298.8609 271.7053
v 3697.4823 -299.6366 267.8229
v 3701.6844 -298.8599 267.8205
f 547 548 549
v 3701.6866 -298.8609 271.7053
v 3696.1877 -299.8741 267.8237
v 3697.4823 -299.6366 267.8229
f 550 551 552
v 3703.3271 -298.5584 272.8414
v 3717.3553 -295.9699 271.8864
v 3717.3558 -295.9689 272.8334
f 553 554 555
v 3764.8459 -243.3835 267.7860
v 3769.3456 -243.8406 267.7833
v 3728.4024 -250.1030 267.8071
f 556 557 558
v 3769.1119 -242.6100 267.7835
v 3764.8459 -243.3835 267.7860
v 3769.1100 -242.5980 267.7835
f 559 560 561
v 3690.1830 -277.0014 267.8282
v 3720.7465 -251.6224 267.8116
v 3723.9633 -250.9210 267.8096
f 562 563 564
v 3723.9633 -250.9210 267.8096
v 3720.6231 -251.0131 267.8117
v 3723.8876 -250.4239 267.8097
f 565 566 567
v 3720.7465 -251.6224 267.8116
v 3720.6231 -251.0131 267.8117
v 3723.9633 -250.9210 267.8096
f 568 569 570
v 3728.4024 -250.1030 267.8071
v 3690.1830 -277.0014 267.8282
v 3723.9633 -250.9210 267.8096
f 571 572 573
v 3769.1159 -242.6090 267.7835
v 3769.3456 -243.8406 267.7833
v 3769.1119 -242.6100 267.7835
f 574 575 576
v 3769.3456 -243.8406 267.7833
v 3777.3690 -273.9726 267.7772
v 3728.4024 -250.1030 267.8071
f 577 578 579
v 3689.5008 -273.3236 267.8288
v 3717.1767 -252.2839 267.8136
v 3720.7465 -251.6224 267.8116
f 580 581 582
v 3717.1767 -252.2839 267.8136
v 3689.5008 -273.3236 267.8288
v 3712.0733 -253.2303 267.8166
f 583 584 585
v 3688.6776 -268.9085 267.8295
v 3706.3585 -254.2889 267.8198
v 3712.0733 -253.2303 267.8166
f 586 587 588
v 3728.4024 -250.1030 267.8071
v 3732.0039 -293.2651 267.8030
v 3690.1830 -277.0014 267.8282
f 589 590 591
v 3769.3456 -243.8406 267.7833
v 3764.8459 -243.3835 267.7860
v 3769.1119 -242.6100 267.7835
f 592 593 594
v 3688.6776 -268.9085 267.8295
v 3688.9320 -260.5553 267.8297
v 3696.5268 -256.1106 267.8255
f 595 596 597
v 3688.9320 -260.5553 267.8297
v 3693.8855 -256.6006 267.8270
v 3696.5268 -256.1106 267.8255
f 598 599 600
v 3688.9320 -260.5553 267.8297
v 3688.3908 -257.6188 267.8301
v 3689.6845 -257.3793 267.8294
f 601 602 603
v 3688.6776 -268.9085 267.8295
v 3687.1962 -260.8746 267.8307
v 3688.9320 -260.5553 267.8297
f 604 605 606
v 3688.9320 -260.5553 267.8297
v 3689.6845 -257.3793 267.8294
v 3693.8855 -256.6006 267.8270
f 607 608 609
v 3688.6776 -268.9085 267.8295
v 3696.5268 -256.1106 267.8255
v 3706.3585 -254.2889 267.8198
f 610 611 612
v 3689.5008 -273.3236 267.8288
v 3688.2684 -268.9873 267.8297
v 3688.6776 -268.9085 267.8295
f 613 614 615
v 3690.1830 -277.0014 267.8282
v 3689.5008 -273.3236 267.8288
v 3720.7465 -251.6224 267.8116
f 616 617 618
v 3688.6776 -268.9085 267.8295
v 3712.0733 -253.2303 267.8166
v 3689.5008 -273.3236 267.8288
f 619 620 621
v 3690.1830 -277.0014 267.8282
v 3690.9853 -281.3525 267.8275
v 3689.7617 -277.0802 267.8284
f 622 623 624
v 3689.0836 -273.4045 267.8290
v 3688.2684 -268.9873 267.8297
v 3689.5008 -273.3236 267.8288
f 625 626 627
v 3689.7617 -277.0802 267.8284
v 3690.9853 -281.3525 267.8275
v 3690.5651 -281.4324 267.8277
f 628 629 630
v 3690.9853 -281.3525 267.8275
v 3690.1830 -277.0014 267.8282
v 3732.0039 -293.2651 267.8030
f 631 632 633
v 3691.0568 -281.9376 267.8274
v 3690.9853 -281.3525 267.8275
v 3732.0039 -293.2651 267.8030
f 634 635 636
v 3777.3690 -273.9726 267.7772
v 3769.3456 -243.8406 267.7833
v 3771.7248 -243.3949 267.7819
f 637 638 639
v 3777.2424 -274.1893 267.7773
v 3778.6531 -281.7509 267.7761
v 3776.4100 -282.1650 267.7775
f 640 641 642
v 3777.2424 -274.1893 267.7773
v 3732.0039 -293.2651 267.8030
v 3777.3690 -273.9726 267.7772
f 643 644 645
v 3777.2424 -274.1893 267.7773
v 3776.4100 -282.1650 267.7775
v 3772.6664 -285.7619 267.7795
f 646 647 648
v 3772.6664 -285.7619 267.7795
v 3776.4100 -282.1650 267.7775
v 3776.6959 -283.7127 267.7772
f 649 650 651
v 3776.9255 -284.9753 267.7770
v 3772.6664 -285.7619 267.7795
v 3776.6959 -283.7127 267.7772
f 652 653 654
v 3731.8066 -293.3935 267.8032
v 3728.5403 -293.8928 267.8050
v 3732.0039 -293.2651 267.8030
f 655 656 657
v 3732.0039 -293.2651 267.8030
v 3728.5403 -293.8928 267.8050
v 3691.0568 -281.9376 267.8274
f 658 659 660
v 3777.2424 -274.1893 267.7773
v 3772.6664 -285.7619 267.7795
v 3732.0039 -293.2651 267.8030
f 661 662 663
v 3732.0039 -293.2651 267.8030
v 3732.0207 -293.3541 267.8030
v 3731.8066 -293.3935 267.8032
f 664 665 666
v 3691.0568 -281.9376 267.8274
v 3725.4697 -294.4716 267.8069
v 3722.7405 -294.9752 267.8085
f 667 668 669
v 3728.6517 -294.4930 267.8049
v 3728.5403 -293.8928 267.8050
v 3731.8066 -293.3935 267.8032
f 670 671 672
v 3731.8993 -293.8758 267.8031
v 3728.6517 -294.4930 267.8049
v 3731.8066 -293.3935 267.8032
f 673 674 675
v 3728.5403 -293.8928 267.8050
v 3725.4697 -294.4716 267.8069
v 3691.0568 -281.9376 267.8274
f 676 677 678
v 3693.7961 -296.7528 267.8252
v 3695.6890 -297.1678 267.8241
v 3693.9361 -297.4922 267.8251
f 679 680 681
v 3695.6890 -297.1678 267.8241
v 3693.7961 -296.7528 267.8252
v 3691.0568 -281.9376 267.8274
f 682 683 684
v 3685.7662 -282.9225 267.8304
v 3691.0568 -281.9376 267.8274
v 3693.7961 -296.7528 267.8252
f 685 686 687
v 3688.5216 -297.7326 267.8282
v 3685.7662 -282.9225 267.8304
v 3693.7961 -296.7528 267.8252
f 688 689 690
v 3714.0903 -296.5740 267.8134
v 3695.6890 -297.1678 267.8241
v 3691.0568 -281.9376 267.8274
f 691 692 693
v 3719.2548 -295.6179 267.8105
v 3714.0903 -296.5740 267.8134
v 3691.0568 -281.9376 267.8274
f 694 695 696
v 3705.3291 -298.1877 267.8184
v 3695.6890 -297.1678 267.8241
v 3714.0903 -296.5740 267.8134
f 697 698 699
v 3696.1877 -299.8741 267.8237
v 3695.6890 -297.1678 267.8241
v 3697.4823 -299.6366 267.8229
f 700 701 702
v 3701.6844 -298.8599 267.8205
v 3697.4823 -299.6366 267.8229
v 3695.6890 -297.1678 267.8241
f 703 704 705
v 3695.6890 -297.1678 267.8241
v 3703.3241 -298.5583 267.8196
v 3701.6844 -298.8599 267.8205
f 706 707 708
v 3695.6890 -297.1678 267.8241
v 3705.3291 -298.1877 267.8184
v 3703.3241 -298.5583 267.8196
f 709 710 711
v 3719.2548 -295.6179 267.8105
v 3691.0568 -281.9376 267.8274
v 3722.7405 -294.9752 267.8085
f 712 713 714
v 3777.3690 -273.9726 267.7772
v 3732.0039 -293.2651 267.8030
v 3728.4024 -250.1030 267.8071
f 715 716 717
v 3719.2568 -295.6180 272.8323
v 3711.4570 -253.3447 272.8387
v 3711.4564 -253.3447 271.8917
f 718 719 720
v 3717.6709 -252.1933 272.8352
v 3725.4727 -294.4716 272.8287
v 3725.4722 -294.4697 271.8817
f 721 722 723
v 3720.6231 -251.0131 267.8117
v 3723.8900 -250.4239 271.8846
v 3723.8876 -250.4239 267.8097
f 724 725 726
v 3720.7465 -251.6224 267.8116
v 3720.6255 -251.0132 271.8865
v 3720.6231 -251.0131 267.8117
f 727 728 729
v 3728.6517 -294.4930 267.8049
v 3728.5427 -293.8929 271.8799
v 3728.5403 -293.8928 267.8050
f 730 731 732
v 3731.8993 -293.8758 267.8031
v 3728.6541 -294.4931 271.8798
v 3728.6517 -294.4930 267.8049
f 733 734 735
v 3731.8066 -293.3935 267.8032
v 3731.9017 -293.8758 271.8780
v 3731.8993 -293.8758 267.8031
f 736 737 738
v 3732.0207 -293.3541 267.8030
v 3731.8090 -293.3936 271.8781
v 3731.8066 -293.3935 267.8032
f 739 740 741
v 3732.0063 -293.2651 271.8779
v 3732.0231 -293.3542 271.8779
v 3732.0207 -293.3541 267.8030
f 742 743 744
v 3722.2103 -251.0874 271.8856
v 3723.9429 -250.7680 273.2116
v 3723.9421 -250.7681 271.8846
f 745 746 747
v 3728.5403 -293.8928 267.8050
v 3725.4722 -294.4697 271.8817
v 3725.4697 -294.4716 267.8069
f 748 749 750
v 3777.2424 -274.1893 267.7773
v 3778.6555 -281.7510 271.6610
v 3778.6531 -281.7509 267.7761
f 751 752 753
v 3777.3690 -273.9726 267.7772
v 3777.2447 -274.1894 271.6622
v 3777.2424 -274.1893 267.7773
f 754 755 756
v 3771.7248 -243.3949 267.7819
v 3777.3713 -273.9727 271.6621
v 3777.3690 -273.9726 267.7772
f 757 758 759
v 3769.3456 -243.8406 267.7833
v 3771.7271 -243.3950 271.6668
v 3771.7248 -243.3949 267.7819
f 760 761 762
v 3769.1159 -242.6090 267.7835
v 3769.3480 -243.8406 271.6682
v 3769.3456 -243.8406 267.7833
f 763 764 765
v 3769.1119 -242.6100 267.7835
v 3769.1183 -242.6090 271.6684
v 3769.1159 -242.6090 267.7835
f 766 767 768
v 3778.6531 -281.7509 267.7761
v 3776.4124 -282.1651 271.6624
v 3776.4100 -282.1650 267.7775
f 769 770 771
v 3688.5216 -297.7326 267.8282
v 3685.7707 -282.9226 275.5072
v 3685.7662 -282.9225 267.8304
f 772 773 774
v 3693.9760 -296.7673 272.8469
v 3693.8095 -296.7980 275.5019
v 3693.8079 -296.7979 272.8470
f 775 776 777
v 3691.2130 -281.7961 272.8493
v 3693.9776 -296.7675 275.5018
v 3693.9760 -296.7673 272.8469
f 778 779 780
v 3691.0460 -281.8267 272.8493
v 3691.2147 -281.7962 275.5042
v 3691.2130 -281.7961 272.8493
f 781 782 783
v 3688.9320 -260.5553 267.8297
v 3688.3938 -257.6189 272.8519
v 3688.3908 -257.6188 267.8301
f 784 785 786
v 3687.1962 -260.8746 267.8307
v 3688.9349 -260.5553 272.8515
v 3688.9320 -260.5553 267.8297
f 787 788 789
v 3688.6776 -268.9085 267.8295
v 3687.1991 -260.8747 272.8525
v 3687.1962 -260.8746 267.8307
f 790 791 792
v 3688.2684 -268.9873 267.8297
v 3688.6806 -268.9086 272.8513
v 3688.6776 -268.9085 267.8295
f 793 794 795
v 3689.0836 -273.4045 267.8290
v 3688.2714 -268.9874 272.8515
v 3688.2684 -268.9873 267.8297
f 796 797 798
v 3689.5008 -273.3236 267.8288
v 3689.0865 -273.4046 272.8508
v 3689.0836 -273.4045 267.8290
f 799 800 801
v 3690.1830 -277.0014 267.8282
v 3689.5037 -273.3237 272.8506
v 3689.5008 -273.3236 267.8288
f 802 803 804
v 3689.7617 -277.0802 267.8284
v 3690.1859 -277.0014 272.8501
v 3690.1830 -277.0014 267.8282
f 805 806 807
v 3690.5651 -281.4324 267.8277
v 3689.7647 -277.0803 272.8503
v 3689.7617 -277.0802 267.8284
f 808 809 810
v 3690.9853 -281.3525 267.8275
v 3690.5681 -281.4324 272.8496
v 3690.5651 -281.4324 267.8277
f 811 812 813
v 3695.6890 -297.1678 267.8241
v 3693.9391 -297.4923 272.8469
v 3693.9361 -297.4922 267.8251
f 814 815 816
v 3696.1877 -299.8741 267.8237
v 3695.6919 -297.1680 272.8459
v 3695.6890 -297.1678 267.8241
f 817 818 819
v 3693.8877 -256.6006 271.7118
v 3701.6873 -298.8600 272.8423
v 3701.6866 -298.8609 271.7053
f 820 821 822
v 3703.3264 -298.5584 271.7044
v 3695.5282 -256.2970 272.8478
v 3695.5276 -256.2969 271.7108
f 823 824 825
v 3709.5555 -253.6965 271.8928
v 3717.3558 -295.9689 272.8334
v 3717.3553 -295.9699 271.8864
f 826 827 828
v 3723.8900 -250.4239 271.8846
v 3723.9633 -250.9210 267.8096
v 3723.8876 -250.4239 267.8097
f 829 830 831
v 3723.9633 -250.9210 267.8096
v 3723.9421 -250.7681 271.8846
v 3723.9657 -250.9211 271.8845
f 832 833 834
v 3769.3435 -243.8416 272.6171
v 3769.3430 -243.8416 271.6682
v 3769.1143 -242.6100 271.6684
f 835 836 837
v 3769.1100 -242.5980 267.7835
v 3769.1143 -242.6100 271.6684
v 3769.1119 -242.6100 267.7835
f 838 839 840
v 3776.4124 -282.1651 271.6624
v 3769.3435 -243.8416 272.6171
v 3776.6988 -283.7128 272.6110
f 841 842 843
v 3695.5276 -256.2969 271.7108
v 3696.5268 -256.1106 267.8255
v 3693.8855 -256.6006 267.8270
f 844 845 846
v 3709.5555 -253.6965 271.8928
v 3712.0733 -253.2303 267.8166
v 3706.3585 -254.2889 267.8198
f 847 848 849
v 3701.6866 -298.8609 271.7053
v 3701.6844 -298.8599 267.8205
v 3703.3241 -298.5583 267.8196
f 850 851 852

g building_ID_73DE5527-7D39-42AE-B8FE-E0F8DAD638C5
v 3645.6926 -276.0374 268.6878
v 3639.5019 -272.1928 268.6915
v 3644.7815 -271.2160 268.6886
f 853 854 855
v 3639.5019 -272.1928 268.6915
v 3645.6926 -276.0374 268.6878
v 3640.4120 -277.0092 268.6908
f 856 857 858
v 3644.7857 -271.2161 275.8594
v 3640.4159 -277.0094 275.3696
v 3645.6965 -276.0375 275.3636
f 859 860 861
v 3644.7857 -271.2161 275.8594
v 3639.5061 -272.1930 275.8653
v 3640.4159 -277.0094 275.3696
f 862 863 864
v 3644.7815 -271.2160 268.6886
v 3644.7857 -271.2161 275.8594
v 3645.6926 -276.0374 268.6878
f 865 866 867
v 3645.6926 -276.0374 268.6878
v 3644.7857 -271.2161 275.8594
v 3645.6965 -276.0375 275.3636
f 868 869 870
v 3644.7857 -271.2161 275.8594
v 3639.5019 -272.1928 268.6915
v 3639.5061 -272.1930 275.8653
f 871 872 873
v 3639.5019 -272.1928 268.6915
v 3640.4120 -277.0092 268.6908
v 3639.5061 -272.1930 275.8653
f 874 875 876
v 3640.4120 -277.0092 268.6908
v 3645.6965 -276.0375 275.3636
v 3640.4159 -277.0094 275.3696
f 877 878 879
v 3645.6965 -276.0375 275.3636
v 3640.4120 -277.0092 268.6908
v 3645.6926 -276.0374 268.6878
f 880 881 882
v 3639.5019 -272.1928 268.6915
v 3644.7857 -271.2161 275.8594
v 3644.7815 -271.2160 268.6886
f 883 884 885
v 3639.5061 -272.1930 275.8653
v 3640.4120 -277.0092 268.6908
v 3640.4159 -277.0094 275.3696
f 886 887 888

g building_ID_8786F67E-9D9C-47CA-A04D-A1AC1BF78C8D
v 3713.1162 -305.9195 272.6474
v 3714.9948 -326.6332 272.6451
v 3716.9337 -326.2744 272.6440
f 889 890 891
v 3714.9948 -326.6332 272.6451
v 3713.1162 -305.9195 272.6474
v 3711.1773 -306.2803 272.6485
f 892 893 894
v 3719.7346 -304.6871 273.0216
v 3716.9341 -326.2745 273.4020
v 3723.5531 -325.0482 273.0182
f 895 896 897
v 3716.9341 -326.2745 273.4020
v 3719.7346 -304.6871 273.0216
v 3713.1166 -305.9195 273.4054
f 898 899 900
v 3719.7338 -304.6872 271.6766
v 3719.7346 -304.6871 273.0216
v 3723.5531 -325.0482 273.0182
f 901 902 903
v 3716.9337 -326.2744 272.6440
v 3716.9341 -326.2745 273.4020
v 3713.1166 -305.9195 273.4054
f 904 905 906
v 3725.5748 -301.5707 267.8324
v 3722.7244 -302.0921 267.8340
v 3725.5771 -301.5708 271.6893
f 907 908 909
v 3722.7244 -302.0921 267.8340
v 3722.7267 -302.0922 271.6909
v 3725.5771 -301.5708 271.6893
f 910 911 912
v 3723.1052 -304.0581 267.8337
v 3723.1063 -304.0581 269.7457
v 3722.7267 -302.0922 271.6909
f 913 914 915
v 3723.1052 -304.0581 267.8337
v 3722.7267 -302.0922 271.6909
v 3722.7244 -302.0921 267.8340
f 916 917 918
v 3726.9529 -324.7001 267.8305
v 3726.9551 -324.7002 271.4994
v 3726.9067 -324.4270 267.8305
f 919 920 921
v 3726.9067 -324.4270 267.8305
v 3726.9551 -324.7002 271.4994
v 3726.9077 -324.4270 269.6664
f 922 923 924
v 3728.6888 -324.3748 267.8295
v 3728.6909 -324.3748 271.4984
v 3726.9551 -324.7002 271.4994
f 925 926 927
v 3728.6888 -324.3748 267.8295
v 3726.9551 -324.7002 271.4994
v 3726.9529 -324.7001 267.8305
f 928 929 930
v 3725.7348 -302.4123 271.6822
v 3725.5748 -301.5707 267.8324
v 3725.5771 -301.5708 271.6893
f 931 932 933
v 3725.7348 -302.4123 271.6822
v 3725.7325 -302.4121 267.8323
v 3725.5748 -301.5707 267.8324
f 934 935 936
v 3767.0813 -294.8929 273.1842
v 3771.4803 -295.1737 272.7346
v 3771.2831 -294.1132 272.7347
f 937 938 939
v 3772.6147 -294.9697 272.6129
v 3772.9082 -297.0505 272.6226
v 3773.0022 -297.0338 272.6126
f 940 941 942
v 3772.9082 -297.0505 272.6226
v 3772.6147 -294.9697 272.6129
v 3771.4803 -295.1737 272.7346
f 943 944 945
v 3772.9082 -297.0505 272.6226
v 3771.4803 -295.1737 272.7346
v 3767.0813 -294.8929 273.1842
f 946 947 948
v 3775.2253 -315.3245 272.7344
v 3771.0852 -316.2404 273.1807
v 3775.2520 -315.4586 272.7344
f 949 950 951
v 3771.0852 -316.2404 273.1807
v 3775.2253 -315.3245 272.7344
v 3772.9082 -297.0505 272.6226
f 952 953 954
v 3776.2687 -315.1523 272.6238
v 3772.9082 -297.0505 272.6226
v 3775.2253 -315.3245 272.7344
f 955 956 957
v 3772.9082 -297.0505 272.6226
v 3767.0813 -294.8929 273.1842
v 3771.0852 -316.2404 273.1807
f 958 959 960
v 3725.8654 -302.5426 273.2080
v 3724.6122 -302.6232 273.2087
v 3728.7984 -324.9442 273.2052
f 961 962 963
v 3771.0852 -316.2404 273.1807
v 3725.8654 -302.5426 273.2080
v 3728.7984 -324.9442 273.2052
f 964 965 966
v 3725.8398 -302.3935 273.2080
v 3724.6122 -302.6232 273.2087
v 3725.8654 -302.5426 273.2080
f 967 968 969
v 3771.0852 -316.2404 273.1807
v 3767.0813 -294.8929 273.1842
v 3725.8654 -302.5426 273.2080
f 970 971 972
v 3771.2262 -316.9878 273.1806
v 3771.0852 -316.2404 273.1807
v 3728.7984 -324.9442 273.2052
f 973 974 975
v 3775.2520 -315.4586 272.7344
v 3775.2223 -315.3244 267.8025
v 3775.2253 -315.3245 272.7344
f 976 977 978
v 3772.9053 -297.0504 267.8048
v 3772.9082 -297.0505 272.6226
v 3776.2658 -315.1522 267.8019
f 979 980 981
v 3772.9053 -297.0504 267.8048
v 3772.9993 -297.0336 267.8048
v 3772.9082 -297.0505 272.6226
f 982 983 984
v 3772.6118 -294.9696 267.8051
v 3772.6147 -294.9697 272.6129
v 3772.9993 -297.0336 267.8048
f 985 986 987
v 3771.4803 -295.1737 272.7346
v 3772.6118 -294.9696 267.8051
v 3771.4773 -295.1736 267.8058
f 988 989 990
v 3772.6147 -294.9697 272.6129
v 3772.6118 -294.9696 267.8051
v 3771.4803 -295.1737 272.7346
f 991 992 993
v 3771.2801 -294.1131 267.8059
v 3771.2831 -294.1132 272.7347
v 3771.4773 -295.1736 267.8058
f 994 995 996
v 3771.0852 -316.2404 273.1807
v 3775.2490 -315.4585 267.8025
v 3775.2520 -315.4586 272.7344
f 997 998 999
v 3771.0852 -316.2404 273.1807
v 3771.0820 -316.2402 267.8049
v 3775.2490 -315.4585 267.8025
f 1000 1001 1002
v 3724.6113 -302.6232 271.6828
v 3724.6122 -302.6232 273.2087
v 3725.7348 -302.4123 271.6822
f 1003 1004 1005
v 3725.8398 -302.3935 273.2080
v 3725.7348 -302.4123 271.6822
v 3724.6122 -302.6232 273.2087
f 1006 1007 1008
v 3725.7348 -302.4123 271.6822
v 3725.8389 -302.3925 271.6821
v 3725.7325 -302.4121 267.8323
f 1009 1010 1011
v 3725.8389 -302.3925 271.6821
v 3725.8366 -302.3925 267.8322
v 3725.7325 -302.4121 267.8323
f 1012 1013 1014
v 3725.8398 -302.3935 273.2080
v 3725.8389 -302.3925 271.6821
v 3725.7348 -302.4123 271.6822
f 1015 1016 1017
v 3771.2230 -316.9877 267.8048
v 3771.2262 -316.9878 273.1806
v 3728.7984 -324.9442 273.2052
f 1018 1019 1020
v 3771.0820 -316.2402 267.8049
v 3771.0852 -316.2404 273.1807
v 3771.2262 -316.9878 273.1806
f 1021 1022 1023
v 3725.8389 -302.3925 271.6821
v 3725.8398 -302.3935 273.2080
v 3725.8654 -302.5426 273.2080
f 1024 1025 1026
v 3725.8366 -302.3925 267.8322
v 3725.8389 -302.3925 271.6821
v 3725.8645 -302.5426 271.6811
f 1027 1028 1029
v 3728.7952 -324.9441 267.8294
v 3728.7984 -324.9442 273.2052
v 3728.6909 -324.3748 271.4984
f 1030 1031 1032
v 3724.6122 -302.6232 273.2087
v 3728.6909 -324.3748 271.4984
v 3728.7984 -324.9442 273.2052
f 1033 1034 1035
v 3728.6888 -324.3748 267.8295
v 3728.7952 -324.9441 267.8294
v 3728.6909 -324.3748 271.4984
f 1036 1037 1038
v 3724.6122 -302.6232 273.2087
v 3724.6113 -302.6232 271.6828
v 3728.6909 -324.3748 271.4984
f 1039 1040 1041
v 3726.9551 -324.7002 271.4994
v 3728.6909 -324.3748 271.4984
v 3726.9088 -324.4271 271.5014
f 1042 1043 1044
v 3728.6909 -324.3748 271.4984
v 3723.1075 -304.0582 271.6746
v 3726.9088 -324.4271 271.5014
f 1045 1046 1047
v 3723.1075 -304.0582 271.6746
v 3728.6909 -324.3748 271.4984
v 3724.6113 -302.6232 271.6828
f 1048 1049 1050
v 3723.1075 -304.0582 271.6746
v 3719.7338 -304.6872 271.6766
v 3726.9088 -324.4271 271.5014
f 1051 1052 1053
v 3719.7338 -304.6872 271.6766
v 3723.5522 -325.0481 271.5033
v 3726.9088 -324.4271 271.5014
f 1054 1055 1056
v 3725.5771 -301.5708 271.6893
v 3724.6113 -302.6232 271.6828
v 3725.7348 -302.4123 271.6822
f 1057 1058 1059
v 3724.6113 -302.6232 271.6828
v 3722.7267 -302.0922 271.6909
v 3723.1075 -304.0582 271.6746
f 1060 1061 1062
v 3722.7267 -302.0922 271.6909
v 3724.6113 -302.6232 271.6828
v 3725.5771 -301.5708 271.6893
f 1063 1064 1065
v 3702.7302 -307.8536 272.6533
v 3706.5447 -328.1976 272.6500
v 3708.4615 -327.8428 272.6489
f 1066 1067 1068
v 3708.4615 -327.8428 272.6489
v 3704.6451 -307.4968 272.6522
v 3702.7302 -307.8536 272.6533
f 1069 1070 1071
v 3698.5293 -322.1092 273.2329
v 3698.5396 -311.2154 273.2875
v 3697.9458 -318.9667 273.2335
f 1072 1073 1074
v 3698.5396 -311.2154 273.2875
v 3698.5293 -322.1092 273.2329
v 3706.5451 -328.1976 273.4080
f 1075 1076 1077
v 3706.5451 -328.1976 273.4080
v 3698.5293 -322.1092 273.2329
v 3699.8778 -329.4317 273.2318
f 1078 1079 1080
v 3697.9458 -318.9667 273.2335
v 3698.1472 -322.1773 273.2231
v 3698.5293 -322.1092 273.2329
f 1081 1082 1083
v 3698.0692 -308.7222 273.2879
v 3698.5396 -311.2154 273.2875
v 3702.7306 -307.8536 273.4113
f 1084 1085 1086
v 3697.9458 -318.9667 273.2335
v 3698.5396 -311.2154 273.2875
v 3696.5636 -311.5861 273.2357
f 1087 1088 1089
v 3697.5576 -319.0346 273.2237
v 3698.1472 -322.1773 273.2231
v 3697.9458 -318.9667 273.2335
f 1090 1091 1092
v 3702.7306 -307.8536 273.4113
v 3698.5396 -311.2154 273.2875
v 3706.5451 -328.1976 273.4080
f 1093 1094 1095
v 3698.5364 -311.2153 267.8477
v 3698.5396 -311.2154 273.2875
v 3698.0692 -308.7222 273.2879
f 1096 1097 1098
v 3696.5604 -311.5860 267.8489
v 3696.5636 -311.5861 273.2357
v 3698.5364 -311.2153 267.8477
f 1099 1100 1101
v 3698.5396 -311.2154 273.2875
v 3698.5364 -311.2153 267.8477
v 3696.5636 -311.5861 273.2357
f 1102 1103 1104
v 3697.9426 -318.9666 267.8476
v 3697.9458 -318.9667 273.2335
v 3696.5636 -311.5861 273.2357
f 1105 1106 1107
v 3696.5636 -311.5861 273.2357
v 3696.5604 -311.5860 267.8489
v 3697.9426 -318.9666 267.8476
f 1108 1109 1110
v 3697.5544 -319.0346 267.8478
v 3697.5576 -319.0346 273.2237
v 3697.9426 -318.9666 267.8476
f 1111 1112 1113
v 3697.5576 -319.0346 273.2237
v 3697.9458 -318.9667 273.2335
v 3697.9426 -318.9666 267.8476
f 1114 1115 1116
v 3698.1440 -322.1771 267.8473
v 3698.1472 -322.1773 273.2231
v 3697.5544 -319.0346 267.8478
f 1117 1118 1119
v 3698.5262 -322.1092 267.8471
v 3698.5293 -322.1092 273.2329
v 3698.1472 -322.1773 273.2231
f 1120 1121 1122
v 3698.5262 -322.1092 267.8471
v 3698.1472 -322.1773 273.2231
v 3698.1440 -322.1771 267.8473
f 1123 1124 1125
v 3699.8746 -329.4317 267.8460
v 3699.8762 -329.4317 270.5389
v 3698.5262 -322.1092 267.8471
f 1126 1127 1128
v 3699.8762 -329.4317 270.5389
v 3698.5293 -322.1092 273.2329
v 3698.5262 -322.1092 267.8471
f 1129 1130 1131
v 3702.7302 -307.8536 272.6533
v 3702.7306 -307.8536 273.4113
v 3706.5451 -328.1976 273.4080
f 1132 1133 1134
v 3711.1777 -306.2803 273.4065
v 3708.4621 -327.8428 273.4069
v 3714.9952 -326.6333 273.4031
f 1135 1136 1137
v 3708.4621 -327.8428 273.4069
v 3711.1777 -306.2803 273.4065
v 3704.6455 -307.4968 273.4102
f 1138 1139 1140
v 3708.4615 -327.8428 272.6489
v 3708.4621 -327.8428 273.4069
v 3704.6451 -307.4968 272.6522
f 1141 1142 1143
v 3711.1773 -306.2803 272.6485
v 3711.1777 -306.2803 273.4065
v 3714.9952 -326.6333 273.4031
f 1144 1145 1146
v 3767.0781 -294.8928 267.8084
v 3725.8645 -302.5426 271.6811
v 3725.8654 -302.5426 273.2080
f 1147 1148 1149
v 3725.8622 -302.5424 267.8322
v 3725.8645 -302.5426 271.6811
v 3728.3093 -302.0880 267.8308
f 1150 1151 1152
v 3725.8645 -302.5426 271.6811
v 3767.0781 -294.8928 267.8084
v 3728.3093 -302.0880 267.8308
f 1153 1154 1155
v 3767.0813 -294.8929 273.1842
v 3767.0781 -294.8928 267.8084
v 3725.8654 -302.5426 273.2080
f 1156 1157 1158
v 3771.2831 -294.1132 272.7347
v 3771.2801 -294.1131 267.8059
v 3767.0813 -294.8929 273.1842
f 1159 1160 1161
v 3771.2801 -294.1131 267.8059
v 3767.0781 -294.8928 267.8084
v 3767.0813 -294.8929 273.1842
f 1162 1163 1164
v 3698.0692 -308.7222 273.2879
v 3702.7306 -307.8536 273.4113
v 3702.7302 -307.8536 272.6533
f 1165 1166 1167
v 3704.6451 -307.4968 272.6522
v 3704.6455 -307.4968 273.4102
v 3711.1773 -306.2803 272.6485
f 1168 1169 1170
v 3711.1777 -306.2803 273.4065
v 3711.1773 -306.2803 272.6485
v 3704.6455 -307.4968 273.4102
f 1171 1172 1173
v 3702.7302 -307.8536 272.6533
v 3704.6451 -307.4968 272.6522
v 3719.7338 -304.6872 271.6766
f 1174 1175 1176
v 3701.6047 -308.0625 267.8461
v 3698.0660 -308.7220 267.8481
v 3702.7302 -307.8536 272.6533
f 1177 1178 1179
v 3698.0692 -308.7222 273.2879
v 3702.7302 -307.8536 272.6533
v 3698.0660 -308.7220 267.8481
f 1180 1181 1182
v 3701.6047 -308.0625 267.8461
v 3702.7302 -307.8536 272.6533
v 3723.1069 -304.0581 270.7106
f 1183 1184 1185
v 3709.6316 -306.5680 267.8415
v 3701.6047 -308.0625 267.8461
v 3723.1063 -304.0581 269.7457
f 1186 1187 1188
v 3711.1773 -306.2803 272.6485
v 3719.7338 -304.6872 271.6766
v 3704.6451 -307.4968 272.6522
f 1189 1190 1191
v 3713.1162 -305.9195 272.6474
v 3713.1166 -305.9195 273.4054
v 3719.7346 -304.6871 273.0216
f 1192 1193 1194
v 3719.7338 -304.6872 271.6766
v 3713.1162 -305.9195 272.6474
v 3719.7346 -304.6871 273.0216
f 1195 1196 1197
v 3713.1162 -305.9195 272.6474
v 3719.7338 -304.6872 271.6766
v 3711.1773 -306.2803 272.6485
f 1198 1199 1200
v 3723.1069 -304.0581 270.7106
v 3719.7338 -304.6872 271.6766
v 3723.1075 -304.0582 271.6746
f 1201 1202 1203
v 3723.1069 -304.0581 270.7106
v 3702.7302 -307.8536 272.6533
v 3719.7338 -304.6872 271.6766
f 1204 1205 1206
v 3723.1063 -304.0581 269.7457
v 3701.6047 -308.0625 267.8461
v 3723.1069 -304.0581 270.7106
f 1207 1208 1209
v 3719.7315 -304.6871 267.8357
v 3723.1063 -304.0581 269.7457
v 3723.1052 -304.0581 267.8337
f 1210 1211 1212
v 3715.1423 -305.5418 267.8383
v 3723.1063 -304.0581 269.7457
v 3719.7315 -304.6871 267.8357
f 1213 1214 1215
v 3715.1423 -305.5418 267.8383
v 3709.6316 -306.5680 267.8415
v 3723.1063 -304.0581 269.7457
f 1216 1217 1218
v 3726.9077 -324.4270 269.6664
v 3726.9088 -324.4271 271.5014
v 3723.5522 -325.0481 271.5033
f 1219 1220 1221
v 3716.9337 -326.2744 272.6440
v 3723.5522 -325.0481 271.5033
v 3723.5531 -325.0482 273.0182
f 1222 1223 1224
v 3718.8877 -325.9115 267.8351
v 3716.9337 -326.2744 272.6440
v 3713.5902 -326.8924 267.8381
f 1225 1226 1227
v 3716.9341 -326.2745 273.4020
v 3716.9337 -326.2744 272.6440
v 3723.5531 -325.0482 273.0182
f 1228 1229 1230
v 3716.9337 -326.2744 272.6440
v 3718.8877 -325.9115 267.8351
v 3723.5522 -325.0481 271.5033
f 1231 1232 1233
v 3726.9077 -324.4270 269.6664
v 3723.5500 -325.0480 267.8324
v 3726.9067 -324.4270 267.8305
f 1234 1235 1236
v 3723.5522 -325.0481 271.5033
v 3721.4150 -325.4433 267.8337
v 3726.9077 -324.4270 269.6664
f 1237 1238 1239
v 3726.9077 -324.4270 269.6664
v 3721.4150 -325.4433 267.8337
v 3723.5500 -325.0480 267.8324
f 1240 1241 1242
v 3721.4150 -325.4433 267.8337
v 3723.5522 -325.0481 271.5033
v 3718.8877 -325.9115 267.8351
f 1243 1244 1245
v 3714.9948 -326.6332 272.6451
v 3714.9952 -326.6333 273.4031
v 3708.4615 -327.8428 272.6489
f 1246 1247 1248
v 3708.4621 -327.8428 273.4069
v 3708.4615 -327.8428 272.6489
v 3714.9952 -326.6333 273.4031
f 1249 1250 1251
v 3708.4615 -327.8428 272.6489
v 3710.9400 -327.3823 267.8396
v 3714.9948 -326.6332 272.6451
f 1252 1253 1254
v 3706.5447 -328.1976 272.6500
v 3706.5451 -328.1976 273.4080
v 3699.8778 -329.4317 273.2318
f 1255 1256 1257
v 3706.5418 -328.1975 267.8422
v 3708.4615 -327.8428 272.6489
v 3706.5447 -328.1976 272.6500
f 1258 1259 1260
v 3699.8778 -329.4317 273.2318
v 3699.8762 -329.4317 270.5389
v 3706.5447 -328.1976 272.6500
f 1261 1262 1263
v 3714.9948 -326.6332 272.6451
v 3710.9400 -327.3823 267.8396
v 3713.5902 -326.8924 267.8381
f 1264 1265 1266
v 3704.9660 -328.4893 267.8431
v 3699.8762 -329.4317 270.5389
v 3699.8746 -329.4317 267.8460
f 1267 1268 1269
v 3699.8762 -329.4317 270.5389
v 3704.9660 -328.4893 267.8431
v 3706.5418 -328.1975 267.8422
f 1270 1271 1272
v 3708.4615 -327.8428 272.6489
v 3706.5418 -328.1975 267.8422
v 3710.9400 -327.3823 267.8396
f 1273 1274 1275
v 3706.5418 -328.1975 267.8422
v 3706.5447 -328.1976 272.6500
v 3699.8762 -329.4317 270.5389
f 1276 1277 1278
v 3716.9337 -326.2744 272.6440
v 3714.9948 -326.6332 272.6451
v 3713.5902 -326.8924 267.8381
f 1279 1280 1281
v 3725.8622 -302.5424 267.8322
v 3725.7325 -302.4121 267.8323
v 3725.8366 -302.3925 267.8322
f 1282 1283 1284
v 3723.1052 -304.0581 267.8337
v 3722.7244 -302.0921 267.8340
v 3725.5748 -301.5707 267.8324
f 1285 1286 1287
v 3725.7325 -302.4121 267.8323
v 3723.1052 -304.0581 267.8337
v 3725.5748 -301.5707 267.8324
f 1288 1289 1290
v 3772.9053 -297.0504 267.8048
v 3771.4773 -295.1736 267.8058
v 3772.6118 -294.9696 267.8051
f 1291 1292 1293
v 3772.6118 -294.9696 267.8051
v 3772.9993 -297.0336 267.8048
v 3772.9053 -297.0504 267.8048
f 1294 1295 1296
v 3772.9053 -297.0504 267.8048
v 3728.3093 -302.0880 267.8308
v 3767.0781 -294.8928 267.8084
f 1297 1298 1299
v 3771.4773 -295.1736 267.8058
v 3772.9053 -297.0504 267.8048
v 3767.0781 -294.8928 267.8084
f 1300 1301 1302
v 3767.0781 -294.8928 267.8084
v 3771.2801 -294.1131 267.8059
v 3771.4773 -295.1736 267.8058
f 1303 1304 1305
v 3723.1052 -304.0581 267.8337
v 3725.8622 -302.5424 267.8322
v 3728.3093 -302.0880 267.8308
f 1306 1307 1308
v 3772.9053 -297.0504 267.8048
v 3723.1052 -304.0581 267.8337
v 3728.3093 -302.0880 267.8308
f 1309 1310 1311
v 3725.8622 -302.5424 267.8322
v 3723.1052 -304.0581 267.8337
v 3725.7325 -302.4121 267.8323
f 1312 1313 1314
v 3701.6047 -308.0625 267.8461
v 3698.5364 -311.2153 267.8477
v 3698.0660 -308.7220 267.8481
f 1315 1316 1317
v 3698.5364 -311.2153 267.8477
v 3701.6047 -308.0625 267.8461
v 3709.6316 -306.5680 267.8415
f 1318 1319 1320
v 3715.1423 -305.5418 267.8383
v 3719.7315 -304.6871 267.8357
v 3697.9426 -318.9666 267.8476
f 1321 1322 1323
v 3697.9426 -318.9666 267.8476
v 3696.5604 -311.5860 267.8489
v 3698.5364 -311.2153 267.8477
f 1324 1325 1326
v 3715.1423 -305.5418 267.8383
v 3698.5364 -311.2153 267.8477
v 3709.6316 -306.5680 267.8415
f 1327 1328 1329
v 3698.5364 -311.2153 267.8477
v 3715.1423 -305.5418 267.8383
v 3697.9426 -318.9666 267.8476
f 1330 1331 1332
v 3723.1052 -304.0581 267.8337
v 3697.9426 -318.9666 267.8476
v 3719.7315 -304.6871 267.8357
f 1333 1334 1335
v 3698.5262 -322.1092 267.8471
v 3721.4150 -325.4433 267.8337
v 3718.8877 -325.9115 267.8351
f 1336 1337 1338
v 3772.9053 -297.0504 267.8048
v 3726.9067 -324.4270 267.8305
v 3723.1052 -304.0581 267.8337
f 1339 1340 1341
v 3772.9053 -297.0504 267.8048
v 3775.2223 -315.3244 267.8025
v 3771.0820 -316.2402 267.8049
f 1342 1343 1344
v 3775.2223 -315.3244 267.8025
v 3772.9053 -297.0504 267.8048
v 3776.2658 -315.1522 267.8019
f 1345 1346 1347
v 3713.5902 -326.8924 267.8381
v 3698.5262 -322.1092 267.8471
v 3718.8877 -325.9115 267.8351
f 1348 1349 1350
v 3775.2223 -315.3244 267.8025
v 3775.2490 -315.4585 267.8025
v 3771.0820 -316.2402 267.8049
f 1351 1352 1353
v 3728.6888 -324.3748 267.8295
v 3771.0820 -316.2402 267.8049
v 3771.2230 -316.9877 267.8048
f 1354 1355 1356
v 3728.7952 -324.9441 267.8294
v 3728.6888 -324.3748 267.8295
v 3771.2230 -316.9877 267.8048
f 1357 1358 1359
v 3771.0820 -316.2402 267.8049
v 3728.6888 -324.3748 267.8295
v 3772.9053 -297.0504 267.8048
f 1360 1361 1362
v 3726.9067 -324.4270 267.8305
v 3772.9053 -297.0504 267.8048
v 3728.6888 -324.3748 267.8295
f 1363 1364 1365
v 3698.5262 -322.1092 267.8471
v 3723.5500 -325.0480 267.8324
v 3721.4150 -325.4433 267.8337
f 1366 1367 1368
v 3698.5262 -322.1092 267.8471
v 3726.9067 -324.4270 267.8305
v 3723.5500 -325.0480 267.8324
f 1369 1370 1371
v 3726.9067 -324.4270 267.8305
v 3728.6888 -324.3748 267.8295
v 3726.9529 -324.7001 267.8305
f 1372 1373 1374
v 3697.9426 -318.9666 267.8476
v 3723.1052 -304.0581 267.8337
v 3726.9067 -324.4270 267.8305
f 1375 1376 1377
v 3698.1440 -322.1771 267.8473
v 3697.5544 -319.0346 267.8478
v 3697.9426 -318.9666 267.8476
f 1378 1379 1380
v 3698.1440 -322.1771 267.8473
v 3697.9426 -318.9666 267.8476
v 3698.5262 -322.1092 267.8471
f 1381 1382 1383
v 3697.9426 -318.9666 267.8476
v 3726.9067 -324.4270 267.8305
v 3698.5262 -322.1092 267.8471
f 1384 1385 1386
v 3698.5262 -322.1092 267.8471
v 3710.9400 -327.3823 267.8396
v 3706.5418 -328.1975 267.8422
f 1387 1388 1389
v 3698.5262 -322.1092 267.8471
v 3713.5902 -326.8924 267.8381
v 3710.9400 -327.3823 267.8396
f 1390 1391 1392
v 3698.5262 -322.1092 267.8471
v 3706.5418 -328.1975 267.8422
v 3704.9660 -328.4893 267.8431
f 1393 1394 1395
v 3698.5262 -322.1092 267.8471
v 3704.9660 -328.4893 267.8431
v 3699.8746 -329.4317 267.8460
f 1396 1397 1398
v 3719.7338 -304.6872 271.6766
v 3723.5531 -325.0482 273.0182
v 3723.5522 -325.0481 271.5033
f 1399 1400 1401
v 3716.9337 -326.2744 272.6440
v 3713.1166 -305.9195 273.4054
v 3713.1162 -305.9195 272.6474
f 1402 1403 1404
v 3723.1075 -304.0582 271.6746
v 3722.7267 -302.0922 271.6909
v 3723.1069 -304.0581 270.7106
f 1405 1406 1407
v 3723.1063 -304.0581 269.7457
v 3723.1069 -304.0581 270.7106
v 3722.7267 -302.0922 271.6909
f 1408 1409 1410
v 3726.9551 -324.7002 271.4994
v 3726.9088 -324.4271 271.5014
v 3726.9077 -324.4270 269.6664
f 1411 1412 1413
v 3775.2520 -315.4586 272.7344
v 3775.2490 -315.4585 267.8025
v 3775.2223 -315.3244 267.8025
f 1414 1415 1416
v 3775.2223 -315.3244 267.8025
v 3776.2658 -315.1522 267.8019
v 3776.2687 -315.1523 272.6238
f 1417 1418 1419
v 3776.2687 -315.1523 272.6238
v 3775.2253 -315.3245 272.7344
v 3775.2223 -315.3244 267.8025
f 1420 1421 1422
v 3772.9082 -297.0505 272.6226
v 3776.2687 -315.1523 272.6238
v 3776.2658 -315.1522 267.8019
f 1423 1424 1425
v 3772.9082 -297.0505 272.6226
v 3772.9993 -297.0336 267.8048
v 3773.0022 -297.0338 272.6126
f 1426 1427 1428
v 3772.6147 -294.9697 272.6129
v 3773.0022 -297.0338 272.6126
v 3772.9993 -297.0336 267.8048
f 1429 1430 1431
v 3771.2831 -294.1132 272.7347
v 3771.4803 -295.1737 272.7346
v 3771.4773 -295.1736 267.8058
f 1432 1433 1434
v 3771.2230 -316.9877 267.8048
v 3728.7984 -324.9442 273.2052
v 3728.7952 -324.9441 267.8294
f 1435 1436 1437
v 3771.0820 -316.2402 267.8049
v 3771.2262 -316.9878 273.1806
v 3771.2230 -316.9877 267.8048
f 1438 1439 1440
v 3725.8389 -302.3925 271.6821
v 3725.8654 -302.5426 273.2080
v 3725.8645 -302.5426 271.6811
f 1441 1442 1443
v 3725.8366 -302.3925 267.8322
v 3725.8645 -302.5426 271.6811
v 3725.8622 -302.5424 267.8322
f 1444 1445 1446
v 3698.5364 -311.2153 267.8477
v 3698.0692 -308.7222 273.2879
v 3698.0660 -308.7220 267.8481
f 1447 1448 1449
v 3698.1472 -322.1773 273.2231
v 3697.5576 -319.0346 273.2237
v 3697.5544 -319.0346 267.8478
f 1450 1451 1452
v 3699.8778 -329.4317 273.2318
v 3698.5293 -322.1092 273.2329
v 3699.8762 -329.4317 270.5389
f 1453 1454 1455
v 3702.7302 -307.8536 272.6533
v 3706.5451 -328.1976 273.4080
v 3706.5447 -328.1976 272.6500
f 1456 1457 1458
v 3708.4621 -327.8428 273.4069
v 3704.6455 -307.4968 273.4102
v 3704.6451 -307.4968 272.6522
f 1459 1460 1461
v 3711.1773 -306.2803 272.6485
v 3714.9952 -326.6333 273.4031
v 3714.9948 -326.6332 272.6451
f 1462 1463 1464

g building_ID_C039EB77-72A0-47B4-B7B3-4F7CDAEC9975
v 3662.7572 -110.5531 268.8966
v 3663.1810 -110.6202 268.8964
v 3664.0857 -114.4726 268.8958
f 1465 1466 1467
v 3664.0857 -114.4726 268.8958
v 3663.1810 -110.6202 268.8964
v 3665.4720 -109.8424 268.8951
f 1468 1469 1470
v 3664.0857 -114.4726 268.8958
v 3665.4720 -109.8424 268.8951
v 3669.6599 -108.4206 268.8927
f 1471 1472 1473
v 3689.4717 -105.7647 268.8813
v 3664.0857 -114.4726 268.8958
v 3680.3394 -104.7972 268.8866
f 1474 1475 1476
v 3672.9588 -107.3014 268.8908
v 3664.0857 -114.4726 268.8958
v 3669.6599 -108.4206 268.8927
f 1477 1478 1479
v 3664.0857 -114.4726 268.8958
v 3672.9588 -107.3014 268.8908
v 3675.3409 -106.4928 268.8894
f 1480 1481 1482
v 3675.3409 -106.4928 268.8894
v 3680.3394 -104.7972 268.8866
v 3664.0857 -114.4726 268.8958
f 1483 1484 1485
v 3663.1165 -110.4310 268.8964
v 3663.1810 -110.6202 268.8964
v 3662.7572 -110.5531 268.8966
f 1486 1487 1488
v 3687.8741 -102.2394 268.8823
v 3689.4717 -105.7647 268.8813
v 3685.9244 -102.9012 268.8834
f 1489 1490 1491
v 3688.1699 -101.9283 268.8821
v 3687.8741 -102.2394 268.8823
v 3687.8096 -102.0502 268.8823
f 1492 1493 1494
v 3689.4717 -105.7647 268.8813
v 3687.8741 -102.2394 268.8823
v 3688.1699 -101.9283 268.8821
f 1495 1496 1497
v 3682.7385 -103.9826 268.8852
v 3685.9244 -102.9012 268.8834
v 3689.4717 -105.7647 268.8813
f 1498 1499 1500
v 3689.4717 -105.7647 268.8813
v 3680.3394 -104.7972 268.8866
v 3682.7385 -103.9826 268.8852
f 1501 1502 1503
v 3680.7419 -114.3431 277.5949
v 3680.2008 -104.8457 278.3544
v 3677.7672 -105.6712 277.5968
f 1504 1505 1506
v 3680.2008 -104.8457 278.3544
v 3680.7419 -114.3431 277.5949
v 3683.1716 -113.5076 278.3525
f 1507 1508 1509
v 3678.3232 -115.1717 278.3553
v 3677.7672 -105.6712 277.5968
v 3675.3465 -106.4928 278.3571
f 1510 1511 1512
v 3677.7672 -105.6712 277.5968
v 3678.3232 -115.1717 278.3553
v 3680.7419 -114.3431 277.5949
f 1513 1514 1515
v 3675.9436 -115.9872 277.5976
v 3675.3465 -106.4928 278.3571
v 3672.9639 -107.3014 277.5995
f 1516 1517 1518
v 3675.3465 -106.4928 278.3571
v 3675.9436 -115.9872 277.5976
v 3678.3232 -115.1717 278.3553
f 1519 1520 1521
v 3673.4268 -116.8505 278.3581
v 3672.9639 -107.3014 277.5995
v 3670.4440 -108.1566 278.3599
f 1522 1523 1524
v 3672.9639 -107.3014 277.5995
v 3673.4268 -116.8505 278.3581
v 3675.9436 -115.9872 277.5976
f 1525 1526 1527
v 3685.7125 -112.6374 277.5921
v 3685.1843 -103.1541 278.3515
v 3682.7436 -103.9826 277.5939
f 1528 1529 1530
v 3685.1843 -103.1541 278.3515
v 3685.7125 -112.6374 277.5921
v 3688.1501 -111.8010 278.3497
f 1531 1532 1533
v 3683.1716 -113.5076 278.3525
v 3682.7436 -103.9826 277.5939
v 3680.2008 -104.8457 278.3544
f 1534 1535 1536
v 3682.7436 -103.9826 277.5939
v 3683.1716 -113.5076 278.3525
v 3685.7125 -112.6374 277.5921
f 1537 1538 1539
v 3688.1501 -111.8010 278.3497
v 3687.5049 -102.3663 277.5912
v 3685.1843 -103.1541 278.3515
f 1540 1541 1542
v 3687.5049 -102.3663 277.5912
v 3688.1501 -111.8010 278.3497
v 3690.4678 -111.0062 277.5894
f 1543 1544 1545
v 3688.1751 -101.9282 277.6878
v 3687.8148 -102.0501 277.6400
v 3689.7200 -106.4803 277.6849
f 1546 1547 1548
v 3687.8793 -102.2393 277.6400
v 3687.5049 -102.3663 277.5912
v 3690.4678 -111.0062 277.5894
f 1549 1550 1551
v 3689.7200 -106.4803 277.6849
v 3687.8793 -102.2393 277.6400
v 3690.4678 -111.0062 277.5894
f 1552 1553 1554
v 3689.7200 -106.4803 277.6849
v 3687.8148 -102.0501 277.6400
v 3687.8793 -102.2393 277.6400
f 1555 1556 1557
v 3689.7200 -106.4803 277.6849
v 3691.9042 -110.5131 277.7775
v 3690.4376 -106.2371 277.7784
f 1558 1559 1560
v 3691.9042 -110.5131 277.7775
v 3689.7200 -106.4803 277.6849
v 3690.4678 -111.0062 277.5894
f 1561 1562 1563
v 3671.0462 -117.6681 277.6004
v 3670.4440 -108.1566 278.3599
v 3668.0615 -108.9652 277.6023
f 1564 1565 1566
v 3670.4440 -108.1566 278.3599
v 3671.0462 -117.6681 277.6004
v 3673.4268 -116.8505 278.3581
f 1567 1568 1569
v 3671.0462 -117.6681 277.6004
v 3668.0615 -108.9652 277.6023
v 3665.4786 -109.8423 278.3628
f 1570 1571 1572
v 3665.4786 -109.8423 278.3628
v 3668.4673 -118.5522 278.3609
v 3671.0462 -117.6681 277.6004
f 1573 1574 1575
v 3665.4786 -109.8423 278.3628
v 3663.3913 -110.5508 277.6699
v 3668.4673 -118.5522 278.3609
f 1576 1577 1578
v 3663.1861 -110.6202 277.6051
v 3666.1848 -119.3352 277.6032
v 3668.4673 -118.5522 278.3609
f 1579 1580 1581
v 3668.4673 -118.5522 278.3609
v 3663.2352 -110.6034 277.6210
v 3663.1861 -110.6202 277.6051
f 1582 1583 1584
v 3663.2352 -110.6034 277.6210
v 3668.4673 -118.5522 278.3609
v 3663.3913 -110.5508 277.6699
f 1585 1586 1587
v 3663.5898 -112.9943 277.7088
v 3663.1216 -110.4310 277.6051
v 3663.0396 -110.4588 277.6301
f 1588 1589 1590
v 3663.0396 -110.4588 277.6301
v 3663.4430 -112.5619 277.7099
v 3663.5898 -112.9943 277.7088
f 1591 1592 1593
v 3663.5898 -112.9943 277.7088
v 3663.1861 -110.6202 277.6051
v 3663.1216 -110.4310 277.6051
f 1594 1595 1596
v 3663.1861 -110.6202 277.6051
v 3665.7855 -119.4721 277.7154
v 3666.1848 -119.3352 277.6032
f 1597 1598 1599
v 3663.5898 -112.9943 277.7088
v 3665.7855 -119.4721 277.7154
v 3663.1861 -110.6202 277.6051
f 1600 1601 1602
v 3662.7623 -110.5531 277.7083
v 3663.4430 -112.5619 277.7099
v 3663.0396 -110.4588 277.6301
f 1603 1604 1605
v 3688.1699 -101.9283 268.8821
v 3687.8148 -102.0501 277.6400
v 3688.1751 -101.9282 277.6878
f 1606 1607 1608
v 3687.8793 -102.2393 277.6400
v 3687.8096 -102.0502 268.8823
v 3687.8773 -102.2394 274.3561
f 1609 1610 1611
v 3687.8741 -102.2394 268.8823
v 3687.8773 -102.2394 274.3561
v 3687.8096 -102.0502 268.8823
f 1612 1613 1614
v 3690.4360 -106.2372 274.9346
v 3690.4376 -106.2371 277.7784
v 3691.9025 -110.5130 274.9336
f 1615 1616 1617
v 3663.1165 -110.4310 268.8964
v 3663.1216 -110.4310 277.6051
v 3663.1861 -110.6202 277.6051
f 1618 1619 1620
v 3667.1028 -123.3736 268.8739
v 3664.0857 -114.4726 268.8758
v 3674.7542 -119.8351 268.8695
f 1621 1622 1623
v 3689.7147 -106.4803 268.8612
v 3691.8109 -112.7678 268.8598
v 3674.7542 -119.8351 268.8695
f 1624 1625 1626
v 3692.2264 -114.0510 268.8596
v 3691.8285 -114.0589 268.8598
v 3691.8109 -112.7678 268.8598
f 1627 1628 1629
v 3674.7542 -119.8351 268.8695
v 3691.8109 -112.7678 268.8598
v 3691.8285 -114.0589 268.8598
f 1630 1631 1632
v 3689.7147 -106.4803 268.8612
v 3674.7542 -119.8351 268.8695
v 3664.0857 -114.4726 268.8758
f 1633 1634 1635
v 3674.8990 -120.2805 268.8695
v 3675.0379 -120.6898 268.8694
v 3667.1028 -123.3736 268.8739
f 1636 1637 1638
v 3691.8285 -114.0589 268.8598
v 3692.2264 -114.0510 268.8596
v 3691.8661 -114.1729 268.8598
f 1639 1640 1641
v 3674.8990 -120.2805 268.8695
v 3667.1028 -123.3736 268.8739
v 3674.7542 -119.8351 268.8695
f 1642 1643 1644
v 3664.0857 -114.4726 268.8758
v 3689.4716 -105.7647 268.8613
v 3689.7147 -106.4803 268.8612
f 1645 1646 1647
v 3703.5805 -101.6484 268.8532
v 3703.2598 -101.8846 268.8534
v 3703.2211 -101.7705 268.8534
f 1648 1649 1650
v 3691.8109 -112.7678 268.8598
v 3704.3345 -103.8715 268.8527
v 3705.4575 -108.3534 268.8520
f 1651 1652 1653
v 3703.2598 -101.8846 268.8534
v 3704.3345 -103.8715 268.8527
v 3689.7147 -106.4803 268.8612
f 1654 1655 1656
v 3705.4575 -108.3534 268.8520
v 3712.1064 -101.2502 268.8483
v 3713.5788 -105.6171 268.8474
f 1657 1658 1659
v 3703.5805 -101.6484 268.8532
v 3704.3345 -103.8715 268.8527
v 3703.2598 -101.8846 268.8534
f 1660 1661 1662
v 3704.3345 -103.8715 268.8527
v 3712.1064 -101.2502 268.8483
v 3705.4575 -108.3534 268.8520
f 1663 1664 1665
v 3689.7147 -106.4803 268.8612
v 3704.3345 -103.8715 268.8527
v 3691.8109 -112.7678 268.8598
f 1666 1667 1668
v 3704.3345 -103.8715 268.8527
v 3704.3381 -103.8713 274.9265
v 3712.1100 -101.2502 274.9221
f 1669 1670 1671
v 3703.5805 -101.6484 268.8532
v 3703.5841 -101.6484 274.9270
v 3704.3381 -103.8713 274.9265
f 1672 1673 1674
v 3703.2211 -101.7705 268.8534
v 3703.2247 -101.7704 274.9272
v 3703.5841 -101.6484 274.9270
f 1675 1676 1677
v 3703.2598 -101.8846 268.8534
v 3703.2634 -101.8846 274.9272
v 3703.2247 -101.7704 274.9272
f 1678 1679 1680
v 3675.0379 -120.6898 268.8694
v 3675.0415 -120.6898 274.9432
v 3667.1064 -123.3736 274.9477
f 1681 1682 1683
v 3674.8990 -120.2805 268.8695
v 3674.9026 -120.2804 274.9433
v 3675.0415 -120.6898 274.9432
f 1684 1685 1686
v 3674.7542 -119.8351 268.8695
v 3674.7578 -119.8351 274.9433
v 3674.9026 -120.2804 274.9433
f 1687 1688 1689
v 3691.8285 -114.0589 268.8598
v 3691.8320 -114.0588 274.9336
v 3674.7578 -119.8351 274.9433
f 1690 1691 1692
v 3691.8661 -114.1729 268.8598
v 3691.8697 -114.1729 274.9336
v 3691.8320 -114.0588 274.9336
f 1693 1694 1695
v 3692.2264 -114.0510 268.8596
v 3692.2300 -114.0509 274.9334
v 3691.8697 -114.1729 274.9336
f 1696 1697 1698
v 3691.8109 -112.7678 268.8598
v 3691.8145 -112.7678 274.9336
v 3692.2300 -114.0509 274.9334
f 1699 1700 1701
v 3705.4575 -108.3534 268.8520
v 3705.4611 -108.3533 274.9258
v 3691.8145 -112.7678 274.9336
f 1702 1703 1704
v 3713.5788 -105.6171 268.8474
v 3713.5824 -105.6171 274.9212
v 3705.4611 -108.3533 274.9258
f 1705 1706 1707
v 3712.1064 -101.2502 268.8483
v 3712.1100 -101.2502 274.9221
v 3713.5824 -105.6171 274.9212
f 1708 1709 1710
v 3703.2634 -101.8846 274.9272
v 3704.3381 -103.8713 274.9265
v 3703.5841 -101.6484 274.9270
f 1711 1712 1713
v 3704.3381 -103.8713 274.9265
v 3713.5824 -105.6171 274.9212
v 3712.1100 -101.2502 274.9221
f 1714 1715 1716
v 3703.2634 -101.8846 274.9272
v 3690.4360 -106.2372 274.9346
v 3704.3381 -103.8713 274.9265
f 1717 1718 1719
v 3691.9025 -110.5130 274.9336
v 3704.3381 -103.8713 274.9265
v 3690.4360 -106.2372 274.9346
f 1720 1721 1722
v 3703.5841 -101.6484 274.9270
v 3703.2247 -101.7704 274.9272
v 3703.2634 -101.8846 274.9272
f 1723 1724 1725
v 3691.9025 -110.5130 274.9336
v 3705.4611 -108.3533 274.9258
v 3704.3381 -103.8713 274.9265
f 1726 1727 1728
v 3705.4611 -108.3533 274.9258
v 3691.9025 -110.5130 274.9336
v 3691.8145 -112.7678 274.9336
f 1729 1730 1731
v 3704.3381 -103.8713 274.9265
v 3705.4611 -108.3533 274.9258
v 3713.5824 -105.6171 274.9212
f 1732 1733 1734
v 3691.8145 -112.7678 274.9336
v 3691.8320 -114.0588 274.9336
v 3692.2300 -114.0509 274.9334
f 1735 1736 1737
v 3691.8320 -114.0588 274.9336
v 3691.8697 -114.1729 274.9336
v 3692.2300 -114.0509 274.9334
f 1738 1739 1740
v 3690.4662 -111.0062 274.9345
v 3688.1481 -111.8010 274.9358
v 3691.8145 -112.7678 274.9336
f 1741 1742 1743
v 3691.8145 -112.7678 274.9336
v 3685.7109 -112.6375 274.9372
v 3691.8320 -114.0588 274.9336
f 1744 1745 1746
v 3691.9025 -110.5130 274.9336
v 3690.4662 -111.0062 274.9345
v 3691.8145 -112.7678 274.9336
f 1747 1748 1749
v 3675.9420 -115.9873 274.9427
v 3674.7578 -119.8351 274.9433
v 3678.3212 -115.1717 274.9414
f 1750 1751 1752
v 3674.7578 -119.8351 274.9433
v 3675.9420 -115.9873 274.9427
v 3673.4248 -116.8506 274.9442
f 1753 1754 1755
v 3667.1064 -123.3736 274.9477
v 3668.4823 -118.5463 274.9470
v 3665.7839 -119.4720 274.9485
f 1756 1757 1758
v 3685.7109 -112.6375 274.9372
v 3683.1696 -113.5076 274.9386
v 3691.8320 -114.0588 274.9336
f 1759 1760 1761
v 3674.7578 -119.8351 274.9433
v 3683.1696 -113.5076 274.9386
v 3680.7404 -114.3432 274.9400
f 1762 1763 1764
v 3674.7578 -119.8351 274.9433
v 3680.7404 -114.3432 274.9400
v 3678.3212 -115.1717 274.9414
f 1765 1766 1767
v 3683.1696 -113.5076 274.9386
v 3674.7578 -119.8351 274.9433
v 3691.8320 -114.0588 274.9336
f 1768 1769 1770
v 3674.9026 -120.2804 274.9433
v 3674.7578 -119.8351 274.9433
v 3667.1064 -123.3736 274.9477
f 1771 1772 1773
v 3668.4823 -118.5463 274.9470
v 3674.7578 -119.8351 274.9433
v 3671.0446 -117.6682 274.9455
f 1774 1775 1776
v 3674.9026 -120.2804 274.9433
v 3667.1064 -123.3736 274.9477
v 3675.0415 -120.6898 274.9432
f 1777 1778 1779
v 3674.7578 -119.8351 274.9433
v 3668.4823 -118.5463 274.9470
v 3667.1064 -123.3736 274.9477
f 1780 1781 1782
v 3671.0446 -117.6682 274.9455
v 3674.7578 -119.8351 274.9433
v 3673.4248 -116.8506 274.9442
f 1783 1784 1785
v 3688.1481 -111.8010 274.9358
v 3685.7109 -112.6375 274.9372
v 3691.8145 -112.7678 274.9336
f 1786 1787 1788
v 3664.0857 -114.4726 268.8758
v 3664.0857 -114.4726 268.8958
v 3689.4716 -105.7647 268.8613
f 1789 1790 1791
v 3690.4360 -106.2372 274.9346
v 3689.7147 -106.4803 268.8612
v 3689.7200 -106.4803 277.6849
f 1792 1793 1794
v 3689.7200 -106.4803 277.6849
v 3690.4376 -106.2371 277.7784
v 3690.4360 -106.2372 274.9346
f 1795 1796 1797
v 3703.2634 -101.8846 274.9272
v 3703.2598 -101.8846 268.8534
v 3689.7147 -106.4803 268.8612
f 1798 1799 1800
v 3690.4360 -106.2372 274.9346
v 3703.2634 -101.8846 274.9272
v 3689.7147 -106.4803 268.8612
f 1801 1802 1803
v 3663.0396 -110.4588 277.6301
v 3662.7572 -110.5531 268.8966
v 3662.7623 -110.5531 277.7083
f 1804 1805 1806
v 3663.1216 -110.4310 277.6051
v 3662.7572 -110.5531 268.8966
v 3663.0396 -110.4588 277.6301
f 1807 1808 1809
v 3663.1165 -110.4310 268.8964
v 3662.7572 -110.5531 268.8966
v 3663.1216 -110.4310 277.6051
f 1810 1811 1812
v 3689.4717 -105.7647 268.8813
v 3688.1699 -101.9283 268.8821
v 3688.1751 -101.9282 277.6878
f 1813 1814 1815
v 3689.4717 -105.7647 268.8813
v 3688.1751 -101.9282 277.6878
v 3689.7200 -106.4803 277.6849
f 1816 1817 1818
v 3689.7147 -106.4803 268.8612
v 3689.4717 -105.7647 268.8813
v 3689.7200 -106.4803 277.6849
f 1819 1820 1821
v 3689.4716 -105.7647 268.8613
v 3689.4717 -105.7647 268.8813
v 3689.7147 -106.4803 268.8612
f 1822 1823 1824
v 3663.5898 -112.9943 277.7088
v 3664.0857 -114.4726 268.8958
v 3665.7839 -119.4720 274.9485
f 1825 1826 1827
v 3667.1028 -123.3736 268.8739
v 3667.1064 -123.3736 274.9477
v 3665.7839 -119.4720 274.9485
f 1828 1829 1830
v 3667.1028 -123.3736 268.8739
v 3665.7839 -119.4720 274.9485
v 3664.0857 -114.4726 268.8758
f 1831 1832 1833
v 3664.0857 -114.4726 268.8958
v 3664.0857 -114.4726 268.8758
v 3665.7839 -119.4720 274.9485
f 1834 1835 1836
v 3663.5898 -112.9943 277.7088
v 3665.7839 -119.4720 274.9485
v 3665.7855 -119.4721 277.7154
f 1837 1838 1839
v 3663.4430 -112.5619 277.7099
v 3664.0857 -114.4726 268.8958
v 3663.5898 -112.9943 277.7088
f 1840 1841 1842
v 3664.0857 -114.4726 268.8958
v 3662.7623 -110.5531 277.7083
v 3662.7572 -110.5531 268.8966
f 1843 1844 1845
v 3664.0857 -114.4726 268.8958
v 3663.4430 -112.5619 277.7099
v 3662.7623 -110.5531 277.7083
f 1846 1847 1848
v 3685.7125 -112.6374 277.5921
v 3690.4678 -111.0062 277.5894
v 3688.1501 -111.8010 278.3497
f 1849 1850 1851
v 3680.7419 -114.3431 277.5949
v 3673.4248 -116.8506 274.9442
v 3685.7125 -112.6374 277.5921
f 1852 1853 1854
v 3683.1716 -113.5076 278.3525
v 3680.7419 -114.3431 277.5949
v 3685.7125 -112.6374 277.5921
f 1855 1856 1857
v 3685.7125 -112.6374 277.5921
v 3678.3212 -115.1717 274.9414
v 3690.4678 -111.0062 277.5894
f 1858 1859 1860
v 3691.9025 -110.5130 274.9336
v 3691.9042 -110.5131 277.7775
v 3690.4662 -111.0062 274.9345
f 1861 1862 1863
v 3691.9042 -110.5131 277.7775
v 3690.4678 -111.0062 277.5894
v 3685.7109 -112.6375 274.9372
f 1864 1865 1866
v 3690.4662 -111.0062 274.9345
v 3691.9042 -110.5131 277.7775
v 3688.1481 -111.8010 274.9358
f 1867 1868 1869
v 3690.4678 -111.0062 277.5894
v 3680.7404 -114.3432 274.9400
v 3683.1696 -113.5076 274.9386
f 1870 1871 1872
v 3685.7109 -112.6375 274.9372
v 3688.1481 -111.8010 274.9358
v 3691.9042 -110.5131 277.7775
f 1873 1874 1875
v 3690.4678 -111.0062 277.5894
v 3683.1696 -113.5076 274.9386
v 3685.7109 -112.6375 274.9372
f 1876 1877 1878
v 3678.3212 -115.1717 274.9414
v 3680.7404 -114.3432 274.9400
v 3690.4678 -111.0062 277.5894
f 1879 1880 1881
v 3675.9436 -115.9872 277.5976
v 3680.7419 -114.3431 277.5949
v 3678.3232 -115.1717 278.3553
f 1882 1883 1884
v 3671.0462 -117.6681 277.6004
v 3675.9436 -115.9872 277.5976
v 3673.4268 -116.8505 278.3581
f 1885 1886 1887
v 3665.7839 -119.4720 274.9485
v 3675.9436 -115.9872 277.5976
v 3671.0462 -117.6681 277.6004
f 1888 1889 1890
v 3665.7839 -119.4720 274.9485
v 3666.1848 -119.3352 277.6032
v 3665.7855 -119.4721 277.7154
f 1891 1892 1893
v 3668.4673 -118.5522 278.3609
v 3666.1848 -119.3352 277.6032
v 3671.0462 -117.6681 277.6004
f 1894 1895 1896
v 3665.7839 -119.4720 274.9485
v 3671.0462 -117.6681 277.6004
v 3666.1848 -119.3352 277.6032
f 1897 1898 1899
v 3685.7125 -112.6374 277.5921
v 3675.9420 -115.9873 274.9427
v 3678.3212 -115.1717 274.9414
f 1900 1901 1902
v 3675.9420 -115.9873 274.9427
v 3685.7125 -112.6374 277.5921
v 3673.4248 -116.8506 274.9442
f 1903 1904 1905
v 3675.9436 -115.9872 277.5976
v 3665.7839 -119.4720 274.9485
v 3668.4823 -118.5463 274.9470
f 1906 1907 1908
v 3673.4248 -116.8506 274.9442
v 3680.7419 -114.3431 277.5949
v 3671.0446 -117.6682 274.9455
f 1909 1910 1911
v 3680.7419 -114.3431 277.5949
v 3668.4823 -118.5463 274.9470
v 3671.0446 -117.6682 274.9455
f 1912 1913 1914
v 3675.9436 -115.9872 277.5976
v 3668.4823 -118.5463 274.9470
v 3680.7419 -114.3431 277.5949
f 1915 1916 1917
v 3663.2352 -110.6034 277.6210
v 3668.0615 -108.9652 277.6023
v 3663.1861 -110.6202 277.6051
f 1918 1919 1920
v 3663.3913 -110.5508 277.6699
v 3668.0615 -108.9652 277.6023
v 3663.2352 -110.6034 277.6210
f 1921 1922 1923
v 3663.3913 -110.5508 277.6699
v 3665.4786 -109.8423 278.3628
v 3668.0615 -108.9652 277.6023
f 1924 1925 1926
v 3668.0615 -108.9652 277.6023
v 3670.4440 -108.1566 278.3599
v 3672.9639 -107.3014 277.5995
f 1927 1928 1929
v 3665.4720 -109.8424 268.8951
v 3668.0615 -108.9652 277.6023
v 3672.9639 -107.3014 277.5995
f 1930 1931 1932
v 3663.1810 -110.6202 268.8964
v 3663.1861 -110.6202 277.6051
v 3668.0615 -108.9652 277.6023
f 1933 1934 1935
v 3665.4720 -109.8424 268.8951
v 3663.1810 -110.6202 268.8964
v 3668.0615 -108.9652 277.6023
f 1936 1937 1938
v 3669.6599 -108.4206 268.8927
v 3665.4720 -109.8424 268.8951
v 3672.9639 -107.3014 277.5995
f 1939 1940 1941
v 3672.9588 -107.3014 268.8908
v 3677.7672 -105.6712 277.5968
v 3675.3409 -106.4928 268.8894
f 1942 1943 1944
v 3672.9588 -107.3014 268.8908
v 3669.6599 -108.4206 268.8927
v 3677.7672 -105.6712 277.5968
f 1945 1946 1947
v 3672.9639 -107.3014 277.5995
v 3677.7672 -105.6712 277.5968
v 3669.6599 -108.4206 268.8927
f 1948 1949 1950
v 3682.7436 -103.9826 277.5939
v 3677.7672 -105.6712 277.5968
v 3680.2008 -104.8457 278.3544
f 1951 1952 1953
v 3677.7672 -105.6712 277.5968
v 3682.7436 -103.9826 277.5939
v 3675.3409 -106.4928 268.8894
f 1954 1955 1956
v 3687.5049 -102.3663 277.5912
v 3682.7436 -103.9826 277.5939
v 3685.1843 -103.1541 278.3515
f 1957 1958 1959
v 3687.8773 -102.2394 274.3561
v 3687.5049 -102.3663 277.5912
v 3687.8793 -102.2393 277.6400
f 1960 1961 1962
v 3687.8773 -102.2394 274.3561
v 3682.7436 -103.9826 277.5939
v 3687.5049 -102.3663 277.5912
f 1963 1964 1965
v 3675.3409 -106.4928 268.8894
v 3682.7436 -103.9826 277.5939
v 3680.3394 -104.7972 268.8866
f 1966 1967 1968
v 3687.8773 -102.2394 274.3561
v 3682.7385 -103.9826 268.8852
v 3680.3394 -104.7972 268.8866
f 1969 1970 1971
v 3682.7385 -103.9826 268.8852
v 3687.8773 -102.2394 274.3561
v 3685.9244 -102.9012 268.8834
f 1972 1973 1974
v 3687.8773 -102.2394 274.3561
v 3687.8741 -102.2394 268.8823
v 3685.9244 -102.9012 268.8834
f 1975 1976 1977
v 3680.3394 -104.7972 268.8866
v 3682.7436 -103.9826 277.5939
v 3687.8773 -102.2394 274.3561
f 1978 1979 1980
v 3675.3465 -106.4928 278.3571
v 3677.7672 -105.6712 277.5968
v 3672.9639 -107.3014 277.5995
f 1981 1982 1983
v 3688.1699 -101.9283 268.8821
v 3687.8096 -102.0502 268.8823
v 3687.8148 -102.0501 277.6400
f 1984 1985 1986
v 3687.8793 -102.2393 277.6400
v 3687.8148 -102.0501 277.6400
v 3687.8096 -102.0502 268.8823
f 1987 1988 1989
v 3690.4376 -106.2371 277.7784
v 3691.9042 -110.5131 277.7775
v 3691.9025 -110.5130 274.9336
f 1990 1991 1992
v 3663.1165 -110.4310 268.8964
v 3663.1861 -110.6202 277.6051
v 3663.1810 -110.6202 268.8964
f 1993 1994 1995
v 3704.3345 -103.8715 268.8527
v 3712.1100 -101.2502 274.9221
v 3712.1064 -101.2502 268.8483
f 1996 1997 1998
v 3703.5805 -101.6484 268.8532
v 3704.3381 -103.8713 274.9265
v 3704.3345 -103.8715 268.8527
f 1999 2000 2001
v 3703.2211 -101.7705 268.8534
v 3703.5841 -101.6484 274.9270
v 3703.5805 -101.6484 268.8532
f 2002 2003 2004
v 3703.2598 -101.8846 268.8534
v 3703.2247 -101.7704 274.9272
v 3703.2211 -101.7705 268.8534
f 2005 2006 2007
v 3675.0379 -120.6898 268.8694
v 3667.1064 -123.3736 274.9477
v 3667.1028 -123.3736 268.8739
f 2008 2009 2010
v 3674.8990 -120.2805 268.8695
v 3675.0415 -120.6898 274.9432
v 3675.0379 -120.6898 268.8694
f 2011 2012 2013
v 3674.7542 -119.8351 268.8695
v 3674.9026 -120.2804 274.9433
v 3674.8990 -120.2805 268.8695
f 2014 2015 2016
v 3691.8285 -114.0589 268.8598
v 3674.7578 -119.8351 274.9433
v 3674.7542 -119.8351 268.8695
f 2017 2018 2019
v 3691.8661 -114.1729 268.8598
v 3691.8320 -114.0588 274.9336
v 3691.8285 -114.0589 268.8598
f 2020 2021 2022
v 3692.2264 -114.0510 268.8596
v 3691.8697 -114.1729 274.9336
v 3691.8661 -114.1729 268.8598
f 2023 2024 2025
v 3691.8109 -112.7678 268.8598
v 3692.2300 -114.0509 274.9334
v 3692.2264 -114.0510 268.8596
f 2026 2027 2028
v 3705.4575 -108.3534 268.8520
v 3691.8145 -112.7678 274.9336
v 3691.8109 -112.7678 268.8598
f 2029 2030 2031
v 3713.5788 -105.6171 268.8474
v 3705.4611 -108.3533 274.9258
v 3705.4575 -108.3534 268.8520
f 2032 2033 2034
v 3712.1064 -101.2502 268.8483
v 3713.5824 -105.6171 274.9212
v 3713.5788 -105.6171 268.8474
f 2035 2036 2037
v 3664.0857 -114.4726 268.8958
v 3689.4717 -105.7647 268.8813
v 3689.4716 -105.7647 268.8613
f 2038 2039 2040

g building_ID_2F2B3F8E-B6AC-4622-ACE6-D87033AC52CA
v 3683.9311 -137.0354 268.9329
v 3684.0432 -136.9977 268.9329
v 3684.6872 -138.8814 268.9323
f 2041 2042 2043
v 3674.6948 -140.1807 268.9382
v 3683.9311 -137.0354 268.9329
v 3684.6872 -138.8814 268.9323
f 2044 2045 2046
v 3674.6948 -140.1807 268.9382
v 3682.3020 -132.2201 268.9340
v 3683.9311 -137.0354 268.9329
f 2047 2048 2049
v 3674.6948 -140.1807 268.9382
v 3674.7572 -142.2768 268.9381
v 3674.1083 -140.3791 268.9385
f 2050 2051 2052
v 3674.6948 -140.1807 268.9382
v 3684.6872 -138.8814 268.9323
v 3674.7572 -142.2768 268.9381
f 2053 2054 2055
v 3674.6948 -140.1807 268.9382
v 3673.0598 -135.3474 268.9392
v 3682.3020 -132.2201 268.9340
f 2056 2057 2058
v 3674.5809 -139.8324 276.0489
v 3683.8142 -136.6761 276.0437
v 3682.3056 -132.2201 274.9468
f 2059 2060 2061
v 3673.0633 -135.3474 274.9450
v 3674.5809 -139.8324 276.0489
v 3682.3056 -132.2201 274.9468
f 2062 2063 2064
v 3682.3020 -132.2201 268.9340
v 3673.0598 -135.3474 268.9392
v 3682.3056 -132.2201 274.9468
f 2065 2066 2067
v 3673.0598 -135.3474 268.9392
v 3673.0633 -135.3474 274.9450
v 3682.3056 -132.2201 274.9468
f 2068 2069 2070
v 3674.1083 -140.3791 268.9385
v 3674.7572 -142.2768 268.9381
v 3674.7573 -142.2769 269.0201
f 2071 2072 2073
v 3674.7573 -142.2769 269.0201
v 3674.1083 -140.3791 269.0205
v 3674.1083 -140.3791 268.9385
f 2074 2075 2076
v 3684.6872 -138.8814 268.9323
v 3684.6873 -138.8814 269.0143
v 3674.7573 -142.2769 269.0201
f 2077 2078 2079
v 3684.6873 -138.8814 269.0143
v 3684.0432 -136.9977 268.9329
v 3684.0433 -136.9977 269.0149
f 2080 2081 2082
v 3684.0432 -136.9977 268.9329
v 3684.6873 -138.8814 269.0143
v 3684.6872 -138.8814 268.9323
f 2083 2084 2085
v 3697.9437 -131.9149 277.5165
v 3697.5363 -132.0528 277.5168
v 3697.6515 -132.3942 277.5047
f 2086 2087 2088
v 3704.7788 -152.2230 276.7841
v 3697.6515 -132.3942 277.5047
v 3683.9362 -137.0354 277.5136
f 2089 2090 2091
v 3704.7788 -152.2230 276.7841
v 3683.9362 -137.0354 277.5136
v 3704.2952 -152.1017 276.7934
f 2092 2093 2094
v 3704.7788 -152.2230 276.7841
v 3697.9437 -131.9149 277.5165
v 3697.6515 -132.3942 277.5047
f 2095 2096 2097
v 3704.2952 -152.1017 276.7934
v 3704.3815 -152.3569 276.7843
v 3704.7788 -152.2230 276.7841
f 2098 2099 2100
v 3683.8152 -136.6761 277.5267
v 3674.6998 -140.1807 277.5199
v 3683.9362 -137.0354 277.5136
f 2101 2102 2103
v 3660.4712 -144.6156 277.5409
v 3661.0036 -144.8159 277.5286
v 3660.8885 -144.4747 277.5407
f 2104 2105 2106
v 3704.2952 -152.1017 276.7934
v 3683.9362 -137.0354 277.5136
v 3674.6998 -140.1807 277.5199
f 2107 2108 2109
v 3664.3829 -156.2019 277.1234
v 3661.0036 -144.8159 277.5286
v 3660.4712 -144.6156 277.5409
f 2110 2111 2112
v 3674.6998 -140.1807 277.5199
v 3661.0036 -144.8159 277.5286
v 3664.3829 -156.2019 277.1234
f 2113 2114 2115
v 3667.3045 -164.8546 276.8114
v 3667.7119 -164.7177 276.8112
v 3667.6315 -164.4805 276.8192
f 2116 2117 2118
v 3664.3829 -156.2019 277.1234
v 3667.6315 -164.4805 276.8192
v 3704.2952 -152.1017 276.7934
f 2119 2120 2121
v 3667.6315 -164.4805 276.8192
v 3664.3829 -156.2019 277.1234
v 3667.3045 -164.8546 276.8114
f 2122 2123 2124
v 3664.3829 -156.2019 277.1234
v 3704.2952 -152.1017 276.7934
v 3674.6998 -140.1807 277.5199
f 2125 2126 2127
v 3674.5818 -139.8324 277.5319
v 3674.6998 -140.1807 277.5199
v 3683.8152 -136.6761 277.5267
f 2128 2129 2130
v 3697.5363 -132.0528 277.5168
v 3697.6489 -132.3942 273.2499
v 3697.6515 -132.3942 277.5047
f 2131 2132 2133
v 3697.6464 -132.3942 269.0070
v 3697.6489 -132.3942 273.2499
v 3697.5363 -132.0528 277.5168
f 2134 2135 2136
v 3697.5313 -132.0528 269.0071
v 3697.6464 -132.3942 269.0070
v 3697.5363 -132.0528 277.5168
f 2137 2138 2139
v 3660.8836 -144.4747 269.0280
v 3661.0036 -144.8159 277.5286
v 3660.9987 -144.8160 269.0279
f 2140 2141 2142
v 3660.4712 -144.6156 277.5409
v 3660.8885 -144.4747 277.5407
v 3660.4662 -144.6156 269.0282
f 2143 2144 2145
v 3660.4662 -144.6156 269.0282
v 3660.8885 -144.4747 277.5407
v 3660.8836 -144.4747 269.0280
f 2146 2147 2148
v 3663.6698 -154.1030 269.0261
v 3667.3000 -164.8546 269.0237
v 3667.3045 -164.8546 276.8114
f 2149 2150 2151
v 3667.3045 -164.8546 276.8114
v 3664.3829 -156.2019 277.1234
v 3660.4662 -144.6156 269.0282
f 2152 2153 2154
v 3667.3045 -164.8546 276.8114
v 3660.4662 -144.6156 269.0282
v 3663.6698 -154.1030 269.0261
f 2155 2156 2157
v 3667.7073 -164.7177 269.0235
v 3667.7119 -164.7177 276.8112
v 3667.3000 -164.8546 269.0237
f 2158 2159 2160
v 3667.3045 -164.8546 276.8114
v 3667.3000 -164.8546 269.0237
v 3667.7119 -164.7177 276.8112
f 2161 2162 2163
v 3667.6269 -164.4805 269.0235
v 3667.6315 -164.4805 276.8192
v 3667.7073 -164.7177 269.0235
f 2164 2165 2166
v 3667.6315 -164.4805 276.8192
v 3667.7119 -164.7177 276.8112
v 3667.7073 -164.7177 269.0235
f 2167 2168 2169
v 3704.2952 -152.1017 276.7934
v 3667.6269 -164.4805 269.0235
v 3704.2906 -152.1017 269.0027
f 2170 2171 2172
v 3704.3815 -152.3569 276.7843
v 3704.2952 -152.1017 276.7934
v 3704.2906 -152.1017 269.0027
f 2173 2174 2175
v 3704.3769 -152.3570 269.0026
v 3704.3815 -152.3569 276.7843
v 3704.2906 -152.1017 269.0027
f 2176 2177 2178
v 3704.3815 -152.3569 276.7843
v 3704.7743 -152.2230 269.0024
v 3704.7788 -152.2230 276.7841
f 2179 2180 2181
v 3704.3769 -152.3570 269.0026
v 3704.7743 -152.2230 269.0024
v 3704.3815 -152.3569 276.7843
f 2182 2183 2184
v 3704.7788 -152.2230 276.7841
v 3704.7743 -152.2230 269.0024
v 3697.9387 -131.9149 269.0068
f 2185 2186 2187
v 3704.7743 -152.2230 269.0024
v 3704.3769 -152.3570 269.0026
v 3704.2906 -152.1017 269.0027
f 2188 2189 2190
v 3704.7743 -152.2230 269.0024
v 3697.6464 -132.3942 269.0070
v 3697.9387 -131.9149 269.0068
f 2191 2192 2193
v 3704.7743 -152.2230 269.0024
v 3684.6873 -138.8814 269.0143
v 3697.6464 -132.3942 269.0070
f 2194 2195 2196
v 3704.7743 -152.2230 269.0024
v 3704.2906 -152.1017 269.0027
v 3684.6873 -138.8814 269.0143
f 2197 2198 2199
v 3697.6464 -132.3942 269.0070
v 3697.5313 -132.0528 269.0071
v 3697.9387 -131.9149 269.0068
f 2200 2201 2202
v 3684.6873 -138.8814 269.0143
v 3684.0433 -136.9977 269.0149
v 3697.6464 -132.3942 269.0070
f 2203 2204 2205
v 3663.6698 -154.1030 269.0261
v 3704.2906 -152.1017 269.0027
v 3667.6269 -164.4805 269.0235
f 2206 2207 2208
v 3667.7073 -164.7177 269.0235
v 3667.3000 -164.8546 269.0237
v 3667.6269 -164.4805 269.0235
f 2209 2210 2211
v 3667.3000 -164.8546 269.0237
v 3663.6698 -154.1030 269.0261
v 3667.6269 -164.4805 269.0235
f 2212 2213 2214
v 3674.1083 -140.3791 269.0205
v 3674.7573 -142.2769 269.0201
v 3660.9987 -144.8160 269.0279
f 2215 2216 2217
v 3663.6698 -154.1030 269.0261
v 3660.9987 -144.8160 269.0279
v 3674.7573 -142.2769 269.0201
f 2218 2219 2220
v 3660.8836 -144.4747 269.0280
v 3660.9987 -144.8160 269.0279
v 3660.4662 -144.6156 269.0282
f 2221 2222 2223
v 3660.9987 -144.8160 269.0279
v 3663.6698 -154.1030 269.0261
v 3660.4662 -144.6156 269.0282
f 2224 2225 2226
v 3663.6698 -154.1030 269.0261
v 3674.7573 -142.2769 269.0201
v 3704.2906 -152.1017 269.0027
f 2227 2228 2229
v 3704.2906 -152.1017 269.0027
v 3674.7573 -142.2769 269.0201
v 3684.6873 -138.8814 269.0143
f 2230 2231 2232
v 3674.5809 -139.8324 276.0489
v 3674.5818 -139.8324 277.5319
v 3683.8152 -136.6761 277.5267
f 2233 2234 2235
v 3674.5809 -139.8324 276.0489
v 3683.8152 -136.6761 277.5267
v 3683.8144 -136.6761 276.4137
f 2236 2237 2238
v 3683.8142 -136.6761 276.0437
v 3674.5809 -139.8324 276.0489
v 3683.8144 -136.6761 276.4137
f 2239 2240 2241
v 3674.5809 -139.8324 276.0489
v 3674.6998 -140.1807 277.5199
v 3674.5818 -139.8324 277.5319
f 2242 2243 2244
v 3674.6948 -140.1807 268.9382
v 3674.5809 -139.8324 276.0489
v 3673.0633 -135.3474 274.9450
f 2245 2246 2247
v 3674.6948 -140.1807 268.9382
v 3673.0633 -135.3474 274.9450
v 3673.0598 -135.3474 268.9392
f 2248 2249 2250
v 3674.6998 -140.1807 277.5199
v 3674.5809 -139.8324 276.0489
v 3674.6948 -140.1807 268.9382
f 2251 2252 2253
v 3661.0036 -144.8159 277.5286
v 3674.6998 -140.1807 277.5199
v 3660.9987 -144.8160 269.0279
f 2254 2255 2256
v 3674.1083 -140.3791 269.0205
v 3660.9987 -144.8160 269.0279
v 3674.6998 -140.1807 277.5199
f 2257 2258 2259
v 3674.6948 -140.1807 268.9382
v 3674.1083 -140.3791 269.0205
v 3674.6998 -140.1807 277.5199
f 2260 2261 2262
v 3674.1083 -140.3791 269.0205
v 3674.6948 -140.1807 268.9382
v 3674.1083 -140.3791 268.9385
f 2263 2264 2265
v 3697.6489 -132.3942 273.2499
v 3684.0433 -136.9977 269.0149
v 3683.9354 -137.0354 276.1316
f 2266 2267 2268
v 3683.9354 -137.0354 276.1316
v 3684.0433 -136.9977 269.0149
v 3683.9311 -137.0354 268.9329
f 2269 2270 2271
v 3684.0433 -136.9977 269.0149
v 3684.0432 -136.9977 268.9329
v 3683.9311 -137.0354 268.9329
f 2272 2273 2274
v 3697.6515 -132.3942 277.5047
v 3683.9354 -137.0354 276.1316
v 3683.9362 -137.0354 277.5136
f 2275 2276 2277
v 3697.6464 -132.3942 269.0070
v 3684.0433 -136.9977 269.0149
v 3697.6489 -132.3942 273.2499
f 2278 2279 2280
v 3697.6515 -132.3942 277.5047
v 3697.6489 -132.3942 273.2499
v 3683.9354 -137.0354 276.1316
f 2281 2282 2283
v 3683.9362 -137.0354 277.5136
v 3683.8144 -136.6761 276.4137
v 3683.8152 -136.6761 277.5267
f 2284 2285 2286
v 3683.8142 -136.6761 276.0437
v 3682.3020 -132.2201 268.9340
v 3682.3056 -132.2201 274.9468
f 2287 2288 2289
v 3683.9362 -137.0354 277.5136
v 3683.9354 -137.0354 276.1316
v 3683.8144 -136.6761 276.4137
f 2290 2291 2292
v 3683.9311 -137.0354 268.9329
v 3683.8142 -136.6761 276.0437
v 3683.9354 -137.0354 276.1316
f 2293 2294 2295
v 3683.8144 -136.6761 276.4137
v 3683.9354 -137.0354 276.1316
v 3683.8142 -136.6761 276.0437
f 2296 2297 2298
v 3683.8142 -136.6761 276.0437
v 3683.9311 -137.0354 268.9329
v 3682.3020 -132.2201 268.9340
f 2299 2300 2301
v 3684.6872 -138.8814 268.9323
v 3674.7573 -142.2769 269.0201
v 3674.7572 -142.2768 268.9381
f 2302 2303 2304
v 3697.9437 -131.9149 277.5165
v 3697.5313 -132.0528 269.0071
v 3697.5363 -132.0528 277.5168
f 2305 2306 2307
v 3697.5313 -132.0528 269.0071
v 3697.9437 -131.9149 277.5165
v 3697.9387 -131.9149 269.0068
f 2308 2309 2310
v 3660.8885 -144.4747 277.5407
v 3661.0036 -144.8159 277.5286
v 3660.8836 -144.4747 269.0280
f 2311 2312 2313
v 3664.3829 -156.2019 277.1234
v 3660.4712 -144.6156 277.5409
v 3660.4662 -144.6156 269.0282
f 2314 2315 2316
v 3667.6315 -164.4805 276.8192
v 3667.6269 -164.4805 269.0235
v 3704.2952 -152.1017 276.7934
f 2317 2318 2319
v 3697.9437 -131.9149 277.5165
v 3704.7788 -152.2230 276.7841
v 3697.9387 -131.9149 269.0068
f 2320 2321 2322
