# Grid Center: 2620200, 1263000
# Global Anchor: 7.64977475454284, 47.53283995868075, 0.0

g building_ID_BF786E1B-5CD9-4B0E-8F44-283BEC22808C
v 4093.9773 -1577.1149 316.1552
v 4093.8462 -1584.2767 316.1535
v 4096.9384 -1580.1366 314.8406
f 1 2 3
v 4097.2636 -1582.6134 314.6788
v 4096.9384 -1580.1366 314.8406
v 4093.8462 -1584.2767 316.1535
f 4 5 6
v 4096.9514 -1579.3816 314.8418
v 4096.9384 -1580.1366 314.8406
v 4097.2784 -1579.7275 314.6966
f 7 8 9
v 4093.8462 -1584.2767 316.1535
v 4097.2550 -1584.3394 314.6683
v 4097.2636 -1582.6134 314.6788
f 10 11 12
v 4096.9384 -1580.1366 314.8406
v 4097.2636 -1582.6134 314.6788
v 4097.2784 -1579.7275 314.6966
f 13 14 15
v 4093.8462 -1584.2767 316.1535
v 4091.0517 -1580.0068 314.8545
v 4091.0304 -1584.2238 314.8783
f 16 17 18
v 4091.0517 -1580.0068 314.8545
v 4093.8462 -1584.2767 316.1535
v 4093.9773 -1577.1149 316.1552
f 19 20 21
v 4097.2711 -1579.7250 303.6550
v 4097.2784 -1579.7275 314.6966
v 4097.2636 -1582.6134 314.6788
f 22 23 24
v 4097.2711 -1579.7250 303.6550
v 4097.2636 -1582.6134 314.6788
v 4097.2478 -1584.3369 303.6538
f 25 26 27
v 4097.2636 -1582.6134 314.6788
v 4097.2550 -1584.3394 314.6683
v 4097.2532 -1584.3388 311.9075
f 28 29 30
v 4096.9441 -1579.3792 303.6553
v 4096.9514 -1579.3816 314.8418
v 4097.2711 -1579.7250 303.6550
f 31 32 33
v 4097.2784 -1579.7275 314.6966
v 4097.2711 -1579.7250 303.6550
v 4096.9514 -1579.3816 314.8418
f 34 35 36
v 4096.7659 -1575.7047 303.6563
v 4096.7735 -1575.7073 315.3148
v 4098.3499 -1577.1929 303.6549
f 37 38 39
v 4096.8325 -1572.0969 303.6571
v 4096.8388 -1572.0990 313.2407
v 4096.7659 -1575.7047 303.6563
f 40 41 42
v 4091.0595 -1577.3891 306.7474
v 4091.0655 -1577.3911 316.0110
v 4087.4855 -1577.3736 315.9923
f 43 44 45
v 4090.3175 -1577.3845 303.6600
v 4091.0574 -1577.3884 303.6595
v 4091.0595 -1577.3891 306.7474
f 46 47 48
v 4090.3175 -1577.3845 303.6600
v 4091.0595 -1577.3891 306.7474
v 4089.0457 -1577.3798 307.1226
f 49 50 51
v 4087.4775 -1577.3709 303.6618
v 4090.3175 -1577.3845 303.6600
v 4089.0457 -1577.3798 307.1226
f 52 53 54
v 4087.4825 -1577.3726 311.3605
v 4087.4795 -1577.3715 306.7287
v 4089.0457 -1577.3798 307.1226
f 55 56 57
v 4089.0457 -1577.3798 307.1226
v 4087.4795 -1577.3715 306.7287
v 4087.4775 -1577.3709 303.6618
f 58 59 60
v 4098.3499 -1577.1929 303.6549
v 4098.3581 -1577.1957 316.1524
v 4096.9752 -1578.1659 315.7130
f 61 62 63
v 4091.0655 -1577.3911 316.0110
v 4093.9773 -1577.1149 316.1552
v 4087.4876 -1576.9966 316.1594
f 64 65 66
v 4091.0517 -1580.0068 314.8545
v 4093.9773 -1577.1149 316.1552
v 4091.0655 -1577.3911 316.0110
f 67 68 69
v 4087.4855 -1577.3736 315.9923
v 4091.0655 -1577.3911 316.0110
v 4087.4876 -1576.9966 316.1594
f 70 71 72
v 4096.9752 -1578.1659 315.7130
v 4093.9773 -1577.1149 316.1552
v 4096.9384 -1580.1366 314.8406
f 73 74 75
v 4093.9773 -1577.1149 316.1552
v 4096.9752 -1578.1659 315.7130
v 4098.3581 -1577.1957 316.1524
f 76 77 78
v 4096.9441 -1579.3792 303.6553
v 4096.9673 -1578.1632 303.6555
v 4096.9752 -1578.1659 315.7130
f 79 80 81
v 4096.9752 -1578.1659 315.7130
v 4096.9514 -1579.3816 314.8418
v 4096.9441 -1579.3792 303.6553
f 82 83 84
v 4096.9752 -1578.1659 315.7130
v 4096.9384 -1580.1366 314.8406
v 4096.9514 -1579.3816 314.8418
f 85 86 87
v 4093.8380 -1584.2738 303.6560
v 4097.2478 -1584.3369 303.6538
v 4097.2532 -1584.3388 311.9075
f 88 89 90
v 4091.0232 -1584.2213 303.6579
v 4097.2550 -1584.3394 314.6683
v 4093.8462 -1584.2767 316.1535
f 91 92 93
v 4097.2532 -1584.3388 311.9075
v 4097.2550 -1584.3394 314.6683
v 4091.0232 -1584.2213 303.6579
f 94 95 96
v 4091.0304 -1584.2238 314.8783
v 4091.0232 -1584.2213 303.6579
v 4093.8462 -1584.2767 316.1535
f 97 98 99
v 4093.8380 -1584.2738 303.6560
v 4097.2532 -1584.3388 311.9075
v 4091.0232 -1584.2213 303.6579
f 100 101 102
v 4087.4775 -1577.3709 303.6618
v 4087.5037 -1572.0509 303.6631
v 4090.3175 -1577.3845 303.6600
f 103 104 105
v 4096.9441 -1579.3792 303.6553
v 4093.8380 -1584.2738 303.6560
v 4091.0232 -1584.2213 303.6579
f 106 107 108
v 4091.0232 -1584.2213 303.6579
v 4091.0574 -1577.3884 303.6595
v 4096.9441 -1579.3792 303.6553
f 109 110 111
v 4091.0574 -1577.3884 303.6595
v 4090.3175 -1577.3845 303.6600
v 4087.5037 -1572.0509 303.6631
f 112 113 114
v 4096.8325 -1572.0969 303.6571
v 4091.0574 -1577.3884 303.6595
v 4087.5037 -1572.0509 303.6631
f 115 116 117
v 4091.0574 -1577.3884 303.6595
v 4096.8325 -1572.0969 303.6571
v 4096.7659 -1575.7047 303.6563
f 118 119 120
v 4096.9673 -1578.1632 303.6555
v 4096.9441 -1579.3792 303.6553
v 4091.0574 -1577.3884 303.6595
f 121 122 123
v 4096.7659 -1575.7047 303.6563
v 4098.3499 -1577.1929 303.6549
v 4096.9673 -1578.1632 303.6555
f 124 125 126
v 4096.7659 -1575.7047 303.6563
v 4096.9673 -1578.1632 303.6555
v 4091.0574 -1577.3884 303.6595
f 127 128 129
v 4093.8380 -1584.2738 303.6560
v 4097.2711 -1579.7250 303.6550
v 4097.2478 -1584.3369 303.6538
f 130 131 132
v 4093.8380 -1584.2738 303.6560
v 4096.9441 -1579.3792 303.6553
v 4097.2711 -1579.7250 303.6550
f 133 134 135
v 4089.2250 -1572.0617 313.3056
v 4087.5100 -1572.0531 313.3197
v 4087.4876 -1576.9966 316.1594
f 136 137 138
v 4093.9773 -1577.1149 316.1552
v 4089.2250 -1572.0617 313.3056
v 4087.4876 -1576.9966 316.1594
f 139 140 141
v 4096.7735 -1575.7073 315.3148
v 4093.9773 -1577.1149 316.1552
v 4098.3581 -1577.1957 316.1524
f 142 143 144
v 4096.7735 -1575.7073 315.3148
v 4096.8388 -1572.0990 313.2407
v 4089.2250 -1572.0617 313.3056
f 145 146 147
v 4093.9773 -1577.1149 316.1552
v 4096.7735 -1575.7073 315.3148
v 4089.2250 -1572.0617 313.3056
f 148 149 150
v 4089.2250 -1572.0617 313.3056
v 4087.5037 -1572.0509 303.6631
v 4087.5100 -1572.0531 313.3197
f 151 152 153
v 4087.5037 -1572.0509 303.6631
v 4089.2250 -1572.0617 313.3056
v 4096.8325 -1572.0969 303.6571
f 154 155 156
v 4096.8388 -1572.0990 313.2407
v 4096.8325 -1572.0969 303.6571
v 4089.2250 -1572.0617 313.3056
f 157 158 159
v 4087.4825 -1577.3726 311.3605
v 4087.4855 -1577.3736 315.9923
v 4087.4876 -1576.9966 316.1594
f 160 161 162
v 4087.5100 -1572.0531 313.3197
v 4087.4825 -1577.3726 311.3605
v 4087.4876 -1576.9966 316.1594
f 163 164 165
v 4087.4775 -1577.3709 303.6618
v 4087.4795 -1577.3715 306.7287
v 4087.5100 -1572.0531 313.3197
f 166 167 168
v 4087.4825 -1577.3726 311.3605
v 4087.5100 -1572.0531 313.3197
v 4087.4795 -1577.3715 306.7287
f 169 170 171
v 4087.5100 -1572.0531 313.3197
v 4087.5037 -1572.0509 303.6631
v 4087.4775 -1577.3709 303.6618
f 172 173 174
v 4091.0232 -1584.2213 303.6579
v 4091.0595 -1577.3891 306.7474
v 4091.0574 -1577.3884 303.6595
f 175 176 177
v 4091.0595 -1577.3891 306.7474
v 4091.0232 -1584.2213 303.6579
v 4091.0304 -1584.2238 314.8783
f 178 179 180
v 4091.0595 -1577.3891 306.7474
v 4091.0517 -1580.0068 314.8545
v 4091.0655 -1577.3911 316.0110
f 181 182 183
v 4091.0304 -1584.2238 314.8783
v 4091.0517 -1580.0068 314.8545
v 4091.0595 -1577.3891 306.7474
f 184 185 186
v 4097.2636 -1582.6134 314.6788
v 4097.2532 -1584.3388 311.9075
v 4097.2478 -1584.3369 303.6538
f 187 188 189
v 4096.7735 -1575.7073 315.3148
v 4098.3581 -1577.1957 316.1524
v 4098.3499 -1577.1929 303.6549
f 190 191 192
v 4096.8388 -1572.0990 313.2407
v 4096.7735 -1575.7073 315.3148
v 4096.7659 -1575.7047 303.6563
f 193 194 195
v 4091.0595 -1577.3891 306.7474
v 4087.4855 -1577.3736 315.9923
v 4089.0457 -1577.3798 307.1226
f 196 197 198
v 4087.4825 -1577.3726 311.3605
v 4089.0457 -1577.3798 307.1226
v 4087.4855 -1577.3736 315.9923
f 199 200 201
v 4098.3499 -1577.1929 303.6549
v 4096.9752 -1578.1659 315.7130
v 4096.9673 -1578.1632 303.6555
f 202 203 204

g building_ID_C0597B5C-4D14-4F15-B783-9A51C977115E
v 4087.6704 -1540.0199 291.3893
v 4087.1765 -1540.3235 291.3896
v 4085.0697 -1536.9229 291.3917
f 205 206 207
v 4087.6704 -1540.0199 291.3893
v 4085.0697 -1536.9229 291.3917
v 4090.2596 -1538.4549 291.3881
f 208 209 210
v 4090.2027 -1538.7717 291.3880
v 4090.3759 -1539.0641 291.3878
v 4087.9581 -1540.4876 291.3890
f 211 212 213
v 4087.9581 -1540.4876 291.3890
v 4087.6704 -1540.0199 291.3893
v 4090.2027 -1538.7717 291.3880
f 214 215 216
v 4090.4862 -1533.7324 291.3890
v 4085.0697 -1536.9229 291.3917
v 4082.6740 -1533.0545 291.3942
f 217 218 219
v 4090.2596 -1538.4549 291.3881
v 4085.0697 -1536.9229 291.3917
v 4090.4862 -1533.7324 291.3890
f 220 221 222
v 4087.6704 -1540.0199 291.3893
v 4090.2596 -1538.4549 291.3881
v 4090.2027 -1538.7717 291.3880
f 223 224 225
v 4092.4652 -1537.0917 291.3870
v 4090.2596 -1538.4549 291.3881
v 4090.4862 -1533.7324 291.3890
f 226 227 228
v 4090.2027 -1538.7717 291.3880
v 4090.2596 -1538.4549 291.3881
v 4090.3860 -1538.6642 291.3879
f 229 230 231
v 4090.4862 -1533.7324 291.3890
v 4082.6740 -1533.0545 291.3942
v 4088.1060 -1529.6901 291.3915
f 232 233 234
v 4087.6764 -1540.0218 300.5399
v 4090.2086 -1538.7737 300.4686
v 4090.2655 -1538.4569 300.5507
f 235 236 237
v 4090.2086 -1538.7737 300.4686
v 4090.3919 -1538.6661 300.4685
v 4090.2655 -1538.4569 300.5507
f 238 239 240
v 4087.9640 -1540.4896 300.3566
v 4090.3817 -1539.0660 300.3554
v 4090.2086 -1538.7737 300.4686
f 241 242 243
v 4088.2225 -1535.0717 301.8738
v 4087.6764 -1540.0218 300.5399
v 4090.2655 -1538.4569 300.5507
f 244 245 246
v 4087.6764 -1540.0218 300.5399
v 4085.0765 -1536.9252 301.8753
v 4087.1825 -1540.3255 300.5372
f 247 248 249
v 4085.0765 -1536.9252 301.8753
v 4087.6764 -1540.0218 300.5399
v 4088.2225 -1535.0717 301.8738
f 250 251 252
v 4090.2086 -1538.7737 300.4686
v 4087.6764 -1540.0218 300.5399
v 4087.9640 -1540.4896 300.3566
f 253 254 255
v 4085.0765 -1536.9252 301.8753
v 4085.8271 -1531.1070 300.3603
v 4082.6799 -1533.0565 300.3889
f 256 257 258
v 4088.2225 -1535.0717 301.8738
v 4085.8271 -1531.1070 300.3603
v 4085.0765 -1536.9252 301.8753
f 259 260 261
v 4087.6704 -1540.0199 291.3893
v 4087.6764 -1540.0218 300.5399
v 4087.1825 -1540.3255 300.5372
f 262 263 264
v 4087.6704 -1540.0199 291.3893
v 4087.1795 -1540.3245 295.9614
v 4087.1765 -1540.3235 291.3896
f 265 266 267
v 4087.9581 -1540.4876 291.3890
v 4087.9640 -1540.4896 300.3566
v 4087.6704 -1540.0199 291.3893
f 268 269 270
v 4087.6704 -1540.0199 291.3893
v 4087.9640 -1540.4896 300.3566
v 4087.6764 -1540.0218 300.5399
f 271 272 273
v 4090.3759 -1539.0641 291.3878
v 4090.3817 -1539.0660 300.3554
v 4087.9581 -1540.4876 291.3890
f 274 275 276
v 4087.9640 -1540.4896 300.3566
v 4087.9581 -1540.4876 291.3890
v 4090.3817 -1539.0660 300.3554
f 277 278 279
v 4090.2027 -1538.7717 291.3880
v 4090.2086 -1538.7737 300.4686
v 4090.3817 -1539.0660 300.3554
f 280 281 282
v 4090.2086 -1538.7737 300.4686
v 4090.3860 -1538.6642 291.3879
v 4090.3919 -1538.6661 300.4685
f 283 284 285
v 4090.2086 -1538.7737 300.4686
v 4090.2027 -1538.7717 291.3880
v 4090.3860 -1538.6642 291.3879
f 286 287 288
v 4090.3860 -1538.6642 291.3879
v 4090.2596 -1538.4549 291.3881
v 4090.3919 -1538.6661 300.4685
f 289 290 291
v 4090.2655 -1538.4569 300.5507
v 4090.3919 -1538.6661 300.4685
v 4090.2596 -1538.4549 291.3881
f 292 293 294
v 4096.7023 -1531.8504 302.2331
v 4087.9375 -1534.5991 303.0130
v 4090.2660 -1538.4569 301.3317
f 295 296 297
v 4095.6075 -1530.0827 303.0091
v 4087.9375 -1534.5991 303.0130
v 4096.7023 -1531.8504 302.2331
f 298 299 300
v 4097.8376 -1533.7773 301.3989
v 4096.7023 -1531.8504 302.2331
v 4090.2660 -1538.4569 301.3317
f 301 302 303
v 4087.9375 -1534.5991 303.0130
v 4095.6075 -1530.0827 303.0091
v 4093.3543 -1526.4444 301.5166
f 304 305 306
v 4093.3543 -1526.4444 301.5166
v 4085.8279 -1531.1082 301.5903
v 4087.9375 -1534.5991 303.0130
f 307 308 309
v 4096.6954 -1531.8481 291.6805
v 4096.7023 -1531.8504 302.2331
v 4097.8376 -1533.7773 301.3989
f 310 311 312
v 4090.4863 -1533.7325 291.6840
v 4095.6001 -1530.0802 291.6817
v 4096.6954 -1531.8481 291.6805
f 313 314 315
v 4088.1062 -1529.6902 291.6865
v 4093.3478 -1526.4422 291.6840
v 4095.6001 -1530.0802 291.6817
f 316 317 318
v 4096.6954 -1531.8481 291.6805
v 4092.4654 -1537.0918 291.6820
v 4090.4863 -1533.7325 291.6840
f 319 320 321
v 4090.4863 -1533.7325 291.6840
v 4088.1062 -1529.6902 291.6865
v 4095.6001 -1530.0802 291.6817
f 322 323 324
v 4092.4654 -1537.0918 291.6820
v 4096.6954 -1531.8481 291.6805
v 4097.8312 -1533.7752 291.6793
f 325 326 327
v 4090.2596 -1538.4549 291.3881
v 4092.4654 -1537.0918 291.6820
v 4097.8376 -1533.7773 301.3989
f 328 329 330
v 4097.8376 -1533.7773 301.3989
v 4092.4654 -1537.0918 291.6820
v 4097.8312 -1533.7752 291.6793
f 331 332 333
v 4092.4654 -1537.0918 291.6820
v 4090.2596 -1538.4549 291.3881
v 4092.4652 -1537.0917 291.3870
f 334 335 336
v 4090.2660 -1538.4569 301.3317
v 4090.2655 -1538.4569 300.5507
v 4097.8376 -1533.7773 301.3989
f 337 338 339
v 4097.8376 -1533.7773 301.3989
v 4090.2655 -1538.4569 300.5507
v 4090.2596 -1538.4549 291.3881
f 340 341 342
v 4090.4862 -1533.7324 291.3890
v 4088.1060 -1529.6901 291.3915
v 4088.1062 -1529.6902 291.6865
f 343 344 345
v 4090.4863 -1533.7325 291.6840
v 4090.4862 -1533.7324 291.3890
v 4088.1062 -1529.6902 291.6865
f 346 347 348
v 4090.4862 -1533.7324 291.3890
v 4090.4863 -1533.7325 291.6840
v 4092.4652 -1537.0917 291.3870
f 349 350 351
v 4092.4654 -1537.0918 291.6820
v 4092.4652 -1537.0917 291.3870
v 4090.4863 -1533.7325 291.6840
f 352 353 354
v 4087.1795 -1540.3245 295.9614
v 4085.0697 -1536.9229 291.3917
v 4087.1765 -1540.3235 291.3896
f 355 356 357
v 4085.0765 -1536.9252 301.8753
v 4087.1795 -1540.3245 295.9614
v 4087.1825 -1540.3255 300.5372
f 358 359 360
v 4085.0765 -1536.9252 301.8753
v 4082.6799 -1533.0565 300.3889
v 4087.1795 -1540.3245 295.9614
f 361 362 363
v 4082.6740 -1533.0545 291.3942
v 4085.0697 -1536.9229 291.3917
v 4082.6799 -1533.0565 300.3889
f 364 365 366
v 4082.6799 -1533.0565 300.3889
v 4085.0697 -1536.9229 291.3917
v 4087.1795 -1540.3245 295.9614
f 367 368 369
v 4093.3478 -1526.4422 291.6840
v 4093.3543 -1526.4444 301.5166
v 4095.6075 -1530.0827 303.0091
f 370 371 372
v 4095.6001 -1530.0802 291.6817
v 4093.3478 -1526.4422 291.6840
v 4095.6075 -1530.0827 303.0091
f 373 374 375
v 4095.6001 -1530.0802 291.6817
v 4096.7023 -1531.8504 302.2331
v 4096.6954 -1531.8481 291.6805
f 376 377 378
v 4095.6075 -1530.0827 303.0091
v 4096.7023 -1531.8504 302.2331
v 4095.6001 -1530.0802 291.6817
f 379 380 381
v 4093.3543 -1526.4444 301.5166
v 4085.8271 -1531.1070 300.3603
v 4085.8279 -1531.1082 301.5903
f 382 383 384
v 4085.8271 -1531.1070 300.3603
v 4082.6740 -1533.0545 291.3942
v 4082.6799 -1533.0565 300.3889
f 385 386 387
v 4082.6740 -1533.0545 291.3942
v 4085.8271 -1531.1070 300.3603
v 4088.1062 -1529.6902 291.6865
f 388 389 390
v 4088.1062 -1529.6902 291.6865
v 4093.3543 -1526.4444 301.5166
v 4093.3478 -1526.4422 291.6840
f 391 392 393
v 4082.6740 -1533.0545 291.3942
v 4088.1062 -1529.6902 291.6865
v 4088.1060 -1529.6901 291.3915
f 394 395 396
v 4085.8271 -1531.1070 300.3603
v 4093.3543 -1526.4444 301.5166
v 4088.1062 -1529.6902 291.6865
f 397 398 399
v 4088.2225 -1535.0717 301.8738
v 4090.2655 -1538.4569 300.5507
v 4090.2660 -1538.4569 301.3317
f 400 401 402
v 4087.9375 -1534.5991 303.0130
v 4088.2225 -1535.0717 301.8738
v 4090.2660 -1538.4569 301.3317
f 403 404 405
v 4085.8279 -1531.1082 301.5903
v 4088.2225 -1535.0717 301.8738
v 4087.9375 -1534.5991 303.0130
f 406 407 408
v 4088.2225 -1535.0717 301.8738
v 4085.8279 -1531.1082 301.5903
v 4085.8271 -1531.1070 300.3603
f 409 410 411
v 4087.6704 -1540.0199 291.3893
v 4087.1825 -1540.3255 300.5372
v 4087.1795 -1540.3245 295.9614
f 412 413 414
v 4090.2027 -1538.7717 291.3880
v 4090.3817 -1539.0660 300.3554
v 4090.3759 -1539.0641 291.3878
f 415 416 417
v 4096.6954 -1531.8481 291.6805
v 4097.8376 -1533.7773 301.3989
v 4097.8312 -1533.7752 291.6793
f 418 419 420
