# Grid Center: 2620000, 1264200
# Global Anchor: 7.64977475454284, 47.53283995868075, 0.0

g building_ID_C3E9C711-58B8-49BB-A527-CDBC91ABC5BF
v 3893.0066 -696.1017 268.1587
v 3887.1886 -692.3782 268.1627
v 3891.2880 -685.0952 268.1610
f 1 2 3
v 3893.0066 -696.1017 268.1587
v 3891.2880 -685.0952 268.1610
v 3895.9665 -697.9967 268.1567
f 4 5 6
v 3907.1298 -754.6598 268.1433
v 3941.6009 -718.2035 268.1264
v 3921.3904 -768.1788 268.1330
f 7 8 9
v 3941.6463 -718.0456 268.1263
v 3894.0894 -701.0285 268.1575
v 3895.9665 -697.9967 268.1567
f 10 11 12
v 3941.6463 -718.0456 268.1263
v 3895.9665 -697.9967 268.1567
v 3891.2880 -685.0952 268.1610
f 13 14 15
v 3907.1298 -754.6598 268.1433
v 3921.3904 -768.1788 268.1330
v 3913.1543 -760.4008 268.1389
f 16 17 18
v 3941.6463 -718.0456 268.1263
v 3967.2188 -712.5330 268.1111
v 3967.1996 -712.5890 268.1111
f 19 20 21
v 3971.8212 -714.5833 268.1081
v 3971.6380 -714.3028 268.1082
v 3971.7406 -714.4341 268.1081
f 22 23 24
v 3971.4394 -714.1413 268.1083
v 3971.6380 -714.3028 268.1082
v 3971.8212 -714.5833 268.1081
f 25 26 27
v 3971.8665 -715.2095 268.1080
v 3967.1996 -712.5890 268.1111
v 3971.4394 -714.1413 268.1083
f 28 29 30
v 3971.8212 -714.5833 268.1081
v 3971.8738 -714.7445 268.1080
v 3971.4394 -714.1413 268.1083
f 31 32 33
v 3921.3904 -768.1788 268.1330
v 3941.6009 -718.2035 268.1264
v 3971.8665 -715.2095 268.1080
f 34 35 36
v 3971.4394 -714.1413 268.1083
v 3971.8983 -714.9126 268.1080
v 3971.8929 -715.0815 268.1080
f 37 38 39
v 3971.8665 -715.2095 268.1080
v 3971.4394 -714.1413 268.1083
v 3971.8929 -715.0815 268.1080
f 40 41 42
v 3941.6463 -718.0456 268.1263
v 3967.1996 -712.5890 268.1111
v 3941.6009 -718.2035 268.1264
f 43 44 45
v 3941.6009 -718.2035 268.1264
v 3967.1996 -712.5890 268.1111
v 3971.8665 -715.2095 268.1080
f 46 47 48
v 3941.5229 -718.1752 268.1264
v 3941.6463 -718.0456 268.1263
v 3941.6009 -718.2035 268.1264
f 49 50 51
v 3971.8983 -714.9126 268.1080
v 3971.4394 -714.1413 268.1083
v 3971.8738 -714.7445 268.1080
f 52 53 54
v 3891.2880 -685.0952 268.1610
v 3967.2188 -712.5330 268.1111
v 3941.6463 -718.0456 268.1263
f 55 56 57
v 3971.4443 -714.1420 275.8840
v 3968.3154 -712.9966 275.8841
v 3971.6628 -714.3296 275.8979
f 58 59 60
v 3971.4443 -714.1420 275.8840
v 3971.6628 -714.3296 275.8979
v 3971.6408 -714.3026 275.8949
f 61 62 63
v 3967.2237 -712.5337 275.8768
v 3892.7065 -685.6067 275.9338
v 3967.2045 -712.5896 275.8848
f 64 65 66
v 3968.3154 -712.9966 275.8841
v 3967.2045 -712.5896 275.8848
v 3941.6524 -718.0464 277.7770
f 67 68 69
v 3892.7065 -685.6067 275.9338
v 3941.6524 -718.0464 277.7770
v 3967.2045 -712.5896 275.8848
f 70 71 72
v 3968.3154 -712.9966 275.8841
v 3941.6524 -718.0464 277.7770
v 3971.6628 -714.3296 275.8979
f 73 74 75
v 3921.3952 -768.1796 275.8487
v 3971.6628 -714.3296 275.8979
v 3917.8097 -764.7930 276.3303
f 76 77 78
v 3917.8097 -764.7930 276.3303
v 3971.6628 -714.3296 275.8979
v 3915.2185 -762.3461 276.6781
f 79 80 81
v 3915.2185 -762.3461 276.6781
v 3971.6628 -714.3296 275.8979
v 3913.1599 -760.4017 276.9546
f 82 83 84
v 3971.6837 -714.3557 275.8949
v 3921.3952 -768.1796 275.8487
v 3971.8714 -715.2101 275.8237
f 85 86 87
v 3971.6628 -714.3296 275.8979
v 3941.6069 -718.2044 277.7701
v 3913.1599 -760.4017 276.9546
f 88 89 90
v 3913.1599 -760.4017 276.9546
v 3920.1054 -740.9446 277.7687
v 3907.1358 -754.6607 277.7680
f 91 92 93
v 3913.1599 -760.4017 276.9546
v 3941.6069 -718.2044 277.7701
v 3920.1054 -740.9446 277.7687
f 94 95 96
v 3941.6524 -718.0464 277.7770
v 3941.5290 -718.1761 277.7771
v 3941.6069 -718.2044 277.7701
f 97 98 99
v 3971.6628 -714.3296 275.8979
v 3941.6524 -718.0464 277.7770
v 3941.6069 -718.2044 277.7701
f 100 101 102
v 3971.8714 -715.2101 275.8237
v 3971.8978 -715.0822 275.8307
v 3971.9032 -714.9132 275.8417
f 103 104 105
v 3971.8714 -715.2101 275.8237
v 3971.9032 -714.9132 275.8417
v 3971.8786 -714.7451 275.8547
f 106 107 108
v 3971.8261 -714.5841 275.8688
v 3971.8714 -715.2101 275.8237
v 3971.8786 -714.7451 275.8547
f 109 110 111
v 3971.7455 -714.4348 275.8848
v 3971.8714 -715.2101 275.8237
v 3971.8261 -714.5841 275.8688
f 112 113 114
v 3971.6628 -714.3296 275.8979
v 3921.3952 -768.1796 275.8487
v 3971.6837 -714.3557 275.8949
f 115 116 117
v 3971.7455 -714.4348 275.8848
v 3971.6837 -714.3557 275.8949
v 3971.8714 -715.2101 275.8237
f 118 119 120
v 3894.0894 -701.0285 268.1575
v 3894.0954 -701.0294 277.8082
v 3895.9722 -697.9975 277.3414
f 121 122 123
v 3941.6463 -718.0456 268.1263
v 3941.6524 -718.0464 277.7770
v 3894.0954 -701.0294 277.8082
f 124 125 126
v 3967.1996 -712.5890 268.1111
v 3967.2188 -712.5330 268.1111
v 3967.2237 -712.5337 275.8768
f 127 128 129
v 3967.2237 -712.5337 275.8768
v 3967.2045 -712.5896 275.8848
v 3967.1996 -712.5890 268.1111
f 130 131 132
v 3971.6408 -714.3026 275.8949
v 3971.6628 -714.3296 275.8979
v 3971.6380 -714.3028 268.1082
f 133 134 135
v 3971.4443 -714.1420 275.8840
v 3971.6408 -714.3026 275.8949
v 3971.4394 -714.1413 268.1083
f 136 137 138
v 3971.4394 -714.1413 268.1083
v 3971.6408 -714.3026 275.8949
v 3971.6380 -714.3028 268.1082
f 139 140 141
v 3967.2045 -712.5896 275.8848
v 3968.3154 -712.9966 275.8841
v 3967.1996 -712.5890 268.1111
f 142 143 144
v 3971.4443 -714.1420 275.8840
v 3971.4394 -714.1413 268.1083
v 3968.3154 -712.9966 275.8841
f 145 146 147
v 3967.1996 -712.5890 268.1111
v 3968.3154 -712.9966 275.8841
v 3971.4394 -714.1413 268.1083
f 148 149 150
v 3971.7406 -714.4341 268.1081
v 3971.8261 -714.5841 275.8688
v 3971.8212 -714.5833 268.1081
f 151 152 153
v 3971.6837 -714.3557 275.8949
v 3971.6380 -714.3028 268.1082
v 3971.6628 -714.3296 275.8979
f 154 155 156
v 3971.7455 -714.4348 275.8848
v 3971.6380 -714.3028 268.1082
v 3971.6837 -714.3557 275.8949
f 157 158 159
v 3941.6524 -718.0464 277.7770
v 3941.6463 -718.0456 268.1263
v 3941.5290 -718.1761 277.7771
f 160 161 162
v 3941.5290 -718.1761 277.7771
v 3941.6463 -718.0456 268.1263
v 3941.5229 -718.1752 268.1264
f 163 164 165
v 3941.6009 -718.2035 268.1264
v 3941.6069 -718.2044 277.7701
v 3941.5290 -718.1761 277.7771
f 166 167 168
v 3941.5229 -718.1752 268.1264
v 3941.6009 -718.2035 268.1264
v 3941.5290 -718.1761 277.7771
f 169 170 171
v 3907.1298 -754.6598 268.1433
v 3907.1358 -754.6607 277.7680
v 3920.1054 -740.9446 277.7687
f 172 173 174
v 3907.1298 -754.6598 268.1433
v 3920.1054 -740.9446 277.7687
v 3941.6009 -718.2035 268.1264
f 175 176 177
v 3941.6069 -718.2044 277.7701
v 3941.6009 -718.2035 268.1264
v 3920.1054 -740.9446 277.7687
f 178 179 180
v 3913.1543 -760.4008 268.1389
v 3913.1599 -760.4017 276.9546
v 3907.1298 -754.6598 268.1433
f 181 182 183
v 3917.8097 -764.7930 276.3303
v 3915.2185 -762.3461 276.6781
v 3913.1543 -760.4008 268.1389
f 184 185 186
v 3913.1543 -760.4008 268.1389
v 3921.3904 -768.1788 268.1330
v 3917.8097 -764.7930 276.3303
f 187 188 189
v 3921.3904 -768.1788 268.1330
v 3971.8665 -715.2095 268.1080
v 3971.8714 -715.2101 275.8237
f 190 191 192
v 3971.8929 -715.0815 268.1080
v 3971.8978 -715.0822 275.8307
v 3971.8665 -715.2095 268.1080
f 193 194 195
v 3971.8983 -714.9126 268.1080
v 3971.8978 -715.0822 275.8307
v 3971.8929 -715.0815 268.1080
f 196 197 198
v 3971.8983 -714.9126 268.1080
v 3971.8786 -714.7451 275.8547
v 3971.9032 -714.9132 275.8417
f 199 200 201
v 3894.0954 -701.0294 277.8082
v 3941.6524 -718.0464 277.7770
v 3895.9722 -697.9975 277.3414
f 202 203 204
v 3891.2929 -685.0960 275.9337
v 3893.0122 -696.1025 277.2384
v 3895.9722 -697.9975 277.3414
f 205 206 207
v 3892.7065 -685.6067 275.9338
v 3895.9722 -697.9975 277.3414
v 3941.6524 -718.0464 277.7770
f 208 209 210
v 3891.2929 -685.0960 275.9337
v 3887.1941 -692.3789 277.0393
v 3893.0122 -696.1025 277.2384
f 211 212 213
v 3892.7065 -685.6067 275.9338
v 3891.2929 -685.0960 275.9337
v 3895.9722 -697.9975 277.3414
f 214 215 216
v 3891.2880 -685.0952 268.1610
v 3891.2929 -685.0960 275.9337
v 3892.7065 -685.6067 275.9338
f 217 218 219
v 3891.2880 -685.0952 268.1610
v 3892.7065 -685.6067 275.9338
v 3967.2188 -712.5330 268.1111
f 220 221 222
v 3892.7065 -685.6067 275.9338
v 3967.2237 -712.5337 275.8768
v 3967.2188 -712.5330 268.1111
f 223 224 225
v 3887.1886 -692.3782 268.1627
v 3887.1941 -692.3789 277.0393
v 3891.2929 -685.0960 275.9337
f 226 227 228
v 3891.2880 -685.0952 268.1610
v 3887.1886 -692.3782 268.1627
v 3891.2929 -685.0960 275.9337
f 229 230 231
v 3895.9665 -697.9967 268.1567
v 3895.9722 -697.9975 277.3414
v 3893.0122 -696.1025 277.2384
f 232 233 234
v 3893.0066 -696.1017 268.1587
v 3895.9665 -697.9967 268.1567
v 3893.0122 -696.1025 277.2384
f 235 236 237
v 3887.1886 -692.3782 268.1627
v 3893.0066 -696.1017 268.1587
v 3887.1941 -692.3789 277.0393
f 238 239 240
v 3893.0122 -696.1025 277.2384
v 3887.1941 -692.3789 277.0393
v 3893.0066 -696.1017 268.1587
f 241 242 243
v 3894.0894 -701.0285 268.1575
v 3895.9722 -697.9975 277.3414
v 3895.9665 -697.9967 268.1567
f 244 245 246
v 3941.6463 -718.0456 268.1263
v 3894.0954 -701.0294 277.8082
v 3894.0894 -701.0285 268.1575
f 247 248 249
v 3971.8261 -714.5841 275.8688
v 3971.8786 -714.7451 275.8547
v 3971.8212 -714.5833 268.1081
f 250 251 252
v 3971.8212 -714.5833 268.1081
v 3971.8786 -714.7451 275.8547
v 3971.8738 -714.7445 268.1080
f 253 254 255
v 3971.7455 -714.4348 275.8848
v 3971.8261 -714.5841 275.8688
v 3971.7406 -714.4341 268.1081
f 256 257 258
v 3971.6380 -714.3028 268.1082
v 3971.7455 -714.4348 275.8848
v 3971.7406 -714.4341 268.1081
f 259 260 261
v 3913.1599 -760.4017 276.9546
v 3907.1358 -754.6607 277.7680
v 3907.1298 -754.6598 268.1433
f 262 263 264
v 3917.8097 -764.7930 276.3303
v 3921.3904 -768.1788 268.1330
v 3921.3952 -768.1796 275.8487
f 265 266 267
v 3915.2185 -762.3461 276.6781
v 3913.1599 -760.4017 276.9546
v 3913.1543 -760.4008 268.1389
f 268 269 270
v 3971.8714 -715.2101 275.8237
v 3921.3952 -768.1796 275.8487
v 3921.3904 -768.1788 268.1330
f 271 272 273
v 3971.8978 -715.0822 275.8307
v 3971.8714 -715.2101 275.8237
v 3971.8665 -715.2095 268.1080
f 274 275 276
v 3971.9032 -714.9132 275.8417
v 3971.8978 -715.0822 275.8307
v 3971.8983 -714.9126 268.1080
f 277 278 279
v 3971.8983 -714.9126 268.1080
v 3971.8738 -714.7445 268.1080
v 3971.8786 -714.7451 275.8547
f 280 281 282

g building_ID_A85F9961-67E7-4AE5-9F3B-AC15E2E8C2F5
v 4029.8466 -189.2671 275.9600
v 4043.9274 -218.7814 275.9498
v 4031.5244 -188.5606 275.9590
f 283 284 285
v 4036.9511 -221.5507 275.9541
v 4029.8466 -189.2671 275.9600
v 4019.0185 -228.9386 275.9651
f 286 287 288
v 4028.7724 -186.7132 275.9607
v 4019.0185 -228.9386 275.9651
v 4029.8466 -189.2671 275.9600
f 289 290 291
v 4036.9511 -221.5507 275.9541
v 4043.9274 -218.7814 275.9498
v 4029.8466 -189.2671 275.9600
f 292 293 294
v 4043.9274 -218.7814 275.9498
v 4043.9721 -218.8895 275.9497
v 4044.0763 -218.8458 275.9497
f 295 296 297
v 4036.9511 -221.5507 275.9541
v 4036.9869 -221.6368 275.9540
v 4043.9274 -218.7814 275.9498
f 298 299 300
v 4043.9274 -218.7814 275.9498
v 4044.0763 -218.8458 275.9497
v 4031.5244 -188.5606 275.9590
f 301 302 303
v 3987.8489 -211.3835 275.9853
v 4001.1381 -236.3057 275.9761
v 4019.0185 -228.9386 275.9651
f 304 305 306
v 3985.1405 -204.8253 275.9875
v 3987.8489 -211.3835 275.9853
v 4019.0185 -228.9386 275.9651
f 307 308 309
v 3985.1405 -204.8253 275.9875
v 4019.0185 -228.9386 275.9651
v 4028.7724 -186.7132 275.9607
f 310 311 312
v 3987.6607 -211.4609 275.9855
v 3998.3838 -237.5214 275.9777
v 3987.8489 -211.3835 275.9853
f 313 314 315
v 3998.3838 -237.5214 275.9777
v 4002.4833 -239.5693 275.9751
v 4001.1381 -236.3057 275.9761
f 316 317 318
v 4002.4833 -239.5693 275.9751
v 3998.3838 -237.5214 275.9777
v 3999.6973 -240.7159 275.9768
f 319 320 321
v 3998.3838 -237.5214 275.9777
v 4001.1381 -236.3057 275.9761
v 3987.8489 -211.3835 275.9853
f 322 323 324
v 3985.1326 -204.8252 263.6459
v 3985.1405 -204.8253 275.9875
v 4028.7724 -186.7132 275.9607
f 325 326 327
v 3987.8411 -211.3833 263.6437
v 3987.8489 -211.3835 275.9853
v 3985.1405 -204.8253 275.9875
f 328 329 330
v 3999.6894 -240.7156 263.6352
v 3999.6973 -240.7159 275.9768
v 3998.3838 -237.5214 275.9777
f 331 332 333
v 4038.2944 -224.8301 263.6115
v 4038.2950 -224.8302 264.6565
v 4002.4761 -239.5691 264.6785
f 334 335 336
v 3999.6894 -240.7156 263.6352
v 4038.2944 -224.8301 263.6115
v 4002.4761 -239.5691 264.6785
f 337 338 339
v 4002.4761 -239.5691 264.6785
v 3999.6973 -240.7159 275.9768
v 3999.6894 -240.7156 263.6352
f 340 341 342
v 4002.4833 -239.5693 275.9751
v 3999.6973 -240.7159 275.9768
v 4002.4761 -239.5691 264.6785
f 343 344 345
v 4043.9195 -218.7813 263.6082
v 4043.9274 -218.7814 275.9498
v 4036.9796 -221.6367 264.6574
f 346 347 348
v 4043.9195 -218.7813 263.6082
v 4036.9796 -221.6367 264.6574
v 4036.9790 -221.6367 263.6124
f 349 350 351
v 4043.9642 -218.8893 263.6081
v 4043.9721 -218.8895 275.9497
v 4043.9274 -218.7814 275.9498
f 352 353 354
v 4044.0683 -218.8457 263.6081
v 4044.0763 -218.8458 275.9497
v 4043.9721 -218.8895 275.9497
f 355 356 357
v 4031.5165 -188.5605 263.6174
v 4031.5244 -188.5606 275.9590
v 4044.0763 -218.8458 275.9497
f 358 359 360
v 4029.8386 -189.2670 263.6184
v 4029.8466 -189.2671 275.9600
v 4031.5244 -188.5606 275.9590
f 361 362 363
v 4028.7645 -186.7132 263.6191
v 4028.7724 -186.7132 275.9607
v 4029.8466 -189.2671 275.9600
f 364 365 366
v 4070.8035 -303.7005 287.5386
v 4036.9586 -221.5508 287.5637
v 4019.0246 -228.9387 285.3198
f 367 368 369
v 4019.0246 -228.9387 285.3198
v 4052.8874 -311.1305 285.2947
v 4070.8035 -303.7005 287.5386
f 370 371 372
v 4052.8874 -311.1305 285.2947
v 4019.0246 -228.9387 285.3198
v 4001.1452 -236.3059 287.1567
f 373 374 375
v 4001.1452 -236.3059 287.1567
v 4035.0309 -318.5368 287.1316
v 4052.8874 -311.1305 285.2947
f 376 377 378
v 4002.4761 -239.5691 264.6785
v 4052.8740 -311.1300 264.6434
v 4035.0165 -318.5362 264.6544
f 379 380 381
v 4070.7886 -303.7000 264.6324
v 4052.8740 -311.1300 264.6434
v 4038.2950 -224.8302 264.6565
f 382 383 384
v 4002.4761 -239.5691 264.6785
v 4038.2950 -224.8302 264.6565
v 4052.8740 -311.1300 264.6434
f 385 386 387
v 4002.4761 -239.5691 264.6785
v 4035.0165 -318.5362 264.6544
v 4002.4833 -239.5693 275.9751
f 388 389 390
v 4035.0309 -318.5368 287.1316
v 4002.4833 -239.5693 275.9751
v 4035.0165 -318.5362 264.6544
f 391 392 393
v 4001.1381 -236.3057 275.9761
v 4002.4833 -239.5693 275.9751
v 4001.1452 -236.3059 287.1567
f 394 395 396
v 4035.0309 -318.5368 287.1316
v 4001.1452 -236.3059 287.1567
v 4002.4833 -239.5693 275.9751
f 397 398 399
v 3985.3473 -242.8865 278.5456
v 3987.6623 -211.4610 278.5454
v 3974.5630 -216.8799 278.5533
f 400 401 402
v 3987.6623 -211.4610 278.5454
v 3985.3473 -242.8865 278.5456
v 3998.3855 -237.5214 278.5376
f 403 404 405
v 3985.3378 -242.8862 263.6442
v 3985.3473 -242.8865 278.5456
v 3974.5630 -216.8799 278.5533
f 406 407 408
v 3985.3473 -242.8865 278.5456
v 3998.3838 -237.5214 275.9777
v 3998.3855 -237.5214 278.5376
f 409 410 411
v 3993.8721 -239.3742 263.6390
v 3998.3760 -237.5212 263.6362
v 3998.3838 -237.5214 275.9777
f 412 413 414
v 3985.3378 -242.8862 263.6442
v 3993.8721 -239.3742 263.6390
v 3985.3473 -242.8865 278.5456
f 415 416 417
v 3998.3838 -237.5214 275.9777
v 3985.3473 -242.8865 278.5456
v 3993.8721 -239.3742 263.6390
f 418 419 420
v 3987.6607 -211.4609 275.9855
v 3987.6623 -211.4610 278.5454
v 3998.3855 -237.5214 278.5376
f 421 422 423
v 3983.1599 -213.3188 263.6466
v 3985.3378 -242.8862 263.6442
v 3974.5535 -216.8797 263.6518
f 424 425 426
v 3987.8411 -211.3833 263.6437
v 3998.3760 -237.5212 263.6362
v 3983.1599 -213.3188 263.6466
f 427 428 429
v 3983.1599 -213.3188 263.6466
v 3993.8721 -239.3742 263.6390
v 3985.3378 -242.8862 263.6442
f 430 431 432
v 3998.3760 -237.5212 263.6362
v 4036.9790 -221.6367 263.6124
v 3999.6894 -240.7156 263.6352
f 433 434 435
v 3998.3760 -237.5212 263.6362
v 3993.8721 -239.3742 263.6390
v 3983.1599 -213.3188 263.6466
f 436 437 438
v 4036.9790 -221.6367 263.6124
v 3998.3760 -237.5212 263.6362
v 3987.8411 -211.3833 263.6437
f 439 440 441
v 4029.8386 -189.2670 263.6184
v 3985.1326 -204.8252 263.6459
v 4028.7645 -186.7132 263.6191
f 442 443 444
v 4043.9195 -218.7813 263.6082
v 4029.8386 -189.2670 263.6184
v 4031.5165 -188.5605 263.6174
f 445 446 447
v 3987.8411 -211.3833 263.6437
v 4029.8386 -189.2670 263.6184
v 4036.9790 -221.6367 263.6124
f 448 449 450
v 4036.9790 -221.6367 263.6124
v 4038.2944 -224.8301 263.6115
v 3999.6894 -240.7156 263.6352
f 451 452 453
v 4044.0683 -218.8457 263.6081
v 4043.9642 -218.8893 263.6081
v 4043.9195 -218.7813 263.6082
f 454 455 456
v 4031.5165 -188.5605 263.6174
v 4044.0683 -218.8457 263.6081
v 4043.9195 -218.7813 263.6082
f 457 458 459
v 4043.9195 -218.7813 263.6082
v 4036.9790 -221.6367 263.6124
v 4029.8386 -189.2670 263.6184
f 460 461 462
v 4029.8386 -189.2670 263.6184
v 3987.8411 -211.3833 263.6437
v 3985.1326 -204.8252 263.6459
f 463 464 465
v 4036.9869 -221.6368 275.9540
v 4036.9511 -221.5507 275.9541
v 4036.9586 -221.5508 287.5637
f 466 467 468
v 4038.2950 -224.8302 264.6565
v 4036.9796 -221.6367 264.6574
v 4036.9869 -221.6368 275.9540
f 469 470 471
v 4036.9869 -221.6368 275.9540
v 4036.9586 -221.5508 287.5637
v 4070.8035 -303.7005 287.5386
f 472 473 474
v 4036.9869 -221.6368 275.9540
v 4070.7886 -303.7000 264.6324
v 4038.2950 -224.8302 264.6565
f 475 476 477
v 4036.9790 -221.6367 263.6124
v 4036.9796 -221.6367 264.6574
v 4038.2944 -224.8301 263.6115
f 478 479 480
v 4038.2950 -224.8302 264.6565
v 4038.2944 -224.8301 263.6115
v 4036.9796 -221.6367 264.6574
f 481 482 483
v 4070.8035 -303.7005 287.5386
v 4070.7886 -303.7000 264.6324
v 4036.9869 -221.6368 275.9540
f 484 485 486
v 4052.8740 -311.1300 264.6434
v 4070.7886 -303.7000 264.6324
v 4070.8035 -303.7005 287.5386
f 487 488 489
v 4052.8874 -311.1305 285.2947
v 4052.8740 -311.1300 264.6434
v 4070.8035 -303.7005 287.5386
f 490 491 492
v 4052.8740 -311.1300 264.6434
v 4052.8874 -311.1305 285.2947
v 4035.0165 -318.5362 264.6544
f 493 494 495
v 4035.0309 -318.5368 287.1316
v 4035.0165 -318.5362 264.6544
v 4052.8874 -311.1305 285.2947
f 496 497 498
v 4019.0246 -228.9387 285.3198
v 4019.0185 -228.9386 275.9651
v 4001.1381 -236.3057 275.9761
f 499 500 501
v 4001.1452 -236.3059 287.1567
v 4019.0246 -228.9387 285.3198
v 4001.1381 -236.3057 275.9761
f 502 503 504
v 4019.0185 -228.9386 275.9651
v 4036.9586 -221.5508 287.5637
v 4036.9511 -221.5507 275.9541
f 505 506 507
v 4019.0246 -228.9387 285.3198
v 4036.9586 -221.5508 287.5637
v 4019.0185 -228.9386 275.9651
f 508 509 510
v 3983.1599 -213.3188 263.6466
v 3974.5535 -216.8797 263.6518
v 3974.5630 -216.8799 278.5533
f 511 512 513
v 3987.6607 -211.4609 275.9855
v 3983.1599 -213.3188 263.6466
v 3974.5630 -216.8799 278.5533
f 514 515 516
v 3983.1599 -213.3188 263.6466
v 3987.6607 -211.4609 275.9855
v 3987.8411 -211.3833 263.6437
f 517 518 519
v 3987.8489 -211.3835 275.9853
v 3987.8411 -211.3833 263.6437
v 3987.6607 -211.4609 275.9855
f 520 521 522
v 3974.5630 -216.8799 278.5533
v 3987.6623 -211.4610 278.5454
v 3987.6607 -211.4609 275.9855
f 523 524 525
v 3985.1326 -204.8252 263.6459
v 4028.7724 -186.7132 275.9607
v 4028.7645 -186.7132 263.6191
f 526 527 528
v 3987.8411 -211.3833 263.6437
v 3985.1405 -204.8253 275.9875
v 3985.1326 -204.8252 263.6459
f 529 530 531
v 3999.6894 -240.7156 263.6352
v 3998.3838 -237.5214 275.9777
v 3998.3760 -237.5212 263.6362
f 532 533 534
v 4043.9274 -218.7814 275.9498
v 4036.9869 -221.6368 275.9540
v 4036.9796 -221.6367 264.6574
f 535 536 537
v 4043.9642 -218.8893 263.6081
v 4043.9274 -218.7814 275.9498
v 4043.9195 -218.7813 263.6082
f 538 539 540
v 4044.0683 -218.8457 263.6081
v 4043.9721 -218.8895 275.9497
v 4043.9642 -218.8893 263.6081
f 541 542 543
v 4031.5165 -188.5605 263.6174
v 4044.0763 -218.8458 275.9497
v 4044.0683 -218.8457 263.6081
f 544 545 546
v 4029.8386 -189.2670 263.6184
v 4031.5244 -188.5606 275.9590
v 4031.5165 -188.5605 263.6174
f 547 548 549
v 4028.7645 -186.7132 263.6191
v 4029.8466 -189.2671 275.9600
v 4029.8386 -189.2670 263.6184
f 550 551 552
v 3985.3378 -242.8862 263.6442
v 3974.5630 -216.8799 278.5533
v 3974.5535 -216.8797 263.6518
f 553 554 555
v 3987.6607 -211.4609 275.9855
v 3998.3855 -237.5214 278.5376
v 3998.3838 -237.5214 275.9777
f 556 557 558
