# Grid Center: 2620000, 1264400
# Global Anchor: 7.64977475454284, 47.53283995868075, 0.0

g building_ID_6F034885-B497-4D50-A015-4C2F4AF4ECB8
v 4019.4179 -110.9342 266.1779
v 4010.2809 -114.7186 266.1836
v 4009.9104 -113.7897 266.1838
f 1 2 3
v 4026.4511 -102.6081 266.1736
v 4028.5559 -107.1487 266.1722
v 4019.4179 -110.9342 266.1779
f 4 5 6
v 4019.4179 -110.9342 266.1779
v 4025.4060 -100.0244 266.1743
v 4026.4511 -102.6081 266.1736
f 7 8 9
v 4009.9104 -113.7897 266.1838
v 4025.4060 -100.0244 266.1743
v 4019.4179 -110.9342 266.1779
f 10 11 12
v 4031.5386 -100.4927 266.1704
v 4028.5559 -107.1487 266.1722
v 4026.4511 -102.6081 266.1736
f 13 14 15
v 4033.4896 -104.6219 266.1691
v 4033.6605 -105.0344 266.1690
v 4033.2914 -104.7013 266.1693
f 16 17 18
v 4028.5559 -107.1487 266.1722
v 4033.2914 -104.7013 266.1693
v 4033.6605 -105.0344 266.1690
f 19 20 21
v 4028.5559 -107.1487 266.1722
v 4031.5386 -100.4927 266.1704
v 4033.2914 -104.7013 266.1693
f 22 23 24
v 4025.4060 -100.0244 266.1743
v 4004.4514 -49.1450 266.1883
v 4037.0439 -95.1445 266.1670
f 25 26 27
v 3986.6758 -57.7043 266.1993
v 3995.3134 -52.9324 266.1940
v 4009.9104 -113.7897 266.1838
f 28 29 30
v 4004.4514 -49.1450 266.1883
v 4025.4060 -100.0244 266.1743
v 4009.9104 -113.7897 266.1838
f 31 32 33
v 3986.6758 -57.7043 266.1993
v 3986.6006 -57.7362 266.1994
v 3986.1783 -56.7200 266.1996
f 34 35 36
v 3995.3134 -52.9324 266.1940
v 3986.6758 -57.7043 266.1993
v 3986.1783 -56.7200 266.1996
f 37 38 39
v 3995.3134 -52.9324 266.1940
v 4004.4514 -49.1450 266.1883
v 4009.9104 -113.7897 266.1838
f 40 41 42
v 4004.4514 -49.1450 266.1883
v 4025.5469 -67.5631 266.1748
v 4037.0439 -95.1445 266.1670
f 43 44 45
v 4004.4514 -49.1450 266.1883
v 4015.9430 -44.3808 266.1811
v 4025.5469 -67.5631 266.1748
f 46 47 48
v 3986.6819 -57.7042 275.9579
v 4009.9166 -113.7897 275.9295
v 4019.4254 -110.9341 277.8165
f 49 50 51
v 3986.6819 -57.7042 275.9579
v 4019.4254 -110.9341 277.8165
v 3995.3208 -52.9323 277.8326
f 52 53 54
v 4019.4254 -110.9341 277.8165
v 4009.9166 -113.7897 275.9295
v 4010.2872 -114.7186 275.9263
f 55 56 57
v 3995.3208 -52.9323 277.8326
v 3986.1846 -56.7198 275.9422
v 3986.6819 -57.7042 275.9579
f 58 59 60
v 3986.1846 -56.7198 275.9422
v 3986.6069 -57.7359 275.9420
v 3986.6819 -57.7042 275.9579
f 61 62 63
v 4026.4573 -102.6080 275.9553
v 4025.4123 -100.0242 275.9510
v 4019.4254 -110.9341 277.8165
f 64 65 66
v 3995.3208 -52.9323 277.8326
v 4019.4254 -110.9341 277.8165
v 4025.4123 -100.0242 275.9510
f 67 68 69
v 4025.5734 -99.9567 275.9169
v 4004.4576 -49.1448 275.9309
v 4025.4123 -100.0242 275.9510
f 70 71 72
v 3995.3208 -52.9323 277.8326
v 4025.4123 -100.0242 275.9510
v 4004.4576 -49.1448 275.9309
f 73 74 75
v 4028.5622 -107.1486 275.9149
v 4026.4573 -102.6080 275.9553
v 4019.4254 -110.9341 277.8165
f 76 77 78
v 4028.5622 -107.1486 275.9149
v 4026.6435 -102.5305 275.9162
v 4026.4573 -102.6080 275.9553
f 79 80 81
v 4037.0510 -95.1445 277.2346
v 4025.5539 -67.5630 277.2384
v 4025.5734 -99.9567 275.9169
f 82 83 84
v 4004.4576 -49.1448 275.9309
v 4025.5539 -67.5630 277.2384
v 4015.9500 -44.3805 277.2477
f 85 86 87
v 4025.5734 -99.9567 275.9169
v 4025.5539 -67.5630 277.2384
v 4004.4576 -49.1448 275.9309
f 88 89 90
v 4033.6671 -105.0342 276.4996
v 4033.2980 -104.7013 276.4769
v 4028.5622 -107.1486 275.9149
f 91 92 93
v 4033.2980 -104.7013 276.4769
v 4033.6671 -105.0342 276.4996
v 4033.4963 -104.6218 276.4997
f 94 95 96
v 4033.2980 -104.7013 276.4769
v 4031.5453 -100.4926 276.4781
v 4026.6435 -102.5305 275.9162
f 97 98 99
v 4033.2980 -104.7013 276.4769
v 4026.6435 -102.5305 275.9162
v 4028.5622 -107.1486 275.9149
f 100 101 102
v 3986.6819 -57.7042 275.9579
v 3986.6758 -57.7043 266.1993
v 4009.9104 -113.7897 266.1838
f 103 104 105
v 4010.2855 -114.7187 273.4904
v 4010.2872 -114.7186 275.9263
v 4009.9166 -113.7897 275.9295
f 106 107 108
v 4010.2809 -114.7186 266.1836
v 4010.2840 -114.7186 271.0534
v 4009.9104 -113.7897 266.1838
f 109 110 111
v 3986.1846 -56.7198 275.9422
v 3986.6006 -57.7362 266.1994
v 3986.6069 -57.7359 275.9420
f 112 113 114
v 3986.1846 -56.7198 275.9422
v 3986.1783 -56.7200 266.1996
v 3986.6006 -57.7362 266.1994
f 115 116 117
v 3986.6006 -57.7362 266.1994
v 3986.6819 -57.7042 275.9579
v 3986.6069 -57.7359 275.9420
f 118 119 120
v 3986.6758 -57.7043 266.1993
v 3986.6819 -57.7042 275.9579
v 3986.6006 -57.7362 266.1994
f 121 122 123
v 4025.4060 -100.0244 266.1743
v 4026.4573 -102.6080 275.9553
v 4026.4546 -102.6080 271.6754
f 124 125 126
v 4025.5539 -67.5630 277.2384
v 4037.0439 -95.1445 266.1670
v 4025.5469 -67.5631 266.1748
f 127 128 129
v 4015.9430 -44.3808 266.1811
v 4025.5539 -67.5630 277.2384
v 4025.5469 -67.5631 266.1748
f 130 131 132
v 4033.6655 -105.0343 273.9167
v 4033.6638 -105.0343 271.3348
v 4033.4963 -104.6218 276.4997
f 133 134 135
v 4033.6621 -105.0343 268.7519
v 4033.4963 -104.6218 276.4997
v 4033.6638 -105.0343 271.3348
f 136 137 138
v 4033.6605 -105.0344 266.1690
v 4033.4963 -104.6218 276.4997
v 4033.6621 -105.0343 268.7519
f 139 140 141
v 4033.4896 -104.6219 266.1691
v 4033.4963 -104.6218 276.4997
v 4033.6605 -105.0344 266.1690
f 142 143 144
v 4033.2914 -104.7013 266.1693
v 4033.2980 -104.7013 276.4769
v 4033.4963 -104.6218 276.4997
f 145 146 147
v 4031.5386 -100.4927 266.1704
v 4031.5453 -100.4926 276.4781
v 4033.2914 -104.7013 266.1693
f 148 149 150
v 4026.4546 -102.6080 271.6754
v 4026.4573 -102.6080 275.9553
v 4026.6435 -102.5305 275.9162
f 151 152 153
v 4026.6435 -102.5305 275.9162
v 4031.5453 -100.4926 276.4781
v 4026.4546 -102.6080 271.6754
f 154 155 156
v 4026.4511 -102.6081 266.1736
v 4026.4546 -102.6080 271.6754
v 4031.5386 -100.4927 266.1704
f 157 158 159
v 4031.5453 -100.4926 276.4781
v 4031.5386 -100.4927 266.1704
v 4026.4546 -102.6080 271.6754
f 160 161 162
v 4037.0510 -95.1445 277.2346
v 4025.4060 -100.0244 266.1743
v 4037.0439 -95.1445 266.1670
f 163 164 165
v 4025.4123 -100.0242 275.9510
v 4025.4060 -100.0244 266.1743
v 4025.5734 -99.9567 275.9169
f 166 167 168
v 4025.4060 -100.0244 266.1743
v 4037.0510 -95.1445 277.2346
v 4025.5734 -99.9567 275.9169
f 169 170 171
v 4004.4576 -49.1448 275.9309
v 3995.3134 -52.9324 266.1940
v 3986.1846 -56.7198 275.9422
f 172 173 174
v 3986.1783 -56.7200 266.1996
v 3986.1846 -56.7198 275.9422
v 3995.3134 -52.9324 266.1940
f 175 176 177
v 4004.4576 -49.1448 275.9309
v 4004.4514 -49.1450 266.1883
v 3995.3134 -52.9324 266.1940
f 178 179 180
v 3995.3208 -52.9323 277.8326
v 4004.4576 -49.1448 275.9309
v 3986.1846 -56.7198 275.9422
f 181 182 183
v 4015.9430 -44.3808 266.1811
v 4004.4576 -49.1448 275.9309
v 4015.9500 -44.3805 277.2477
f 184 185 186
v 4015.9430 -44.3808 266.1811
v 4004.4514 -49.1450 266.1883
v 4004.4576 -49.1448 275.9309
f 187 188 189
v 4033.6655 -105.0343 273.9167
v 4033.6671 -105.0342 276.4996
v 4028.5622 -107.1486 275.9149
f 190 191 192
v 4010.2840 -114.7186 271.0534
v 4033.6638 -105.0343 271.3348
v 4033.6655 -105.0343 273.9167
f 193 194 195
v 4033.6621 -105.0343 268.7519
v 4033.6638 -105.0343 271.3348
v 4019.4179 -110.9342 266.1779
f 196 197 198
v 4028.5559 -107.1487 266.1722
v 4033.6605 -105.0344 266.1690
v 4033.6621 -105.0343 268.7519
f 199 200 201
v 4033.6655 -105.0343 273.9167
v 4028.5622 -107.1486 275.9149
v 4010.2840 -114.7186 271.0534
f 202 203 204
v 4010.2855 -114.7187 273.4904
v 4019.4254 -110.9341 277.8165
v 4010.2872 -114.7186 275.9263
f 205 206 207
v 4028.5622 -107.1486 275.9149
v 4010.2855 -114.7187 273.4904
v 4010.2840 -114.7186 271.0534
f 208 209 210
v 4019.4179 -110.9342 266.1779
v 4028.5559 -107.1487 266.1722
v 4033.6621 -105.0343 268.7519
f 211 212 213
v 4019.4179 -110.9342 266.1779
v 4010.2840 -114.7186 271.0534
v 4010.2809 -114.7186 266.1836
f 214 215 216
v 4033.6638 -105.0343 271.3348
v 4010.2840 -114.7186 271.0534
v 4019.4179 -110.9342 266.1779
f 217 218 219
v 4010.2855 -114.7187 273.4904
v 4028.5622 -107.1486 275.9149
v 4019.4254 -110.9341 277.8165
f 220 221 222
v 3986.6819 -57.7042 275.9579
v 4009.9104 -113.7897 266.1838
v 4009.9166 -113.7897 275.9295
f 223 224 225
v 4009.9104 -113.7897 266.1838
v 4010.2855 -114.7187 273.4904
v 4009.9166 -113.7897 275.9295
f 226 227 228
v 4010.2840 -114.7186 271.0534
v 4010.2855 -114.7187 273.4904
v 4009.9104 -113.7897 266.1838
f 229 230 231
v 4025.4123 -100.0242 275.9510
v 4026.4573 -102.6080 275.9553
v 4025.4060 -100.0244 266.1743
f 232 233 234
v 4026.4546 -102.6080 271.6754
v 4026.4511 -102.6081 266.1736
v 4025.4060 -100.0244 266.1743
f 235 236 237
v 4025.5539 -67.5630 277.2384
v 4037.0510 -95.1445 277.2346
v 4037.0439 -95.1445 266.1670
f 238 239 240
v 4015.9430 -44.3808 266.1811
v 4015.9500 -44.3805 277.2477
v 4025.5539 -67.5630 277.2384
f 241 242 243
v 4033.6655 -105.0343 273.9167
v 4033.4963 -104.6218 276.4997
v 4033.6671 -105.0342 276.4996
f 244 245 246
v 4033.2914 -104.7013 266.1693
v 4033.4963 -104.6218 276.4997
v 4033.4896 -104.6219 266.1691
f 247 248 249
v 4031.5453 -100.4926 276.4781
v 4033.2980 -104.7013 276.4769
v 4033.2914 -104.7013 266.1693
f 250 251 252

g building_ID_A9730900-D0D0-400A-AFDE-378A3ECB34D6
v 4096.9730 -123.8444 265.6923
v 4097.0281 -123.8206 265.6923
v 4097.4371 -124.9606 265.6920
f 253 254 255
v 4097.4921 -124.9378 265.6920
v 4097.4371 -124.9606 265.6920
v 4097.0281 -123.8206 265.6923
f 256 257 258
v 4082.0172 -121.9665 265.7019
v 4096.9730 -123.8444 265.6923
v 4097.4371 -124.9606 265.6920
f 259 260 261
v 4082.0172 -121.9665 265.7019
v 4094.1512 -117.0470 265.6942
v 4096.9730 -123.8444 265.6923
f 262 263 264
v 4076.6794 -148.8728 265.7048
v 4068.0723 -127.6301 265.7107
v 4082.0172 -121.9665 265.7019
f 265 266 267
v 4099.7411 -130.1777 265.6904
v 4082.0172 -121.9665 265.7019
v 4099.4401 -129.7900 265.6906
f 268 269 270
v 4082.0172 -121.9665 265.7019
v 4099.7411 -130.1777 265.6904
v 4105.1394 -178.9955 265.6857
f 271 272 273
v 4099.5632 -129.7403 265.6905
v 4099.7411 -130.1777 265.6904
v 4099.4401 -129.7900 265.6906
f 274 275 276
v 4099.7411 -130.1777 265.6904
v 4117.5016 -173.9837 265.6778
v 4105.1394 -178.9955 265.6857
f 277 278 279
v 4097.4371 -124.9606 265.6920
v 4099.4401 -129.7900 265.6906
v 4082.0172 -121.9665 265.7019
f 280 281 282
v 4091.4928 -184.5289 265.6943
v 4077.2199 -150.1902 265.7044
v 4105.1394 -178.9955 265.6857
f 283 284 285
v 4076.6794 -148.8728 265.7048
v 4082.0172 -121.9665 265.7019
v 4077.2199 -150.1902 265.7044
f 286 287 288
v 4082.0172 -121.9665 265.7019
v 4105.1394 -178.9955 265.6857
v 4077.2199 -150.1902 265.7044
f 289 290 291
v 4094.1593 -117.0469 278.0748
v 4082.0261 -121.9664 279.1995
v 4096.9811 -123.8444 278.0679
f 292 293 294
v 4096.9811 -123.8444 278.0679
v 4097.4451 -124.9606 278.0666
v 4097.0362 -123.8205 278.0629
f 295 296 297
v 4097.4451 -124.9606 278.0666
v 4096.9811 -123.8444 278.0679
v 4082.0261 -121.9664 279.1995
f 298 299 300
v 4099.4482 -129.7899 278.0612
v 4097.4451 -124.9606 278.0666
v 4082.0261 -121.9664 279.1995
f 301 302 303
v 4099.4482 -129.7899 278.0612
v 4082.0261 -121.9664 279.1995
v 4105.1483 -178.9956 279.1832
f 304 305 306
v 4099.5713 -129.7402 278.0501
v 4099.4482 -129.7899 278.0612
v 4099.7492 -130.1777 278.0500
f 307 308 309
v 4099.4482 -129.7899 278.0612
v 4105.1483 -178.9956 279.1832
v 4099.7492 -130.1777 278.0500
f 310 311 312
v 4099.7492 -130.1777 278.0500
v 4105.1483 -178.9956 279.1832
v 4117.5098 -173.9837 278.0374
f 313 314 315
v 4097.4451 -124.9606 278.0666
v 4097.5002 -124.9378 278.0616
v 4097.0362 -123.8205 278.0629
f 316 317 318
v 4077.2278 -150.1902 278.0639
v 4091.5009 -184.5291 278.0788
v 4105.1483 -178.9956 279.1832
f 319 320 321
v 4082.0261 -121.9664 279.1995
v 4077.2278 -150.1902 278.0639
v 4105.1483 -178.9956 279.1832
f 322 323 324
v 4068.0803 -127.6300 278.0703
v 4076.6874 -148.8728 278.0643
v 4082.0261 -121.9664 279.1995
f 325 326 327
v 4077.2278 -150.1902 278.0639
v 4082.0261 -121.9664 279.1995
v 4076.6874 -148.8728 278.0643
f 328 329 330
v 4099.4401 -129.7900 265.6906
v 4099.4482 -129.7899 278.0612
v 4099.5693 -129.7403 274.9572
f 331 332 333
v 4099.4401 -129.7900 265.6906
v 4099.5653 -129.7403 268.7714
v 4099.5632 -129.7403 265.6905
f 334 335 336
v 4099.4401 -129.7900 265.6906
v 4097.4371 -124.9606 265.6920
v 4099.4482 -129.7899 278.0612
f 337 338 339
v 4097.4371 -124.9606 265.6920
v 4097.4921 -124.9378 265.6920
v 4097.5002 -124.9378 278.0616
f 340 341 342
v 4097.5002 -124.9378 278.0616
v 4097.4451 -124.9606 278.0666
v 4097.4371 -124.9606 265.6920
f 343 344 345
v 4097.0281 -123.8206 265.6923
v 4097.0362 -123.8205 278.0629
v 4097.4921 -124.9378 265.6920
f 346 347 348
v 4097.0281 -123.8206 265.6923
v 4096.9730 -123.8444 265.6923
v 4097.0362 -123.8205 278.0629
f 349 350 351
v 4094.1593 -117.0469 278.0748
v 4096.9811 -123.8444 278.0679
v 4094.1512 -117.0470 265.6942
f 352 353 354
v 4096.9811 -123.8444 278.0679
v 4096.9730 -123.8444 265.6923
v 4094.1512 -117.0470 265.6942
f 355 356 357
v 4076.6794 -148.8728 265.7048
v 4076.6874 -148.8728 278.0643
v 4068.0803 -127.6300 278.0703
f 358 359 360
v 4082.0172 -121.9665 265.7019
v 4068.0803 -127.6300 278.0703
v 4082.0261 -121.9664 279.1995
f 361 362 363
v 4068.0803 -127.6300 278.0703
v 4082.0172 -121.9665 265.7019
v 4068.0723 -127.6301 265.7107
f 364 365 366
v 4082.0172 -121.9665 265.7019
v 4082.0261 -121.9664 279.1995
v 4094.1593 -117.0469 278.0748
f 367 368 369
v 4094.1593 -117.0469 278.0748
v 4094.1512 -117.0470 265.6942
v 4082.0172 -121.9665 265.7019
f 370 371 372
v 4105.1483 -178.9956 279.1832
v 4105.1394 -178.9955 265.6857
v 4117.5016 -173.9837 265.6778
f 373 374 375
v 4117.5098 -173.9837 278.0374
v 4105.1483 -178.9956 279.1832
v 4117.5016 -173.9837 265.6778
f 376 377 378
v 4105.1394 -178.9955 265.6857
v 4091.5009 -184.5291 278.0788
v 4091.4928 -184.5289 265.6943
f 379 380 381
v 4105.1483 -178.9956 279.1832
v 4091.5009 -184.5291 278.0788
v 4105.1394 -178.9955 265.6857
f 382 383 384
v 4099.7492 -130.1777 278.0500
v 4099.5693 -129.7403 274.9572
v 4099.5713 -129.7402 278.0501
f 385 386 387
v 4117.5016 -173.9837 265.6778
v 4099.5653 -129.7403 268.7714
v 4099.5693 -129.7403 274.9572
f 388 389 390
v 4099.5693 -129.7403 274.9572
v 4117.5098 -173.9837 278.0374
v 4117.5016 -173.9837 265.6778
f 391 392 393
v 4099.7411 -130.1777 265.6904
v 4099.5632 -129.7403 265.6905
v 4099.5653 -129.7403 268.7714
f 394 395 396
v 4117.5016 -173.9837 265.6778
v 4099.7411 -130.1777 265.6904
v 4099.5653 -129.7403 268.7714
f 397 398 399
v 4099.5693 -129.7403 274.9572
v 4099.7492 -130.1777 278.0500
v 4117.5098 -173.9837 278.0374
f 400 401 402
v 4077.2199 -150.1902 265.7044
v 4091.4928 -184.5289 265.6943
v 4091.5009 -184.5291 278.0788
f 403 404 405
v 4077.2278 -150.1902 278.0639
v 4077.2199 -150.1902 265.7044
v 4091.5009 -184.5291 278.0788
f 406 407 408
v 4077.2199 -150.1902 265.7044
v 4077.2278 -150.1902 278.0639
v 4076.6794 -148.8728 265.7048
f 409 410 411
v 4076.6874 -148.8728 278.0643
v 4076.6794 -148.8728 265.7048
v 4077.2278 -150.1902 278.0639
f 412 413 414
v 4099.4482 -129.7899 278.0612
v 4099.5713 -129.7402 278.0501
v 4099.5693 -129.7403 274.9572
f 415 416 417
v 4099.4401 -129.7900 265.6906
v 4099.5693 -129.7403 274.9572
v 4099.5653 -129.7403 268.7714
f 418 419 420
v 4097.4371 -124.9606 265.6920
v 4097.4451 -124.9606 278.0666
v 4099.4482 -129.7899 278.0612
f 421 422 423
v 4097.4921 -124.9378 265.6920
v 4097.0362 -123.8205 278.0629
v 4097.5002 -124.9378 278.0616
f 424 425 426
v 4096.9730 -123.8444 265.6923
v 4096.9811 -123.8444 278.0679
v 4097.0362 -123.8205 278.0629
f 427 428 429
v 4076.6794 -148.8728 265.7048
v 4068.0803 -127.6300 278.0703
v 4068.0723 -127.6301 265.7107
f 430 431 432

g building_ID_806E865A-7C27-4207-BCD1-E350272EE981
v 4053.7210 -169.5592 275.9454
v 4052.3705 -170.1145 275.9313
v 4054.3429 -171.0698 275.9450
f 433 434 435
v 4028.8458 -181.6295 275.6778
v 4052.3705 -170.1145 275.9313
v 4026.4821 -175.9202 275.6795
f 436 437 438
v 4050.6318 -165.8890 275.9325
v 4026.4821 -175.9202 275.6795
v 4052.3705 -170.1145 275.9313
f 439 440 441
v 4054.3429 -171.0698 275.9450
v 4052.3705 -170.1145 275.9313
v 4028.8458 -181.6295 275.6778
f 442 443 444
v 4054.3350 -171.0698 263.6034
v 4054.3429 -171.0698 275.9450
v 4028.8458 -181.6295 275.6778
f 445 446 447
v 4053.7130 -169.5591 263.6038
v 4053.7210 -169.5592 275.9454
v 4054.3429 -171.0698 275.9450
f 448 449 450
v 4024.7456 -171.7457 263.6221
v 4024.7465 -171.7456 266.6520
v 4048.9398 -161.7915 266.6370
f 451 452 453
v 4050.6323 -165.8889 276.8005
v 4052.3711 -170.1145 276.7993
v 4052.5074 -165.1100 276.7993
f 454 455 456
v 4072.6261 -161.7819 276.7866
v 4052.5074 -165.1100 276.7993
v 4052.3711 -170.1145 276.7993
f 457 458 459
v 4038.8475 -132.2228 276.8088
v 4052.5074 -165.1100 276.7993
v 4057.3068 -124.5513 276.7973
f 460 461 462
v 4072.6261 -161.7819 276.7866
v 4057.3068 -124.5513 276.7973
v 4052.5074 -165.1100 276.7993
f 463 464 465
v 4057.2983 -124.5514 263.6027
v 4057.3068 -124.5513 276.7973
v 4072.6261 -161.7819 276.7866
f 466 467 468
v 4052.3705 -170.1145 275.9313
v 4052.3711 -170.1145 276.7993
v 4050.6318 -165.8890 275.9325
f 469 470 471
v 4072.6175 -161.7817 263.5920
v 4072.6261 -161.7819 276.7866
v 4053.7210 -169.5592 275.9454
f 472 473 474
v 4052.3711 -170.1145 276.7993
v 4053.7210 -169.5592 275.9454
v 4072.6261 -161.7819 276.7866
f 475 476 477
v 4053.7130 -169.5591 263.6038
v 4072.6175 -161.7817 263.5920
v 4053.7210 -169.5592 275.9454
f 478 479 480
v 4052.3711 -170.1145 276.7993
v 4052.3705 -170.1145 275.9313
v 4053.7210 -169.5592 275.9454
f 481 482 483
v 4026.4833 -175.9203 279.0594
v 4052.5089 -165.1100 279.0432
v 4021.1187 -154.4862 279.0634
f 484 485 486
v 4038.8490 -132.2218 279.0527
v 4021.1187 -154.4862 279.0634
v 4052.5089 -165.1100 279.0432
f 487 488 489
v 4021.1187 -154.4862 279.0634
v 4018.1194 -155.7201 279.0653
v 4026.4833 -175.9203 279.0594
f 490 491 492
v 4016.2234 -142.6182 279.0668
v 4038.8490 -132.2218 279.0527
v 4015.8727 -141.7702 279.0670
f 493 494 495
v 4021.1187 -154.4862 279.0634
v 4021.0056 -154.1328 279.0635
v 4020.9776 -154.1447 279.0635
f 496 497 498
v 4038.8490 -132.2218 279.0527
v 4016.2234 -142.6182 279.0668
v 4021.0056 -154.1328 279.0635
f 499 500 501
v 4021.1187 -154.4862 279.0634
v 4038.8490 -132.2218 279.0527
v 4021.0056 -154.1328 279.0635
f 502 503 504
v 4020.9696 -154.1447 266.6549
v 4020.9776 -154.1447 279.0635
v 4021.0056 -154.1328 279.0635
f 505 506 507
v 4021.1107 -154.4861 266.6548
v 4021.1187 -154.4862 279.0634
v 4020.9776 -154.1447 279.0635
f 508 509 510
v 4018.1115 -155.7201 266.6567
v 4018.1194 -155.7201 279.0653
v 4021.1187 -154.4862 279.0634
f 511 512 513
v 4048.9378 -161.7914 263.6071
v 4048.9398 -161.7915 266.6370
v 4037.0741 -132.9561 263.6154
f 514 515 516
v 4016.2155 -142.6182 266.6582
v 4015.8647 -141.7702 266.6584
v 4037.0761 -132.9551 266.6453
f 517 518 519
v 4037.0761 -132.9551 266.6453
v 4020.9977 -154.1328 266.6549
v 4016.2155 -142.6182 266.6582
f 520 521 522
v 4020.9977 -154.1328 266.6549
v 4037.0761 -132.9551 266.6453
v 4021.1107 -154.4861 266.6548
f 523 524 525
v 4020.9696 -154.1447 266.6549
v 4020.9977 -154.1328 266.6549
v 4021.1107 -154.4861 266.6548
f 526 527 528
v 4048.9398 -161.7915 266.6370
v 4021.1107 -154.4861 266.6548
v 4037.0761 -132.9551 266.6453
f 529 530 531
v 4024.7465 -171.7456 266.6520
v 4018.1115 -155.7201 266.6567
v 4021.1107 -154.4861 266.6548
f 532 533 534
v 4048.9398 -161.7915 266.6370
v 4024.7465 -171.7456 266.6520
v 4021.1107 -154.4861 266.6548
f 535 536 537
v 4052.5074 -165.1100 276.7993
v 4052.5089 -165.1100 279.0432
v 4050.6323 -165.8889 276.8005
f 538 539 540
v 4026.4833 -175.9203 279.0594
v 4050.6323 -165.8889 276.8005
v 4052.5089 -165.1100 279.0432
f 541 542 543
v 4050.6318 -165.8890 275.9325
v 4050.6323 -165.8889 276.8005
v 4026.4821 -175.9202 275.6795
f 544 545 546
v 4026.4833 -175.9203 279.0594
v 4026.4821 -175.9202 275.6795
v 4050.6323 -165.8889 276.8005
f 547 548 549
v 4038.8475 -132.2228 276.8088
v 4038.8490 -132.2218 279.0527
v 4052.5089 -165.1100 279.0432
f 550 551 552
v 4053.7130 -169.5591 263.6038
v 4028.8380 -181.6294 263.6192
v 4048.9378 -161.7914 263.6071
f 553 554 555
v 4024.7456 -171.7457 263.6221
v 4048.9378 -161.7914 263.6071
v 4028.8380 -181.6294 263.6192
f 556 557 558
v 4048.9378 -161.7914 263.6071
v 4037.0741 -132.9561 263.6154
v 4057.2983 -124.5514 263.6027
f 559 560 561
v 4053.7130 -169.5591 263.6038
v 4048.9378 -161.7914 263.6071
v 4072.6175 -161.7817 263.5920
f 562 563 564
v 4057.2983 -124.5514 263.6027
v 4072.6175 -161.7817 263.5920
v 4048.9378 -161.7914 263.6071
f 565 566 567
v 4028.8380 -181.6294 263.6192
v 4053.7130 -169.5591 263.6038
v 4054.3350 -171.0698 263.6034
f 568 569 570
v 4026.4821 -175.9202 275.6795
v 4024.7465 -171.7456 266.6520
v 4028.8458 -181.6295 275.6778
f 571 572 573
v 4028.8380 -181.6294 263.6192
v 4028.8458 -181.6295 275.6778
v 4024.7465 -171.7456 266.6520
f 574 575 576
v 4026.4821 -175.9202 275.6795
v 4026.4833 -175.9203 279.0594
v 4018.1194 -155.7201 279.0653
f 577 578 579
v 4026.4821 -175.9202 275.6795
v 4018.1115 -155.7201 266.6567
v 4024.7465 -171.7456 266.6520
f 580 581 582
v 4028.8380 -181.6294 263.6192
v 4024.7465 -171.7456 266.6520
v 4024.7456 -171.7457 263.6221
f 583 584 585
v 4018.1194 -155.7201 279.0653
v 4018.1115 -155.7201 266.6567
v 4026.4821 -175.9202 275.6795
f 586 587 588
v 4038.8475 -132.2228 276.8088
v 4037.0761 -132.9551 266.6453
v 4015.8647 -141.7702 266.6584
f 589 590 591
v 4057.2983 -124.5514 263.6027
v 4037.0741 -132.9561 263.6154
v 4037.0761 -132.9551 266.6453
f 592 593 594
v 4038.8475 -132.2228 276.8088
v 4015.8647 -141.7702 266.6584
v 4015.8727 -141.7702 279.0670
f 595 596 597
v 4015.8727 -141.7702 279.0670
v 4038.8490 -132.2218 279.0527
v 4038.8475 -132.2228 276.8088
f 598 599 600
v 4057.3068 -124.5513 276.7973
v 4057.2983 -124.5514 263.6027
v 4037.0761 -132.9551 266.6453
f 601 602 603
v 4038.8475 -132.2228 276.8088
v 4057.3068 -124.5513 276.7973
v 4037.0761 -132.9551 266.6453
f 604 605 606
v 4020.9977 -154.1328 266.6549
v 4021.0056 -154.1328 279.0635
v 4016.2234 -142.6182 279.0668
f 607 608 609
v 4015.8727 -141.7702 279.0670
v 4015.8647 -141.7702 266.6584
v 4016.2155 -142.6182 266.6582
f 610 611 612
v 4054.3350 -171.0698 263.6034
v 4028.8458 -181.6295 275.6778
v 4028.8380 -181.6294 263.6192
f 613 614 615
v 4053.7130 -169.5591 263.6038
v 4054.3429 -171.0698 275.9450
v 4054.3350 -171.0698 263.6034
f 616 617 618
v 4024.7456 -171.7457 263.6221
v 4048.9398 -161.7915 266.6370
v 4048.9378 -161.7914 263.6071
f 619 620 621
v 4057.2983 -124.5514 263.6027
v 4072.6261 -161.7819 276.7866
v 4072.6175 -161.7817 263.5920
f 622 623 624
v 4052.3711 -170.1145 276.7993
v 4050.6323 -165.8889 276.8005
v 4050.6318 -165.8890 275.9325
f 625 626 627
v 4020.9696 -154.1447 266.6549
v 4021.0056 -154.1328 279.0635
v 4020.9977 -154.1328 266.6549
f 628 629 630
v 4021.1107 -154.4861 266.6548
v 4020.9776 -154.1447 279.0635
v 4020.9696 -154.1447 266.6549
f 631 632 633
v 4018.1115 -155.7201 266.6567
v 4021.1187 -154.4862 279.0634
v 4021.1107 -154.4861 266.6548
f 634 635 636
v 4048.9398 -161.7915 266.6370
v 4037.0761 -132.9551 266.6453
v 4037.0741 -132.9561 263.6154
f 637 638 639
v 4038.8475 -132.2228 276.8088
v 4052.5089 -165.1100 279.0432
v 4052.5074 -165.1100 276.7993
f 640 641 642
v 4020.9977 -154.1328 266.6549
v 4016.2234 -142.6182 279.0668
v 4016.2155 -142.6182 266.6582
f 643 644 645
v 4015.8727 -141.7702 279.0670
v 4016.2155 -142.6182 266.6582
v 4016.2234 -142.6182 279.0668
f 646 647 648

g building_ID_D9398674-DA0A-446D-9006-BC3A71544A9F
v 4030.1848 -185.3520 275.6749
v 4030.1908 -185.3501 275.6749
v 4028.6906 -181.6931 275.6759
f 649 650 651
v 4029.4300 -183.5230 263.6188
v 4030.1770 -185.3520 263.6183
v 4030.1848 -185.3520 275.6749
f 652 653 654
v 4028.6906 -181.6931 275.6759
v 4028.6829 -181.6930 263.6193
v 4029.4300 -183.5230 263.6188
f 655 656 657
v 4030.1831 -185.3500 263.6183
v 4030.1908 -185.3501 275.6749
v 4030.1848 -185.3520 275.6749
f 658 659 660
v 4054.3350 -171.0698 263.6034
v 4054.3429 -171.0698 275.9450
v 4054.3489 -171.0838 275.9450
f 661 662 663
v 4078.9611 -212.7042 278.7706
v 4061.1143 -169.3319 278.7837
v 4047.9988 -173.6968 278.7919
f 664 665 666
v 4047.9988 -173.6968 278.7919
v 4061.1143 -169.3319 278.7837
v 4059.6905 -168.8861 278.7846
f 667 668 669
v 4030.4640 -186.0118 278.8026
v 4047.9988 -173.6968 278.7919
v 4028.6927 -181.6921 278.8038
f 670 671 672
v 4033.2174 -192.6191 278.8007
v 4078.5300 -213.8680 278.7708
v 4047.9988 -173.6968 278.7919
f 673 674 675
v 4047.9988 -173.6968 278.7919
v 4078.5300 -213.8680 278.7708
v 4078.9611 -212.7042 278.7706
f 676 677 678
v 4047.3321 -226.7055 278.7902
v 4078.5300 -213.8680 278.7708
v 4033.2174 -192.6191 278.8007
f 679 680 681
v 4030.4640 -186.0118 278.8026
v 4033.2174 -192.6191 278.8007
v 4047.9988 -173.6968 278.7919
f 682 683 684
v 4033.2076 -192.6190 263.6162
v 4033.2174 -192.6191 278.8007
v 4030.4640 -186.0118 278.8026
f 685 686 687
v 4047.3222 -226.7053 263.6057
v 4047.3321 -226.7055 278.7902
v 4033.2174 -192.6191 278.8007
f 688 689 690
v 4078.5202 -213.8679 263.5863
v 4078.5300 -213.8680 278.7708
v 4047.3321 -226.7055 278.7902
f 691 692 693
v 4078.9512 -212.7040 263.5861
v 4078.9611 -212.7042 278.7706
v 4078.5300 -213.8680 278.7708
f 694 695 696
v 4061.1045 -169.3319 263.5992
v 4061.1143 -169.3319 278.7837
v 4078.9611 -212.7042 278.7706
f 697 698 699
v 4059.6807 -168.8861 263.6001
v 4059.6905 -168.8861 278.7846
v 4061.1143 -169.3319 278.7837
f 700 701 702
v 4054.3429 -171.0698 275.9450
v 4048.3873 -173.5358 275.8827
v 4054.3489 -171.0838 275.9450
f 703 704 705
v 4047.9950 -173.6957 263.6074
v 4048.3873 -173.5358 275.8827
v 4054.3350 -171.0698 263.6034
f 706 707 708
v 4030.1831 -185.3500 263.6183
v 4030.4543 -186.0117 263.6181
v 4030.1908 -185.3501 275.6749
f 709 710 711
v 4030.4640 -186.0118 278.8026
v 4030.1908 -185.3501 275.6749
v 4030.4543 -186.0117 263.6181
f 712 713 714
v 4028.6906 -181.6931 275.6759
v 4030.1908 -185.3501 275.6749
v 4028.6927 -181.6921 278.8038
f 715 716 717
v 4030.4640 -186.0118 278.8026
v 4028.6927 -181.6921 278.8038
v 4030.1908 -185.3501 275.6749
f 718 719 720
v 4054.3489 -171.0838 275.9450
v 4048.3873 -173.5358 275.8827
v 4047.9988 -173.6968 278.7919
f 721 722 723
v 4059.6807 -168.8861 263.6001
v 4054.3489 -171.0838 275.9450
v 4059.6905 -168.8861 278.7846
f 724 725 726
v 4047.9988 -173.6968 278.7919
v 4059.6905 -168.8861 278.7846
v 4054.3489 -171.0838 275.9450
f 727 728 729
v 4054.3489 -171.0838 275.9450
v 4059.6807 -168.8861 263.6001
v 4054.3409 -171.0838 263.6034
f 730 731 732
v 4028.6906 -181.6931 275.6759
v 4047.9950 -173.6957 263.6074
v 4028.6829 -181.6930 263.6193
f 733 734 735
v 4028.6906 -181.6931 275.6759
v 4028.6927 -181.6921 278.8038
v 4047.9988 -173.6968 278.7919
f 736 737 738
v 4028.6906 -181.6931 275.6759
v 4048.3873 -173.5358 275.8827
v 4047.9950 -173.6957 263.6074
f 739 740 741
v 4047.9988 -173.6968 278.7919
v 4048.3873 -173.5358 275.8827
v 4028.6906 -181.6931 275.6759
f 742 743 744
v 4054.3409 -171.0838 263.6034
v 4061.1045 -169.3319 263.5992
v 4078.9512 -212.7040 263.5861
f 745 746 747
v 4078.5202 -213.8679 263.5863
v 4047.9950 -173.6957 263.6074
v 4078.9512 -212.7040 263.5861
f 748 749 750
v 4061.1045 -169.3319 263.5992
v 4054.3409 -171.0838 263.6034
v 4059.6807 -168.8861 263.6001
f 751 752 753
v 4054.3409 -171.0838 263.6034
v 4047.9950 -173.6957 263.6074
v 4054.3350 -171.0698 263.6034
f 754 755 756
v 4047.9950 -173.6957 263.6074
v 4054.3409 -171.0838 263.6034
v 4078.9512 -212.7040 263.5861
f 757 758 759
v 4078.5202 -213.8679 263.5863
v 4033.2076 -192.6190 263.6162
v 4047.9950 -173.6957 263.6074
f 760 761 762
v 4047.9950 -173.6957 263.6074
v 4033.2076 -192.6190 263.6162
v 4030.4543 -186.0117 263.6181
f 763 764 765
v 4030.1831 -185.3500 263.6183
v 4047.9950 -173.6957 263.6074
v 4030.4543 -186.0117 263.6181
f 766 767 768
v 4029.4300 -183.5230 263.6188
v 4028.6829 -181.6930 263.6193
v 4047.9950 -173.6957 263.6074
f 769 770 771
v 4030.1831 -185.3500 263.6183
v 4029.4300 -183.5230 263.6188
v 4047.9950 -173.6957 263.6074
f 772 773 774
v 4029.4300 -183.5230 263.6188
v 4030.1831 -185.3500 263.6183
v 4030.1770 -185.3520 263.6183
f 775 776 777
v 4047.3222 -226.7053 263.6057
v 4033.2076 -192.6190 263.6162
v 4078.5202 -213.8679 263.5863
f 778 779 780
v 4028.6906 -181.6931 275.6759
v 4029.4300 -183.5230 263.6188
v 4030.1848 -185.3520 275.6749
f 781 782 783
v 4030.1831 -185.3500 263.6183
v 4030.1848 -185.3520 275.6749
v 4030.1770 -185.3520 263.6183
f 784 785 786
v 4054.3350 -171.0698 263.6034
v 4054.3489 -171.0838 275.9450
v 4054.3409 -171.0838 263.6034
f 787 788 789
v 4033.2076 -192.6190 263.6162
v 4030.4640 -186.0118 278.8026
v 4030.4543 -186.0117 263.6181
f 790 791 792
v 4047.3222 -226.7053 263.6057
v 4033.2174 -192.6191 278.8007
v 4033.2076 -192.6190 263.6162
f 793 794 795
v 4078.5202 -213.8679 263.5863
v 4047.3321 -226.7055 278.7902
v 4047.3222 -226.7053 263.6057
f 796 797 798
v 4078.9512 -212.7040 263.5861
v 4078.5300 -213.8680 278.7708
v 4078.5202 -213.8679 263.5863
f 799 800 801
v 4061.1045 -169.3319 263.5992
v 4078.9611 -212.7042 278.7706
v 4078.9512 -212.7040 263.5861
f 802 803 804
v 4059.6807 -168.8861 263.6001
v 4061.1143 -169.3319 278.7837
v 4061.1045 -169.3319 263.5992
f 805 806 807
v 4048.3873 -173.5358 275.8827
v 4054.3429 -171.0698 275.9450
v 4054.3350 -171.0698 263.6034
f 808 809 810

g building_ID_A85F9961-67E7-4AE5-9F3B-AC15E2E8C2F5
v 4029.8466 -189.2671 275.9600
v 4043.9274 -218.7814 275.9498
v 4031.5244 -188.5606 275.9590
f 811 812 813
v 4036.9511 -221.5507 275.9541
v 4029.8466 -189.2671 275.9600
v 4019.0185 -228.9386 275.9651
f 814 815 816
v 4028.7724 -186.7132 275.9607
v 4019.0185 -228.9386 275.9651
v 4029.8466 -189.2671 275.9600
f 817 818 819
v 4036.9511 -221.5507 275.9541
v 4043.9274 -218.7814 275.9498
v 4029.8466 -189.2671 275.9600
f 820 821 822
v 4043.9274 -218.7814 275.9498
v 4043.9721 -218.8895 275.9497
v 4044.0763 -218.8458 275.9497
f 823 824 825
v 4036.9511 -221.5507 275.9541
v 4036.9869 -221.6368 275.9540
v 4043.9274 -218.7814 275.9498
f 826 827 828
v 4043.9274 -218.7814 275.9498
v 4044.0763 -218.8458 275.9497
v 4031.5244 -188.5606 275.9590
f 829 830 831
v 3987.8489 -211.3835 275.9853
v 4001.1381 -236.3057 275.9761
v 4019.0185 -228.9386 275.9651
f 832 833 834
v 3985.1405 -204.8253 275.9875
v 3987.8489 -211.3835 275.9853
v 4019.0185 -228.9386 275.9651
f 835 836 837
v 3985.1405 -204.8253 275.9875
v 4019.0185 -228.9386 275.9651
v 4028.7724 -186.7132 275.9607
f 838 839 840
v 3987.6607 -211.4609 275.9855
v 3998.3838 -237.5214 275.9777
v 3987.8489 -211.3835 275.9853
f 841 842 843
v 3998.3838 -237.5214 275.9777
v 4002.4833 -239.5693 275.9751
v 4001.1381 -236.3057 275.9761
f 844 845 846
v 4002.4833 -239.5693 275.9751
v 3998.3838 -237.5214 275.9777
v 3999.6973 -240.7159 275.9768
f 847 848 849
v 3998.3838 -237.5214 275.9777
v 4001.1381 -236.3057 275.9761
v 3987.8489 -211.3835 275.9853
f 850 851 852
v 3985.1326 -204.8252 263.6459
v 3985.1405 -204.8253 275.9875
v 4028.7724 -186.7132 275.9607
f 853 854 855
v 3987.8411 -211.3833 263.6437
v 3987.8489 -211.3835 275.9853
v 3985.1405 -204.8253 275.9875
f 856 857 858
v 3999.6894 -240.7156 263.6352
v 3999.6973 -240.7159 275.9768
v 3998.3838 -237.5214 275.9777
f 859 860 861
v 4038.2944 -224.8301 263.6115
v 4038.2950 -224.8302 264.6565
v 4002.4761 -239.5691 264.6785
f 862 863 864
v 3999.6894 -240.7156 263.6352
v 4038.2944 -224.8301 263.6115
v 4002.4761 -239.5691 264.6785
f 865 866 867
v 4002.4761 -239.5691 264.6785
v 3999.6973 -240.7159 275.9768
v 3999.6894 -240.7156 263.6352
f 868 869 870
v 4002.4833 -239.5693 275.9751
v 3999.6973 -240.7159 275.9768
v 4002.4761 -239.5691 264.6785
f 871 872 873
v 4043.9195 -218.7813 263.6082
v 4043.9274 -218.7814 275.9498
v 4036.9796 -221.6367 264.6574
f 874 875 876
v 4043.9195 -218.7813 263.6082
v 4036.9796 -221.6367 264.6574
v 4036.9790 -221.6367 263.6124
f 877 878 879
v 4043.9642 -218.8893 263.6081
v 4043.9721 -218.8895 275.9497
v 4043.9274 -218.7814 275.9498
f 880 881 882
v 4044.0683 -218.8457 263.6081
v 4044.0763 -218.8458 275.9497
v 4043.9721 -218.8895 275.9497
f 883 884 885
v 4031.5165 -188.5605 263.6174
v 4031.5244 -188.5606 275.9590
v 4044.0763 -218.8458 275.9497
f 886 887 888
v 4029.8386 -189.2670 263.6184
v 4029.8466 -189.2671 275.9600
v 4031.5244 -188.5606 275.9590
f 889 890 891
v 4028.7645 -186.7132 263.6191
v 4028.7724 -186.7132 275.9607
v 4029.8466 -189.2671 275.9600
f 892 893 894
v 4070.8035 -303.7005 287.5386
v 4036.9586 -221.5508 287.5637
v 4019.0246 -228.9387 285.3198
f 895 896 897
v 4019.0246 -228.9387 285.3198
v 4052.8874 -311.1305 285.2947
v 4070.8035 -303.7005 287.5386
f 898 899 900
v 4052.8874 -311.1305 285.2947
v 4019.0246 -228.9387 285.3198
v 4001.1452 -236.3059 287.1567
f 901 902 903
v 4001.1452 -236.3059 287.1567
v 4035.0309 -318.5368 287.1316
v 4052.8874 -311.1305 285.2947
f 904 905 906
v 4002.4761 -239.5691 264.6785
v 4052.8740 -311.1300 264.6434
v 4035.0165 -318.5362 264.6544
f 907 908 909
v 4070.7886 -303.7000 264.6324
v 4052.8740 -311.1300 264.6434
v 4038.2950 -224.8302 264.6565
f 910 911 912
v 4002.4761 -239.5691 264.6785
v 4038.2950 -224.8302 264.6565
v 4052.8740 -311.1300 264.6434
f 913 914 915
v 4002.4761 -239.5691 264.6785
v 4035.0165 -318.5362 264.6544
v 4002.4833 -239.5693 275.9751
f 916 917 918
v 4035.0309 -318.5368 287.1316
v 4002.4833 -239.5693 275.9751
v 4035.0165 -318.5362 264.6544
f 919 920 921
v 4001.1381 -236.3057 275.9761
v 4002.4833 -239.5693 275.9751
v 4001.1452 -236.3059 287.1567
f 922 923 924
v 4035.0309 -318.5368 287.1316
v 4001.1452 -236.3059 287.1567
v 4002.4833 -239.5693 275.9751
f 925 926 927
v 3985.3473 -242.8865 278.5456
v 3987.6623 -211.4610 278.5454
v 3974.5630 -216.8799 278.5533
f 928 929 930
v 3987.6623 -211.4610 278.5454
v 3985.3473 -242.8865 278.5456
v 3998.3855 -237.5214 278.5376
f 931 932 933
v 3985.3378 -242.8862 263.6442
v 3985.3473 -242.8865 278.5456
v 3974.5630 -216.8799 278.5533
f 934 935 936
v 3985.3473 -242.8865 278.5456
v 3998.3838 -237.5214 275.9777
v 3998.3855 -237.5214 278.5376
f 937 938 939
v 3993.8721 -239.3742 263.6390
v 3998.3760 -237.5212 263.6362
v 3998.3838 -237.5214 275.9777
f 940 941 942
v 3985.3378 -242.8862 263.6442
v 3993.8721 -239.3742 263.6390
v 3985.3473 -242.8865 278.5456
f 943 944 945
v 3998.3838 -237.5214 275.9777
v 3985.3473 -242.8865 278.5456
v 3993.8721 -239.3742 263.6390
f 946 947 948
v 3987.6607 -211.4609 275.9855
v 3987.6623 -211.4610 278.5454
v 3998.3855 -237.5214 278.5376
f 949 950 951
v 3983.1599 -213.3188 263.6466
v 3985.3378 -242.8862 263.6442
v 3974.5535 -216.8797 263.6518
f 952 953 954
v 3987.8411 -211.3833 263.6437
v 3998.3760 -237.5212 263.6362
v 3983.1599 -213.3188 263.6466
f 955 956 957
v 3983.1599 -213.3188 263.6466
v 3993.8721 -239.3742 263.6390
v 3985.3378 -242.8862 263.6442
f 958 959 960
v 3998.3760 -237.5212 263.6362
v 4036.9790 -221.6367 263.6124
v 3999.6894 -240.7156 263.6352
f 961 962 963
v 3998.3760 -237.5212 263.6362
v 3993.8721 -239.3742 263.6390
v 3983.1599 -213.3188 263.6466
f 964 965 966
v 4036.9790 -221.6367 263.6124
v 3998.3760 -237.5212 263.6362
v 3987.8411 -211.3833 263.6437
f 967 968 969
v 4029.8386 -189.2670 263.6184
v 3985.1326 -204.8252 263.6459
v 4028.7645 -186.7132 263.6191
f 970 971 972
v 4043.9195 -218.7813 263.6082
v 4029.8386 -189.2670 263.6184
v 4031.5165 -188.5605 263.6174
f 973 974 975
v 3987.8411 -211.3833 263.6437
v 4029.8386 -189.2670 263.6184
v 4036.9790 -221.6367 263.6124
f 976 977 978
v 4036.9790 -221.6367 263.6124
v 4038.2944 -224.8301 263.6115
v 3999.6894 -240.7156 263.6352
f 979 980 981
v 4044.0683 -218.8457 263.6081
v 4043.9642 -218.8893 263.6081
v 4043.9195 -218.7813 263.6082
f 982 983 984
v 4031.5165 -188.5605 263.6174
v 4044.0683 -218.8457 263.6081
v 4043.9195 -218.7813 263.6082
f 985 986 987
v 4043.9195 -218.7813 263.6082
v 4036.9790 -221.6367 263.6124
v 4029.8386 -189.2670 263.6184
f 988 989 990
v 4029.8386 -189.2670 263.6184
v 3987.8411 -211.3833 263.6437
v 3985.1326 -204.8252 263.6459
f 991 992 993
v 4036.9869 -221.6368 275.9540
v 4036.9511 -221.5507 275.9541
v 4036.9586 -221.5508 287.5637
f 994 995 996
v 4038.2950 -224.8302 264.6565
v 4036.9796 -221.6367 264.6574
v 4036.9869 -221.6368 275.9540
f 997 998 999
v 4036.9869 -221.6368 275.9540
v 4036.9586 -221.5508 287.5637
v 4070.8035 -303.7005 287.5386
f 1000 1001 1002
v 4036.9869 -221.6368 275.9540
v 4070.7886 -303.7000 264.6324
v 4038.2950 -224.8302 264.6565
f 1003 1004 1005
v 4036.9790 -221.6367 263.6124
v 4036.9796 -221.6367 264.6574
v 4038.2944 -224.8301 263.6115
f 1006 1007 1008
v 4038.2950 -224.8302 264.6565
v 4038.2944 -224.8301 263.6115
v 4036.9796 -221.6367 264.6574
f 1009 1010 1011
v 4070.8035 -303.7005 287.5386
v 4070.7886 -303.7000 264.6324
v 4036.9869 -221.6368 275.9540
f 1012 1013 1014
v 4052.8740 -311.1300 264.6434
v 4070.7886 -303.7000 264.6324
v 4070.8035 -303.7005 287.5386
f 1015 1016 1017
v 4052.8874 -311.1305 285.2947
v 4052.8740 -311.1300 264.6434
v 4070.8035 -303.7005 287.5386
f 1018 1019 1020
v 4052.8740 -311.1300 264.6434
v 4052.8874 -311.1305 285.2947
v 4035.0165 -318.5362 264.6544
f 1021 1022 1023
v 4035.0309 -318.5368 287.1316
v 4035.0165 -318.5362 264.6544
v 4052.8874 -311.1305 285.2947
f 1024 1025 1026
v 4019.0246 -228.9387 285.3198
v 4019.0185 -228.9386 275.9651
v 4001.1381 -236.3057 275.9761
f 1027 1028 1029
v 4001.1452 -236.3059 287.1567
v 4019.0246 -228.9387 285.3198
v 4001.1381 -236.3057 275.9761
f 1030 1031 1032
v 4019.0185 -228.9386 275.9651
v 4036.9586 -221.5508 287.5637
v 4036.9511 -221.5507 275.9541
f 1033 1034 1035
v 4019.0246 -228.9387 285.3198
v 4036.9586 -221.5508 287.5637
v 4019.0185 -228.9386 275.9651
f 1036 1037 1038
v 3983.1599 -213.3188 263.6466
v 3974.5535 -216.8797 263.6518
v 3974.5630 -216.8799 278.5533
f 1039 1040 1041
v 3987.6607 -211.4609 275.9855
v 3983.1599 -213.3188 263.6466
v 3974.5630 -216.8799 278.5533
f 1042 1043 1044
v 3983.1599 -213.3188 263.6466
v 3987.6607 -211.4609 275.9855
v 3987.8411 -211.3833 263.6437
f 1045 1046 1047
v 3987.8489 -211.3835 275.9853
v 3987.8411 -211.3833 263.6437
v 3987.6607 -211.4609 275.9855
f 1048 1049 1050
v 3974.5630 -216.8799 278.5533
v 3987.6623 -211.4610 278.5454
v 3987.6607 -211.4609 275.9855
f 1051 1052 1053
v 3985.1326 -204.8252 263.6459
v 4028.7724 -186.7132 275.9607
v 4028.7645 -186.7132 263.6191
f 1054 1055 1056
v 3987.8411 -211.3833 263.6437
v 3985.1405 -204.8253 275.9875
v 3985.1326 -204.8252 263.6459
f 1057 1058 1059
v 3999.6894 -240.7156 263.6352
v 3998.3838 -237.5214 275.9777
v 3998.3760 -237.5212 263.6362
f 1060 1061 1062
v 4043.9274 -218.7814 275.9498
v 4036.9869 -221.6368 275.9540
v 4036.9796 -221.6367 264.6574
f 1063 1064 1065
v 4043.9642 -218.8893 263.6081
v 4043.9274 -218.7814 275.9498
v 4043.9195 -218.7813 263.6082
f 1066 1067 1068
v 4044.0683 -218.8457 263.6081
v 4043.9721 -218.8895 275.9497
v 4043.9642 -218.8893 263.6081
f 1069 1070 1071
v 4031.5165 -188.5605 263.6174
v 4044.0763 -218.8458 275.9497
v 4044.0683 -218.8457 263.6081
f 1072 1073 1074
v 4029.8386 -189.2670 263.6184
v 4031.5244 -188.5606 275.9590
v 4031.5165 -188.5605 263.6174
f 1075 1076 1077
v 4028.7645 -186.7132 263.6191
v 4029.8466 -189.2671 275.9600
v 4029.8386 -189.2670 263.6184
f 1078 1079 1080
v 3985.3378 -242.8862 263.6442
v 3974.5630 -216.8799 278.5533
v 3974.5535 -216.8797 263.6518
f 1081 1082 1083
v 3987.6607 -211.4609 275.9855
v 3998.3855 -237.5214 278.5376
v 3998.3838 -237.5214 275.9777
f 1084 1085 1086

g building_ID_4B1B62D8-0D4B-41D3-8735-89667782C29D
v 3957.3507 -113.8102 265.6807
v 3961.4556 -121.3140 265.6780
v 3956.2798 -123.4872 265.6812
f 1087 1088 1089
v 3961.4556 -121.3140 265.6780
v 3957.3507 -113.8102 265.6807
v 3958.1646 -113.4713 265.6802
f 1090 1091 1092
v 3953.0359 -115.6215 265.6833
v 3957.3507 -113.8102 265.6807
v 3956.2798 -123.4872 265.6812
f 1093 1094 1095
v 3961.4556 -121.3140 265.6780
v 3961.4556 -121.3140 265.6890
v 3956.2798 -123.4872 265.6812
f 1096 1097 1098
v 3958.1646 -113.4713 265.6802
v 3958.1646 -113.4703 265.6912
v 3961.4556 -121.3140 265.6890
f 1099 1100 1101
v 3957.8935 -127.3783 279.9876
v 3962.7524 -139.1662 276.0984
v 3995.2349 -125.7212 276.0255
f 1102 1103 1104
v 3957.8935 -127.3783 279.9876
v 3995.2349 -125.7212 276.0255
v 3990.3015 -113.7751 279.9676
f 1105 1106 1107
v 3985.5152 -102.1975 276.4200
v 3953.0427 -115.6215 276.3859
v 3957.8935 -127.3783 279.9876
f 1108 1109 1110
v 3953.0427 -115.6215 276.3859
v 3985.5152 -102.1975 276.4200
v 3985.4427 -102.0223 276.3660
f 1111 1112 1113
v 3990.3015 -113.7751 279.9676
v 3985.5152 -102.1975 276.4200
v 3957.8935 -127.3783 279.9876
f 1114 1115 1116
v 3995.2284 -125.7213 265.6678
v 3962.7524 -139.1662 276.0984
v 3962.7458 -139.1662 265.6877
f 1117 1118 1119
v 3961.4556 -121.3140 265.6890
v 3985.4358 -102.0224 265.6744
v 3990.2923 -113.7752 265.6711
f 1120 1121 1122
v 3990.2923 -113.7752 265.6711
v 3995.2284 -125.7213 265.6678
v 3961.4556 -121.3140 265.6890
f 1123 1124 1125
v 3961.4556 -121.3140 265.6890
v 3958.1646 -113.4703 265.6912
v 3985.4358 -102.0224 265.6744
f 1126 1127 1128
v 3956.2799 -123.4872 265.6922
v 3961.4556 -121.3140 265.6890
v 3962.7458 -139.1662 265.6877
f 1129 1130 1131
v 3962.7458 -139.1662 265.6877
v 3961.4556 -121.3140 265.6890
v 3995.2284 -125.7213 265.6678
f 1132 1133 1134
v 3985.4427 -102.0223 276.3660
v 3953.0413 -115.6216 274.1120
v 3953.0427 -115.6215 276.3859
f 1135 1136 1137
v 3953.0359 -115.6215 265.6833
v 3953.0413 -115.6216 274.1120
v 3957.3507 -113.8102 265.6807
f 1138 1139 1140
v 3958.1646 -113.4703 265.6912
v 3953.0413 -115.6216 274.1120
v 3985.4358 -102.0224 265.6744
f 1141 1142 1143
v 3953.0413 -115.6216 274.1120
v 3958.1646 -113.4703 265.6912
v 3957.3507 -113.8102 265.6807
f 1144 1145 1146
v 3957.3507 -113.8102 265.6807
v 3958.1646 -113.4703 265.6912
v 3958.1646 -113.4713 265.6802
f 1147 1148 1149
v 3985.4358 -102.0224 265.6744
v 3953.0413 -115.6216 274.1120
v 3985.4427 -102.0223 276.3660
f 1150 1151 1152
v 3962.7458 -139.1662 265.6877
v 3962.7524 -139.1662 276.0984
v 3953.0427 -115.6215 276.3859
f 1153 1154 1155
v 3953.0413 -115.6216 274.1120
v 3956.2799 -123.4872 265.6922
v 3962.7458 -139.1662 265.6877
f 1156 1157 1158
v 3962.7458 -139.1662 265.6877
v 3953.0427 -115.6215 276.3859
v 3953.0413 -115.6216 274.1120
f 1159 1160 1161
v 3953.0359 -115.6215 265.6833
v 3956.2798 -123.4872 265.6812
v 3956.2799 -123.4872 265.6922
f 1162 1163 1164
v 3953.0359 -115.6215 265.6833
v 3956.2799 -123.4872 265.6922
v 3953.0413 -115.6216 274.1120
f 1165 1166 1167
v 3962.7524 -139.1662 276.0984
v 3957.8935 -127.3783 279.9876
v 3953.0427 -115.6215 276.3859
f 1168 1169 1170
v 3985.4358 -102.0224 265.6744
v 3985.4427 -102.0223 276.3660
v 3985.5152 -102.1975 276.4200
f 1171 1172 1173
v 3990.3015 -113.7751 279.9676
v 3990.2923 -113.7752 265.6711
v 3985.4358 -102.0224 265.6744
f 1174 1175 1176
v 3990.3015 -113.7751 279.9676
v 3985.4358 -102.0224 265.6744
v 3985.5152 -102.1975 276.4200
f 1177 1178 1179
v 3995.2284 -125.7213 265.6678
v 3990.2923 -113.7752 265.6711
v 3995.2349 -125.7212 276.0255
f 1180 1181 1182
v 3990.2923 -113.7752 265.6711
v 3990.3015 -113.7751 279.9676
v 3995.2349 -125.7212 276.0255
f 1183 1184 1185
v 3961.4556 -121.3140 265.6890
v 3956.2799 -123.4872 265.6922
v 3956.2798 -123.4872 265.6812
f 1186 1187 1188
v 3958.1646 -113.4713 265.6802
v 3961.4556 -121.3140 265.6890
v 3961.4556 -121.3140 265.6780
f 1189 1190 1191
v 3962.7524 -139.1662 276.0984
v 3995.2284 -125.7213 265.6678
v 3995.2349 -125.7212 276.0255
f 1192 1193 1194

g building_ID_86DB75BA-F67A-4593-839C-40B83870B723
v 3938.8459 -94.0249 265.7034
v 3938.7167 -94.0786 265.7035
v 3938.5936 -93.7842 265.7036
f 1195 1196 1197
v 3975.5805 -78.2583 265.6809
v 3938.8459 -94.0249 265.7034
v 3938.5936 -93.7842 265.7036
f 1198 1199 1200
v 3977.8709 -83.7134 265.6794
v 3943.6363 -105.8076 265.7003
v 3938.8459 -94.0249 265.7034
f 1201 1202 1203
v 3980.5903 -90.2946 265.6776
v 3943.6363 -105.8076 265.7003
v 3977.8709 -83.7134 265.6794
f 1204 1205 1206
v 3953.0250 -115.5945 265.6943
v 3943.6363 -105.8076 265.7003
v 3980.5903 -90.2946 265.6776
f 1207 1208 1209
v 3953.0359 -115.6215 265.6943
v 3953.0250 -115.5945 265.6943
v 3985.4358 -102.0224 265.6744
f 1210 1211 1212
v 3953.0250 -115.5945 265.6943
v 3948.3920 -117.5051 265.6972
v 3943.6363 -105.8076 265.7003
f 1213 1214 1215
v 3953.0250 -115.5945 265.6943
v 3980.5903 -90.2946 265.6776
v 3985.4358 -102.0224 265.6744
f 1216 1217 1218
v 3977.8709 -83.7134 265.6794
v 3938.8459 -94.0249 265.7034
v 3975.5805 -78.2583 265.6809
f 1219 1220 1221
v 3953.0317 -115.5945 276.3949
v 3985.4427 -102.0223 276.3660
v 3980.5993 -90.2945 279.9741
f 1222 1223 1224
v 3943.6453 -105.8075 279.9968
v 3953.0317 -115.5945 276.3949
v 3980.5993 -90.2945 279.9741
f 1225 1226 1227
v 3953.0427 -115.6215 276.3859
v 3985.4427 -102.0223 276.3660
v 3953.0317 -115.5945 276.3949
f 1228 1229 1230
v 3943.6453 -105.8075 279.9968
v 3948.3987 -117.5050 276.4068
v 3953.0317 -115.5945 276.3949
f 1231 1232 1233
v 3938.8524 -94.0248 276.1171
v 3975.5871 -78.2582 275.9966
v 3938.6000 -93.7842 276.0193
f 1234 1235 1236
v 3943.6453 -105.8075 279.9968
v 3977.8786 -83.7133 277.8020
v 3938.8524 -94.0248 276.1171
f 1237 1238 1239
v 3975.5871 -78.2582 275.9966
v 3938.8524 -94.0248 276.1171
v 3977.8786 -83.7133 277.8020
f 1240 1241 1242
v 3943.6453 -105.8075 279.9968
v 3980.5993 -90.2945 279.9741
v 3977.8786 -83.7133 277.8020
f 1243 1244 1245
v 3938.7233 -94.0785 276.1162
v 3938.8524 -94.0248 276.1171
v 3938.6000 -93.7842 276.0193
f 1246 1247 1248
v 3953.0317 -115.5945 276.3949
v 3948.3920 -117.5051 265.6972
v 3953.0250 -115.5945 265.6943
f 1249 1250 1251
v 3953.0359 -115.6215 265.6943
v 3953.0427 -115.6215 276.3859
v 3953.0250 -115.5945 265.6943
f 1252 1253 1254
v 3953.0250 -115.5945 265.6943
v 3953.0427 -115.6215 276.3859
v 3953.0317 -115.5945 276.3949
f 1255 1256 1257
v 3985.4358 -102.0224 265.6744
v 3985.4427 -102.0223 276.3660
v 3953.0359 -115.6215 265.6943
f 1258 1259 1260
v 3953.0427 -115.6215 276.3859
v 3953.0359 -115.6215 265.6943
v 3985.4427 -102.0223 276.3660
f 1261 1262 1263
v 3938.5936 -93.7842 265.7036
v 3938.7167 -94.0786 265.7035
v 3938.6000 -93.7842 276.0193
f 1264 1265 1266
v 3938.8459 -94.0249 265.7034
v 3938.8524 -94.0248 276.1171
v 3938.7167 -94.0786 265.7035
f 1267 1268 1269
v 3938.7167 -94.0786 265.7035
v 3938.8524 -94.0248 276.1171
v 3938.7233 -94.0785 276.1162
f 1270 1271 1272
v 3975.5805 -78.2583 265.6809
v 3975.5871 -78.2582 275.9966
v 3977.8709 -83.7134 265.6794
f 1273 1274 1275
v 3975.5871 -78.2582 275.9966
v 3975.5805 -78.2583 265.6809
v 3938.6000 -93.7842 276.0193
f 1276 1277 1278
v 3938.6000 -93.7842 276.0193
v 3975.5805 -78.2583 265.6809
v 3938.5936 -93.7842 265.7036
f 1279 1280 1281
v 3980.5903 -90.2946 265.6776
v 3977.8709 -83.7134 265.6794
v 3977.8786 -83.7133 277.8020
f 1282 1283 1284
v 3980.5993 -90.2945 279.9741
v 3985.4427 -102.0223 276.3660
v 3977.8786 -83.7133 277.8020
f 1285 1286 1287
v 3980.5903 -90.2946 265.6776
v 3977.8786 -83.7133 277.8020
v 3985.4358 -102.0224 265.6744
f 1288 1289 1290
v 3985.4427 -102.0223 276.3660
v 3985.4358 -102.0224 265.6744
v 3977.8786 -83.7133 277.8020
f 1291 1292 1293
v 3948.3987 -117.5050 276.4068
v 3943.6453 -105.8075 279.9968
v 3943.6363 -105.8076 265.7003
f 1294 1295 1296
v 3943.6363 -105.8076 265.7003
v 3948.3920 -117.5051 265.6972
v 3948.3987 -117.5050 276.4068
f 1297 1298 1299
v 3938.8524 -94.0248 276.1171
v 3938.8459 -94.0249 265.7034
v 3943.6363 -105.8076 265.7003
f 1300 1301 1302
v 3943.6453 -105.8075 279.9968
v 3938.8524 -94.0248 276.1171
v 3943.6363 -105.8076 265.7003
f 1303 1304 1305
v 3948.3920 -117.5051 265.6972
v 3953.0317 -115.5945 276.3949
v 3948.3987 -117.5050 276.4068
f 1306 1307 1308
v 3938.7233 -94.0785 276.1162
v 3938.6000 -93.7842 276.0193
v 3938.7167 -94.0786 265.7035
f 1309 1310 1311
v 3975.5871 -78.2582 275.9966
v 3977.8786 -83.7133 277.8020
v 3977.8709 -83.7134 265.6794
f 1312 1313 1314

g building_ID_C489AA8C-DB1F-4FB6-8E18-82E763FA2C87
v 3822.0737 -149.0728 279.6439
v 3821.6084 -149.1895 279.6442
v 3823.0169 -154.8013 280.4961
f 1315 1316 1317
v 3894.1872 -130.9819 279.6007
v 3822.0737 -149.0728 279.6439
v 3895.5968 -136.5936 280.4527
f 1318 1319 1320
v 3823.0169 -154.8013 280.4961
v 3895.5968 -136.5936 280.4527
v 3822.0737 -149.0728 279.6439
f 1321 1322 1323
v 3821.6061 -149.1895 275.9463
v 3821.6084 -149.1895 279.6442
v 3822.0737 -149.0728 279.6439
f 1324 1325 1326
v 3824.9525 -160.3544 279.6418
v 3823.0169 -154.8013 280.4961
v 3824.4411 -160.4830 279.6421
f 1327 1328 1329
v 3895.5968 -136.5936 280.4527
v 3824.9525 -160.3544 279.6418
v 3897.0210 -142.2743 279.5987
f 1330 1331 1332
v 3823.0169 -154.8013 280.4961
v 3824.9525 -160.3544 279.6418
v 3895.5968 -136.5936 280.4527
f 1333 1334 1335
v 3824.9448 -160.3543 266.9793
v 3824.9451 -160.3543 267.5773
v 3824.4338 -160.4830 267.5776
f 1336 1337 1338
v 3821.6007 -149.1895 266.9816
v 3821.6011 -149.1895 267.5796
v 3822.0663 -149.0728 267.5793
f 1339 1340 1341
v 3895.5963 -136.5935 279.5997
v 3905.3184 -143.9735 279.5936
v 3909.2170 -142.9949 279.5912
f 1342 1343 1344
v 3897.0210 -142.2743 279.5987
v 3907.4457 -152.4511 279.5921
v 3905.3184 -143.9735 279.5936
f 1345 1346 1347
v 3905.3184 -143.9735 279.5936
v 3895.5963 -136.5935 279.5997
v 3897.0210 -142.2743 279.5987
f 1348 1349 1350
v 3909.2170 -142.9949 279.5912
v 3894.1872 -130.9819 279.6007
v 3895.5963 -136.5935 279.5997
f 1351 1352 1353
v 3894.1872 -130.9819 279.6007
v 3909.2170 -142.9949 279.5912
v 3884.5265 -44.5720 279.6079
f 1354 1355 1356
v 3887.6887 -157.4072 279.6040
v 3907.4457 -152.4511 279.5921
v 3897.0210 -142.2743 279.5987
f 1357 1358 1359
v 3890.7252 -169.5142 279.6018
v 3824.9554 -160.3684 279.6418
v 3807.7033 -190.4089 279.6513
f 1360 1361 1362
v 3887.6887 -157.4072 279.6040
v 3824.9554 -160.3684 279.6418
v 3890.7252 -169.5142 279.6018
f 1363 1364 1365
v 3824.9525 -160.3544 279.6418
v 3824.9554 -160.3684 279.6418
v 3887.6887 -157.4072 279.6040
f 1366 1367 1368
v 3887.6887 -157.4072 279.6040
v 3897.0210 -142.2743 279.5987
v 3824.9525 -160.3544 279.6418
f 1369 1370 1371
v 3807.7033 -190.4089 279.6513
v 3824.9554 -160.3684 279.6418
v 3813.6110 -163.1999 279.6485
f 1372 1373 1374
v 3810.7050 -151.6183 279.6506
v 3807.7033 -190.4089 279.6513
v 3813.6110 -163.1999 279.6485
f 1375 1376 1377
v 3894.1872 -130.9819 279.6007
v 3818.9699 -136.6506 279.6460
v 3821.9985 -148.7796 279.6440
f 1378 1379 1380
v 3816.1303 -125.3312 279.6480
v 3894.1872 -130.9819 279.6007
v 3813.5155 -112.9253 279.6499
f 1381 1382 1383
v 3894.1872 -130.9819 279.6007
v 3816.1303 -125.3312 279.6480
v 3818.9699 -136.6506 279.6460
f 1384 1385 1386
v 3813.5155 -112.9253 279.6499
v 3804.9329 -128.1412 279.6546
v 3816.1303 -125.3312 279.6480
f 1387 1388 1389
v 3810.2710 -101.5127 279.6520
v 3811.4084 -104.3818 279.6513
v 3884.5265 -44.5720 279.6079
f 1390 1391 1392
v 3894.1872 -130.9819 279.6007
v 3811.4084 -104.3818 279.6513
v 3813.5155 -112.9253 279.6499
f 1393 1394 1395
v 3811.4084 -104.3818 279.6513
v 3810.2710 -101.5127 279.6520
v 3811.0151 -104.4787 279.6515
f 1396 1397 1398
v 3810.2710 -101.5127 279.6520
v 3884.5265 -44.5720 279.6079
v 3789.5004 -68.5825 279.6649
f 1399 1400 1401
v 3822.0737 -149.0728 279.6439
v 3894.1872 -130.9819 279.6007
v 3821.9985 -148.7796 279.6440
f 1402 1403 1404
v 3807.7726 -139.4596 279.6527
v 3810.7050 -151.6183 279.6506
v 3821.9985 -148.7796 279.6440
f 1405 1406 1407
v 3807.7726 -139.4596 279.6527
v 3821.9985 -148.7796 279.6440
v 3818.9699 -136.6506 279.6460
f 1408 1409 1410
v 3789.5790 -118.8292 279.6640
v 3810.7050 -151.6183 279.6506
v 3807.7726 -139.4596 279.6527
f 1411 1412 1413
v 3804.9329 -128.1412 279.6546
v 3813.5155 -112.9253 279.6499
v 3789.5790 -118.8292 279.6640
f 1414 1415 1416
v 3807.7726 -139.4596 279.6527
v 3804.9329 -128.1412 279.6546
v 3789.5790 -118.8292 279.6640
f 1417 1418 1419
v 3798.5564 -104.4514 279.6589
v 3810.2710 -101.5127 279.6520
v 3789.5004 -68.5825 279.6649
f 1420 1421 1422
v 3807.7033 -190.4089 279.6513
v 3810.7050 -151.6183 279.6506
v 3789.5790 -118.8292 279.6640
f 1423 1424 1425
v 3884.5265 -44.5720 279.6079
v 3811.4084 -104.3818 279.6513
v 3894.1872 -130.9819 279.6007
f 1426 1427 1428
v 3789.4927 -68.5827 267.0023
v 3789.5004 -68.5825 279.6649
v 3884.5265 -44.5720 279.6079
f 1429 1430 1431
v 3798.5487 -104.4514 266.9963
v 3798.5564 -104.4514 279.6589
v 3789.5004 -68.5825 279.6649
f 1432 1433 1434
v 3810.2633 -101.5128 266.9894
v 3810.2710 -101.5127 279.6520
v 3798.5564 -104.4514 279.6589
f 1435 1436 1437
v 3811.0074 -104.4788 266.9889
v 3811.0151 -104.4787 279.6515
v 3810.2710 -101.5127 279.6520
f 1438 1439 1440
v 3811.4006 -104.3818 266.9887
v 3811.4084 -104.3818 279.6513
v 3811.0151 -104.4787 279.6515
f 1441 1442 1443
v 3813.5078 -112.9254 266.9873
v 3813.5155 -112.9253 279.6499
v 3811.4084 -104.3818 279.6513
f 1444 1445 1446
v 3789.5713 -118.8293 267.0014
v 3789.5790 -118.8292 279.6640
v 3813.5155 -112.9253 279.6499
f 1447 1448 1449
v 3807.6956 -190.4088 266.9887
v 3807.7033 -190.4089 279.6513
v 3789.5790 -118.8292 279.6640
f 1450 1451 1452
v 3890.7174 -169.5141 266.9393
v 3890.7252 -169.5142 279.6018
v 3807.7033 -190.4089 279.6513
f 1453 1454 1455
v 3887.6808 -157.4072 266.9414
v 3887.6887 -157.4072 279.6040
v 3890.7252 -169.5142 279.6018
f 1456 1457 1458
v 3907.4378 -152.4512 266.9295
v 3907.4457 -152.4511 279.5921
v 3887.6887 -157.4072 279.6040
f 1459 1460 1461
v 3905.3105 -143.9735 266.9310
v 3905.3184 -143.9735 279.5936
v 3907.4457 -152.4511 279.5921
f 1462 1463 1464
v 3909.2091 -142.9949 266.9286
v 3909.2170 -142.9949 279.5912
v 3905.3184 -143.9735 279.5936
f 1465 1466 1467
v 3884.5187 -44.5722 266.9454
v 3884.5265 -44.5720 279.6079
v 3909.2170 -142.9949 279.5912
f 1468 1469 1470
v 3816.1257 -125.3312 272.2533
v 3816.1303 -125.3312 279.6480
v 3804.9329 -128.1412 279.6546
f 1471 1472 1473
v 3818.9654 -136.6506 272.2513
v 3818.9699 -136.6506 279.6460
v 3816.1303 -125.3312 279.6480
f 1474 1475 1476
v 3807.7680 -139.4597 272.2580
v 3807.7726 -139.4596 279.6527
v 3818.9699 -136.6506 279.6460
f 1477 1478 1479
v 3804.9284 -128.1412 272.2599
v 3804.9329 -128.1412 279.6546
v 3807.7726 -139.4596 279.6527
f 1480 1481 1482
v 3821.9962 -148.7795 275.9461
v 3821.9985 -148.7796 279.6440
v 3810.7050 -151.6183 279.6506
f 1483 1484 1485
v 3813.6087 -163.2000 275.9507
v 3813.6110 -163.1999 279.6485
v 3824.9554 -160.3684 279.6418
f 1486 1487 1488
v 3810.7027 -151.6184 275.9527
v 3810.7050 -151.6183 279.6506
v 3813.6110 -163.1999 279.6485
f 1489 1490 1491
v 3822.0660 -149.0728 266.9813
v 3822.0663 -149.0728 267.5793
v 3821.9911 -148.7796 267.5794
f 1492 1493 1494
v 3824.9532 -160.3683 275.9440
v 3824.9554 -160.3684 279.6418
v 3824.9525 -160.3544 279.6418
f 1495 1496 1497
v 3818.9654 -136.6506 272.2513
v 3804.9284 -128.1412 272.2599
v 3807.7680 -139.4597 272.2580
f 1498 1499 1500
v 3804.9284 -128.1412 272.2599
v 3818.9654 -136.6506 272.2513
v 3816.1257 -125.3312 272.2533
f 1501 1502 1503
v 3824.9502 -160.3543 275.9440
v 3824.9525 -160.3544 279.6418
v 3824.4411 -160.4830 279.6421
f 1504 1505 1506
v 3821.9908 -148.7796 266.9814
v 3821.9911 -148.7796 267.5794
v 3810.6977 -151.6184 267.5860
f 1507 1508 1509
v 3813.6033 -163.1999 266.9860
v 3813.6037 -163.2000 267.5840
v 3824.9481 -160.3683 267.5773
f 1510 1511 1512
v 3810.6973 -151.6184 266.9880
v 3810.6977 -151.6184 267.5860
v 3813.6037 -163.2000 267.5840
f 1513 1514 1515
v 3822.0714 -149.0728 275.9460
v 3822.0737 -149.0728 279.6439
v 3821.9985 -148.7796 279.6440
f 1516 1517 1518
v 3824.9477 -160.3683 266.9793
v 3824.9481 -160.3683 267.5773
v 3824.9451 -160.3543 267.5773
f 1519 1520 1521
v 3824.4338 -160.4830 267.5776
v 3824.9451 -160.3543 267.5773
v 3824.9481 -160.3683 267.5773
f 1522 1523 1524
v 3822.0663 -149.0728 267.5793
v 3821.6011 -149.1895 267.5796
v 3821.9911 -148.7796 267.5794
f 1525 1526 1527
v 3823.0090 -154.8013 267.5786
v 3824.4338 -160.4830 267.5776
v 3813.6037 -163.2000 267.5840
f 1528 1529 1530
v 3824.9481 -160.3683 267.5773
v 3813.6037 -163.2000 267.5840
v 3824.4338 -160.4830 267.5776
f 1531 1532 1533
v 3821.6011 -149.1895 267.5796
v 3823.0090 -154.8013 267.5786
v 3810.6977 -151.6184 267.5860
f 1534 1535 1536
v 3813.6037 -163.2000 267.5840
v 3810.6977 -151.6184 267.5860
v 3823.0090 -154.8013 267.5786
f 1537 1538 1539
v 3821.9911 -148.7796 267.5794
v 3821.6011 -149.1895 267.5796
v 3810.6977 -151.6184 267.5860
f 1540 1541 1542
v 3813.6087 -163.2000 275.9507
v 3823.0141 -154.8013 275.9453
v 3810.7027 -151.6184 275.9527
f 1543 1544 1545
v 3824.9532 -160.3683 275.9440
v 3824.4389 -160.4829 275.9443
v 3813.6087 -163.2000 275.9507
f 1546 1547 1548
v 3821.9962 -148.7795 275.9461
v 3810.7027 -151.6184 275.9527
v 3821.6061 -149.1895 275.9463
f 1549 1550 1551
v 3810.7027 -151.6184 275.9527
v 3823.0141 -154.8013 275.9453
v 3821.6061 -149.1895 275.9463
f 1552 1553 1554
v 3823.0141 -154.8013 275.9453
v 3813.6087 -163.2000 275.9507
v 3824.4389 -160.4829 275.9443
f 1555 1556 1557
v 3821.6061 -149.1895 275.9463
v 3822.0714 -149.0728 275.9460
v 3821.9962 -148.7795 275.9461
f 1558 1559 1560
v 3824.9532 -160.3683 275.9440
v 3824.9502 -160.3543 275.9440
v 3824.4389 -160.4829 275.9443
f 1561 1562 1563
v 3895.5968 -136.5936 280.4527
v 3895.5963 -136.5935 279.5997
v 3894.1872 -130.9819 279.6007
f 1564 1565 1566
v 3895.5963 -136.5935 279.5997
v 3895.5968 -136.5936 280.4527
v 3897.0210 -142.2743 279.5987
f 1567 1568 1569
v 3823.0090 -154.8013 267.5786
v 3823.0087 -154.8013 266.9806
v 3824.4334 -160.4829 266.9796
f 1570 1571 1572
v 3824.4338 -160.4830 267.5776
v 3823.0090 -154.8013 267.5786
v 3824.4334 -160.4829 266.9796
f 1573 1574 1575
v 3823.0087 -154.8013 266.9806
v 3821.6011 -149.1895 267.5796
v 3821.6007 -149.1895 266.9816
f 1576 1577 1578
v 3823.0090 -154.8013 267.5786
v 3821.6011 -149.1895 267.5796
v 3823.0087 -154.8013 266.9806
f 1579 1580 1581
v 3905.3105 -143.9735 266.9310
v 3907.4378 -152.4512 266.9295
v 3887.6808 -157.4072 266.9414
f 1582 1583 1584
v 3824.9477 -160.3683 266.9793
v 3887.6808 -157.4072 266.9414
v 3890.7174 -169.5141 266.9393
f 1585 1586 1587
v 3813.5078 -112.9254 266.9873
v 3905.3105 -143.9735 266.9310
v 3887.6808 -157.4072 266.9414
f 1588 1589 1590
v 3884.5187 -44.5722 266.9454
v 3909.2091 -142.9949 266.9286
v 3905.3105 -143.9735 266.9310
f 1591 1592 1593
v 3811.4006 -104.3818 266.9887
v 3884.5187 -44.5722 266.9454
v 3813.5078 -112.9254 266.9873
f 1594 1595 1596
v 3813.5078 -112.9254 266.9873
v 3884.5187 -44.5722 266.9454
v 3905.3105 -143.9735 266.9310
f 1597 1598 1599
v 3810.2633 -101.5128 266.9894
v 3884.5187 -44.5722 266.9454
v 3811.4006 -104.3818 266.9887
f 1600 1601 1602
v 3824.9448 -160.3543 266.9793
v 3887.6808 -157.4072 266.9414
v 3824.9477 -160.3683 266.9793
f 1603 1604 1605
v 3811.4006 -104.3818 266.9887
v 3811.0074 -104.4788 266.9889
v 3810.2633 -101.5128 266.9894
f 1606 1607 1608
v 3821.9908 -148.7796 266.9814
v 3813.5078 -112.9254 266.9873
v 3887.6808 -157.4072 266.9414
f 1609 1610 1611
v 3789.4927 -68.5827 267.0023
v 3884.5187 -44.5722 266.9454
v 3810.2633 -101.5128 266.9894
f 1612 1613 1614
v 3824.9477 -160.3683 266.9793
v 3890.7174 -169.5141 266.9393
v 3807.6956 -190.4088 266.9887
f 1615 1616 1617
v 3823.0087 -154.8013 266.9806
v 3824.9448 -160.3543 266.9793
v 3824.4334 -160.4829 266.9796
f 1618 1619 1620
v 3823.0087 -154.8013 266.9806
v 3822.0660 -149.0728 266.9813
v 3824.9448 -160.3543 266.9793
f 1621 1622 1623
v 3810.6973 -151.6184 266.9880
v 3813.6033 -163.1999 266.9860
v 3807.6956 -190.4088 266.9887
f 1624 1625 1626
v 3824.9477 -160.3683 266.9793
v 3807.6956 -190.4088 266.9887
v 3813.6033 -163.1999 266.9860
f 1627 1628 1629
v 3821.6007 -149.1895 266.9816
v 3822.0660 -149.0728 266.9813
v 3823.0087 -154.8013 266.9806
f 1630 1631 1632
v 3813.5078 -112.9254 266.9873
v 3810.6973 -151.6184 266.9880
v 3789.5713 -118.8293 267.0014
f 1633 1634 1635
v 3887.6808 -157.4072 266.9414
v 3822.0660 -149.0728 266.9813
v 3821.9908 -148.7796 266.9814
f 1636 1637 1638
v 3798.5487 -104.4514 266.9963
v 3789.4927 -68.5827 267.0023
v 3810.2633 -101.5128 266.9894
f 1639 1640 1641
v 3789.5713 -118.8293 267.0014
v 3810.6973 -151.6184 266.9880
v 3807.6956 -190.4088 266.9887
f 1642 1643 1644
v 3813.5078 -112.9254 266.9873
v 3821.9908 -148.7796 266.9814
v 3810.6973 -151.6184 266.9880
f 1645 1646 1647
v 3887.6808 -157.4072 266.9414
v 3824.9448 -160.3543 266.9793
v 3822.0660 -149.0728 266.9813
f 1648 1649 1650
v 3823.0141 -154.8013 275.9453
v 3824.4389 -160.4829 275.9443
v 3824.4411 -160.4830 279.6421
f 1651 1652 1653
v 3823.0169 -154.8013 280.4961
v 3823.0141 -154.8013 275.9453
v 3824.4411 -160.4830 279.6421
f 1654 1655 1656
v 3823.0141 -154.8013 275.9453
v 3821.6084 -149.1895 279.6442
v 3821.6061 -149.1895 275.9463
f 1657 1658 1659
v 3823.0169 -154.8013 280.4961
v 3821.6084 -149.1895 279.6442
v 3823.0141 -154.8013 275.9453
f 1660 1661 1662
v 3821.6061 -149.1895 275.9463
v 3822.0737 -149.0728 279.6439
v 3822.0714 -149.0728 275.9460
f 1663 1664 1665
v 3824.9448 -160.3543 266.9793
v 3824.4338 -160.4830 267.5776
v 3824.4334 -160.4829 266.9796
f 1666 1667 1668
v 3821.6007 -149.1895 266.9816
v 3822.0663 -149.0728 267.5793
v 3822.0660 -149.0728 266.9813
f 1669 1670 1671
v 3789.4927 -68.5827 267.0023
v 3884.5265 -44.5720 279.6079
v 3884.5187 -44.5722 266.9454
f 1672 1673 1674
v 3798.5487 -104.4514 266.9963
v 3789.5004 -68.5825 279.6649
v 3789.4927 -68.5827 267.0023
f 1675 1676 1677
v 3810.2633 -101.5128 266.9894
v 3798.5564 -104.4514 279.6589
v 3798.5487 -104.4514 266.9963
f 1678 1679 1680
v 3811.0074 -104.4788 266.9889
v 3810.2710 -101.5127 279.6520
v 3810.2633 -101.5128 266.9894
f 1681 1682 1683
v 3811.4006 -104.3818 266.9887
v 3811.0151 -104.4787 279.6515
v 3811.0074 -104.4788 266.9889
f 1684 1685 1686
v 3813.5078 -112.9254 266.9873
v 3811.4084 -104.3818 279.6513
v 3811.4006 -104.3818 266.9887
f 1687 1688 1689
v 3789.5713 -118.8293 267.0014
v 3813.5155 -112.9253 279.6499
v 3813.5078 -112.9254 266.9873
f 1690 1691 1692
v 3807.6956 -190.4088 266.9887
v 3789.5790 -118.8292 279.6640
v 3789.5713 -118.8293 267.0014
f 1693 1694 1695
v 3890.7174 -169.5141 266.9393
v 3807.7033 -190.4089 279.6513
v 3807.6956 -190.4088 266.9887
f 1696 1697 1698
v 3887.6808 -157.4072 266.9414
v 3890.7252 -169.5142 279.6018
v 3890.7174 -169.5141 266.9393
f 1699 1700 1701
v 3907.4378 -152.4512 266.9295
v 3887.6887 -157.4072 279.6040
v 3887.6808 -157.4072 266.9414
f 1702 1703 1704
v 3905.3105 -143.9735 266.9310
v 3907.4457 -152.4511 279.5921
v 3907.4378 -152.4512 266.9295
f 1705 1706 1707
v 3909.2091 -142.9949 266.9286
v 3905.3184 -143.9735 279.5936
v 3905.3105 -143.9735 266.9310
f 1708 1709 1710
v 3884.5187 -44.5722 266.9454
v 3909.2170 -142.9949 279.5912
v 3909.2091 -142.9949 266.9286
f 1711 1712 1713
v 3816.1257 -125.3312 272.2533
v 3804.9329 -128.1412 279.6546
v 3804.9284 -128.1412 272.2599
f 1714 1715 1716
v 3818.9654 -136.6506 272.2513
v 3816.1303 -125.3312 279.6480
v 3816.1257 -125.3312 272.2533
f 1717 1718 1719
v 3807.7680 -139.4597 272.2580
v 3818.9699 -136.6506 279.6460
v 3818.9654 -136.6506 272.2513
f 1720 1721 1722
v 3804.9284 -128.1412 272.2599
v 3807.7726 -139.4596 279.6527
v 3807.7680 -139.4597 272.2580
f 1723 1724 1725
v 3821.9962 -148.7795 275.9461
v 3810.7050 -151.6183 279.6506
v 3810.7027 -151.6184 275.9527
f 1726 1727 1728
v 3813.6087 -163.2000 275.9507
v 3824.9554 -160.3684 279.6418
v 3824.9532 -160.3683 275.9440
f 1729 1730 1731
v 3810.7027 -151.6184 275.9527
v 3813.6110 -163.1999 279.6485
v 3813.6087 -163.2000 275.9507
f 1732 1733 1734
v 3822.0660 -149.0728 266.9813
v 3821.9911 -148.7796 267.5794
v 3821.9908 -148.7796 266.9814
f 1735 1736 1737
v 3824.9532 -160.3683 275.9440
v 3824.9525 -160.3544 279.6418
v 3824.9502 -160.3543 275.9440
f 1738 1739 1740
v 3824.9502 -160.3543 275.9440
v 3824.4411 -160.4830 279.6421
v 3824.4389 -160.4829 275.9443
f 1741 1742 1743
v 3821.9908 -148.7796 266.9814
v 3810.6977 -151.6184 267.5860
v 3810.6973 -151.6184 266.9880
f 1744 1745 1746
v 3813.6033 -163.1999 266.9860
v 3824.9481 -160.3683 267.5773
v 3824.9477 -160.3683 266.9793
f 1747 1748 1749
v 3810.6973 -151.6184 266.9880
v 3813.6037 -163.2000 267.5840
v 3813.6033 -163.1999 266.9860
f 1750 1751 1752
v 3822.0714 -149.0728 275.9460
v 3821.9985 -148.7796 279.6440
v 3821.9962 -148.7795 275.9461
f 1753 1754 1755
v 3824.9477 -160.3683 266.9793
v 3824.9451 -160.3543 267.5773
v 3824.9448 -160.3543 266.9793
f 1756 1757 1758
