# Grid Center: 2620200, 1264400
# Global Anchor: 7.64977475454284, 47.53283995868075, 0.0

g building_ID_A9730900-D0D0-400A-AFDE-378A3ECB34D6
v 4096.9730 -123.8444 265.6923
v 4097.0281 -123.8206 265.6923
v 4097.4371 -124.9606 265.6920
f 1 2 3
v 4097.4921 -124.9378 265.6920
v 4097.4371 -124.9606 265.6920
v 4097.0281 -123.8206 265.6923
f 4 5 6
v 4082.0172 -121.9665 265.7019
v 4096.9730 -123.8444 265.6923
v 4097.4371 -124.9606 265.6920
f 7 8 9
v 4082.0172 -121.9665 265.7019
v 4094.1512 -117.0470 265.6942
v 4096.9730 -123.8444 265.6923
f 10 11 12
v 4076.6794 -148.8728 265.7048
v 4068.0723 -127.6301 265.7107
v 4082.0172 -121.9665 265.7019
f 13 14 15
v 4099.7411 -130.1777 265.6904
v 4082.0172 -121.9665 265.7019
v 4099.4401 -129.7900 265.6906
f 16 17 18
v 4082.0172 -121.9665 265.7019
v 4099.7411 -130.1777 265.6904
v 4105.1394 -178.9955 265.6857
f 19 20 21
v 4099.5632 -129.7403 265.6905
v 4099.7411 -130.1777 265.6904
v 4099.4401 -129.7900 265.6906
f 22 23 24
v 4099.7411 -130.1777 265.6904
v 4117.5016 -173.9837 265.6778
v 4105.1394 -178.9955 265.6857
f 25 26 27
v 4097.4371 -124.9606 265.6920
v 4099.4401 -129.7900 265.6906
v 4082.0172 -121.9665 265.7019
f 28 29 30
v 4091.4928 -184.5289 265.6943
v 4077.2199 -150.1902 265.7044
v 4105.1394 -178.9955 265.6857
f 31 32 33
v 4076.6794 -148.8728 265.7048
v 4082.0172 -121.9665 265.7019
v 4077.2199 -150.1902 265.7044
f 34 35 36
v 4082.0172 -121.9665 265.7019
v 4105.1394 -178.9955 265.6857
v 4077.2199 -150.1902 265.7044
f 37 38 39
v 4094.1593 -117.0469 278.0748
v 4082.0261 -121.9664 279.1995
v 4096.9811 -123.8444 278.0679
f 40 41 42
v 4096.9811 -123.8444 278.0679
v 4097.4451 -124.9606 278.0666
v 4097.0362 -123.8205 278.0629
f 43 44 45
v 4097.4451 -124.9606 278.0666
v 4096.9811 -123.8444 278.0679
v 4082.0261 -121.9664 279.1995
f 46 47 48
v 4099.4482 -129.7899 278.0612
v 4097.4451 -124.9606 278.0666
v 4082.0261 -121.9664 279.1995
f 49 50 51
v 4099.4482 -129.7899 278.0612
v 4082.0261 -121.9664 279.1995
v 4105.1483 -178.9956 279.1832
f 52 53 54
v 4099.5713 -129.7402 278.0501
v 4099.4482 -129.7899 278.0612
v 4099.7492 -130.1777 278.0500
f 55 56 57
v 4099.4482 -129.7899 278.0612
v 4105.1483 -178.9956 279.1832
v 4099.7492 -130.1777 278.0500
f 58 59 60
v 4099.7492 -130.1777 278.0500
v 4105.1483 -178.9956 279.1832
v 4117.5098 -173.9837 278.0374
f 61 62 63
v 4097.4451 -124.9606 278.0666
v 4097.5002 -124.9378 278.0616
v 4097.0362 -123.8205 278.0629
f 64 65 66
v 4077.2278 -150.1902 278.0639
v 4091.5009 -184.5291 278.0788
v 4105.1483 -178.9956 279.1832
f 67 68 69
v 4082.0261 -121.9664 279.1995
v 4077.2278 -150.1902 278.0639
v 4105.1483 -178.9956 279.1832
f 70 71 72
v 4068.0803 -127.6300 278.0703
v 4076.6874 -148.8728 278.0643
v 4082.0261 -121.9664 279.1995
f 73 74 75
v 4077.2278 -150.1902 278.0639
v 4082.0261 -121.9664 279.1995
v 4076.6874 -148.8728 278.0643
f 76 77 78
v 4099.4401 -129.7900 265.6906
v 4099.4482 -129.7899 278.0612
v 4099.5693 -129.7403 274.9572
f 79 80 81
v 4099.4401 -129.7900 265.6906
v 4099.5653 -129.7403 268.7714
v 4099.5632 -129.7403 265.6905
f 82 83 84
v 4099.4401 -129.7900 265.6906
v 4097.4371 -124.9606 265.6920
v 4099.4482 -129.7899 278.0612
f 85 86 87
v 4097.4371 -124.9606 265.6920
v 4097.4921 -124.9378 265.6920
v 4097.5002 -124.9378 278.0616
f 88 89 90
v 4097.5002 -124.9378 278.0616
v 4097.4451 -124.9606 278.0666
v 4097.4371 -124.9606 265.6920
f 91 92 93
v 4097.0281 -123.8206 265.6923
v 4097.0362 -123.8205 278.0629
v 4097.4921 -124.9378 265.6920
f 94 95 96
v 4097.0281 -123.8206 265.6923
v 4096.9730 -123.8444 265.6923
v 4097.0362 -123.8205 278.0629
f 97 98 99
v 4094.1593 -117.0469 278.0748
v 4096.9811 -123.8444 278.0679
v 4094.1512 -117.0470 265.6942
f 100 101 102
v 4096.9811 -123.8444 278.0679
v 4096.9730 -123.8444 265.6923
v 4094.1512 -117.0470 265.6942
f 103 104 105
v 4076.6794 -148.8728 265.7048
v 4076.6874 -148.8728 278.0643
v 4068.0803 -127.6300 278.0703
f 106 107 108
v 4082.0172 -121.9665 265.7019
v 4068.0803 -127.6300 278.0703
v 4082.0261 -121.9664 279.1995
f 109 110 111
v 4068.0803 -127.6300 278.0703
v 4082.0172 -121.9665 265.7019
v 4068.0723 -127.6301 265.7107
f 112 113 114
v 4082.0172 -121.9665 265.7019
v 4082.0261 -121.9664 279.1995
v 4094.1593 -117.0469 278.0748
f 115 116 117
v 4094.1593 -117.0469 278.0748
v 4094.1512 -117.0470 265.6942
v 4082.0172 -121.9665 265.7019
f 118 119 120
v 4105.1483 -178.9956 279.1832
v 4105.1394 -178.9955 265.6857
v 4117.5016 -173.9837 265.6778
f 121 122 123
v 4117.5098 -173.9837 278.0374
v 4105.1483 -178.9956 279.1832
v 4117.5016 -173.9837 265.6778
f 124 125 126
v 4105.1394 -178.9955 265.6857
v 4091.5009 -184.5291 278.0788
v 4091.4928 -184.5289 265.6943
f 127 128 129
v 4105.1483 -178.9956 279.1832
v 4091.5009 -184.5291 278.0788
v 4105.1394 -178.9955 265.6857
f 130 131 132
v 4099.7492 -130.1777 278.0500
v 4099.5693 -129.7403 274.9572
v 4099.5713 -129.7402 278.0501
f 133 134 135
v 4117.5016 -173.9837 265.6778
v 4099.5653 -129.7403 268.7714
v 4099.5693 -129.7403 274.9572
f 136 137 138
v 4099.5693 -129.7403 274.9572
v 4117.5098 -173.9837 278.0374
v 4117.5016 -173.9837 265.6778
f 139 140 141
v 4099.7411 -130.1777 265.6904
v 4099.5632 -129.7403 265.6905
v 4099.5653 -129.7403 268.7714
f 142 143 144
v 4117.5016 -173.9837 265.6778
v 4099.7411 -130.1777 265.6904
v 4099.5653 -129.7403 268.7714
f 145 146 147
v 4099.5693 -129.7403 274.9572
v 4099.7492 -130.1777 278.0500
v 4117.5098 -173.9837 278.0374
f 148 149 150
v 4077.2199 -150.1902 265.7044
v 4091.4928 -184.5289 265.6943
v 4091.5009 -184.5291 278.0788
f 151 152 153
v 4077.2278 -150.1902 278.0639
v 4077.2199 -150.1902 265.7044
v 4091.5009 -184.5291 278.0788
f 154 155 156
v 4077.2199 -150.1902 265.7044
v 4077.2278 -150.1902 278.0639
v 4076.6794 -148.8728 265.7048
f 157 158 159
v 4076.6874 -148.8728 278.0643
v 4076.6794 -148.8728 265.7048
v 4077.2278 -150.1902 278.0639
f 160 161 162
v 4099.4482 -129.7899 278.0612
v 4099.5713 -129.7402 278.0501
v 4099.5693 -129.7403 274.9572
f 163 164 165
v 4099.4401 -129.7900 265.6906
v 4099.5693 -129.7403 274.9572
v 4099.5653 -129.7403 268.7714
f 166 167 168
v 4097.4371 -124.9606 265.6920
v 4097.4451 -124.9606 278.0666
v 4099.4482 -129.7899 278.0612
f 169 170 171
v 4097.4921 -124.9378 265.6920
v 4097.0362 -123.8205 278.0629
v 4097.5002 -124.9378 278.0616
f 172 173 174
v 4096.9730 -123.8444 265.6923
v 4096.9811 -123.8444 278.0679
v 4097.0362 -123.8205 278.0629
f 175 176 177
v 4076.6794 -148.8728 265.7048
v 4068.0803 -127.6300 278.0703
v 4068.0723 -127.6301 265.7107
f 178 179 180
