# Grid Center: 2620000, 1264000
# Global Anchor: 7.64977475454284, 47.53283995868075, 0.0

g building_ID_6F5819C8-3857-4D56-9460-2129897418AA
v 4026.1912 -833.9374 269.4462
v 4031.1650 -842.9626 269.4419
v 4028.1927 -844.5997 269.4436
f 1 2 3
v 4028.1927 -844.5997 269.4436
v 4023.3182 -835.4508 269.4478
v 4026.1912 -833.9374 269.4462
f 4 5 6
v 4031.1689 -842.9633 275.4977
v 4026.1951 -833.9381 275.5020
v 4023.3220 -835.4514 275.5036
f 7 8 9
v 4023.3220 -835.4514 275.5036
v 4028.1965 -844.6004 275.4994
v 4031.1689 -842.9633 275.4977
f 10 11 12
v 4023.3182 -835.4508 269.4478
v 4023.3220 -835.4514 275.5036
v 4026.1951 -833.9381 275.5020
f 13 14 15
v 4028.1927 -844.5997 269.4436
v 4028.1965 -844.6004 275.4994
v 4023.3220 -835.4514 275.5036
f 16 17 18
v 4031.1650 -842.9626 269.4419
v 4031.1689 -842.9633 275.4977
v 4028.1965 -844.6004 275.4994
f 19 20 21
v 4026.1912 -833.9374 269.4462
v 4026.1951 -833.9381 275.5020
v 4031.1689 -842.9633 275.4977
f 22 23 24
v 4023.3182 -835.4508 269.4478
v 4026.1951 -833.9381 275.5020
v 4026.1912 -833.9374 269.4462
f 25 26 27
v 4028.1927 -844.5997 269.4436
v 4023.3220 -835.4514 275.5036
v 4023.3182 -835.4508 269.4478
f 28 29 30
v 4031.1650 -842.9626 269.4419
v 4028.1965 -844.6004 275.4994
v 4028.1927 -844.5997 269.4436
f 31 32 33
v 4026.1912 -833.9374 269.4462
v 4031.1689 -842.9633 275.4977
v 4031.1650 -842.9626 269.4419
f 34 35 36

g building_ID_90160AE4-A8CF-4472-AE56-83ED9A33427E
v 3958.5077 -753.9552 267.5578
v 3981.9041 -729.0421 267.5461
v 3989.7852 -736.4400 267.5404
f 37 38 39
v 3958.5077 -753.9552 267.5578
v 3989.7852 -736.4400 267.5404
v 3997.9745 -744.1298 267.5344
f 40 41 42
v 3958.3182 -753.7767 267.5579
v 3956.2703 -756.3372 267.5589
v 3956.0808 -756.1597 267.5590
f 43 44 45
v 3956.2703 -756.3372 267.5589
v 3958.5077 -753.9552 267.5578
v 3997.9745 -744.1298 267.5344
f 46 47 48
v 3958.5077 -753.9552 267.5578
v 3956.2703 -756.3372 267.5589
v 3958.3182 -753.7767 267.5579
f 49 50 51
v 3936.3627 -809.7544 267.5645
v 3929.7602 -784.5620 267.5718
v 3956.2703 -756.3372 267.5589
f 52 53 54
v 3936.3627 -809.7544 267.5645
v 3928.1934 -802.0446 267.5706
v 3929.7602 -784.5620 267.5718
f 55 56 57
v 3936.3627 -809.7544 267.5645
v 3956.2703 -756.3372 267.5589
v 3997.9745 -744.1298 267.5344
f 58 59 60
v 3929.5777 -784.3904 267.5720
v 3929.7602 -784.5620 267.5718
v 3927.5248 -786.9440 267.5729
f 61 62 63
v 3928.1934 -802.0446 267.5706
v 3927.5248 -786.9440 267.5729
v 3929.7602 -784.5620 267.5718
f 64 65 66
v 3927.5248 -786.9440 267.5729
v 3927.3413 -786.7724 267.5730
v 3929.5777 -784.3904 267.5720
f 67 68 69
v 3920.3204 -794.6146 267.5764
v 3927.5248 -786.9440 267.5729
v 3928.1934 -802.0446 267.5706
f 70 71 72
v 3997.9840 -744.1313 282.5248
v 3928.2041 -802.0462 284.5519
v 3936.3721 -809.7558 282.5550
f 73 74 75
v 3928.2041 -802.0462 284.5519
v 3997.9840 -744.1313 282.5248
v 3989.7960 -736.4417 284.5218
f 76 77 78
v 3920.3298 -794.6161 282.6118
v 3928.2041 -802.0462 284.5519
v 3927.5342 -786.9454 282.6083
f 79 80 81
v 3927.5342 -786.9454 282.6083
v 3928.2041 -802.0462 284.5519
v 3929.7696 -784.5634 282.6072
f 82 83 84
v 3927.5342 -786.9454 282.6083
v 3929.5870 -784.3919 282.5624
v 3927.3507 -786.7739 282.5634
f 85 86 87
v 3929.5870 -784.3919 282.5624
v 3927.5342 -786.9454 282.6083
v 3929.7696 -784.5634 282.6072
f 88 89 90
v 3989.7960 -736.4417 284.5218
v 3958.5172 -753.9566 282.5952
v 3956.2799 -756.3386 282.5963
f 91 92 93
v 3929.7696 -784.5634 282.6072
v 3989.7960 -736.4417 284.5218
v 3956.2799 -756.3386 282.5963
f 94 95 96
v 3974.0674 -737.3983 282.5875
v 3989.7960 -736.4417 284.5218
v 3981.9136 -729.0434 282.5845
f 97 98 99
v 3958.5172 -753.9566 282.5952
v 3989.7960 -736.4417 284.5218
v 3974.0674 -737.3983 282.5875
f 100 101 102
v 3956.0903 -756.1611 282.5494
v 3956.2799 -756.3386 282.5963
v 3958.3277 -753.7782 282.5483
f 103 104 105
v 3958.3277 -753.7782 282.5483
v 3956.2799 -756.3386 282.5963
v 3958.5172 -753.9566 282.5952
f 106 107 108
v 3989.7960 -736.4417 284.5218
v 3929.7696 -784.5634 282.6072
v 3928.2041 -802.0462 284.5519
f 109 110 111
v 3997.9745 -744.1298 267.5344
v 3997.9840 -744.1313 282.5248
v 3936.3721 -809.7558 282.5550
f 112 113 114
v 3929.7696 -784.5634 282.6072
v 3956.2799 -756.3386 282.5963
v 3956.2703 -756.3372 267.5589
f 115 116 117
v 3929.7602 -784.5620 267.5718
v 3929.7696 -784.5634 282.6072
v 3956.2703 -756.3372 267.5589
f 118 119 120
v 3929.5777 -784.3904 267.5720
v 3929.5870 -784.3919 282.5624
v 3929.7602 -784.5620 267.5718
f 121 122 123
v 3929.7602 -784.5620 267.5718
v 3929.5870 -784.3919 282.5624
v 3929.7696 -784.5634 282.6072
f 124 125 126
v 3927.3413 -786.7724 267.5730
v 3927.3507 -786.7739 282.5634
v 3929.5870 -784.3919 282.5624
f 127 128 129
v 3929.5777 -784.3904 267.5720
v 3927.3413 -786.7724 267.5730
v 3929.5870 -784.3919 282.5624
f 130 131 132
v 3927.5248 -786.9440 267.5729
v 3927.5342 -786.9454 282.6083
v 3927.3507 -786.7739 282.5634
f 133 134 135
v 3920.3298 -794.6161 282.6118
v 3927.5248 -786.9440 267.5729
v 3920.3204 -794.6146 267.5764
f 136 137 138
v 3920.3298 -794.6161 282.6118
v 3927.5342 -786.9454 282.6083
v 3927.5248 -786.9440 267.5729
f 139 140 141
v 3958.5172 -753.9566 282.5952
v 3974.0674 -737.3983 282.5875
v 3981.9041 -729.0421 267.5461
f 142 143 144
v 3958.5172 -753.9566 282.5952
v 3981.9041 -729.0421 267.5461
v 3958.5077 -753.9552 267.5578
f 145 146 147
v 3956.0808 -756.1597 267.5590
v 3956.0903 -756.1611 282.5494
v 3958.3182 -753.7767 267.5579
f 148 149 150
v 3958.3182 -753.7767 267.5579
v 3956.0903 -756.1611 282.5494
v 3958.3277 -753.7782 282.5483
f 151 152 153
v 3956.2703 -756.3372 267.5589
v 3956.2799 -756.3386 282.5963
v 3956.0903 -756.1611 282.5494
f 154 155 156
v 3956.0808 -756.1597 267.5590
v 3956.2703 -756.3372 267.5589
v 3956.0903 -756.1611 282.5494
f 157 158 159
v 3928.1934 -802.0446 267.5706
v 3936.3721 -809.7558 282.5550
v 3928.2041 -802.0462 284.5519
f 160 161 162
v 3936.3721 -809.7558 282.5550
v 3928.1934 -802.0446 267.5706
v 3936.3627 -809.7544 267.5645
f 163 164 165
v 3928.1934 -802.0446 267.5706
v 3928.2041 -802.0462 284.5519
v 3920.3298 -794.6161 282.6118
f 166 167 168
v 3928.1934 -802.0446 267.5706
v 3920.3298 -794.6161 282.6118
v 3920.3204 -794.6146 267.5764
f 169 170 171
v 3989.7852 -736.4400 267.5404
v 3981.9041 -729.0421 267.5461
v 3981.9136 -729.0434 282.5845
f 172 173 174
v 3989.7852 -736.4400 267.5404
v 3989.7960 -736.4417 284.5218
v 3997.9840 -744.1313 282.5248
f 175 176 177
v 3997.9840 -744.1313 282.5248
v 3997.9745 -744.1298 267.5344
v 3989.7852 -736.4400 267.5404
f 178 179 180
v 3989.7960 -736.4417 284.5218
v 3989.7852 -736.4400 267.5404
v 3981.9136 -729.0434 282.5845
f 181 182 183
v 3997.9745 -744.1298 267.5344
v 3936.3721 -809.7558 282.5550
v 3936.3627 -809.7544 267.5645
f 184 185 186
v 3927.3413 -786.7724 267.5730
v 3927.5248 -786.9440 267.5729
v 3927.3507 -786.7739 282.5634
f 187 188 189
v 3981.9136 -729.0434 282.5845
v 3981.9041 -729.0421 267.5461
v 3974.0674 -737.3983 282.5875
f 190 191 192
v 3958.3277 -753.7782 282.5483
v 3958.5077 -753.9552 267.5578
v 3958.3182 -753.7767 267.5579
f 193 194 195
v 3958.3277 -753.7782 282.5483
v 3958.5172 -753.9566 282.5952
v 3958.5077 -753.9552 267.5578
f 196 197 198

g building_ID_C3E9C711-58B8-49BB-A527-CDBC91ABC5BF
v 3893.0066 -696.1017 268.1587
v 3887.1886 -692.3782 268.1627
v 3891.2880 -685.0952 268.1610
f 199 200 201
v 3893.0066 -696.1017 268.1587
v 3891.2880 -685.0952 268.1610
v 3895.9665 -697.9967 268.1567
f 202 203 204
v 3907.1298 -754.6598 268.1433
v 3941.6009 -718.2035 268.1264
v 3921.3904 -768.1788 268.1330
f 205 206 207
v 3941.6463 -718.0456 268.1263
v 3894.0894 -701.0285 268.1575
v 3895.9665 -697.9967 268.1567
f 208 209 210
v 3941.6463 -718.0456 268.1263
v 3895.9665 -697.9967 268.1567
v 3891.2880 -685.0952 268.1610
f 211 212 213
v 3907.1298 -754.6598 268.1433
v 3921.3904 -768.1788 268.1330
v 3913.1543 -760.4008 268.1389
f 214 215 216
v 3941.6463 -718.0456 268.1263
v 3967.2188 -712.5330 268.1111
v 3967.1996 -712.5890 268.1111
f 217 218 219
v 3971.8212 -714.5833 268.1081
v 3971.6380 -714.3028 268.1082
v 3971.7406 -714.4341 268.1081
f 220 221 222
v 3971.4394 -714.1413 268.1083
v 3971.6380 -714.3028 268.1082
v 3971.8212 -714.5833 268.1081
f 223 224 225
v 3971.8665 -715.2095 268.1080
v 3967.1996 -712.5890 268.1111
v 3971.4394 -714.1413 268.1083
f 226 227 228
v 3971.8212 -714.5833 268.1081
v 3971.8738 -714.7445 268.1080
v 3971.4394 -714.1413 268.1083
f 229 230 231
v 3921.3904 -768.1788 268.1330
v 3941.6009 -718.2035 268.1264
v 3971.8665 -715.2095 268.1080
f 232 233 234
v 3971.4394 -714.1413 268.1083
v 3971.8983 -714.9126 268.1080
v 3971.8929 -715.0815 268.1080
f 235 236 237
v 3971.8665 -715.2095 268.1080
v 3971.4394 -714.1413 268.1083
v 3971.8929 -715.0815 268.1080
f 238 239 240
v 3941.6463 -718.0456 268.1263
v 3967.1996 -712.5890 268.1111
v 3941.6009 -718.2035 268.1264
f 241 242 243
v 3941.6009 -718.2035 268.1264
v 3967.1996 -712.5890 268.1111
v 3971.8665 -715.2095 268.1080
f 244 245 246
v 3941.5229 -718.1752 268.1264
v 3941.6463 -718.0456 268.1263
v 3941.6009 -718.2035 268.1264
f 247 248 249
v 3971.8983 -714.9126 268.1080
v 3971.4394 -714.1413 268.1083
v 3971.8738 -714.7445 268.1080
f 250 251 252
v 3891.2880 -685.0952 268.1610
v 3967.2188 -712.5330 268.1111
v 3941.6463 -718.0456 268.1263
f 253 254 255
v 3971.4443 -714.1420 275.8840
v 3968.3154 -712.9966 275.8841
v 3971.6628 -714.3296 275.8979
f 256 257 258
v 3971.4443 -714.1420 275.8840
v 3971.6628 -714.3296 275.8979
v 3971.6408 -714.3026 275.8949
f 259 260 261
v 3967.2237 -712.5337 275.8768
v 3892.7065 -685.6067 275.9338
v 3967.2045 -712.5896 275.8848
f 262 263 264
v 3968.3154 -712.9966 275.8841
v 3967.2045 -712.5896 275.8848
v 3941.6524 -718.0464 277.7770
f 265 266 267
v 3892.7065 -685.6067 275.9338
v 3941.6524 -718.0464 277.7770
v 3967.2045 -712.5896 275.8848
f 268 269 270
v 3968.3154 -712.9966 275.8841
v 3941.6524 -718.0464 277.7770
v 3971.6628 -714.3296 275.8979
f 271 272 273
v 3921.3952 -768.1796 275.8487
v 3971.6628 -714.3296 275.8979
v 3917.8097 -764.7930 276.3303
f 274 275 276
v 3917.8097 -764.7930 276.3303
v 3971.6628 -714.3296 275.8979
v 3915.2185 -762.3461 276.6781
f 277 278 279
v 3915.2185 -762.3461 276.6781
v 3971.6628 -714.3296 275.8979
v 3913.1599 -760.4017 276.9546
f 280 281 282
v 3971.6837 -714.3557 275.8949
v 3921.3952 -768.1796 275.8487
v 3971.8714 -715.2101 275.8237
f 283 284 285
v 3971.6628 -714.3296 275.8979
v 3941.6069 -718.2044 277.7701
v 3913.1599 -760.4017 276.9546
f 286 287 288
v 3913.1599 -760.4017 276.9546
v 3920.1054 -740.9446 277.7687
v 3907.1358 -754.6607 277.7680
f 289 290 291
v 3913.1599 -760.4017 276.9546
v 3941.6069 -718.2044 277.7701
v 3920.1054 -740.9446 277.7687
f 292 293 294
v 3941.6524 -718.0464 277.7770
v 3941.5290 -718.1761 277.7771
v 3941.6069 -718.2044 277.7701
f 295 296 297
v 3971.6628 -714.3296 275.8979
v 3941.6524 -718.0464 277.7770
v 3941.6069 -718.2044 277.7701
f 298 299 300
v 3971.8714 -715.2101 275.8237
v 3971.8978 -715.0822 275.8307
v 3971.9032 -714.9132 275.8417
f 301 302 303
v 3971.8714 -715.2101 275.8237
v 3971.9032 -714.9132 275.8417
v 3971.8786 -714.7451 275.8547
f 304 305 306
v 3971.8261 -714.5841 275.8688
v 3971.8714 -715.2101 275.8237
v 3971.8786 -714.7451 275.8547
f 307 308 309
v 3971.7455 -714.4348 275.8848
v 3971.8714 -715.2101 275.8237
v 3971.8261 -714.5841 275.8688
f 310 311 312
v 3971.6628 -714.3296 275.8979
v 3921.3952 -768.1796 275.8487
v 3971.6837 -714.3557 275.8949
f 313 314 315
v 3971.7455 -714.4348 275.8848
v 3971.6837 -714.3557 275.8949
v 3971.8714 -715.2101 275.8237
f 316 317 318
v 3894.0894 -701.0285 268.1575
v 3894.0954 -701.0294 277.8082
v 3895.9722 -697.9975 277.3414
f 319 320 321
v 3941.6463 -718.0456 268.1263
v 3941.6524 -718.0464 277.7770
v 3894.0954 -701.0294 277.8082
f 322 323 324
v 3967.1996 -712.5890 268.1111
v 3967.2188 -712.5330 268.1111
v 3967.2237 -712.5337 275.8768
f 325 326 327
v 3967.2237 -712.5337 275.8768
v 3967.2045 -712.5896 275.8848
v 3967.1996 -712.5890 268.1111
f 328 329 330
v 3971.6408 -714.3026 275.8949
v 3971.6628 -714.3296 275.8979
v 3971.6380 -714.3028 268.1082
f 331 332 333
v 3971.4443 -714.1420 275.8840
v 3971.6408 -714.3026 275.8949
v 3971.4394 -714.1413 268.1083
f 334 335 336
v 3971.4394 -714.1413 268.1083
v 3971.6408 -714.3026 275.8949
v 3971.6380 -714.3028 268.1082
f 337 338 339
v 3967.2045 -712.5896 275.8848
v 3968.3154 -712.9966 275.8841
v 3967.1996 -712.5890 268.1111
f 340 341 342
v 3971.4443 -714.1420 275.8840
v 3971.4394 -714.1413 268.1083
v 3968.3154 -712.9966 275.8841
f 343 344 345
v 3967.1996 -712.5890 268.1111
v 3968.3154 -712.9966 275.8841
v 3971.4394 -714.1413 268.1083
f 346 347 348
v 3971.7406 -714.4341 268.1081
v 3971.8261 -714.5841 275.8688
v 3971.8212 -714.5833 268.1081
f 349 350 351
v 3971.6837 -714.3557 275.8949
v 3971.6380 -714.3028 268.1082
v 3971.6628 -714.3296 275.8979
f 352 353 354
v 3971.7455 -714.4348 275.8848
v 3971.6380 -714.3028 268.1082
v 3971.6837 -714.3557 275.8949
f 355 356 357
v 3941.6524 -718.0464 277.7770
v 3941.6463 -718.0456 268.1263
v 3941.5290 -718.1761 277.7771
f 358 359 360
v 3941.5290 -718.1761 277.7771
v 3941.6463 -718.0456 268.1263
v 3941.5229 -718.1752 268.1264
f 361 362 363
v 3941.6009 -718.2035 268.1264
v 3941.6069 -718.2044 277.7701
v 3941.5290 -718.1761 277.7771
f 364 365 366
v 3941.5229 -718.1752 268.1264
v 3941.6009 -718.2035 268.1264
v 3941.5290 -718.1761 277.7771
f 367 368 369
v 3907.1298 -754.6598 268.1433
v 3907.1358 -754.6607 277.7680
v 3920.1054 -740.9446 277.7687
f 370 371 372
v 3907.1298 -754.6598 268.1433
v 3920.1054 -740.9446 277.7687
v 3941.6009 -718.2035 268.1264
f 373 374 375
v 3941.6069 -718.2044 277.7701
v 3941.6009 -718.2035 268.1264
v 3920.1054 -740.9446 277.7687
f 376 377 378
v 3913.1543 -760.4008 268.1389
v 3913.1599 -760.4017 276.9546
v 3907.1298 -754.6598 268.1433
f 379 380 381
v 3917.8097 -764.7930 276.3303
v 3915.2185 -762.3461 276.6781
v 3913.1543 -760.4008 268.1389
f 382 383 384
v 3913.1543 -760.4008 268.1389
v 3921.3904 -768.1788 268.1330
v 3917.8097 -764.7930 276.3303
f 385 386 387
v 3921.3904 -768.1788 268.1330
v 3971.8665 -715.2095 268.1080
v 3971.8714 -715.2101 275.8237
f 388 389 390
v 3971.8929 -715.0815 268.1080
v 3971.8978 -715.0822 275.8307
v 3971.8665 -715.2095 268.1080
f 391 392 393
v 3971.8983 -714.9126 268.1080
v 3971.8978 -715.0822 275.8307
v 3971.8929 -715.0815 268.1080
f 394 395 396
v 3971.8983 -714.9126 268.1080
v 3971.8786 -714.7451 275.8547
v 3971.9032 -714.9132 275.8417
f 397 398 399
v 3894.0954 -701.0294 277.8082
v 3941.6524 -718.0464 277.7770
v 3895.9722 -697.9975 277.3414
f 400 401 402
v 3891.2929 -685.0960 275.9337
v 3893.0122 -696.1025 277.2384
v 3895.9722 -697.9975 277.3414
f 403 404 405
v 3892.7065 -685.6067 275.9338
v 3895.9722 -697.9975 277.3414
v 3941.6524 -718.0464 277.7770
f 406 407 408
v 3891.2929 -685.0960 275.9337
v 3887.1941 -692.3789 277.0393
v 3893.0122 -696.1025 277.2384
f 409 410 411
v 3892.7065 -685.6067 275.9338
v 3891.2929 -685.0960 275.9337
v 3895.9722 -697.9975 277.3414
f 412 413 414
v 3891.2880 -685.0952 268.1610
v 3891.2929 -685.0960 275.9337
v 3892.7065 -685.6067 275.9338
f 415 416 417
v 3891.2880 -685.0952 268.1610
v 3892.7065 -685.6067 275.9338
v 3967.2188 -712.5330 268.1111
f 418 419 420
v 3892.7065 -685.6067 275.9338
v 3967.2237 -712.5337 275.8768
v 3967.2188 -712.5330 268.1111
f 421 422 423
v 3887.1886 -692.3782 268.1627
v 3887.1941 -692.3789 277.0393
v 3891.2929 -685.0960 275.9337
f 424 425 426
v 3891.2880 -685.0952 268.1610
v 3887.1886 -692.3782 268.1627
v 3891.2929 -685.0960 275.9337
f 427 428 429
v 3895.9665 -697.9967 268.1567
v 3895.9722 -697.9975 277.3414
v 3893.0122 -696.1025 277.2384
f 430 431 432
v 3893.0066 -696.1017 268.1587
v 3895.9665 -697.9967 268.1567
v 3893.0122 -696.1025 277.2384
f 433 434 435
v 3887.1886 -692.3782 268.1627
v 3893.0066 -696.1017 268.1587
v 3887.1941 -692.3789 277.0393
f 436 437 438
v 3893.0122 -696.1025 277.2384
v 3887.1941 -692.3789 277.0393
v 3893.0066 -696.1017 268.1587
f 439 440 441
v 3894.0894 -701.0285 268.1575
v 3895.9722 -697.9975 277.3414
v 3895.9665 -697.9967 268.1567
f 442 443 444
v 3941.6463 -718.0456 268.1263
v 3894.0954 -701.0294 277.8082
v 3894.0894 -701.0285 268.1575
f 445 446 447
v 3971.8261 -714.5841 275.8688
v 3971.8786 -714.7451 275.8547
v 3971.8212 -714.5833 268.1081
f 448 449 450
v 3971.8212 -714.5833 268.1081
v 3971.8786 -714.7451 275.8547
v 3971.8738 -714.7445 268.1080
f 451 452 453
v 3971.7455 -714.4348 275.8848
v 3971.8261 -714.5841 275.8688
v 3971.7406 -714.4341 268.1081
f 454 455 456
v 3971.6380 -714.3028 268.1082
v 3971.7455 -714.4348 275.8848
v 3971.7406 -714.4341 268.1081
f 457 458 459
v 3913.1599 -760.4017 276.9546
v 3907.1358 -754.6607 277.7680
v 3907.1298 -754.6598 268.1433
f 460 461 462
v 3917.8097 -764.7930 276.3303
v 3921.3904 -768.1788 268.1330
v 3921.3952 -768.1796 275.8487
f 463 464 465
v 3915.2185 -762.3461 276.6781
v 3913.1599 -760.4017 276.9546
v 3913.1543 -760.4008 268.1389
f 466 467 468
v 3971.8714 -715.2101 275.8237
v 3921.3952 -768.1796 275.8487
v 3921.3904 -768.1788 268.1330
f 469 470 471
v 3971.8978 -715.0822 275.8307
v 3971.8714 -715.2101 275.8237
v 3971.8665 -715.2095 268.1080
f 472 473 474
v 3971.9032 -714.9132 275.8417
v 3971.8978 -715.0822 275.8307
v 3971.8983 -714.9126 268.1080
f 475 476 477
v 3971.8983 -714.9126 268.1080
v 3971.8738 -714.7445 268.1080
v 3971.8786 -714.7451 275.8547
f 478 479 480
