# Grid Center: 2620000, 1264800
# Global Anchor: 7.64977475454284, 47.53283995868075, 0.0

g building_ID_6F034885-B497-4D50-A015-4C2F4AF4ECB8
v 4019.4179 -110.9342 266.1779
v 4010.2809 -114.7186 266.1836
v 4009.9104 -113.7897 266.1838
f 1 2 3
v 4026.4511 -102.6081 266.1736
v 4028.5559 -107.1487 266.1722
v 4019.4179 -110.9342 266.1779
f 4 5 6
v 4019.4179 -110.9342 266.1779
v 4025.4060 -100.0244 266.1743
v 4026.4511 -102.6081 266.1736
f 7 8 9
v 4009.9104 -113.7897 266.1838
v 4025.4060 -100.0244 266.1743
v 4019.4179 -110.9342 266.1779
f 10 11 12
v 4031.5386 -100.4927 266.1704
v 4028.5559 -107.1487 266.1722
v 4026.4511 -102.6081 266.1736
f 13 14 15
v 4033.4896 -104.6219 266.1691
v 4033.6605 -105.0344 266.1690
v 4033.2914 -104.7013 266.1693
f 16 17 18
v 4028.5559 -107.1487 266.1722
v 4033.2914 -104.7013 266.1693
v 4033.6605 -105.0344 266.1690
f 19 20 21
v 4028.5559 -107.1487 266.1722
v 4031.5386 -100.4927 266.1704
v 4033.2914 -104.7013 266.1693
f 22 23 24
v 4025.4060 -100.0244 266.1743
v 4004.4514 -49.1450 266.1883
v 4037.0439 -95.1445 266.1670
f 25 26 27
v 3986.6758 -57.7043 266.1993
v 3995.3134 -52.9324 266.1940
v 4009.9104 -113.7897 266.1838
f 28 29 30
v 4004.4514 -49.1450 266.1883
v 4025.4060 -100.0244 266.1743
v 4009.9104 -113.7897 266.1838
f 31 32 33
v 3986.6758 -57.7043 266.1993
v 3986.6006 -57.7362 266.1994
v 3986.1783 -56.7200 266.1996
f 34 35 36
v 3995.3134 -52.9324 266.1940
v 3986.6758 -57.7043 266.1993
v 3986.1783 -56.7200 266.1996
f 37 38 39
v 3995.3134 -52.9324 266.1940
v 4004.4514 -49.1450 266.1883
v 4009.9104 -113.7897 266.1838
f 40 41 42
v 4004.4514 -49.1450 266.1883
v 4025.5469 -67.5631 266.1748
v 4037.0439 -95.1445 266.1670
f 43 44 45
v 4004.4514 -49.1450 266.1883
v 4015.9430 -44.3808 266.1811
v 4025.5469 -67.5631 266.1748
f 46 47 48
v 3986.6819 -57.7042 275.9579
v 4009.9166 -113.7897 275.9295
v 4019.4254 -110.9341 277.8165
f 49 50 51
v 3986.6819 -57.7042 275.9579
v 4019.4254 -110.9341 277.8165
v 3995.3208 -52.9323 277.8326
f 52 53 54
v 4019.4254 -110.9341 277.8165
v 4009.9166 -113.7897 275.9295
v 4010.2872 -114.7186 275.9263
f 55 56 57
v 3995.3208 -52.9323 277.8326
v 3986.1846 -56.7198 275.9422
v 3986.6819 -57.7042 275.9579
f 58 59 60
v 3986.1846 -56.7198 275.9422
v 3986.6069 -57.7359 275.9420
v 3986.6819 -57.7042 275.9579
f 61 62 63
v 4026.4573 -102.6080 275.9553
v 4025.4123 -100.0242 275.9510
v 4019.4254 -110.9341 277.8165
f 64 65 66
v 3995.3208 -52.9323 277.8326
v 4019.4254 -110.9341 277.8165
v 4025.4123 -100.0242 275.9510
f 67 68 69
v 4025.5734 -99.9567 275.9169
v 4004.4576 -49.1448 275.9309
v 4025.4123 -100.0242 275.9510
f 70 71 72
v 3995.3208 -52.9323 277.8326
v 4025.4123 -100.0242 275.9510
v 4004.4576 -49.1448 275.9309
f 73 74 75
v 4028.5622 -107.1486 275.9149
v 4026.4573 -102.6080 275.9553
v 4019.4254 -110.9341 277.8165
f 76 77 78
v 4028.5622 -107.1486 275.9149
v 4026.6435 -102.5305 275.9162
v 4026.4573 -102.6080 275.9553
f 79 80 81
v 4037.0510 -95.1445 277.2346
v 4025.5539 -67.5630 277.2384
v 4025.5734 -99.9567 275.9169
f 82 83 84
v 4004.4576 -49.1448 275.9309
v 4025.5539 -67.5630 277.2384
v 4015.9500 -44.3805 277.2477
f 85 86 87
v 4025.5734 -99.9567 275.9169
v 4025.5539 -67.5630 277.2384
v 4004.4576 -49.1448 275.9309
f 88 89 90
v 4033.6671 -105.0342 276.4996
v 4033.2980 -104.7013 276.4769
v 4028.5622 -107.1486 275.9149
f 91 92 93
v 4033.2980 -104.7013 276.4769
v 4033.6671 -105.0342 276.4996
v 4033.4963 -104.6218 276.4997
f 94 95 96
v 4033.2980 -104.7013 276.4769
v 4031.5453 -100.4926 276.4781
v 4026.6435 -102.5305 275.9162
f 97 98 99
v 4033.2980 -104.7013 276.4769
v 4026.6435 -102.5305 275.9162
v 4028.5622 -107.1486 275.9149
f 100 101 102
v 3986.6819 -57.7042 275.9579
v 3986.6758 -57.7043 266.1993
v 4009.9104 -113.7897 266.1838
f 103 104 105
v 4010.2855 -114.7187 273.4904
v 4010.2872 -114.7186 275.9263
v 4009.9166 -113.7897 275.9295
f 106 107 108
v 4010.2809 -114.7186 266.1836
v 4010.2840 -114.7186 271.0534
v 4009.9104 -113.7897 266.1838
f 109 110 111
v 3986.1846 -56.7198 275.9422
v 3986.6006 -57.7362 266.1994
v 3986.6069 -57.7359 275.9420
f 112 113 114
v 3986.1846 -56.7198 275.9422
v 3986.1783 -56.7200 266.1996
v 3986.6006 -57.7362 266.1994
f 115 116 117
v 3986.6006 -57.7362 266.1994
v 3986.6819 -57.7042 275.9579
v 3986.6069 -57.7359 275.9420
f 118 119 120
v 3986.6758 -57.7043 266.1993
v 3986.6819 -57.7042 275.9579
v 3986.6006 -57.7362 266.1994
f 121 122 123
v 4025.4060 -100.0244 266.1743
v 4026.4573 -102.6080 275.9553
v 4026.4546 -102.6080 271.6754
f 124 125 126
v 4025.5539 -67.5630 277.2384
v 4037.0439 -95.1445 266.1670
v 4025.5469 -67.5631 266.1748
f 127 128 129
v 4015.9430 -44.3808 266.1811
v 4025.5539 -67.5630 277.2384
v 4025.5469 -67.5631 266.1748
f 130 131 132
v 4033.6655 -105.0343 273.9167
v 4033.6638 -105.0343 271.3348
v 4033.4963 -104.6218 276.4997
f 133 134 135
v 4033.6621 -105.0343 268.7519
v 4033.4963 -104.6218 276.4997
v 4033.6638 -105.0343 271.3348
f 136 137 138
v 4033.6605 -105.0344 266.1690
v 4033.4963 -104.6218 276.4997
v 4033.6621 -105.0343 268.7519
f 139 140 141
v 4033.4896 -104.6219 266.1691
v 4033.4963 -104.6218 276.4997
v 4033.6605 -105.0344 266.1690
f 142 143 144
v 4033.2914 -104.7013 266.1693
v 4033.2980 -104.7013 276.4769
v 4033.4963 -104.6218 276.4997
f 145 146 147
v 4031.5386 -100.4927 266.1704
v 4031.5453 -100.4926 276.4781
v 4033.2914 -104.7013 266.1693
f 148 149 150
v 4026.4546 -102.6080 271.6754
v 4026.4573 -102.6080 275.9553
v 4026.6435 -102.5305 275.9162
f 151 152 153
v 4026.6435 -102.5305 275.9162
v 4031.5453 -100.4926 276.4781
v 4026.4546 -102.6080 271.6754
f 154 155 156
v 4026.4511 -102.6081 266.1736
v 4026.4546 -102.6080 271.6754
v 4031.5386 -100.4927 266.1704
f 157 158 159
v 4031.5453 -100.4926 276.4781
v 4031.5386 -100.4927 266.1704
v 4026.4546 -102.6080 271.6754
f 160 161 162
v 4037.0510 -95.1445 277.2346
v 4025.4060 -100.0244 266.1743
v 4037.0439 -95.1445 266.1670
f 163 164 165
v 4025.4123 -100.0242 275.9510
v 4025.4060 -100.0244 266.1743
v 4025.5734 -99.9567 275.9169
f 166 167 168
v 4025.4060 -100.0244 266.1743
v 4037.0510 -95.1445 277.2346
v 4025.5734 -99.9567 275.9169
f 169 170 171
v 4004.4576 -49.1448 275.9309
v 3995.3134 -52.9324 266.1940
v 3986.1846 -56.7198 275.9422
f 172 173 174
v 3986.1783 -56.7200 266.1996
v 3986.1846 -56.7198 275.9422
v 3995.3134 -52.9324 266.1940
f 175 176 177
v 4004.4576 -49.1448 275.9309
v 4004.4514 -49.1450 266.1883
v 3995.3134 -52.9324 266.1940
f 178 179 180
v 3995.3208 -52.9323 277.8326
v 4004.4576 -49.1448 275.9309
v 3986.1846 -56.7198 275.9422
f 181 182 183
v 4015.9430 -44.3808 266.1811
v 4004.4576 -49.1448 275.9309
v 4015.9500 -44.3805 277.2477
f 184 185 186
v 4015.9430 -44.3808 266.1811
v 4004.4514 -49.1450 266.1883
v 4004.4576 -49.1448 275.9309
f 187 188 189
v 4033.6655 -105.0343 273.9167
v 4033.6671 -105.0342 276.4996
v 4028.5622 -107.1486 275.9149
f 190 191 192
v 4010.2840 -114.7186 271.0534
v 4033.6638 -105.0343 271.3348
v 4033.6655 -105.0343 273.9167
f 193 194 195
v 4033.6621 -105.0343 268.7519
v 4033.6638 -105.0343 271.3348
v 4019.4179 -110.9342 266.1779
f 196 197 198
v 4028.5559 -107.1487 266.1722
v 4033.6605 -105.0344 266.1690
v 4033.6621 -105.0343 268.7519
f 199 200 201
v 4033.6655 -105.0343 273.9167
v 4028.5622 -107.1486 275.9149
v 4010.2840 -114.7186 271.0534
f 202 203 204
v 4010.2855 -114.7187 273.4904
v 4019.4254 -110.9341 277.8165
v 4010.2872 -114.7186 275.9263
f 205 206 207
v 4028.5622 -107.1486 275.9149
v 4010.2855 -114.7187 273.4904
v 4010.2840 -114.7186 271.0534
f 208 209 210
v 4019.4179 -110.9342 266.1779
v 4028.5559 -107.1487 266.1722
v 4033.6621 -105.0343 268.7519
f 211 212 213
v 4019.4179 -110.9342 266.1779
v 4010.2840 -114.7186 271.0534
v 4010.2809 -114.7186 266.1836
f 214 215 216
v 4033.6638 -105.0343 271.3348
v 4010.2840 -114.7186 271.0534
v 4019.4179 -110.9342 266.1779
f 217 218 219
v 4010.2855 -114.7187 273.4904
v 4028.5622 -107.1486 275.9149
v 4019.4254 -110.9341 277.8165
f 220 221 222
v 3986.6819 -57.7042 275.9579
v 4009.9104 -113.7897 266.1838
v 4009.9166 -113.7897 275.9295
f 223 224 225
v 4009.9104 -113.7897 266.1838
v 4010.2855 -114.7187 273.4904
v 4009.9166 -113.7897 275.9295
f 226 227 228
v 4010.2840 -114.7186 271.0534
v 4010.2855 -114.7187 273.4904
v 4009.9104 -113.7897 266.1838
f 229 230 231
v 4025.4123 -100.0242 275.9510
v 4026.4573 -102.6080 275.9553
v 4025.4060 -100.0244 266.1743
f 232 233 234
v 4026.4546 -102.6080 271.6754
v 4026.4511 -102.6081 266.1736
v 4025.4060 -100.0244 266.1743
f 235 236 237
v 4025.5539 -67.5630 277.2384
v 4037.0510 -95.1445 277.2346
v 4037.0439 -95.1445 266.1670
f 238 239 240
v 4015.9430 -44.3808 266.1811
v 4015.9500 -44.3805 277.2477
v 4025.5539 -67.5630 277.2384
f 241 242 243
v 4033.6655 -105.0343 273.9167
v 4033.4963 -104.6218 276.4997
v 4033.6671 -105.0342 276.4996
f 244 245 246
v 4033.2914 -104.7013 266.1693
v 4033.4963 -104.6218 276.4997
v 4033.4896 -104.6219 266.1691
f 247 248 249
v 4031.5453 -100.4926 276.4781
v 4033.2980 -104.7013 276.4769
v 4033.2914 -104.7013 266.1693
f 250 251 252

g building_ID_4B1B62D8-0D4B-41D3-8735-89667782C29D
v 3957.3507 -113.8102 265.6807
v 3961.4556 -121.3140 265.6780
v 3956.2798 -123.4872 265.6812
f 253 254 255
v 3961.4556 -121.3140 265.6780
v 3957.3507 -113.8102 265.6807
v 3958.1646 -113.4713 265.6802
f 256 257 258
v 3953.0359 -115.6215 265.6833
v 3957.3507 -113.8102 265.6807
v 3956.2798 -123.4872 265.6812
f 259 260 261
v 3961.4556 -121.3140 265.6780
v 3961.4556 -121.3140 265.6890
v 3956.2798 -123.4872 265.6812
f 262 263 264
v 3958.1646 -113.4713 265.6802
v 3958.1646 -113.4703 265.6912
v 3961.4556 -121.3140 265.6890
f 265 266 267
v 3957.8935 -127.3783 279.9876
v 3962.7524 -139.1662 276.0984
v 3995.2349 -125.7212 276.0255
f 268 269 270
v 3957.8935 -127.3783 279.9876
v 3995.2349 -125.7212 276.0255
v 3990.3015 -113.7751 279.9676
f 271 272 273
v 3985.5152 -102.1975 276.4200
v 3953.0427 -115.6215 276.3859
v 3957.8935 -127.3783 279.9876
f 274 275 276
v 3953.0427 -115.6215 276.3859
v 3985.5152 -102.1975 276.4200
v 3985.4427 -102.0223 276.3660
f 277 278 279
v 3990.3015 -113.7751 279.9676
v 3985.5152 -102.1975 276.4200
v 3957.8935 -127.3783 279.9876
f 280 281 282
v 3995.2284 -125.7213 265.6678
v 3962.7524 -139.1662 276.0984
v 3962.7458 -139.1662 265.6877
f 283 284 285
v 3961.4556 -121.3140 265.6890
v 3985.4358 -102.0224 265.6744
v 3990.2923 -113.7752 265.6711
f 286 287 288
v 3990.2923 -113.7752 265.6711
v 3995.2284 -125.7213 265.6678
v 3961.4556 -121.3140 265.6890
f 289 290 291
v 3961.4556 -121.3140 265.6890
v 3958.1646 -113.4703 265.6912
v 3985.4358 -102.0224 265.6744
f 292 293 294
v 3956.2799 -123.4872 265.6922
v 3961.4556 -121.3140 265.6890
v 3962.7458 -139.1662 265.6877
f 295 296 297
v 3962.7458 -139.1662 265.6877
v 3961.4556 -121.3140 265.6890
v 3995.2284 -125.7213 265.6678
f 298 299 300
v 3985.4427 -102.0223 276.3660
v 3953.0413 -115.6216 274.1120
v 3953.0427 -115.6215 276.3859
f 301 302 303
v 3953.0359 -115.6215 265.6833
v 3953.0413 -115.6216 274.1120
v 3957.3507 -113.8102 265.6807
f 304 305 306
v 3958.1646 -113.4703 265.6912
v 3953.0413 -115.6216 274.1120
v 3985.4358 -102.0224 265.6744
f 307 308 309
v 3953.0413 -115.6216 274.1120
v 3958.1646 -113.4703 265.6912
v 3957.3507 -113.8102 265.6807
f 310 311 312
v 3957.3507 -113.8102 265.6807
v 3958.1646 -113.4703 265.6912
v 3958.1646 -113.4713 265.6802
f 313 314 315
v 3985.4358 -102.0224 265.6744
v 3953.0413 -115.6216 274.1120
v 3985.4427 -102.0223 276.3660
f 316 317 318
v 3962.7458 -139.1662 265.6877
v 3962.7524 -139.1662 276.0984
v 3953.0427 -115.6215 276.3859
f 319 320 321
v 3953.0413 -115.6216 274.1120
v 3956.2799 -123.4872 265.6922
v 3962.7458 -139.1662 265.6877
f 322 323 324
v 3962.7458 -139.1662 265.6877
v 3953.0427 -115.6215 276.3859
v 3953.0413 -115.6216 274.1120
f 325 326 327
v 3953.0359 -115.6215 265.6833
v 3956.2798 -123.4872 265.6812
v 3956.2799 -123.4872 265.6922
f 328 329 330
v 3953.0359 -115.6215 265.6833
v 3956.2799 -123.4872 265.6922
v 3953.0413 -115.6216 274.1120
f 331 332 333
v 3962.7524 -139.1662 276.0984
v 3957.8935 -127.3783 279.9876
v 3953.0427 -115.6215 276.3859
f 334 335 336
v 3985.4358 -102.0224 265.6744
v 3985.4427 -102.0223 276.3660
v 3985.5152 -102.1975 276.4200
f 337 338 339
v 3990.3015 -113.7751 279.9676
v 3990.2923 -113.7752 265.6711
v 3985.4358 -102.0224 265.6744
f 340 341 342
v 3990.3015 -113.7751 279.9676
v 3985.4358 -102.0224 265.6744
v 3985.5152 -102.1975 276.4200
f 343 344 345
v 3995.2284 -125.7213 265.6678
v 3990.2923 -113.7752 265.6711
v 3995.2349 -125.7212 276.0255
f 346 347 348
v 3990.2923 -113.7752 265.6711
v 3990.3015 -113.7751 279.9676
v 3995.2349 -125.7212 276.0255
f 349 350 351
v 3961.4556 -121.3140 265.6890
v 3956.2799 -123.4872 265.6922
v 3956.2798 -123.4872 265.6812
f 352 353 354
v 3958.1646 -113.4713 265.6802
v 3961.4556 -121.3140 265.6890
v 3961.4556 -121.3140 265.6780
f 355 356 357
v 3962.7524 -139.1662 276.0984
v 3995.2284 -125.7213 265.6678
v 3995.2349 -125.7212 276.0255
f 358 359 360

g building_ID_86DB75BA-F67A-4593-839C-40B83870B723
v 3938.8459 -94.0249 265.7034
v 3938.7167 -94.0786 265.7035
v 3938.5936 -93.7842 265.7036
f 361 362 363
v 3975.5805 -78.2583 265.6809
v 3938.8459 -94.0249 265.7034
v 3938.5936 -93.7842 265.7036
f 364 365 366
v 3977.8709 -83.7134 265.6794
v 3943.6363 -105.8076 265.7003
v 3938.8459 -94.0249 265.7034
f 367 368 369
v 3980.5903 -90.2946 265.6776
v 3943.6363 -105.8076 265.7003
v 3977.8709 -83.7134 265.6794
f 370 371 372
v 3953.0250 -115.5945 265.6943
v 3943.6363 -105.8076 265.7003
v 3980.5903 -90.2946 265.6776
f 373 374 375
v 3953.0359 -115.6215 265.6943
v 3953.0250 -115.5945 265.6943
v 3985.4358 -102.0224 265.6744
f 376 377 378
v 3953.0250 -115.5945 265.6943
v 3948.3920 -117.5051 265.6972
v 3943.6363 -105.8076 265.7003
f 379 380 381
v 3953.0250 -115.5945 265.6943
v 3980.5903 -90.2946 265.6776
v 3985.4358 -102.0224 265.6744
f 382 383 384
v 3977.8709 -83.7134 265.6794
v 3938.8459 -94.0249 265.7034
v 3975.5805 -78.2583 265.6809
f 385 386 387
v 3953.0317 -115.5945 276.3949
v 3985.4427 -102.0223 276.3660
v 3980.5993 -90.2945 279.9741
f 388 389 390
v 3943.6453 -105.8075 279.9968
v 3953.0317 -115.5945 276.3949
v 3980.5993 -90.2945 279.9741
f 391 392 393
v 3953.0427 -115.6215 276.3859
v 3985.4427 -102.0223 276.3660
v 3953.0317 -115.5945 276.3949
f 394 395 396
v 3943.6453 -105.8075 279.9968
v 3948.3987 -117.5050 276.4068
v 3953.0317 -115.5945 276.3949
f 397 398 399
v 3938.8524 -94.0248 276.1171
v 3975.5871 -78.2582 275.9966
v 3938.6000 -93.7842 276.0193
f 400 401 402
v 3943.6453 -105.8075 279.9968
v 3977.8786 -83.7133 277.8020
v 3938.8524 -94.0248 276.1171
f 403 404 405
v 3975.5871 -78.2582 275.9966
v 3938.8524 -94.0248 276.1171
v 3977.8786 -83.7133 277.8020
f 406 407 408
v 3943.6453 -105.8075 279.9968
v 3980.5993 -90.2945 279.9741
v 3977.8786 -83.7133 277.8020
f 409 410 411
v 3938.7233 -94.0785 276.1162
v 3938.8524 -94.0248 276.1171
v 3938.6000 -93.7842 276.0193
f 412 413 414
v 3953.0317 -115.5945 276.3949
v 3948.3920 -117.5051 265.6972
v 3953.0250 -115.5945 265.6943
f 415 416 417
v 3953.0359 -115.6215 265.6943
v 3953.0427 -115.6215 276.3859
v 3953.0250 -115.5945 265.6943
f 418 419 420
v 3953.0250 -115.5945 265.6943
v 3953.0427 -115.6215 276.3859
v 3953.0317 -115.5945 276.3949
f 421 422 423
v 3985.4358 -102.0224 265.6744
v 3985.4427 -102.0223 276.3660
v 3953.0359 -115.6215 265.6943
f 424 425 426
v 3953.0427 -115.6215 276.3859
v 3953.0359 -115.6215 265.6943
v 3985.4427 -102.0223 276.3660
f 427 428 429
v 3938.5936 -93.7842 265.7036
v 3938.7167 -94.0786 265.7035
v 3938.6000 -93.7842 276.0193
f 430 431 432
v 3938.8459 -94.0249 265.7034
v 3938.8524 -94.0248 276.1171
v 3938.7167 -94.0786 265.7035
f 433 434 435
v 3938.7167 -94.0786 265.7035
v 3938.8524 -94.0248 276.1171
v 3938.7233 -94.0785 276.1162
f 436 437 438
v 3975.5805 -78.2583 265.6809
v 3975.5871 -78.2582 275.9966
v 3977.8709 -83.7134 265.6794
f 439 440 441
v 3975.5871 -78.2582 275.9966
v 3975.5805 -78.2583 265.6809
v 3938.6000 -93.7842 276.0193
f 442 443 444
v 3938.6000 -93.7842 276.0193
v 3975.5805 -78.2583 265.6809
v 3938.5936 -93.7842 265.7036
f 445 446 447
v 3980.5903 -90.2946 265.6776
v 3977.8709 -83.7134 265.6794
v 3977.8786 -83.7133 277.8020
f 448 449 450
v 3980.5993 -90.2945 279.9741
v 3985.4427 -102.0223 276.3660
v 3977.8786 -83.7133 277.8020
f 451 452 453
v 3980.5903 -90.2946 265.6776
v 3977.8786 -83.7133 277.8020
v 3985.4358 -102.0224 265.6744
f 454 455 456
v 3985.4427 -102.0223 276.3660
v 3985.4358 -102.0224 265.6744
v 3977.8786 -83.7133 277.8020
f 457 458 459
v 3948.3987 -117.5050 276.4068
v 3943.6453 -105.8075 279.9968
v 3943.6363 -105.8076 265.7003
f 460 461 462
v 3943.6363 -105.8076 265.7003
v 3948.3920 -117.5051 265.6972
v 3948.3987 -117.5050 276.4068
f 463 464 465
v 3938.8524 -94.0248 276.1171
v 3938.8459 -94.0249 265.7034
v 3943.6363 -105.8076 265.7003
f 466 467 468
v 3943.6453 -105.8075 279.9968
v 3938.8524 -94.0248 276.1171
v 3943.6363 -105.8076 265.7003
f 469 470 471
v 3948.3920 -117.5051 265.6972
v 3953.0317 -115.5945 276.3949
v 3948.3987 -117.5050 276.4068
f 472 473 474
v 3938.7233 -94.0785 276.1162
v 3938.6000 -93.7842 276.0193
v 3938.7167 -94.0786 265.7035
f 475 476 477
v 3975.5871 -78.2582 275.9966
v 3977.8786 -83.7133 277.8020
v 3977.8709 -83.7134 265.6794
f 478 479 480

g building_ID_88EB3894-802B-414F-89F0-8FECC8AF36AA
v 3933.8071 -82.3936 265.7068
v 3936.0568 -67.5477 265.7056
v 3970.8001 -66.8667 265.6841
f 481 482 483
v 3965.4695 -54.4186 265.6875
v 3970.8001 -66.8667 265.6841
v 3963.9858 -55.0337 265.6885
f 484 485 486
v 3970.8001 -66.8667 265.6841
v 3962.5032 -55.6487 265.6894
v 3963.9858 -55.0337 265.6885
f 487 488 489
v 3936.0568 -67.5477 265.7056
v 3959.5370 -56.8787 265.6912
v 3970.8001 -66.8667 265.6841
f 490 491 492
v 3938.5936 -93.7842 265.7036
v 3970.8001 -66.8667 265.6841
v 3975.5805 -78.2583 265.6809
f 493 494 495
v 3965.5516 -54.3658 265.6875
v 3970.8001 -66.8667 265.6841
v 3965.4695 -54.4186 265.6875
f 496 497 498
v 3961.0206 -56.2637 265.6903
v 3970.8001 -66.8667 265.6841
v 3959.5370 -56.8787 265.6912
f 499 500 501
v 3970.8001 -66.8667 265.6841
v 3961.0206 -56.2637 265.6903
v 3962.5032 -55.6487 265.6894
f 502 503 504
v 3936.0568 -67.5477 265.7056
v 3935.7736 -66.8530 265.7058
v 3959.5370 -56.8787 265.6912
f 505 506 507
v 3928.8100 -70.5034 265.7100
v 3936.0568 -67.5477 265.7056
v 3933.8071 -82.3936 265.7068
f 508 509 510
v 3933.8071 -82.3936 265.7068
v 3970.8001 -66.8667 265.6841
v 3938.5936 -93.7842 265.7036
f 511 512 513
v 3936.0631 -67.5476 275.8823
v 3928.8163 -70.5033 275.8607
v 3933.8160 -82.3934 280.0033
f 514 515 516
v 3936.0631 -67.5476 275.8823
v 3933.8160 -82.3934 280.0033
v 3970.8091 -66.8665 279.9806
f 517 518 519
v 3935.7798 -66.8529 275.6415
v 3935.8773 -67.0912 275.7234
v 3959.5433 -56.8786 275.6269
f 520 521 522
v 3936.0631 -67.5476 275.8823
v 3959.5433 -56.8786 275.6269
v 3935.8773 -67.0912 275.7234
f 523 524 525
v 3970.8091 -66.8665 279.9806
v 3965.4757 -54.4185 275.6322
v 3963.9931 -55.0336 275.6312
f 526 527 528
v 3965.5579 -54.3657 275.6262
v 3965.4757 -54.4185 275.6322
v 3970.8091 -66.8665 279.9806
f 529 530 531
v 3970.8091 -66.8665 279.9806
v 3963.9931 -55.0336 275.6312
v 3962.5095 -55.6485 275.6291
f 532 533 534
v 3961.0269 -56.2636 275.6280
v 3959.5433 -56.8786 275.6269
v 3970.8091 -66.8665 279.9806
f 535 536 537
v 3961.0269 -56.2636 275.6280
v 3970.8091 -66.8665 279.9806
v 3962.5095 -55.6485 275.6291
f 538 539 540
v 3936.0631 -67.5476 275.8823
v 3970.8091 -66.8665 279.9806
v 3959.5433 -56.8786 275.6269
f 541 542 543
v 3938.6000 -93.7842 276.0193
v 3975.5871 -78.2582 275.9966
v 3970.8091 -66.8665 279.9806
f 544 545 546
v 3970.8091 -66.8665 279.9806
v 3933.8160 -82.3934 280.0033
v 3938.6000 -93.7842 276.0193
f 547 548 549
v 3965.4695 -54.4186 265.6875
v 3965.4757 -54.4185 275.6322
v 3965.5579 -54.3657 275.6262
f 550 551 552
v 3965.4695 -54.4186 265.6875
v 3965.5579 -54.3657 275.6262
v 3965.5516 -54.3658 265.6875
f 553 554 555
v 3963.9858 -55.0337 265.6885
v 3962.5032 -55.6487 265.6894
v 3962.5095 -55.6485 275.6291
f 556 557 558
v 3959.5370 -56.8787 265.6912
v 3959.5433 -56.8786 275.6269
v 3961.0206 -56.2637 265.6903
f 559 560 561
v 3963.9858 -55.0337 265.6885
v 3963.9931 -55.0336 275.6312
v 3965.4757 -54.4185 275.6322
f 562 563 564
v 3965.4757 -54.4185 275.6322
v 3965.4695 -54.4186 265.6875
v 3963.9858 -55.0337 265.6885
f 565 566 567
v 3959.5433 -56.8786 275.6269
v 3935.7736 -66.8530 265.7058
v 3935.7798 -66.8529 275.6415
f 568 569 570
v 3959.5370 -56.8787 265.6912
v 3935.7736 -66.8530 265.7058
v 3959.5433 -56.8786 275.6269
f 571 572 573
v 3928.8100 -70.5034 265.7100
v 3928.8163 -70.5033 275.8607
v 3936.0568 -67.5477 265.7056
f 574 575 576
v 3975.5805 -78.2583 265.6809
v 3975.5871 -78.2582 275.9966
v 3938.6000 -93.7842 276.0193
f 577 578 579
v 3938.5936 -93.7842 265.7036
v 3938.6000 -93.7842 276.0193
v 3933.8160 -82.3934 280.0033
f 580 581 582
v 3933.8160 -82.3934 280.0033
v 3933.8071 -82.3936 265.7068
v 3938.5936 -93.7842 265.7036
f 583 584 585
v 3933.8071 -82.3936 265.7068
v 3933.8160 -82.3934 280.0033
v 3928.8163 -70.5033 275.8607
f 586 587 588
v 3933.8071 -82.3936 265.7068
v 3928.8163 -70.5033 275.8607
v 3928.8100 -70.5034 265.7100
f 589 590 591
v 3970.8001 -66.8667 265.6841
v 3965.5516 -54.3658 265.6875
v 3965.5579 -54.3657 275.6262
f 592 593 594
v 3970.8001 -66.8667 265.6841
v 3965.5579 -54.3657 275.6262
v 3970.8091 -66.8665 279.9806
f 595 596 597
v 3975.5805 -78.2583 265.6809
v 3970.8001 -66.8667 265.6841
v 3975.5871 -78.2582 275.9966
f 598 599 600
v 3970.8091 -66.8665 279.9806
v 3975.5871 -78.2582 275.9966
v 3970.8001 -66.8667 265.6841
f 601 602 603
v 3962.5032 -55.6487 265.6894
v 3961.0206 -56.2637 265.6903
v 3962.5095 -55.6485 275.6291
f 604 605 606
v 3963.9858 -55.0337 265.6885
v 3962.5095 -55.6485 275.6291
v 3963.9931 -55.0336 275.6312
f 607 608 609
v 3959.5433 -56.8786 275.6269
v 3961.0269 -56.2636 275.6280
v 3961.0206 -56.2637 265.6903
f 610 611 612
v 3962.5095 -55.6485 275.6291
v 3961.0206 -56.2637 265.6903
v 3961.0269 -56.2636 275.6280
f 613 614 615
v 3936.0568 -67.5477 265.7056
v 3936.0631 -67.5476 275.8823
v 3935.8773 -67.0912 275.7234
f 616 617 618
v 3935.7798 -66.8529 275.6415
v 3936.0568 -67.5477 265.7056
v 3935.8773 -67.0912 275.7234
f 619 620 621
v 3936.0568 -67.5477 265.7056
v 3935.7798 -66.8529 275.6415
v 3935.7736 -66.8530 265.7058
f 622 623 624
v 3928.8163 -70.5033 275.8607
v 3936.0631 -67.5476 275.8823
v 3936.0568 -67.5477 265.7056
f 625 626 627
v 3975.5805 -78.2583 265.6809
v 3938.6000 -93.7842 276.0193
v 3938.5936 -93.7842 265.7036
f 628 629 630

g building_ID_C489AA8C-DB1F-4FB6-8E18-82E763FA2C87
v 3822.0737 -149.0728 279.6439
v 3821.6084 -149.1895 279.6442
v 3823.0169 -154.8013 280.4961
f 631 632 633
v 3894.1872 -130.9819 279.6007
v 3822.0737 -149.0728 279.6439
v 3895.5968 -136.5936 280.4527
f 634 635 636
v 3823.0169 -154.8013 280.4961
v 3895.5968 -136.5936 280.4527
v 3822.0737 -149.0728 279.6439
f 637 638 639
v 3821.6061 -149.1895 275.9463
v 3821.6084 -149.1895 279.6442
v 3822.0737 -149.0728 279.6439
f 640 641 642
v 3824.9525 -160.3544 279.6418
v 3823.0169 -154.8013 280.4961
v 3824.4411 -160.4830 279.6421
f 643 644 645
v 3895.5968 -136.5936 280.4527
v 3824.9525 -160.3544 279.6418
v 3897.0210 -142.2743 279.5987
f 646 647 648
v 3823.0169 -154.8013 280.4961
v 3824.9525 -160.3544 279.6418
v 3895.5968 -136.5936 280.4527
f 649 650 651
v 3824.9448 -160.3543 266.9793
v 3824.9451 -160.3543 267.5773
v 3824.4338 -160.4830 267.5776
f 652 653 654
v 3821.6007 -149.1895 266.9816
v 3821.6011 -149.1895 267.5796
v 3822.0663 -149.0728 267.5793
f 655 656 657
v 3895.5963 -136.5935 279.5997
v 3905.3184 -143.9735 279.5936
v 3909.2170 -142.9949 279.5912
f 658 659 660
v 3897.0210 -142.2743 279.5987
v 3907.4457 -152.4511 279.5921
v 3905.3184 -143.9735 279.5936
f 661 662 663
v 3905.3184 -143.9735 279.5936
v 3895.5963 -136.5935 279.5997
v 3897.0210 -142.2743 279.5987
f 664 665 666
v 3909.2170 -142.9949 279.5912
v 3894.1872 -130.9819 279.6007
v 3895.5963 -136.5935 279.5997
f 667 668 669
v 3894.1872 -130.9819 279.6007
v 3909.2170 -142.9949 279.5912
v 3884.5265 -44.5720 279.6079
f 670 671 672
v 3887.6887 -157.4072 279.6040
v 3907.4457 -152.4511 279.5921
v 3897.0210 -142.2743 279.5987
f 673 674 675
v 3890.7252 -169.5142 279.6018
v 3824.9554 -160.3684 279.6418
v 3807.7033 -190.4089 279.6513
f 676 677 678
v 3887.6887 -157.4072 279.6040
v 3824.9554 -160.3684 279.6418
v 3890.7252 -169.5142 279.6018
f 679 680 681
v 3824.9525 -160.3544 279.6418
v 3824.9554 -160.3684 279.6418
v 3887.6887 -157.4072 279.6040
f 682 683 684
v 3887.6887 -157.4072 279.6040
v 3897.0210 -142.2743 279.5987
v 3824.9525 -160.3544 279.6418
f 685 686 687
v 3807.7033 -190.4089 279.6513
v 3824.9554 -160.3684 279.6418
v 3813.6110 -163.1999 279.6485
f 688 689 690
v 3810.7050 -151.6183 279.6506
v 3807.7033 -190.4089 279.6513
v 3813.6110 -163.1999 279.6485
f 691 692 693
v 3894.1872 -130.9819 279.6007
v 3818.9699 -136.6506 279.6460
v 3821.9985 -148.7796 279.6440
f 694 695 696
v 3816.1303 -125.3312 279.6480
v 3894.1872 -130.9819 279.6007
v 3813.5155 -112.9253 279.6499
f 697 698 699
v 3894.1872 -130.9819 279.6007
v 3816.1303 -125.3312 279.6480
v 3818.9699 -136.6506 279.6460
f 700 701 702
v 3813.5155 -112.9253 279.6499
v 3804.9329 -128.1412 279.6546
v 3816.1303 -125.3312 279.6480
f 703 704 705
v 3810.2710 -101.5127 279.6520
v 3811.4084 -104.3818 279.6513
v 3884.5265 -44.5720 279.6079
f 706 707 708
v 3894.1872 -130.9819 279.6007
v 3811.4084 -104.3818 279.6513
v 3813.5155 -112.9253 279.6499
f 709 710 711
v 3811.4084 -104.3818 279.6513
v 3810.2710 -101.5127 279.6520
v 3811.0151 -104.4787 279.6515
f 712 713 714
v 3810.2710 -101.5127 279.6520
v 3884.5265 -44.5720 279.6079
v 3789.5004 -68.5825 279.6649
f 715 716 717
v 3822.0737 -149.0728 279.6439
v 3894.1872 -130.9819 279.6007
v 3821.9985 -148.7796 279.6440
f 718 719 720
v 3807.7726 -139.4596 279.6527
v 3810.7050 -151.6183 279.6506
v 3821.9985 -148.7796 279.6440
f 721 722 723
v 3807.7726 -139.4596 279.6527
v 3821.9985 -148.7796 279.6440
v 3818.9699 -136.6506 279.6460
f 724 725 726
v 3789.5790 -118.8292 279.6640
v 3810.7050 -151.6183 279.6506
v 3807.7726 -139.4596 279.6527
f 727 728 729
v 3804.9329 -128.1412 279.6546
v 3813.5155 -112.9253 279.6499
v 3789.5790 -118.8292 279.6640
f 730 731 732
v 3807.7726 -139.4596 279.6527
v 3804.9329 -128.1412 279.6546
v 3789.5790 -118.8292 279.6640
f 733 734 735
v 3798.5564 -104.4514 279.6589
v 3810.2710 -101.5127 279.6520
v 3789.5004 -68.5825 279.6649
f 736 737 738
v 3807.7033 -190.4089 279.6513
v 3810.7050 -151.6183 279.6506
v 3789.5790 -118.8292 279.6640
f 739 740 741
v 3884.5265 -44.5720 279.6079
v 3811.4084 -104.3818 279.6513
v 3894.1872 -130.9819 279.6007
f 742 743 744
v 3789.4927 -68.5827 267.0023
v 3789.5004 -68.5825 279.6649
v 3884.5265 -44.5720 279.6079
f 745 746 747
v 3798.5487 -104.4514 266.9963
v 3798.5564 -104.4514 279.6589
v 3789.5004 -68.5825 279.6649
f 748 749 750
v 3810.2633 -101.5128 266.9894
v 3810.2710 -101.5127 279.6520
v 3798.5564 -104.4514 279.6589
f 751 752 753
v 3811.0074 -104.4788 266.9889
v 3811.0151 -104.4787 279.6515
v 3810.2710 -101.5127 279.6520
f 754 755 756
v 3811.4006 -104.3818 266.9887
v 3811.4084 -104.3818 279.6513
v 3811.0151 -104.4787 279.6515
f 757 758 759
v 3813.5078 -112.9254 266.9873
v 3813.5155 -112.9253 279.6499
v 3811.4084 -104.3818 279.6513
f 760 761 762
v 3789.5713 -118.8293 267.0014
v 3789.5790 -118.8292 279.6640
v 3813.5155 -112.9253 279.6499
f 763 764 765
v 3807.6956 -190.4088 266.9887
v 3807.7033 -190.4089 279.6513
v 3789.5790 -118.8292 279.6640
f 766 767 768
v 3890.7174 -169.5141 266.9393
v 3890.7252 -169.5142 279.6018
v 3807.7033 -190.4089 279.6513
f 769 770 771
v 3887.6808 -157.4072 266.9414
v 3887.6887 -157.4072 279.6040
v 3890.7252 -169.5142 279.6018
f 772 773 774
v 3907.4378 -152.4512 266.9295
v 3907.4457 -152.4511 279.5921
v 3887.6887 -157.4072 279.6040
f 775 776 777
v 3905.3105 -143.9735 266.9310
v 3905.3184 -143.9735 279.5936
v 3907.4457 -152.4511 279.5921
f 778 779 780
v 3909.2091 -142.9949 266.9286
v 3909.2170 -142.9949 279.5912
v 3905.3184 -143.9735 279.5936
f 781 782 783
v 3884.5187 -44.5722 266.9454
v 3884.5265 -44.5720 279.6079
v 3909.2170 -142.9949 279.5912
f 784 785 786
v 3816.1257 -125.3312 272.2533
v 3816.1303 -125.3312 279.6480
v 3804.9329 -128.1412 279.6546
f 787 788 789
v 3818.9654 -136.6506 272.2513
v 3818.9699 -136.6506 279.6460
v 3816.1303 -125.3312 279.6480
f 790 791 792
v 3807.7680 -139.4597 272.2580
v 3807.7726 -139.4596 279.6527
v 3818.9699 -136.6506 279.6460
f 793 794 795
v 3804.9284 -128.1412 272.2599
v 3804.9329 -128.1412 279.6546
v 3807.7726 -139.4596 279.6527
f 796 797 798
v 3821.9962 -148.7795 275.9461
v 3821.9985 -148.7796 279.6440
v 3810.7050 -151.6183 279.6506
f 799 800 801
v 3813.6087 -163.2000 275.9507
v 3813.6110 -163.1999 279.6485
v 3824.9554 -160.3684 279.6418
f 802 803 804
v 3810.7027 -151.6184 275.9527
v 3810.7050 -151.6183 279.6506
v 3813.6110 -163.1999 279.6485
f 805 806 807
v 3822.0660 -149.0728 266.9813
v 3822.0663 -149.0728 267.5793
v 3821.9911 -148.7796 267.5794
f 808 809 810
v 3824.9532 -160.3683 275.9440
v 3824.9554 -160.3684 279.6418
v 3824.9525 -160.3544 279.6418
f 811 812 813
v 3818.9654 -136.6506 272.2513
v 3804.9284 -128.1412 272.2599
v 3807.7680 -139.4597 272.2580
f 814 815 816
v 3804.9284 -128.1412 272.2599
v 3818.9654 -136.6506 272.2513
v 3816.1257 -125.3312 272.2533
f 817 818 819
v 3824.9502 -160.3543 275.9440
v 3824.9525 -160.3544 279.6418
v 3824.4411 -160.4830 279.6421
f 820 821 822
v 3821.9908 -148.7796 266.9814
v 3821.9911 -148.7796 267.5794
v 3810.6977 -151.6184 267.5860
f 823 824 825
v 3813.6033 -163.1999 266.9860
v 3813.6037 -163.2000 267.5840
v 3824.9481 -160.3683 267.5773
f 826 827 828
v 3810.6973 -151.6184 266.9880
v 3810.6977 -151.6184 267.5860
v 3813.6037 -163.2000 267.5840
f 829 830 831
v 3822.0714 -149.0728 275.9460
v 3822.0737 -149.0728 279.6439
v 3821.9985 -148.7796 279.6440
f 832 833 834
v 3824.9477 -160.3683 266.9793
v 3824.9481 -160.3683 267.5773
v 3824.9451 -160.3543 267.5773
f 835 836 837
v 3824.4338 -160.4830 267.5776
v 3824.9451 -160.3543 267.5773
v 3824.9481 -160.3683 267.5773
f 838 839 840
v 3822.0663 -149.0728 267.5793
v 3821.6011 -149.1895 267.5796
v 3821.9911 -148.7796 267.5794
f 841 842 843
v 3823.0090 -154.8013 267.5786
v 3824.4338 -160.4830 267.5776
v 3813.6037 -163.2000 267.5840
f 844 845 846
v 3824.9481 -160.3683 267.5773
v 3813.6037 -163.2000 267.5840
v 3824.4338 -160.4830 267.5776
f 847 848 849
v 3821.6011 -149.1895 267.5796
v 3823.0090 -154.8013 267.5786
v 3810.6977 -151.6184 267.5860
f 850 851 852
v 3813.6037 -163.2000 267.5840
v 3810.6977 -151.6184 267.5860
v 3823.0090 -154.8013 267.5786
f 853 854 855
v 3821.9911 -148.7796 267.5794
v 3821.6011 -149.1895 267.5796
v 3810.6977 -151.6184 267.5860
f 856 857 858
v 3813.6087 -163.2000 275.9507
v 3823.0141 -154.8013 275.9453
v 3810.7027 -151.6184 275.9527
f 859 860 861
v 3824.9532 -160.3683 275.9440
v 3824.4389 -160.4829 275.9443
v 3813.6087 -163.2000 275.9507
f 862 863 864
v 3821.9962 -148.7795 275.9461
v 3810.7027 -151.6184 275.9527
v 3821.6061 -149.1895 275.9463
f 865 866 867
v 3810.7027 -151.6184 275.9527
v 3823.0141 -154.8013 275.9453
v 3821.6061 -149.1895 275.9463
f 868 869 870
v 3823.0141 -154.8013 275.9453
v 3813.6087 -163.2000 275.9507
v 3824.4389 -160.4829 275.9443
f 871 872 873
v 3821.6061 -149.1895 275.9463
v 3822.0714 -149.0728 275.9460
v 3821.9962 -148.7795 275.9461
f 874 875 876
v 3824.9532 -160.3683 275.9440
v 3824.9502 -160.3543 275.9440
v 3824.4389 -160.4829 275.9443
f 877 878 879
v 3895.5968 -136.5936 280.4527
v 3895.5963 -136.5935 279.5997
v 3894.1872 -130.9819 279.6007
f 880 881 882
v 3895.5963 -136.5935 279.5997
v 3895.5968 -136.5936 280.4527
v 3897.0210 -142.2743 279.5987
f 883 884 885
v 3823.0090 -154.8013 267.5786
v 3823.0087 -154.8013 266.9806
v 3824.4334 -160.4829 266.9796
f 886 887 888
v 3824.4338 -160.4830 267.5776
v 3823.0090 -154.8013 267.5786
v 3824.4334 -160.4829 266.9796
f 889 890 891
v 3823.0087 -154.8013 266.9806
v 3821.6011 -149.1895 267.5796
v 3821.6007 -149.1895 266.9816
f 892 893 894
v 3823.0090 -154.8013 267.5786
v 3821.6011 -149.1895 267.5796
v 3823.0087 -154.8013 266.9806
f 895 896 897
v 3905.3105 -143.9735 266.9310
v 3907.4378 -152.4512 266.9295
v 3887.6808 -157.4072 266.9414
f 898 899 900
v 3824.9477 -160.3683 266.9793
v 3887.6808 -157.4072 266.9414
v 3890.7174 -169.5141 266.9393
f 901 902 903
v 3813.5078 -112.9254 266.9873
v 3905.3105 -143.9735 266.9310
v 3887.6808 -157.4072 266.9414
f 904 905 906
v 3884.5187 -44.5722 266.9454
v 3909.2091 -142.9949 266.9286
v 3905.3105 -143.9735 266.9310
f 907 908 909
v 3811.4006 -104.3818 266.9887
v 3884.5187 -44.5722 266.9454
v 3813.5078 -112.9254 266.9873
f 910 911 912
v 3813.5078 -112.9254 266.9873
v 3884.5187 -44.5722 266.9454
v 3905.3105 -143.9735 266.9310
f 913 914 915
v 3810.2633 -101.5128 266.9894
v 3884.5187 -44.5722 266.9454
v 3811.4006 -104.3818 266.9887
f 916 917 918
v 3824.9448 -160.3543 266.9793
v 3887.6808 -157.4072 266.9414
v 3824.9477 -160.3683 266.9793
f 919 920 921
v 3811.4006 -104.3818 266.9887
v 3811.0074 -104.4788 266.9889
v 3810.2633 -101.5128 266.9894
f 922 923 924
v 3821.9908 -148.7796 266.9814
v 3813.5078 -112.9254 266.9873
v 3887.6808 -157.4072 266.9414
f 925 926 927
v 3789.4927 -68.5827 267.0023
v 3884.5187 -44.5722 266.9454
v 3810.2633 -101.5128 266.9894
f 928 929 930
v 3824.9477 -160.3683 266.9793
v 3890.7174 -169.5141 266.9393
v 3807.6956 -190.4088 266.9887
f 931 932 933
v 3823.0087 -154.8013 266.9806
v 3824.9448 -160.3543 266.9793
v 3824.4334 -160.4829 266.9796
f 934 935 936
v 3823.0087 -154.8013 266.9806
v 3822.0660 -149.0728 266.9813
v 3824.9448 -160.3543 266.9793
f 937 938 939
v 3810.6973 -151.6184 266.9880
v 3813.6033 -163.1999 266.9860
v 3807.6956 -190.4088 266.9887
f 940 941 942
v 3824.9477 -160.3683 266.9793
v 3807.6956 -190.4088 266.9887
v 3813.6033 -163.1999 266.9860
f 943 944 945
v 3821.6007 -149.1895 266.9816
v 3822.0660 -149.0728 266.9813
v 3823.0087 -154.8013 266.9806
f 946 947 948
v 3813.5078 -112.9254 266.9873
v 3810.6973 -151.6184 266.9880
v 3789.5713 -118.8293 267.0014
f 949 950 951
v 3887.6808 -157.4072 266.9414
v 3822.0660 -149.0728 266.9813
v 3821.9908 -148.7796 266.9814
f 952 953 954
v 3798.5487 -104.4514 266.9963
v 3789.4927 -68.5827 267.0023
v 3810.2633 -101.5128 266.9894
f 955 956 957
v 3789.5713 -118.8293 267.0014
v 3810.6973 -151.6184 266.9880
v 3807.6956 -190.4088 266.9887
f 958 959 960
v 3813.5078 -112.9254 266.9873
v 3821.9908 -148.7796 266.9814
v 3810.6973 -151.6184 266.9880
f 961 962 963
v 3887.6808 -157.4072 266.9414
v 3824.9448 -160.3543 266.9793
v 3822.0660 -149.0728 266.9813
f 964 965 966
v 3823.0141 -154.8013 275.9453
v 3824.4389 -160.4829 275.9443
v 3824.4411 -160.4830 279.6421
f 967 968 969
v 3823.0169 -154.8013 280.4961
v 3823.0141 -154.8013 275.9453
v 3824.4411 -160.4830 279.6421
f 970 971 972
v 3823.0141 -154.8013 275.9453
v 3821.6084 -149.1895 279.6442
v 3821.6061 -149.1895 275.9463
f 973 974 975
v 3823.0169 -154.8013 280.4961
v 3821.6084 -149.1895 279.6442
v 3823.0141 -154.8013 275.9453
f 976 977 978
v 3821.6061 -149.1895 275.9463
v 3822.0737 -149.0728 279.6439
v 3822.0714 -149.0728 275.9460
f 979 980 981
v 3824.9448 -160.3543 266.9793
v 3824.4338 -160.4830 267.5776
v 3824.4334 -160.4829 266.9796
f 982 983 984
v 3821.6007 -149.1895 266.9816
v 3822.0663 -149.0728 267.5793
v 3822.0660 -149.0728 266.9813
f 985 986 987
v 3789.4927 -68.5827 267.0023
v 3884.5265 -44.5720 279.6079
v 3884.5187 -44.5722 266.9454
f 988 989 990
v 3798.5487 -104.4514 266.9963
v 3789.5004 -68.5825 279.6649
v 3789.4927 -68.5827 267.0023
f 991 992 993
v 3810.2633 -101.5128 266.9894
v 3798.5564 -104.4514 279.6589
v 3798.5487 -104.4514 266.9963
f 994 995 996
v 3811.0074 -104.4788 266.9889
v 3810.2710 -101.5127 279.6520
v 3810.2633 -101.5128 266.9894
f 997 998 999
v 3811.4006 -104.3818 266.9887
v 3811.0151 -104.4787 279.6515
v 3811.0074 -104.4788 266.9889
f 1000 1001 1002
v 3813.5078 -112.9254 266.9873
v 3811.4084 -104.3818 279.6513
v 3811.4006 -104.3818 266.9887
f 1003 1004 1005
v 3789.5713 -118.8293 267.0014
v 3813.5155 -112.9253 279.6499
v 3813.5078 -112.9254 266.9873
f 1006 1007 1008
v 3807.6956 -190.4088 266.9887
v 3789.5790 -118.8292 279.6640
v 3789.5713 -118.8293 267.0014
f 1009 1010 1011
v 3890.7174 -169.5141 266.9393
v 3807.7033 -190.4089 279.6513
v 3807.6956 -190.4088 266.9887
f 1012 1013 1014
v 3887.6808 -157.4072 266.9414
v 3890.7252 -169.5142 279.6018
v 3890.7174 -169.5141 266.9393
f 1015 1016 1017
v 3907.4378 -152.4512 266.9295
v 3887.6887 -157.4072 279.6040
v 3887.6808 -157.4072 266.9414
f 1018 1019 1020
v 3905.3105 -143.9735 266.9310
v 3907.4457 -152.4511 279.5921
v 3907.4378 -152.4512 266.9295
f 1021 1022 1023
v 3909.2091 -142.9949 266.9286
v 3905.3184 -143.9735 279.5936
v 3905.3105 -143.9735 266.9310
f 1024 1025 1026
v 3884.5187 -44.5722 266.9454
v 3909.2170 -142.9949 279.5912
v 3909.2091 -142.9949 266.9286
f 1027 1028 1029
v 3816.1257 -125.3312 272.2533
v 3804.9329 -128.1412 279.6546
v 3804.9284 -128.1412 272.2599
f 1030 1031 1032
v 3818.9654 -136.6506 272.2513
v 3816.1303 -125.3312 279.6480
v 3816.1257 -125.3312 272.2533
f 1033 1034 1035
v 3807.7680 -139.4597 272.2580
v 3818.9699 -136.6506 279.6460
v 3818.9654 -136.6506 272.2513
f 1036 1037 1038
v 3804.9284 -128.1412 272.2599
v 3807.7726 -139.4596 279.6527
v 3807.7680 -139.4597 272.2580
f 1039 1040 1041
v 3821.9962 -148.7795 275.9461
v 3810.7050 -151.6183 279.6506
v 3810.7027 -151.6184 275.9527
f 1042 1043 1044
v 3813.6087 -163.2000 275.9507
v 3824.9554 -160.3684 279.6418
v 3824.9532 -160.3683 275.9440
f 1045 1046 1047
v 3810.7027 -151.6184 275.9527
v 3813.6110 -163.1999 279.6485
v 3813.6087 -163.2000 275.9507
f 1048 1049 1050
v 3822.0660 -149.0728 266.9813
v 3821.9911 -148.7796 267.5794
v 3821.9908 -148.7796 266.9814
f 1051 1052 1053
v 3824.9532 -160.3683 275.9440
v 3824.9525 -160.3544 279.6418
v 3824.9502 -160.3543 275.9440
f 1054 1055 1056
v 3824.9502 -160.3543 275.9440
v 3824.4411 -160.4830 279.6421
v 3824.4389 -160.4829 275.9443
f 1057 1058 1059
v 3821.9908 -148.7796 266.9814
v 3810.6977 -151.6184 267.5860
v 3810.6973 -151.6184 266.9880
f 1060 1061 1062
v 3813.6033 -163.1999 266.9860
v 3824.9481 -160.3683 267.5773
v 3824.9477 -160.3683 266.9793
f 1063 1064 1065
v 3810.6973 -151.6184 266.9880
v 3813.6037 -163.2000 267.5840
v 3813.6033 -163.1999 266.9860
f 1066 1067 1068
v 3822.0714 -149.0728 275.9460
v 3821.9985 -148.7796 279.6440
v 3821.9962 -148.7795 275.9461
f 1069 1070 1071
v 3824.9477 -160.3683 266.9793
v 3824.9451 -160.3543 267.5773
v 3824.9448 -160.3543 266.9793
f 1072 1073 1074

g building_ID_E4C1ED17-7776-43E2-955A-9DAFD3A7AF0F
v 3936.0346 -39.3530 267.9689
v 3932.0268 -29.9525 267.9714
v 3940.0964 -30.0620 267.9664
f 1075 1076 1077
v 3951.8486 -21.6926 267.9592
v 3940.0964 -30.0620 267.9664
v 3932.0268 -29.9525 267.9714
f 1078 1079 1080
v 3942.8031 -36.5122 267.9647
v 3936.0346 -39.3530 267.9689
v 3940.0964 -30.0620 267.9664
f 1081 1082 1083
v 3951.8486 -21.6926 267.9592
v 3953.0668 -24.6178 267.9584
v 3940.0964 -30.0620 267.9664
f 1084 1085 1086
v 3953.9570 -26.7450 275.8206
v 3951.8536 -21.6924 275.8219
v 3944.5235 -30.7047 275.8264
f 1087 1088 1089
v 3932.0318 -29.9523 275.8341
v 3944.5235 -30.7047 275.8264
v 3951.8536 -21.6924 275.8219
f 1090 1091 1092
v 3946.3390 -35.0296 275.8252
v 3944.5235 -30.7047 275.8264
v 3936.0395 -39.3530 275.8316
f 1093 1094 1095
v 3932.0318 -29.9523 275.8341
v 3936.0395 -39.3530 275.8316
v 3944.5235 -30.7047 275.8264
f 1096 1097 1098
v 3932.0268 -29.9525 267.9714
v 3932.0318 -29.9523 275.8341
v 3951.8536 -21.6924 275.8219
f 1099 1100 1101
v 3944.5228 -30.7047 274.6885
v 3944.5235 -30.7047 275.8264
v 3946.3383 -35.0295 274.6873
f 1102 1103 1104
v 3953.9563 -26.7450 274.6827
v 3953.9570 -26.7450 275.8206
v 3944.5228 -30.7047 274.6885
f 1105 1106 1107
v 3955.7574 -31.0739 267.8787
v 3942.8030 -36.5122 267.8867
v 3940.0963 -30.0620 267.8884
f 1108 1109 1110
v 3940.0963 -30.0620 267.8884
v 3953.0667 -24.6178 267.8804
v 3955.7574 -31.0739 267.8787
f 1111 1112 1113
v 3944.5228 -30.7047 274.6885
v 3955.7617 -31.0737 274.6815
v 3953.9563 -26.7450 274.6827
f 1114 1115 1116
v 3955.7617 -31.0737 274.6815
v 3944.5228 -30.7047 274.6885
v 3946.3383 -35.0295 274.6873
f 1117 1118 1119
v 3940.0963 -30.0620 267.8884
v 3940.0964 -30.0620 267.9664
v 3953.0668 -24.6178 267.9584
f 1120 1121 1122
v 3942.8030 -36.5122 267.8867
v 3942.8031 -36.5122 267.9647
v 3940.0964 -30.0620 267.9664
f 1123 1124 1125
v 3955.7602 -31.0729 267.5307
v 3965.4706 -54.4186 267.5244
v 3959.5381 -56.8787 267.5281
f 1126 1127 1128
v 3936.0344 -39.3530 267.5429
v 3955.7602 -31.0729 267.5307
v 3936.1049 -39.5183 267.5428
f 1129 1130 1131
v 3959.5381 -56.8787 267.5281
v 3936.1049 -39.5183 267.5428
v 3955.7602 -31.0729 267.5307
f 1132 1133 1134
v 3936.1049 -39.5183 267.5428
v 3959.5381 -56.8787 267.5281
v 3935.7961 -66.7240 267.5427
f 1135 1136 1137
v 3935.7961 -66.7240 267.5427
v 3935.7748 -66.8530 267.5427
v 3935.7410 -66.7699 267.5427
f 1138 1139 1140
v 3935.7961 -66.7240 267.5427
v 3926.2171 -43.5918 267.5489
v 3936.1049 -39.5183 267.5428
f 1141 1142 1143
v 3959.5381 -56.8787 267.5281
v 3935.7748 -66.8530 267.5427
v 3935.7961 -66.7240 267.5427
f 1144 1145 1146
v 3935.8035 -66.7239 279.4333
v 3935.7485 -66.7698 279.4333
v 3935.7822 -66.8528 279.4333
f 1147 1148 1149
v 3936.1123 -39.5180 279.4334
v 3926.2246 -43.5915 279.4395
v 3935.8035 -66.7239 279.4333
f 1150 1151 1152
v 3935.8035 -66.7239 279.4333
v 3935.7822 -66.8528 279.4333
v 3959.5456 -56.8785 279.4187
f 1153 1154 1155
v 3955.7677 -31.0728 279.4213
v 3959.5456 -56.8785 279.4187
v 3965.4782 -54.4184 279.4150
f 1156 1157 1158
v 3955.7677 -31.0728 279.4213
v 3936.0418 -39.3529 279.4335
v 3936.1123 -39.5180 279.4334
f 1159 1160 1161
v 3959.5456 -56.8785 279.4187
v 3955.7677 -31.0728 279.4213
v 3936.1123 -39.5180 279.4334
f 1162 1163 1164
v 3935.8035 -66.7239 279.4333
v 3959.5456 -56.8785 279.4187
v 3936.1123 -39.5180 279.4334
f 1165 1166 1167
v 3965.4706 -54.4186 267.5244
v 3965.4782 -54.4184 279.4150
v 3959.5456 -56.8785 279.4187
f 1168 1169 1170
v 3935.7961 -66.7240 267.5427
v 3935.8035 -66.7239 279.4333
v 3926.2246 -43.5915 279.4395
f 1171 1172 1173
v 3935.7410 -66.7699 267.5427
v 3935.7485 -66.7698 279.4333
v 3935.8035 -66.7239 279.4333
f 1174 1175 1176
v 3935.7748 -66.8530 267.5427
v 3935.7822 -66.8528 279.4333
v 3935.7485 -66.7698 279.4333
f 1177 1178 1179
v 3959.5381 -56.8787 267.5281
v 3959.5456 -56.8785 279.4187
v 3935.7822 -66.8528 279.4333
f 1180 1181 1182
v 3936.0344 -39.3530 267.5429
v 3936.0346 -39.3530 267.9689
v 3942.8030 -36.5122 267.8867
f 1183 1184 1185
v 3942.8031 -36.5122 267.9647
v 3942.8030 -36.5122 267.8867
v 3936.0346 -39.3530 267.9689
f 1186 1187 1188
v 3955.7602 -31.0729 267.5307
v 3936.0344 -39.3530 267.5429
v 3942.8030 -36.5122 267.8867
f 1189 1190 1191
v 3936.0418 -39.3529 279.4335
v 3946.3390 -35.0296 275.8252
v 3936.0395 -39.3530 275.8316
f 1192 1193 1194
v 3955.7617 -31.0737 274.6815
v 3946.3390 -35.0296 275.8252
v 3955.7677 -31.0728 279.4213
f 1195 1196 1197
v 3936.0418 -39.3529 279.4335
v 3955.7677 -31.0728 279.4213
v 3946.3390 -35.0296 275.8252
f 1198 1199 1200
v 3946.3383 -35.0295 274.6873
v 3946.3390 -35.0296 275.8252
v 3955.7617 -31.0737 274.6815
f 1201 1202 1203
v 3926.2171 -43.5918 267.5489
v 3926.2246 -43.5915 279.4395
v 3936.1123 -39.5180 279.4334
f 1204 1205 1206
v 3936.0395 -39.3530 275.8316
v 3936.1123 -39.5180 279.4334
v 3936.0418 -39.3529 279.4335
f 1207 1208 1209
v 3936.1049 -39.5183 267.5428
v 3936.0346 -39.3530 267.9689
v 3936.0344 -39.3530 267.5429
f 1210 1211 1212
v 3936.1123 -39.5180 279.4334
v 3936.0395 -39.3530 275.8316
v 3936.0346 -39.3530 267.9689
f 1213 1214 1215
v 3936.0395 -39.3530 275.8316
v 3932.0318 -29.9523 275.8341
v 3932.0268 -29.9525 267.9714
f 1216 1217 1218
v 3953.9563 -26.7450 274.6827
v 3951.8536 -21.6924 275.8219
v 3953.9570 -26.7450 275.8206
f 1219 1220 1221
v 3951.8486 -21.6926 267.9592
v 3951.8536 -21.6924 275.8219
v 3953.9563 -26.7450 274.6827
f 1222 1223 1224
v 3953.9563 -26.7450 274.6827
v 3953.0668 -24.6178 267.9584
v 3951.8486 -21.6926 267.9592
f 1225 1226 1227
v 3953.0668 -24.6178 267.9584
v 3955.7574 -31.0739 267.8787
v 3953.0667 -24.6178 267.8804
f 1228 1229 1230
v 3955.7574 -31.0739 267.8787
v 3953.0668 -24.6178 267.9584
v 3953.9563 -26.7450 274.6827
f 1231 1232 1233
v 3955.7617 -31.0737 274.6815
v 3955.7677 -31.0728 279.4213
v 3965.4782 -54.4184 279.4150
f 1234 1235 1236
v 3965.4706 -54.4186 267.5244
v 3955.7617 -31.0737 274.6815
v 3965.4782 -54.4184 279.4150
f 1237 1238 1239
v 3955.7617 -31.0737 274.6815
v 3955.7574 -31.0739 267.8787
v 3953.9563 -26.7450 274.6827
f 1240 1241 1242
v 3965.4706 -54.4186 267.5244
v 3955.7602 -31.0729 267.5307
v 3955.7574 -31.0739 267.8787
f 1243 1244 1245
v 3955.7617 -31.0737 274.6815
v 3965.4706 -54.4186 267.5244
v 3955.7574 -31.0739 267.8787
f 1246 1247 1248
v 3932.0268 -29.9525 267.9714
v 3951.8536 -21.6924 275.8219
v 3951.8486 -21.6926 267.9592
f 1249 1250 1251
v 3944.5235 -30.7047 275.8264
v 3946.3390 -35.0296 275.8252
v 3946.3383 -35.0295 274.6873
f 1252 1253 1254
v 3953.9570 -26.7450 275.8206
v 3944.5235 -30.7047 275.8264
v 3944.5228 -30.7047 274.6885
f 1255 1256 1257
v 3940.0963 -30.0620 267.8884
v 3953.0668 -24.6178 267.9584
v 3953.0667 -24.6178 267.8804
f 1258 1259 1260
v 3942.8030 -36.5122 267.8867
v 3940.0964 -30.0620 267.9664
v 3940.0963 -30.0620 267.8884
f 1261 1262 1263
v 3965.4706 -54.4186 267.5244
v 3959.5456 -56.8785 279.4187
v 3959.5381 -56.8787 267.5281
f 1264 1265 1266
v 3935.7961 -66.7240 267.5427
v 3926.2246 -43.5915 279.4395
v 3926.2171 -43.5918 267.5489
f 1267 1268 1269
v 3935.7410 -66.7699 267.5427
v 3935.8035 -66.7239 279.4333
v 3935.7961 -66.7240 267.5427
f 1270 1271 1272
v 3935.7748 -66.8530 267.5427
v 3935.7485 -66.7698 279.4333
v 3935.7410 -66.7699 267.5427
f 1273 1274 1275
v 3959.5381 -56.8787 267.5281
v 3935.7822 -66.8528 279.4333
v 3935.7748 -66.8530 267.5427
f 1276 1277 1278
v 3955.7602 -31.0729 267.5307
v 3942.8030 -36.5122 267.8867
v 3955.7574 -31.0739 267.8787
f 1279 1280 1281
v 3926.2171 -43.5918 267.5489
v 3936.1123 -39.5180 279.4334
v 3936.1049 -39.5183 267.5428
f 1282 1283 1284
v 3936.1123 -39.5180 279.4334
v 3936.0346 -39.3530 267.9689
v 3936.1049 -39.5183 267.5428
f 1285 1286 1287
v 3936.0395 -39.3530 275.8316
v 3932.0268 -29.9525 267.9714
v 3936.0346 -39.3530 267.9689
f 1288 1289 1290

g building_ID_52DF54F6-A1DC-4B23-8258-D42EF6D420FC
v 3982.7039 -22.7091 267.0320
v 3971.6735 -27.0305 267.0389
v 3966.9569 -15.3171 267.0418
f 1291 1292 1293
v 3982.7039 -22.7091 267.0320
v 3966.9569 -15.3171 267.0418
v 3974.3528 -13.0649 267.0372
f 1294 1295 1296
v 3979.1684 -11.7048 267.0342
v 3982.7039 -22.7091 267.0320
v 3974.3528 -13.0649 267.0372
f 1297 1298 1299
v 3982.7091 -22.7089 275.2037
v 3976.4175 -12.4832 275.1788
v 3974.3580 -13.0648 275.1520
f 1300 1301 1302
v 3974.3580 -13.0648 275.1520
v 3966.9619 -15.3170 275.0536
v 3969.8150 -22.4025 275.0528
f 1303 1304 1305
v 3974.3580 -13.0648 275.1520
v 3969.8150 -22.4025 275.0528
v 3971.6786 -27.0305 275.0526
f 1306 1307 1308
v 3976.4175 -12.4832 275.1788
v 3982.7091 -22.7089 275.2037
v 3979.1736 -11.7046 275.2150
f 1309 1310 1311
v 3982.7091 -22.7089 275.2037
v 3974.3580 -13.0648 275.1520
v 3971.6786 -27.0305 275.0526
f 1312 1313 1314
v 3966.9569 -15.3171 267.0418
v 3966.9619 -15.3170 275.0536
v 3974.3580 -13.0648 275.1520
f 1315 1316 1317
v 3969.8150 -22.4025 275.0528
v 3966.9569 -15.3171 267.0418
v 3971.6735 -27.0305 267.0389
f 1318 1319 1320
v 3969.8150 -22.4025 275.0528
v 3966.9619 -15.3170 275.0536
v 3966.9569 -15.3171 267.0418
f 1321 1322 1323
v 3982.7039 -22.7091 267.0320
v 3982.7091 -22.7089 275.2037
v 3971.6735 -27.0305 267.0389
f 1324 1325 1326
v 3982.7091 -22.7089 275.2037
v 3971.6786 -27.0305 275.0526
v 3971.6735 -27.0305 267.0389
f 1327 1328 1329
v 3982.7091 -22.7089 275.2037
v 3979.1684 -11.7048 267.0342
v 3979.1736 -11.7046 275.2150
f 1330 1331 1332
v 3982.7091 -22.7089 275.2037
v 3982.7039 -22.7091 267.0320
v 3979.1684 -11.7048 267.0342
f 1333 1334 1335
v 3979.1684 -11.7048 267.0342
v 3974.3580 -13.0648 275.1520
v 3976.4175 -12.4832 275.1788
f 1336 1337 1338
v 3979.1684 -11.7048 267.0342
v 3974.3528 -13.0649 267.0372
v 3974.3580 -13.0648 275.1520
f 1339 1340 1341
v 3976.4175 -12.4832 275.1788
v 3979.1736 -11.7046 275.2150
v 3979.1684 -11.7048 267.0342
f 1342 1343 1344
v 3966.9569 -15.3171 267.0418
v 3974.3580 -13.0648 275.1520
v 3974.3528 -13.0649 267.0372
f 1345 1346 1347
v 3969.8150 -22.4025 275.0528
v 3971.6735 -27.0305 267.0389
v 3971.6786 -27.0305 275.0526
f 1348 1349 1350

g building_ID_D23CE63D-3AB1-41FB-AC19-D2580C44970F
v 4017.1443 -16.3660 280.9010
v 4030.8581 -10.7717 280.8924
v 4011.1345 3.1299 280.9049
f 1351 1352 1353
v 4023.1378 8.1497 280.8973
v 4011.1345 3.1299 280.9049
v 4030.8581 -10.7717 280.8924
f 1354 1355 1356
v 4009.4280 2.5444 280.9059
v 4017.1443 -16.3660 280.9010
v 4011.1345 3.1299 280.9049
f 1357 1358 1359
v 4009.4280 2.5444 280.9059
v 4011.1345 3.1299 280.9049
v 4011.0878 3.2409 280.9049
f 1360 1361 1362
v 4017.1427 -16.3660 278.4361
v 4017.1443 -16.3660 280.9010
v 4009.4280 2.5444 280.9059
f 1363 1364 1365
v 4023.1290 8.1494 267.1577
v 4023.1378 8.1497 280.8973
v 4030.8581 -10.7717 280.8924
f 1366 1367 1368
v 4006.4990 -20.7058 267.1681
v 4006.5062 -20.7056 278.4427
v 3998.6685 -1.9689 278.4478
f 1369 1370 1371
v 4023.1378 8.1497 280.8973
v 4011.1258 3.1296 267.1653
v 4011.1345 3.1299 280.9049
f 1372 1373 1374
v 4023.1290 8.1494 267.1577
v 4011.1258 3.1296 267.1653
v 4023.1378 8.1497 280.8973
f 1375 1376 1377
v 4011.0790 3.2406 267.1653
v 4011.0878 3.2409 280.9049
v 4011.1258 3.1296 267.1653
f 1378 1379 1380
v 4006.5062 -20.7056 278.4427
v 4009.4264 2.5443 278.4410
v 3998.6685 -1.9689 278.4478
f 1381 1382 1383
v 4009.4264 2.5443 278.4410
v 4006.5062 -20.7056 278.4427
v 4017.1427 -16.3660 278.4361
f 1384 1385 1386
v 4009.4192 2.5441 267.1664
v 4011.0790 3.2406 267.1653
v 4011.1258 3.1296 267.1653
f 1387 1388 1389
v 4017.1355 -16.3663 267.1615
v 4009.4192 2.5441 267.1664
v 4011.1258 3.1296 267.1653
f 1390 1391 1392
v 4030.8493 -10.7720 267.1529
v 4011.1258 3.1296 267.1653
v 4023.1290 8.1494 267.1577
f 1393 1394 1395
v 4030.8493 -10.7720 267.1529
v 4017.1355 -16.3663 267.1615
v 4011.1258 3.1296 267.1653
f 1396 1397 1398
v 4006.4990 -20.7058 267.1681
v 3998.6613 -1.9691 267.1731
v 4017.1355 -16.3663 267.1615
f 1399 1400 1401
v 4017.1355 -16.3663 267.1615
v 3998.6613 -1.9691 267.1731
v 4009.4192 2.5441 267.1664
f 1402 1403 1404
v 3998.6685 -1.9689 278.4478
v 4009.4264 2.5443 278.4410
v 4009.4192 2.5441 267.1664
f 1405 1406 1407
v 4009.4264 2.5443 278.4410
v 4011.0878 3.2409 280.9049
v 4011.0790 3.2406 267.1653
f 1408 1409 1410
v 4030.8493 -10.7720 267.1529
v 4030.8581 -10.7717 280.8924
v 4017.1427 -16.3660 278.4361
f 1411 1412 1413
v 4017.1443 -16.3660 280.9010
v 4017.1427 -16.3660 278.4361
v 4030.8581 -10.7717 280.8924
f 1414 1415 1416
v 4030.8493 -10.7720 267.1529
v 4017.1427 -16.3660 278.4361
v 4017.1355 -16.3663 267.1615
f 1417 1418 1419
v 4017.1427 -16.3660 278.4361
v 4006.5062 -20.7056 278.4427
v 4017.1355 -16.3663 267.1615
f 1420 1421 1422
v 4006.5062 -20.7056 278.4427
v 4006.4990 -20.7058 267.1681
v 4017.1355 -16.3663 267.1615
f 1423 1424 1425
v 4017.1427 -16.3660 278.4361
v 4009.4280 2.5444 280.9059
v 4009.4264 2.5443 278.4410
f 1426 1427 1428
v 4023.1290 8.1494 267.1577
v 4030.8581 -10.7717 280.8924
v 4030.8493 -10.7720 267.1529
f 1429 1430 1431
v 4006.4990 -20.7058 267.1681
v 3998.6685 -1.9689 278.4478
v 3998.6613 -1.9691 267.1731
f 1432 1433 1434
v 4011.0878 3.2409 280.9049
v 4011.1345 3.1299 280.9049
v 4011.1258 3.1296 267.1653
f 1435 1436 1437
v 3998.6685 -1.9689 278.4478
v 4009.4192 2.5441 267.1664
v 3998.6613 -1.9691 267.1731
f 1438 1439 1440
v 4009.4264 2.5443 278.4410
v 4009.4280 2.5444 280.9059
v 4011.0878 3.2409 280.9049
f 1441 1442 1443
v 4009.4264 2.5443 278.4410
v 4011.0790 3.2406 267.1653
v 4009.4192 2.5441 267.1664
f 1444 1445 1446

g building_ID_9CC24B7B-10A2-4F0C-9AB6-F47D467D8A07
v 4129.2164 -2.8598 282.8405
v 4130.9267 0.9896 282.8394
v 4128.1076 -0.1779 282.8412
f 1447 1448 1449
v 4128.7760 -3.0427 282.8407
v 4130.4968 -7.1972 282.8396
v 4129.2164 -2.8598 282.8405
f 1450 1451 1452
v 4130.4968 -7.1972 282.8396
v 4130.9267 0.9896 282.8394
v 4129.2164 -2.8598 282.8405
f 1453 1454 1455
v 4077.6445 2.9311 282.8736
v 4102.2733 -10.8737 282.8578
v 4093.7912 9.6157 282.8633
f 1456 1457 1458
v 4065.4808 -30.6471 282.8813
v 4109.6483 -12.3614 282.8531
v 4102.2733 -10.8737 282.8578
f 1459 1460 1461
v 4114.8768 -13.6633 282.8497
v 4112.0460 -6.8279 282.8515
v 4109.6483 -12.3614 282.8531
f 1462 1463 1464
v 4102.2733 -10.8737 282.8578
v 4109.6483 -12.3614 282.8531
v 4112.0460 -6.8279 282.8515
f 1465 1466 1467
v 4114.8768 -13.6633 282.8497
v 4109.6483 -12.3614 282.8531
v 4109.7278 -12.5416 282.8530
f 1468 1469 1470
v 4131.4145 -12.5416 282.8390
v 4135.7794 -10.7333 282.8362
v 4130.4968 -7.1972 282.8396
f 1471 1472 1473
v 4130.9267 0.9896 282.8394
v 4130.4968 -7.1972 282.8396
v 4135.7794 -10.7333 282.8362
f 1474 1475 1476
v 4128.4337 -14.7506 282.8410
v 4131.7593 -13.3726 282.8388
v 4131.4145 -12.5416 282.8390
f 1477 1478 1479
v 4131.4145 -12.5416 282.8390
v 4127.2086 -11.7954 282.8418
v 4128.4337 -14.7506 282.8410
f 1480 1481 1482
v 4127.2086 -11.7954 282.8418
v 4131.4145 -12.5416 282.8390
v 4130.4968 -7.1972 282.8396
f 1483 1484 1485
v 4122.2887 -11.0192 282.8449
v 4114.8768 -13.6633 282.8497
v 4111.0334 -15.6820 282.8522
f 1486 1487 1488
v 4127.2086 -11.7954 282.8418
v 4122.2887 -11.0192 282.8449
v 4123.2832 -13.4219 282.8443
f 1489 1490 1491
v 4111.0334 -15.6820 282.8522
v 4114.8768 -13.6633 282.8497
v 4109.7278 -12.5416 282.8530
f 1492 1493 1494
v 4130.4968 -7.1972 282.8396
v 4122.2887 -11.0192 282.8449
v 4127.2086 -11.7954 282.8418
f 1495 1496 1497
v 4130.4968 -7.1972 282.8396
v 4114.8768 -13.6633 282.8497
v 4122.2887 -11.0192 282.8449
f 1498 1499 1500
v 4085.2571 24.4985 282.8688
v 4085.4103 24.5620 282.8687
v 4084.8876 25.8255 282.8690
f 1501 1502 1503
v 4085.2571 24.4985 282.8688
v 4085.8704 22.7468 282.8684
v 4085.9656 22.7866 282.8683
f 1504 1505 1506
v 4085.6303 20.8325 282.8685
v 4086.5112 21.1981 282.8680
v 4085.8704 22.7468 282.8684
f 1507 1508 1509
v 4085.8704 22.7468 282.8684
v 4085.2571 24.4985 282.8688
v 4085.6303 20.8325 282.8685
f 1510 1511 1512
v 4085.6303 20.8325 282.8685
v 4085.2571 24.4985 282.8688
v 4073.7458 12.3464 282.8762
f 1513 1514 1515
v 4073.7458 12.3464 282.8762
v 4085.2571 24.4985 282.8688
v 4084.8876 25.8255 282.8690
f 1516 1517 1518
v 4085.6303 20.8325 282.8685
v 4073.7458 12.3464 282.8762
v 4086.8912 17.7881 282.8678
f 1519 1520 1521
v 4073.7458 12.3464 282.8762
v 4068.1818 -4.0876 282.8796
v 4077.6445 2.9311 282.8736
f 1522 1523 1524
v 4102.2733 -10.8737 282.8578
v 4077.6445 2.9311 282.8736
v 4072.4214 -14.3298 282.8769
f 1525 1526 1527
v 4057.0741 -6.6708 282.8867
v 4073.7458 12.3464 282.8762
v 4048.3406 10.6953 282.8923
f 1528 1529 1530
v 4084.8876 25.8255 282.8690
v 4048.3406 10.6953 282.8923
v 4073.7458 12.3464 282.8762
f 1531 1532 1533
v 4057.0741 -6.6708 282.8867
v 4059.5714 -7.6525 282.8851
v 4068.1818 -4.0876 282.8796
f 1534 1535 1536
v 4064.8318 -17.2225 282.8817
v 4060.6292 -18.9622 282.8844
v 4064.9202 -17.4368 282.8817
f 1537 1538 1539
v 4065.4808 -30.6471 282.8813
v 4072.4214 -14.3298 282.8769
v 4064.9202 -17.4368 282.8817
f 1540 1541 1542
v 4077.6445 2.9311 282.8736
v 4068.1818 -4.0876 282.8796
v 4072.4214 -14.3298 282.8769
f 1543 1544 1545
v 4058.5222 -8.4747 282.8858
v 4059.7086 -7.9839 282.8850
v 4059.5714 -7.6525 282.8851
f 1546 1547 1548
v 4057.0741 -6.6708 282.8867
v 4058.5222 -8.4747 282.8858
v 4059.5714 -7.6525 282.8851
f 1549 1550 1551
v 4048.3406 10.6953 282.8923
v 4055.7656 -7.2123 282.8875
v 4057.0741 -6.6708 282.8867
f 1552 1553 1554
v 4060.6292 -18.9622 282.8844
v 4065.4808 -30.6471 282.8813
v 4064.9202 -17.4368 282.8817
f 1555 1556 1557
v 4057.0741 -6.6708 282.8867
v 4068.1818 -4.0876 282.8796
v 4073.7458 12.3464 282.8762
f 1558 1559 1560
v 4072.4214 -14.3298 282.8769
v 4065.4808 -30.6471 282.8813
v 4102.2733 -10.8737 282.8578
f 1561 1562 1563
v 4109.6361 -12.3619 264.2607
v 4109.6483 -12.3614 282.8531
v 4065.4808 -30.6471 282.8813
f 1564 1565 1566
v 4109.7156 -12.5420 264.2606
v 4109.7278 -12.5416 282.8530
v 4109.6483 -12.3614 282.8531
f 1567 1568 1569
v 4111.0212 -15.6824 264.2598
v 4111.0334 -15.6820 282.8522
v 4109.7278 -12.5416 282.8530
f 1570 1571 1572
v 4122.2765 -11.0196 264.2525
v 4122.2887 -11.0192 282.8449
v 4111.0334 -15.6820 282.8522
f 1573 1574 1575
v 4123.2711 -13.4223 264.2519
v 4123.2832 -13.4219 282.8443
v 4122.2887 -11.0192 282.8449
f 1576 1577 1578
v 4127.1964 -11.7958 264.2494
v 4127.2086 -11.7954 282.8418
v 4123.2832 -13.4219 282.8443
f 1579 1580 1581
v 4128.4214 -14.7510 264.2486
v 4128.4337 -14.7506 282.8410
v 4127.2086 -11.7954 282.8418
f 1582 1583 1584
v 4131.7470 -13.3730 264.2464
v 4131.7593 -13.3726 282.8388
v 4128.4337 -14.7506 282.8410
f 1585 1586 1587
v 4131.4023 -12.5420 264.2466
v 4131.4145 -12.5416 282.8390
v 4131.7593 -13.3726 282.8388
f 1588 1589 1590
v 4135.7671 -10.7337 264.2438
v 4135.7794 -10.7333 282.8362
v 4131.4145 -12.5416 282.8390
f 1591 1592 1593
v 4085.2606 24.4986 288.2736
v 4086.0764 22.5284 288.2731
v 4085.4138 24.5622 288.2735
f 1594 1595 1596
v 4092.9562 29.2090 288.2686
v 4085.7693 26.2263 288.2732
v 4085.4138 24.5622 288.2735
f 1597 1598 1599
v 4085.7693 26.2263 288.2732
v 4084.8783 25.8566 288.2738
v 4085.4138 24.5622 288.2735
f 1600 1601 1602
v 4097.8152 27.7489 288.2655
v 4085.4138 24.5622 288.2735
v 4086.0764 22.5284 288.2731
f 1603 1604 1605
v 4092.9562 29.2090 288.2686
v 4097.8152 27.7489 288.2655
v 4096.5892 30.7112 288.2663
f 1606 1607 1608
v 4085.7805 26.3062 288.2732
v 4085.7693 26.2263 288.2732
v 4092.8983 29.2531 288.2687
f 1609 1610 1611
v 4092.8983 29.2531 288.2687
v 4085.7693 26.2263 288.2732
v 4092.9562 29.2090 288.2686
f 1612 1613 1614
v 4097.8152 27.7489 288.2655
v 4092.9562 29.2090 288.2686
v 4085.4138 24.5622 288.2735
f 1615 1616 1617
v 4092.9405 29.2083 264.2714
v 4092.9562 29.2090 288.2686
v 4096.5892 30.7112 288.2663
f 1618 1619 1620
v 4092.8827 29.2524 264.2715
v 4092.8983 29.2531 288.2687
v 4092.9562 29.2090 288.2686
f 1621 1622 1623
v 4085.7649 26.3056 264.2760
v 4085.7805 26.3062 288.2732
v 4092.8983 29.2531 288.2687
f 1624 1625 1626
v 4085.7536 26.2255 264.2760
v 4085.7693 26.2263 288.2732
v 4085.7805 26.3062 288.2732
f 1627 1628 1629
v 4084.8626 25.8560 264.2766
v 4084.8783 25.8566 288.2738
v 4085.7693 26.2263 288.2732
f 1630 1631 1632
v 4048.3286 10.6948 264.2999
v 4048.3406 10.6953 282.8923
v 4084.8876 25.8255 282.8690
f 1633 1634 1635
v 4085.4103 24.5620 282.8687
v 4085.4138 24.5622 288.2735
v 4084.8876 25.8255 282.8690
f 1636 1637 1638
v 4084.8783 25.8566 288.2738
v 4084.8876 25.8255 282.8690
v 4085.4138 24.5622 288.2735
f 1639 1640 1641
v 4084.8756 25.8248 264.2766
v 4084.8876 25.8255 282.8690
v 4084.8626 25.8560 264.2766
f 1642 1643 1644
v 4084.8783 25.8566 288.2738
v 4084.8626 25.8560 264.2766
v 4084.8876 25.8255 282.8690
f 1645 1646 1647
v 4085.2571 24.4985 282.8688
v 4085.2606 24.4986 288.2736
v 4085.4138 24.5622 288.2735
f 1648 1649 1650
v 4086.0744 22.5283 285.1442
v 4086.0764 22.5284 288.2731
v 4085.9670 22.7866 285.1442
f 1651 1652 1653
v 4085.2606 24.4986 288.2736
v 4085.9670 22.7866 285.1442
v 4086.0764 22.5284 288.2731
f 1654 1655 1656
v 4085.9656 22.7866 282.8683
v 4085.9670 22.7866 285.1442
v 4085.2571 24.4985 282.8688
f 1657 1658 1659
v 4085.2606 24.4986 288.2736
v 4085.2571 24.4985 282.8688
v 4085.9670 22.7866 285.1442
f 1660 1661 1662
v 4097.4933 27.6068 285.9898
v 4097.8137 27.7489 285.9896
v 4097.8152 27.7489 288.2655
f 1663 1664 1665
v 4095.9059 26.9010 285.1378
v 4097.4913 27.6067 282.8609
v 4097.4933 27.6068 285.9898
f 1666 1667 1668
v 4097.4933 27.6068 285.9898
v 4097.8152 27.7489 288.2655
v 4095.9059 26.9010 285.1378
f 1669 1670 1671
v 4086.0744 22.5283 285.1442
v 4095.9059 26.9010 285.1378
v 4086.0764 22.5284 288.2731
f 1672 1673 1674
v 4097.8152 27.7489 288.2655
v 4086.0764 22.5284 288.2731
v 4095.9059 26.9010 285.1378
f 1675 1676 1677
v 4097.4913 27.6067 282.8609
v 4095.9059 26.9010 285.1378
v 4095.9044 26.9009 282.8619
f 1678 1679 1680
v 4096.6005 30.6740 282.8615
v 4096.5735 30.7105 264.2691
v 4096.5892 30.7112 288.2663
f 1681 1682 1683
v 4096.5892 30.7112 288.2663
v 4097.8152 27.7489 288.2655
v 4096.6026 30.6752 285.9904
f 1684 1685 1686
v 4096.6026 30.6752 285.9904
v 4096.6005 30.6740 282.8615
v 4096.5892 30.7112 288.2663
f 1687 1688 1689
v 4096.5735 30.7105 264.2691
v 4096.6005 30.6740 282.8615
v 4096.5883 30.6735 264.2691
f 1690 1691 1692
v 4130.4968 -7.1972 282.8396
v 4130.4989 -7.1972 285.9685
v 4114.8788 -13.6633 285.9786
f 1693 1694 1695
v 4128.7760 -3.0427 282.8407
v 4128.7780 -3.0426 285.9696
v 4130.4989 -7.1972 285.9685
f 1696 1697 1698
v 4129.2164 -2.8598 282.8405
v 4129.2185 -2.8598 285.9694
v 4128.7780 -3.0426 285.9696
f 1699 1700 1701
v 4128.1076 -0.1779 282.8412
v 4128.1097 -0.1778 285.9701
v 4129.2185 -2.8598 285.9694
f 1702 1703 1704
v 4114.8768 -13.6633 282.8497
v 4114.8788 -13.6633 285.9786
v 4112.0481 -6.8278 285.9804
f 1705 1706 1707
v 4062.0244 -13.5750 285.7284
v 4064.8336 -17.2225 285.7266
v 4063.1336 -13.1169 285.7277
f 1708 1709 1710
v 4060.6310 -18.9621 285.7293
v 4064.8336 -17.2225 285.7266
v 4062.0244 -13.5750 285.7284
f 1711 1712 1713
v 4062.0244 -13.5750 285.7284
v 4059.1704 -15.4453 285.7302
v 4060.6310 -18.9621 285.7293
f 1714 1715 1716
v 4059.1704 -15.4453 285.7302
v 4058.5241 -8.4746 285.7306
v 4058.7696 -15.3872 285.7305
f 1717 1718 1719
v 4058.5241 -8.4746 285.7306
v 4059.1704 -15.4453 285.7302
v 4062.0244 -13.5750 285.7284
f 1720 1721 1722
v 4056.1878 -8.2264 285.7321
v 4058.5241 -8.4746 285.7306
v 4057.0759 -6.6708 285.7316
f 1723 1724 1725
v 4062.0244 -13.5750 285.7284
v 4059.7104 -7.9838 285.7299
v 4058.5241 -8.4746 285.7306
f 1726 1727 1728
v 4058.5241 -8.4746 285.7306
v 4056.1878 -8.2264 285.7321
v 4055.9429 -8.5588 285.7323
f 1729 1730 1731
v 4057.0759 -6.6708 285.7316
v 4055.7675 -7.2123 285.7324
v 4056.1878 -8.2264 285.7321
f 1732 1733 1734
v 4058.7696 -15.3872 285.7305
v 4058.5241 -8.4746 285.7306
v 4055.9429 -8.5588 285.7323
f 1735 1736 1737
v 4055.9290 -8.5592 264.2951
v 4055.9429 -8.5588 285.7323
v 4056.1107 -8.3117 264.2950
f 1738 1739 1740
v 4056.1878 -8.2264 285.7321
v 4056.1107 -8.3117 264.2950
v 4055.9429 -8.5588 285.7323
f 1741 1742 1743
v 4056.1107 -8.3117 264.2950
v 4056.1878 -8.2264 285.7321
v 4056.1739 -8.2269 264.2949
f 1744 1745 1746
v 4058.7557 -15.3877 264.2933
v 4058.7696 -15.3872 285.7305
v 4055.9429 -8.5588 285.7323
f 1747 1748 1749
v 4058.7557 -15.3877 264.2933
v 4059.1565 -15.4458 264.2930
v 4059.1704 -15.4453 285.7302
f 1750 1751 1752
v 4059.1704 -15.4453 285.7302
v 4058.7696 -15.3872 285.7305
v 4058.7557 -15.3877 264.2933
f 1753 1754 1755
v 4063.1338 -13.1169 286.0117
v 4064.9222 -17.4367 286.0106
v 4072.4234 -14.3298 286.0058
f 1756 1757 1758
v 4068.1839 -4.0875 286.0085
v 4063.1338 -13.1169 286.0117
v 4072.4234 -14.3298 286.0058
f 1759 1760 1761
v 4062.0246 -13.5750 286.0124
v 4063.1338 -13.1169 286.0117
v 4059.5734 -7.6524 286.0140
f 1762 1763 1764
v 4068.1839 -4.0875 286.0085
v 4059.5734 -7.6524 286.0140
v 4063.1338 -13.1169 286.0117
f 1765 1766 1767
v 4063.1336 -13.1169 285.7277
v 4063.1338 -13.1169 286.0117
v 4062.0246 -13.5750 286.0124
f 1768 1769 1770
v 4064.8318 -17.2225 282.8817
v 4064.8336 -17.2225 285.7266
v 4060.6310 -18.9621 285.7293
f 1771 1772 1773
v 4058.5222 -8.4747 282.8858
v 4058.5241 -8.4746 285.7306
v 4059.7104 -7.9838 285.7299
f 1774 1775 1776
v 4057.0741 -6.6708 282.8867
v 4057.0759 -6.6708 285.7316
v 4058.5241 -8.4746 285.7306
f 1777 1778 1779
v 4055.7656 -7.2123 282.8875
v 4055.7675 -7.2123 285.7324
v 4057.0741 -6.6708 282.8867
f 1780 1781 1782
v 4068.1818 -4.0876 282.8796
v 4068.1839 -4.0875 286.0085
v 4072.4234 -14.3298 286.0058
f 1783 1784 1785
v 4059.5714 -7.6525 282.8851
v 4059.5734 -7.6524 286.0140
v 4068.1839 -4.0875 286.0085
f 1786 1787 1788
v 4072.4214 -14.3298 282.8769
v 4072.4234 -14.3298 286.0058
v 4064.9222 -17.4367 286.0106
f 1789 1790 1791
v 4062.0246 -13.5750 286.0124
v 4059.7104 -7.9838 285.7299
v 4062.0244 -13.5750 285.7284
f 1792 1793 1794
v 4059.5714 -7.6525 282.8851
v 4059.7104 -7.9838 285.7299
v 4059.5734 -7.6524 286.0140
f 1795 1796 1797
v 4062.0246 -13.5750 286.0124
v 4059.5734 -7.6524 286.0140
v 4059.7104 -7.9838 285.7299
f 1798 1799 1800
v 4059.7086 -7.9839 282.8850
v 4059.7104 -7.9838 285.7299
v 4059.5714 -7.6525 282.8851
f 1801 1802 1803
v 4064.9202 -17.4368 282.8817
v 4064.9222 -17.4367 286.0106
v 4064.8336 -17.2225 285.7266
f 1804 1805 1806
v 4063.1338 -13.1169 286.0117
v 4064.8336 -17.2225 285.7266
v 4064.9222 -17.4367 286.0106
f 1807 1808 1809
v 4063.1338 -13.1169 286.0117
v 4063.1336 -13.1169 285.7277
v 4064.8336 -17.2225 285.7266
f 1810 1811 1812
v 4096.6005 30.6740 282.8615
v 4096.6026 30.6752 285.9904
v 4115.4142 38.4617 285.9783
f 1813 1814 1815
v 4096.5883 30.6735 264.2691
v 4096.6005 30.6740 282.8615
v 4115.4142 38.4617 285.9783
f 1816 1817 1818
v 4089.8522 19.1343 285.1418
v 4089.8527 19.1343 285.9948
v 4099.3702 23.0739 285.9886
f 1819 1820 1821
v 4095.9044 26.9009 282.8619
v 4097.5082 27.5647 282.8609
v 4097.4913 27.6067 282.8609
f 1822 1823 1824
v 4105.9967 8.7381 282.8554
v 4112.7542 11.5350 282.8511
v 4107.8638 23.3470 282.8543
f 1825 1826 1827
v 4107.8638 23.3470 282.8543
v 4101.1064 20.5501 282.8586
v 4105.9967 8.7381 282.8554
f 1828 1829 1830
v 4086.8926 17.7882 285.1436
v 4073.7472 12.3464 285.1521
v 4077.6460 2.9311 285.1496
f 1831 1832 1833
v 4093.7927 9.6158 285.1393
v 4086.8926 17.7882 285.1436
v 4077.6460 2.9311 285.1496
f 1834 1835 1836
v 4086.8926 17.7882 285.1436
v 4086.5128 21.1981 285.1439
v 4085.6318 20.8325 285.1444
f 1837 1838 1839
v 4086.0744 22.5283 285.1442
v 4085.8719 22.7469 285.1443
v 4086.5128 21.1981 285.1439
f 1840 1841 1842
v 4086.5128 21.1981 285.1439
v 4086.8926 17.7882 285.1436
v 4089.8522 19.1343 285.1418
f 1843 1844 1845
v 4095.9059 26.9010 285.1378
v 4089.8522 19.1343 285.1418
v 4099.3696 23.0737 285.1356
f 1846 1847 1848
v 4089.8522 19.1343 285.1418
v 4095.9059 26.9010 285.1378
v 4086.5128 21.1981 285.1439
f 1849 1850 1851
v 4085.8719 22.7469 285.1443
v 4086.0744 22.5283 285.1442
v 4085.9670 22.7866 285.1442
f 1852 1853 1854
v 4095.9059 26.9010 285.1378
v 4086.0744 22.5283 285.1442
v 4086.5128 21.1981 285.1439
f 1855 1856 1857
v 4095.9059 26.9010 285.1378
v 4099.3696 23.0737 285.1356
v 4097.5097 27.5647 285.1368
f 1858 1859 1860
v 4093.7927 9.6158 285.1393
v 4089.8522 19.1343 285.1418
v 4086.8926 17.7882 285.1436
f 1861 1862 1863
v 4093.7912 9.6157 282.8633
v 4093.7927 9.6158 285.1393
v 4077.6460 2.9311 285.1496
f 1864 1865 1866
v 4085.8704 22.7468 282.8684
v 4085.8719 22.7469 285.1443
v 4085.9670 22.7866 285.1442
f 1867 1868 1869
v 4095.9044 26.9009 282.8619
v 4095.9059 26.9010 285.1378
v 4097.5097 27.5647 285.1368
f 1870 1871 1872
v 4086.5112 21.1981 282.8680
v 4086.5128 21.1981 285.1439
v 4085.8719 22.7469 285.1443
f 1873 1874 1875
v 4085.6303 20.8325 282.8685
v 4085.6318 20.8325 285.1444
v 4086.5128 21.1981 285.1439
f 1876 1877 1878
v 4086.8912 17.7881 282.8678
v 4086.8926 17.7882 285.1436
v 4085.6318 20.8325 285.1444
f 1879 1880 1881
v 4073.7458 12.3464 282.8762
v 4073.7472 12.3464 285.1521
v 4086.8926 17.7882 285.1436
f 1882 1883 1884
v 4077.6445 2.9311 282.8736
v 4077.6460 2.9311 285.1496
v 4073.7472 12.3464 285.1521
f 1885 1886 1887
v 4112.0460 -6.8279 282.8515
v 4112.0481 -6.8278 285.9804
v 4102.2753 -10.8736 285.9867
f 1888 1889 1890
v 4130.9267 0.9896 282.8394
v 4130.9288 0.9897 285.9683
v 4128.1097 -0.1778 285.9701
f 1891 1892 1893
v 4107.8638 23.3470 282.8543
v 4107.8658 23.3471 285.9831
v 4101.1064 20.5501 282.8586
f 1894 1895 1896
v 4107.8658 23.3471 285.9831
v 4101.1084 20.5501 285.9874
v 4101.1064 20.5501 282.8586
f 1897 1898 1899
v 4112.7542 11.5350 282.8511
v 4112.7562 11.5351 285.9800
v 4107.8658 23.3471 285.9831
f 1900 1901 1902
v 4105.9967 8.7381 282.8554
v 4105.9988 8.7383 285.9843
v 4112.7562 11.5351 285.9800
f 1903 1904 1905
v 4099.3696 23.0737 285.1356
v 4099.3702 23.0739 285.9886
v 4097.5097 27.5647 285.1368
f 1906 1907 1908
v 4097.4933 27.6068 285.9898
v 4097.5097 27.5647 285.1368
v 4099.3702 23.0739 285.9886
f 1909 1910 1911
v 4097.5082 27.5647 282.8609
v 4097.5097 27.5647 285.1368
v 4097.4913 27.6067 282.8609
f 1912 1913 1914
v 4097.4933 27.6068 285.9898
v 4097.4913 27.6067 282.8609
v 4097.5097 27.5647 285.1368
f 1915 1916 1917
v 4102.2733 -10.8737 282.8578
v 4102.2753 -10.8736 285.9867
v 4093.7927 9.6158 285.1393
f 1918 1919 1920
v 4089.8527 19.1343 285.9948
v 4093.7927 9.6158 285.1393
v 4102.2753 -10.8736 285.9867
f 1921 1922 1923
v 4089.8527 19.1343 285.9948
v 4089.8522 19.1343 285.1418
v 4093.7927 9.6158 285.1393
f 1924 1925 1926
v 4105.9988 8.7383 285.9843
v 4101.1064 20.5501 282.8586
v 4101.1084 20.5501 285.9874
f 1927 1928 1929
v 4060.6292 -18.9622 282.8844
v 4059.1565 -15.4458 264.2930
v 4065.4808 -30.6471 282.8813
f 1930 1931 1932
v 4065.4808 -30.6471 282.8813
v 4059.1565 -15.4458 264.2930
v 4065.4688 -30.6474 264.2889
f 1933 1934 1935
v 4060.6292 -18.9622 282.8844
v 4060.6310 -18.9621 285.7293
v 4059.1704 -15.4453 285.7302
f 1936 1937 1938
v 4059.1704 -15.4453 285.7302
v 4059.1565 -15.4458 264.2930
v 4060.6292 -18.9622 282.8844
f 1939 1940 1941
v 4055.7675 -7.2123 285.7324
v 4055.7656 -7.2123 282.8875
v 4056.1878 -8.2264 285.7321
f 1942 1943 1944
v 4055.7656 -7.2123 282.8875
v 4056.1739 -8.2269 264.2949
v 4056.1878 -8.2264 285.7321
f 1945 1946 1947
v 4055.7656 -7.2123 282.8875
v 4048.3406 10.6953 282.8923
v 4056.1739 -8.2269 264.2949
f 1948 1949 1950
v 4048.3406 10.6953 282.8923
v 4048.3286 10.6948 264.2999
v 4056.1739 -8.2269 264.2949
f 1951 1952 1953
v 4085.7649 26.3056 264.2760
v 4092.8827 29.2524 264.2715
v 4092.9405 29.2083 264.2714
f 1954 1955 1956
v 4085.7536 26.2255 264.2760
v 4085.7649 26.3056 264.2760
v 4092.9405 29.2083 264.2714
f 1957 1958 1959
v 4096.5883 30.6735 264.2691
v 4056.1739 -8.2269 264.2949
v 4092.9405 29.2083 264.2714
f 1960 1961 1962
v 4092.9405 29.2083 264.2714
v 4056.1739 -8.2269 264.2949
v 4085.7536 26.2255 264.2760
f 1963 1964 1965
v 4056.1739 -8.2269 264.2949
v 4096.5883 30.6735 264.2691
v 4130.9135 0.9891 264.2470
f 1966 1967 1968
v 4096.5735 30.7105 264.2691
v 4096.5883 30.6735 264.2691
v 4092.9405 29.2083 264.2714
f 1969 1970 1971
v 4085.7536 26.2255 264.2760
v 4084.8756 25.8248 264.2766
v 4084.8626 25.8560 264.2766
f 1972 1973 1974
v 4084.8756 25.8248 264.2766
v 4056.1739 -8.2269 264.2949
v 4048.3286 10.6948 264.2999
f 1975 1976 1977
v 4084.8756 25.8248 264.2766
v 4085.7536 26.2255 264.2760
v 4056.1739 -8.2269 264.2949
f 1978 1979 1980
v 4056.1107 -8.3117 264.2950
v 4058.7557 -15.3877 264.2933
v 4055.9290 -8.5592 264.2951
f 1981 1982 1983
v 4059.1565 -15.4458 264.2930
v 4056.1107 -8.3117 264.2950
v 4056.1739 -8.2269 264.2949
f 1984 1985 1986
v 4115.3999 38.4610 264.2570
v 4130.9135 0.9891 264.2470
v 4096.5883 30.6735 264.2691
f 1987 1988 1989
v 4122.2765 -11.0196 264.2525
v 4130.9135 0.9891 264.2470
v 4127.1964 -11.7958 264.2494
f 1990 1991 1992
v 4135.7671 -10.7337 264.2438
v 4127.1964 -11.7958 264.2494
v 4130.9135 0.9891 264.2470
f 1993 1994 1995
v 4127.1964 -11.7958 264.2494
v 4123.2711 -13.4223 264.2519
v 4122.2765 -11.0196 264.2525
f 1996 1997 1998
v 4109.6361 -12.3619 264.2607
v 4130.9135 0.9891 264.2470
v 4122.2765 -11.0196 264.2525
f 1999 2000 2001
v 4127.1964 -11.7958 264.2494
v 4131.4023 -12.5420 264.2466
v 4128.4214 -14.7510 264.2486
f 2002 2003 2004
v 4131.7470 -13.3730 264.2464
v 4128.4214 -14.7510 264.2486
v 4131.4023 -12.5420 264.2466
f 2005 2006 2007
v 4127.1964 -11.7958 264.2494
v 4135.7671 -10.7337 264.2438
v 4131.4023 -12.5420 264.2466
f 2008 2009 2010
v 4059.1565 -15.4458 264.2930
v 4109.6361 -12.3619 264.2607
v 4065.4688 -30.6474 264.2889
f 2011 2012 2013
v 4058.7557 -15.3877 264.2933
v 4056.1107 -8.3117 264.2950
v 4059.1565 -15.4458 264.2930
f 2014 2015 2016
v 4122.2765 -11.0196 264.2525
v 4111.0212 -15.6824 264.2598
v 4109.7156 -12.5420 264.2606
f 2017 2018 2019
v 4109.7156 -12.5420 264.2606
v 4109.6361 -12.3619 264.2607
v 4122.2765 -11.0196 264.2525
f 2020 2021 2022
v 4059.1565 -15.4458 264.2930
v 4130.9135 0.9891 264.2470
v 4109.6361 -12.3619 264.2607
f 2023 2024 2025
v 4130.9135 0.9891 264.2470
v 4059.1565 -15.4458 264.2930
v 4056.1739 -8.2269 264.2949
f 2026 2027 2028
v 4130.9288 0.9897 285.9683
v 4130.9267 0.9896 282.8394
v 4115.4142 38.4617 285.9783
f 2029 2030 2031
v 4130.9267 0.9896 282.8394
v 4115.3999 38.4610 264.2570
v 4115.4142 38.4617 285.9783
f 2032 2033 2034
v 4115.3999 38.4610 264.2570
v 4130.9267 0.9896 282.8394
v 4130.9135 0.9891 264.2470
f 2035 2036 2037
v 4130.9267 0.9896 282.8394
v 4135.7794 -10.7333 282.8362
v 4130.9135 0.9891 264.2470
f 2038 2039 2040
v 4135.7794 -10.7333 282.8362
v 4135.7671 -10.7337 264.2438
v 4130.9135 0.9891 264.2470
f 2041 2042 2043
v 4102.2753 -10.8736 285.9867
v 4105.9988 8.7383 285.9843
v 4089.8527 19.1343 285.9948
f 2044 2045 2046
v 4105.9988 8.7383 285.9843
v 4102.2753 -10.8736 285.9867
v 4112.0481 -6.8278 285.9804
f 2047 2048 2049
v 4114.8788 -13.6633 285.9786
v 4128.7780 -3.0426 285.9696
v 4112.0481 -6.8278 285.9804
f 2050 2051 2052
v 4101.1084 20.5501 285.9874
v 4089.8527 19.1343 285.9948
v 4105.9988 8.7383 285.9843
f 2053 2054 2055
v 4099.3702 23.0739 285.9886
v 4107.8658 23.3471 285.9831
v 4097.8137 27.7489 285.9896
f 2056 2057 2058
v 4097.8137 27.7489 285.9896
v 4107.8658 23.3471 285.9831
v 4096.6026 30.6752 285.9904
f 2059 2060 2061
v 4099.3702 23.0739 285.9886
v 4097.8137 27.7489 285.9896
v 4097.4933 27.6068 285.9898
f 2062 2063 2064
v 4099.3702 23.0739 285.9886
v 4089.8527 19.1343 285.9948
v 4101.1084 20.5501 285.9874
f 2065 2066 2067
v 4101.1084 20.5501 285.9874
v 4107.8658 23.3471 285.9831
v 4099.3702 23.0739 285.9886
f 2068 2069 2070
v 4128.1097 -0.1778 285.9701
v 4112.0481 -6.8278 285.9804
v 4128.7780 -3.0426 285.9696
f 2071 2072 2073
v 4128.7780 -3.0426 285.9696
v 4129.2185 -2.8598 285.9694
v 4128.1097 -0.1778 285.9701
f 2074 2075 2076
v 4112.0481 -6.8278 285.9804
v 4128.1097 -0.1778 285.9701
v 4112.7562 11.5351 285.9800
f 2077 2078 2079
v 4115.4142 38.4617 285.9783
v 4112.7562 11.5351 285.9800
v 4130.9288 0.9897 285.9683
f 2080 2081 2082
v 4112.7562 11.5351 285.9800
v 4105.9988 8.7383 285.9843
v 4112.0481 -6.8278 285.9804
f 2083 2084 2085
v 4107.8658 23.3471 285.9831
v 4112.7562 11.5351 285.9800
v 4115.4142 38.4617 285.9783
f 2086 2087 2088
v 4112.7562 11.5351 285.9800
v 4128.1097 -0.1778 285.9701
v 4130.9288 0.9897 285.9683
f 2089 2090 2091
v 4096.6026 30.6752 285.9904
v 4107.8658 23.3471 285.9831
v 4115.4142 38.4617 285.9783
f 2092 2093 2094
v 4130.4989 -7.1972 285.9685
v 4128.7780 -3.0426 285.9696
v 4114.8788 -13.6633 285.9786
f 2095 2096 2097
v 4109.6361 -12.3619 264.2607
v 4065.4808 -30.6471 282.8813
v 4065.4688 -30.6474 264.2889
f 2098 2099 2100
v 4109.7156 -12.5420 264.2606
v 4109.6483 -12.3614 282.8531
v 4109.6361 -12.3619 264.2607
f 2101 2102 2103
v 4111.0212 -15.6824 264.2598
v 4109.7278 -12.5416 282.8530
v 4109.7156 -12.5420 264.2606
f 2104 2105 2106
v 4122.2765 -11.0196 264.2525
v 4111.0334 -15.6820 282.8522
v 4111.0212 -15.6824 264.2598
f 2107 2108 2109
v 4123.2711 -13.4223 264.2519
v 4122.2887 -11.0192 282.8449
v 4122.2765 -11.0196 264.2525
f 2110 2111 2112
v 4127.1964 -11.7958 264.2494
v 4123.2832 -13.4219 282.8443
v 4123.2711 -13.4223 264.2519
f 2113 2114 2115
v 4128.4214 -14.7510 264.2486
v 4127.2086 -11.7954 282.8418
v 4127.1964 -11.7958 264.2494
f 2116 2117 2118
v 4131.7470 -13.3730 264.2464
v 4128.4337 -14.7506 282.8410
v 4128.4214 -14.7510 264.2486
f 2119 2120 2121
v 4131.4023 -12.5420 264.2466
v 4131.7593 -13.3726 282.8388
v 4131.7470 -13.3730 264.2464
f 2122 2123 2124
v 4135.7671 -10.7337 264.2438
v 4131.4145 -12.5416 282.8390
v 4131.4023 -12.5420 264.2466
f 2125 2126 2127
v 4092.9405 29.2083 264.2714
v 4096.5892 30.7112 288.2663
v 4096.5735 30.7105 264.2691
f 2128 2129 2130
v 4092.8827 29.2524 264.2715
v 4092.9562 29.2090 288.2686
v 4092.9405 29.2083 264.2714
f 2131 2132 2133
v 4085.7649 26.3056 264.2760
v 4092.8983 29.2531 288.2687
v 4092.8827 29.2524 264.2715
f 2134 2135 2136
v 4085.7536 26.2255 264.2760
v 4085.7805 26.3062 288.2732
v 4085.7649 26.3056 264.2760
f 2137 2138 2139
v 4084.8626 25.8560 264.2766
v 4085.7693 26.2263 288.2732
v 4085.7536 26.2255 264.2760
f 2140 2141 2142
v 4048.3286 10.6948 264.2999
v 4084.8876 25.8255 282.8690
v 4084.8756 25.8248 264.2766
f 2143 2144 2145
v 4085.2571 24.4985 282.8688
v 4085.4138 24.5622 288.2735
v 4085.4103 24.5620 282.8687
f 2146 2147 2148
v 4097.8152 27.7489 288.2655
v 4097.8137 27.7489 285.9896
v 4096.6026 30.6752 285.9904
f 2149 2150 2151
v 4130.4968 -7.1972 282.8396
v 4114.8788 -13.6633 285.9786
v 4114.8768 -13.6633 282.8497
f 2152 2153 2154
v 4128.7760 -3.0427 282.8407
v 4130.4989 -7.1972 285.9685
v 4130.4968 -7.1972 282.8396
f 2155 2156 2157
v 4129.2164 -2.8598 282.8405
v 4128.7780 -3.0426 285.9696
v 4128.7760 -3.0427 282.8407
f 2158 2159 2160
v 4128.1076 -0.1779 282.8412
v 4129.2185 -2.8598 285.9694
v 4129.2164 -2.8598 282.8405
f 2161 2162 2163
v 4114.8768 -13.6633 282.8497
v 4112.0481 -6.8278 285.9804
v 4112.0460 -6.8279 282.8515
f 2164 2165 2166
v 4058.7557 -15.3877 264.2933
v 4055.9429 -8.5588 285.7323
v 4055.9290 -8.5592 264.2951
f 2167 2168 2169
v 4063.1336 -13.1169 285.7277
v 4062.0246 -13.5750 286.0124
v 4062.0244 -13.5750 285.7284
f 2170 2171 2172
v 4064.8318 -17.2225 282.8817
v 4060.6310 -18.9621 285.7293
v 4060.6292 -18.9622 282.8844
f 2173 2174 2175
v 4058.5222 -8.4747 282.8858
v 4059.7104 -7.9838 285.7299
v 4059.7086 -7.9839 282.8850
f 2176 2177 2178
v 4057.0741 -6.6708 282.8867
v 4058.5241 -8.4746 285.7306
v 4058.5222 -8.4747 282.8858
f 2179 2180 2181
v 4055.7675 -7.2123 285.7324
v 4057.0759 -6.6708 285.7316
v 4057.0741 -6.6708 282.8867
f 2182 2183 2184
v 4068.1818 -4.0876 282.8796
v 4072.4234 -14.3298 286.0058
v 4072.4214 -14.3298 282.8769
f 2185 2186 2187
v 4059.5714 -7.6525 282.8851
v 4068.1839 -4.0875 286.0085
v 4068.1818 -4.0876 282.8796
f 2188 2189 2190
v 4072.4214 -14.3298 282.8769
v 4064.9222 -17.4367 286.0106
v 4064.9202 -17.4368 282.8817
f 2191 2192 2193
v 4064.9202 -17.4368 282.8817
v 4064.8336 -17.2225 285.7266
v 4064.8318 -17.2225 282.8817
f 2194 2195 2196
v 4096.5883 30.6735 264.2691
v 4115.4142 38.4617 285.9783
v 4115.3999 38.4610 264.2570
f 2197 2198 2199
v 4089.8522 19.1343 285.1418
v 4099.3702 23.0739 285.9886
v 4099.3696 23.0737 285.1356
f 2200 2201 2202
v 4093.7912 9.6157 282.8633
v 4077.6460 2.9311 285.1496
v 4077.6445 2.9311 282.8736
f 2203 2204 2205
v 4085.8704 22.7468 282.8684
v 4085.9670 22.7866 285.1442
v 4085.9656 22.7866 282.8683
f 2206 2207 2208
v 4095.9044 26.9009 282.8619
v 4097.5097 27.5647 285.1368
v 4097.5082 27.5647 282.8609
f 2209 2210 2211
v 4086.5112 21.1981 282.8680
v 4085.8719 22.7469 285.1443
v 4085.8704 22.7468 282.8684
f 2212 2213 2214
v 4085.6303 20.8325 282.8685
v 4086.5128 21.1981 285.1439
v 4086.5112 21.1981 282.8680
f 2215 2216 2217
v 4086.8912 17.7881 282.8678
v 4085.6318 20.8325 285.1444
v 4085.6303 20.8325 282.8685
f 2218 2219 2220
v 4073.7458 12.3464 282.8762
v 4086.8926 17.7882 285.1436
v 4086.8912 17.7881 282.8678
f 2221 2222 2223
v 4077.6445 2.9311 282.8736
v 4073.7472 12.3464 285.1521
v 4073.7458 12.3464 282.8762
f 2224 2225 2226
v 4112.0460 -6.8279 282.8515
v 4102.2753 -10.8736 285.9867
v 4102.2733 -10.8737 282.8578
f 2227 2228 2229
v 4130.9267 0.9896 282.8394
v 4128.1097 -0.1778 285.9701
v 4128.1076 -0.1779 282.8412
f 2230 2231 2232
v 4112.7542 11.5350 282.8511
v 4107.8658 23.3471 285.9831
v 4107.8638 23.3470 282.8543
f 2233 2234 2235
v 4105.9967 8.7381 282.8554
v 4112.7562 11.5351 285.9800
v 4112.7542 11.5350 282.8511
f 2236 2237 2238
v 4102.2733 -10.8737 282.8578
v 4093.7927 9.6158 285.1393
v 4093.7912 9.6157 282.8633
f 2239 2240 2241
v 4101.1064 20.5501 282.8586
v 4105.9988 8.7383 285.9843
v 4105.9967 8.7381 282.8554
f 2242 2243 2244
