# Grid Center: 2620200, 1263800
# Global Anchor: 7.64977475454284, 47.53283995868075, 0.0

g building_ID_62A4C8DA-996F-477F-BD43-25A547382157
v 4098.6351 -1121.9495 286.3060
v 4089.3934 -1121.4938 286.3120
v 4097.9222 -1116.6946 286.3073
f 1 2 3
v 4090.1144 -1106.1538 286.3142
v 4097.9222 -1116.6946 286.3073
v 4089.3934 -1121.4938 286.3120
f 4 5 6
v 4097.9222 -1116.6946 286.3073
v 4098.8810 -1116.7382 286.3067
v 4098.6351 -1121.9495 286.3060
f 7 8 9
v 4099.3582 -1106.5885 286.3082
v 4098.2253 -1110.2605 286.3083
v 4090.1144 -1106.1538 286.3142
f 10 11 12
v 4097.9222 -1116.6946 286.3073
v 4090.1144 -1106.1538 286.3142
v 4098.2253 -1110.2605 286.3083
f 13 14 15
v 4098.2253 -1110.2605 286.3083
v 4099.3582 -1106.5885 286.3082
v 4099.1843 -1110.3051 286.3076
f 16 17 18
v 4099.3671 -1106.5906 300.0227
v 4090.1234 -1106.1559 300.0287
v 4098.2344 -1110.2625 300.0228
f 19 20 21
v 4097.9311 -1116.6968 300.0218
v 4098.2344 -1110.2625 300.0228
v 4090.1234 -1106.1559 300.0287
f 22 23 24
v 4098.2344 -1110.2625 300.0228
v 4099.1932 -1110.3071 300.0221
v 4099.3671 -1106.5906 300.0227
f 25 26 27
v 4098.6440 -1121.9516 300.0205
v 4097.9311 -1116.6968 300.0218
v 4089.4023 -1121.4959 300.0265
f 28 29 30
v 4090.1234 -1106.1559 300.0287
v 4089.4023 -1121.4959 300.0265
v 4097.9311 -1116.6968 300.0218
f 31 32 33
v 4097.9311 -1116.6968 300.0218
v 4098.6440 -1121.9516 300.0205
v 4098.8900 -1116.7402 300.0212
f 34 35 36
v 4098.8888 -1116.7400 298.1962
v 4098.8900 -1116.7402 300.0212
v 4098.6429 -1121.9513 298.1955
f 37 38 39
v 4097.9222 -1116.6946 286.3073
v 4097.9229 -1116.6948 287.3662
v 4098.8817 -1116.7384 287.3656
f 40 41 42
v 4098.2331 -1110.2623 298.1978
v 4098.2344 -1110.2625 300.0228
v 4097.9311 -1116.6968 300.0218
f 43 44 45
v 4099.1843 -1110.3051 286.3076
v 4099.1849 -1110.3052 287.3665
v 4098.2261 -1110.2607 287.3672
f 46 47 48
v 4099.3659 -1106.5904 298.1978
v 4099.3671 -1106.5906 300.0227
v 4099.1932 -1110.3071 300.0221
f 49 50 51
v 4090.1222 -1106.1557 298.2038
v 4090.1234 -1106.1559 300.0287
v 4099.3671 -1106.5906 300.0227
f 52 53 54
v 4089.4012 -1121.4955 298.2015
v 4089.4023 -1121.4959 300.0265
v 4090.1222 -1106.1557 298.2038
f 55 56 57
v 4088.4250 -1103.9795 287.3746
v 4088.4320 -1103.9812 298.2052
v 4101.5443 -1104.5752 298.1967
f 58 59 60
v 4087.6274 -1121.4073 287.3721
v 4087.6344 -1121.4088 298.2027
v 4088.4320 -1103.9812 298.2052
f 61 62 63
v 4101.5372 -1104.5736 287.3661
v 4101.5443 -1104.5752 298.1967
v 4100.7206 -1122.0529 298.1941
f 64 65 66
v 4098.8810 -1116.7382 286.3067
v 4098.8817 -1116.7384 287.3656
v 4098.6358 -1121.9497 287.3649
f 67 68 69
v 4097.9300 -1116.6965 298.1968
v 4097.9311 -1116.6968 300.0218
v 4098.8900 -1116.7402 300.0212
f 70 71 72
v 4098.2253 -1110.2605 286.3083
v 4098.2261 -1110.2607 287.3672
v 4097.9229 -1116.6948 287.3662
f 73 74 75
v 4099.1920 -1110.3068 298.1971
v 4099.1932 -1110.3071 300.0221
v 4098.2344 -1110.2625 300.0228
f 76 77 78
v 4099.3582 -1106.5885 286.3082
v 4099.3589 -1106.5887 287.3672
v 4099.1849 -1110.3052 287.3665
f 79 80 81
v 4090.1144 -1106.1538 286.3142
v 4090.1151 -1106.1540 287.3732
v 4099.3589 -1106.5887 287.3672
f 82 83 84
v 4089.3934 -1121.4938 286.3120
v 4089.3941 -1121.4940 287.3709
v 4090.1151 -1106.1540 287.3732
f 85 86 87
v 4099.3589 -1106.5887 287.3672
v 4101.5372 -1104.5736 287.3661
v 4099.1849 -1110.3052 287.3665
f 88 89 90
v 4100.7135 -1122.0512 287.3635
v 4099.1849 -1110.3052 287.3665
v 4101.5372 -1104.5736 287.3661
f 91 92 93
v 4088.4250 -1103.9795 287.3746
v 4101.5372 -1104.5736 287.3661
v 4099.3589 -1106.5887 287.3672
f 94 95 96
v 4088.4250 -1103.9795 287.3746
v 4099.3589 -1106.5887 287.3672
v 4090.1151 -1106.1540 287.3732
f 97 98 99
v 4087.6274 -1121.4073 287.3721
v 4088.4250 -1103.9795 287.3746
v 4090.1151 -1106.1540 287.3732
f 100 101 102
v 4098.2261 -1110.2607 287.3672
v 4099.1849 -1110.3052 287.3665
v 4098.8817 -1116.7384 287.3656
f 103 104 105
v 4098.6358 -1121.9497 287.3649
v 4098.8817 -1116.7384 287.3656
v 4100.7135 -1122.0512 287.3635
f 106 107 108
v 4099.1849 -1110.3052 287.3665
v 4100.7135 -1122.0512 287.3635
v 4098.8817 -1116.7384 287.3656
f 109 110 111
v 4090.1151 -1106.1540 287.3732
v 4089.3941 -1121.4940 287.3709
v 4087.6274 -1121.4073 287.3721
f 112 113 114
v 4098.2261 -1110.2607 287.3672
v 4098.8817 -1116.7384 287.3656
v 4097.9229 -1116.6948 287.3662
f 115 116 117
v 4090.1222 -1106.1557 298.2038
v 4099.3659 -1106.5904 298.1978
v 4088.4320 -1103.9812 298.2052
f 118 119 120
v 4087.6344 -1121.4088 298.2027
v 4090.1222 -1106.1557 298.2038
v 4088.4320 -1103.9812 298.2052
f 121 122 123
v 4099.1920 -1110.3068 298.1971
v 4101.5443 -1104.5752 298.1967
v 4099.3659 -1106.5904 298.1978
f 124 125 126
v 4088.4320 -1103.9812 298.2052
v 4099.3659 -1106.5904 298.1978
v 4101.5443 -1104.5752 298.1967
f 127 128 129
v 4100.7206 -1122.0529 298.1941
v 4101.5443 -1104.5752 298.1967
v 4099.1920 -1110.3068 298.1971
f 130 131 132
v 4099.1920 -1110.3068 298.1971
v 4098.2331 -1110.2623 298.1978
v 4098.8888 -1116.7400 298.1962
f 133 134 135
v 4087.6344 -1121.4088 298.2027
v 4089.4012 -1121.4955 298.2015
v 4090.1222 -1106.1557 298.2038
f 136 137 138
v 4100.7206 -1122.0529 298.1941
v 4098.8888 -1116.7400 298.1962
v 4098.6429 -1121.9513 298.1955
f 139 140 141
v 4099.1920 -1110.3068 298.1971
v 4098.8888 -1116.7400 298.1962
v 4100.7206 -1122.0529 298.1941
f 142 143 144
v 4098.2331 -1110.2623 298.1978
v 4097.9300 -1116.6965 298.1968
v 4098.8888 -1116.7400 298.1962
f 145 146 147
v 4089.4012 -1121.4955 298.2015
v 4098.6358 -1121.9497 287.3649
v 4098.6429 -1121.9513 298.1955
f 148 149 150
v 4100.7135 -1122.0512 287.3635
v 4100.7206 -1122.0529 298.1941
v 4098.6429 -1121.9513 298.1955
f 151 152 153
v 4098.6429 -1121.9513 298.1955
v 4098.6358 -1121.9497 287.3649
v 4100.7135 -1122.0512 287.3635
f 154 155 156
v 4098.6358 -1121.9497 287.3649
v 4089.3941 -1121.4940 287.3709
v 4089.3934 -1121.4938 286.3120
f 157 158 159
v 4098.6440 -1121.9516 300.0205
v 4089.4012 -1121.4955 298.2015
v 4098.6429 -1121.9513 298.1955
f 160 161 162
v 4089.4012 -1121.4955 298.2015
v 4087.6344 -1121.4088 298.2027
v 4087.6274 -1121.4073 287.3721
f 163 164 165
v 4098.6358 -1121.9497 287.3649
v 4089.4012 -1121.4955 298.2015
v 4089.3941 -1121.4940 287.3709
f 166 167 168
v 4089.4012 -1121.4955 298.2015
v 4098.6440 -1121.9516 300.0205
v 4089.4023 -1121.4959 300.0265
f 169 170 171
v 4098.8900 -1116.7402 300.0212
v 4098.6440 -1121.9516 300.0205
v 4098.6429 -1121.9513 298.1955
f 172 173 174
v 4097.9222 -1116.6946 286.3073
v 4098.8817 -1116.7384 287.3656
v 4098.8810 -1116.7382 286.3067
f 175 176 177
v 4098.2331 -1110.2623 298.1978
v 4097.9311 -1116.6968 300.0218
v 4097.9300 -1116.6965 298.1968
f 178 179 180
v 4099.1843 -1110.3051 286.3076
v 4098.2261 -1110.2607 287.3672
v 4098.2253 -1110.2605 286.3083
f 181 182 183
v 4099.3659 -1106.5904 298.1978
v 4099.1932 -1110.3071 300.0221
v 4099.1920 -1110.3068 298.1971
f 184 185 186
v 4090.1222 -1106.1557 298.2038
v 4099.3671 -1106.5906 300.0227
v 4099.3659 -1106.5904 298.1978
f 187 188 189
v 4089.4023 -1121.4959 300.0265
v 4090.1234 -1106.1559 300.0287
v 4090.1222 -1106.1557 298.2038
f 190 191 192
v 4088.4250 -1103.9795 287.3746
v 4101.5443 -1104.5752 298.1967
v 4101.5372 -1104.5736 287.3661
f 193 194 195
v 4087.6274 -1121.4073 287.3721
v 4088.4320 -1103.9812 298.2052
v 4088.4250 -1103.9795 287.3746
f 196 197 198
v 4101.5372 -1104.5736 287.3661
v 4100.7206 -1122.0529 298.1941
v 4100.7135 -1122.0512 287.3635
f 199 200 201
v 4098.8810 -1116.7382 286.3067
v 4098.6358 -1121.9497 287.3649
v 4098.6351 -1121.9495 286.3060
f 202 203 204
v 4097.9300 -1116.6965 298.1968
v 4098.8900 -1116.7402 300.0212
v 4098.8888 -1116.7400 298.1962
f 205 206 207
v 4098.2253 -1110.2605 286.3083
v 4097.9229 -1116.6948 287.3662
v 4097.9222 -1116.6946 286.3073
f 208 209 210
v 4099.1920 -1110.3068 298.1971
v 4098.2344 -1110.2625 300.0228
v 4098.2331 -1110.2623 298.1978
f 211 212 213
v 4099.3582 -1106.5885 286.3082
v 4099.1849 -1110.3052 287.3665
v 4099.1843 -1110.3051 286.3076
f 214 215 216
v 4090.1144 -1106.1538 286.3142
v 4099.3589 -1106.5887 287.3672
v 4099.3582 -1106.5885 286.3082
f 217 218 219
v 4089.3934 -1121.4938 286.3120
v 4090.1151 -1106.1540 287.3732
v 4090.1144 -1106.1538 286.3142
f 220 221 222
v 4098.6358 -1121.9497 287.3649
v 4089.3934 -1121.4938 286.3120
v 4098.6351 -1121.9495 286.3060
f 223 224 225
v 4089.4012 -1121.4955 298.2015
v 4087.6274 -1121.4073 287.3721
v 4089.3941 -1121.4940 287.3709
f 226 227 228
