# Grid Center: 2620200, 1263600
# Global Anchor: 7.64977475454284, 47.53283995868075, 0.0

g building_ID_62A4C8DA-996F-477F-BD43-25A547382157
v 4098.6351 -1121.9495 286.3060
v 4089.3934 -1121.4938 286.3120
v 4097.9222 -1116.6946 286.3073
f 1 2 3
v 4090.1144 -1106.1538 286.3142
v 4097.9222 -1116.6946 286.3073
v 4089.3934 -1121.4938 286.3120
f 4 5 6
v 4097.9222 -1116.6946 286.3073
v 4098.8810 -1116.7382 286.3067
v 4098.6351 -1121.9495 286.3060
f 7 8 9
v 4099.3582 -1106.5885 286.3082
v 4098.2253 -1110.2605 286.3083
v 4090.1144 -1106.1538 286.3142
f 10 11 12
v 4097.9222 -1116.6946 286.3073
v 4090.1144 -1106.1538 286.3142
v 4098.2253 -1110.2605 286.3083
f 13 14 15
v 4098.2253 -1110.2605 286.3083
v 4099.3582 -1106.5885 286.3082
v 4099.1843 -1110.3051 286.3076
f 16 17 18
v 4099.3671 -1106.5906 300.0227
v 4090.1234 -1106.1559 300.0287
v 4098.2344 -1110.2625 300.0228
f 19 20 21
v 4097.9311 -1116.6968 300.0218
v 4098.2344 -1110.2625 300.0228
v 4090.1234 -1106.1559 300.0287
f 22 23 24
v 4098.2344 -1110.2625 300.0228
v 4099.1932 -1110.3071 300.0221
v 4099.3671 -1106.5906 300.0227
f 25 26 27
v 4098.6440 -1121.9516 300.0205
v 4097.9311 -1116.6968 300.0218
v 4089.4023 -1121.4959 300.0265
f 28 29 30
v 4090.1234 -1106.1559 300.0287
v 4089.4023 -1121.4959 300.0265
v 4097.9311 -1116.6968 300.0218
f 31 32 33
v 4097.9311 -1116.6968 300.0218
v 4098.6440 -1121.9516 300.0205
v 4098.8900 -1116.7402 300.0212
f 34 35 36
v 4098.8888 -1116.7400 298.1962
v 4098.8900 -1116.7402 300.0212
v 4098.6429 -1121.9513 298.1955
f 37 38 39
v 4097.9222 -1116.6946 286.3073
v 4097.9229 -1116.6948 287.3662
v 4098.8817 -1116.7384 287.3656
f 40 41 42
v 4098.2331 -1110.2623 298.1978
v 4098.2344 -1110.2625 300.0228
v 4097.9311 -1116.6968 300.0218
f 43 44 45
v 4099.1843 -1110.3051 286.3076
v 4099.1849 -1110.3052 287.3665
v 4098.2261 -1110.2607 287.3672
f 46 47 48
v 4099.3659 -1106.5904 298.1978
v 4099.3671 -1106.5906 300.0227
v 4099.1932 -1110.3071 300.0221
f 49 50 51
v 4090.1222 -1106.1557 298.2038
v 4090.1234 -1106.1559 300.0287
v 4099.3671 -1106.5906 300.0227
f 52 53 54
v 4089.4012 -1121.4955 298.2015
v 4089.4023 -1121.4959 300.0265
v 4090.1222 -1106.1557 298.2038
f 55 56 57
v 4088.4250 -1103.9795 287.3746
v 4088.4320 -1103.9812 298.2052
v 4101.5443 -1104.5752 298.1967
f 58 59 60
v 4087.6274 -1121.4073 287.3721
v 4087.6344 -1121.4088 298.2027
v 4088.4320 -1103.9812 298.2052
f 61 62 63
v 4101.5372 -1104.5736 287.3661
v 4101.5443 -1104.5752 298.1967
v 4100.7206 -1122.0529 298.1941
f 64 65 66
v 4098.8810 -1116.7382 286.3067
v 4098.8817 -1116.7384 287.3656
v 4098.6358 -1121.9497 287.3649
f 67 68 69
v 4097.9300 -1116.6965 298.1968
v 4097.9311 -1116.6968 300.0218
v 4098.8900 -1116.7402 300.0212
f 70 71 72
v 4098.2253 -1110.2605 286.3083
v 4098.2261 -1110.2607 287.3672
v 4097.9229 -1116.6948 287.3662
f 73 74 75
v 4099.1920 -1110.3068 298.1971
v 4099.1932 -1110.3071 300.0221
v 4098.2344 -1110.2625 300.0228
f 76 77 78
v 4099.3582 -1106.5885 286.3082
v 4099.3589 -1106.5887 287.3672
v 4099.1849 -1110.3052 287.3665
f 79 80 81
v 4090.1144 -1106.1538 286.3142
v 4090.1151 -1106.1540 287.3732
v 4099.3589 -1106.5887 287.3672
f 82 83 84
v 4089.3934 -1121.4938 286.3120
v 4089.3941 -1121.4940 287.3709
v 4090.1151 -1106.1540 287.3732
f 85 86 87
v 4099.3589 -1106.5887 287.3672
v 4101.5372 -1104.5736 287.3661
v 4099.1849 -1110.3052 287.3665
f 88 89 90
v 4100.7135 -1122.0512 287.3635
v 4099.1849 -1110.3052 287.3665
v 4101.5372 -1104.5736 287.3661
f 91 92 93
v 4088.4250 -1103.9795 287.3746
v 4101.5372 -1104.5736 287.3661
v 4099.3589 -1106.5887 287.3672
f 94 95 96
v 4088.4250 -1103.9795 287.3746
v 4099.3589 -1106.5887 287.3672
v 4090.1151 -1106.1540 287.3732
f 97 98 99
v 4087.6274 -1121.4073 287.3721
v 4088.4250 -1103.9795 287.3746
v 4090.1151 -1106.1540 287.3732
f 100 101 102
v 4098.2261 -1110.2607 287.3672
v 4099.1849 -1110.3052 287.3665
v 4098.8817 -1116.7384 287.3656
f 103 104 105
v 4098.6358 -1121.9497 287.3649
v 4098.8817 -1116.7384 287.3656
v 4100.7135 -1122.0512 287.3635
f 106 107 108
v 4099.1849 -1110.3052 287.3665
v 4100.7135 -1122.0512 287.3635
v 4098.8817 -1116.7384 287.3656
f 109 110 111
v 4090.1151 -1106.1540 287.3732
v 4089.3941 -1121.4940 287.3709
v 4087.6274 -1121.4073 287.3721
f 112 113 114
v 4098.2261 -1110.2607 287.3672
v 4098.8817 -1116.7384 287.3656
v 4097.9229 -1116.6948 287.3662
f 115 116 117
v 4090.1222 -1106.1557 298.2038
v 4099.3659 -1106.5904 298.1978
v 4088.4320 -1103.9812 298.2052
f 118 119 120
v 4087.6344 -1121.4088 298.2027
v 4090.1222 -1106.1557 298.2038
v 4088.4320 -1103.9812 298.2052
f 121 122 123
v 4099.1920 -1110.3068 298.1971
v 4101.5443 -1104.5752 298.1967
v 4099.3659 -1106.5904 298.1978
f 124 125 126
v 4088.4320 -1103.9812 298.2052
v 4099.3659 -1106.5904 298.1978
v 4101.5443 -1104.5752 298.1967
f 127 128 129
v 4100.7206 -1122.0529 298.1941
v 4101.5443 -1104.5752 298.1967
v 4099.1920 -1110.3068 298.1971
f 130 131 132
v 4099.1920 -1110.3068 298.1971
v 4098.2331 -1110.2623 298.1978
v 4098.8888 -1116.7400 298.1962
f 133 134 135
v 4087.6344 -1121.4088 298.2027
v 4089.4012 -1121.4955 298.2015
v 4090.1222 -1106.1557 298.2038
f 136 137 138
v 4100.7206 -1122.0529 298.1941
v 4098.8888 -1116.7400 298.1962
v 4098.6429 -1121.9513 298.1955
f 139 140 141
v 4099.1920 -1110.3068 298.1971
v 4098.8888 -1116.7400 298.1962
v 4100.7206 -1122.0529 298.1941
f 142 143 144
v 4098.2331 -1110.2623 298.1978
v 4097.9300 -1116.6965 298.1968
v 4098.8888 -1116.7400 298.1962
f 145 146 147
v 4089.4012 -1121.4955 298.2015
v 4098.6358 -1121.9497 287.3649
v 4098.6429 -1121.9513 298.1955
f 148 149 150
v 4100.7135 -1122.0512 287.3635
v 4100.7206 -1122.0529 298.1941
v 4098.6429 -1121.9513 298.1955
f 151 152 153
v 4098.6429 -1121.9513 298.1955
v 4098.6358 -1121.9497 287.3649
v 4100.7135 -1122.0512 287.3635
f 154 155 156
v 4098.6358 -1121.9497 287.3649
v 4089.3941 -1121.4940 287.3709
v 4089.3934 -1121.4938 286.3120
f 157 158 159
v 4098.6440 -1121.9516 300.0205
v 4089.4012 -1121.4955 298.2015
v 4098.6429 -1121.9513 298.1955
f 160 161 162
v 4089.4012 -1121.4955 298.2015
v 4087.6344 -1121.4088 298.2027
v 4087.6274 -1121.4073 287.3721
f 163 164 165
v 4098.6358 -1121.9497 287.3649
v 4089.4012 -1121.4955 298.2015
v 4089.3941 -1121.4940 287.3709
f 166 167 168
v 4089.4012 -1121.4955 298.2015
v 4098.6440 -1121.9516 300.0205
v 4089.4023 -1121.4959 300.0265
f 169 170 171
v 4098.8900 -1116.7402 300.0212
v 4098.6440 -1121.9516 300.0205
v 4098.6429 -1121.9513 298.1955
f 172 173 174
v 4097.9222 -1116.6946 286.3073
v 4098.8817 -1116.7384 287.3656
v 4098.8810 -1116.7382 286.3067
f 175 176 177
v 4098.2331 -1110.2623 298.1978
v 4097.9311 -1116.6968 300.0218
v 4097.9300 -1116.6965 298.1968
f 178 179 180
v 4099.1843 -1110.3051 286.3076
v 4098.2261 -1110.2607 287.3672
v 4098.2253 -1110.2605 286.3083
f 181 182 183
v 4099.3659 -1106.5904 298.1978
v 4099.1932 -1110.3071 300.0221
v 4099.1920 -1110.3068 298.1971
f 184 185 186
v 4090.1222 -1106.1557 298.2038
v 4099.3671 -1106.5906 300.0227
v 4099.3659 -1106.5904 298.1978
f 187 188 189
v 4089.4023 -1121.4959 300.0265
v 4090.1234 -1106.1559 300.0287
v 4090.1222 -1106.1557 298.2038
f 190 191 192
v 4088.4250 -1103.9795 287.3746
v 4101.5443 -1104.5752 298.1967
v 4101.5372 -1104.5736 287.3661
f 193 194 195
v 4087.6274 -1121.4073 287.3721
v 4088.4320 -1103.9812 298.2052
v 4088.4250 -1103.9795 287.3746
f 196 197 198
v 4101.5372 -1104.5736 287.3661
v 4100.7206 -1122.0529 298.1941
v 4100.7135 -1122.0512 287.3635
f 199 200 201
v 4098.8810 -1116.7382 286.3067
v 4098.6358 -1121.9497 287.3649
v 4098.6351 -1121.9495 286.3060
f 202 203 204
v 4097.9300 -1116.6965 298.1968
v 4098.8900 -1116.7402 300.0212
v 4098.8888 -1116.7400 298.1962
f 205 206 207
v 4098.2253 -1110.2605 286.3083
v 4097.9229 -1116.6948 287.3662
v 4097.9222 -1116.6946 286.3073
f 208 209 210
v 4099.1920 -1110.3068 298.1971
v 4098.2344 -1110.2625 300.0228
v 4098.2331 -1110.2623 298.1978
f 211 212 213
v 4099.3582 -1106.5885 286.3082
v 4099.1849 -1110.3052 287.3665
v 4099.1843 -1110.3051 286.3076
f 214 215 216
v 4090.1144 -1106.1538 286.3142
v 4099.3589 -1106.5887 287.3672
v 4099.3582 -1106.5885 286.3082
f 217 218 219
v 4089.3934 -1121.4938 286.3120
v 4090.1151 -1106.1540 287.3732
v 4090.1144 -1106.1538 286.3142
f 220 221 222
v 4098.6358 -1121.9497 287.3649
v 4089.3934 -1121.4938 286.3120
v 4098.6351 -1121.9495 286.3060
f 223 224 225
v 4089.4012 -1121.4955 298.2015
v 4087.6274 -1121.4073 287.3721
v 4089.3941 -1121.4940 287.3709
f 226 227 228

g building_ID_BF9613BE-F7D6-4D86-8359-247EF0DF8175
v 4098.5386 -1151.3623 288.0897
v 4076.6384 -1150.4107 288.1039
v 4084.1792 -1145.2250 288.1000
f 229 230 231
v 4084.1792 -1145.2250 288.1000
v 4087.8307 -1145.3796 288.0976
v 4098.5386 -1151.3623 288.0897
f 232 233 234
v 4087.8307 -1145.3796 288.0976
v 4091.4812 -1145.5334 288.0952
v 4098.5386 -1151.3623 288.0897
f 235 236 237
v 4080.5276 -1145.0702 288.1023
v 4076.6384 -1150.4107 288.1039
v 4076.8770 -1144.9164 288.1047
f 238 239 240
v 4080.5276 -1145.0702 288.1023
v 4084.1792 -1145.2250 288.1000
v 4076.6384 -1150.4107 288.1039
f 241 242 243
v 4098.5386 -1151.3623 288.0897
v 4091.4812 -1145.5334 288.0952
v 4095.1318 -1145.6882 288.0929
f 244 245 246
v 4098.5386 -1151.3623 288.0897
v 4095.1318 -1145.6882 288.0929
v 4098.7834 -1145.8420 288.0905
f 247 248 249
v 4093.3065 -1145.6112 293.4099
v 4098.6742 -1148.3865 293.5639
v 4098.7868 -1145.8428 293.4063
f 250 251 252
v 4076.6420 -1150.4116 293.7637
v 4098.5423 -1151.3632 293.7495
v 4098.6742 -1148.3865 293.5639
f 253 254 255
v 4098.6742 -1148.3865 293.5639
v 4087.8302 -1145.3795 293.4144
v 4076.6420 -1150.4116 293.7637
f 256 257 258
v 4076.6420 -1150.4116 293.7637
v 4082.3568 -1145.1488 293.4180
v 4076.8805 -1144.9173 293.4215
f 259 260 261
v 4087.8302 -1145.3795 293.4144
v 4082.3568 -1145.1488 293.4180
v 4076.6420 -1150.4116 293.7637
f 262 263 264
v 4093.3065 -1145.6112 293.4099
v 4087.8302 -1145.3795 293.4144
v 4098.6742 -1148.3865 293.5639
f 265 266 267
v 4087.8275 -1145.3789 289.4266
v 4082.3568 -1145.1488 293.4180
v 4087.8302 -1145.3795 293.4144
f 268 269 270
v 4082.3543 -1145.1482 289.4302
v 4080.5276 -1145.0702 288.1023
v 4076.8770 -1144.9164 288.1047
f 271 272 273
v 4082.3568 -1145.1488 293.4180
v 4082.3543 -1145.1482 289.4302
v 4076.8770 -1144.9164 288.1047
f 274 275 276
v 4087.8307 -1145.3796 288.0976
v 4084.1792 -1145.2250 288.1000
v 4087.8275 -1145.3789 289.4266
f 277 278 279
v 4082.3543 -1145.1482 289.4302
v 4087.8275 -1145.3789 289.4266
v 4084.1792 -1145.2250 288.1000
f 280 281 282
v 4080.5276 -1145.0702 288.1023
v 4082.3543 -1145.1482 289.4302
v 4084.1792 -1145.2250 288.1000
f 283 284 285
v 4093.3039 -1145.6105 289.4230
v 4093.3065 -1145.6112 293.4099
v 4098.7839 -1145.8421 288.9765
f 286 287 288
v 4087.8307 -1145.3796 288.0976
v 4087.8275 -1145.3789 289.4266
v 4091.4812 -1145.5334 288.0952
f 289 290 291
v 4091.4812 -1145.5334 288.0952
v 4087.8275 -1145.3789 289.4266
v 4093.3039 -1145.6105 289.4230
f 292 293 294
v 4095.1318 -1145.6882 288.0929
v 4091.4812 -1145.5334 288.0952
v 4093.3039 -1145.6105 289.4230
f 295 296 297
v 4093.3039 -1145.6105 289.4230
v 4098.7839 -1145.8421 288.9765
v 4095.1318 -1145.6882 288.0929
f 298 299 300
v 4098.7839 -1145.8421 288.9765
v 4098.7834 -1145.8420 288.0905
v 4095.1318 -1145.6882 288.0929
f 301 302 303
v 4076.6384 -1150.4107 288.1039
v 4076.6420 -1150.4116 293.7637
v 4076.8805 -1144.9173 293.4215
f 304 305 306
v 4076.6420 -1150.4116 293.7637
v 4098.5386 -1151.3623 288.0897
v 4098.5423 -1151.3632 293.7495
f 307 308 309
v 4076.6420 -1150.4116 293.7637
v 4076.6384 -1150.4107 288.1039
v 4098.5386 -1151.3623 288.0897
f 310 311 312
v 4098.6742 -1148.3865 293.5639
v 4098.7839 -1145.8421 288.9765
v 4098.7868 -1145.8428 293.4063
f 313 314 315
v 4098.6742 -1148.3865 293.5639
v 4098.5386 -1151.3623 288.0897
v 4098.7839 -1145.8421 288.9765
f 316 317 318
v 4098.7839 -1145.8421 288.9765
v 4098.5386 -1151.3623 288.0897
v 4098.7834 -1145.8420 288.0905
f 319 320 321
v 4098.5423 -1151.3632 293.7495
v 4098.5386 -1151.3623 288.0897
v 4098.6742 -1148.3865 293.5639
f 322 323 324
v 4082.3543 -1145.1482 289.4302
v 4082.3568 -1145.1488 293.4180
v 4087.8275 -1145.3789 289.4266
f 325 326 327
v 4087.8275 -1145.3789 289.4266
v 4087.8302 -1145.3795 293.4144
v 4093.3039 -1145.6105 289.4230
f 328 329 330
v 4087.8302 -1145.3795 293.4144
v 4093.3065 -1145.6112 293.4099
v 4093.3039 -1145.6105 289.4230
f 331 332 333
v 4082.3568 -1145.1488 293.4180
v 4076.8770 -1144.9164 288.1047
v 4076.8805 -1144.9173 293.4215
f 334 335 336
v 4093.3065 -1145.6112 293.4099
v 4098.7868 -1145.8428 293.4063
v 4098.7839 -1145.8421 288.9765
f 337 338 339
v 4076.6384 -1150.4107 288.1039
v 4076.8805 -1144.9173 293.4215
v 4076.8770 -1144.9164 288.1047
f 340 341 342

g building_ID_B5D231E4-1725-4D0A-9801-CC68FAE54538
v 4097.9119 -1137.3394 286.3037
v 4088.6682 -1136.9057 286.3097
v 4097.1387 -1133.3215 286.3049
f 343 344 345
v 4097.4429 -1126.9043 286.3058
v 4097.1387 -1133.3215 286.3049
v 4088.6682 -1136.9057 286.3097
f 346 347 348
v 4097.1387 -1133.3215 286.3049
v 4098.0976 -1133.3669 286.3043
v 4097.9119 -1137.3394 286.3037
f 349 350 351
v 4098.6351 -1121.9495 286.3060
v 4097.4429 -1126.9043 286.3058
v 4089.3934 -1121.4938 286.3120
f 352 353 354
v 4088.6682 -1136.9057 286.3097
v 4089.3934 -1121.4938 286.3120
v 4097.4429 -1126.9043 286.3058
f 355 356 357
v 4097.4429 -1126.9043 286.3058
v 4098.6351 -1121.9495 286.3060
v 4098.3997 -1126.9498 286.3052
f 358 359 360
v 4098.6440 -1121.9516 300.0205
v 4089.4023 -1121.4959 300.0265
v 4097.4518 -1126.9063 300.0203
f 361 362 363
v 4088.6771 -1136.9078 300.0242
v 4097.4518 -1126.9063 300.0203
v 4089.4023 -1121.4959 300.0265
f 364 365 366
v 4097.4518 -1126.9063 300.0203
v 4098.4087 -1126.9519 300.0197
v 4098.6440 -1121.9516 300.0205
f 367 368 369
v 4097.9209 -1137.3415 300.0182
v 4097.1477 -1133.3236 300.0194
v 4088.6771 -1136.9078 300.0242
f 370 371 372
v 4097.4518 -1126.9063 300.0203
v 4088.6771 -1136.9078 300.0242
v 4097.1477 -1133.3236 300.0194
f 373 374 375
v 4097.1477 -1133.3236 300.0194
v 4097.9209 -1137.3415 300.0182
v 4098.1065 -1133.3690 300.0188
f 376 377 378
v 4088.6760 -1136.9076 298.1992
v 4088.6771 -1136.9078 300.0242
v 4089.4012 -1121.4955 298.2015
f 379 380 381
v 4097.9119 -1137.3394 286.3037
v 4097.9126 -1137.3396 287.3626
v 4088.6689 -1136.9059 287.3686
f 382 383 384
v 4098.1053 -1133.3688 298.1938
v 4098.1065 -1133.3690 300.0188
v 4097.9209 -1137.3415 300.0182
f 385 386 387
v 4097.1387 -1133.3215 286.3049
v 4097.1394 -1133.3215 287.3638
v 4098.0983 -1133.3671 287.3632
f 388 389 390
v 4097.4507 -1126.9061 298.1953
v 4097.4518 -1126.9063 300.0203
v 4097.1477 -1133.3236 300.0194
f 391 392 393
v 4098.4075 -1126.9516 298.1947
v 4098.4087 -1126.9519 300.0197
v 4097.4518 -1126.9063 300.0203
f 394 395 396
v 4098.6429 -1121.9513 298.1955
v 4098.6440 -1121.9516 300.0205
v 4098.4075 -1126.9516 298.1947
f 397 398 399
v 4086.8426 -1138.5310 287.3695
v 4086.8496 -1138.5326 298.2001
v 4087.6344 -1121.4088 298.2027
f 400 401 402
v 4099.9088 -1139.1460 287.3610
v 4099.9158 -1139.1476 298.1916
v 4086.8496 -1138.5326 298.2001
f 403 404 405
v 4100.7135 -1122.0512 287.3635
v 4100.7206 -1122.0529 298.1941
v 4099.9158 -1139.1476 298.1916
f 406 407 408
v 4088.6682 -1136.9057 286.3097
v 4088.6689 -1136.9059 287.3686
v 4089.3941 -1121.4940 287.3709
f 409 410 411
v 4097.9197 -1137.3413 298.1932
v 4097.9209 -1137.3415 300.0182
v 4088.6771 -1136.9078 300.0242
f 412 413 414
v 4098.0976 -1133.3669 286.3043
v 4098.0983 -1133.3671 287.3632
v 4097.9126 -1137.3396 287.3626
f 415 416 417
v 4097.1464 -1133.3232 298.1944
v 4097.1477 -1133.3236 300.0194
v 4098.1065 -1133.3690 300.0188
f 418 419 420
v 4097.4429 -1126.9043 286.3058
v 4097.4436 -1126.9044 287.3647
v 4097.1394 -1133.3215 287.3638
f 421 422 423
v 4098.3997 -1126.9498 286.3052
v 4098.4004 -1126.9500 287.3641
v 4097.4436 -1126.9044 287.3647
f 424 425 426
v 4098.6351 -1121.9495 286.3060
v 4098.6358 -1121.9497 287.3649
v 4098.4004 -1126.9500 287.3641
f 427 428 429
v 4088.6689 -1136.9059 287.3686
v 4097.9126 -1137.3396 287.3626
v 4086.8426 -1138.5310 287.3695
f 430 431 432
v 4087.6274 -1121.4073 287.3721
v 4088.6689 -1136.9059 287.3686
v 4086.8426 -1138.5310 287.3695
f 433 434 435
v 4098.0983 -1133.3671 287.3632
v 4099.9088 -1139.1460 287.3610
v 4097.9126 -1137.3396 287.3626
f 436 437 438
v 4086.8426 -1138.5310 287.3695
v 4097.9126 -1137.3396 287.3626
v 4099.9088 -1139.1460 287.3610
f 439 440 441
v 4100.7135 -1122.0512 287.3635
v 4099.9088 -1139.1460 287.3610
v 4098.0983 -1133.3671 287.3632
f 442 443 444
v 4098.0983 -1133.3671 287.3632
v 4097.1394 -1133.3215 287.3638
v 4097.4436 -1126.9044 287.3647
f 445 446 447
v 4087.6274 -1121.4073 287.3721
v 4089.3941 -1121.4940 287.3709
v 4088.6689 -1136.9059 287.3686
f 448 449 450
v 4100.7135 -1122.0512 287.3635
v 4098.4004 -1126.9500 287.3641
v 4098.6358 -1121.9497 287.3649
f 451 452 453
v 4098.0983 -1133.3671 287.3632
v 4098.4004 -1126.9500 287.3641
v 4100.7135 -1122.0512 287.3635
f 454 455 456
v 4098.0983 -1133.3671 287.3632
v 4097.4436 -1126.9044 287.3647
v 4098.4004 -1126.9500 287.3641
f 457 458 459
v 4087.6344 -1121.4088 298.2027
v 4088.6760 -1136.9076 298.1992
v 4089.4012 -1121.4955 298.2015
f 460 461 462
v 4100.7206 -1122.0529 298.1941
v 4098.6429 -1121.9513 298.1955
v 4098.4075 -1126.9516 298.1947
f 463 464 465
v 4098.1053 -1133.3688 298.1938
v 4100.7206 -1122.0529 298.1941
v 4098.4075 -1126.9516 298.1947
f 466 467 468
v 4098.4075 -1126.9516 298.1947
v 4097.4507 -1126.9061 298.1953
v 4098.1053 -1133.3688 298.1938
f 469 470 471
v 4087.6344 -1121.4088 298.2027
v 4086.8496 -1138.5326 298.2001
v 4088.6760 -1136.9076 298.1992
f 472 473 474
v 4086.8496 -1138.5326 298.2001
v 4097.9197 -1137.3413 298.1932
v 4088.6760 -1136.9076 298.1992
f 475 476 477
v 4099.9158 -1139.1476 298.1916
v 4098.1053 -1133.3688 298.1938
v 4097.9197 -1137.3413 298.1932
f 478 479 480
v 4086.8496 -1138.5326 298.2001
v 4099.9158 -1139.1476 298.1916
v 4097.9197 -1137.3413 298.1932
f 481 482 483
v 4100.7206 -1122.0529 298.1941
v 4098.1053 -1133.3688 298.1938
v 4099.9158 -1139.1476 298.1916
f 484 485 486
v 4097.4507 -1126.9061 298.1953
v 4097.1464 -1133.3232 298.1944
v 4098.1053 -1133.3688 298.1938
f 487 488 489
v 4098.6440 -1121.9516 300.0205
v 4089.4012 -1121.4955 298.2015
v 4089.4023 -1121.4959 300.0265
f 490 491 492
v 4087.6274 -1121.4073 287.3721
v 4087.6344 -1121.4088 298.2027
v 4089.4012 -1121.4955 298.2015
f 493 494 495
v 4089.4012 -1121.4955 298.2015
v 4089.3941 -1121.4940 287.3709
v 4087.6274 -1121.4073 287.3721
f 496 497 498
v 4098.6351 -1121.9495 286.3060
v 4089.3934 -1121.4938 286.3120
v 4098.6358 -1121.9497 287.3649
f 499 500 501
v 4089.3941 -1121.4940 287.3709
v 4089.4012 -1121.4955 298.2015
v 4098.6429 -1121.9513 298.1955
f 502 503 504
v 4098.6429 -1121.9513 298.1955
v 4100.7206 -1122.0529 298.1941
v 4100.7135 -1122.0512 287.3635
f 505 506 507
v 4089.4012 -1121.4955 298.2015
v 4098.6440 -1121.9516 300.0205
v 4098.6429 -1121.9513 298.1955
f 508 509 510
v 4088.6771 -1136.9078 300.0242
v 4089.4023 -1121.4959 300.0265
v 4089.4012 -1121.4955 298.2015
f 511 512 513
v 4097.9119 -1137.3394 286.3037
v 4088.6689 -1136.9059 287.3686
v 4088.6682 -1136.9057 286.3097
f 514 515 516
v 4098.1053 -1133.3688 298.1938
v 4097.9209 -1137.3415 300.0182
v 4097.9197 -1137.3413 298.1932
f 517 518 519
v 4097.1387 -1133.3215 286.3049
v 4098.0983 -1133.3671 287.3632
v 4098.0976 -1133.3669 286.3043
f 520 521 522
v 4097.4507 -1126.9061 298.1953
v 4097.1477 -1133.3236 300.0194
v 4097.1464 -1133.3232 298.1944
f 523 524 525
v 4098.4075 -1126.9516 298.1947
v 4097.4518 -1126.9063 300.0203
v 4097.4507 -1126.9061 298.1953
f 526 527 528
v 4098.6440 -1121.9516 300.0205
v 4098.4087 -1126.9519 300.0197
v 4098.4075 -1126.9516 298.1947
f 529 530 531
v 4086.8426 -1138.5310 287.3695
v 4087.6344 -1121.4088 298.2027
v 4087.6274 -1121.4073 287.3721
f 532 533 534
v 4099.9088 -1139.1460 287.3610
v 4086.8496 -1138.5326 298.2001
v 4086.8426 -1138.5310 287.3695
f 535 536 537
v 4100.7135 -1122.0512 287.3635
v 4099.9158 -1139.1476 298.1916
v 4099.9088 -1139.1460 287.3610
f 538 539 540
v 4088.6682 -1136.9057 286.3097
v 4089.3941 -1121.4940 287.3709
v 4089.3934 -1121.4938 286.3120
f 541 542 543
v 4097.9197 -1137.3413 298.1932
v 4088.6771 -1136.9078 300.0242
v 4088.6760 -1136.9076 298.1992
f 544 545 546
v 4098.0976 -1133.3669 286.3043
v 4097.9126 -1137.3396 287.3626
v 4097.9119 -1137.3394 286.3037
f 547 548 549
v 4097.1464 -1133.3232 298.1944
v 4098.1065 -1133.3690 300.0188
v 4098.1053 -1133.3688 298.1938
f 550 551 552
v 4097.4429 -1126.9043 286.3058
v 4097.1394 -1133.3215 287.3638
v 4097.1387 -1133.3215 286.3049
f 553 554 555
v 4098.3997 -1126.9498 286.3052
v 4097.4436 -1126.9044 287.3647
v 4097.4429 -1126.9043 286.3058
f 556 557 558
v 4098.6351 -1121.9495 286.3060
v 4098.4004 -1126.9500 287.3641
v 4098.3997 -1126.9498 286.3052
f 559 560 561
v 4089.3934 -1121.4938 286.3120
v 4089.3941 -1121.4940 287.3709
v 4098.6358 -1121.9497 287.3649
f 562 563 564
v 4089.3941 -1121.4940 287.3709
v 4098.6429 -1121.9513 298.1955
v 4098.6358 -1121.9497 287.3649
f 565 566 567
v 4098.6429 -1121.9513 298.1955
v 4100.7135 -1122.0512 287.3635
v 4098.6358 -1121.9497 287.3649
f 568 569 570

g building_ID_0CC6583D-72D2-4F89-8200-B0BB1326222C
v 4090.9911 -1200.5407 288.0014
v 4096.8514 -1197.4024 287.9982
v 4096.9253 -1200.4265 287.9975
f 571 572 573
v 4096.8514 -1197.4024 287.9982
v 4090.9911 -1200.5407 288.0014
v 4090.9331 -1197.5125 288.0020
f 574 575 576
v 4096.8547 -1197.4032 293.0531
v 4090.9365 -1197.5133 293.0568
v 4090.9944 -1200.5415 293.0562
f 577 578 579
v 4090.9944 -1200.5415 293.0562
v 4096.9286 -1200.4273 293.0524
v 4096.8547 -1197.4032 293.0531
f 580 581 582
v 4090.9911 -1200.5407 288.0014
v 4090.9944 -1200.5415 293.0562
v 4090.9365 -1197.5133 293.0568
f 583 584 585
v 4096.9253 -1200.4265 287.9975
v 4096.9286 -1200.4273 293.0524
v 4090.9944 -1200.5415 293.0562
f 586 587 588
v 4096.8514 -1197.4024 287.9982
v 4096.8547 -1197.4032 293.0531
v 4096.9286 -1200.4273 293.0524
f 589 590 591
v 4090.9331 -1197.5125 288.0020
v 4090.9365 -1197.5133 293.0568
v 4096.8547 -1197.4032 293.0531
f 592 593 594
v 4090.9911 -1200.5407 288.0014
v 4090.9365 -1197.5133 293.0568
v 4090.9331 -1197.5125 288.0020
f 595 596 597
v 4096.9253 -1200.4265 287.9975
v 4090.9944 -1200.5415 293.0562
v 4090.9911 -1200.5407 288.0014
f 598 599 600
v 4096.8514 -1197.4024 287.9982
v 4096.9286 -1200.4273 293.0524
v 4096.9253 -1200.4265 287.9975
f 601 602 603
v 4090.9331 -1197.5125 288.0020
v 4096.8547 -1197.4032 293.0531
v 4096.8514 -1197.4024 287.9982
f 604 605 606

g building_ID_29EC365F-3A20-4DBA-9E47-98B8123D730A
v 4086.8643 -1202.2996 287.8697
v 4086.8398 -1200.6195 287.8701
v 4088.4959 -1200.5880 287.8690
f 607 608 609
v 4088.4959 -1200.5880 287.8690
v 4089.2644 -1202.2631 287.8682
v 4086.8643 -1202.2996 287.8697
f 610 611 612
v 4088.4959 -1200.5880 287.8690
v 4093.0161 -1200.5010 287.8661
v 4089.2644 -1202.2631 287.8682
f 613 614 615
v 4093.0161 -1200.5010 287.8661
v 4101.2012 -1207.5369 287.8595
v 4089.2644 -1202.2631 287.8682
f 616 617 618
v 4093.1569 -1207.6934 287.8647
v 4089.3467 -1207.7682 287.8671
v 4089.2644 -1202.2631 287.8682
f 619 620 621
v 4097.2350 -1207.6143 287.8620
v 4093.1569 -1207.6934 287.8647
v 4089.2644 -1202.2631 287.8682
f 622 623 624
v 4097.0762 -1200.4239 287.8636
v 4101.2012 -1207.5369 287.8595
v 4093.0161 -1200.5010 287.8661
f 625 626 627
v 4101.2012 -1207.5369 287.8595
v 4097.0933 -1200.4240 287.8635
v 4101.0894 -1200.3616 287.8609
f 628 629 630
v 4097.2350 -1207.6143 287.8620
v 4089.2644 -1202.2631 287.8682
v 4101.2012 -1207.5369 287.8595
f 631 632 633
v 4097.0762 -1200.4239 287.8636
v 4097.0933 -1200.4240 287.8635
v 4101.2012 -1207.5369 287.8595
f 634 635 636
v 4088.5007 -1200.5892 295.3327
v 4089.2697 -1202.2644 295.8869
v 4093.0232 -1200.5029 298.7437
f 637 638 639
v 4089.3519 -1207.7695 295.8668
v 4093.0232 -1200.5029 298.7437
v 4089.2697 -1202.2644 295.8869
f 640 641 642
v 4088.5007 -1200.5892 295.3327
v 4088.5333 -1202.2753 295.3324
v 4089.2697 -1202.2644 295.8869
f 643 644 645
v 4093.1639 -1207.6952 298.7422
v 4093.0232 -1200.5029 298.7437
v 4089.3519 -1207.7695 295.8668
f 646 647 648
v 4093.0232 -1200.5029 298.7437
v 4093.1639 -1207.6952 298.7422
v 4097.0844 -1200.4252 295.7182
f 649 650 651
v 4093.1639 -1207.6952 298.7422
v 4097.2402 -1207.6156 295.7058
v 4097.0844 -1200.4252 295.7182
f 652 653 654
v 4097.0844 -1200.4252 295.7182
v 4097.2402 -1207.6156 295.7058
v 4097.0984 -1200.4253 295.7072
f 655 656 657
v 4099.1151 -1200.3935 295.0950
v 4097.2402 -1207.6156 295.7058
v 4101.1560 -1204.3549 294.4969
f 658 659 660
v 4097.2402 -1207.6156 295.7058
v 4101.2055 -1207.5380 294.5003
v 4101.1560 -1204.3549 294.4969
f 661 662 663
v 4099.1151 -1200.3935 295.0950
v 4101.1560 -1204.3549 294.4969
v 4101.0937 -1200.3628 294.4937
f 664 665 666
v 4099.1151 -1200.3935 295.0950
v 4097.0984 -1200.4253 295.7072
v 4097.2402 -1207.6156 295.7058
f 667 668 669
v 4088.5333 -1202.2753 295.3324
v 4086.8441 -1200.6207 294.4988
v 4086.8686 -1202.3007 294.4944
f 670 671 672
v 4088.5007 -1200.5892 295.3327
v 4086.8441 -1200.6207 294.4988
v 4088.5333 -1202.2753 295.3324
f 673 674 675
v 4089.3467 -1207.7682 287.8671
v 4089.3519 -1207.7695 295.8668
v 4089.2644 -1202.2631 287.8682
f 676 677 678
v 4089.3519 -1207.7695 295.8668
v 4089.2673 -1202.2638 292.3790
v 4089.2644 -1202.2631 287.8682
f 679 680 681
v 4097.0933 -1200.4240 287.8635
v 4097.0762 -1200.4239 287.8636
v 4097.0844 -1200.4252 295.7182
f 682 683 684
v 4097.0933 -1200.4240 287.8635
v 4097.0844 -1200.4252 295.7182
v 4097.0984 -1200.4253 295.7072
f 685 686 687
v 4097.0933 -1200.4240 287.8635
v 4101.0937 -1200.3628 294.4937
v 4101.0894 -1200.3616 287.8609
f 688 689 690
v 4101.0894 -1200.3616 287.8609
v 4101.0937 -1200.3628 294.4937
v 4101.2012 -1207.5369 287.8595
f 691 692 693
v 4086.8420 -1200.6201 291.1839
v 4086.8398 -1200.6195 287.8701
v 4086.8643 -1202.2996 287.8697
f 694 695 696
v 4089.2673 -1202.2638 292.3790
v 4088.5333 -1202.2753 295.3324
v 4086.8686 -1202.3007 294.4944
f 697 698 699
v 4088.5333 -1202.2753 295.3324
v 4089.2673 -1202.2638 292.3790
v 4089.2697 -1202.2644 295.8869
f 700 701 702
v 4086.8643 -1202.2996 287.8697
v 4089.2673 -1202.2638 292.3790
v 4086.8686 -1202.3007 294.4944
f 703 704 705
v 4089.2673 -1202.2638 292.3790
v 4086.8643 -1202.2996 287.8697
v 4089.2644 -1202.2631 287.8682
f 706 707 708
v 4086.8420 -1200.6201 291.1839
v 4088.5007 -1200.5892 295.3327
v 4093.0232 -1200.5029 298.7437
f 709 710 711
v 4086.8420 -1200.6201 291.1839
v 4086.8441 -1200.6207 294.4988
v 4088.5007 -1200.5892 295.3327
f 712 713 714
v 4086.8420 -1200.6201 291.1839
v 4093.0232 -1200.5029 298.7437
v 4086.8398 -1200.6195 287.8701
f 715 716 717
v 4088.4959 -1200.5880 287.8690
v 4086.8398 -1200.6195 287.8701
v 4093.0232 -1200.5029 298.7437
f 718 719 720
v 4093.0161 -1200.5010 287.8661
v 4097.0844 -1200.4252 295.7182
v 4097.0762 -1200.4239 287.8636
f 721 722 723
v 4093.0161 -1200.5010 287.8661
v 4088.4959 -1200.5880 287.8690
v 4097.0844 -1200.4252 295.7182
f 724 725 726
v 4093.0232 -1200.5029 298.7437
v 4097.0844 -1200.4252 295.7182
v 4088.4959 -1200.5880 287.8690
f 727 728 729
v 4101.2055 -1207.5380 294.5003
v 4097.2350 -1207.6143 287.8620
v 4101.2012 -1207.5369 287.8595
f 730 731 732
v 4101.2055 -1207.5380 294.5003
v 4097.2402 -1207.6156 295.7058
v 4097.2350 -1207.6143 287.8620
f 733 734 735
v 4093.1639 -1207.6952 298.7422
v 4093.1569 -1207.6934 287.8647
v 4097.2402 -1207.6156 295.7058
f 736 737 738
v 4089.3519 -1207.7695 295.8668
v 4089.3467 -1207.7682 287.8671
v 4093.1639 -1207.6952 298.7422
f 739 740 741
v 4093.1639 -1207.6952 298.7422
v 4089.3467 -1207.7682 287.8671
v 4093.1569 -1207.6934 287.8647
f 742 743 744
v 4097.2350 -1207.6143 287.8620
v 4097.2402 -1207.6156 295.7058
v 4093.1569 -1207.6934 287.8647
f 745 746 747
v 4089.3519 -1207.7695 295.8668
v 4089.2697 -1202.2644 295.8869
v 4089.2673 -1202.2638 292.3790
f 748 749 750
v 4097.0984 -1200.4253 295.7072
v 4099.1151 -1200.3935 295.0950
v 4097.0933 -1200.4240 287.8635
f 751 752 753
v 4097.0933 -1200.4240 287.8635
v 4099.1151 -1200.3935 295.0950
v 4101.0937 -1200.3628 294.4937
f 754 755 756
v 4101.1560 -1204.3549 294.4969
v 4101.2055 -1207.5380 294.5003
v 4101.2012 -1207.5369 287.8595
f 757 758 759
v 4101.2012 -1207.5369 287.8595
v 4101.0937 -1200.3628 294.4937
v 4101.1560 -1204.3549 294.4969
f 760 761 762
v 4086.8686 -1202.3007 294.4944
v 4086.8441 -1200.6207 294.4988
v 4086.8643 -1202.2996 287.8697
f 763 764 765
v 4086.8643 -1202.2996 287.8697
v 4086.8441 -1200.6207 294.4988
v 4086.8420 -1200.6201 291.1839
f 766 767 768

g building_ID_62FB2BA6-4312-4FB9-A6B2-C97BB07E5DE4
v 4097.0192 -1197.1588 288.1691
v 4094.4544 -1194.8421 288.1712
v 4098.3985 -1193.6676 288.1689
f 769 770 771
v 4094.4544 -1194.8421 288.1712
v 4094.4078 -1192.8169 288.1717
v 4098.3985 -1193.6676 288.1689
f 772 773 774
v 4094.5091 -1197.2062 288.1707
v 4094.4544 -1194.8421 288.1712
v 4094.5791 -1197.2053 288.1707
f 775 776 777
v 4097.0192 -1197.1588 288.1691
v 4094.5791 -1197.2053 288.1707
v 4094.4544 -1194.8421 288.1712
f 778 779 780
v 4097.1695 -1191.0523 288.1702
v 4094.4078 -1192.8169 288.1717
v 4094.4082 -1192.3079 288.1718
f 781 782 783
v 4098.3985 -1193.6676 288.1689
v 4100.0004 -1197.0788 288.1672
v 4097.0192 -1197.1588 288.1691
f 784 785 786
v 4097.1695 -1191.0523 288.1702
v 4098.3985 -1193.6676 288.1689
v 4094.4078 -1192.8169 288.1717
f 787 788 789
v 4095.3498 -1195.0584 294.1924
v 4097.0227 -1197.1597 293.5439
v 4100.0037 -1197.0796 293.2531
f 790 791 792
v 4097.0227 -1197.1597 293.5439
v 4095.3498 -1195.0584 294.1924
v 4094.5827 -1197.2063 293.7865
f 793 794 795
v 4095.3498 -1195.0584 294.1924
v 4100.0037 -1197.0796 293.2531
v 4098.4025 -1193.6685 294.1907
f 796 797 798
v 4094.5827 -1197.2063 293.7865
v 4095.3498 -1195.0584 294.1924
v 4094.4583 -1194.8429 294.1190
f 799 800 801
v 4094.4583 -1194.8429 294.1190
v 4094.5128 -1197.2071 293.7775
v 4094.5827 -1197.2063 293.7865
f 802 803 804
v 4094.4115 -1192.8178 293.8754
v 4094.4583 -1194.8429 294.1190
v 4095.3498 -1195.0584 294.1924
f 805 806 807
v 4094.4115 -1192.8178 293.8754
v 4097.1732 -1191.0532 293.8130
v 4094.4119 -1192.3089 293.8145
f 808 809 810
v 4098.4025 -1193.6685 294.1907
v 4094.4115 -1192.8178 293.8754
v 4095.3498 -1195.0584 294.1924
f 811 812 813
v 4098.4025 -1193.6685 294.1907
v 4097.1732 -1191.0532 293.8130
v 4094.4115 -1192.8178 293.8754
f 814 815 816
v 4097.0192 -1197.1588 288.1691
v 4100.0037 -1197.0796 293.2531
v 4097.0210 -1197.1593 290.8560
f 817 818 819
v 4097.0210 -1197.1593 290.8560
v 4100.0037 -1197.0796 293.2531
v 4097.0218 -1197.1595 292.2000
f 820 821 822
v 4100.0004 -1197.0788 288.1672
v 4100.0037 -1197.0796 293.2531
v 4097.0192 -1197.1588 288.1691
f 823 824 825
v 4094.4119 -1192.3089 293.8145
v 4094.4082 -1192.3079 288.1718
v 4094.4115 -1192.8178 293.8754
f 826 827 828
v 4094.4078 -1192.8169 288.1717
v 4094.4115 -1192.8178 293.8754
v 4094.4082 -1192.3079 288.1718
f 829 830 831
v 4097.1732 -1191.0532 293.8130
v 4097.1695 -1191.0523 288.1702
v 4094.4119 -1192.3089 293.8145
f 832 833 834
v 4094.4119 -1192.3089 293.8145
v 4097.1695 -1191.0523 288.1702
v 4094.4082 -1192.3079 288.1718
f 835 836 837
v 4097.0210 -1197.1593 290.8560
v 4094.5791 -1197.2053 288.1707
v 4097.0192 -1197.1588 288.1691
f 838 839 840
v 4094.5128 -1197.2071 293.7775
v 4097.0210 -1197.1593 290.8560
v 4097.0218 -1197.1595 292.2000
f 841 842 843
v 4094.5827 -1197.2063 293.7865
v 4094.5128 -1197.2071 293.7775
v 4097.0218 -1197.1595 292.2000
f 844 845 846
v 4094.5791 -1197.2053 288.1707
v 4097.0210 -1197.1593 290.8560
v 4094.5091 -1197.2062 288.1707
f 847 848 849
v 4094.5091 -1197.2062 288.1707
v 4097.0210 -1197.1593 290.8560
v 4094.5128 -1197.2071 293.7775
f 850 851 852
v 4097.0227 -1197.1597 293.5439
v 4094.5827 -1197.2063 293.7865
v 4097.0218 -1197.1595 292.2000
f 853 854 855
v 4098.3985 -1193.6676 288.1689
v 4097.1732 -1191.0532 293.8130
v 4098.4025 -1193.6685 294.1907
f 856 857 858
v 4097.1732 -1191.0532 293.8130
v 4098.3985 -1193.6676 288.1689
v 4097.1695 -1191.0523 288.1702
f 859 860 861
v 4098.3985 -1193.6676 288.1689
v 4098.4025 -1193.6685 294.1907
v 4100.0004 -1197.0788 288.1672
f 862 863 864
v 4100.0037 -1197.0796 293.2531
v 4100.0004 -1197.0788 288.1672
v 4098.4025 -1193.6685 294.1907
f 865 866 867
v 4094.4544 -1194.8421 288.1712
v 4094.5128 -1197.2071 293.7775
v 4094.4583 -1194.8429 294.1190
f 868 869 870
v 4094.5128 -1197.2071 293.7775
v 4094.4544 -1194.8421 288.1712
v 4094.5091 -1197.2062 288.1707
f 871 872 873
v 4094.4544 -1194.8421 288.1712
v 4094.4583 -1194.8429 294.1190
v 4094.4115 -1192.8178 293.8754
f 874 875 876
v 4094.4115 -1192.8178 293.8754
v 4094.4078 -1192.8169 288.1717
v 4094.4544 -1194.8421 288.1712
f 877 878 879
v 4100.0037 -1197.0796 293.2531
v 4097.0227 -1197.1597 293.5439
v 4097.0218 -1197.1595 292.2000
f 880 881 882

g building_ID_3CBE31BB-A9D8-47E0-A514-A3E7630FE5BB
v 4097.8649 -1236.4718 287.9623
v 4090.6229 -1237.6184 287.9667
v 4093.2726 -1236.5824 287.9652
f 883 884 885
v 4088.8778 -1237.6507 287.9679
v 4090.6229 -1237.6184 287.9667
v 4088.9872 -1243.8939 287.9665
f 886 887 888
v 4090.6229 -1237.6184 287.9667
v 4090.6045 -1236.6463 287.9669
v 4093.2726 -1236.5824 287.9652
f 889 890 891
v 4090.6229 -1237.6184 287.9667
v 4098.0035 -1243.7371 287.9607
v 4093.5103 -1243.8150 287.9636
f 892 893 894
v 4088.9872 -1243.8939 287.9665
v 4090.6229 -1237.6184 287.9667
v 4093.5103 -1243.8150 287.9636
f 895 896 897
v 4098.0035 -1243.7371 287.9607
v 4090.6229 -1237.6184 287.9667
v 4097.8649 -1236.4718 287.9623
f 898 899 900
v 4090.6300 -1237.6202 298.8993
v 4088.9935 -1243.8956 297.8062
v 4093.5185 -1243.8173 300.4892
f 901 902 903
v 4093.2808 -1236.5846 300.4908
v 4090.6300 -1237.6202 298.8993
v 4093.5185 -1243.8173 300.4892
f 904 905 906
v 4088.9935 -1243.8956 297.8062
v 4090.6300 -1237.6202 298.8993
v 4088.8843 -1237.6524 297.8645
f 907 908 909
v 4090.6300 -1237.6202 298.8993
v 4093.2808 -1236.5846 300.4908
v 4090.6116 -1236.6482 298.9075
f 910 911 912
v 4097.8709 -1236.4734 297.1449
v 4093.5185 -1243.8173 300.4892
v 4098.0095 -1243.7386 297.2154
f 913 914 915
v 4093.5185 -1243.8173 300.4892
v 4097.8709 -1236.4734 297.1449
v 4093.2808 -1236.5846 300.4908
f 916 917 918
v 4090.6099 -1236.6477 296.1726
v 4090.6080 -1236.6473 293.4377
v 4090.6300 -1237.6202 298.8993
f 919 920 921
v 4090.6229 -1237.6184 287.9667
v 4088.8778 -1237.6507 287.9679
v 4088.8843 -1237.6524 297.8645
f 922 923 924
v 4088.9872 -1243.8939 287.9665
v 4088.9903 -1243.8948 292.8584
v 4088.8778 -1237.6507 287.9679
f 925 926 927
v 4097.8709 -1236.4734 297.1449
v 4098.0035 -1243.7371 287.9607
v 4097.8686 -1236.4727 293.7111
f 928 929 930
v 4097.8649 -1236.4718 287.9623
v 4097.8686 -1236.4727 293.7111
v 4098.0035 -1243.7371 287.9607
f 931 932 933
v 4097.8709 -1236.4734 297.1449
v 4098.0095 -1243.7386 297.2154
v 4098.0072 -1243.7381 293.7455
f 934 935 936
v 4098.0035 -1243.7371 287.9607
v 4097.8709 -1236.4734 297.1449
v 4098.0072 -1243.7381 293.7455
f 937 938 939
v 4097.8686 -1236.4727 293.7111
v 4093.2726 -1236.5824 287.9652
v 4090.6080 -1236.6473 293.4377
f 940 941 942
v 4090.6080 -1236.6473 293.4377
v 4093.2726 -1236.5824 287.9652
v 4090.6045 -1236.6463 287.9669
f 943 944 945
v 4097.8686 -1236.4727 293.7111
v 4090.6080 -1236.6473 293.4377
v 4090.6099 -1236.6477 296.1726
f 946 947 948
v 4097.8686 -1236.4727 293.7111
v 4090.6099 -1236.6477 296.1726
v 4093.2808 -1236.5846 300.4908
f 949 950 951
v 4097.8709 -1236.4734 297.1449
v 4097.8686 -1236.4727 293.7111
v 4093.2808 -1236.5846 300.4908
f 952 953 954
v 4093.2726 -1236.5824 287.9652
v 4097.8686 -1236.4727 293.7111
v 4097.8649 -1236.4718 287.9623
f 955 956 957
v 4090.6099 -1236.6477 296.1726
v 4090.6116 -1236.6482 298.9075
v 4093.2808 -1236.5846 300.4908
f 958 959 960
v 4098.0072 -1243.7381 293.7455
v 4098.0095 -1243.7386 297.2154
v 4093.5185 -1243.8173 300.4892
f 961 962 963
v 4098.0072 -1243.7381 293.7455
v 4093.5103 -1243.8150 287.9636
v 4098.0035 -1243.7371 287.9607
f 964 965 966
v 4093.5185 -1243.8173 300.4892
v 4088.9935 -1243.8956 297.8062
v 4098.0072 -1243.7381 293.7455
f 967 968 969
v 4098.0072 -1243.7381 293.7455
v 4088.9903 -1243.8948 292.8584
v 4093.5103 -1243.8150 287.9636
f 970 971 972
v 4088.9903 -1243.8948 292.8584
v 4098.0072 -1243.7381 293.7455
v 4088.9935 -1243.8956 297.8062
f 973 974 975
v 4088.9903 -1243.8948 292.8584
v 4088.9872 -1243.8939 287.9665
v 4093.5103 -1243.8150 287.9636
f 976 977 978
v 4090.6229 -1237.6184 287.9667
v 4090.6300 -1237.6202 298.8993
v 4090.6045 -1236.6463 287.9669
f 979 980 981
v 4090.6099 -1236.6477 296.1726
v 4090.6300 -1237.6202 298.8993
v 4090.6116 -1236.6482 298.9075
f 982 983 984
v 4090.6080 -1236.6473 293.4377
v 4090.6045 -1236.6463 287.9669
v 4090.6300 -1237.6202 298.8993
f 985 986 987
v 4088.8843 -1237.6524 297.8645
v 4090.6300 -1237.6202 298.8993
v 4090.6229 -1237.6184 287.9667
f 988 989 990
v 4088.8778 -1237.6507 287.9679
v 4088.9903 -1243.8948 292.8584
v 4088.9935 -1243.8956 297.8062
f 991 992 993
v 4088.9935 -1243.8956 297.8062
v 4088.8843 -1237.6524 297.8645
v 4088.8778 -1237.6507 287.9679
f 994 995 996

g building_ID_E36E3D5B-2B61-4180-A83F-E31972E12BB3
v 4096.5009 -1230.0352 299.9750
v 4096.4974 -1229.8622 299.9730
v 4095.7472 -1230.0603 300.4905
f 997 998 999
v 4100.0972 -1222.5754 297.3502
v 4095.5040 -1222.6657 300.4920
v 4100.1656 -1226.1835 297.3845
f 1000 1001 1002
v 4100.1656 -1226.1835 297.3845
v 4095.5040 -1222.6657 300.4920
v 4096.4974 -1229.8622 299.9730
f 1003 1004 1005
v 4100.2340 -1229.7907 297.4177
v 4100.1656 -1226.1835 297.3845
v 4096.4974 -1229.8622 299.9730
f 1006 1007 1008
v 4095.7472 -1230.0603 300.4905
v 4096.4974 -1229.8622 299.9730
v 4095.5040 -1222.6657 300.4920
f 1009 1010 1011
v 4091.4621 -1229.7813 297.6324
v 4095.7472 -1230.0603 300.4905
v 4091.3976 -1226.2632 297.6671
f 1012 1013 1014
v 4095.7472 -1230.0603 300.4905
v 4095.5040 -1222.6657 300.4920
v 4091.3976 -1226.2632 297.6671
f 1015 1016 1017
v 4095.5040 -1222.6657 300.4920
v 4091.3340 -1222.7460 297.7028
v 4091.3976 -1226.2632 297.6671
f 1018 1019 1020
v 4091.4621 -1229.7813 297.6324
v 4090.4837 -1229.7996 296.9770
v 4090.4915 -1230.2326 296.9729
f 1021 1022 1023
v 4095.7472 -1230.0603 300.4905
v 4091.4621 -1229.7813 297.6324
v 4090.4915 -1230.2326 296.9729
f 1024 1025 1026
v 4096.4974 -1229.8622 299.9730
v 4100.2278 -1229.7891 288.1100
v 4100.2340 -1229.7907 297.4177
f 1027 1028 1029
v 4096.4897 -1229.8601 288.1124
v 4100.2278 -1229.7891 288.1100
v 4096.4931 -1229.8610 293.3012
f 1030 1031 1032
v 4100.0949 -1222.5748 293.8603
v 4100.0972 -1222.5754 297.3502
v 4100.2278 -1229.7891 288.1100
f 1033 1034 1035
v 4100.0911 -1222.5739 288.1115
v 4100.0949 -1222.5748 293.8603
v 4100.2278 -1229.7891 288.1100
f 1036 1037 1038
v 4100.1656 -1226.1835 297.3845
v 4100.2340 -1229.7907 297.4177
v 4100.2278 -1229.7891 288.1100
f 1039 1040 1041
v 4090.4779 -1229.7981 288.1163
v 4090.4806 -1229.7987 292.2192
v 4091.4560 -1229.7797 288.1157
f 1042 1043 1044
v 4090.4837 -1229.7996 296.9770
v 4091.4621 -1229.7813 297.6324
v 4091.4560 -1229.7797 288.1157
f 1045 1046 1047
v 4091.3976 -1226.2632 297.6671
v 4091.4560 -1229.7797 288.1157
v 4091.4621 -1229.7813 297.6324
f 1048 1049 1050
v 4091.3340 -1222.7460 297.7028
v 4091.3317 -1222.7454 294.1079
v 4091.3976 -1226.2632 297.6671
f 1051 1052 1053
v 4091.3277 -1222.7444 288.1172
v 4091.4560 -1229.7797 288.1157
v 4091.3976 -1226.2632 297.6671
f 1054 1055 1056
v 4091.3976 -1226.2632 297.6671
v 4091.3294 -1222.7448 290.5141
v 4091.3277 -1222.7444 288.1172
f 1057 1058 1059
v 4091.3317 -1222.7454 294.1079
v 4091.3294 -1222.7448 290.5141
v 4091.3976 -1226.2632 297.6671
f 1060 1061 1062
v 4096.4970 -1230.0341 293.8902
v 4093.3307 -1233.2320 295.6876
v 4096.5576 -1233.1643 293.9125
f 1063 1064 1065
v 4093.2289 -1230.1427 295.6883
v 4093.3307 -1233.2320 295.6876
v 4096.4970 -1230.0341 293.8902
f 1066 1067 1068
v 4090.4898 -1230.2321 294.3990
v 4090.5476 -1233.2903 294.3774
v 4093.3307 -1233.2320 295.6876
f 1069 1070 1071
v 4093.3307 -1233.2320 295.6876
v 4093.2289 -1230.1427 295.6883
v 4090.4898 -1230.2321 294.3990
f 1072 1073 1074
v 4091.3317 -1222.7454 294.1079
v 4091.3340 -1222.7460 297.7028
v 4095.5040 -1222.6657 300.4920
f 1075 1076 1077
v 4100.0972 -1222.5754 297.3502
v 4091.3294 -1222.7448 290.5141
v 4091.3317 -1222.7454 294.1079
f 1078 1079 1080
v 4100.0972 -1222.5754 297.3502
v 4091.3317 -1222.7454 294.1079
v 4095.5040 -1222.6657 300.4920
f 1081 1082 1083
v 4091.3294 -1222.7448 290.5141
v 4100.0949 -1222.5748 293.8603
v 4095.4960 -1222.6635 288.1144
f 1084 1085 1086
v 4095.4960 -1222.6635 288.1144
v 4091.3277 -1222.7444 288.1172
v 4091.3294 -1222.7448 290.5141
f 1087 1088 1089
v 4100.0949 -1222.5748 293.8603
v 4100.0911 -1222.5739 288.1115
v 4095.4960 -1222.6635 288.1144
f 1090 1091 1092
v 4100.0972 -1222.5754 297.3502
v 4100.0949 -1222.5748 293.8603
v 4091.3294 -1222.7448 290.5141
f 1093 1094 1095
v 4093.2289 -1230.1427 295.6883
v 4096.4970 -1230.0341 293.8902
v 4096.5009 -1230.0352 299.9750
f 1096 1097 1098
v 4090.4915 -1230.2326 296.9729
v 4093.2289 -1230.1427 295.6883
v 4095.7472 -1230.0603 300.4905
f 1099 1100 1101
v 4096.5009 -1230.0352 299.9750
v 4095.7472 -1230.0603 300.4905
v 4093.2289 -1230.1427 295.6883
f 1102 1103 1104
v 4093.2289 -1230.1427 295.6883
v 4090.4915 -1230.2326 296.9729
v 4090.4898 -1230.2321 294.3990
f 1105 1106 1107
v 4096.4974 -1229.8622 299.9730
v 4096.5009 -1230.0352 299.9750
v 4096.4931 -1229.8610 293.3012
f 1108 1109 1110
v 4096.4931 -1229.8610 293.3012
v 4096.5009 -1230.0352 299.9750
v 4096.4970 -1230.0341 293.8902
f 1111 1112 1113
v 4096.4931 -1229.8610 293.3012
v 4096.5539 -1233.1633 288.1117
v 4096.4897 -1229.8601 288.1124
f 1114 1115 1116
v 4096.5576 -1233.1643 293.9125
v 4096.5539 -1233.1633 288.1117
v 4096.4970 -1230.0341 293.8902
f 1117 1118 1119
v 4096.4970 -1230.0341 293.8902
v 4096.5539 -1233.1633 288.1117
v 4096.4931 -1229.8610 293.3012
f 1120 1121 1122
v 4090.5476 -1233.2903 294.3774
v 4090.4806 -1229.7987 292.2192
v 4090.5435 -1233.2893 288.1156
f 1123 1124 1125
v 4090.5435 -1233.2893 288.1156
v 4090.4806 -1229.7987 292.2192
v 4090.4858 -1230.2311 288.1162
f 1126 1127 1128
v 4090.4806 -1229.7987 292.2192
v 4090.5476 -1233.2903 294.3774
v 4090.4898 -1230.2321 294.3990
f 1129 1130 1131
v 4090.4858 -1230.2311 288.1162
v 4090.4806 -1229.7987 292.2192
v 4090.4779 -1229.7981 288.1163
f 1132 1133 1134
v 4090.4806 -1229.7987 292.2192
v 4090.4898 -1230.2321 294.3990
v 4090.4837 -1229.7996 296.9770
f 1135 1136 1137
v 4090.4837 -1229.7996 296.9770
v 4090.4898 -1230.2321 294.3990
v 4090.4915 -1230.2326 296.9729
f 1138 1139 1140
v 4093.3257 -1233.2307 288.1138
v 4096.5539 -1233.1633 288.1117
v 4096.5576 -1233.1643 293.9125
f 1141 1142 1143
v 4090.5476 -1233.2903 294.3774
v 4093.3257 -1233.2307 288.1138
v 4096.5576 -1233.1643 293.9125
f 1144 1145 1146
v 4090.5435 -1233.2893 288.1156
v 4093.3257 -1233.2307 288.1138
v 4090.5476 -1233.2903 294.3774
f 1147 1148 1149
v 4093.3307 -1233.2320 295.6876
v 4090.5476 -1233.2903 294.3774
v 4096.5576 -1233.1643 293.9125
f 1150 1151 1152
v 4096.4897 -1229.8601 288.1124
v 4095.4960 -1222.6635 288.1144
v 4100.0911 -1222.5739 288.1115
f 1153 1154 1155
v 4091.4560 -1229.7797 288.1157
v 4091.3277 -1222.7444 288.1172
v 4095.4960 -1222.6635 288.1144
f 1156 1157 1158
v 4091.4560 -1229.7797 288.1157
v 4095.4960 -1222.6635 288.1144
v 4096.4897 -1229.8601 288.1124
f 1159 1160 1161
v 4100.0911 -1222.5739 288.1115
v 4100.2278 -1229.7891 288.1100
v 4096.4897 -1229.8601 288.1124
f 1162 1163 1164
v 4093.3257 -1233.2307 288.1138
v 4096.4897 -1229.8601 288.1124
v 4096.5539 -1233.1633 288.1117
f 1165 1166 1167
v 4091.4560 -1229.7797 288.1157
v 4090.4858 -1230.2311 288.1162
v 4090.4779 -1229.7981 288.1163
f 1168 1169 1170
v 4090.4858 -1230.2311 288.1162
v 4091.4560 -1229.7797 288.1157
v 4090.5435 -1233.2893 288.1156
f 1171 1172 1173
v 4093.3257 -1233.2307 288.1138
v 4090.5435 -1233.2893 288.1156
v 4091.4560 -1229.7797 288.1157
f 1174 1175 1176
v 4091.4560 -1229.7797 288.1157
v 4096.4897 -1229.8601 288.1124
v 4093.3257 -1233.2307 288.1138
f 1177 1178 1179
v 4096.4931 -1229.8610 293.3012
v 4100.2278 -1229.7891 288.1100
v 4096.4974 -1229.8622 299.9730
f 1180 1181 1182
v 4100.1656 -1226.1835 297.3845
v 4100.2278 -1229.7891 288.1100
v 4100.0972 -1222.5754 297.3502
f 1183 1184 1185
v 4091.4560 -1229.7797 288.1157
v 4090.4806 -1229.7987 292.2192
v 4090.4837 -1229.7996 296.9770
f 1186 1187 1188
