# Grid Center: 2620200, 1264600
# Global Anchor: 7.64977475454284, 47.53283995868075, 0.0

g building_ID_A9730900-D0D0-400A-AFDE-378A3ECB34D6
v 4096.9730 -123.8444 265.6923
v 4097.0281 -123.8206 265.6923
v 4097.4371 -124.9606 265.6920
f 1 2 3
v 4097.4921 -124.9378 265.6920
v 4097.4371 -124.9606 265.6920
v 4097.0281 -123.8206 265.6923
f 4 5 6
v 4082.0172 -121.9665 265.7019
v 4096.9730 -123.8444 265.6923
v 4097.4371 -124.9606 265.6920
f 7 8 9
v 4082.0172 -121.9665 265.7019
v 4094.1512 -117.0470 265.6942
v 4096.9730 -123.8444 265.6923
f 10 11 12
v 4076.6794 -148.8728 265.7048
v 4068.0723 -127.6301 265.7107
v 4082.0172 -121.9665 265.7019
f 13 14 15
v 4099.7411 -130.1777 265.6904
v 4082.0172 -121.9665 265.7019
v 4099.4401 -129.7900 265.6906
f 16 17 18
v 4082.0172 -121.9665 265.7019
v 4099.7411 -130.1777 265.6904
v 4105.1394 -178.9955 265.6857
f 19 20 21
v 4099.5632 -129.7403 265.6905
v 4099.7411 -130.1777 265.6904
v 4099.4401 -129.7900 265.6906
f 22 23 24
v 4099.7411 -130.1777 265.6904
v 4117.5016 -173.9837 265.6778
v 4105.1394 -178.9955 265.6857
f 25 26 27
v 4097.4371 -124.9606 265.6920
v 4099.4401 -129.7900 265.6906
v 4082.0172 -121.9665 265.7019
f 28 29 30
v 4091.4928 -184.5289 265.6943
v 4077.2199 -150.1902 265.7044
v 4105.1394 -178.9955 265.6857
f 31 32 33
v 4076.6794 -148.8728 265.7048
v 4082.0172 -121.9665 265.7019
v 4077.2199 -150.1902 265.7044
f 34 35 36
v 4082.0172 -121.9665 265.7019
v 4105.1394 -178.9955 265.6857
v 4077.2199 -150.1902 265.7044
f 37 38 39
v 4094.1593 -117.0469 278.0748
v 4082.0261 -121.9664 279.1995
v 4096.9811 -123.8444 278.0679
f 40 41 42
v 4096.9811 -123.8444 278.0679
v 4097.4451 -124.9606 278.0666
v 4097.0362 -123.8205 278.0629
f 43 44 45
v 4097.4451 -124.9606 278.0666
v 4096.9811 -123.8444 278.0679
v 4082.0261 -121.9664 279.1995
f 46 47 48
v 4099.4482 -129.7899 278.0612
v 4097.4451 -124.9606 278.0666
v 4082.0261 -121.9664 279.1995
f 49 50 51
v 4099.4482 -129.7899 278.0612
v 4082.0261 -121.9664 279.1995
v 4105.1483 -178.9956 279.1832
f 52 53 54
v 4099.5713 -129.7402 278.0501
v 4099.4482 -129.7899 278.0612
v 4099.7492 -130.1777 278.0500
f 55 56 57
v 4099.4482 -129.7899 278.0612
v 4105.1483 -178.9956 279.1832
v 4099.7492 -130.1777 278.0500
f 58 59 60
v 4099.7492 -130.1777 278.0500
v 4105.1483 -178.9956 279.1832
v 4117.5098 -173.9837 278.0374
f 61 62 63
v 4097.4451 -124.9606 278.0666
v 4097.5002 -124.9378 278.0616
v 4097.0362 -123.8205 278.0629
f 64 65 66
v 4077.2278 -150.1902 278.0639
v 4091.5009 -184.5291 278.0788
v 4105.1483 -178.9956 279.1832
f 67 68 69
v 4082.0261 -121.9664 279.1995
v 4077.2278 -150.1902 278.0639
v 4105.1483 -178.9956 279.1832
f 70 71 72
v 4068.0803 -127.6300 278.0703
v 4076.6874 -148.8728 278.0643
v 4082.0261 -121.9664 279.1995
f 73 74 75
v 4077.2278 -150.1902 278.0639
v 4082.0261 -121.9664 279.1995
v 4076.6874 -148.8728 278.0643
f 76 77 78
v 4099.4401 -129.7900 265.6906
v 4099.4482 -129.7899 278.0612
v 4099.5693 -129.7403 274.9572
f 79 80 81
v 4099.4401 -129.7900 265.6906
v 4099.5653 -129.7403 268.7714
v 4099.5632 -129.7403 265.6905
f 82 83 84
v 4099.4401 -129.7900 265.6906
v 4097.4371 -124.9606 265.6920
v 4099.4482 -129.7899 278.0612
f 85 86 87
v 4097.4371 -124.9606 265.6920
v 4097.4921 -124.9378 265.6920
v 4097.5002 -124.9378 278.0616
f 88 89 90
v 4097.5002 -124.9378 278.0616
v 4097.4451 -124.9606 278.0666
v 4097.4371 -124.9606 265.6920
f 91 92 93
v 4097.0281 -123.8206 265.6923
v 4097.0362 -123.8205 278.0629
v 4097.4921 -124.9378 265.6920
f 94 95 96
v 4097.0281 -123.8206 265.6923
v 4096.9730 -123.8444 265.6923
v 4097.0362 -123.8205 278.0629
f 97 98 99
v 4094.1593 -117.0469 278.0748
v 4096.9811 -123.8444 278.0679
v 4094.1512 -117.0470 265.6942
f 100 101 102
v 4096.9811 -123.8444 278.0679
v 4096.9730 -123.8444 265.6923
v 4094.1512 -117.0470 265.6942
f 103 104 105
v 4076.6794 -148.8728 265.7048
v 4076.6874 -148.8728 278.0643
v 4068.0803 -127.6300 278.0703
f 106 107 108
v 4082.0172 -121.9665 265.7019
v 4068.0803 -127.6300 278.0703
v 4082.0261 -121.9664 279.1995
f 109 110 111
v 4068.0803 -127.6300 278.0703
v 4082.0172 -121.9665 265.7019
v 4068.0723 -127.6301 265.7107
f 112 113 114
v 4082.0172 -121.9665 265.7019
v 4082.0261 -121.9664 279.1995
v 4094.1593 -117.0469 278.0748
f 115 116 117
v 4094.1593 -117.0469 278.0748
v 4094.1512 -117.0470 265.6942
v 4082.0172 -121.9665 265.7019
f 118 119 120
v 4105.1483 -178.9956 279.1832
v 4105.1394 -178.9955 265.6857
v 4117.5016 -173.9837 265.6778
f 121 122 123
v 4117.5098 -173.9837 278.0374
v 4105.1483 -178.9956 279.1832
v 4117.5016 -173.9837 265.6778
f 124 125 126
v 4105.1394 -178.9955 265.6857
v 4091.5009 -184.5291 278.0788
v 4091.4928 -184.5289 265.6943
f 127 128 129
v 4105.1483 -178.9956 279.1832
v 4091.5009 -184.5291 278.0788
v 4105.1394 -178.9955 265.6857
f 130 131 132
v 4099.7492 -130.1777 278.0500
v 4099.5693 -129.7403 274.9572
v 4099.5713 -129.7402 278.0501
f 133 134 135
v 4117.5016 -173.9837 265.6778
v 4099.5653 -129.7403 268.7714
v 4099.5693 -129.7403 274.9572
f 136 137 138
v 4099.5693 -129.7403 274.9572
v 4117.5098 -173.9837 278.0374
v 4117.5016 -173.9837 265.6778
f 139 140 141
v 4099.7411 -130.1777 265.6904
v 4099.5632 -129.7403 265.6905
v 4099.5653 -129.7403 268.7714
f 142 143 144
v 4117.5016 -173.9837 265.6778
v 4099.7411 -130.1777 265.6904
v 4099.5653 -129.7403 268.7714
f 145 146 147
v 4099.5693 -129.7403 274.9572
v 4099.7492 -130.1777 278.0500
v 4117.5098 -173.9837 278.0374
f 148 149 150
v 4077.2199 -150.1902 265.7044
v 4091.4928 -184.5289 265.6943
v 4091.5009 -184.5291 278.0788
f 151 152 153
v 4077.2278 -150.1902 278.0639
v 4077.2199 -150.1902 265.7044
v 4091.5009 -184.5291 278.0788
f 154 155 156
v 4077.2199 -150.1902 265.7044
v 4077.2278 -150.1902 278.0639
v 4076.6794 -148.8728 265.7048
f 157 158 159
v 4076.6874 -148.8728 278.0643
v 4076.6794 -148.8728 265.7048
v 4077.2278 -150.1902 278.0639
f 160 161 162
v 4099.4482 -129.7899 278.0612
v 4099.5713 -129.7402 278.0501
v 4099.5693 -129.7403 274.9572
f 163 164 165
v 4099.4401 -129.7900 265.6906
v 4099.5693 -129.7403 274.9572
v 4099.5653 -129.7403 268.7714
f 166 167 168
v 4097.4371 -124.9606 265.6920
v 4097.4451 -124.9606 278.0666
v 4099.4482 -129.7899 278.0612
f 169 170 171
v 4097.4921 -124.9378 265.6920
v 4097.0362 -123.8205 278.0629
v 4097.5002 -124.9378 278.0616
f 172 173 174
v 4096.9730 -123.8444 265.6923
v 4096.9811 -123.8444 278.0679
v 4097.0362 -123.8205 278.0629
f 175 176 177
v 4076.6794 -148.8728 265.7048
v 4068.0803 -127.6300 278.0703
v 4068.0723 -127.6301 265.7107
f 178 179 180

g building_ID_9CC24B7B-10A2-4F0C-9AB6-F47D467D8A07
v 4129.2164 -2.8598 282.8405
v 4130.9267 0.9896 282.8394
v 4128.1076 -0.1779 282.8412
f 181 182 183
v 4128.7760 -3.0427 282.8407
v 4130.4968 -7.1972 282.8396
v 4129.2164 -2.8598 282.8405
f 184 185 186
v 4130.4968 -7.1972 282.8396
v 4130.9267 0.9896 282.8394
v 4129.2164 -2.8598 282.8405
f 187 188 189
v 4077.6445 2.9311 282.8736
v 4102.2733 -10.8737 282.8578
v 4093.7912 9.6157 282.8633
f 190 191 192
v 4065.4808 -30.6471 282.8813
v 4109.6483 -12.3614 282.8531
v 4102.2733 -10.8737 282.8578
f 193 194 195
v 4114.8768 -13.6633 282.8497
v 4112.0460 -6.8279 282.8515
v 4109.6483 -12.3614 282.8531
f 196 197 198
v 4102.2733 -10.8737 282.8578
v 4109.6483 -12.3614 282.8531
v 4112.0460 -6.8279 282.8515
f 199 200 201
v 4114.8768 -13.6633 282.8497
v 4109.6483 -12.3614 282.8531
v 4109.7278 -12.5416 282.8530
f 202 203 204
v 4131.4145 -12.5416 282.8390
v 4135.7794 -10.7333 282.8362
v 4130.4968 -7.1972 282.8396
f 205 206 207
v 4130.9267 0.9896 282.8394
v 4130.4968 -7.1972 282.8396
v 4135.7794 -10.7333 282.8362
f 208 209 210
v 4128.4337 -14.7506 282.8410
v 4131.7593 -13.3726 282.8388
v 4131.4145 -12.5416 282.8390
f 211 212 213
v 4131.4145 -12.5416 282.8390
v 4127.2086 -11.7954 282.8418
v 4128.4337 -14.7506 282.8410
f 214 215 216
v 4127.2086 -11.7954 282.8418
v 4131.4145 -12.5416 282.8390
v 4130.4968 -7.1972 282.8396
f 217 218 219
v 4122.2887 -11.0192 282.8449
v 4114.8768 -13.6633 282.8497
v 4111.0334 -15.6820 282.8522
f 220 221 222
v 4127.2086 -11.7954 282.8418
v 4122.2887 -11.0192 282.8449
v 4123.2832 -13.4219 282.8443
f 223 224 225
v 4111.0334 -15.6820 282.8522
v 4114.8768 -13.6633 282.8497
v 4109.7278 -12.5416 282.8530
f 226 227 228
v 4130.4968 -7.1972 282.8396
v 4122.2887 -11.0192 282.8449
v 4127.2086 -11.7954 282.8418
f 229 230 231
v 4130.4968 -7.1972 282.8396
v 4114.8768 -13.6633 282.8497
v 4122.2887 -11.0192 282.8449
f 232 233 234
v 4085.2571 24.4985 282.8688
v 4085.4103 24.5620 282.8687
v 4084.8876 25.8255 282.8690
f 235 236 237
v 4085.2571 24.4985 282.8688
v 4085.8704 22.7468 282.8684
v 4085.9656 22.7866 282.8683
f 238 239 240
v 4085.6303 20.8325 282.8685
v 4086.5112 21.1981 282.8680
v 4085.8704 22.7468 282.8684
f 241 242 243
v 4085.8704 22.7468 282.8684
v 4085.2571 24.4985 282.8688
v 4085.6303 20.8325 282.8685
f 244 245 246
v 4085.6303 20.8325 282.8685
v 4085.2571 24.4985 282.8688
v 4073.7458 12.3464 282.8762
f 247 248 249
v 4073.7458 12.3464 282.8762
v 4085.2571 24.4985 282.8688
v 4084.8876 25.8255 282.8690
f 250 251 252
v 4085.6303 20.8325 282.8685
v 4073.7458 12.3464 282.8762
v 4086.8912 17.7881 282.8678
f 253 254 255
v 4073.7458 12.3464 282.8762
v 4068.1818 -4.0876 282.8796
v 4077.6445 2.9311 282.8736
f 256 257 258
v 4102.2733 -10.8737 282.8578
v 4077.6445 2.9311 282.8736
v 4072.4214 -14.3298 282.8769
f 259 260 261
v 4057.0741 -6.6708 282.8867
v 4073.7458 12.3464 282.8762
v 4048.3406 10.6953 282.8923
f 262 263 264
v 4084.8876 25.8255 282.8690
v 4048.3406 10.6953 282.8923
v 4073.7458 12.3464 282.8762
f 265 266 267
v 4057.0741 -6.6708 282.8867
v 4059.5714 -7.6525 282.8851
v 4068.1818 -4.0876 282.8796
f 268 269 270
v 4064.8318 -17.2225 282.8817
v 4060.6292 -18.9622 282.8844
v 4064.9202 -17.4368 282.8817
f 271 272 273
v 4065.4808 -30.6471 282.8813
v 4072.4214 -14.3298 282.8769
v 4064.9202 -17.4368 282.8817
f 274 275 276
v 4077.6445 2.9311 282.8736
v 4068.1818 -4.0876 282.8796
v 4072.4214 -14.3298 282.8769
f 277 278 279
v 4058.5222 -8.4747 282.8858
v 4059.7086 -7.9839 282.8850
v 4059.5714 -7.6525 282.8851
f 280 281 282
v 4057.0741 -6.6708 282.8867
v 4058.5222 -8.4747 282.8858
v 4059.5714 -7.6525 282.8851
f 283 284 285
v 4048.3406 10.6953 282.8923
v 4055.7656 -7.2123 282.8875
v 4057.0741 -6.6708 282.8867
f 286 287 288
v 4060.6292 -18.9622 282.8844
v 4065.4808 -30.6471 282.8813
v 4064.9202 -17.4368 282.8817
f 289 290 291
v 4057.0741 -6.6708 282.8867
v 4068.1818 -4.0876 282.8796
v 4073.7458 12.3464 282.8762
f 292 293 294
v 4072.4214 -14.3298 282.8769
v 4065.4808 -30.6471 282.8813
v 4102.2733 -10.8737 282.8578
f 295 296 297
v 4109.6361 -12.3619 264.2607
v 4109.6483 -12.3614 282.8531
v 4065.4808 -30.6471 282.8813
f 298 299 300
v 4109.7156 -12.5420 264.2606
v 4109.7278 -12.5416 282.8530
v 4109.6483 -12.3614 282.8531
f 301 302 303
v 4111.0212 -15.6824 264.2598
v 4111.0334 -15.6820 282.8522
v 4109.7278 -12.5416 282.8530
f 304 305 306
v 4122.2765 -11.0196 264.2525
v 4122.2887 -11.0192 282.8449
v 4111.0334 -15.6820 282.8522
f 307 308 309
v 4123.2711 -13.4223 264.2519
v 4123.2832 -13.4219 282.8443
v 4122.2887 -11.0192 282.8449
f 310 311 312
v 4127.1964 -11.7958 264.2494
v 4127.2086 -11.7954 282.8418
v 4123.2832 -13.4219 282.8443
f 313 314 315
v 4128.4214 -14.7510 264.2486
v 4128.4337 -14.7506 282.8410
v 4127.2086 -11.7954 282.8418
f 316 317 318
v 4131.7470 -13.3730 264.2464
v 4131.7593 -13.3726 282.8388
v 4128.4337 -14.7506 282.8410
f 319 320 321
v 4131.4023 -12.5420 264.2466
v 4131.4145 -12.5416 282.8390
v 4131.7593 -13.3726 282.8388
f 322 323 324
v 4135.7671 -10.7337 264.2438
v 4135.7794 -10.7333 282.8362
v 4131.4145 -12.5416 282.8390
f 325 326 327
v 4085.2606 24.4986 288.2736
v 4086.0764 22.5284 288.2731
v 4085.4138 24.5622 288.2735
f 328 329 330
v 4092.9562 29.2090 288.2686
v 4085.7693 26.2263 288.2732
v 4085.4138 24.5622 288.2735
f 331 332 333
v 4085.7693 26.2263 288.2732
v 4084.8783 25.8566 288.2738
v 4085.4138 24.5622 288.2735
f 334 335 336
v 4097.8152 27.7489 288.2655
v 4085.4138 24.5622 288.2735
v 4086.0764 22.5284 288.2731
f 337 338 339
v 4092.9562 29.2090 288.2686
v 4097.8152 27.7489 288.2655
v 4096.5892 30.7112 288.2663
f 340 341 342
v 4085.7805 26.3062 288.2732
v 4085.7693 26.2263 288.2732
v 4092.8983 29.2531 288.2687
f 343 344 345
v 4092.8983 29.2531 288.2687
v 4085.7693 26.2263 288.2732
v 4092.9562 29.2090 288.2686
f 346 347 348
v 4097.8152 27.7489 288.2655
v 4092.9562 29.2090 288.2686
v 4085.4138 24.5622 288.2735
f 349 350 351
v 4092.9405 29.2083 264.2714
v 4092.9562 29.2090 288.2686
v 4096.5892 30.7112 288.2663
f 352 353 354
v 4092.8827 29.2524 264.2715
v 4092.8983 29.2531 288.2687
v 4092.9562 29.2090 288.2686
f 355 356 357
v 4085.7649 26.3056 264.2760
v 4085.7805 26.3062 288.2732
v 4092.8983 29.2531 288.2687
f 358 359 360
v 4085.7536 26.2255 264.2760
v 4085.7693 26.2263 288.2732
v 4085.7805 26.3062 288.2732
f 361 362 363
v 4084.8626 25.8560 264.2766
v 4084.8783 25.8566 288.2738
v 4085.7693 26.2263 288.2732
f 364 365 366
v 4048.3286 10.6948 264.2999
v 4048.3406 10.6953 282.8923
v 4084.8876 25.8255 282.8690
f 367 368 369
v 4085.4103 24.5620 282.8687
v 4085.4138 24.5622 288.2735
v 4084.8876 25.8255 282.8690
f 370 371 372
v 4084.8783 25.8566 288.2738
v 4084.8876 25.8255 282.8690
v 4085.4138 24.5622 288.2735
f 373 374 375
v 4084.8756 25.8248 264.2766
v 4084.8876 25.8255 282.8690
v 4084.8626 25.8560 264.2766
f 376 377 378
v 4084.8783 25.8566 288.2738
v 4084.8626 25.8560 264.2766
v 4084.8876 25.8255 282.8690
f 379 380 381
v 4085.2571 24.4985 282.8688
v 4085.2606 24.4986 288.2736
v 4085.4138 24.5622 288.2735
f 382 383 384
v 4086.0744 22.5283 285.1442
v 4086.0764 22.5284 288.2731
v 4085.9670 22.7866 285.1442
f 385 386 387
v 4085.2606 24.4986 288.2736
v 4085.9670 22.7866 285.1442
v 4086.0764 22.5284 288.2731
f 388 389 390
v 4085.9656 22.7866 282.8683
v 4085.9670 22.7866 285.1442
v 4085.2571 24.4985 282.8688
f 391 392 393
v 4085.2606 24.4986 288.2736
v 4085.2571 24.4985 282.8688
v 4085.9670 22.7866 285.1442
f 394 395 396
v 4097.4933 27.6068 285.9898
v 4097.8137 27.7489 285.9896
v 4097.8152 27.7489 288.2655
f 397 398 399
v 4095.9059 26.9010 285.1378
v 4097.4913 27.6067 282.8609
v 4097.4933 27.6068 285.9898
f 400 401 402
v 4097.4933 27.6068 285.9898
v 4097.8152 27.7489 288.2655
v 4095.9059 26.9010 285.1378
f 403 404 405
v 4086.0744 22.5283 285.1442
v 4095.9059 26.9010 285.1378
v 4086.0764 22.5284 288.2731
f 406 407 408
v 4097.8152 27.7489 288.2655
v 4086.0764 22.5284 288.2731
v 4095.9059 26.9010 285.1378
f 409 410 411
v 4097.4913 27.6067 282.8609
v 4095.9059 26.9010 285.1378
v 4095.9044 26.9009 282.8619
f 412 413 414
v 4096.6005 30.6740 282.8615
v 4096.5735 30.7105 264.2691
v 4096.5892 30.7112 288.2663
f 415 416 417
v 4096.5892 30.7112 288.2663
v 4097.8152 27.7489 288.2655
v 4096.6026 30.6752 285.9904
f 418 419 420
v 4096.6026 30.6752 285.9904
v 4096.6005 30.6740 282.8615
v 4096.5892 30.7112 288.2663
f 421 422 423
v 4096.5735 30.7105 264.2691
v 4096.6005 30.6740 282.8615
v 4096.5883 30.6735 264.2691
f 424 425 426
v 4130.4968 -7.1972 282.8396
v 4130.4989 -7.1972 285.9685
v 4114.8788 -13.6633 285.9786
f 427 428 429
v 4128.7760 -3.0427 282.8407
v 4128.7780 -3.0426 285.9696
v 4130.4989 -7.1972 285.9685
f 430 431 432
v 4129.2164 -2.8598 282.8405
v 4129.2185 -2.8598 285.9694
v 4128.7780 -3.0426 285.9696
f 433 434 435
v 4128.1076 -0.1779 282.8412
v 4128.1097 -0.1778 285.9701
v 4129.2185 -2.8598 285.9694
f 436 437 438
v 4114.8768 -13.6633 282.8497
v 4114.8788 -13.6633 285.9786
v 4112.0481 -6.8278 285.9804
f 439 440 441
v 4062.0244 -13.5750 285.7284
v 4064.8336 -17.2225 285.7266
v 4063.1336 -13.1169 285.7277
f 442 443 444
v 4060.6310 -18.9621 285.7293
v 4064.8336 -17.2225 285.7266
v 4062.0244 -13.5750 285.7284
f 445 446 447
v 4062.0244 -13.5750 285.7284
v 4059.1704 -15.4453 285.7302
v 4060.6310 -18.9621 285.7293
f 448 449 450
v 4059.1704 -15.4453 285.7302
v 4058.5241 -8.4746 285.7306
v 4058.7696 -15.3872 285.7305
f 451 452 453
v 4058.5241 -8.4746 285.7306
v 4059.1704 -15.4453 285.7302
v 4062.0244 -13.5750 285.7284
f 454 455 456
v 4056.1878 -8.2264 285.7321
v 4058.5241 -8.4746 285.7306
v 4057.0759 -6.6708 285.7316
f 457 458 459
v 4062.0244 -13.5750 285.7284
v 4059.7104 -7.9838 285.7299
v 4058.5241 -8.4746 285.7306
f 460 461 462
v 4058.5241 -8.4746 285.7306
v 4056.1878 -8.2264 285.7321
v 4055.9429 -8.5588 285.7323
f 463 464 465
v 4057.0759 -6.6708 285.7316
v 4055.7675 -7.2123 285.7324
v 4056.1878 -8.2264 285.7321
f 466 467 468
v 4058.7696 -15.3872 285.7305
v 4058.5241 -8.4746 285.7306
v 4055.9429 -8.5588 285.7323
f 469 470 471
v 4055.9290 -8.5592 264.2951
v 4055.9429 -8.5588 285.7323
v 4056.1107 -8.3117 264.2950
f 472 473 474
v 4056.1878 -8.2264 285.7321
v 4056.1107 -8.3117 264.2950
v 4055.9429 -8.5588 285.7323
f 475 476 477
v 4056.1107 -8.3117 264.2950
v 4056.1878 -8.2264 285.7321
v 4056.1739 -8.2269 264.2949
f 478 479 480
v 4058.7557 -15.3877 264.2933
v 4058.7696 -15.3872 285.7305
v 4055.9429 -8.5588 285.7323
f 481 482 483
v 4058.7557 -15.3877 264.2933
v 4059.1565 -15.4458 264.2930
v 4059.1704 -15.4453 285.7302
f 484 485 486
v 4059.1704 -15.4453 285.7302
v 4058.7696 -15.3872 285.7305
v 4058.7557 -15.3877 264.2933
f 487 488 489
v 4063.1338 -13.1169 286.0117
v 4064.9222 -17.4367 286.0106
v 4072.4234 -14.3298 286.0058
f 490 491 492
v 4068.1839 -4.0875 286.0085
v 4063.1338 -13.1169 286.0117
v 4072.4234 -14.3298 286.0058
f 493 494 495
v 4062.0246 -13.5750 286.0124
v 4063.1338 -13.1169 286.0117
v 4059.5734 -7.6524 286.0140
f 496 497 498
v 4068.1839 -4.0875 286.0085
v 4059.5734 -7.6524 286.0140
v 4063.1338 -13.1169 286.0117
f 499 500 501
v 4063.1336 -13.1169 285.7277
v 4063.1338 -13.1169 286.0117
v 4062.0246 -13.5750 286.0124
f 502 503 504
v 4064.8318 -17.2225 282.8817
v 4064.8336 -17.2225 285.7266
v 4060.6310 -18.9621 285.7293
f 505 506 507
v 4058.5222 -8.4747 282.8858
v 4058.5241 -8.4746 285.7306
v 4059.7104 -7.9838 285.7299
f 508 509 510
v 4057.0741 -6.6708 282.8867
v 4057.0759 -6.6708 285.7316
v 4058.5241 -8.4746 285.7306
f 511 512 513
v 4055.7656 -7.2123 282.8875
v 4055.7675 -7.2123 285.7324
v 4057.0741 -6.6708 282.8867
f 514 515 516
v 4068.1818 -4.0876 282.8796
v 4068.1839 -4.0875 286.0085
v 4072.4234 -14.3298 286.0058
f 517 518 519
v 4059.5714 -7.6525 282.8851
v 4059.5734 -7.6524 286.0140
v 4068.1839 -4.0875 286.0085
f 520 521 522
v 4072.4214 -14.3298 282.8769
v 4072.4234 -14.3298 286.0058
v 4064.9222 -17.4367 286.0106
f 523 524 525
v 4062.0246 -13.5750 286.0124
v 4059.7104 -7.9838 285.7299
v 4062.0244 -13.5750 285.7284
f 526 527 528
v 4059.5714 -7.6525 282.8851
v 4059.7104 -7.9838 285.7299
v 4059.5734 -7.6524 286.0140
f 529 530 531
v 4062.0246 -13.5750 286.0124
v 4059.5734 -7.6524 286.0140
v 4059.7104 -7.9838 285.7299
f 532 533 534
v 4059.7086 -7.9839 282.8850
v 4059.7104 -7.9838 285.7299
v 4059.5714 -7.6525 282.8851
f 535 536 537
v 4064.9202 -17.4368 282.8817
v 4064.9222 -17.4367 286.0106
v 4064.8336 -17.2225 285.7266
f 538 539 540
v 4063.1338 -13.1169 286.0117
v 4064.8336 -17.2225 285.7266
v 4064.9222 -17.4367 286.0106
f 541 542 543
v 4063.1338 -13.1169 286.0117
v 4063.1336 -13.1169 285.7277
v 4064.8336 -17.2225 285.7266
f 544 545 546
v 4096.6005 30.6740 282.8615
v 4096.6026 30.6752 285.9904
v 4115.4142 38.4617 285.9783
f 547 548 549
v 4096.5883 30.6735 264.2691
v 4096.6005 30.6740 282.8615
v 4115.4142 38.4617 285.9783
f 550 551 552
v 4089.8522 19.1343 285.1418
v 4089.8527 19.1343 285.9948
v 4099.3702 23.0739 285.9886
f 553 554 555
v 4095.9044 26.9009 282.8619
v 4097.5082 27.5647 282.8609
v 4097.4913 27.6067 282.8609
f 556 557 558
v 4105.9967 8.7381 282.8554
v 4112.7542 11.5350 282.8511
v 4107.8638 23.3470 282.8543
f 559 560 561
v 4107.8638 23.3470 282.8543
v 4101.1064 20.5501 282.8586
v 4105.9967 8.7381 282.8554
f 562 563 564
v 4086.8926 17.7882 285.1436
v 4073.7472 12.3464 285.1521
v 4077.6460 2.9311 285.1496
f 565 566 567
v 4093.7927 9.6158 285.1393
v 4086.8926 17.7882 285.1436
v 4077.6460 2.9311 285.1496
f 568 569 570
v 4086.8926 17.7882 285.1436
v 4086.5128 21.1981 285.1439
v 4085.6318 20.8325 285.1444
f 571 572 573
v 4086.0744 22.5283 285.1442
v 4085.8719 22.7469 285.1443
v 4086.5128 21.1981 285.1439
f 574 575 576
v 4086.5128 21.1981 285.1439
v 4086.8926 17.7882 285.1436
v 4089.8522 19.1343 285.1418
f 577 578 579
v 4095.9059 26.9010 285.1378
v 4089.8522 19.1343 285.1418
v 4099.3696 23.0737 285.1356
f 580 581 582
v 4089.8522 19.1343 285.1418
v 4095.9059 26.9010 285.1378
v 4086.5128 21.1981 285.1439
f 583 584 585
v 4085.8719 22.7469 285.1443
v 4086.0744 22.5283 285.1442
v 4085.9670 22.7866 285.1442
f 586 587 588
v 4095.9059 26.9010 285.1378
v 4086.0744 22.5283 285.1442
v 4086.5128 21.1981 285.1439
f 589 590 591
v 4095.9059 26.9010 285.1378
v 4099.3696 23.0737 285.1356
v 4097.5097 27.5647 285.1368
f 592 593 594
v 4093.7927 9.6158 285.1393
v 4089.8522 19.1343 285.1418
v 4086.8926 17.7882 285.1436
f 595 596 597
v 4093.7912 9.6157 282.8633
v 4093.7927 9.6158 285.1393
v 4077.6460 2.9311 285.1496
f 598 599 600
v 4085.8704 22.7468 282.8684
v 4085.8719 22.7469 285.1443
v 4085.9670 22.7866 285.1442
f 601 602 603
v 4095.9044 26.9009 282.8619
v 4095.9059 26.9010 285.1378
v 4097.5097 27.5647 285.1368
f 604 605 606
v 4086.5112 21.1981 282.8680
v 4086.5128 21.1981 285.1439
v 4085.8719 22.7469 285.1443
f 607 608 609
v 4085.6303 20.8325 282.8685
v 4085.6318 20.8325 285.1444
v 4086.5128 21.1981 285.1439
f 610 611 612
v 4086.8912 17.7881 282.8678
v 4086.8926 17.7882 285.1436
v 4085.6318 20.8325 285.1444
f 613 614 615
v 4073.7458 12.3464 282.8762
v 4073.7472 12.3464 285.1521
v 4086.8926 17.7882 285.1436
f 616 617 618
v 4077.6445 2.9311 282.8736
v 4077.6460 2.9311 285.1496
v 4073.7472 12.3464 285.1521
f 619 620 621
v 4112.0460 -6.8279 282.8515
v 4112.0481 -6.8278 285.9804
v 4102.2753 -10.8736 285.9867
f 622 623 624
v 4130.9267 0.9896 282.8394
v 4130.9288 0.9897 285.9683
v 4128.1097 -0.1778 285.9701
f 625 626 627
v 4107.8638 23.3470 282.8543
v 4107.8658 23.3471 285.9831
v 4101.1064 20.5501 282.8586
f 628 629 630
v 4107.8658 23.3471 285.9831
v 4101.1084 20.5501 285.9874
v 4101.1064 20.5501 282.8586
f 631 632 633
v 4112.7542 11.5350 282.8511
v 4112.7562 11.5351 285.9800
v 4107.8658 23.3471 285.9831
f 634 635 636
v 4105.9967 8.7381 282.8554
v 4105.9988 8.7383 285.9843
v 4112.7562 11.5351 285.9800
f 637 638 639
v 4099.3696 23.0737 285.1356
v 4099.3702 23.0739 285.9886
v 4097.5097 27.5647 285.1368
f 640 641 642
v 4097.4933 27.6068 285.9898
v 4097.5097 27.5647 285.1368
v 4099.3702 23.0739 285.9886
f 643 644 645
v 4097.5082 27.5647 282.8609
v 4097.5097 27.5647 285.1368
v 4097.4913 27.6067 282.8609
f 646 647 648
v 4097.4933 27.6068 285.9898
v 4097.4913 27.6067 282.8609
v 4097.5097 27.5647 285.1368
f 649 650 651
v 4102.2733 -10.8737 282.8578
v 4102.2753 -10.8736 285.9867
v 4093.7927 9.6158 285.1393
f 652 653 654
v 4089.8527 19.1343 285.9948
v 4093.7927 9.6158 285.1393
v 4102.2753 -10.8736 285.9867
f 655 656 657
v 4089.8527 19.1343 285.9948
v 4089.8522 19.1343 285.1418
v 4093.7927 9.6158 285.1393
f 658 659 660
v 4105.9988 8.7383 285.9843
v 4101.1064 20.5501 282.8586
v 4101.1084 20.5501 285.9874
f 661 662 663
v 4060.6292 -18.9622 282.8844
v 4059.1565 -15.4458 264.2930
v 4065.4808 -30.6471 282.8813
f 664 665 666
v 4065.4808 -30.6471 282.8813
v 4059.1565 -15.4458 264.2930
v 4065.4688 -30.6474 264.2889
f 667 668 669
v 4060.6292 -18.9622 282.8844
v 4060.6310 -18.9621 285.7293
v 4059.1704 -15.4453 285.7302
f 670 671 672
v 4059.1704 -15.4453 285.7302
v 4059.1565 -15.4458 264.2930
v 4060.6292 -18.9622 282.8844
f 673 674 675
v 4055.7675 -7.2123 285.7324
v 4055.7656 -7.2123 282.8875
v 4056.1878 -8.2264 285.7321
f 676 677 678
v 4055.7656 -7.2123 282.8875
v 4056.1739 -8.2269 264.2949
v 4056.1878 -8.2264 285.7321
f 679 680 681
v 4055.7656 -7.2123 282.8875
v 4048.3406 10.6953 282.8923
v 4056.1739 -8.2269 264.2949
f 682 683 684
v 4048.3406 10.6953 282.8923
v 4048.3286 10.6948 264.2999
v 4056.1739 -8.2269 264.2949
f 685 686 687
v 4085.7649 26.3056 264.2760
v 4092.8827 29.2524 264.2715
v 4092.9405 29.2083 264.2714
f 688 689 690
v 4085.7536 26.2255 264.2760
v 4085.7649 26.3056 264.2760
v 4092.9405 29.2083 264.2714
f 691 692 693
v 4096.5883 30.6735 264.2691
v 4056.1739 -8.2269 264.2949
v 4092.9405 29.2083 264.2714
f 694 695 696
v 4092.9405 29.2083 264.2714
v 4056.1739 -8.2269 264.2949
v 4085.7536 26.2255 264.2760
f 697 698 699
v 4056.1739 -8.2269 264.2949
v 4096.5883 30.6735 264.2691
v 4130.9135 0.9891 264.2470
f 700 701 702
v 4096.5735 30.7105 264.2691
v 4096.5883 30.6735 264.2691
v 4092.9405 29.2083 264.2714
f 703 704 705
v 4085.7536 26.2255 264.2760
v 4084.8756 25.8248 264.2766
v 4084.8626 25.8560 264.2766
f 706 707 708
v 4084.8756 25.8248 264.2766
v 4056.1739 -8.2269 264.2949
v 4048.3286 10.6948 264.2999
f 709 710 711
v 4084.8756 25.8248 264.2766
v 4085.7536 26.2255 264.2760
v 4056.1739 -8.2269 264.2949
f 712 713 714
v 4056.1107 -8.3117 264.2950
v 4058.7557 -15.3877 264.2933
v 4055.9290 -8.5592 264.2951
f 715 716 717
v 4059.1565 -15.4458 264.2930
v 4056.1107 -8.3117 264.2950
v 4056.1739 -8.2269 264.2949
f 718 719 720
v 4115.3999 38.4610 264.2570
v 4130.9135 0.9891 264.2470
v 4096.5883 30.6735 264.2691
f 721 722 723
v 4122.2765 -11.0196 264.2525
v 4130.9135 0.9891 264.2470
v 4127.1964 -11.7958 264.2494
f 724 725 726
v 4135.7671 -10.7337 264.2438
v 4127.1964 -11.7958 264.2494
v 4130.9135 0.9891 264.2470
f 727 728 729
v 4127.1964 -11.7958 264.2494
v 4123.2711 -13.4223 264.2519
v 4122.2765 -11.0196 264.2525
f 730 731 732
v 4109.6361 -12.3619 264.2607
v 4130.9135 0.9891 264.2470
v 4122.2765 -11.0196 264.2525
f 733 734 735
v 4127.1964 -11.7958 264.2494
v 4131.4023 -12.5420 264.2466
v 4128.4214 -14.7510 264.2486
f 736 737 738
v 4131.7470 -13.3730 264.2464
v 4128.4214 -14.7510 264.2486
v 4131.4023 -12.5420 264.2466
f 739 740 741
v 4127.1964 -11.7958 264.2494
v 4135.7671 -10.7337 264.2438
v 4131.4023 -12.5420 264.2466
f 742 743 744
v 4059.1565 -15.4458 264.2930
v 4109.6361 -12.3619 264.2607
v 4065.4688 -30.6474 264.2889
f 745 746 747
v 4058.7557 -15.3877 264.2933
v 4056.1107 -8.3117 264.2950
v 4059.1565 -15.4458 264.2930
f 748 749 750
v 4122.2765 -11.0196 264.2525
v 4111.0212 -15.6824 264.2598
v 4109.7156 -12.5420 264.2606
f 751 752 753
v 4109.7156 -12.5420 264.2606
v 4109.6361 -12.3619 264.2607
v 4122.2765 -11.0196 264.2525
f 754 755 756
v 4059.1565 -15.4458 264.2930
v 4130.9135 0.9891 264.2470
v 4109.6361 -12.3619 264.2607
f 757 758 759
v 4130.9135 0.9891 264.2470
v 4059.1565 -15.4458 264.2930
v 4056.1739 -8.2269 264.2949
f 760 761 762
v 4130.9288 0.9897 285.9683
v 4130.9267 0.9896 282.8394
v 4115.4142 38.4617 285.9783
f 763 764 765
v 4130.9267 0.9896 282.8394
v 4115.3999 38.4610 264.2570
v 4115.4142 38.4617 285.9783
f 766 767 768
v 4115.3999 38.4610 264.2570
v 4130.9267 0.9896 282.8394
v 4130.9135 0.9891 264.2470
f 769 770 771
v 4130.9267 0.9896 282.8394
v 4135.7794 -10.7333 282.8362
v 4130.9135 0.9891 264.2470
f 772 773 774
v 4135.7794 -10.7333 282.8362
v 4135.7671 -10.7337 264.2438
v 4130.9135 0.9891 264.2470
f 775 776 777
v 4102.2753 -10.8736 285.9867
v 4105.9988 8.7383 285.9843
v 4089.8527 19.1343 285.9948
f 778 779 780
v 4105.9988 8.7383 285.9843
v 4102.2753 -10.8736 285.9867
v 4112.0481 -6.8278 285.9804
f 781 782 783
v 4114.8788 -13.6633 285.9786
v 4128.7780 -3.0426 285.9696
v 4112.0481 -6.8278 285.9804
f 784 785 786
v 4101.1084 20.5501 285.9874
v 4089.8527 19.1343 285.9948
v 4105.9988 8.7383 285.9843
f 787 788 789
v 4099.3702 23.0739 285.9886
v 4107.8658 23.3471 285.9831
v 4097.8137 27.7489 285.9896
f 790 791 792
v 4097.8137 27.7489 285.9896
v 4107.8658 23.3471 285.9831
v 4096.6026 30.6752 285.9904
f 793 794 795
v 4099.3702 23.0739 285.9886
v 4097.8137 27.7489 285.9896
v 4097.4933 27.6068 285.9898
f 796 797 798
v 4099.3702 23.0739 285.9886
v 4089.8527 19.1343 285.9948
v 4101.1084 20.5501 285.9874
f 799 800 801
v 4101.1084 20.5501 285.9874
v 4107.8658 23.3471 285.9831
v 4099.3702 23.0739 285.9886
f 802 803 804
v 4128.1097 -0.1778 285.9701
v 4112.0481 -6.8278 285.9804
v 4128.7780 -3.0426 285.9696
f 805 806 807
v 4128.7780 -3.0426 285.9696
v 4129.2185 -2.8598 285.9694
v 4128.1097 -0.1778 285.9701
f 808 809 810
v 4112.0481 -6.8278 285.9804
v 4128.1097 -0.1778 285.9701
v 4112.7562 11.5351 285.9800
f 811 812 813
v 4115.4142 38.4617 285.9783
v 4112.7562 11.5351 285.9800
v 4130.9288 0.9897 285.9683
f 814 815 816
v 4112.7562 11.5351 285.9800
v 4105.9988 8.7383 285.9843
v 4112.0481 -6.8278 285.9804
f 817 818 819
v 4107.8658 23.3471 285.9831
v 4112.7562 11.5351 285.9800
v 4115.4142 38.4617 285.9783
f 820 821 822
v 4112.7562 11.5351 285.9800
v 4128.1097 -0.1778 285.9701
v 4130.9288 0.9897 285.9683
f 823 824 825
v 4096.6026 30.6752 285.9904
v 4107.8658 23.3471 285.9831
v 4115.4142 38.4617 285.9783
f 826 827 828
v 4130.4989 -7.1972 285.9685
v 4128.7780 -3.0426 285.9696
v 4114.8788 -13.6633 285.9786
f 829 830 831
v 4109.6361 -12.3619 264.2607
v 4065.4808 -30.6471 282.8813
v 4065.4688 -30.6474 264.2889
f 832 833 834
v 4109.7156 -12.5420 264.2606
v 4109.6483 -12.3614 282.8531
v 4109.6361 -12.3619 264.2607
f 835 836 837
v 4111.0212 -15.6824 264.2598
v 4109.7278 -12.5416 282.8530
v 4109.7156 -12.5420 264.2606
f 838 839 840
v 4122.2765 -11.0196 264.2525
v 4111.0334 -15.6820 282.8522
v 4111.0212 -15.6824 264.2598
f 841 842 843
v 4123.2711 -13.4223 264.2519
v 4122.2887 -11.0192 282.8449
v 4122.2765 -11.0196 264.2525
f 844 845 846
v 4127.1964 -11.7958 264.2494
v 4123.2832 -13.4219 282.8443
v 4123.2711 -13.4223 264.2519
f 847 848 849
v 4128.4214 -14.7510 264.2486
v 4127.2086 -11.7954 282.8418
v 4127.1964 -11.7958 264.2494
f 850 851 852
v 4131.7470 -13.3730 264.2464
v 4128.4337 -14.7506 282.8410
v 4128.4214 -14.7510 264.2486
f 853 854 855
v 4131.4023 -12.5420 264.2466
v 4131.7593 -13.3726 282.8388
v 4131.7470 -13.3730 264.2464
f 856 857 858
v 4135.7671 -10.7337 264.2438
v 4131.4145 -12.5416 282.8390
v 4131.4023 -12.5420 264.2466
f 859 860 861
v 4092.9405 29.2083 264.2714
v 4096.5892 30.7112 288.2663
v 4096.5735 30.7105 264.2691
f 862 863 864
v 4092.8827 29.2524 264.2715
v 4092.9562 29.2090 288.2686
v 4092.9405 29.2083 264.2714
f 865 866 867
v 4085.7649 26.3056 264.2760
v 4092.8983 29.2531 288.2687
v 4092.8827 29.2524 264.2715
f 868 869 870
v 4085.7536 26.2255 264.2760
v 4085.7805 26.3062 288.2732
v 4085.7649 26.3056 264.2760
f 871 872 873
v 4084.8626 25.8560 264.2766
v 4085.7693 26.2263 288.2732
v 4085.7536 26.2255 264.2760
f 874 875 876
v 4048.3286 10.6948 264.2999
v 4084.8876 25.8255 282.8690
v 4084.8756 25.8248 264.2766
f 877 878 879
v 4085.2571 24.4985 282.8688
v 4085.4138 24.5622 288.2735
v 4085.4103 24.5620 282.8687
f 880 881 882
v 4097.8152 27.7489 288.2655
v 4097.8137 27.7489 285.9896
v 4096.6026 30.6752 285.9904
f 883 884 885
v 4130.4968 -7.1972 282.8396
v 4114.8788 -13.6633 285.9786
v 4114.8768 -13.6633 282.8497
f 886 887 888
v 4128.7760 -3.0427 282.8407
v 4130.4989 -7.1972 285.9685
v 4130.4968 -7.1972 282.8396
f 889 890 891
v 4129.2164 -2.8598 282.8405
v 4128.7780 -3.0426 285.9696
v 4128.7760 -3.0427 282.8407
f 892 893 894
v 4128.1076 -0.1779 282.8412
v 4129.2185 -2.8598 285.9694
v 4129.2164 -2.8598 282.8405
f 895 896 897
v 4114.8768 -13.6633 282.8497
v 4112.0481 -6.8278 285.9804
v 4112.0460 -6.8279 282.8515
f 898 899 900
v 4058.7557 -15.3877 264.2933
v 4055.9429 -8.5588 285.7323
v 4055.9290 -8.5592 264.2951
f 901 902 903
v 4063.1336 -13.1169 285.7277
v 4062.0246 -13.5750 286.0124
v 4062.0244 -13.5750 285.7284
f 904 905 906
v 4064.8318 -17.2225 282.8817
v 4060.6310 -18.9621 285.7293
v 4060.6292 -18.9622 282.8844
f 907 908 909
v 4058.5222 -8.4747 282.8858
v 4059.7104 -7.9838 285.7299
v 4059.7086 -7.9839 282.8850
f 910 911 912
v 4057.0741 -6.6708 282.8867
v 4058.5241 -8.4746 285.7306
v 4058.5222 -8.4747 282.8858
f 913 914 915
v 4055.7675 -7.2123 285.7324
v 4057.0759 -6.6708 285.7316
v 4057.0741 -6.6708 282.8867
f 916 917 918
v 4068.1818 -4.0876 282.8796
v 4072.4234 -14.3298 286.0058
v 4072.4214 -14.3298 282.8769
f 919 920 921
v 4059.5714 -7.6525 282.8851
v 4068.1839 -4.0875 286.0085
v 4068.1818 -4.0876 282.8796
f 922 923 924
v 4072.4214 -14.3298 282.8769
v 4064.9222 -17.4367 286.0106
v 4064.9202 -17.4368 282.8817
f 925 926 927
v 4064.9202 -17.4368 282.8817
v 4064.8336 -17.2225 285.7266
v 4064.8318 -17.2225 282.8817
f 928 929 930
v 4096.5883 30.6735 264.2691
v 4115.4142 38.4617 285.9783
v 4115.3999 38.4610 264.2570
f 931 932 933
v 4089.8522 19.1343 285.1418
v 4099.3702 23.0739 285.9886
v 4099.3696 23.0737 285.1356
f 934 935 936
v 4093.7912 9.6157 282.8633
v 4077.6460 2.9311 285.1496
v 4077.6445 2.9311 282.8736
f 937 938 939
v 4085.8704 22.7468 282.8684
v 4085.9670 22.7866 285.1442
v 4085.9656 22.7866 282.8683
f 940 941 942
v 4095.9044 26.9009 282.8619
v 4097.5097 27.5647 285.1368
v 4097.5082 27.5647 282.8609
f 943 944 945
v 4086.5112 21.1981 282.8680
v 4085.8719 22.7469 285.1443
v 4085.8704 22.7468 282.8684
f 946 947 948
v 4085.6303 20.8325 282.8685
v 4086.5128 21.1981 285.1439
v 4086.5112 21.1981 282.8680
f 949 950 951
v 4086.8912 17.7881 282.8678
v 4085.6318 20.8325 285.1444
v 4085.6303 20.8325 282.8685
f 952 953 954
v 4073.7458 12.3464 282.8762
v 4086.8926 17.7882 285.1436
v 4086.8912 17.7881 282.8678
f 955 956 957
v 4077.6445 2.9311 282.8736
v 4073.7472 12.3464 285.1521
v 4073.7458 12.3464 282.8762
f 958 959 960
v 4112.0460 -6.8279 282.8515
v 4102.2753 -10.8736 285.9867
v 4102.2733 -10.8737 282.8578
f 961 962 963
v 4130.9267 0.9896 282.8394
v 4128.1097 -0.1778 285.9701
v 4128.1076 -0.1779 282.8412
f 964 965 966
v 4112.7542 11.5350 282.8511
v 4107.8658 23.3471 285.9831
v 4107.8638 23.3470 282.8543
f 967 968 969
v 4105.9967 8.7381 282.8554
v 4112.7562 11.5351 285.9800
v 4112.7542 11.5350 282.8511
f 970 971 972
v 4102.2733 -10.8737 282.8578
v 4093.7927 9.6158 285.1393
v 4093.7912 9.6157 282.8633
f 973 974 975
v 4101.1064 20.5501 282.8586
v 4105.9988 8.7383 285.9843
v 4105.9967 8.7381 282.8554
f 976 977 978
